<svg id="Layer_1" xmlns="http://www.w3.org/2000/svg" viewBox="0 0 300 40.8"><style>.st0{fill:#003552;}</style><path class="st0" d="M12.8 11.7v16.1h6.4c3.3 0 5.7-.6 7.1-1.9 1.4-1.3 2.2-3.3 2.2-6.2 0-2.8-.7-4.9-2.2-6.2-1.5-1.3-3.8-1.9-7.1-1.9l-6.4.1zM0 3.5h21.2c6.9 0 12.1 1.4 15.7 4.2 3.6 2.8 5.4 6.9 5.4 12.4 0 5.4-1.8 9.5-5.4 12.3-3.6 2.8-8.8 4.2-15.7 4.2H0V3.5zm62.1 21.8h8.2l-4-11.7-4.2 11.7zm-18 11.4L58.5 3.6h16.3l13.4 33.1h-14l-1.1-3.3H59l-1.2 3.3H44.1zm55.1 0V12H87.3V3.6H124V12h-12v24.7H99.2zm41.1-11.4h8.2l-4-11.7-4.2 11.7zm-18 11.4l14.3-33.1h16.3l13.4 33.1h-13.9l-1.1-3.3h-14.1l-1.2 3.3h-13.7zM238.8 12h-7.1v5.9h7.5c1.9 0 3.3-.2 4.1-.7.8-.5 1.2-1.2 1.2-2.3 0-1.1-.4-1.8-1.1-2.3-.8-.4-2.3-.6-4.6-.6zM190.8 25.3h8.2l-4-11.7z"/><path class="st0" d="M169.6 0v40.8H300V0H169.6zm33.3 36.7l-1.1-3.3h-14.1l-1.2 3.3h-13.7l14.3-33.1h16.3l13.4 33.1h-13.9zm56.2 0h-14.2c-.4-.7-.7-2.1-.7-4.1 0-1.2-.1-2.1-.2-2.7-.1-1.2-.5-2.1-1.2-2.5-.7-.5-1.8-.7-3.4-.7h-7.6v10.1h-13V3.6H244c2.9 0 5.2.1 6.9.4 1.7.3 3.1.7 4 1.3 1.2.7 2.2 1.7 2.8 2.9.7 1.2 1 2.6 1 4.3 0 1.9-.5 3.7-1.5 5.1-1 1.5-2.3 2.6-4 3.2 1.4.6 2.5 1.4 3.1 2.3.6.9.9 2.5 1 4.8 0 .3 0 .6.1 1 .2 4.3.8 6.7 1.7 7.2v.6zM296.9 12h-12v24.7h-12.8V12h-12V3.6h36.8V12z"/></svg>