<svg version="1" xmlns="http://www.w3.org/2000/svg" width="257.333" height="117.333" viewBox="0 0 193.000000 88.000000"><path d="M88.5 17C78.2 21 72 30 71.2 41.6c-.7 11.1 2.9 19.6 11 25.4 5.2 3.8 10.2 5.1 19 5.1 11.7 0 21.6-6.1 26.2-16.1 2.9-6.3 2.9-18.7 0-25-4.6-10.1-13-15.2-25.9-15.7-6.2-.2-9.1.1-13 1.7zm20.2 12c12.1 7.3 9.6 27.4-3.8 31-5.6 1.5-10.6.3-15-3.7-8.6-7.8-7.4-21.4 2.5-27.4 4.2-2.5 12.1-2.5 16.3.1zM19 43.9V72h9.3c20.8 0 30.9-4.6 36.8-16.7 3-6.2 3-17 0-23.8-2.8-6.3-5.4-9-11.6-12.3-4.6-2.5-6.1-2.7-19.7-3L19 15.8v28.1zm27.4-14.1c5.2 3.1 7.1 6.6 7.1 13.7 0 4.8-.5 7-2.1 9.2-3.1 4.2-10 7.4-15.4 7.1l-4.5-.3-.3-15c-.1-8.2 0-15.6.3-16.3.7-1.9 10.7-.8 14.9 1.6zm86.8 5.9c.4 18 .7 20.2 2.8 24.6 3.8 8.1 10.4 11.8 21.1 11.8 10.6.1 17.4-3.7 21-11.6 1.6-3.5 1.9-6.7 1.9-24.3V16h-11.9l-.3 18.9c-.3 17.4-.5 19.2-2.4 21.8-4.2 5.7-12.2 5.2-16.8-1-1.9-2.6-2.1-4.4-2.4-21.3l-.3-18.4h-13.2l.5 19.7z"/></svg>