<svg id="Layer_1" xmlns="http://www.w3.org/2000/svg" viewBox="0 0 200 104.1"><style>.st0{fill:#29ABE2;} .st1{fill:#0C1525;}</style><path class="st0" d="M179.3 10.5l-10 10c10.1 6.9 16.8 18.5 16.8 31.6 0 21-17.1 38.1-38.1 38.1H99.6l-13.9 13.9H148c28.7 0 52.1-23.4 52.1-52.1-.1-16.9-8.3-32-20.8-41.5zM52.1 0C23.4 0 0 23.4 0 52.1c0 17 8.2 32 20.7 41.6l10-10c-10.1-6.9-16.8-18.5-16.8-31.6C13.9 31.1 31 14 52 14h48.4l14-14H52.1zM147.9 27.9c4 0 7.8 1 11.2 2.8l10.2-10.2c-6.1-4.1-13.4-6.5-21.3-6.5h-47.5L86.6 27.9h61.3zM52.1 76.2c-4 0-7.7-1-11-2.7L30.9 83.8c6.1 4.1 13.3 6.4 21.1 6.4h47.5l13.9-13.9H52.1z"/><path class="st0" d="M41.8 52.1c0-5.7 4.6-10.2 10.2-10.2h20.5L86.4 28H52.1c-13.3 0-24.2 10.8-24.2 24.2 0 9.3 5.3 17.4 13 21.4l11.2-11.2c-5.7-.1-10.3-4.7-10.3-10.3z"/><path class="st1" d="M127.5 62.3H52.1l20.5-20.5H148l-20.5 20.5zM55.6 51.1H57v-5.8h-1.4v5.8zm4.1 0h1.4v-4.6h1.8v-1.2H58v1.2h1.8v4.6zM73 57.5h2l.9-2.8h3.8l.9 2.8h2l-3.8-11h-2.1l-3.7 11zm3.4-4.4l1-2.9c.2-.6.4-1.7.4-1.7s.2 1.1.4 1.7l1 2.9h-2.8zm8.3 4.4h2v-4.1h1.9l2.2 4.1H93l-2.3-4.1c-.2-.4-.4-.6-.4-.6 1.2-.5 1.8-1.7 1.8-3 0-1.5-.7-2.5-1.9-3-.5-.2-1-.3-2.1-.3h-3.6v11zm2-5.8v-3.4h1.5c.6 0 .9.1 1.2.2.6.2.9.8.9 1.5 0 1.1-.7 1.7-1.7 1.7h-1.9zm8.4 5.8h6.8v-1.7h-4.8v-2.9h3.7v-1.7h-3.7v-2.9h4.6v-1.7h-6.6v10.9zm9.3 0h2v-6.3c0-.6-.1-1.7-.1-1.7s.5 1 .9 1.7l4.2 6.3h2v-11h-2v6.3c0 .6.1 1.7.1 1.7s-.5-1-.9-1.7l-4.2-6.3h-2v11zm10.9 0h2l.9-2.8h3.8l.9 2.8h2l-3.8-11H119l-3.7 11zm3.4-4.4l1-2.9c.2-.6.4-1.7.4-1.7s.2 1.1.4 1.7l1 2.9h-2.8z"/><path class="st0" d="M159.1 30.6l-11.2 11.2c5.7 0 10.2 4.6 10.2 10.2s-4.6 10.2-10.2 10.2h-20.5l-13.9 13.9h34.4c13.3 0 24.2-10.8 24.2-24.2 0-9.1-5.3-17.2-13-21.3z"/></svg>