<svg xmlns="http://www.w3.org/2000/svg" width="200" height="71.069" viewBox="0 0 200 71.069"><path fill="#3469B3" d="M59.7 17.898V54.1H41.808V17.89H22.63V0h56.252v17.898H59.7zm76.94 18.317V54.1H92.6c-9.045 0-8.976-7.8-8.976-7.8V.006h53.014l.002 17.887-35.132-.003v3.67h21.554v10.98h-21.55v3.673h35.13zM181.903 54.1V38.386l-11.3 15.828-11.33-15.828V54.1h-17.887V.005h17.833L170.6 16.98 181.956.005H200V54.1h-18.098zM0 54.098V.005h8.943s8.94-.055 8.94 8.99v45.102H0zm197.82 9.49c-.31-.074-.617-.115-.92-.115-.36 0-.63.085-.82.25-.194.167-.288.384-.288.653 0 .166.038.314.114.436.077.126.2.245.368.362.17.116.57.326 1.2.624.835.4 1.407.8 1.716 1.2.31.402.464.895.464 1.475 0 .804-.29 1.44-.87 1.904-.58.464-1.387.696-2.42.696-.953 0-1.793-.18-2.526-.536v-1.76c.602.27 1.11.46 1.53.572.415.1.796.16 1.143.16.42 0 .74-.09.96-.24.228-.16.33-.4.33-.71 0-.18-.05-.33-.14-.47-.1-.136-.24-.267-.43-.39-.188-.128-.574-.33-1.157-.607-.544-.258-.955-.503-1.226-.738-.272-.238-.49-.51-.653-.825-.16-.314-.243-.68-.243-1.1 0-.787.268-1.41.803-1.86.535-.45 1.277-.676 2.22-.676.462 0 .905.053 1.326.166.42.107.86.263 1.32.46l-.61 1.475c-.478-.194-.868-.336-1.18-.41zm-11.08 7.482c-1.345 0-2.373-.396-3.082-1.19-.712-.79-1.064-1.924-1.064-3.407 0-1.436.412-2.562 1.235-3.367.82-.803 1.96-1.207 3.42-1.207.91 0 1.8.18 2.65.54l-.63 1.513c-.65-.326-1.33-.49-2.03-.49-.82 0-1.478.277-1.968.822-.496.55-.74 1.29-.74 2.216 0 .97.197 1.71.595 2.22.395.51.97.766 1.73.766.395 0 .796-.04 1.202-.12v-1.86h-1.69V65.93h3.537v4.626c-.57.19-1.11.32-1.615.396-.507.074-1.025.11-1.555.11zm-14.632-6.873h-.053c.075 1.195.114 2.044.114 2.552v4.19h-1.7v-8.92h2.39l3.87 6.68h.04c-.06-1.16-.09-1.98-.09-2.46v-4.21h1.704v8.92h-2.403l-3.88-6.75zm-8.115-2.17h1.89v8.92h-1.89v-8.92zm-6.145 8.92h-1.892V63.6h-2.424v-1.573h6.736V63.6h-2.42v7.347zm-12.793-8.92h5.14v1.55h-3.246v1.96h3.01v1.548h-3.02v2.3h3.25v1.562h-5.14v-8.92zm-9.35 0h5.14v1.55H137.6v1.96h3.017v1.548h-3.02v2.3h3.246v1.562h-5.138v-8.92zm-6.355 4.697l.008-.69c.005-.26.034-.95.083-2.072h-.05l-2.3 6.986h-1.73l-2.15-6.998h-.052c.078 1.423.116 2.373.116 2.85v4.148h-1.69v-8.92h2.576l2.11 6.823h.04l2.24-6.82h2.572v8.92h-1.762v-4.22zm-24.252-2.527h-.052c.075 1.195.114 2.044.114 2.552v4.19h-1.69v-8.92h2.387l3.875 6.68h.042c-.06-1.16-.092-1.98-.092-2.46v-4.21h1.704v8.92h-2.406l-3.882-6.75zM95.025 71.07c-1.368 0-2.417-.396-3.15-1.192-.733-.793-1.097-1.93-1.097-3.414 0-1.486.367-2.62 1.1-3.405.735-.79 1.787-1.18 3.16-1.18 1.37 0 2.42.392 3.144 1.182.727.787 1.09 1.922 1.09 3.402 0 1.476-.366 2.61-1.1 3.404-.732.796-1.78 1.19-3.147 1.19zm.01-7.61c-.75 0-1.32.25-1.7.76-.384.504-.576 1.256-.576 2.253 0 .997.18 1.75.56 2.254.38.502.94.756 1.7.756 1.502 0 2.26-1.003 2.26-3.01 0-2.01-.75-3.013-2.25-3.013zm-10.35-1.433h1.894v8.92h-1.9v-8.92zm-6.142 8.92H76.65V63.6h-2.424v-1.573h6.737V63.6h-2.42v7.347zm-9.7-.273c-.557.263-1.215.395-1.975.395-1.147 0-2.038-.3-2.673-.89-.636-.59-.952-1.396-.952-2.415V62.02h1.884v5.46c0 .69.14 1.195.416 1.518.278.32.733.48 1.372.48.62 0 1.068-.16 1.346-.484.29-.323.42-.83.42-1.52v-5.45h1.89V67.8c0 .66-.144 1.235-.44 1.734-.292.494-.72.877-1.28 1.14zm-14.95-8.647h1.894v7.36h3.617v1.56h-5.51v-8.92zM45.45 71.07c-1.37 0-2.417-.396-3.15-1.192-.733-.793-1.1-1.93-1.1-3.414 0-1.486.367-2.62 1.102-3.405.733-.79 1.788-1.18 3.16-1.18 1.37 0 2.42.392 3.144 1.182.728.787 1.088 1.922 1.088 3.402 0 1.476-.364 2.61-1.096 3.404-.733.796-1.783 1.19-3.148 1.19zm.01-7.61c-.752 0-1.32.25-1.7.76-.384.504-.576 1.256-.576 2.253 0 .997.19 1.75.567 2.254.38.502.95.756 1.7.756 1.51 0 2.27-1.003 2.27-3.01 0-2.01-.75-3.013-2.25-3.013zm-12.43 7.487l-3.028-8.92h1.91l1.68 5.308c.09.314.188.68.287 1.094.1.41.16.7.18.86.04-.375.194-1.027.46-1.965l1.69-5.308h1.91l-3.03 8.92h-2.06zm-11.252-8.92h5.137v1.55h-3.247v1.96h3.02v1.548h-3.02v2.3h3.247v1.562h-5.137v-8.92zm-11.74 8.92H8.142V63.6h-2.42v-1.573h6.736V63.6h-2.424v7.347zm-9.93-8.92h1.89v8.92H.108v-8.92z"/></svg>