<svg id="Layer_1" xmlns="http://www.w3.org/2000/svg" viewBox="0 0 200 58.3"><style>.st0{fill-rule:evenodd;clip-rule:evenodd;fill:#017676;} .st1{fill-rule:evenodd;clip-rule:evenodd;fill:#333333;} .st2{fill:#333333;} .st3{fill:#017676;}</style><path class="st0" d="M64.3 15.3c-3.1.6-6 1.3-9.1 1.9.6-2.5 1.1-4.8 1.7-7.1h-.1c-1.6 4.8-3.3 9.7-5 14.6-3.3-3.3-6.5-6.5-9.8-9.9 1-.4 1.9-.7 2.9-1.1 3.9-1.4 7.7-2.8 11.6-4.3.4-.2.7-.1 1.1.2 2.1 1.7 4.1 3.4 6.2 5.1.1.2.3.4.5.6z"/><path class="st1" d="M138.2 58.3c-1-.6-1.1-1.6-.8-2.5.3-1 .7-1.2 1.3-2.1.5-.8.6-2.2.2-3.1-.2.2-.3.4-.4.6-.5.6-.9 1.2-1.4 1.7-.6.6-1.3.3-1.6-.5-.1-.4-.2-.8-.2-1.1.1-1.4.5-2.8 1.3-4l.1-.1c.3-.4.7-.8 1.3-.7.6.1.8.7.9 1.2 0 .1.1.3.1.4-.1 1.2.7 2.2 1 3.3.5-.4 1-.7 1.5-1.1 0-.6-.1-1.2-.1-1.9 0-.3 0-.7.4-.8.4-.1.4.4.5.6v.2c.6-.4 1.1-.9 1.8-1.3.8-.4 1.5-.1 1.9.7.1-.1.2-.2.2-.3.8-1 1.3-1.1 2.3-.4.5.3.7.7.3 1.3-.2.4-.6.7-.9 1l-1.2.9c-.5.4-.5.9-.2 1.5s.9.8 1.4.5c.3-.2.6-.4.9-.5.2-.1.5-.2.8-.3.3-.6.5-1.4.9-2 .3-.6.8-1.1 1.2-1.6.3-.3.7-.4 1.2-.2.4.2.4.6.4.9 0 .7-.1 1.4-.2 2.1 0 .3-.1.6 0 .9.1.6.7 1 1.3.7.5-.2 1-.5 1.5-.8.6-.4.1-1 .2-1.5 0-.2 0-.5-.1-.8-.6.2-1.2.4-1.8.5-.2 0-.4-.1-.6-.2.1-.2.1-.6.2-.6.5-.2 1.1-.4 1.7-.5.5-.1.7-.3.7-.8 0-1.5.1-2.9.1-4.4v-.3h.7v5c.8-.1 1.5-.2 2.3-.3-.2.5-.5.8-.9 1-1.4.4-1.4.4-1.4 2 0 .5.1 1 .2 1.5 0 .2.2.4.3.7.8-.8 1.5-1.6 2.3-2.5 0 .4.1.7 0 .9-.4 1.1-1.2 2-2.2 2.5-.2.1-.6-.2-.9-.4-.2-.2-.3-.5-.5-.7-1.3.8-2.7 1.6-4.1.2-1.8 1.3-2.2 1.3-2.8 0-2.2 1.6-3.7.8-4.2-1.5h-.4c-.1-.1-.3-.2-.3-.4 0-.1.1-.4.2-.4.6-.2.7-.6.7-1.1 0-.3.1-.5.2-.8-.6-.3-1.6-.1-2.2.5-.6.6-.9 1.4-1 2.2-.1.5-.1 1-.1 1.5s-.2.9-.7 1.2c-.1-.4-.2-.7-.3-1v-1.1c-1 .3-1.4.9-1.2 1.8.2 1.1.2 2.1 0 3.2-.2.8-.6 1.5-1.4 1.9.1-.5-.2-.5-.4-.5zm-2-6.2c.2 0 .2 0 .3-.1 1.1-.8 1.9-3.1 1.5-4.4-.1-.4-.4-.5-.7-.2-.1.1-.3.3-.3.5-.3.9-.6 1.9-.8 2.8-.1.5 0 1 0 1.4zm3.2 1.1c-.2.3-.3.4-.4.6-.5.9-.8 1.8-.8 2.8 0 .2.1.4.2.7.3-.1.6-.2.7-.4.7-1.2.6-2.3.3-3.7zm11.2-.9c1.1-.2 2.2-2.6 1.8-4-1.3 1.1-1.5 2.5-1.8 4zm-4-3c.7-.5 1.4-.7 1.6-1.6-1-.2-1.4.3-1.6 1.6z"/><path class="st0" d="M24.8 25.9l8.4 7.2.1-.1c-.1-.1-.2-.3-.4-.4-2.3-2.4-4.6-4.8-6.9-7.1-.3-.3-.4-.6-.3-1 1.3-6 2.7-11.9 4-17.9 0-.1 0-.1-.1-.2L26 19C17.3 12.7 8.6 6.4 0 .1V0c1.4.3 2.9.6 4.3.8 5.3 1 10.6 2 15.9 3.1 3 .6 6.1 1.2 9.1 1.8.4.1.7.3 1 .5 7 6 13.9 12.1 20.9 18.2l.4.4-.6.3c-5.3 2.7-10.5 5.4-15.8 8.1-.5.3-1 .6-1.4.9-7.4 5.8-14.8 11.5-22.2 17.2-.1.1-.2.1-.3.1 4.4-8.5 9-17 13.5-25.5z"/><path class="st1" d="M125.4 50.8c.4-.5.6-.9.9-1.3.6-.6 1.5-.8 1.8.5.1.5.2.9.4 1.3.2.7.5.8 1.2.5.2-.1.4-.3.7-.4.2.5.1.9-.4 1.2-.7.4-1.4.4-1.8-.1-.3-.3-.4-.8-.6-1.2-.1-.4-.2-.9-.4-1.5-.2.3-.5.6-.6.8-.3.6-.5 1.3-.9 1.9-.1.2-.4.3-.6.5-.1-.2-.3-.4-.4-.6-.1-.2-.1-.5-.1-.6-.9.4-1.8.8-2.7 1.1-1.6.5-2.6-.1-3.2-1.7-.2.2-.3.4-.5.6-.2.2-.3.5-.5.7-.3.4-.7.7-1.2.6-.6-.1-.7-.7-.8-1.2v-2.5c-.6 0-.9.3-1.2.6-.4.6-.6 1.2-1 1.7-.4.6-.8 1.1-1.2 1.6-.1 0-.1-.1-.2-.1v-1.5c-1.1.3-2.1.1-2.8-.8-.2.4-.3.7-.5 1-.1.2-.3.5-.5.7-.7.7-1.3.7-1.9-.2-.1-.2-.2-.3-.3-.5-1.4.8-2.7 1.7-4.2.2-.3.2-.6.5-.9.7-.4.3-.9.4-1.4.1-.4-.3-.5-.8-.4-1.3v-.2c-.6.4-1.1 1.6-1.6 2-.9.6-1.7-.4-2.2-1.4-.4-.9-.4-1.9-.3-2.9.1-1 .3-1.9.3-2.9.1-.8 0-1.7 0-2.5 0-.4 0-.8-.1-1.2.7-.1 1 .2 1 .9 0 1.2-.1 2.5-.2 3.7-.1 1.2-.1 2.3-.2 3.5v.2c.1 1.3.6 1.5 1.6.8.5-.3 1.1-.6 1.6-.9.1-.1.2-.3.3-.4.5-.9 1-1.8 1.6-2.7.2-.3.6-.4 1-.5.4-.1.7.2.7.7 0 .8-.1 1.6-.2 2.3v1c.1.5.6.9 1.1.7.7-.3 1.3-.7 1.9-1.1.1-.1.1-.3.1-.5v-3.9c.7 0 .9.1.9.9v3.2c0 .4.1.7.2 1.1.2.5.6.6.8.1.4-.7.6-1.5.9-2.2.2-.7.3-1.4.4-2.1.1-.5.3-.8.9-.7 0 .6-.1 1.1-.1 1.7 0 .7.1 1.3.3 2 .1.4.4.6.9.6h1.1c.1-1.2.1-2.3.2-3.4h.8v2.3c.3-.2.4-.5.6-.6.5-.3.9-.7 1.4-.9.7-.3 1.2.1 1.3.9v2.1c0 .2 0 .4.1.7.2-.2.4-.3.5-.5.5-.6.8-1.5 1.7-1.7.1 0 .1-.2.2-.4.3-.8.8-1.6 1.5-2.1.7-.4 1.4-.3 1.8.2.1.2.2.6.1.8-.1.2-.4.3-.6.5-.1-.1-.1-.2-.2-.2-.1-.2-.2-.4-.2-.6-.3.1-.6.2-.8.3-.7.6-1 1.5-1 2.4 0 .6.4 1 1 1 .7 0 1.4-.2 2-.4 1.8-.7 1.8-.7 1.6-2.6-.2-1.7-.4-3.3-.6-5 0-.2.1-.6.3-.6.3-.1.5.2.6.5.1 1.1.3 2.1.4 3.2.6 1.7.6 2.8.8 4zm-25.1 1.5c1-.3 2.1-2.8 1.7-3.9-.8.4-1.7 2.6-1.7 3.9zM172.2 51.2c-.4.5-.8.9-1.2 1.3-.7.6-1.5 1.1-2.4.7-.3-.1-.5-.3-.8-.5-.9.9-1.8.6-2.1-.7-.2-1.2-.3-2.5-.4-3.8h.9c.1 1.1.3 2.1.4 3.1 0 .2.1.4.2.6.1.3.3.4.6.1.1-.1.3-.2.4-.3.6-1.4 1.4-2.7 2.7-3.5.8-.5 1.3-.2 1.8.7.2-1 .3-2 .5-3 .1-.4.2-.8.4-1.2.1-.2.4-.4.6-.4.2 0 .5.3.5.5.1.7.1 1.3 0 2-.2.8-.5 1.5-.8 2.2-.6 1.3 0 3.2 1.5 3.5-.1-.4-.2-1.4-.3-1.8h-.2c-.2-.1-.5-.2-.5-.4s.2-.5.3-.5c.4-.1.5-.4.6-.8.1-.9.5-1.7 1.3-2.2.5-.4 1.4-.1 2 .5.3.3.2 1-.2 1.5-.3.3-.6.5-.9.7-.3.2-.7.5-1 .7-.5.4-.5.9-.2 1.5.3.5.9.8 1.4.5.3-.2.6-.4 1-.5.2-.1.5-.2.8-.3.3-.6.5-1.4.9-2 .3-.6.7-1.1 1.2-1.6.3-.3.7-.4 1.2-.2.4.2.4.6.3.9 0 .7-.1 1.4-.2 2.1-.1.9.1 1.5.8 1.6.3.1.6 0 .9-.1.6-.3 1.1-.7 1.7-1 0 .1.1.2.1.3.5-.1 1.1-.2 1.7-.2-.3-.2-.6-.3-.9-.5-.5-.3-1.1-.6-1.6-1.1-1-1-.9-2.1.3-2.8.5-.3 1.1-.4 1.7-.5.3 0 .8.2.9.5.1.3 0 .8-.2 1.1-.1.3-.3.5-.5.7-.1-.1-.2-.1-.2-.2 0-.4 0-.7.1-1.2h-.6c-.5.1-1 .3-1.1.8-.1.5.2.9.6 1.2.6.4 1.3.8 2 1.3 1.1.7 1.1 1.6 0 2.3-.8.5-1.8.7-2.7.6-.1 0-.3 0-.4-.1-.4-.4-.8-.3-1.2-.2-.8.2-1.6 0-2.1-.7-1.8 1.4-2.3 1.4-2.8.1-.5.2-1 .5-1.5.7-.6.2-1.2.1-1.7-.3-.1-.1-.4-.2-.5-.1-1.3.4-2 .1-2.6-1.1-.3-.2-.4-.3-.5-.5zm-.9-.8c0-.3-.1-.5-.1-.8 0-.4-.2-.5-.5-.3-1 .5-1.7 1.4-2 2.5 0 .1.1.4.3.5.9.2 2.3 1 2.3-1.9zm8.5 1.9c1-.2 2.1-2.7 1.8-3.9-.8.4-1.8 2.5-1.8 3.9zm-2.5-4.6c-1-.1-1.4.3-1.5 1.6.6-.5 1.4-.6 1.5-1.6zm-3.5-2.1c-.1 0-.2 0-.2-.1-.3 1.1-.5 2.3-.8 3.4.1 0 .2 0 .3.1.2-1.1.5-2.2.7-3.4zM80.1 46.6c-.5 1.9-.9 3.8-1.4 5.6-.1.4-.3.8-.5 1.2h-.3c-.3-.5-.7-.9-.8-1.4-.5-1.8-1-3.7-1.4-5.5-.2-.7-.3-1.5-.5-2.3.7 0 1.1.4 1.3 1.2l.9 4.2c.1.6.3 1.1.6 1.7.2-.9.5-1.7.7-2.6.2-.9.4-1.8.7-2.6.1-.4.5-1 .8-1 .5-.1.7.5.8 1 .4 1.3.7 3.4 1 4.7.1.5.4.3.5.7h.2c.1-.3.3-.5.4-.8.7-2 1.1-4.1 1.4-6.2 0-.1 0-.3.1-.4 0-.3.1-.7.5-.6.3 0 .6.6.5 1-.4 1.7-.8 3.5-1.2 5.2-.2.8-.5 1.6-.8 2.3-.3.7-.9.8-1.3.2-.4-.6-.9-1.2-1.1-1.9-.6-1.2-.8-2.4-1.1-3.7zM85.9 50.9h-.2c-.2-.1-.4-.2-.5-.4 0-.1.2-.4.3-.5.5-.1.5-.4.6-.9.1-.9.6-1.7 1.3-2.2.5-.4 1.4-.2 2 .5.3.3.2 1-.2 1.5-.2.3-.6.5-.8.7-.3.3-.7.5-1 .7-.5.4-.6.9-.2 1.4.3.6.9.8 1.4.5.4-.2.7-.4 1-.6.2-.1.4 0 .5-.1v.6s0 .1-.1.1c-.6.6-1.4 1.8-2.3 1.7-.8-.1-1.3-1.4-1.6-2.2 0-.2-.1-.5-.2-.8zm2.7-3.2c-.9-.2-1.5.4-1.5 1.6.6-.5 1.4-.7 1.5-1.6z"/><path class="st2" d="M87.5 15.3V20h-2.7l-.1-2h-3.2v12.4l1.9.4v2.1H76v-2.1l1.9-.4V18h-3.2l-.1 2h-2.7v-4.7h15.6zM93.9 33.1c-1.9 0-3.4-.6-4.5-1.8-1.1-1.2-1.7-2.7-1.7-4.6v-.5c0-1.9.5-3.5 1.6-4.8 1.1-1.3 2.5-1.9 4.3-1.9 1.8 0 3.1.5 4.1 1.6 1 1.1 1.5 2.5 1.5 4.3v1.9h-7.8v.1c.1.9.4 1.6.9 2.1.5.6 1.2.8 2.1.8.8 0 1.4-.1 1.9-.2.5-.2 1.1-.4 1.7-.7l1 2.2c-.5.4-1.2.8-2.1 1.1-1 .3-1.9.4-3 .4zm-.3-10.8c-.6 0-1.2.2-1.5.8-.4.5-.6 1.2-.7 2v.1h4.3v-.3c0-.7-.2-1.3-.5-1.8-.4-.6-.9-.8-1.6-.8zM107 30.4c.6 0 1.1-.2 1.5-.6.4-.4.6-.9.6-1.5h3.2v.1c0 1.3-.5 2.4-1.5 3.3-1 .9-2.3 1.3-3.8 1.3-1.9 0-3.5-.6-4.5-1.8-1.1-1.2-1.6-2.8-1.6-4.7v-.4c0-1.9.5-3.5 1.6-4.7 1.1-1.2 2.6-1.9 4.6-1.9 1.1 0 2 .2 2.8.5.8.3 1.5.8 2.1 1.3v3.5h-2.9l-.6-2c-.2-.2-.4-.3-.7-.4-.3-.1-.6-.2-.9-.2-1 0-1.7.4-2.1 1.1-.4.7-.6 1.7-.6 2.8v.4c0 1.2.2 2.1.6 2.8.6.7 1.2 1.1 2.2 1.1zM113.7 30.7l1.7-.4V16.5l-1.9-.4V14h5.4v7.4c.4-.6.9-1.1 1.5-1.4.6-.3 1.3-.5 2-.5 1.4 0 2.4.5 3.2 1.4.8.9 1.2 2.3 1.2 4.2v5.3l1.7.4v2.1h-6.7v-2.1l1.5-.4v-5.3c0-1-.2-1.7-.5-2.2-.4-.4-.9-.6-1.6-.6-.5 0-.9.1-1.3.3-.4.2-.7.4-.9.8v7.1l1.5.4V33h-6.7v-2.3z"/><path class="st3" d="M146.5 19.8l-4.8 13h-2.4l-4.7-13h-.1l.3 7.7v2.8l1.9.4v2.1h-7.3v-2.1l1.9-.4V17.8l-1.9-.4v-2.1h6.5l4.5 13h.1l4.5-13h6.5v2.1l-1.9.4v12.6l1.9.4v2.1h-7.3v-2.1l1.9-.4v-2.8l.4-7.8zM161.2 32.9c-.1-.2-.2-.4-.3-.7-.1-.2-.1-.5-.2-.7-.4.5-.9.9-1.5 1.2-.6.3-1.3.4-2.1.4-1.3 0-2.3-.4-3-1-.8-.7-1.1-1.6-1.1-2.8 0-1.2.5-2.2 1.5-2.8 1-.7 2.4-1 4.3-1h1.8v-1.3c0-.6-.2-1.1-.5-1.5-.4-.3-.9-.5-1.6-.5-.4 0-.8.1-1.1.1-.3.1-.6.2-.8.3l-.2 1.4h-2.7v-2.9c.6-.4 1.4-.8 2.2-1.1.8-.3 1.7-.4 2.7-.4 1.6 0 2.9.4 3.9 1.2 1 .8 1.5 1.9 1.5 3.4v6.5l1.1.1v2.1h-3.9zm-3.1-2.4c.5 0 1-.1 1.4-.3.4-.2.8-.5 1-.9v-2h-1.8c-.7 0-1.3.2-1.7.5-.4.4-.6.8-.6 1.3 0 .4.1.8.4 1 .4.3.8.4 1.3.4zM166.7 26.4c0-2.1.4-3.7 1.3-5 .9-1.3 2.2-1.9 3.8-1.9.7 0 1.4.2 1.9.5.6.3 1 .8 1.4 1.4l.3-1.6h3.1v12.7c0 1.7-.5 3.1-1.6 4.1-1.1 1-2.6 1.5-4.5 1.5-.7 0-1.4-.1-2.1-.3-.7-.2-1.4-.4-2.1-.7l.7-2.5c.6.2 1.1.4 1.7.6.6.1 1.2.2 1.8.2.9 0 1.5-.3 1.9-.8.4-.5.6-1.3.6-2.2v-.9c-.4.5-.8.9-1.4 1.1-.5.3-1.1.4-1.8.4-1.6 0-2.9-.6-3.8-1.8-.9-1.2-1.3-2.7-1.3-4.7v-.1zm3.5.3c0 1.1.2 2 .6 2.7.4.7 1 1 1.9 1 .5 0 1-.1 1.4-.3.4-.2.7-.5.9-.9v-5.7c-.2-.4-.5-.7-.9-.9-.4-.2-.8-.3-1.3-.3-.9 0-1.5.4-1.9 1.1-.4.8-.6 1.8-.6 3v.3zM180.5 30.7l1.7-.4v-8.1l-1.9-.4v-2.1h5.4v10.6l1.7.4v2.1h-6.9v-2.1zm5.2-14h-3.5V14h3.5v2.7zM194.7 30.4c.6 0 1.1-.2 1.5-.6.4-.4.6-.9.6-1.5h3.2v.1c0 1.3-.5 2.4-1.5 3.3-1 .9-2.3 1.3-3.8 1.3-1.9 0-3.5-.6-4.5-1.8-1.1-1.2-1.6-2.8-1.6-4.7v-.4c0-1.9.5-3.5 1.6-4.7 1.1-1.2 2.6-1.9 4.6-1.9 1.1 0 2 .2 2.8.5.8.3 1.5.8 2.1 1.3v3.5H197l-.6-2c-.2-.2-.4-.3-.7-.4-.3-.1-.6-.2-.9-.2-1 0-1.7.4-2.1 1.1-.4.7-.6 1.7-.6 2.8v.4c0 1.2.2 2.1.6 2.8.4.7 1 1.1 2 1.1z"/></svg>