<?xml version="1.0" encoding="UTF-8"?>
<svg width="54px" height="51px" viewBox="0 0 54 51" version="1.1" xmlns="http://www.w3.org/2000/svg" xmlns:xlink="http://www.w3.org/1999/xlink">
    <!-- Generator: Sketch 48.2 (47327) - http://www.bohemiancoding.com/sketch -->
    <title>bubble4</title>
    <desc>Created with Sketch.</desc>
    <defs></defs>
    <g id="Artboard-2" stroke="none" stroke-width="1" fill="none" fill-rule="evenodd" transform="translate(-1442.000000, -2595.000000)">
        <g id="noun_10342_cc" transform="translate(1442.000000, 2353.000000)" fill="#83B692" fill-rule="nonzero">
            <path d="M32.2432946,282.791997 C44.8008494,280.920263 54,272.539976 54,262.608082 C54,251.245626 41.8890255,242 27.0010058,242 C12.1119803,242 0,251.244625 0,262.608082 C0,271.435543 7.2016093,279.161573 18.0140814,282.053707 C18.3077783,282.131738 18.5692892,282.299804 18.7603934,282.533896 C20.6251676,284.817791 24.0821413,288.636289 29.0961109,292.519812 C29.495418,292.830934 29.9973178,293 30.5032409,293 C30.9417747,293 31.3662271,292.876952 31.7323424,292.645861 C32.5490612,292.127658 32.9564148,291.152275 32.7391596,290.208905 C32.4243406,288.847372 31.9083594,286.44543 31.5120697,283.770381 C31.4436746,283.300196 31.7705633,282.863025 32.2432946,282.791997 Z M29.5809119,279.348647 C28.9713903,279.397666 28.397072,279.695783 28.0048055,280.161965 C27.6075101,280.648156 27.4254582,281.262397 27.4898301,281.862632 C27.6839517,283.653335 27.9625615,285.418027 28.2451945,286.968635 C24.7510058,283.883425 22.3853375,281.107336 21.1532186,279.53572 C20.8122485,279.097548 20.3173894,278.779423 19.7651989,278.648372 C10.1848458,276.359474 3.74765311,269.913947 3.74765311,262.606081 C3.74765311,253.298431 14.1789227,245.726461 27,245.726461 C39.8200715,245.726461 50.2503353,253.298431 50.2503353,262.606081 C50.2513411,271.195449 41.3649978,278.390271 29.5809119,279.348647 Z" id="bubble4"></path>
        </g>
    </g>
</svg>