<?xml version="1.0" encoding="UTF-8"?>
<svg width="78px" height="125px" viewBox="0 0 78 125" version="1.1" xmlns="http://www.w3.org/2000/svg" xmlns:xlink="http://www.w3.org/1999/xlink">
    <!-- Generator: Sketch 48.2 (47327) - http://www.bohemiancoding.com/sketch -->
    <title>icons_contenu</title>
    <desc>Created with Sketch.</desc>
    <defs></defs>
    <g id="Page-1" stroke="none" stroke-width="1" fill="none" fill-rule="evenodd">
        <g id="icons_contenu" transform="translate(2.000000, 0.000000)">
            <g id="XMLID_543_" transform="translate(13.000000, 0.000000)" fill="#EF5E68" fill-rule="nonzero">
                <g id="XMLID_544_">
                    <g id="XMLID_545_">
                        <path d="M46.7,29.2 L34.7,29.2 C32.9,29.2 31.4,30.7 31.4,32.5 C31.4,34.3 32.9,35.8 34.7,35.8 L46.7,35.8 L46.7,45 L34.7,45 C32.9,45 31.4,46.5 31.4,48.3 C31.4,50.1 32.9,51.6 34.7,51.6 L46.7,51.6 L46.7,60.8 L34.7,60.8 C32.9,60.8 31.4,62.3 31.4,64.1 C31.4,65.9 32.9,67.4 34.7,67.4 L46.6,67.4 C46.1,78.3 37,87.1 25.9,87.1 L21.5,87.1 C10.4,87.1 1.4,78.4 0.8,67.4 L12.7,67.4 C14.5,67.4 16,65.9 16,64.1 C16,62.3 14.5,60.8 12.7,60.8 L0.7,60.8 L0.7,51.6 L12.7,51.6 C14.5,51.6 16,50.1 16,48.3 C16,46.5 14.5,45 12.7,45 L0.7,45 L0.7,35.8 L12.7,35.8 C14.5,35.8 16,34.3 16,32.5 C16,30.7 14.5,29.2 12.7,29.2 L0.7,29.2 L0.7,20.6 C0.7,12.4 5.5,5.3 12.5,1.9 L12.5,11.2 C12.5,13 14,14.5 15.8,14.5 C17.6,14.5 19.1,13 19.1,11.2 L19.1,0.1 C19.9,0 27.5,0 28.3,0.1 L28.3,11.3 C28.3,13.1 29.8,14.6 31.6,14.6 C33.4,14.6 34.9,13.1 34.9,11.3 L34.9,2 C41.9,5.4 46.7,12.5 46.7,20.7 L46.7,29.2 Z" id="XMLID_18_"></path>
                    </g>
                </g>
            </g>
            <path d="M0.5,56.7 L0.5,66.1 C0.5,86 16.8,102.3 36.7,102.3 C56.6,102.3 72.9,86 72.9,66.1 L72.9,56.7" id="XMLID_573_" stroke="#EF5E68" stroke-width="5" stroke-linecap="round" stroke-linejoin="round"></path>
            <path d="M36.7,105 L36.7,120.9" id="XMLID_602_" stroke="#EF5E68" stroke-width="5" stroke-linecap="round" stroke-linejoin="round"></path>
            <path d="M15.9,122.3 L57.5,122.3" id="XMLID_603_" stroke="#EF5E68" stroke-width="5" stroke-linecap="round" stroke-linejoin="round"></path>
        </g>
    </g>
</svg>