<?xml version="1.0" encoding="UTF-8"?>
<svg width="70px" height="88px" viewBox="0 0 70 88" version="1.1" xmlns="http://www.w3.org/2000/svg" xmlns:xlink="http://www.w3.org/1999/xlink">
    <!-- Generator: Sketch 48.2 (47327) - http://www.bohemiancoding.com/sketch -->
    <title>icons_valeurs</title>
    <desc>Created with Sketch.</desc>
    <defs></defs>
    <g id="Page-1" stroke="none" stroke-width="1" fill="none" fill-rule="evenodd">
        <g id="icons_valeurs">
            <path d="M49.5,22.4 C45.3,18.3 39.7,16.2 33.9,16.5 C22.7,16.9 13.5,26.5 13.4,37.7 C13.4,42.7 15.1,47.6 18.3,51.4 C22.9,56.9 25.5,63.9 25.5,71.1 C25.5,71.1 25,74.4 27.4,74.4 L42.1,74.4 C44.5,74.4 44,71.1 44,71.1 C44,64.1 46.6,57.2 51.5,51 C54.5,47.2 56.1,42.6 56.1,37.7 C56,31.9 53.7,26.4 49.5,22.4 Z" id="XMLID_859_" fill="#EF5E68" fill-rule="nonzero"></path>
            <path d="M59.2,10.2 C58.5,9.5 57.3,9.5 56.6,10.2 L52.1,14.7 C51.4,15.4 51.4,16.6 52.1,17.3 C52.8,18 54,18 54.7,17.3 L59.2,12.8 C60,12.1 60,10.9 59.2,10.2 Z" id="XMLID_846_" fill="#EF5E68" fill-rule="nonzero"></path>
            <path d="M42.1,76.9 L27.3,76.9 C26.3,76.9 25.4,77.7 25.4,78.8 C25.4,79.8 26.2,80.7 27.3,80.7 L42.2,80.7 C43.2,80.7 44.1,79.9 44.1,78.8 C44,77.7 43.2,76.9 42.1,76.9 Z" id="XMLID_845_" fill="#EF5E68" fill-rule="nonzero"></path>
            <path d="M39.3,83.9 L30.1,83.9 C29.1,83.9 28.2,84.7 28.2,85.8 C28.2,86.8 29,87.7 30.1,87.7 L39.3,87.7 C40.3,87.7 41.2,86.9 41.2,85.8 C41.2,84.7 40.3,83.9 39.3,83.9 Z" id="XMLID_844_" fill="#EF5E68" fill-rule="nonzero"></path>
            <path d="M34.7,10.1 C35.7,10.1 36.6,9.3 36.6,8.2 L36.6,1.9 C36.6,0.9 35.8,0 34.7,0 C33.7,0 32.8,0.8 32.8,1.9 L32.8,8.3 C32.8,9.3 33.7,10.1 34.7,10.1 Z" id="XMLID_843_" fill="#EF5E68" fill-rule="nonzero"></path>
            <path d="M17.3,17.3 C18,16.6 18,15.4 17.3,14.7 L12.8,10.2 C12.1,9.5 10.9,9.5 10.2,10.2 C9.5,10.9 9.5,12.1 10.2,12.8 L14.7,17.3 C15.4,18.1 16.6,18.1 17.3,17.3 Z" id="XMLID_842_" fill="#EF5E68" fill-rule="nonzero"></path>
            <path d="M67.5,32.8 L61.1,32.8 C60.1,32.8 59.2,33.6 59.2,34.7 C59.2,35.8 60,36.6 61.1,36.6 L67.5,36.6 C68.5,36.6 69.4,35.8 69.4,34.7 C69.4,33.6 68.5,32.8 67.5,32.8 Z" id="XMLID_841_" fill="#EF5E68" fill-rule="nonzero"></path>
            <path d="M8.3,32.8 L1.9,32.8 C0.9,32.8 0,33.6 0,34.7 C0,35.8 0.8,36.6 1.9,36.6 L8.3,36.6 C9.3,36.6 10.2,35.8 10.2,34.7 C10.2,33.6 9.3,32.8 8.3,32.8 Z" id="XMLID_840_" fill="#EF5E68" fill-rule="nonzero"></path>
            <path d="M41.2,25.7 C41.2,25.7 47.8,28.4 47.8,37.5" id="XMLID_430_" stroke="#FFFFFF" stroke-width="5"></path>
        </g>
    </g>
</svg>