<svg xmlns="http://www.w3.org/2000/svg" width="32" height="50" viewBox="0 0 32 50"><path fill="#D84335" d="M2 14.571c.015-10.488 10.436-17.42 19.83-12.971 8.452 4.002 10.508 13.063 5.409 21.557-4.682 7.799-9.337 15.649-9.972 25.073-.056.828-.249 1.529-1.248 1.539-.992.01-1.207-.664-1.281-1.504-.786-8.935-4.598-16.665-9.55-23.945-1.926-2.832-3.192-6.8-3.188-9.749zM15.826 20.121c3.407.07 5.896-2.291 5.945-5.639.048-3.273-2.315-5.797-5.512-5.89-3.425-.1-5.94 2.227-6.018 5.567-.081 3.471 2.187 5.892 5.585 5.962z"/><path fill="#912D25" d="M15.826 20.121c-3.399-.07-5.667-2.491-5.585-5.963.078-3.34 2.594-5.667 6.018-5.567 3.197.093 5.559 2.618 5.512 5.89-.048 3.349-2.537 5.71-5.945 5.64z"/></svg>