<?xml version="1.0" standalone="no"?>
<!DOCTYPE svg PUBLIC "-//W3C//DTD SVG 20010904//EN"
 "http://www.w3.org/TR/2001/REC-SVG-20010904/DTD/svg10.dtd">
<svg version="1.0" xmlns="http://www.w3.org/2000/svg"
 width="1240.000000pt" height="360.000000pt" viewBox="0 0 1240.000000 360.000000"
 preserveAspectRatio="xMidYMid meet">

<g transform="translate(0.000000,360.000000) scale(0.100000,-0.100000)"
fill="#000000" stroke="none">
<path d="M605 3524 c-127 -52 -234 -169 -275 -301 -19 -61 -20 -93 -20 -557 0
-515 -7 -642 -40 -707 -26 -50 -55 -68 -121 -76 -64 -8 -99 -37 -99 -83 0 -47
38 -80 93 -80 54 0 105 -32 129 -80 30 -61 38 -203 38 -710 0 -493 1 -495 24
-561 44 -125 126 -218 245 -277 l75 -37 5525 -3 c4105 -2 5536 0 5566 9 153
43 271 157 329 318 20 53 21 84 26 631 5 562 5 576 27 622 26 57 56 77 129 87
66 9 94 34 94 86 0 44 -28 66 -96 77 -71 11 -106 36 -130 90 -18 40 -19 86
-24 618 -5 551 -7 578 -27 637 -43 127 -129 225 -251 285 l-67 33 -5545 2
-5545 2 -60 -25z m7986 -454 c128 -24 251 -114 307 -226 42 -85 52 -145 52
-325 0 -160 -5 -191 -36 -203 -35 -14 -347 -57 -355 -49 -4 4 -9 95 -11 201
l-3 194 -28 24 c-40 34 -90 32 -128 -5 l-29 -29 0 -792 0 -792 30 -30 c27 -27
36 -30 72 -25 22 3 50 15 62 27 20 20 21 32 24 288 2 147 6 270 10 274 4 4 85
-4 181 -16 154 -20 177 -26 193 -46 16 -20 18 -45 18 -264 0 -182 -4 -256 -15
-299 -50 -190 -187 -306 -391 -329 -238 -27 -415 40 -514 194 -74 113 -71 79
-68 1048 l3 865 31 65 c66 138 186 228 334 253 51 9 209 7 261 -3z m1223 -5
c147 -31 267 -138 317 -283 18 -52 19 -97 19 -922 0 -782 -2 -871 -17 -916
-44 -130 -142 -231 -269 -274 -69 -24 -210 -34 -306 -22 -201 26 -352 165
-387 356 -15 80 -15 1615 0 1706 29 179 169 325 344 358 77 15 222 13 299 -3z
m-8192 -58 c127 -62 212 -174 237 -311 15 -82 15 -1590 0 -1671 -29 -157 -138
-281 -294 -335 -53 -18 -84 -20 -360 -20 -221 0 -304 3 -313 12 -18 18 -17
2354 1 2362 6 3 156 4 333 3 l320 -2 76 -38z m1336 31 c17 -17 17 -359 0 -376
-9 -9 -70 -12 -215 -12 l-203 0 0 -240 0 -240 168 0 c228 0 212 16 212 -205 0
-144 -3 -176 -16 -189 -13 -13 -45 -16 -190 -16 l-174 0 0 -345 0 -345 203 0
c145 0 206 -3 215 -12 17 -17 17 -359 0 -376 -9 -9 -113 -12 -404 -12 -344 0
-395 2 -408 16 -14 14 -16 134 -16 1170 0 777 3 1162 10 1175 10 18 25 19 408
19 296 0 401 -3 410 -12z m632 -2 c7 -9 23 -137 40 -313 86 -892 112 -1148
115 -1151 7 -8 15 69 80 748 36 377 69 695 75 708 9 22 11 22 224 22 187 0
216 -2 224 -16 6 -10 3 -53 -9 -118 -19 -111 -182 -1035 -309 -1760 -44 -253
-86 -466 -92 -473 -8 -10 -53 -13 -189 -13 -148 0 -180 3 -193 16 -9 8 -16 18
-16 22 0 4 -90 525 -201 1158 -111 633 -199 1159 -196 1168 6 14 32 16 220 16
175 0 217 -3 227 -14z m1627 -1 c118 -35 220 -125 276 -242 l32 -68 3 -352 c4
-395 -1 -432 -61 -526 -43 -66 -73 -97 -126 -133 -33 -21 -41 -32 -37 -48 3
-12 51 -167 107 -346 55 -179 121 -391 146 -472 25 -80 43 -153 40 -162 -9
-23 -351 -24 -384 -1 -23 16 -23 15 -174 525 l-94 314 -3 -413 c-1 -286 -6
-418 -13 -428 -15 -18 -359 -19 -377 -1 -17 17 -17 2339 0 2356 19 19 599 17
665 -3z m1431 -179 c2 -145 -1 -191 -10 -198 -7 -4 -104 -8 -215 -8 l-203 0 0
-240 0 -240 164 0 c91 0 176 -4 190 -10 l26 -10 0 -184 c0 -173 -1 -186 -19
-196 -12 -6 -92 -10 -190 -10 l-171 0 0 -345 0 -345 199 0 c110 0 206 -3 215
-6 14 -5 16 -32 16 -194 0 -162 -2 -189 -16 -194 -9 -3 -190 -6 -403 -6 -288
0 -390 3 -399 12 -18 18 -17 2339 0 2356 9 9 110 12 413 10 l400 -3 3 -189z
m702 175 c7 -13 10 -340 10 -990 l0 -971 225 0 c212 0 225 -1 235 -19 13 -26
13 -336 0 -362 -10 -18 -26 -19 -420 -19 -224 0 -415 3 -424 6 -14 6 -16 119
-16 1183 0 648 3 1181 7 1184 3 4 89 7 189 7 171 0 184 -1 194 -19z m3394 0
c9 -10 84 -227 167 -482 83 -255 161 -495 174 -534 l23 -70 1 536 c1 412 4
539 14 552 11 16 32 17 197 15 l185 -3 3 -1179 c2 -937 0 -1181 -10 -1188 -7
-4 -72 -8 -144 -8 -111 0 -135 3 -152 18 -15 12 -71 174 -193 557 -94 297
-176 547 -180 555 -5 8 -9 -237 -9 -546 0 -422 -3 -563 -12 -572 -17 -17 -359
-17 -376 0 -16 16 -18 2319 -2 2349 10 17 23 19 154 19 127 0 145 -2 160 -19z"/>
<path d="M9613 2700 c-12 -5 -26 -18 -32 -29 -8 -13 -11 -271 -11 -813 0 -880
-4 -831 65 -844 41 -7 91 10 105 37 6 11 10 323 10 812 0 744 -1 796 -18 817
-19 24 -84 35 -119 20z"/>
<path d="M1280 1860 l0 -820 70 0 c121 0 110 -84 110 822 0 904 12 818 -110
818 l-70 0 0 -820z"/>
<path d="M4940 2343 l0 -338 74 3 c117 5 111 -12 111 337 0 351 5 335 -112
335 l-73 0 0 -337z"/>
</g>
</svg>
