<?xml version="1.0" encoding="UTF-8" standalone="no"?>
<svg
   width="48"
   height="48"
   version="1.1"
   id="svg6"
   sodipodi:docname="map-marker.svg"
   inkscape:version="1.2 (dc2aedaf03, 2022-05-15)"
   xmlns:inkscape="http://www.inkscape.org/namespaces/inkscape"
   xmlns:sodipodi="http://sodipodi.sourceforge.net/DTD/sodipodi-0.dtd"
   xmlns="http://www.w3.org/2000/svg"
   xmlns:svg="http://www.w3.org/2000/svg">
  <defs
     id="defs10" />
  <sodipodi:namedview
     id="namedview8"
     pagecolor="#505050"
     bordercolor="#eeeeee"
     borderopacity="1"
     inkscape:showpageshadow="0"
     inkscape:pageopacity="0"
     inkscape:pagecheckerboard="0"
     inkscape:deskcolor="#505050"
     showgrid="false"
     inkscape:zoom="17.208333"
     inkscape:cx="23.854722"
     inkscape:cy="24.029056"
     inkscape:window-width="1920"
     inkscape:window-height="1013"
     inkscape:window-x="-9"
     inkscape:window-y="-9"
     inkscape:window-maximized="1"
     inkscape:current-layer="svg6" />
  <path
     fill="#673ab7"
     d="M24 22.8c-3.3 0-6-2.7-6-6s2.7-6 6-6 6 2.7 6 6-2.7 6-6 6M24 0C14.7 0 7.2 7.5 7.2 16.8 7.2 29.4 24 48 24 48s16.8-18.6 16.8-31.2C40.8 7.5 33.3 0 24 0z"
     id="path2"
     style="fill:#550000" />
  <circle
     cx="24"
     cy="16.8"
     r="7"
     fill="#512da8"
     id="circle4"
     style="fill:#0059c1;fill-opacity:1" />
  <path
     style="fill:#4285f4;stroke-width:0.0581114;fill-opacity:1"
     d="M 23.172568,46.997579 C 18.10676,41.073787 13.697088,34.665849 10.925692,29.200969 8.3029182,24.029154 7.133857,19.89431 7.2535723,16.213075 7.3895971,12.030323 9.0353053,8.1453803 11.939697,5.1507709 14.671847,2.3337535 18.156056,0.60700626 22.046535,0.14189954 23.004449,0.02738098 24.992877,0.02705685 25.948028,0.14126356 30.906427,0.73413554 35.241498,3.4074378 38.016538,7.5835351 40.323298,11.05493 41.217646,15.310623 40.528562,19.53684 39.45448,26.124293 34.353108,35.364284 26.418292,45.094431 25.59726,46.10123 24.034023,47.941889 24,47.941889 c -0.01094,0 -0.383285,-0.42494 -0.827432,-0.94431 z m 2.241725,-23.311787 c 2.848392,-0.622023 5.012253,-2.849069 5.5031,-5.663789 0.111331,-0.638421 0.109003,-1.840688 -0.0048,-2.456261 -0.525674,-2.844536 -2.594737,-4.982969 -5.459853,-5.6429054 -0.742829,-0.1710991 -2.162741,-0.1710991 -2.905569,0 -2.865116,0.6599364 -4.93418,2.7983694 -5.459854,5.6429054 -0.113758,0.615573 -0.116086,1.81784 -0.0048,2.456261 0.499834,2.86626 2.856796,5.230495 5.667998,5.685485 0.239709,0.0388 0.47506,0.07994 0.523002,0.09144 0.21713,0.05206 1.756838,-0.02931 2.140686,-0.113136 z"
     id="path239" />
</svg>
