<?xml version="1.0" encoding="utf-8"?>
<!-- Generator: Adobe Illustrator 18.0.0, SVG Export Plug-In . SVG Version: 6.00 Build 0)  -->
<!DOCTYPE svg PUBLIC "-//W3C//DTD SVG 1.1//EN" "http://www.w3.org/Graphics/SVG/1.1/DTD/svg11.dtd">
<svg version="1.1" id="Calque_1" xmlns="http://www.w3.org/2000/svg" xmlns:xlink="http://www.w3.org/1999/xlink" x="0px" y="0px"
	 viewBox="0 0 1920 1080" enable-background="new 0 0 1920 1080" xml:space="preserve">
<g id="Logo_Teads.tv_-_Fond_blanc" display="none">
	<path display="inline" d="M-1123.1,339.6c-3.2-2.3-8.5,1.3-8.7,1.3c-2.7,1.6-17.4,9.7-49.2,16.1c-31.6,5.5-67.6,9.2-67.6,9.2
		c-17.1,1.3-33.4,2.9-49.4,4.8c2.4-10.3,3.2-21.9-1.9-28.7c-5.5-7.1-10.6-10.8-15.5-10.8c-3.2,0-7.7,1.8-10.8,9.8
		c-4,11-10.6,22.6-21,36.6c-123.4,20-197.9,55.5-198.7,87.7c-0.8,40,66,66.8,66,66.8c2.7,1,3.7,0.5,4-0.2c1-1.9-1.6-3.9-1.6-3.9
		c-37.6-29.2-35-50.2-35-50.2c1.9-24.7,61-40,127.7-49.4c-12.1,17.9-26.4,40.8-40,66.4c-36,67.4-53.4,125.8-51.4,173.5
		c0,2.4,1.8,58.5,24.5,73.4c0.2,0.2,4.2,2.9,8.2,2.9l0,0c2.3,0,4.2-0.8,5.6-2.4c2.6-2.7,3.5-7.4,3.1-14.5c-0.2-2.1-0.3-4.4-0.5-6.8
		c-2.3-26-6.5-74,31.6-148.2c21.6-42.1,44.5-82.3,62.9-114.5c7.9-13.9,15-26.4,21-37.1c51.8-4.4,98.5-5.8,117.1-5.5
		c50,0.8,82.4-53.2,81.6-69.8C-1121,343-1121.7,340.6-1123.1,339.6z"/>
	<path display="inline" d="M-610.4,662c-0.2-10.8-4.2-19.7-7.6-25.2c-5-7.6-15.8-21.8-35.3-36.1c-28.5-21.1-31.1-42.6-27.3-52.7
		c4-10.2,15.3-24.5,0.8-32.4c-14.2-7.7-39.8,18.5-40.8,43.7c-0.3,4.7-1.8,22.3-11.3,40.8c-10.3,19.2-51.4,92.1-77.4,84
		c0,0-12.6-5.6-4.4-31.1c7.9-24.5,83.4-195.8,22.4-224.2c0,0-36.9-14-45.6,6.6c0,0,29.8-3.5,9.2,83.9c0,0-100.5-9.7-146.1,98.7
		c0,0-35.2,66.3-63.7,67.1c0,0-11.5-2.3-5.3-35.5c0,0,13.5-66.3,37.7-110.6c0,0-75-65.8-168.5,35.2c0,0-22.4,21.1-33.4,69.3
		c0,0-41.8,48.7-86.9,39c0,0-39.5-3.9-19.4-75.5c0,0,114,7.4,111.9-55.8c0,0-1.8-41.3-61.4-32.1c0,0-66,6.3-103.9,87.3
		c-2.7,6.3-18.9,46.4-11.8,69.8c4.4,15.2,19.2,48.4,64.3,46.9c58.5-1.8,96.6-42.1,104.2-53.2c0,0,0.6,51.4,42.1,53.9
		c0,0,34.8,1.1,63.9-55.8l0,0c0,0,1.1-2.4,2.1-2.1c1.3,0.3,1.1,1.6,1.1,1.6l0,0c-1.1,9.7-5,58.9,37.7,56.8c0,0,37.4,5.8,79.5-65.5
		c0,0-1.8,67.3,41,65c0,0,38.9,1.1,66.9-57.6l0,0c0,0,1-1.8,1.9-1.1l0,0c0,0,1,0.6,0.6,2.4c-1.9,9.5-8.5,55.6,35.5,56.4l0,0
		c0,0,11.1,0.6,17.6-1.8l0,0c18.4-5.3,57.4-28.2,100.8-123.7c0.3-0.6,2.6-6.6,3.5-6.6c0.5,0,1,0.5,1.3,1.8l0,0
		c0,0,11.3,25.8,27.3,45.3c0,0,2.4,2.7,3.5,3.9l0,0c14.7,17.6,21,30.8,1,39.2c-3.7,1.3-40.6,12.9-43.9-5.5c0,0-20,6.6-24,19.8
		c-1.9,6.1-1.8,17.4,7.7,22.6c0,0,0.5,0.3,1.6,1c0,0,0.2,0,0.3,0.2c1.8,1,5,2.1,10,3.1c11.8,2.4,33.9,3.9,67.1-6.6
		c2.9-0.8,5.6-1.8,8.4-2.7c0.3-0.2,0.6-0.2,1-0.3l0,0c21.4-8.1,33.4-19.4,38.7-31.1l0,0c3.5-7.1,4.4-15.8,4.4-19l0,0
		c0-0.3,0-0.5,0-0.8C-610.4,662.2-610.4,662-610.4,662L-610.4,662z M-1264.6,539c26-11,22.4,7.1,22.4,7.1
		c-2.6,38.2-62.7,43.9-62.7,43.9S-1290.5,549.9-1264.6,539z M-1099.1,626.7c-19.4,56.6-40,47.4-40,47.4c-29-13.2,2.3-76.3,2.3-76.3
		c39.5-74.2,78.1-61.9,78.1-61.9C-1068,548.1-1079.7,570.1-1099.1,626.7z M-909.6,674.6c-34.7-4.7-3.9-71.1-3.9-71.1
		c38.2-77.3,80.8-68.1,80.8-68.1C-872.2,668.3-909.6,674.6-909.6,674.6z"/>
</g>
<g id="Sb">
	<path fill="#000000" d="M1439.6,630.2c1,0.2,1.6,1,2.3,2.9l0,0c0,0,19.4,44.4,46.9,77.9c0.2,0.2,4.2,4.7,6.1,6.8l0,0
		c25.3,30.3,36,53.1,1.6,67.4c-6.3,2.1-69.7,22.1-75.3-9.5c0,0-34.2,11.3-41.3,34c-3.2,10.5-3.1,29.8,13.4,38.7c0,0,1,0.6,2.7,1.6
		c0,0,0.2,0.2,0.6,0.3c3.2,1.6,8.7,3.7,17.3,5.3c20.2,4.2,58.1,6.6,115.5-11.3c5-1.5,9.7-3.1,14.4-4.7c0.5-0.2,1-0.3,1.6-0.5l0,0
		c36.8-13.7,57.3-33.2,66.6-53.4l0,0c6.1-12.1,7.4-27.3,7.6-32.7l0,0c0-0.5,0-1,0-1.3c0-0.5,0-0.8,0-0.8l0,0
		c-0.2-18.5-7.3-33.9-12.9-43.1c-8.5-13.1-27.1-37.4-60.6-62.1c-49-36.1-53.5-73.2-46.8-90.5c6.8-17.4,26.4-42.3,1.5-55.8
		c-24.5-13.4-68.4,31.8-70,75C1430.5,574.4,1429.9,629.3,1439.6,630.2z"/>
</g>
<g id="Sa">
	<path fill="#000000" d="M1450.2,620.2c-0.3-6-3.9-36.9-13.9-48.1c-6-6.6-6,2.3-6,2.3c-0.5,8.1-3.1,38.4-19.4,70.2
		c-17.7,33.1-88.5,158.2-133.1,144.5c0,0-13.9-7.1-14.7,3.9c-0.6,11.1-5.5,47.7-9.7,51.9c-4.2,4.2-0.5,11.6,6.3,9.4
		c31.4-9.2,98.7-48.5,173.4-212.7c0.5-1.1,4.5-11.3,6.3-11.3c1,0,2.3,2.9,2.3,2.9C1448.3,641,1450.7,626.2,1450.2,620.2z"/>
</g>
<g id="Db">
	<path fill="#000000" d="M1280.1,838.6c5.5-9,5.5-20.8,7.6-29c2.1-8.4-9.7-20.5-9.7-20.5s-21.8-9.8-7.6-53.5
		c13.7-42.3,143.2-336.3,38.5-385.3c0,0-63.4-24.2-78.4,11.3c0,0,51.3-6,15.8,144c-35.5,150-77.6,254.8-77.6,254.8
		c-3.2,16.5-14.8,95.6,61,96.9l0,0c0,0,19,1.1,30.2-3.1l0,0C1271.2,848.6,1274.6,847.6,1280.1,838.6z"/>
</g>
<g id="Da">
	<path fill="#000000" d="M1237.3,533.5c-48.2,156.3-83.9,196.6-93.9,208.4c-24,28.4-38.1,30.6-38.1,30.6
		c-59.7-7.9-6.8-122.2-6.8-122.2C1164.3,517.7,1237.3,533.5,1237.3,533.5s4.7,2.7,12.3,0.3c6.3-1.9,12.3-13.4,9.7-20.8
		c-2.1-6.1-12.9-7.4-12.9-7.4S1073.6,489,995.2,675.2c0,0-12.6,28.7-16.3,70.3c0,0-3.1,115.6,70.3,111.6c0,0,66.8,1.9,114.8-98.9
		l0,0c0,0,5.8-4.8,4.7,2.1c-0.2,1.1-2.7,25,11.5-9.7c13.5-32.9,43.2-122.2,67.4-201C1253.8,530.4,1239.9,525.2,1237.3,533.5z"/>
</g>
<path fill="#000000" d="M995.2,675.2c0,0-60.3,113.9-109.3,115.3c0,0-19.7-3.7-9-61.1c0,0,23.4-113.9,64.8-190
	c-1-0.8-2.1-1.6-3.3-2.4c-20-15.3-140.2-95.4-286.6,62.7c0,0-38.5,36.3-57.3,119.2c-5.8,22.3-5,45.8-5,45.8s1,88.5,72.4,92.4
	c0,0,59.8,1.9,109.7-95.8c0,0,3.7-6.6,4.4-2.3c0.2,1,0.7,1.4,1.4,1.5c-2.1,16.9-8.6,101.2,64.7,97.7c0,0,64.3,10,136.8-112.6
	c0-0.2,5-7.9,12.9-20.3c7.9-12.4,10.2-36.1,10.2-45.2C1002,671.2,995.2,675.2,995.2,675.2z M779.6,690.2c-0.1,0.3-0.2,0.6-0.3,0.9
	c-33.8,96.2-68.4,80.7-68.4,80.7c-49.8-22.6,3.7-131.3,3.7-131.3c67.9-127.4,134.2-106.3,134.2-106.3l0,0
	C833,555.4,812.9,593.2,779.6,690.2z"/>
<g id="Eb">
	<path fill="#000000" d="M425.9,627c0,0,26.1-66.1,69.3-87.4c6.9-3.4,13.4-16.5,13.4-26.6c0-7.3-9.7-7.3-9.7-7.3
		s-113.4,10.8-178.5,150c-4.5,10.8-32.4,79.7-20.3,120c7.6,26.1,33.1,83.1,110.6,80.6c100.5-3.1,166-72.4,179-91.4
		c23.4-26,16.1-56.9,5-45.8c0,0-71.6,83.7-149.3,67.1c0,0-67.9-6.8-33.2-129.7C409.8,666,420.1,639.6,425.9,627z"/>
</g>
<g id="Ea">
	<path fill="#000000" d="M499,505.6c-16,1.8-35.6,9.4-30.3,21.8c9.2,21.8,26.6,12.3,26.6,12.3c44.5-18.9,38.4,12.1,38.4,12.1
		c-4.5,65.6-107.9,75.5-107.9,75.5s-14.4,1-17.4,12.3c-4.8,17.6,3.9,17.3,3.9,17.3s190.1,12.4,192.4-91
		C605.1,564.1,601.6,489.8,499,505.6z"/>
</g>
<g id="Tb">
	<path fill="#000000" d="M288.8,349.9c-20.6,30.8-45.3,70.2-68.9,114c-61.9,115.8-91.6,216.1-88.2,298c0.2,4,3.1,100.6,42.3,126.1
		c0.3,0.2,7.1,4.8,14.2,4.8l0,0c3.9,0,7.1-1.5,9.7-4c4.4-4.7,6-12.7,5.2-24.8c-0.2-3.5-0.6-7.4-1-11.6
		c-3.9-44.5-11-127.4,54.5-254.7c37.1-72.3,76.6-141.3,108.2-196.8c13.5-23.9,26-45.3,36-63.7l37.4-86.9c4-17.9,5.6-37.9-3.2-49.2
		c-9.4-12.3-18.4-18.5-26.8-18.5c-5.6,0-13.4,2.9-18.5,16.8c-6.9,18.7-18.4,38.7-36.1,62.7L288.8,349.9z"/>
</g>
<g id="Ta">
	<path fill="#000000" d="M438,250.8c27.3-3.2,55.5-6,84.7-8.2c0,0,61.9-6.3,116.3-15.8c54.5-11,79.7-24.8,84.5-27.6
		c0.2-0.2,9.4-6.1,14.8-2.3c2.6,1.8,3.7,6,3.9,11.3c1.5,28.7-54.2,121.6-140.3,120.2c-31.9-0.5-112.2,1.8-201.1,9.4L289,349.9
		c-114.5,16-215.9,42.4-219.3,84.8c0,0-4.4,35.8,60.3,86.1c0,0,4.4,3.5,2.7,6.8c-0.6,1.3-2.1,1.9-7.1,0.3c0,0-114.8-46-113.4-114.8
		c1.1-55.3,129.3-116.3,341.3-150.6L438,250.8z"/>
</g>
</svg>
