<svg id="Layer_1" xmlns="http://www.w3.org/2000/svg" viewBox="-342 221.3 314.7 60"><style>.st0{fill:#FF3A1E;} .st1{fill:#FFAA00;} .st2{fill:#005EB8;} .st3{fill:#9BCBEB;} .st4{fill:#FFFFFF;} .st5{fill:#3A4042;}</style><path class="st0" d="M-298 224.8c12.4 6.6 17.9 21.8 12.2 34.9-5.8 13.4-21.1 19.8-34.6 14.7-.4-.2-.8-.3-1.3-.5l-1.2-.6c-13-6.4-18.8-21.9-13-35.3 5.7-13.1 20.4-19.5 33.8-15-14.7-5.1-31.1 1.9-37.3 16.4-6.6 15.2.4 32.9 15.6 39.4 15.2 6.6 32.9-.4 39.4-15.6 6.2-14.5.2-31.2-13.6-38.4z"/><path class="st1" d="M-298 224.8c-.7-.4-1.3-.7-2-1-.7-.3-1.4-.6-2.1-.8.7.2 1.4.5 2.1.8.6.3 1.3.6 2 1z"/><path class="st1" d="M-335.9 238c-5.8 13.4 0 28.9 13 35.3-.1-.1-.2-.1-.3-.2-11.4-5.9-16.4-19.6-11.2-31.6 5.4-12.4 19.8-18.2 32.3-12.8 12.4 5.4 18.2 19.8 12.8 32.3-5.2 11.9-18.6 17.7-30.7 13.4-.1 0-.2-.1-.3-.1 13.5 5.1 28.8-1.3 34.6-14.7 5.7-13.1.2-28.3-12.2-34.9-.7-.3-1.3-.7-2-1-.7-.3-1.4-.6-2.1-.8-13.5-4.4-28.2 2-33.9 15.1z"/><path class="st2" d="M-332.9 245.6c4.5-10.3 16-15.4 26.5-11.9h.1c.1 0 .2.1.3.1.5.2.9.3 1.4.5.5.2.9.4 1.4.7.1.1.2.1.3.1 0 0 .1 0 .1.1 9.7 5.3 13.9 17.2 9.5 27.5-4.5 10.4-16.2 15.4-26.7 11.8 12.1 4.3 25.5-1.5 30.7-13.4 5.4-12.4-.3-26.9-12.8-32.3-12.4-5.4-26.9.3-32.3 12.8-5.2 11.9-.1 25.7 11.2 31.6-9.9-5.3-14.2-17.3-9.7-27.6z"/><path class="st3" d="M-321.7 273.9c-.4-.2-.8-.4-1.2-.5.3.1.8.3 1.2.5.4.2.8.4 1.3.5h-.1c-.4-.2-.8-.4-1.2-.5zM-323.3 273.1c.1.1.2.1.3.2 0 0-.1-.1-.3-.2zM-320.5 274.4c.2.1.3.1.4.1-.2 0-.3-.1-.4-.1zM-322.9 273.3c.4.2.8.4 1.2.5.4.2.8.3 1.2.5-.4-.2-.8-.3-1.2-.5-.4-.1-.8-.3-1.2-.5zM-306.3 233.7c.1 0 .2.1.3.1-.1 0-.2-.1-.3-.1z"/><path class="st3" d="M-321.7 273.9c.4.2.8.3 1.2.5.1 0 .3.1.4.1 10.5 3.6 22.2-1.4 26.7-11.8 4.5-10.3.2-22.2-9.5-27.5 8.2 4.6 11.7 14.7 7.9 23.5-4.1 9.4-15 13.7-24.4 9.6-9.4-4.1-13.7-15-9.6-24.3 3.8-8.8 13.6-13.1 22.5-10.3-10.5-3.5-22.1 1.6-26.5 11.9-4.5 10.4-.2 22.4 9.7 27.6.1.1.2.1.4.2.4.1.8.3 1.2.5z"/><path class="st3" d="M-303.3 235c.1.1.2.1.3.1-.1 0-.2-.1-.3-.1z"/><path class="st4" d="M-306.4 233.7h0zM-303.3 235c-.4-.2-.9-.5-1.4-.7-.5-.2-.9-.4-1.4-.5.5.2.9.3 1.4.5.5.2 1 .5 1.4.7zM-302.9 235.2s-.1 0 0 0c-.1 0 0 0 0 0z"/><g><path class="st5" d="M-263.8 263.8l11.8-26c.1-.2.5-.4.7-.4h.4c.2 0 .5.2.7.4l11.8 26c.2.5-.1 1-.7 1h-2.4c-.5 0-.7-.2-.9-.6l-2.4-5.3h-12.6c-.8 1.8-1.6 3.5-2.4 5.3-.1.3-.4.6-.9.6h-2.4c-.6 0-.9-.5-.7-1m17.5-8.1l-4.7-10.6h-.2l-4.7 10.6h9.6zM-228.1 238.6c0-.4.3-.7.7-.7h8.8c4.7 0 8.6 3.9 8.6 8.5 0 4.8-3.9 8.7-8.6 8.7h-5.6v9.1c0 .4-.3.7-.7.7h-2.5c-.4 0-.7-.3-.7-.7v-25.6zm9.3 12.7c2.7 0 4.9-2.2 4.9-4.9 0-2.6-2.2-4.6-4.9-4.6h-5.3v9.6h5.3zM-197.5 238.6c0-.4.3-.7.7-.7h8.8c4.7 0 8.6 3.9 8.6 8.5 0 4.8-3.9 8.7-8.6 8.7h-5.6v9.1c0 .4-.4.7-.7.7h-2.5c-.4 0-.7-.3-.7-.7v-25.6zm9.3 12.7c2.7 0 4.9-2.2 4.9-4.9 0-2.6-2.2-4.6-4.9-4.6h-5.3v9.6h5.3zM-166.8 238.6c0-.4.3-.7.7-.7h2.5c.4 0 .7.3.7.7v22.7h10.5c.4 0 .7.3.7.7v2.1c0 .4-.3.7-.7.7h-13.7c-.4 0-.7-.3-.7-.7v-25.5zM-143 263.8l11.8-26c.1-.2.5-.4.7-.4h.4c.2 0 .5.2.6.4l11.8 26c.2.5-.1 1-.7 1h-2.4c-.5 0-.7-.2-.9-.6l-2.4-5.3h-12.6c-.8 1.8-1.6 3.5-2.4 5.3-.1.3-.4.6-.9.6h-2.4c-.5 0-.8-.5-.6-1m17.5-8.1l-4.7-10.6h-.2l-4.7 10.6h9.6zM-108.5 238.6c0-.4.3-.7.7-.7h2.6c.4 0 .7.3.7.7v15.9c0 3.9 2.5 6.9 6.4 6.9 4 0 6.5-3 6.5-6.8v-16c0-.4.3-.7.7-.7h2.6c.4 0 .7.3.7.7v16.2c0 5.9-4.4 10.5-10.5 10.5s-10.5-4.6-10.5-10.5l.1-16.2zM-74.4 260.9c.3-.5.7-1.1 1-1.6.3-.5.9-.7 1.3-.3.2.2 3.2 2.7 6.2 2.7 2.7 0 4.4-1.6 4.4-3.6 0-2.3-2-3.8-5.8-5.4-3.9-1.7-7-3.7-7-8.2 0-3 2.3-7.1 8.4-7.1 3.9 0 6.8 2 7.1 2.3.3.2.6.7.2 1.3-.3.5-.7 1-1 1.5-.3.5-.8.7-1.3.4-.3-.1-3-1.9-5.2-1.9-3.2 0-4.4 2-4.4 3.5 0 2.2 1.7 3.6 4.9 4.9 4.5 1.8 8.3 3.9 8.3 8.6 0 4-3.6 7.3-8.6 7.3-4.7 0-7.7-2.5-8.3-3-.3-.4-.5-.7-.2-1.4M-44.2 238.6c0-.4.3-.7.7-.7H-28c.4 0 .7.3.7.7v2.2c0 .4-.3.7-.7.7h-12.2v7.9h10.3c.4 0 .7.3.7.7v2.2c0 .4-.3.7-.7.7h-10.3v8.3H-28c.4 0 .7.3.7.7v2.1c0 .4-.3.7-.7.7h-15.4c-.4 0-.7-.3-.7-.7l-.1-25.5z"/></g></svg>