<svg xmlns="http://www.w3.org/2000/svg" xmlns:xlink="http://www.w3.org/1999/xlink" viewBox="0 0 562.61 125.3"><defs><style>.cls-1{fill:#ea3736;}.cls-2{fill:url(#radial-gradient);}.cls-3{fill:url(#radial-gradient-2);}.cls-4{fill:#333;}</style><radialGradient id="radial-gradient" cx="62.7" cy="65" r="48.5" gradientUnits="userSpaceOnUse"><stop offset="0" stop-color="#b72126"/><stop offset="1" stop-color="#ea3736"/></radialGradient><radialGradient id="radial-gradient-2" cx="53.59" cy="41.94" r="32.67" xlink:href="#radial-gradient"/></defs><title>Atomic Robot</title><g id="Layer_2" data-name="Layer 2"><g id="Color_Dark" data-name="Color/Dark"><g id="_03_Mark_Only" data-name="03 Mark Only"><path class="cls-1" d="M53.46,18.89A19.09,19.09,0,0,0,38.92,50.36H50.27v-7a6.22,6.22,0,1,1,6.25,0v7h6a6.29,6.29,0,0,1,4,1.4l.09.07A19.09,19.09,0,0,0,53.46,18.89ZM87.18,78.77c0,.09.09.18.13.28.06-.15.12-.3.17-.46ZM53.46,18.89A19.09,19.09,0,0,0,38.92,50.36H50.27v-7a6.22,6.22,0,1,1,6.25,0v7h6a6.29,6.29,0,0,1,4,1.4l.09.07A19.09,19.09,0,0,0,53.46,18.89Z"/><path class="cls-2" d="M83.43,17.65a36.19,36.19,0,0,1-8.12,49.23,35.83,35.83,0,0,1-6.4,3.89v35.14a43.68,43.68,0,0,1-48-30.72H53.43a3.2,3.2,0,0,0,2.35-1A3.14,3.14,0,0,0,56.63,72V65.93a3.21,3.21,0,0,0-3.2-3.2H19.07a44,44,0,0,1,1.2-10.21,35.85,35.85,0,0,1-2.78-10.23,49.18,49.18,0,0,0-4.42,20.44,49.62,49.62,0,0,0,66.08,46.81,49.16,49.16,0,0,0,8.33-3.83,49.61,49.61,0,0,0-4-88.06Zm4.35,80.77a43.46,43.46,0,0,1-12.42,6.07,5.34,5.34,0,0,1,0-.69V81.42a6.23,6.23,0,0,1,2.25-4.78h0A6.24,6.24,0,0,1,81,75.21h0a4.61,4.61,0,0,1,.53,0,6.26,6.26,0,0,1,5.63,3.58l.3-.18c0,.16-.11.31-.17.46a6.22,6.22,0,0,1,.47,2.37Z"/><path class="cls-3" d="M83.43,17.65A49.61,49.61,0,0,0,17.49,42.29a35.85,35.85,0,0,0,2.78,10.23c.18-.72.37-1.45.58-2.16H38.92a19.1,19.1,0,1,1,27.7,1.47,6.36,6.36,0,0,1,2.29,4.88V70.77a35.83,35.83,0,0,0,6.4-3.89A36.38,36.38,0,0,0,87.09,51.47a36.2,36.2,0,0,0-3.66-33.82Z"/><path class="cls-4" d="M62.65,0A62.29,62.29,0,0,0,44.49,2.69a11.44,11.44,0,0,1,1.3,3.65A58.85,58.85,0,1,1,26.15,16.6a11.84,11.84,0,0,1-2.24-3.16A62.62,62.62,0,1,0,62.65,0Z"/><circle class="cls-1" cx="34.36" cy="8.37" r="6.2"/></g><path class="cls-4" d="M307.05,39.84V85.46h2.61a8,8,0,0,0,6.87-3.92l.28-.41a7.07,7.07,0,0,0,.85-3.55V39.84Z"/><path class="cls-4" d="M190.56,39.84v8.6h8.91v37h2.61a8,8,0,0,0,8-7.86V48.44h.22a8.69,8.69,0,0,0,8.68-8.6Z"/><path class="cls-4" d="M534.2,39.84v8.6h8.9v37h2.61a8,8,0,0,0,8-7.86V48.44h.22a8.67,8.67,0,0,0,8.68-8.6Z"/><path class="cls-4" d="M443.94,39.93H425.21a8.17,8.17,0,0,0-8.15,7.61c0,.07,0,29.54,0,29.54a8.17,8.17,0,0,0,8.18,8.17H443.8A8.18,8.18,0,0,0,452,77.09h0c0-4.63.15-24.36.15-29A8.17,8.17,0,0,0,443.94,39.93Zm-2.51,34.73a2.7,2.7,0,0,1-2.69,2.69h-8.56a2.7,2.7,0,0,1-2.68-2.69V50.45a2.7,2.7,0,0,1,2.68-2.69h8.56a2.7,2.7,0,0,1,2.69,2.69Z"/><path class="cls-4" d="M247.31,39.93H228.57a8.17,8.17,0,0,0-8.15,7.61,1.46,1.46,0,0,0,0,.22V77.08a8.17,8.17,0,0,0,8.18,8.17h18.59a8.17,8.17,0,0,0,8.17-8.16h0c0-4.63.15-24.36.15-29A8.17,8.17,0,0,0,247.31,39.93Zm-2.52,34.73a2.7,2.7,0,0,1-2.68,2.69h-8.56a2.7,2.7,0,0,1-2.69-2.69V50.45a2.7,2.7,0,0,1,2.69-2.69h8.56a2.7,2.7,0,0,1,2.68,2.69Z"/><path class="cls-4" d="M523.45,39.93H504.71a8.17,8.17,0,0,0-8.14,7.61c0,.07,0,29.54,0,29.54a8.17,8.17,0,0,0,8.17,8.17H523.3a8.18,8.18,0,0,0,8.18-8.16h0c0-4.63.15-24.36.15-29A8.17,8.17,0,0,0,523.45,39.93Zm-2.51,21.82V74.66a2.7,2.7,0,0,1-2.69,2.69h-8.56A2.7,2.7,0,0,1,507,74.66V50.45a2.7,2.7,0,0,1,2.69-2.69h8.56a2.7,2.7,0,0,1,2.69,2.69Z"/><path class="cls-4" d="M418,86.67,402.86,67.51a17.21,17.21,0,0,0,3.62-.75,9.91,9.91,0,0,0,2.91-1.45A6.45,6.45,0,0,0,411.3,63a6.65,6.65,0,0,0,.71-3.17V47.76A6.68,6.68,0,0,0,411,44a7.41,7.41,0,0,0-2.77-2.42,12.68,12.68,0,0,0-3.9-1.27,28,28,0,0,0-4.39-.35H377V85.18h10.77V67.7H390l13.52,17.23A10.32,10.32,0,0,0,418,86.67ZM401.39,57a2.83,2.83,0,0,1-2.82,2.81H387.76V47.89h10.81a2.83,2.83,0,0,1,2.82,2.82Z"/><path class="cls-4" d="M160.47,39.77a8,8,0,0,0-8,7.95h0V85.46h10.76V67H177V85.46l.12-.14v.14h2.62a8,8,0,0,0,8-7.89V39.84Zm2.69,18.64V50.92a7.55,7.55,0,0,1,.11-.78l0-.1a3,3,0,0,1,2.89-2.18H177V58.41Z"/><path class="cls-4" d="M353.34,39.84H330.47a8,8,0,0,0-8,7.88h0V77.46a8,8,0,0,0,8,8h22.87V75.88h-17.1a3.06,3.06,0,0,1-2.63-1.5,2.74,2.74,0,0,1-.19-.34.42.42,0,0,0,0-.1,3.37,3.37,0,0,1-.15-.48,3.5,3.5,0,0,1-.07-.65V52.56a3,3,0,0,1,.1-.73,2,2,0,0,1,.07-.23,3.08,3.08,0,0,1,2.91-2.12h17.1Z"/><path class="cls-4" d="M295.17,39.84H260.22V85.46h9.13V53.33c0-4.19,3.86-4.2,7.81-4.17h0v36.3H278a8,8,0,0,0,6.89-3.95,4.13,4.13,0,0,0,.25-.38,6.87,6.87,0,0,0,.86-3.55V49.22h0c3.81,0,7.12,0,7.12,4.18V85.46h2.25a6.88,6.88,0,0,0,6.87-6.76V46.89A7.06,7.06,0,0,0,295.17,39.84Z"/><path class="cls-4" d="M491.88,57.11V47.7s0,0,0,0a7.9,7.9,0,0,0-7.9-7.81H456.78V85.25c3.88,0,27.33.09,27.33.09a7.76,7.76,0,0,0,7.77-7.76V67.94a5.4,5.4,0,0,0-5.42-5.42A5.38,5.38,0,0,0,491.88,57.11Zm-24.34-9.28h10.53A3.2,3.2,0,0,1,481.26,51v7.29H467.54Zm13.77,26.58,0,.29a1.46,1.46,0,0,1,0,.2,2.37,2.37,0,0,1-.4.94,3.18,3.18,0,0,1-2.69,1.51h-10.6V66.8h13.79S481.31,74.32,481.31,74.41Z"/></g></g></svg>
