<svg id="Layer_1" xmlns="http://www.w3.org/2000/svg" viewBox="0 0 400 610.4"><style>.st0{fill-rule:evenodd;clip-rule:evenodd;fill:#84CD30;}</style><path class="st0" d="M323.3 399.9c-15.8 0-34.8-12.9-40.7-27.5L226 230.8c-5.2-13.1 1.1-27.9 14.2-33.2L381.8 141c2.7-1.1 5.2-1.6 7.6-1.6 9.5 0 10.5 9.7 10.5 13.8v221.2c0 14.1-11.4 25.5-25.5 25.5h-51.1zm-302.4 191c-6.6 0-11.7-2-15.3-6.1C2 580.7.2 575 .2 567.6.2 560 2 554.1 5.7 550c3.7-4.2 8.9-6.2 15.6-6.2 2.2 0 4.4.2 6.6.7 2.2.5 3.9 1 5.1 1.7l-2.1 5.8c-1.5-.6-3.2-1.1-5-1.5-1.8-.4-3.4-.6-4.8-.6-9.2 0-13.8 5.9-13.8 17.7 0 5.6 1.1 9.9 3.4 12.9s5.6 4.5 10 4.5c3.8 0 7.7-.8 11.6-2.4v6.1c-3 1.4-6.8 2.2-11.4 2.2zm61.5-23.6c0 7.4-1.9 13.2-5.6 17.4-3.7 4.2-8.9 6.2-15.5 6.2-4.1 0-7.7-.9-10.8-2.9-3.1-1.9-5.6-4.7-7.3-8.2-1.7-3.6-2.6-7.7-2.6-12.5 0-7.4 1.9-13.2 5.6-17.3 3.7-4.1 8.8-6.2 15.4-6.2 6.4 0 11.4 2.1 15.2 6.3 3.7 4.2 5.6 10 5.6 17.2zm-34.7 0c0 5.8 1.2 10.2 3.5 13.3 2.3 3 5.7 4.6 10.2 4.6 4.5 0 7.9-1.5 10.3-4.5 2.3-3 3.5-7.5 3.5-13.3 0-5.8-1.2-10.2-3.5-13.2s-5.8-4.5-10.3-4.5c-4.5 0-7.9 1.5-10.2 4.4-2.3 2.9-3.5 7.3-3.5 13.2zm82.1 22.7l-8.3-26.6c-.5-1.6-1.5-5.3-2.9-11.1h-.3c-1.1 4.8-2.1 8.6-2.9 11.2l-8.6 26.6h-8l-12.4-45.4h7.2c2.9 11.4 5.2 20.1 6.7 26.1s2.4 10 2.6 12.1h.3c.3-1.6.8-3.6 1.5-6.1.7-2.5 1.3-4.5 1.8-6l8.3-26.1h7.5l8.1 26.1c1.6 4.8 2.6 8.7 3.2 12h.3c.1-1 .4-2.5.9-4.6.5-2.1 3.4-13.2 8.6-33.4h7.1L138 590h-8.2zm68.2-22.7c0 7.4-1.9 13.2-5.6 17.4-3.7 4.2-8.9 6.2-15.5 6.2-4.1 0-7.7-.9-10.8-2.9-3.1-1.9-5.6-4.7-7.3-8.2-1.7-3.6-2.6-7.7-2.6-12.5 0-7.4 1.9-13.2 5.6-17.3 3.7-4.1 8.8-6.2 15.4-6.2 6.4 0 11.4 2.1 15.2 6.3 3.7 4.2 5.6 10 5.6 17.2zm-34.6 0c0 5.8 1.2 10.2 3.5 13.3 2.3 3 5.7 4.6 10.2 4.6 4.5 0 7.9-1.5 10.3-4.5 2.3-3 3.5-7.5 3.5-13.3 0-5.8-1.2-10.2-3.5-13.2s-5.8-4.5-10.3-4.5c-4.5 0-7.9 1.5-10.2 4.4-2.4 2.9-3.5 7.3-3.5 13.2zm67.3-23.5c2 0 3.8.2 5.4.5l-.9 6.4c-1.9-.4-3.5-.6-5-.6-3.7 0-6.8 1.5-9.4 4.5-2.6 3-3.9 6.7-3.9 11.2V590H210v-45.4h5.7l.8 8.4h.3c1.7-3 3.7-5.2 6.1-6.8 2.4-1.6 5-2.4 7.8-2.4zm20.8 23c1.2-1.7 3-3.9 5.4-6.6l14.7-15.5h8.2L261.3 564l19.7 26h-8.3l-16-21.5-5.2 4.5v17h-6.8v-64.5h6.8v34.2c0 1.5-.1 3.9-.3 7h.3v.1zm44.6 23.2h-6.9v-45.4h6.9V590zm-7.4-57.7c0-1.6.4-2.7 1.2-3.4.8-.7 1.7-1.1 2.9-1.1 1.1 0 2.1.4 2.9 1.1.8.7 1.2 1.9 1.2 3.4 0 1.6-.4 2.7-1.2 3.5-.8.8-1.8 1.1-2.9 1.1-1.2 0-2.1-.4-2.9-1.1-.9-.8-1.2-2-1.2-3.5zm53.1 57.7v-29.4c0-3.7-.8-6.5-2.5-8.3-1.7-1.8-4.3-2.7-7.9-2.7-4.8 0-8.2 1.3-10.4 3.8-2.2 2.6-3.3 6.8-3.3 12.7V590h-6.9v-45.4h5.6l1.1 6.2h.3c1.4-2.2 3.4-4 5.9-5.2 2.5-1.2 5.4-1.8 8.5-1.8 5.5 0 9.6 1.3 12.4 4 2.8 2.6 4.1 6.9 4.1 12.7V590h-6.9zm58.2-45.4v4.4l-8.4 1c.8.9 1.5 2.2 2.1 3.8.6 1.6.9 3.3.9 5.3 0 4.4-1.5 8-4.6 10.6-3 2.6-7.2 4-12.5 4-1.4 0-2.6-.1-3.8-.3-2.9 1.5-4.4 3.5-4.4 5.8 0 1.2.5 2.2 1.5 2.8 1 .6 2.8.9 5.3.9h8c4.9 0 8.7 1 11.3 3.1 2.6 2.1 3.9 5.1 3.9 9 0 5-2 8.9-6 11.5-4 2.6-9.9 4-17.7 4-5.9 0-10.5-1.1-13.7-3.3-3.2-2.2-4.8-5.3-4.8-9.4 0-2.8.9-5.1 2.7-7.2 1.8-2 4.3-3.4 7.5-4.1-1.2-.5-2.1-1.3-2.9-2.4-.8-1.1-1.2-2.4-1.2-3.9 0-1.7.4-3.1 1.3-4.4.9-1.2 2.3-2.4 4.2-3.6-2.3-1-4.3-2.6-5.7-4.9-1.5-2.3-2.2-5-2.2-8 0-5 1.5-8.8 4.5-11.5 3-2.7 7.2-4 12.7-4 2.4 0 4.5.3 6.4.9H400v-.1zm-36.2 53c0 2.4 1 4.3 3.1 5.6 2.1 1.3 5 1.9 8.9 1.9 5.8 0 10.1-.9 12.8-2.6 2.8-1.7 4.2-4.1 4.2-7 0-2.5-.8-4.2-2.3-5.1-1.5-.9-4.4-1.4-8.6-1.4h-8.2c-3.1 0-5.6.8-7.3 2.2-1.8 1.5-2.6 3.7-2.6 6.4zm3.7-38.5c0 3.2.9 5.6 2.7 7.2 1.8 1.6 4.3 2.5 7.5 2.5 6.7 0 10.1-3.3 10.1-9.8 0-6.8-3.4-10.2-10.2-10.2-3.2 0-5.7.9-7.5 2.6-1.7 1.7-2.6 4.3-2.6 7.7zM22.6 464.9c6.4 0 11.3 2.2 14.9 6.5 3.5 4.4 5.3 10.5 5.3 18.5s-1.8 14.2-5.3 18.6c-3.6 4.4-8.5 6.6-14.8 6.6-3.2 0-6.1-.6-8.7-1.8-2.6-1.2-4.8-3-6.6-5.4h-.6l-1.6 6.2H0v-69h7.4v16.8c0 3.8-.1 7.1-.3 10.1h.3c3.4-4.7 8.5-7.1 15.2-7.1zm-1 6.2c-5 0-8.6 1.4-10.9 4.3-2.2 2.9-3.3 7.7-3.3 14.6 0 6.8 1.1 11.7 3.4 14.6 2.3 3 5.9 4.4 11 4.4 4.5 0 7.9-1.6 10.1-4.9 2.2-3.3 3.3-8 3.3-14.2 0-6.3-1.1-11-3.3-14.1-2.3-3.1-5.7-4.7-10.3-4.7zm54.6 44.1c-7.2 0-12.9-2.2-17-6.6-4.2-4.4-6.2-10.5-6.2-18.2 0-7.8 1.9-14.1 5.8-18.7s9-6.9 15.5-6.9c6.1 0 10.9 2 14.5 6 3.5 4 5.3 9.3 5.3 15.8v4.7H60.6c.2 5.7 1.6 10 4.3 13 2.7 2.9 6.6 4.4 11.6 4.4 5.2 0 10.4-1.1 15.5-3.3v6.6c-2.6 1.1-5.1 1.9-7.4 2.4-2.3.6-5.1.8-8.4.8zm-2-44.2c-3.9 0-7 1.3-9.3 3.8-2.3 2.5-3.7 6-4.1 10.5h25.4c0-4.6-1-8.2-3.1-10.6-2.1-2.5-5.1-3.7-8.9-3.7zm48.1 38.1c1.3 0 2.6-.1 3.8-.3 1.2-.2 2.2-.4 2.9-.6v5.6c-.8.4-2 .7-3.5.9-1.5.3-2.9.4-4.2.4-9.4 0-14.1-4.9-14.1-14.9v-28.9h-7v-3.5l7-3.1 3.1-10.4h4.3v11.3h14.1v5.7h-14.1V500c0 2.9.7 5.2 2.1 6.8 1.3 1.6 3.2 2.3 5.6 2.3zm46.2 5.2l-1.5-6.9h-.4c-2.4 3-4.8 5.1-7.2 6.2-2.4 1.1-5.4 1.6-9 1.6-4.8 0-8.6-1.2-11.3-3.7-2.7-2.5-4.1-6-4.1-10.6 0-9.8 7.9-15 23.5-15.4l8.3-.3v-3c0-3.8-.8-6.6-2.5-8.4-1.6-1.8-4.3-2.7-7.9-2.7-4.1 0-8.6 1.2-13.7 3.7l-2.3-5.6c2.4-1.3 5-2.3 7.9-3.1 2.9-.7 5.7-1.1 8.6-1.1 5.8 0 10.1 1.3 12.9 3.9 2.8 2.6 4.2 6.7 4.2 12.4v33.2h-5.5v-.2zm-16.6-5.2c4.6 0 8.2-1.3 10.8-3.8 2.6-2.5 3.9-6 3.9-10.6v-4.4l-7.4.3c-5.8.2-10.1 1.1-12.6 2.7-2.6 1.6-3.9 4.1-3.9 7.5 0 2.7.8 4.7 2.4 6.1 1.6 1.6 3.9 2.2 6.8 2.2zm59.9 6.1c-3.2 0-6.1-.6-8.7-1.8-2.6-1.2-4.8-3-6.6-5.4h-.5c.3 2.8.5 5.5.5 8.1v20h-7.4v-70.4h6l1 6.6h.4c1.9-2.7 4.1-4.6 6.6-5.8 2.5-1.2 5.4-1.8 8.6-1.8 6.4 0 11.4 2.2 14.9 6.6 3.5 4.4 5.2 10.6 5.2 18.5 0 8-1.8 14.2-5.3 18.6-3.5 4.6-8.4 6.8-14.7 6.8zm-1.1-44.1c-5 0-8.6 1.4-10.8 4.1-2.2 2.8-3.4 7.1-3.4 13.1v1.6c0 6.8 1.1 11.7 3.4 14.6 2.3 3 5.9 4.4 11 4.4 4.2 0 7.5-1.7 9.9-5.1 2.4-3.4 3.6-8.1 3.6-14.1 0-6.1-1.2-10.7-3.6-13.9-2.4-3.1-5.8-4.7-10.1-4.7zm41.5 43.2h-7.4v-69h7.4v69zm45.4 0l-1.5-6.9h-.4c-2.4 3-4.8 5.1-7.2 6.2-2.4 1.1-5.4 1.6-9 1.6-4.8 0-8.6-1.2-11.3-3.7-2.7-2.5-4.1-6-4.1-10.6 0-9.8 7.9-15 23.5-15.4l8.2-.3v-3c0-3.8-.8-6.6-2.4-8.4-1.7-1.8-4.3-2.7-7.9-2.7-4.1 0-8.6 1.2-13.7 3.7l-2.3-5.6c2.4-1.3 5-2.3 7.9-3.1 2.9-.7 5.7-1.1 8.6-1.1 5.8 0 10.1 1.3 12.9 3.9 2.8 2.6 4.2 6.7 4.2 12.4v33.2h-5.5v-.2zm-16.6-5.2c4.6 0 8.2-1.3 10.8-3.8 2.6-2.5 3.9-6 3.9-10.6v-4.4l-7.4.3c-5.8.2-10.1 1.1-12.7 2.7-2.6 1.6-3.9 4.1-3.9 7.5 0 2.7.8 4.7 2.4 6.1 1.8 1.6 4 2.2 6.9 2.2zm56.7 6.1c-7 0-12.5-2.2-16.3-6.5-3.9-4.3-5.8-10.5-5.8-18.4 0-8.1 2-14.4 5.9-18.9 3.9-4.4 9.5-6.7 16.7-6.7 2.3 0 4.7.3 7 .8s4.2 1.1 5.5 1.8l-2.3 6.3c-1.6-.7-3.4-1.2-5.3-1.6-1.9-.4-3.6-.6-5.1-.6-9.9 0-14.8 6.3-14.8 18.9 0 6 1.2 10.5 3.6 13.7 2.4 3.2 6 4.8 10.7 4.8 4 0 8.2-.9 12.4-2.6v6.5c-3.2 1.7-7.3 2.5-12.2 2.5zm44.3 0c-7.2 0-12.9-2.2-17-6.6-4.2-4.4-6.2-10.5-6.2-18.2 0-7.8 1.9-14.1 5.8-18.7s9-6.9 15.5-6.9c6.1 0 10.9 2 14.5 6 3.5 4 5.3 9.3 5.3 15.8v4.7h-33.5c.2 5.7 1.6 10 4.3 13 2.7 2.9 6.6 4.4 11.6 4.4 5.2 0 10.4-1.1 15.5-3.3v6.6c-2.6 1.1-5.1 1.9-7.4 2.4-2.3.6-5.1.8-8.4.8zm-2-44.2c-3.9 0-7 1.3-9.3 3.8-2.3 2.5-3.7 6-4.1 10.5H392c0-4.6-1-8.2-3.1-10.6-2.1-2.5-5-3.7-8.9-3.7zM221.4 175.7c3.2 0 6.4-.6 9.4-1.8l141.6-56.7c14.7-5.9 27.5-24.9 27.5-40.6V25.5c0-14.1-11.4-25.5-25.5-25.5H153.2c-5.8 0-10.2 1.7-12.3 4.8-2.1 3.1-2.1 7.8.1 13.2l56.6 141.6c3.8 9.6 13.4 16.1 23.8 16.1zM10.5 260.6C1 260.6 0 250.9 0 246.7V25.5C0 11.4 11.5 0 25.5 0h51c15.8 0 34.8 12.9 40.7 27.5l56.6 141.6c5.2 13.1-1.2 27.9-14.2 33.2L18 259c-2.7 1-5.2 1.6-7.5 1.6zm15 139.3h221.2c5.8 0 10.2-1.7 12.3-4.8 2.1-3.1 2.1-7.8-.1-13.2l-56.6-141.6c-3.8-9.6-13.4-16-23.8-16-3.2 0-6.4.6-9.4 1.8L27.5 282.7C12.9 288.5 0 307.5 0 323.3v51.1c0 14 11.5 25.5 25.5 25.5z"/></svg>