<svg xmlns="http://www.w3.org/2000/svg" viewBox="0 0 858 384"><path fill="#231F20" d="M0 148.05v235.5l860-147.18V0"/><g fill="#fff"><path d="M150.02 237.68c8.73-4.99 18.807-17.4 18.807-32.91 0-15.522-10.076-23.454-19.774-25.65-9.685-2.2-22.287-.975-33.92 1.012L47.23 191.806v31.6l12.654-2.107v70.547L47.23 293.95v31.604l78.568-13.523c12.603-2.162 26.165-7.406 34.875-14.75 8.73-7.3 14.96-17.106 14.96-32.608 0-15.51-10.11-25.4-25.62-26.98zm-46.52-23.93l8.726-1.514c4.855-.834 6.79-1.173 9.69.273 2.91 1.43 3.882 3.598 3.882 7.084 0 3.286-.973 5.772-3.88 8.24-2.903 2.427-4.837 2.957-9.692 3.797l-8.726 1.498v-19.39zm24.24 63.07c-2.913 2.442-4.847 3.367-9.69 4.2l-14.547 2.507v-21.315l14.546-2.498c4.843-.854 6.778-.803 9.69.63 2.896 1.423 3.875 4.184 3.875 7.662 0 3.27-.98 6.35-3.88 8.81zM428.05 125.99l-4.236.73v115.61l-40.197-108.66-48.47 8.393-40.426 123.2-19.657-29.828c5.818-4.493 22.28-17.054 22.28-44.18 0-14.542-6.774-25-16.462-30.115-9.71-5.116-22.308-5.815-38.78-2.99l-58.155 10.077v133.76l43.807-7.59v-44.58l5.63-.98 21.328 40.906 33.916-5.902 16.476-2.847 29.075-5.01 5.045-19.684 38.193-6.594 5.237 17.9 41.16-7.124v.018l43.813-7.59V119.12l-39.577 6.828v.02zm-179.74 84.97c-1.737 1.688-4.844 3.19-9.683 4.012l-11.054 1.922v-23.272l11.054-1.89c4.84-.844 7.75-.394 9.683.83 1.945 1.013 4.85 2.44 4.85 8.29 0 5.79-2.73 8.22-4.85 10.11zm100.22 10.19l9.876-37.56 9.898 34.144-19.78 3.42zM567.77 152.16c0 9.69.97 24.07.97 24.07L529.97 108.3l-47.49 8.22v133.76l42.647-7.382v-50.4c0-9.685-.96-24.065-.96-24.065l40.706 67.58 45.54-7.88V94.384l-42.64 7.368v50.4zM771.63 66.376l-19.99 48.594-19.76-41.72-48.46 8.39 46.33 73.37v16.49l-60.87 10.55V84.14l-43.61 7.565V225.44l104.48-18.09L766.6 201l6.96-1.24v-52.33l46.5-89.44"/></g></svg>