<svg xmlns="http://www.w3.org/2000/svg" viewBox="0 0 555.9 127.5"><linearGradient id="a" gradientUnits="userSpaceOnUse" x1="3.898" y1="106.046" x2="491.474" y2="106.046"><stop offset="0" stop-color="#192951"/><stop offset=".5" stop-color="#192951"/><stop offset="1" stop-color="#4978BC"/></linearGradient><path fill="url(#a)" d="M33.1 99.7l-7.3 1.6c-.6-1.6-2.1-2.4-4.6-2.4-1.7 0-2.6.5-2.6 1.5 0 .9.8 1.4 2.5 1.7 3.4.6 5.8 1.2 7.2 1.9 1.4.7 2.5 1.6 3.2 2.7s1.1 2.3 1.1 3.7c0 2.5-1 4.6-3.1 6.3-2.1 1.7-5.2 2.5-9.5 2.5-3.1 0-5.9-.6-8.2-1.8-2.3-1.2-3.8-3.1-4.4-5.5l7.7-1.1c.6 1.8 2.3 2.7 5.2 2.7 1.1 0 1.9-.2 2.5-.5.5-.3.8-.7.8-1.1 0-.4-.2-.7-.5-.9-.4-.2-1.3-.4-2.7-.8-2.9-.7-4.9-1.2-6.2-1.7-1.2-.5-2.3-1.3-3.1-2.5s-1.3-2.4-1.3-3.9c0-2.5 1-4.6 3-6.2s4.7-2.4 8.1-2.4c3.1 0 5.8.6 8 1.8 2.2 1.1 3.6 2.6 4.2 4.4z"/><linearGradient id="b" gradientUnits="userSpaceOnUse" x1="3.898" y1="106.046" x2="491.474" y2="106.046"><stop offset="0" stop-color="#192951"/><stop offset=".5" stop-color="#192951"/><stop offset="1" stop-color="#4978BC"/></linearGradient><path fill="url(#b)" d="M85.6 94l-11.8 25c-1.7 3.7-3.5 6-5.3 7-1.8 1-4 1.5-6.5 1.5-1.3 0-2.6-.1-3.9-.4v-6.6c2.1.2 3.6.3 4.6.3 2.5 0 3.8-.7 3.8-2 0-.3-.1-.9-.3-1.6l-6-23.1H70l2.1 9.9c.4 1.7.6 2.7.6 3.2.2-.3.3-.7.6-1.2.2-.5.4-.9.6-1.4L79 94h6.6z"/><linearGradient id="c" gradientUnits="userSpaceOnUse" x1="3.898" y1="106.046" x2="491.474" y2="106.046"><stop offset="0" stop-color="#192951"/><stop offset=".5" stop-color="#192951"/><stop offset="1" stop-color="#4978BC"/></linearGradient><path fill="url(#c)" d="M133.5 99.7l-7.3 1.6c-.6-1.6-2.1-2.4-4.6-2.4-1.7 0-2.6.5-2.6 1.5 0 .9.8 1.4 2.5 1.7 3.4.6 5.8 1.2 7.2 1.9 1.4.7 2.5 1.6 3.2 2.7s1.1 2.3 1.1 3.7c0 2.5-1 4.6-3.1 6.3-2.1 1.7-5.2 2.5-9.5 2.5-3.1 0-5.9-.6-8.2-1.8-2.3-1.2-3.8-3.1-4.4-5.5l7.7-1.1c.6 1.8 2.3 2.7 5.2 2.7 1.1 0 1.9-.2 2.5-.5.5-.3.8-.7.8-1.1 0-.4-.2-.7-.5-.9-.4-.2-1.3-.4-2.7-.8-2.9-.7-4.9-1.2-6.2-1.7-1.2-.5-2.3-1.3-3.1-2.5s-1.3-2.4-1.3-3.9c0-2.5 1-4.6 3-6.2s4.7-2.4 8.1-2.4c3.1 0 5.8.6 8 1.8 2.2 1.1 3.6 2.6 4.2 4.4z"/><linearGradient id="d" gradientUnits="userSpaceOnUse" x1="3.898" y1="106.046" x2="491.474" y2="106.046"><stop offset="0" stop-color="#192951"/><stop offset=".5" stop-color="#192951"/><stop offset="1" stop-color="#4978BC"/></linearGradient><path fill="url(#d)" d="M178.5 94l-1.1 6.3H173l-1.5 8.8c-.1.9-.2 1.4-.2 1.6 0 1.2.8 1.8 2.3 1.8.7 0 1.4-.1 2.3-.3l-1.1 6.4c-1.8.4-3.4.6-5.1.6-2 0-3.5-.3-4.5-.8s-1.8-1.2-2.4-2.1-.9-2.1-.9-3.7c0-.6.1-1.8.4-3.6l1.5-8.8h-3.4l1-6.3h3.4l1.4-7.3 8.9-.2L174 94h4.5z"/><linearGradient id="e" gradientUnits="userSpaceOnUse" x1="3.898" y1="106.046" x2="491.474" y2="106.046"><stop offset="0" stop-color="#192951"/><stop offset=".5" stop-color="#192951"/><stop offset="1" stop-color="#4978BC"/></linearGradient><path fill="url(#e)" d="M230.2 108.2h-17c-.1.7-.1 1.2-.1 1.5 0 1.1.3 1.9 1 2.5.7.6 1.6.9 2.6.9 2 0 3.4-1 4.2-3.1l8.3 1.3c-1.1 2.4-2.8 4.4-5.2 5.9-2.4 1.5-5.1 2.2-8 2.2-3.7 0-6.7-1-8.9-3.1-2.3-2.1-3.4-4.9-3.4-8.6 0-3.9 1.4-7.3 4.1-10.1 2.7-2.8 6.2-4.2 10.6-4.2 3.7 0 6.6 1.1 8.8 3.3 2.2 2.2 3.3 5.1 3.3 8.7 0 .8-.1 1.7-.3 2.8zm-8.9-4.8c.1-.5.1-.9.1-1.2 0-.9-.3-1.6-.8-2.3-.5-.7-1.3-1-2.3-1-1 0-2 .4-2.8 1.2-.8.8-1.4 1.9-1.6 3.3h7.4z"/><linearGradient id="f" gradientUnits="userSpaceOnUse" x1="3.898" y1="106.046" x2="491.474" y2="106.046"><stop offset="0" stop-color="#192951"/><stop offset=".5" stop-color="#192951"/><stop offset="1" stop-color="#4978BC"/></linearGradient><path fill="url(#f)" d="M261.4 94h8.4l-.6 3.8c1.8-3 4.4-4.5 7.6-4.5 3.1 0 5.2 1.5 6.3 4.5 1.6-2.9 4.1-4.4 7.4-4.4 2.2 0 3.9.6 5.2 1.8s2 2.9 2 5c0 .7-.1 1.5-.2 2.4l-2.7 16h-9.4l2.5-14.6c.1-.7.2-1.3.2-1.7 0-1.4-.7-2.1-2-2.1-.8 0-1.5.3-2 .9-.5.6-.9 1.8-1.2 3.5l-2.4 14.1h-9.1l2.5-14.6c.1-.9.2-1.5.2-1.9 0-.7-.2-1.3-.6-1.6-.4-.3-.9-.5-1.3-.5-.5 0-1 .2-1.7.6-.7.4-1.2 1.5-1.5 3.4l-2.5 14.6h-9.1l4-24.7z"/><linearGradient id="g" gradientUnits="userSpaceOnUse" x1="3.898" y1="106.046" x2="491.474" y2="106.046"><stop offset="0" stop-color="#192951"/><stop offset=".5" stop-color="#192951"/><stop offset="1" stop-color="#4978BC"/></linearGradient><path fill="url(#g)" d="M350.1 118.7h-9.7c0-.5-.1-.9-.1-1.1 0-.8.1-1.8.2-2.9-1.9 3.1-4.6 4.7-8.1 4.7-2.3 0-4.2-.7-5.7-2-1.4-1.4-2.2-3-2.2-5.1 0-1.5.4-2.9 1.2-4.2.8-1.3 1.9-2.3 3.3-3s2.9-1.2 4.4-1.5c1.5-.2 4.4-.6 8.8-1 .2-.6.3-1.1.3-1.4 0-1.4-.9-2-2.8-2s-3.2.9-4.1 2.8l-8-1.6c2-4.6 6.5-6.9 13.4-6.9 3.5 0 6.3.6 8.3 1.8s3 3 3 5.4c0 1.1-.6 4.8-1.8 11.2-.4 2.4-.7 4-.7 4.8 0 .5.1 1.2.3 2zm-8.7-11.7c-4.5.3-6.7 1.8-6.7 4.3 0 1.4.7 2.1 2.2 2.1.9 0 1.9-.4 2.8-1.2.8-.9 1.4-2.6 1.7-5.2z"/><linearGradient id="h" gradientUnits="userSpaceOnUse" x1="3.898" y1="106.046" x2="491.474" y2="106.046"><stop offset="0" stop-color="#192951"/><stop offset=".5" stop-color="#192951"/><stop offset="1" stop-color="#4978BC"/></linearGradient><path fill="url(#h)" d="M397.9 94l-1.1 6.3h-4.5l-1.5 8.8c-.1.9-.2 1.4-.2 1.6 0 1.2.8 1.8 2.3 1.8.7 0 1.4-.1 2.3-.3l-1.1 6.4c-1.8.4-3.4.6-5.1.6-2 0-3.5-.3-4.5-.8s-1.8-1.2-2.4-2.1c-.6-.9-.9-2.1-.9-3.7 0-.6.1-1.8.4-3.6l1.5-8.8H380l1-6.3h3.4l1.4-7.3 8.9-.2-1.3 7.5h4.5z"/><linearGradient id="i" gradientUnits="userSpaceOnUse" x1="3.898" y1="106.046" x2="491.474" y2="106.046"><stop offset="0" stop-color="#192951"/><stop offset=".5" stop-color="#192951"/><stop offset="1" stop-color="#4978BC"/></linearGradient><path fill="url(#i)" d="M436.2 94l-4.1 24.7h-9.6l4.1-24.7h9.6zm1.6-9.4l-1.2 7.3H427l1.2-7.3h9.6z"/><linearGradient id="j" gradientUnits="userSpaceOnUse" x1="3.898" y1="106.046" x2="491.474" y2="106.046"><stop offset="0" stop-color="#192951"/><stop offset=".5" stop-color="#192951"/><stop offset="1" stop-color="#4978BC"/></linearGradient><path fill="url(#j)" d="M479 109.1l7.4 1.8c-1.3 3.2-3.1 5.4-5.2 6.6-2.2 1.2-4.4 1.8-6.7 1.8-3.4 0-6.2-1.1-8.3-3.2-2.2-2.2-3.2-4.9-3.2-8.3 0-3.9 1.3-7.3 3.8-10.2 2.5-3 5.9-4.4 10.1-4.4 3 0 5.6.9 7.7 2.7 2.1 1.8 3.2 4.2 3.2 7.1l-8.4 1c0-2.7-.9-4-2.7-4-1.5 0-2.6 1.1-3.3 3.3-.7 2.2-1 4.1-1 5.7 0 2.4.9 3.6 2.7 3.6 1.8 0 3.1-1.2 3.9-3.5z"/><linearGradient id="k" gradientUnits="userSpaceOnUse" x1="3.898" y1="106.046" x2="491.474" y2="106.046"><stop offset="0" stop-color="#192951"/><stop offset=".5" stop-color="#192951"/><stop offset="1" stop-color="#4978BC"/></linearGradient><path fill="url(#k)" d="M538 99.7l-7.3 1.6c-.6-1.6-2.1-2.4-4.6-2.4-1.7 0-2.6.5-2.6 1.5 0 .9.8 1.4 2.5 1.7 3.4.6 5.8 1.2 7.2 1.9 1.4.7 2.5 1.6 3.2 2.7s1.1 2.3 1.1 3.7c0 2.5-1 4.6-3.1 6.3-2.1 1.7-5.2 2.5-9.5 2.5-3.1 0-5.9-.6-8.2-1.8-2.3-1.2-3.8-3.1-4.4-5.5l7.7-1.1c.6 1.8 2.3 2.7 5.2 2.7 1.1 0 1.9-.2 2.5-.5.5-.3.8-.7.8-1.1 0-.4-.2-.7-.5-.9-.4-.2-1.3-.4-2.7-.8-2.9-.7-4.9-1.2-6.2-1.7-1.2-.5-2.3-1.3-3.1-2.5-.9-1.1-1.3-2.4-1.3-3.9 0-2.5 1-4.6 3-6.2s4.7-2.4 8.1-2.4c3.1 0 5.8.6 8 1.8 2.2 1.1 3.6 2.6 4.2 4.4z"/><g><linearGradient id="l" gradientUnits="userSpaceOnUse" x1="2.778" y1="42.92" x2="521.124" y2="42.92"><stop offset="0" stop-color="#192951"/><stop offset=".5" stop-color="#192951"/><stop offset="1" stop-color="#4978BC"/></linearGradient><path fill="url(#l)" d="M39.4 42.4l17.9 2.3C55.1 52 51.6 58 46.5 62.6c-5.1 4.7-11.5 7-19.2 7-8.4 0-15-2.8-19.9-8.5S0 48.1 0 39.2c0-10.3 3-19.4 9.1-27.3C15.2 4 23.6 0 34.2 0c7.7 0 14 2.4 18.8 7.1 4.8 4.8 7.3 11 7.3 18.8l-18.8 1.4c-.1-4.1-.7-7.2-1.9-9.2-1.2-2-3.2-3-6.1-3-4.9 0-8.3 3.7-10.1 11s-2.7 13.1-2.7 17.3c0 6.8 2.7 10.3 8 10.3 2.6 0 4.8-.9 6.4-2.6 1.7-1.8 3.1-4.7 4.3-8.7z"/><linearGradient id="m" gradientUnits="userSpaceOnUse" x1="2.778" y1="42.92" x2="521.124" y2="42.92"><stop offset="0" stop-color="#192951"/><stop offset=".5" stop-color="#192951"/><stop offset="1" stop-color="#4978BC"/></linearGradient><path fill="url(#m)" d="M112.1 18.9l-23.5 50c-3.5 7.3-7 12-10.6 14-3.6 2-7.9 3-13 3-2.5 0-5.1-.3-7.8-.8V71.9c4.1.4 7.2.6 9.3.6 5.1 0 7.6-1.4 7.6-4.1 0-.7-.2-1.8-.6-3.2L61.6 18.9h19.6l4.2 19.8c.8 3.4 1.2 5.5 1.2 6.3.3-.6.7-1.4 1.1-2.5.3-.9.7-1.9 1.2-2.8l9.8-20.8h13.4z"/><linearGradient id="n" gradientUnits="userSpaceOnUse" x1="2.778" y1="42.92" x2="521.124" y2="42.92"><stop offset="0" stop-color="#192951"/><stop offset=".5" stop-color="#192951"/><stop offset="1" stop-color="#4978BC"/></linearGradient><path fill="url(#n)" d="M138.8 1.6l-3.9 23.5c2.6-3.1 4.9-5.1 6.9-6.1s4.3-1.5 6.8-1.5c4.7 0 8.6 1.7 11.4 5.1 2.9 3.4 4.3 8.3 4.3 14.9 0 8.1-2.3 15.4-6.8 22s-10.8 9.9-18.8 9.9c-7.6 0-12.9-3.1-15.9-9.4l-5.5 8.3h-8.6l11.1-66.7h19zm-8.3 49.3c0 1.8.1 3.1.4 3.8s.8 1.3 1.7 2c.9.6 2 .9 3.3.9 1.7 0 3.1-.5 4.3-1.6s2.3-3.5 3.4-7.3c1.1-3.7 1.6-7.7 1.6-12 0-4.9-1.7-7.4-5.2-7.4-3.3 0-5.7 2.5-7.2 7.5l-2.3 14.1z"/><linearGradient id="o" gradientUnits="userSpaceOnUse" x1="2.778" y1="42.92" x2="521.124" y2="42.92"><stop offset="0" stop-color="#192951"/><stop offset=".5" stop-color="#192951"/><stop offset="1" stop-color="#4978BC"/></linearGradient><path fill="url(#o)" d="M221.5 47.2h-34c-.2 1.3-.2 2.3-.2 3 0 2.2.7 3.8 2.1 5.1 1.4 1.2 3.1 1.8 5.2 1.8 4 0 6.8-2.1 8.5-6.3l16.6 2.7c-2.1 4.8-5.6 8.7-10.4 11.7-4.8 3-10.1 4.5-16 4.5-7.4 0-13.3-2.1-17.9-6.3-4.6-4.2-6.9-9.9-6.9-17.1 0-7.8 2.7-14.6 8.1-20.2 5.4-5.6 12.5-8.4 21.2-8.4 7.4 0 13.3 2.2 17.7 6.5 4.4 4.4 6.6 10.1 6.6 17.4-.1 1.6-.3 3.5-.6 5.6zm-17.8-9.5c.2-1 .2-1.8.2-2.3 0-1.8-.5-3.3-1.6-4.6-1.1-1.3-2.6-2-4.6-2-2.1 0-4 .8-5.7 2.4-1.7 1.6-2.7 3.8-3.1 6.5h14.8z"/><linearGradient id="p" gradientUnits="userSpaceOnUse" x1="2.778" y1="42.92" x2="521.124" y2="42.92"><stop offset="0" stop-color="#192951"/><stop offset=".5" stop-color="#192951"/><stop offset="1" stop-color="#4978BC"/></linearGradient><path fill="url(#p)" d="M233.8 18.9h16.4l-2 11.9c3.4-8.9 8.7-13.4 15.7-13.4.6 0 1.3.1 2.3.2L264 35.2c-1.7-.1-2.8-.1-3.4-.1-4.1 0-7.1 1-9 2.9-1.9 1.9-3.3 5.3-4.1 10.1l-3.4 20.1h-18.8l8.5-49.3z"/><linearGradient id="q" gradientUnits="userSpaceOnUse" x1="2.778" y1="42.92" x2="521.124" y2="42.92"><stop offset="0" stop-color="#192951"/><stop offset=".5" stop-color="#192951"/><stop offset="1" stop-color="#4978BC"/></linearGradient><path fill="url(#q)" d="M265.4 68.2l11.1-66.7H304c5 0 9.1.4 12.3 1.3 3.2.9 5.9 2.7 8 5.5 2.2 2.8 3.2 6 3.2 9.7 0 4.1-1.3 7.5-3.9 10.4-2.6 2.8-6 4.8-10.4 5.7 7.3 2.6 11 7.4 11 14.5 0 5.2-1.8 9.7-5.2 13.6-3.5 3.9-9.3 5.9-17.5 5.9h-36.1zm21.7-14.7h10c3.1 0 5.2-.7 6.4-2 1.2-1.3 1.8-2.7 1.8-4.2 0-1.9-.6-3.4-1.9-4.6-1.3-1.2-3.2-1.7-5.7-1.7h-8.4l-2.2 12.5zm4.5-26.5h7.6c6.1 0 9.1-2 9.1-6.1 0-3.5-2.4-5.3-7.2-5.3h-7.6L291.6 27z"/><linearGradient id="r" gradientUnits="userSpaceOnUse" x1="2.778" y1="42.92" x2="521.124" y2="42.92"><stop offset="0" stop-color="#192951"/><stop offset=".5" stop-color="#192951"/><stop offset="1" stop-color="#4978BC"/></linearGradient><path fill="url(#r)" d="M356.7 18.9l-8.3 49.3h-19.2l8.3-49.3h19.2zM359.9 0l-2.4 14.5h-19.2L340.7 0h19.2z"/><linearGradient id="s" gradientUnits="userSpaceOnUse" x1="2.778" y1="42.92" x2="521.124" y2="42.92"><stop offset="0" stop-color="#192951"/><stop offset=".5" stop-color="#192951"/><stop offset="1" stop-color="#4978BC"/></linearGradient><path fill="url(#s)" d="M384.5 69.7c-6.9 0-12.6-2-17.3-6.1-4.7-4.1-7-9.7-7-16.7 0-8.5 2.7-15.5 8.1-20.9s12.3-8.2 20.5-8.2c7.6 0 13.6 2.1 18 6.4s6.7 9.6 6.7 15.8c0 9.3-2.9 16.6-8.6 21.9-5.7 5.2-12.5 7.8-20.4 7.8zm.8-12c3.4 0 5.7-2.5 7-7.6s1.8-9.3 1.8-12.7c0-5.2-1.9-7.8-5.7-7.8-3.4 0-5.7 2.6-7 7.8-1.3 5.2-1.9 9.4-1.9 12.7 0 5 1.9 7.6 5.8 7.6z"/><linearGradient id="t" gradientUnits="userSpaceOnUse" x1="2.778" y1="42.92" x2="521.124" y2="42.92"><stop offset="0" stop-color="#192951"/><stop offset=".5" stop-color="#192951"/><stop offset="1" stop-color="#4978BC"/></linearGradient><path fill="url(#t)" d="M425.1 18.9h17.2l-1.3 8c1.3-3.3 3.5-5.7 6.5-7.2s6.2-2.3 9.6-2.3c4.2 0 7.6 1.1 10.2 3.3 2.6 2.2 3.9 5.1 3.9 8.7 0 1.4-.2 3.1-.5 5l-5.6 33.7h-18.8l5-29.6c.3-1.9.5-3.1.5-3.8 0-2.8-1.5-4.2-4.4-4.2-3.9 0-6.3 2.6-7.2 7.9l-5 29.6h-18.3l8.2-49.1z"/><linearGradient id="u" gradientUnits="userSpaceOnUse" x1="2.778" y1="42.92" x2="521.124" y2="42.92"><stop offset="0" stop-color="#192951"/><stop offset=".5" stop-color="#192951"/><stop offset="1" stop-color="#4978BC"/></linearGradient><path fill="url(#u)" d="M502.8 18.9l-8.3 49.3h-19.2l8.3-49.3h19.2zM505.9 0l-2.4 14.5h-19.2L486.8 0h19.1z"/><linearGradient id="v" gradientUnits="userSpaceOnUse" x1="2.778" y1="42.92" x2="521.124" y2="42.92"><stop offset="0" stop-color="#192951"/><stop offset=".5" stop-color="#192951"/><stop offset="1" stop-color="#4978BC"/></linearGradient><path fill="url(#v)" d="M538.3 49.1l14.9 3.7c-2.7 6.4-6.2 10.8-10.5 13.3s-8.8 3.7-13.4 3.7c-6.8 0-12.4-2.2-16.7-6.5-4.3-4.3-6.5-9.9-6.5-16.6 0-7.7 2.5-14.5 7.6-20.5 5.1-5.9 11.8-8.9 20.2-8.9 6.1 0 11.2 1.8 15.5 5.5s6.3 8.4 6.3 14.1l-16.7 2c0-5.3-1.8-8-5.4-8-3.1 0-5.3 2.2-6.6 6.6-1.3 4.4-2 8.2-2 11.4 0 4.8 1.8 7.2 5.5 7.2 3.7-.1 6.3-2.4 7.8-7z"/></g></svg>