<svg id="Layer_1" xmlns="http://www.w3.org/2000/svg" viewBox="0 0 300 81"><style>.st0{fill:#C0C2C2;} .st1{fill:url(#SVGID_1_);} .st2{fill:#43A8D3;} .st3{fill:url(#SVGID_2_);} .st4{fill:url(#SVGID_3_);} .st5{fill:url(#SVGID_4_);} .st6{fill:#F5822A;} .st7{fill:#F2612A;} .st8{fill:url(#SVGID_5_);}</style><path d="M114.4 66.4h-3.2v1.5h2.8v.9h-2.8v1.5h3.2v.9h-4.2v-5.6h4.2v.8zM120.8 69.8l-1.8-2.6v4h-1v-5.6h1.1l1.7 2.7 1.7-2.7h1.1v5.6h-1v-4.1l-1.8 2.7zM129.6 69.3h-1.1v1.8h-1v-5.6h2.2c1.3 0 2.1.7 2.1 1.9 0 1.3-1 1.9-2.2 1.9zm0-2.9h-1.2v2h1.2c.8 0 1.2-.4 1.2-1s-.5-1-1.2-1zM137.9 71.2c-1.7 0-2.9-1.3-2.9-2.9s1.2-2.9 3-2.9c1.7 0 2.9 1.3 2.9 2.9 0 1.6-1.2 2.9-3 2.9zm0-4.9c-1.1 0-1.9.9-1.9 2s.8 2 1.9 2c1.1 0 1.9-.9 1.9-2 .1-1.1-.7-2-1.9-2zM147.6 65.5h.8l1.4 4.2 1.3-4.2h1l-2 5.7h-.9l-1.4-4.1-1.4 4.1h-.9l-2-5.7h1.1l1.3 4.2 1.7-4.2zM159.8 66.4h-3.2v1.5h2.8v.9h-2.8v1.5h3.2v.9h-4.2v-5.6h4.2v.8zM167.1 71.1l-1.4-2h-1.2v2h-1v-5.6h2.5c1.3 0 2.1.7 2.1 1.8 0 .9-.6 1.5-1.3 1.7l1.5 2.1h-1.2zm-1.2-4.7h-1.4v1.9h1.5c.7 0 1.2-.4 1.2-1-.1-.6-.6-.9-1.3-.9zM172.8 65.5v5.6h-1v-5.6h1zM180.6 65.5h1v5.6h-.8l-3.1-4v4h-1v-5.6h.9l3 3.9v-3.9zM187.5 71.2c-1.8 0-2.9-1.3-2.9-2.9 0-1.6 1.2-2.9 2.9-2.9 1 0 1.6.3 2.2.8l-.6.8c-.4-.4-.9-.6-1.6-.6-1 0-1.8.9-1.8 2 0 1.2.8 2 1.9 2 .5 0 1-.2 1.4-.4v-1.1h-1.4V68h2.4v2.4c-.7.4-1.5.8-2.5.8zM201 71.2c-1.6 0-2.9-1.3-2.9-2.9 0-1.6 1.2-2.9 2.9-2.9 1 0 1.7.4 2.2.9l-.6.7c-.5-.4-.9-.7-1.6-.7-1.1 0-1.9.9-1.9 2s.8 2 1.9 2c.7 0 1.1-.3 1.6-.7l.6.6c-.5.7-1.1 1-2.2 1zM209.3 71.2c-1.7 0-2.9-1.3-2.9-2.9s1.2-2.9 3-2.9c1.7 0 2.9 1.3 2.9 2.9 0 1.6-1.2 2.9-3 2.9zm0-4.9c-1.1 0-1.9.9-1.9 2s.8 2 1.9 2c1.1 0 1.9-.9 1.9-2s-.8-2-1.9-2zM215.7 65.5h1v4.7h3v.9h-4v-5.6zM223.1 65.5h1v4.7h3v.9h-4v-5.6zM236 71.1h-1l-.6-1.4h-2.7l-.6 1.4h-1l2.5-5.7h.9l2.5 5.7zm-3-4.5l-1 2.3h1.9l-.9-2.3zM243.7 66.9c0 .7-.4 1-.8 1.3.7.2 1.1.6 1.1 1.4 0 1-.8 1.6-2.1 1.6h-2.6v-5.6h2.5c1.2-.1 1.9.5 1.9 1.3zm-1 .2c0-.5-.4-.7-1-.7h-1.4v1.5h1.4c.6 0 1-.3 1-.8zm.4 2.4c0-.5-.4-.8-1.2-.8h-1.6v1.5h1.6c.8.1 1.2-.2 1.2-.7zM250.3 71.2c-1.7 0-2.9-1.3-2.9-2.9s1.2-2.9 3-2.9c1.7 0 2.9 1.3 2.9 2.9-.1 1.6-1.3 2.9-3 2.9zm0-4.9c-1.1 0-1.9.9-1.9 2s.8 2 1.9 2c1.1 0 1.9-.9 1.9-2s-.8-2-1.9-2zM260.5 71.1l-1.4-2h-1.2v2h-1v-5.6h2.5c1.3 0 2.1.7 2.1 1.8 0 .9-.6 1.5-1.3 1.7l1.5 2.1h-1.2zm-1.2-4.7h-1.4v1.9h1.5c.7 0 1.2-.4 1.2-1-.1-.6-.6-.9-1.3-.9zM270.5 71.1h-1l-.6-1.4h-2.7l-.6 1.4h-1l2.5-5.7h.9l2.5 5.7zm-2.9-4.5l-1 2.3h1.9l-.9-2.3zM275.6 71.1h-1v-4.7h-1.8v-.9h4.6v.9h-1.8v4.7zM281.9 65.5v5.6h-1v-5.6h1zM288.5 71.2c-1.7 0-2.9-1.3-2.9-2.9s1.2-2.9 3-2.9c1.7 0 2.9 1.3 2.9 2.9 0 1.6-1.3 2.9-3 2.9zm0-4.9c-1.1 0-1.9.9-1.9 2s.8 2 1.9 2c1.1 0 1.9-.9 1.9-2s-.8-2-1.9-2zM299 65.5h1v5.6h-.8l-3.1-4v4h-1v-5.6h.9l3 3.9v-3.9z"/><g><path d="M108.1 39.6c0-8.3 6.1-15 14.5-15 4.8 0 7.8 1.7 10.6 4 .2.2.4.5.4.9 0 .6-.5 1.1-1.1 1.1-.3 0-.6-.1-.7-.3-2.4-2.2-5.2-3.8-9.2-3.8-6.9 0-12.2 5.7-12.2 12.9v.1c0 7.3 5.3 13 12.2 13 3.9 0 6.7-1.4 9.4-4 .2-.2.4-.3.7-.3.5 0 1 .5 1 1 0 .3-.2.6-.3.7-2.9 2.7-6.1 4.5-10.9 4.5-8.3.1-14.4-6.5-14.4-14.8zM147.6 26c0-.6.5-1.1 1.1-1.1.6 0 1.1.5 1.1 1.1v27.1c0 .6-.5 1.1-1.1 1.1-.6 0-1.1-.5-1.1-1.1V26zM166.1 26c0-.6.5-1.1 1.1-1.1.6 0 1.1.5 1.1 1.1v18.1l18.2-18.8c.2-.2.4-.3.7-.3.5 0 1.1.5 1.1 1.1 0 .3-.1.5-.3.7l-11 11.1 11.8 14.4c.2.2.3.5.3.8 0 .6-.5 1.1-1.1 1.1-.4 0-.7-.2-.8-.4l-11.7-14.4-7.2 7.3v6.4c0 .6-.5 1.1-1.1 1.1-.6 0-1.1-.5-1.1-1.1V26zM203 26c0-.6.5-1.1 1.1-1.1.6 0 1.1.5 1.1 1.1v26h16.1c.5 0 1 .5 1 1s-.5 1-1 1h-17.2c-.6 0-1.1-.5-1.1-1.1V26zM232.2 42V26c0-.6.5-1.1 1.1-1.1.6 0 1.1.5 1.1 1.1v15.8c0 6.8 3.7 10.7 9.8 10.7 5.9 0 9.6-3.6 9.6-10.5V26c0-.6.5-1.1 1.1-1.1.6 0 1.1.5 1.1 1.1v15.7c0 8.3-4.8 12.7-11.8 12.7-7 .1-12-4.3-12-12.4zM270.7 26c0-.6.5-1.1 1.1-1.1h.2c.5 0 .8.2 1.1.6l11.3 16.6 11.3-16.6c.2-.4.6-.6 1.1-.6h.2c.6 0 1.1.5 1.1 1.1v27c0 .6-.5 1.1-1.1 1.1-.6 0-1.1-.5-1.1-1.1V28.9l-10.6 15.4c-.2.4-.5.5-.9.5s-.7-.2-.9-.5l-10.6-15.4v24.2c0 .6-.5 1-1 1-.6 0-1-.5-1-1V26z"/></g><g><circle class="st0" cx="41" cy="41" r="40"/><linearGradient id="SVGID_1_" gradientUnits="userSpaceOnUse" y1="40.007" x2="80.017" y2="40.007"><stop offset="0" stop-color="#ECECEB"/><stop offset="1" stop-color="#DCDDDB"/></linearGradient><circle class="st1" cx="40" cy="40" r="40"/><g><path class="st2" d="M41.3 58c-9.9.7-18.5-6.8-19.2-16.7-.6-8.5 4.8-16 12.7-18.4l-2.2-7.2c-11.1 3.4-18.8 14.1-18 26.2 1 14 13.2 24.7 27.2 23.7 2-.1 3.9-.5 5.7-1.1l-2.2-7.2c-1.3.4-2.6.7-4 .7z"/><linearGradient id="SVGID_2_" gradientUnits="userSpaceOnUse" x1="19.423" y1="24.677" x2="26.247" y2="31.502"><stop offset="0" stop-color="#43A8D3"/><stop offset="1" stop-color="#00373F"/></linearGradient><path class="st3" d="M14.6 41.9C14 33.4 27 25.4 34.8 23l-2.2-7.2c-11.1 3.3-18.9 14.1-18 26.1"/><g><linearGradient id="SVGID_3_" gradientUnits="userSpaceOnUse" x1="23.183" y1="42.596" x2="51.858" y2="42.596"><stop offset="0" stop-color="#655A7D"/><stop offset="1" stop-color="#282135"/></linearGradient><path class="st4" d="M28.1 52c6.5 6.5 17.2 6.6 23.8.1l-4-4c-4.4 4.3-11.5 4.3-15.8-.1-4.4-4.4-4.4-11.4-.1-15.8l-4-4c-6.5 6.6-6.4 17.3.1 23.8z"/><linearGradient id="SVGID_4_" gradientUnits="userSpaceOnUse" x1="22.787" y1="38.208" x2="31.918" y2="41.532"><stop offset="0" stop-color="#655A7D"/><stop offset=".181" stop-color="#544B68"/><stop offset=".427" stop-color="#413951"/><stop offset=".654" stop-color="#332C41"/><stop offset=".853" stop-color="#2B2438"/><stop offset="1" stop-color="#282135"/></linearGradient><path class="st5" d="M28.1 52c-4.4-4.4-.4-15.4 3.9-19.8l-4-4c-6.5 6.6-6.4 17.3.1 23.8"/></g><g><path class="st6" d="M2.4 40.2c0 9.6 3.7 19.3 11 26.6 14.7 14.7 38.6 14.7 53.3 0L58.9 59c-10.4 10.4-27.3 10.4-37.7 0-5.2-5.2-7.8-12-7.8-18.8h-11z"/><path class="st7" d="M21.2 21.3c10.4-10.4 27.3-10.4 37.7 0l7.8-7.8c-14.9-14.9-38.2-15.1-53.3 0-7.3 7.3-11 17-11 26.6h11c0-6.8 2.6-13.6 7.8-18.8z"/><linearGradient id="SVGID_5_" gradientUnits="userSpaceOnUse" x1="44.395" y1="1.544" x2="36.916" y2="22.091"><stop offset="0" stop-color="#F2612A"/><stop offset="1" stop-color="#883C1D"/></linearGradient><path class="st8" d="M13.4 13.5c10.4-10.4 35.1-2.6 45.5 7.8l7.8-7.8c-14.9-14.8-38.2-15-53.3 0"/></g></g></g></svg>