<svg xmlns="http://www.w3.org/2000/svg" width="770" height="155" viewBox="-38.577 121.34 770 155"><path d="M248.405 218.714c2.41-.15 4.333-.357 5.766-.622 1.43-.263 2.978-.66 4.637-1.187 1.055-.3 1.902-.452 2.543-.452.64 0 1.167.208 1.582.622.414.415.792 1.016 1.13 1.808s.736 1.79 1.188 2.996c.376 1.054.582 1.845.622 2.37.037.53-.226.96-.79 1.3-.566.34-1.49.643-2.77.907-1.282.265-2.977.66-5.087 1.187-1.735.453-3.637.753-5.708.905-2.074.15-4.278.225-6.613.225-4.748 0-8.59-.717-11.53-2.147-3.016-1.43-5.54-3.467-7.575-6.105-1.963-2.637-3.488-5.783-4.58-9.44-1.094-3.655-1.603-7.78-1.526-12.377.15-6.707 1.47-12.51 3.957-17.408 2.488-4.897 6.03-8.514 10.627-10.852 3.165-1.656 7.574-2.41 13.225-2.26 5.576.15 10.173.83 13.79 2.034l2.714.904c.678.227 1.168.49 1.47.792.3.302.414.678.34 1.13-.077.453-.266 1.094-.566 1.922-.527 1.206-.96 2.187-1.3 2.94-.338.753-.716 1.3-1.13 1.64-.415.338-.924.49-1.525.45-.604-.036-1.433-.243-2.487-.62-3.617-1.28-7.31-1.922-11.078-1.922-3.77 0-6.632.528-8.59 1.583-1.96 1.057-3.486 2.487-4.58 4.296-1.092 1.808-1.978 4.07-2.655 6.782-.678 2.863-.98 6.744-.905 11.643.075 5.05 1.09 9.27 3.052 12.66 1.955 3.31 6.74 4.744 14.353 4.29zm50.303 9.834c-4.372-.302-8.215-1.357-11.53-3.165-4.598-2.41-7.99-6.008-10.173-10.795-2.187-4.784-3.052-10.72-2.6-17.804.3-4.37 1.09-8.384 2.373-12.04 1.28-3.654 3.126-6.782 5.54-9.382 2.41-2.6 5.387-4.54 8.93-5.82 3.542-1.28 7.76-1.77 12.66-1.47 4.37.3 8.12 1.356 11.25 3.164 3.125 1.808 5.688 4.202 7.686 7.178 1.996 2.977 3.428 6.462 4.296 10.456.865 3.995 1.223 8.29 1.074 12.886-.15 4.372-.867 8.29-2.147 11.756-1.282 3.467-3.165 6.37-5.653 8.705-2.487 2.336-5.54 4.07-9.157 5.2-3.62 1.13-7.802 1.507-12.55 1.13zm-11.304-15.938c1.13 2.034 2.77 3.58 4.918 4.635 2.147 1.056 4.692 1.696 7.63 1.92 3.315.228 6.104-.036 8.365-.79 2.26-.753 4.088-1.92 5.482-3.504 1.39-1.58 2.43-3.54 3.106-5.876.68-2.335 1.055-4.974 1.13-7.913.076-3.09-.112-6.007-.564-8.76-.452-2.75-1.263-5.18-2.43-7.29-1.17-2.11-2.732-3.788-4.692-5.03-1.96-1.246-4.408-1.94-7.347-2.093-3.39-.15-6.236.246-8.535 1.187-2.3.943-4.165 2.317-5.595 4.126-1.433 1.807-2.487 3.975-3.165 6.5-.678 2.525-1.018 5.294-1.018 8.306-.076 2.864.094 5.522.51 7.97.413 2.45 1.148 4.654 2.204 6.614zm69.52 16.05c-1.357-.15-2.6-.395-3.73-.734-1.13-.34-2.147-.695-3.052-1.074-4.522-2.108-7.932-5.576-10.23-10.4-2.3-4.823-3.448-10.587-3.448-17.295 0-4.37.64-8.44 1.92-12.21 1.28-3.767 2.9-6.97 4.862-9.607 2.034-2.637 4.183-4.522 6.443-5.653s4.22-1.882 5.876-2.26c2.56-.678 5.427-1.016 8.59-1.016 2.637 0 4.823.115 6.556.34 1.732.15 3.58 1.358 5.54 3.618v-28.825c0-.978.056-1.753.17-2.317.113-.565.34-.978.678-1.242.34-.264.85-.414 1.526-.453.678-.036 1.543-.056 2.6-.056 1.28 0 2.278.02 2.995.057.718.04 1.263.17 1.64.397.378.226.624.622.737 1.187.113.565.17 1.376.17 2.43v78.676h6.442v4.973c-.077 0-1.075.283-2.996.848-1.92.567-4.465.737-7.63.51-2.11-.15-3.6-.697-4.465-1.637-.868-.942-1.413-1.902-1.64-2.882-.98.53-1.98 1.02-2.996 1.47s-2.053.906-3.108 1.358c-3.165 1.28-6.71 1.92-10.626 1.92h-1.47c-.452-.002-.905-.04-1.356-.116zm1.92-8.702c.98.15 2.468.17 4.466.056 1.996-.113 4.24-.695 6.726-1.75 2.637-1.132 4.71-2.186 6.217-3.166v-36.512c-1.808-.452-3.617-.808-5.427-1.074-1.808-.264-4.108-.396-6.895-.396-1.806 0-3.37.19-4.69.565-1.32.38-2.355.756-3.11 1.133-1.806 1.056-3.41 2.6-4.803 4.635-1.395 2.034-2.43 4.41-3.108 7.122-.68 2.863-.98 6.708-.905 11.53.15 5.125 1.244 9.38 3.278 12.772 1.583 2.71 4.334 4.407 8.253 5.086zm69.07-.453c1.43-.075 3.182-.244 5.256-.51 2.072-.263 4.503-.696 7.292-1.298 1.13-.227 2.015-.357 2.656-.396.638-.035 1.168.078 1.583.34.416.266.774.736 1.076 1.413.3.678.68 1.62 1.13 2.826.378 1.055.397 1.884.058 2.485-.34.604-.96 1.113-1.864 1.527-.906.416-2 .736-3.28.962-1.282.226-2.675.49-4.182.79-3.997.754-8.63 1.132-13.906 1.132-5.198 0-9.27-.717-12.207-2.147-3.015-1.43-5.54-3.467-7.574-6.105-1.96-2.637-3.465-5.766-4.52-9.382-1.056-3.616-1.583-7.8-1.583-12.547 0-4.37.64-8.44 1.92-12.21 1.28-3.767 2.9-6.932 4.862-9.494 2.033-2.638 4.783-4.787 8.25-6.444 3.467-1.656 8.553-2.448 15.26-2.375.755.077 1.753.21 2.997.397 1.244.19 2.6.547 4.07 1.074 1.468.53 2.956 1.34 4.465 2.43 1.51 1.095 2.884 2.584 4.127 4.467 1.243 1.886 2.277 4.278 3.107 7.18.83 2.9 1.32 6.424 1.47 10.57 0 1.58-.245 2.786-.734 3.615-.49.83-1.037 1.396-1.64 1.697-.602.302-1.43.49-2.486.565H408.7v2.826c0 4.296 1.09 8.215 3.28 11.756 2.107 3.466 7.42 5.086 15.936 4.86zm9.21-35.1c-.716-1.77-1.637-3.183-2.77-4.24-1.13-1.052-2.43-1.825-3.9-2.316-1.466-.49-3.032-.737-4.69-.737-3.317-.075-6.03.453-8.14 1.583-1.96 1.13-3.636 2.732-5.03 4.805-1.395 2.075-2.394 4.24-2.995 6.5l-.228.905h29.164c-.224-2.56-.696-4.73-1.412-6.5zm59.63 39.622c-2.033 1.206-3.994 2.15-5.877 2.826-3.165 1.28-6.71 1.92-10.626 1.92h-1.47c-.45 0-.902-.037-1.355-.112-1.357-.15-2.6-.394-3.73-.733-1.13-.34-2.147-.695-3.052-1.074-4.522-2.108-7.932-5.576-10.23-10.4-2.3-4.823-3.447-10.587-3.447-17.295 0-4.37.638-8.44 1.92-12.21 1.28-3.767 2.9-6.97 4.862-9.607 2.034-2.636 4.183-4.52 6.443-5.652s4.22-1.882 5.88-2.26c2.56-.678 5.426-1.016 8.59-1.016 2.638 0 4.824.114 6.557.34 1.508.076 3.353 1.206 5.54 3.39 0-.977.057-1.733.17-2.26.112-.526.356-.904.734-1.13.377-.226.885-.357 1.526-.396.64-.037 1.487-.057 2.543-.057 1.28 0 2.277.02 2.995.056.716.04 1.26.17 1.638.396.376.226.622.622.735 1.187.113.564.17 1.375.17 2.43v63.19c0 5.124-1 9.156-2.996 12.095-1.997 2.94-4.578 5.238-7.742 6.895-1.207.603-2.6 1.148-4.183 1.638-1.583.49-3.147.905-4.69 1.244-1.547.34-3.016.565-4.41.68-1.395.112-2.47.13-3.222.055-1.808 0-3.56-.056-5.257-.17-1.695-.112-3.335-.357-4.918-.734-2.034-.452-3.637-.83-4.805-1.13-1.17-.302-2.017-.622-2.543-.96-.528-.34-.79-.774-.79-1.3 0-.53.15-1.245.45-2.15.377-1.206.717-2.187 1.02-2.94.3-.753.658-1.32 1.073-1.694.412-.38.942-.566 1.583-.566.64 0 1.487.15 2.543.453 1.583.452 3.24.808 4.974 1.074 1.732.265 4.107.32 7.12.17 2.94-.075 5.162-.3 6.67-.68 3.014-.677 5.407-1.825 7.18-3.446 1.77-1.62 2.617-4.126 2.542-7.517l-.11-12.546zm-6.216-5.766c2.335-.903 4.41-1.96 6.217-3.163v-36.173c-2.034-.68-3.844-1.13-5.427-1.357-.905-.15-1.92-.264-3.052-.34-1.13-.074-2.413-.112-3.844-.112-1.808 0-3.373.19-4.69.565-1.32.377-2.358.753-3.11 1.13-1.807 1.056-3.41 2.6-4.804 4.635-1.395 2.034-2.43 4.41-3.108 7.122-.68 2.864-.98 6.71-.905 11.53.15 5.126 1.244 9.382 3.278 12.773 1.583 2.712 4.333 4.41 8.252 5.087.978.15 2.467.17 4.466.056 2-.112 4.243-.695 6.73-1.752zm84.552 3.73v4.975c-.075 0-1.073.283-2.994.848-1.923.565-4.466.735-7.63.51-1.96-.152-3.373-.64-4.24-1.47-.867-.828-1.45-1.733-1.752-2.713-.98 1.13-1.96 1.998-2.94 2.6-.98.603-1.997 1.053-3.05 1.357-1.057.3-2.244.51-3.562.622-1.32.11-2.81.167-4.466.167-7.612.15-13.133-1.056-16.56-3.617-3.43-2.56-5.144-6.78-5.144-12.66v-35.38h-6.556v-5.54c.752-.68 1.657-1.318 2.713-1.922.903-.452 1.977-.884 3.22-1.3 1.243-.414 2.73-.622 4.465-.622 2.108 0 3.674.565 4.69 1.695 1.017 1.133 1.6 2.225 1.754 3.28 0 .227.017.51.056.848.037.34.056.698.056 1.075v34.93c0 3.542.923 5.973 2.77 7.29 1.845 1.32 4.5 2.053 7.97 2.204 1.43.076 2.73.095 3.9.057 1.167-.037 2.296-.13 3.39-.283 1.09-.15 2.184-.356 3.278-.62 1.092-.264 2.318-.547 3.675-.85V172.71c0-1.734.186-2.844.565-3.335.376-.49 1.204-.735 2.486-.735h4.522c1.357 0 2.204.246 2.543.735.34.49.51 1.602.51 3.335l-.112 20.12v29.165h6.445zm22.777 4.07c-.113.53-.34.925-.68 1.188-.338.265-.847.415-1.524.452-.68.04-1.546.057-2.6.057-1.283 0-2.28-.018-2.996-.057-.717-.037-1.263-.17-1.638-.395-.38-.227-.606-.622-.68-1.187-.076-.565-.113-1.374-.113-2.43v-46.46h-6.556v-5.54c.754-.677 1.657-1.316 2.714-1.92.904-.452 1.98-.884 3.22-1.3 1.245-.414 2.732-.622 4.466-.622 2.11 0 3.675.565 4.693 1.695 1.016 1.133 1.6 2.225 1.753 3.28 0 .227.018.51.056.848.038.34.057.698.057 1.075v48.946c-.003 1.055-.06 1.847-.174 2.372zm-11.19-80.484c.113-.68.377-1.187.792-1.527.41-.34.976-.53 1.694-.567.716-.037 1.713-.057 2.995-.057 1.43 0 2.58.02 3.447.057.865.04 1.525.208 1.98.51.45.3.734.79.847 1.47.113.678.17 1.694.17 3.05v2.26c0 1.284-.058 2.26-.17 2.94-.113.68-.378 1.187-.79 1.527-.416.34-1 .53-1.754.566-.753.038-1.734.056-2.938.056-1.508 0-2.675-.018-3.504-.056-.83-.038-1.47-.207-1.923-.51-.452-.3-.735-.79-.848-1.467-.113-.68-.17-1.697-.17-3.054v-2.26c0-1.282.057-2.263.17-2.94zm45.273 83.084c-1.358-.15-2.6-.395-3.73-.734-1.132-.34-2.148-.695-3.053-1.074-4.522-2.108-7.933-5.576-10.23-10.4-2.3-4.823-3.448-10.587-3.448-17.295 0-4.37.64-8.44 1.92-12.21 1.28-3.767 2.9-6.97 4.86-9.607 2.034-2.637 4.183-4.522 6.443-5.653s4.22-1.882 5.878-2.26c2.56-.678 5.426-1.016 8.59-1.016 2.638 0 4.824.115 6.557.34 1.732.15 3.58 1.358 5.538 3.618v-28.825c0-.978.057-1.753.17-2.317.113-.565.34-.978.678-1.242s.848-.414 1.527-.453c.68-.036 1.545-.056 2.6-.056 1.28 0 2.28.02 2.996.057.716.04 1.26.17 1.638.397.377.226.622.622.735 1.187.11.565.167 1.376.167 2.43v78.676h6.443v4.973c-.075 0-1.073.283-2.994.848-1.92.567-4.465.737-7.63.51-2.11-.15-3.6-.697-4.465-1.637-.866-.942-1.41-1.902-1.636-2.882-.98.53-1.98 1.02-2.996 1.47-1.017.453-2.053.906-3.108 1.358-3.166 1.28-6.71 1.92-10.627 1.92h-1.47c-.45-.003-.902-.04-1.354-.116zm1.922-8.702c.978.15 2.467.17 4.465.056 1.996-.113 4.24-.695 6.726-1.75 2.637-1.132 4.71-2.186 6.217-3.166v-36.512c-1.808-.452-3.617-.808-5.425-1.074-1.808-.264-4.108-.396-6.896-.396-1.81 0-3.375.19-4.69.565-1.32.38-2.36.756-3.11 1.133-1.808 1.056-3.41 2.6-4.805 4.635-1.395 2.034-2.43 4.41-3.108 7.122-.68 2.863-.98 6.708-.905 11.53.15 5.125 1.242 9.38 3.278 12.772 1.58 2.71 4.33 4.407 8.252 5.086zm61.266 8.702c-1.357-.15-2.6-.395-3.73-.734-1.13-.34-2.15-.695-3.052-1.074-4.522-2.108-7.933-5.576-10.23-10.4-2.3-4.823-3.448-10.587-3.448-17.295 0-4.37.64-8.44 1.92-12.21 1.28-3.767 2.9-6.97 4.862-9.607 2.034-2.637 4.183-4.522 6.443-5.653 2.26-1.13 4.22-1.882 5.878-2.26 2.563-.678 5.43-1.016 8.594-1.016 2.637 0 4.823.115 6.556.34 1.73.15 3.578 1.358 5.537 3.618 0-.978.057-1.753.17-2.317s.34-.977.678-1.24c.34-.265.848-.415 1.527-.454.678-.037 1.543-.057 2.6-.057 1.28 0 2.278.02 2.995.056.716.04 1.26.17 1.638.396.376.227.622.623.735 1.188.113.565.17 1.376.17 2.43v49.85h6.442v4.975c-.076 0-1.074.283-2.995.848-1.92.566-4.465.736-7.63.51-2.11-.15-3.6-.698-4.465-1.638-.868-.942-1.412-1.902-1.64-2.882-.98.528-1.98 1.018-2.995 1.47-1.016.452-2.053.905-3.108 1.357-3.167 1.28-6.71 1.92-10.628 1.92h-1.47c-.45-.003-.903-.04-1.355-.116zm1.922-8.702c.978.15 2.467.17 4.465.056 1.996-.113 4.24-.695 6.726-1.75 2.64-1.132 4.71-2.186 6.22-3.166v-36.512c-1.81-.452-3.618-.808-5.428-1.074-1.807-.264-4.107-.396-6.894-.396-1.808 0-3.373.19-4.692.565-1.32.38-2.355.756-3.108 1.133-1.808 1.056-3.41 2.6-4.805 4.635-1.394 2.034-2.43 4.41-3.107 7.122-.678 2.863-.98 6.708-.904 11.53.15 5.125 1.24 9.38 3.277 12.772 1.58 2.71 4.333 4.407 8.252 5.086z" fill="#313335"/><path fill="#CF2D2E" d="M104.903 269.33c2.195 2.196 5.788 2.196 7.983 0l26.635-26.634c2.197-2.195 2.367-5.943.38-8.328l-4.36-5.232c-1.987-2.385-5.41-2.54-7.605-.345l-27.793 27.795c-2.194 2.195-2.194 5.788 0 7.983l4.763 4.764z"/><path fill="#CE2D2D" d="M108.895 273.54c-1.547 0-2.998-.6-4.087-1.688l-7.188-7.19c-1.09-1.087-1.688-2.54-1.688-4.086 0-1.547.6-2.998 1.688-4.087l30.218-30.22c1.046-1.045 2.414-1.62 3.852-1.62 1.6 0 3.12.724 4.17 1.985l6.556 7.866c1.984 2.38 1.815 6.1-.376 8.29l-29.06 29.06c-1.087 1.088-2.538 1.688-4.085 1.688zm22.795-45.192c-.45 0-.89.19-1.238.538l-30.218 30.218c-.39.39-.605.913-.605 1.472 0 .56.213 1.082.603 1.472l7.188 7.188c.39.39.914.605 1.473.605.56 0 1.083-.213 1.472-.603l29.06-29.058c.86-.86.927-2.375.15-3.31l-6.556-7.866c-.35-.423-.824-.655-1.33-.655z"/><path fill="#AA2457" d="M142.66 214.063l-23.176 23.177 3.62 21.872 33.81-33.808"/><path fill="#AA2457" d="M121.87 262.964l-4.365-26.36 25.01-25.01 17.177 13.547-37.823 37.825zm-.406-25.09l2.878 17.387 29.795-29.792-11.33-8.934-21.343 21.342z"/><path fill="#AD3F83" d="M157.995 173.485c-2.193-2.197-3.728-1.468-3.41 1.62l1.757 17.095c.318 3.09.8 5.84 1.075 6.113.273.273.315.68.093.9-.222.223-.603 2.938-.846 6.033l-1.286 16.406c-.242 3.095 1.356 3.832 3.55 1.636l20.42-20.42c2.196-2.195 2.198-5.79.004-7.987l-21.357-21.394z"/><path fill="#AD3F83" d="M156.173 227.23c-.742 0-1.427-.3-1.928-.84-.668-.723-.95-1.79-.843-3.173l1.554-19.824c.193-2.463.44-3.766.682-4.495-.305-.69-.674-2.036-.96-4.803l-2.108-20.506c-.143-1.4.117-2.477.775-3.206.493-.546 1.17-.846 1.91-.846.938 0 1.893.48 2.837 1.426l23.78 23.823c2.25 2.254 2.25 5.922-.004 8.174l-22.844 22.845c-.944.943-1.903 1.422-2.85 1.422zm2.942-27.073c-.115.45-.332 1.73-.473 3.525l-1.47 18.75 22.083-22.083c.812-.815.813-2.137 0-2.95L156.38 174.48l1.978 19.233c.187 1.816.462 3.115.603 3.558.66.863.718 2.026.156 2.883z"/><path fill="#902255" d="M157.693 199.03l-20.458 20.46 15.095 10.398 7.287-7.288"/><path fill="#902255" d="M152.55 232.284l-18.192-12.532 24.854-24.854 2.32 28.404-8.983 8.982zm-12.438-13.058l12 8.266 5.593-5.594-1.53-18.735-16.063 16.063z"/><path fill="#902255" d="M155.395 170.88l-18.244-18.277-17.325 8.115 37.83 37.83"/><path fill="#902255" d="M159.906 203.415l-43.254-43.254 20.89-9.782 19.64 19.675 2.724 33.363zm-36.91-42.14L155.4 193.68l-1.794-21.974-16.848-16.878-13.765 6.446z"/><path fill="#E33640" d="M100.202 133.113c-2.195 2.195-5.235 6.207-6.754 8.915l-17.29 30.816c-1.52 2.708-1.947 6.4-.95 8.207.995 1.808 3.86 1.784 6.364-.05l15.075-11.05c2.505-1.834 5.79-5.555 7.304-8.266l3.28-5.878c1.515-2.71 3.96-3.722 5.437-2.246s4.733 1.18 7.237-.654l5.583-4.092c2.505-1.835 2.76-5.135.565-7.332l-13.104-13.13c-2.193-2.196-5.785-2.198-7.98-.002l-4.764 4.763z"/><path fill="#E33640" d="M78.034 184.595c-1.868 0-3.53-.99-4.446-2.65-1.294-2.348-1.243-6.086.118-8.51l18.968-33.807c1.148-2.046 3.347-4.95 5.007-6.61l7.19-7.188c1.09-1.088 2.54-1.687 4.085-1.687 1.548 0 3 .6 4.09 1.69l15.527 15.557c1.11 1.11 1.68 2.604 1.566 4.095-.115 1.492-.907 2.88-2.174 3.808l-8.35 6.118c-1.072.79-2.428 1.22-3.817 1.22-1.698 0-3.315-.642-4.436-1.763-.173-.173-.442-.378-.747-.378-.336 0-.675.26-.93.72l-4.95 8.872c-1.184 2.123-3.647 4.91-5.607 6.347l-17.84 13.074c-.977.715-2.1 1.093-3.25 1.093zm30.92-56.754c-.557 0-1.08.216-1.47.606l-7.187 7.188c-1.41 1.41-3.423 4.068-4.397 5.804l-18.967 33.806c-.743 1.324-.793 3.667-.105 4.914.263.477.692.74 1.208.74.358 0 .726-.132 1.063-.378l17.84-13.076c1.54-1.13 3.63-3.496 4.562-5.166l4.95-8.872c.914-1.638 2.47-2.616 4.16-2.616 1.225 0 2.42.52 3.362 1.46.433.434 1.097.68 1.822.68.61 0 1.19-.178 1.633-.504l8.35-6.118c.4-.294.64-.688.67-1.11.034-.42-.142-.845-.494-1.198l-15.528-15.556c-.394-.388-.916-.603-1.475-.603z"/><path fill="#CF2D2E" d="M142.905 158.367l-16.01-16.043-13.238 12.227 15.594 15.596"/><path fill="#CE2D2D" d="M129.158 172.666l-18.168-18.168 15.958-14.74 18.672 18.71-16.462 14.198zm-12.833-18.062l13.02 13.02 10.848-9.358-13.35-13.377-10.518 9.713z"/><path fill="#CF2D2E" d="M76.157 183.984s5.12.96 12.898 4.397l13.044-23.576-25.944 19.18z"/><path fill="#CE2D2D" d="M89.854 190.755l-1.547-.684c-7.452-3.292-12.443-4.26-12.493-4.27l-4.158-.785 36.17-26.747-17.972 32.488zm-9.48-7.588c1.992.598 4.677 1.51 7.875 2.853l8.12-14.683-16 11.83z"/><path fill="#902255" d="M74.755 175.345L44.985 228.4l17.157 8.215 28.76-51.545"/><path fill="#902255" d="M62.91 239.034l-20.5-9.817 31.666-56.44L93.39 184.41l-30.48 54.624zm-15.346-11.45l13.81 6.613 27.042-48.467-12.982-7.82-27.87 49.674z"/><path fill="#CF2D2E" d="M44.78 264.568c2.196-2.195 5.23-6.21 6.743-8.92l1.006-1.805c1.51-2.71 1.17-6.92-.757-9.355l-5.752-7.26c-1.927-2.435-4.747-2.21-6.267.498l-2.21 3.938c-1.52 2.708-4.557 3.127-6.753.93l-5.156-5.156c-2.195-2.195-4.486-1.5-5.09 1.545l-2.02 10.17c-.604 3.045.697 7.334 2.89 9.532l10.623 10.642c2.193 2.197 5.785 2.2 7.98.003l4.764-4.762z"/><path fill="#CE2D2D" d="M36.03 273.538c-1.55 0-3-.6-4.09-1.69l-13.045-13.07c-1.948-1.952-3.054-5.6-2.517-8.304l2.686-13.533c.506-2.55 2.19-3.456 3.595-3.456.745 0 1.883.25 3.07 1.434l7.58 7.582c.283.282.59.437.867.437.463 0 .772-.43.916-.684l3.887-6.928c.88-1.568 2.285-2.467 3.855-2.467 1.344 0 2.613.666 3.57 1.877l7.883 9.95c1.8 2.27 2.103 6.03.69 8.56l-2.676 4.8c-1.144 2.05-3.34 4.956-5.002 6.617l-7.188 7.188c-1.088 1.09-2.54 1.688-4.083 1.688zm-13.226-36.266c-.038.092-.08.22-.114.39l-2.686 13.532c-.3 1.512.418 3.88 1.507 4.97l13.047 13.07c.39.39.912.606 1.47.606.56 0 1.08-.214 1.47-.604l7.19-7.187c1.407-1.41 3.416-4.07 4.386-5.808l2.677-4.798c.686-1.23.514-3.36-.36-4.465l-7.883-9.95c-.277-.35-.53-.475-.673-.475-.185 0-.433.227-.63.578l-3.887 6.928c-.904 1.61-2.452 2.574-4.14 2.574-1.264 0-2.5-.54-3.482-1.52l-7.582-7.583c-.12-.12-.226-.204-.31-.26z"/><path fill="#AA2457" d="M46.82 225.133l-6.738 12.01L52.4 254.075l16.053-28.773"/><path fill="#AA2457" d="M52.604 257.502L37.89 237.27l7.852-13.995 25.846.203-18.984 34.024zm-10.33-20.49l9.92 13.638 13.125-23.523-17.42-.137-5.626 10.022z"/><path fill="#BF2931" d="M28.504 240.308L2.57 214.374l-17.04 8.362 35.233 35.296"/><path fill="#BF2A30" d="M21.37 261.258l-38.974-39.045L2.942 212.13l27.76 27.76-9.33 21.368zm-32.707-38l31.49 31.548 6.152-14.082-24.107-24.108-13.535 6.642z"/><g fill="#E33640"><path d="M-14.427 222.778c2.193 2.197 4.054 1.456 4.135-1.648l.35-13.478c.082-3.104-.558-6.35-1.42-7.212-.864-.863-.826-2.313.083-3.222s1.72-4.192 1.8-7.296l.39-14.89c.08-3.103-1.65-3.846-3.845-1.65l-21.43 21.43c-2.195 2.194-2.197 5.79-.003 7.986l19.943 19.98z"/><path d="M-11.6 226.72c-.686 0-1.75-.246-2.924-1.422l-22.365-22.406c-2.25-2.254-2.247-5.922.005-8.175l23.855-23.855c.942-.943 1.913-1.42 2.886-1.42.745 0 1.442.293 1.962.826.688.706 1.018 1.75.983 3.1l-.475 18.315c-.06 2.32-.87 5.414-2.296 6.84-.14.14-.164.292-.166.37-.002.07.01.166.082.237 1.4 1.4 2.068 4.507 2.007 6.854l-.44 16.906c-.074 2.828-1.723 3.83-3.11 3.83zm.686-52.745l-23.358 23.358c-.813.813-.813 2.135 0 2.948l22.096 22.14.43-16.527c.05-1.918-.572-3.773-.926-4.144-.78-.78-1.192-1.827-1.162-2.95.028-1.085.47-2.11 1.247-2.887.384-.384 1.16-2.258 1.214-4.323l.46-17.615z"/></g><path fill="#CF2D2E" d="M1.258 213.06l-14.19-14.19 35.36-35.36-19.332-6.16-16.828 16.828-2.004 47.29 5.945 5.956"/><path fill="#CE2D2D" d="M-9.61 230.22l-8.007-8.02 2.068-48.82 18.136-18.134 23.297 7.426-36.2 36.2 14.03 14.03-13.323 17.32zm-4.244-9.484l3.883 3.89 8.77-11.406-11.836-11.835-.82 19.35zm1.94-45.76l-.898 21.16 31.786-31.785-15.366-4.896-15.523 15.523z"/><g fill="#902255"><path d="M19.356 166.584L43.18 142.76l-16.827-8.667-33.615 33.615"/><path d="M-11.924 169.755L26 131.83l20.28 10.445L20.153 168.4l-32.078 1.355zm38.63-33.4L-2.6 165.66l21.158-.894 21.523-21.524-13.372-6.888z"/></g><g fill="#AA2457"><path d="M40.08 128.35c-2.196-2.195-5.79-2.195-7.984 0l-14.53 14.53-4.125 4.125-.194.196-.08.08c-.01.01-.01.02 0 .02s.056 0 .105.004c.05 0 .144.004.21.006.07 0 2.664.073 5.768.158l13.066.36c3.103.087 7.44-1.64 9.635-3.835l2.895-2.896c2.195-2.195 2.195-5.788 0-7.983l-4.765-4.764z"/><path d="M34.183 149.726c-.07 0-.14 0-.207-.003l-20.9-.578-1.178-.056-.91-2.22 1.144-1.173 19.87-19.87c1.088-1.088 2.54-1.687 4.086-1.687 1.547 0 2.998.6 4.087 1.69l7.188 7.187c2.253 2.254 2.253 5.92 0 8.174l-5.32 5.32c-1.833 1.835-5.212 3.217-7.86 3.217zm-16.69-4.157l16.69.457c1.66 0 4.11-.996 5.246-2.132l5.32-5.32c.81-.812.81-2.132 0-2.944l-7.19-7.187c-.39-.39-.913-.605-1.47-.605s-1.084.214-1.474.604L17.492 145.57z"/><path d="M30.717 129.73l-17.14 17.14-.27.27-.124.123-.036.036h.036l.174.003.246.007 24.353.674 5.508-5.507"/><path d="M38.7 149.854l-29.863-.823 3.433-3.466 18.448-18.448 15.36 15.362-7.377 7.377zm-21.208-4.285l19.72.543 3.637-3.637-10.134-10.133-13.225 13.225z"/></g><path opacity=".8" fill="#9D2256" d="M8.79 149.11l21.35 9.268 8.44-8.496"/><path opacity=".4" fill="#BF2931" d="M-1.914 207.368l-7.725 22.83 13.314-17.175"/><linearGradient id="a" gradientUnits="userSpaceOnUse" x1="162.915" y1="53.222" x2="166.316" y2="56.076" gradientTransform="matrix(1 0 0 -1 -120.96 303.34)"><stop offset="0" stop-color="#6D0803"/><stop offset=".129" stop-color="#720B07"/><stop offset=".337" stop-color="#821310"/><stop offset=".599" stop-color="#9C1E1C"/><stop offset=".902" stop-color="#C12A28"/><stop offset="1" stop-color="#CE2D2C"/><stop offset="1" stop-color="#A92356"/></linearGradient><path opacity=".6" fill="url(#a)" d="M35.032 242.345l17.532 15.133-14.678-20.208"/><path opacity=".4" fill="#CF2D2E" d="M117.553 236.676l20.236 10.343-15.97 15.993"/><path opacity=".5" fill="#CF2D2E" d="M81.794 177.423l8.38 12.722 3.21-5.752"/><path opacity=".4" fill="#E65C6C" d="M21.322 261.28l-1.28-32.1 10.646 10.805"/><path opacity=".6" fill="#902255" d="M125.14 168.627l17.782-12.863 2.81 2.824-16.467 14.19"/><linearGradient id="b" gradientUnits="userSpaceOnUse" x1="225.007" y1="157.452" x2="221.911" y2="155.119" gradientTransform="matrix(1 0 0 -1 -120.96 303.34)"><stop offset=".008" stop-color="#740E12"/><stop offset=".13" stop-color="#7A1116"/><stop offset=".329" stop-color="#8A191E"/><stop offset=".578" stop-color="#A6242A"/><stop offset=".867" stop-color="#CD3038"/><stop offset="1" stop-color="#E3373F"/></linearGradient><path opacity=".6" fill="url(#b)" d="M110.9 154.545c.03.01-.095-.09-.095-.09l-17.252-16.113 14.335 20.104 1.73-3.112s.353-1.062 1.28-.79z"/></svg>