<svg id="Layer_1" xmlns="http://www.w3.org/2000/svg" viewBox="652.2 356 351.4 80"><style>.st0{fill:#0b85d8}.st1{fill:#323333}</style><path class="st0" d="M670.9 398.7v-.6c0-17.7 14.3-32 32-32 10.3 0 19.5 4.9 25.4 12.5-6.3-13-19.4-22.1-34.7-22.6h-1.4c-14.7 0-26.7 12-26.7 26.7.1 6 2.1 11.6 5.4 16z"/><path class="st1" d="M662.9 382.7c0-8.3 3.4-15.8 9-21.1-11.7 7-19.6 19.8-19.6 34.4 0 22.1 17.9 40 40 40l9.6-12-9.6-12c-16.3 0-29.4-13.1-29.4-29.3zm40-13.9l-7.4 9.3 7.4 9.3c11.8 0 21.3 9.6 21.3 21.3 0 5.2-1.9 10-5 13.7 7.8-5.3 13-14.2 13-24.4.1-16.1-13.1-29.2-29.3-29.2zM843.1 412.8l-8-12.3c4.1-1.6 6.9-4.9 6.9-10.2 0-7.6-5.8-11.2-13-11.2h-13.4v33.6h5.6v-11.2h7.8l7.4 11.2 6.7.1zm-22-28h7.8c2.4 0 4.5.6 5.7 1.6.7.6 1.7 1.6 1.7 4s-1 3.5-1.7 4c-1.3 1-3.3 1.6-5.7 1.6h-7.8v-11.2z"/><path class="st0" d="M1003.6 384.8v-5.6h-24v33.6h24v-5.6h-18.4v-8.4h16.8v-5.6h-16.8v-8.4zm-108.4-5.6l-10.5 25.7-10.4-25.7h-6.4l13.7 33.6h6.3l13.7-33.6z"/><path class="st1" d="M850.8 398.8h16.7v-5.6h-16.7v-8.4h16.8l-2.2-5.6h-20.3v33.6h24v-5.6h-18.3zM795.5 384c6.6 0 12 5.4 12 12s-5.4 12-12 12-12-5.4-12-12 5.4-12 12-12m0-5.6c-9.7 0-17.6 7.9-17.6 17.6s7.9 17.6 17.6 17.6 17.6-7.9 17.6-17.6-7.9-17.6-17.6-17.6z"/><path class="st1" d="M775.3 403.4c-2.2 2.8-5.6 4.6-9.4 4.6-6.6 0-12-5.4-12-12s5.4-12 12-12c3.8 0 7.2 1.8 9.4 4.6l4-4c-3.2-3.8-8-6.2-13.4-6.2-9.7 0-17.6 7.9-17.6 17.6s7.9 17.6 17.6 17.6c5.4 0 10.2-2.4 13.4-6.2l-4-4z"/><path class="st0" d="M970.8 379.2V400c0 4.4-3.8 8-8.4 8s-8.4-3.6-8.4-8v-20.8h-5.6V400c0 7.5 6.3 13.6 14 13.6s14-6.1 14-13.6v-20.8h-5.6zm-23.1 28H934v-28h-5.6v33.6h24.2c-2.1-1.4-3.7-3.4-4.9-5.6zm-21.7-.3l-11.2-27.7h-6.4l-13.6 33.6h6.4l3.1-7.6H919l3.1 7.6h4v-5.9h-.1zm-19.5-7.3l5.1-12.5 5.1 12.5h-10.2z"/></svg>