<svg xmlns="http://www.w3.org/2000/svg" viewBox="0 0 300 48.1"><path fill="#1B3E6C" d="M0 0l23.5 23.5L47 0"/><path fill="#F7941D" d="M0 47l23.5-23.5L0 0"/><path fill="#40C4E0" d="M47 47V23.5L23.5 47"/><path fill="#725BA7" d="M35.2 35.2L23.5 47H0l11.8-11.8"/><path fill="#DC4E3A" d="M23.5 23.5L11.8 35.2h23.4"/><path fill="#00B388" d="M35.2 11.8L47 23.5V0"/><path fill="#F5DF2E" d="M35.214 11.727l11.738 11.737-11.738 11.738-11.738-11.738z"/><path d="M80.8 0h-15v47h14.5C90 47 104 41 104 23.6S88.9 0 80.8 0zM80 37.9h-3.4V9.1h3.9c3.4 0 12.3 2.3 12.3 14.5S83.1 37.9 80 37.9zm52.6-21.6v4.3l-1.3-1.4c-1.3-1.5-4.2-3.9-8.9-3.9-4.1 0-8.2 1.6-10.8 4.3-1.7 1.8-4.7 5.7-4.7 12.4 0 4.6 1.3 8 4.3 11.3 3 3.2 6.6 4.9 10.8 4.9 2.3 0 6.6-.6 9.2-4.3l1.3-1.9v5h8.8V16.3h-8.7zM124 39.8c-4.4 0-7.9-3.6-7.9-8.1s3.6-8.1 7.9-8.1 7.9 3.6 7.9 8.1c0 4.4-3.5 8.1-7.9 8.1zm70.7-23.5v4.3l-1.3-1.4c-1.3-1.5-4.2-3.9-8.9-3.9-4.1 0-8.2 1.6-10.8 4.3-1.7 1.8-4.7 5.7-4.7 12.4 0 4.6 1.3 8 4.3 11.3 3 3.2 6.6 4.9 10.8 4.9 2.3 0 6.6-.6 9.2-4.3l1.3-1.9v5h8.8V16.3h-8.7zm-8.5 23.5c-4.4 0-7.9-3.6-7.9-8.1s3.6-8.1 7.9-8.1c4.4 0 7.9 3.6 7.9 8.1 0 4.4-3.5 8.1-7.9 8.1zM150.9 0v16.3h-3.6v8h3.6V47h9.8V24.3h6.4v-8h-6.4V0m123.1 0v47h9.8V24.3h6.4v-7.9h-6.4V0m-55.2 31.1H225l6.6-20 6.8 20zm5.5 15.9h11.2L237.8 0h-12.2l-17.7 47h11l3.2-8.2H241l2.9 8.2zm14.8 0h9.8V34c0-1.3 0-5.3 2.8-7.9 1.4-1.3 3.2-1.9 5.7-1.9 1.7 0 3.5 0 4.1.1v-7.9c-.5 0-2-.1-2-.1-1.9 0-3.7 0-5.1.8-1.8.9-3.2 2.3-4.1 4.2l-1.4 2.6v-7.5h-9.8V47z"/></svg>