<svg width="93" height="14" viewBox="0 0 93 14" fill="none" xmlns="http://www.w3.org/2000/svg">
<path d="M36.4724 3.80762C34.8481 3.80762 33.8885 4.44837 33.2618 5.22555L33.0272 3.9238H31.1869V13.8696H33.3008V8.85797C33.3008 6.83801 34.2993 5.6137 35.982 5.6137C37.5674 5.6137 38.3703 6.62413 38.3703 8.50855V13.8705H40.5037V8.33428C40.5046 5.01168 38.6846 3.80762 36.4724 3.80762Z" fill="#111111"/>
<path d="M90.7716 2.54275C91.4948 2.54275 92.0613 2.01906 92.0613 1.28236C92.0613 0.545668 91.4948 0.0219727 90.7716 0.0219727C90.0483 0.0219727 89.4818 0.545668 89.4818 1.28236C89.4818 2.01906 90.0483 2.54275 90.7716 2.54275Z" fill="#111111"/>
<path d="M91.8077 3.9397H89.6973V13.8697H91.8077V3.9397Z" fill="#111111"/>
<path d="M43.8356 2.54278C44.5163 2.54278 45.058 2.07894 45.1191 1.40914C45.1244 1.36073 45.1271 1.31232 45.1271 1.26215C45.128 0.524575 44.5597 0 43.8356 0C43.1115 0 42.5441 0.524575 42.5441 1.26215C42.5441 1.31232 42.5476 1.36161 42.552 1.40914C42.6131 2.07894 43.1549 2.54278 43.8356 2.54278Z" fill="#111111"/>
<path d="M26.1188 5.42003L25.8834 3.92464H24.0076V7.43823C22.7799 10.561 19.8312 12.1189 17.6315 12.1629C17.5996 12.1638 17.5678 12.1638 17.5368 12.1638C16.055 12.1638 14.9042 11.5415 14.4474 10.4889L14.3961 10.3709L14.7989 10.356C17.0729 10.2741 20.5093 10.1509 21.4175 8.27262C21.884 7.3907 21.7026 6.41637 21.406 5.84954C21.1741 5.2968 20.1897 3.53208 17.1278 3.75741C14.597 3.94224 12.4177 5.97805 12.1663 8.39321L12.1574 8.4777L12.0715 8.47154C11.5741 8.43545 10.9907 8.36152 10.0993 8.23214V8.12388V0.271973H7.98632V5.30297C7.34012 4.42897 6.26371 3.80757 4.73673 3.80757C2.0165 3.80757 0 5.82754 0 8.89666C0 12.0828 2.0165 13.9866 4.73673 13.9866C6.32213 13.9866 7.35959 13.2482 8.00579 12.3742L8.26073 13.8696H10.1002V10.231V10.1579C11.05 10.2565 11.4528 10.2961 12.3194 10.3384L12.3831 10.3419L12.3999 10.4035C12.8948 12.2069 14.1757 13.4277 16.0063 13.8414C16.471 13.9461 16.9649 13.9998 17.4731 13.9998C19.8304 13.9998 22.447 12.7711 24.0076 11.0011V13.8704H26.118V8.87818C26.118 7.34318 26.7243 5.88651 28.6036 5.88651H29.5437V3.92376H29.0737C27.4307 3.92376 26.6278 4.58476 26.1188 5.42003ZM5.08904 12.2184C3.32748 12.2184 2.17229 10.8585 2.17229 8.89666C2.17229 6.95415 3.32748 5.5943 5.08904 5.5943C6.8506 5.5943 8.00579 6.95415 8.00579 8.93538C8.00579 10.8585 6.8506 12.2184 5.08904 12.2184ZM14.0632 8.52523L14.0863 8.41521C14.1774 7.98217 14.7564 5.8117 17.1721 5.60222C18.8557 5.45875 19.4338 6.09687 19.6285 6.4903C19.8427 6.92334 19.7702 7.39687 19.5772 7.6037L19.563 7.62043C19.2744 7.932 18.8788 8.358 14.1766 8.52171L14.0632 8.52523Z" fill="#111111"/>
<path d="M60.8899 5.42017L60.6544 3.92478H58.7787V7.43838C57.5509 10.5612 54.6023 12.1191 52.4025 12.1631C52.3707 12.164 52.3388 12.164 52.3078 12.164C50.826 12.164 49.6752 11.5417 49.2185 10.489L49.1671 10.3711L49.5699 10.3561C51.844 10.2743 55.2803 10.151 56.1886 8.27277C56.6551 7.39085 56.4736 6.41651 56.1771 5.84969C55.9451 5.29695 54.9608 3.53223 51.8989 3.75755C49.3681 3.94239 47.1887 5.97819 46.9373 8.39335L46.9284 8.47785L46.8426 8.47169C46.3451 8.4356 45.7617 8.36167 44.8703 8.23228V3.93974H42.76V13.8697H44.8703V10.1581C45.8202 10.2567 46.2229 10.2963 47.0895 10.3385L47.1533 10.342L47.1701 10.4036C47.6649 12.2071 48.9458 13.4279 50.7764 13.8415C51.2412 13.9463 51.7351 14 52.2432 14C54.6005 14 57.2172 12.7713 58.7778 11.0013V13.8706H60.8881V8.87832C60.8881 7.34332 61.4945 5.88666 63.3738 5.88666H64.3139V3.9239H63.8438C62.2018 3.9239 61.3989 4.5849 60.8899 5.42017ZM48.8343 8.52538L48.8573 8.41536C48.9485 7.98232 49.5274 5.81184 51.9431 5.60237C53.6268 5.4589 54.2048 6.09702 54.3996 6.49045C54.6138 6.92349 54.5412 7.39701 54.3482 7.60385L54.3341 7.61881C54.0455 7.93039 53.6498 8.35639 48.9476 8.5201L48.8343 8.52538Z" fill="#111111"/>
<path d="M87.5882 3.92376C85.9435 3.92376 85.1415 4.58388 84.6325 5.41916L84.3979 3.92376H82.5187V7.08706V8.05436C81.167 10.7714 78.468 12.1629 76.4169 12.1629C75.3104 12.1629 74.566 11.825 74.0641 11.3664C73.4081 10.767 73.1682 9.96254 73.0806 9.43709C73.0328 9.13167 73.0266 8.88171 73.0293 8.75144C73.0355 8.37473 73.1364 7.08178 74.1588 6.24211C75.0378 5.52037 76.8454 5.42268 77.7403 6.04935C78.6317 6.67426 78.5715 7.43384 78.5706 7.44176L78.5645 7.50866H80.6057L80.6093 7.45057C80.6119 7.396 80.6748 6.09952 79.9126 5.14807C79.4302 4.54692 77.99 3.20203 75.0307 3.71605C72.1777 4.2107 70.9074 6.81949 70.9172 8.5138C70.9181 8.62734 70.9216 8.75584 70.9296 8.89667C70.9296 8.89667 70.9278 9.98807 71.4483 11.1613C71.4554 11.1763 71.4616 11.1921 71.4687 11.2071C71.4872 11.2476 71.5067 11.2889 71.5262 11.3294C71.5457 11.3699 71.566 11.4104 71.5873 11.4518C71.5899 11.4562 71.5917 11.4606 71.5943 11.4659C71.6554 11.5829 71.7218 11.6991 71.7935 11.8135C71.7962 11.8179 71.7997 11.8232 71.8024 11.8276C71.8378 11.8831 71.8741 11.9376 71.9121 11.9931C71.9343 12.0256 71.9573 12.0573 71.9803 12.0899C71.9909 12.1049 72.0015 12.1189 72.0131 12.1339C72.7726 13.1505 74.0623 14.0104 76.2576 13.9998C78.4821 13.9998 80.9359 12.9058 82.5169 11.2951V11.3206V13.8696H84.6308V8.8773C84.6308 7.34231 85.238 5.88564 87.1164 5.88564H88.0556V3.92376H87.5882Z" fill="#111111"/>
</svg>
