<svg id="Слой_1" xmlns="http://www.w3.org/2000/svg" viewBox="0 0 200 117.4"><style>.st0{fill:#939393;}</style><path class="st0" d="M79.8 4.5c-1.6-1-3.3-1.9-5.1-2.6C68.4-.4 63.3 0 56.5 0H28.7v20.4c-1.5-.2-28.7-.1-28.7-.1v81.2s24.5.4 28.7-.2v15.4s9.5.1 14.3.1V97.7s10-3.5 16-15c3.2-6.2 4.2-14 4.2-14S90 70.5 93.6 38.8c1-12-2.4-19.8-2.9-21-2.4-5.8-6-10.2-10.9-13.3zM28.7 90.3s-1.6.3-5.4.4c-3.9.1-10.7 0-10.7 0V31.2s15.3-.2 16.1.3c.1.5 0 58.8 0 58.8zm19.1-13.9c-1.9 4.4-4.7 6.9-4.7 6.9V68.7h6.8s-1 4.9-2.1 7.7zm-4.5-19.8V38.2s3.4 3 5.2 8.7c1.3 4.1 1.7 9.7 1.7 9.7h-6.9zm34.8-12.1c-1 3.4-2.3 5.2-3.9 7.3-1.5 2-3.4 3.2-5.9 4.1-.9.3-2.7.7-4.4.7-.1-.5-.1-3.3-.7-7-.5-2.8-1.2-4.9-2-7.1C55.6 28 43.4 23.6 43.4 23.6v-6.8-4.7h16.1c2.8 0 6.1.1 8.4.7 2 .6 3.3 1.5 4.7 2.6 1.5 1.3 3.1 3.5 3.7 4.5 1.3 2.1 2.3 5.2 2.7 7.2.5 2.8.7 5.2.7 7.3-.1 3.9-1.2 8.7-1.6 10.1z"/><path class="st0" d="M61.5 103c-1.4-1.3-3.4-2-6-2h-5.6v16.2h5.2c2.7 0 4.8-.7 6.3-2.2 1.5-1.5 2.2-3.5 2.2-6.2 0-2.6-.7-4.5-2.1-5.8zm-3.4 9.4c-.6.8-1.6 1.2-2.9 1.2h-1v-9.1h1.3c1.2 0 2.1.4 2.7 1.1.6.7.9 1.8.9 3.3 0 1.6-.3 2.8-1 3.5zM66.7 117.2h9.7v-3.6h-5.3v-3H76v-3.5h-4.9v-2.6h5.3V101h-9.7zM83.3 104.6c.3-.2.7-.3 1.2-.3 1.1 0 2.4.3 3.9 1l1.3-3.4c-1.7-.8-3.5-1.2-5.1-1.2-1.9 0-3.4.4-4.5 1.3-1.1.8-1.6 2-1.6 3.5 0 .8.1 1.5.4 2.1.3.6.6 1.1 1.2 1.5.5.5 1.3.9 2.4 1.4 1.2.5 1.9.9 2.2 1 .3.2.5.3.6.5.1.2.2.4.2.6 0 .4-.2.6-.5.9-.3.2-.8.3-1.4.3-.8 0-1.6-.1-2.5-.4-.9-.2-1.8-.6-2.6-1v3.9c.8.4 1.6.6 2.3.8.7.2 1.6.2 2.7.2 1.3 0 2.4-.2 3.4-.6 1-.4 1.7-1 2.2-1.8.5-.8.8-1.7.8-2.7 0-1.1-.3-2-.8-2.7-.5-.7-1.5-1.4-2.9-2-1.5-.7-2.3-1.1-2.7-1.4-.3-.3-.5-.5-.5-.9-.1-.2 0-.4.3-.6zM92.5 101h4.4v16.2h-4.4zM106.9 111.1h2.9v2.5c-.5.1-1.1.2-1.8.2-1.2 0-2.1-.4-2.7-1.2-.6-.8-.9-1.9-.9-3.5 0-1.5.3-2.7 1-3.6.7-.8 1.7-1.2 3-1.2 1.4 0 2.7.3 3.8.9l1.4-3.4c-.7-.3-1.5-.5-2.4-.7-.9-.2-1.9-.3-2.9-.3-2.7 0-4.8.7-6.3 2.2-1.5 1.5-2.2 3.5-2.2 6.1 0 2.7.7 4.7 2 6.2 1.4 1.4 3.3 2.2 5.8 2.2 2.3 0 4.4-.3 6.3-1v-8.7h-7v3.3zM128.9 108.3c0 1 .1 2.3.2 3.9h-.1l-5.9-11.3h-5.7v16.2h3.9v-7.3c0-.9-.1-2.3-.2-4.1h.1l5.9 11.4h5.7V101h-3.9v7.3zM152.4 102.3c-1-.9-2.6-1.3-4.6-1.3h-5.6v16.2h4.4v-5.4h1.2c2 0 3.5-.5 4.5-1.5 1.1-1 1.6-2.4 1.6-4.2.1-1.6-.4-2.9-1.5-3.8zm-3.4 5.4c-.4.4-.9.6-1.6.6h-.8v-3.7h1.1c1.2 0 1.8.5 1.8 1.6 0 .6-.1 1.1-.5 1.5zM168.7 105.8c0-3.2-2.2-4.8-6.6-4.8h-5.3v16.2h4.4v-5.9h1.1l3.4 5.9h5l-4.7-7.1c1.8-1 2.7-2.4 2.7-4.3zM162 108h-.8v-3.7h.9c1.5 0 2.2.6 2.2 1.7 0 1.3-.8 2-2.3 2zM179.4 100.7c-2.6 0-4.5.7-5.9 2.1-1.3 1.4-2 3.5-2 6.2s.7 4.8 2 6.2c1.4 1.4 3.3 2.1 5.8 2.1 2.6 0 4.5-.7 5.9-2.1 1.3-1.4 2-3.5 2-6.2s-.7-4.8-2-6.2c-1.2-1.3-3.2-2.1-5.8-2.1zm2.5 11.9c-.5.8-1.4 1.1-2.5 1.1-2.2 0-3.3-1.6-3.3-4.7 0-3.2 1.1-4.7 3.3-4.7 1.1 0 1.9.4 2.4 1.2.5.8.8 2 .8 3.6.1 1.6-.2 2.8-.7 3.5zM200 104.5V101h-9.6v16.2h4.3v-6.1h4.9v-3.5h-4.9v-3.1z"/></svg>