<svg xmlns="http://www.w3.org/2000/svg" viewBox="0 0 570.35999 334.07999" height="334.08" width="570.36"><defs><clipPath id="a"><path d="M0 2505.62V0h4277.69v2505.62z"/></clipPath></defs><g clip-path="url(#a)" transform="matrix(.13333 0 0 -.13333 0 334.08)"><path d="M3892.71 1775.86c27.39-59.89 1.05-130.65-58.86-158.04-59.89-27.39-130.62-1.05-158.04 58.86-27.36 59.9-1.03 130.64 58.86 158.04 59.89 27.4 130.68 1.05 158.04-58.86M3903.56 1289.3c0-65.86-53.4-119.26-119.27-119.26-65.86 0-119.25 53.4-119.25 119.26 0 65.86 53.39 119.26 119.25 119.26 65.87 0 119.27-53.4 119.27-119.26M3903.56 852.328c0-65.848-53.4-119.238-119.27-119.238-65.86 0-119.25 53.39-119.25 119.238 0 65.883 53.39 119.274 119.25 119.274 65.87 0 119.27-53.39 119.27-119.274M3155.29 1289.3c0-65.86-53.37-119.26-119.25-119.26-65.85 0-119.24 53.4-119.24 119.26 0 65.86 53.39 119.26 119.24 119.26 65.88 0 119.25-53.4 119.25-119.26M4266.85 1994.37c27.41-59.89 1.05-130.65-58.86-158.05-59.89-27.39-130.65-1.03-158.03 58.86-27.4 59.89-1.04 130.65 58.85 158.04 59.9 27.4 130.63 1.05 158.04-58.85M4049.96 683.45c-27.4-59.89-1.04-130.622 58.85-158.02 59.9-27.41 130.63-1.05 158.04 58.84 27.41 59.898 1.05 130.66-58.86 158.04-59.89 27.41-130.65 1.05-158.03-58.86M4277.69 1507.81c0-65.87-53.42-119.25-119.27-119.25s-119.27 53.38-119.27 119.25 53.42 119.25 119.27 119.25 119.27-53.38 119.27-119.25M4277.69 1070.82c0-65.86-53.42-119.242-119.27-119.242s-119.27 53.382-119.27 119.242c0 65.9 53.42 119.27 119.27 119.27s119.27-53.37 119.27-119.27M3529.42 1507.81c0-65.87-53.37-119.25-119.24-119.25-65.88 0-119.25 53.38-119.25 119.25s53.37 119.25 119.25 119.25c65.87 0 119.24-53.38 119.24-119.25M3529.42 1070.82c0-65.86-53.37-119.242-119.24-119.242-65.88 0-119.25 53.382-119.25 119.242 0 65.9 53.37 119.27 119.25 119.27 65.87 0 119.24-53.37 119.24-119.27" fill="#a7aaa8"/><path d="M230.45 1183.42v202.38c-3.606 0-44.65 6.47-74.9 6.47-49.695 0-72.015-32.41-72.015-111.62 0-87.13 22.32-111.63 66.254-113.09 35.284.76 80.66 15.86 80.66 15.86zm82.82-84.25h-82.82v17.28s-51.138-25.21-93.63-25.21C41.047 1091.24 0 1145.27 0 1281.36c0 128.91 47.535 185.8 149.79 185.8 28.077 0 77.054-8.65 80.66-9.36v145.48h82.82v-504.11M424.898 1458.51h82.106v-38.16s47.53 35.28 108.738 46.81v-87.87c-64.797-12.95-108.738-37.43-108.738-37.43v-242.69h-82.106v359.34M904.535 1280.65c0 75.61-19.44 111.62-77.773 111.62-61.207 0-78.504-34.57-78.504-111.62 0-77.79 14.414-115.23 78.504-115.23 64.078 0 77.773 38.89 77.773 115.23zm83.55 0c0-115.95-37.472-189.41-161.323-189.41-123.883 0-162.04 72-162.04 189.41 0 115.21 40.333 186.51 162.04 186.51 119.547 0 161.324-72.01 161.324-186.51M1074.52 1458.51h82.09v-359.34h-82.09zm0 145.48h82.09v-87.13h-82.09v87.13M1472.74 1183.42v202.38c-3.59 0-44.63 6.47-74.88 6.47-49.7 0-72.02-32.41-72.02-111.62 0-87.13 22.32-111.63 66.26-113.09 35.29.76 80.64 15.86 80.64 15.86zm82.84-84.25h-82.84v17.28s-51.12-25.21-93.6-25.21c-95.79 0-136.85 54.03-136.85 190.12 0 128.91 47.54 185.8 149.81 185.8 28.08 0 77.05-8.65 80.64-9.36v145.48h82.84v-504.11M1903.43 1453.48l-2.88-71.29s-56.91 6.48-84.28 6.48c-73.45 0-90.01-27.38-90.01-105.14 0-86.43 15.13-114.51 90.74-114.51 27.38 0 84.27 6.47 84.27 6.47l2.16-71.3s-73.47-12.95-111.62-12.95c-109.47 0-149.09 55.45-149.09 192.29 0 128.9 43.92 183.63 151.24 183.63 38.89 0 109.47-13.68 109.47-13.68M2202.32 1280.65c0 75.61-19.47 111.62-77.79 111.62-61.23 0-78.51-34.57-78.51-111.62 0-77.79 14.41-115.23 78.51-115.23 64.09 0 77.79 38.89 77.79 115.23zm83.5 0c0-115.95-37.43-189.41-161.29-189.41-123.87 0-162.05 72-162.05 189.41 0 115.21 40.34 186.51 162.05 186.51 119.54 0 161.29-72.01 161.29-186.51M2373.69 1099.17v359.34h82.11v-17.99s56.87 26.64 96.48 26.64c100.12 0 125.32-59.05 125.32-180.04v-187.95h-82.09v187.24c0 68.42-8.63 103.69-59.04 103.69-31.69 0-80.67-16.56-80.67-16.56v-274.37h-82.11M2123.15 2501.21v-307.52h457.58c88.84 0 383.47-70.72 565.88-412.12l313.3 153.28c-202.63 383.47-518.72 570.77-842.96 570.77-283.74 0-493.8-4.41-493.8-4.41M2123.15 0v343.69h457.58c88.84 0 383.47 52.63 565.88 394.03l313.3-162.302C3257.28 191.96 2941.19.128 2616.95.128 2333.21.13 2123.15 0 2123.15 0" fill="#7bcb29"/></g></svg>