<svg xmlns="http://www.w3.org/2000/svg" viewBox="0 0 3267.99 434.47"><defs><style>.cls-1{fill:#2ab677;}.cls-2{fill:#2c2561;}</style></defs><title>duethealth_logo</title><g id="Layer_2" data-name="Layer 2"><g id="Layer_1-2" data-name="Layer 1"><path class="cls-1" d="M322,110.89c1,45.15-31.62,89.93-81.42,100.78-46.74,10.18-86.43-3.11-115.72-42.29-28.53-38.14-24.44-94.26,8.5-128.65,16.3-17,35.36-28.53,58.57-33.06C244.6-2.62,297.07,24.71,315.61,74a107.77,107.77,0,0,1,5.26,19.07C321.9,98.9,321.69,104.94,322,110.89Z"/><path class="cls-1" d="M333.52,239.83v71.36c-4.19.26-7.67.64-11.16.66-17.54.06-35.07,0-52.61.06-3.53,0-7.05.44-11.21.71V361c12.14,1.77,24.3.59,36.36.8,12.21.22,24.43.05,36.39.05,2.41,7.44,3,56.31,1,70.25-2.69.21-5.55.62-8.41.63-94.31,0-188.62-.1-282.94.15-13.95,0-20.7-9-26.84-18.83A90.08,90.08,0,0,1,1.58,377.72C-4.12,333.71,5,293.8,38,262.24c30.79-29.51,73.62-31.87,108-3.6,9.44,7.76,18.35,16.2,28,23.7,12.56,9.78,26.46,16.68,43,14.28,13.83-2,25.37-9.22,36.12-17.67S274,261.53,284.84,253.5a72.33,72.33,0,0,1,42.52-14.33C329,239.15,330.54,239.5,333.52,239.83Z"/><path class="cls-2" d="M309.86,205.51c50.42-65.4,48.52-129.08-1.42-192.13C313.32,8,319.63,6.1,325.78,4.21,352.57-4,378.3.33,402.8,12.35c40.09,19.67,61,53,60.85,96.93-.11,44.28-22.77,76.48-62.42,96-23.57,11.62-48.4,15.55-74.12,7.53C321.83,211.19,316.87,208.53,309.86,205.51Z"/><path class="cls-2" d="M477.51,434.47H386.77V360.82c25.08-1.68,50.07.16,76.29-1.11.41-15.09.24-29.74.12-45.64H386.76V233.26c26-8.13,50.83-6.89,74.41,7.28,29.05,17.46,47.08,43,54.16,76.07,8.3,38.75,1,74.14-23.72,105.54a44.67,44.67,0,0,1-6.08,6.51C482.78,431,479.69,432.92,477.51,434.47Z"/><path class="cls-2" d="M578.31,245.72q0-85.14,0-170.26V64.33s93.33-.73,134.4.26c47.79,1.16,91.16,15.8,127.78,47.47C872,139.3,890.82,173.94,897,214.92c6.79,45.36.18,88.62-25,127.88-30.73,48-75.87,73.83-131.17,82.62-15.91,2.53-32.29,2.63-48.47,2.82-34.38.4-68.77-.08-103.15.26-8.17.08-11.15-2.14-11.09-10.85C578.49,360.34,578.31,303,578.31,245.72Zm42.43.11c0,44.73.12,89.47-.14,134.2,0,6.6-.05,8.76-.05,8.76s66.77.1,95.83-.58c79-1.85,136.36-58.76,139-137.53,2.52-75.67-52.4-139-127.87-145.14-32.51-2.65-106.94-2.12-106.94-2.12s0,2.2,0,9C620.87,156.92,620.73,201.38,620.74,245.83Z"/><path class="cls-1" d="M1754.6,246.61q0-84.71,0-169.39c0-11.1-.12-11.16-.12-11.16L1795.2,66l0,9.18s-.11,34.66-.1,52c0,29.35.08,88.05.08,88.05V226.3s137-.29,200.17,0c8,0,10.64.13,10.64.13l-.14-160.23,12-.05h28.55l0,7.19s0,3.35,0,5V416.29c0,12,0,12,0,12h-40.55s0-.06,0-11.54q0-65.42,0-130.82v-9.22l0-12.24h-210.7v11.72q0,70.44,0,140.88c0,11.14,0,11.2,0,11.2l-40.61.12-.07-10.77S1754.6,303.63,1754.6,246.61Z"/><path class="cls-2" d="M1272.62,308.21c-.06,43.42,34.3,82.37,76.21,88.4,36.65,5.28,67.87-5.59,94.36-30.76l6.76-6.43s18.12,17.24,24.72,23.25c-9.67,12.7-21.63,22.12-34.43,30.49-67.21,43.94-187.13,22.89-208.55-90.86-10.26-54.51,3.44-104,47.34-140.7,68.67-57.48,172-25.82,197.09,60.17,5.25,18,5.87,37.32,8.57,56,1.14,7.94-2.21,10.59-10.34,10.56-63.74-.29-127.47-.16-191.21-.16Zm167.69-29.89c-.59-47.55-32.27-90.48-84.46-89.39-43.4.91-86.78,47-82.8,89.39Z"/><path class="cls-1" d="M3073.73,204c2.87-3.6,5.82-7.14,8.61-10.81,39.77-52.21,115.12-44.5,148.39-16.31,21.71,18.4,33.34,42.25,35.23,70,1.94,28.39,1.42,57,1.64,85.46.23,28.79.21,86.37.21,86.37l.18,9.73h-40.35s-.07-1.94,0-9.1q.36-72.54,0-145.08a122.71,122.71,0,0,0-2.72-26.59c-10.2-44.48-44.17-59-81.52-54.68-41.59,4.8-68.86,33.87-70.1,75.64-1.45,49.15-1.57,147.54-1.57,147.54v12.23l-39.09.07,0-9.41s0-2.8,0-4.19V49.73h39s0,17.83,0,25.86c.12,39.7.06,79.39.06,119.09v8.78Z"/><path class="cls-1" d="M2247.76,307.66q-47.81,0-95.59,0c-3.57,0-8.32.07-8.32.07a20.2,20.2,0,0,0-1.08,11.2c14.71,83.38,103.08,97,153.28,61.69,6.62-4.66,19.52-14.62,19.52-14.62l5.08-4,3.72,3.78,5.17,5.17L2344,384.34s-5,4.91-14.16,13.21c-51.24,46.62-130.19,48.41-182.78,4-27.55-23.27-42-54.13-45.93-89.58-5-45.29,5.9-86.57,37.8-119.93,33.07-34.59,74.7-45.34,120.69-34.22,45.09,10.9,73.77,41.11,86.48,85.1,5.12,17.71,7.79,55.31,7.79,55.31s-2.48,9.63-9.67,9.57C2312.05,307.49,2279.9,307.65,2247.76,307.66Zm65.41-28.29c-2.3-10.87-3.82-21.65-6.63-31.42-12.52-43.53-55.57-69.12-97.92-57.17-38.75,10.93-57.78,39.78-65.71,77.42a50.42,50.42,0,0,0-.7,11.09s4.83.06,10,.07q75.5,0,151,0C2305.93,279.35,2308.64,279.66,2313.17,279.37Z"/><path class="cls-1" d="M2585.92,271.93c5.15-37-12.9-70.16-55-77.94-32.92-6.09-64.58-.37-94.77,13.4-7.06,3.22-10.74,2.77-12.45-5.18-.58-2.7-2-5.19-2.91-7.85-5.66-17.31-9.29-14.25,10.26-22,40.25-16,81.76-20.6,124.09-10.19,41.62,10.24,66.35,39.84,70.27,82.62.91,10,1.43,20.06,1.46,30.1.15,47.79-.07,95.58.2,143.37,0,7.66,0,10.17,0,10.17l-27.68,0-11.09-.06.16-39.83s-4.54,4.17-5.84,5.67c-45.33,52.08-118.86,48-160.25,19-47.17-33-40.48-108.12,9-133.57,27.85-14.34,57.32-18.46,87.82-16.07C2541.26,265.34,2563.26,269,2585.92,271.93Zm2.77,50.77v-7.53c0-12.46.08-13.13-12.38-15.12-20.9-3.33-41.88-7-63-8.13-20.11-1.07-40.28,1.67-58.09,12.68-30.33,18.73-32.4,60.52-4.1,82.07C2471.52,402.18,2494.78,404,2519,400,2556.63,393.83,2592,365.84,2588.69,322.7Z"/><path class="cls-2" d="M1140.05,384.23c-7.44,8.18-13.34,15.5-20.08,21.93-32.67,31.21-71.55,34.11-111.63,20.3-39.46-13.6-59.09-45-62.59-85.45-2.35-27.21-1.46-54.72-1.66-82.1-.23-30.48.16-61-.2-91.44-.08-7.46,0-9.42,0-9.42h41.39s0,2.17-.08,9.06c-.25,46.14-.37,92.28,0,138.42.11,12.49.64,25.37,3.68,37.39,10.6,41.91,43.83,56.49,82.13,50.89,42.77-6.25,66.85-37.43,67.12-84.56q.4-70-.12-140.1c-.07-8.32,0-11.21,0-11.21h43a75.91,75.91,0,0,1,0,8.61c-.29,6.14,0,12.3,0,18.45q0,115.77,0,231.54v11.8l-40.79,0v-7.78S1140.05,397.36,1140.05,384.23Z"/><path class="cls-2" d="M1681.74,386.24c0,12.38.24,22.6-.23,32.79-.08,1.76-2.82,4.1-4.85,5-28.85,12.56-58,13.87-86.64,0-20.09-9.75-29.43-27.7-31.93-49.09-1.46-12.44-1.57-25.07-1.62-37.62-.18-42.76-.06-85.53-.07-128.29,0-12.19,0-12.19-12.59-12.22l-24.35-.06-.19-7,0-29.81,6.49,0,30.61.1.06-7.33-.18-73.37h41.1l.1,7.45-.26,62.88.16,10.48,85.61-.32,0,8.65v28.36s-2.07.09-8.13,0c-22.36-.18-77.43,0-77.43,0l-.05,10.35s0,91,.14,136.56a137.22,137.22,0,0,0,1.77,20.82c2.82,17.83,15.72,29,34.82,30.35C1649.84,396,1665.35,395,1681.74,386.24Z"/><path class="cls-1" d="M2964.33,388.88c0,9.45-.19,31.86-.19,31.86a22.55,22.55,0,0,1-4.13,2.49c-31.31,12.94-62.63,14.8-92.32-3.79-18.28-11.44-25.33-30.34-25.84-51.05-1-39.1-.94-78.23-1.25-117.34-.11-15.1.1-45.28.1-45.28l0-10.16-9.85,0-27.32,0-.07-6.79V160.39l7.27,0s11.18,0,16.77,0c13.07,0,13.1,0,13.1,0s0-50.18,0-68.9l-.12-11.83,29.07-.1h11.1l.11,71v9.78s6,.07,9.85,0h62.73l12.53.12s.06,6.39.07,12.88c0,3.36,0,6.71,0,10.06,0,6,0,12.17,0,12.17h-11.79c-21.24,0-73.4,0-73.4,0v9.85c.3,46.39,0,139.17,0,139.17s.22,14.3,1.36,21.16c2.25,13.52,10.13,22.61,23.36,27,16.56,5.46,33,4.3,49.39-1,2.12-.68,4.2-1.5,6.33-2.17C2961.66,389.47,2964.33,388.88,2964.33,388.88Z"/><path class="cls-1" d="M2744.53,239.28c0,59.24,0,177.72,0,177.72l0,11.32h-39.95l.08-7.11,0-5.87s0-234.72,0-352.08V49.84l39.89-.06.07,8.43s-.09,52-.09,78Z"/></g></g></svg>