<svg id="Layer_1" xmlns="http://www.w3.org/2000/svg" viewBox="0 0 200 70.4"><style>.st0{fill:#464547;} .st1{fill:#39C2D7;}</style><path class="st0" d="M37.7 31.4v12.9c0 3.3 1.6 4.9 4.9 4.9H44c3.3 0 4.9-1.6 4.9-4.9V38h7.6v6c0 8.3-4.2 12.5-12.5 12.5h-1.6C34.2 56.5 30 52.3 30 45V13.5C30 4.2 34.2 0 42.5 0h1.6c8.3 0 12.5 4.2 12.5 12.5v18.9H37.7zm.1-7.5h11.1V12.2c0-3.3-1.6-4.9-4.9-4.9h-1.2c-3.3 0-4.9 1.6-4.9 4.9v11.7zM61.7.6h7.8v3.6C71.3 2.3 74.5 0 79 0c6.7 0 9.9 4.4 9.9 11v34.6c0 6.6-3.3 11-9.9 11-4.5 0-7.7-2.2-9.5-4v17.8h-7.8V.6zm7.7 45.7c2.2 1.8 4.6 2.9 7.2 2.9 2.9 0 4.5-1.3 4.5-4.5V11.9c0-3.2-1.6-4.5-4.5-4.5-2.6 0-5 1-7.2 2.9v36zM93.6 36.7c0-6.9 2.3-9.6 8.2-11.7l10.4-3.6v-9.2c0-3.3-1.6-5-4.9-5H106c-3.3 0-4.9 1.7-4.9 5V20h-7.6v-7.5C93.6 4.2 97.8 0 106 0h1.5c8.3 0 12.5 4.2 12.5 12.5v43.4h-7.8v-3.5c-2.2 2-5 4.1-9.5 4.1-6.2 0-9.1-3.6-9.1-9.7V36.7zm18.6 9.9V28.4l-7.1 2.7c-2.9 1.1-3.8 2.6-3.8 5.7v8.4c0 2.7 1.3 4 3.8 4 2.4 0 4.6-.9 7.1-2.6zM151.5 55.9h-7.8V11.4c0-2.8-1.3-4-3.7-4-2.2 0-4.4.8-7.2 2.8V56H125V.6h7.8v3.6C135.1 2 138 0 142.3 0c4 0 6.7 1.6 8.1 4.5 2.8-2.4 6-4.5 10.5-4.5 6 0 9.1 3.7 9.1 9.7v46.2h-7.8V11.4c0-2.8-1.3-4-3.7-4-2.2 0-4.4.8-7.2 2.8v45.7z"/><path class="st1" d="M20 5.7v10.2L6.9 28.4 20 40.6V51L0 32.2v-7.5l20-19zM200 24.7v7.5L180 51V40.6l13.1-12.3L180 15.9V5.7l20 19z"/></svg>