<svg id="Слой_1" xmlns="http://www.w3.org/2000/svg" viewBox="0 0 200 275.1"><style>.st0{fill:#9D9D9C;}</style><path class="st0" d="M0 0v220h200V0H0zm179.9 200.1h-20V40h-20v160.1h-20V40h-20v160.1h-20V40H40.1v60.1H60V120H40.1v80.1H20V20h159.9v180.1zM109.2 240.4h-9.1v34h9.5c9.3 0 11.5-8.4 11.5-17 0-9.4-1.3-17-11.9-17zm-.5 30.6h-4.4v-27.2h4.4c7.6 0 8.1 7.1 8.1 13.6-.1 6.1-.9 13.6-8.1 13.6zM88.8 268.8h-.1l-11.3-28.4H72v34h4.2v-27.5h.1l10.9 27.5H93v-34h-4.2zM53.7 240.4l-9.8 34h4.4l2.5-9.3h10.8l2.4 9.3h4.4l-9.1-34h-5.6zm-2.1 21.2l4.7-16.4h.1l4.3 16.4h-9.1zM134 240.4l-9.8 34h4.4l2.5-9.3H142l2.4 9.3h4.4l-9.1-34H134zm-2 21.2l4.7-16.4h.1l4.3 16.4H132zM45.3 240.4H24v3.7h8.5v30.3h4.2v-30.3h8.6zM171.6 263.2c-.2-2.9-1.8-5.3-4.8-5.7v-.1c4-1 5.2-4.9 5.2-8.6 0-5.4-3.4-8.5-8.7-8.5h-11v34h4.2v-15.1h5.7c2.2 0 4.7.3 5 5l.3 5.3c.1 1.7.4 4.2 1.1 4.9h5.1c-1-.6-1.6-1.6-1.8-5.3l-.3-5.9zm-10.9-7.4h-4.2v-12h5c3.9 0 6.1 2.1 6.1 5.4.1 6.6-4.4 6.6-6.9 6.6zM4.9 248.7c0-3.6 2.1-5.5 5.6-5.5 4 0 5.3 2.5 5.3 6H20c-.1-6.2-3-9.5-9.5-9.5-8.6 0-9.9 6.2-9.9 9.4 0 12.5 16.1 6.9 16.1 16.5 0 3.6-2.6 6-5.9 6-6.1 0-6.4-4.1-6.4-7.9H.1c0 7.2 2.3 11.3 10.3 11.3 4.8 0 10.5-2.2 10.5-10.1 0-12.4-16-6.7-16-16.2zM187.8 240.4h-9.1v34h9.5c9.3 0 11.5-8.4 11.5-17 0-9.4-1.3-17-11.9-17zm-.5 30.6h-4.4v-27.2h4.4c7.6 0 8 7.1 8 13.6 0 6.1-.8 13.6-8 13.6z"/></svg>