<?xml version="1.0" encoding="utf-8"?>
<!-- Generator: Adobe Illustrator 22.0.0, SVG Export Plug-In . SVG Version: 6.00 Build 0)  -->
<svg version="1.1" id="Layer_4" xmlns="http://www.w3.org/2000/svg" xmlns:xlink="http://www.w3.org/1999/xlink" x="0px" y="0px"
	 viewBox="0 0 1089.3 200" style="enable-background:new 0 0 1089.3 200;" xml:space="preserve">
<style type="text/css">
	.st0{fill:#767676;}
	.st1{font-family:'ProductSans-Regular';}
	.st2{font-size:162.8933px;}
	.st3{fill-rule:evenodd;clip-rule:evenodd;fill:#C63A2A;}
	.st4{fill-rule:evenodd;clip-rule:evenodd;fill:#5F75B3;}
	.st5{fill-rule:evenodd;clip-rule:evenodd;fill:#E9B92B;}
	.st6{fill-rule:evenodd;clip-rule:evenodd;fill:#579956;}
</style>
<text transform="matrix(1 0 0 1 347.6001 159.0749)" class="st0 st1 st2">GDG CDE</text>
<g>
	<path class="st3" d="M139.1,69.8l-91.7,53c-12.4,7.2-28.4,2.9-35.6-9.5l0,0c-7.2-12.4-2.9-28.4,9.5-35.6l91.7-53
		c12.4-7.2,28.4-2.9,35.6,9.5l0,0C155.8,46.6,151.5,62.6,139.1,69.8z"/>
	<path class="st4" d="M113.2,175.4l-91.9-52.6c-12.4-7.1-16.8-23.1-9.7-35.6l0,0c7.1-12.4,23.1-16.8,35.6-9.7l91.9,52.6
		c12.4,7.1,16.8,23.1,9.7,35.6l0,0C141.6,178.1,125.6,182.5,113.2,175.4z"/>
</g>
<g>
	<path class="st5" d="M204.2,130.2l91.7-53c12.4-7.2,28.4-2.9,35.6,9.5l0,0c7.2,12.4,2.9,28.4-9.5,35.6l-91.7,53
		c-12.4,7.2-28.4,2.9-35.6-9.5l0,0C187.5,153.4,191.8,137.4,204.2,130.2z"/>
	<path class="st6" d="M230.1,24.6L322,77.2c12.4,7.1,16.8,23.1,9.7,35.6l0,0c-7.1,12.4-23.1,16.8-35.6,9.7l-91.9-52.6
		c-12.4-7.1-16.8-23.1-9.7-35.6l0,0C201.7,21.9,217.7,17.5,230.1,24.6z"/>
</g>
</svg>
