<?xml version="1.0" encoding="utf-8"?>
<!-- Generator: Adobe Illustrator 20.0.0, SVG Export Plug-In . SVG Version: 6.00 Build 0)  -->
<svg version="1.1" id="Layer_4" xmlns="http://www.w3.org/2000/svg" xmlns:xlink="http://www.w3.org/1999/xlink" x="0px" y="0px"
	 viewBox="0 0 946.7 156.7" style="enable-background:new 0 0 946.7 156.7;" xml:space="preserve">
<style type="text/css">
	.st0{fill:none;}
	.st1{fill:#FFC107;}
	.st2{fill:#0F9D58;}
	.st3{opacity:0.2;fill:#BF360C;enable-background:new    ;}
	.st4{opacity:0.2;fill:#263238;enable-background:new    ;}
	.st5{opacity:0.2;fill:#FFFFFF;enable-background:new    ;}
	.st6{fill:url(#XMLID_2_);}
	.st7{fill:url(#XMLID_3_);}
	.st8{fill:#4285F4;}
	.st9{fill:#DB4437;}
	.st10{opacity:0.2;fill:#1A237E;enable-background:new    ;}
	.st11{opacity:0.2;fill:#3E2723;enable-background:new    ;}
	.st12{fill:url(#XMLID_4_);}
	.st13{fill:#767676;}
</style>
<g id="XMLID_50_">
	<g id="XMLID_72_">
		<path id="XMLID_7_" class="st0" d="M78.4,65.8l-33.5-58H0l37,64l-37,64h44.8l33.5-58C80.5,74.1,80.5,69.5,78.4,65.8z"/>
		<polygon id="XMLID_80_" class="st1" points="59.2,110.1 48.5,91.7 23,135.8 44.8,135.8 59.4,110.6 		"/>
		<path id="XMLID_8_" class="st0" d="M78.4,65.8l-33.5-58H0l37,64l-37,64h44.8l33.5-58C80.5,74.1,80.5,69.5,78.4,65.8z"/>
		<polygon class="st2" points="37,71.8 48.5,91.7 23,135.8 0,135.8 		"/>
		<path id="XMLID_9_" class="st0" d="M78.4,65.8l-33.5-58H0l37,64l-37,64h44.8l33.5-58C80.5,74.1,80.5,69.5,78.4,65.8z"/>
		<polygon class="st3" points="44.8,134.8 23.6,134.8 23,135.8 44.8,135.8 59.4,110.6 59.2,110.1 		"/>
		<path id="XMLID_10_" class="st0" d="M78.4,65.8l-33.5-58H0l37,64l-37,64h44.8l33.5-58C80.5,74.1,80.5,69.5,78.4,65.8z"/>
		<polygon class="st4" points="0.6,134.8 0,135.8 23,135.8 23.6,134.8 		"/>
		<path id="XMLID_11_" class="st0" d="M78.4,65.8l-33.5-58H0l37,64l-37,64h44.8l33.5-58C80.5,74.1,80.5,69.5,78.4,65.8z"/>
		<polygon class="st5" points="0,135.8 0.6,135.8 37.3,72.3 37,71.8 		"/>
		<path id="XMLID_12_" class="st0" d="M78.4,65.8l-33.5-58H0l37,64l-37,64h44.8l33.5-58C80.5,74.1,80.5,69.5,78.4,65.8z"/>
		
			<radialGradient id="XMLID_2_" cx="59.2766" cy="32.8672" r="44.2635" gradientTransform="matrix(1 0 0 -1 0 143.0225)" gradientUnits="userSpaceOnUse">
			<stop  offset="0" style="stop-color:#BF360C;stop-opacity:0.2"/>
			<stop  offset="1" style="stop-color:#BF360C;stop-opacity:2.000000e-02"/>
		</radialGradient>
		<polygon id="XMLID_79_" class="st6" points="59.4,110.6 59.4,110.6 48.5,91.7 45.8,96.3 		"/>
		<path id="XMLID_13_" class="st0" d="M78.4,65.8l-33.5-58H0l37,64l-37,64h44.8l33.5-58C80.5,74.1,80.5,69.5,78.4,65.8z"/>
		
			<radialGradient id="XMLID_3_" cx="59.1509" cy="32.5873" r="44.6228" gradientTransform="matrix(1 0 0 -1 0 143.0225)" gradientUnits="userSpaceOnUse">
			<stop  offset="0" style="stop-color:#263238;stop-opacity:0.2"/>
			<stop  offset="1" style="stop-color:#263238;stop-opacity:2.000000e-02"/>
		</radialGradient>
		<polygon id="XMLID_78_" class="st7" points="45.8,96.3 48.5,91.7 37,71.8 31.5,81.3 		"/>
		<path id="XMLID_14_" class="st0" d="M78.4,65.8l-33.5-58H0l37,64l-37,64h44.8l33.5-58C80.5,74.1,80.5,69.5,78.4,65.8z"/>
		<g id="XMLID_75_">
			<g id="XMLID_76_">
				<polygon id="XMLID_77_" class="st8" points="23,7.8 0,7.8 59.4,110.6 70.9,90.7 70.9,90.7 				"/>
			</g>
		</g>
		<path id="XMLID_15_" class="st0" d="M78.4,65.8l-33.5-58H0l37,64l-37,64h44.8l33.5-58C80.5,74.1,80.5,69.5,78.4,65.8z"/>
		<path class="st9" d="M78.4,77.8c2.1-3.7,2.1-8.3,0-12l-33.5-58H23l47.9,82.9L78.4,77.8z"/>
		<path id="XMLID_16_" class="st0" d="M78.4,65.8l-33.5-58H0l37,64l-37,64h44.8l33.5-58C80.5,74.1,80.5,69.5,78.4,65.8z"/>
		<polygon class="st10" points="70.9,90.7 70.7,90.2 59.4,109.6 0.6,7.8 0,7.8 59.4,110.6 70.9,90.7 		"/>
		<path id="XMLID_17_" class="st0" d="M78.4,65.8l-33.5-58H0l37,64l-37,64h44.8l33.5-58C80.5,74.1,80.5,69.5,78.4,65.8z"/>
		<path class="st5" d="M44.8,8.8l33.5,58c1,1.7,1.5,3.6,1.6,5.5c0.1-2.2-0.4-4.5-1.6-6.5l-33.5-58H0l0.6,1H44.8z"/>
		<path id="XMLID_18_" class="st0" d="M78.4,65.8l-33.5-58H0l37,64l-37,64h44.8l33.5-58C80.5,74.1,80.5,69.5,78.4,65.8z"/>
		<path id="XMLID_74_" class="st11" d="M70.9,90.7l7.4-12.9c1.2-2,1.7-4.3,1.6-6.5c-0.1,1.9-0.6,3.8-1.6,5.5l-7.7,13.4L70.9,90.7z"
			/>
		<path id="XMLID_19_" class="st0" d="M78.4,65.8l-33.5-58H0l37,64l-37,64h44.8l33.5-58C80.5,74.1,80.5,69.5,78.4,65.8z"/>
		
			<radialGradient id="XMLID_4_" cx="-1" cy="134.2412" r="134.3503" gradientTransform="matrix(1 0 0 -1 0 143.0225)" gradientUnits="userSpaceOnUse">
			<stop  offset="0" style="stop-color:#FFFFFF;stop-opacity:0.1"/>
			<stop  offset="1" style="stop-color:#FFFFFF;stop-opacity:0"/>
		</radialGradient>
		<path id="XMLID_73_" class="st12" d="M78.4,65.8l-33.5-58H0l37,64l-37,64h44.8l33.5-58C80.5,74.1,80.5,69.5,78.4,65.8z"/>
	</g>
</g>
<g id="XMLID_6_">
	<path class="st13" d="M230.3,74.6c0,14.1-4.2,25.3-12.5,33.7c-9.5,10-21.9,14.9-37.1,14.9c-14.6,0-27-5.1-37.2-15.2
		c-10.2-10.1-15.3-22.6-15.3-37.6s5.1-27.5,15.3-37.6c10.2-10.1,22.6-15.2,37.2-15.2c7.2,0,14.1,1.4,20.7,4.2
		c6.6,2.8,11.8,6.6,15.8,11.3l-8.9,8.9c-6.7-8-15.9-12-27.6-12c-10.6,0-19.8,3.7-27.6,11.2c-7.8,7.5-11.6,17.2-11.6,29.1
		c0,11.9,3.9,21.6,11.6,29.1s16.9,11.2,27.6,11.2c11.3,0,20.7-3.8,28.2-11.3c4.9-4.9,7.7-11.7,8.5-20.4h-36.7V67h48.9
		C230.1,69.6,230.3,72.1,230.3,74.6z"/>
	<path class="st13" d="M243.4,121V20h30.9c15.5,0,27.9,4.7,37.2,14c9.3,9.4,14,21.5,14,36.4s-4.7,27.1-14,36.4
		c-9.3,9.4-21.7,14-37.2,14H243.4z M256.4,108.6h17.9c11.7,0,20.9-3.3,27.7-10c6.8-6.7,10.2-16,10.2-28.1c0-11.9-3.4-21.3-10.2-28
		c-6.8-6.7-16.1-10.1-27.7-10.1h-17.9V108.6z"/>
	<path class="st13" d="M435.8,74.6c0,14.1-4.2,25.3-12.5,33.7c-9.5,10-21.9,14.9-37.1,14.9c-14.6,0-27-5.1-37.2-15.2
		c-10.2-10.1-15.3-22.6-15.3-37.6S338.8,43,349,32.9c10.2-10.1,22.6-15.2,37.2-15.2c7.2,0,14.1,1.4,20.7,4.2
		c6.6,2.8,11.8,6.6,15.8,11.3l-8.9,8.9c-6.7-8-15.9-12-27.6-12c-10.6,0-19.8,3.7-27.6,11.2c-7.8,7.5-11.6,17.2-11.6,29.1
		c0,11.9,3.9,21.6,11.6,29.1s16.9,11.2,27.6,11.2c11.3,0,20.7-3.8,28.2-11.3c4.9-4.9,7.7-11.7,8.5-20.4h-36.7V67h48.9
		C435.6,69.6,435.8,72.1,435.8,74.6z"/>
	<path class="st13" d="M483.2,121V20H499L548,98.6h0.6L548,79.1V20h13v101h-13.5l-51.3-82.3h-0.6l0.6,19.5V121H483.2z"/>
	<path class="st13" d="M583.4,60.1c6.7-7,15.2-10.5,25.5-10.5c10.3,0,18.8,3.5,25.5,10.5c6.7,7,10,15.8,10,26.3
		c0,10.5-3.3,19.3-10,26.3c-6.7,7-15.2,10.5-25.5,10.5c-10.3,0-18.8-3.5-25.5-10.5c-6.7-7-10-15.8-10-26.3
		C573.4,75.9,576.8,67.1,583.4,60.1z M593.1,104.6c4.5,4.6,9.8,6.8,15.9,6.8c6.1,0,11.4-2.3,15.9-6.8c4.5-4.6,6.7-10.6,6.7-18.1
		c0-7.5-2.2-13.6-6.7-18.1c-4.5-4.6-9.8-6.8-15.9-6.8c-6.1,0-11.4,2.3-15.9,6.8c-4.5,4.6-6.7,10.6-6.7,18.1
		C586.4,94,588.6,100,593.1,104.6z"/>
	<path class="st13" d="M671.7,121l-27.9-69.1h14.1l20.3,53.6h0.3l20.6-53.6h13.8L684.7,121H671.7z"/>
	<path class="st13" d="M732.7,34.5c-1.8,1.8-3.9,2.7-6.5,2.7s-4.7-0.9-6.5-2.7c-1.8-1.8-2.7-3.9-2.7-6.5s0.9-4.7,2.7-6.5
		c1.8-1.8,3.9-2.7,6.5-2.7s4.7,0.9,6.5,2.7c1.8,1.8,2.7,3.9,2.7,6.5S734.4,32.8,732.7,34.5z M732.7,121h-13V51.9h13V121z"/>
	<path class="st13" d="M811.9,123.2c-7.3,0-14.5-2.4-21.5-7.2c-7-4.8-11.6-11.5-13.7-20.2l11.8-4.8c1.4,5.5,4.3,10.2,8.7,14
		s9.3,5.7,14.7,5.7c5.6,0,10.5-1.5,14.5-4.4c4-3,6-7,6-12.1c0-5.6-2-10-6-13c-4-3.1-10.3-5.9-19-8.5c-8.9-2.8-15.7-6.5-20.3-10.9
		c-4.6-4.5-6.9-10.2-6.9-17.1c0-7.2,2.9-13.5,8.6-18.9c5.7-5.4,13.2-8,22.4-8c8.6,0,15.5,2.1,20.9,6.4c5.4,4.3,8.8,9,10.4,14
		l-11.8,4.9c-0.8-3.2-2.9-6.2-6.3-8.9c-3.3-2.7-7.6-4.1-12.9-4.1c-5,0-9.2,1.4-12.8,4.2c-3.5,2.8-5.3,6.2-5.3,10.4
		c0,3.8,1.6,6.9,4.9,9.5c3.2,2.6,8,4.9,14.3,7c5,1.6,9.1,3.2,12.5,4.7c3.3,1.5,6.7,3.5,10.2,6c3.4,2.5,6,5.6,7.8,9.3
		c1.7,3.7,2.6,8,2.6,12.9c0,4.9-1,9.3-3,13.1c-2,3.9-4.7,6.9-8,9.2c-3.3,2.3-6.9,4-10.8,5.1C819.9,122.6,815.9,123.2,811.9,123.2z"
		/>
	<path class="st13" d="M878.6,123.2c-7.3,0-13.5-2.1-18.4-6.3c-4.9-4.2-7.4-9.8-7.4-16.8c0-7.5,2.9-13.4,8.7-17.7
		c5.8-4.3,13-6.4,21.6-6.4c7.6,0,13.9,1.4,18.8,4.2v-2c0-5.1-1.7-9.1-5.2-12.2c-3.5-3.1-7.8-4.6-12.8-4.6c-3.8,0-7.2,0.9-10.2,2.7
		c-3.1,1.8-5.1,4.2-6.3,7.3l-11.8-5.1c1.6-4.1,4.7-8,9.4-11.5c4.7-3.5,10.9-5.3,18.6-5.3c8.8,0,16.2,2.6,22,7.8
		c5.8,5.2,8.7,12.5,8.7,21.9V121h-12.4v-9.6h-0.6C896.2,119.3,888.6,123.2,878.6,123.2z M880.8,111.4c5.4,0,10.2-2,14.6-6
		c4.4-4,6.6-8.7,6.6-14.2c-3.7-3-9.2-4.5-16.5-4.5c-6.3,0-11,1.4-14.2,4.1c-3.2,2.7-4.8,5.9-4.8,9.6c0,3.4,1.5,6.1,4.4,8
		C873.7,110.4,877,111.4,880.8,111.4z"/>
	<path class="st13" d="M956,123.2c-8.9,0-16.6-3.5-23.1-10.6c-6.5-7.1-9.7-15.8-9.7-26.2c0-10.4,3.2-19.2,9.7-26.2
		c6.5-7,14.2-10.6,23.1-10.6c5.3,0,10,1.1,14.2,3.4c4.2,2.3,7.3,5.1,9.4,8.5h0.6l-0.6-9.6V20h13v101h-12.4v-9.6h-0.6
		c-2.1,3.4-5.2,6.2-9.4,8.5C966,122.1,961.3,123.2,956,123.2z M958.1,111.4c6.1,0,11.3-2.3,15.6-6.8c4.3-4.5,6.4-10.6,6.4-18.2
		s-2.1-13.7-6.4-18.2c-4.3-4.5-9.5-6.8-15.6-6.8c-6,0-11.2,2.3-15.5,6.8c-4.3,4.6-6.5,10.6-6.5,18.1c0,7.5,2.2,13.6,6.5,18.1
		C946.9,109.1,952.1,111.4,958.1,111.4z"/>
</g>
</svg>
