<?xml version="1.0" encoding="utf-8"?>
<!-- Generator: Adobe Illustrator 19.1.0, SVG Export Plug-In . SVG Version: 6.00 Build 0)  -->
<svg version="1.1" id="Layer_4" xmlns="http://www.w3.org/2000/svg" xmlns:xlink="http://www.w3.org/1999/xlink" x="0px" y="0px"
	 viewBox="-454 151 1089.3 200" style="enable-background:new -454 151 1089.3 200;" xml:space="preserve">
<style type="text/css">
	.st0{fill:none;}
	.st1{fill:#FFC107;}
	.st2{fill:#0F9D58;}
	.st3{opacity:0.2;fill:#BF360C;enable-background:new    ;}
	.st4{opacity:0.2;fill:#263238;enable-background:new    ;}
	.st5{opacity:0.2;fill:#FFFFFF;enable-background:new    ;}
	.st6{fill:url(#XMLID_4_);}
	.st7{fill:url(#XMLID_5_);}
	.st8{fill:#4285F4;}
	.st9{fill:#DB4437;}
	.st10{opacity:0.2;fill:#1A237E;enable-background:new    ;}
	.st11{opacity:0.2;fill:#3E2723;enable-background:new    ;}
	.st12{fill:url(#XMLID_6_);}
	.st13{fill:#757575;}
	.st14{font-family:'ProductSans-Regular';}
	.st15{font-size:150px;}
</style>
<g id="XMLID_1_">
	<g id="XMLID_50_">
		<g id="XMLID_72_">
			<path id="XMLID_7_" class="st0" d="M-331.5,241.6l-52.4-90.6H-454l57.8,100L-454,351h70.1l52.4-90.6
				C-328.2,254.6-328.2,247.4-331.5,241.6z"/>
			<path id="XMLID_80_" class="st1" d="M-361.6,310.8l-16.6-28.7l-39.9,68.9h34.2l22.8-39.4L-361.6,310.8z"/>
			<path id="XMLID_8_" class="st0" d="M-331.5,241.6l-52.4-90.6H-454l57.8,100L-454,351h70.1l52.4-90.6
				C-328.2,254.6-328.2,247.4-331.5,241.6z"/>
			<path id="XMLID_39_" class="st2" d="M-396.2,251l18,31.1l-39.9,68.9H-454L-396.2,251z"/>
			<path id="XMLID_9_" class="st0" d="M-331.5,241.6l-52.4-90.6H-454l57.8,100L-454,351h70.1l52.4-90.6
				C-328.2,254.6-328.2,247.4-331.5,241.6z"/>
			<path id="XMLID_38_" class="st3" d="M-383.9,349.4h-33.3l-0.9,1.6h34.2l22.8-39.4l-0.5-0.8L-383.9,349.4z"/>
			<path id="XMLID_10_" class="st0" d="M-331.5,241.6l-52.4-90.6H-454l57.8,100L-454,351h70.1l52.4-90.6
				C-328.2,254.6-328.2,247.4-331.5,241.6z"/>
			<path id="XMLID_37_" class="st4" d="M-453.1,349.4l-0.9,1.6h35.9l0.9-1.6H-453.1z"/>
			<path id="XMLID_11_" class="st0" d="M-331.5,241.6l-52.4-90.6H-454l57.8,100L-454,351h70.1l52.4-90.6
				C-328.2,254.6-328.2,247.4-331.5,241.6z"/>
			<path id="XMLID_36_" class="st5" d="M-454,351h0.9l57.4-99.2l-0.5-0.8L-454,351z"/>
			<path id="XMLID_12_" class="st0" d="M-331.5,241.6l-52.4-90.6H-454l57.8,100L-454,351h70.1l52.4-90.6
				C-328.2,254.6-328.2,247.4-331.5,241.6z"/>
			
				<radialGradient id="XMLID_4_" cx="-362.093" cy="536.274" r="44.264" gradientTransform="matrix(1.5625 0 0 1.5625 204.39 -526.969)" gradientUnits="userSpaceOnUse">
				<stop  offset="0" style="stop-color:#BF360C;stop-opacity:0.2"/>
				<stop  offset="1" style="stop-color:#BF360C;stop-opacity:2.000000e-02"/>
			</radialGradient>
			<path id="XMLID_79_" class="st6" d="M-361.1,311.6l-17.1-29.5l-4.2,7.2L-361.1,311.6z"/>
			<path id="XMLID_13_" class="st0" d="M-331.5,241.6l-52.4-90.6H-454l57.8,100L-454,351h70.1l52.4-90.6
				C-328.2,254.6-328.2,247.4-331.5,241.6z"/>
			
				<radialGradient id="XMLID_5_" cx="-362.218" cy="536.554" r="44.623" gradientTransform="matrix(1.5625 0 0 1.5625 204.39 -526.969)" gradientUnits="userSpaceOnUse">
				<stop  offset="0" style="stop-color:#263238;stop-opacity:0.2"/>
				<stop  offset="1" style="stop-color:#263238;stop-opacity:2.000000e-02"/>
			</radialGradient>
			<path id="XMLID_78_" class="st7" d="M-382.4,289.3l4.2-7.2l-18-31.1l-8.5,14.8L-382.4,289.3z"/>
			<path id="XMLID_14_" class="st0" d="M-331.5,241.6l-52.4-90.6H-454l57.8,100L-454,351h70.1l52.4-90.6
				C-328.2,254.6-328.2,247.4-331.5,241.6z"/>
			<g id="XMLID_75_">
				<g id="XMLID_76_">
					<path id="XMLID_77_" class="st8" d="M-418.1,151H-454l92.9,160.6l17.9-31.1L-418.1,151z"/>
				</g>
			</g>
			<path id="XMLID_15_" class="st0" d="M-331.5,241.6l-52.4-90.6H-454l57.8,100L-454,351h70.1l52.4-90.6
				C-328.2,254.6-328.2,247.4-331.5,241.6z"/>
			<path id="XMLID_35_" class="st9" d="M-331.5,260.4c3.4-5.8,3.4-13,0-18.8l-52.4-90.6h-34.2l74.9,129.5L-331.5,260.4z"/>
			<path id="XMLID_16_" class="st0" d="M-331.5,241.6l-52.4-90.6H-454l57.8,100L-454,351h70.1l52.4-90.6
				C-328.2,254.6-328.2,247.4-331.5,241.6z"/>
			<path id="XMLID_34_" class="st10" d="M-343.2,280.5l-0.4-0.8l-17.5,30.3l-92-159h-0.9l92.9,160.6L-343.2,280.5z"/>
			<path id="XMLID_17_" class="st0" d="M-331.5,241.6l-52.4-90.6H-454l57.8,100L-454,351h70.1l52.4-90.6
				C-328.2,254.6-328.2,247.4-331.5,241.6z"/>
			<path id="XMLID_2_" class="st5" d="M-383.9,152.6l52.4,90.6c1.5,2.7,2.3,5.6,2.5,8.6c0.1-3.5-0.7-7-2.5-10.2l-52.4-90.6H-454
				l0.9,1.6H-383.9z"/>
			<path id="XMLID_18_" class="st0" d="M-331.5,241.6l-52.4-90.6H-454l57.8,100L-454,351h70.1l52.4-90.6
				C-328.2,254.6-328.2,247.4-331.5,241.6z"/>
			<path id="XMLID_74_" class="st11" d="M-343.2,280.5l11.6-20.1c1.8-3.1,2.6-6.7,2.5-10.2c-0.1,3-0.9,5.9-2.5,8.6l-12.1,20.9
				L-343.2,280.5z"/>
			<path id="XMLID_19_" class="st0" d="M-331.5,241.6l-52.4-90.6H-454l57.8,100L-454,351h70.1l52.4-90.6
				C-328.2,254.6-328.2,247.4-331.5,241.6z"/>
			
				<radialGradient id="XMLID_6_" cx="-422.369" cy="434.9" r="134.35" gradientTransform="matrix(1.5625 0 0 1.5625 204.39 -526.969)" gradientUnits="userSpaceOnUse">
				<stop  offset="0" style="stop-color:#FFFFFF;stop-opacity:0.1"/>
				<stop  offset="1" style="stop-color:#FFFFFF;stop-opacity:0"/>
			</radialGradient>
			<path id="XMLID_73_" class="st12" d="M-331.5,241.6l-52.4-90.6H-454l57.8,100L-454,351h70.1l52.4-90.6
				C-328.2,254.6-328.2,247.4-331.5,241.6z"/>
		</g>
	</g>
</g>
<text transform="matrix(1 0 0 1 -276 306.8)" class="st13 st14 st15">GDG Nantes</text>
</svg>
