<?xml version="1.0" encoding="utf-8"?>
<!-- Generator: Adobe Illustrator 20.0.0, SVG Export Plug-In . SVG Version: 6.00 Build 0)  -->
<svg version="1.1" id="Layer_4" xmlns="http://www.w3.org/2000/svg" xmlns:xlink="http://www.w3.org/1999/xlink" x="0px" y="0px"
	 viewBox="0 0 714.2 143.7" style="enable-background:new 0 0 714.2 143.7;" xml:space="preserve">
<style type="text/css">
	.st0{fill:none;}
	.st1{fill:#FFC107;}
	.st2{fill:#0F9D58;}
	.st3{opacity:0.2;fill:#BF360C;enable-background:new    ;}
	.st4{opacity:0.2;fill:#263238;enable-background:new    ;}
	.st5{opacity:0.2;fill:#FFFFFF;enable-background:new    ;}
	.st6{fill:url(#XMLID_2_);}
	.st7{fill:url(#XMLID_3_);}
	.st8{fill:#4285F4;}
	.st9{fill:#DB4437;}
	.st10{opacity:0.2;fill:#1A237E;enable-background:new    ;}
	.st11{opacity:0.2;fill:#3E2723;enable-background:new    ;}
	.st12{fill:url(#XMLID_4_);}
	.st13{fill:#767676;}
</style>
<g id="XMLID_50_">
	<g id="XMLID_72_">
		<path id="XMLID_7_" class="st0" d="M78.4,58L44.8,0H0l37,64L0,128h44.8l33.5-58C80.5,66.3,80.5,61.7,78.4,58z"/>
		<polygon id="XMLID_80_" class="st1" points="59.2,102.3 48.5,83.9 23,128 44.8,128 59.4,102.8 		"/>
		<path id="XMLID_8_" class="st0" d="M78.4,58L44.8,0H0l37,64L0,128h44.8l33.5-58C80.5,66.3,80.5,61.7,78.4,58z"/>
		<polygon class="st2" points="37,64 48.5,83.9 23,128 0,128 		"/>
		<path id="XMLID_9_" class="st0" d="M78.4,58L44.8,0H0l37,64L0,128h44.8l33.5-58C80.5,66.3,80.5,61.7,78.4,58z"/>
		<polygon class="st3" points="44.8,127 23.6,127 23,128 44.8,128 59.4,102.8 59.2,102.3 		"/>
		<path id="XMLID_10_" class="st0" d="M78.4,58L44.8,0H0l37,64L0,128h44.8l33.5-58C80.5,66.3,80.5,61.7,78.4,58z"/>
		<polygon class="st4" points="0.6,127 0,128 23,128 23.6,127 		"/>
		<path id="XMLID_11_" class="st0" d="M78.4,58L44.8,0H0l37,64L0,128h44.8l33.5-58C80.5,66.3,80.5,61.7,78.4,58z"/>
		<polygon class="st5" points="0,128 0.6,128 37.3,64.5 37,64 		"/>
		<path id="XMLID_12_" class="st0" d="M78.4,58L44.8,0H0l37,64L0,128h44.8l33.5-58C80.5,66.3,80.5,61.7,78.4,58z"/>
		
			<radialGradient id="XMLID_2_" cx="59.2766" cy="25.086" r="44.2635" gradientTransform="matrix(1 0 0 -1 0 127.46)" gradientUnits="userSpaceOnUse">
			<stop  offset="0" style="stop-color:#BF360C;stop-opacity:0.2"/>
			<stop  offset="1" style="stop-color:#BF360C;stop-opacity:2.000000e-02"/>
		</radialGradient>
		<polygon id="XMLID_79_" class="st6" points="59.4,102.8 59.4,102.8 48.5,83.9 45.8,88.5 		"/>
		<path id="XMLID_13_" class="st0" d="M78.4,58L44.8,0H0l37,64L0,128h44.8l33.5-58C80.5,66.3,80.5,61.7,78.4,58z"/>
		
			<radialGradient id="XMLID_3_" cx="59.1509" cy="24.8061" r="44.6228" gradientTransform="matrix(1 0 0 -1 0 127.46)" gradientUnits="userSpaceOnUse">
			<stop  offset="0" style="stop-color:#263238;stop-opacity:0.2"/>
			<stop  offset="1" style="stop-color:#263238;stop-opacity:2.000000e-02"/>
		</radialGradient>
		<polygon id="XMLID_78_" class="st7" points="45.8,88.5 48.5,83.9 37,64 31.5,73.5 		"/>
		<path id="XMLID_14_" class="st0" d="M78.4,58L44.8,0H0l37,64L0,128h44.8l33.5-58C80.5,66.3,80.5,61.7,78.4,58z"/>
		<g id="XMLID_75_">
			<g id="XMLID_76_">
				<polygon id="XMLID_77_" class="st8" points="23,0 0,0 59.4,102.8 70.9,82.9 70.9,82.9 				"/>
			</g>
		</g>
		<path id="XMLID_15_" class="st0" d="M78.4,58L44.8,0H0l37,64L0,128h44.8l33.5-58C80.5,66.3,80.5,61.7,78.4,58z"/>
		<path class="st9" d="M78.4,70c2.1-3.7,2.1-8.3,0-12L44.8,0H23l47.9,82.9L78.4,70z"/>
		<path id="XMLID_16_" class="st0" d="M78.4,58L44.8,0H0l37,64L0,128h44.8l33.5-58C80.5,66.3,80.5,61.7,78.4,58z"/>
		<polygon class="st10" points="70.9,82.9 70.7,82.4 59.4,101.8 0.6,0 0,0 59.4,102.8 70.9,82.9 		"/>
		<path id="XMLID_17_" class="st0" d="M78.4,58L44.8,0H0l37,64L0,128h44.8l33.5-58C80.5,66.3,80.5,61.7,78.4,58z"/>
		<path class="st5" d="M44.8,1l33.5,58c1,1.7,1.5,3.6,1.6,5.5c0.1-2.2-0.4-4.5-1.6-6.5L44.8,0H0l0.6,1H44.8z"/>
		<path id="XMLID_18_" class="st0" d="M78.4,58L44.8,0H0l37,64L0,128h44.8l33.5-58C80.5,66.3,80.5,61.7,78.4,58z"/>
		<path id="XMLID_74_" class="st11" d="M70.9,82.9L78.4,70c1.2-2,1.7-4.3,1.6-6.5c-0.1,1.9-0.6,3.8-1.6,5.5l-7.7,13.4L70.9,82.9z"/>
		<path id="XMLID_19_" class="st0" d="M78.4,58L44.8,0H0l37,64L0,128h44.8l33.5-58C80.5,66.3,80.5,61.7,78.4,58z"/>
		
			<radialGradient id="XMLID_4_" cx="-1" cy="126.46" r="134.3503" gradientTransform="matrix(1 0 0 -1 0 127.46)" gradientUnits="userSpaceOnUse">
			<stop  offset="0" style="stop-color:#FFFFFF;stop-opacity:0.1"/>
			<stop  offset="1" style="stop-color:#FFFFFF;stop-opacity:0"/>
		</radialGradient>
		<path id="XMLID_73_" class="st12" d="M78.4,58L44.8,0H0l37,64L0,128h44.8l33.5-58C80.5,66.3,80.5,61.7,78.4,58z"/>
	</g>
</g>
<g id="XMLID_6_">
	<path class="st13" d="M230.3,66.8c0,14.1-4.2,25.3-12.5,33.7c-9.5,10-21.9,14.9-37.1,14.9c-14.6,0-27-5.1-37.2-15.2
		c-10.2-10.1-15.3-22.6-15.3-37.6s5.1-27.5,15.3-37.6C153.7,15,166.1,10,180.7,10c7.2,0,14.1,1.4,20.7,4.2
		c6.6,2.8,11.8,6.6,15.8,11.3l-8.9,8.9c-6.7-8-15.9-12-27.6-12c-10.6,0-19.8,3.7-27.6,11.2c-7.8,7.5-11.6,17.2-11.6,29.1
		c0,11.9,3.9,21.6,11.6,29.1s16.9,11.2,27.6,11.2c11.3,0,20.7-3.8,28.2-11.3c4.9-4.9,7.7-11.7,8.5-20.4h-36.7V59.2h48.9
		C230.1,61.8,230.3,64.4,230.3,66.8z"/>
	<path class="st13" d="M243.4,113.2v-101h30.9c15.5,0,27.9,4.7,37.2,14c9.3,9.4,14,21.5,14,36.4s-4.7,27.1-14,36.4
		c-9.3,9.4-21.7,14-37.2,14H243.4z M256.4,100.8h17.9c11.7,0,20.9-3.3,27.7-10c6.8-6.7,10.2-16,10.2-28.1c0-11.9-3.4-21.3-10.2-28
		c-6.8-6.7-16.1-10.1-27.7-10.1h-17.9V100.8z"/>
	<path class="st13" d="M435.8,66.8c0,14.1-4.2,25.3-12.5,33.7c-9.5,10-21.9,14.9-37.1,14.9c-14.6,0-27-5.1-37.2-15.2
		c-10.2-10.1-15.3-22.6-15.3-37.6s5.1-27.5,15.3-37.6C359.2,15,371.6,10,386.2,10c7.2,0,14.1,1.4,20.7,4.2
		c6.6,2.8,11.8,6.6,15.8,11.3l-8.9,8.9c-6.7-8-15.9-12-27.6-12c-10.6,0-19.8,3.7-27.6,11.2c-7.8,7.5-11.6,17.2-11.6,29.1
		c0,11.9,3.9,21.6,11.6,29.1s16.9,11.2,27.6,11.2c11.3,0,20.7-3.8,28.2-11.3c4.9-4.9,7.7-11.7,8.5-20.4h-36.7V59.2h48.9
		C435.6,61.8,435.8,64.4,435.8,66.8z"/>
	<path class="st13" d="M557.9,12.2v0.6l-37.5,43.3l40,56.5v0.6h-15.9l-32.9-47.1L496.2,84v29.2h-13v-101h13v52h0.6l44.4-52H557.9z"
		/>
	<path class="st13" d="M575.3,143.7h-13.4l16.1-34.8l-28.5-64.7h14.1l20.6,49.6h0.3l20-49.6h14.1L575.3,143.7z"/>
	<path class="st13" d="M638.4,26.8c-1.8,1.8-3.9,2.7-6.5,2.7s-4.7-0.9-6.5-2.7c-1.8-1.8-2.7-3.9-2.7-6.5s0.9-4.7,2.7-6.5
		c1.8-1.8,3.9-2.7,6.5-2.7s4.7,0.9,6.5,2.7c1.8,1.8,2.7,3.9,2.7,6.5S640.1,25,638.4,26.8z M638.4,113.2h-13V44.1h13V113.2z"/>
	<path class="st13" d="M673,113.2l-27.9-69.1h14.1l20.3,53.6h0.3l20.6-53.6h13.8L686,113.2H673z"/>
</g>
</svg>
