<?xml version="1.0" encoding="utf-8"?>
<!-- Generator: Adobe Illustrator 20.0.0, SVG Export Plug-In . SVG Version: 6.00 Build 0)  -->
<svg version="1.1" id="Layer_4" xmlns="http://www.w3.org/2000/svg" xmlns:xlink="http://www.w3.org/1999/xlink" x="0px" y="0px"
	 viewBox="0 0 992.6 128" style="enable-background:new 0 0 992.6 128;" xml:space="preserve">
<style type="text/css">
	.st0{fill:none;}
	.st1{fill:#FFC107;}
	.st2{fill:#0F9D58;}
	.st3{opacity:0.2;fill:#BF360C;enable-background:new    ;}
	.st4{opacity:0.2;fill:#263238;enable-background:new    ;}
	.st5{opacity:0.2;fill:#FFFFFF;enable-background:new    ;}
	.st6{fill:url(#XMLID_2_);}
	.st7{fill:url(#XMLID_3_);}
	.st8{fill:#4285F4;}
	.st9{fill:#DB4437;}
	.st10{opacity:0.2;fill:#1A237E;enable-background:new    ;}
	.st11{opacity:0.2;fill:#3E2723;enable-background:new    ;}
	.st12{fill:url(#XMLID_4_);}
	.st13{fill:#767676;}
</style>
<g id="XMLID_50_">
	<g id="XMLID_72_">
		<path id="XMLID_7_" class="st0" d="M78.4,58L44.9,0H0l37,64L0,128h44.8l33.5-58C80.5,66.3,80.5,61.7,78.4,58z"/>
		<polygon id="XMLID_80_" class="st1" points="59.2,102.3 48.5,83.9 23,128 44.8,128 59.4,102.8 		"/>
		<path id="XMLID_8_" class="st0" d="M78.4,58L44.9,0H0l37,64L0,128h44.8l33.5-58C80.5,66.3,80.5,61.7,78.4,58z"/>
		<polygon class="st2" points="37,64 48.5,83.9 23,128 0,128 		"/>
		<path id="XMLID_9_" class="st0" d="M78.4,58L44.9,0H0l37,64L0,128h44.8l33.5-58C80.5,66.3,80.5,61.7,78.4,58z"/>
		<polygon class="st3" points="44.8,127 23.6,127 23,128 44.8,128 59.4,102.8 59.2,102.3 		"/>
		<path id="XMLID_10_" class="st0" d="M78.4,58L44.9,0H0l37,64L0,128h44.8l33.5-58C80.5,66.3,80.5,61.7,78.4,58z"/>
		<polygon class="st4" points="0.6,127 0,128 23,128 23.6,127 		"/>
		<path id="XMLID_11_" class="st0" d="M78.4,58L44.9,0H0l37,64L0,128h44.8l33.5-58C80.5,66.3,80.5,61.7,78.4,58z"/>
		<polygon class="st5" points="0,128 0.6,128 37.3,64.5 37,64 		"/>
		<path id="XMLID_12_" class="st0" d="M78.4,58L44.9,0H0l37,64L0,128h44.8l33.5-58C80.5,66.3,80.5,61.7,78.4,58z"/>
		
			<radialGradient id="XMLID_2_" cx="59.2766" cy="759.3328" r="44.2635" gradientTransform="matrix(1 0 0 1 0 -656.9775)" gradientUnits="userSpaceOnUse">
			<stop  offset="0" style="stop-color:#BF360C;stop-opacity:0.2"/>
			<stop  offset="1" style="stop-color:#BF360C;stop-opacity:2.000000e-02"/>
		</radialGradient>
		<polygon id="XMLID_79_" class="st6" points="59.4,102.8 59.4,102.8 48.5,83.9 45.8,88.5 		"/>
		<path id="XMLID_13_" class="st0" d="M78.4,58L44.9,0H0l37,64L0,128h44.8l33.5-58C80.5,66.3,80.5,61.7,78.4,58z"/>
		
			<radialGradient id="XMLID_3_" cx="59.1509" cy="759.6127" r="44.6228" gradientTransform="matrix(1 0 0 1 0 -656.9775)" gradientUnits="userSpaceOnUse">
			<stop  offset="0" style="stop-color:#263238;stop-opacity:0.2"/>
			<stop  offset="1" style="stop-color:#263238;stop-opacity:2.000000e-02"/>
		</radialGradient>
		<polygon id="XMLID_78_" class="st7" points="45.8,88.5 48.5,83.9 37,64 31.5,73.5 		"/>
		<path id="XMLID_14_" class="st0" d="M78.4,58L44.9,0H0l37,64L0,128h44.8l33.5-58C80.5,66.3,80.5,61.7,78.4,58z"/>
		<g id="XMLID_75_">
			<g id="XMLID_76_">
				<polygon id="XMLID_77_" class="st8" points="23,0 0,0 59.4,102.8 70.9,82.9 70.9,82.9 				"/>
			</g>
		</g>
		<path id="XMLID_15_" class="st0" d="M78.4,58L44.9,0H0l37,64L0,128h44.8l33.5-58C80.5,66.3,80.5,61.7,78.4,58z"/>
		<path class="st9" d="M78.4,70c2.1-3.7,2.1-8.3,0-12L44.9,0H23l47.9,82.9L78.4,70z"/>
		<path id="XMLID_16_" class="st0" d="M78.4,58L44.9,0H0l37,64L0,128h44.8l33.5-58C80.5,66.3,80.5,61.7,78.4,58z"/>
		<polygon class="st10" points="70.9,82.9 70.7,82.4 59.4,101.8 0.6,0 0,0 59.4,102.8 		"/>
		<path id="XMLID_17_" class="st0" d="M78.4,58L44.9,0H0l37,64L0,128h44.8l33.5-58C80.5,66.3,80.5,61.7,78.4,58z"/>
		<path class="st5" d="M44.8,1l33.5,58c1,1.7,1.5,3.6,1.6,5.5c0.1-2.2-0.4-4.5-1.6-6.5L44.8,0H0l0.6,1C0.6,1,44.8,1,44.8,1z"/>
		<path id="XMLID_18_" class="st0" d="M78.4,58L44.9,0H0l37,64L0,128h44.8l33.5-58C80.5,66.3,80.5,61.7,78.4,58z"/>
		<path id="XMLID_74_" class="st11" d="M70.9,82.9L78.3,70c1.2-2,1.7-4.3,1.6-6.5c-0.1,1.9-0.6,3.8-1.6,5.5l-7.7,13.4L70.9,82.9z"/>
		<path id="XMLID_19_" class="st0" d="M78.4,58L44.9,0H0l37,64L0,128h44.8l33.5-58C80.5,66.3,80.5,61.7,78.4,58z"/>
		
			<radialGradient id="XMLID_4_" cx="-1" cy="657.9588" r="134.3503" gradientTransform="matrix(1 0 0 1 0 -656.9775)" gradientUnits="userSpaceOnUse">
			<stop  offset="0" style="stop-color:#FFFFFF;stop-opacity:0.1"/>
			<stop  offset="1" style="stop-color:#FFFFFF;stop-opacity:0"/>
		</radialGradient>
		<path id="XMLID_73_" class="st12" d="M78.4,58L44.9,0H0l37,64L0,128h44.8l33.5-58C80.5,66.3,80.5,61.7,78.4,58z"/>
	</g>
</g>
<g id="XMLID_6_">
	<path class="st13" d="M230.3,66.8c0,14.1-4.2,25.3-12.5,33.7c-9.5,10-21.9,14.9-37.1,14.9c-14.6,0-27-5.1-37.2-15.2
		s-15.3-22.6-15.3-37.6s5.1-27.5,15.3-37.6s22.6-15.2,37.2-15.2c7.2,0,14.1,1.4,20.7,4.2c6.6,2.8,11.8,6.6,15.8,11.3l-8.9,8.9
		c-6.7-8-15.9-12-27.6-12c-10.6,0-19.8,3.7-27.6,11.2s-11.6,17.2-11.6,29.1s3.9,21.6,11.6,29.1s16.9,11.2,27.6,11.2
		c11.3,0,20.7-3.8,28.2-11.3c4.9-4.9,7.7-11.7,8.5-20.4h-36.7V59.2h48.9C230.1,61.8,230.3,64.3,230.3,66.8z"/>
	<path class="st13" d="M243.4,113.2v-101h30.9c15.5,0,27.9,4.7,37.2,14c9.3,9.4,14,21.5,14,36.4s-4.7,27.1-14,36.4
		c-9.3,9.4-21.7,14-37.2,14h-30.9V113.2z M256.4,100.8h17.9c11.7,0,20.9-3.3,27.7-10c6.8-6.7,10.2-16,10.2-28.1
		c0-11.9-3.4-21.3-10.2-28c-6.8-6.7-16.1-10.1-27.7-10.1h-17.9V100.8z"/>
	<path class="st13" d="M435.8,66.8c0,14.1-4.2,25.3-12.5,33.7c-9.5,10-21.9,14.9-37.1,14.9c-14.6,0-27-5.1-37.2-15.2
		s-15.3-22.6-15.3-37.6s5.1-27.4,15.3-37.5s22.6-15.2,37.2-15.2c7.2,0,14.1,1.4,20.7,4.2s11.8,6.6,15.8,11.3l-8.9,8.9
		c-6.7-8-15.9-12-27.6-12c-10.6,0-19.8,3.7-27.6,11.2C350.8,41,347,50.7,347,62.6s3.9,21.6,11.6,29.1s16.9,11.2,27.6,11.2
		c11.3,0,20.7-3.8,28.2-11.3c4.9-4.9,7.7-11.7,8.5-20.4h-36.7v-12h48.9C435.6,61.8,435.8,64.3,435.8,66.8z"/>
	<path class="st13" d="M483.2,113.2v-101H499l49,78.6h0.6L548,71.3V12.2h13v101h-13.5l-51.3-82.3h-0.6l0.6,19.5v62.8H483.2z"/>
	<path class="st13" d="M583.4,52.3c6.7-7,15.2-10.5,25.5-10.5s18.8,3.5,25.5,10.5s10,15.8,10,26.3s-3.3,19.3-10,26.3
		s-15.2,10.5-25.5,10.5s-18.8-3.5-25.5-10.5s-10-15.8-10-26.3S576.8,59.3,583.4,52.3z M593.1,96.8c4.5,4.6,9.8,6.8,15.9,6.8
		c6.1,0,11.4-2.3,15.9-6.8c4.5-4.6,6.7-10.6,6.7-18.1s-2.2-13.6-6.7-18.1c-4.5-4.6-9.8-6.8-15.9-6.8c-6.1,0-11.4,2.3-15.9,6.8
		c-4.5,4.6-6.7,10.6-6.7,18.1C586.4,86.2,588.6,92.2,593.1,96.8z"/>
	<path class="st13" d="M671.7,113.2l-27.9-69.1h14.1l20.3,53.6h0.3l20.6-53.6h13.8l-28.2,69.1H671.7z"/>
	<path class="st13" d="M732.7,26.7c-1.8,1.8-3.9,2.7-6.5,2.7s-4.7-0.9-6.5-2.7s-2.7-3.9-2.7-6.5c0-2.6,0.9-4.7,2.7-6.5
		s3.9-2.7,6.5-2.7s4.7,0.9,6.5,2.7c1.8,1.8,2.7,3.9,2.7,6.5C735.4,22.8,734.4,25,732.7,26.7z M732.7,113.2h-13V44.1h13V113.2z"/>
	<path class="st13" d="M811.9,115.4c-7.3,0-14.5-2.4-21.5-7.2c-7-4.8-11.6-11.5-13.7-20.2l11.8-4.8c1.4,5.5,4.3,10.2,8.7,14
		s9.3,5.7,14.7,5.7c5.6,0,10.5-1.5,14.5-4.4c4-3,6-7,6-12.1c0-5.6-2-10-6-13c-4-3.1-10.3-5.9-19-8.5c-8.9-2.8-15.7-6.5-20.3-10.9
		c-4.6-4.5-6.9-10.2-6.9-17.1c0-7.2,2.9-13.5,8.6-18.9c5.7-5.4,13.2-8,22.4-8c8.6,0,15.5,2.1,20.9,6.4s8.8,9,10.4,14l-11.8,4.9
		c-0.8-3.2-2.9-6.2-6.3-8.9c-3.3-2.7-7.6-4.1-12.9-4.1c-5,0-9.2,1.4-12.8,4.2c-3.5,2.8-5.3,6.2-5.3,10.4c0,3.8,1.6,6.9,4.9,9.5
		c3.2,2.6,8,4.9,14.3,7c5,1.6,9.1,3.2,12.5,4.7c3.3,1.5,6.7,3.5,10.2,6c3.4,2.5,6,5.6,7.8,9.3c1.7,3.7,2.6,8,2.6,12.9s-1,9.3-3,13.1
		c-2,3.9-4.7,6.9-8,9.2c-3.3,2.3-6.9,4-10.8,5.1C819.9,114.8,815.9,115.4,811.9,115.4z"/>
	<path class="st13" d="M878.6,115.4c-7.3,0-13.5-2.1-18.4-6.3c-4.9-4.2-7.4-9.8-7.4-16.8c0-7.5,2.9-13.4,8.7-17.7
		c5.8-4.3,13-6.4,21.6-6.4c7.6,0,13.9,1.4,18.8,4.2v-2c0-5.1-1.7-9.1-5.2-12.2s-7.8-4.6-12.8-4.6c-3.8,0-7.2,0.9-10.2,2.7
		c-3.1,1.8-5.1,4.2-6.3,7.3l-11.8-5.1c1.6-4.1,4.7-8,9.4-11.5s10.9-5.3,18.6-5.3c8.8,0,16.2,2.6,22,7.8s8.7,12.5,8.7,21.9v41.8
		h-12.4v-9.6h-0.6C896.2,111.5,888.6,115.4,878.6,115.4z M880.8,103.6c5.4,0,10.2-2,14.6-6c4.4-4,6.6-8.7,6.6-14.2
		c-3.7-3-9.2-4.5-16.5-4.5c-6.3,0-11,1.4-14.2,4.1s-4.8,5.9-4.8,9.6c0,3.4,1.5,6.1,4.4,8C873.7,102.6,877,103.6,880.8,103.6z"/>
	<path class="st13" d="M956,115.4c-8.9,0-16.6-3.5-23.1-10.6s-9.7-15.8-9.7-26.2s3.2-19.2,9.7-26.2s14.2-10.6,23.1-10.6
		c5.3,0,10,1.1,14.2,3.4c4.2,2.3,7.3,5.1,9.4,8.5h0.6l-0.6-9.6V12.2h13v101h-12.4v-9.6h-0.6c-2.1,3.4-5.2,6.2-9.4,8.5
		C966,114.3,961.3,115.4,956,115.4z M958.1,103.6c6.1,0,11.3-2.3,15.6-6.8s6.4-10.6,6.4-18.2s-2.1-13.7-6.4-18.2
		c-4.3-4.5-9.5-6.8-15.6-6.8c-6,0-11.2,2.3-15.5,6.8c-4.3,4.6-6.5,10.6-6.5,18.1s2.2,13.6,6.5,18.1
		C946.9,101.3,952.1,103.6,958.1,103.6z"/>
</g>
</svg>
