<?xml version="1.0" standalone="no"?>
<!DOCTYPE svg PUBLIC "-//W3C//DTD SVG 20010904//EN"
 "http://www.w3.org/TR/2001/REC-SVG-20010904/DTD/svg10.dtd">
<svg version="1.0" xmlns="http://www.w3.org/2000/svg"
 width="2183.000000pt" height="896.000000pt" viewBox="0 0 2183.000000 896.000000"
 preserveAspectRatio="xMidYMid meet">
<metadata>
Created by potrace 1.15, written by Peter Selinger 2001-2017
</metadata>
<g transform="translate(0.000000,896.000000) scale(0.100000,-0.100000)"
fill="#000000" stroke="none">
<path d="M2520 5717 c0 -5 654 -1137 711 -1230 l30 -48 -53 -92 c-28 -51 -83
-146 -122 -212 -38 -66 -166 -286 -283 -490 -118 -203 -225 -387 -239 -407
-13 -21 -24 -40 -24 -43 0 -3 98 -5 218 -5 l217 1 180 312 c210 366 311 537
322 548 5 5 46 -58 93 -139 46 -81 95 -165 108 -186 l24 -39 40 69 c238 408
349 609 358 648 10 48 -4 113 -36 164 -8 12 -12 28 -8 35 4 7 4 9 -1 5 -11
-10 -47 50 -39 64 4 6 3 8 -3 5 -13 -8 -46 50 -37 66 4 6 4 9 -1 5 -12 -11
-38 29 -29 45 4 6 4 9 -1 5 -11 -10 -47 50 -39 64 4 6 3 8 -3 5 -13 -8 -46 50
-37 65 4 6 3 8 -3 5 -13 -8 -46 50 -37 66 4 6 4 9 -1 5 -12 -11 -38 29 -29 45
4 6 4 9 -1 5 -11 -10 -47 50 -39 64 4 6 3 8 -3 5 -13 -8 -196 310 -187 325 4
7 3 8 -4 4 -14 -8 -36 30 -26 46 4 6 3 8 -3 5 -13 -8 -46 50 -37 65 4 6 3 8
-3 5 -13 -8 -46 50 -37 65 4 7 3 8 -4 4 -6 -4 -18 6 -27 24 l-16 30 -209 0
c-116 0 -210 -2 -210 -4 0 -2 133 -235 296 -517 163 -283 371 -643 461 -801
l166 -288 -48 -82 c-88 -153 -169 -288 -170 -285 -1 1 -27 45 -57 97 -30 52
-165 284 -300 515 -135 231 -366 627 -513 880 -240 413 -305 519 -305 502z"/>
<path d="M16331 5559 c-44 -17 -81 -51 -101 -89 -22 -43 -26 -122 -9 -167 25
-66 99 -113 179 -113 163 0 248 186 142 312 -48 57 -145 83 -211 57z"/>
<path d="M5902 5529 c-226 -47 -400 -145 -560 -313 -146 -154 -231 -322 -268
-530 -35 -200 0 -445 89 -621 70 -138 230 -320 352 -400 187 -122 392 -185
606 -185 461 0 814 261 925 685 23 86 27 122 28 255 0 85 -2 163 -6 173 -7 16
-39 17 -483 17 l-475 0 0 -150 0 -150 331 0 331 0 -6 -43 c-23 -152 -123 -299
-263 -387 -81 -52 -141 -75 -243 -94 -275 -53 -550 46 -717 256 -111 140 -163
290 -163 471 0 126 21 220 75 332 91 188 251 324 455 386 109 34 303 34 410 1
87 -27 176 -75 250 -133 l52 -41 101 101 101 100 -29 31 c-39 40 -155 120
-230 157 -193 96 -446 128 -663 82z"/>
<path d="M10015 5544 c-458 -72 -811 -406 -896 -845 -18 -92 -15 -298 5 -392
82 -381 382 -690 771 -794 89 -24 118 -27 270 -27 143 0 184 3 259 22 97 24
227 81 303 133 71 48 189 166 235 233 120 175 176 418 154 659 l-8 77 -474 0
-474 0 0 -150 0 -150 329 -2 329 -3 -19 -75 c-50 -200 -186 -346 -386 -415
-405 -141 -825 66 -961 473 -23 69 -26 93 -26 227 -1 143 1 154 31 238 44 125
86 190 188 292 73 74 106 98 175 132 127 62 193 77 340 77 102 1 139 -4 200
-22 91 -28 188 -80 254 -134 l48 -41 101 101 101 101 -20 22 c-76 86 -290 204
-434 239 -84 21 -322 35 -395 24z"/>
<path d="M12200 4516 l0 -1036 140 0 140 0 0 415 0 415 249 0 c344 0 426 18
576 125 205 146 297 397 235 639 -45 178 -162 319 -336 405 -124 61 -141 63
-591 68 l-413 5 0 -1036z m870 733 c135 -64 222 -214 207 -355 -12 -113 -96
-233 -199 -283 -68 -32 -145 -41 -385 -41 l-213 0 0 355 0 356 268 -3 c265 -3
267 -3 322 -29z"/>
<path d="M7300 4516 l0 -986 325 0 c340 0 467 9 590 40 400 102 657 414 694
841 34 395 -116 737 -404 924 -101 65 -179 99 -303 132 -96 26 -103 27 -499
31 l-403 4 0 -986z m855 650 c260 -72 413 -260 447 -548 35 -299 -73 -560
-283 -683 -128 -75 -235 -95 -505 -95 l-204 0 0 676 0 676 243 -4 c185 -4 256
-9 302 -22z"/>
<path d="M14090 4925 c-144 -32 -220 -74 -322 -176 -43 -42 -78 -80 -78 -85 0
-5 31 -27 68 -50 37 -23 90 -56 118 -73 l51 -32 57 59 c154 162 413 169 561
16 57 -59 84 -117 92 -199 6 -65 5 -68 -13 -60 -145 60 -257 79 -414 72 -203
-11 -329 -57 -436 -162 -223 -220 -153 -596 139 -740 169 -83 364 -86 523 -8
54 26 143 103 182 158 l21 30 1 -97 0 -98 130 0 130 0 0 478 c0 528 -3 560
-62 680 -62 126 -201 235 -353 277 -85 23 -311 29 -395 10z m380 -766 c25 -5
74 -24 109 -41 l63 -32 -6 -51 c-14 -107 -97 -228 -203 -295 -136 -87 -321
-82 -426 10 -55 49 -77 93 -77 158 0 135 118 237 305 266 40 6 179 -3 235 -15z"/>
<path d="M15807 4929 c-117 -17 -278 -125 -330 -223 l-22 -41 -3 118 -3 117
-129 0 -130 0 0 -710 0 -710 140 0 140 0 0 423 c0 387 2 429 19 480 34 104
118 199 218 244 58 27 150 34 243 20 l45 -7 39 124 c21 68 36 128 32 134 -15
24 -171 43 -259 31z"/>
<path d="M17214 4925 c-235 -52 -375 -186 -391 -374 -16 -188 85 -325 298
-405 35 -13 138 -43 228 -66 176 -44 240 -71 283 -117 71 -75 62 -161 -24
-223 -87 -63 -242 -81 -351 -40 -73 27 -164 110 -203 185 -16 30 -32 55 -36
55 -11 0 -222 -90 -231 -99 -12 -12 37 -105 91 -174 112 -142 278 -223 482
-234 313 -17 574 157 597 399 8 94 -11 177 -58 247 -78 117 -173 168 -464 246
-222 59 -284 86 -316 138 -98 162 206 298 427 191 48 -23 114 -84 140 -129 10
-18 17 -17 132 30 l121 49 -31 58 c-40 74 -138 167 -220 207 -136 67 -323 89
-474 56z"/>
<path d="M16260 4190 l0 -710 135 0 135 0 0 710 0 710 -135 0 -135 0 0 -710z"/>
</g>
</svg>
