<?xml version="1.0" encoding="utf-8"?>
<!-- Generator: Adobe Illustrator 21.0.2, SVG Export Plug-In . SVG Version: 6.00 Build 0)  -->
<svg version="1.1" id="Layer_1" xmlns="http://www.w3.org/2000/svg" xmlns:xlink="http://www.w3.org/1999/xlink" x="0px" y="0px"
	 viewBox="0 0 841.9 595.3" style="enable-background:new 0 0 841.9 595.3;" xml:space="preserve">
<style type="text/css">
	.st0{opacity:0.5;}
	.st1{fill:#010101;}
	.st2{fill:none;}
	.st3{fill:#FDC113;}
	.st4{fill:#0F9D58;}
	.st5{opacity:0.2;fill:#BE3B26;enable-background:new    ;}
	.st6{opacity:0.2;fill:#273339;enable-background:new    ;}
	.st7{opacity:0.2;fill:#FFFFFF;enable-background:new    ;}
	.st8{fill:url(#XMLID_2_);}
	.st9{fill:url(#XMLID_3_);}
	.st10{fill:#557EBF;}
	.st11{fill:#DC4537;}
	.st12{opacity:0.2;fill:#2D3079;enable-background:new    ;}
	.st13{opacity:0.2;fill:#3E2823;enable-background:new    ;}
	.st14{fill:url(#XMLID_4_);}
	.st15{opacity:0.5;fill:#010101;}
</style>
<g>
	<g id="XMLID_243_" class="st0">
		<path id="XMLID_245_" class="st1" d="M578,342.4h-13V241h34.5c8.8,0,16.3,2.9,22.4,8.7c6.2,5.8,9.3,13,9.3,21.4
			c0,7-2.3,13.2-6.9,18.6c-4.6,5.4-10.4,8.9-17.3,10.4l-0.3,0.4l28.5,41.2v0.6h-15.4l-27.3-41.1H578V342.4z M578,253.5v35.7h21
			c5.3,0,9.8-1.7,13.5-5.2c3.7-3.4,5.5-7.7,5.5-12.8c0-4.7-1.7-8.8-5.2-12.4c-3.5-3.5-7.8-5.3-13-5.3H578z"/>
		<path id="XMLID_248_" class="st1" d="M661.3,249.1c0,2.5-0.9,4.7-2.7,6.5c-1.8,1.8-4,2.7-6.5,2.7c-2.6,0-4.7-0.9-6.5-2.7
			c-1.8-1.8-2.7-4-2.7-6.5c0-2.5,0.9-4.7,2.7-6.5c1.8-1.8,4-2.7,6.5-2.7c2.5,0,4.7,0.9,6.5,2.7C660.4,244.4,661.3,246.6,661.3,249.1
			z M658.7,273v69.4h-13V273H658.7z"/>
		<path id="XMLID_251_" class="st1" d="M705.7,375.3c-3.9,0-7.5-0.5-10.9-1.5c-3.4-1-6.5-2.4-9.3-4.2s-5.2-3.9-7.1-6.4
			c-2-2.5-3.5-5.2-4.5-8.2l12.3-5.1c1.4,4.1,3.9,7.3,7.4,9.8c3.5,2.5,7.6,3.7,12.2,3.7c7.1,0,12.6-2.1,16.6-6.4s5.9-10.1,5.9-17.6
			v-6.7h-0.6c-2.5,3.7-5.8,6.6-10,8.7s-8.8,3.2-13.7,3.2c-9.1,0-16.9-3.5-23.4-10.6c-6.4-7.3-9.6-16-9.6-26.3
			c0-10.3,3.2-19,9.6-26.2c6.5-7.2,14.3-10.8,23.4-10.8c4.9,0,9.5,1.1,13.7,3.2s7.5,5,10,8.7h0.6V273h12.5v66.4
			c0,11.1-3.2,19.9-9.5,26.2C724.7,372,716.2,375.3,705.7,375.3z M706.1,332.8c6.4,0,11.7-2.3,15.7-6.9c4.2-4.6,6.4-10.7,6.4-18.1
			c0-7.3-2.1-13.3-6.4-18c-4.2-4.7-9.4-7.1-15.7-7.1c-6.2,0-11.5,2.4-15.7,7.1c-4.2,4.7-6.4,10.7-6.4,18c0,7.4,2.1,13.4,6.4,18
			C694.6,330.4,699.9,332.8,706.1,332.8z"/>
		<path id="XMLID_254_" class="st1" d="M782.1,270.8c9.6,0,17.2,2.6,22.8,7.7c5.6,5.1,8.4,12.2,8.4,21.2v42.8h-12.5v-9.6h-0.6
			c-5.4,7.9-12.6,11.9-21.5,11.9c-7.6,0-14-2.3-19.2-6.8c-5.1-4.5-7.7-10.2-7.7-17c0-7.2,2.7-12.9,8.1-17.1
			c5.4-4.2,12.7-6.4,21.7-6.4c7.7,0,14.1,1.4,19.1,4.2v-3c0-4.5-1.8-8.4-5.4-11.5c-3.6-3.2-7.8-4.7-12.6-4.7c-7.3,0-13,3.1-17.3,9.2
			l-11.5-7.2C760.4,275.3,769.7,270.8,782.1,270.8z M765.3,321.2c0,3.4,1.4,6.2,4.3,8.5c2.9,2.3,6.3,3.4,10.1,3.4
			c5.5,0,10.4-2,14.7-6.1c4.3-4.1,6.4-8.8,6.4-14.3c-4.1-3.2-9.7-4.8-17-4.8c-5.3,0-9.7,1.3-13.2,3.8
			C767,314.2,765.3,317.4,765.3,321.2z"/>
	</g>
	<g id="XMLID_319_">
		<g id="XMLID_325_">
			<g id="XMLID_326_">
				<path id="XMLID_354_" class="st2" d="M115.2,284.1L78.2,220H28.6l40.9,70.7l-40.9,70.7h49.5l37.1-64.1
					C117.6,293.3,117.6,288.2,115.2,284.1z"/>
				<polygon id="XMLID_353_" class="st3" points="94,333 82.2,312.7 54,361.4 78.2,361.4 94.3,333.6 				"/>
				<path id="XMLID_352_" class="st2" d="M115.2,284.1L78.2,220H28.6l40.9,70.7l-40.9,70.7h49.5l37.1-64.1
					C117.6,293.3,117.6,288.2,115.2,284.1z"/>
				<polygon id="XMLID_351_" class="st4" points="69.5,290.7 82.2,312.7 54,361.4 28.6,361.4 				"/>
				<path id="XMLID_350_" class="st2" d="M115.2,284.1L78.2,220H28.6l40.9,70.7l-40.9,70.7h49.5l37.1-64.1
					C117.6,293.3,117.6,288.2,115.2,284.1z"/>
				<polygon id="XMLID_349_" class="st5" points="78.2,360.3 54.7,360.3 54,361.4 78.2,361.4 94.3,333.6 94,333 				"/>
				<path id="XMLID_348_" class="st2" d="M115.2,284.1L78.2,220H28.6l40.9,70.7l-40.9,70.7h49.5l37.1-64.1
					C117.6,293.3,117.6,288.2,115.2,284.1z"/>
				<polygon id="XMLID_347_" class="st6" points="29.3,360.3 28.6,361.4 54,361.4 54.7,360.3 				"/>
				<path id="XMLID_346_" class="st2" d="M115.2,284.1L78.2,220H28.6l40.9,70.7l-40.9,70.7h49.5l37.1-64.1
					C117.6,293.3,117.6,288.2,115.2,284.1z"/>
				<polygon id="XMLID_345_" class="st7" points="28.6,361.4 29.3,361.4 69.9,291.3 69.5,290.7 				"/>
				<path id="XMLID_344_" class="st2" d="M115.2,284.1L78.2,220H28.6l40.9,70.7l-40.9,70.7h49.5l37.1-64.1
					C117.6,293.3,117.6,288.2,115.2,284.1z"/>
				
					<radialGradient id="XMLID_2_" cx="94.12" cy="264.875" r="48.9015" gradientTransform="matrix(1 0 0 -1 0 598)" gradientUnits="userSpaceOnUse">
					<stop  offset="0" style="stop-color:#BE3B26;stop-opacity:0.2"/>
					<stop  offset="1" style="stop-color:#BE3B26;stop-opacity:2.000000e-02"/>
				</radialGradient>
				<polygon id="XMLID_343_" class="st8" points="94.3,333.6 94.3,333.6 82.2,312.7 79.3,317.8 				"/>
				<path id="XMLID_342_" class="st2" d="M115.2,284.1L78.2,220H28.6l40.9,70.7l-40.9,70.7h49.5l37.1-64.1
					C117.6,293.3,117.6,288.2,115.2,284.1z"/>
				
					<radialGradient id="XMLID_3_" cx="93.9811" cy="264.5657" r="49.2985" gradientTransform="matrix(1 0 0 -1 0 598)" gradientUnits="userSpaceOnUse">
					<stop  offset="0" style="stop-color:#273339;stop-opacity:0.2"/>
					<stop  offset="1" style="stop-color:#273339;stop-opacity:2.000000e-02"/>
				</radialGradient>
				<polygon id="XMLID_341_" class="st9" points="79.3,317.8 82.2,312.7 69.5,290.7 63.5,301.2 				"/>
				<path id="XMLID_340_" class="st2" d="M115.2,284.1L78.2,220H28.6l40.9,70.7l-40.9,70.7h49.5l37.1-64.1
					C117.6,293.3,117.6,288.2,115.2,284.1z"/>
				<g id="XMLID_337_">
					<g id="XMLID_338_">
						<polygon id="XMLID_339_" class="st10" points="54,220 28.6,220 94.3,333.6 107,311.6 107,311.6 						"/>
					</g>
				</g>
				<path id="XMLID_336_" class="st2" d="M115.2,284.1L78.2,220H28.6l40.9,70.7l-40.9,70.7h49.5l37.1-64.1
					C117.6,293.3,117.6,288.2,115.2,284.1z"/>
				<path id="XMLID_335_" class="st11" d="M115.2,297.4c2.4-4.1,2.4-9.2,0-13.3L78.2,220H54l53,91.6L115.2,297.4z"/>
				<path id="XMLID_334_" class="st2" d="M115.2,284.1L78.2,220H28.6l40.9,70.7l-40.9,70.7h49.5l37.1-64.1
					C117.6,293.3,117.6,288.2,115.2,284.1z"/>
				<polygon id="XMLID_333_" class="st12" points="107,311.6 106.7,311 94.3,332.5 29.3,220 28.6,220 94.3,333.6 107,311.6 				"/>
				<path id="XMLID_332_" class="st2" d="M115.2,284.1L78.2,220H28.6l40.9,70.7l-40.9,70.7h49.5l37.1-64.1
					C117.6,293.3,117.6,288.2,115.2,284.1z"/>
				<path id="XMLID_331_" class="st7" d="M78.2,221.1l37.1,64.1c1.1,1.9,1.7,4,1.7,6.1c0.1-2.5-0.5-5-1.7-7.2L78.2,220H28.6l0.6,1.1
					H78.2z"/>
				<path id="XMLID_330_" class="st2" d="M115.2,284.1L78.2,220H28.6l40.9,70.7l-40.9,70.7h49.5l37.1-64.1
					C117.6,293.3,117.6,288.2,115.2,284.1z"/>
				<path id="XMLID_329_" class="st13" d="M107,311.6l8.2-14.2c1.3-2.2,1.8-4.7,1.7-7.2c-0.1,2.1-0.7,4.2-1.7,6.1l-8.6,14.8
					L107,311.6z"/>
				<path id="XMLID_328_" class="st2" d="M115.2,284.1L78.2,220H28.6l40.9,70.7l-40.9,70.7h49.5l37.1-64.1
					C117.6,293.3,117.6,288.2,115.2,284.1z"/>
				
					<radialGradient id="XMLID_4_" cx="27.5275" cy="376.8711" r="148.4277" gradientTransform="matrix(1 0 0 -1 0 598)" gradientUnits="userSpaceOnUse">
					<stop  offset="0" style="stop-color:#FFFFFF;stop-opacity:0.1"/>
					<stop  offset="1" style="stop-color:#FFFFFF;stop-opacity:0"/>
				</radialGradient>
				<path id="XMLID_327_" class="st14" d="M115.2,284.1L78.2,220H28.6l40.9,70.7l-40.9,70.7h49.5l37.1-64.1
					C117.6,293.3,117.6,288.2,115.2,284.1z"/>
			</g>
		</g>
		<path id="XMLID_322_" class="st15" d="M296.5,232.4h33.8c34.4,0,56,22.8,56,54.9c0,32.2-21.6,54.9-56,54.9h-33.8L296.5,232.4
			L296.5,232.4z M330.9,325.5c24,0,38.8-13.3,38.8-38.3c0-24.8-14.8-38.3-38.8-38.3h-17.8v76.5H330.9z"/>
		<path id="XMLID_321_" class="st15" d="M282.6,282.3h-52.7v16.3h37.1c-1.2,8.3-4.1,14.8-8.4,19.1c-5.5,5.5-14.1,11.6-29.2,11.6
			c-23.3,0-41.4-18.7-41.4-42c0-23.3,18.2-42,41.4-42c12.5,0,21.7,4.9,28.5,11.3l11.1-11.1c-9.4-9-22-15.9-39.6-15.9
			c-31.9,0-58.6,25.9-58.6,57.8c0,31.9,26.8,57.8,58.6,57.8c17.2,0,30.2-5.6,40.3-16.2c10.4-10.4,13.7-25.1,13.7-36.9
			C283.5,288.3,283.2,285.1,282.6,282.3z"/>
		<path id="XMLID_320_" class="st15" d="M508.9,282.3h-52.7v16.3h37.1c-1.2,8.3-4.1,14.8-8.4,19.1c-5.5,5.5-14.1,11.6-29.2,11.6
			c-23.3,0-41.4-18.7-41.4-42c0-23.3,18.2-42,41.4-42c12.5,0,21.7,4.9,28.5,11.3l11.1-11.1c-9.4-9-22-15.9-39.6-15.9
			c-31.9,0-58.6,25.9-58.6,57.8c0,31.9,26.8,57.8,58.6,57.8c17.2,0,30.2-5.6,40.3-16.2c10.4-10.4,13.7-25.1,13.7-36.9
			C509.7,288.3,509.5,285.1,508.9,282.3z"/>
	</g>
</g>
</svg>
