<?xml version="1.0" encoding="UTF-8" standalone="no"?>
<!DOCTYPE svg PUBLIC "-//W3C//DTD SVG 1.1//EN" "http://www.w3.org/Graphics/SVG/1.1/DTD/svg11.dtd">
<svg width="100%" height="100%" viewBox="0 0 1090 200" version="1.1" xmlns="http://www.w3.org/2000/svg" xmlns:xlink="http://www.w3.org/1999/xlink" xml:space="preserve" xmlns:serif="http://www.serif.com/" style="fill-rule:evenodd;clip-rule:evenodd;stroke-linejoin:round;stroke-miterlimit:1.41421;">
    <g id="XMLID_72_">
        <path id="XMLID_7_" d="M122.5,90.6L70.1,0L0,0L57.8,100L0,200L70.1,200L122.5,109.4C125.8,103.6 125.8,96.4 122.5,90.6Z" style="fill:none;"/>
        <path id="XMLID_80_" d="M92.4,159.8L75.8,131.1L35.9,200L70.1,200L92.9,160.6L92.4,159.8Z" style="fill:rgb(255,193,7);fill-rule:nonzero;"/>
        <path id="XMLID_8_" d="M122.5,90.6L70.1,0L0,0L57.8,100L0,200L70.1,200L122.5,109.4C125.8,103.6 125.8,96.4 122.5,90.6Z" style="fill:none;"/>
        <path id="XMLID_39_" d="M57.8,100L75.8,131.1L35.9,200L0,200L57.8,100Z" style="fill:rgb(15,157,88);fill-rule:nonzero;"/>
        <path id="XMLID_9_" d="M122.5,90.6L70.1,0L0,0L57.8,100L0,200L70.1,200L122.5,109.4C125.8,103.6 125.8,96.4 122.5,90.6Z" style="fill:none;"/>
        <path id="XMLID_38_" d="M70.1,198.4L36.8,198.4L35.9,200L70.1,200L92.9,160.6L92.4,159.8L70.1,198.4Z" style="fill:rgb(191,54,12);fill-opacity:0.2;fill-rule:nonzero;"/>
        <path id="XMLID_10_" d="M122.5,90.6L70.1,0L0,0L57.8,100L0,200L70.1,200L122.5,109.4C125.8,103.6 125.8,96.4 122.5,90.6Z" style="fill:none;"/>
        <path id="XMLID_37_" d="M0.9,198.4L0,200L35.9,200L36.8,198.4L0.9,198.4Z" style="fill:rgb(38,50,56);fill-opacity:0.2;fill-rule:nonzero;"/>
        <path id="XMLID_11_" d="M122.5,90.6L70.1,0L0,0L57.8,100L0,200L70.1,200L122.5,109.4C125.8,103.6 125.8,96.4 122.5,90.6Z" style="fill:none;"/>
        <path id="XMLID_36_" d="M0,200L0.9,200L58.3,100.8L57.8,100L0,200Z" style="fill:white;fill-opacity:0.2;fill-rule:nonzero;"/>
        <path id="XMLID_12_" d="M122.5,90.6L70.1,0L0,0L57.8,100L0,200L70.1,200L122.5,109.4C125.8,103.6 125.8,96.4 122.5,90.6Z" style="fill:none;"/>
        <path id="XMLID_79_" d="M92.9,160.6L75.8,131.1L71.6,138.3L92.9,160.6Z" style="fill:url(#_Radial1);fill-rule:nonzero;"/>
        <path id="XMLID_13_" d="M122.5,90.6L70.1,0L0,0L57.8,100L0,200L70.1,200L122.5,109.4C125.8,103.6 125.8,96.4 122.5,90.6Z" style="fill:none;"/>
        <path id="XMLID_78_" d="M71.6,138.3L75.8,131.1L57.8,100L49.3,114.8L71.6,138.3Z" style="fill:url(#_Radial2);fill-rule:nonzero;"/>
        <path id="XMLID_14_" d="M122.5,90.6L70.1,0L0,0L57.8,100L0,200L70.1,200L122.5,109.4C125.8,103.6 125.8,96.4 122.5,90.6Z" style="fill:none;"/>
        <path id="XMLID_77_" d="M35.9,0L0,0L92.9,160.6L110.8,129.5L35.9,0Z" style="fill:rgb(66,133,244);fill-rule:nonzero;"/>
        <path id="XMLID_15_" d="M122.5,90.6L70.1,0L0,0L57.8,100L0,200L70.1,200L122.5,109.4C125.8,103.6 125.8,96.4 122.5,90.6Z" style="fill:none;"/>
        <path id="XMLID_35_" d="M122.5,109.4C125.9,103.6 125.9,96.4 122.5,90.6L70.1,0L35.9,0L110.8,129.5L122.5,109.4Z" style="fill:rgb(219,68,55);fill-rule:nonzero;"/>
        <path id="XMLID_16_" d="M122.5,90.6L70.1,0L0,0L57.8,100L0,200L70.1,200L122.5,109.4C125.8,103.6 125.8,96.4 122.5,90.6Z" style="fill:none;"/>
        <path id="XMLID_34_" d="M110.8,129.5L110.4,128.7L92.9,159L0.9,0L0,0L92.9,160.6L110.8,129.5Z" style="fill:rgb(26,35,126);fill-opacity:0.2;fill-rule:nonzero;"/>
        <path id="XMLID_17_" d="M122.5,90.6L70.1,0L0,0L57.8,100L0,200L70.1,200L122.5,109.4C125.8,103.6 125.8,96.4 122.5,90.6Z" style="fill:none;"/>
        <path id="XMLID_2_" d="M70.1,1.6L122.5,92.2C124,94.9 124.8,97.8 125,100.8C125.1,97.3 124.3,93.8 122.5,90.6L70.1,0L0,0L0.9,1.6L70.1,1.6Z" style="fill:white;fill-opacity:0.2;fill-rule:nonzero;"/>
        <path id="XMLID_18_" d="M122.5,90.6L70.1,0L0,0L57.8,100L0,200L70.1,200L122.5,109.4C125.8,103.6 125.8,96.4 122.5,90.6Z" style="fill:none;"/>
        <path id="XMLID_74_" d="M110.8,129.5L122.4,109.4C124.2,106.3 125,102.7 124.9,99.2C124.8,102.2 124,105.1 122.4,107.8L110.3,128.7L110.8,129.5Z" style="fill:rgb(62,39,35);fill-opacity:0.2;fill-rule:nonzero;"/>
        <path id="XMLID_19_" d="M122.5,90.6L70.1,0L0,0L57.8,100L0,200L70.1,200L122.5,109.4C125.8,103.6 125.8,96.4 122.5,90.6Z" style="fill:none;"/>
        <path id="XMLID_73_" d="M122.5,90.6L70.1,0L0,0L57.8,100L0,200L70.1,200L122.5,109.4C125.8,103.6 125.8,96.4 122.5,90.6Z" style="fill:url(#_Radial3);fill-rule:nonzero;"/>
    </g>
    <g transform="matrix(1,0,0,1,-4.6386,-16.6489)">
        <g id="XMLID_6_">
            <text x="198.067px" y="176.999px" style="font-family:'ProductSans-Regular', 'Product Sans', sans-serif;font-size:172px;fill:rgb(118,118,118);">GDG <tspan x="623.423px 703.403px " y="176.999px 176.999px ">Ta</tspan>ipei</text>
        </g>
    </g>
    <defs>
        <radialGradient id="_Radial1" cx="0" cy="0" r="1" gradientUnits="userSpaceOnUse" gradientTransform="matrix(69.1625,0,0,-69.1625,92.6197,159.959)"><stop offset="0" style="stop-color:rgb(191,54,12);stop-opacity:0.2"/><stop offset="1" style="stop-color:rgb(191,54,12);stop-opacity:0.0196078"/></radialGradient>
        <radialGradient id="_Radial2" cx="0" cy="0" r="1" gradientUnits="userSpaceOnUse" gradientTransform="matrix(69.7234,0,0,-69.7234,92.4244,160.397)"><stop offset="0" style="stop-color:rgb(38,50,56);stop-opacity:0.2"/><stop offset="1" style="stop-color:rgb(38,50,56);stop-opacity:0.0196078"/></radialGradient>
        <radialGradient id="_Radial3" cx="0" cy="0" r="1" gradientUnits="userSpaceOnUse" gradientTransform="matrix(209.922,0,0,-209.922,-1.56156,1.56225)"><stop offset="0" style="stop-color:white;stop-opacity:0.0980392"/><stop offset="1" style="stop-color:white;stop-opacity:0"/></radialGradient>
    </defs>
</svg>
