<?xml version="1.0" encoding="utf-8"?>
<!-- Generator: Adobe Illustrator 16.0.0, SVG Export Plug-In . SVG Version: 6.00 Build 0)  -->
<!DOCTYPE svg PUBLIC "-//W3C//DTD SVG 1.1//EN" "http://www.w3.org/Graphics/SVG/1.1/DTD/svg11.dtd">
<svg version="1.1" id="Layer_1" xmlns="http://www.w3.org/2000/svg" xmlns:xlink="http://www.w3.org/1999/xlink" x="0px" y="0px"
	 width="839px" height="200px" viewBox="0 0 839 200" enable-background="new 0 0 839 200" xml:space="preserve">
<g>
	<defs>
		<path id="SVGID_1_" d="M131.147,44.113l33.47,57.862l-33.47,57.863h40.548l30.323-52.438c1.945-3.354,1.945-7.497,0-10.85
			l-30.323-52.438H131.147z"/>
	</defs>
	<clipPath id="SVGID_2_">
		<use xlink:href="#SVGID_1_"  overflow="visible"/>
	</clipPath>
	<polygon clip-path="url(#SVGID_2_)" fill="#FDC113" points="184.623,136.572 175.014,119.947 151.941,159.838 171.695,159.838 
		184.886,137.024 	"/>
	<polygon clip-path="url(#SVGID_2_)" fill="#0F9D58" points="164.617,101.975 175.014,119.947 151.941,159.838 131.147,159.838 	"/>
	<g clip-path="url(#SVGID_2_)">
		<defs>
			<rect id="SVGID_3_" x="15.479" y="-101.688" width="625.096" height="405.031"/>
		</defs>
		<clipPath id="SVGID_4_">
			<use xlink:href="#SVGID_3_"  overflow="visible"/>
		</clipPath>
		<g opacity="0.2" clip-path="url(#SVGID_4_)" enable-background="new    ">
			<g>
				<defs>
					<rect id="SVGID_5_" x="151.941" y="136.572" width="32.945" height="23.266"/>
				</defs>
				<clipPath id="SVGID_6_">
					<use xlink:href="#SVGID_5_"  overflow="visible"/>
				</clipPath>
				<polygon clip-path="url(#SVGID_6_)" fill="#BE3B26" points="171.695,158.934 152.465,158.934 151.941,159.838 171.695,159.838 
					184.886,137.024 184.623,136.572 				"/>
			</g>
		</g>
		<g opacity="0.2" clip-path="url(#SVGID_4_)" enable-background="new    ">
			<g>
				<defs>
					<rect id="SVGID_7_" x="131.147" y="158.934" width="21.318" height="0.904"/>
				</defs>
				<clipPath id="SVGID_8_">
					<use xlink:href="#SVGID_7_"  overflow="visible"/>
				</clipPath>
				<polygon clip-path="url(#SVGID_8_)" fill="#273238" points="131.672,158.934 131.147,159.838 151.941,159.838 152.465,158.934 
									"/>
			</g>
		</g>
		<g opacity="0.2" clip-path="url(#SVGID_4_)" enable-background="new    ">
			<g>
				<defs>
					<rect id="SVGID_9_" x="131.147" y="101.975" width="33.731" height="57.863"/>
				</defs>
				<clipPath id="SVGID_10_">
					<use xlink:href="#SVGID_9_"  overflow="visible"/>
				</clipPath>
				<polygon clip-path="url(#SVGID_10_)" fill="#FFFFFF" points="131.147,159.838 131.672,159.838 164.878,102.427 164.617,101.975 
									"/>
			</g>
		</g>
	</g>
	<g clip-path="url(#SVGID_2_)">
		<defs>
			<polygon id="SVGID_11_" points="184.886,137.024 184.886,137.024 175.014,119.947 172.59,124.135 			"/>
		</defs>
		<clipPath id="SVGID_12_">
			<use xlink:href="#SVGID_11_"  overflow="visible"/>
		</clipPath>
		<defs>
			<filter id="Adobe_OpacityMaskFilter" filterUnits="userSpaceOnUse" x="172.59" y="119.947" width="12.296" height="17.077">
				<feColorMatrix  type="matrix" values="1 0 0 0 0  0 1 0 0 0  0 0 1 0 0  0 0 0 1 0"/>
			</filter>
		</defs>
		<mask maskUnits="userSpaceOnUse" x="172.59" y="119.947" width="12.296" height="17.077" id="SVGID_13_">
			<g filter="url(#Adobe_OpacityMaskFilter)">
				
					<radialGradient id="SVGID_14_" cx="72.2739" cy="323.9336" r="0.7946" gradientTransform="matrix(44.2635 0 0 44.2635 -3014.3438 -14201.6875)" gradientUnits="userSpaceOnUse">
					<stop  offset="0" style="stop-color:#333333"/>
					<stop  offset="1" style="stop-color:#050505"/>
				</radialGradient>
				<rect x="172.59" y="119.947" clip-path="url(#SVGID_12_)" fill="url(#SVGID_14_)" width="12.296" height="17.077"/>
			</g>
		</mask>
		
			<radialGradient id="SVGID_15_" cx="72.272" cy="323.9355" r="0.9082" gradientTransform="matrix(44.2635 0 0 44.2635 -3014.2813 -14201.8125)" gradientUnits="userSpaceOnUse">
			<stop  offset="0" style="stop-color:#BE3B26"/>
			<stop  offset="1" style="stop-color:#BE3B26"/>
		</radialGradient>
		
			<rect x="172.59" y="119.947" clip-path="url(#SVGID_12_)" mask="url(#SVGID_13_)" fill="url(#SVGID_15_)" width="12.296" height="17.077"/>
	</g>
	<g clip-path="url(#SVGID_2_)">
		<defs>
			<polygon id="SVGID_16_" points="172.59,124.135 175.014,119.947 164.617,101.975 159.653,110.563 			"/>
		</defs>
		<clipPath id="SVGID_17_">
			<use xlink:href="#SVGID_16_"  overflow="visible"/>
		</clipPath>
		<defs>
			<filter id="Adobe_OpacityMaskFilter_1_" filterUnits="userSpaceOnUse" x="159.653" y="101.975" width="15.361" height="22.16">
				<feColorMatrix  type="matrix" values="1 0 0 0 0  0 1 0 0 0  0 0 1 0 0  0 0 0 1 0"/>
			</filter>
		</defs>
		<mask maskUnits="userSpaceOnUse" x="159.653" y="101.975" width="15.361" height="22.16" id="SVGID_18_">
			<g filter="url(#Adobe_OpacityMaskFilter_1_)">
				
					<radialGradient id="SVGID_19_" cx="72.2856" cy="323.9307" r="0.9024" gradientTransform="matrix(44.6228 0 0 44.6228 -3040.9375 -14317.8125)" gradientUnits="userSpaceOnUse">
					<stop  offset="0" style="stop-color:#333333"/>
					<stop  offset="1" style="stop-color:#050505"/>
				</radialGradient>
				<rect x="159.653" y="101.975" clip-path="url(#SVGID_17_)" fill="url(#SVGID_19_)" width="15.361" height="22.16"/>
			</g>
		</mask>
		
			<radialGradient id="SVGID_20_" cx="72.2866" cy="323.9316" r="0.9024" gradientTransform="matrix(44.6228 0 0 44.6228 -3040.9688 -14317.8438)" gradientUnits="userSpaceOnUse">
			<stop  offset="0" style="stop-color:#273238"/>
			<stop  offset="1" style="stop-color:#273238"/>
		</radialGradient>
		
			<rect x="159.653" y="101.975" clip-path="url(#SVGID_17_)" mask="url(#SVGID_18_)" fill="url(#SVGID_20_)" width="15.361" height="22.16"/>
	</g>
	<polygon clip-path="url(#SVGID_2_)" fill="#557EBF" points="151.941,44.113 131.147,44.113 184.886,137.024 195.273,119.061 
		195.283,119.046 	"/>
	<g clip-path="url(#SVGID_2_)">
		<defs>
			<rect id="SVGID_21_" x="15.479" y="-101.688" width="625.096" height="405.031"/>
		</defs>
		<clipPath id="SVGID_22_">
			<use xlink:href="#SVGID_21_"  overflow="visible"/>
		</clipPath>
		<path clip-path="url(#SVGID_22_)" fill="#DC4637" d="M202.018,107.4c1.945-3.354,1.945-7.497,0-10.85l-30.323-52.438h-19.754
			l43.342,74.933L202.018,107.4z"/>
		<g opacity="0.2" clip-path="url(#SVGID_22_)" enable-background="new    ">
			<g>
				<defs>
					<rect id="SVGID_23_" x="131.147" y="44.113" width="64.136" height="92.912"/>
				</defs>
				<clipPath id="SVGID_24_">
					<use xlink:href="#SVGID_23_"  overflow="visible"/>
				</clipPath>
				<polygon clip-path="url(#SVGID_24_)" fill="#2D3079" points="195.283,119.046 195.021,118.602 184.886,136.12 131.672,44.113 
					131.147,44.113 184.886,137.024 195.273,119.061 				"/>
			</g>
		</g>
		<g opacity="0.2" clip-path="url(#SVGID_22_)" enable-background="new    ">
			<g>
				<defs>
					<rect id="SVGID_25_" x="131.147" y="44.113" width="72.309" height="58.314"/>
				</defs>
				<clipPath id="SVGID_26_">
					<use xlink:href="#SVGID_25_"  overflow="visible"/>
				</clipPath>
				<path clip-path="url(#SVGID_26_)" fill="#FFFFFF" d="M171.695,45.018l30.323,52.437c0.895,1.546,1.357,3.253,1.429,4.972
					c0.081-2.025-0.378-4.069-1.429-5.876l-30.323-52.438h-40.548l0.525,0.905H171.695z"/>
			</g>
		</g>
		<g opacity="0.2" clip-path="url(#SVGID_22_)" enable-background="new    ">
			<g>
				<defs>
					<rect id="SVGID_27_" x="195.021" y="101.521" width="8.435" height="17.524"/>
				</defs>
				<clipPath id="SVGID_28_">
					<use xlink:href="#SVGID_27_"  overflow="visible"/>
				</clipPath>
				<path clip-path="url(#SVGID_28_)" fill="#3F2723" d="M195.283,119.046l6.735-11.646c1.05-1.809,1.51-3.854,1.429-5.879
					c-0.072,1.719-0.534,3.427-1.429,4.973l-6.997,12.107L195.283,119.046z"/>
			</g>
		</g>
	</g>
	<defs>
		<filter id="Adobe_OpacityMaskFilter_2_" filterUnits="userSpaceOnUse" x="131.147" y="44.113" width="72.816" height="115.725">
			<feColorMatrix  type="matrix" values="1 0 0 0 0  0 1 0 0 0  0 0 1 0 0  0 0 0 1 0"/>
		</filter>
	</defs>
	<mask maskUnits="userSpaceOnUse" x="131.147" y="44.113" width="72.816" height="115.725" id="SVGID_29_">
		<g filter="url(#Adobe_OpacityMaskFilter_2_)">
			
				<radialGradient id="SVGID_30_" cx="73.4736" cy="324.0508" r="0.904" gradientTransform="matrix(134.3503 0 0 134.3503 -9741 -43491.25)" gradientUnits="userSpaceOnUse">
				<stop  offset="0" style="stop-color:#1A1A1A"/>
				<stop  offset="1" style="stop-color:#000000"/>
			</radialGradient>
			<rect x="131.147" y="44.113" clip-path="url(#SVGID_2_)" fill="url(#SVGID_30_)" width="72.816" height="115.725"/>
		</g>
	</mask>
	
		<radialGradient id="SVGID_31_" cx="73.4736" cy="324.0508" r="0.904" gradientTransform="matrix(134.3503 0 0 134.3503 -9741 -43491.25)" gradientUnits="userSpaceOnUse">
		<stop  offset="0" style="stop-color:#FFFFFF"/>
		<stop  offset="1" style="stop-color:#FFFFFF"/>
	</radialGradient>
	
		<rect x="131.147" y="44.113" clip-path="url(#SVGID_2_)" mask="url(#SVGID_29_)" fill="url(#SVGID_31_)" width="72.816" height="115.725"/>
</g>
<g>
	<path fill="#6D6E71" stroke="#6D6E71" stroke-width="2" stroke-miterlimit="10" d="M283.358,97.28
		c0,7.466-2.216,13.417-6.646,17.846c-5.029,5.276-11.574,7.914-19.638,7.914c-7.716,0-14.274-2.675-19.675-8.025
		c-5.403-5.353-8.102-11.986-8.102-19.9c0-7.915,2.699-14.547,8.102-19.9c5.4-5.35,11.959-8.026,19.675-8.026
		c3.833,0,7.491,0.747,10.976,2.24c3.484,1.494,6.272,3.485,8.363,5.973l-4.704,4.704c-3.535-4.229-8.414-6.347-14.635-6.347
		c-5.626,0-10.491,1.978-14.598,5.936s-6.161,9.098-6.161,15.419c0,6.323,2.054,11.461,6.161,15.419
		c4.107,3.957,8.972,5.937,14.598,5.937c5.974,0,10.951-1.99,14.934-5.975c2.587-2.589,4.082-6.197,4.48-10.828h-19.414v-6.421
		h25.91C283.232,94.642,283.358,95.987,283.358,97.28z"/>
	<path fill="#6D6E71" stroke="#6D6E71" stroke-width="2" stroke-miterlimit="10" d="M291.72,121.848V68.383h16.353
		c8.214,0,14.784,2.477,19.713,7.43c4.928,4.954,7.392,11.387,7.392,19.302c0,7.914-2.464,14.349-7.392,19.301
		c-4.929,4.956-11.499,7.432-19.713,7.432H291.72z M298.59,115.274h9.482c6.172,0,11.063-1.766,14.673-5.3
		c3.608-3.534,5.413-8.487,5.413-14.86c0-6.321-1.805-11.263-5.413-14.822c-3.61-3.559-8.501-5.338-14.673-5.338h-9.482V115.274z"/>
	<path fill="#6D6E71" stroke="#6D6E71" stroke-width="2" stroke-miterlimit="10" d="M394.763,97.28
		c0,7.466-2.216,13.417-6.646,17.846c-5.029,5.276-11.574,7.914-19.638,7.914c-7.717,0-14.274-2.675-19.675-8.025
		c-5.402-5.353-8.102-11.986-8.102-19.9c0-7.915,2.7-14.547,8.102-19.9c5.401-5.35,11.958-8.026,19.675-8.026
		c3.833,0,7.491,0.747,10.976,2.24c3.484,1.494,6.272,3.485,8.363,5.973l-4.704,4.704c-3.535-4.229-8.414-6.347-14.635-6.347
		c-5.626,0-10.491,1.978-14.598,5.936c-4.107,3.958-6.161,9.098-6.161,15.419c0,6.323,2.054,11.461,6.161,15.419
		c4.106,3.957,8.972,5.937,14.598,5.937c5.973,0,10.951-1.99,14.934-5.975c2.587-2.589,4.081-6.197,4.48-10.828h-19.414v-6.421
		h25.909C394.637,94.642,394.763,95.987,394.763,97.28z"/>
	<path fill="#6D6E71" d="M448.82,123.04c-3.884,0-7.679-1.267-11.386-3.807c-3.71-2.54-6.137-6.1-7.281-10.679l6.272-2.539
		c0.747,2.939,2.275,5.415,4.592,7.431c2.313,2.016,4.916,3.024,7.803,3.024c2.987,0,5.538-0.784,7.653-2.354
		c2.115-1.565,3.174-3.695,3.174-6.383c0-2.987-1.059-5.29-3.174-6.906c-2.115-1.618-5.463-3.124-10.042-4.518
		c-4.73-1.493-8.314-3.422-10.752-5.787c-2.441-2.364-3.66-5.388-3.66-9.073c0-3.833,1.519-7.168,4.555-10.005
		c3.036-2.837,6.994-4.256,11.873-4.256c4.529,0,8.213,1.133,11.051,3.397c2.839,2.266,4.679,4.742,5.524,7.43l-6.271,2.612
		c-0.448-1.691-1.558-3.26-3.322-4.704c-1.768-1.443-4.045-2.166-6.832-2.166c-2.64,0-4.891,0.735-6.758,2.203
		c-1.867,1.469-2.799,3.298-2.799,5.488c0,1.992,0.857,3.673,2.574,5.041c1.717,1.369,4.244,2.602,7.579,3.696
		c2.639,0.847,4.841,1.668,6.607,2.464c1.768,0.797,3.56,1.856,5.378,3.174c1.816,1.319,3.185,2.961,4.106,4.928
		c0.92,1.967,1.382,4.243,1.382,6.833c0,2.588-0.536,4.903-1.606,6.943c-1.071,2.042-2.489,3.658-4.255,4.854
		c-1.769,1.195-3.673,2.104-5.713,2.727C453.052,122.729,450.959,123.04,448.82,123.04z"/>
	<path fill="#6D6E71" d="M480.702,121.848h-6.868V85.259h6.57v5.973h0.298c0.696-1.99,2.129-3.634,4.294-4.928
		c2.165-1.294,4.268-1.942,6.309-1.942c2.042,0,3.759,0.299,5.152,0.897l-2.612,6.421c-0.896-0.348-2.116-0.523-3.659-0.523
		c-2.49,0-4.691,0.983-6.608,2.949c-1.915,1.967-2.875,4.542-2.875,7.729V121.848z"/>
	<path fill="#6D6E71" d="M508.404,76.074c-0.945,0.947-2.09,1.419-3.435,1.419c-1.344,0-2.49-0.473-3.434-1.419
		c-0.946-0.945-1.42-2.091-1.42-3.434c0-1.345,0.474-2.49,1.42-3.436c0.943-0.945,2.09-1.418,3.434-1.418
		c1.345,0,2.489,0.473,3.435,1.418c0.945,0.946,1.42,2.091,1.42,3.436C509.824,73.983,509.35,75.128,508.404,76.074z
		 M508.404,121.848h-6.868V85.259h6.868V121.848z"/>
	<path fill="#6D6E71" d="M534.985,121.848V68.383h6.869v46.891h23.146v6.573H534.985z"/>
	<path fill="#6D6E71" d="M582.548,123.04c-3.882,0-7.13-1.121-9.745-3.36c-2.613-2.238-3.92-5.199-3.92-8.886
		c0-3.981,1.544-7.103,4.629-9.37c3.087-2.264,6.895-3.397,11.426-3.397c4.03,0,7.342,0.746,9.932,2.24v-1.044
		c0-2.688-0.922-4.841-2.764-6.459c-1.844-1.617-4.107-2.427-6.795-2.427c-1.992,0-3.796,0.474-5.414,1.419
		c-1.617,0.945-2.724,2.239-3.322,3.882l-6.272-2.688c0.846-2.19,2.514-4.219,5.003-6.085c2.487-1.867,5.772-2.8,9.856-2.8
		c4.678,0,8.56,1.37,11.647,4.107c3.087,2.737,4.63,6.595,4.63,11.574v22.103h-6.569v-5.079h-0.3
		C591.832,120.95,587.824,123.04,582.548,123.04z M583.667,116.769c2.839,0,5.414-1.058,7.729-3.174
		c2.314-2.115,3.473-4.615,3.473-7.504c-1.943-1.592-4.854-2.391-8.737-2.391c-3.336,0-5.851,0.725-7.542,2.167
		c-1.693,1.444-2.538,3.136-2.538,5.076c0,1.793,0.771,3.211,2.315,4.257C579.909,116.246,581.676,116.769,583.667,116.769z"/>
	<path fill="#6D6E71" d="M615.773,85.259v5.077h0.299c0.996-1.741,2.564-3.222,4.705-4.442c2.14-1.22,4.43-1.83,6.869-1.83
		c4.529,0,7.989,1.394,10.378,4.182c2.391,2.789,3.585,6.521,3.585,11.201v22.402h-6.869V100.49c0-6.769-3.012-10.155-9.033-10.155
		c-2.839,0-5.154,1.133-6.945,3.398c-1.793,2.265-2.689,4.89-2.689,7.875v20.238h-6.869V85.259H615.773z"/>
	<path fill="#6D6E71" d="M656.543,68.383v32.928l15.829-16.053h8.811v0.298l-14.261,14.263l14.933,21.728v0.301h-8.287
		l-11.499-17.25l-5.525,5.525v11.725h-6.869V68.383H656.543z"/>
	<path fill="#6D6E71" d="M696.566,123.04c-3.885,0-7.132-1.121-9.745-3.36c-2.613-2.238-3.921-5.199-3.921-8.886
		c0-3.981,1.541-7.103,4.63-9.37c3.086-2.264,6.895-3.397,11.424-3.397c4.032,0,7.343,0.746,9.932,2.24v-1.044
		c0-2.688-0.923-4.841-2.763-6.459c-1.842-1.617-4.107-2.427-6.795-2.427c-1.991,0-3.797,0.474-5.414,1.419
		s-2.724,2.239-3.322,3.882l-6.272-2.688c0.847-2.19,2.514-4.219,5.004-6.085c2.488-1.867,5.773-2.8,9.856-2.8
		c4.677,0,8.56,1.37,11.646,4.107c3.088,2.737,4.63,6.595,4.63,11.574v22.103h-6.57v-5.079h-0.299
		C705.85,120.95,701.843,123.04,696.566,123.04z M697.684,116.769c2.84,0,5.415-1.058,7.731-3.174
		c2.313-2.115,3.471-4.615,3.471-7.504c-1.941-1.592-4.853-2.391-8.735-2.391c-3.337,0-5.851,0.725-7.544,2.167
		c-1.691,1.444-2.537,3.136-2.537,5.076c0,1.793,0.771,3.211,2.314,4.257C693.926,116.246,695.692,116.769,697.684,116.769z"/>
</g>
</svg>
