<?xml version="1.0" encoding="utf-8"?>
<!-- Generator: Adobe Illustrator 20.0.0, SVG Export Plug-In . SVG Version: 6.00 Build 0)  -->
<svg version="1.1" id="Layer_4" xmlns="http://www.w3.org/2000/svg" xmlns:xlink="http://www.w3.org/1999/xlink" x="0px" y="0px"
	 viewBox="0 0 1230.6 128" style="enable-background:new 0 0 1230.6 128;" xml:space="preserve">
<style type="text/css">
	.st0{fill:none;}
	.st1{fill:#FFC107;}
	.st2{fill:#0F9D58;}
	.st3{opacity:0.2;fill:#BF360C;enable-background:new    ;}
	.st4{opacity:0.2;fill:#263238;enable-background:new    ;}
	.st5{opacity:0.2;fill:#FFFFFF;enable-background:new    ;}
	.st6{fill:url(#XMLID_2_);}
	.st7{fill:url(#XMLID_3_);}
	.st8{fill:#4285F4;}
	.st9{fill:#DB4437;}
	.st10{opacity:0.2;fill:#1A237E;enable-background:new    ;}
	.st11{opacity:0.2;fill:#3E2723;enable-background:new    ;}
	.st12{fill:url(#XMLID_4_);}
	.st13{fill:#767676;}
</style>
<g id="XMLID_50_">
	<g id="XMLID_72_">
		<path id="XMLID_7_" class="st0" d="M78.4,58L44.8,0H0l37,64L0,128h44.8l33.5-58C80.5,66.3,80.5,61.7,78.4,58z"/>
		<polygon id="XMLID_80_" class="st1" points="59.2,102.3 48.5,83.9 23,128 44.8,128 59.4,102.8 		"/>
		<path id="XMLID_8_" class="st0" d="M78.4,58L44.8,0H0l37,64L0,128h44.8l33.5-58C80.5,66.3,80.5,61.7,78.4,58z"/>
		<polygon class="st2" points="37,64 48.5,83.9 23,128 0,128 		"/>
		<path id="XMLID_9_" class="st0" d="M78.4,58L44.8,0H0l37,64L0,128h44.8l33.5-58C80.5,66.3,80.5,61.7,78.4,58z"/>
		<polygon class="st3" points="44.8,127 23.6,127 23,128 44.8,128 59.4,102.8 59.2,102.3 		"/>
		<path id="XMLID_10_" class="st0" d="M78.4,58L44.8,0H0l37,64L0,128h44.8l33.5-58C80.5,66.3,80.5,61.7,78.4,58z"/>
		<polygon class="st4" points="0.6,127 0,128 23,128 23.6,127 		"/>
		<path id="XMLID_11_" class="st0" d="M78.4,58L44.8,0H0l37,64L0,128h44.8l33.5-58C80.5,66.3,80.5,61.7,78.4,58z"/>
		<polygon class="st5" points="0,128 0.6,128 37.3,64.5 37,64 		"/>
		<path id="XMLID_12_" class="st0" d="M78.4,58L44.8,0H0l37,64L0,128h44.8l33.5-58C80.5,66.3,80.5,61.7,78.4,58z"/>
		
			<radialGradient id="XMLID_2_" cx="59.2766" cy="25.086" r="44.2635" gradientTransform="matrix(1 0 0 -1 0 127.46)" gradientUnits="userSpaceOnUse">
			<stop  offset="0" style="stop-color:#BF360C;stop-opacity:0.2"/>
			<stop  offset="1" style="stop-color:#BF360C;stop-opacity:2.000000e-02"/>
		</radialGradient>
		<polygon id="XMLID_79_" class="st6" points="59.4,102.8 59.4,102.8 48.5,83.9 45.8,88.5 		"/>
		<path id="XMLID_13_" class="st0" d="M78.4,58L44.8,0H0l37,64L0,128h44.8l33.5-58C80.5,66.3,80.5,61.7,78.4,58z"/>
		
			<radialGradient id="XMLID_3_" cx="59.1509" cy="24.8061" r="44.6228" gradientTransform="matrix(1 0 0 -1 0 127.46)" gradientUnits="userSpaceOnUse">
			<stop  offset="0" style="stop-color:#263238;stop-opacity:0.2"/>
			<stop  offset="1" style="stop-color:#263238;stop-opacity:2.000000e-02"/>
		</radialGradient>
		<polygon id="XMLID_78_" class="st7" points="45.8,88.5 48.5,83.9 37,64 31.5,73.5 		"/>
		<path id="XMLID_14_" class="st0" d="M78.4,58L44.8,0H0l37,64L0,128h44.8l33.5-58C80.5,66.3,80.5,61.7,78.4,58z"/>
		<g id="XMLID_75_">
			<g id="XMLID_76_">
				<polygon id="XMLID_77_" class="st8" points="23,0 0,0 59.4,102.8 70.9,82.9 70.9,82.9 				"/>
			</g>
		</g>
		<path id="XMLID_15_" class="st0" d="M78.4,58L44.8,0H0l37,64L0,128h44.8l33.5-58C80.5,66.3,80.5,61.7,78.4,58z"/>
		<path class="st9" d="M78.4,70c2.1-3.7,2.1-8.3,0-12L44.8,0H23l47.9,82.9L78.4,70z"/>
		<path id="XMLID_16_" class="st0" d="M78.4,58L44.8,0H0l37,64L0,128h44.8l33.5-58C80.5,66.3,80.5,61.7,78.4,58z"/>
		<polygon class="st10" points="70.9,82.9 70.7,82.4 59.4,101.8 0.6,0 0,0 59.4,102.8 70.9,82.9 		"/>
		<path id="XMLID_17_" class="st0" d="M78.4,58L44.8,0H0l37,64L0,128h44.8l33.5-58C80.5,66.3,80.5,61.7,78.4,58z"/>
		<path class="st5" d="M44.8,1l33.5,58c1,1.7,1.5,3.6,1.6,5.5c0.1-2.2-0.4-4.5-1.6-6.5L44.8,0H0l0.6,1H44.8z"/>
		<path id="XMLID_18_" class="st0" d="M78.4,58L44.8,0H0l37,64L0,128h44.8l33.5-58C80.5,66.3,80.5,61.7,78.4,58z"/>
		<path id="XMLID_74_" class="st11" d="M70.9,82.9L78.4,70c1.2-2,1.7-4.3,1.6-6.5c-0.1,1.9-0.6,3.8-1.6,5.5l-7.7,13.4L70.9,82.9z"/>
		<path id="XMLID_19_" class="st0" d="M78.4,58L44.8,0H0l37,64L0,128h44.8l33.5-58C80.5,66.3,80.5,61.7,78.4,58z"/>
		
			<radialGradient id="XMLID_4_" cx="-1" cy="126.46" r="134.3503" gradientTransform="matrix(1 0 0 -1 0 127.46)" gradientUnits="userSpaceOnUse">
			<stop  offset="0" style="stop-color:#FFFFFF;stop-opacity:0.1"/>
			<stop  offset="1" style="stop-color:#FFFFFF;stop-opacity:0"/>
		</radialGradient>
		<path id="XMLID_73_" class="st12" d="M78.4,58L44.8,0H0l37,64L0,128h44.8l33.5-58C80.5,66.3,80.5,61.7,78.4,58z"/>
	</g>
</g>
<g id="XMLID_6_">
	<path class="st13" d="M230.3,66.8c0,14.1-4.2,25.3-12.5,33.7c-9.5,10-21.9,14.9-37.1,14.9c-14.6,0-27-5.1-37.2-15.2
		c-10.2-10.1-15.3-22.6-15.3-37.6s5.1-27.5,15.3-37.6C153.7,15,166.1,10,180.7,10c7.2,0,14.1,1.4,20.7,4.2
		c6.6,2.8,11.8,6.6,15.8,11.3l-8.9,8.9c-6.7-8-15.9-12-27.6-12c-10.6,0-19.8,3.7-27.6,11.2c-7.8,7.5-11.6,17.2-11.6,29.1
		c0,11.9,3.9,21.6,11.6,29.1s16.9,11.2,27.6,11.2c11.3,0,20.7-3.8,28.2-11.3c4.9-4.9,7.7-11.7,8.5-20.4h-36.7V59.2h48.9
		C230.1,61.8,230.3,64.4,230.3,66.8z"/>
	<path class="st13" d="M243.4,113.2v-101h30.9c15.5,0,27.9,4.7,37.2,14c9.3,9.4,14,21.5,14,36.4s-4.7,27.1-14,36.4
		c-9.3,9.4-21.7,14-37.2,14H243.4z M256.4,100.8h17.9c11.7,0,20.9-3.3,27.7-10c6.8-6.7,10.2-16,10.2-28.1c0-11.9-3.4-21.3-10.2-28
		c-6.8-6.7-16.1-10.1-27.7-10.1h-17.9V100.8z"/>
	<path class="st13" d="M435.8,66.8c0,14.1-4.2,25.3-12.5,33.7c-9.5,10-21.9,14.9-37.1,14.9c-14.6,0-27-5.1-37.2-15.2
		c-10.2-10.1-15.3-22.6-15.3-37.6s5.1-27.5,15.3-37.6C359.2,15,371.6,10,386.2,10c7.2,0,14.1,1.4,20.7,4.2
		c6.6,2.8,11.8,6.6,15.8,11.3l-8.9,8.9c-6.7-8-15.9-12-27.6-12c-10.6,0-19.8,3.7-27.6,11.2c-7.8,7.5-11.6,17.2-11.6,29.1
		c0,11.9,3.9,21.6,11.6,29.1s16.9,11.2,27.6,11.2c11.3,0,20.7-3.8,28.2-11.3c4.9-4.9,7.7-11.7,8.5-20.4h-36.7V59.2h48.9
		C435.6,61.8,435.8,64.4,435.8,66.8z"/>
	<path class="st13" d="M477.5,113.2V99.7l53.7-75h-51.5V12.2h66.6v13.5l-53.7,75h54.3v12.4H477.5z"/>
	<path class="st13" d="M570.7,26.8c-1.8,1.8-3.9,2.7-6.5,2.7s-4.7-0.9-6.5-2.7c-1.8-1.8-2.7-3.9-2.7-6.5s0.9-4.7,2.7-6.5
		c1.8-1.8,3.9-2.7,6.5-2.7s4.7,0.9,6.5,2.7c1.8,1.8,2.7,3.9,2.7,6.5S572.4,25,570.7,26.8z M570.7,113.2h-13V44.1h13V113.2z"/>
	<path class="st13" d="M615.7,115.5c-10.4,0-18.9-3.5-25.5-10.4c-6.5-7-9.8-15.7-9.8-26.4c0-10.1,3.2-18.7,9.5-25.9
		c6.3-7.2,14.5-10.9,24.3-10.9c10.2,0,18.4,3.3,24.6,10c6.2,6.7,9.2,15.6,9.2,26.8L648,81h-54.6c0.4,7,2.7,12.5,7,16.5
		c4.3,4,9.3,6.1,15,6.1c9.3,0,15.6-3.9,18.9-11.8l11.6,4.8c-2.3,5.4-6,9.8-11.1,13.5C629.6,113.6,623.2,115.5,615.7,115.5z
		 M634.3,70.3c-0.3-3.9-2.1-7.7-5.4-11.3c-3.3-3.6-8.3-5.4-14.9-5.4c-4.8,0-9,1.5-12.5,4.5c-3.5,3-5.9,7.1-7.3,12.1H634.3z"/>
	<path class="st13" d="M670.6,113.2h-13v-101h13V113.2z"/>
	<path class="st13" d="M690.2,52.4c6.7-7,15.2-10.5,25.5-10.5c10.3,0,18.8,3.5,25.5,10.5c6.7,7,10,15.8,10,26.3
		c0,10.5-3.3,19.3-10,26.3c-6.7,7-15.2,10.5-25.5,10.5c-10.3,0-18.8-3.5-25.5-10.5c-6.7-7-10-15.8-10-26.3
		C680.2,68.1,683.6,59.4,690.2,52.4z M699.9,96.8c4.5,4.6,9.8,6.8,15.9,6.8c6.1,0,11.4-2.3,15.9-6.8c4.5-4.6,6.7-10.6,6.7-18.1
		c0-7.5-2.2-13.6-6.7-18.1c-4.5-4.6-9.8-6.8-15.9-6.8c-6.1,0-11.4,2.3-15.9,6.8c-4.5,4.6-6.7,10.6-6.7,18.1
		C693.2,86.2,695.4,92.2,699.9,96.8z"/>
	<path class="st13" d="M773.2,44.1v9.6h0.6c1.9-3.3,4.8-6.1,8.9-8.4c4-2.3,8.4-3.5,13-3.5c8.6,0,15.1,2.6,19.6,7.9
		c4.5,5.3,6.8,12.3,6.8,21.2v42.3h-13V72.9c0-12.8-5.7-19.2-17.1-19.2c-5.4,0-9.7,2.1-13.1,6.4c-3.4,4.3-5.1,9.2-5.1,14.9v38.2h-13
		V44.1H773.2z"/>
	<path class="st13" d="M856.5,115.5c-7.3,0-13.5-2.1-18.4-6.3c-4.9-4.2-7.4-9.8-7.4-16.8c0-7.5,2.9-13.4,8.7-17.7
		c5.8-4.3,13-6.4,21.6-6.4c7.6,0,13.9,1.4,18.8,4.2v-2c0-5.1-1.7-9.1-5.2-12.2c-3.5-3.1-7.8-4.6-12.8-4.6c-3.8,0-7.2,0.9-10.2,2.7
		c-3.1,1.8-5.1,4.2-6.3,7.3l-11.8-5.1c1.6-4.1,4.7-8,9.4-11.5c4.7-3.5,10.9-5.3,18.6-5.3c8.8,0,16.2,2.6,22,7.8
		c5.8,5.2,8.7,12.5,8.7,21.9v41.7h-12.4v-9.6h-0.6C874,111.5,866.5,115.5,856.5,115.5z M858.6,103.6c5.4,0,10.2-2,14.6-6
		c4.4-4,6.6-8.7,6.6-14.2c-3.7-3-9.2-4.5-16.5-4.5c-6.3,0-11,1.4-14.2,4.1c-3.2,2.7-4.8,5.9-4.8,9.6c0,3.4,1.5,6.1,4.4,8
		C851.5,102.6,854.9,103.6,858.6,103.6z"/>
	<path class="st13" d="M1037.8,66.8c0,14.1-4.2,25.3-12.5,33.7c-9.5,10-21.9,14.9-37.1,14.9c-14.6,0-27-5.1-37.2-15.2
		c-10.2-10.1-15.3-22.6-15.3-37.6s5.1-27.5,15.3-37.6C961.2,15,973.6,10,988.2,10c7.2,0,14.1,1.4,20.7,4.2
		c6.6,2.8,11.8,6.6,15.8,11.3l-8.9,8.9c-6.7-8-15.9-12-27.6-12c-10.6,0-19.8,3.7-27.6,11.2c-7.8,7.5-11.6,17.2-11.6,29.1
		c0,11.9,3.9,21.6,11.6,29.1s16.9,11.2,27.6,11.2c11.3,0,20.7-3.8,28.2-11.3c4.9-4.9,7.7-11.7,8.5-20.4h-36.7V59.2h48.9
		C1037.6,61.8,1037.8,64.4,1037.8,66.8z"/>
	<path class="st13" d="M1055.4,52.4c6.7-7,15.2-10.5,25.5-10.5c10.3,0,18.8,3.5,25.5,10.5c6.7,7,10,15.8,10,26.3
		c0,10.5-3.3,19.3-10,26.3c-6.7,7-15.2,10.5-25.5,10.5c-10.3,0-18.8-3.5-25.5-10.5c-6.7-7-10-15.8-10-26.3
		C1045.4,68.1,1048.8,59.4,1055.4,52.4z M1065.1,96.8c4.5,4.6,9.8,6.8,15.9,6.8c6.1,0,11.4-2.3,15.9-6.8c4.5-4.6,6.7-10.6,6.7-18.1
		c0-7.5-2.2-13.6-6.7-18.1c-4.5-4.6-9.8-6.8-15.9-6.8c-6.1,0-11.4,2.3-15.9,6.8c-4.5,4.6-6.7,10.6-6.7,18.1
		C1058.4,86.2,1060.6,92.2,1065.1,96.8z M1086,30.3h-11.3l7.3-18h14.1L1086,30.3z"/>
	<path class="st13" d="M1139,113.2h-13V44.1h12.4v11.3h0.6c1.3-3.8,4-6.9,8.1-9.3c4.1-2.4,8.1-3.7,11.9-3.7c3.9,0,7.1,0.6,9.7,1.7
		l-4.9,12.1c-1.7-0.7-4-1-6.9-1c-4.7,0-8.9,1.9-12.5,5.6c-3.6,3.7-5.4,8.6-5.4,14.6V113.2z"/>
	<path class="st13" d="M1194.9,115.5c-7.3,0-13.5-2.1-18.4-6.3c-4.9-4.2-7.4-9.8-7.4-16.8c0-7.5,2.9-13.4,8.7-17.7
		c5.8-4.3,13-6.4,21.6-6.4c7.6,0,13.9,1.4,18.8,4.2v-2c0-5.1-1.7-9.1-5.2-12.2c-3.5-3.1-7.8-4.6-12.8-4.6c-3.8,0-7.2,0.9-10.2,2.7
		c-3.1,1.8-5.1,4.2-6.3,7.3l-11.8-5.1c1.6-4.1,4.7-8,9.4-11.5c4.7-3.5,10.9-5.3,18.6-5.3c8.8,0,16.2,2.6,22,7.8
		c5.8,5.2,8.7,12.5,8.7,21.9v41.7h-12.4v-9.6h-0.6C1212.5,111.5,1204.9,115.5,1194.9,115.5z M1197,103.6c5.4,0,10.2-2,14.6-6
		c4.4-4,6.6-8.7,6.6-14.2c-3.7-3-9.2-4.5-16.5-4.5c-6.3,0-11,1.4-14.2,4.1c-3.2,2.7-4.8,5.9-4.8,9.6c0,3.4,1.5,6.1,4.4,8
		C1189.9,102.6,1193.3,103.6,1197,103.6z"/>
</g>
</svg>
