<?xml version="1.0" encoding="utf-8"?>
<!-- Generator: Adobe Illustrator 21.0.2, SVG Export Plug-In . SVG Version: 6.00 Build 0)  -->
<svg version="1.1" id="Layer_1" xmlns="http://www.w3.org/2000/svg" xmlns:xlink="http://www.w3.org/1999/xlink" x="0px" y="0px"
	 viewBox="0 0 841.9 595.3" style="enable-background:new 0 0 841.9 595.3;" xml:space="preserve">
<style type="text/css">
	.st0{opacity:0.5;}
	.st1{fill:#010101;}
	.st2{fill:none;}
	.st3{fill:#FDC113;}
	.st4{fill:#0F9D58;}
	.st5{opacity:0.2;fill:#BE3B26;enable-background:new    ;}
	.st6{opacity:0.2;fill:#273339;enable-background:new    ;}
	.st7{opacity:0.2;fill:#FFFFFF;enable-background:new    ;}
	.st8{fill:url(#XMLID_2_);}
	.st9{fill:url(#XMLID_3_);}
	.st10{fill:#557EBF;}
	.st11{fill:#DC4537;}
	.st12{opacity:0.2;fill:#2D3079;enable-background:new    ;}
	.st13{opacity:0.2;fill:#3E2823;enable-background:new    ;}
	.st14{fill:url(#XMLID_4_);}
	.st15{opacity:0.5;fill:#010101;}
</style>
<g>
	<g id="XMLID_292_" class="st0">
		<path id="XMLID_316_" class="st1" d="M379.6,327.9v-68.6h21c10.5,0,18.9,3.2,25.2,9.5c6.4,6.3,9.5,14.6,9.5,24.8
			c0,10.3-3.2,18.6-9.5,24.9c-6.4,6.3-14.8,9.4-25.2,9.4H379.6z M388.4,267.8v51.7h12.2c8,0,14.3-2.3,18.9-6.8
			c4.6-4.6,6.9-10.9,6.9-19c0-8-2.3-14.4-6.9-19c-4.6-4.6-10.9-6.9-18.9-6.9H388.4z"/>
		<path id="XMLID_313_" class="st1" d="M462,279.5c6.5,0,11.7,1.7,15.4,5.2c3.8,3.5,5.7,8.3,5.7,14.3v28.9h-8.4v-6.5h-0.4
			c-3.6,5.4-8.5,8-14.6,8c-5.2,0-9.5-1.5-13-4.6c-3.5-3.1-5.2-6.9-5.2-11.5c0-4.9,1.8-8.7,5.5-11.6c3.7-2.9,8.6-4.3,14.7-4.3
			c5.2,0,9.5,1,12.9,2.9v-2c0-3.1-1.2-5.7-3.6-7.8c-2.4-2.1-5.3-3.2-8.5-3.2c-4.9,0-8.8,2.1-11.7,6.2l-7.8-4.9
			C447.4,282.5,453.7,279.5,462,279.5z M450.6,313.6c0,2.3,1,4.2,2.9,5.7c1.9,1.5,4.2,2.3,6.8,2.3c3.7,0,7-1.4,9.9-4.1
			c2.9-2.7,4.4-6,4.4-9.7c-2.7-2.2-6.6-3.3-11.5-3.3c-3.6,0-6.6,0.9-9,2.6C451.8,308.9,450.6,311,450.6,313.6z"/>
		<path id="XMLID_311_" class="st1" d="M534.3,327.9h-8.4v-6.5h-0.4c-1.3,2.3-3.4,4.2-6.2,5.7c-2.8,1.5-5.7,2.3-8.7,2.3
			c-5.7,0-10.2-1.6-13.3-4.9c-3.1-3.3-4.6-8-4.6-14V281h8.8v28.9c0.2,7.7,4.1,11.5,11.6,11.5c3.5,0,6.5-1.4,8.8-4.3
			c2.4-2.8,3.5-6.2,3.5-10.2v-26h8.8V327.9z"/>
		<path id="XMLID_308_" class="st1" d="M565.3,350.2c-2.6,0-5.1-0.3-7.4-1c-2.3-0.7-4.4-1.6-6.3-2.8c-1.9-1.2-3.5-2.7-4.8-4.3
			c-1.3-1.7-2.4-3.5-3.1-5.6l8.3-3.4c1,2.7,2.6,4.9,5,6.6c2.4,1.7,5.1,2.5,8.2,2.5c4.8,0,8.5-1.4,11.2-4.3c2.7-2.9,4-6.8,4-11.9
			v-4.5h-0.4c-1.7,2.5-3.9,4.5-6.8,5.9c-2.8,1.4-5.9,2.2-9.2,2.2c-6.1,0-11.4-2.4-15.8-7.2c-4.3-4.9-6.5-10.9-6.5-17.8
			s2.2-12.9,6.5-17.7c4.4-4.9,9.7-7.3,15.8-7.3c3.3,0,6.4,0.7,9.2,2.2c2.8,1.4,5.1,3.4,6.8,5.9h0.4V281h8.4v44.9
			c0,7.5-2.1,13.4-6.4,17.7C578.2,348,572.5,350.2,565.3,350.2z M565.6,321.4c4.3,0,7.9-1.6,10.6-4.7c2.9-3.1,4.3-7.2,4.3-12.3
			c0-4.9-1.4-9-4.3-12.2c-2.8-3.2-6.4-4.8-10.6-4.8c-4.2,0-7.8,1.6-10.6,4.8c-2.9,3.2-4.3,7.2-4.3,12.2c0,5,1.4,9,4.3,12.2
			C557.8,319.8,561.4,321.4,565.6,321.4z"/>
		<path id="XMLID_305_" class="st1" d="M617.1,279.5c6.5,0,11.7,1.7,15.4,5.2c3.8,3.5,5.7,8.3,5.7,14.3v28.9h-8.4v-6.5h-0.4
			c-3.6,5.4-8.5,8-14.6,8c-5.2,0-9.5-1.5-13-4.6c-3.5-3.1-5.2-6.9-5.2-11.5c0-4.9,1.8-8.7,5.5-11.6c3.7-2.9,8.6-4.3,14.7-4.3
			c5.2,0,9.5,1,12.9,2.9v-2c0-3.1-1.2-5.7-3.6-7.8c-2.4-2.1-5.3-3.2-8.5-3.2c-4.9,0-8.8,2.1-11.7,6.2l-7.8-4.9
			C602.4,282.5,608.7,279.5,617.1,279.5z M605.7,313.6c0,2.3,1,4.2,2.9,5.7c1.9,1.5,4.2,2.3,6.8,2.3c3.7,0,7-1.4,9.9-4.1
			c2.9-2.7,4.4-6,4.4-9.7c-2.7-2.2-6.6-3.3-11.5-3.3c-3.6,0-6.6,0.9-9,2.6C606.9,308.9,605.7,311,605.7,313.6z"/>
		<path id="XMLID_303_" class="st1" d="M669.9,327.9h-8.8l-19-46.9h9.6l13.8,36.4h0.2l14-36.4h9.4L669.9,327.9z"/>
		<path id="XMLID_300_" class="st1" d="M719.3,329.5c-3.4,0-6.6-0.7-9.4-2.2c-2.8-1.5-5-3.4-6.6-5.8h-0.4l0.4,6.5v20.7h-8.8V281h8.4
			v6.5h0.4c1.5-2.4,3.7-4.4,6.6-5.8c2.8-1.5,6-2.2,9.4-2.2c6.2,0,11.4,2.4,15.7,7.3c4.4,4.9,6.6,10.8,6.6,17.7
			c0,7-2.2,12.9-6.6,17.7C730.7,327,725.5,329.5,719.3,329.5z M717.8,321.4c4.2,0,7.8-1.6,10.6-4.8c2.9-3.1,4.3-7.2,4.3-12.2
			c0-4.9-1.4-9-4.3-12.2c-2.9-3.2-6.4-4.8-10.6-4.8c-4.3,0-7.9,1.6-10.7,4.8c-2.8,3.2-4.2,7.2-4.2,12.2c0,5,1.4,9.1,4.2,12.3
			C710,319.9,713.6,321.4,717.8,321.4z"/>
		<path id="XMLID_297_" class="st1" d="M760.6,264.8c0,1.7-0.6,3.2-1.8,4.4c-1.2,1.2-2.7,1.8-4.4,1.8c-1.7,0-3.2-0.6-4.4-1.8
			c-1.2-1.2-1.8-2.7-1.8-4.4c0-1.7,0.6-3.2,1.8-4.4c1.2-1.2,2.7-1.8,4.4-1.8c1.7,0,3.2,0.6,4.4,1.8
			C760,261.6,760.6,263.1,760.6,264.8z M758.7,281v46.9h-8.8V281H758.7z"/>
		<path id="XMLID_295_" class="st1" d="M779.1,259.3v68.6h-8.8v-68.6H779.1z"/>
		<path id="XMLID_293_" class="st1" d="M825.2,314.9c0,4.1-1.8,7.5-5.4,10.3c-3.6,2.8-8.1,4.2-13.5,4.2c-4.7,0-8.9-1.2-12.5-3.7
			c-3.6-2.5-6.1-5.7-7.7-9.7l7.9-3.4c1.2,2.8,2.8,5,5,6.6c2.2,1.6,4.6,2.3,7.2,2.3c2.8,0,5.2-0.6,7-1.8c1.9-1.2,2.8-2.6,2.8-4.3
			c0-3-2.3-5.2-6.9-6.6l-8-2c-9.1-2.3-13.7-6.7-13.7-13.2c0-4.3,1.7-7.7,5.2-10.3c3.5-2.6,7.9-3.9,13.4-3.9c4.2,0,7.9,1,11.3,3
			c3.4,2,5.7,4.6,7,8l-7.9,3.3c-0.9-2-2.3-3.5-4.4-4.6c-2-1.1-4.3-1.7-6.8-1.7c-2.3,0-4.4,0.6-6.2,1.7c-1.8,1.1-2.7,2.6-2.7,4.2
			c0,2.7,2.5,4.6,7.6,5.7l7.1,1.8C820.6,303.1,825.2,307.8,825.2,314.9z"/>
	</g>
	<g id="XMLID_244_">
		<g id="XMLID_262_">
			<g id="XMLID_263_">
				<path id="XMLID_291_" class="st2" d="M75.3,288.5l-25.1-43.4H16.7L44.3,293l-27.7,47.8h33.5l25.1-43.4
					C76.9,294.7,76.9,291.3,75.3,288.5z"/>
				<polygon id="XMLID_290_" class="st3" points="60.9,321.6 52.9,307.8 33.9,340.8 50.2,340.8 61.1,321.9 				"/>
				<path id="XMLID_289_" class="st2" d="M75.3,288.5l-25.1-43.4H16.7L44.3,293l-27.7,47.8h33.5l25.1-43.4
					C76.9,294.7,76.9,291.3,75.3,288.5z"/>
				<polygon id="XMLID_288_" class="st4" points="44.3,293 52.9,307.8 33.9,340.8 16.7,340.8 				"/>
				<path id="XMLID_287_" class="st2" d="M75.3,288.5l-25.1-43.4H16.7L44.3,293l-27.7,47.8h33.5l25.1-43.4
					C76.9,294.7,76.9,291.3,75.3,288.5z"/>
				<polygon id="XMLID_286_" class="st5" points="50.2,340.1 34.3,340.1 33.9,340.8 50.2,340.8 61.1,321.9 60.9,321.6 				"/>
				<path id="XMLID_285_" class="st2" d="M75.3,288.5l-25.1-43.4H16.7L44.3,293l-27.7,47.8h33.5l25.1-43.4
					C76.9,294.7,76.9,291.3,75.3,288.5z"/>
				<polygon id="XMLID_284_" class="st6" points="17.1,340.1 16.7,340.8 33.9,340.8 34.3,340.1 				"/>
				<path id="XMLID_283_" class="st2" d="M75.3,288.5l-25.1-43.4H16.7L44.3,293l-27.7,47.8h33.5l25.1-43.4
					C76.9,294.7,76.9,291.3,75.3,288.5z"/>
				<polygon id="XMLID_282_" class="st7" points="16.7,340.8 17.1,340.8 44.6,293.3 44.3,293 				"/>
				<path id="XMLID_281_" class="st2" d="M75.3,288.5l-25.1-43.4H16.7L44.3,293l-27.7,47.8h33.5l25.1-43.4
					C76.9,294.7,76.9,291.3,75.3,288.5z"/>
				
					<radialGradient id="XMLID_2_" cx="60.9735" cy="276.3488" r="33.0904" gradientTransform="matrix(1 0 0 -1 0 598)" gradientUnits="userSpaceOnUse">
					<stop  offset="0" style="stop-color:#BE3B26;stop-opacity:0.2"/>
					<stop  offset="1" style="stop-color:#BE3B26;stop-opacity:2.000000e-02"/>
				</radialGradient>
				<polygon id="XMLID_280_" class="st8" points="61.1,321.9 61.1,321.9 52.9,307.8 50.9,311.3 				"/>
				<path id="XMLID_279_" class="st2" d="M75.3,288.5l-25.1-43.4H16.7L44.3,293l-27.7,47.8h33.5l25.1-43.4
					C76.9,294.7,76.9,291.3,75.3,288.5z"/>
				
					<radialGradient id="XMLID_3_" cx="60.8796" cy="276.1396" r="33.3591" gradientTransform="matrix(1 0 0 -1 0 598)" gradientUnits="userSpaceOnUse">
					<stop  offset="0" style="stop-color:#273339;stop-opacity:0.2"/>
					<stop  offset="1" style="stop-color:#273339;stop-opacity:2.000000e-02"/>
				</radialGradient>
				<polygon id="XMLID_278_" class="st9" points="50.9,311.3 52.9,307.8 44.3,293 40.2,300.1 				"/>
				<path id="XMLID_277_" class="st2" d="M75.3,288.5l-25.1-43.4H16.7L44.3,293l-27.7,47.8h33.5l25.1-43.4
					C76.9,294.7,76.9,291.3,75.3,288.5z"/>
				<g id="XMLID_274_">
					<g id="XMLID_275_">
						<polygon id="XMLID_276_" class="st10" points="33.9,245.1 16.7,245.1 61.1,321.9 69.7,307.1 69.7,307.1 						"/>
					</g>
				</g>
				<path id="XMLID_273_" class="st2" d="M75.3,288.5l-25.1-43.4H16.7L44.3,293l-27.7,47.8h33.5l25.1-43.4
					C76.9,294.7,76.9,291.3,75.3,288.5z"/>
				<path id="XMLID_272_" class="st11" d="M75.3,297.4c1.6-2.8,1.6-6.2,0-9l-25.1-43.4H33.9l35.8,62L75.3,297.4z"/>
				<path id="XMLID_271_" class="st2" d="M75.3,288.5l-25.1-43.4H16.7L44.3,293l-27.7,47.8h33.5l25.1-43.4
					C76.9,294.7,76.9,291.3,75.3,288.5z"/>
				<polygon id="XMLID_270_" class="st12" points="69.7,307.1 69.5,306.7 61.1,321.2 17.1,245.1 16.7,245.1 61.1,321.9 69.7,307.1 
									"/>
				<path id="XMLID_269_" class="st2" d="M75.3,288.5l-25.1-43.4H16.7L44.3,293l-27.7,47.8h33.5l25.1-43.4
					C76.9,294.7,76.9,291.3,75.3,288.5z"/>
				<path id="XMLID_268_" class="st7" d="M50.2,245.9l25.1,43.4c0.7,1.3,1.1,2.7,1.2,4.1c0.1-1.7-0.3-3.4-1.2-4.9l-25.1-43.4H16.7
					l0.4,0.7H50.2z"/>
				<path id="XMLID_267_" class="st2" d="M75.3,288.5l-25.1-43.4H16.7L44.3,293l-27.7,47.8h33.5l25.1-43.4
					C76.9,294.7,76.9,291.3,75.3,288.5z"/>
				<path id="XMLID_266_" class="st13" d="M69.7,307.1l5.6-9.6c0.9-1.5,1.2-3.2,1.2-4.9c-0.1,1.4-0.4,2.8-1.2,4.1l-5.8,10
					L69.7,307.1z"/>
				<path id="XMLID_265_" class="st2" d="M75.3,288.5l-25.1-43.4H16.7L44.3,293l-27.7,47.8h33.5l25.1-43.4
					C76.9,294.7,76.9,291.3,75.3,288.5z"/>
				
					<radialGradient id="XMLID_4_" cx="15.912" cy="352.1339" r="100.4374" gradientTransform="matrix(1 0 0 -1 0 598)" gradientUnits="userSpaceOnUse">
					<stop  offset="0" style="stop-color:#FFFFFF;stop-opacity:0.1"/>
					<stop  offset="1" style="stop-color:#FFFFFF;stop-opacity:0"/>
				</radialGradient>
				<path id="XMLID_264_" class="st14" d="M75.3,288.5l-25.1-43.4H16.7L44.3,293l-27.7,47.8h33.5l25.1-43.4
					C76.9,294.7,76.9,291.3,75.3,288.5z"/>
			</g>
		</g>
		<path id="XMLID_259_" class="st15" d="M197.9,253.5h22.9c23.3,0,37.9,15.5,37.9,37.2c0,21.8-14.6,37.2-37.9,37.2h-22.9
			L197.9,253.5L197.9,253.5z M221.2,316.5c16.2,0,26.3-9,26.3-25.9c0-16.8-10-25.9-26.3-25.9h-12v51.8H221.2z"/>
		<path id="XMLID_258_" class="st15" d="M188.5,287.3h-35.6v11H178c-0.8,5.6-2.8,10-5.7,12.9c-3.7,3.7-9.5,7.8-19.7,7.8
			c-15.7,0-28-12.7-28-28.4c0-15.7,12.3-28.4,28-28.4c8.5,0,14.7,3.3,19.3,7.6l7.5-7.5c-6.4-6.1-14.9-10.8-26.8-10.8
			c-21.6,0-39.7,17.5-39.7,39.1c0,21.6,18.1,39.1,39.7,39.1c11.6,0,20.4-3.8,27.3-11c7.1-7.1,9.3-17,9.3-25
			C189.1,291.3,188.9,289.2,188.5,287.3z"/>
		<path id="XMLID_257_" class="st15" d="M341.6,287.3H306v11h25.1c-0.8,5.6-2.8,10-5.7,12.9c-3.7,3.7-9.5,7.8-19.7,7.8
			c-15.7,0-28-12.7-28-28.4c0-15.7,12.3-28.4,28-28.4c8.5,0,14.7,3.3,19.3,7.6l7.5-7.5c-6.4-6.1-14.9-10.8-26.8-10.8
			c-21.6,0-39.7,17.5-39.7,39.1c0,21.6,18.1,39.1,39.7,39.1c11.6,0,20.4-3.8,27.3-11c7.1-7.1,9.3-17,9.3-25
			C342.2,291.3,342,289.2,341.6,287.3z"/>
	</g>
</g>
</svg>
