<?xml version="1.0" encoding="utf-8"?>
<!-- Generator: Adobe Illustrator 19.1.0, SVG Export Plug-In . SVG Version: 6.00 Build 0)  -->
<svg version="1.1" id="Layer_1" xmlns="http://www.w3.org/2000/svg" xmlns:xlink="http://www.w3.org/1999/xlink" x="0px" y="0px"
	 viewBox="0 0 710 190" style="enable-background:new 0 0 710 190;" xml:space="preserve">
<style type="text/css">
	.st0{fill:#FFCC05;}
	.st1{fill:#F6921E;}
	.st2{fill:#E86A2D;}
	.st3{fill:#231F20;}
</style>
<g>
	<path class="st0" d="M106.1,42.7c2.5-4.3,8.8-4.3,11.3,0l7.2,12.5h16.7l-30-52l-30,52h17.6L106.1,42.7z"/>
	<polygon class="st0" points="75.7,64.6 111.3,125.6 181.6,125.6 146.3,64.6 	"/>
	<path class="st1" d="M42.2,172.2c-5,0-8.2-5.4-5.6-9.8l5.6-9.8l-8.7-15.1L5,186.9h57l-8.5-14.7H42.2z"/>
	<polygon class="st1" points="75.9,186.9 111.3,125.6 75.7,64.6 40.5,126 	"/>
	<polygon class="st2" points="181.6,125.6 111.3,125.6 75.9,186.9 146.1,186.9 	"/>
	<path class="st2" d="M188.5,137.6l-8.4,14.5l6,10.3c2.5,4.3-0.6,9.8-5.6,9.8h-11.9l-8.5,14.7h57L188.5,137.6z"/>
	<path class="st1" d="M247.6,68.2c7.2,0,13,2.1,17,4.6v8.3c-4.4-3.7-10.6-6.1-17.2-6.1c-13,0-21.8,9.6-21.8,21.8
		c0,11.8,8.3,22,22.1,22c4.3,0,8.3-1,11.3-2.6v-12.9h-12.4v-6.4h19.7v22.9c-4.9,3.4-12.1,5.6-19.2,5.6c-16.4,0-28.7-11.9-28.7-28.4
		C218.3,80.6,230.4,68.2,247.6,68.2z"/>
	<path class="st1" d="M283.6,68.8h32v6.6h-24.7v16.8h21.7v6.4h-21.7v19.1h25.4v6.6h-32.7V68.8z"/>
	<path class="st1" d="M349.1,75.6h-18.6V69H375v6.6h-18.6v48.9h-7.3V75.6z"/>
	<path class="st3" d="M400.6,113.1c5.1,3.8,11.7,5.5,16.6,5.5c6.6,0,11.3-3,11.3-9.1c0-7.1-6.5-8.4-13.8-10.4
		c-7.8-2.2-15.4-5.4-15.4-15.6c0-9.8,7.1-15.5,18-15.5c5.2,0,11.5,1.3,16,4.1v7.7c-5.1-3.5-11.4-5.1-16.1-5.1
		c-6.2,0-10.6,2.7-10.6,8.4c0,6.9,6.4,8.1,13.2,10c8.1,2.3,16,5.5,16,16.1c0,10.1-7.4,16.1-18.6,16.1c-5.4,0-11.7-1.5-16.5-4.2
		V113.1z"/>
	<path class="st3" d="M477.7,68.1c16.1,0,28.2,12.5,28.2,28.6c0,16.1-12.1,28.6-28.2,28.6c-16.1,0-28.2-12.5-28.2-28.6
		C449.5,80.6,461.6,68.1,477.7,68.1z M477.7,118.5c12.1,0,20.9-9.7,20.9-21.9s-8.8-21.9-20.9-21.9s-20.9,9.7-20.9,21.9
		S465.6,118.5,477.7,118.5z"/>
	<path class="st3" d="M548.8,68.1c5.8,0,11.3,1.5,15.7,3.9v8c-4.1-3.1-9.8-5.1-15.7-5.1c-12.7,0-21.6,9.5-21.6,21.9
		s8.9,21.9,22.2,21.9c6.1,0,11.6-2.1,16-5.6v8.1c-4.5,2.8-10.5,4.3-16.3,4.3c-16.9,0-29.1-12.2-29.1-28.5
		C519.8,81,531.4,68.1,548.8,68.1z"/>
	<path class="st3" d="M582.8,68.9h7.3v55.6h-7.3V68.9z"/>
	<path class="st3" d="M671.5,68.9h7.3v49H705v6.6h-33.5V68.9z"/>
	<path class="st3" d="M634.3,68.9h-7l-22.9,55.6h7.4l13.4-33.1c1.9-4.8,3.8-9.4,5.4-14h0.2c1.7,4.5,3.5,9.3,5.3,13.7l13.3,33.4h7.8
		L634.3,68.9z"/>
</g>
</svg>
