<svg id="Layer_1" xmlns="http://www.w3.org/2000/svg" viewBox="0 0 710 190"><style>.st0{fill:#FFCC05;} .st1{fill:#F6921E;} .st2{fill:#E86A2D;} .st3{fill:#231F20;}</style><path class="st0" d="M106.1 42.7c2.5-4.3 8.8-4.3 11.3 0l7.2 12.5h16.7l-30-52-30 52h17.6l7.2-12.5zM75.7 64.6l35.6 61h70.3l-35.3-61z"/><path class="st1" d="M42.2 172.2c-5 0-8.2-5.4-5.6-9.8l5.6-9.8-8.7-15.1L5 186.9h57l-8.5-14.7H42.2zM75.9 186.9l35.4-61.3-35.6-61L40.5 126z"/><path class="st2" d="M181.6 125.6h-70.3l-35.4 61.3h70.2zM188.5 137.6l-8.4 14.5 6 10.3c2.5 4.3-.6 9.8-5.6 9.8h-11.9l-8.5 14.7h57l-28.6-49.3z"/><path class="st1" d="M247.6 68.2c7.2 0 13 2.1 17 4.6v8.3c-4.4-3.7-10.6-6.1-17.2-6.1-13 0-21.8 9.6-21.8 21.8 0 11.8 8.3 22 22.1 22 4.3 0 8.3-1 11.3-2.6v-12.9h-12.4v-6.4h19.7v22.9c-4.9 3.4-12.1 5.6-19.2 5.6-16.4 0-28.7-11.9-28.7-28.4-.1-16.4 12-28.8 29.2-28.8zM283.6 68.8h32v6.6h-24.7v16.8h21.7v6.4h-21.7v19.1h25.4v6.6h-32.7V68.8zM349.1 75.6h-18.6V69H375v6.6h-18.6v48.9h-7.3V75.6z"/><path class="st3" d="M400.6 113.1c5.1 3.8 11.7 5.5 16.6 5.5 6.6 0 11.3-3 11.3-9.1 0-7.1-6.5-8.4-13.8-10.4-7.8-2.2-15.4-5.4-15.4-15.6 0-9.8 7.1-15.5 18-15.5 5.2 0 11.5 1.3 16 4.1v7.7c-5.1-3.5-11.4-5.1-16.1-5.1-6.2 0-10.6 2.7-10.6 8.4 0 6.9 6.4 8.1 13.2 10 8.1 2.3 16 5.5 16 16.1 0 10.1-7.4 16.1-18.6 16.1-5.4 0-11.7-1.5-16.5-4.2v-8zM477.7 68.1c16.1 0 28.2 12.5 28.2 28.6s-12.1 28.6-28.2 28.6-28.2-12.5-28.2-28.6 12.1-28.6 28.2-28.6zm0 50.4c12.1 0 20.9-9.7 20.9-21.9s-8.8-21.9-20.9-21.9-20.9 9.7-20.9 21.9 8.8 21.9 20.9 21.9zM548.8 68.1c5.8 0 11.3 1.5 15.7 3.9v8c-4.1-3.1-9.8-5.1-15.7-5.1-12.7 0-21.6 9.5-21.6 21.9s8.9 21.9 22.2 21.9c6.1 0 11.6-2.1 16-5.6v8.1c-4.5 2.8-10.5 4.3-16.3 4.3-16.9 0-29.1-12.2-29.1-28.5-.2-16 11.4-28.9 28.8-28.9zM582.8 68.9h7.3v55.6h-7.3V68.9zM671.5 68.9h7.3v49H705v6.6h-33.5V68.9zM634.3 68.9h-7l-22.9 55.6h7.4l13.4-33.1c1.9-4.8 3.8-9.4 5.4-14h.2c1.7 4.5 3.5 9.3 5.3 13.7l13.3 33.4h7.8l-22.9-55.6z"/></svg>