<svg id="Layer_1" xmlns="http://www.w3.org/2000/svg" viewBox="0 0 115.3 60"><style>.st0{fill:#050808;} .st1{fill:#FBB724;} .st2{fill:#FEFEFE;}</style><path class="st0" d="M105 60h-6.6c0-.1 0-.2-.1-.3-.5-1.8-1.2-3.5-1.6-5.2-.3-1.2-.5-2.4-.8-3.7-.1.2-.2.3-.3.3-1.8 2.7-3.3 5.6-3.3 8.9H86c.3-2.1.7-4.3 1-6.4 0-.2 0-.2-.2-.3-.7-.2-1.5-.4-2-.9-.7-.7-1.1-1.6-.9-2.6.3-1.3.3-2.6.3-3.9.1-2.8-.2-5.7.3-8.5 0-.1.1-.3-.2-.3-.4 0-.4-.3-.3-.6.1-.2.1-.5.2-.7.2-1 .5-2.1.6-3.1.1-2.7.8-5.2 1.7-7.7.5-.6 1.2-1.1 1.9-1.4.7-.3 1.3-.8 1.7-1.4.1-.2.3-.2.4-.1.3 0 .4-.1.4-.3-.1-.5-.1-1.1-.2-1.6-.1-.3-.3-.5-.6-.7-.8-.7-1.7-1.4-2.3-2.3-.2-.3-.1-.8-.6-1v-.1c.3-.3.1-.6.1-.8 0-.4.2-.9.4-1.3 0-.1.1-.1.1-.2 0-.2 0-.5.1-.7.2-.2.4-.3.5-.5.2.1 0 .2.1.3.2 0 .2-.3.3-.4.2-.3.2-.7.8-.7.3 0 .7-.2 1-.4.1-.1.1-.1.1-.3 0-.1.2-.2.3-.1.4.2.8-.1 1.1 0 .1 0 .3 0 .3-.1.1-.6.3 0 .4 0 .5.6 1.1 1.2 1.7 1.7.1.1.3.2.3.4.3 1 .8 1.9 1 2.9.1.6.1 1.2.2 1.8 0 .4-.2.6-.4.8-.2.2-.2.3-.1.6l.3 1.2c.1.3.2.3.5.2.4-.2.8-.5 1.1-.8.4-.5.8-.8 1.4-1 .8-.3 1.4-.8 1.8-1.5.6-.9 1.1-1.9 1.5-2.9.9-2.2 2-4.3 2.8-6.6.3-.8.3-1.4-.4-2-.1-.7-.4-1.1-.5-1.7-.1-.5-.5-.7-.9-.9-.1-.1-.3-.1-.3-.3 0-.2.2-.2.4-.2.6-.2 1 .1 1.4.5.3.3.6.5 1 .4.4-.1.7-.4.9-.9.2-.6.3-1.2.5-1.9.1-.2.1-.5.3-.7h.4c.2.2.3.5.2.8-.1.4-.1.9-.2 1.3 0 .2 0 .4.1.5.2.1.3-.1.4-.2.5-.6.9-1.1 1.4-1.7l.4-.4c.1-.1.2-.1.3 0 .1.1.2.2.1.3-.1.3-.2.5-.3.7-.4.6-.8 1.1-1.1 1.8.6-.4 1.1-.7 1.7-1.1.3-.2.6-.5.9-.2.3.3-.2.6-.4.8-.5.4-1 .8-1.6 1.3.5 0 .9-.1 1.3-.1h.6c.2 0 .4 0 .5.3 0 .2-.2.3-.4.3-.3.1-.7.1-1 .2-.7.1-1.3.4-1.6 1.1 0 .1-.1.2-.2.3-.9 1-1.2 2.2-1.4 3.5-.3 1.8-.8 3.5-1.5 5.1-.5 1.2-.8 2.5-.9 3.8-.1 1.4-.6 2.8-1.1 4.2-.3.8-.4 1.5-.5 2.3-.4 2-.6 4.1-.7 6.1-.1 2.1.5 4.1.8 6.1.3 1.9 1.1 3.7 1.8 5.5.1.3.2.6.2.9 0 .3 0 .4-.3.5-.4.2-.9.4-1.3.6-.3.1-.4.3-.3.6.4 1.6.8 3.1.8 4.8 0 3.5.4 6.7.6 10zM89.3 37.1v.4c.1.5-.1.7-.6.6-.3 0-.2.2-.2.3-.1.8-.2 1.6-.3 2.3-.3 2.1-1.1 4-1.8 6-.1.4-.3.7.1 1 .2.2.2.5.3.7.1.6.3 1.1.6 1.7.1.2.2.4 0 .6-.2.2-.5.1-.7-.1-.2-.2-.3-.5-.4-.7-.1-.2-.3-.2-.4 0-.4.8-.3 1.3.4 1.8.4.3.8.5.9 1 .2-1.1.4-2.1.5-3.2.3-2.3.5-4.6 1.1-6.8 0-.1 0-.2-.1-.3-.2-.4-.2-.8-.2-1.3.1-1 .6-1.7 1-2.5.5-.9.5-.9-.3-1.6l.1.1zM0 43.2c.2-.5.2-1 .3-1.5.8-4.1 2.8-7.3 6.6-9.3 1.7-.9 3.5-1.4 5.4-1.6 2.7-.3 5.4-.1 8 1.1 1.5.7 2.8 1.6 3.8 2.9.6.8 1 1.7 1 2.8-.1 1.4-1 2.3-2.4 2.5-1.2.1-2.1-.2-2.8-1.2-.1-.1-.1-.2-.2-.3-2.3-3.9-8.4-3.3-10.7-1-1.2 1.2-2 2.7-2.3 4.3-.6 2.7-.6 5.4.3 8 1.9 5.4 8.3 5.9 11.4 3.4 1.2-1 2-2.2 2.2-3.8.1-.3-.1-.4-.3-.4-1.5 0-2.9.1-4.4 0-2-.2-2.9-2.3-1.8-3.9.4-.6 1.1-.9 1.8-.9h8.2c1.5 0 2.3.9 2.3 2.5v10.6c0 1.1-.7 1.9-1.7 2.1-1.1.2-2.1-.2-2.5-1.2-.2-.3-.3-.7-.4-1.1-.1-.4-.2-.7-.3-1.2l-.9.9c-1.8 1.7-3.9 2.5-6.3 2.7-2.5.1-5-.1-7.3-1.2-3.3-1.5-5.2-4.1-6.3-7.5-.4-1.2-.6-2.4-.7-3.7 0-.1 0-.2-.1-.2.1-1.3.1-2.5.1-3.8z"/><path class="st1" d="M105 60c-.2-3.2-.6-6.5-.7-9.7 0-1.7-.4-3.2-.8-4.8-.1-.3 0-.5.3-.6.4-.2.9-.4 1.3-.6.3-.1.3-.3.3-.5 0-.3-.1-.6-.2-.9-.7-1.8-1.5-3.6-1.8-5.5-.3-2-.8-4-.8-6.1.1-2.1.3-4.1.7-6.1h7.3c2.3 0 4.2 1.6 4.7 3.8v26.6c0 1.8-1.4 4-3.7 4.5-.3.1-.7.1-1 .1-1.9-.2-3.7-.2-5.6-.2z"/><path class="st0" d="M53.6 49v-5.9c0-.3-.1-.4-.4-.4-.5 0-1.1.1-1.6-.1-.8-.2-1.2-.8-1.2-1.8 0-.9.4-1.4 1.2-1.7.5-.1 1-.1 1.5-.1.4 0 .5-.1.5-.5v-3.2c0-1.3.7-2.1 1.8-2.4 1.3-.4 2.7 0 3.3.9.4.5.5 1.1.5 1.7v3.1c0 .3.1.4.4.4h6.5c.3 0 .3-.1.3-.4v-3.1c0-1.1.3-2 1.4-2.5 1.1-.5 2.3-.5 3.4.3.7.6.9 1.4.9 2.3v2.8c0 .4.1.5.5.5.8 0 1.5-.1 2.3.1 1 .2 1.4.7 1.4 1.7s-.4 1.5-1.5 1.8c-.8.2-1.6.1-2.3.1-.3 0-.4.1-.4.4v10.8c0 .8.4 1.2 1.2 1.3h1.1c.8 0 1.5.3 1.8 1.1.3.8.2 1.6-.4 2.3-.5.5-1.1.7-1.8.9-1.5.3-3 .2-4.5-.2-1.7-.5-2.6-1.7-2.8-3.5-.1-.5-.1-.9-.1-1.4V43.4c0-.7 0-.7-.7-.7h-6.1c-.3 0-.5.1-.5.4v10.6c0 1.1.4 1.5 1.5 1.5h.8c.9 0 1.5.4 1.8 1.1.3.8.1 1.8-.5 2.4-.5.4-1.1.7-1.8.8-1.5.3-3 .2-4.5-.3-1.8-.6-2.8-2-2.9-4.1v-.4c-.1-2-.1-3.9-.1-5.7zM41.4 50h-6.3c-.4 0-.5.1-.5.5.1 2.6 2.1 4.5 4.7 4.6 1.8.1 3.4-.4 4.8-1.7.4-.4.9-.8 1.6-1 1.9-.4 3.3 1.2 2.7 3.1-.3.8-.8 1.5-1.5 2-1.4 1-3 1.5-4.7 1.8-2.3.4-4.6.3-6.8-.5-3.5-1.2-5.5-3.8-6.2-7.4-.4-2.3-.2-4.6.6-6.8 1.1-2.9 3.2-4.8 6.2-5.7 3.3-.9 6.6-.8 9.5 1.1 2.8 1.8 4.2 4.5 4.2 7.9 0 1.4-.6 2-2.1 2-2 .1-4.1.1-6.2.1zm-1.9-3.2H44c.3 0 .4-.1.3-.4-.5-2.7-3-4.5-5.7-3.9-2.2.4-3.3 1.9-3.9 3.9-.1.3 0 .4.3.4h4.5z"/><path class="st1" d="M86.6 25c-1 2.5-1.6 5-1.7 7.7 0 1-.4 2.1-.6 3.1 0 .2-.1.5-.2.7-.1.3-.1.5.3.6.2 0 .2.2.2.3-.5 2.8-.2 5.7-.3 8.5 0 1.3 0 2.6-.3 3.9-.3 1.1.2 2 .9 2.6.5.5 1.3.7 2 .9.2.1.2.1.2.3-.3 2.1-.7 4.3-1 6.4-1.7.2-3.2-.1-4.4-1.4-.9-.9-1.4-2-1.4-3.3V29.7c0-2.6 2.1-4.7 4.8-4.7h1.5zM92.3 60c0-3.4 1.5-6.2 3.3-8.9.1-.1.1-.2.3-.3.3 1.3.5 2.5.8 3.7.4 1.8 1.1 3.5 1.6 5.2 0 .1 0 .2.1.3h-6.1z"/><path class="st1" d="M89.3 37.1h.1c.7.7.7.7.3 1.6-.4.8-1 1.6-1 2.5 0 .4-.1.9.2 1.3.1.1.1.2.1.3-.7 2.2-.8 4.5-1.1 6.8-.2 1-.3 2.1-.5 3.2-.1-.5-.5-.7-.9-1-.7-.5-.8-1-.4-1.8.1-.3.3-.2.4 0 .1.2.3.5.4.7.2.2.4.3.7.1.2-.1.1-.4 0-.6-.3-.5-.5-1.1-.6-1.7 0-.2-.1-.5-.3-.7-.4-.3-.3-.6-.1-1 .6-2 1.4-3.9 1.8-6 .1-.8.2-1.6.3-2.3 0-.1-.1-.4.2-.3.5.1.7-.2.6-.6-.3-.2-.2-.3-.2-.5z"/><path class="st2" d="M39.5 46.8H35c-.3 0-.4-.1-.3-.4.6-2 1.7-3.5 3.9-3.9 2.7-.6 5.3 1.2 5.7 3.9.1.3 0 .4-.3.4h-4.5z"/></svg>