<svg id="Layer_1" data-name="Layer 1" xmlns="http://www.w3.org/2000/svg" viewBox="0 0 841.89 595.28"><defs><style>.cls-1,.cls-3,.cls-4,.cls-5{fill:none;stroke-miterlimit:10;}.cls-1{stroke:#0f9f5b;}.cls-2,.cls-6{fill:#1d1d1b;}.cls-3{stroke:#de5044;}.cls-4{stroke:#fbb911;}.cls-5{stroke:#5a83c3;}.cls-6{font-size:38.14px;font-family:Poppins-Light, Poppins;font-weight:300;letter-spacing:0.49em;}</style></defs><path class="cls-1" d="M253.43,341.81c-24.47,23.32-53.89,23.92-59.75,23.92-5.07,0-35.15-.48-59.14-23.31l-1.37-1.34"/><path class="cls-1" d="M231.06,201.56a88.52,88.52,0,0,1,34.87,30.7"/><path class="cls-1" d="M118.94,235.32l1-1.6c12.45-20.52,31.67-30.3,36.66-32.69"/><path class="cls-2" d="M474.88,185.59v118.1H446.11L398,230.85v72.84H369.23V185.59H398l48.11,73.18V185.59Z"/><path class="cls-2" d="M561.18,208.64H517.61v23.89h38.52v22.2H517.61v25.91h80.57v23.05H488.84V185.59h72.34Z"/><path class="cls-2" d="M621.23,267.52,600,303.69H567.4l37.85-60.06-38.69-58H600l23.72,35.67,20.86-35.67h32.63l-37.51,59.56,39,58.54H645.29Z"/><path class="cls-2" d="M645.94,185.59H771.29v23H740v95.05H711.23V208.64H645.94Z"/><path class="cls-3" d="M241.36,309a35.89,35.89,0,0,0-1.08,8.93v12a9.42,9.42,0,0,0,9.41,9.41h89.18a9.42,9.42,0,0,0,9.41-9.41V318a49.86,49.86,0,0,0-29.1-45.17l-1.25-.61a37.83,37.83,0,0,0,6.49-21.55c0-19.17-13.52-34.76-30.14-34.76s-30.14,15.59-30.14,34.76a37.89,37.89,0,0,0,6.49,21.56c-.66.29-1.09.51-1.28.61a54.75,54.75,0,0,0-10.23,6.85"/><path class="cls-4" d="M128.38,282.43a59.19,59.19,0,0,0-14-9.63l-1.26-.61a37.83,37.83,0,0,0,6.49-21.55c0-19.17-13.52-34.76-30.14-34.76s-30.13,15.59-30.13,34.76a37.88,37.88,0,0,0,6.48,21.56c-.65.29-1.09.51-1.28.61A49.88,49.88,0,0,0,35.44,318v12a9.42,9.42,0,0,0,9.41,9.41H134a9.42,9.42,0,0,0,9.4-9.41V318a71.71,71.71,0,0,0-1.84-9.6"/><path class="cls-5" d="M222.8,228.05l-1.46-.71a44.36,44.36,0,0,0,7.58-25.2c0-22.42-15.81-40.65-35.24-40.65s-35.24,18.23-35.24,40.65a44.29,44.29,0,0,0,7.58,25.2c-.76.35-1.27.61-1.49.72a58.32,58.32,0,0,0-34,52.81V295a11,11,0,0,0,11,11H245.82a11,11,0,0,0,11-11V280.87A58.3,58.3,0,0,0,222.8,228.05Z"/><text class="cls-6" transform="translate(365.69 351.6)">CONFERENCE</text></svg>