<?xml version="1.0" encoding="utf-8"?>
<!-- Generator: Adobe Illustrator 19.0.0, SVG Export Plug-In . SVG Version: 6.00 Build 0)  -->
<svg version="1.1" id="Layer_1" xmlns="http://www.w3.org/2000/svg" xmlns:xlink="http://www.w3.org/1999/xlink" x="0px" y="0px"
	 viewBox="0 0 157.3 52.1" style="enable-background:new 0 0 157.3 52.1;" xml:space="preserve">
<style type="text/css">
	.st0{clip-path:url(#SVGID_2_);}
	.st1{clip-path:url(#SVGID_6_);fill:url(#SVGID_7_);}
	.st2{clip-path:url(#SVGID_9_);fill:url(#SVGID_10_);}
	.st3{clip-path:url(#SVGID_12_);fill:url(#SVGID_13_);}
	.st4{clip-path:url(#SVGID_15_);fill:url(#SVGID_16_);}
	.st5{clip-path:url(#SVGID_18_);fill:url(#SVGID_19_);}
	.st6{clip-path:url(#SVGID_21_);fill:url(#SVGID_22_);}
	.st7{clip-path:url(#SVGID_24_);fill:url(#SVGID_25_);}
</style>
<g>
	<defs>
		<path id="SVGID_1_" d="M25,2c13.8,0,25,11.2,25,25c0,13.8-11.2,25-25,25S0,40.9,0,27C0,13.2,11.2,2,25,2"/>
	</defs>
	<clipPath id="SVGID_2_">
		<use xlink:href="#SVGID_1_"  style="overflow:visible;"/>
	</clipPath>
	<g class="st0">
		<g>
			<defs>
				<rect id="SVGID_3_" x="0" y="2" width="50.1" height="50.1"/>
			</defs>
			<clipPath id="SVGID_4_">
				<use xlink:href="#SVGID_3_"  style="overflow:visible;"/>
			</clipPath>
			<g style="clip-path:url(#SVGID_4_);">
				
					<image style="overflow:visible;" width="209" height="209" xlink:href="968CB98F882D1AAB.jpg"  transform="matrix(0.24 0 0 0.24 0 2)">
				</image>
			</g>
		</g>
	</g>
</g>
<g>
	<defs>
		<path id="SVGID_5_" d="M34.4,12.4h-4.9c-2.1,0-4,0-5.8,0c-8.8,0-11.4,1.7-12.5,4.3c-1,2.1-2.7,6.1-3.4,8.1
			c-0.8,2.4-0.7,4.6,0.4,6.1c0.9,1.3,2.5,2.1,4.4,2.2c3.3,0.1,12,0.1,13.8,0.1l5.2-12.3l-7.7,0l-4.7,3.5l4.8,0l-2.3,5.2h-0.3
			c0,0-3,0-5,0c-1,0-1.9-0.4-2.4-1.1c-0.4-0.6-0.5-1.3-0.2-2.1c0.9-2.2,2.5-6.1,3.2-7.4c1-2.1,3.4-3.1,5.3-3.1l7.1,0L34.4,12.4z"/>
	</defs>
	<clipPath id="SVGID_6_">
		<use xlink:href="#SVGID_5_"  style="overflow:visible;"/>
	</clipPath>
	
		<linearGradient id="SVGID_7_" gradientUnits="userSpaceOnUse" x1="9.000000e-02" y1="51.5749" x2="0.91" y2="51.5749" gradientTransform="matrix(9.6384 -29.879 31.969 10.3126 -1632.9834 -494.1578)">
		<stop  offset="0" style="stop-color:#005572"/>
		<stop  offset="1" style="stop-color:#2A99BD"/>
	</linearGradient>
	<polygon class="st1" points="31.8,41.2 40.5,14.3 9.5,4.3 0.8,31.2 	"/>
</g>
<g>
	<defs>
		<polygon id="SVGID_8_" points="20.1,33.1 16.4,41.7 22.6,41.7 26.3,33.1 26.5,32.5 26.9,31.6 30.1,24.1 30.1,24.1 31.5,20.9 
			25.3,20.9 25.3,20.9 23.8,20.9 19.1,24.5 23.8,24.5 		"/>
	</defs>
	<clipPath id="SVGID_9_">
		<use xlink:href="#SVGID_8_"  style="overflow:visible;"/>
	</clipPath>
	
		<linearGradient id="SVGID_10_" gradientUnits="userSpaceOnUse" x1="0.32" y1="51.604" x2="0.68" y2="51.604" gradientTransform="matrix(35.0321 14.5965 -15.6556 37.5739 810.5498 -1916.5239)">
		<stop  offset="0" style="stop-color:#005572"/>
		<stop  offset="0.33" style="stop-color:#1084A6"/>
		<stop  offset="0.83" style="stop-color:#007D9F"/>
		<stop  offset="1" style="stop-color:#005473"/>
	</linearGradient>
	<polygon class="st2" points="9,38.6 29.2,47.1 38.9,24 18.6,15.5 	"/>
</g>
<g>
	<defs>
		<path id="SVGID_11_" d="M30.1,24.1l4.2-0.1c1.3,0,2.1,0.3,2.6,0.9c0.5,0.7,0.1,1.6,0,1.8c-1.1,2.6-6.9,5.2-9.2,6.3l-0.6,0.3
			l7.1,0.9c2.7-1.2,6.6-3.8,8-6.9c0.7-1.5,1-3.8-0.4-4.9c-1.4-1.1-2.9-1.5-6.1-1.5l-4.4,0L30.1,24.1z M22.6,41.7L22.6,41.7l3.3-7.8
			l0,0l0.6-1.3L22.6,41.7z"/>
	</defs>
	<clipPath id="SVGID_12_">
		<use xlink:href="#SVGID_11_"  style="overflow:visible;"/>
	</clipPath>
	
		<linearGradient id="SVGID_13_" gradientUnits="userSpaceOnUse" x1="0.29" y1="51.6069" x2="0.71" y2="51.6069" gradientTransform="matrix(-24.4928 -30.4352 30.8132 -24.797 -1545.7811 1325.1589)">
		<stop  offset="0" style="stop-color:#005572"/>
		<stop  offset="1" style="stop-color:#2A99BD"/>
	</linearGradient>
	<polygon class="st3" points="53.5,33.5 35.2,10.8 12.5,29.1 30.8,51.8 	"/>
</g>
<g>
	<defs>
		<path id="SVGID_14_" d="M131.3,27l-3.2,4.4h3.9L131.3,27z M138,37.9h-0.4h-3.2H133l-0.7-4.5h-5.7l-3.2,4.5h-1.4h-0.8h-1.4
			l11.5-15.7h1.4h2.2h0.4L138,37.9z"/>
	</defs>
	<clipPath id="SVGID_15_">
		<use xlink:href="#SVGID_14_"  style="overflow:visible;"/>
	</clipPath>
	
		<linearGradient id="SVGID_16_" gradientUnits="userSpaceOnUse" x1="0" y1="51.5749" x2="1" y2="51.5749" gradientTransform="matrix(0 20.1657 -18.2489 0 1070.0453 19.9062)">
		<stop  offset="0" style="stop-color:#878787"/>
		<stop  offset="0.1" style="stop-color:#B2B2B3"/>
		<stop  offset="0.5" style="stop-color:#BDC3C6"/>
		<stop  offset="0.94" style="stop-color:#6C6E6F"/>
		<stop  offset="1" style="stop-color:#6C6E6F"/>
	</linearGradient>
	<rect x="119.7" y="22.1" class="st4" width="18.2" height="15.7"/>
</g>
<g>
	<defs>
		<path id="SVGID_17_" d="M98.1,11.2h-6.3c-2.7,0-5.1,0-7.4,0c-11.3,0-14.6,2.2-16.1,5.5c-1.3,2.7-3.5,7.8-4.4,10.4
			c-1.1,3.1-0.9,5.9,0.5,7.9c1.2,1.7,3.3,2.7,5.7,2.8c4.2,0.1,15.4,0.1,17.7,0.1l6.7-15.7l-9.9,0l-6,4.6l6.1,0.1l-3,6.7h-0.4
			c0,0-3.9,0-6.5,0c-1.3,0-2.4-0.5-3-1.4c-0.5-0.8-0.6-1.7-0.2-2.7c1.1-2.8,3.2-7.8,4.1-9.6c1.3-2.6,4.4-4,6.8-4l9.1,0L98.1,11.2z"
			/>
	</defs>
	<clipPath id="SVGID_18_">
		<use xlink:href="#SVGID_17_"  style="overflow:visible;"/>
	</clipPath>
	
		<linearGradient id="SVGID_19_" gradientUnits="userSpaceOnUse" x1="9.000000e-02" y1="51.5749" x2="0.91" y2="51.5749" gradientTransform="matrix(12.3758 -38.3651 41.0488 13.2416 -2042.7981 -639.2425)">
		<stop  offset="0" style="stop-color:#005572"/>
		<stop  offset="1" style="stop-color:#2A99BD"/>
	</linearGradient>
	<polygon class="st5" points="94.8,48.2 105.9,13.7 66.1,0.8 55,35.3 	"/>
</g>
<g>
	<defs>
		<path id="SVGID_20_" d="M106.5,11.2L95,37.9l8,0l4.3-10l0,0l5.3-12.6l5.4-0.1c1.7,0,2.7,0.4,3.3,1.2c0.6,0.9,0.2,2,0,2.3
			c-1.4,3.4-8.9,6.6-11.8,8.1l-0.7,0.4l9.2,1.2c3.5-1.5,8.4-4.9,10.3-8.9c0.9-1.9,1.3-4.8-0.5-6.3c-1.7-1.4-3.7-1.9-7.8-1.9
			L106.5,11.2z"/>
	</defs>
	<clipPath id="SVGID_21_">
		<use xlink:href="#SVGID_20_"  style="overflow:visible;"/>
	</clipPath>
	
		<linearGradient id="SVGID_22_" gradientUnits="userSpaceOnUse" x1="0" y1="51.5668" x2="1" y2="51.5668" gradientTransform="matrix(0 35.3129 -34.0756 0 1869.4607 6.8521)">
		<stop  offset="0" style="stop-color:#878787"/>
		<stop  offset="0.1" style="stop-color:#B2B2B3"/>
		<stop  offset="0.5" style="stop-color:#BDC3C6"/>
		<stop  offset="0.94" style="stop-color:#6C6E6F"/>
		<stop  offset="1" style="stop-color:#6C6E6F"/>
	</linearGradient>
	<rect x="95" y="11.2" class="st6" width="34.6" height="26.7"/>
</g>
<g>
	<defs>
		<polygon id="SVGID_23_" points="151.1,22.1 145.3,28.6 144.1,22.1 140.8,22.1 142.1,30.7 139,37.9 143.8,37.9 146.2,32.1 
			155.3,22.1 		"/>
	</defs>
	<clipPath id="SVGID_24_">
		<use xlink:href="#SVGID_23_"  style="overflow:visible;"/>
	</clipPath>
	
		<linearGradient id="SVGID_25_" gradientUnits="userSpaceOnUse" x1="0" y1="51.5749" x2="1" y2="51.5749" gradientTransform="matrix(0 20.0027 -16.2408 0 984.7654 19.7679)">
		<stop  offset="0" style="stop-color:#878787"/>
		<stop  offset="0.1" style="stop-color:#B2B2B3"/>
		<stop  offset="0.5" style="stop-color:#BDC3C6"/>
		<stop  offset="0.94" style="stop-color:#6C6E6F"/>
		<stop  offset="1" style="stop-color:#6C6E6F"/>
	</linearGradient>
	<rect x="139" y="22.1" class="st7" width="16.2" height="15.8"/>
</g>
</svg>
