<svg id="Layer_1" xmlns="http://www.w3.org/2000/svg" viewBox="0 0 200 200"><style>.st0{fill:url(#SVGID_1_);} .st1{fill:#FFFFFF;}</style><radialGradient id="SVGID_1_" cx="100" cy="100" r="100" gradientUnits="userSpaceOnUse"><stop offset=".391" stop-color="#E31E26"/><stop offset="1" stop-color="#C02126"/></radialGradient><path class="st0" d="M0 200V0h200v200H0zM161.3 86.6c-15.5-22.8-47.1-33.4-75.2-19.7-28.4 13.8-41 47-29.1 76.3 11.9 29.3 44.9 44.3 74.9 33.8 30.1-10.6 42.2-39.3 39.9-61.1h-39.3c-.3 0-.6.1-.8.3-3.3 3.2-6.5 6.4-9.8 9.6-3 3-6 6-9.1 8.9-.2.2-.4.5-.7.7h37.3c-5 13.1-18.6 24.7-36.2 25.1-19 .4-35.3-12.4-39.7-30.2C69 112.2 77.4 93.5 94 85c8-4.2 16.6-5.4 25.5-3.8 12.2 2.3 21.3 9 27.6 19.5 4.7-4.6 9.4-9.4 14.2-14.1zM43.2 180.8V62H22.1v91.5c0 .4 0 .8.1 1.2.4 1.1.8 2.2 1.4 3.2 4.4 8.2 10 15.4 17.4 21.1.7.7 1.4 1.2 2.2 1.8z"/><path class="st1" d="M161.3 86.6c-4.7 4.7-9.5 9.5-14.3 14.2-6.4-10.5-15.5-17.2-27.6-19.5-8.9-1.7-17.4-.4-25.5 3.8-16.6 8.6-25 27.3-20.5 45.3 4.4 17.8 20.7 30.6 39.7 30.2 17.5-.4 31.1-12 36.2-25.1H112l.7-.7c3-3 6-6 9.1-8.9 3.3-3.2 6.5-6.4 9.8-9.6.2-.2.5-.3.8-.3h39.3c2.2 21.7-9.8 50.5-39.9 61.1-30 10.5-63-4.5-74.9-33.8-11.9-29.4.8-62.6 29.2-76.4 28.1-13.7 59.7-3.1 75.2 19.7zM43.2 180.8c-.8-.6-1.5-1.2-2.2-1.7-7.4-5.7-13-12.9-17.4-21.1-.5-1-1-2.1-1.4-3.2-.1-.4-.1-.8-.1-1.2V62.7v-.6h21.1v118.7z"/></svg>