<svg id="Layer_1" xmlns="http://www.w3.org/2000/svg" viewBox="0 0 761.8 200"><style>.st0{fill:#4E4E4E;} .st1{fill:#2879A4;} .st2{fill:#8BC641;}</style><g id="XMLID_4_"><path id="XMLID_93_" class="st0" d="M77.8 59.5c5.8-5 11.6-8.8 18.4-11 6.5-2 13.2-2.8 19.9-1.3 10.9 2.5 15.8 10.4 18.1 20.5.9 3.8 1.1 7.6 1.2 11.5 0 16.5 0 33.1.1 49.6 0 4.4.8 8.7 2.6 12.7.6 1.4.2 2-.8 2.6-5 3.3-10.4 4.1-16.1 2.4-3.7-1.1-5.2-4.1-5.8-7.5-.3-2-.5-4.1-.5-6.2-.1-17.8.1-35.7-.2-53.5-.2-11.7-6.1-16-17.7-13.3-6.7 1.6-12.4 4.9-17.4 9.7-1.3 1.3-1.8 2.6-1.8 4.4.1 21 0 42 .1 63 0 2.6-.8 3.3-3.3 3.5-5 .4-9.9.2-14.8-.1-1.9-.1-2.5-.8-2.5-2.7 0-31 .1-62 0-93 0-2.3.8-3.3 3.1-3.1 2.1.1 4.2 0 6.2 0 6 0 9.6 3.1 10.6 9 .2.8.4 1.6.6 2.8z"/><path id="XMLID_86_" class="st1" d="M512.4 86.4c0 10.6-.1 21.2 0 31.8.1 6.5.4 12.9 4.9 18.2.5.6.5 1.2.3 1.9-.1.2-.2.4-.2.5-2.9 8.3-8.6 10.2-15.9 5.3-3.1-2.1-5.5-4.9-6.9-8.4-.9-2.3-1.7-1.9-3.2-.6-6.9 6.2-14.8 10.6-24 12.1-5.1.8-10.3.9-15.3-.6-9.6-2.9-14-10.4-16.4-19.4-1.2-4.6-1.3-9.4-1.3-14.1V68.5c0-5.4-.5-10.7-2.7-15.7-.6-1.3-.1-2 .9-2.6 4.5-2.9 9.3-3.8 14.5-2.8 5.1 1 7.7 4.9 7.7 11.2v47.5c0 4.8 0 9.7 1.1 14.5 1.4 6.1 4.8 8.8 11 8.5 9.5-.4 17.2-4.7 23.9-11.2 1.1-1.1.8-2.4.8-3.6 0-20.9.1-41.8-.1-62.7 0-2.6.7-3.7 3.3-3.8 4.9-.2 9.9-.3 14.8.1 2.1.2 2.7.9 2.7 3.1.1 11.9.1 23.6.1 35.4z"/><path id="XMLID_85_" class="st0" d="M169.9 104.6c0-12.9-.1-25.8.1-38.6 0-2.4-.6-3-3-2.8-3.9.3-7.9.1-11.9.3-1.7.1-2.6-.3-2.8-2.1-.4-3.8-.5-7.5 0-11.3.2-1.4.8-2 2.3-1.9 3.9.1 7.7 0 11.6.1 2.1.1 2.6-.4 2.4-2.6-.6-6.5-1.6-13.1-.6-19.7C170.5 9.6 180.8.4 197.4 0c8.2-.2 16.1 1.1 23.9 3.7 1.9.6 2.6 1.5 2.2 3.4-.3 1.5-.5 3.1-.9 4.6-1.8 6.3-2.8 6.8-9 5.3-3.8-.9-7.5-1.6-11.4-1.5-9.2.2-14.3 5-14.8 14.2-.3 5.6.3 11.1.9 16.6.2 1.8.8 2.3 2.5 2.2 7.7-.1 15.4-.1 23.2-.3 2-.1 2.8.6 3 2.6.2 3.4.2 6.7 0 10.1-.1 1.9-.8 2.7-2.9 2.6-7.1-.2-14.3-.1-21.4-.4-2.3-.1-2.8.5-2.8 2.7.1 25.4.1 50.7 0 76.1 0 4.7.6 4.2-4.2 4.7-4.4.4-8.7.2-13-.1-2.2-.1-2.8-.8-2.8-3 .1-12.9 0-25.9 0-38.9z"/><path id="XMLID_84_" class="st1" d="M630.8 45.9c11-.2 20.6 2.2 29.9 6 1.8.7 2.3 1.8 2.1 3.6-.6 4-1.9 7.6-4.3 10.9-1 1.4-2 1.7-3.7.9-7.9-3.6-16.2-5.8-24.9-5.7-3.2 0-6.3.8-9 2.7-6 4.2-6.2 12.7-.1 16.8 5.5 3.8 12 5.4 18.2 7.9 4.8 1.9 9.5 4 13.7 6.9 9 6.4 13.8 14.8 12.8 26.1-1 11.9-7.9 19.4-18.7 23.4-14.4 5.4-28.9 4.4-43.2-.8-3.4-1.3-6.7-2.9-9.9-4.7-1.2-.6-1.7-1.4-1.4-2.9 1-3.9 2.5-7.5 4.9-10.7 1-1.4 1.9-1.7 3.6-.8 6.7 3.6 13.6 6.9 21.4 7.5 4.9.4 9.7.2 14.3-1.7 8.9-3.6 10.3-13.5 2.8-19.5-4.4-3.5-9.8-5-15-6.9-5.4-2.1-10.9-4.2-15.8-7.5-9.2-6.2-14-14.6-12.7-25.9 1.4-11.8 8.4-19.1 19.2-23 5.4-2.1 10.9-2.8 15.8-2.6z"/><path id="XMLID_83_" class="st1" d="M542.8 66.2V5c0-3.9.3-4.2 4.2-4.2 2.2 0 4.4 0 6.5.1 5.5.2 8.6 3 9.3 8.5.3 2.1.4 4.1.4 6.2v104.6c0 1.5 0 3 .2 4.4.6 3.7 2.8 5.8 6.6 6 1.3.1 2.6 0 3.9 0 4.7 0 4.7 0 5.6 4.7.1.4.1.8.2 1.2 1.4 8.1.2 9.6-7.9 10.1-4.7.3-9.4.8-14.2 0-8-1.3-13.2-6.4-14.3-14.4-.3-2.6-.5-5.3-.5-8v-58z"/><path id="XMLID_82_" class="st0" d="M6.7 97.2c0-15.3.1-30.5-.1-45.8 0-2.9.8-4 3.7-3.7 1.7.2 3.4 0 5 0 7.2 0 11.2 3.8 11.4 11.1.2 6.5.4 13.1.4 19.6.1 21.6 0 43.2.1 64.8 0 2.4-.6 3.2-3.1 3.4-5 .4-9.9.3-14.8 0-2.2-.2-2.8-.9-2.8-3 .2-15.5.2-31 .2-46.4z"/><path id="XMLID_81_" class="st2" d="M16.9 1.9c9.4 0 16.8 7.3 16.9 16.6.1 9.3-7.7 17.1-16.9 17.1C7.6 35.6 0 28 0 18.8 0 9.3 7.4 1.9 16.9 1.9z"/><path id="XMLID_48_" class="st1" d="M405.4 65.2c-3.5-8.7-9.4-15.5-18.8-18-12.8-3.4-24.2-.3-34.2 8.3-.6.6-1 1.4-2.1 1.6-.2-.7-.5-1.3-.7-2-1.9-4.9-5.3-7.3-10.7-7.4h-4.5c-3.9 0-3.9 0-3.9 4V197.3c0 1.7.8 2.6 2.5 2.6 3 0 6 .1 8.9-.1 4.8-.4 7.2-2.7 8.4-7.4.8-3.2.5-6.5.5-9.8v-41.1c1.5.7 2.4 1.2 3.4 1.7 7.9 3.8 16.2 5.8 25 4.1 12.9-2.5 21.7-10.6 26.6-22.3 8.2-19.9 7.5-40-.4-59.8zm-14.9 31.2c-.1 7.4-.7 14.8-3.5 21.8-3.7 9.3-10.8 14.3-19.2 13.3-5.8-.7-10.9-3.3-15.8-6.3-1-.6-1.1-1.5-1.1-2.5V77.6c0-.7-.1-1.4.4-2 4.7-6.5 10.4-11.3 18.7-12.3 6.9-.8 11.8 2.3 15.3 8 4.3 7 4.7 14.9 5.2 22.8v2.3z"/><path id="XMLID_6_" class="st1" d="M761.5 81.8c-1.1-9.2-4.2-17.6-10.7-24.6-15-16.2-52.2-18.2-64.7 13.3-7.1 18.1-6.6 36.6-.1 54.8 4.1 11.4 12.2 19.3 24.2 21.9 16.9 3.7 32.8.5 47.5-8.6 1.2-.7 1.7-1.5 1.2-2.9-1-3.3-2.2-6.5-4.3-9.4-1.2-1.6-2.2-2-4.1-1-8.1 4.2-16.7 6.6-25.9 6.4-10.5-.2-16.7-4.6-19.9-14.1-1.2-3.5-1.7-7.1-2.2-10.7-.3-2.6.3-3.4 3-3.4 8.6.2 17.2.1 25.8.1 8.8 0 17.6-.1 26.4.1 2.2 0 2.9-.7 3.1-2.8 1-6.3 1.4-12.7.7-19.1zM742 87c0 1.8-.9 1.8-2.2 1.8h-35.4c-1.6 0-2.2-.2-2-2.1.5-5.4 1.4-10.6 3.7-15.5 3.3-6.9 8.9-10.2 16.4-10.1 7.5 0 13.3 3.2 16.6 10.3 2.4 5 3 10.2 2.9 15.6z"/><path id="XMLID_53_" class="st0" d="M306.3 80.7c-2-9.9-6.2-18.7-14-25.6-8.9-7.8-19.5-9.9-31-9.2-11.6.7-21.2 5.4-28.2 14.7-8.1 10.7-10.4 23.2-10.5 36.3 0 5.4.4 10.7 1.5 15.9 4.1 19.6 16.5 34.3 37.8 35.6 18.4 1.1 33-6.2 40.8-23.4 6.4-14.1 6.6-29.1 3.6-44.3zm-23.4 40.8c-3.5 7.7-9.5 11.7-18 11.5-8.5-.2-14-4.6-17.1-12.3-3.9-9.5-4-19.4-3.5-29.5.3-6.6 1.3-13 4.2-18.9 3.6-7.3 9.5-10.9 17.6-10.7 7.9.2 13.4 4.2 16.7 11.2 3.6 7.8 4.1 16.2 4.3 24.9-.2 7.9-.7 16.1-4.2 23.8z"/></g></svg>