<svg id="Layer_1" xmlns="http://www.w3.org/2000/svg" viewBox="0 0 300 112"><style>.st0{fill:#0095D4;} .st1{fill:#A4206B;} .st2{fill:#2C2E30;}</style><path class="st0" d="M2.8 52.2h6.9L22 87.1s1.4 2.9 4.8 1.9c3.5-1 31.8-22 31.8-22l5.2 2.5-30 28.5s-4.2 3.7-7.9 5.2c-3.5 1.4-6.5.8-7.8-2.6-2.6-6.9-15.3-48.4-15.3-48.4z"/><path class="st1" d="M85.2 110.2l-4.8 1.7S71 29.4 71 28.6c-.1-.8-.4-3.7-2.2-4.2-.8-.2-2.1-.3-3 .8-2.5 2.7-28.9 33.9-28.9 33.9l-7.5-.5L67.2 5.4s.4-.6 1.1-1.4C69.6 2.5 71.7.2 73.7.1c.1 0 1.6-.2 2.8.3 1.1.4 1.9 1.5 2.1 1.9.5.9.7 2.2.9 3.4.4 2 .8 8.2 1.3 17 1.6 29.7 4.4 87.5 4.4 87.5z"/><path class="st0" d="M1.9 48.9L0 43.3h6.5l2.2 5.6z"/><path class="st2" d="M113 22.9c0 .7-.1 1.3-.4 1.9-.3.6-.6 1.1-1.1 1.5-.4.4-1 .8-1.6 1-.6.3-1.3.4-1.9.4-.7 0-1.3-.1-1.9-.4-.6-.3-1.1-.6-1.5-1-.4-.4-.8-.9-1-1.5-.3-.6-.4-1.2-.4-1.9s.1-1.3.4-1.9c.3-.6.6-1.1 1-1.5.4-.4 1-.8 1.5-1 .6-.3 1.2-.4 1.9-.4s1.3.1 1.9.4c.6.3 1.1.6 1.6 1 .4.4.8.9 1.1 1.5.3.6.4 1.2.4 1.9zm-1.1 9.3v31.7h-7.7V32.2h7.7zM120.6 63.9V32.2h4.7c1 0 1.7.5 2 1.4l.5 2.5c.6-.7 1.3-1.3 2-1.8s1.5-1 2.3-1.4c.8-.4 1.7-.7 2.6-.9.9-.2 1.9-.3 3-.3 1.8 0 3.3.3 4.7.9 1.4.6 2.5 1.4 3.4 2.5.9 1.1 1.6 2.3 2.1 3.8s.7 3.1.7 4.9V64h-7.7V43.7c0-1.9-.5-3.4-1.4-4.5-.9-1.1-2.3-1.6-4.1-1.6-1.3 0-2.6.3-3.8.9-1.2.6-2.3 1.4-3.3 2.4v22.9h-7.7zM165.6 64.4c-2.1 0-3.7-.6-4.9-1.7-1.2-1.2-1.8-2.9-1.8-5.3v-21h-4.5c-.2 0-.4-.1-.6-.2-.1-.1-.2-.3-.2-.5v-1.1l5.3-.4.7-11c0-.2.1-.3.2-.5.1-.1.3-.2.5-.2h1.4v11.7h9.8v2.2h-9.8v20.9c0 .8.1 1.6.3 2.2.2.6.5 1.1.9 1.5.4.4.8.7 1.4.9.5.2 1.1.3 1.7.3.8 0 1.4-.1 1.9-.3.5-.2 1-.5 1.4-.7.4-.3.7-.5 1-.7.2-.2.4-.3.6-.3.2 0 .3.1.5.3l.8 1.3c-.8.9-1.8 1.6-3 2.1-1 .2-2.3.5-3.6.5zM191.3 32.6c2.2 0 4.2.4 6 1.1 1.8.8 3.2 1.8 4.5 3.2 1.2 1.4 2.1 3 2.8 5 .6 1.9 1 4.1 1 6.5s-.3 4.6-1 6.5c-.6 1.9-1.6 3.6-2.8 5-1.2 1.4-2.7 2.4-4.5 3.2-1.8.7-3.8 1.1-6 1.1s-4.2-.4-6-1.1c-1.8-.7-3.3-1.8-4.5-3.2-1.2-1.4-2.1-3-2.8-5s-1-4.1-1-6.5.3-4.6 1-6.5c.6-1.9 1.6-3.6 2.8-5 1.2-1.4 2.7-2.4 4.5-3.2 1.7-.7 3.7-1.1 6-1.1zm0 29.4c1.9 0 3.5-.3 4.9-.9 1.4-.6 2.5-1.5 3.5-2.7.9-1.2 1.6-2.6 2.1-4.3.5-1.7.7-3.5.7-5.6 0-2-.2-3.9-.7-5.6-.5-1.7-1.2-3.1-2.1-4.3-.9-1.2-2.1-2.1-3.5-2.7-1.4-.6-3-1-4.9-1-1.9 0-3.5.3-4.9 1-1.4.6-2.5 1.6-3.5 2.7s-1.6 2.6-2.1 4.3c-.5 1.7-.7 3.5-.7 5.6 0 2.1.2 3.9.7 5.6.5 1.7 1.2 3.1 2.1 4.3.9 1.2 2.1 2.1 3.5 2.7 1.4.6 3 .9 4.9.9zM215.4 33.1v19.7c0 2.9.7 5.1 2 6.8 1.3 1.6 3.4 2.5 6.1 2.5 2 0 3.9-.5 5.7-1.5 1.8-1 3.3-2.4 4.7-4.3V33.1h3v30.8h-1.6c-.6 0-.9-.3-.9-.8l-.3-4.6c-1.4 1.8-3.1 3.2-5 4.3-1.9 1.1-4 1.6-6.3 1.6-1.7 0-3.2-.3-4.5-.8-1.3-.5-2.4-1.3-3.2-2.3-.9-1-1.5-2.2-1.9-3.6-.4-1.4-.7-3-.7-4.8V33.1h2.9zM267.6 37.2l-.3.3c-.1.1-.2.1-.4.1s-.5-.1-.9-.4c-.4-.3-.8-.6-1.5-.9-.6-.3-1.4-.6-2.3-.9s-2-.4-3.3-.4c-1.8 0-3.4.3-4.8.9-1.4.6-2.6 1.5-3.5 2.7-.9 1.2-1.7 2.6-2.2 4.3-.5 1.7-.8 3.5-.8 5.6 0 2.2.3 4.1.8 5.7.5 1.7 1.2 3.1 2.2 4.2.9 1.1 2.1 2 3.4 2.6 1.3.6 2.8.9 4.4.9 1.5 0 2.8-.2 3.8-.5s1.8-.7 2.5-1.1c.7-.4 1.2-.8 1.6-1.1.4-.4.7-.5.9-.5.3 0 .5.1.6.3l.8 1c-.5.6-1.1 1.2-1.8 1.7s-1.6 1-2.5 1.4c-.9.4-1.9.7-3 .9-1.1.2-2.2.3-3.4.3-2 0-3.8-.4-5.4-1.1-1.6-.7-3-1.7-4.2-3.1-1.2-1.3-2.1-3-2.8-5-.7-2-1-4.2-1-6.7 0-2.3.3-4.5.9-6.4.6-1.9 1.5-3.6 2.7-5 1.2-1.4 2.7-2.5 4.4-3.3 1.7-.8 3.7-1.2 6-1.2 2 0 3.8.3 5.4 1 1.6.6 2.9 1.5 4.1 2.6l-.4 1.1zM275.5 63.9v-45h3v19.5c1.4-1.8 3.1-3.1 4.9-4.2 1.8-1 3.9-1.6 6.2-1.6 1.7 0 3.2.3 4.5.8 1.3.5 2.4 1.3 3.2 2.3.9 1 1.5 2.2 1.9 3.6.4 1.4.7 3 .7 4.8v19.7h-3V44.2c0-2.9-.7-5.1-2-6.8-1.3-1.6-3.4-2.5-6.1-2.5-2 0-3.9.5-5.7 1.6-1.8 1-3.3 2.5-4.7 4.3v23.1h-2.9z"/><g><path class="st2" d="M109.7 89.8c-.9 0-1.6-.2-2-.7-.5-.5-.7-1.3-.7-2.3v-9h-2c-.1 0-.2 0-.2-.1-.1-.1-.1-.1-.1-.2V77l2.2-.2.3-4.7c0-.1 0-.2.1-.2.1-.1.1-.1.2-.1h.6v5.1h4.1v.9h-4.1v9c0 .4 0 .7.1.9.1.3.2.5.4.6.2.2.4.3.6.4.2.1.5.1.7.1.3 0 .6 0 .8-.1l.6-.3c.2-.1.3-.2.4-.3.1-.1.2-.1.2-.1.1 0 .1 0 .2.1l.3.6c-.3.4-.8.7-1.3.9-.3.1-.9.2-1.4.2zM121.3 76.2c.9 0 1.8.2 2.5.5s1.4.8 1.9 1.4c.5.6.9 1.3 1.2 2.1.3.8.4 1.8.4 2.8 0 1-.1 2-.4 2.8-.3.8-.7 1.5-1.2 2.1-.5.6-1.1 1.1-1.9 1.4-.7.3-1.6.5-2.5.5-.9 0-1.8-.2-2.5-.5s-1.4-.8-1.9-1.4c-.5-.6-.9-1.3-1.2-2.1-.3-.8-.4-1.8-.4-2.8 0-1 .1-2 .4-2.8.3-.8.7-1.6 1.2-2.1.5-.6 1.1-1.1 1.9-1.4.7-.4 1.6-.5 2.5-.5zm0 12.6c.8 0 1.5-.1 2-.4.6-.3 1.1-.7 1.4-1.2.4-.5.7-1.1.9-1.8.2-.7.3-1.5.3-2.4 0-.9-.1-1.7-.3-2.4-.2-.7-.5-1.3-.9-1.8s-.9-.9-1.4-1.2c-.6-.3-1.3-.4-2-.4-.8 0-1.5.1-2 .4-.6.3-1.1.7-1.4 1.2-.4.5-.7 1.1-.9 1.8-.2.7-.3 1.5-.3 2.4 0 .9.1 1.7.3 2.4.2.7.5 1.3.9 1.8s.9.9 1.4 1.2c.6.3 1.2.4 2 .4zM137.5 89.6V70.3h1.2v8.4c.6-.8 1.2-1.4 2-1.8.8-.5 1.6-.7 2.6-.7 1.6 0 2.8.6 3.7 1.7.9 1.1 1.3 2.8 1.3 5.1 0 1-.1 1.9-.4 2.7-.2.8-.6 1.6-1.1 2.2-.5.6-1.1 1.1-1.8 1.5-.7.4-1.5.5-2.4.5-.9 0-1.7-.2-2.3-.5-.7-.4-1.2-.9-1.7-1.6l-.1 1.6c0 .2-.1.3-.3.3h-.7zm5.4-12.4c-.9 0-1.6.2-2.3.7-.7.5-1.3 1.1-1.9 1.9v7c.5.8 1 1.3 1.6 1.6.6.3 1.3.5 2.1.5s1.4-.1 2-.4c.6-.3 1.1-.7 1.4-1.2.4-.5.7-1.1.9-1.9.2-.7.3-1.5.3-2.4 0-2-.4-3.4-1.1-4.3-.6-1-1.6-1.5-3-1.5zM157.4 76.2c.7 0 1.4.1 2 .4.6.3 1.2.6 1.6 1.1.5.5.8 1.1 1.1 1.8.3.7.4 1.5.4 2.5 0 .2 0 .3-.1.4-.1.1-.1.1-.3.1h-9.4v.3c0 1 .1 1.9.3 2.6.2.8.5 1.4 1 1.9.4.5.9.9 1.5 1.2.6.3 1.3.4 2 .4s1.2-.1 1.7-.2.9-.3 1.2-.5c.3-.2.6-.3.8-.5.2-.1.3-.2.4-.2.1 0 .2 0 .3.1l.3.4c-.2.3-.5.5-.8.7-.3.2-.7.4-1.1.6-.4.2-.9.3-1.4.4-.5.1-1 .1-1.5.1-.9 0-1.7-.2-2.4-.5s-1.4-.8-1.9-1.4c-.5-.6-.9-1.3-1.2-2.2-.3-.9-.4-1.9-.4-3 0-.9.1-1.8.4-2.6.3-.8.6-1.5 1.1-2.1.5-.6 1.1-1 1.8-1.4.9-.3 1.7-.4 2.6-.4zm0 .9c-.7 0-1.3.1-1.8.3-.5.2-1 .5-1.4.9-.4.4-.7.9-.9 1.4-.2.6-.4 1.2-.5 1.9h8.5c0-.7-.1-1.3-.3-1.9-.2-.6-.5-1-.8-1.4-.3-.4-.8-.7-1.3-.9-.3-.2-.9-.3-1.5-.3zM181 89.6c-.3 0-.4-.1-.5-.4l-.2-1.7c-.4.4-.7.7-1.1 1-.4.3-.7.5-1.1.7-.4.2-.8.3-1.2.4-.4.1-.9.2-1.5.2-.4 0-.9-.1-1.3-.2s-.8-.3-1.1-.6c-.3-.3-.6-.6-.8-1.1-.2-.4-.3-.9-.3-1.6 0-.6.2-1.1.5-1.6s.8-.9 1.5-1.3 1.5-.6 2.6-.9c1-.2 2.3-.3 3.8-.4V81c0-1.2-.3-2.2-.8-2.8-.5-.7-1.3-1-2.3-1-.6 0-1.2.1-1.6.3-.4.2-.8.4-1.1.6-.3.2-.6.4-.7.6-.2.2-.4.3-.5.3-.2 0-.3-.1-.4-.2l-.2-.4c.7-.7 1.4-1.2 2.1-1.6.7-.4 1.6-.5 2.5-.5.7 0 1.3.1 1.8.3.5.2 1 .5 1.3 1 .3.4.6.9.8 1.5.2.6.3 1.3.3 2v8.6h-.5zm-5.2-.7c.5 0 1-.1 1.4-.2.4-.1.8-.3 1.2-.5.4-.2.7-.4 1-.7l.9-.9v-3.4c-1.2 0-2.3.1-3.2.3-.9.2-1.6.4-2.2.6-.6.3-1 .6-1.3 1-.3.4-.4.8-.4 1.3 0 .4.1.8.2 1.2.1.3.3.6.6.8.2.2.5.4.8.5h1zM186.3 89.6V76.4h.7c.2 0 .4.1.4.3l.1 2c.6-.8 1.3-1.4 2.1-1.8.8-.5 1.7-.7 2.6-.7.7 0 1.3.1 1.9.3.5.2 1 .6 1.4 1 .4.4.6 1 .8 1.6.2.6.3 1.3.3 2.1v8.5h-1.2v-8.5c0-1.2-.3-2.2-.8-2.9-.6-.7-1.4-1.1-2.6-1.1-.9 0-1.6.2-2.4.7-.7.4-1.4 1.1-2 1.8v9.9h-1.3zM210.6 89.6c-.2 0-.3-.1-.4-.3l-.1-2.1c-.6.8-1.2 1.4-2 1.9s-1.6.7-2.6.7c-1.6 0-2.8-.6-3.7-1.7-.9-1.1-1.3-2.8-1.3-5.1 0-1 .1-1.9.4-2.7.2-.8.6-1.6 1.1-2.2.5-.6 1.1-1.1 1.8-1.5.7-.4 1.5-.5 2.4-.5.9 0 1.6.2 2.3.5.6.3 1.2.8 1.7 1.5v-7.9h1.2v19.4h-.8zm-4.8-.8c.9 0 1.6-.2 2.3-.7.7-.5 1.3-1.1 1.9-1.9v-7c-.5-.8-1.1-1.3-1.7-1.6-.6-.3-1.3-.5-2.1-.5s-1.4.1-2 .4c-.6.3-1.1.7-1.4 1.2-.4.5-.7 1.1-.9 1.9-.2.7-.3 1.5-.3 2.4 0 2 .4 3.4 1.1 4.3.7 1 1.8 1.5 3.1 1.5zM226 89.8c-.9 0-1.6-.2-2-.7-.5-.5-.7-1.3-.7-2.3v-9h-1.9c-.1 0-.2 0-.2-.1-.1-.1-.1-.1-.1-.2V77l2.2-.2.3-4.7c0-.1 0-.2.1-.2.1-.1.1-.1.2-.1h.6v5.1h4.1v.9h-4.1v9c0 .4 0 .7.1.9.1.3.2.5.4.6.2.2.3.3.6.4.2.1.5.1.7.1.3 0 .6 0 .8-.1l.6-.3c.2-.1.3-.2.4-.3.1-.1.2-.1.2-.1.1 0 .1 0 .2.1l.3.6c-.3.4-.8.7-1.3.9-.4.1-.9.2-1.5.2zM237.6 76.2c.9 0 1.8.2 2.5.5s1.4.8 1.9 1.4c.5.6.9 1.3 1.2 2.1.3.8.4 1.8.4 2.8 0 1-.1 2-.4 2.8-.3.8-.7 1.5-1.2 2.1-.5.6-1.1 1.1-1.9 1.4-.7.3-1.6.5-2.5.5-.9 0-1.8-.2-2.5-.5s-1.4-.8-1.9-1.4c-.5-.6-.9-1.3-1.2-2.1-.3-.8-.4-1.8-.4-2.8 0-1 .1-2 .4-2.8.3-.8.7-1.6 1.2-2.1.5-.6 1.1-1.1 1.9-1.4.8-.4 1.6-.5 2.5-.5zm0 12.6c.8 0 1.5-.1 2-.4.6-.3 1.1-.7 1.4-1.2.4-.5.7-1.1.9-1.8.2-.7.3-1.5.3-2.4 0-.9-.1-1.7-.3-2.4-.2-.7-.5-1.3-.9-1.8s-.9-.9-1.4-1.2c-.6-.3-1.3-.4-2-.4s-1.5.1-2 .4c-.6.3-1.1.7-1.4 1.2-.4.5-.7 1.1-.9 1.8-.2.7-.3 1.5-.3 2.4 0 .9.1 1.7.3 2.4.2.7.5 1.3.9 1.8s.9.9 1.4 1.2c.6.3 1.3.4 2 .4zM260.8 78c-.1.1-.2.2-.3.2-.1 0-.2-.1-.4-.2s-.4-.2-.6-.4c-.2-.1-.6-.3-.9-.4-.4-.1-.8-.2-1.3-.2s-.9.1-1.3.2-.7.3-1 .6c-.3.2-.5.5-.6.8-.2.3-.2.6-.2 1s.1.8.3 1c.2.3.5.5.8.7.3.2.7.4 1.2.5.4.1.9.3 1.3.4.5.1.9.3 1.3.5l1.2.6c.3.3.6.6.8.9.2.4.3.8.3 1.4 0 .6-.1 1.1-.3 1.6-.2.5-.5.9-.9 1.3s-.9.7-1.4.9c-.6.2-1.2.3-1.9.3-.9 0-1.7-.1-2.4-.4-.7-.3-1.3-.7-1.8-1.2l.3-.5c0-.1.1-.1.1-.2.1 0 .1-.1.2-.1s.3.1.4.2c.2.1.4.3.6.5.3.2.6.3 1 .5.4.1.9.2 1.5.2.5 0 1-.1 1.4-.2.4-.2.8-.4 1-.6.3-.3.5-.6.6-.9.1-.4.2-.7.2-1.1 0-.4-.1-.8-.3-1.1-.2-.3-.5-.5-.8-.7-.3-.2-.7-.4-1.2-.5-.4-.1-.9-.3-1.3-.4-.5-.1-.9-.3-1.3-.5l-1.2-.6c-.3-.3-.6-.6-.8-.9-.2-.4-.3-.8-.3-1.4 0-.5.1-.9.3-1.4.2-.4.5-.8.9-1.1.4-.3.8-.6 1.4-.8.5-.2 1.1-.3 1.8-.3.8 0 1.5.1 2.1.4.6.2 1.2.6 1.7 1.1l-.2.3zM269.4 89.8c-.9 0-1.6-.2-2-.7-.5-.5-.7-1.3-.7-2.3v-9h-1.9c-.1 0-.2 0-.2-.1-.1-.1-.1-.1-.1-.2V77l2.2-.2.3-4.7c0-.1 0-.2.1-.2.1-.1.1-.1.2-.1h.6v5.1h4.1v.9h-4.1v9c0 .4 0 .7.1.9.1.3.2.5.4.6.2.2.3.3.6.4.2.1.5.1.7.1.3 0 .6 0 .8-.1l.6-.3c.2-.1.3-.2.4-.3.1-.1.2-.1.2-.1.1 0 .1 0 .2.1l.3.6c-.3.4-.8.7-1.3.9-.5.1-1 .2-1.5.2zM284.3 89.6c-.3 0-.4-.1-.5-.4l-.2-1.7c-.4.4-.7.7-1.1 1-.4.3-.7.5-1.1.7-.4.2-.8.3-1.2.4-.4.1-.9.2-1.5.2-.4 0-.9-.1-1.3-.2s-.8-.3-1.1-.6c-.3-.3-.6-.6-.8-1.1-.2-.4-.3-.9-.3-1.6 0-.6.2-1.1.5-1.6s.8-.9 1.5-1.3 1.5-.6 2.6-.9c1-.2 2.3-.3 3.8-.4V81c0-1.2-.3-2.2-.8-2.8-.5-.7-1.3-1-2.3-1-.6 0-1.2.1-1.6.3-.4.2-.8.4-1.1.6-.3.2-.6.4-.7.6-.2.2-.4.3-.5.3-.2 0-.3-.1-.4-.2l-.2-.4c.7-.7 1.4-1.2 2.1-1.6.7-.4 1.6-.5 2.5-.5.7 0 1.3.1 1.8.3.5.2 1 .5 1.3 1 .3.4.6.9.8 1.5.2.6.3 1.3.3 2v8.6h-.5zm-5.2-.7c.5 0 1-.1 1.4-.2.4-.1.8-.3 1.2-.5s.7-.4 1-.7l.9-.9v-3.4c-1.2 0-2.3.1-3.2.3-.9.2-1.6.4-2.2.6-.6.3-1 .6-1.3 1-.3.4-.4.8-.4 1.3 0 .4.1.8.2 1.2.1.3.3.6.6.8.2.2.5.4.8.5h1zM292.2 93.9c-.1.1-.1.2-.2.3-.1.1-.2.1-.4.1h-.9l2.3-5.2-5.5-12.7h1c.1 0 .2 0 .3.1l.2.2 4.4 10.3c.1.1.1.3.1.4 0 .1.1.3.1.4 0-.1.1-.3.1-.4 0-.1.1-.3.1-.4l4.3-10.3c0-.1.1-.2.2-.2.1-.1.2-.1.3-.1h1l-7.4 17.5z"/></g></svg>