<svg id="Layer_1" xmlns="http://www.w3.org/2000/svg" viewBox="0 0 200 200"><style>.st0{fill:#00A7E1;} .st1{fill:#0097D6;} .st2{fill:#00C0F3;} .st3{fill:#0083CA;} .st4{fill:#FFFFFF;}</style><path class="st0" d="M200 120.8V0H79.2L0 79.2V200h120.8z"/><path class="st1" d="M55.3 0H0v55.3zM144.7 200H200v-55.3zM0 200V79.2l60.4 60.4z"/><path class="st2" d="M79.2 0H200l-60.4 60.4z"/><path class="st1" d="M60.404 139.612L139.6 60.417l60.386 60.386L120.79 200z"/><path class="st3" d="M144.7 200l27.6-27.7L200 200zM0 55.3V0l27.7 27.7z"/><path class="st4" d="M18.1 79.2h5.7v18.3h9.4v4.9H18.1V79.2zM32.6 79.2h6.1l4.1 13.2c.5 1.5.9 3.7.9 3.7h.1s.4-2.3.9-3.7l4.1-13.2h6l-8.2 23.1h-5.9l-8.1-23.1zM58.4 79.2h5.7v23.1h-5.7V79.2zM67.7 79.2h6.1l4.1 13.2c.5 1.5.9 3.7.9 3.7h.1s.4-2.3.9-3.7l4.1-13.2h6l-8.2 23.1h-5.9l-8.1-23.1zM103.2 79.2h5.7v23.1h-5.7V79.2zM119.7 84h-7v-4.9h19.7V84h-7v18.3h-5.7V84zM29 114.5c3.1 0 6.4 1 8.7 3.3L35 122c-1.5-1.3-3.7-2.4-5.8-2.4-4.6 0-6.5 3.3-6.5 6.6 0 3.4 2.1 7 6.5 7 2.3 0 4.6-1.3 6.1-2.8l2.9 4.1c-2 2.1-5.1 3.9-9.3 3.9-7.4 0-12.1-5.1-12.1-12 .1-6.7 5-11.9 12.2-11.9zM42.4 114.9h5.7v18.3h9.4v4.9H42.4v-23.2zM61 114.9h5.7v14.6c0 2.4 1.6 3.7 4 3.7s4-1.3 4-3.7v-14.6h5.7v14.6c0 5.2-3.8 8.9-9.6 8.9-5.9 0-9.7-3.7-9.7-8.9v-14.6zM87.6 130.8c1.3 1.1 3.5 2.4 5.6 2.4 1.6 0 2.4-.7 2.4-1.6 0-3.3-10.2-2.7-10.2-10 0-4.3 3.5-7.1 8.4-7.1 2.6 0 5.2.8 7.2 2.6l-2.4 4.6c-1.3-1.1-3.3-2-5.1-2-1.7 0-2.5.7-2.5 1.6 0 3.3 10.2 2.5 10.2 9.8 0 3.9-2.9 7.2-8.2 7.2-3 0-6.2-1.1-8.4-3.3l3-4.2zM111.4 119.7h-7v-4.9h19.7v4.9h-7V138h-5.7v-18.3zM128 114.9h14.5v4.9h-8.8v4.2h7.1v4.9h-7.1v4.4h9.3v4.9h-15v-23.3zM148.2 114.9h8.1c2.4 0 3.5.2 4.5.6 2.6 1 4.3 3.4 4.3 6.7 0 2.5-1.2 5.1-3.5 6.3v.1s.3.4.9 1.4l4.5 8.1h-6.3l-4.1-7.8h-2.7v7.8h-5.7v-23.2zm8.2 10.5c1.8 0 2.9-1 2.9-2.8 0-1.2-.3-2-1.4-2.5-.5-.2-1.2-.3-2.1-.3h-1.9v5.6h2.5z"/></svg>