<svg id="Layer_1" xmlns="http://www.w3.org/2000/svg" viewBox="0 0 544.8 184.8"><style>.st0{fill:#FFFFFF;} .st1{fill:#BF4757;} .st2{fill:#374150;}</style><path class="st0" d="M0 0h184.8v184.8H0z"/><path class="st1" d="M0 0v184.8h184.8V0H0zm55.4 157.1H27.7V27.7h27.7v129.4zM157 55.4h-32.3V157H97V55.4H64.7V27.7H157v27.7z"/><path class="st2" d="M270.5 30.6h-33v21.5h30.9V55h-30.9v23.6h33.3v2.9h-36.5V27.7h36.2v2.9zM309.6 81.4h-2.9V72c-2 6.8-7.5 10.6-14.7 10.6-10.6 0-17.3-7.8-17.3-20.4s6.8-20.7 17.3-20.7c7.2 0 12.3 3.8 14.6 10.1v-24h3v53.8zm-31.7-19.1c0 11 5.4 17.8 14.3 17.8s14.5-6.9 14.5-18c0-9.1-4.3-17.9-14.6-17.9-8.7 0-14.2 7-14.2 18.1zM348.6 81.4h-2.9v-8.1c-2.5 5.7-6.9 9.3-13.9 9.3-9.2 0-13.7-6-13.7-14.9V42.8h3V67c0 6.9 2.5 12.9 11.2 12.9 9.3 0 13.1-8.1 13.1-16.1v-21h3v38.6zM373.7 82.5c-11.8 0-17.7-9.2-17.7-20.3 0-12.5 7.1-20.6 18.1-20.6 8.9 0 14.8 4.8 15.8 13h-3.1c-.8-6.3-5.6-10.4-12.6-10.4-9.2 0-15.1 7-15.1 17.9 0 10.8 5.8 17.9 14.6 17.9 7.4 0 12.5-4.6 13.5-12.1h3c-1.3 9.2-7.3 14.6-16.5 14.6zM430 81.1c-1.1.4-1.9.5-3.1.5-3.4 0-4.5-1.5-4.5-6.5v-1.9c-3.2 6.3-7.7 9.3-15.1 9.3-8 0-12.7-4-12.7-10.8 0-8.8 7.4-11.2 14.8-11.8 10.1-.8 11.2-1 12.3-2.6.5-.7.5-2.3.5-4 0-5.8-3.8-8.9-10.9-8.9-7.2 0-11.1 3.5-11.7 10.3h-2.9c.5-8.4 5.8-12.9 14.9-12.9 5 0 9 1.4 11.5 4.1 2.3 2.6 2.2 5.7 2.2 9v20c0 2.3 0 4.1 2.8 4.1.7 0 1.1-.1 2-.3v2.4zM419.7 61c-5.7 1.7-11.8.8-17.3 3.3-2.9 1.3-4.5 3.8-4.5 7.1 0 5.2 3.8 8.4 10 8.4 8.3 0 14.4-5.7 14.4-13.5v-6.8c-.9.9-1.3 1.1-2.6 1.5zM448.6 45.4h-8.3v26.2c0 4-.1 7.2 5.1 7.2.8 0 1.7-.1 3.2-.3v2.8c-1.7.2-2.3.3-3.6.3-8.1 0-7.7-5.1-7.7-11.2v-25h-7.2v-2.6h7.2V30.7h3v12.1h8.3v2.6zM457.5 35.3h-3v-7.6h3v7.6zm0 46.1h-3V42.8h3v38.6zM500.5 62.3c0 12.4-7 20.2-17.9 20.2-10.9 0-18-8-18-20.4 0-12.3 7.2-20.4 18-20.4 10.9 0 17.9 8 17.9 20.6zm-32.8-.2c0 10.9 5.8 17.8 14.9 17.8 8.9 0 14.6-6.9 14.6-17.6 0-10.9-5.8-18-14.7-18-8.8 0-14.8 7.2-14.8 17.8zM510 51.3c2.7-6.2 7.1-9.6 14.3-9.6 8.7 0 13.6 5.5 13.6 14.3v25.3h-3V57.6c0-7.4-2.4-13.1-11.2-13.1-5 0-9 2.3-11.3 6.3-1.5 2.6-2.2 5.6-2.2 10.6v20h-3V42.8h2.9v8.5zM276.9 157.1h-11.7l-4-11.3h-18.9l-4.1 11.3h-11.4l19.3-50.9h11.5l19.3 50.9zm-25.1-38.4l-6.8 18.9h13.5l-6.7-18.9zM297.6 158c-11.4 0-18.8-7.6-18.8-19.1 0-11.9 7.5-19.8 18.9-19.8 9.9 0 16.4 5.4 17.3 13.9h-9.9c-.7-4.1-3.4-6.4-7.3-6.4-5.5 0-8.8 4.4-8.8 12 0 7.4 3.1 11.6 8.6 11.6 4.4 0 7.1-2.6 7.8-7.4h9.8c-1.2 9.7-7.8 15.2-17.6 15.2zM345.1 157.1c-.5-1.4-.6-1.9-.7-3.6-3.1 3.1-7.5 4.6-11.9 4.6-8.1 0-13.1-4.2-13.1-11.1 0-9.6 8.8-10.8 16.1-11.7 6.6-.9 9-1.4 9-4.4 0-3.4-2.1-4.9-6.6-4.9-4.6 0-6.6 1.4-7.3 5.6h-9.5c.6-8.2 6.4-12.4 17.1-12.4 7.4 0 16.1 1.7 16.1 12v15.9c0 3.4-.1 6.8 1.3 10h-10.5zm-8-16c-3.5.6-7.4 1-7.4 5.5 0 3.1 2.1 4.9 5.6 4.9 5.3 0 9-2.9 9-8.2v-4.1c-2.4 1.3-4.6 1.5-7.2 1.9zM388.4 157.1v-4.7c-2.4 3.8-6.1 5.7-11.1 5.7-10.2 0-16.7-7.6-16.7-19.6 0-11.6 6.4-19.3 16.1-19.3 4.4 0 8.8 1.8 11.2 5.6v-18.6H398V157h-9.6zm-8.9-29.8c-5.5 0-8.7 4.2-8.7 11.3 0 7.1 3.3 11.4 8.7 11.4 5.6 0 8.8-4.1 8.8-11.3-.1-7.2-3.3-11.4-8.8-11.4zM423 158.2c-11.3 0-18.8-7.7-18.8-19.3 0-11.4 7.8-19.7 18.5-19.7 11.1 0 18.2 8.1 18.2 21.1v1h-26.4c.1 6.4 3.2 9.8 8.6 9.8 3.7 0 6-1.6 7.5-5.4h9.7c-2.3 8-8.9 12.5-17.3 12.5zm-.4-31.6c-4.5 0-7.6 3.1-8.2 8.3h16.1c-.4-4.6-2.8-8.3-7.9-8.3zM493.1 157.1v-22c0-4.1-.6-7.6-5.9-7.6-5.3 0-7.1 3.9-7.1 8.9v20.7H470v-22.4c0-3.9-.8-7.2-5.6-7.2-5.9 0-7.4 4.6-7.4 9.6v20h-10v-36.8h9.6v5.1c2.9-4 6.5-6.1 11.7-6.1 4.9 0 8.6 2 10.4 6.1 2.9-4 6.9-6.1 12.1-6.1 8.3 0 12.6 5.2 12.6 13.1v24.8h-10.3zM531.2 157c-3 8.1-4.7 13.3-14.1 13.3-3.1 0-1.9 0-6.8-.1v-8.3h4.9c3.4 0 5.1-1.9 5.1-4.9 0-.4-.1-1-.3-1.4l-13.3-35.2h10.9l8.4 25.1 8.1-25.1h10.5L531.2 157z"/></svg>