<svg xmlns="http://www.w3.org/2000/svg" xmlns:xlink="http://www.w3.org/1999/xlink" viewBox="0 0 378.8 191.1"><path d="M127.2 158h-6.4V89.5h6.4V158zM164.6 95.3V158h-6.4V95.3h-19.7v-5.8h45.9v5.8h-19.8zM221.3 158h-6.2l-25-68.5h7.1l19.4 54.8c.3 1 .7 2 .9 3.1.3 1 .5 2.1.6 3.2h.2c.2-.9.4-1.9.7-2.9.3-1.1.7-2.2 1.1-3.5l20.2-54.7h6.9L221.3 158zM257.6 158V89.5h18c11.7 0 20.6 2.8 26.6 8.4 6 5.6 9 13.9 9 24.9 0 5.3-.8 10.1-2.5 14.4-1.7 4.3-4.1 8-7.2 11.1-3.2 3.1-7 5.4-11.5 7.1-4.5 1.7-9.6 2.5-15.2 2.5h-17.2zm6.3-62.7v56.9h10.5c4.7 0 8.9-.6 12.6-1.9 3.7-1.3 6.9-3.1 9.4-5.6 2.6-2.5 4.5-5.5 5.9-9.2 1.4-3.6 2-7.8 2-12.5 0-18.5-9.8-27.7-29.3-27.7h-11.1zM371.8 158l-38-55c-.5-.7-.9-1.4-1.4-2.2-.5-.7-.8-1.4-1.1-2.2h-.3c.1.6.1 1.4.2 2.4 0 1 .1 2.3.1 3.8V158h-6.4V89.5h7l37.4 54.3c.6.9 1.1 1.7 1.6 2.4s.9 1.4 1.3 2.1h.2c-.1-1.1-.2-2.2-.3-3.5-.1-1.3-.1-2.8-.1-4.3v-51h6.4V158h-6.6z"/><g><path d="M122.1 183.1h-1.2v-13h1.2v13zM128.7 171.2v11.9h-1.2v-11.9h-3.7V170h8.7v1.1h-3.8zM143.3 183.1h-1.2l-4.7-13h1.4l3.7 10.4c.1.2.1.4.2.6.1.2.1.4.1.6 0-.2.1-.4.1-.6.1-.2.1-.4.2-.7l3.8-10.4h1.3l-4.9 13.1zM150.9 183.1h-1.2v-13h1.2v13zM153.9 183.1v-13h3.4c2.2 0 3.9.5 5 1.6s1.7 2.6 1.7 4.7c0 1-.2 1.9-.5 2.7-.3.8-.8 1.5-1.4 2.1-.6.6-1.3 1-2.2 1.4-.9.3-1.8.5-2.9.5h-3.1zm1.2-11.9V182h2c.9 0 1.7-.1 2.4-.4.7-.2 1.3-.6 1.8-1.1.5-.5.9-1 1.1-1.7.3-.7.4-1.5.4-2.4 0-3.5-1.9-5.3-5.6-5.3h-2.1zM166.2 183.1v-13h6.3v1.1h-5.1v4.8h4.8v1.1h-4.8v4.9h5.4v1.1h-6.6zM180.4 183.3c-.9 0-1.8-.2-2.5-.5s-1.4-.8-1.9-1.4c-.5-.6-.9-1.3-1.2-2.1-.3-.8-.4-1.7-.4-2.6 0-1 .1-1.9.4-2.8.3-.8.7-1.6 1.2-2.2.5-.6 1.2-1.1 2-1.4.8-.3 1.7-.5 2.7-.5.9 0 1.7.2 2.5.5.7.3 1.4.8 1.9 1.4.5.6.9 1.3 1.2 2.1.3.8.4 1.7.4 2.6 0 1-.1 1.9-.4 2.7-.3.8-.7 1.6-1.2 2.2-.5.6-1.2 1.1-1.9 1.5-.9.3-1.8.5-2.8.5zm.1-12.4c-.8 0-1.5.1-2.1.4-.6.3-1.1.7-1.5 1.2-.4.5-.7 1.1-.9 1.8-.2.7-.3 1.4-.3 2.2 0 .7.1 1.4.3 2.1.2.7.5 1.3.9 1.8s.9.9 1.5 1.2c.6.3 1.3.5 2.1.5s1.5-.1 2.1-.4c.6-.3 1.1-.7 1.5-1.2.4-.5.7-1.1.9-1.8.2-.7.3-1.4.3-2.3 0-.8-.1-1.5-.3-2.2-.2-.7-.5-1.3-.9-1.8s-.9-.9-1.5-1.2c-.5-.1-1.3-.3-2.1-.3zM193.4 183.1v-13h3.4c2.2 0 3.9.5 5 1.6s1.7 2.6 1.7 4.7c0 1-.2 1.9-.5 2.7-.3.8-.8 1.5-1.4 2.1-.6.6-1.3 1-2.2 1.4s-1.8.5-2.9.5h-3.1zm1.2-11.9V182h2c.9 0 1.7-.1 2.4-.4.7-.2 1.3-.6 1.8-1.1.5-.5.9-1 1.1-1.7.3-.7.4-1.5.4-2.4 0-3.5-1.9-5.3-5.6-5.3h-2.1zM205.7 183.1v-13h6.3v1.1h-5.1v4.8h4.8v1.1h-4.8v4.9h5.4v1.1h-6.6zM219.1 183.1h-1.2l-4.7-13h1.4l3.7 10.4c.1.2.1.4.2.6.1.2.1.4.1.6 0-.2.1-.4.1-.6.1-.2.1-.4.2-.7l3.8-10.4h1.3l-4.9 13.1zM225.5 183.1v-13h6.3v1.1h-5.1v4.8h4.8v1.1h-4.8v4.9h5.4v1.1h-6.6zM234.4 183.1v-13h1.2V182h5.2v1.1h-6.4zM247.3 183.3c-.9 0-1.8-.2-2.5-.5-.8-.3-1.4-.8-1.9-1.4-.5-.6-.9-1.3-1.2-2.1-.3-.8-.4-1.7-.4-2.6 0-1 .1-1.9.4-2.8.3-.8.7-1.6 1.2-2.2.5-.6 1.2-1.1 2-1.4.8-.3 1.7-.5 2.7-.5.9 0 1.7.2 2.5.5.7.3 1.4.8 1.9 1.4.5.6.9 1.3 1.2 2.1.3.8.4 1.7.4 2.6 0 1-.1 1.9-.4 2.7-.3.8-.7 1.6-1.2 2.2-.5.6-1.2 1.1-1.9 1.5-1 .3-1.9.5-2.8.5zm.1-12.4c-.8 0-1.5.1-2.1.4-.6.3-1.1.7-1.5 1.2-.4.5-.7 1.1-.9 1.8-.2.7-.3 1.4-.3 2.2 0 .7.1 1.4.3 2.1.2.7.5 1.3.9 1.8s.9.9 1.5 1.2c.6.3 1.3.5 2.1.5s1.5-.1 2.1-.4c.6-.3 1.1-.7 1.5-1.2.4-.5.7-1.1.9-1.8.2-.7.3-1.4.3-2.3 0-.8-.1-1.5-.3-2.2-.2-.7-.5-1.3-.9-1.8s-.9-.9-1.5-1.2c-.6-.1-1.3-.3-2.1-.3zM256.8 178v5.1h-1.2v-13h3.4c.7 0 1.3.1 1.8.3.5.2 1 .4 1.3.7.4.3.6.7.8 1.2.2.5.3 1 .3 1.6 0 .6-.1 1.2-.3 1.7-.2.5-.5 1-.9 1.3-.4.4-.9.7-1.4.9-.6.2-1.2.3-1.9.3h-1.9zm0-6.8v5.7h1.7c1.1 0 2-.3 2.6-.8.6-.5.9-1.3.9-2.2 0-1.8-1.1-2.8-3.2-2.8h-2zM265.4 183.1v-13h6.3v1.1h-5.1v4.8h4.8v1.1h-4.8v4.9h5.4v1.1h-6.6zM281.4 183.1l-2-3.7c-.2-.4-.4-.7-.6-.9l-.6-.6c-.2-.1-.4-.3-.6-.3-.2-.1-.5-.1-.7-.1h-1.4v5.7h-1.2v-13h3.7c.5 0 1 .1 1.4.2.5.1.9.4 1.2.6.4.3.6.6.9 1.1.2.4.3.9.3 1.5 0 .5-.1.9-.2 1.3s-.3.7-.6 1c-.3.3-.6.6-.9.8-.4.2-.8.4-1.2.5.2.1.3.2.5.3l.4.4c.1.2.3.4.4.6.1.2.3.5.4.7l2.2 4h-1.4zm-5.9-11.9v5.1h2.2c.4 0 .8-.1 1.2-.2.4-.1.7-.3.9-.5.3-.2.5-.5.6-.9.1-.3.2-.7.2-1.1 0-.8-.2-1.4-.7-1.8-.5-.4-1.2-.6-2.1-.6h-2.3zM284 181.2c.2.2.5.3.7.4.3.1.5.2.8.3.3.1.6.2.8.2.3 0 .5.1.8.1 1 0 1.7-.2 2.2-.6.5-.4.7-.9.7-1.6 0-.3-.1-.6-.2-.9-.1-.3-.3-.5-.5-.7-.2-.2-.5-.4-.9-.7-.4-.2-.8-.5-1.3-.7-.6-.3-1-.6-1.4-.9-.4-.3-.7-.5-1-.8-.3-.3-.4-.6-.6-.9-.1-.3-.2-.7-.2-1.1 0-.5.1-1 .3-1.4.2-.4.5-.8.9-1.1.4-.3.8-.5 1.3-.7.5-.2 1.1-.2 1.6-.2 1 0 1.9.1 2.6.4v1.3c-.8-.4-1.7-.7-2.7-.7-.4 0-.8 0-1.1.1-.3.1-.6.2-.9.4-.3.2-.5.4-.6.7-.1.3-.2.6-.2.9 0 .3 0 .6.1.9.1.2.3.5.5.7.2.2.5.4.9.6.4.2.8.5 1.3.7.5.3 1 .6 1.4.8.4.3.7.6 1 .9.3.3.5.6.6 1 .1.3.2.7.2 1.1 0 .6-.1 1.1-.3 1.5-.2.4-.5.8-.9 1.1-.4.3-.8.5-1.4.6-.5.1-1.1.2-1.7.2h-.7c-.3 0-.6-.1-.9-.1-.3-.1-.6-.1-.8-.2-.3-.1-.5-.2-.6-.3v-1.3zM307.2 183.1l-7.2-10.4c-.1-.1-.2-.3-.3-.4-.1-.1-.2-.3-.2-.4V183.2h-1.2v-13h1.3l7.1 10.3c.1.2.2.3.3.5.1.1.2.3.2.4 0-.2 0-.4-.1-.7V170h1.2v13h-1.1zM311.4 183.1v-13h6.3v1.1h-5.1v4.8h4.8v1.1h-4.8v4.9h5.4v1.1h-6.6zM324 171.2v11.9h-1.2v-11.9h-3.7V170h8.7v1.1H324zM341 183.1h-1.3l-2.8-9.6c-.1-.2-.1-.5-.2-.7 0-.2-.1-.4-.1-.6 0 .4-.1.8-.3 1.3l-2.9 9.7h-1.3l-3.8-13h1.3l2.9 10.2c.1.2.1.4.2.6 0 .2.1.4.1.6 0-.3.1-.7.3-1.2l3-10.2h1l2.9 10.2c.1.2.1.4.1.6 0 .2.1.4.1.6 0-.1 0-.3.1-.4 0-.2.1-.3.1-.5l2.9-10.5h1.3l-3.6 12.9zM351.7 183.3c-.9 0-1.8-.2-2.5-.5-.8-.3-1.4-.8-1.9-1.4-.5-.6-.9-1.3-1.2-2.1-.3-.8-.4-1.7-.4-2.6 0-1 .1-1.9.4-2.8.3-.8.7-1.6 1.2-2.2.5-.6 1.2-1.1 2-1.4.8-.3 1.7-.5 2.7-.5.9 0 1.7.2 2.5.5.7.3 1.4.8 1.9 1.4.5.6.9 1.3 1.2 2.1.3.8.4 1.7.4 2.6 0 1-.1 1.9-.4 2.7-.3.8-.7 1.6-1.2 2.2-.5.6-1.2 1.1-1.9 1.5-.9.3-1.8.5-2.8.5zm.1-12.4c-.8 0-1.5.1-2.1.4-.6.3-1.1.7-1.5 1.2-.4.5-.7 1.1-.9 1.8-.2.7-.3 1.4-.3 2.2 0 .7.1 1.4.3 2.1.2.7.5 1.3.9 1.8s.9.9 1.5 1.2c.6.3 1.3.5 2.1.5s1.5-.1 2.1-.4c.6-.3 1.1-.7 1.5-1.2.4-.5.7-1.1.9-1.8.2-.7.3-1.4.3-2.3 0-.8-.1-1.5-.3-2.2-.2-.7-.5-1.3-.9-1.8s-.9-.9-1.5-1.2c-.5-.1-1.3-.3-2.1-.3zM367.1 183.1l-2-3.7c-.2-.4-.4-.7-.6-.9l-.6-.6c-.2-.1-.4-.3-.6-.3-.2-.1-.5-.1-.7-.1h-1.4v5.7H360v-13h3.7c.5 0 1 .1 1.4.2.5.1.9.4 1.2.6.4.3.6.6.9 1.1.2.4.3.9.3 1.5 0 .5-.1.9-.2 1.3s-.3.7-.6 1c-.3.3-.6.6-.9.8-.4.2-.8.4-1.2.5.2.1.3.2.5.3l.4.4c.1.2.3.4.4.6.1.2.3.5.4.7l2.2 4h-1.4zm-5.9-11.9v5.1h2.2c.4 0 .8-.1 1.2-.2.4-.1.7-.3.9-.5.3-.2.5-.5.6-.9.1-.3.2-.7.2-1.1 0-.8-.2-1.4-.7-1.8-.5-.4-1.2-.6-2.1-.6h-2.3zM377.1 183.1l-5.3-6.1c-.1-.2-.2-.3-.3-.4v6.5h-1.2v-13h1.2v6.1c0-.1.1-.1.1-.2s.1-.1.2-.2l5.1-5.7h1.5l-5.6 6.3 6 6.7h-1.7z"/></g><path fill-rule="evenodd" clip-rule="evenodd" fill="#717373" d="M45.9 144.7L0 191.1V99.4l45.9-46.5"/><path fill-rule="evenodd" clip-rule="evenodd" fill="#DF5E1F" d="M98.2 91.8l-45.9 46.4V46.4L98.2 0"/><g><defs><path id="a" d="M0 15.3h98.2v100.4H0z"/></defs><clipPath id="b"><use xlink:href="#a" overflow="visible"/></clipPath><path clip-path="url(#b)" fill="#59595A" d="M52.3 76.3V78C67.2 66.8 81.9 54.1 98 40l.2-.2V38c-.4.3-.7.6-1.1 1-15.8 13.8-30.2 26.3-44.8 37.3M0 108.7c16.7-7 31.5-15.8 45.9-26V81C31.5 91.4 16.7 100.2 0 107.3v1.4z"/><path clip-path="url(#b)" fill="#59595A" d="M0 106.3c16.7-7.1 31.5-16 45.9-26.5v-1.7C31.5 88.7 16.7 97.7 0 104.8v1.5zM52.3 73.2v1.7c14.4-11.1 28.6-23.6 44.1-37.4.6-.5 1.2-1 1.7-1.6v-1.8c-.9.8-1.8 1.6-2.6 2.3-15.2 13.6-29.1 26-43.2 36.8"/><path clip-path="url(#b)" fill="#59595A" d="M0 103.8c16.8-7.2 31.6-16.4 45.9-27.2v-1.7C31.6 85.8 16.8 95.1 0 102.3v1.5zM52.3 69.8v1.7C66.8 60 81 46.7 96.6 32.2c.5-.5 1.1-1 1.6-1.5v-1.8c-.9.8-1.7 1.6-2.6 2.4-15.2 14.1-29.1 27.1-43.3 38.5M52.3 59.5c11.5-9.6 22.2-20 32.5-30.8.8-.9-.5-2.2-1.3-1.3-10 10.4-20.2 20.5-31.2 29.8v2.3zM44.8 65.6c.4-.3.7-.6 1-.9v-2.3c-.3.3-.6.5-.9.8-9.6 7.6-19.8 14.4-30.1 21.1l-5.9 6c12.3-7.8 24.5-15.8 35.9-24.7M39.9 65.6c2.1-1.6 4-3.3 6-5v-2.4c-1.9 1.7-3.9 3.4-5.9 5-4.5 3.6-9.3 6.8-14.1 10L20 79.1c6.9-4.2 13.6-8.6 19.9-13.5M74.9 29.5c-7.3 7.9-14.7 15.7-22.6 22.9V55c8.4-7.6 16.2-15.8 23.9-24.1.9-.9-.4-2.3-1.3-1.4M88.1 25.2c3.4-.6 6.8-1.3 10.1-2.1v-2c-2.3.6-4.6 1.1-7 1.6-6 1.2-12 2-18.1 2.6l-2 2c5.7-.5 11.4-1.2 17-2.1M87.6 19.5c3.6-.6 7.1-1.4 10.6-2.2v-2c-2.5.6-4.9 1.2-7.5 1.7-3.7.7-7.5 1.3-11.2 1.8l-2.1 2.1c3.5-.4 6.8-.8 10.2-1.4M52.3 84.6C67.3 75 82 63.7 98.2 50v-1.5C82 62.2 67.3 73.6 52.3 83.3v1.3zM52.3 95.5C67.8 88 82.7 79.1 98.2 68.3v-1.4C82.6 77.8 67.8 86.7 52.3 94.2v1.3z"/><path clip-path="url(#b)" fill="#59595A" d="M52.3 94.1C67.2 86.5 82 77.3 98.2 65.8v-1.4C82.1 76.1 67.3 85.2 52.3 92.9v1.2zM0 115.7c16.6-5.1 31.6-10.6 45.9-17.1v-2.4c-4.7 2.3-9.4 4.4-14.2 6.4 4.8-2.1 9.5-4.3 14.2-6.7v-1.2c-14 7.1-28.6 13-45.4 18.1 16.4-6.2 31.2-12.9 45.4-20.8v-1.3c-1.7.9-3.3 1.9-5 2.8 1.7-.9 3.3-1.9 5-2.9v-1.3c-7.4 4.3-14.8 8.2-22.4 11.8 7.8-3.8 15.1-7.9 22.4-12.3v-1.3c-14.2 8.7-29 16-45.9 22.5v5.7z"/><path clip-path="url(#b)" fill="#59595A" d="M52.3 92.4c15.3-8.2 30-17.9 45.9-29.6v-1.4C82.3 73.2 67.6 83 52.3 91.2v1.2zM52.3 88.2c15.3-9 30.1-19.4 45.9-32.2v-1.5C82.4 67.3 67.6 77.8 52.3 86.9v1.3z"/><path clip-path="url(#b)" fill="#59595A" d="M52.3 86.6c14.7-9 29.5-19.8 45.9-33.3v-1.4C81.8 65.4 67 76.2 52.3 85.3v1.3z"/></g></svg>