<svg id="Layer_1" xmlns="http://www.w3.org/2000/svg" viewBox="0 0 276.8 300"><style>.st0{fill:url(#XMLID_2_);} .st1{fill:url(#XMLID_3_);} .st2{fill:url(#XMLID_4_);} .st3{fill:url(#XMLID_5_);} .st4{fill:#FFFFFF;}</style><linearGradient id="XMLID_2_" gradientUnits="userSpaceOnUse" x1="73.357" y1="277.748" x2="253.977" y2="168.735"><stop offset="0" stop-color="#FDEF3B"/><stop offset="1" stop-color="#F47B3E"/></linearGradient><path id="XMLID_30_" class="st0" d="M273.4 165.4c2-1.8 3.2-4.4 3.4-7.3.3-5.9-4.3-10.9-10.2-11.2-2.9-.1-5.5.9-7.5 2.6L66 255.2c-4.4 1.9-8.3 5.1-10.9 9.5-6.6 11.1-2.9 25.4 8.2 32 7.9 4.7 17.4 4.2 24.6-.5.6-.4 1.1-.8 1.7-1.2l179.6-126.4c1-.6 3.5-2.5 4.2-3.2z"/><linearGradient id="XMLID_3_" gradientUnits="userSpaceOnUse" x1="111.416" y1="15.916" x2="276.274" y2="160.244"><stop offset="0" stop-color="#F15A6B"/><stop offset=".313" stop-color="#F2675F"/><stop offset=".769" stop-color="#F47649"/><stop offset="1" stop-color="#F47B3E"/></linearGradient><path id="XMLID_29_" class="st1" d="M273.6 150.1L126.7 5.8c-3.3-3.6-7.9-5.8-13.1-5.8-9.8 0-17.8 8-17.8 17.8 0 4.7 1.9 9.1 4.9 12.3l.1.1c.8.9 1.7 1.6 2.7 2.3l155.2 132.9c1.8 1.7 4.1 2.8 6.8 3 5.9.3 10.9-4.3 11.2-10.2.2-3.2-1-6-3.1-8.1z"/><linearGradient id="XMLID_4_" gradientUnits="userSpaceOnUse" x1="121.982" y1="146.619" x2="24.278" y2="85.602"><stop offset="0" stop-color="#7D5AA6"/><stop offset=".094" stop-color="#8B58A0"/><stop offset=".508" stop-color="#C04D8C"/><stop offset=".807" stop-color="#E04381"/><stop offset=".957" stop-color="#EE3D7C"/></linearGradient><path id="XMLID_28_" class="st2" d="M131.5 137.2c-.2-.2-90.6-71.6-92.5-72.7l-.1-.1c-1.3-.8-2.7-1.5-4.1-2-13.3-5-28.2 1.8-33.1 15.1-4.4 11.7.3 24.6 10.6 31h.1c1.4.8 2.8 1.6 4.4 2.1.9.4 104.5 43.4 104.5 43.4 4.1 1.8 9 .8 11.8-2.9 3.4-4.3 2.7-10.5-1.6-13.9z"/><linearGradient id="XMLID_5_" gradientUnits="userSpaceOnUse" x1="120.201" y1="8.529" x2="24.814" y2="87.309"><stop offset="0" stop-color="#F15A6B"/><stop offset=".652" stop-color="#EF4778"/><stop offset="1" stop-color="#EE3D7C"/></linearGradient><path id="XMLID_27_" class="st3" d="M113.6 0c-3.9 0-7.5 1.3-10.5 3.5L11.2 65.3c-.2.1-.4.2-.5.4l-.1.1c-3.9 2.9-7.1 6.9-8.9 11.8-5 13.3 1.8 28.2 15.1 33.1 8.3 3.1 17.3 1.6 24-3.2 1.5-1.1 2.9-2.3 4.1-3.7L124.6 32c4.2-3.3 6.9-8.3 6.9-14 0-10-8.1-18-17.9-18z"/><g id="XMLID_3008_"><path id="XMLID_3033_" d="M79.4 85.9h117v117h-117z"/><path id="XMLID_3032_" class="st4" d="M89.5 180.9h43.9v7.3H89.5z"/><g id="XMLID_3009_"><path id="XMLID_3030_" class="st4" d="M89 116.7l3.4-3.2c.9 1.1 1.8 1.8 3 1.8 1.3 0 2.2-.9 2.2-2.7v-12.1h5.3v12.1c0 2.4-.6 4.1-1.9 5.4-1.3 1.3-3 1.9-5.2 1.9-3.5 0-5.5-1.4-6.8-3.2z"/><path id="XMLID_3028_" class="st4" d="M104 100.5h15.3v4.5h-10.1v2.9h9.1v4.2h-9.1v3h10.2v4.5h-15.5l.1-19.1z"/><path id="XMLID_3026_" class="st4" d="M126.2 105.1h-5.7v-4.6h16.7v4.6h-5.7v14.4h-5.3v-14.4z"/><path id="XMLID_3022_" class="st4" d="M89.5 124h9.8c2.4 0 4.1.6 5.2 1.7.8.8 1.2 1.8 1.2 3.1v.1c0 2.2-1.3 3.5-2.9 4.2 2.3.8 3.8 2.1 3.8 4.7v.1c0 3.3-2.7 5.3-7.2 5.3h-9.8l-.1-19.2zm11 5.9c0-1.1-.8-1.6-2.4-1.6h-3.5v3.3h3.3c1.6 0 2.6-.5 2.6-1.7zm-1.9 5.4h-4v3.5h4.1c1.6 0 2.5-.6 2.5-1.7v-.1c0-1-.8-1.7-2.6-1.7z"/><path id="XMLID_3019_" class="st4" d="M107.3 124h9c2.9 0 4.9.8 6.2 2 1.1 1.1 1.7 2.6 1.7 4.4v.1c0 2.9-1.6 4.9-3.9 5.9l4.5 6.6h-6.1l-3.8-5.8h-2.3v5.8h-5.3v-19zm8.8 9.1c1.8 0 2.8-.9 2.8-2.3v-.1c0-1.5-1.1-2.3-2.9-2.3h-3.5v4.6h3.6z"/><path id="XMLID_3016_" class="st4" d="M130.4 123.9h5.1l8.1 19.2h-5.7l-1.4-3.4h-7.4l-1.4 3.4h-5.5l8.2-19.2zm4.6 11.6l-2.1-5.4-2.2 5.4h4.3z"/><path id="XMLID_3014_" class="st4" d="M144.2 124h5.3v19.1h-5.3V124z"/><path id="XMLID_3012_" class="st4" d="M150.8 124h4.9l7.8 10.1V124h5.2v19.1h-4.6l-8.2-10.5v10.5h-5.2l.1-19.1z"/><path id="XMLID_3010_" class="st4" d="M169.1 140.2l2.9-3.5c1.9 1.5 4 2.3 6.2 2.3 1.4 0 2.2-.5 2.2-1.3v-.1c0-.8-.6-1.2-3.2-1.9-4.1-.9-7.2-2.1-7.2-6v-.1c0-3.5 2.8-6.1 7.4-6.1 3.2 0 5.8.9 7.8 2.5l-2.6 3.7c-1.7-1.3-3.6-1.9-5.3-1.9-1.3 0-1.9.5-1.9 1.2v.1c0 .9.7 1.3 3.3 1.9 4.4 1 7.1 2.4 7.1 5.9v.1c0 3.9-3.1 6.2-7.7 6.2-3.4.2-6.6-.9-9-3z"/></g></g></svg>