<svg id="Layer_1" xmlns="http://www.w3.org/2000/svg" viewBox="-475.031 755.365 220.509 80"><style>.st0{fill:#136ba2}.st1{fill:#fa930d}</style><path class="st0" d="M-256.03 782.154c-4.616-2.597-6.473-3.53-9.206-3.53-2.525 0-3.742 1.292-3.742 3.296 0 6 14.456 4.353 14.456 18.347 0 7.65-4.215 12.237-11.373 12.237-4.385 0-6.45-1.882-9.653-4v-8.585c4.614 3.763 6.477 5.172 9.96 5.172 2.683 0 3.744-1.41 3.744-3.766 0-6.59-14.363-4.117-14.363-18.586 0-6.94 2.873-11.53 10.312-11.53 3.577 0 5.815.94 9.863 3.175l.003 7.768zm-111.647-10.584c6.59 0 9.488 5.528 9.488 11.53 0 4.36-1.786 7.65-5.456 9.77-1.023.43-1.555.57-2.315.752l11.07 18.073h-7.795l-10.43-16.353v16.353h-7.04V771.57h12.48zm-5.44 16.468h3.27c2.26 0 4.426-1.172 4.426-4.587 0-3.054-1.6-4.59-4.614-4.59h-3.086v9.18zm51.78 23.65h-7.606l-2.637-8h-12.48l-2.353 8h-7.514l11.94-40.123h7.395l13.256 40.122zm-16.81-30.59l-3.747 15.654h7.96l-4.213-15.654zm26.195 30.59h-7.04v-40.123h7.04v40.122zm32.682 0h-5.814l-14.81-25.76v25.76h-7.037v-40.123h6.373l14.246 24.47v-24.47h7.04v40.122zm-111.012-22.114c2.732-1.65 4.428-4.595 4.428-8.003 0-1.775-.348-3.713-1.23-5.414-2.582 2.286-5.434 4.78-6.295 5.53.136.466.205.942.205 1.41 0 2.118-1.13 4.36-4.05 4.36h-2.307V777.9l8.404-5.503c-1.21-.51-2.654-.824-4.4-.824h-11.043v40.122h11.77c9.42 0 11.4-7.173 11.4-11.77-.003-4.706-2.265-8.825-6.88-10.35zm-6.663 14.706h-2.59v-9.414h3.717c2.825 0 4.898 1.523 4.898 4.473.003 3.53-1.597 4.94-6.025 4.94z"/><path class="st1" d="M-380.273 766.855c-.44-.276-5.592 2.932-8.827 5.183l-1.19.83-8.283 5.556v6.16c1.775-1.206 3.205-2.343 4.23-3.374l6.2-5.31s3.098-2.785 4.725-4.404l.606-.57c.452-.403.76-.687.76-1.062l-.003-.064c-.017-.218 1.98-2.82 1.782-2.945zm-32.483 26.188l5.042-3.423v-6.163l-4.52 2.94-5.436 3.53c.106-.795.215-1.634.215-1.634.707-5.247 1.36-10.474 1.36-13.96 0-1.686-.15-2.964-.525-3.632-.268-.465-.672-.77-1.167-.874-.662-.136-1.43.096-2.17.656-2.31 1.606-3.457 6.316-3.457 14.308 0 2.583.128 5.518.364 8.797-.268.244-1.597 1.44-1.597 1.44.02-.016-2.283 2.015-2.283 2.015s-.064.073-.1.127c-2.135 1.883-3.48 2.94-3.99 3.15a3.81 3.81 0 0 1-1.704.26c2.9-2.143 5.265-6.72 5.265-9.444 0-.31-.03-.61-.093-.856-.476-1.864-1.41-3.22-2.72-3.92-1.28-.685-2.827-.717-4.602-.076l-.694.276c-3.2 1.452-12.922 6.922-15.94 8.615.354-4.263 2.106-23.713 2.6-33.97.314-6.622 0-2.516 0-3.805 0-4.82-6.057 0-9.41 3.357-1.405 1.4-5.8 5.42-4.21 8.476 1.713 3.288 3.517 2.187 4.46 7.848 1.667 9.954.394 20.16.397 20.816-.547.252-4.712 2.217-4.712 2.217-7.187 3.326-12.646 5.85-12.646 10 0 .646.132 1.33.41 2.062 5.965 15.593 14.087 23.976 17.29 23.136 4.646-1.24 4.835-7.345 5.12-16.58.143-4.6.31-9.82 1.02-15.687.37-.237 8.18-6.044 9.63-6.98-.694 1.418-.686 2.79-.686 3.525 0 1.834.266 3.35.638 4.133.63 1.31 1.185 2.29 2.62 2.935 1.82.87 3.4 1.116 6.506-.106 1.395-.55 3.787-2.207 6.442-4.437.53.91 2.83 4.872 2.83 4.872l2.11 3.6c.953 1.697 2.462 2.168 4.147 1.307 1.278-.63 2.124-1.196 2.376-2.023a1.71 1.71 0 0 0 .075-.51c0-.556-.247-1.075-.484-1.497-2.426-4.31-2.585-8.065-2.585-10.922v-.54c.417-.307 4.82-3.353 4.82-3.353zm-47.44 29.53c-1.905-1.544-2.808-2.846-4.204-6.225-2.36-5.71.91-7.476 6.833-10.833-.707 6.08-1.198 18.49-2.628 17.058zm23.597-24.393c-.082-2.147-.526-4.9 2.23-6.365 1.074-.585 1.698-.213 2.06.157.728.725-.9 4.1-4.287 6.208z"/></svg>