<?xml version="1.0" encoding="utf-8"?>
<!-- Generator: Adobe Illustrator 22.1.0, SVG Export Plug-In . SVG Version: 6.00 Build 0)  -->
<svg version="1.1" xmlns="http://www.w3.org/2000/svg" xmlns:xlink="http://www.w3.org/1999/xlink" x="0px" y="0px"
	 viewBox="0 0 1000 1000" style="enable-background:new 0 0 1000 1000;" xml:space="preserve">
<style type="text/css">
	.st0{display:none;}
	.st1{fill:#231F20;}
	.st2{clip-path:url(#SVGID_2_);}
	.st3{clip-path:url(#SVGID_4_);fill:#0868B1;}
	.st4{clip-path:url(#SVGID_4_);fill:#FFFFFF;}
</style>
<g id="Layer_2" class="st0">
</g>
<g id="Layer_1">
	<g>
		<path class="st1" d="M89.6,402.1c-1.5,2-3.2,3.4-5.1,4.3c-1.9,0.9-4,1.3-6.3,1.3c-2.4,0-4.5-0.4-6.5-1.2c-2-0.8-3.6-1.9-5-3.4
			c-1.4-1.4-2.5-3.1-3.3-5.1c-0.8-2-1.2-4.2-1.2-6.5c0-2.3,0.4-4.5,1.2-6.5c0.8-2,1.9-3.7,3.3-5.1c1.4-1.4,3.1-2.6,5-3.4
			c2-0.8,4.1-1.2,6.5-1.2c2.1,0,4,0.4,5.9,1.1c1.8,0.7,3.4,2,4.8,3.7l-2.3,2c-1-1.5-2.2-2.5-3.7-3.2c-1.5-0.7-3-1-4.6-1
			c-2,0-3.8,0.3-5.4,1c-1.6,0.7-3,1.7-4.1,2.9c-1.1,1.2-2,2.7-2.6,4.3c-0.6,1.7-0.9,3.4-0.9,5.4c0,1.9,0.3,3.7,0.9,5.3
			c0.6,1.7,1.5,3.1,2.6,4.3c1.1,1.2,2.5,2.2,4.1,2.9c1.6,0.7,3.4,1,5.4,1c0.8,0,1.6-0.1,2.4-0.3c0.8-0.2,1.7-0.5,2.5-0.9
			c0.8-0.4,1.6-0.9,2.3-1.5c0.7-0.6,1.4-1.3,1.9-2.2L89.6,402.1z"/>
		<path class="st1" d="M121.1,395.1c0,1.7-0.2,3.2-0.6,4.7c-0.4,1.5-1,2.8-1.9,4c-0.9,1.2-2,2.1-3.5,2.8c-1.4,0.7-3.2,1-5.3,1
			c-2.1,0-3.8-0.3-5.3-1c-1.4-0.7-2.6-1.6-3.5-2.8c-0.9-1.2-1.5-2.5-1.9-4c-0.4-1.5-0.6-3.1-0.6-4.7v-19h2.9v18.3
			c0,1.1,0.1,2.3,0.3,3.5c0.2,1.2,0.6,2.4,1.2,3.5c0.6,1.1,1.4,2,2.5,2.7c1.1,0.7,2.5,1,4.3,1c1.8,0,3.2-0.3,4.3-1
			c1.1-0.7,1.9-1.6,2.5-2.7c0.6-1.1,1-2.2,1.2-3.5c0.2-1.2,0.3-2.4,0.3-3.5v-18.3h2.9V395.1z"/>
		<path class="st1" d="M134.1,401.2c0.8,1.3,1.7,2.3,2.9,2.9c1.2,0.6,2.6,1,4.1,1c1,0,1.9-0.1,2.7-0.4c0.8-0.3,1.6-0.7,2.2-1.2
			c0.6-0.5,1.1-1.2,1.5-1.9c0.4-0.7,0.5-1.6,0.5-2.5c0-1.1-0.2-2-0.7-2.7c-0.5-0.7-1.1-1.3-1.8-1.7c-0.8-0.4-1.6-0.8-2.5-1.2
			c-0.9-0.3-1.9-0.6-2.9-1c-1-0.3-2-0.7-2.9-1.1c-0.9-0.4-1.8-0.9-2.5-1.6c-0.8-0.7-1.4-1.5-1.8-2.5c-0.4-1-0.7-2.2-0.7-3.7
			c0-1.4,0.3-2.6,0.8-3.6c0.5-1.1,1.3-1.9,2.2-2.7c0.9-0.7,2-1.2,3.2-1.6c1.2-0.4,2.4-0.5,3.7-0.5c1.7,0,3.2,0.3,4.7,0.9
			c1.4,0.6,2.7,1.6,3.7,3L148,381c-0.7-1-1.6-1.8-2.5-2.3c-1-0.5-2.1-0.8-3.5-0.8c-0.9,0-1.8,0.1-2.7,0.4c-0.8,0.2-1.6,0.6-2.2,1.1
			c-0.6,0.5-1.1,1.1-1.5,1.8c-0.4,0.7-0.6,1.6-0.6,2.6c0,1.5,0.4,2.7,1.2,3.5c0.8,0.8,1.8,1.5,2.9,2c1.2,0.5,2.5,0.9,3.8,1.3
			c1.4,0.4,2.7,0.8,3.8,1.5c1.2,0.6,2.2,1.5,2.9,2.5c0.8,1.1,1.2,2.6,1.2,4.5c0,1.4-0.3,2.6-0.8,3.7c-0.5,1.1-1.2,2-2.1,2.7
			c-0.9,0.7-1.9,1.3-3.1,1.7c-1.2,0.4-2.4,0.6-3.6,0.6c-2,0-3.9-0.4-5.6-1.1c-1.7-0.7-3.2-1.9-4.4-3.6L134.1,401.2z"/>
		<polygon class="st1" points="168.7,378.7 158.2,378.7 158.2,376.1 182.1,376.1 182.1,378.7 171.5,378.7 171.5,406.9 168.7,406.9 
					"/>
		<path class="st1" d="M189.2,391.5c0-2.3,0.4-4.5,1.2-6.5c0.8-2,1.9-3.7,3.3-5.1c1.4-1.4,3.1-2.6,5-3.4c2-0.8,4.1-1.2,6.5-1.2
			c2.3,0,4.5,0.4,6.5,1.2c2,0.8,3.6,1.9,5,3.4c1.4,1.4,2.5,3.1,3.3,5.1c0.8,2,1.2,4.1,1.2,6.5c0,2.3-0.4,4.5-1.2,6.5
			c-0.8,2-1.9,3.7-3.3,5.1c-1.4,1.4-3.1,2.6-5,3.4c-2,0.8-4.1,1.2-6.5,1.2c-2.4,0-4.5-0.4-6.5-1.2c-2-0.8-3.6-1.9-5-3.4
			c-1.4-1.4-2.5-3.1-3.3-5.1C189.6,396,189.2,393.8,189.2,391.5 M192,391.5c0,1.9,0.3,3.7,0.9,5.3c0.6,1.7,1.5,3.1,2.6,4.3
			c1.1,1.2,2.5,2.2,4.1,2.9c1.6,0.7,3.4,1,5.4,1c2,0,3.8-0.3,5.4-1c1.6-0.7,3-1.7,4.1-2.9c1.1-1.2,2-2.7,2.6-4.3
			c0.6-1.7,0.9-3.4,0.9-5.3s-0.3-3.7-0.9-5.3c-0.6-1.7-1.5-3.1-2.6-4.3c-1.1-1.2-2.5-2.2-4.1-2.9c-1.6-0.7-3.4-1-5.4-1
			c-2,0-3.8,0.3-5.4,1c-1.6,0.7-3,1.7-4.1,2.9c-1.1,1.2-2,2.7-2.6,4.3C192.3,387.8,192,389.6,192,391.5"/>
		<polygon class="st1" points="231.5,376.1 235.8,376.1 247,401.9 258.3,376.1 262.3,376.1 262.3,406.9 259.5,406.9 259.5,379.8 
			259.4,379.8 247.6,406.9 246.4,406.9 234.5,379.8 234.4,379.8 234.4,406.9 231.5,406.9 		"/>
		<polygon class="st1" points="274.8,376.1 293.7,376.1 293.7,378.7 277.7,378.7 277.7,389.7 292.7,389.7 292.7,392.3 277.7,392.3 
			277.7,404.3 294.4,404.3 294.4,406.9 274.8,406.9 		"/>
		<path class="st1" d="M305,376.1h8.1c0.4,0,1,0,1.7,0c0.7,0,1.4,0.1,2.3,0.3c0.8,0.1,1.6,0.4,2.5,0.7c0.8,0.3,1.6,0.8,2.3,1.4
			c0.7,0.6,1.2,1.4,1.7,2.3c0.4,0.9,0.7,2.1,0.7,3.4c0,1.5-0.3,2.7-0.8,3.7c-0.5,1-1.1,1.7-1.9,2.3c-0.8,0.6-1.6,1-2.5,1.3
			c-0.9,0.3-1.8,0.5-2.7,0.6l9,14.8h-3.3l-8.7-14.6h-5.3v14.6H305V376.1z M307.9,389.7h6.1c1.5,0,2.7-0.2,3.7-0.6
			c0.9-0.4,1.7-0.8,2.2-1.4c0.5-0.6,0.9-1.1,1.1-1.8s0.3-1.2,0.3-1.7c0-0.5-0.1-1.1-0.3-1.7c-0.2-0.6-0.5-1.2-1.1-1.8
			c-0.5-0.6-1.3-1-2.2-1.4c-0.9-0.4-2.2-0.6-3.7-0.6h-6.1V389.7z"/>
		<rect x="350.4" y="374.3" class="st1" width="2.1" height="43.5"/>
		<path class="st1" d="M411.6,406.9h-17c-2.1,0-4.2-0.4-6.2-1.1c-2-0.8-3.7-1.8-5.2-3.2c-1.5-1.4-2.7-3-3.5-5
			c-0.9-1.9-1.3-4.1-1.3-6.5c0-2.2,0.4-4.3,1.1-6.2c0.7-1.9,1.8-3.6,3.1-5c1.3-1.4,3-2.5,4.9-3.3c1.9-0.8,4.1-1.2,6.5-1.2
			c2.4,0,4.5,0.4,6.5,1.2c1.9,0.8,3.6,1.9,4.9,3.3c1.3,1.4,2.4,3.1,3.1,5c0.7,1.9,1.1,4,1.1,6.2c0,1.4-0.2,2.7-0.5,4.1
			c-0.3,1.3-0.9,2.6-1.5,3.8c-0.7,1.2-1.5,2.2-2.4,3.2c-1,0.9-2,1.6-3.2,2.1v0.1h9.6V406.9z M381.3,391.1c0,1.8,0.3,3.5,1,5.1
			c0.6,1.6,1.6,3,2.7,4.2c1.2,1.2,2.6,2.1,4.2,2.8c1.6,0.7,3.4,1,5.3,1c2,0,3.7-0.4,5.2-1.1c1.5-0.7,2.8-1.7,3.8-2.9
			c1-1.2,1.8-2.6,2.4-4.2c0.5-1.6,0.8-3.2,0.8-4.9c0-1.9-0.3-3.6-0.9-5.2c-0.6-1.6-1.4-3-2.5-4.2c-1.1-1.2-2.4-2.1-4-2.8
			c-1.6-0.7-3.4-1-5.4-1c-2,0-3.8,0.3-5.4,1c-1.6,0.7-2.9,1.6-4,2.8c-1.1,1.2-1.9,2.6-2.5,4.2C381.6,387.5,381.3,389.3,381.3,391.1"
			/>
		<path class="st1" d="M443,395.1c0,1.7-0.2,3.2-0.6,4.7c-0.4,1.5-1,2.8-1.9,4c-0.9,1.2-2,2.1-3.5,2.8c-1.4,0.7-3.2,1-5.3,1
			c-2.1,0-3.8-0.3-5.3-1c-1.4-0.7-2.6-1.6-3.5-2.8c-0.9-1.2-1.5-2.5-1.9-4c-0.4-1.5-0.6-3.1-0.6-4.7v-19h2.9v18.3
			c0,1.1,0.1,2.3,0.3,3.5c0.2,1.2,0.6,2.4,1.2,3.5c0.6,1.1,1.4,2,2.5,2.7c1.1,0.7,2.5,1,4.3,1c1.8,0,3.2-0.3,4.3-1
			c1.1-0.7,1.9-1.6,2.5-2.7c0.6-1.1,1-2.2,1.2-3.5c0.2-1.2,0.3-2.4,0.3-3.5v-18.3h2.9V395.1z"/>
		<path class="st1" d="M464.7,376.1h3l13,30.8h-3.2l-3.3-8.2h-16.3l-3.5,8.2h-3L464.7,376.1z M466,379.2l-7.2,16.9H473L466,379.2z"
			/>
		<polygon class="st1" points="489.4,376.1 492.2,376.1 492.2,404.3 506.6,404.3 506.6,406.9 489.4,406.9 		"/>
		<rect x="515.5" y="376.1" class="st1" width="2.9" height="30.8"/>
		<polygon class="st1" points="538,378.7 527.4,378.7 527.4,376.1 551.4,376.1 551.4,378.7 540.8,378.7 540.8,406.9 538,406.9 		"/>
		<polygon class="st1" points="567.3,393.6 556,376.1 559.4,376.1 568.7,390.7 578.2,376.1 581.5,376.1 570.2,393.6 570.2,406.9 
			567.3,406.9 		"/>
		<rect x="605" y="374.3" class="st1" width="2.1" height="43.5"/>
		<rect x="635.1" y="376.1" class="st1" width="2.9" height="30.8"/>
		<polygon class="st1" points="650.8,376.1 654.5,376.1 673.2,403.1 673.3,403.1 673.3,376.1 676.2,376.1 676.2,406.9 672.5,406.9 
			653.7,379.9 653.6,379.9 653.6,406.9 650.8,406.9 		"/>
		<polygon class="st1" points="689,376.1 692.7,376.1 711.4,403.1 711.5,403.1 711.5,376.1 714.4,376.1 714.4,406.9 710.7,406.9 
			691.9,379.9 691.8,379.9 691.8,406.9 689,406.9 		"/>
		<path class="st1" d="M725.2,391.5c0-2.3,0.4-4.5,1.2-6.5c0.8-2,1.9-3.7,3.3-5.1c1.4-1.4,3.1-2.6,5-3.4c2-0.8,4.1-1.2,6.5-1.2
			c2.3,0,4.5,0.4,6.5,1.2c2,0.8,3.6,1.9,5,3.4c1.4,1.4,2.5,3.1,3.3,5.1c0.8,2,1.2,4.1,1.2,6.5c0,2.3-0.4,4.5-1.2,6.5
			c-0.8,2-1.9,3.7-3.3,5.1c-1.4,1.4-3.1,2.6-5,3.4c-2,0.8-4.1,1.2-6.5,1.2c-2.3,0-4.5-0.4-6.5-1.2c-2-0.8-3.6-1.9-5-3.4
			c-1.4-1.4-2.5-3.1-3.3-5.1C725.5,396,725.2,393.8,725.2,391.5 M728,391.5c0,1.9,0.3,3.7,0.9,5.3c0.6,1.7,1.5,3.1,2.6,4.3
			c1.1,1.2,2.5,2.2,4.1,2.9c1.6,0.7,3.4,1,5.4,1s3.8-0.3,5.4-1c1.6-0.7,3-1.7,4.1-2.9c1.1-1.2,2-2.7,2.6-4.3
			c0.6-1.7,0.9-3.4,0.9-5.3s-0.3-3.7-0.9-5.3c-0.6-1.7-1.5-3.1-2.6-4.3c-1.1-1.2-2.5-2.2-4.1-2.9c-1.6-0.7-3.4-1-5.4-1
			s-3.8,0.3-5.4,1c-1.6,0.7-3,1.7-4.1,2.9c-1.1,1.2-2,2.7-2.6,4.3C728.3,387.8,728,389.6,728,391.5"/>
		<polygon class="st1" points="763.4,376.1 766.5,376.1 776.5,403.1 786.5,376.1 789.5,376.1 777.8,406.9 774.9,406.9 		"/>
		<path class="st1" d="M805,376.1h3l13,30.8h-3.2l-3.4-8.2H798l-3.5,8.2h-3L805,376.1z M806.3,379.2l-7.2,16.9h14.1L806.3,379.2z"/>
		<polygon class="st1" points="833.6,378.7 823,378.7 823,376.1 847,376.1 847,378.7 836.5,378.7 836.5,406.9 833.6,406.9 		"/>
		<rect x="856.1" y="376.1" class="st1" width="2.9" height="30.8"/>
		<path class="st1" d="M869.7,391.5c0-2.3,0.4-4.5,1.2-6.5c0.8-2,1.9-3.7,3.3-5.1c1.4-1.4,3.1-2.6,5-3.4c2-0.8,4.1-1.2,6.5-1.2
			c2.3,0,4.5,0.4,6.5,1.2c2,0.8,3.6,1.9,5,3.4c1.4,1.4,2.5,3.1,3.3,5.1c0.8,2,1.2,4.1,1.2,6.5c0,2.3-0.4,4.5-1.2,6.5
			c-0.8,2-1.9,3.7-3.3,5.1c-1.4,1.4-3.1,2.6-5,3.4c-2,0.8-4.1,1.2-6.5,1.2c-2.3,0-4.5-0.4-6.5-1.2c-2-0.8-3.6-1.9-5-3.4
			c-1.4-1.4-2.5-3.1-3.3-5.1C870.1,396,869.7,393.8,869.7,391.5 M872.6,391.5c0,1.9,0.3,3.7,0.9,5.3c0.6,1.7,1.5,3.1,2.6,4.3
			c1.1,1.2,2.5,2.2,4.1,2.9c1.6,0.7,3.4,1,5.4,1c2,0,3.8-0.3,5.4-1c1.6-0.7,3-1.7,4.1-2.9c1.1-1.2,2-2.7,2.6-4.3
			c0.6-1.7,0.9-3.4,0.9-5.3s-0.3-3.7-0.9-5.3c-0.6-1.7-1.5-3.1-2.6-4.3c-1.1-1.2-2.5-2.2-4.1-2.9c-1.6-0.7-3.4-1-5.4-1
			c-2,0-3.8,0.3-5.4,1c-1.6,0.7-3,1.7-4.1,2.9c-1.1,1.2-2,2.7-2.6,4.3C872.9,387.8,872.6,389.6,872.6,391.5"/>
		<polygon class="st1" points="912.4,376.1 916.1,376.1 934.8,403.1 934.9,403.1 934.9,376.1 937.8,376.1 937.8,406.9 934.1,406.9 
			915.3,379.9 915.2,379.9 915.2,406.9 912.4,406.9 		"/>
	</g>
	<g>
		<path class="st1" d="M919.5,329.4v-1.1h5.8v1.1h-2.2v5.7h-1.4v-5.7H919.5z M928.4,328.2l1.7,4.9l1.8-4.9h1.9v6.8h-1.3v-5.5
			l-1.9,5.5h-1.1l-1.9-5.5v5.5h-1.2v-6.8H928.4z"/>
		<polygon class="st1" points="892.2,296.3 858.3,244.6 883,244.6 902.1,278.3 922.3,244.6 945.9,244.6 912,296.3 912,334.7 
			892.2,334.7 		"/>
		<path class="st1" d="M855.7,328.3c-5.9,3.1-12,5.3-18.3,6.6c-6.4,1.4-12.9,2-19.5,2c-7,0-13.5-1.1-19.5-3.3
			c-5.9-2.2-11.1-5.4-15.4-9.5c-4.3-4.1-7.7-9.1-10.1-15c-2.4-5.9-3.6-12.4-3.6-19.6c0-7.2,1.2-13.8,3.6-19.6
			c2.4-5.9,5.8-10.8,10.1-15c4.3-4.1,9.5-7.3,15.4-9.5c5.9-2.2,12.4-3.3,19.5-3.3c7.2,0,13.9,0.9,19.9,2.6c6.1,1.7,11.4,4.7,16,9
			l-14,15.3c-2.7-2.8-5.8-4.9-9.2-6.4c-3.4-1.4-7.6-2.2-12.7-2.2c-4.2,0-8.1,0.7-11.5,2.2c-3.4,1.4-6.4,3.5-8.9,6.1
			c-2.5,2.6-4.4,5.7-5.7,9.2c-1.3,3.6-2,7.4-2,11.6c0,4.2,0.7,8.1,2,11.7c1.3,3.5,3.2,6.6,5.7,9.2c2.5,2.6,5.4,4.6,8.9,6
			c3.4,1.4,7.3,2.2,11.5,2.2c4.3,0,8.1-0.5,11.2-1.5c3.1-1,5.6-2,7.5-3v-14.6h-16.2v-18.3h35.3V328.3z"/>
		<path class="st1" d="M663.3,289.6c0-7.2,1.2-13.8,3.6-19.6c2.4-5.9,5.8-10.8,10.1-15c4.3-4.1,9.5-7.3,15.4-9.5
			c5.9-2.2,12.4-3.3,19.5-3.3c7,0,13.5,1.1,19.5,3.3c5.9,2.2,11.1,5.4,15.4,9.5c4.3,4.1,7.7,9.1,10.1,15c2.4,5.9,3.6,12.4,3.6,19.6
			c0,7.2-1.2,13.8-3.6,19.6c-2.4,5.9-5.8,10.8-10.1,15c-4.3,4.1-9.5,7.3-15.4,9.5c-5.9,2.2-12.4,3.3-19.5,3.3
			c-7,0-13.5-1.1-19.5-3.3c-5.9-2.2-11.1-5.4-15.4-9.5c-4.3-4.1-7.7-9.1-10.1-15C664.5,303.4,663.3,296.9,663.3,289.6 M683.9,289.6
			c0,4.2,0.7,8.1,2,11.7c1.3,3.5,3.2,6.6,5.7,9.2c2.5,2.6,5.4,4.6,8.9,6c3.4,1.4,7.3,2.2,11.5,2.2c4.2,0,8.1-0.7,11.5-2.2
			c3.4-1.4,6.4-3.5,8.9-6c2.5-2.6,4.3-5.6,5.7-9.2c1.3-3.5,2-7.4,2-11.7c0-4.2-0.7-8-2-11.6c-1.3-3.6-3.2-6.6-5.7-9.2
			c-2.5-2.6-5.4-4.6-8.9-6.1c-3.4-1.4-7.3-2.2-11.5-2.2c-4.2,0-8.1,0.7-11.5,2.2c-3.4,1.4-6.4,3.5-8.9,6.1c-2.5,2.6-4.4,5.7-5.7,9.2
			C684.6,281.6,683.9,285.5,683.9,289.6"/>
		<polygon class="st1" points="603.7,244.6 623.6,244.6 623.6,316.4 660.4,316.4 660.4,334.7 603.7,334.7 		"/>
		<path class="st1" d="M492.2,289.6c0-7.2,1.2-13.8,3.6-19.6c2.4-5.9,5.8-10.8,10.1-15c4.3-4.1,9.5-7.3,15.4-9.5
			c5.9-2.2,12.4-3.3,19.5-3.3c7,0,13.5,1.1,19.5,3.3c5.9,2.2,11.1,5.4,15.4,9.5c4.3,4.1,7.7,9.1,10.1,15c2.4,5.9,3.6,12.4,3.6,19.6
			c0,7.2-1.2,13.8-3.6,19.6c-2.4,5.9-5.8,10.8-10.1,15c-4.3,4.1-9.5,7.3-15.4,9.5c-5.9,2.2-12.4,3.3-19.5,3.3
			c-7,0-13.5-1.1-19.5-3.3c-5.9-2.2-11.1-5.4-15.4-9.5c-4.3-4.1-7.7-9.1-10.1-15C493.4,303.4,492.2,296.9,492.2,289.6 M512.8,289.6
			c0,4.2,0.7,8.1,2,11.7c1.3,3.5,3.2,6.6,5.7,9.2c2.5,2.6,5.4,4.6,8.9,6c3.4,1.4,7.3,2.2,11.5,2.2c4.2,0,8.1-0.7,11.5-2.2
			c3.4-1.4,6.4-3.5,8.9-6c2.5-2.6,4.3-5.6,5.7-9.2c1.3-3.5,2-7.4,2-11.7c0-4.2-0.7-8-2-11.6c-1.3-3.6-3.2-6.6-5.7-9.2
			c-2.5-2.6-5.4-4.6-8.9-6.1c-3.4-1.4-7.3-2.2-11.5-2.2c-4.2,0-8.1,0.7-11.5,2.2c-3.4,1.4-6.4,3.5-8.9,6.1c-2.5,2.6-4.4,5.7-5.7,9.2
			C513.5,281.6,512.8,285.5,512.8,289.6"/>
		<polygon class="st1" points="393.2,244.6 420.2,244.6 458.6,307.2 458.8,307.2 458.8,244.6 478.7,244.6 478.7,334.7 452.7,334.7 
			413.3,270.5 413.1,270.5 413.1,334.7 393.2,334.7 		"/>
		<polygon class="st1" points="296.6,244.6 316.4,244.6 316.4,278.2 355,278.2 355,244.6 374.9,244.6 374.9,334.7 355,334.7 
			355,295.7 316.4,295.7 316.4,334.7 296.6,334.7 		"/>
		<path class="st1" d="M271.5,268c-2-2.4-4.4-4.2-7.2-5.5c-2.8-1.3-6.1-1.9-9.9-1.9c-3.7,0-7.2,0.7-10.4,2.2
			c-3.2,1.4-5.9,3.5-8.3,6.1c-2.3,2.6-4.2,5.7-5.5,9.2c-1.3,3.6-2,7.4-2,11.6c0,4.2,0.7,8.1,2,11.7c1.3,3.5,3.1,6.6,5.4,9.2
			c2.3,2.6,5,4.6,8.1,6c3.1,1.4,6.4,2.2,10,2.2c4.1,0,7.7-0.9,10.8-2.5c3.1-1.7,5.7-4.1,7.8-7.1l16.6,12.4
			c-3.8,5.4-8.7,9.3-14.5,11.8c-5.9,2.5-11.9,3.8-18.1,3.8c-7,0-13.5-1.1-19.5-3.3c-5.9-2.2-11.1-5.4-15.4-9.5
			c-4.3-4.1-7.7-9.1-10.1-15c-2.4-5.9-3.6-12.4-3.6-19.6c0-7.2,1.2-13.8,3.6-19.6c2.4-5.9,5.8-10.8,10.1-15
			c4.3-4.1,9.5-7.3,15.4-9.5c5.9-2.2,12.4-3.3,19.5-3.3c2.5,0,5.2,0.2,8,0.7c2.8,0.5,5.5,1.2,8.2,2.2c2.7,1,5.2,2.4,7.7,4.1
			c2.5,1.7,4.7,3.8,6.6,6.2L271.5,268z"/>
		<polygon class="st1" points="136.2,244.6 197.5,244.6 197.5,262.9 156.1,262.9 156.1,279.7 195.2,279.7 195.2,298 156.1,298 
			156.1,316.4 199.8,316.4 199.8,334.7 136.2,334.7 		"/>
		<polygon class="st1" points="79.8,262.1 54.1,262.1 54.1,244.6 125.4,244.6 125.4,262.1 99.7,262.1 99.7,334.7 79.8,334.7 		"/>
	</g>
	<g>
		<path class="st1" d="M835.7,42.8H880c2.2,0,5.2,0.1,9,0.2c3.8,0.2,7.9,0.6,12.4,1.4c4.4,0.8,9,2.1,13.6,3.8
			c4.6,1.8,8.7,4.3,12.4,7.6c3.7,3.3,6.7,7.5,9,12.6c2.4,5.1,3.6,11.3,3.6,18.6c0,8.1-1.4,14.8-4.2,20c-2.8,5.2-6.3,9.5-10.5,12.7
			c-4.2,3.2-8.8,5.7-13.9,7.3c-5.1,1.6-9.9,2.7-14.5,3.3l49,80.9H928l-47.4-80h-29.3v80h-15.7V42.8z M851.4,117.1h33.3
			c8.2,0,15-1,20.1-3.1c5.1-2.1,9.2-4.6,12-7.6c2.9-3,4.8-6.3,5.8-9.8c1-3.5,1.6-6.7,1.6-9.5c0-2.9-0.5-6-1.6-9.5
			c-1-3.5-3-6.7-5.8-9.7c-2.9-3-6.9-5.6-12-7.6c-5.2-2.1-11.9-3.1-20.1-3.1h-33.3V117.1z"/>
		<polygon class="st1" points="700.5,42.8 803.6,42.8 803.6,57.1 716.2,57.1 716.2,117.1 798.1,117.1 798.1,131.3 716.2,131.3 
			716.2,197 807.4,197 807.4,211.3 700.5,211.3 		"/>
		<path class="st1" d="M660.3,200.4c-9.8,5.6-20,9.5-30.6,11.8c-10.5,2.3-21.3,3.5-32.2,3.5c-12.9,0-24.6-2.2-35.4-6.6
			c-10.7-4.4-19.9-10.5-27.5-18.3c-7.6-7.9-13.6-17.2-17.9-28.1c-4.3-10.9-6.4-22.7-6.4-35.6c0-12.9,2.1-24.7,6.4-35.5
			c4.3-10.8,10.2-20.1,17.9-28c7.6-7.8,16.8-14,27.5-18.4c10.7-4.4,22.5-6.7,35.4-6.7c25.1,0,45.3,7.8,60.7,23.3l-11.4,11.9
			c-2.6-3-5.7-5.8-9.4-8.4c-3.7-2.6-7.8-4.8-12.1-6.7c-4.4-1.8-8.9-3.3-13.7-4.3c-4.8-1-9.4-1.5-14-1.5c-11,0-20.8,1.9-29.6,5.7
			c-8.8,3.8-16.3,9-22.5,15.7c-6.2,6.7-11,14.5-14.3,23.6c-3.3,9-5,18.8-5,29.3c0,10.5,1.7,20.2,5,29.3c3.3,9,8.1,16.9,14.3,23.6
			c6.2,6.7,13.7,11.9,22.5,15.7c8.8,3.8,18.7,5.7,29.6,5.7c9,0,17.5-0.7,25.5-2.1c7.9-1.4,15.1-4,21.7-7.9v-56.6h-40.5v-14.3h56.2
			V200.4z"/>
		<path class="st1" d="M317.8,127.1c0-12.9,2.1-24.7,6.4-35.5c4.3-10.8,10.2-20.1,17.9-28c7.6-7.8,16.8-14,27.5-18.4
			c10.7-4.4,22.5-6.7,35.3-6.7c12.9,0,24.6,2.2,35.3,6.7c10.7,4.5,19.9,10.6,27.5,18.4c7.6,7.9,13.6,17.2,17.8,28
			c4.3,10.8,6.4,22.6,6.4,35.5c0,12.9-2.1,24.7-6.4,35.6c-4.3,10.9-10.2,20.2-17.8,28.1c-7.6,7.8-16.8,14-27.5,18.3
			c-10.7,4.4-22.5,6.6-35.3,6.6c-12.9,0-24.6-2.2-35.3-6.6c-10.7-4.4-19.9-10.5-27.5-18.3c-7.6-7.9-13.6-17.2-17.9-28.1
			C320,151.8,317.8,139.9,317.8,127.1 M333.5,127.1c0,10.5,1.7,20.2,5,29.3c3.3,9,8.1,16.9,14.3,23.6c6.2,6.7,13.7,11.9,22.5,15.7
			c8.8,3.8,18.7,5.7,29.6,5.7c11,0,20.8-1.9,29.6-5.7c8.8-3.8,16.3-9,22.5-15.7c6.2-6.7,11-14.5,14.3-23.6c3.3-9,5-18.8,5-29.3
			c0-10.5-1.7-20.2-5-29.3c-3.3-9.1-8.1-16.9-14.3-23.6c-6.2-6.7-13.7-11.9-22.5-15.7c-8.8-3.8-18.7-5.7-29.6-5.7
			c-10.9,0-20.8,1.9-29.6,5.7c-8.8,3.8-16.3,9-22.5,15.7c-6.2,6.7-10.9,14.5-14.3,23.6C335.2,106.8,333.5,116.6,333.5,127.1"/>
		<path class="st1" d="M193.6,42.8h44.3c2.2,0,5.2,0.1,9,0.2c3.8,0.2,7.9,0.6,12.4,1.4c4.5,0.8,9,2.1,13.6,3.8
			c4.6,1.8,8.7,4.3,12.4,7.6c3.7,3.3,6.7,7.5,9,12.6c2.4,5.1,3.6,11.3,3.6,18.6c0,8.1-1.4,14.8-4.2,20c-2.8,5.2-6.3,9.5-10.5,12.7
			c-4.2,3.2-8.8,5.7-13.9,7.3c-5.1,1.6-9.9,2.7-14.5,3.3l49,80.9h-17.9l-47.4-80h-29.3v80h-15.7V42.8z M209.3,117.1h33.3
			c8.3,0,15-1,20.1-3.1c5.2-2.1,9.2-4.6,12-7.6c2.9-3,4.8-6.3,5.8-9.8c1-3.5,1.5-6.7,1.5-9.5c0-2.9-0.5-6-1.5-9.5
			c-1-3.5-3-6.7-5.8-9.7c-2.9-3-6.9-5.6-12-7.6c-5.1-2.1-11.9-3.1-20.1-3.1h-33.3V117.1z"/>
		<polygon class="st1" points="54.1,42.8 69.8,42.8 69.8,117.1 71.2,117.1 152.9,42.8 174.5,42.8 89.3,119.9 179.3,211.3 
			156.7,211.3 71.2,124.2 69.8,124.2 69.8,211.3 54.1,211.3 		"/>
	</g>
	<g id="Kroger_Blue_1_">
		<g>
			<defs>
				<rect id="SVGID_1_" x="261.4" y="517.4" width="477.3" height="393.6"/>
			</defs>
			<clipPath id="SVGID_2_">
				<use xlink:href="#SVGID_1_"  style="overflow:visible;"/>
			</clipPath>
			<g class="st2">
				<defs>
					<rect id="SVGID_3_" x="261.4" y="517.4" width="477.3" height="393.6"/>
				</defs>
				<clipPath id="SVGID_4_">
					<use xlink:href="#SVGID_3_"  style="overflow:visible;"/>
				</clipPath>
				<path class="st3" d="M500,907.3c-129.5,0-234.9-86.6-234.9-193.1c0-106.5,105.4-193.1,234.9-193.1
					c129.5,0,234.9,86.6,234.9,193.1C734.9,820.7,629.5,907.3,500,907.3"/>
				<path class="st4" d="M500,524.9c127.7,0,231.2,84.8,231.2,189.3c0,104.6-103.5,189.4-231.2,189.4
					c-127.7,0-231.2-84.8-231.2-189.4C268.8,609.7,372.3,524.9,500,524.9 M500,517.4c-63.5,0-123.2,20.3-168.2,57.1
					c-22,18-39.3,39.1-51.4,62.5c-12.6,24.4-19,50.4-19,77.1c0,26.8,6.4,52.7,19,77.1c12.1,23.5,29.4,44.5,51.4,62.5
					c45,36.9,104.7,57.1,168.2,57.1c63.5,0,123.2-20.3,168.2-57.1c22-18,39.3-39.1,51.4-62.5c12.6-24.4,19-50.4,19-77.1
					c0-26.7-6.4-52.7-19-77.1c-12.1-23.5-29.4-44.5-51.4-62.5C623.2,537.7,563.5,517.4,500,517.4"/>
				<path class="st4" d="M500,544c117,0,211.9,76.1,211.9,170c0,93.9-94.9,170-211.9,170c-117,0-211.9-76.1-211.9-170
					C288.1,620.1,383,544,500,544 M500,536.6c-58.3,0-113.1,18.3-154.5,51.4c-20.3,16.3-36.2,35.2-47.3,56.4
					c-11.6,22-17.5,45.5-17.5,69.7c0,24.2,5.9,47.6,17.5,69.6c11.1,21.2,27.1,40.1,47.3,56.4c41.3,33.2,96.2,51.4,154.5,51.4
					c58.3,0,113.1-18.3,154.5-51.4c20.3-16.3,36.2-35.2,47.3-56.4c11.6-22,17.5-45.5,17.5-69.6c0-24.2-5.9-47.6-17.5-69.7
					c-11.2-21.2-27.1-40.1-47.3-56.4C613.1,554.8,558.3,536.6,500,536.6"/>
				<path class="st4" d="M437.6,683.6c0,0-2.6-1.3-7.3-1.3c-8.3,0.1-14.1,5.4-14.1,5.4l-2.1-5.5h-15.7h-0.5v85.4h20v-51.7
					c0-4.7,2.2-7,4-8.6c5.4-4.8,15.6-5,15.6-5V683.6"/>
				<path class="st4" d="M687.6,683.6c0,0-2.6-1.3-7.3-1.3c-8.3,0.1-14,5.4-14,5.4l-2.1-5.5h-15.7H648v85.4h20v-51.7
					c0-4.7,2.2-7,4-8.6c5.4-4.8,15.6-5,15.6-5V683.6"/>
				<path class="st4" d="M590.6,776.2c1.3,1.3,1.9,2.9,1.9,4.7c0,1.8-0.6,3.4-1.9,4.7c-1.3,1.3-2.9,2-4.7,2c-1.8,0-3.4-0.7-4.7-1.9
					c-1.3-1.3-2-2.9-2-4.8c0-1.8,0.6-3.3,1.9-4.7c1.3-1.3,2.9-2,4.7-2C587.8,774.2,589.3,774.9,590.6,776.2 M591.6,775.2
					c-1.6-1.6-3.5-2.3-5.7-2.3c-2.1,0-4,0.7-5.5,2.2c-1.7,1.6-2.5,3.5-2.5,5.8c0,2.3,0.8,4.2,2.3,5.7c1.5,1.6,3.5,2.3,5.7,2.3
					c2.2,0,4.1-0.8,5.6-2.3c1.6-1.6,2.4-3.5,2.4-5.8C594,778.6,593.2,776.8,591.6,775.2 M587,780.3c-0.3,0.2-0.7,0.3-1.3,0.3h-0.9
					V778h0.6c0.6,0,1,0.1,1.3,0.2c0.5,0.2,0.7,0.5,0.7,1C587.4,779.7,587.3,780,587,780.3 M584.8,782.2h0.5l0.5,0.1
					c0.4,0,0.6,0,0.8,0.1c0.3,0.1,0.5,0.3,0.7,0.7c0.1,0.2,0.1,0.6,0.1,1.1c0,0.5,0.1,0.9,0.1,1.2h2.2l-0.1-0.3c0-0.1,0-0.2-0.1-0.3
					c0-0.1,0-0.2,0-0.3v-0.8c0-0.9-0.3-1.6-0.8-2c-0.3-0.2-0.7-0.4-1.3-0.5c0.6-0.1,1.1-0.3,1.5-0.6c0.4-0.3,0.6-0.9,0.6-1.6
					c0-1-0.4-1.7-1.2-2.1c-0.5-0.3-1.1-0.4-1.8-0.5h-1.8c-1.1,0-1.9,0-2.5,0v8.9h2.3V782.2z"/>
				<path class="st4" d="M503,725c0-23.6-11.2-42.7-32.8-42.7c-21.2,0-32.8,19.1-32.8,42.7c0,23.6,10.1,42.8,32.8,42.8
					C492.5,767.7,503,748.6,503,725 M456.8,724.9c0-15.3,3.8-26.3,13.4-26.3c9.7,0,13.4,11.1,13.4,26.3c0,15.3-3.7,26.4-13.4,26.4
					C460.6,751.3,456.8,740.2,456.8,724.9"/>
				<path class="st4" d="M623.8,733.3c-1.2,10.8-5.2,17.9-13,17.9c-9.4,0-13.3-10.6-13.4-25.5h26.8v0h19.4v0h0
					c0.2-7.8-1.3-14.2-1.3-14.2h0c-3.5-17.1-14.2-29.3-31.5-29.3c-21.2,0-32.8,19.1-32.8,42.7c0,23.6,10.1,42.8,32.8,42.8
					c19.6,0,30.1-14.8,32.4-34.4H623.8 M609.5,698.5c6.5,0,10.3,5.1,12.1,13h-24.3C599.1,703.6,603,698.5,609.5,698.5"/>
				<path class="st4" d="M573.3,770.4c-0.1-6.2,0-88.4,0-88.4h-21.2l0,4.7c-2.6-2.7-7.9-4.4-11.6-4.5c-21.3-0.5-33,18.9-33,42.7
					c0,23.7,10.1,42.7,33,42.7c4.4,0,8.4-1.9,11.9-3.3c1,16.7,1.6,71.8-35.1,73c-39.7,0.9-35.4-56.6-35.7-58.2
					c-2.7,0-21.6,0.1-21.6,0.1c0,0.1-2.9,72.5,55,72.5C577.7,851.7,573.4,776.6,573.3,770.4 M540.5,751.3
					c-9.7,0-13.5-11.1-13.5-26.5c0-15.4,3.8-26.5,13.5-26.5c9.7,0,13.5,11.1,13.5,26.5C554,740.2,550.3,751.3,540.5,751.3"/>
				<path class="st4" d="M427.5,592.6c-27.9,0-43.6,15.7-51.4,34h0c-0.1,0.3-0.3,0.7-0.4,1c0,0.1-0.1,0.2-0.1,0.3h0
					c-3.7,9.7-4.2,17.9-4.1,18.9c1.3,46-20.8,48.9-20.8,48.9c-0.4-3.9,0-53.6,0-53.6h-21.2v125.5h21.3v-52.3
					c0-2.1,18.8-0.1,20.1,23.8c0.1,2.1,0,28.5,0,28.5h22.4c-0.5-3.4,4.6-59.4-23.5-59.9c-4.5-0.1,23.1-6.4,22.3-47.7
					c-0.2-9.3,0.9-17.6,2.9-24.7c4.6-14.8,13-28.1,30.2-28.3c38.8-0.5,34.4,62.7,34.9,63.7c2.7,0,21.6,0,21.6,0
					C481.7,670.7,485.5,592.6,427.5,592.6"/>
			</g>
		</g>
	</g>
</g>
</svg>
