<?xml version="1.0" encoding="utf-8"?>
<!-- Generator: Adobe Illustrator 21.1.0, SVG Export Plug-In . SVG Version: 6.00 Build 0)  -->
<svg version="1.1" id="Layer_1" xmlns="http://www.w3.org/2000/svg" xmlns:xlink="http://www.w3.org/1999/xlink" x="0px" y="0px"
	 viewBox="0 0 1224 216" style="enable-background:new 0 0 1224 216;" xml:space="preserve">
<g>
	<path d="M31.9,23.5h7v32.9h0.6l36.2-32.9h9.6L47.6,57.7l39.9,40.5h-10l-38-38.6h-0.6v38.6h-7C31.9,98.2,31.9,23.5,31.9,23.5z"/>
	<path d="M93.8,23.5h19.6c1,0,2.3,0,4,0.1s3.5,0.3,5.5,0.6c2,0.4,4,0.9,6,1.7c2,0.8,3.9,1.9,5.5,3.4s3,3.3,4,5.6
		c1.1,2.3,1.6,5,1.6,8.2c0,3.6-0.6,6.5-1.8,8.9c-1.2,2.3-2.8,4.2-4.6,5.6c-1.9,1.4-3.9,2.5-6.2,3.2S123,62,121,62.3l21.7,35.9h-7.9
		l-21-35.4h-13v35.4h-7V23.5z M100.7,56.4h14.8c3.7,0,6.6-0.5,8.9-1.4s4.1-2,5.3-3.4c1.3-1.3,2.1-2.8,2.6-4.3s0.7-3,0.7-4.2
		c0-1.3-0.2-2.7-0.7-4.2s-1.3-3-2.6-4.3s-3-2.5-5.3-3.4s-5.3-1.4-8.9-1.4h-14.8C100.7,29.8,100.7,56.4,100.7,56.4z"/>
	<path d="M148.8,60.8c0-5.7,0.9-10.9,2.8-15.7c1.9-4.8,4.5-8.9,7.9-12.4s7.4-6.2,12.2-8.2c4.7-2,10-3,15.7-3s10.9,1,15.7,3
		s8.8,4.7,12.2,8.2s6,7.6,7.9,12.4s2.8,10,2.8,15.7s-0.9,11-2.8,15.8c-1.9,4.8-4.5,9-7.9,12.5s-7.4,6.2-12.2,8.1
		c-4.7,1.9-10,2.9-15.7,2.9s-10.9-1-15.7-2.9s-8.8-4.6-12.2-8.1s-6-7.6-7.9-12.5C149.8,71.8,148.8,66.5,148.8,60.8z M155.8,60.8
		c0,4.6,0.7,9,2.2,13s3.6,7.5,6.3,10.4c2.7,3,6.1,5.3,10,7s8.3,2.5,13.1,2.5c4.9,0,9.2-0.8,13.1-2.5c3.9-1.7,7.2-4,10-7
		c2.7-3,4.9-6.4,6.3-10.4c1.5-4,2.2-8.3,2.2-13c0-4.6-0.7-9-2.2-13s-3.6-7.5-6.3-10.4c-2.7-3-6.1-5.3-10-7s-8.3-2.5-13.1-2.5
		c-4.9,0-9.2,0.8-13.1,2.5c-3.9,1.7-7.2,4-10,7c-2.7,3-4.9,6.4-6.3,10.4C156.5,51.9,155.8,56.2,155.8,60.8z"/>
	<path d="M300.7,93.3c-4.4,2.5-8.9,4.2-13.6,5.2s-9.4,1.5-14.3,1.5c-5.7,0-10.9-1-15.7-2.9c-4.7-1.9-8.8-4.6-12.2-8.1
		s-6-7.6-7.9-12.5c-1.9-4.8-2.8-10.1-2.8-15.8s1-10.9,2.8-15.7c1.9-4.8,4.5-8.9,7.9-12.4s7.4-6.2,12.2-8.2c4.8-2,10-3,15.7-3
		c11.1,0,20.1,3.4,26.9,10.3l-5.1,5.3c-1.1-1.3-2.5-2.6-4.2-3.7c-1.7-1.2-3.4-2.1-5.4-3c-1.9-0.8-4-1.4-6.1-1.9s-4.2-0.7-6.2-0.7
		c-4.9,0-9.2,0.8-13.1,2.5s-7.2,4-10,7c-2.7,3-4.9,6.4-6.3,10.4c-1.5,4-2.2,8.3-2.2,13c0,4.6,0.7,9,2.2,13s3.6,7.5,6.3,10.4
		c2.7,3,6.1,5.3,10,7s8.3,2.5,13.1,2.5c4,0,7.8-0.3,11.3-0.9s6.7-1.8,9.6-3.5V64.2h-17.9v-6.3h24.9v35.4H300.7z"/>
	<path d="M318.5,23.5h45.7v6.3h-38.7v26.6h36.3v6.3h-36.3v29.1h40.4v6.3h-47.4V23.5z"/>
	<path d="M378.4,23.5H398c1,0,2.3,0,4,0.1s3.5,0.3,5.5,0.6c2,0.4,4,0.9,6,1.7c2,0.8,3.9,1.9,5.5,3.4s3,3.3,4,5.6
		c1.1,2.3,1.6,5,1.6,8.2c0,3.6-0.6,6.5-1.9,8.9c-1.2,2.3-2.8,4.2-4.6,5.6c-1.9,1.4-3.9,2.5-6.2,3.2c-2.3,0.7-4.4,1.2-6.4,1.5
		l21.7,35.9h-7.9l-21-35.4h-13v35.4h-7L378.4,23.5L378.4,23.5z M385.4,56.4h14.8c3.7,0,6.6-0.5,8.9-1.4s4.1-2,5.3-3.4
		c1.3-1.3,2.1-2.8,2.6-4.3s0.7-3,0.7-4.2c0-1.3-0.2-2.7-0.7-4.2s-1.3-3-2.6-4.3c-1.3-1.3-3-2.5-5.3-3.4s-5.3-1.4-8.9-1.4h-14.8V56.4
		z"/>
	<path d="M475,38h-21.3V23.5h59.1V38h-21.3v60.1H475V38z"/>
	<path d="M521.7,23.5h50.8v15.2h-34.3v13.9h32.4v15.2h-32.4V83h36.2v15.2h-52.6V23.5H521.7z"/>
	<path d="M633.7,42.9c-1.6-2-3.6-3.5-6-4.5c-2.4-1.1-5.1-1.6-8.2-1.6s-6,0.6-8.6,1.8s-4.9,2.9-6.9,5c-1.9,2.1-3.4,4.7-4.5,7.6
		c-1.1,3-1.6,6.2-1.6,9.6c0,3.5,0.5,6.7,1.6,9.7c1.1,2.9,2.6,5.5,4.5,7.6s4.1,3.8,6.7,5c2.6,1.2,5.3,1.8,8.3,1.8
		c3.4,0,6.4-0.7,9-2.1s4.7-3.4,6.4-5.9l13.7,10.2c-3.2,4.4-7.2,7.7-12,9.8c-4.9,2.1-9.9,3.2-15,3.2c-5.8,0-11.2-0.9-16.1-2.7
		c-4.9-1.8-9.2-4.4-12.8-7.9c-3.6-3.4-6.4-7.5-8.4-12.4s-3-10.3-3-16.2c0-6,1-11.4,3-16.3s4.8-9,8.4-12.4c3.6-3.4,7.8-6,12.8-7.9
		c4.9-1.8,10.3-2.7,16.1-2.7c2.1,0,4.3,0.2,6.6,0.6s4.5,1,6.8,1.8c2.2,0.8,4.3,2,6.4,3.4c2,1.4,3.9,3.1,5.5,5.2L633.7,42.9z"/>
	<path d="M654.5,23.5H671v27.9h32V23.5h16.5v74.7H703V65.9h-32v32.3h-16.5V23.5z"/>
	<path d="M734.6,23.5H757l31.8,51.9h0.2V23.5h16.5v74.7H784L751.3,45h-0.2v53.2h-16.5V23.5z"/>
	<path d="M816.6,60.8c0-6,1-11.4,3-16.3s4.8-9,8.4-12.4c3.6-3.4,7.8-6,12.8-7.9c4.9-1.8,10.3-2.7,16.1-2.7s11.2,0.9,16.1,2.7
		c4.9,1.8,9.2,4.4,12.8,7.9c3.6,3.4,6.4,7.5,8.4,12.4s3,10.3,3,16.3s-1,11.4-3,16.2s-4.8,9-8.4,12.4c-3.6,3.4-7.8,6-12.8,7.9
		c-4.9,1.8-10.3,2.7-16.1,2.7s-11.2-0.9-16.1-2.7c-4.9-1.8-9.2-4.4-12.8-7.9c-3.6-3.4-6.4-7.5-8.4-12.4
		C817.6,72.2,816.6,66.8,816.6,60.8z M833.7,60.8c0,3.5,0.5,6.7,1.6,9.7c1.1,2.9,2.7,5.5,4.7,7.6s4.5,3.8,7.3,5s6,1.8,9.5,1.8
		s6.7-0.6,9.6-1.8c2.8-1.2,5.3-2.9,7.3-5s3.6-4.7,4.7-7.6c1.1-2.9,1.6-6.1,1.6-9.7c0-3.4-0.5-6.7-1.6-9.6c-1.1-3-2.7-5.5-4.7-7.6
		s-4.5-3.8-7.3-5c-2.9-1.2-6-1.8-9.6-1.8c-3.5,0-6.7,0.6-9.5,1.8c-2.9,1.2-5.3,2.9-7.3,5s-3.6,4.7-4.7,7.6
		C834.2,54.2,833.7,57.4,833.7,60.8z"/>
	<path d="M909,23.5h16.5V83H956v15.2h-47V23.5z"/>
	<path d="M958.4,60.8c0-6,1-11.4,3-16.3s4.8-9,8.4-12.4c3.6-3.4,7.8-6,12.8-7.9c4.9-1.8,10.3-2.7,16.1-2.7s11.2,0.9,16.1,2.7
		c4.9,1.8,9.2,4.4,12.8,7.9c3.6,3.4,6.4,7.5,8.4,12.4s3,10.3,3,16.3s-1,11.4-3,16.2s-4.8,9-8.4,12.4s-7.8,6-12.8,7.9
		c-4.9,1.8-10.3,2.7-16.1,2.7s-11.2-0.9-16.1-2.7c-4.9-1.8-9.2-4.4-12.8-7.9c-3.6-3.4-6.4-7.5-8.4-12.4
		C959.4,72.2,958.4,66.8,958.4,60.8z M975.5,60.8c0,3.5,0.5,6.7,1.6,9.7c1.1,2.9,2.7,5.5,4.7,7.6s4.5,3.8,7.3,5s6,1.8,9.5,1.8
		s6.7-0.6,9.6-1.8c2.9-1.2,5.3-2.9,7.3-5s3.6-4.7,4.7-7.6c1.1-2.9,1.6-6.1,1.6-9.7c0-3.4-0.5-6.7-1.6-9.6c-1.1-3-2.7-5.5-4.7-7.6
		s-4.5-3.8-7.3-5s-6-1.8-9.6-1.8c-3.5,0-6.7,0.6-9.5,1.8c-2.9,1.2-5.3,2.9-7.3,5s-3.6,4.7-4.7,7.6C976,54.2,975.5,57.4,975.5,60.8z"
		/>
	<path d="M1117.8,92.9c-4.8,2.5-9.9,4.4-15.2,5.5c-5.3,1.1-10.7,1.7-16.1,1.7c-5.8,0-11.2-0.9-16.1-2.7c-4.9-1.8-9.2-4.4-12.8-7.9
		c-3.6-3.4-6.4-7.5-8.4-12.4s-3-10.3-3-16.2c0-6,1-11.4,3-16.3s4.8-9,8.4-12.4s7.8-6,12.8-7.9c4.9-1.8,10.3-2.7,16.1-2.7
		c6,0,11.5,0.7,16.5,2.2c5,1.4,9.4,3.9,13.2,7.4l-11.6,12.7c-2.3-2.3-4.8-4.1-7.6-5.3c-2.8-1.2-6.3-1.8-10.6-1.8
		c-3.5,0-6.7,0.6-9.5,1.8c-2.9,1.2-5.3,2.9-7.3,5s-3.6,4.7-4.7,7.6c-1.1,3-1.6,6.2-1.6,9.6c0,3.5,0.5,6.7,1.6,9.7
		c1.1,2.9,2.7,5.5,4.7,7.6s4.5,3.8,7.3,5s6,1.8,9.5,1.8c3.6,0,6.7-0.4,9.3-1.2c2.6-0.8,4.7-1.6,6.2-2.5V69.1h-13.4V53.9h29.2
		L1117.8,92.9L1117.8,92.9z"/>
	<path d="M1148,66.3l-28.1-42.8h20.5l15.8,28l16.8-28h19.5l-28.1,42.8v31.9H1148V66.3z"/>
</g>
<g>
	<path d="M66.7,172.7c-2,2.6-4.2,4.5-6.8,5.7s-5.4,1.7-8.3,1.7c-3.1,0-6-0.5-8.5-1.6c-2.6-1.1-4.8-2.5-6.6-4.4s-3.3-4.2-4.3-6.8
		s-1.6-5.5-1.6-8.6s0.5-6,1.6-8.6c1-2.6,2.5-4.9,4.3-6.8c1.8-1.9,4.1-3.4,6.6-4.5c2.6-1.1,5.4-1.6,8.5-1.6c2.8,0,5.3,0.5,7.7,1.5
		s4.5,2.6,6.3,4.9l-3.1,2.6c-1.3-1.9-2.9-3.3-4.9-4.2s-4-1.3-6.1-1.3c-2.6,0-5,0.5-7.2,1.4c-2.1,0.9-3.9,2.2-5.4,3.8
		s-2.6,3.5-3.5,5.7c-0.8,2.2-1.2,4.5-1.2,7.1c0,2.5,0.4,4.9,1.2,7.1c0.8,2.2,2,4.1,3.5,5.7c1.5,1.6,3.3,2.9,5.4,3.8
		c2.1,0.9,4.5,1.4,7.2,1.4c1,0,2.1-0.1,3.2-0.4c1.1-0.2,2.2-0.6,3.2-1.1c1.1-0.5,2.1-1.2,3-2c1-0.8,1.8-1.7,2.5-2.8L66.7,172.7z"/>
	<path d="M108.4,163.5c0,2.2-0.2,4.3-0.7,6.3s-1.3,3.8-2.5,5.3s-2.7,2.8-4.6,3.7s-4.2,1.4-7,1.4s-5.1-0.5-7-1.4s-3.4-2.2-4.6-3.7
		s-2-3.3-2.5-5.3s-0.7-4.1-0.7-6.3v-25.2h3.8v24.2c0,1.5,0.1,3,0.4,4.7s0.8,3.2,1.6,4.6c0.8,1.4,1.9,2.6,3.3,3.5s3.3,1.4,5.7,1.4
		c2.4,0,4.3-0.5,5.7-1.4c1.4-0.9,2.6-2.1,3.3-3.5c0.8-1.4,1.3-3,1.6-4.6c0.3-1.7,0.4-3.2,0.4-4.7v-24.2h3.8L108.4,163.5L108.4,163.5
		z"/>
	<path d="M125.7,171.5c1,1.7,2.3,3,3.9,3.9c1.6,0.8,3.4,1.3,5.4,1.3c1.3,0,2.5-0.2,3.6-0.6c1.1-0.4,2.1-0.9,2.9-1.6
		c0.8-0.7,1.5-1.5,2-2.5s0.7-2.1,0.7-3.3c0-1.4-0.3-2.6-0.9-3.5c-0.6-0.9-1.4-1.7-2.4-2.3s-2.1-1.1-3.4-1.5
		c-1.2-0.4-2.5-0.8-3.9-1.3c-1.3-0.4-2.6-0.9-3.9-1.4c-1.2-0.5-2.4-1.2-3.4-2.1c-1-0.9-1.8-1.9-2.4-3.2s-0.9-2.9-0.9-4.8
		c0-1.8,0.4-3.4,1.1-4.8c0.7-1.4,1.7-2.6,2.9-3.5s2.6-1.6,4.2-2.1s3.2-0.7,4.9-0.7c2.2,0,4.3,0.4,6.2,1.2s3.5,2.1,4.9,3.9l-3.3,2.4
		c-1-1.3-2.1-2.3-3.4-3c-1.3-0.7-2.8-1-4.6-1c-1.2,0-2.4,0.2-3.5,0.5s-2.1,0.8-2.9,1.4c-0.8,0.6-1.5,1.4-2,2.4s-0.7,2.1-0.7,3.4
		c0,2,0.5,3.6,1.6,4.7c1,1.1,2.3,2,3.9,2.6c1.6,0.6,3.2,1.2,5.1,1.7c1.8,0.5,3.5,1.1,5.1,1.9c1.6,0.8,2.8,1.9,3.9,3.4
		c1,1.4,1.6,3.4,1.6,6c0,1.8-0.4,3.5-1,4.9c-0.7,1.4-1.6,2.6-2.8,3.6s-2.5,1.7-4.1,2.2c-1.5,0.5-3.1,0.7-4.8,0.7
		c-2.7,0-5.2-0.5-7.4-1.4c-2.3-0.9-4.2-2.5-5.8-4.7L125.7,171.5z"/>
	<path d="M171.4,141.8h-13.9v-3.5h31.6v3.5h-13.9v37.3h-3.8L171.4,141.8L171.4,141.8z"/>
	<path d="M198.5,158.7c0-3.1,0.5-6,1.6-8.6c1-2.6,2.5-4.9,4.3-6.8c1.8-1.9,4.1-3.4,6.7-4.5c2.6-1.1,5.4-1.6,8.5-1.6s6,0.5,8.5,1.6
		c2.6,1.1,4.8,2.6,6.6,4.5s3.3,4.2,4.3,6.8s1.6,5.5,1.6,8.6s-0.5,6-1.6,8.6c-1,2.6-2.5,4.9-4.3,6.8c-1.8,1.9-4.1,3.4-6.6,4.4
		c-2.6,1.1-5.4,1.6-8.5,1.6s-6-0.5-8.5-1.6c-2.6-1.1-4.8-2.5-6.7-4.4c-1.8-1.9-3.3-4.2-4.3-6.8C199,164.7,198.5,161.8,198.5,158.7z
		 M202.3,158.7c0,2.5,0.4,4.9,1.2,7.1c0.8,2.2,2,4.1,3.5,5.7c1.5,1.6,3.3,2.9,5.4,3.8c2.1,0.9,4.5,1.4,7.2,1.4c2.6,0,5-0.5,7.2-1.4
		c2.1-0.9,3.9-2.2,5.4-3.8s2.6-3.5,3.5-5.7c0.8-2.2,1.2-4.5,1.2-7.1c0-2.5-0.4-4.9-1.2-7.1c-0.8-2.2-2-4.1-3.5-5.7
		c-1.5-1.6-3.3-2.9-5.4-3.8c-2.1-0.9-4.5-1.4-7.2-1.4c-2.6,0-5,0.5-7.2,1.4c-2.1,0.9-3.9,2.2-5.4,3.8s-2.6,3.5-3.5,5.7
		C202.7,153.8,202.3,156.2,202.3,158.7z"/>
	<path d="M254.5,138.3h5.7l14.8,34.2l14.8-34.2h5.4V179h-3.8v-35.9h-0.1L275.8,179h-1.7l-15.8-35.9h-0.1V179h-3.8v-40.7H254.5z"/>
	<path d="M311.8,138.3h24.9v3.5h-21.1v14.5h19.8v3.4h-19.8v15.9h22v3.4h-25.8V138.3z"/>
	<path d="M351.7,138.3h10.7c0.5,0,1.3,0,2.2,0.1c0.9,0,1.9,0.2,3,0.3c1.1,0.2,2.2,0.5,3.3,0.9c1.1,0.4,2.1,1,3,1.8s1.6,1.8,2.2,3
		s0.9,2.7,0.9,4.5c0,2-0.3,3.6-1,4.8c-0.7,1.3-1.5,2.3-2.5,3.1s-2.1,1.4-3.4,1.8c-1.2,0.4-2.4,0.7-3.5,0.8l11.9,19.6H374l-11.5-19.3
		h-7.1V179h-3.8v-40.7H351.7z M355.4,156.3h8.1c2,0,3.6-0.2,4.9-0.7c1.2-0.5,2.2-1.1,2.9-1.8c0.7-0.7,1.2-1.5,1.4-2.4
		c0.3-0.8,0.4-1.6,0.4-2.3s-0.1-1.5-0.4-2.3s-0.7-1.6-1.4-2.4c-0.7-0.7-1.7-1.3-2.9-1.8c-1.2-0.5-2.9-0.8-4.9-0.8h-8.1V156.3z"/>
	<path d="M414.4,135.9v57.5h-2.8v-57.5H414.4z"/>
	<path d="M492.7,179.1h-22.4c-2.8,0-5.6-0.5-8.1-1.5c-2.6-1-4.9-2.4-6.8-4.2c-2-1.8-3.5-4-4.7-6.6s-1.8-5.4-1.8-8.6
		c0-3,0.5-5.7,1.5-8.3c1-2.5,2.4-4.8,4.1-6.6c1.8-1.9,3.9-3.3,6.5-4.4c2.6-1.1,5.4-1.6,8.5-1.6s6,0.5,8.5,1.6
		c2.6,1.1,4.7,2.5,6.5,4.4s3.2,4.1,4.1,6.6c1,2.6,1.5,5.3,1.5,8.3c0,1.8-0.2,3.6-0.7,5.4c-0.5,1.8-1.1,3.5-2,5c-0.9,1.6-2,3-3.2,4.2
		c-1.3,1.2-2.7,2.1-4.3,2.7v0.1h12.7L492.7,179.1L492.7,179.1z M452.6,158.2c0,2.4,0.4,4.6,1.3,6.8c0.9,2.1,2.1,4,3.6,5.6
		c1.6,1.6,3.4,2.8,5.5,3.7s4.5,1.4,7.1,1.4s4.9-0.5,6.9-1.5s3.7-2.3,5.1-3.9c1.4-1.6,2.4-3.5,3.1-5.6s1.1-4.3,1.1-6.5
		c0-2.5-0.4-4.7-1.1-6.9c-0.8-2.1-1.9-4-3.3-5.6s-3.2-2.8-5.3-3.7c-2.1-0.9-4.5-1.3-7.1-1.3s-5,0.4-7.1,1.3
		c-2.1,0.9-3.9,2.1-5.3,3.7c-1.4,1.6-2.5,3.4-3.3,5.6C453,153.4,452.6,155.7,452.6,158.2z"/>
	<path d="M534.2,163.5c0,2.2-0.3,4.3-0.7,6.3c-0.5,2-1.3,3.8-2.5,5.3s-2.7,2.8-4.6,3.7c-1.9,0.9-4.2,1.4-7,1.4s-5.1-0.5-7-1.4
		c-1.9-0.9-3.4-2.2-4.6-3.7s-2-3.3-2.5-5.3s-0.7-4.1-0.7-6.3v-25.2h3.8v24.2c0,1.5,0.1,3,0.4,4.7s0.8,3.2,1.6,4.6
		c0.8,1.4,1.9,2.6,3.3,3.5s3.3,1.4,5.7,1.4s4.3-0.5,5.7-1.4s2.6-2.1,3.3-3.5c0.8-1.4,1.3-3,1.6-4.6c0.3-1.7,0.4-3.2,0.4-4.7v-24.2
		h3.8V163.5z"/>
	<path d="M562.8,138.3h3.9l17.1,40.7h-4.3l-4.4-10.8h-21.6l-4.6,10.8h-4L562.8,138.3z M564.6,142.5l-9.5,22.3h18.7L564.6,142.5z"/>
	<path d="M595.5,138.3h3.8v37.3h19v3.4h-22.8V138.3z"/>
	<path d="M630,138.3h3.8V179H630V138.3z"/>
	<path d="M659.8,141.8h-13.9v-3.5h31.6v3.5h-13.9v37.3h-3.8L659.8,141.8L659.8,141.8z"/>
	<path d="M698.6,161.5l-15-23.2h4.5l12.3,19.3l12.6-19.3h4.3l-15,23.2v17.6h-3.8v-17.6H698.6z"/>
	<path d="M751.2,135.9v57.5h-2.8v-57.5H751.2z"/>
	<path d="M788.3,138.3h3.8V179h-3.8V138.3z"/>
	<path d="M809,138.3h4.9l24.8,35.7h0.1v-35.7h3.8V179h-4.9l-24.8-35.7h-0.1V179H809V138.3z"/>
	<path d="M859.5,138.3h4.9l24.8,35.7h0.1v-35.7h3.8V179h-4.9l-24.8-35.7h-0.1V179h-3.8V138.3z"/>
	<path d="M907.4,158.7c0-3.1,0.5-6,1.6-8.6c1-2.6,2.5-4.9,4.3-6.8c1.8-1.9,4.1-3.4,6.6-4.5c2.6-1.1,5.4-1.6,8.5-1.6s6,0.5,8.5,1.6
		c2.6,1.1,4.8,2.6,6.6,4.5s3.3,4.2,4.3,6.8s1.6,5.5,1.6,8.6s-0.5,6-1.6,8.6c-1,2.6-2.5,4.9-4.3,6.8c-1.8,1.9-4.1,3.4-6.6,4.4
		c-2.6,1.1-5.4,1.6-8.5,1.6s-6-0.5-8.5-1.6c-2.6-1.1-4.8-2.5-6.6-4.4s-3.3-4.2-4.3-6.8C907.9,164.7,907.4,161.8,907.4,158.7z
		 M911.2,158.7c0,2.5,0.4,4.9,1.2,7.1c0.8,2.2,2,4.1,3.5,5.7c1.5,1.6,3.3,2.9,5.4,3.8c2.1,0.9,4.5,1.4,7.2,1.4c2.6,0,5-0.5,7.2-1.4
		c2.1-0.9,3.9-2.2,5.4-3.8s2.6-3.5,3.5-5.7c0.8-2.2,1.2-4.5,1.2-7.1c0-2.5-0.4-4.9-1.2-7.1c-0.8-2.2-2-4.1-3.5-5.7
		c-1.5-1.6-3.3-2.9-5.4-3.8c-2.1-0.9-4.5-1.4-7.2-1.4c-2.6,0-5,0.5-7.2,1.4c-2.1,0.9-3.9,2.2-5.4,3.8s-2.6,3.5-3.5,5.7
		C911.6,153.8,911.2,156.2,911.2,158.7z"/>
	<path d="M958,138.3h4.1l13.1,35.7l13.2-35.7h4L977,179.1h-3.8L958,138.3z"/>
	<path d="M1013,138.3h3.9l17.2,40.7h-4.3l-4.4-10.8h-21.6l-4.6,10.8h-4L1013,138.3z M1014.8,142.5l-9.5,22.3h18.7L1014.8,142.5z"/>
	<path d="M1050.8,141.8h-13.9v-3.5h31.6v3.5h-13.9v37.3h-3.8L1050.8,141.8L1050.8,141.8z"/>
	<path d="M1080.6,138.3h3.8V179h-3.8V138.3z"/>
	<path d="M1098.6,158.7c0-3.1,0.5-6,1.6-8.6c1-2.6,2.5-4.9,4.3-6.8c1.8-1.9,4.1-3.4,6.6-4.5c2.6-1.1,5.4-1.6,8.5-1.6s6,0.5,8.5,1.6
		c2.6,1.1,4.8,2.6,6.6,4.5c1.8,1.9,3.3,4.2,4.3,6.8s1.6,5.5,1.6,8.6s-0.5,6-1.6,8.6c-1,2.6-2.5,4.9-4.3,6.8
		c-1.8,1.9-4.1,3.4-6.6,4.4c-2.6,1.1-5.4,1.6-8.5,1.6s-6-0.5-8.5-1.6c-2.6-1.1-4.8-2.5-6.6-4.4c-1.8-1.9-3.3-4.2-4.3-6.8
		C1099.1,164.7,1098.6,161.8,1098.6,158.7z M1102.4,158.7c0,2.5,0.4,4.9,1.2,7.1c0.8,2.2,2,4.1,3.5,5.7c1.5,1.6,3.3,2.9,5.4,3.8
		c2.1,0.9,4.5,1.4,7.2,1.4s5-0.5,7.2-1.4c2.1-0.9,3.9-2.2,5.4-3.8s2.6-3.5,3.5-5.7c0.8-2.2,1.2-4.5,1.2-7.1c0-2.5-0.4-4.9-1.2-7.1
		c-0.8-2.2-2-4.1-3.5-5.7c-1.5-1.6-3.3-2.9-5.4-3.8c-2.1-0.9-4.5-1.4-7.2-1.4s-5,0.5-7.2,1.4c-2.1,0.9-3.9,2.2-5.4,3.8
		s-2.6,3.5-3.5,5.7C1102.8,153.8,1102.4,156.2,1102.4,158.7z"/>
	<path d="M1155,138.3h4.9l24.8,35.7h0.1v-35.7h3.8V179h-4.9l-24.8-35.7h-0.1V179h-3.8V138.3z"/>
</g>
<g>
	<path d="M1170.6,93.8v-0.9h4.8v0.9h-1.8v4.7h-1.1v-4.7H1170.6z M1178,92.8l1.4,4l1.5-4h1.6v5.6h-1v-4.6l-1.6,4.6h-0.9l-1.6-4.6v4.6
		h-1v-5.6H1178z"/>
</g>
</svg>
