<svg id="Layer_1" xmlns="http://www.w3.org/2000/svg" viewBox="0 0 137.8 60"><style>.st0{fill:#E75225;}</style><path id="XMLID_62_" d="M7.1 44.1c0 3.3-.1 7.5.1 11.6 0 1.6.6 2.2 2.1 2.5.2 0 .6 0 .7.2.1.4 0 .8 0 1.1 0 .2-.2.1-.3.1H.4c-.2 0-.3-.1-.3-.3-.1-1-.1-1 .9-1.2 1.3-.2 1.7-.7 1.9-1.9.1-.8.1-1.6.1-2.3V36.4c0-.8 0-1.5-.1-2.3-.3-1.1-.8-1.6-1.9-1.7-.2 0-.6.1-.7-.2-.1-.4 0-.8 0-1.2 0-.1.2-.1.3-.1 2-.3 4-.5 6-.8.5-.1.6.1.6.6-.1 4.2-.1 8.4-.1 13.4z"/><path id="XMLID_61_" d="M37 54.3c.7-1.9 1.4-3.6 2.1-5.4.4-1.1.9-2.3 1.2-3.5.1-.3.1-.6.2-.8.1-1.1-.1-1.5-1.2-1.7-.2 0-.5 0-.5-.2-.1-.4 0-.8 0-1.2 0-.1.2-.1.3-.1h5.8c.3 0 .4.1.4.4v.5c0 .3-.1.4-.4.5-1 .2-1.7.8-2.2 1.7-.9 1.5-1.4 3.2-2.1 4.9-1.3 3.2-2.6 6.5-3.8 9.7-.1.4-.3.5-.7.5-1.3 0-1.3 0-1.7-1.2-1.8-4.5-3.7-9-5.5-13.5-.1-.2-.2-.5-.3-.7-.3-.8-.9-1.3-1.7-1.3-.4 0-.5-.2-.5-.6 0-.9 0-.9.9-.9h7.4c.4 0 .6.1.6.6v.5c0 .3-.1.4-.4.4-1.5.3-1.8.7-1.3 2.2.7 2.3 1.7 4.5 2.5 6.7.2.8.5 1.6.9 2.5z"/><path id="XMLID_60_" class="st0" d="M107.4 34.7c.1-.8.3-1.6.4-2.4.7-4.5 1.5-8.9 2.2-13.4.1-.4.2-.5.6-.5h5.9c.3 0 .5.1.6.4 1 1.8 2 3.5 3 5.3.2.3.2.5-.1.8-4.1 3.2-8.1 6.4-12.1 9.6-.1 0-.2.2-.5.2z"/><path id="XMLID_59_" class="st0" d="M137.8 17.7c-1.5.6-2.9 1.1-4.3 1.6-3.5 1.3-7.1 2.7-10.6 4-.5.2-.7.1-.9-.3-.9-1.7-1.9-3.4-2.8-5-.2-.3-.2-.5 0-.8 1-1.7 2.1-3.4 3.1-5.2.2-.3.3-.4.7-.3 4.8 1.9 9.7 3.8 14.5 5.8 0 0 .2.1.3.2z"/><path id="XMLID_58_" d="M68 43.2c1.1-1.2 2.5-1.8 4-2 .8-.1 1.7-.1 2.5.2.5.2 1 .5 1.3 1 .5.8.5 1.8-.2 2.4-.6.6-1.7.7-2.5.2-.4-.3-.6-.6-1-1-1-1.1-2.2-.9-3 .4-.6 1.1-.8 2.4-.9 3.7-.1 2.6-.1 5.1 0 7.7 0 1.6.6 2.2 2.2 2.5.2 0 .6 0 .6.2.1.4 0 .8 0 1.2 0 .2-.2.1-.3.1h-9.2c-.3 0-.4-.1-.4-.4v-.3c-.1-.6.2-.7.7-.8 1.5-.2 2.1-.7 2.2-2.2.2-3.5.2-6.9 0-10.4-.1-1.5-.7-2.1-2.2-2.2-.5 0-.5-.2-.5-.6 0-.8 0-.8.8-.9 1.6-.2 3.2-.4 4.8-.7.4-.1.6 0 .7.5.2.3.3.8.4 1.4z"/><path id="XMLID_57_" class="st0" d="M107.8 0l1.5 1.2c3.6 3 7.2 6 10.9 8.9.3.2.3.4.1.7-1 1.7-2 3.3-3 5-.2.3-.4.5-.8.5-2 0-3.9-.1-5.9-.1-.4 0-.5-.1-.6-.5-.7-5-1.5-10.1-2.2-15.1 0-.2-.1-.3 0-.6z"/><path id="XMLID_56_" d="M96.2 50v-6.3c0-.4-.1-.5-.5-.5h-1.4c-.3 0-.3-.1-.3-.3-.1-.6.1-.9.7-1.1 1.6-.7 2.6-2 3.3-3.6.2-.5.4-1.1.5-1.6.1-.3.2-.4.5-.4 1.2 0 1.2 0 1.2 1.2v3.5c0 .4.1.5.5.5h4.1c.4 0 .5.1.5.5 0 1.3 0 1.3-1.3 1.3h-3.4c-.3 0-.4 0-.4.4v11.3c0 .5.1 1 .2 1.5.5 1.7 2.7 2.3 4 1.1.3-.3.6-.7.9-1 .1-.2.3-.3.5-.1.9.8.9.5.3 1.5-.9 1.4-2.4 2-4 2.1-1.3.1-2.6.1-3.8-.4-1.2-.5-1.9-1.3-2-2.6-.2-2-.1-4-.1-6v-1z"/><path id="XMLID_10_" d="M94.9 57c-.6-.5-.9-.5-1.4.1-.1.1-.2.2-.2.3-.6.6-1.7.4-2-.4-.1-.3-.2-.6-.2-.9-.1-1.7-.1-3.5-.1-5.9v-4.5c0-1.6-.8-2.8-2.3-3.5-2.5-1.2-5.1-1.4-7.8-.7-1 .2-1.9.6-2.7 1.3-.6.6-.7 1.4-.4 2.2.3.8 1 1.2 1.8 1.3.9 0 1.6-.3 2-1.1.2-.5.4-1 .7-1.5.3-.6.9-1 1.6-1.1 1.2-.1 2.2.5 2.6 1.6.4 1 .4 2 .4 3s-.5 1.7-1.4 2.1c-.9.5-1.9.7-2.9 1-1.1.3-2.3.6-3.3 1.2-1.7 1-2.5 2.8-2.2 4.7.3 1.8 1.5 3.1 3.4 3.5 2.4.6 4.6.2 6.5-1.5.2-.2.3-.4.6 0 1.1 1.6 2.6 1.9 4.4 1.7 1.5-.2 2.6-1 3-2.5 0-.1.1-.2-.1-.4zm-8.4-1.2c-.3 1-.8 1.7-1.8 2.2-1.4.7-2.8 0-3.1-1.5-.4-1.6.3-3.2 1.8-4.2 1.1-.7 2.3-1.3 3.5-2.1 0 2 .1 3.8-.4 5.6z"/><path id="XMLID_16_" d="M26.2 54.1c-.4-.2-.6-.1-.7.4-.4 1.5-1.4 2.6-3 3.1-2.5.6-5.1-.4-6.5-2.6-1.1-1.8-1.5-3.7-1.4-5.8 0-.4.1-.5.5-.5H26c.2 0 .4 0 .4-.3 0-2.5-.9-4.5-3-5.9-3.1-2-7.8-1.4-10.6 1.3-2.9 2.8-3.4 6.3-2.4 10.1.8 3 2.8 5 5.8 5.9 1.8.5 3.7.6 5.6.2 2.6-.5 4.3-2 5-4.6.2-1.2.3-1-.6-1.3zm-11.3-7.6c.3-1.4 1-2.6 2.3-3.4 1.8-1.1 4-.2 4.8 1.9.2.4.3.9.4 1.4.1.4 0 .5-.4.5H15.3c-.3-.1-.5 0-.4-.4z"/><path id="XMLID_7_" d="M122.7 54.1c-.5-.2-.6-.1-.7.4-.5 1.7-1.5 2.8-3.3 3.1-2 .4-3.7-.1-5.2-1.5-2-1.9-2.5-4.5-2.4-7.2 0-.4.3-.3.5-.3h11c.3 0 .4 0 .4-.4.2-2.8-1.4-5.4-4-6.5-3.6-1.5-8.1-.3-10.5 2.9-2.1 2.8-2.4 6-1.4 9.3.8 2.7 2.6 4.6 5.3 5.5 1.9.6 3.8.7 5.7.4 2.7-.5 4.5-1.9 5.3-4.6.1-.8.1-.8-.7-1.1zm-11.3-7.8c.3-1 .7-1.9 1.5-2.7 1.8-1.8 4.6-1.2 5.6 1.2.2.5.3 1 .4 1.5.1.3 0 .4-.3.4H111.9c-.5.1-.6 0-.5-.4z"/><path id="XMLID_13_" d="M60.4 54.1c-.5-.2-.6-.1-.8.4-.4 1.5-1.3 2.5-2.9 3-2.3.6-4.9-.2-6.3-2.1-1.4-1.9-1.8-4.1-1.8-6.4 0-.4.2-.3.5-.3h11c.3 0 .5 0 .5-.4.1-2.8-1.5-5.4-4-6.5-3.7-1.6-8.2-.3-10.7 3.1-1.6 2.2-2 4.7-1.7 7.3.5 3.5 2.2 6 5.6 7.3 1.9.7 3.9.8 5.9.4 2.7-.5 4.5-2 5.2-4.6.3-.9.2-.9-.5-1.2zm-11.3-7.8c.3-1.1.7-2 1.5-2.8 1.6-1.6 4-1.3 5.2.7.4.6.5 1.4.7 2.1.1.3-.1.4-.4.4h-6.8c-.2.1-.3 0-.2-.4z"/></svg>