<svg xmlns="http://www.w3.org/2000/svg" viewBox="0 0 300 147"><path fill="#1434A0" d="M103.5 15.8C92 5.7 76.3 0 60.3 0c-16 0-31.1 6.2-42.5 17.5C6.3 28.7 0 43.7 0 59.5c0 25.9 16.2 47.8 40.7 55.4l12.5-19.6C35.8 92.1 23 77.4 23 59.2c0-20.7 17-37.5 37.9-37.5 19.1 0 38.8 13.7 38.8 36.5 0 10.7-5.1 20.1-9.8 28.1l-.1.1-.1.1L48.8 147h21.1c3.9 0 7.5-2 9.5-5.3l22.4-36c1.4-2.3 2.8-4.6 4.1-6.8 8.2-13.3 16.6-27 16.6-41.2 0-21-10.3-34.4-19-41.9"/><path fill="#1434A0" d="M61.3 41.6c-8.8 0-16 7.2-16 16s7.2 16 16 16 16-7.2 16-16-7.2-16-16-16m86.8-22.3h12.1v48.1h-12.1zm47.5 24.2c-.1-.3-.7-2.7-2.4-4.4-1.3-1.3-3.3-2.1-5.7-2.1-3.1 0-5 1.3-6.2 2.4-.9 1-1.8 2.4-2.1 4h16.4zm11.2 7.2h-28.1c0 2 .8 4.7 2.3 6.4 1.9 2 4.4 2.4 6.2 2.4 1.8 0 3.6-.3 4.9-1.1.2-.1 1.6-1 2.6-3.1l11.5 1.2c-1.7 5.3-5.1 8.1-7.2 9.4-3.6 2.2-7.7 2.8-11.9 2.8-5.6 0-10.6-1-15-5.4-3.3-3.3-5.6-8.3-5.6-14.5 0-5.4 1.9-11 5.7-14.8 4.6-4.6 10.2-5.4 14.4-5.4s10.3.8 14.9 5.6c4.5 4.7 5.3 10.6 5.3 15.3v1.2zm14.7-20.9L231 50l9.5-20.2h13.3l-19 37.6h-7.6l-19.1-37.6m61.9 0V58c0 5.2-4.2 9.4-9.4 9.4h-2.8V29.8H270zM147.7 77.1h12.1v4.5c3.7-4.7 8.1-5.5 11.6-5.5 3.3 0 7.6.6 10.8 3.8 3.5 3.5 3.8 8 3.8 11v23.8h-12.1V95.4c0-2.4-.1-5.6-2-7.5-.9-.9-2.4-1.7-4.6-1.7-2.5 0-4.1 1-5.1 2-2 2-2.4 4.7-2.4 7.2v19.3h-12.1V77.1zm59.1 0v28.2c0 5.2-4.2 9.4-9.4 9.4h-2.8V77.1h12.2zm8.6 0h12.1v4.5c3.7-4.7 8.1-5.5 11.6-5.5 3.3 0 7.6.6 10.8 3.8 3.5 3.5 3.8 8 3.8 11v23.8h-12.1V95.4c0-2.4-.1-5.6-2-7.5-.9-.9-2.4-1.7-4.6-1.7-2.5 0-4.1 1-5.1 2-2 2-2.4 4.7-2.4 7.2v19.3h-12.1V77.1zm73.4 13.7c-.1-.3-.7-2.7-2.4-4.4-1.3-1.3-3.3-2.1-5.7-2.1-3.1 0-5 1.3-6.2 2.4-.9 1-1.8 2.4-2.1 4h16.4zM300 98h-28.1c0 2 .8 4.7 2.3 6.4 1.9 2 4.4 2.4 6.2 2.4 1.8 0 3.6-.3 4.9-1.1.2-.1 1.6-1 2.6-3.1l11.5 1.2c-1.7 5.3-5.1 8.1-7.2 9.4-3.6 2.2-7.7 2.8-11.9 2.8-5.6 0-10.6-1-15-5.4-3.3-3.3-5.6-8.3-5.6-14.5 0-5.4 1.9-11 5.7-14.8 4.6-4.6 10.2-5.4 14.4-5.4 4.2 0 10.3.8 14.9 5.6 4.5 4.7 5.3 10.6 5.3 15.3V98z"/></svg>