<svg xmlns="http://www.w3.org/2000/svg" viewBox="0 0 300 47.6"><path d="M71.3 20.8c2.4 0 4.4-1 5.9-2.9l3.2 3.3c-2.5 2.8-5.5 4.2-8.9 4.2-3.4 0-6.2-1.1-8.4-3.2s-3.3-4.9-3.3-8.1c0-3.3 1.1-6 3.4-8.2 2.2-2.2 5-3.3 8.2-3.3 3.6 0 6.7 1.4 9.1 4.1l-3.1 3.5c-1.6-1.9-3.5-2.9-5.8-2.9-1.9 0-3.4.6-4.8 1.8-1.3 1.2-2 2.8-2 4.9s.6 3.7 1.9 4.9c1.3 1.3 2.8 1.9 4.6 1.9zm13 4.4V3.1h4.9v17.7h9.4v4.4H84.3zm35.9-3.1c-2.2 2.2-5 3.3-8.3 3.3-3.3 0-6-1.1-8.3-3.3-2.2-2.2-3.4-4.9-3.4-8.1 0-3.2 1.1-6 3.4-8.1 2.2-2.2 5-3.3 8.3-3.3 3.3 0 6 1.1 8.3 3.3 2.2 2.2 3.4 4.9 3.4 8.1 0 3.2-1.2 5.9-3.4 8.1zm-1.7-8.1c0-2-.6-3.7-1.9-5-1.3-1.4-2.8-2.1-4.7-2.1-1.8 0-3.4.7-4.7 2.1-1.3 1.4-1.9 3.1-1.9 5 0 2 .6 3.6 1.9 5 1.3 1.4 2.8 2.1 4.7 2.1 1.8 0 3.4-.7 4.7-2.1 1.3-1.4 1.9-3 1.9-5zm15.1 5.4c.8 1 1.9 1.5 3.3 1.5s2.5-.5 3.3-1.5c.8-1 1.2-2.4 1.2-4.2V3.1h4.9v12.4c0 3.2-.9 5.7-2.7 7.4-1.8 1.7-4 2.6-6.8 2.6s-5-.9-6.8-2.6c-1.8-1.7-2.7-4.2-2.7-7.4V3.1h4.9v12.2c.1 1.7.6 3.1 1.4 4.1zM168.3 6c2.1 1.9 3.2 4.6 3.2 8s-1 6.2-3.1 8.2c-2.1 2-5.2 3-9.4 3h-7.6V3.1h7.8c4 0 7 .9 9.1 2.9zm-3.6 13.1c1.2-1.1 1.8-2.8 1.8-5s-.6-3.8-1.8-5c-1.2-1.2-3.1-1.8-5.6-1.8h-2.8v13.4h3.1c2.4.1 4.1-.5 5.3-1.6zm34.9-16h4.9v22.1h-4.9l-10.5-13.8v13.8h-4.9V3.1h4.6l10.8 14.2V3.1zm26.1 22.1l-2.1-4.8h-9.3l-2.1 4.8H207l9.5-22.1h4.8l9.5 22.1h-5.1zM219 9.6l-2.8 6.4h5.5L219 9.6zm22.2-2.3v17.8h-4.9V7.3H230V3.1h17.5v4.3h-6.3zm9.9-4.2h4.9v22.1h-4.9V3.1zm18.5 14L275.2 3h5.3l-8.9 22.1h-4.2L258.5 3h5.3l5.8 14.1zm29.6-14v4.4h-11V12h9.9v4.2h-9.9v4.6h11.3v4.4h-16.3V3.1h16zM65.6 44c1.4 0 2.5-.5 3.3-1.6l1.8 1.8c-1.4 1.6-3.1 2.4-5 2.4s-3.5-.6-4.7-1.8c-1.2-1.2-1.9-2.7-1.9-4.6 0-1.8.6-3.4 1.9-4.6s2.8-1.8 4.6-1.8c2 0 3.7.8 5.1 2.3L69.1 38c-.9-1.1-2-1.6-3.3-1.6-1 0-1.9.3-2.7 1-.7.7-1.1 1.6-1.1 2.8 0 1.2.3 2.1 1 2.8.8.6 1.6 1 2.6 1zm17.4.7c-1.3 1.2-2.8 1.8-4.6 1.8-1.8 0-3.4-.6-4.6-1.8-1.3-1.2-1.9-2.7-1.9-4.6s.6-3.3 1.9-4.6c1.3-1.2 2.8-1.8 4.6-1.8 1.8 0 3.4.6 4.6 1.8 1.3 1.2 1.9 2.7 1.9 4.6s-.6 3.4-1.9 4.6zm-.9-4.5c0-1.1-.4-2-1.1-2.8-.7-.8-1.6-1.2-2.6-1.2s-1.9.4-2.6 1.2c-.7.8-1.1 1.7-1.1 2.8 0 1.1.4 2 1.1 2.8.7.8 1.6 1.2 2.6 1.2s1.9-.4 2.6-1.2c.8-.8 1.1-1.7 1.1-2.8zm16.3-1.6L95 45.4h-1.6L90 38.6v7.8h-2.8V34H91l3.2 6.8 3.2-6.8h3.7v12.4h-2.8v-7.8zm14.3-3.5c.9.7 1.3 1.9 1.3 3.4s-.4 2.6-1.3 3.4c-.9.7-2.3 1.1-4.1 1.1H107v3.5h-2.8V34h4.4c1.8 0 3.2.4 4.1 1.1zm-2 4.9c.3-.4.5-.9.5-1.6s-.2-1.2-.6-1.5c-.4-.3-1.1-.5-2-.5H107v4.2h1.9c.8 0 1.4-.2 1.8-.6zm8.7 3.2c.5.6 1.1.9 1.9.9s1.4-.3 1.9-.9c.5-.6.7-1.4.7-2.3V34h2.8v7c0 1.8-.5 3.2-1.5 4.1-1 1-2.3 1.4-3.8 1.4s-2.8-.5-3.8-1.5-1.5-2.3-1.5-4.1V34h2.8v6.8c-.1 1.1.1 1.8.5 2.4zm15.3-6.8v10H132v-10h-3.5V34h9.8v2.4h-3.6zm5.5-2.4h2.8v12.4h-2.8V34zm14.5 0h2.8v12.4h-2.8l-5.9-7.8v7.8H146V34h2.6l6.1 8v-8zm13.9 6.1h2.8v4.4c-1.2 1.4-2.9 2.1-5.1 2.1-1.8 0-3.3-.6-4.6-1.8-1.2-1.2-1.9-2.7-1.9-4.6 0-1.8.6-3.4 1.9-4.6s2.8-1.8 4.6-1.8c1.8 0 3.3.6 4.6 1.8l-1.4 2.1c-.6-.5-1.1-.8-1.5-1-.5-.2-1-.3-1.5-.3-1.1 0-1.9.4-2.7 1.1-.7.7-1.1 1.7-1.1 2.8 0 1.2.3 2.1 1 2.8.7.7 1.5 1.1 2.5 1.1s1.8-.2 2.4-.5v-3.6zM187 34v2.4h-5.7v2.7h5.5v2.4h-5.5v4.9h-2.8V34h8.5zm12.8 10.7c-1.3 1.2-2.8 1.8-4.6 1.8-1.8 0-3.4-.6-4.6-1.8-1.3-1.2-1.9-2.7-1.9-4.6s.6-3.3 1.9-4.6c1.3-1.2 2.8-1.8 4.6-1.8 1.8 0 3.4.6 4.6 1.8 1.3 1.2 1.9 2.7 1.9 4.6s-.7 3.4-1.9 4.6zm-1-4.5c0-1.1-.4-2-1.1-2.8-.7-.8-1.6-1.2-2.6-1.2s-1.9.4-2.6 1.2c-.7.8-1.1 1.7-1.1 2.8 0 1.1.4 2 1.1 2.8.7.8 1.6 1.2 2.6 1.2s1.9-.4 2.6-1.2c.8-.8 1.1-1.7 1.1-2.8zm8.5 3c.5.6 1.1.9 1.9.9.8 0 1.4-.3 1.9-.9.5-.6.7-1.4.7-2.3V34h2.8v7c0 1.8-.5 3.2-1.5 4.1-1 1-2.3 1.4-3.8 1.4s-2.8-.5-3.8-1.5-1.5-2.3-1.5-4.1V34h2.8v6.8c-.2 1.1 0 1.8.5 2.4zM226 34h2.8v12.4H226l-5.9-7.8v7.8h-2.8V34h2.6l6.1 8v-8zm15.2 1.7c1.2 1.1 1.8 2.6 1.8 4.5s-.6 3.4-1.7 4.6c-1.2 1.1-2.9 1.7-5.3 1.7h-4.2V34h4.4c2.2 0 3.9.6 5 1.7zm-2 7.3c.7-.6 1-1.6 1-2.8 0-1.2-.3-2.2-1-2.8-.7-.7-1.7-1-3.1-1h-1.5V44h1.8c1.2 0 2.1-.3 2.8-1zm14.7 3.4l-1.2-2.7h-5.2l-1.2 2.7h-2.9l5.4-12.4h2.7l5.4 12.4h-3zm-3.8-8.7l-1.6 3.6h3.1l-1.5-3.6zm12.5-1.3v10h-2.8v-10h-3.5V34h9.8v2.4h-3.5zm5.5-2.4h2.8v12.4h-2.8V34zm16.3 10.7c-1.3 1.2-2.8 1.8-4.6 1.8-1.8 0-3.4-.6-4.6-1.8-1.3-1.2-1.9-2.7-1.9-4.6s.6-3.3 1.9-4.6c1.3-1.2 2.8-1.8 4.6-1.8 1.8 0 3.4.6 4.6 1.8 1.3 1.2 1.9 2.7 1.9 4.6s-.7 3.4-1.9 4.6zm-1-4.5c0-1.1-.4-2-1.1-2.8-.7-.8-1.6-1.2-2.6-1.2s-1.9.4-2.6 1.2c-.7.8-1.1 1.7-1.1 2.8 0 1.1.4 2 1.1 2.8.7.8 1.6 1.2 2.6 1.2s1.9-.4 2.6-1.2c.8-.8 1.1-1.7 1.1-2.8zm13.8-6.2h2.8v12.4h-2.8l-5.9-7.8v7.8h-2.8V34h2.6l6.1 8v-8z"/><path fill="#446CA9" d="M6.8 31.7H0v15.9h15.9v-6.8H6.8m34-9v9h-9.1v6.8h15.9V31.7h-6.8M0 15.9h6.9l-.1-.1v-9h9l.1.1V0H0m31.7 0v6.8h9.1v9.1h6.8V0"/><path fill="#76C4D5" d="M30.9 15.9l-9.1-9.1h9.9V0H15.9v6.9l9 9m-2.2 15.8h-6l7.5 7.6 1.6 1.5h-9.9v6.8h15.8v-6.8l-4.5-4.5m13.6-20.4v9.9l-1.5-1.6-7.6-7.5v6l4.6 4.5 4.5 4.5h6.8V15.9m-31.7 9l-9-9H0v15.8h6.8v-9.9l9.1 9.1"/></svg>