<?xml version="1.0" encoding="UTF-8"?>
<!-- Generator: Adobe Illustrator 23.0.3, SVG Export Plug-In . SVG Version: 6.00 Build 0)  -->
<svg version="1.1" id="Calque_1" xmlns="http://www.w3.org/2000/svg" xmlns:xlink="http://www.w3.org/1999/xlink" x="0px" y="0px" width="226.5px" height="226.8px" viewBox="0 0 226.5 226.8" style="enable-background:new 0 0 226.5 226.8;" xml:space="preserve">
<style type="text/css">
	.st0{fill:#FC0D1A;}
	.st1{fill:#FFFFFF;}
</style>
<g>
	<polygon class="st0" points="218.25,195.72096 158.32523,31.07904 8.25,166.20737  "/>
	<g>
		<rect x="145.6678" y="113.40005" class="st1" width="11.96458" height="41.16042"/>
		<path class="st1" d="M118.92128,138.23521l3.56993-13.05235l3.62117,13.05235H118.92128z M116.0461,113.40005l-14.79625,41.16039    h13.33598l2.17398-6.77544h11.51545l2.17462,6.77544h13.33659l-14.79539-41.16039H116.0461z"/>
		<polygon class="st1" points="52.64265,154.56044 64.26053,154.56044 64.26053,131.38742 72.21906,148.35121 79.79103,148.35121     87.75026,131.38742 87.75026,154.56042 99.36744,154.56042 99.36744,113.40005 85.43111,113.40005 76.17728,133.48088     66.89841,113.40005 52.64194,113.40005   "/>
		<polygon class="st1" points="162.16956,113.40005 162.16956,154.56044 174.13414,154.56044 174.13414,138.75385     189.2113,138.75385 190.8212,128.97878 174.13414,128.97878 174.13414,123.1758 191.84578,123.1758 193.43318,113.40005   "/>
	</g>
</g>
</svg>