<?xml version="1.0" encoding="UTF-8" standalone="no"?>
<!-- Created with Inkscape (http://www.inkscape.org/) -->

<svg
   xmlns:dc="http://purl.org/dc/elements/1.1/"
   xmlns:cc="http://creativecommons.org/ns#"
   xmlns:rdf="http://www.w3.org/1999/02/22-rdf-syntax-ns#"
   xmlns:svg="http://www.w3.org/2000/svg"
   xmlns="http://www.w3.org/2000/svg"
   xmlns:sodipodi="http://sodipodi.sourceforge.net/DTD/sodipodi-0.dtd"
   xmlns:inkscape="http://www.inkscape.org/namespaces/inkscape"
   version="1.1"
   id="svg2"
   xml:space="preserve"
   width="136.86481"
   height="32"
   viewBox="0 0 136.86481 32"
   sodipodi:docname="logo-monochrome.svg"
   inkscape:version="0.92.4 (unknown)"><metadata
     id="metadata8"><rdf:RDF><cc:Work
         rdf:about=""><dc:format>image/svg+xml</dc:format><dc:type
           rdf:resource="http://purl.org/dc/dcmitype/StillImage" /><dc:title></dc:title></cc:Work></rdf:RDF></metadata><defs
     id="defs6" /><sodipodi:namedview
     pagecolor="#ffffff"
     bordercolor="#666666"
     borderopacity="1"
     objecttolerance="10"
     gridtolerance="10"
     guidetolerance="10"
     inkscape:pageopacity="0"
     inkscape:pageshadow="2"
     inkscape:window-width="1920"
     inkscape:window-height="1016"
     id="namedview4"
     showgrid="false"
     inkscape:zoom="6.7409437"
     inkscape:cx="70.842117"
     inkscape:cy="19.607951"
     inkscape:window-x="0"
     inkscape:window-y="27"
     inkscape:window-maximized="1"
     inkscape:current-layer="g1795" /><g
     id="g10"
     inkscape:groupmode="layer"
     inkscape:label="ink_ext_XXXXXX"
     transform="matrix(1.3333333,0,0,-1.3333333,-43.80362,105.29337)"><g
       id="g1749"><g
         id="g1795"><g
           id="g12"
           transform="matrix(0.1,0,0,0.1,0,-1.5)"><g
             id="g14"
             transform="scale(1.0966)"><path
               d="M 16300,0 H -0.00356216 V 3958.52 H 16300 V 0"
               style="fill:#f6e9e2;fill-opacity:0;fill-rule:nonzero;stroke:none"
               id="path16"
               inkscape:connector-curvature="0" /></g></g><path
           d="m 56.929334,70.066267 c -0.04934,0.01639 -0.102016,0.02549 -0.156885,0.02549 -0.276436,0 -0.500523,-0.224088 -0.500523,-0.500524 0,-0.05762 0.01031,-0.112813 0.02825,-0.164432 0.04066,-0.116547 0.122795,-0.213539 0.229116,-0.272864 0.07199,-0.0401 0.154855,-0.06315 0.243158,-0.06315 0.05909,0 0.115576,0.0108 0.168247,0.02962 0.115576,0.04131 0.211753,0.12353 0.270269,0.229689 0.03944,0.07158 0.06193,0.153715 0.06193,0.241128 0,0.09122 -0.02475,0.176444 -0.06729,0.25006 -0.06095,0.105263 -0.158832,0.186265 -0.276274,0.224977"
           style="fill:#8a8a8a;fill-opacity:1;fill-rule:nonzero;stroke:none;stroke-width:0.00811614"
           id="path18"
           inkscape:connector-curvature="0" /><path
           d="m 49.95092,72.402414 -2.100781,-2.214732 1.455142,-1.690427 2.151181,2.308636 -1.505542,1.596523"
           style="fill:#cecece;fill-opacity:1;fill-rule:nonzero;stroke:none;stroke-width:0.00811614"
           id="path20"
           inkscape:connector-curvature="0" /><path
           d="m 50.705722,66.173931 -2.220412,2.579471 -1.325769,-4.55445 0.740351,-0.905761 2.80583,2.88074"
           style="fill:#676767;fill-opacity:1;fill-rule:nonzero;stroke:none;stroke-width:0.00811614"
           id="path22"
           inkscape:connector-curvature="0" /><path
           d="m 45.980187,64.924047 -0.438596,-4.052223 2.039258,2.0938 z"
           style="fill:#cecece;fill-opacity:1;fill-rule:nonzero;stroke:none;stroke-width:0.00811614"
           id="path24"
           inkscape:connector-curvature="0" /><path
           d="m 47.552119,70.533837 2.086577,2.199714 -2.523549,2.675971 -0.420013,-3.880159 0.856985,-0.995526"
           style="fill:#a4a5a5;fill-opacity:1;fill-rule:nonzero;stroke:none;stroke-width:0.00811614"
           id="path26"
           inkscape:connector-curvature="0" /><path
           d="m 53.116454,65.519771 1.903884,-2.167495 1.401979,1.443049 -2.963198,3.805736 -0.342665,-3.08129"
           style="fill:#cecece;fill-opacity:1;fill-rule:nonzero;stroke:none;stroke-width:0.00811614"
           id="path28"
           inkscape:connector-curvature="0" /><path
           d="m 55.87237,69.080724 c -0.08571,0.150796 -0.135293,0.324726 -0.135293,0.510506 0,0.571861 0.463512,1.035372 1.035372,1.035372 0.179855,0 0.348912,-0.04594 0.496304,-0.12661 l 0.688652,0.699934 -3.750304,4.12746 -0.676073,-6.079143 1.107207,-1.42195 1.234135,1.254431"
           style="fill:#676767;fill-opacity:1;fill-rule:nonzero;stroke:none;stroke-width:0.00811614"
           id="path30"
           inkscape:connector-curvature="0" /><path
           d="m 58.263466,70.863026 -0.653755,-0.664465 c 0.124097,-0.170682 0.198116,-0.380082 0.198116,-0.607331 0,-0.231475 -0.07694,-0.444441 -0.205341,-0.616908 l 1.361724,-1.562516 0.252903,0.260286 1.004857,1.035615 -1.958504,2.155319"
           style="fill:#a4a4a4;fill-opacity:1;fill-rule:nonzero;stroke:none;stroke-width:0.00811614"
           id="path32"
           inkscape:connector-curvature="0" /><path
           d="m 52.598161,60.859082 2.104515,2.166277 -1.654148,1.883267 z"
           style="fill:#676767;fill-opacity:1;fill-rule:nonzero;stroke:none;stroke-width:0.00811614"
           id="path34"
           inkscape:connector-curvature="0" /><path
           d="m 60.751546,62.31114 1.262871,0.710891 c 0,0 0.124663,0.06428 0.109812,0.12791 l 0.394364,-1.147783 c 0,0 0.156884,-0.325457 -1.45839,-0.957055 l -0.482425,0.865586 0.173768,0.400451"
           style="fill:#a5a5a5;fill-opacity:1;fill-rule:nonzero;stroke:none;stroke-width:0.00811614"
           id="path36"
           inkscape:connector-curvature="0" /><path
           d="m 60.548239,63.376869 c 0.16289,-0.1202 0.310767,-0.290721 0.297617,-0.548814 l -0.392983,-0.897238 c -0.08481,0.19844 -0.270917,0.553602 -0.636384,0.716979 l 0.43843,0.879465 c 0.06607,-0.01956 0.182942,-0.06696 0.29332,-0.150392"
           style="fill:#a4a4a4;fill-opacity:1;fill-rule:nonzero;stroke:none;stroke-width:0.00811614"
           id="path38"
           inkscape:connector-curvature="0" /><path
           d="M 67.850644,60.628746 C 67.554572,60.281376 66.740033,59.340797 65.794589,58.376925 65.14643,57.71611 64.561667,57.171273 64.048074,56.746719 H 38.537447 c -0.182985,0.205914 -0.316302,0.450607 -0.360973,0.74076 h 25.125809 l 3.735777,3.719218 z m -5.487477,-4.924537 c -3.499678,9.3e-5 -21.117448,0.03586 -21.693205,0.03701 -0.113059,0.01835 -1.046171,0.181972 -1.741804,0.664727 H 63.61646 c -0.50872,-0.381145 -0.931081,-0.619207 -1.253293,-0.701732 z m -17.737483,2.976584 h 2.397101 V 57.828274 H 44.52756 Z m 6.758707,0.340797 h -6.459143 l 7.327244,7.572029 z m -0.03904,-0.340797 -0.09772,-0.852519 h -3.883973 v 0.852519 z m 0.362306,0.06201 0.359463,0.37042 h 0.993822 V 57.828275 H 51.59062 l 0.105996,0.925239 z m 1.694161,-0.914527 v 1.284947 h 2.898516 v -1.284948 z m 4.014804,0 h -0.775411 v 1.284947 h 1.020602 z m 2.123105,1.284947 v -1.284948 h -1.748053 l 0.245186,1.284947 z m 3.621901,-1.284947 h -3.281106 v 1.284947 h 1.454733 V 59.4541 h -3.233306 l 0.351513,1.841632 c 1.201429,-0.141627 1.817853,0.336008 1.948359,0.434781 -0.0054,0.01006 -0.01209,0.01631 -0.01364,0.02524 0,0 -0.01022,0.03677 -0.03409,0.09878 -0.06014,0.15307 -0.199092,0.439325 -0.448256,0.610414 -0.229036,-0.150312 -0.67883,-0.04302 -1.218799,0.05438 l 0.216376,1.133662 -0.361897,0.06907 -0.814619,-4.26795 h -5.329051 l 9.6625,9.957358 -0.244539,0.237238 -10.058407,-10.365277 2.220574,19.369393 -0.338524,0.03879 -1.042678,-9.094853 -0.827846,0.877842 -2.165384,-2.323816 1.420407,-1.650009 1.379008,1.415863 0.03856,0.325535 -0.125315,-1.092594 -7.622345,-7.87695 2.231853,19.380107 -0.338605,0.03904 -2.265213,-19.670182 h -5.564013 v -0.34079 h 5.524816 l -0.09821,-0.852519 h -6.369405 l 0.0049,-0.175145 c 0.05143,-1.827495 2.699182,-2.234445 2.811834,-2.250832 l 0.02427,-0.0019 c 0.181965,-4.65e-4 18.237275,-0.03702 21.72786,-0.03702 h 0.02013 l 0.01964,0.0047 c 1.835142,0.440552 5.646233,4.989546 5.80758,5.182954 l 0.117846,0.141383 -1.348006,0.958515 -3.839583,-3.822698"
           style="fill:#2e2e2e;fill-opacity:1;fill-rule:nonzero;stroke:none;stroke-width:0.00811614"
           id="path40"
           inkscape:connector-curvature="0" /><path
           d="m 46.048767,65.558079 0.761861,-0.932056 1.320983,4.538217 -1.503434,1.74651 -0.57941,-5.352671"
           style="fill:#2e2e2e;fill-opacity:1;fill-rule:nonzero;stroke:none;stroke-width:0.00811614"
           id="path42"
           inkscape:connector-curvature="0" /><path
           d="m 57.25869,68.677352 c -0.14504,-0.07727 -0.310444,-0.121419 -0.486241,-0.121419 -0.221163,0 -0.425689,0.06988 -0.593856,0.188052 l -1.258812,-1.279346 1.822153,-2.340204 1.904531,1.960292 -1.387775,1.592625"
           style="fill:#2e2e2e;fill-opacity:1;fill-rule:nonzero;stroke:none;stroke-width:0.00811614"
           id="path44"
           inkscape:connector-curvature="0" /><path
           d="m 75.544011,72.72081 v 0.743439 h -3.311384 v -5.186047 h 0.786048 v 2.215946 h 2.155486 v 0.697177 h -2.155486 v 1.529485 h 2.525336"
           style="fill:#2f2d2e;fill-opacity:1;fill-rule:nonzero;stroke:none;stroke-width:0.00811614"
           id="path50"
           inkscape:connector-curvature="0" /><path
           d="m 79.850594,69.836174 c -0.03807,-0.18026 -0.108028,-0.326108 -0.20988,-0.43762 -0.07832,-0.106645 -0.182693,-0.193249 -0.313038,-0.259638 -0.137571,-0.07823 -0.300055,-0.117356 -0.487298,-0.117356 -0.184965,0 -0.343878,0.03912 -0.476657,0.117356 -0.135136,0.06639 -0.244215,0.152993 -0.327246,0.259638 -0.102014,0.111512 -0.169542,0.25736 -0.202741,0.43762 -0.03798,0.180098 -0.05689,0.525114 -0.05689,1.034968 0,0.509859 0.01891,0.857228 0.05689,1.042193 0.0332,0.175473 0.100727,0.318882 0.202741,0.4304 0.08303,0.106726 0.19211,0.195682 0.327246,0.266776 0.132779,0.06874 0.291692,0.105513 0.476657,0.110299 0.187243,-0.0048 0.349727,-0.04156 0.487298,-0.110299 0.130345,-0.07109 0.234718,-0.16005 0.313038,-0.266776 0.101852,-0.111518 0.171815,-0.254927 0.20988,-0.4304 0.03547,-0.184965 0.05324,-0.532334 0.05324,-1.042193 0,-0.509854 -0.01777,-0.85487 -0.05324,-1.034968 z m 0.611717,2.738788 c -0.120934,0.239511 -0.317749,0.45288 -0.590451,0.640285 -0.275136,0.18959 -0.618938,0.286824 -1.031482,0.29161 -0.407914,-0.0048 -0.748225,-0.10202 -1.020845,-0.29161 -0.277489,-0.187405 -0.479016,-0.400774 -0.604731,-0.640285 -0.07824,-0.125715 -0.13635,-0.290477 -0.174334,-0.494432 -0.03555,-0.203959 -0.05332,-0.607088 -0.05332,-1.209388 0,-0.592799 0.01777,-0.993573 0.05332,-1.202239 0.01899,-0.111437 0.04277,-0.20396 0.07118,-0.277412 0.03076,-0.07109 0.06526,-0.145849 0.103159,-0.224087 0.125715,-0.239507 0.327242,-0.450524 0.60473,-0.633137 0.272621,-0.189675 0.612932,-0.289263 1.020845,-0.298754 0.412545,0.0095 0.756347,0.109079 1.031483,0.298754 0.272702,0.182613 0.469517,0.39363 0.590451,0.633137 0.08773,0.125638 0.148195,0.292833 0.181392,0.501499 0.03076,0.208666 0.04626,0.60944 0.04626,1.202239 0,0.6023 -0.0155,1.005429 -0.04626,1.209388 -0.0332,0.203955 -0.09366,0.368717 -0.181392,0.494432"
           style="fill:#2f2d2e;fill-opacity:1;fill-rule:nonzero;stroke:none;stroke-width:0.00811614"
           id="path52"
           inkscape:connector-curvature="0" /><path
           d="m 84.164076,69.02156 c -0.569105,0.0048 -1.059968,0.176607 -1.472588,0.515778 l -0.515703,-0.590452 c 0.552468,-0.474302 1.212955,-0.711373 1.981233,-0.711373 1.188035,0.01421 1.795043,0.516912 1.821176,1.508139 0,0.367495 -0.115083,0.690031 -0.345017,0.967444 -0.232445,0.282194 -0.591664,0.456449 -1.077824,0.522918 -0.246648,0.03077 -0.44103,0.05811 -0.583305,0.08181 -0.25606,0.04732 -0.442327,0.13278 -0.558469,0.256066 -0.116223,0.120929 -0.174253,0.256147 -0.174253,0.405481 0.0047,0.249002 0.09122,0.436325 0.259632,0.562045 0.16127,0.120929 0.362791,0.181393 0.604654,0.181393 0.467164,-0.0096 0.895125,-0.142276 1.284136,-0.398423 l 0.437459,0.647345 c -0.476662,0.343882 -1.037488,0.522922 -1.682397,0.537125 -0.535988,-0.0048 -0.949746,-0.144628 -1.241442,-0.419683 -0.301189,-0.277413 -0.451743,-0.642637 -0.451743,-1.095519 0,-0.377074 0.119714,-0.697171 0.3593,-0.960382 0.232366,-0.256146 0.571457,-0.420983 1.017279,-0.494431 0.249002,-0.03555 0.477796,-0.06761 0.686461,-0.09601 0.455313,-0.07832 0.680535,-0.310685 0.675829,-0.697175 -0.0095,-0.471957 -0.350941,-0.712601 -1.024418,-0.722092"
           style="fill:#2f2d2e;fill-opacity:1;fill-rule:nonzero;stroke:none;stroke-width:0.00811614"
           id="path54"
           inkscape:connector-curvature="0" /><path
           d="m 89.363354,69.02156 c -0.569103,0.0048 -1.060049,0.176607 -1.472593,0.515778 l -0.515779,-0.590452 c 0.552543,-0.474302 1.212955,-0.711373 1.981228,-0.711373 1.188042,0.01421 1.795048,0.516912 1.821181,1.508139 0,0.367495 -0.115009,0.690031 -0.345021,0.967444 -0.232441,0.282194 -0.591665,0.456449 -1.077738,0.522918 -0.246649,0.03077 -0.441112,0.05811 -0.583387,0.08181 -0.256066,0.04732 -0.44225,0.13278 -0.558393,0.256066 -0.116224,0.120929 -0.174334,0.256147 -0.174334,0.405481 0.0048,0.249002 0.09131,0.436325 0.259637,0.562045 0.161265,0.120929 0.362872,0.181393 0.604735,0.181393 0.467083,-0.0096 0.895125,-0.142276 1.284051,-0.398423 l 0.437458,0.647345 c -0.476575,0.343882 -1.037402,0.522922 -1.682392,0.537125 -0.535988,-0.0048 -0.94967,-0.144628 -1.241361,-0.419683 -0.301189,-0.277413 -0.451748,-0.642637 -0.451748,-1.095519 0,-0.377074 0.119714,-0.697171 0.359224,-0.960382 0.232365,-0.256146 0.571457,-0.420983 1.017274,-0.494431 0.249083,-0.03555 0.477875,-0.06761 0.686547,-0.09601 0.455233,-0.07832 0.680535,-0.310685 0.675829,-0.697175 -0.0096,-0.471957 -0.351022,-0.712601 -1.024418,-0.722092"
           style="fill:#2f2d2e;fill-opacity:1;fill-rule:nonzero;stroke:none;stroke-width:0.00811614"
           id="path56"
           inkscape:connector-curvature="0" /><path
           d="m 94.299342,73.464249 -1.732226,-3.71354 v -0.700662 h 2.162626 v -0.771845 h 0.743439 v 0.771845 h 0.412538 v 0.700662 h -0.412538 v 1.49045 h -0.743439 v -1.49045 h -1.355151 l 1.753567,3.71354 h -0.828816"
           style="fill:#2f2d2e;fill-opacity:1;fill-rule:nonzero;stroke:none;stroke-width:0.00811614"
           id="path58"
           inkscape:connector-curvature="0" /><path
           d="m 98.41373,72.343735 c 0.083,0.106726 0.19211,0.195682 0.32725,0.266776 0.13286,0.06874 0.29177,0.105513 0.47674,0.110299 0.25128,-0.0048 0.46465,-0.0771 0.6402,-0.216942 0.16833,-0.147149 0.28455,-0.324971 0.34859,-0.533635 h 0.83231 c -0.083,0.433966 -0.28221,0.797977 -0.5976,1.092021 -0.31539,0.291696 -0.72323,0.439817 -1.2235,0.444603 -0.40792,-0.0048 -0.74823,-0.10202 -1.02093,-0.29161 -0.27741,-0.187405 -0.47893,-0.400774 -0.60465,-0.640285 -0.0782,-0.125715 -0.13636,-0.290477 -0.17433,-0.494432 -0.0356,-0.203959 -0.0533,-0.607088 -0.0533,-1.209388 0,-0.592799 0.0178,-0.993573 0.0533,-1.202239 0.019,-0.111437 0.0428,-0.20396 0.0712,-0.277412 0.0308,-0.07109 0.0652,-0.145849 0.10316,-0.224087 0.12572,-0.239507 0.32724,-0.450524 0.60465,-0.633137 0.2727,-0.189675 0.61301,-0.289263 1.02093,-0.298754 0.52869,0.0095 0.96736,0.188537 1.31603,0.537125 0.34616,0.350861 0.52397,0.786048 0.53355,1.305399 v 1.056395 h -1.84252 v -0.743438 h 1.0564 v -0.270349 c -0.005,-0.324888 -0.10673,-0.586879 -0.30591,-0.786047 -0.19916,-0.208666 -0.45174,-0.313038 -0.75755,-0.313038 -0.18497,0 -0.34388,0.03912 -0.47674,0.117356 -0.13513,0.06639 -0.24421,0.152993 -0.32725,0.259638 -0.10193,0.111512 -0.16954,0.25736 -0.20265,0.43762 -0.0381,0.180098 -0.0569,0.525114 -0.0569,1.034968 0,0.509859 0.0188,0.857228 0.0569,1.042193 0.0331,0.175473 0.10072,0.318882 0.20265,0.4304"
           style="fill:#2f2d2e;fill-opacity:1;fill-rule:nonzero;stroke:none;stroke-width:0.00811614"
           id="path60"
           inkscape:connector-curvature="0" /><path
           d="m 107.30772,69.02156 c -0.56911,0.0048 -1.06005,0.176607 -1.4726,0.515778 l -0.51569,-0.590452 c 0.55238,-0.474302 1.21287,-0.711373 1.98114,-0.711373 1.18804,0.01421 1.79505,0.516912 1.8211,1.508139 0,0.367495 -0.115,0.690031 -0.34502,0.967444 -0.23236,0.282194 -0.59166,0.456449 -1.07765,0.522918 -0.24665,0.03077 -0.44112,0.05811 -0.5834,0.08181 -0.25606,0.04732 -0.44232,0.13278 -0.55838,0.256066 -0.11623,0.120929 -0.17434,0.256147 -0.17434,0.405481 0.005,0.249002 0.0913,0.436325 0.25963,0.562045 0.16128,0.120929 0.36279,0.181393 0.60474,0.181393 0.46708,-0.0096 0.89512,-0.142276 1.28406,-0.398423 l 0.43753,0.647345 c -0.47674,0.343882 -1.03757,0.522922 -1.68247,0.537125 -0.53591,-0.0048 -0.94967,-0.144628 -1.24137,-0.419683 -0.30127,-0.277413 -0.45173,-0.642637 -0.45173,-1.095519 0,-0.377074 0.11962,-0.697171 0.35922,-0.960382 0.23236,-0.256146 0.57145,-0.420983 1.01735,-0.494431 0.24893,-0.03555 0.47772,-0.06761 0.68646,-0.09601 0.45524,-0.07832 0.68046,-0.310685 0.67583,-0.697175 -0.01,-0.471957 -0.35094,-0.712601 -1.02441,-0.722092"
           style="fill:#2f2d2e;fill-opacity:1;fill-rule:nonzero;stroke:none;stroke-width:0.00811614"
           id="path62"
           inkscape:connector-curvature="0" /><path
           d="m 113.65559,69.836174 c -0.0382,-0.18026 -0.10794,-0.326108 -0.20941,-0.43762 -0.0787,-0.106645 -0.18261,-0.193249 -0.31327,-0.259638 -0.13717,-0.07823 -0.3003,-0.117356 -0.48697,-0.117356 -0.18504,0 -0.34413,0.03912 -0.47723,0.117356 -0.13473,0.06639 -0.24429,0.152993 -0.32708,0.259638 -0.10145,0.111512 -0.16962,0.25736 -0.2029,0.43762 -0.0373,0.180098 -0.0568,0.525114 -0.0568,1.034968 0,0.509859 0.0195,0.857228 0.0568,1.042193 0.0333,0.175473 0.10145,0.318882 0.2029,0.4304 0.0828,0.106726 0.19235,0.195682 0.32708,0.266776 0.1331,0.06874 0.29219,0.105513 0.47723,0.110299 0.18667,-0.0048 0.3498,-0.04156 0.48697,-0.110299 0.13066,-0.07109 0.23456,-0.16005 0.31327,-0.266776 0.10147,-0.111518 0.17126,-0.254927 0.20941,-0.4304 0.0357,-0.184965 0.0535,-0.532334 0.0535,-1.042193 0,-0.509854 -0.0179,-0.85487 -0.0535,-1.034968 z m 0.61196,2.738788 c -0.12093,0.239511 -0.31735,0.45288 -0.59006,0.640285 -0.27513,0.18959 -0.61925,0.286824 -1.03155,0.29161 -0.40824,-0.0048 -0.7483,-0.10202 -1.02101,-0.29161 -0.27758,-0.187405 -0.47909,-0.400774 -0.60482,-0.640285 -0.0782,-0.125715 -0.13634,-0.290477 -0.17433,-0.494432 -0.0356,-0.203959 -0.0534,-0.607088 -0.0534,-1.209388 0,-0.592799 0.0178,-0.993573 0.0534,-1.202239 0.019,-0.111437 0.0427,-0.20396 0.0712,-0.277412 0.0308,-0.07109 0.0652,-0.145849 0.10316,-0.224087 0.12572,-0.239507 0.32724,-0.450524 0.60482,-0.633137 0.2727,-0.189675 0.61276,-0.289263 1.021,-0.298754 0.4123,0.0095 0.75642,0.109079 1.03156,0.298754 0.27271,0.182613 0.46912,0.39363 0.59005,0.633137 0.0877,0.125638 0.14852,0.292833 0.1818,0.501499 0.03,0.208666 0.0463,0.60944 0.0463,1.202239 0,0.6023 -0.0162,1.005429 -0.0463,1.209388 -0.0333,0.203955 -0.0941,0.368717 -0.1818,0.494432"
           style="fill:#2f2d2e;fill-opacity:1;fill-rule:nonzero;stroke:none;stroke-width:0.00811614"
           id="path64"
           inkscape:connector-curvature="0" /><path
           d="M 117.96931,68.278202 V 72.7635 h 1.41951 v 0.700749 h -3.62791 V 72.7635 h 1.4187 v -4.485298 h 0.7897"
           style="fill:#2f2d2e;fill-opacity:1;fill-rule:nonzero;stroke:none;stroke-width:0.00811614"
           id="path66"
           inkscape:connector-curvature="0" /><path
           d="m 125.39151,68.278202 v 5.186047 h -0.74343 l -1.45766,-3.379155 -1.48688,3.379155 h -0.7402 v -5.186047 h 0.78647 v 3.233225 h 0.0138 l 1.08512,-2.489867 h 0.65417 l 1.08512,2.489867 h 0.0179 v -3.233225 h 0.78564"
           style="fill:#2f2d2e;fill-opacity:1;fill-rule:nonzero;stroke:none;stroke-width:0.00811614"
           id="path68"
           inkscape:connector-curvature="0" /><path
           d="m 72.887924,63.687717 c 0.03961,0.20972 0.120443,0.381134 0.242268,0.514481 0.09926,0.127504 0.229607,0.233745 0.391278,0.318802 0.158669,0.08222 0.348589,0.126125 0.569751,0.131806 0.223845,-0.0057 0.417983,-0.04959 0.582417,-0.131806 0.155912,-0.08506 0.280655,-0.191298 0.374155,-0.318802 0.1219,-0.133347 0.205497,-0.304761 0.250868,-0.514481 0.04252,-0.221165 0.0638,-0.636386 0.0638,-1.245827 0,-0.609522 -0.02127,-1.021902 -0.0638,-1.237304 -0.04537,-0.215403 -0.128968,-0.389819 -0.250868,-0.522923 -0.0935,-0.127585 -0.218243,-0.231066 -0.374155,-0.310442 -0.164434,-0.0935 -0.358572,-0.140328 -0.582417,-0.140328 -0.221162,0 -0.411082,0.04684 -0.569751,0.140328 -0.161671,0.07938 -0.292015,0.182857 -0.391278,0.310442 -0.121825,0.133104 -0.202659,0.30752 -0.242268,0.522923 -0.04536,0.215402 -0.06801,0.627782 -0.06801,1.237304 0,0.609441 0.02265,1.024662 0.06801,1.245827 z m -0.948208,0.19982 c -0.04252,-0.24381 -0.0638,-0.725746 -0.0638,-1.445647 0,-0.708619 0.02126,-1.187715 0.0638,-1.437123 0.02272,-0.133267 0.05105,-0.243808 0.08506,-0.331707 0.03676,-0.08498 0.07791,-0.174253 0.123282,-0.267832 0.15023,-0.286337 0.391196,-0.538506 0.722825,-0.75683 0.32594,-0.226764 0.732722,-0.345829 1.220338,-0.357109 0.493136,0.01128 0.904136,0.130345 1.233003,0.357109 0.325946,0.218324 0.56123,0.470493 0.705783,0.75683 0.104858,0.150229 0.177092,0.350049 0.216782,0.599539 0.03685,0.249408 0.05534,0.728504 0.05534,1.437123 0,0.719901 -0.01851,1.201837 -0.05534,1.445647 -0.03969,0.243726 -0.111924,0.440704 -0.216782,0.591016 -0.144553,0.286174 -0.379837,0.541345 -0.705783,0.765352 -0.328867,0.226682 -0.739867,0.342824 -1.233003,0.348505 -0.487616,-0.0057 -0.894398,-0.121823 -1.220338,-0.348505 -0.331629,-0.224007 -0.572595,-0.479178 -0.722825,-0.765352 -0.0935,-0.150312 -0.16297,-0.34729 -0.208342,-0.591016"
           style="fill:#2f2d2e;fill-opacity:1;fill-rule:nonzero;stroke:none;stroke-width:0.00811614"
           id="path70"
           inkscape:connector-curvature="0" /><path
           d="m 80.272473,65.59241 c -0.487616,-0.0057 -0.894397,-0.121823 -1.220263,-0.348505 -0.331622,-0.224007 -0.572676,-0.479178 -0.7229,-0.765352 -0.09342,-0.150312 -0.162975,-0.34729 -0.20826,-0.591016 -0.04253,-0.24381 -0.06387,-0.725746 -0.06387,-1.445647 0,-0.708619 0.02135,-1.187715 0.06387,-1.437123 0.02264,-0.133267 0.05097,-0.243808 0.08505,-0.331707 0.03676,-0.08498 0.07783,-0.174253 0.123207,-0.267832 0.150223,-0.286337 0.391278,-0.538506 0.7229,-0.75683 0.325865,-0.226764 0.732646,-0.345829 1.220262,-0.357109 0.538502,0 1.004857,0.152988 1.398817,0.459211 0.382671,0.308899 0.641985,0.751066 0.778093,1.326581 h -0.99488 c -0.260852,-0.564152 -0.654805,-0.846188 -1.18203,-0.846188 -0.221082,0 -0.411001,0.04684 -0.569751,0.140328 -0.161595,0.07938 -0.29194,0.182857 -0.391202,0.310442 -0.1219,0.133104 -0.20266,0.30752 -0.242344,0.522923 -0.04537,0.215402 -0.06801,0.627782 -0.06801,1.237304 0,0.609441 0.02264,1.024662 0.06801,1.245827 0.03969,0.20972 0.120444,0.381134 0.242344,0.514481 0.09926,0.127504 0.229607,0.233745 0.391202,0.318802 0.15875,0.08222 0.348669,0.126125 0.569751,0.131806 0.30038,-0.0057 0.555468,-0.09204 0.765272,-0.259311 0.201278,-0.175795 0.340143,-0.388357 0.416758,-0.637766 h 0.99488 c -0.09926,0.518703 -0.337392,0.953809 -0.714305,1.305318 -0.376994,0.348588 -0.86461,0.525682 -1.462605,0.531363"
           style="fill:#2f2d2e;fill-opacity:1;fill-rule:nonzero;stroke:none;stroke-width:0.00811614"
           id="path72"
           inkscape:connector-curvature="0" /><path
           d="m 83.983492,59.342339 h 3.958403 v 0.888554 h -3.018797 v 1.8198 h 2.576628 v 0.833364 h -2.576628 v 1.768749 h 3.018797 v 0.888635 h -3.958403 v -6.199102"
           style="fill:#2f2d2e;fill-opacity:1;fill-rule:nonzero;stroke:none;stroke-width:0.00811614"
           id="path74"
           inkscape:connector-curvature="0" /><path
           d="m 90.794062,61.561695 0.89716,2.708436 h 0.01704 l 0.897079,-2.708436 z m 0.510263,3.979746 -2.253524,-6.199102 h 0.994956 l 0.476176,1.386073 h 2.351324 l 0.480392,-1.386073 h 0.990734 l -2.253525,6.199102 h -0.786533"
           style="fill:#2f2d2e;fill-opacity:1;fill-rule:nonzero;stroke:none;stroke-width:0.00811614"
           id="path76"
           inkscape:connector-curvature="0" /><path
           d="m 95.878418,65.541441 v -6.199102 h 0.939601 v 4.404869 h 0.01704 L 99.637,59.342339 h 0.88863 v 6.199102 h -0.93968 v -4.404868 h -0.0169 l -2.806241,4.404868 h -0.884333"
           style="fill:#2f2d2e;fill-opacity:1;fill-rule:nonzero;stroke:none;stroke-width:0.00811614"
           id="path78"
           inkscape:connector-curvature="0" /><path
           d="m 102.70603,65.541441 v -6.199102 h 0.9396 v 6.199102 h -0.9396"
           style="fill:#2f2d2e;fill-opacity:1;fill-rule:nonzero;stroke:none;stroke-width:0.00811614"
           id="path80"
           inkscape:connector-curvature="0" /><path
           d="m 107.81578,64.270131 h 0.017 l 0.89716,-2.708436 h -1.81128 z m -1.64538,-4.927792 0.47617,1.386073 h 2.35124 l 0.48049,-1.386073 h 0.99065 l -2.25344,6.199102 h -0.78662 l -2.25353,-6.199102 h 0.99504"
           style="fill:#2f2d2e;fill-opacity:1;fill-rule:nonzero;stroke:none;stroke-width:0.00811614"
           id="path82"
           inkscape:connector-curvature="0" /><path
           d="m 114.57839,65.424406 c -0.15988,-0.100396 -0.31084,-0.195274 -0.61845,-0.195274 -0.30679,0 -0.45775,0.09488 -0.61845,0.195274 -0.12985,0.08165 -0.27432,0.17109 -0.50157,0.20753 v -0.196491 c 0.17043,-0.03287 0.28244,-0.102426 0.39849,-0.175309 0.16882,-0.105429 0.35873,-0.224979 0.72153,-0.224979 0.3636,0 0.55352,0.11955 0.72153,0.224979 0.16069,0.100396 0.31165,0.195274 0.61925,0.195274 0.3068,0 0.45776,-0.09488 0.61846,-0.195274 0.168,-0.105429 0.35792,-0.224979 0.72152,-0.224979 0.3628,0 0.55352,0.11955 0.72152,0.224979 0.15989,0.100396 0.31086,0.195274 0.61846,0.195274 0.30678,0 0.45856,-0.09488 0.61844,-0.195274 0.16801,-0.105429 0.35874,-0.224979 0.72153,-0.224979 0.36278,0 0.55351,0.11955 0.72152,0.224979 0.15989,0.100396 0.31166,0.195274 0.61845,0.195274 0.30679,0 0.45856,-0.09488 0.61845,-0.195274 0.168,-0.105429 0.35872,-0.224979 0.72153,-0.224979 0.36278,0 0.55352,0.11955 0.72152,0.224979 0.15988,0.100396 0.31166,0.195274 0.61845,0.195274 0.3076,0 0.45856,-0.09488 0.61844,-0.195274 0.16882,-0.105429 0.35874,-0.224979 0.72234,-0.224979 0.36279,0 0.5527,0.11955 0.72153,0.224979 0.0454,0.02849 0.0901,0.05633 0.13797,0.08189 v 0.214754 c -0.0917,-0.03985 -0.16881,-0.08716 -0.24105,-0.132375 -0.1607,-0.100396 -0.31165,-0.195274 -0.61845,-0.195274 -0.3076,0 -0.45856,0.09488 -0.61926,0.195274 -0.16801,0.105429 -0.35873,0.224898 -0.72152,0.224898 -0.36279,0 -0.55352,-0.119469 -0.72153,-0.224898 -0.15988,-0.100396 -0.31085,-0.195274 -0.61844,-0.195274 -0.3068,0 -0.45857,0.09488 -0.61845,0.195274 -0.16801,0.105429 -0.35873,0.224898 -0.72153,0.224898 -0.36279,0 -0.55351,-0.119469 -0.72152,-0.224898 -0.15989,-0.100396 -0.31166,-0.195274 -0.61845,-0.195274 -0.3068,0 -0.45857,0.09488 -0.61845,0.195274 -0.168,0.105429 -0.35874,0.224898 -0.72152,0.224898 -0.36281,0 -0.55353,-0.119469 -0.72153,-0.224898 -0.1607,-0.100396 -0.31166,-0.195274 -0.61845,-0.195274 -0.3076,0 -0.45856,0.09488 -0.61926,0.195274 -0.16801,0.105429 -0.35793,0.224898 -0.72072,0.224898 -0.36359,0 -0.55351,-0.119469 -0.72233,-0.224898"
           style="fill:#2f2d2e;fill-opacity:1;fill-rule:nonzero;stroke:none;stroke-width:0.00811614"
           id="path152"
           inkscape:connector-curvature="0" /><path
           d="m 125.54085,64.62789 c -0.0917,-0.03993 -0.16881,-0.08725 -0.24105,-0.132456 -0.1607,-0.100397 -0.31165,-0.195273 -0.61845,-0.195273 -0.3076,0 -0.45856,0.09488 -0.61926,0.195273 -0.16801,0.105428 -0.35873,0.224898 -0.72152,0.224898 -0.36279,0 -0.55352,-0.11947 -0.72153,-0.224898 -0.15988,-0.100397 -0.31085,-0.195273 -0.61844,-0.195273 -0.3068,0 -0.45857,0.09488 -0.61845,0.195273 -0.16801,0.105428 -0.35873,0.224898 -0.72153,0.224898 -0.36279,0 -0.55351,-0.11947 -0.72152,-0.224898 -0.15989,-0.100397 -0.31166,-0.195273 -0.61845,-0.195273 -0.3068,0 -0.45857,0.09488 -0.61845,0.195273 -0.168,0.105428 -0.35874,0.224898 -0.72152,0.224898 -0.36281,0 -0.55353,-0.11947 -0.72153,-0.224898 -0.1607,-0.100397 -0.31166,-0.195273 -0.61845,-0.195273 -0.3076,0 -0.45856,0.09488 -0.61926,0.195273 -0.16801,0.105428 -0.35793,0.224898 -0.72072,0.224898 -0.36359,0 -0.55351,-0.11947 -0.72233,-0.224898 -0.15988,-0.100397 -0.31084,-0.195273 -0.61845,-0.195273 -0.30679,0 -0.45775,0.09488 -0.61845,0.195273 -0.12985,0.08165 -0.27432,0.171088 -0.50157,0.20753 v -0.196411 c 0.17043,-0.03295 0.28244,-0.102426 0.39849,-0.175388 0.16882,-0.105349 0.35873,-0.224899 0.72153,-0.224899 0.3636,0 0.55352,0.11955 0.72153,0.224899 0.16069,0.100395 0.31165,0.195354 0.61925,0.195354 0.3068,0 0.45776,-0.09496 0.61846,-0.195354 0.168,-0.105349 0.35792,-0.224899 0.72152,-0.224899 0.3628,0 0.55352,0.11955 0.72152,0.224899 0.15989,0.100395 0.31086,0.195354 0.61846,0.195354 0.30678,0 0.45856,-0.09496 0.61844,-0.195354 0.16801,-0.105349 0.35874,-0.224899 0.72153,-0.224899 0.36278,0 0.55351,0.11955 0.72152,0.224899 0.15989,0.100395 0.31166,0.195354 0.61845,0.195354 0.30679,0 0.45856,-0.09496 0.61845,-0.195354 0.168,-0.105349 0.35872,-0.224899 0.72153,-0.224899 0.36278,0 0.55352,0.11955 0.72152,0.224817 0.15988,0.100477 0.31166,0.195436 0.61845,0.195436 0.3076,0 0.45856,-0.09496 0.61844,-0.195354 0.16882,-0.105349 0.35874,-0.224899 0.72234,-0.224899 0.36279,0 0.5527,0.11955 0.72153,0.224899 0.0454,0.02857 0.0901,0.05632 0.13797,0.08189 v 0.214833"
           style="fill:#2f2d2e;fill-opacity:1;fill-rule:nonzero;stroke:none;stroke-width:0.00811614"
           id="path154"
           inkscape:connector-curvature="0" /><path
           d="m 125.54085,62.769945 c -0.0917,-0.03985 -0.16881,-0.08716 -0.24105,-0.132456 -0.1607,-0.100396 -0.31165,-0.195274 -0.61845,-0.195274 -0.3076,0 -0.45856,0.09488 -0.61926,0.195274 -0.16801,0.105429 -0.35873,0.224979 -0.72152,0.224979 -0.36279,0 -0.55352,-0.11955 -0.72153,-0.224979 -0.15988,-0.100396 -0.31085,-0.195274 -0.61844,-0.195274 -0.3068,0 -0.45857,0.09488 -0.61845,0.195274 -0.16801,0.105429 -0.35873,0.224979 -0.72153,0.224979 -0.36279,0 -0.55351,-0.11955 -0.72152,-0.224979 -0.15989,-0.100396 -0.31166,-0.195274 -0.61845,-0.195274 -0.3068,0 -0.45857,0.09488 -0.61845,0.195274 -0.168,0.105429 -0.35874,0.224979 -0.72152,0.224979 -0.36281,0 -0.55353,-0.11955 -0.72153,-0.224979 -0.1607,-0.100396 -0.31166,-0.195274 -0.61845,-0.195274 -0.3076,0 -0.45856,0.09488 -0.61926,0.195274 -0.16801,0.105429 -0.35793,0.224979 -0.72072,0.224979 -0.36359,0 -0.55351,-0.11955 -0.72233,-0.224979 -0.15988,-0.100396 -0.31084,-0.195274 -0.61845,-0.195274 -0.30679,0 -0.45775,0.09488 -0.61845,0.195274 -0.12985,0.08173 -0.27432,0.17117 -0.50157,0.207611 v -0.196573 c 0.17043,-0.03279 0.28244,-0.102345 0.39849,-0.175309 0.16882,-0.105428 0.35873,-0.224897 0.72153,-0.224897 0.3636,0 0.55352,0.119469 0.72153,0.224897 0.16069,0.100478 0.31165,0.195275 0.61925,0.195275 0.3068,0 0.45776,-0.0948 0.61846,-0.195275 0.168,-0.105347 0.35792,-0.224897 0.72152,-0.224897 0.3628,0 0.55352,0.119469 0.72152,0.224897 0.15989,0.100478 0.31086,0.195275 0.61846,0.195275 0.30678,0 0.45856,-0.0948 0.61844,-0.195275 0.16801,-0.105428 0.35874,-0.224897 0.72153,-0.224897 0.36278,0 0.55351,0.11955 0.72152,0.224897 0.15989,0.100478 0.31166,0.195275 0.61845,0.195275 0.30679,0 0.45856,-0.0948 0.61845,-0.195275 0.168,-0.105347 0.35872,-0.224897 0.72153,-0.224897 0.36278,0 0.55352,0.119469 0.72152,0.224897 0.15988,0.100397 0.31166,0.195275 0.61845,0.195275 0.3076,0 0.45856,-0.0948 0.61844,-0.195275 0.16882,-0.105347 0.35874,-0.224897 0.72234,-0.224897 0.36279,0 0.5527,0.119469 0.72153,0.224897 0.0454,0.02857 0.0901,0.05633 0.13797,0.08198 v 0.214754"
           style="fill:#2f2d2e;fill-opacity:1;fill-rule:nonzero;stroke:none;stroke-width:0.00811614"
           id="path156"
           inkscape:connector-curvature="0" /><path
           d="m 125.54085,60.911999 c -0.0917,-0.03985 -0.16881,-0.08716 -0.24105,-0.132374 -0.1607,-0.100397 -0.31165,-0.195274 -0.61845,-0.195274 -0.3076,0 -0.45856,0.09488 -0.61926,0.195274 -0.16801,0.105429 -0.35873,0.224898 -0.72152,0.224898 -0.36279,0 -0.55352,-0.11955 -0.72153,-0.224898 -0.15988,-0.100478 -0.31085,-0.195274 -0.61844,-0.195274 -0.3068,0 -0.45857,0.09488 -0.61845,0.195274 -0.16801,0.105429 -0.35873,0.224898 -0.72153,0.224898 -0.36279,0 -0.55351,-0.119469 -0.72152,-0.224898 -0.15989,-0.100397 -0.31166,-0.195274 -0.61845,-0.195274 -0.3068,0 -0.45857,0.0948 -0.61845,0.195274 -0.168,0.105429 -0.35874,0.224898 -0.72152,0.224898 -0.36281,0 -0.55353,-0.119469 -0.72153,-0.224898 -0.1607,-0.100397 -0.31166,-0.195274 -0.61845,-0.195274 -0.3076,0 -0.45856,0.09488 -0.61926,0.195274 -0.16801,0.105429 -0.35793,0.224898 -0.72072,0.224898 -0.36359,0 -0.55351,-0.119469 -0.72233,-0.224898 -0.15988,-0.100478 -0.31084,-0.195274 -0.61845,-0.195274 -0.30679,0 -0.45775,0.0948 -0.61845,0.195274 -0.12985,0.08165 -0.27432,0.171088 -0.50157,0.207529 v -0.196491 c 0.17043,-0.03287 0.28244,-0.102344 0.39849,-0.175308 0.16882,-0.105428 0.35873,-0.224898 0.72153,-0.224898 0.3636,0 0.55352,0.11947 0.72153,0.224898 0.16069,0.100397 0.31165,0.195193 0.61925,0.195193 0.3068,0 0.45776,-0.0948 0.61846,-0.195193 0.168,-0.105428 0.35792,-0.224898 0.72152,-0.224898 0.3628,0 0.55352,0.11947 0.72152,0.224898 0.15989,0.100397 0.31086,0.195193 0.61846,0.195193 0.30678,0 0.45856,-0.0948 0.61844,-0.195193 0.16801,-0.105428 0.35874,-0.224898 0.72153,-0.224898 0.36278,0 0.55351,0.11947 0.72152,0.224898 0.15989,0.100397 0.31166,0.195193 0.61845,0.195193 0.30679,0 0.45856,-0.0948 0.61845,-0.195193 0.168,-0.105428 0.35872,-0.224898 0.72153,-0.224898 0.36278,0 0.55352,0.11947 0.72152,0.224898 0.15988,0.100397 0.31166,0.195193 0.61845,0.195193 0.3076,0 0.45856,-0.0948 0.61844,-0.195193 0.16882,-0.105428 0.35874,-0.224898 0.72234,-0.224898 0.36279,0 0.5527,0.11947 0.72153,0.224898 0.0454,0.02857 0.0901,0.0564 0.13797,0.08197 v 0.214672"
           style="fill:#2f2d2e;fill-opacity:1;fill-rule:nonzero;stroke:none;stroke-width:0.00811614"
           id="path158"
           inkscape:connector-curvature="0" /><path
           d="m 124.3007,59.850652 c -0.168,0.105429 -0.35873,0.224899 -0.72152,0.224899 -0.36279,0 -0.55352,-0.11947 -0.72152,-0.224899 -0.1599,-0.100396 -0.31167,-0.195274 -0.61845,-0.195274 -0.3076,0 -0.45857,0.09488 -0.61845,0.195274 -0.16801,0.105429 -0.35873,0.224899 -0.72153,0.224899 -0.36278,0 -0.55352,-0.11947 -0.72153,-0.224899 -0.15988,-0.100396 -0.31165,-0.195274 -0.61843,-0.195274 -0.30761,0 -0.45857,0.09488 -0.61845,0.195274 -0.16801,0.105429 -0.35874,0.224899 -0.72153,0.224899 -0.3636,0 -0.55352,-0.11947 -0.72153,-0.224899 -0.16069,-0.100396 -0.31165,-0.195274 -0.61926,-0.195274 -0.30679,0 -0.45775,0.09488 -0.61845,0.195274 -0.168,0.105429 -0.35873,0.224899 -0.72152,0.224899 -0.36279,0 -0.55352,-0.11947 -0.72152,-0.224899 -0.1599,-0.100396 -0.31085,-0.195274 -0.61846,-0.195274 -0.30678,0 -0.45855,0.09488 -0.61844,0.195274 -0.16801,0.105429 -0.35874,0.224899 -0.72153,0.224899 v -0.193895 c 0.3076,0 0.45857,-0.09488 0.61845,-0.195274 0.168,-0.105429 0.35873,-0.224898 0.72152,-0.224898 0.3628,0 0.55353,0.119469 0.72153,0.224898 0.1607,0.100396 0.31166,0.195274 0.61845,0.195274 0.3076,0 0.45856,-0.09488 0.61844,-0.195274 0.16883,-0.105429 0.35874,-0.224898 0.72153,-0.224898 0.3636,0 0.55352,0.119469 0.72234,0.224898 0.15989,0.100396 0.31085,0.195274 0.61845,0.195274 0.30678,0 0.45775,-0.09488 0.61845,-0.195274 0.168,-0.105429 0.35873,-0.224898 0.72153,-0.224898 0.36279,0 0.55351,0.119469 0.72151,0.224898 0.15989,0.100396 0.31086,0.195274 0.61845,0.195274 0.3068,0 0.45857,-0.09488 0.61845,-0.195274 0.16801,-0.105429 0.35873,-0.224898 0.72153,-0.224898 0.36279,0 0.55352,0.119469 0.72151,0.224898 0.1599,0.100396 0.31167,0.195274 0.61846,0.195274 0.3076,0 0.45856,-0.09488 0.61845,-0.195274 0.168,-0.105429 0.35873,-0.224898 0.72152,-0.224898 0.29462,0 0.4748,0.07849 0.6217,0.164352 V 59.8526 c -9.3e-4,-5.59e-4 -0.002,-0.0013 -0.003,-0.002 -0.15988,-0.100396 -0.31084,-0.195274 -0.61845,-0.195274 -0.30678,0 -0.45775,0.09488 -0.61844,0.195274"
           style="fill:#2f2d2e;fill-opacity:1;fill-rule:nonzero;stroke:none;stroke-width:0.00811614"
           id="path160"
           inkscape:connector-curvature="0" /><path
           d="m 125.54085,61.710465 c -9.3e-4,-5.59e-4 -0.002,-0.0012 -0.003,-0.0019 -0.15988,-0.100397 -0.31084,-0.195275 -0.61845,-0.195275 -0.30678,0 -0.45775,0.09488 -0.61844,0.195275 -0.16802,0.105428 -0.35874,0.224816 -0.72152,0.224816 -0.3628,0 -0.55352,-0.119388 -0.72153,-0.224816 -0.15989,-0.100397 -0.31166,-0.195275 -0.61845,-0.195275 -0.3076,0 -0.45855,0.09488 -0.61845,0.195275 -0.168,0.105428 -0.35873,0.224816 -0.72153,0.224816 -0.36279,0 -0.55352,-0.119388 -0.72151,-0.224816 -0.1599,-0.100397 -0.31167,-0.195275 -0.61845,-0.195275 -0.30762,0 -0.45857,0.09488 -0.61845,0.195275 -0.16801,0.105428 -0.35875,0.224816 -0.72153,0.224816 -0.3636,0 -0.55352,-0.119388 -0.72153,-0.224816 -0.1607,-0.100397 -0.31166,-0.195275 -0.61926,-0.195275 -0.30679,0 -0.45775,0.09488 -0.61845,0.195275 -0.168,0.105428 -0.35873,0.224816 -0.72152,0.224816 -0.36279,0 -0.55352,-0.119388 -0.72152,-0.224816 -0.15989,-0.100397 -0.31085,-0.195275 -0.61846,-0.195275 -0.30679,0 -0.45856,0.09488 -0.61845,0.195275 -0.168,0.105428 -0.35873,0.224816 -0.72151,0.224816 v -0.193812 c 0.30759,0 0.45855,-0.09488 0.61844,-0.195356 0.16801,-0.105347 0.35874,-0.224816 0.72152,-0.224816 0.36279,0 0.55353,0.119469 0.72153,0.224816 0.1607,0.100478 0.31166,0.195356 0.61845,0.195356 0.3076,0 0.45856,-0.09488 0.61845,-0.195356 0.16881,-0.105347 0.35873,-0.224816 0.72152,-0.224816 0.36361,0 0.55352,0.119469 0.72234,0.224816 0.15988,0.100478 0.31084,0.195356 0.61845,0.195356 0.30679,0 0.45774,-0.09488 0.61845,-0.195356 0.168,-0.105347 0.35873,-0.224816 0.72153,-0.224816 0.36278,0 0.55352,0.119469 0.72151,0.224816 0.1599,0.100478 0.31086,0.195356 0.61845,0.195356 0.30679,0 0.45857,-0.09488 0.61845,-0.195356 0.16801,-0.105347 0.35874,-0.224816 0.72153,-0.224816 0.36278,0 0.55352,0.119469 0.72153,0.224816 0.15988,0.100478 0.31165,0.195356 0.61845,0.195356 0.30759,0 0.45856,-0.09488 0.61845,-0.195356 0.16799,-0.105347 0.35872,-0.224816 0.72151,-0.224816 0.29462,0 0.47479,0.07849 0.62169,0.164269 v 0.226765"
           style="fill:#2f2d2e;fill-opacity:1;fill-rule:nonzero;stroke:none;stroke-width:0.00811614"
           id="path162"
           inkscape:connector-curvature="0" /><path
           d="m 125.54085,63.56841 c -9.3e-4,-5.59e-4 -0.002,-0.0013 -0.003,-0.0019 -0.15988,-0.100478 -0.31084,-0.195356 -0.61845,-0.195356 -0.30678,0 -0.45775,0.09488 -0.61844,0.195356 -0.16802,0.105347 -0.35874,0.224817 -0.72152,0.224817 -0.3628,0 -0.55352,-0.11947 -0.72153,-0.224817 -0.15989,-0.100478 -0.31166,-0.195356 -0.61845,-0.195356 -0.3068,0 -0.45855,0.09488 -0.61845,0.195356 -0.168,0.105347 -0.35873,0.224817 -0.72153,0.224817 -0.36279,0 -0.55352,-0.11947 -0.72151,-0.224817 -0.1599,-0.100478 -0.31167,-0.195356 -0.61845,-0.195356 -0.30762,0 -0.45857,0.09488 -0.61845,0.195356 -0.16801,0.105347 -0.35875,0.224817 -0.72153,0.224817 -0.3636,0 -0.55352,-0.11947 -0.72153,-0.224817 -0.1607,-0.100478 -0.31166,-0.195356 -0.61926,-0.195356 -0.30679,0 -0.45775,0.09488 -0.61845,0.195356 -0.168,0.105347 -0.35873,0.224817 -0.72152,0.224817 -0.36279,0 -0.55352,-0.11947 -0.72152,-0.224817 -0.15989,-0.100478 -0.31085,-0.195356 -0.61846,-0.195356 -0.30679,0 -0.45856,0.09488 -0.61845,0.195356 -0.168,0.105347 -0.35873,0.224817 -0.72151,0.224817 v -0.193894 c 0.30759,0 0.45855,-0.09488 0.61844,-0.195275 0.16801,-0.105428 0.35874,-0.224816 0.72152,-0.224816 0.36279,0 0.55353,0.119388 0.72153,0.224816 0.1607,0.100396 0.31166,0.195275 0.61845,0.195275 0.3076,0 0.45856,-0.09488 0.61845,-0.195275 0.16881,-0.105428 0.35873,-0.224816 0.72152,-0.224816 0.36361,0 0.55352,0.119388 0.72234,0.224816 0.15988,0.100396 0.31084,0.195275 0.61845,0.195275 0.30679,0 0.45774,-0.09488 0.61845,-0.195275 0.168,-0.105428 0.35873,-0.224816 0.72153,-0.224816 0.36278,0 0.55352,0.119388 0.72151,0.224816 0.1599,0.100396 0.31086,0.195275 0.61845,0.195275 0.30679,0 0.45857,-0.09488 0.61845,-0.195275 0.16801,-0.105428 0.35874,-0.224816 0.72153,-0.224816 0.36278,0 0.55352,0.119388 0.72153,0.224816 0.15988,0.100396 0.31165,0.195275 0.61845,0.195275 0.30759,0 0.45856,-0.09488 0.61845,-0.195275 0.16799,-0.105428 0.35872,-0.224816 0.72151,-0.224816 0.29462,0 0.47479,0.0784 0.62169,0.16427 v 0.226765"
           style="fill:#2f2d2e;fill-opacity:1;fill-rule:nonzero;stroke:none;stroke-width:0.00811614"
           id="path164"
           inkscape:connector-curvature="0" /><path
           d="m 60.831328,62.494483 1.12189,0.634357 c 0.0012,0.004 0.005,0.0028 0.005,0.0028 0.0151,0.0082 0.03133,0.02029 0.04252,0.02954 0.03872,0.03084 0.0077,0.04009 0.0077,0.04009 -0.01558,0.0046 -0.05121,-0.0018 -0.05121,-0.0018 -0.601654,-0.133998 -0.921426,-0.07288 -1.069464,-0.01631 0.05852,-0.101857 0.08952,-0.225141 0.08026,-0.370259 l -0.0058,-0.0194 -0.130993,-0.298999"
           style="fill:#2f2d2e;fill-opacity:1;fill-rule:nonzero;stroke:none;stroke-width:0.00811614"
           id="path166"
           inkscape:connector-curvature="0" /><g
           id="g46"
           transform="matrix(0.008395,0,0,0.008395,30.312639,48.91132)"><path
             d="m 11986.4,813.583 h 40.6 V 3330.98 h -40.6 z M 3024.64,3371.58 v -40.6 H 11986.4 V 813.583 H 4536.18 v -40.594 l 7488.822,0.73301 0.336,2594.26089"
             style="fill:#2f2d2e;fill-opacity:1;fill-rule:nonzero;stroke:none"
             id="path48"
             inkscape:connector-curvature="0"
             sodipodi:nodetypes="ccccccccccccc" /></g></g></g></g></svg>
