<svg id="Layer_1" xmlns="http://www.w3.org/2000/svg" viewBox="0 0 300 144.3"><style>.st0{fill-rule:evenodd;clip-rule:evenodd;fill:#D43127;}</style><path d="M0 51.3c51.3-64.8 139.6-61 166.9-27.2-16.3-10.8-40.3-19-59.1-16.3 29.6 3.7 39 17.4 43.6 23.8-10.3-7.3-36.4-23.2-63-18.4 18.6 2.3 40.1 11.1 48.9 26.7-15-11.1-40.2-25.3-64-19.8 20.6 2.8 41.2 11.6 50.5 28.6C107.2 37.1 47.2 12.9 0 51.3M300 34.7c-51.3 65-141.7 60.6-169 26.7 16.3 10.8 47 23.1 65.5 19-29.2-5-45.6-20-50-26.5 10.1 7.3 36.7 23.9 63.3 19.1-18.7-2.3-40.4-11.8-49.3-27.4 15 11.1 40.7 25.9 64.6 20.6-20.6-2.9-41.7-12.4-51.1-29.4 16.8 11.6 78.9 36.4 126-2.1"/><path class="st0" d="M248.7 0l.9 6c-20.3.1-39.8 3.3-58.4 9.5-15.6 5.2-33 13.6-52.3 25.1-24.2 14.8-41 24.2-50.1 28.5C69 78.4 49 83.8 28.7 85c23.3 1 45.5-2 66.8-9 15.7-5.2 33.3-13.7 52.9-25.5 21.4-12.7 38-21.6 49.7-26.8 16.8-7.3 34-12.7 51.7-16.3l.9 6 19.1-9.7L248.7 0z"/><path d="M31.5 101.2h5.2l6 29.7 5.9-29.7h4.9l3.7 42.8h-5.3l-1.7-30-5.8 30h-3.9l-5.6-30-1.8 30h-5.2zM71.3 101.2h5.9V144h-5.9zM97.2 144h-5.8v-42.8h7c3.9 0 7 .7 9.3 2.2 2.3 1.5 3.5 4.4 3.5 8.8 0 3-.6 5.4-1.7 7.3-1.2 1.9-3.3 3-6.3 3.5l10.2 21.1h-6.3l-9.7-20.8h-.1V144zm0-24.1c2.4 0 4.3-.3 5.9-1 1.5-.7 2.3-2.5 2.3-5.4v-.8c0-3-.6-4.8-2-5.4-1.3-.6-3.4-.9-6.2-.9v13.5zM133.5 101.2h5.4l9.9 42.8h-5.7l-2.2-8.5h-9.7l-2 8.5h-5.8l10.1-42.8zm2.8 11.1l-3.9 18.5h7.8l-3.9-18.5zM163.5 101.2h5.4l11.4 29.7v-29.7h5.3V144h-5.3L169 114v30h-5.5zM206.8 106.5H199v-5.3h21.6v5.3h-7.9V144h-5.9zM232.3 101.2h5.9V144h-5.9zM251.8 136.8c.2.1.4.2.5.2.6.4 1.3.7 2 1 .7.3 1.4.6 2.2.8.4.1.8.1 1.2.2.4.1.8.1 1.2.1h.6c.9-.1 1.7-.4 2.5-.9s1.4-1.3 1.8-2.3c.1-.2.2-.4.3-.7.1-.2.1-.5.2-.7v-.7-.6c0-1.5-.5-2.9-1.5-4.2-1-1.3-2.2-2.5-3.4-3.6-.4-.3-.8-.7-1.2-1-.4-.3-.8-.6-1.2-1-1.4-1.2-2.7-2.6-3.9-4-1.2-1.5-1.9-3.2-2.3-5.2 0-.2 0-.3-.1-.5s-.1-.3-.1-.5c-.1 0-.1 0-.1-.1v-.1c0-.2-.1-.4-.1-.6v-.6c0-1.6.3-3.2 1-4.6.7-1.5 1.6-2.8 2.8-3.9.9-.8 1.8-1.4 2.9-1.8 1.1-.4 2.1-.6 3.2-.7h.8c.6 0 1.1 0 1.7.1l1.8.3c.7.2 1.4.4 2 .6.7.2 1.3.5 2 .8v5.7c-.1 0-.2-.1-.3-.2-.1-.1-.2-.1-.3-.2-.6-.3-1.2-.6-1.9-.9-.7-.3-1.3-.5-2-.7-.4-.1-.8-.2-1.2-.2-.4-.1-.8-.1-1.2-.1h-.4c-.9.1-1.7.3-2.6.7-.8.4-1.5 1.1-2 2.1l-.3.9c-.1.3-.2.7-.2 1v2c0 .3.1.7.2 1l.3.9c.7 1.3 1.6 2.5 2.7 3.5s2.2 1.9 3.4 2.9c1.3 1 2.6 2.1 3.8 3.3 1.2 1.1 2.1 2.5 2.8 4.1.2.4.3.8.4 1.3.1.5.1 1 .2 1.5v2.3c0 .3-.1.6-.1.9-.1.7-.2 1.5-.4 2.2-.2.7-.4 1.4-.8 2-1 2-2.3 3.3-4.1 4.2-1.7.8-3.6 1.2-5.5 1.2-.4 0-.8 0-1.2-.1-.4 0-.8-.1-1.3-.1-.9-.1-1.8-.3-2.7-.6-.9-.3-1.8-.7-2.5-1v-5.9c0 .3.2.4.4.5"/></svg>