<svg xmlns="http://www.w3.org/2000/svg" width="117.39" height="60" viewBox="0 0 117.39 60"><path fill="#FFA800" d="M51.41 26.16L38.42 3.705c-1.363-2.36-3.83-3.68-6.373-3.697l-.16-.003-.162.003c-2.543.018-5.01 1.337-6.375 3.697L12.363 26.16c-2.05 3.546-.84 8.084 2.707 10.135l.285.165c3.546 2.05 8.084.84 10.135-2.708l6.396-11.06 6.396 11.06c2.05 3.546 6.588 4.758 10.135 2.708l.285-.165c3.546-2.05 4.758-6.588 2.707-10.135z"/><path fill="#E60000" d="M102.29 1.17l-.285-.166C98.46-1.046 93.92.164 91.87 3.712L85.474 14.77 79.08 3.712C77.027.166 72.49-1.046 68.943 1.004l-.285.165c-3.548 2.05-4.76 6.58-2.71 10.13L78.94 33.76c1.365 2.36 3.832 3.678 6.375 3.696l.16.003.162-.01c2.543-.02 5.01-1.34 6.375-3.7L105 11.302c2.05-3.546.84-8.084-2.708-10.135z"/><path fill="#F35700" d="M58.61 33.752c2.05 3.546 6.59 4.758 10.135 2.708l.285-.165c3.546-2.05 4.758-6.588 2.707-10.135L58.75 3.705C56.7.16 52.16-1.055 48.615.997l-.285.166c-3.546 2.05-4.758 6.588-2.707 10.135L58.61 33.752z"/><path d="M0 48.17c0-.366.314-.558 1.047-.558h.925c.506 0 .907.122 1.1.47l3.07 5.462 3.106-5.46c.192-.35.593-.472 1.1-.472h.906c.733 0 1.047.192 1.047.558v11.167c0 .366-.31.558-1.04.558h-.503c-.733 0-1.047-.192-1.047-.558v-7.224l-.07-.017-2.53 4.52c-.157.208-.366.33-.698.33H5.9c-.333 0-.54-.12-.7-.33l-2.53-4.52-.07.017v7.224c0 .366-.313.558-1.046.558h-.506c-.733 0-1.047-.192-1.047-.558V48.17zm18.477 2.425c2.774 0 4.222 1.658 4.222 4.694S21.25 60 18.47 60s-4.24-1.675-4.24-4.71c0-3.037 1.466-4.695 4.24-4.695zm1.606 4.694c0-1.75-.49-2.66-1.605-2.66-1.117 0-1.623.905-1.623 2.65s.506 2.67 1.623 2.67c1.116 0 1.605-.925 1.605-2.67zm4.5-8.03c0-.37.315-.56 1.048-.56h.49c.74 0 1.05.19 1.05.56v3.87c.37-.26.96-.54 1.78-.54 2.36 0 3.68 1.85 3.68 4.69 0 3.036-1.38 4.71-3.26 4.71-1.08 0-1.933-.557-2.34-1.31l-.17.75c-.086.386-.453.456-1.01.456h-.21c-.733 0-1.047-.19-1.047-.558V47.26zm4.014 10.62c.96 0 1.413-.908 1.413-2.6 0-1.746-.523-2.653-1.623-2.653-.54 0-.942.174-1.22.33v3.892c.314.54.767 1.03 1.43 1.03zm5.793-9.214v-1.41c0-.366.314-.558 1.047-.558h.49c.732 0 1.046.19 1.046.557v1.418c0 .366-.314.558-1.047.558h-.49c-.732 0-1.046-.19-1.046-.557zm0 2.582c0-.367.314-.56 1.047-.56h.49c.732 0 1.046.193 1.046.56v8.08c0 .364-.314.556-1.047.556h-.49c-.732 0-1.046-.19-1.046-.558v-8.08zm4.693-3.996c0-.366.314-.558 1.047-.558h.49c.732 0 1.046.19 1.046.557v9.95c0 .524.175.75.628.75l.47-.07c.35 0 .542 1.118.542 1.257 0 .805-1.134.857-1.675.857-1.64 0-2.54-.89-2.54-2.828v-9.91zm9.056 3.332c2.73 0 3.76 2.075 3.76 4.5 0 .298-.664 1.03-.89 1.03h-4.45c.122 1.396.872 1.83 2.01 1.83 1.1 0 1.865-.54 2.11-.54.383 0 .91.978.91 1.327 0 .875-2.167 1.26-3.14 1.26-3.16 0-4.558-1.833-4.558-4.64 0-3.44 1.744-4.765 4.24-4.765zm1.25 3.803c0-1.014-.388-1.764-1.26-1.764-.734 0-1.36.42-1.57 1.764h2.825zm7.33-6.074c-.04-.103-.04-.19-.04-.26 0-.28.33-.453 1.082-.453h.453c.68 0 1.083.176 1.17.542l1.31 5.62c.14.59.33 1.532.54 2.51.156-.977.435-1.92.592-2.513l1.43-5.795c.07-.28.4-.367.96-.367h.663c.56 0 .89.09.96.37l1.38 5.793c.157.663.384 1.66.593 2.635.227-.96.436-1.973.593-2.636l1.36-5.618c.09-.366.49-.54 1.17-.54h.194c.75 0 1.083.174 1.083.453l-.035.26-2.84 11.2c-.07.24-.47.363-.96.363h-1.274c-.49 0-.907-.124-.96-.368l-1.71-7.227-1.78 7.224c-.07.243-.47.365-.96.365H60.44c-.558 0-.907-.122-.96-.366l-2.757-11.2zm21.16 5.88v-.574c0-.663-.4-.994-1.36-.994-1.275 0-2.025.557-2.234.557-.366 0-.907-1.03-.907-1.394 0-.595 1.396-1.206 3.332-1.206 2.756 0 3.75 1.22 3.75 2.914v3.28c0 1.796.21 2.163.21 2.53 0 .418-1.52.557-1.955.557-.556 0-.59-.73-.696-1.2-.12.224-.96 1.323-2.563 1.323-1.884 0-2.58-1.117-2.58-2.547 0-1.43.574-3.246 5.006-3.246zm-1.57 3.75c.663 0 1.29-.47 1.57-1.096v-.96c-1.658 0-2.443.455-2.443 1.29 0 .438.297.77.873.77zm6.42-4.15c0-1.744-.21-2.11-.21-2.46 0-.42 1.52-.56 1.955-.56.56 0 .594.7.7 1.137.366-.665.89-1.328 1.902-1.328.854 0 .994.59.994.94 0 .33-.19 1.466-.54 1.466-.244 0-.47-.14-.82-.14-.715 0-1.187.525-1.396.874v5.6c0 .366-.31.56-1.043.56h-.49c-.73 0-1.045-.194-1.045-.56V53.8zm6.77 3.665c.227 0 .89.49 1.71.49.733 0 1.064-.262 1.064-.785 0-1.535-3.49-.628-3.49-3.75 0-1.746 1.24-2.828 3.21-2.828.577 0 2.583.122 2.583 1.1 0 .226-.4 1.29-.75 1.29-.175 0-.698-.366-1.483-.366-.59 0-.94.192-.94.63 0 1.272 3.49.61 3.49 3.714 0 1.836-1.31 3.04-3.26 3.04-1.518 0-3.053-.4-3.053-1.24 0-.35.56-1.29.925-1.29zm11.48-3.262v-.576c0-.662-.4-.993-1.36-.993-1.274 0-2.024.56-2.233.56-.366 0-.907-1.03-.907-1.398 0-.595 1.397-1.206 3.333-1.206 2.756 0 3.75 1.22 3.75 2.916v3.28c0 1.796.21 2.163.21 2.53 0 .418-1.52.557-1.955.557-.556 0-.59-.73-.696-1.202-.122.224-.96 1.323-2.565 1.323-1.887 0-2.585-1.115-2.585-2.545.002-1.43.577-3.245 5.01-3.245zm-1.57 3.75c.664 0 1.292-.47 1.57-1.098v-.96c-1.657 0-2.44.454-2.44 1.29 0 .437.296.768.872.768zm5.69-6.54c-.036-.106-.036-.19-.036-.26 0-.28.332-.457 1.082-.457h.42c.487 0 .89.12.96.365l1.376 5.377 1.326-5.375c.05-.24.4-.363.96-.363h.42c.487 0 .905.12.96.364l1.29 5.375 1.412-5.376c.07-.246.4-.368.96-.368h.07c.75 0 1.08.173 1.08.452l-.034.262-2.06 8.113c-.07.247-.47.37-.96.37h-.854c-.558 0-.89-.12-.96-.366l-1.256-4.9-1.185 4.902c-.05.244-.47.366-.96.366h-.85c-.576 0-.89-.12-.96-.364l-2.2-8.112z"/></svg>