<svg id="Layer_1" xmlns="http://www.w3.org/2000/svg" viewBox="0 0 300 108.2"><style>.st0{fill:#F7912E;} .st1{fill:#4F5253;}</style><path class="st0" d="M0 6c0-2.2 1.8-4.1 4.1-4.1h12.7c2.2 0 5.8.4 8 .9 0 0 3.3.7 5.7 4.3L60.7 54c1.2 1.9 3.1 5 4.3 6.9 0 0 6.1 10.3 11.6 23.7-2.8-14.3-3.6-21-3.6-29.5V6c0-2.2 1.8-4.1 4.1-4.1h14.8c2.2 0 4 1.8 4 4.1v98.1c0 2.2-1.8 4.1-4 4.1H79.1c-2.2 0-5.8-.4-8-.9 0 0-3.3-.7-5.7-4.3L35.2 56.1c-1.2-1.9-3.1-5-4.3-6.9 0 0-6.1-10.3-11.6-23.7 2.7 14.3 3.6 21 3.6 29.3v49.4c0 2.2-1.8 4.1-4.1 4.1H4.1c-2.2 0-4.1-1.8-4.1-4.1V6z"/><path class="st1" d="M109.1 58.7c0-2.2 1.8-4.1 4.1-4.1h38.4c2.2 0 4 1.8 4 4.1V69c0 2.2-1.8 4.1-4 4.1h-38.4c-2.2 0-4.1-1.8-4.1-4.1V58.7zM168 39.3c0-2.2 1.8-4.1 4.1-4.1h14.8c2.2 0 4.1 1.8 4.1 4.1v64.8c0 2.2-1.8 4.1-4.1 4.1H172c-2.2 0-4.1-1.8-4.1-4.1V39.3zm22.8-27.9c0 6.3-5.1 11.4-11.4 11.4-6.3 0-11.4-5.1-11.4-11.4C168 5.1 173.1 0 179.4 0c6.3 0 11.4 5.1 11.4 11.4M197.3 108.2c7.6-13.4 18.6-31.3 28.4-46l2.2-3.3c1.2-1.9 2.6-3.9 3-4.6.4-.7.4-1.7 0-2.4s-1.8-2.7-3-4.5c0 0-5.4-8-8.3-12.4-4.9-7.4-11.3-17.7-14.6-23.4l-2-3.5c-1.1-1.9-2.4-4.1-2.8-4.9-.4-.7 1-1.3 3.2-1.3h21c2.2 0 4.4.6 4.8 1.4.4.8 1.6 3 2.7 5 0 0 10.6 16.4 19.3 29 4.2 6 15.7 21 16.9 22.9 0 0 11.5 15.9 17.5 25.4 3.9 6.2 8.1 11.8 10.9 16.7 1 1.8 1.8 3 3.4 5.8h-25.5c-2.2 0-4.9-1.6-5.9-3.6 0 0-3.8-7.1-8.2-15-5.6-10-8.2-14.6-12.8-21.9l-.8 1.3c-1.1 1.9-3 5.1-4.1 7 0 0-11 19.1-16.4 29.2-.8 1.6-3.3 3-5.5 3h-23.4zM254.7 31s8.6-14.5 15-26.3c.8-1.6 3.3-2.8 5.5-2.8h18.6c2.2 0 3.7.6 3.2 1.3-.4.7-1.8 2.9-2.9 4.8l-21.3 33.6-4.5 7.4-13.6-18"/></svg>