<svg id="Layer_1" xmlns="http://www.w3.org/2000/svg" viewBox="0 0 600 152.5"><style>.st0{fill:#4B4B4B;} .st1{fill:#144065;} .st2{fill:#B91F3E;} .st3{fill:#0D4E74;} .st4{fill:#137772;} .st5{fill:#25887D;} .st6{fill:#941F35;} .st7{fill:#E66B25;} .st8{fill:#CF4F27;} .st9{fill:#C34528;} .st10{fill:#F19822;} .st11{fill:#D57428;} .st12{fill:#9DAB39;} .st13{fill:#6D943E;} .st14{fill:#4B4B4B;stroke:#FFFFFF;stroke-width:0.25;stroke-miterlimit:10;}</style><path class="st0" d="M185.9 129.8h-9.7v-17.1h9.7v2.4H179v4.7h6.5v2.3H179v5.4h6.9v2.3zM206.2 129.8l-5-14.3h-.1c.1 2.1.2 4.1.2 6v8.3h-2.5v-17.1h3.9l4.8 13.6h.1l4.9-13.6h4v17.1h-2.7v-8.5c0-.9 0-2 .1-3.3s.1-2.2.1-2.5h-.1l-5.1 14.3h-2.6zM241.5 117.8c0 1.8-.6 3.2-1.8 4.1s-2.8 1.4-5 1.4H233v6.4h-2.8v-17.1h4.9c2.1 0 3.7.4 4.8 1.3s1.6 2.2 1.6 3.9zM233 121h1.5c1.4 0 2.5-.2 3.2-.8s1-1.3 1-2.3c0-1-.3-1.7-.9-2.2s-1.5-.7-2.8-.7h-2v6zM269.4 121.2c0 2.8-.7 5-2.1 6.5s-3.4 2.3-5.9 2.3c-2.6 0-4.6-.8-6-2.3-1.4-1.5-2.1-3.7-2.1-6.5s.7-5 2.1-6.5c1.4-1.5 3.4-2.3 6-2.3 2.5 0 4.5.8 5.9 2.3s2.1 3.7 2.1 6.5zm-13.1 0c0 2.1.4 3.7 1.3 4.8s2.1 1.6 3.8 1.6c1.7 0 2.9-.5 3.8-1.6s1.3-2.7 1.3-4.8c0-2.1-.4-3.7-1.3-4.8s-2.1-1.6-3.8-1.6c-1.7 0-2.9.5-3.8 1.6s-1.3 2.7-1.3 4.8zM298.1 129.8h-3l-2.9-10.2c-.1-.4-.3-1.1-.5-1.9s-.3-1.4-.3-1.8c-.1.5-.2 1.1-.4 1.9s-.3 1.4-.4 1.8l-2.8 10.2h-3l-2.2-8.6-2.2-8.6h2.9l2.4 10c.4 1.6.7 3 .8 4.2.1-.7.2-1.4.4-2.2s.3-1.5.5-2l2.8-10h2.8l2.9 10.1c.3.9.6 2.3.9 4.2.1-1.1.4-2.5.8-4.3l2.4-10h2.8l-4.7 17.2zM324 129.8h-9.7v-17.1h9.7v2.4h-6.9v4.7h6.5v2.3h-6.5v5.4h6.9v2.3zM339.7 123v6.8h-2.8v-17.1h4.8c2.2 0 3.8.4 4.9 1.2s1.6 2.1 1.6 3.8c0 2.1-1.1 3.7-3.3 4.6l4.8 7.6h-3.2l-4.1-6.8h-2.7zm0-2.4h1.9c1.3 0 2.2-.2 2.8-.7s.9-1.2.9-2.2c0-1-.3-1.7-.9-2.1s-1.6-.6-2.9-.6h-1.9v5.6zM381.8 120.5l4.1-7.8h3l-5.7 10.5v6.6h-2.8v-6.6l-5.7-10.6h3l4.1 7.9zM415.6 121.2c0 2.8-.7 5-2.1 6.5s-3.4 2.3-5.9 2.3c-2.6 0-4.6-.8-6-2.3s-2.1-3.7-2.1-6.5.7-5 2.1-6.5 3.4-2.3 6-2.3c2.5 0 4.5.8 5.9 2.3s2.1 3.7 2.1 6.5zm-13.1 0c0 2.1.4 3.7 1.3 4.8s2.1 1.6 3.8 1.6c1.7 0 2.9-.5 3.8-1.6s1.3-2.7 1.3-4.8c0-2.1-.4-3.7-1.3-4.8s-2.1-1.6-3.8-1.6c-1.7 0-2.9.5-3.8 1.6s-1.3 2.7-1.3 4.8zM442 112.7v11.1c0 1.3-.3 2.4-.8 3.3s-1.3 1.7-2.4 2.2-2.3.8-3.7.8c-2.1 0-3.8-.6-5-1.7s-1.8-2.7-1.8-4.6v-11h2.8v10.8c0 1.4.3 2.5 1 3.1s1.7 1 3 1c2.6 0 4-1.4 4-4.2v-10.8h2.9zM458.4 123v6.8h-2.8v-17.1h4.8c2.2 0 3.8.4 4.9 1.2s1.6 2.1 1.6 3.8c0 2.1-1.1 3.7-3.3 4.6l4.8 7.6h-3.2l-4.1-6.8h-2.7zm0-2.4h1.9c1.3 0 2.2-.2 2.8-.7s.9-1.2.9-2.2c0-1-.3-1.7-.9-2.1s-1.6-.6-2.9-.6h-1.9v5.6zM495.6 129.8v-17.1h2.8v17.1h-2.8zM526.1 121.1c0 2.8-.8 5-2.4 6.5s-3.8 2.2-6.8 2.2h-4.8v-17.1h5.3c2.7 0 4.8.7 6.4 2.2s2.3 3.5 2.3 6.2zm-2.9.1c0-4.1-1.9-6.2-5.8-6.2H515v12.4h2c4.1 0 6.2-2 6.2-6.2zM548.7 129.8H539v-17.1h9.7v2.4h-6.9v4.7h6.5v2.3h-6.5v5.4h6.9v2.3zM572.3 129.8l-1.7-4.8H564l-1.7 4.8h-3l6.4-17.2h3l6.4 17.2h-2.8zm-2.4-7.2l-1.6-4.7c-.1-.3-.3-.8-.5-1.5s-.3-1.2-.4-1.5c-.2 1-.5 2-.9 3.2l-1.5 4.5h4.9zM596.7 125.1c0 1.5-.6 2.7-1.7 3.6s-2.6 1.3-4.6 1.3-3.5-.3-4.8-.9v-2.6c.8.4 1.6.7 2.5.9s1.7.3 2.5.3c1.1 0 1.9-.2 2.5-.6s.8-1 .8-1.7c0-.6-.2-1.2-.7-1.6s-1.5-1-3-1.6c-1.6-.6-2.7-1.4-3.3-2.2s-1-1.8-1-2.9c0-1.4.5-2.6 1.5-3.4s2.4-1.2 4.1-1.2c1.6 0 3.3.4 4.9 1.1l-.9 2.3c-1.5-.6-2.9-1-4.1-1-.9 0-1.6.2-2.1.6s-.7.9-.7 1.6c0 .4.1.8.3 1.1s.5.6.9.9 1.2.7 2.3 1.1c1.3.5 2.2 1 2.8 1.5s1 1 1.3 1.5.5 1.2.5 1.9z"/><g id="perfectial_logo_2_"><path class="st1" d="M41.5 35.5c-1.7 1.3-3.8 2.8-5.1 4.1 1.9-1.5 3.6-2.9 5.1-4.1z"/><path class="st2" d="M36.4 39.6c-2-6.2-.2-14.1-1.6-17.9-1.6-4.3-6.3-4.3-8.1-8.3C14.3 22.1 9.5 25.7 1.5 31.8 7.1 38.4 7.4 47.2 15 54.9c19.7 19.7 25.5 17 31.9 23.7-4.3-17.8-6.6-26.1-10.5-39z"/><path class="st1" d="M41.4 2.8c-3.4 2.7-3.9 3-14.6 10.5 3.8 8.5 5.8 14.3 9.6 26.2 4.5-13.3 13.4-17.5 14.1-22 .5-5.3-6.7-11-9.1-14.7z"/><path class="st3" d="M41.4 2.8c2.4 3.7 1.9 7.9 1.4 13.2-1.2 7.7-3.6 15-6.4 23.5C54.7 25 54.7 25 60.7 19.9c2.2-1.9 7.9-3 9.2-4.3 3.3-3.2.2-5.2.9-7.1C58.7 5 48.3 3.7 41.4 2.8z"/><path class="st4" d="M70.8 8.5s.1 0 0 0c-1.7 4-4.9 6.8-10.1 11.4 11.8-1.3 24.9 2.6 25.4 2.6 6.5.2 8.9-3.1 11-2.4-9.5-6.2-18.8-9.2-26.3-11.6z"/><path class="st5" d="M97.1 20.1c-2.5-.9-6.5-1.7-11.9-1.7-6.3-.1-19.7.9-24.5 1.5 9.4 2.4 22.3 5.7 35.4 11.8 6.7 3.1 11 8 14.7 10.7 4.3 3.1 7.7 4 10.2 6.4-8.5-14.6-13.6-19.7-23.9-28.7z"/><path class="st6" d="M20.8 52.2C9 40.5 6.5 37.5 1.5 31.8c.2 12.5.9 19.9 2.8 34.5C13.7 68.9 18 76 22.7 77.4c9 2.6 14.3-1.8 24.2 1.2-7.3-7.7-12.4-12.8-26.1-26.4z"/><path class="st7" d="M46.9 78.5c-12.5-3.9-22.6-6.7-42.6-12.3 2.6 17.2 4.4 26.3 8.4 43.3 16.6-3.8 29.7 3.3 42.9.6 17.1-3.6 25.7-15 33.9-16.5C72.7 86.7 54.6 81 46.9 78.5z"/><path class="st8" d="M51.8 101c-.1 0 .1 0 0 0-17 3.6-26.1 5.6-39.1 8.5 8.7 2.7 10.1 10.9 18.7 13.5 5.7 1.7 18.7-2.1 24.3-.3 8.3-7 20.8-7.5 25.1-11.2 5.7-4.9 2.5-12.4 8.6-17.9-15.1 2.8-24.3 4.7-37.6 7.4z"/><path class="st9" d="M24.6 149.7c-4.7-13.7-7.4-22.3-11.9-40.2 14.4 4.4 28.8 8.7 43.1 13.2-11.9 10-22.1 18.6-31.2 27z"/><path class="st10" d="M89.5 93.6c-10.2 9.2-20.6 18-33.7 29.1 20.4 6.5 28.6 9.8 35.9 12.8 8.7-16.4 14.9-22.4 18.7-32.6 5.3-14.9 2.8-26.9 3.6-35.5-7 10-16.3 18.6-24.5 26.2z"/><path class="st11" d="M121.5 86.4c-1-7.4-5.3-11.5-7.5-18.9-1.3 15.3-3.6 23.3-7.1 34.1-3.1 8.6-8.7 21.8-15.2 33.9 15.4-12.6 20.8-18.1 27.8-25.7.4-5.7 3-15.5 2-23.4z"/><path class="st12" d="M133.2 87.2c-3.5-13.9-6.4-22-11.8-30.6-8.4-12.2-17.5-18.1-25.3-24.9 9.8 14 12.8 21.3 17.8 35.8 1.9 5.9 3.5 14 3.9 16.9.8 5.7 2.1 14.5 1.6 25.5 9.8-11.3 12.3-18.4 13.8-22.7z"/><path class="st13" d="M121.1 48.8c-.1 0 0 0 0 0-7.9-8.5-19-14.5-24.9-17.1 13.6 11.8 17.6 17.4 23.5 25.4 9 14.1 10.9 20.8 13.6 30-2.7-18-5.6-25.1-12.2-38.3z"/><g><path class="st0" d="M188.8 60h16c3.4 0 6.1-1 8.1-3s3-4.6 3-7.9c0-3.3-1-5.9-3-7.9s-4.7-3-8.1-3h-16V60zm18.6-32.3c3.4 0 6.3.6 8.8 1.9s4.6 2.9 6.2 5c1.6 2 2.8 4.3 3.7 6.9.8 2.5 1.2 5.1 1.2 7.6s-.5 5-1.4 7.6c-.9 2.5-2.2 4.8-4 6.9-1.7 2.1-3.8 3.7-6.3 5s-5.3 1.9-8.5 1.9h-18.4v27.2h-11.6v-70h30.3zM266 66.8c0-3.5-1-6.1-2.9-7.7-2-1.6-4.3-2.4-7-2.4s-5.1.8-7.1 2.5-3 4.1-3 7.5v1.6h20v-1.5zm-20.1 9.3v2.5c0 1.8.3 3.3.9 4.5.6 1.3 1.4 2.3 2.4 3 1 .8 2.1 1.4 3.5 1.7 1.3.4 2.7.6 4.1.6 1.6 0 3.4-.3 5.6-.8s4.4-1.8 6.6-3.8c1.1 1.3 2.1 2.5 3.2 3.7 1 1.2 2.1 2.4 3.1 3.7-2.8 2.8-5.8 4.6-9 5.5-3.1.9-6.3 1.4-9.5 1.4-2.9 0-5.7-.4-8.3-1.1s-4.9-1.9-6.9-3.4-3.6-3.4-4.7-5.7c-1.2-2.3-1.7-5-1.7-8.1V66.6c0-3 .5-5.8 1.6-8.2 1-2.4 2.5-4.5 4.4-6.2s4.1-3 6.6-3.9 5.2-1.4 8.2-1.4 5.8.4 8.4 1.3c2.6.9 4.8 2.1 6.6 3.8 1.9 1.7 3.3 3.7 4.3 6 1 2.4 1.5 5.1 1.5 8.1V76h-30.9v.1zM316.9 58c-4.5.4-8.2 1.2-11.1 2.2-2.9 1.1-5.4 2.2-7.4 3.5v34h-10.8V47.3h9.7l.9 7.4h.1c.9-.9 2-1.8 3.4-2.7s2.9-1.8 4.6-2.6 3.4-1.4 5.2-1.9c1.8-.5 3.6-.8 5.3-.8l.1 11.3zM340.8 56.6v41.1h-10.6V56.6h-6v-9.1h6v-8.8c0-2.3.4-4.3 1.1-6.1.7-1.7 1.7-3.2 3-4.3 1.3-1.2 2.7-2 4.4-2.6 1.7-.5 3.5-.8 5.5-.8h8.9v9.3h-7.4c-2 0-3.3.5-4 1.6s-1 2.4-1 4.1v7.5h12.4v9.1l-12.3.1zM391.3 66.8c0-3.5-1-6.1-2.9-7.7-2-1.6-4.3-2.4-7-2.4s-5.1.8-7.1 2.5-3 4.1-3 7.5v1.6h20v-1.5zm-20.1 9.3v2.5c0 1.8.3 3.3.9 4.5.6 1.3 1.4 2.3 2.4 3 1 .8 2.1 1.4 3.5 1.7 1.3.4 2.7.6 4.1.6 1.6 0 3.4-.3 5.6-.8s4.4-1.8 6.6-3.8c1.1 1.3 2.1 2.5 3.2 3.7 1 1.2 2.1 2.4 3.1 3.7-2.8 2.8-5.8 4.6-9 5.5-3.1.9-6.3 1.4-9.5 1.4-2.9 0-5.7-.4-8.3-1.1-2.6-.7-4.9-1.9-6.9-3.4s-3.6-3.4-4.7-5.7c-1.2-2.3-1.7-5-1.7-8.1V66.6c0-3 .5-5.8 1.6-8.2 1-2.4 2.5-4.5 4.4-6.2s4.1-3 6.6-3.9 5.2-1.4 8.2-1.4 5.8.4 8.4 1.3c2.6.9 4.8 2.1 6.6 3.8 1.9 1.7 3.3 3.7 4.3 6 1 2.4 1.5 5.1 1.5 8.1V76h-30.9v.1zM450.3 91.4c-2.7 2.8-5.6 4.6-8.6 5.5s-6.1 1.3-9.1 1.3c-2.8 0-5.5-.4-8-1.2-2.5-.8-4.7-2-6.5-3.6s-3.3-3.4-4.3-5.6c-1.1-2.2-1.6-4.7-1.6-7.6V65.3c0-3 .6-5.6 1.7-7.9 1.1-2.3 2.7-4.2 4.6-5.8s4.1-2.7 6.5-3.6c2.4-.8 4.9-1.2 7.5-1.2 1.5 0 3 .1 4.6.3s3.1.5 4.6.9 3 1.1 4.5 1.9c1.5.8 2.9 2 4.2 3.4l-6.3 8c-2.3-2.1-4.3-3.4-6.1-3.9-1.8-.5-3.4-.7-4.7-.7-1.2 0-2.3.2-3.6.6-1.2.4-2.3 1-3.3 1.8s-1.8 1.9-2.4 3.2-1 2.9-1 4.8v10.8c0 1.9.3 3.5.9 4.8s1.3 2.4 2.3 3.2c.9.8 2 1.4 3.3 1.8 1.2.4 2.5.6 3.8.6 1.4 0 3.1-.3 5.2-1 2-.6 3.9-1.7 5.5-3.3l6.3 7.4zM458.4 56.6v-9.1h6.9l2.2-12.1h8.4v12.1H489v9.1h-13.1v22.7c0 3.2.4 5.5 1.3 6.9s2.8 2.1 5.7 2.1c.9 0 2-.1 3.5-.3 1.4-.2 2.9-.5 4.4-1l2.1 9.4c-2 .7-4.2 1.2-6.4 1.4-2.3.2-4.1.3-5.4.3-3 0-5.5-.4-7.5-1.2-2-.8-3.6-1.9-4.9-3.4-1.2-1.5-2.1-3.3-2.7-5.4-.5-2.1-.8-4.6-.8-7.3V56.6h-6.8zM502.5 47.4h10.8v50.3h-10.8V47.4zm-.8-14.4c0-1.8.6-3.2 1.8-4.4 1.2-1.2 2.6-1.8 4.3-1.8 1.8 0 3.2.6 4.4 1.8 1.2 1.2 1.8 2.7 1.8 4.4 0 1.8-.6 3.2-1.8 4.4s-2.7 1.8-4.4 1.8c-1.7 0-3.1-.6-4.3-1.8-1.2-1.1-1.8-2.6-1.8-4.4zM556.8 76.2h-12.1c-1 0-1.9.1-2.9.2s-2 .4-2.8.9c-.8.4-1.6 1.1-2.1 1.9-.6.8-.9 1.9-.9 3.4 0 1.9.7 3.4 2 4.4 1.4 1 3.1 1.6 5.4 1.6 1.2 0 2.4-.2 3.7-.5 1.2-.3 2.4-.7 3.6-1.1 1.2-.4 2.3-.9 3.4-1.5 1-.5 2-1 2.8-1.5v-7.8h-.1zm-.2 16.9c-3.6 2-6.6 3.4-9.1 4s-4.8 1-6.9 1c-5 0-8.9-1.4-11.8-4.1-2.8-2.7-4.3-6.4-4.3-11.2 0-2.8.6-5.1 1.8-7s2.7-3.4 4.6-4.6c1.8-1.2 3.8-2 5.9-2.6 2.1-.5 4.1-.8 5.9-.8h13.9v-3c0-3-.8-5.1-2.5-6.4-1.7-1.3-4.3-1.9-7.8-1.9-1.7 0-3.8.3-6.2.8-2.5.5-5 1.8-7.5 3.8l-5-8c3.4-2.6 6.8-4.2 10.2-5s6.6-1.2 9.5-1.2c6.9 0 12 1.5 15.2 4.6 3.2 3 4.9 7.7 4.9 13.9v32.4h-9.7l-.9-4.4-.2-.3zM591.1 83c0 2.4.5 4 1.5 4.6s2.9.9 5.7.9l.2 9.3c-1 .2-2 .3-2.9.4s-1.8.1-2.6.1c-2.7 0-4.9-.3-6.5-1-1.6-.6-2.9-1.6-3.8-2.7-.9-1.2-1.5-2.6-1.8-4.3-.3-1.7-.5-3.5-.5-5.6V25h10.8v58h-.1z"/></g></g></svg>