<svg xmlns="http://www.w3.org/2000/svg" id="Layer_1" viewBox="0 0 406.6 100"><style>.st0{fill:#153F64;} .st1{fill:#B81F3C;} .st2{fill:#0B4E74;} .st3{fill:#117671;} .st4{fill:#24877C;} .st5{fill:#931E34;} .st6{fill:#E76B24;} .st7{fill:#CE4E27;} .st8{fill:#C24327;} .st9{fill:#F19720;} .st10{fill:#D57328;} .st11{fill:#9DAB39;} .st12{fill:#6C933D;} .st13{fill:#4B4B4B;}</style><g id="perfectial_logo_1_"><path d="M27.3 22.2c-1.1.9-2.6 1.9-3.5 2.8 1.3-1 2.4-1.9 3.5-2.8z" class="st0"/><path d="M23.8 25c-1.4-4.2-.1-9.6-1.1-12.2-1.1-2.9-4.3-2.9-5.5-5.7-8.5 6-11.7 8.4-17.2 12.6 3.8 4.6 4 10.5 9.2 15.7C22.6 48.8 26.6 47 30.9 51.6 28 39.4 26.4 33.8 23.8 25z" class="st1"/><path d="M27.2 0c-2.3 1.8-2.6 2-10 7.2 2.6 5.8 3.9 9.7 6.6 17.9 3.1-9.1 9.1-11.9 9.6-15 .3-3.7-4.6-7.6-6.2-10.1z" class="st0"/><path d="M27.2 0c1.6 2.5 1.3 5.4.9 9-.8 5.2-2.5 10.2-4.3 16 12.5-9.9 12.5-9.9 16.6-13.4 1.5-1.3 5.4-2 6.3-2.9 2.3-2.2.1-3.6.6-4.9C38.9 1.4 31.9.6 27.2 0z" class="st2"/><path d="M47.2 3.9s.1 0 0 0c-1.1 2.8-3.4 4.7-6.9 7.8 8-.9 16.9 1.8 17.3 1.8 4.4.2 6.1-2.1 7.5-1.6-6.5-4.4-12.8-6.4-17.9-8z" class="st3"/><path d="M65.2 11.8c-1.7-.6-4.4-1.1-8.1-1.2-4.3 0-13.4.6-16.7 1 6.4 1.6 15.2 3.9 24.1 8 4.6 2.1 7.5 5.4 10 7.3 2.9 2.1 5.2 2.7 7 4.4-5.9-9.9-9.3-13.4-16.3-19.5z" class="st4"/><path d="M13.1 33.6c-8-8-9.7-10-13.1-13.9.1 8.5.6 13.5 1.9 23.5 6.4 1.8 9.4 6.7 12.6 7.6 6.2 1.7 9.7-1.3 16.5.8-5-5.2-8.5-8.7-17.9-18z" class="st5"/><path d="M30.9 51.6c-8.5-2.6-15.4-4.6-29-8.4 1.8 11.7 3 17.9 5.7 29.5 11.3-2.6 20.2 2.3 29.2.4 11.6-2.4 17.5-10.2 23.1-11.2-11.4-4.8-23.7-8.7-29-10.3z" class="st6"/><path d="M34.2 66.9s.1 0 0 0c-11.6 2.4-17.8 3.8-26.6 5.8 5.9 1.8 6.8 7.4 12.8 9.2 3.9 1.2 12.7-1.4 16.6-.2 5.6-4.8 14.1-5.1 17.1-7.6 3.9-3.3 1.7-8.5 5.9-12.2-10.4 1.8-16.7 3.1-25.8 5z" class="st7"/><path d="M15.8 100c-3.2-9.3-5-15.2-8.1-27.3 9.8 3 19.6 5.9 29.3 9-8.1 6.7-15 12.6-21.2 18.3z" class="st8"/><path d="M59.9 61.8c-6.9 6.3-14 12.3-23 19.8 13.9 4.4 19.5 6.7 24.4 8.7C67.2 79.2 71.4 75.1 74 68.1 77.7 58 76.1 49.9 76.6 44c-4.8 6.8-11.1 12.6-16.7 17.8z" class="st9"/><path d="M81.7 56.9c-.7-5.1-3.6-7.8-5.1-12.9-.9 10.4-2.4 15.9-4.8 23.2-2.1 5.9-6 14.8-10.4 23.1C71.9 81.8 75.5 78 80.3 72.9c.3-4 2.1-10.6 1.4-16z" class="st10"/><path d="M89.7 57.5c-2.4-9.5-4.4-15-8-20.9-5.7-8.3-11.9-12.3-17.2-17 6.7 9.5 8.7 14.5 12.1 24.4 1.3 4 2.4 9.5 2.7 11.5.6 3.8 1.4 9.9 1.1 17.3 6.6-7.5 8.3-12.4 9.3-15.3z" class="st11"/><path d="M81.4 31.3c-5.4-5.8-12.9-9.8-17-11.6 9.3 8 12 11.8 16 17.3 6.2 9.6 7.4 14.1 9.2 20.5-1.7-12.3-3.7-17.2-8.2-26.2z" class="st12"/><path d="M127.6 39h10.9c2.3 0 4.1-.7 5.5-2.1 1.4-1.4 2-3.2 2-5.4s-.7-4-2-5.4c-1.4-1.4-3.2-2-5.5-2h-10.9V39zm12.6-22c2.3 0 4.3.4 6 1.3 1.7.9 3.1 2 4.2 3.4s1.9 2.9 2.5 4.7c.6 1.7.8 3.4.8 5.2 0 1.7-.3 3.4-.9 5.2-.6 1.7-1.5 3.3-2.7 4.7-1.2 1.4-2.6 2.5-4.3 3.4-1.7.9-3.6 1.3-5.8 1.3h-12.5v18.5h-7.9V17h20.6zm39.9 26.6c0-2.4-.7-4.1-2-5.2-1.3-1.1-2.9-1.6-4.8-1.6-1.8 0-3.4.6-4.8 1.7s-2 2.8-2 5.1v1.1h13.6v-1.1zm-13.7 6.3v1.7c0 1.2.2 2.2.6 3.1.4.9 1 1.5 1.6 2.1.7.5 1.5.9 2.4 1.2.9.3 1.8.4 2.8.4 1.1 0 2.3-.2 3.8-.6 1.5-.4 3-1.2 4.5-2.6.7.9 1.5 1.7 2.2 2.5.7.8 1.4 1.6 2.1 2.5-1.9 1.9-4 3.1-6.1 3.8-2.1.6-4.3.9-6.5.9-2 0-3.9-.3-5.6-.8-1.8-.5-3.3-1.3-4.7-2.3-1.4-1-2.4-2.3-3.2-3.9-.8-1.6-1.2-3.4-1.2-5.5v-9c0-2.1.4-3.9 1.1-5.6.7-1.7 1.7-3.1 3-4.2 1.3-1.2 2.8-2 4.5-2.7 1.7-.6 3.6-.9 5.6-.9 2.1 0 4 .3 5.7.9 1.7.6 3.3 1.5 4.5 2.6 1.3 1.1 2.2 2.5 2.9 4.1.7 1.6 1 3.5 1 5.5v6.7h-21zm48.4-12.3c-3 .3-5.6.8-7.6 1.5s-3.7 1.5-5 2.4v23.2h-7.3V30.3h6.6l.6 5h.1c.6-.6 1.4-1.2 2.3-1.9.9-.6 2-1.2 3.1-1.8 1.1-.5 2.3-1 3.5-1.3 1.2-.3 2.4-.5 3.6-.5v7.8zm16.3-1v28h-7.2v-28h-4.1v-6.2h4.1v-6c0-1.6.3-3 .8-4.1.5-1.2 1.2-2.2 2-3 .9-.8 1.9-1.4 3-1.7 1.2-.4 2.4-.6 3.7-.6h6.1v6.4h-5c-1.3 0-2.2.4-2.7 1.1-.5.7-.7 1.7-.7 2.8v5.1h8.4v6.2h-8.4zm34.4 7c0-2.4-.7-4.1-2-5.2-1.3-1.1-2.9-1.6-4.8-1.6-1.8 0-3.4.6-4.8 1.7s-2 2.8-2 5.1v1.1h13.6v-1.1zm-13.7 6.3v1.7c0 1.2.2 2.2.6 3.1.4.9 1 1.5 1.6 2.1.7.5 1.5.9 2.4 1.2.9.3 1.8.4 2.8.4 1.1 0 2.3-.2 3.8-.6 1.5-.4 3-1.2 4.5-2.6.7.9 1.5 1.7 2.2 2.5.7.8 1.4 1.6 2.1 2.5-1.9 1.9-4 3.1-6.1 3.8-2.1.6-4.3.9-6.5.9-2 0-3.9-.3-5.6-.8-1.8-.5-3.3-1.3-4.7-2.3-1.4-1-2.4-2.3-3.2-3.9-.8-1.6-1.2-3.4-1.2-5.5v-9c0-2.1.4-3.9 1.1-5.6.7-1.7 1.7-3.1 3-4.2 1.3-1.2 2.8-2 4.5-2.7 1.7-.6 3.6-.9 5.6-.9 2.1 0 4 .3 5.7.9 1.7.6 3.3 1.5 4.5 2.6 1.3 1.1 2.2 2.5 2.9 4.1.7 1.6 1 3.5 1 5.5v6.7h-21zm53.9 10.4c-1.8 1.9-3.8 3.1-5.9 3.7-2.1.6-4.1.9-6.2.9-1.9 0-3.8-.3-5.5-.8-1.7-.6-3.2-1.4-4.4-2.4-1.2-1.1-2.2-2.3-2.9-3.8-.7-1.5-1.1-3.2-1.1-5.2V42.6c0-2 .4-3.8 1.2-5.4.8-1.6 1.8-2.9 3.1-3.9 1.3-1.1 2.8-1.9 4.4-2.4 1.7-.6 3.4-.8 5.1-.8 1 0 2.1.1 3.1.2 1.1.1 2.1.3 3.1.6s2 .7 3 1.3c1 .6 1.9 1.3 2.9 2.3l-4.3 5.5c-1.6-1.4-3-2.3-4.2-2.6-1.2-.3-2.3-.5-3.2-.5-.8 0-1.6.1-2.4.4-.8.3-1.6.7-2.2 1.2-.7.6-1.2 1.3-1.7 2.2-.4.9-.7 2-.7 3.3v7.3c0 1.3.2 2.4.6 3.3.4.9.9 1.6 1.6 2.2.6.6 1.4 1 2.2 1.2.8.3 1.7.4 2.6.4 1 0 2.1-.2 3.5-.7 1.4-.4 2.6-1.2 3.7-2.2l4.6 4.8zm5.5-23.7v-6.2h4.7l1.5-8.2h5.7v8.2h8.9v6.2h-8.9v15.5c0 2.2.3 3.7.9 4.7.6.9 1.9 1.4 3.9 1.4.6 0 1.4-.1 2.4-.2s2-.3 3-.7l1.5 6.4c-1.4.5-2.8.8-4.4 1-1.5.1-2.8.2-3.7.2-2 0-3.7-.3-5.1-.8-1.4-.5-2.5-1.3-3.3-2.3-.8-1-1.4-2.2-1.8-3.7-.4-1.5-.6-3.1-.6-4.9V36.6h-4.7zm30-6.2h7.3v34.2h-7.3V30.4zm-.5-9.8c0-1.2.4-2.2 1.2-3 .8-.8 1.8-1.2 2.9-1.2 1.2 0 2.2.4 3 1.2.8.8 1.2 1.8 1.2 3s-.4 2.2-1.2 3c-.8.8-1.8 1.2-3 1.2s-2.1-.4-2.9-1.2c-.8-.8-1.2-1.8-1.2-3zM378.2 50H370c-.6 0-1.3 0-2 .1s-1.3.3-1.9.6c-.6.3-1.1.7-1.5 1.3-.4.6-.6 1.3-.6 2.3 0 1.3.5 2.3 1.4 3 .9.7 2.1 1.1 3.7 1.1.8 0 1.7-.1 2.5-.3.8-.2 1.6-.5 2.5-.8.8-.3 1.6-.6 2.3-1 .7-.4 1.3-.7 1.9-1V50h-.1zm-.2 11.5c-2.4 1.4-4.5 2.3-6.2 2.7-1.7.4-3.2.7-4.7.7-3.4 0-6.1-.9-8-2.8-1.9-1.8-2.9-4.4-2.9-7.6 0-1.9.4-3.5 1.2-4.8.8-1.3 1.9-2.3 3.1-3.1 1.2-.8 2.6-1.4 4-1.8 1.5-.4 2.8-.6 4-.6h9.5v-2.1c0-2-.6-3.5-1.7-4.4-1.2-.9-2.9-1.3-5.3-1.3-1.2 0-2.6.2-4.3.5-1.7.3-3.4 1.2-5.1 2.6l-3.4-5.5c2.3-1.8 4.6-2.9 6.9-3.4 2.3-.5 4.5-.8 6.5-.8 4.7 0 8.2 1 10.4 3.1 2.2 2.1 3.3 5.2 3.3 9.5v22.1h-6.6l-.6-3h-.1zm23.6-6.9c0 1.7.3 2.7 1 3.1.7.4 2 .6 3.9.6l.1 6.4c-.7.1-1.4.2-2 .3-.6 0-1.2.1-1.8.1-1.8 0-3.3-.2-4.4-.7-1.1-.4-2-1.1-2.6-1.9-.6-.8-1-1.8-1.2-2.9-.2-1.1-.3-2.4-.3-3.8V15.1h7.3v39.5zM119.7 84.8v-9.7h7.2v1.6h-5.2v2.1h4.8v1.6h-4.8V83h5.4v1.6h-7.4v.2zm9 0v-9.7h2.9l1.8 6.6 1.7-6.6h2.9v9.7h-1.8v-7.6l-1.9 7.6h-1.9l-1.9-7.6v7.6h-1.8zm11.3 0v-9.7h3.1c1.2 0 2 0 2.3.1.6.1 1 .5 1.4.9.4.5.6 1.1.6 1.9 0 .6-.1 1.1-.3 1.5-.2.4-.5.7-.8 1-.3.2-.7.4-1 .5-.5.1-1.1.1-2 .1H142v3.6h-2v.1zm1.9-8v2.7h1.1c.8 0 1.3 0 1.5-.2.3-.1.5-.3.6-.5.1-.2.2-.5.2-.8 0-.4-.1-.6-.3-.9-.2-.2-.5-.4-.8-.4-.2 0-.7-.1-1.4-.1h-.9v.2zm6.7 3.2c0-1 .1-1.8.4-2.5.2-.5.5-.9.9-1.3s.8-.7 1.2-.9c.6-.3 1.3-.4 2.1-.4 1.4 0 2.6.4 3.4 1.3.9.9 1.3 2.1 1.3 3.7s-.4 2.8-1.3 3.7c-.8.9-2 1.3-3.4 1.3s-2.6-.4-3.4-1.3c-.8-.8-1.2-2-1.2-3.6zm2 0c0 1.1.3 1.9.8 2.5.5.6 1.1.8 1.9.8.8 0 1.4-.3 1.9-.8.5-.6.7-1.4.7-2.5s-.2-1.9-.7-2.5c-.5-.5-1.1-.8-1.9-.8-.8 0-1.5.3-1.9.8-.6.5-.8 1.3-.8 2.5zm10.2 4.8l-2.3-9.7h2l1.5 6.6 1.8-6.6h2.3l1.7 6.8 1.5-6.8h2l-2.3 9.7h-2.1l-1.9-7.2-1.9 7.2h-2.3zm11.4 0v-9.7h7.2v1.6h-5.2v2.1h4.9v1.6h-4.9V83h5.4v1.6h-7.4v.2zm9 0v-9.7h4.1c1 0 1.8.1 2.2.3.5.2.8.5 1.1.9.3.4.4 1 .4 1.5 0 .7-.2 1.3-.6 1.8-.4.5-1.1.8-1.9.9.4.2.8.5 1 .8.3.3.6.8 1.1 1.6l1.2 1.9h-2.3l-1.4-2.1c-.5-.8-.8-1.2-1-1.4-.2-.2-.4-.3-.6-.4-.2-.1-.5-.1-1-.1h-.4v4h-1.9zm2-5.6h1.4c.9 0 1.5 0 1.8-.1.2-.1.4-.2.5-.4.1-.2.2-.4.2-.7 0-.3-.1-.6-.3-.8-.2-.2-.4-.3-.7-.4h-2.9v2.4zm19.1 5.6v-4.1l-3.5-5.6h2.3l2.3 3.8 2.2-3.8h2.2l-3.6 5.6v4.1h-1.9zm6.1-4.8c0-1 .1-1.8.4-2.5.2-.5.5-.9.9-1.3s.8-.7 1.2-.9c.6-.3 1.3-.4 2.1-.4 1.4 0 2.6.4 3.4 1.3.9.9 1.3 2.1 1.3 3.7s-.4 2.8-1.3 3.7c-.8.9-2 1.3-3.4 1.3s-2.6-.4-3.4-1.3c-.8-.8-1.2-2-1.2-3.6zm2 0c0 1.1.3 1.9.8 2.5.5.6 1.1.8 1.9.8.8 0 1.4-.3 1.9-.8.5-.6.7-1.4.7-2.5s-.2-1.9-.7-2.5c-.5-.5-1.1-.8-1.9-.8-.8 0-1.5.3-1.9.8-.5.5-.8 1.3-.8 2.5zm8.9-4.9h2v5.2c0 .8 0 1.4.1 1.6.1.4.3.7.6 1 .3.2.7.4 1.3.4.6 0 1-.1 1.3-.3.3-.2.5-.5.5-.8.1-.3.1-.9.1-1.6v-5.3h2v5.1c0 1.2-.1 2-.2 2.5s-.3.9-.6 1.2c-.3.3-.7.6-1.1.8-.5.2-1.1.3-1.9.3-.9 0-1.6-.1-2.1-.3-.5-.2-.9-.5-1.1-.8-.3-.3-.5-.7-.5-1.1-.1-.6-.2-1.4-.2-2.5v-5.4h-.2zm9.8 9.7v-9.7h4.1c1 0 1.8.1 2.3.3.5.2.8.5 1.1.9.3.4.4 1 .4 1.5 0 .7-.2 1.3-.6 1.8-.4.5-1.1.8-1.9.9.4.2.8.5 1 .8.3.3.6.8 1.1 1.6l1.2 1.9h-2.3l-1.4-2.1c-.5-.8-.8-1.2-1-1.4-.2-.2-.4-.3-.6-.4-.2-.1-.5-.1-1-.1h-.5v4h-1.9zm1.9-5.6h1.4c.9 0 1.5 0 1.8-.1.2-.1.4-.2.5-.4.1-.2.2-.4.2-.7 0-.3-.1-.6-.3-.8-.2-.2-.4-.3-.7-.4H231v2.4zm16.9 5.6v-9.7h2v9.7h-2zm3.8-9.7h3.6c.8 0 1.4.1 1.8.2.6.2 1.1.5 1.5.9.4.4.7.9.9 1.6.2.6.3 1.4.3 2.3 0 .8-.1 1.5-.3 2.1-.2.7-.6 1.3-1 1.7-.3.3-.8.6-1.4.8-.4.1-1 .2-1.7.2h-3.7v-9.8zm1.9 1.7v6.4h1.5c.5 0 .9 0 1.2-.1.3-.1.6-.2.8-.4.2-.2.4-.5.5-.9.1-.4.2-1 .2-1.8 0-.7-.1-1.3-.2-1.7-.1-.4-.3-.7-.6-.9-.2-.2-.5-.4-.9-.5-.3-.1-.8-.1-1.6-.1h-.9zm7.8 8v-9.7h7.2v1.6h-5.2v2.1h4.9v1.6h-4.9V83h5.4v1.6h-7.4v.2zm17.7 0H277l-.8-2.2h-3.9l-.8 2.2h-2.1l3.8-9.7h2.1l3.8 9.7zm-3.6-3.8l-1.3-3.6-1.3 3.6h2.6zm4.2.6l1.9-.2c.1.6.3 1.1.7 1.4.3.3.8.4 1.4.4.6 0 1.1-.1 1.4-.4.3-.3.5-.6.5-.9 0-.2-.1-.4-.2-.6-.1-.2-.4-.3-.7-.4-.2-.1-.7-.2-1.6-.4-1-.3-1.8-.6-2.2-1-.6-.5-.9-1.2-.9-1.9 0-.5.1-1 .4-1.4.3-.4.7-.8 1.2-1 .5-.2 1.2-.3 1.9-.3 1.2 0 2.1.3 2.7.8.6.5.9 1.2 1 2.1l-2 .1c-.1-.5-.3-.9-.5-1.1-.3-.2-.7-.3-1.2-.3-.6 0-1 .1-1.3.3-.2.1-.3.3-.3.6 0 .2.1.4.3.6.2.2.8.4 1.8.6.9.2 1.7.5 2.1.7.5.2.8.6 1.1 1 .3.4.4.9.4 1.5s-.2 1.1-.5 1.6-.7.8-1.3 1.1c-.6.2-1.3.4-2.1.4-1.2 0-2.2-.3-2.8-.8-.7-.5-1.1-1.4-1.2-2.5z" class="st13"/></g></svg>