<svg id="Layer_1" xmlns="http://www.w3.org/2000/svg" viewBox="-52.1 221.2 277.9 60"><style>.st0{fill:#5A5A5C;} .st1{fill:url(#SVGID_1_);}</style><path class="st0" d="M172.1 255.4c0 1.8.2 3.4.7 4.8.5 1.3 1.1 2.5 1.8 3.4.8.9 1.7 1.7 2.6 2.2 1 .6 2 1 3 1.3 1 .3 2 .5 3 .6 1 .1 1.9.2 2.7.2h1c.3 0 .6 0 .8-.1l.7-.1v-6.8h-1.5c-.6 0-1.3-.1-2-.2-.8-.1-1.5-.4-2.2-.9-.7-.4-1.3-1.1-1.7-1.9-.5-.9-.7-2-.7-3.4v-14h7.5v-6.2h-7.5v-9h-8v9H167v6.2h5.1v14.9zM152.3 267.5h17.8v-6.1h-4.8v-27h-13.4v6.2h5.2v20.8h-4.8zM157 221.5h8.3v7.3H157zM119.2 251.1c0 2.1.3 4.1 1 5.9.6 1.8 1.5 3.4 2.7 4.8 1.1 1.4 2.5 2.6 4 3.6s3.2 1.7 5 2.2c1.8.5 3.7.8 5.6.8 1.6 0 3.1-.2 4.5-.5s2.7-.7 3.9-1.3c1.2-.5 2.2-1.1 3.1-1.7.9-.6 1.6-1.2 2.2-1.7l-2.9-5.8c-.5.4-1 .8-1.7 1.2-.7.5-1.5.9-2.4 1.3-.9.4-1.9.8-2.9 1-1.1.3-2.2.4-3.3.4-1.4 0-2.8-.2-4-.7-1.3-.5-2.3-1.1-3.3-2-.9-.9-1.7-2-2.2-3.3-.6-1.3-.8-2.8-.8-4.5 0-2 .4-3.8 1.2-5.3.8-1.5 1.9-2.7 3.4-3.6 1.4-.9 3.2-1.3 5.2-1.3.7 0 1.4.1 2.1.2.7.1 1.4.3 2 .6.6.3 1.1.6 1.5 1 .4.4.6.9.6 1.5v2.2h7.1v-4.5c0-1.2-.3-2.2-.9-3.1-.6-.9-1.3-1.6-2.3-2.2-1-.6-2-1.1-3.2-1.5-1.2-.4-2.4-.7-3.6-.8-1.2-.2-2.4-.3-3.5-.3-2.6 0-4.9.5-7.1 1.3-2.2.9-4 2.1-5.6 3.7-1.6 1.6-2.8 3.4-3.7 5.5-1.3 2.1-1.7 4.4-1.7 6.9z"/><path class="st0" d="M103 267.5h17.7v-6.1H116v-27h-13.4v6.2h5.2v20.8H103zM107.7 221.5h8.3v7.3h-8.3zM88 257c0 2.2.3 4.1.8 5.5.5 1.4 1.3 2.5 2.2 3.3 1 .8 2 1.3 3.2 1.6 1.2.3 2.5.4 3.8.4h2l.9-.1V261h-1.6c-.9 0-1.6-.2-2.1-.5s-.8-.8-1-1.5c-.2-.7-.3-1.5-.3-2.5v-35h-13v6.2H88V257z"/><path class="st0" d="M48.9 274.4v6.2h17.8v-6.2h-4.8v-7.9-1.2-.9l-.1-.8h.1c.6.8 1.4 1.6 2.3 2.3.5.4 1.1.8 1.8 1.2.7.3 1.5.6 2.4.8.9.2 1.9.3 3 .3 2.2 0 4.2-.4 6-1.2 1.8-.8 3.4-2 4.8-3.5 1.3-1.5 2.4-3.3 3.2-5.5.8-2.1 1.1-4.5 1.1-7.1 0-2.6-.3-4.9-1-7-.7-2.1-1.7-3.9-2.9-5.5-1.3-1.5-2.8-2.7-4.6-3.5-1.8-.8-3.8-1.3-6.1-1.3-1.3 0-2.5.1-3.5.4-1 .3-1.9.6-2.7 1-.8.4-1.5.9-2.1 1.4-.5.4-.9.9-1.4 1.3-.4.5-.8 1-1 1.5h-.1c0-.1.1-.1.1-.2v-1.4c0-.6-.1-1.1-.4-1.6-.3-.5-.7-.8-1.3-1.1-.6-.3-1.4-.4-2.4-.4h-8.5v6.2h3.7c.5 0 .9.1 1.1.3.2.2.3.6.3 1.1v32.3h-4.8zm12.8-23.2c0-1.8.2-3.4.7-4.7.5-1.3 1.1-2.4 1.8-3.2.8-.9 1.7-1.5 2.7-1.9 1-.4 2.1-.6 3.1-.6 1.7 0 3.1.4 4.3 1.3 1.2.9 2.2 2.1 2.9 3.6.7 1.6 1 3.4 1 5.5 0 1.6-.2 3.1-.7 4.4-.4 1.3-1 2.3-1.8 3.2-.8.9-1.6 1.5-2.7 2-1 .5-2.1.7-3.2.7-1.4 0-2.6-.3-3.6-.9-1-.6-1.9-1.3-2.6-2.3-.7-1-1.2-2.1-1.6-3.3-.2-1.3-.3-2.5-.3-3.8zM190.1 278.9c.3.2.7.4 1 .6.4.2.8.4 1.2.5.8.3 1.6.6 2.6.8 1 .2 2.1.3 3.3.3 1.9 0 3.7-.3 5.4-1 1.7-.6 3.2-1.7 4.5-3 1.3-1.4 2.4-3.2 3.2-5.3l7.5-19.3 4.7-11.9 2.4-6.2h-14.3v6.2h3.8l-6 16.7c-.2.4-.3.8-.4 1.2l-.3 1.2-.2 1.1h-.2v-.5c0-.2-.1-.4-.1-.6-.1-.4-.2-.7-.2-1.2l-.3-1.2-6-16.7h3.9v-6.2h-16.3v6.2h4l11.4 27.9-.9 2.1c-.5 1.2-1.3 2.1-2.3 2.8-1 .7-2.2 1-3.5 1-.7 0-1.4-.1-2.1-.2-.6-.1-1.1-.3-1.6-.6-.4-.2-.9-.5-1.4-.8l-2.8 6.1zM172.1 255.4c0 1.8.2 3.4.7 4.8.5 1.3 1.1 2.5 1.8 3.4.8.9 1.7 1.7 2.6 2.2 1 .6 2 1 3 1.3 1 .3 2 .5 3 .6 1 .1 1.9.2 2.7.2h1c.3 0 .6 0 .8-.1l.7-.1v-6.8h-1.5c-.6 0-1.3-.1-2-.2-.8-.1-1.5-.4-2.2-.9-.7-.4-1.3-1.1-1.7-1.9-.5-.9-.7-2-.7-3.4v-14h7.5v-6.2h-7.5v-9h-8v9H167v6.2h5.1v14.9zM152.3 267.5h17.8v-6.1h-4.8v-27h-13.4v6.2h5.2v20.8h-4.8zM157 221.5h8.3v7.3H157zM119.2 251.1c0 2.1.3 4.1 1 5.9.6 1.8 1.5 3.4 2.7 4.8 1.1 1.4 2.5 2.6 4 3.6s3.2 1.7 5 2.2c1.8.5 3.7.8 5.6.8 1.6 0 3.1-.2 4.5-.5s2.7-.7 3.9-1.3c1.2-.5 2.2-1.1 3.1-1.7.9-.6 1.6-1.2 2.2-1.7l-2.9-5.8c-.5.4-1 .8-1.7 1.2-.7.5-1.5.9-2.4 1.3-.9.4-1.9.8-2.9 1-1.1.3-2.2.4-3.3.4-1.4 0-2.8-.2-4-.7-1.3-.5-2.3-1.1-3.3-2-.9-.9-1.7-2-2.2-3.3-.6-1.3-.8-2.8-.8-4.5 0-2 .4-3.8 1.2-5.3.8-1.5 1.9-2.7 3.4-3.6 1.4-.9 3.2-1.3 5.2-1.3.7 0 1.4.1 2.1.2.7.1 1.4.3 2 .6.6.3 1.1.6 1.5 1 .4.4.6.9.6 1.5v2.2h7.1v-4.5c0-1.2-.3-2.2-.9-3.1-.6-.9-1.3-1.6-2.3-2.2-1-.6-2-1.1-3.2-1.5-1.2-.4-2.4-.7-3.6-.8-1.2-.2-2.4-.3-3.5-.3-2.6 0-4.9.5-7.1 1.3-2.2.9-4 2.1-5.6 3.7-1.6 1.6-2.8 3.4-3.7 5.5-1.3 2.1-1.7 4.4-1.7 6.9z"/><path class="st0" d="M103 267.5h17.7v-6.1H116v-27h-13.4v6.2h5.2v20.8H103zM107.7 221.5h8.3v7.3h-8.3zM88 257c0 2.2.3 4.1.8 5.5.5 1.4 1.3 2.5 2.2 3.3 1 .8 2 1.3 3.2 1.6 1.2.3 2.5.4 3.8.4h2l.9-.1V261h-1.6c-.9 0-1.6-.2-2.1-.5s-.8-.8-1-1.5c-.2-.7-.3-1.5-.3-2.5v-35h-13v6.2H88V257z"/><path class="st0" d="M48.9 274.4v6.2h17.8v-6.2h-4.8v-7.9-1.2-.9l-.1-.8h.1c.6.8 1.4 1.6 2.3 2.3.5.4 1.1.8 1.8 1.2.7.3 1.5.6 2.4.8.9.2 1.9.3 3 .3 2.2 0 4.2-.4 6-1.2 1.8-.8 3.4-2 4.8-3.5 1.3-1.5 2.4-3.3 3.2-5.5.8-2.1 1.1-4.5 1.1-7.1 0-2.6-.3-4.9-1-7-.7-2.1-1.7-3.9-2.9-5.5-1.3-1.5-2.8-2.7-4.6-3.5-1.8-.8-3.8-1.3-6.1-1.3-1.3 0-2.5.1-3.5.4-1 .3-1.9.6-2.7 1-.8.4-1.5.9-2.1 1.4-.5.4-.9.9-1.4 1.3-.4.5-.8 1-1 1.5h-.1c0-.1.1-.1.1-.2v-1.4c0-.6-.1-1.1-.4-1.6-.3-.5-.7-.8-1.3-1.1-.6-.3-1.4-.4-2.4-.4h-8.5v6.2h3.7c.5 0 .9.1 1.1.3.2.2.3.6.3 1.1v32.3h-4.8zm12.8-23.2c0-1.8.2-3.4.7-4.7.5-1.3 1.1-2.4 1.8-3.2.8-.9 1.7-1.5 2.7-1.9 1-.4 2.1-.6 3.1-.6 1.7 0 3.1.4 4.3 1.3 1.2.9 2.2 2.1 2.9 3.6.7 1.6 1 3.4 1 5.5 0 1.6-.2 3.1-.7 4.4-.4 1.3-1 2.3-1.8 3.2-.8.9-1.6 1.5-2.7 2-1 .5-2.1.7-3.2.7-1.4 0-2.6-.3-3.6-.9-1-.6-1.9-1.3-2.6-2.3-.7-1-1.2-2.1-1.6-3.3-.2-1.3-.3-2.5-.3-3.8zM190.1 278.9c.3.2.7.4 1 .6.4.2.8.4 1.2.5.8.3 1.6.6 2.6.8 1 .2 2.1.3 3.3.3 1.9 0 3.7-.3 5.4-1 1.7-.6 3.2-1.7 4.5-3 1.3-1.4 2.4-3.2 3.2-5.3l7.5-19.3 4.7-11.9 2.4-6.2h-14.3v6.2h3.8l-6 16.7c-.2.4-.3.8-.4 1.2l-.3 1.2-.2 1.1h-.2v-.5c0-.2-.1-.4-.1-.6-.1-.4-.2-.7-.2-1.2l-.3-1.2-6-16.7h3.9v-6.2h-16.3v6.2h4l11.4 27.9-.9 2.1c-.5 1.2-1.3 2.1-2.3 2.8-1 .7-2.2 1-3.5 1-.7 0-1.4-.1-2.1-.2-.6-.1-1.1-.3-1.6-.6-.4-.2-.9-.5-1.4-.8l-2.8 6.1z"/><linearGradient id="SVGID_1_" gradientUnits="userSpaceOnUse" x1="-33.985" y1="308.31" x2="14.775" y2="223.181" gradientTransform="matrix(1 0 0 -1 0 504.672)"><stop offset="0" stop-color="#FADB42"/><stop offset=".473" stop-color="#F7C02A"/><stop offset="1" stop-color="#F4A31E"/></linearGradient><path class="st1" d="M10.8 221.2h-11v8.8h11v-8.8zm-62.9 46.4h11v-11h-11v11zm98.8-27v-6.2H36.1l-4.1 6.2-.6.9c-.2.3-.3.6-.4.9l-.5.8h-.1c0-.1-.1-.3-.1-.4-.1-.1-.2-.3-.3-.4-.1-.3-.3-.6-.4-.9l-.6-.9-4-6.2H12.8v6.2H18l6.2 10.1-6.5 8.8H11v-25H-2.8c-.2-1.3-.5-2.8-.9-4-.7-1.9-1.8-3.6-3.1-5s-2.9-2.5-4.8-3.2c-1.2-.5-2.4-.8-3.8-.9-1.3-.1-2.7-.2-4-.2h-17.9v9.1h16.7c.8 0 1.6.1 2.2.2.7.2 1.3.4 1.8.8.8.5 1.3 1.3 1.7 2.2.4.9.6 2 .6 3.3 0 1.3-.2 2.4-.6 3.4-.4 1-1 1.8-1.9 2.3l-1.2.6c-.4.1-.8.2-1.3.3-.5.1-1 .1-1.6.1h-16.5v24.1h16.8v-8.1h-5.2v-6.9h6.6c1.4 0 2.7-.1 3.9-.2 1.2-.2 2.3-.4 3.4-.8 1.4-.5 2.6-1.2 3.7-2.2 1.1-1 2.1-2.1 2.9-3.4 1-1.7 1.4-4 1.7-5.4h3.1v18.9h-18.1v8.1h42.7l4.4-7.1c.2-.4.4-.7.6-1 .2-.3.3-.6.4-.8.1-.2.2-.3.3-.4.1-.1.1-.3.1-.4h.1l.5.8c.1.3.3.5.4.8.1.3.3.6.6 1l4.7 7.1h10.3v-8.1h-3.2l-6.8-9 7.3-9.8h2.9v-.1z"/></svg>