<?xml version="1.0" encoding="utf-8"?>
<!-- Generator: Adobe Illustrator 19.0.0, SVG Export Plug-In . SVG Version: 6.00 Build 0)  -->
<svg version="1.1" id="Layer_1" xmlns="http://www.w3.org/2000/svg" xmlns:xlink="http://www.w3.org/1999/xlink" x="0px" y="0px"
	 viewBox="0 0 112.3 127.3" style="enable-background:new 0 0 112.3 127.3;" xml:space="preserve">
<style type="text/css">
	.st0{fill:#6BCDE6;}
	.st1{fill:#BED630;}
	.st2{fill:#EE4080;}
</style>
<g id="XMLID_2_">
	<g id="XMLID_25_">
		<path id="XMLID_35_" class="st0" d="M0,0.6c1.1-0.2,2.3-0.4,3.7-0.5C5,0.1,6.3,0,7.5,0c1.3,0,2.5,0.1,3.7,0.4s2.2,0.7,3.1,1.4
			c0.9,0.6,1.6,1.5,2.1,2.5c0.5,1,0.8,2.3,0.8,3.8c0,1.1-0.2,2.2-0.6,3c-0.4,0.9-0.8,1.6-1.4,2.3c-0.5,0.6-1.1,1.1-1.7,1.5
			c-0.6,0.4-1.1,0.7-1.5,0.8l7.8,13.9h-4.1L8.7,16.8H3.5v12.9H0V0.6z M7.6,3C7.2,3,6.8,3,6.4,3C6,3,5.7,3,5.3,3.1
			c-0.4,0-0.7,0.1-1,0.1c-0.3,0-0.6,0.1-0.8,0.1v10.8h3.3c1.9,0,3.5-0.5,4.8-1.4c1.3-1,1.9-2.4,1.9-4.5c0-1.5-0.5-2.8-1.6-3.7
			C10.8,3.5,9.4,3,7.6,3z"/>
		<path id="XMLID_32_" class="st0" d="M24.1,29.7v-2.8h7.3V11.5h-7.3V8.7h10.6v18.2h7.1v2.8H24.1z M30.2,2.8c0-0.8,0.3-1.4,0.8-2
			S32.1,0,32.9,0c0.8,0,1.5,0.3,2,0.8s0.8,1.2,0.8,2c0,0.7-0.3,1.3-0.8,1.8s-1.2,0.8-2,0.8c-0.8,0-1.4-0.3-1.9-0.8
			S30.2,3.5,30.2,2.8z"/>
		<path id="XMLID_29_" class="st0" d="M63.7,30.8c0,1.3-0.3,2.5-0.8,3.5c-0.5,1-1.2,1.8-2.1,2.5c-0.9,0.6-1.9,1.1-3.1,1.4
			c-1.2,0.3-2.4,0.5-3.8,0.5c-1.7,0-3.1-0.2-4.3-0.5c-1.2-0.3-2.3-0.8-3.2-1.3l1.6-3c0.3,0.2,0.6,0.4,1,0.7c0.4,0.2,0.9,0.4,1.4,0.6
			c0.5,0.2,1.1,0.3,1.7,0.4c0.6,0.1,1.2,0.2,1.8,0.2c1.2,0,2.3-0.1,3.1-0.3c0.8-0.2,1.5-0.6,2-1c0.5-0.5,0.9-1.1,1.1-1.8
			c0.2-0.8,0.3-1.7,0.3-2.8v-2.4h-0.2c-0.6,0.9-1.5,1.6-2.5,2.1c-1,0.5-2.3,0.8-3.9,0.8c-3.2,0-5.5-0.9-7-2.7
			c-1.5-1.8-2.2-4.5-2.2-8.3c0-3.6,1-6.3,2.9-8.1c1.9-1.8,4.7-2.8,8.5-2.8c1.7,0,3.2,0.1,4.4,0.4c1.2,0.2,2.3,0.5,3.3,0.9V30.8z
			 M54.4,27.4c1.7,0,3-0.4,4-1.3c1-0.9,1.7-2.2,2-4.1v-10c-1.2-0.6-2.9-0.9-5.1-0.9c-2.2,0-4,0.7-5.3,2c-1.3,1.3-1.9,3.3-1.9,6
			c0,1.2,0.1,2.3,0.3,3.3c0.2,1,0.6,1.9,1.1,2.6c0.5,0.7,1.1,1.3,1.9,1.7C52.2,27.2,53.2,27.4,54.4,27.4z"/>
		<path id="XMLID_26_" class="st0" d="M70.4,10.4c1.2-0.7,2.6-1.2,4.1-1.5c1.5-0.3,3-0.5,4.5-0.5c1.4,0,2.6,0.2,3.5,0.7
			c0.9,0.4,1.6,1,2.1,1.7c0.5,0.7,0.9,1.5,1,2.4c0.2,0.9,0.3,1.8,0.3,2.7c0,1.1,0,2.2-0.1,3.4c-0.1,1.2-0.1,2.4-0.1,3.6
			c0,1.4,0.1,2.7,0.3,4h2.8v2.7h-5.5l-0.4-3.1h-0.2c-0.2,0.3-0.4,0.6-0.8,1c-0.3,0.4-0.8,0.8-1.3,1.2c-0.5,0.4-1.2,0.7-2,1
			c-0.8,0.3-1.7,0.4-2.8,0.4c-2.1,0-3.7-0.5-4.9-1.6C69.6,27.4,69,26,69,24.1c0-1.4,0.3-2.6,0.9-3.6c0.6-1,1.5-1.7,2.7-2.2
			s2.6-0.8,4.3-0.9c1.7-0.1,3.5,0,5.6,0.3c0.1-1.3,0.2-2.4,0.1-3.2c-0.1-0.9-0.3-1.5-0.7-2c-0.4-0.5-0.8-0.9-1.5-1.1
			c-0.6-0.2-1.4-0.3-2.3-0.3c-1.3,0-2.5,0.2-3.6,0.5c-1.2,0.4-2.2,0.7-3.1,1.1L70.4,10.4z M76.6,27.3c0.8,0,1.5-0.1,2.2-0.4
			c0.7-0.3,1.3-0.6,1.8-1c0.5-0.4,0.9-0.8,1.3-1.3c0.3-0.5,0.6-0.9,0.8-1.3v-2.9c-1.5-0.3-2.8-0.4-4-0.4c-1.2,0-2.3,0.1-3.2,0.4
			c-0.9,0.3-1.6,0.7-2.1,1.2s-0.8,1.3-0.8,2.2c0,0.9,0.3,1.7,0.9,2.4C74.1,26.9,75.1,27.3,76.6,27.3z"/>
	</g>
	<g id="XMLID_15_">
		<path id="XMLID_23_" class="st1" d="M0,52.8h21.8v7.7h-3.1v-4.6h-6.1v23.2h4.6v3.1H4.5v-3.1h4.6V55.9h-6v4.6H0V52.8z"/>
		<path id="XMLID_20_" class="st1" d="M43.2,79.6c-0.5,0.4-1.1,0.9-1.8,1.3c-0.7,0.4-1.4,0.7-2.2,1c-0.8,0.3-1.7,0.5-2.5,0.7
			c-0.9,0.2-1.8,0.2-2.7,0.2c-1.7,0-3.2-0.3-4.5-0.8c-1.3-0.5-2.4-1.3-3.2-2.2c-0.9-1-1.5-2.1-2-3.5c-0.4-1.3-0.7-2.9-0.7-4.5
			c0-1.8,0.2-3.3,0.7-4.7c0.5-1.4,1.2-2.5,2.1-3.4c0.9-0.9,2-1.6,3.4-2.1c1.3-0.5,2.8-0.7,4.4-0.7c1.2,0,2.3,0.2,3.5,0.5
			c1.1,0.3,2.2,0.9,3,1.7c0.9,0.9,1.6,2,2,3.5c0.5,1.5,0.6,3.4,0.5,5.8H27.1c0,2.5,0.7,4.4,2,5.6c1.4,1.2,3.2,1.9,5.4,1.9
			c0.8,0,1.5-0.1,2.2-0.3c0.7-0.2,1.4-0.4,2.1-0.7c0.7-0.3,1.3-0.5,1.8-0.8c0.5-0.3,0.9-0.6,1.2-0.8L43.2,79.6z M34.3,63.5
			c-0.9,0-1.8,0.1-2.6,0.3c-0.8,0.2-1.5,0.5-2.2,1c-0.6,0.5-1.1,1.1-1.5,1.8c-0.4,0.7-0.7,1.7-0.8,2.7h13c-0.1-1.8-0.7-3.3-1.8-4.3
			C37.4,64,36,63.5,34.3,63.5z"/>
		<path id="XMLID_18_" class="st1" d="M64.6,64.4c-0.6-0.2-1.3-0.4-2.1-0.6c-0.7-0.2-1.5-0.2-2.2-0.2c-2.7,0-4.8,0.6-6.1,1.9
			c-1.3,1.3-2,3.3-2,6.1c0,1.2,0.2,2.3,0.6,3.3c0.4,1,1,1.8,1.7,2.5c0.7,0.7,1.6,1.2,2.6,1.6c1,0.4,2.1,0.5,3.4,0.5
			c1.3,0,2.6-0.2,3.8-0.7c1.2-0.5,2.3-1.1,3.1-1.8l1.5,2.4c-0.4,0.3-0.9,0.7-1.5,1c-0.6,0.4-1.3,0.7-2,1c-0.8,0.3-1.6,0.6-2.6,0.8
			s-2,0.3-3,0.3c-1.8,0-3.4-0.3-4.8-0.8s-2.5-1.3-3.5-2.2c-0.9-1-1.6-2.1-2.1-3.5c-0.5-1.4-0.7-2.9-0.7-4.5c0-1.8,0.2-3.3,0.7-4.7
			c0.5-1.4,1.2-2.5,2.1-3.4c0.9-0.9,2-1.6,3.4-2.1c1.3-0.5,2.8-0.7,4.4-0.7c2.1,0,3.8,0.2,5.1,0.5c1.3,0.4,2.4,0.8,3.3,1.2l0,0.1
			v5.8h-3V64.4z"/>
		<path id="XMLID_16_" class="st1" d="M71.8,52.8h6.5v11h0.2c0.9-1,1.9-1.7,3-2.3c1.1-0.5,2.6-0.8,4.3-0.8c1.3,0,2.5,0.1,3.5,0.4
			c1,0.3,1.8,0.8,2.4,1.5c0.6,0.7,1.1,1.7,1.4,2.9c0.3,1.2,0.5,2.8,0.5,4.6v12.1h-3.3V70.7c0-1.2-0.1-2.3-0.2-3.1
			c-0.1-0.9-0.4-1.6-0.8-2.2c-0.4-0.6-1-1.1-1.7-1.4c-0.7-0.3-1.6-0.5-2.7-0.5c-0.8,0-1.5,0.1-2.2,0.4c-0.7,0.3-1.4,0.6-2,1.1
			c-0.6,0.5-1.1,1-1.5,1.7c-0.4,0.7-0.7,1.4-0.9,2.2v13.4h-3.2V55.6h-3.3V52.8z"/>
	</g>
	<g id="XMLID_3_">
		<path id="XMLID_13_" class="st2" d="M16.1,100.3c-1-0.2-2.1-0.3-3.5-0.3c-1.2,0-2.3,0.2-3.4,0.6s-2,1.1-2.9,2
			c-0.8,1-1.5,2.2-2,3.7c-0.5,1.5-0.7,3.4-0.7,5.7c0,4.1,0.8,7.2,2.3,9.2c1.5,2,3.7,2.9,6.6,2.9c1.8,0,3.3-0.4,4.6-1V115h-6.1v-2.8
			h9.1v12.9c-0.4,0.3-1,0.6-1.6,0.9s-1.3,0.5-2,0.7c-0.7,0.2-1.5,0.3-2.2,0.4c-0.8,0.1-1.5,0.1-2.2,0.1c-1.9,0-3.6-0.3-5-0.9
			c-1.5-0.6-2.7-1.5-3.8-2.8c-1-1.2-1.8-2.8-2.4-4.7C0.3,117,0,114.7,0,112.1c0-2.7,0.3-5,1-7c0.7-1.9,1.6-3.5,2.8-4.7
			c1.1-1.2,2.5-2.1,3.9-2.7c1.5-0.6,3-0.8,4.6-0.8c1.7,0,3.1,0.1,4.2,0.3c1.1,0.2,2,0.4,2.8,0.7l0,0.2v7h-3.1V100.3z"/>
		<path id="XMLID_10_" class="st2" d="M27.4,126.8V124h7.3v-15.4h-7.3v-2.8H38V124h7.1v2.8H27.4z M33.5,99.8c0-0.8,0.3-1.4,0.8-2
			s1.1-0.8,1.9-0.8c0.8,0,1.5,0.3,2,0.8s0.8,1.2,0.8,2c0,0.7-0.3,1.3-0.8,1.8s-1.2,0.8-2,0.8c-0.8,0-1.4-0.3-1.9-0.8
			S33.5,100.6,33.5,99.8z"/>
		<path id="XMLID_8_" class="st2" d="M50.5,126.8V124h5.7v-15.4h-5.7v-2.8h7.9l0.7,2.7h0.2c1-0.9,2-1.6,3.2-2.2
			c1.2-0.6,2.6-0.9,4.2-0.9c1,0,1.7,0.2,2.3,0.5c0.6,0.4,1,0.9,1.3,1.6c0.3,0.7,0.5,1.5,0.7,2.5c0.1,1,0.2,2.1,0.2,3.4l-2.9,0
			c0-1.8-0.2-3.1-0.5-3.9c-0.4-0.8-1-1.2-1.9-1.2c-0.9,0-1.7,0.1-2.4,0.4c-0.7,0.3-1.3,0.6-1.8,0.9c-0.5,0.4-1,0.7-1.3,1.1
			c-0.4,0.4-0.6,0.7-0.8,0.9V124h8.1v2.8H50.5z"/>
		<path id="XMLID_6_" class="st2" d="M73.8,97h7v22.3c0,1.7,0.3,2.9,0.9,3.6c0.6,0.7,1.4,1,2.5,1c0.8,0,1.5-0.1,2.2-0.4
			c0.7-0.3,1.5-0.8,2.4-1.4l1.5,2.3c-0.4,0.4-0.9,0.7-1.5,1c-0.5,0.3-1.1,0.6-1.6,0.8c-0.6,0.2-1.1,0.4-1.7,0.5
			c-0.6,0.1-1.1,0.2-1.6,0.2c-1,0-2-0.1-2.8-0.4c-0.8-0.3-1.5-0.7-2-1.3c-0.5-0.6-1-1.4-1.2-2.3c-0.3-1-0.4-2.2-0.4-3.6V99.8h-3.7
			V97z"/>
		<path id="XMLID_4_" class="st2" d="M109,121.1c0-0.9-0.3-1.6-1-2.1c-0.7-0.5-1.6-0.9-2.6-1.2s-2.2-0.6-3.4-0.8
			c-1.2-0.3-2.3-0.6-3.4-1s-1.9-1-2.6-1.7c-0.7-0.7-1-1.7-1-3c0-1.1,0.2-2,0.7-2.7c0.5-0.8,1.1-1.4,1.8-1.9c0.8-0.5,1.6-0.9,2.6-1.1
			c1-0.2,2.1-0.4,3.1-0.4c2,0,3.6,0.2,5.1,0.7c1.4,0.5,2.5,1,3.4,1.5l-1.3,2.6c-0.9-0.5-1.9-1-3-1.4c-1.1-0.5-2.4-0.7-4-0.7
			c-0.6,0-1.2,0.1-1.8,0.2c-0.6,0.1-1.1,0.3-1.6,0.6c-0.5,0.3-0.9,0.6-1.2,1c-0.3,0.4-0.4,0.9-0.4,1.5c0,0.7,0.3,1.3,1,1.7
			c0.7,0.4,1.6,0.7,2.6,1c1,0.3,2.2,0.5,3.4,0.8c1.2,0.2,2.3,0.6,3.4,1c1,0.4,1.9,1,2.6,1.8c0.7,0.8,1,1.8,1,3.1
			c0,1.9-0.8,3.5-2.3,4.8c-1.5,1.3-3.8,1.9-6.9,1.9c-0.9,0-1.8-0.1-2.7-0.3s-1.7-0.4-2.5-0.7c-0.8-0.3-1.5-0.6-2.1-0.9
			c-0.6-0.3-1.2-0.7-1.6-1.1l1.7-2.7c0.3,0.3,0.8,0.7,1.3,1c0.6,0.4,1.2,0.7,1.8,0.9c0.7,0.3,1.4,0.5,2.2,0.7
			c0.8,0.2,1.5,0.3,2.3,0.3c0.8,0,1.5-0.1,2.1-0.2c0.7-0.1,1.2-0.3,1.7-0.6c0.5-0.3,0.9-0.6,1.2-1C108.8,122.3,109,121.7,109,121.1z
			"/>
	</g>
</g>
</svg>
