<svg id="Art" xmlns="http://www.w3.org/2000/svg" viewBox="0 0 200 58.9"><style>.st0{fill-rule:evenodd;clip-rule:evenodd;} .st1{fill:#F78E1E;stroke:#F78E1E;stroke-width:0.1395;stroke-miterlimit:3.8637;} .st2{fill:#F78E1E;} .st3{fill-rule:evenodd;clip-rule:evenodd;fill:#F78E1E;} .st4{fill-rule:evenodd;clip-rule:evenodd;fill:none;stroke:#F78E1E;stroke-width:0.1868;stroke-miterlimit:3.8637;} .st5{fill:none;stroke:#000000;stroke-width:0.9344;stroke-miterlimit:3.8637;}</style><path d="M86.5 20.6v11.6c0 5.3 2.3 6.7 5.3 6.7 3.3 0 5.6-2.1 5.6-6.8V20.6h4V42h-3.7v-2.3h-.1c-1.1 1.8-3.6 2.8-6.3 2.8-2.4 0-4.5-.8-6.1-2.1-1.8-1.5-2.8-3.9-2.8-8.2V20.6h4.1zM123.4 27.7c-.7-1.3-2.2-4-6-4-5.2 0-7 4.3-7 7.5 0 3.7 2.3 7.6 6.9 7.6 3 0 5-1.7 6-3.9h4.5c-1.6 4.7-5.8 7.6-10.5 7.6-7 0-10.9-5.7-10.9-11.2 0-5.8 4.2-11.2 11-11.2 6 0 9.7 4.5 10.5 7.7h-4.5zM168.9 32.1c0 4.7-2.3 6.8-5.6 6.8-3 0-5.3-1.4-5.3-6.7V20.6h-4v11.6c0 4.3 1 6.7 2.8 8.2 1.5 1.3 3.7 2.1 6.1 2.1 2.7 0 5.2-1 6.3-2.8h.1V42h3.7V20.6h-4v11.5zM143.2 30.7l7.7-10.1H146L138.7 31l8.5 11h5zM132.4 13.5h4V42h-4zM62.2 22.8h4.9c4.7 0 6.3 2.3 6.3 4.1 0 4.3-6.2 4.3-7.9 4.3h-2.2l7.6 8.6 2 2.1h6l-8.3-8.2c1.8 0 6.8-.9 6.8-6.8 0-1.9-.8-3.9-2.6-5.2-1.5-1.1-3.6-1.9-7.6-1.9h-9.4V42H62V22.8zM189.9 26.2c-.3-1.8-1.6-2.6-3.3-2.6-1.8 0-3.1 1-3.1 2.4 0 1.9 1.9 2.4 4 2.9 2 .5 7.5 1.8 7.5 6.8 0 3.7-3.1 6.7-8.3 6.7-3.2 0-8.7-1.7-8.8-7.3h4.5c.2 2.4 1.8 3.9 4.4 3.9 2.3 0 3.8-1.2 3.8-3 0-2-2-2.7-4.5-3.4-2.7-.8-7-1.9-7-6.3 0-3.1 3.1-6 7.8-6 3.4 0 7.6 2 7.6 6l-4.6-.1z"/><g><path d="M197.8 17.3c1.2 0 2.2.9 2.2 2.1 0 1.2-1 2.2-2.2 2.2-1.2 0-2.2-.9-2.2-2.1.1-1.3 1-2.2 2.2-2.2zm0 4c1 0 1.8-.8 1.8-1.9 0-1-.8-1.8-1.8-1.8s-1.8.8-1.8 1.9c0 1 .8 1.8 1.8 1.8zm-.8-3.1h.9c.6 0 .9.2.9.7 0 .4-.3.6-.7.7l.7 1.1h-.4l-.7-1.1h-.4v1.1h-.3v-2.5zm.4 1.1h.4c.3 0 .7 0 .7-.4 0-.3-.3-.4-.6-.4h-.5v.8z"/></g><g><path d="M76.7 53.6c.3.6.9.9 1.6.9.9 0 1.6-.5 1.6-1.4 0-2-3.6-.8-3.6-3.5 0-1.2 1.1-1.9 2.2-1.9.8 0 1.4.3 1.9.9l-.5.4c-.3-.5-.8-.7-1.4-.7-.8 0-1.6.4-1.6 1.3 0 2.1 3.6.8 3.6 3.5 0 1.3-1 2-2.2 2-.9 0-1.7-.3-2.3-1.1l.7-.4zM82.7 48.1c.2 0 .4.2.4.4s-.2.4-.4.4-.4-.2-.4-.4c-.1-.2.1-.4.4-.4zm-.3 2.2h.6v4.6h-.6v-4.6zM85 51.6v-1.3h.6v.8c.2-.5.8-.9 1.6-.9.6 0 1.2.3 1.4 1 .3-.7.9-1 1.5-1 1.4 0 1.7 1 1.7 2v2.7h-.6v-2.7c0-.7-.2-1.5-1.1-1.5-1.1 0-1.4.9-1.4 1.6v2.6h-.6v-2.7c0-.8-.3-1.4-.9-1.4-.9 0-1.6.6-1.6 1.9V55H85v-3.4zM93.7 50.3h.6v.8c.4-.6 1.1-.9 1.8-.9 1.4 0 2.4 1 2.4 2.4s-1 2.4-2.4 2.4c-.7 0-1.5-.3-1.8-.9v3h-.6v-6.8zm2.4 4.1c1.1 0 1.8-.8 1.8-1.9 0-1-.7-1.9-1.8-1.9s-1.9.8-1.9 1.9c0 1.1.8 1.9 1.9 1.9zM100.3 47.4h.6v7.5h-.6v-7.5zM104.3 56.3c-.2.6-.6 1-1.3 1-.2 0-.4 0-.6-.1l.1-.6c.2 0 .4.1.5.1.4 0 .6-.4.8-.8l.4-1.1-1.9-4.6h.7l1.5 3.8 1.5-3.8h.6l-2.3 6.1zM111.1 47.9h2c1.1 0 2.2.3 2.2 1.8 0 .7-.4 1.3-1.3 1.4.9.1 1.6.7 1.6 1.7 0 1.6-1.4 2-2.3 2h-2.2v-6.9zm.6 3h1.4c1.4 0 1.6-.7 1.6-1.2 0-1-.7-1.3-1.5-1.3h-1.4v2.5zm0 3.4h1.5c1.5 0 1.8-.8 1.8-1.3 0-1-.8-1.4-1.7-1.4h-1.6v2.7zM121.5 54c-.5.7-1.2 1-2 1-1.4 0-2.3-1-2.3-2.4s.9-2.4 2.3-2.4 2.1 1.1 2.1 2.1v.4h-3.8c0 .5.3 1.7 1.7 1.7.6 0 1.2-.3 1.5-.8l.5.4zm-.4-1.8c0-.8-.7-1.5-1.6-1.5-1.3 0-1.7 1.2-1.7 1.5h3.3zM125.6 50.8h-1.3v3c0 .4.2.6.6.6.2 0 .5-.1.7-.2v.5c-.2.1-.5.2-.8.2-.8 0-1.2-.5-1.2-1.2v-3h-1v-.5h1V49h.6v1.3h1.3v.5zM129.3 50.8H128v3c0 .4.2.6.6.6.2 0 .5-.1.7-.2v.5c-.2.1-.5.2-.8.2-.8 0-1.2-.5-1.2-1.2v-3h-1v-.5h1V49h.6v1.3h1.3v.5zM134.8 54c-.5.7-1.2 1-2 1-1.4 0-2.3-1-2.3-2.4s.9-2.4 2.3-2.4 2.1 1.1 2.1 2.1v.4h-3.8c0 .5.3 1.7 1.7 1.7.6 0 1.2-.3 1.5-.8l.5.4zm-.5-1.8c0-.8-.7-1.5-1.6-1.5-1.3 0-1.7 1.2-1.7 1.5h3.3zM136.6 51.6v-1.3h.6v.8c.3-.5.8-.9 1.4-.9h.3l-.1.6h-.2c-1 0-1.5.7-1.5 1.6v2.5h-.6v-3.3zM142.5 47.9h.7l1.7 6.2 1.8-6.2h.8l1.8 6.2 1.7-6.2h.7l-2 7h-.8l-1.8-6.2-1.8 6.2h-.8l-2-7zM153.6 48.1c.2 0 .4.2.4.4s-.2.4-.4.4-.4-.2-.4-.4.1-.4.4-.4zm-.3 2.2h.6v4.6h-.6v-4.6zM156 51.6v-1.3h.6v.8c.3-.5.8-.9 1.4-.9h.3l-.1.6h-.2c-1 0-1.5.7-1.5 1.6v2.5h-.5v-3.3zM163.5 54c-.5.7-1.2 1-2 1-1.4 0-2.3-1-2.3-2.4s.9-2.4 2.3-2.4 2.1 1.1 2.1 2.1v.4h-3.8c0 .5.3 1.7 1.7 1.7.6 0 1.2-.3 1.5-.8l.5.4zm-.5-1.8c0-.8-.7-1.5-1.6-1.5-1.3 0-1.7 1.2-1.7 1.5h3.3zM165.4 47.4h.6v7.5h-.6v-7.5zM172.1 54c-.5.7-1.2 1-2 1-1.4 0-2.3-1-2.3-2.4s.9-2.4 2.3-2.4 2.1 1.1 2.1 2.1v.4h-3.8c0 .5.3 1.7 1.7 1.7.6 0 1.2-.3 1.5-.8l.5.4zm-.4-1.8c0-.8-.7-1.5-1.6-1.5-1.3 0-1.7 1.2-1.7 1.5h3.3zM174 53.7c.2.5.8.8 1.3.8s1-.3 1-.8c0-1.3-2.7-.4-2.7-2.1 0-.9.8-1.3 1.6-1.3.7 0 1.3.3 1.6.9l-.5.3c-.2-.4-.5-.6-1.1-.6-.4 0-1 .3-1 .7 0 1.2 2.7.3 2.7 2.1 0 .9-.8 1.4-1.6 1.4s-1.5-.3-1.8-.9l.5-.5zM178.6 53.7c.2.5.8.8 1.3.8s1-.3 1-.8c0-1.3-2.7-.4-2.7-2.1 0-.9.8-1.3 1.6-1.3.7 0 1.3.3 1.6.9l-.5.3c-.2-.4-.5-.6-1.1-.6-.4 0-1 .3-1 .7 0 1.2 2.7.3 2.7 2.1 0 .9-.8 1.4-1.6 1.4s-1.5-.3-1.8-.9l.5-.5zM183.7 54c.3 0 .5.2.5.5s-.2.5-.5.5-.5-.2-.5-.5.2-.5.5-.5z"/></g><g><path class="st0" d="M31.1 25.3s-.3-1.7.5-2.4c.7-.7 2 .1 2 .1l3.6 2.1s2.9 1.7 3.6 1.8c.7.1 1.3-.2 1.6-.9.2-.5-.2-1.1-.3-1.3-.2-.3-.8-1.1-.8-1.1L38 20.3s-1.7-1.5-1.7-2.5c0-.6 2.2-2 2.2-2s2.3-1.2 4.5-2.5c2.3-1.3.8-3 .2-3.1-.7-.1-3.6.5-3.6.5s-3 .6-5.4.8c-2.4.1-3.2-1.6-3.2-1.6S29.9 8 29.4 7c-.5-.9-.7-1.1-1.5-.7-.6.3.4 2.5.4 2.5s.6 1.3.9 1.9c.3.6.4 1.1-.2 1.4-.6.3-1-.8-1-.8l-1.6-3s-.5-.8-.7-1.1C24.8 6 22.6 8.5 22.6 9c0 1.4 1.7 0 2.2.9.3.5.8 1.8 1 2.2.2.3 1.1 2.8-.6 3.6-1.8.7-9 4-18.4 4-3.3 0-4.8-.4-4.8-.4s-3.2-.9-1.3 1.8c0 0 1.3 1.6 1.7 2.9.6 2 .2 5.3-.2 6.4-.4 1.1-1.7 2.5-1.7 2.5S1.2 49.1.9 51c-.3 2 .2 3.6.2 3.6S1.2 56 3 57.1c1.3.8 1.4-.2 1.4-.9s-.8-1.7-1.3-2.3c-.5-.5-.3-1.5-.3-1.5l1.6-17.8s.4-1.8 1.5-.4c.9 1.1-.2 2.4-.2 2.4s.7 13 .7 14.8c0 2.1-.2 3.2 0 3.9.2.7 1.2 1.7 2.4 2.1 1.2.4 1-.6 1-.6s-.2-1.6-1.1-2c-.8-.3-.7-3.3-.7-3.3l.3-10.3s-.2-8.1 3.5-9.1c3.1-.8 9.3.5 9.3.5s4.4.7 5.4 4.2c1 3.9 2.4 15.8 2.4 15.8s1.2 6 5 4.9c.1 0 .3-.1.3-.1s1-.4-.6-1.5-2.1-1-2.8-4.7c-.7-3.7-1.1-14.3-1.1-15.1 0-.8-.2-2.4-.2-2.4s.2-1 .8-.2c.7.8 1.5 4.9 1.5 4.9s1.5 8.9 1.7 10.1c.2.8.6 4.3 2.8 6 1.7 1.3 4.1.4 4.1.4s.7-1.4-1.2-1.6c-1.7-.2-2.7-.8-3.3-2.8-.9-2-4.8-25.2-4.8-25.2z"/><path class="st1" d="M40.2 51.3c-.4-.7-3-5.7-2.8-9.9 0-.7.1-1.4.2-2.1.6-3.8.3-4.4-3.4-11.3l.6-1.1c3.7 6.9 4 7.5 3.4 11.3-.1.7-.2 1.4-.2 2.1-.2 4.3 2.5 9.4 2.8 10 2.3 4.2 6.3 7.4 9.6 7.4 1.4 0 2.5-.6 3.2-1.6-.6 1.7-1.9 2.8-3.8 2.8-3.3-.1-7.4-3.3-9.6-7.6z"/><path class="st2" d="M43.9 53.3c2.2-1 4.2-1.2 6.7-.6 2.7.7 3.8 2.3 2.9 3.8.5-1.1-1-2.4-3.7-3.1-2.5-.7-4-.7-5.9-.1z"/><path class="st3" d="M33.8 26.2s-8.6-6.4-9.7-10c-.2-.6-2.8.8-2.8.8s6.4 6.7 11.1 9.5c1.1.6 1.4-.3 1.4-.3z"/><path class="st4" d="M33.8 26.2s-8.6-6.4-9.7-10c-.2-.6-2.8.8-2.8.8s6.3 6.8 11.1 9.6c1 .5 1.4-.4 1.4-.4z"/><circle class="st5" cx="33.6" cy="26.8" r="1.2"/><g><path class="st2" d="M51.6 0l1.6.7-.8 1.9-4.5 7.9 3-8.5.7-2zM56.4 2.9L57.7 4l-1.4 1.5-6.8 6L55 4.4l1.4-1.5zM60.4 7.3l.8 1.5-1.8 1-8.4 3.4 7.6-4.9 1.8-1z"/></g></g></svg>