<svg xmlns="http://www.w3.org/2000/svg" viewBox="0 0 300 88.3"><path fill="#231F20" d="M129.7 31v17.3c0 7.9 3.5 10 8 10 5 0 8.4-3.2 8.4-10.2V31h6v32h-5.5v-3.5h-.1c-1.6 2.8-5.4 4.3-9.4 4.3-3.6 0-6.8-1.2-9.1-3.2-2.7-2.3-4.2-5.9-4.2-12.3V31h5.9zm55.4 10.6c-1-2-3.3-6-9-6-7.7 0-10.5 6.5-10.5 11.3 0 5.5 3.5 11.4 10.4 11.4 4.5 0 7.6-2.6 9.1-5.9h6.7c-2.4 7.1-8.7 11.4-15.8 11.4-10.5 0-16.4-8.6-16.4-16.9 0-8.7 6.4-16.8 16.5-16.8 9.1 0 14.5 6.8 15.7 11.5h-6.7zm68.2 6.5c0 7-3.4 10.2-8.4 10.2-4.4 0-8-2.1-8-10V31h-6v17.3c0 6.4 1.6 10 4.2 12.3 2.3 2 5.5 3.2 9.1 3.2 4 0 7.8-1.5 9.4-4.3h.1V63h5.5V31h-6v17.1zM214.8 46l11.6-15-7.5-.1L208 46.5l12.7 16.4h7.5m-29.5-42.7h6v42.7h-6zm-105.4 14h7.4c7 0 9.5 3.4 9.5 6.2 0 6.4-9.2 6.5-11.8 6.5h-3.3l11.4 12.8 3 3.2h9.1l-12.4-12.3c2.8 0 10.2-1.4 10.2-10.2 0-2.8-1.2-5.8-3.9-7.8-2.3-1.7-5.4-2.8-11.4-2.8h-14V63h6.2V34.2zm191.6 5.1c-.5-2.6-2.4-3.9-5-3.9-2.7 0-4.7 1.5-4.7 3.6 0 2.8 2.9 3.5 6 4.3 2.9.8 11.2 2.8 11.2 10.2 0 5.5-4.6 10-12.5 10-4.8 0-13.1-2.6-13.2-10.9h6.7c.3 3.6 2.6 5.8 6.6 5.8 3.4 0 5.7-1.8 5.7-4.5 0-3-3-4-6.7-5.1-4.1-1.3-10.6-2.8-10.6-9.4 0-4.7 4.7-9.1 11.7-9.1 5 0 11.4 3 11.4 9h-6.6zm11.8-13.4c1.8 0 3.3 1.4 3.3 3.2 0 1.9-1.5 3.2-3.3 3.2-1.8 0-3.3-1.4-3.3-3.2.1-1.8 1.6-3.2 3.3-3.2zm0 6c1.5 0 2.7-1.2 2.7-2.8 0-1.6-1.2-2.7-2.7-2.7s-2.7 1.2-2.7 2.8c0 1.5 1.2 2.7 2.7 2.7zm-1.2-4.6h1.4c.9 0 1.3.3 1.3 1.1 0 .7-.4 1-1 1l1.1 1.7h-.6l-1-1.6h-.7V31h-.5v-3.7zm.6 1.6h.6c.5 0 1 0 1-.6 0-.5-.4-.6-.8-.6h-.8v1.2zm-181 51.4c.5.9 1.4 1.3 2.4 1.3 1.3 0 2.4-.8 2.4-2.1 0-2.9-5.4-1.2-5.4-5.2 0-1.9 1.6-2.9 3.4-2.9 1.1 0 2.1.4 2.9 1.3l-.8.6c-.5-.7-1.1-1-2-1-1.3 0-2.4.6-2.4 2 0 3.1 5.4 1.3 5.4 5.2 0 1.9-1.6 2.9-3.3 2.9-1.4 0-2.6-.4-3.4-1.6l.8-.5zm8.9-8.2c.4 0 .7.3.7.7 0 .4-.3.7-.7.7-.4 0-.7-.3-.7-.7 0-.4.3-.7.7-.7zm-.5 3.4h.9v6.8h-.9v-6.8zm4 1.9c0-.5-.1-1.6-.1-1.9h.9c0 .5 0 1.1.1 1.2.4-.8 1.2-1.4 2.3-1.4.9 0 1.7.4 2.1 1.5.4-1 1.4-1.5 2.3-1.5 2.1 0 2.6 1.5 2.6 2.9v4.1h-.9v-4c0-1.1-.3-2.2-1.7-2.2-1.6 0-2.1 1.4-2.1 2.4v3.8h-.9v-4.1c0-1.3-.5-2.1-1.4-2.1-1.3 0-2.4.9-2.4 2.8v3.4h-.9v-4.9zm13-1.9h.9v1.2c.5-.9 1.7-1.4 2.7-1.4 2.1 0 3.6 1.5 3.6 3.6s-1.5 3.6-3.6 3.6c-1 0-2.2-.4-2.7-1.4v4.6h-.9V75.5zm3.7 6.2c1.7 0 2.7-1.3 2.7-2.8 0-1.5-1-2.8-2.7-2.8-1.6 0-2.9 1.3-2.9 2.8 0 1.5 1.3 2.8 2.9 2.8zm6.3-10.6h.9v11.2h-.9V71.1zm5.9 13.3c-.3.9-.9 1.4-1.9 1.4-.3 0-.6-.1-.9-.1l.1-.8c.3.1.5.2.8.2.7 0 .9-.6 1.1-1.1l.6-1.6-2.8-6.9h1l2.3 5.8 2.2-5.8h.9l-3.4 8.9zm10.2-12.6h3c1.6 0 3.4.4 3.4 2.8 0 1.1-.6 1.9-1.9 2.2 1.4.1 2.3 1.1 2.3 2.6 0 2.4-2.1 2.9-3.5 2.9h-3.3V71.8zm1 4.5h2c2 0 2.4-1.1 2.4-1.8 0-1.5-1-1.9-2.3-1.9h-2.2v3.7zm0 5.1h2.2c2.3 0 2.7-1.3 2.7-2 0-1.6-1.3-2.2-2.5-2.2h-2.4v4.2zm14.7-.4c-.7 1-1.7 1.5-3 1.5-2.1 0-3.5-1.5-3.5-3.6 0-2 1.4-3.6 3.4-3.6 2.1 0 3.2 1.6 3.2 3.2v.6h-5.7c0 .7.5 2.6 2.6 2.6.9 0 1.8-.5 2.3-1.2l.7.5zm-.7-2.7c0-1.2-1-2.2-2.4-2.2-1.9 0-2.5 1.9-2.5 2.2h4.9zm6.8-2h-2v4.5c0 .6.4 1 .9 1 .3 0 .7-.1 1-.2l.1.8c-.3.1-.8.2-1.2.2-1.3 0-1.8-.8-1.8-1.8v-4.5h-1.5v-.8h1.5v-2h.9v2h2v.8zm5.5 0h-2v4.5c0 .6.4 1 .9 1 .3 0 .7-.1 1-.2l.1.8c-.3.1-.8.2-1.2.2-1.3 0-1.8-.8-1.8-1.8v-4.5h-1.5v-.8h1.5v-2h.9v2h2v.8zm8.3 4.7c-.7 1-1.7 1.5-3 1.5-2.1 0-3.5-1.5-3.5-3.6 0-2 1.4-3.6 3.4-3.6 2.1 0 3.2 1.6 3.2 3.2v.6h-5.7c0 .7.5 2.6 2.6 2.6.9 0 1.8-.5 2.3-1.2l.7.5zm-.7-2.7c0-1.2-1.1-2.2-2.4-2.2-1.9 0-2.5 1.9-2.5 2.2h4.9zm3.4-.9c0-.5-.1-1.6-.1-1.9h.9c0 .5 0 1.1.1 1.2.4-.8 1.2-1.4 2.2-1.4.2 0 .3 0 .5.1l-.1.9c-.1 0-.3-.1-.3-.1-1.5 0-2.2 1.1-2.2 2.4v3.7h-.9v-4.9zm8.9-5.6h1l2.6 9.3 2.6-9.3h1.2l2.6 9.3 2.6-9.3h1l-3 10.5h-1.2l-2.6-9.3-2.6 9.3h-1.2l-3-10.5zm16.6.3c.4 0 .7.3.7.7 0 .4-.3.7-.7.7-.4 0-.7-.3-.7-.7 0-.4.3-.7.7-.7zm-.5 3.4h.9v6.8h-.9v-6.8zm4 1.9c0-.5-.1-1.6-.1-1.9h.9c0 .5 0 1.1.1 1.2.4-.8 1.2-1.4 2.2-1.4.2 0 .3 0 .5.1l-.1.9c-.1 0-.3-.1-.3-.1-1.5 0-2.2 1.1-2.2 2.4v3.7h-.9v-4.9zm11.3 3.6c-.7 1-1.7 1.5-3 1.5-2.1 0-3.5-1.5-3.5-3.6 0-2 1.4-3.6 3.4-3.6 2.1 0 3.2 1.6 3.2 3.2v.6h-5.7c0 .7.5 2.6 2.6 2.6.9 0 1.8-.5 2.3-1.2l.7.5zm-.7-2.7c0-1.2-1-2.2-2.4-2.2-1.9 0-2.5 1.9-2.5 2.2h4.9zm3.7-7.2h.9v11.2h-.9V71.1zm10 9.9c-.7 1-1.7 1.5-3 1.5-2.1 0-3.5-1.5-3.5-3.6 0-2 1.4-3.6 3.4-3.6 2.1 0 3.2 1.6 3.2 3.2v.6h-5.7c0 .7.5 2.6 2.6 2.6.9 0 1.8-.5 2.3-1.2l.7.5zm-.7-2.7c0-1.2-1-2.2-2.4-2.2-1.9 0-2.5 1.9-2.5 2.2h4.9zm3.5 2.2c.4.7 1.2 1.1 2 1.1s1.6-.5 1.6-1.3c0-1.9-4.1-.6-4.1-3.2 0-1.3 1.2-2 2.3-2 1.1 0 2 .4 2.4 1.3l-.8.5c-.3-.6-.8-1-1.6-1-.6 0-1.5.4-1.5 1.1 0 1.8 4.1.4 4.1 3.2 0 1.4-1.2 2.1-2.5 2.1-1.2 0-2.2-.4-2.8-1.4l.9-.4zm6.9 0c.4.7 1.2 1.1 2 1.1s1.6-.5 1.6-1.3c0-1.9-4.1-.6-4.1-3.2 0-1.3 1.2-2 2.3-2 1.1 0 2 .4 2.4 1.3l-.8.5c-.3-.6-.8-1-1.6-1-.6 0-1.4.4-1.4 1.1 0 1.8 4.1.4 4.1 3.2 0 1.4-1.2 2.1-2.5 2.1-1.2 0-2.2-.4-2.8-1.4l.8-.4zm7.6.5c.4 0 .7.3.7.7 0 .4-.3.7-.7.7-.4 0-.7-.3-.7-.7 0-.4.3-.7.7-.7z"/><path fill="#231F20" fill-rule="evenodd" d="M46.7 37.9s-.4-2.5.7-3.6 3 .1 3 .1l5.4 3.1s4.3 2.5 5.4 2.7c1 .1 2-.3 2.4-1.3.3-.8-.3-1.7-.5-2-.3-.5-1.2-1.6-1.2-1.6L57 30.4s-2.5-2.3-2.6-3.7c-.1-.9 3.3-3 3.3-3s3.4-1.7 6.8-3.7c3.4-1.9 1.3-4.5.2-4.7-1-.2-5.5.8-5.5.8s-4.6.9-8.1 1.1c-3.5.2-4.7-2.4-4.7-2.4s-1.7-2.9-2.4-4.3-1.1-1.7-2.2-1.1c-.9.5.6 3.7.6 3.7s.9 2 1.3 2.9c.4.9.6 1.6-.3 2.1-.8.4-1.5-1.2-1.5-1.2l-2.5-4.5s-.8-1.2-1.1-1.6c-1.4-1.7-4.7 2-4.7 2.7 0 2 2.6 0 3.3 1.4.4.8 1.3 2.7 1.5 3.2.2.5 1.7 4.2-.9 5.3-2.6 1.1-13.5 5.9-27.6 5.9-4.9 0-7.3-.6-7.3-.6s-4.8-1.4-2 2.7c0 0 2 2.4 2.6 4.4 1 3.2.4 8.1-.3 9.8-.7 1.7-2.6 3.7-2.6 3.7s1.1 24.3.6 27.2c-.5 3 .4 5.4.4 5.4s.2 2.2 2.8 3.8c2 1.3 2.1-.3 2.1-1.4 0-1-1.2-2.6-2-3.4-.4-.7-.2-2.2-.2-2.2L6.3 52s.6-2.7 2.3-.6c1.4 1.7-.3 3.5-.3 3.5S9.4 74.4 9.4 77c0 3.1-.3 4.8-.1 5.9.3 1 1.8 2.5 3.6 3.1 1.8.6 1.6-.9 1.6-.9s-.3-2.4-1.7-3c-.9-.4-.8-4.8-.8-4.8l.5-15.5s-.4-12.2 5.2-13.7c4.6-1.3 14 .8 14 .8s6.6 1 8 6.3c1.5 5.8 3.6 23.6 3.6 23.6s1.8 9 7.5 7.4c.2-.1.4-.1.4-.1s1.5-.6-1-2.2-3.1-1.6-4.2-7.1-1.6-21.4-1.7-22.7c-.1-1.3-.3-3.6-.3-3.6s.3-1.5 1.2-.4c1 1.2 2.2 7.4 2.2 7.4s2.2 13.4 2.6 15.2c.2 1.2.9 6.5 4.2 9 2.5 1.9 6.2.6 6.2.6s1-2.1-1.9-2.4c-2.6-.3-4-1.3-5-4.2-1-3-6.8-37.8-6.8-37.8z" clip-rule="evenodd"/><path fill="#FF5000" stroke="#FF5000" stroke-width=".14" stroke-miterlimit="3.864" d="M60.3 77c-.5-1-4.4-8.6-4.2-14.9 0-1.1.2-2.1.4-3.2.9-5.7.5-6.7-5.1-17l.9-1.7c5.5 10.3 6 11.3 5.1 17-.2 1.1-.3 2.1-.4 3.2-.2 6.4 3.8 14.1 4.2 14.9 3.4 6.3 9.5 11.2 14.5 11.2 2.2 0 3.8-.9 4.9-2.4-.9 2.5-2.8 4.1-5.7 4.1-5.1 0-11.3-4.8-14.6-11.2z"/><path fill="#FF5000" d="M65.9 79.9c3.3-1.5 6.2-1.9 10-.9 4.1 1 5.7 3.4 4.4 5.7.7-1.7-1.5-3.7-5.6-4.7-3.7-.9-6-1-8.8-.1z"/><g clip-rule="evenodd"><path fill="#FF5000" fill-rule="evenodd" d="M50.7 39.3s-12.9-9.7-14.5-15c-.3-.9-4.2 1.1-4.2 1.1s9.6 10 16.6 14.3c1.6 1 2.1-.4 2.1-.4z"/><path fill="none" stroke="#FF5000" stroke-width=".187" stroke-miterlimit="3.864" d="M50.7 39.3s-12.9-9.7-14.5-15c-.3-.9-4.2 1.1-4.2 1.1s9.5 10.2 16.6 14.3c1.6 1 2.1-.4 2.1-.4z"/></g><circle cx="50.4" cy="40.3" r="1.8" fill="none" stroke="#231F20" stroke-width=".934" stroke-miterlimit="3.864"/><path fill="#FF5000" d="M77.4 0l2.4 1-1.2 2.8-6.8 11.8 4.5-12.8L77.4 0zm7.3 4.4l1.9 1.7-2.1 2.2-10.2 9 8.3-10.7 2.1-2.2zm5.9 6.5l1.3 2.2-2.7 1.5-12.6 5.2 11.3-7.4 2.7-1.5z"/></svg>