<svg id="Runtastic" xmlns="http://www.w3.org/2000/svg" viewBox="0 0 200 36.9"><style>.st0{display:none;fill:#FFFFFF;} .st1{fill:#007AFF;}</style><path class="st0" d="M-176.5-71.8h552.6V88.5h-552.6V-71.8z"/><path id="Logo" class="st1" d="M70.6 27.7c2.7 0 4.7-2 5.2-5.3l1.6-11.8h4.7l-2.9 20.9h-4.7l.2-1.9-.1.1c-1.4 1.4-3.3 2.2-5.4 2.2-4.2 0-6.9-3-6.9-7.6 0-.3 0-1 .2-2.1l1.6-11.7h4.7L67 23v1c.1 2.4 1.3 3.7 3.6 3.7M96 10c-2.2 0-4 .7-5.6 2.2l-.2.1.3-1.9h-4.6L83 31.3h4.8l1.6-11.6c.5-3.5 2.5-5.6 5.5-5.6 2.2 0 3.6 1.5 3.6 3.9v1.1l-1.7 12.1h4.7c.7-4.8 1.1-8.2 1.4-10 .1-1 .2-1.6.2-1.7.1-1 .2-1.7.2-2.1-.1-4.4-2.9-7.4-7.3-7.4m16.8-5.3h-4.7l-2.6 18.8c-.4 2.9 0 5 1.1 6.3 1 1.2 2.6 1.7 4.9 1.7.9 0 1.8 0 2.6-.1l.6-4.2h-1.5c-1.4 0-2.2-.2-2.6-.7-.5-.6-.6-1.4-.4-3.2l1.2-8.6h5l.6-4.3h-5c-.1.1.8-5.7.8-5.7zm40.6 11.9l3.3-3.1c-1.9-2.3-4.5-3.4-7.8-3.4-2.3 0-4.3.6-5.9 1.8-1.6 1.2-2.3 2.8-2.3 4.8 0 3.1 1.7 5.1 5.1 6l3.1.9c1.6.5 2.4 1.2 2.4 2.1 0 1.5-1.2 2.3-3.6 2.3-2.3 0-4.3-1-5.7-2.9l-3.3 2.9c2 2.6 4.8 4 8.4 4 5.5 0 8.9-2.6 8.9-6.6 0-3-1.8-5.2-5.1-6.1l-3.6-1c-1.3-.3-1.9-1-1.9-2 0-1.2 1.3-2.1 3.1-2.1 1.9-.1 3.6.7 4.9 2.4m13.1-11.9h-4.7l-2.6 18.8c-.4 2.9 0 5 1.1 6.3 1 1.2 2.6 1.7 4.9 1.7.9 0 1.8 0 2.6-.1l.6-4.2h-1.5c-1.4 0-2.2-.2-2.6-.7-.5-.6-.6-1.4-.4-3.2l1.2-8.6h5l.6-4.3h-5l.8-5.7zm10.7-3.2c-.8 0-1.6.3-2.1.9-.6.5-.9 1.3-.9 2.1s.3 1.6.9 2.2c.6.6 1.3.9 2.1.9s1.6-.3 2.1-.9c.6-.6.9-1.3.9-2.2 0-.8-.3-1.5-.9-2.1-.5-.6-1.3-.9-2.1-.9m-1.3 29.9l2.9-20.9h-4.7l-2.9 20.9h4.7zm14.1-3.8c-2.9 0-5-2.3-5-5.6 0-2.1.7-3.9 2-5.4 1.3-1.5 2.9-2.2 4.8-2.2 2.2 0 3.4 1.1 4.7 2.9L200 14c-1.8-2.7-4.4-3.9-8.1-3.9-3.2 0-6 1.2-8.3 3.5-2.3 2.3-3.5 5.2-3.5 8.6 0 2.9.9 5.2 2.6 7.1 1.7 1.8 4 2.7 6.6 2.7 3.9 0 7.2-1.4 9.5-4.3l-2.9-3.2c-1.9 2.2-3.6 3.1-5.9 3.1M127.5 10c2.6 0 4.7 1.1 6.1 2.6l.3-2h4.6l-3 20.9h-4.6l.2-1.6c-1.6 1.2-3.6 2.1-6.2 2.1-2.4 0-4.3-.9-5.9-2.7-1.6-1.9-2.3-4.1-2.3-6.9 0-3.4 1-6.3 3.1-8.6 2.1-2.6 4.6-3.8 7.7-3.8m3.2 15.4c1.2-1.5 1.8-3.3 1.8-5.4 0-3.6-1.8-5.7-4.9-5.7-1.7 0-3.1.7-4.4 2.3-1.3 1.5-1.9 3.3-1.9 5.6 0 3.3 1.8 5.4 4.5 5.4 2.1 0 3.8-.7 4.9-2.2M48 19.9c-.4 2.8-1.6 11.5-1.6 11.5h4.7l1.2-8.2c.4-3 .6-8.8 8.4-8.2l.7-4.7c-10.4-.9-13 6.2-13.4 9.6M8.9 12l6.6-6.5c1.7-1.7 4.6-1.7 6.3 0l.2.2 3-2.9-.3-.3c-3.4-3.3-8.7-3.3-12-.1L5.9 9l3 3zm16-3.1l6.4 6.6c1.7 1.7 1.7 4.6 0 6.3l-.3.2 2.9 3 .4-.4c3.3-3.3 3.3-8.6.1-11.9L27.8 6l-2.9 2.9zm-13 19l-6.3-6.5c-1.7-1.7-1.7-4.6 0-6.3l.2-.1-2.9-3-.4.3c-3.3 3.3-3.3 8.6-.1 11.9l6.5 6.6c0 .1 3-2.9 3-2.9zM28 25l-6.5 6.4c-1.7 1.7-4.6 1.7-6.3 0l-.3-.4-3 2.9.5.5c3.3 3.3 8.6 3.3 11.9.1L31 28l-3-3z"/></svg>