<svg version="1" xmlns="http://www.w3.org/2000/svg" width="780" height="342.667" viewBox="0 0 585.000000 257.000000"><path d="M168.5 14C148.8 18 64.8 37.3 62.3 38.5c-1.8.8-3.9 2.5-4.7 3.7C55.5 45.6 23 150.1 23 153.7c0 1.7 1.1 4.7 2.5 6.7 2.2 3.2 27 30.6 65.4 72.1 5.1 5.5 11 11 13.3 12.1l4 2.1 10.7-2.3c5.8-1.3 31.5-7 57-12.8 39.8-9 46.8-10.8 48.8-12.9 1.9-1.8 6.4-15 19.3-56.3 9.3-29.6 17-55.3 17-57 0-2-1.2-4.9-3.2-7.8-4.6-6.4-73.7-81-77-83-2.8-1.7-5.9-1.9-12.3-.6zm10.4 12.7c1.6 1.6 11.1 11.8 21.2 22.8s24.2 26.3 31.4 34c16.8 18 18.5 20.1 18.5 23.2 0 2.1-11.7 40.7-28.2 93.6-2.1 6.6-3.8 10.3-5.2 11.2-1.2.8-20.3 5.4-42.6 10.4-22.3 4.9-44.5 9.9-49.3 11-4.8 1.2-10.6 2.1-12.9 2.1-3.7 0-4.7-.6-9.7-5.7-11.9-12.2-65.9-71.1-67.6-73.6-1.7-2.7-1.6-3 6.6-29.4 4.5-14.8 8.8-27.4 9.5-28.2 1.4-1.5 1.6.9 4.3 44.4 1.2 20 2.2 28.7 3.2 30.3.9 1.6 13.6 8.5 38.1 20.8 29 14.5 37.6 18.4 40.7 18.4 3.4 0 7.5-2.3 30.8-17.6 38.9-25.5 40.5-26.6 42.7-29.7 2.5-3.4 2.5-3.4-.7-52.9-2.2-32.5-2.5-34.9-4.5-37-1.1-1.3-18.8-10.6-39.1-20.8C130 36 129 35.6 125.3 36.6c-2.1.5-18.4 10.6-36.1 22.3-17.8 11.8-32.5 21.2-32.7 20.9-.6-.6 5.9-22.5 8-27.5 2-4.6 6.6-6.5 26-10.7 9.4-2 30.5-6.7 47-10.5s31.9-7 34.2-7c3.4-.1 4.9.5 7.2 2.6zm-42.7 19.9l7.2 3.6-30.3 11.4c-16.7 6.3-30.8 11.3-31.3 11.2-1.5-.5 43-29.8 45.3-29.8 1.1 0 5.2 1.6 9.1 3.6zm39 19.2c12.2 6 23 11.7 23.9 12.8 2.1 2.5 3.7 19.3 1.7 17.7-5.2-4.1-46.7-38-48.3-39.5-1.1-1-1.4-1.8-.8-1.8.6 0 11.2 4.9 23.5 10.8zm-29.6-5.3c4.2 1.7 28.1 21.8 26.6 22.3-.9.3-34.3-14.2-41.5-18-2.4-1.2-.7-3.5 3.7-4.7 4.6-1.4 7.3-1.3 11.2.4zM117.8 68c-.3.9-39.4 29-40.3 29-1.1 0-.4-7.3.9-10.3 2.3-5.4 5.7-7.6 22.2-13.7 17.1-6.3 17.7-6.5 17.2-5zm16.9 6.1c3 1.7 5.2 3.3 5 3.6-.5.4-9.7-1-15.7-2.3l-2.5-.6 2.4-1.9c3.1-2.6 4.4-2.4 10.8 1.2zm-66.8 36.2C65 127.8 62.4 142 62 142c-.4 0-1.2-9.8-1.9-21.8-.6-11.9-1.4-23.4-1.6-25.4-.7-5.4 1.1-8.4 7.8-12.9 3.3-2.1 6.2-3.8 6.3-3.6.2.2-1.9 14.6-4.7 32zm72.6-25.2c9.9 1.7 18.9 3.7 20.1 4.4 2.5 1.6 15.4 36.3 15.4 41.3 0 3.4-2.5 7-16.3 23.2-4.9 5.8-10.2 11.1-11.8 11.9-2.6 1.3-4.4 1.2-17.6-1.2-8.2-1.5-16.8-3-19.3-3.4-7.9-1.1-10.5-4.9-17.4-25.3-4.1-12.1-5.7-18.3-5.3-20 .9-3.2 26.1-33.7 28.4-34.3 1-.2 2.7-.3 3.8-.1 1.1.2 10.1 1.8 20 3.5zm33.3 6.8c1.9 1.1 2.8 5.4 2.3 10.9l-.3 4.7-2.9-7.5c-1.6-4.1-2.9-7.8-2.9-8.2 0-1 2.2-1 3.8.1zm16 4.1c5 4 5 4 2.2 23-2.7 17.9-3.1 20-3.9 20-.6 0-5.1-41.8-5.1-46.9 0-.9.4-1 1.3-.4.6.5 3.1 2.5 5.5 4.3zm-98.9 4.6c-4.8 5.7-6.5 7.2-7.1 6-1.7-3.1 2.3-8.5 8.7-11.9 5.1-2.7 4.9-2-1.6 5.9zm113.6 32.8c1.4 22.2 1.4 25.2 0 27.2-1.4 2.2-13.4 11-13.9 10.2-.2-.2 4.3-28.6 9.5-60.3 1.8-10.3 2.5-6.2 4.4 22.9zm-125.5.1c1.2 13 2 23.8 1.8 24.1-1.1 1-11.8-8.9-11.8-11 0-3.6 6.3-36.6 7-36.6.4 0 1.7 10.6 3 23.5zm11.8 14.2c1.8 4.8 3 8.9 2.7 9.1-.2.2-1.5.2-2.9-.2-1.9-.5-2.6-1.4-3-3.9-1-6.3-1.3-13.7-.6-13.7.4 0 2.1 3.9 3.8 8.7zm90.2-6.2c0 5.1-4.3 10.1-10.6 12.5-3.1 1.2-2.8.6 4.1-7.8 5.2-6.3 6.5-7.3 6.5-4.7zm4.5 17.2c-.8 4.3-2 7.2-3.2 8.3-2.3 1.9-33 13.3-34.4 12.8-.9-.3 36.9-27.8 38.2-27.8.4 0 .1 3-.6 6.7zM89.3 174c12.5 10.2 22.2 18.7 21.6 18.9-1.8.6-44.9-21.1-46.5-23.4-.9-1.2-1.4-4.6-1.4-9.3 0-6.9.1-7.2 1.8-6 1 .7 12 9.6 24.5 19.8zm22.9.1c11.1 5 21.2 9.6 22.2 10.1 1.7.9 1.1 1.4-4.3 3.4-3.5 1.3-7.3 2.4-8.4 2.4-2.6 0-33.6-24.9-31-25 .6 0 10.3 4.1 21.5 9.1zm22.1-2c4.2.6 7.7 1.5 7.7 1.9 0 .5-1.3 1.3-3 1.8-3.2 1.2-6.2.6-12.2-2.4-3.9-1.8-5.3-4-2-3 .9.2 5.2 1 9.5 1.7zM182 176c0 .9-36.6 25.6-43 29-2 1.1-3.4.7-10.1-2.6-4.3-2.1-7.7-4-7.4-4.2.3-.3 58.9-22.8 60.3-23.1.1-.1.2.4.2.9zM366 20.8c-1.8 1.4-2.4 3.2-2.8 7.5-.3 3.9-.9 5.7-1.8 5.7-.8 0-1.4.9-1.4 2s.7 2 1.5 2c1.3 0 1.5 2.2 1.5 13.5V65h6V38h9v11.8c0 13.3.8 15.2 6.8 15.2 2.5 0 3.2-.4 3.2-1.9 0-1.2-.9-2.1-2.5-2.5-2.5-.6-2.5-.7-2.5-11.6 0-10.3.1-11 2-11 1.3 0 2-.7 2-2s-.7-2-2-2c-1.7 0-2-.7-2-4 0-3.6-.2-4-2.5-4-2.2 0-2.5.4-2.5 4v4h-9v-5c0-4.7.2-5 2.5-5 2 0 2.5-.5 2.5-2.5 0-2.1-.5-2.5-2.9-2.5-1.6 0-3.9.8-5.1 1.8zM306.9 23.8c-2.5 2.3-3.3 3.8-3.6 7.8-.5 4.3-.2 5.4 2.1 8.1 1.6 1.9 4.7 3.8 7.6 4.8 10 3.3 12.8 8.7 7.4 14.2-2.1 2.1-3.2 2.4-6.1 2-2-.4-4.6-1.6-5.9-2.8-1.5-1.4-2.9-1.9-4.3-1.4-2.9.9-2.6 2.9.9 5.8 3.6 3.1 9.5 4.2 14.8 2.7 5.7-1.5 8.2-5 8.2-11.6 0-6.8-3-10.6-10.3-13-7.1-2.3-10-5-9.3-8.8.4-1.6 1.1-3.5 1.7-4.3 1.5-1.8 8.9-1.7 11.7.2 1.7 1.3 2.6 1.4 4.4.4l2.2-1.2-3.2-2.8c-2.8-2.5-4-2.9-9.2-2.9-5.1 0-6.4.4-9.1 2.8zM340.3 34.4c-5.3 2.4-6.8 5.8-6.8 15.7.1 10.2 1.6 13.2 7.4 15 4.8 1.4 10.4-.2 12.8-3.7 2-3.2 2.8-14.7 1.4-20.2-1.8-6.4-8.5-9.5-14.8-6.8zm8.2 5c1.6 1.1 2 2.9 2.3 8.8.4 10.5-1.9 14-8.3 12.4-3.3-.8-4.9-6.3-4.1-13.4 1-8.3 5.1-11.5 10.1-7.8zM439.7 34c-3.5 1.1-5.7 2.8-5.7 4.5 0 2.2 2.8 2.5 6 .7 2.7-1.5 3.2-1.6 5.7-.2 2 1.1 2.9 2.5 3.1 4.8l.3 3.2h-5.6c-4.9 0-6 .4-8.6 2.9-7.7 7.7 1.3 19.7 11 14.8 1.7-.9 3.1-1.1 3.1-.6 0 .5 1.1.9 2.5.9h2.5V52.2c0-14.5-.7-16.5-6.8-18.2-4.2-1.1-3.7-1.1-7.5 0zm9.3 20.2c0 5.6-5 8.5-10.1 5.8-2.5-1.4-2.6-6.5-.1-7.9.9-.6 3.6-1.1 6-1.1 4.1 0 4.2.1 4.2 3.2zM471 33.7c-.8.3-2.3 1.2-3.2 2.1-1.6 1.4-1.8 1.3-1.8-.1 0-1.1-.8-1.7-2.5-1.7H461v31h5V53.7c0-12.8.9-14.7 6.8-14.7 2.7 0 3.2-.4 3.2-2.4 0-1.8-2.1-4.1-3.3-3.5-.1 0-.9.3-1.7.6zM487.5 33.7c-7.6 1.9-11 17.6-6 27.4 2.6 4.9 10.5 6.1 16.3 2.3 4.7-3 1.3-6.5-3.6-3.7-4 2.3-7.7 1.1-9.1-2.8-2-5.8-1.9-5.9 7.4-5.9h8.5v-5.3c0-6.2-1.8-9.3-6.6-11.3-3.5-1.5-3.6-1.5-6.9-.7zM494 40c1.1 1.1 2 3.1 2 4.5 0 2.4-.3 2.5-5.9 2.5-5.8 0-5.8 0-5.3-2.8 1-5.9 5.5-7.9 9.2-4.2zM390 34.6c0 .6 6.4 24.7 7.6 28.7.4 1.3 1.4 1.7 3.2 1.5 2.3-.3 2.8-1.1 5.3-10.7 1.5-5.7 3-10.5 3.2-10.7.2-.3.7 1 1.1 2.8.3 1.8 1.6 6.8 2.7 11 2 7.3 2.3 7.8 4.8 7.8s2.9-.5 3.9-4.8c.6-2.6 2.5-9.5 4.1-15.5l2.9-10.7h-2.7c-2.7 0-2.8.3-5 10.2-1.3 5.7-2.6 10.9-3 11.6-.4.7-1.5-2.2-2.5-6.5-3.6-15.9-3.4-15.5-6.3-15.1-2.4.3-2.9 1-4.5 7.8-1.1 4.1-2.4 9.3-3 11.5l-1.1 4-1.9-8C395.1 34 395.2 34 392.5 34c-1.4 0-2.5.3-2.5.6zM304 120v22h24v-2.5c0-2.5-.1-2.5-9-2.5h-9v-15h7.5c7.3 0 7.5-.1 7.5-2.5s-.2-2.5-7.5-2.5H310v-13.9l8.8-.3c8.2-.3 8.7-.4 9-2.6.3-2.2.2-2.2-11.7-2.2H304v22zM389 100.5c0 2 .5 2.5 2.5 2.5s2.5-.5 2.5-2.5-.5-2.5-2.5-2.5-2.5.5-2.5 2.5zM504 100.5c0 2 .5 2.5 2.5 2.5s2.5-.5 2.5-2.5-.5-2.5-2.5-2.5-2.5.5-2.5 2.5zM342 110.7c-.8.3-2.3 1.2-3.2 2.1-1.6 1.4-1.8 1.3-1.8-.1 0-1.1-.8-1.7-2.5-1.7H332v31h2.4c2.4 0 2.4-.1 2.8-12.1.3-10.6.5-12.2 2.2-13.5 2.7-1.9 5.2-1.8 7.6.6 1.8 1.8 2 3.3 2 13.5V142h5v-26.2l-2.9-2.9c-2.8-2.8-5.7-3.5-9.1-2.2zM365.2 111c-3.4 1.4-5.2 6.8-5.2 15.4 0 8 .8 11.3 3.5 13.9 2.1 2.1 8.3 2.2 11.3.1 2.1-1.4 2.2-1.4 2.2 1 0 7-4.9 11.2-9.5 8.2-2.5-1.7-6.5-1.4-6.5.4 0 .5 1.2 1.8 2.6 2.9 3.6 2.8 10.2 2.8 13.7.1 3.8-3 4.7-7.7 4.7-25.8V111h-2.4c-1.3 0-2.6.5-2.8 1.2-.3.8-1.1.7-2.8-.5-2.7-1.9-5.3-2.1-8.8-.7zm8.5 4.8c3.3 2.1 4.3 11.9 1.9 17.7-1.2 2.9-2 3.5-4.5 3.5-4.4 0-6.1-3.1-6.1-11 0-4.3.5-7.3 1.6-8.8 1.5-2.2 4.8-2.9 7.1-1.4zM411 110.7c-.8.3-2.3 1.2-3.2 2.1-1.6 1.4-1.8 1.3-1.8-.1 0-1.1-.8-1.7-2.5-1.7H401v31h5v-11.5c0-10.2.2-11.7 2-13.5 2.4-2.4 4.9-2.5 7.6-.6 1.7 1.3 1.9 2.9 2.2 13.5.4 12 .4 12.1 2.8 12.1h2.4v-12c0-13.4-1.2-17.4-5.6-19-2.8-1.1-4.1-1.1-6.4-.3zM435.5 110.9c-5.2 2.2-8.1 10.5-6.9 20 1 7.7 4.4 11.1 11.1 11.1 4 0 5.4-.5 7.4-2.6 2.3-2.5 2.3-2.6.5-3.9-1.6-1.2-2.1-1.1-3.9.6-4.1 3.8-8.8 1.6-10.2-4.9l-.7-3.2H450v-5c0-6.5-2.1-10.5-6.1-11.9-3.7-1.3-5.6-1.3-8.4-.2zm7.7 5.8c1 .9 1.8 2.9 1.8 4.5 0 2.7-.1 2.8-5.5 2.8s-5.5 0-5.5-2.9c0-5.4 5.3-8 9.2-4.4zM462.3 111c-7.5 3-9.4 22.9-2.8 28.7 3.5 3.1 11.2 3.2 14.3.3 1.2-1.2 2.2-2.5 2.2-3.1 0-1.8-2.9-2.1-5.2-.5-4.4 3.1-8.4 1.2-9.7-4.7l-.9-3.7h18.1l-.6-4.8c-.3-2.6-1.1-6-1.8-7.6-2.2-4.7-8.2-6.7-13.6-4.6zm7.5 4.8c1.4 1 3.3 6.8 2.4 7.6-.3.3-2.9.6-5.9.6-5.1 0-5.3-.1-5.3-2.7 0-4.8 4.9-7.9 8.8-5.5zM491.6 112.1c-2.1 1.7-2.6 1.8-2.6.5 0-1-.9-1.6-2.5-1.6H484v31h5v-11.3c0-12.7.9-14.7 6.7-14.7 2.5 0 3.2-.5 3.5-2.5.3-1.3.3-2.7 0-3-1.2-1.2-5.1-.4-7.6 1.6zM523.8 111.6c-1.6.8-2.8 1-2.8.4 0-.5-1.1-1-2.5-1H516v31h4.9l.3-12.2c.3-12 .3-12.2 2.9-13.7 2.4-1.3 2.9-1.3 5.3.2 2.6 1.7 2.6 1.9 2.6 13.7v12h5v-12.9c0-7.1-.3-13.7-.6-14.6-.8-1.9-5.5-4.5-8.1-4.5-1 .1-3 .8-4.5 1.6zM548.3 111.2c-3.4 1.6-4.8 6.4-4.8 16 0 7.2.3 9.1 2.1 11.5 2.6 3.5 9.5 4.5 12.5 1.7 1.8-1.6 1.9-1.6 1.9 1.9 0 4.9-.9 6.7-3.7 7.8-1.7.6-3.3.5-5.3-.6-5.2-2.7-8.3.7-3.5 3.9 5.4 3.5 14.4 1.1 16.4-4.5.6-1.9 1.1-10.4 1.1-20.5V111h-2.5c-1.4 0-2.5.4-2.5.9 0 .6-1.2.3-2.7-.5-3.2-1.6-5.9-1.7-9-.2zm10.1 6c1.1 1.5 1.6 4.5 1.6 8.8 0 7.8-1.7 11-5.9 11-1.6 0-3.3-.6-3.9-1.3-2.8-3.4-2.6-16.2.4-19.2 2.2-2.2 6-1.8 7.8.7zM389 126.5V142h5v-31h-5v15.5zM504 126.5V142h5v-31h-5v15.5zM334 193.3c0 23.4.2 24.2 5.8 25.3 2.9.6 3.2.4 3.2-1.9 0-1.6-.7-2.6-2-3-1.9-.5-2-1.4-2-21.1V172h-5v21.3zM376.7 172.7c-.4.3-.7 10.9-.7 23.5V219h2.5c1.6 0 2.5-.6 2.5-1.6 0-1.4.2-1.4 2.2 0 2.6 1.9 7.1 2.1 10 .5 3-1.6 4.8-7.1 4.8-14.9 0-13.5-5.3-19-14-14.5l-3 1.6V181c0-8.1-.2-9-1.8-9-1 0-2.2.3-2.5.7zm15 22.3c1.6 3.2 1.6 12.8 0 16-1 1.9-2 2.5-4.7 2.5s-3.7-.6-4.8-2.5c-1.6-3.2-1.2-15.1.7-17.4 2.1-2.5 7.3-1.7 8.8 1.4zM310.5 175.4c-5.6 2.4-6.9 5.8-7.3 18.6-.4 13 .6 18.6 4.3 22 4.9 4.6 16.6 3.5 19.5-1.9 1.5-2.9 1.2-3.8-1.1-4.4-1.6-.4-2.8.1-4.1 1.9-2.5 3.1-7.9 3.3-10.8.4-1.8-1.8-2-3.3-2-15.4 0-13.3 0-13.5 2.6-15.5 3.6-2.8 7-2.6 10 .4 1.7 1.7 3.2 2.4 4.5 2 2.5-.8 2.4-2.6-.2-5.4-3.9-4.1-9.8-5.2-15.4-2.7zM348 200.5c0 13.1.1 13.7 2.5 16 2.8 2.9 8 3.3 11.1 1 2.5-1.9 3.4-1.9 3.4 0 0 .8.9 1.5 2 1.5 1.9 0 2-.7 2-16 0-15-.1-16-1.9-16-1.7 0-1.9 1-2.2 11.8-.4 13.1-1.3 15.2-6 15.2-5.2 0-5.9-1.9-5.9-15.1V187h-5v13.5z"/></svg>