<?xml version="1.0" encoding="utf-8"?>
<!-- Generator: Adobe Illustrator 19.2.1, SVG Export Plug-In . SVG Version: 6.00 Build 0)  -->
<svg version="1.1" id="Calque_1" xmlns="http://www.w3.org/2000/svg" xmlns:xlink="http://www.w3.org/1999/xlink" x="0px" y="0px"
	 viewBox="0 0 316.5 106.3" style="enable-background:new 0 0 316.5 106.3;" xml:space="preserve">
<style type="text/css">
	.st0{fill:#FFFFFF;}
	.st1{fill:#E74E0F;}
</style>
<g>
	<path class="st0" d="M127.2,11.9c-4.4-1.3-8.3-1.9-11.7-1.9c-3.2,0-5.2,0.9-6.2,2.5c-1.4,1.7-1.5,5.3-1.5,11v0.2h16.4v11.6h-16.5
		v52.9H96.4h-0.2l0-52.9H88V23.7h8.2v-1.2c0-8.1,1.5-13.9,4.5-17.4c3-3.5,8-5.1,14.8-5.1c4.4,0,9.3,0.8,14.7,2.5L127.2,11.9z"/>
	<path class="st0" d="M216.1,88.2V35.3h-18.5V23.7h29.7v63.6v0.9H216.1z M221.8,0c2,0,3.8,0.7,5.2,2.2c1.4,1.4,2.1,3.2,2.1,5.2
		c0,2-0.7,3.9-2.1,5.3c-1.4,1.4-3.2,2.1-5.2,2.1h0c-1.9,0-3.6-0.8-5-2.2c-1.4-1.4-2.2-3.2-2.2-5.2c0-2,0.7-3.7,2.2-5.2
		C218.2,0.8,219.9,0,221.8,0L221.8,0z"/>
	<path class="st0" d="M241.5,88.2V23.7h11.1v10.2c4.9-7.7,11.1-11.7,18.6-11.7c4.9,0,9.6,1.1,14.2,3.3l0.8,0.4l-4.5,10.7l-0.8-0.4
		c-4.1-1.8-7.5-2.6-10.3-2.6c-2.6,0-5.1,0.7-7.7,2.2c-2.5,1.5-4.9,3.7-7.1,6.6c-1.8,2.4-2.9,4-3.1,4.5c0,0,0,0,0,0v41.3H241.5z"/>
	<polygon class="st1" points="25.5,16.5 25.5,5 0,5 -0.1,106.3 25.5,106.3 25.5,94.8 11.5,94.8 11.5,16.5 	"/>
	<polygon class="st1" points="290.9,94.8 290.9,106.3 316.4,106.3 316.5,5 290.9,5 290.9,16.5 304.9,16.5 304.9,94.8 	"/>
	<rect x="135.9" y="23.7" class="st1" width="50.3" height="11.5"/>
	<rect x="135.9" y="76.7" class="st1" width="50.3" height="11.5"/>
	<rect x="135.9" y="50.2" class="st1" width="50.3" height="11.5"/>
	<path class="st0" d="M61.1,21.5c-7.5,0-13.7,1.6-18.5,5c-4.8,3.4-7.3,8.3-7.3,14.1c0,0,0,0.1,0,0.1c0,2.7,0.5,5.2,1.6,7.4
		c1.1,2.2,2.6,4.2,4.6,5.7c2,1.5,4.1,2.7,6.4,3.5c2.2,0.7,5.5,1.9,10.1,3.3c5.5,1.8,9,3.6,10.1,4.9c1.3,1.5,1.9,2.9,1.9,4.7
		c0,2.6-1.1,4.6-3.9,6.4c-2.8,1.8-6.4,2.7-11.1,2.7c-5.4,0-10.5-1.2-15.2-3.6L38.1,75l-2.4,11.3l1.1,0.5c5,2.5,11.1,3.6,18.5,3.6h0
		c7.5,0,13.8-1.8,18.7-5.5c5-3.7,7.7-9,7.7-15.4c0,0,0,0,0-0.1c0-3.3-0.7-6.2-2-8.8c-1.4-2.6-3.4-4.7-6-6.5
		c-2.6-1.7-5.9-3.2-9.8-4.4l-8.4-2.6c-3.7-1.1-6.1-2.4-7-3.4c-1-1.1-1.5-2.2-1.5-3.6c0-2.3,0.9-3.9,3.4-5.4
		c2.4-1.5,5.9-2.3,10.5-2.3l0,0h0c3.6,0,7.4,0.6,11.5,1.9l2.7-10.9C70.1,22.2,65.4,21.5,61.1,21.5"/>
</g>
</svg>
