<svg id="Layer_1" xmlns="http://www.w3.org/2000/svg" viewBox="0 0 213 60"><style>.st0{fill:#3E844D;} .st1{fill:#2580C3;} .st2{fill:#5CA6DB;}</style><g id="_x36_NPSpU.tif"><path class="st0" d="M46.6 20.3c3.6-1.9 6.2-3.7 9.4-4.4 7.9-1.8 12.7 2.5 11.4 10.5-1.1 6.7-2.4 13.4-3.6 20.1-.4 2.2-1.2 3.1-3.6 3.1-9.5.2-9.5.3-7.7-8.9.6-2.9 1.1-5.8 1.6-8.6.4-2.3 1.5-4.8-1.9-5.8-2.9-.8-6.7 1.7-7.2 4.7-.8 4.4-1.5 8.8-2.2 13.2-.8 5.3-.8 5.3-6 5.3-7.2 0-7.2 0-6.1-7 2.2-12.9 5.1-25.6 5.9-38.6.1-1.7 1-2.2 2.4-2.4 3.2-.3 6.3-.5 9.5-.8 1.9-.2 2.1.6 1.8 2.2-1.3 5.5-2.4 11-3.7 17.4zM30.1 10.3c-1.9.6-3.8 0-5.6.7-4.1 1.6-5.4 4.4-3.4 8.3.9 1.7 1.9 3.3 2.9 4.8 3.8 5.5 3.2 10.9-.4 16.1-4.3 6.1-10.5 9.2-17.6 10.7-1 .2-1.9.4-2.5-.7C2 47.4.9 44.4.1 41.4-.3 40 1 40 1.8 39.7c1.9-.6 3.9-.9 5.7-1.7 4.5-1.9 5.7-5.8 3.2-10-.6-1-1.3-1.9-2-2.9-4.4-6.5-3.5-13.7 2.6-18.8 4-3.4 8.6-5.1 13.7-6.1 1.2-.2 2.3-.3 2.7 1.3.8 2.9 1.6 5.8 2.4 8.8z"/><path class="st1" d="M174.6 39c-1 3-.2 6.8-3.4 8.5-4.7 2.5-9.8 3.4-15 1.7-3.2-1-4.4-3.3-3.7-7 .7-3.8 1.6-7.6 2.4-11.4.3-1.7 1.1-3.7-2-3.6-.3 0-.7-.2-.9-.5-.8-1 1.3-8.6 2.6-8.8 2.3-.3 2.7-1.8 3-3.7.3-2.3.7-4.6 1.1-6.9.3-1.9 1.2-3.1 3.4-2.2.2.1.5.1.7.2 2.6.5 6.1.1 7.6 1.6 1.6 1.6-.7 4.8-1.1 7.3-.4 2 .3 2.7 2.3 2.7 2-.1 4.5-1 5.7.4 1.1 1.3-.9 3.5-.8 5.3.2 4.5-2.1 5.4-5.9 4.8-2.8-.5-3.9.7-4.3 3.5-1 8-1.2 8 7 7.7.4.1.9.3 1.3.4z"/><path class="st0" d="M81.2 17.2c2.2.2 5.2-1.3 6.3.2.9 1.3-.6 4.2-1.1 6.3-1.9 7.4-3 14.9-4 22.5-.3 2.4-1.3 3.3-3.8 3.3-9.2 0-9.2.1-7.6-8.7 1.3-6.9 2.8-13.8 3.2-20.8.1-2.6 1-3.6 3.6-3.1 1.1.2 2.3.2 3.4.3z"/><path class="st1" d="M137.3 49.5c-6.4 0-6.3 0-5.1-6.1 1.6-8.1 3.3-16.1 3.8-24.3.1-1.6.6-2.4 2.3-2.3 3.2.1 6.3.2 9.5 0 2.1-.1 2.1.8 1.6 2.3-2.5 8.5-3.9 17.1-5 25.9-.4 3.6-1.8 5-5.3 4.4-.7 0-1.3.1-1.8.1z"/><path class="st0" d="M82.2 14.2c-3.7 0-6.1-1.8-6.1-4.8 0-3.7 3.6-6.9 7.8-7 3.4-.1 6 2.1 6 5 0 4-3.2 6.7-7.7 6.8z"/><path class="st1" d="M143.9 14.2c-3.7 0-6.1-1.9-6.2-4.8-.1-3.8 3.9-7.2 8.2-7.1 3.3.1 5.6 2.1 5.7 5 0 4.1-3.1 6.8-7.7 6.9z"/><path class="st0" d="M124.3 18.2c-4.7-3.4-9.9-3.2-15-.5-1.4.7-3 2.4-3.4-.9-.1-.9-1.4-.8-2.2-.7-2.7.3-5.4.7-8 1.1-1.4.2-2.2.9-2.2 2.6-.1 11.8-3.3 23.2-5.2 34.8-.8 5.4-1 5.4 4.3 5.4 1.6 0 3.3-.1 4.9 0 1.6.1 2.3-.6 2.5-2.2.2-2.5.7-4.9 1-7.3.2-2.1.8-3.3 3.2-1.9 1.8 1 3.9 1.6 5.9 1.5 9.5 0 17.2-7.3 19-17.7 1-5.7 0-10.8-4.8-14.2zM109 39.8c-3.1-.1-4.9-2.2-4.8-5.6.1-4.5 3.3-8.1 7-8.2 3.2 0 5.2 2.2 5.1 5.7 0 4.8-3.1 8.2-7.3 8.1z"/><path class="st2" d="M213 28.5c-.2-6.9-4.4-11.8-11.1-13-11.4-2-21.7 5.1-24 16.5-2.2 10.8 3.6 18.1 14.3 18.1 11.7 0 21.1-9.8 20.8-21.6zm-18.9 10.9c-3 0-5-2.2-5.1-5.5 0-4.1 3.8-8.5 7.4-8.4 2.6.1 5.1 2.9 5 5.8.1 4-3.7 8.1-7.3 8.1z"/></g></svg>