<svg id="Lager_1" xmlns="http://www.w3.org/2000/svg" viewBox="0 0 300 83.1"><style>.st0{fill:url(#SVGID_1_);} .st1{fill:url(#SVGID_2_);} .st2{fill:#690000;} .st3{fill:#A50D12;}</style><path d="M99.4 58.8h26.5c5.6 0 10.2-4.3 10.2-9.6v-1.8c0-5.2-4.3-9.4-9.9-9.6H108.1c-1.6 0-2.8-1.2-2.8-2.6v-1.7c0-1.5 1.3-2.7 2.8-2.7h26v-7h-26c-5.6 0-10.2 4.3-10.2 9.6v1.7c0 5.3 4.6 9.6 10.2 9.6h17.7c1.6 0 2.8 1.2 2.8 2.7v1.8c0 1.5-1.3 2.6-2.8 2.6H99.4v7zM144.9 58.8h7.4V23.7h-7.4v35.1zM248.8 58.8h7.4V33.4c0-5.3-4.6-9.6-10.2-9.6h-37v35.1h7.4V30.7h12.4v28.1h7.4V30.7h9.8c1.6 0 2.8 1.2 2.8 2.7v25.4zM300 33.3c0-5.3-4.6-9.6-10.2-9.6h-23.6v7h23.6c1.6 0 2.8 1.2 2.8 2.6v4.4h-18.7c-5.6 0-10.2 4.3-10.2 9.6v1.8c0 5.3 4.6 9.6 10.2 9.6H300V33.3zm-7.4 18.5h-18.7c-1.6 0-2.8-1.2-2.8-2.7v-1.8c0-1.5 1.3-2.7 2.8-2.7h18.7v7.2zM162.4 49.1c0 5.3 4.6 9.6 10.2 9.6h26.1v-21h-19.5v7h12.1v7.1h-18.7c-1.6 0-2.8-1.2-2.8-2.6V33.4c0-1.5 1.3-2.7 2.8-2.7h26.1v-7h-26.1c-5.7 0-10.2 4.3-10.2 9.6v15.8z"/><g><linearGradient id="SVGID_1_" gradientUnits="userSpaceOnUse" x1="44.78" y1="65.956" x2="21.365" y2="18.887"><stop offset=".006" stop-color="#E11F27"/><stop offset=".681" stop-color="#EE2A24"/></linearGradient><path class="st0" d="M41 0c-5.8 0-10.8 12-12.5 28.6C12 30.3 0 35.2 0 41c0 5.8 12 10.8 28.6 12.5 1.7 16.6 6.6 28.6 12.5 28.6 7.2 0 13.1-18.4 13.1-41C54.1 18.4 48.3 0 41 0z"/><linearGradient id="SVGID_2_" gradientUnits="userSpaceOnUse" x1="47.054" y1="32.316" x2="61.056" y2="56.568"><stop offset="0" stop-color="#595959"/><stop offset=".208" stop-color="#424242"/><stop offset=".53" stop-color="#232323"/><stop offset=".806" stop-color="#111"/><stop offset="1" stop-color="#0A0A0A"/></linearGradient><path class="st1" d="M53.5 28.6L28.6 53.5c3.9.4 8.1.6 12.5.6 22.7 0 41-5.9 41-13.1 0-5.8-12-10.7-28.6-12.4z"/><path class="st2" d="M53.5 28.6L28.6 53.5c3.9.4 8.1.6 12.5.6 4.3 0 8.5-.2 12.5-.6.4-3.9.6-8.1.6-12.5s-.3-8.5-.7-12.4z"/><path class="st3" d="M28.6 53.5l24.9-24.9c-3.9-.4-8.1-.6-12.5-.6-4.3 0-8.5.2-12.5.6-.3 3.9-.5 8.1-.5 12.4s.2 8.6.6 12.5z"/></g><g><path d="M100.3 82.5v-1.4h.1c.7.2 2.3.5 3.3.5h.5c1.6 0 2.7-.6 2.7-2.3 0-1.4-.7-1.9-1.9-2.2l-1.8-.5c-1.3-.3-2.9-1.2-2.9-3.5 0-2.1 1.6-3.5 4.2-3.5h.4c1 0 2.5.3 3 .5v1.4h-.1c-.6-.2-2-.5-2.9-.5h-.4c-1.6 0-2.6.6-2.6 2.1 0 1.4.9 1.7 1.9 2l1.7.5c1.3.4 2.9 1.1 2.9 3.6 0 2.3-1.6 3.7-4.4 3.7h-.5c-.9.2-2.7-.2-3.2-.4zM111 78c0-2.9 1.4-4.8 4.2-4.8 2.9 0 4.2 1.9 4.2 4.8 0 3.1-1.4 5-4.2 5-3 .1-4.2-1.9-4.2-5zm6.8 0c0-2.1-.6-3.4-2.7-3.4-2 0-2.7 1.3-2.7 3.4 0 2.1.6 3.7 2.7 3.7s2.7-1.6 2.7-3.7zM122.9 74.7h-1.5v-1.4h1.5V73c0-2.1 1.2-3.1 3.1-3.1h1.1v1.4H126c-1.2 0-1.6.5-1.6 1.8v.4h2.5v1.4h-2.5v8.2h-1.5v-8.4z"/></g><g><path d="M133.1 82.9c-2 0-3.3-1-3.3-3.3v-4.9h-1.5v-1.4h1.5v-2.2h1.5v2.2h2.7v1.4h-2.7v4.6c0 1.8.5 2.2 2 2.2h1v1.4h-1.2zM136.4 75.8v-2.5h1.5v2.5c0 2.7.9 5 1.7 6 .8-1 1.7-3.3 1.7-6v-2.5h1.5v2.5c0 2.7.9 5 1.7 6 .8-1 1.7-3.3 1.7-6v-2.5h1.5v2.5c0 3.3-1.4 6.1-2.3 7.1h-1.6c-.5-.5-1.5-2.3-1.7-3.3-.2 1-1.2 2.7-1.7 3.3h-1.6c-1.1-.9-2.4-3.8-2.4-7.1zM150.2 79.8v-1.5c0-3 2.4-4.9 5-4.9h2.6V83h-1.5v-1.8l-.7.7c-.7.7-1.5 1.2-2.7 1.2-1.5 0-2.7-1-2.7-3.3zm6.1-.2v-4.9h-1.1c-2.1 0-3.5 1.4-3.5 3.5v1.5c0 1.5.7 1.9 1.5 1.9 1 0 2.1-1 2.6-1.5l.5-.5zM161.7 73.4h1.5v2.1l.1-.2c.7-1.1 1.6-1.9 2.8-1.9h.6V75h-.7c-.7 0-1.3.3-1.8.7l-1.1 1.1v6.1h-1.5v-9.5zM168.5 79.2v-1.9c0-2.6 1.8-4.1 4.1-4.1 1.9 0 3.3.8 3.3 2.7 0 1.7-1.1 2.7-3 2.7H170v.5c0 1.8 1.1 2.5 2.6 2.5 1.1 0 2.2-.4 2.6-.6h.1v1.4c-.4.2-1.6.6-2.7.6-2.3.1-4.1-1-4.1-3.8zm1.5-1.8h2.4c1.5 0 1.9-.5 1.9-1.5s-.7-1.4-1.8-1.4c-1.6 0-2.6.8-2.6 2.7v.2z"/></g></svg>