<svg id="Layer_1" xmlns="http://www.w3.org/2000/svg" viewBox="55.3 191.7 333.8 56.7"><style>.st0{fill:#00B4D5;} .st1{fill:#171B65;}</style><path class="st0" d="M71.7 224.8c-4.7-1.8-8.8-3.4-8.8-7.1 0-4.2 3.8-5.7 7.4-5.7 6.2 0 9.6 3.4 9.6 3.5l.3.3 2.8-4.7-.2-.2c-.1-.2-4-4.4-12.3-4.4-6.6 0-13.8 3.5-13.8 11.2 0 7.3 6.6 9.9 12.4 12.2 4.7 1.8 8.8 3.5 8.8 7.1 0 4.1-3.8 5.9-7.5 5.9-7.1 0-11.4-4.6-11.4-4.6l-.3-.3-3.3 4.4.2.2c.1.1 1.3 1.5 3.8 2.9 2.2 1.3 6 2.9 11 2.9 8 0 13.7-4.8 13.7-11.3-.1-7.4-6.6-10-12.4-12.3zM111.5 206.6c-11.8 0-21.1 9.1-21.1 20.7 0 11.8 9.3 21.1 21.1 21.1s21.1-9.3 21.1-21.1c0-11.6-9.3-20.7-21.1-20.7zm14.9 20.7c0 8.8-6.6 15.6-14.9 15.6s-14.9-6.9-14.9-15.6c0-8.5 6.6-15.2 14.9-15.2s14.9 6.7 14.9 15.2zM158.7 191.8s-1-.2-2.5-.2c-4.2 0-13.9 1.4-13.9 14.9v1.5h-5.4v5.2h5.4v34.2h6v-34.2h10V208h-10v-1.5c0-3.5 1.1-9.5 8.4-9.5 1 0 1.8.1 1.8.1l.4.1v-5.5l-.2.1zM187 242.6l-.5.1s-.7.1-1.7.1c-3.2 0-8.6-1.3-8.6-10.2v-19.3h10v-5.2h-10v-11.5h-6v11.5h-5.3v5.2h5.2v19.9c0 13.2 8.9 15.2 14.3 15.2 1.4 0 2.3-.1 2.4-.1l.3-.1v-5.6z"/><g><path class="st1" d="M199.2 235.6s4.4 4.4 10.9 4.4c2.8 0 5.2-1.2 5.2-3.6 0-6-19.4-5.2-19.4-18 0-7.4 6.7-11.7 15.2-11.7 9 0 13.4 4.5 13.4 4.5l-3.7 7.4s-3.7-3.5-9.8-3.5c-2.6 0-5.1 1.1-5.1 3.6 0 5.6 19.4 4.9 19.4 17.8 0 6.7-5.8 12-15.3 12-9.9 0-15.5-5.9-15.5-5.9l4.7-7zM252.1 206.6c11.5 0 17.7 8.4 17.7 18.9 0 1.2-.2 3.9-.2 3.9H242c.6 6.9 6 10.5 12 10.5 6.4 0 11.5-4.4 11.5-4.4l3.9 7.1s-6.1 5.7-16 5.7c-13.2 0-21.5-9.5-21.5-20.9 0-12.2 8.4-20.8 20.2-20.8zm7.7 16c-.2-5.4-3.5-8.3-7.9-8.3-5.1 0-8.6 3.1-9.6 8.3h17.5zM279.8 207.6h9.6v6.9c0 1.5-.2 2.8-.2 2.8h.2c1.8-5.7 6.6-10.3 12.7-10.3.9 0 1.8.2 1.8.2v9.8s-1-.2-2.3-.2c-4.2 0-9 2.4-10.9 8.4-.6 2-.9 4.1-.9 6.5v15.8h-9.9v-39.9zM308.2 207.6h10.5l8.3 24.7c.8 2.3 1.3 5 1.4 5h.2c.1 0 .6-2.7 1.4-5l8.3-24.7h10.5l-14.3 39.9h-11.7l-14.6-39.9zM371.4 206.6c11.5 0 17.7 8.4 17.7 18.9 0 1.2-.2 3.9-.2 3.9h-27.6c.6 6.9 6 10.5 12 10.5 6.4 0 11.5-4.4 11.5-4.4l3.9 7.1s-6.1 5.7-16 5.7c-13.2 0-21.5-9.5-21.5-20.9-.1-12.2 8.3-20.8 20.2-20.8zm7.7 16c-.2-5.4-3.5-8.3-7.9-8.3-5.1 0-8.6 3.1-9.6 8.3h17.5z"/></g></svg>