<svg xmlns="http://www.w3.org/2000/svg" viewBox="0 0 300 51"><path fill="#00B4D5" d="M14.7 29.8c-4.2-1.7-7.9-3.1-7.9-6.3 0-3.8 3.4-5.1 6.7-5.1 5.6 0 8.6 3.1 8.6 3.1l.3.3 2.5-4.2-.2-.2c-.1-.2-3.6-4-11.1-4-6 0-12.4 3.2-12.4 10.1 0 6.5 5.9 8.9 11.1 10.9 4.2 1.7 7.9 3.1 7.9 6.4 0 3.6-3.4 5.3-6.8 5.3-6.3 0-10.2-4.1-10.3-4.2l-.1-.3-3 3.9.2.2c.1.1 1.2 1.3 3.4 2.6 2 1.2 5.4 2.6 9.9 2.6 7.2 0 12.4-4.3 12.4-10.2-.1-6.5-6-8.8-11.2-10.9zm35.8-16.4c-10.6 0-19 8.2-19 18.6 0 10.6 8.3 19 19 19s19-8.3 19-19c-.1-10.4-8.4-18.6-19-18.6zM63.9 32c0 7.9-5.9 14.1-13.4 14.1S37 39.9 37 32c0-7.6 5.9-13.6 13.4-13.6s13.5 6 13.5 13.6zM92.9.2S92 0 90.7 0C87 0 78.2 1.3 78.2 13.4v1.4h-4.8v4.6h4.8v30.8h5.4V19.4h9v-4.6h-9v-1.4c0-3.2 1-8.5 7.6-8.5.9 0 1.6.1 1.6.1l.4.1V.2h-.3zm25.4 45.6l-.4.1s-.6.1-1.6.1c-2.9 0-7.7-1.2-7.7-9.2V19.5h9v-4.7h-9V4.4h-5.4v10.3h-4.8v4.7h4.7v17.9c0 11.9 8 13.7 12.8 13.7 1.3 0 2.1-.1 2.1-.1l.3-.1v-5z"/><path fill="#171B65" d="M129.3 39.5s3.9 3.9 9.8 3.9c2.5 0 4.7-1.1 4.7-3.2 0-5.4-17.4-4.6-17.4-16.2 0-6.7 6-10.5 13.7-10.5 8.1 0 12 4.1 12 4.1l-3.3 6.6s-3.3-3.1-8.8-3.1c-2.3 0-4.6 1-4.6 3.2 0 5.1 17.5 4.4 17.5 16 0 6-5.2 10.8-13.7 10.8-8.9 0-13.9-5.3-13.9-5.3l4-6.3zm47.6-26c10.3 0 15.9 7.5 15.9 17 0 1.1-.2 3.5-.2 3.5h-24.8c.6 6.2 5.4 9.5 10.8 9.5 5.8 0 10.3-3.9 10.3-3.9l3.5 6.4s-5.5 5.1-14.4 5.1c-11.9 0-19.3-8.6-19.3-18.8 0-11.1 7.5-18.8 18.2-18.8zm6.9 14.3c-.2-4.8-3.2-7.4-7.1-7.4-4.6 0-7.7 2.8-8.6 7.4h15.7zm18-13.5h8.6v6.2c0 1.4-.2 2.5-.2 2.5h.2c1.6-5.1 5.9-9.2 11.4-9.2.8 0 1.6.2 1.6.2v8.8s-.9-.2-2.1-.2c-3.8 0-8.1 2.2-9.8 7.5-.6 1.8-.8 3.7-.8 5.8v14.2h-8.9V14.3zm25.5 0h9.4l7.5 22.2c.7 2.1 1.2 4.5 1.2 4.5h.2c.1 0 .6-2.4 1.3-4.5l7.4-22.2h9.4l-12.9 35.9h-10.5l-13-35.9zm56.8-.8c10.3 0 15.9 7.5 15.9 17 0 1.1-.2 3.5-.2 3.5H275c.6 6.2 5.4 9.5 10.8 9.5 5.8 0 10.3-3.9 10.3-3.9l3.5 6.4s-5.5 5.1-14.4 5.1c-11.9 0-19.3-8.6-19.3-18.8 0-11.1 7.5-18.8 18.2-18.8zm6.9 14.3c-.2-4.8-3.2-7.4-7.1-7.4-4.6 0-7.7 2.8-8.6 7.4H291z"/></svg>