<svg xmlns="http://www.w3.org/2000/svg" xmlns:xlink="http://www.w3.org/1999/xlink" width="257.811" height="60" viewBox="0 0 257.811 60"><defs><style>.a{fill:#18202c;}.b{fill:#19212b;}.c{clip-path:url(#a);}.d{fill:#020203;}.e{clip-path:url(#b);}.f{fill:url(#c);}.g{clip-path:url(#d);}.h{clip-path:url(#f);}.i{clip-path:url(#h);}.j{clip-path:url(#j);}.k{clip-path:url(#l);}.l{clip-path:url(#n);}.m{fill:url(#o);}</style><clipPath id="a"><path d="M106.729,37.02A4.331,4.331,0,1,1,102.4,41.35a4.33,4.33,0,0,1,4.331-4.331m0-4.68a9.01,9.01,0,1,0,9.01,9.01,9.01,9.01,0,0,0-9.01-9.01Z"/></clipPath><clipPath id="b"><path d="M30.07,45.332V37.718a2.081,2.081,0,0,0-1.013-1.781L22.421,32.13l-.559-.314a1.435,1.435,0,0,0-1.956.559L19,33.946a1.473,1.473,0,0,0,.524,1.991l3.318,1.921,2.026,1.187a.91.91,0,0,1,.454.768v3.492a.868.868,0,0,1-.454.768l-2.026,1.187h0L21.583,46a.613.613,0,0,1-.175.14l-1.816,1.048a1.434,1.434,0,0,0-.524,1.991l.873,1.5a1.434,1.434,0,0,0,1.991.524l7.125-4.051A2.139,2.139,0,0,0,30.07,45.332Z"/></clipPath><linearGradient id="c" y1="0.5" x2="1" y2="0.5" gradientUnits="objectBoundingBox"><stop offset="0" stop-color="#e9521d"/><stop offset="1" stop-color="#f28c20"/></linearGradient><clipPath id="d"><path d="M63.353,47.183l-1.816-1.048a.762.762,0,0,1-.175-.14L60.1,45.262h0l-2.026-1.187a.91.91,0,0,1-.454-.768V39.814a.868.868,0,0,1,.454-.768L60.1,37.858l3.318-1.921a1.442,1.442,0,0,0,.524-1.991l-.908-1.572a1.435,1.435,0,0,0-1.956-.559l-.559.314-6.636,3.842a2.038,2.038,0,0,0-1.013,1.781V45.4a2.081,2.081,0,0,0,1.013,1.781l7.125,4.051A1.506,1.506,0,0,0,63,50.71l.873-1.5A1.5,1.5,0,0,0,63.353,47.183Z"/></clipPath><clipPath id="f"><path d="M59.721,53.26l-.559-.314-6.671-3.7a2.068,2.068,0,0,0-2.061.035L43.9,53.19a2.081,2.081,0,0,0-1.013,1.781l.21,8.172a1.469,1.469,0,0,0,1.467,1.432l1.746-.035a1.446,1.446,0,0,0,1.432-1.467l-.035-2.1a.594.594,0,0,1,.035-.244L47.707,59.3h0l-.035-2.34a.911.911,0,0,1,.419-.768l3-1.781a.852.852,0,0,1,.908,0l2.061,1.153,3.353,1.851a1.435,1.435,0,0,0,1.956-.559l.873-1.572A1.521,1.521,0,0,0,59.721,53.26Z"/></clipPath><clipPath id="h"><path d="M39.08,53.19l-6.531-3.912a2.066,2.066,0,0,0-2.061-.035l-6.671,3.7-.559.314a1.435,1.435,0,0,0-.559,1.956l.873,1.572a1.435,1.435,0,0,0,1.956.559l3.353-1.851,2.061-1.153a1.036,1.036,0,0,1,.908,0l3,1.781a.809.809,0,0,1,.419.768l-.035,2.34h0L35.2,60.664a.518.518,0,0,1,.035.244L35.2,63a1.446,1.446,0,0,0,1.432,1.467l1.746.035a1.446,1.446,0,0,0,1.467-1.432l.21-8.172A1.944,1.944,0,0,0,39.08,53.19Z"/></clipPath><clipPath id="j"><path d="M43.9,29.825l6.531,3.912a2.066,2.066,0,0,0,2.061.035l6.671-3.7.559-.314a1.435,1.435,0,0,0,.559-1.956l-.873-1.572a1.435,1.435,0,0,0-1.956-.559L54.1,27.52l-2.061,1.153a1.036,1.036,0,0,1-.908,0l-3-1.781a.809.809,0,0,1-.419-.768l.035-2.34h0l.035-1.432a.518.518,0,0,1-.035-.244l.035-2.1a1.446,1.446,0,0,0-1.432-1.467L44.6,18.51a1.446,1.446,0,0,0-1.467,1.432l-.21,8.172A1.984,1.984,0,0,0,43.9,29.825Z"/></clipPath><clipPath id="l"><path d="M38.417,18.405l-1.746.035a1.446,1.446,0,0,0-1.432,1.467l.035,2.1a.594.594,0,0,1-.035.244l.035,1.432h0l.035,2.34a.911.911,0,0,1-.419.768l-3,1.781a.852.852,0,0,1-.908,0l-2.061-1.153-3.353-1.851a1.435,1.435,0,0,0-1.956.559l-.873,1.572a1.435,1.435,0,0,0,.559,1.956l.559.314,6.671,3.7a2.068,2.068,0,0,0,2.061-.035l6.531-3.807a2.081,2.081,0,0,0,1.013-1.781l-.21-8.172A1.505,1.505,0,0,0,38.417,18.405Z"/></clipPath><clipPath id="n"><path d="M66.915,55.984v-30L40.9,10.966,14.913,25.984v30L40.9,70.966Z"/></clipPath><linearGradient id="o" x1="-0.001" y1="0.501" x2="1" y2="0.501" xlink:href="#c"/></defs><g transform="translate(-14.913 -10.966)"><path class="a" d="M82.736,46.484l3.527-2.41a.3.3,0,0,1,.419.1,3.422,3.422,0,0,0,3.073,1.851c.733,0,1.362-.175,1.362-.8,0-.664-.489-.873-2.2-1.537l-.908-.349c-3.038-1.187-4.61-3.143-4.61-5.623,0-3.213,2.654-5.413,6.007-5.413a6.368,6.368,0,0,1,5.378,2.549.318.318,0,0,1-.035.384l-2.584,2.549a.287.287,0,0,1-.419-.035,2.871,2.871,0,0,0-2.305-1.327c-.7,0-1.257.244-1.257.8,0,.7.559.908,2.305,1.572l.733.279c3.353,1.257,4.715,3.108,4.68,5.763a5.63,5.63,0,0,1-5.239,5.413c-3.423.279-6.251-.7-7.963-3.423C82.6,46.764,82.631,46.589,82.736,46.484Z"/><path class="a" d="M129.988,48.789a6.278,6.278,0,0,1-4.156,1.572c-4.715,0-7.474-3.248-7.474-8V32.9a.3.3,0,0,1,.279-.279h4.715a.3.3,0,0,1,.279.279V41.42c0,2.375.978,4.121,3.073,4.121a3.879,3.879,0,0,0,3.283-1.746V32.9a.3.3,0,0,1,.279-.279h4.715a.3.3,0,0,1,.279.279V49.767a.3.3,0,0,1-.279.279h-4.715a.3.3,0,0,1-.279-.279Z"/><path class="a" d="M150.733,49.069a6.071,6.071,0,0,1-3.842,1.292c-5.169,0-8.452-4.226-8.452-9.01s3.283-9.01,8.452-9.01a6.1,6.1,0,0,1,3.842,1.327V32.9a.3.3,0,0,1,.279-.279h4.715a.3.3,0,0,1,.279.279V49.767a.3.3,0,0,1-.279.279h-4.715a.3.3,0,0,1-.279-.279Zm0-4.959V38.626a3.548,3.548,0,0,0-2.969-1.467,3.933,3.933,0,0,0-4.016,4.191,3.933,3.933,0,0,0,4.016,4.191A3.519,3.519,0,0,0,150.733,44.109Z"/><path class="a" d="M160.407,32.619h4.715a.3.3,0,0,1,.279.279v1.257a4.866,4.866,0,0,1,3.981-1.816,7.575,7.575,0,0,1,1.676.21.266.266,0,0,1,.21.279v4.82a.279.279,0,0,1-.419.244,6.372,6.372,0,0,0-2.27-.419,5.074,5.074,0,0,0-3.178,1.153V49.767a.3.3,0,0,1-.279.279h-4.715a.3.3,0,0,1-.279-.279V32.9A.275.275,0,0,1,160.407,32.619Z"/><path class="a" d="M172.631,41.35a8.675,8.675,0,0,1,9.01-9.01c4.435,0,8.417,2.9,8.417,8.417,0,.419-.035.838-.07,1.292a.27.27,0,0,1-.279.244H177.73a3.642,3.642,0,0,0,3.807,3.248,4.044,4.044,0,0,0,3.6-1.956.289.289,0,0,1,.384-.1L189.22,46a.255.255,0,0,1,.07.384,9.234,9.234,0,0,1-7.718,3.946A8.851,8.851,0,0,1,172.631,41.35Zm5.1-2.13h7.125c-.279-1.851-1.816-2.654-3.527-2.654A3.485,3.485,0,0,0,177.73,39.22Z"/><path class="a" d="M191.77,46.484l3.527-2.41a.3.3,0,0,1,.419.1,3.422,3.422,0,0,0,3.073,1.851c.733,0,1.362-.175,1.362-.8,0-.664-.489-.873-2.2-1.537l-.908-.349c-3.038-1.187-4.61-3.143-4.61-5.623,0-3.213,2.654-5.413,6.007-5.413a6.368,6.368,0,0,1,5.378,2.549.318.318,0,0,1-.035.384L201.2,37.788a.285.285,0,0,1-.419-.035,2.833,2.833,0,0,0-2.3-1.292c-.7,0-1.257.244-1.257.8,0,.7.559.908,2.3,1.572l.733.279c3.353,1.257,4.715,3.108,4.68,5.763a5.63,5.63,0,0,1-5.239,5.413c-3.423.279-6.251-.7-7.963-3.423C191.595,46.764,191.665,46.589,191.77,46.484Z"/><path class="a" d="M206.857,41.35a9.1,9.1,0,0,1,16.554-5.134.248.248,0,0,1-.07.384l-3.7,2.619a.3.3,0,0,1-.419-.1,3.79,3.79,0,0,0-7.055,2.2,3.79,3.79,0,0,0,7.055,2.2.333.333,0,0,1,.419-.1l3.7,2.619a.255.255,0,0,1,.07.384,9.1,9.1,0,0,1-7.474,3.877A8.944,8.944,0,0,1,206.857,41.35Z"/><path class="a" d="M237.451,49.069a6.071,6.071,0,0,1-3.842,1.292c-5.169,0-8.452-4.226-8.452-9.01s3.283-9.01,8.452-9.01a6.1,6.1,0,0,1,3.842,1.327V32.9a.3.3,0,0,1,.279-.279h4.715a.3.3,0,0,1,.279.279V49.767a.3.3,0,0,1-.279.279H237.73a.3.3,0,0,1-.279-.279Zm0-4.959V38.626a3.548,3.548,0,0,0-2.969-1.467,3.933,3.933,0,0,0-4.016,4.191,3.933,3.933,0,0,0,4.016,4.191A3.519,3.519,0,0,0,237.451,44.109Z"/><path class="a" d="M247.229,25.285h4.715a.3.3,0,0,1,.279.279v24.2a.3.3,0,0,1-.279.279h-4.715a.3.3,0,0,1-.279-.279V25.6A.308.308,0,0,1,247.229,25.285Z"/><path class="a" d="M255.3,41.35a8.675,8.675,0,0,1,9.01-9.01c4.435,0,8.417,2.9,8.417,8.417,0,.419-.035.838-.07,1.292a.27.27,0,0,1-.279.244H260.4a3.642,3.642,0,0,0,3.807,3.248,4.044,4.044,0,0,0,3.6-1.956.289.289,0,0,1,.384-.1l3.7,2.515a.255.255,0,0,1,.07.384,9.234,9.234,0,0,1-7.718,3.946A8.851,8.851,0,0,1,255.3,41.35Zm5.1-2.13h7.125c-.279-1.851-1.816-2.654-3.527-2.654A3.485,3.485,0,0,0,260.4,39.22Z"/><path class="b" d="M106.729,37.02A4.331,4.331,0,1,1,102.4,41.35a4.33,4.33,0,0,1,4.331-4.331m0-4.68a9.01,9.01,0,1,0,9.01,9.01,9.01,9.01,0,0,0-9.01-9.01Z"/><g class="c"><path class="d" d="M116.054,48.615l-3.143,3.143a.611.611,0,0,1-.873,0l-5.588-8.068c-.244-.244-1.746.349-1.5.1l3.143-3.143c.244-.244-.035.559.21.768l7.788,6.321A.646.646,0,0,1,116.054,48.615Z"/></g><path class="a" d="M116.158,48.51l-2.584,2.584a.212.212,0,0,1-.279,0l-7.683-7.683a.212.212,0,0,1,0-.279l2.584-2.584a.212.212,0,0,1,.279,0l7.683,7.683A.212.212,0,0,1,116.158,48.51Z"/><g class="e"><path class="f" d="M66.915,55.984v-30L40.9,10.966,14.913,25.984v30L40.9,70.966Z"/></g><g class="g"><path class="f" d="M66.915,55.984v-30L40.9,10.966,14.913,25.984v30L40.9,70.966Z"/></g><g class="h"><path class="f" d="M66.915,55.984v-30L40.9,10.966,14.913,25.984v30L40.9,70.966Z"/></g><g class="i"><path class="f" d="M66.915,55.984v-30L40.9,10.966,14.913,25.984v30L40.9,70.966Z"/></g><g class="j"><path class="f" d="M66.915,55.984v-30L40.9,10.966,14.913,25.984v30L40.9,70.966Z"/></g><g class="k"><path class="f" d="M66.915,55.984v-30L40.9,10.966,14.913,25.984v30L40.9,70.966Z"/></g><g class="l"><path class="m" d="M48.58,36.147l-6.042-3.492a2.113,2.113,0,0,0-2.13,0l-6.042,3.492A2.143,2.143,0,0,0,33.283,38v6.985a2.143,2.143,0,0,0,1.083,1.851l6.042,3.492a2.113,2.113,0,0,0,2.13,0l6.042-3.492a2.143,2.143,0,0,0,1.083-1.851V38A2.143,2.143,0,0,0,48.58,36.147ZM45.611,43.9l-4.156,2.41L37.3,43.9V39.115l4.156-2.41,4.156,2.41Z"/></g></g></svg>