<svg id="Layer_1" xmlns="http://www.w3.org/2000/svg" viewBox="0 0 257 60"><style>.st0{fill:#398ECD;} .st1{fill:#3D8FCD;}</style><g id="XMLID_1_"><path id="XMLID_63_" class="st0" d="M49 0c-1.8 1.1-3.7 2.2-5.4 3.4-7.8 5.7-10.4 13.7-7.6 22.9.5 1.5.9 3.1 1.6 4.4 2.3 4.3 1.3 8.2-1.1 12-4.3 6.6-10.7 11-17.1 15.3-1 .6-1.9 1.3-2.8 2H8.1c-3.7-1.6-6.4-4.3-8-8C0 37.3 0 22.7 0 8c1.7-3.8 4.4-6.6 8.5-8H49z"/><path id="XMLID_62_" class="st0" d="M34 60c3.9-4.8 7.6-9.7 9.8-15.5 1.7-4.5 2.4-8.8-.4-13.3-3-4.9-1.5-10 .8-14.8 2.4-4.9 5.9-9 9.8-12.8 1.1-1.1 1.8-1 2.8.1 1.7 2.2 2.7 4.6 2.7 7.3 0 12.7.1 25.3 0 38 0 5.7-3.4 9-8.4 11H34z"/><path id="XMLID_61_" class="st1" d="M257 12c-3 4.4-4.6 9.6-7.5 14-4.4 6.7-5.9 14-5 21.8.3 2.2-.5 2.9-2.7 2.8-1.4-.1-2-.5-1.8-1.9V48c1-8.3-1.1-15.7-5.4-22.8-2.6-4.2-4.5-8.9-6.7-13.4 4.6-.8 4.6-.9 6.4 2.7 2.7 5.4 5.3 10.9 8 16.7 2.7-5.4 5.5-10.4 7.7-15.7 1.4-3.4 3.4-4.8 6.9-4.1.1.3.1.4.1.6z"/><path id="XMLID_58_" class="st0" d="M191.5 43.6c-.8-10.1-.1-20.3-.4-30.4 0-1.9 1.1-1.7 2.3-1.7 1.2 0 2.2-.2 2.2 1.7-.1 11.9-.1 23.8 0 35.7 0 1.4-.5 1.6-1.8 1.7-2.4.2-4-.4-5.4-2.7-6.1-10-12.4-19.9-18.7-29.9-.5.5-.3 1.2-.3 1.8 0 9.5 0 19 .1 28.5 0 1.8-.4 2.4-2.3 2.4-2 0-2.3-.7-2.3-2.5.1-11.2.1-22.5 0-33.7 0-2.4.5-3.1 3-3.1 2 .1 3.3.5 4.4 2.3 6.2 10.2 12.5 20.2 18.7 30.3.7.4.4-.3.5-.4z"/><path id="XMLID_54_" class="st1" d="M74.7 43.8c4.1 2.4 8.1 3.7 12.5 3.2 2.6-.3 4.9-1.3 5.7-4.1.8-2.8-.1-5.1-2.4-6.8-1.1-.8-2.2-1.5-3.4-2.1-2.1-1.2-4.3-2.2-6.3-3.5-2.8-1.8-5.4-4-5.8-7.7-.6-5.3 1.9-9.2 7-10.9 4.2-1.4 8.5-1.4 12.8-.2 1.3.4 2.4 4.1 1.4 5-.7.7-1.2-.1-1.8-.3-3.3-1.4-6.7-1.7-10.2-.8-2.4.6-4.1 1.9-4.5 4.4-.4 2.4.5 4.4 2.5 5.8 2 1.5 4.3 2.5 6.5 3.7 2.4 1.3 4.8 2.7 6.7 4.8 4.8 5.3 2.8 13.5-3.9 15.9-5 1.8-10 1.5-14.9-.3-3.3-1.2-1.4-3.8-1.9-6.1z"/><path id="XMLID_53_" class="st1" d="M205.6 30.9V13.4c0-1.5.4-2 2-2 5.2.1 10.5.1 15.7 0 1.9 0 1.7 1 1.7 2.2.1 1.3-.2 2-1.7 1.9-3.6-.1-7.2 0-10.7-.1-1.6 0-2.4.3-2.3 2.2.1 3.1.1 6.2 0 9.2-.1 1.6.4 2.2 2.1 2.2 3.2-.1 6.5.1 9.7-.1 1.9-.1 1.9.9 1.9 2.3 0 1.5-.3 2.1-1.9 2.1-3.1-.1-6.2.1-9.2-.1-2.2-.1-2.7.7-2.6 2.7.1 3.8 0 7.7.1 11.5 0 1.7.3 3.1-2.4 3.1-2.6 0-2.2-1.5-2.2-3-.2-5.4-.2-11-.2-16.6z"/><path id="XMLID_52_" class="st0" d="M112.5 32.9c0-5.1-.1-10.2 0-15.2 0-1.6-.4-2.2-2.1-2.1-2.4.1-4.8-.1-7.2.1-1.8.1-1.7-.9-1.8-2.2 0-1.3.2-2 1.7-1.9 7.7.1 15.3.1 23 0 1.7 0 1.8.8 1.8 2.1 0 1.4-.3 2.1-1.9 2-2.3-.1-4.7.1-7-.1-1.8-.1-2.2.6-2.2 2.3.1 10.1 0 20.1 0 30.2 0 2.4-1.6 3.4-3.8 2.5-1-.4-.7-1.2-.7-1.9.2-5.3.2-10.6.2-15.8z"/><path id="XMLID_51_" class="st1" d="M191.5 43.6c-.1.2.2.9-.5.5l.5-.5z"/><path id="XMLID_6_" class="st1" d="M158.4 47.8c-4.2-11.3-8.5-22.5-12.6-33.8-.6-1.7-1.2-2.7-3.4-2.6-2.1 0-2.7 1-3.2 2.6-.5 1.7-1.3 3.4-1.9 5.1-3.9 10.3-7.7 20.7-11.7 31.2 4.9.5 4.9.5 6.2-3.6.6-1.8 1.3-3.6 1.8-5.4.4-1.3 1.1-1.8 2.5-1.8 4.2.1 8.3.1 12.5 0 1.3 0 1.9.4 2.4 1.6.9 2.8 2 5.5 3 8.2.9 2.3 3 1.4 4.3 1.1 1.8-.4.4-1.8.1-2.6zm-11.1-12.3c-3.2 0-6.5-.1-9.7 0-1.8.1-1.6-.7-1.1-2 2-5.5 3.9-11.1 5.9-16.6l6 16.8c.3 1.1.4 1.8-1.1 1.8z"/></g></svg>