<svg xmlns="http://www.w3.org/2000/svg" viewBox="0 0 200 49.3"><path d="M0 49.3h91.8V0H0v49.3zM4.1 4.1h83.7v41.2H4.1V4.1z"/><path d="M19.1 20.2c0-1.2 1-2.1 2.9-2.1 2.1 0 4.3.7 5.9 2.2l2.4-3.2c-2-1.9-4.7-2.8-8-2.8-4.8 0-7.7 2.8-7.7 6.2 0 7.7 11.8 5.2 11.8 8.8 0 1.2-1.2 2.3-3.5 2.3-2.8 0-5.1-1.3-6.5-2.8L14 32.2c1.9 1.9 4.7 3.2 8.6 3.2 5.5 0 8.2-2.8 8.2-6.6 0-7.6-11.7-5.4-11.7-8.6zM32.4 18.5h6V35h4.4V18.5h5.9v-3.9H32.4M51.8 14.6h4.3V35h-4.3zM68.4 22.8l-5.1-8.2h-5l7.9 12.1V35h4.3v-8.3l7.9-12.1h-5M95.9 0v49.3h94.9L200 0H95.9zm35.2 28.4c0 3.8-3 7-8.1 7-4 0-7.5-1.6-9.2-3.8l2.7-3.2c1.4 1.9 4.1 3.2 6.9 3.2 2.2 0 3.1-1.3 3.1-2.3 0-2.8-9.9-2.4-9.9-8.3 0-3.4 2.9-6.6 8-6.6 3.2 0 6.3 1.2 8.1 3.3l-2.7 3.1c-1.5-1.8-4-2.6-6.1-2.6-1.6 0-2.7 1-2.7 2.1-.1 2.5 9.9 2.2 9.9 8.1zm13.8-9.9L141.2 35h-4.4l3.6-16.6h-6l.9-3.8h16.3l-.8 3.8h-5.9zM155.6 35h-4.3l4.5-20.4h4.3L155.6 35zm19.4 0h-13l4.5-20.4h4.3l-3.6 16.6h8.6L175 35z"/></svg>