<svg id="Layer_1" xmlns="http://www.w3.org/2000/svg" viewBox="0 0 198.7 60"><style>.st0{fill:#040404;} .st1{fill:#8D898B;}</style><path class="st0" d="M0 11.5c.1-.1.1-.2.1-.3C.4 9 1.5 7.1 3 5.5c1.9-2 4.3-3.2 7-3.6 1.4-.2 2.7-.4 4.1-.4h.3c.1 0 .2.1.2.2v.1c0 .4 0 .3-.3.3-1.1.1-2.2.2-3.2.7-1.6.7-2.6 1.9-2.9 3.6-.2 1.8.3 3.4 1.7 4.7 1 1 2.1 1.9 3.2 2.8 3.6 3.2 7.3 6.4 10.9 9.6 1.7 1.5 3.1 3.1 4.2 5.1.8 1.4 1.3 2.8 1.6 4.4.3 2.6-.3 4.9-1.8 7-1.9 2.5-4.5 4-7.6 4.5-2.1.3-4.2.4-6.3.4h-1.7c-.3 0-.3 0-.3-.3v-.1c0-.4 0-.4.4-.4 1.3-.2 2.5-.6 3.6-1.3 2.7-1.6 3.7-4.5 2.8-7.5-.5-1.7-1.6-3.2-2.9-4.4l-3-2.4c-2.8-2.5-5.7-5-8.4-7.5-1.9-1.8-3.5-3.9-4.2-6.5l-.3-1.2c.1-.2 0-.4-.1-.5v-1.3zM198.7 40.2c-1.3 2.3-3.4 3.6-5.9 4.3-2.1.5-4.2.6-6.4.2-3.1-.6-5-2.5-5.8-5.6-.3-1-.4-2-.4-3.1V16.8c0-.5 0-.5-.5-.5h-2.9c-.2 0-.3 0-.3-.2-.1-.3-.2-.5-.2-.8.1-.1.3 0 .4 0h3.3c.3 0 .3 0 .3-.3V9.1c0-.3 0-.3.3-.4 2.8-.7 5.5-1.4 8.3-2.1h.1c.1.1 0 .3 0 .4v8c0 .4 0 .3.3.3h7.6c.5 0 .4-.1.6.5.1.2.2.4.2.6h-8.3c-.4 0-.4 0-.4.4v20c0 1.5.6 2.7 1.9 3.6 2.1 1.5 5.2 1.3 7.1-.5.2-.2.2-.2.4 0l.3.3c0-.1 0-.1 0 0z"/><path class="st1" d="M0 12.7c.1.2.1.3.1.5H0v-.5z"/><path class="st0" d="M90.4 0v43.8c0 .5.1.4-.4.4h-7.9-.1c-.4 0-.4 0-.4-.4V2.5c0-.3 0-.3.3-.4 2.7-.7 5.4-1.3 8.1-2 .2-.1.3-.1.4-.1zM153.7 0v43.9c0 .4 0 .4-.4.4h-8.2c-.1 0-.2 0-.2-.2v-.3V2.6v-.1c0-.3 0-.3.3-.4 1.2-.3 2.5-.6 3.7-.9 1.4-.4 2.9-.7 4.3-1.1.2-.1.3-.1.5-.1zM52.8 39.6c.7.6.7.4.2 1.1-.9 1.5-2.3 2.5-3.9 3.2-1.2.5-2.4.8-3.6.9-1.2.1-2.4.1-3.6 0-1.8-.2-3.4-.8-4.7-2.1-1-1-1.5-2.2-1.9-3.5-.3-1.2-.4-2.5-.4-3.8v-10-8.7-.2c0-.2-.1-.2-.3-.2h-3.1c-.2 0-.3-.1-.4-.3-.1-.3-.2-.5-.2-.8.2-.1.3-.1.4-.1h3.2c.4 0 .3 0 .3-.4V9v-.3c0-.2.1-.2.2-.2 1-.2 1.9-.5 2.9-.7 1.8-.5 3.7-.9 5.5-1.4h.1c.1.1 0 .3 0 .4v7.9c0 .4-.1.4.4.4h4.6c.3 0 .5.1.6.3.1.2.2.5.4.7-.1.1-.2.1-.3.1H43.8c-.1 0-.2 0-.2.2v20.3c0 1.7.8 2.9 2.1 3.8 2.1 1.3 5.1 1 6.9-.8.1 0 .1-.1.2-.1zM154.8 20.6c-.1-.4 0-.8.2-1.1 1.2-2.3 3.1-3.8 5.5-4.6 1.4-.5 2.9-.7 4.4-.8 1.4 0 2.8.1 4.1.4 1.6.5 3 1.3 3.9 2.8.6.9.9 2 1 3.1.1.8.2 1.6.2 2.4v20.9c0 .5.1.4-.4.4h-8.1c-.1 0-.2 0-.2-.2v-.3-20.4c0-.7 0-1.4-.2-2.1-.4-1.5-1.3-2.4-2.7-2.8-2-.5-3.9-.4-5.7.7-.8.5-1.4 1-2 1.6zM64.6 47.1c-4.8-10.6-9.7-21.2-14.5-31.8.1-.1.1-.1.2-.1h9.6c.3 0 .3.1.4.3 1.7 3.5 3.4 7 5.1 10.6 1.4 3 2.9 6 4.3 9 .1.2.1.4 0 .6-1.7 3.7-3.4 7.4-5 11 0 .2 0 .3-.1.4zM104.6 29.7v14.1c0 .5 0 .5-.5.5h-8c-.2 0-.3-.1-.2-.3v-.2-28c0-.6 0-.5.5-.5h7.7c.5 0 .5-.1.5.5v13.9zM100.3 11.6c-2.8 0-5.1-2.3-5.1-5.1s2.3-5.1 5.1-5.1 5.1 2.3 5 5.1c0 2.8-2.2 5.1-5 5.1zM57.4 58c-2.8 0-5.1-2.3-5.1-5.1s2.3-5.1 5-5.1c2.8 0 5.1 2.3 5.1 5.1s-2.2 5.1-5 5.1zM74.4 25.7c-1.8-3.5-3.6-7-5.4-10.4.3-.1 9.1-.1 10.8-.1 0 .3-4.8 9.5-5.4 10.5zM139.8 8.4v10.7c-.3 0-9.7-4.9-10.4-5.3.2-.2 9.9-5.2 10.4-5.4zM26.2 10.1c-3.4-2.9-6.7-5.8-10.1-8.6v-.1H26c.1 0 .2 0 .2.2V10.1zM.8 36.2c3.4 2.9 6.7 5.8 10.1 8.6-.1.1-.2.1-.3.1H1.1c-.3 0-.3 0-.3-.3v-8.2-.2zM139.7 48.1c-.4-3-2-5.4-4.6-7-1.6-1-3.4-1.5-5.4-1.5H116c-1-.2-1.7-.7-2-1.7-.4-.9-.2-1.8.4-2.5.3-.4.7-.6 1.1-.9.1 0 .2-.1.2-.2-.4-.3-.3-.3-.8 0-2.9 1.7-4.3 4.8-3.7 8.1.3 1.6 1.1 3 2.2 4.1l.3.3c-.1.1-.2.1-.3.2-1 .4-1.9 1-2.7 1.8-.7.8-1.2 1.6-1.3 2.7-.2 1.7.3 3.2 1.3 4.4.9 1.1 2 1.8 3.3 2.4 2.4 1.1 5 1.5 7.6 1.7.3 0 .6 0 .8.1h3.5c.3-.1.6-.1.8-.1 2.1-.2 4.1-.5 6-1.3 1.3-.5 2.6-1.2 3.6-2.1 2.6-2.3 3.9-5.1 3.4-8.5zm-6.4 8.2c-.8.8-1.8 1.3-2.9 1.7-1.7.6-3.5.9-6.2.9-.9 0-2.5-.1-4-.6-1.2-.3-2.3-.8-3.2-1.7-1.1-1-1.6-2.2-1.7-3.6-.1-1 0-2 .5-2.9.3-.6.6-1.1 1.1-1.5.2-.1.3-.2.5-.1.7.1 1.4.1 2.1.1h10.7c.8 0 1.5.2 2.2.5 1.5.7 2.4 1.7 2.6 3.4-.1 1.4-.6 2.7-1.7 3.8zM134.2 18.9c-1.3-1.5-3-2.5-4.8-3.1-2.1-.7-4.3-.9-6.6-.8-1.6.1-3.1.4-4.6.9-1.7.6-3.2 1.6-4.4 3-1.5 1.7-2.2 3.7-2.3 6-.1 2.3.6 4.5 2 6.3 1.2 1.5 2.7 2.5 4.4 3.2 1.9.8 3.9 1.1 6.4 1.1.4 0 1.2 0 2-.2 1.6-.2 3.1-.6 4.5-1.3 3.3-1.7 5.3-4.3 5.6-8.1.2-2.6-.5-5-2.2-7zm-6.9 10.5c0 .7-.1 1.4-.3 2-.4 1.1-1.5 2.3-3.2 2.3-1.4 0-2.6-1-3-2.4-.2-.6-.2-1.2-.2-1.8v-2.2-1.9-4.7c0-.6.1-1.1.2-1.7.4-1.5 1.6-2.5 3.2-2.5 1.4 0 2.7 1.1 3 2.6.2.7.2 1.4.2 2.1.1 2.8.2 5.5.1 8.2z"/></svg>