<svg width="400" height="141" viewBox="0 0 400 141" fill="none" xmlns="http://www.w3.org/2000/svg">
<mask id="mask0" mask-type="alpha" maskUnits="userSpaceOnUse" x="0" y="0" width="400" height="141">
<path d="M363.133 68.4402C365.427 70.7333 366.661 73.732 366.838 77.2599C366.838 78.1419 366.309 78.8475 365.427 78.8475H337.027C336.145 78.8475 335.439 77.9655 335.616 77.0835C336.498 73.3792 338.262 70.5569 340.908 68.2638C343.906 65.7943 347.611 64.3831 352.197 64.3831C356.783 64.3831 360.488 65.6179 363.133 68.4402ZM392.768 103.896L393.297 104.601C397.883 110.246 397.354 118.536 392.062 123.475C381.302 133.706 368.249 138.998 353.079 138.998C343.024 138.998 334.028 136.705 326.443 132.472C324.503 131.413 322.739 130.178 320.975 128.944C319.564 131.237 317.624 133.001 314.978 134.235C308.098 137.411 301.219 138.998 294.516 138.998C284.109 138.998 275.112 135.47 268.233 128.591C266.646 127.18 265.411 125.416 264.176 123.828V124.181C264.176 131.942 257.826 138.116 250.241 138.116H233.66C225.898 138.116 219.724 131.766 219.724 124.181V83.9629L203.32 128.767C201.379 134.235 196.088 137.94 190.267 137.94H173.685C167.688 137.94 162.396 134.059 160.456 128.414L155.164 113.421L150.049 128.591C148.108 134.235 142.816 138.116 136.819 138.116H120.238C114.417 138.116 109.125 134.412 107.185 128.944L98.7177 106.012C97.4829 110.951 95.5425 115.538 92.7202 119.595C88.134 126.474 81.7838 131.766 74.0224 135.294C66.6138 138.645 58.676 140.409 50.0327 140.409C40.8602 140.409 31.864 138.469 23.3971 134.588C15.9885 131.237 9.10909 126.121 3.46445 119.771C-1.29821 114.303 -1.12181 106.012 3.81724 100.897L15.2829 88.902C16.6941 87.4908 18.2816 86.4325 20.0456 85.5505C15.4593 82.7282 11.5786 79.0239 8.40351 74.614C3.99364 68.4402 1.70051 60.6788 1.70051 51.6827C1.70051 42.3338 4.17003 34.0432 8.93269 26.9874C13.6954 20.108 19.8692 14.8162 27.6305 11.2883C34.8627 7.76038 42.8005 5.99643 51.091 5.99643C59.3816 5.99643 67.3194 7.76038 74.9044 11.2883C81.6074 14.287 87.6048 18.6969 92.7202 24.3415C95.8953 27.8694 96.9537 32.8084 95.8953 37.2183H111.065C117.239 37.2183 122.531 41.099 124.471 46.92L128.528 59.9732L132.585 46.7436C134.349 40.9226 139.818 37.0419 145.991 37.0419H164.16C170.334 37.0419 175.626 40.9226 177.566 46.7436L181.27 58.3857L184.622 46.92C186.386 40.9226 191.854 36.8655 198.028 36.8655H216.726C217.961 36.8655 219.019 37.0419 220.254 37.3947C218.137 33.6904 216.902 29.6333 216.902 25.0471C216.902 18.3441 219.372 12.3466 224.311 7.58399C229.073 2.99772 235.071 0.70459 241.95 0.70459C248.83 0.70459 254.827 3.17412 259.59 7.58399C260.824 8.81875 262.059 10.2299 262.941 11.6411C265.411 9.70072 268.409 8.46596 271.761 8.46596H273.701C289.4 8.46596 302.101 21.1664 302.101 36.8655V82.0226C302.806 74.614 304.747 67.5582 308.275 61.208C312.685 53.0938 318.858 46.5672 326.796 41.981C334.734 37.3947 343.73 34.9252 353.785 34.9252C368.249 34.9252 379.715 39.6878 388.005 49.0368C395.943 58.0329 400 70.5569 400 86.0797V91.5479C400 96.8398 397.001 101.426 392.768 103.896ZM89.0159 94.8994C89.0159 88.1964 87.4284 82.7282 84.2533 78.6711C81.0782 74.614 77.3739 71.6153 72.964 69.4986C68.5541 67.5582 62.9095 65.6179 56.0301 63.6775C50.9147 62.09 47.034 60.8552 44.5644 59.9732C42.0949 58.9149 39.9782 57.6801 38.0378 55.9162C36.2739 54.1522 35.3919 52.0355 35.3919 49.2132C35.3919 45.8617 36.8031 43.2157 39.449 41.4518C42.0949 39.6878 45.6228 38.8059 49.8563 38.8059C53.9134 38.8059 57.9705 39.6878 62.0275 41.6282C65.0262 43.0393 67.6722 44.8033 69.6125 46.92C70.1417 47.4492 70.8473 47.802 71.7292 47.802C72.4348 47.802 73.3168 47.4492 73.846 46.92L84.4297 35.6308C85.488 34.5724 85.488 32.8084 84.4297 31.7501C80.3726 27.3402 75.6099 23.8123 70.3181 21.3428C64.3207 18.3441 57.7941 17.1093 51.091 17.1093C44.388 17.1093 38.0378 18.5205 32.2168 21.3428C26.3958 24.1651 21.6331 28.0458 17.9288 33.3376C14.4009 38.6295 12.637 44.6269 12.637 51.6827C12.637 58.3857 14.2245 63.8539 17.2232 68.0874C20.222 72.3209 24.1026 75.496 28.5125 77.6127C32.9224 79.7295 38.2142 81.8462 44.5644 83.6102C50.3855 85.1977 54.4426 86.4325 56.9121 87.3144C59.3816 88.1964 61.4984 89.2548 63.2623 90.8423C65.0262 92.4299 66.0846 94.5466 66.0846 97.0162C66.0846 100.015 64.6735 102.484 62.0275 104.425C59.3816 106.189 55.8537 107.247 51.7966 107.247C47.034 107.247 42.0949 106.012 37.3323 103.719C33.4516 101.955 30.2765 99.4857 27.4541 96.487C26.925 95.7814 26.043 95.4286 25.3374 95.4286C24.6318 95.4286 23.7499 95.7814 23.2207 96.3106L11.755 108.305C10.6966 109.364 10.6966 111.128 11.755 112.186C16.3413 117.478 21.9859 121.535 28.1597 124.357C35.2155 127.532 42.6241 129.12 50.2091 129.12C57.0885 129.12 63.6151 127.709 69.4361 125.063C75.2571 122.417 80.0198 118.36 83.5477 113.244C87.252 108.305 89.0159 101.955 89.0159 94.8994ZM216.726 47.9784H198.028C196.793 47.9784 195.558 48.8604 195.206 50.0951L183.034 92.0771C182.858 92.7827 182.329 93.1355 181.623 93.1355C181.094 93.1355 180.388 92.7827 180.212 92.0771L166.982 50.0951C166.63 48.8604 165.571 48.1548 164.16 48.1548H145.991C144.757 48.1548 143.698 49.0368 143.169 50.0951L129.94 92.4299C129.763 93.1355 129.058 93.4883 128.528 93.4883C127.999 93.4883 127.294 93.1355 127.117 92.4299L113.888 50.0951C113.535 48.8604 112.476 48.1548 111.065 48.1548H93.4258C91.4855 48.1548 90.0743 50.0951 90.7799 52.0355L117.415 125.239C117.768 126.298 118.827 127.18 120.061 127.18H136.643C137.877 127.18 138.936 126.474 139.288 125.239L153.576 82.7282C153.753 82.0226 154.458 81.6698 154.988 81.6698C155.517 81.6698 156.222 82.0226 156.399 82.7282L170.687 125.239C171.04 126.474 172.098 127.18 173.333 127.18H189.914C191.149 127.18 192.207 126.474 192.56 125.239L219.548 51.8591C220.077 50.0951 218.843 47.9784 216.726 47.9784ZM253.063 50.9771C253.063 49.3896 251.828 48.1548 250.241 48.1548H233.66C232.072 48.1548 230.837 49.3896 230.837 50.9771V124.181C230.837 125.769 232.072 127.003 233.66 127.003H250.241C251.828 127.003 253.063 125.769 253.063 124.181V50.9771ZM255.709 25.0471C255.709 21.3428 254.298 18.1677 251.652 15.6981C249.006 13.2286 245.655 11.8175 241.774 11.8175C237.893 11.8175 234.542 13.0522 231.896 15.6981C229.25 18.1677 227.839 21.3428 227.839 25.0471C227.839 28.7514 229.25 31.9265 231.896 34.396C234.542 36.8655 237.893 38.2767 241.774 38.2767C245.655 38.2767 249.006 37.0419 251.652 34.396C254.474 31.9265 255.709 28.7514 255.709 25.0471ZM311.979 119.771C310.568 118.007 309.333 116.067 308.275 113.95C307.393 112.539 306.687 110.951 306.158 109.364C305.629 108.129 304.394 107.423 302.983 107.776C301.924 108.129 300.866 108.129 300.161 108.129C297.515 108.129 295.221 107.247 293.634 105.483C291.87 103.719 290.988 101.25 290.988 98.2509V36.8655C290.988 27.3402 283.227 19.5788 273.701 19.5788H271.585C269.997 19.5788 268.762 20.8136 268.762 22.4012V100.368C268.762 109.011 271.232 115.89 275.994 120.653C280.934 125.416 287.107 127.885 294.516 127.885C298.926 127.885 304.218 127.003 310.921 123.828C312.685 122.946 313.214 121.182 311.979 119.771ZM388.534 86.2561C388.534 73.3792 385.888 63.5011 379.715 56.6217C373.541 49.7423 364.897 46.2145 353.785 46.2145C345.67 46.2145 338.615 47.9784 332.441 51.6827C326.267 55.387 321.504 60.326 318.153 66.4999C314.801 72.8501 313.037 79.9059 313.037 87.6672C313.037 95.4286 314.625 102.308 317.976 108.482C321.328 114.656 326.091 119.418 332.088 122.77C338.262 126.121 345.318 127.885 353.432 127.885C365.603 127.885 376.01 123.828 384.654 115.538C385.712 114.479 385.888 112.715 384.83 111.657L377.245 102.308C376.716 101.602 375.834 101.25 374.952 101.25C374.246 101.25 373.541 101.426 373.012 101.955C371.071 103.719 368.778 105.13 366.309 106.365C362.957 107.953 359.253 108.658 355.372 108.658C349.904 108.658 345.494 107.247 341.966 104.601C338.967 102.308 337.027 99.4857 335.969 96.3106C335.616 95.4286 336.321 94.5466 337.38 94.5466H385.712C387.3 94.5466 388.534 93.3119 388.534 91.7243V86.2561Z" fill="black"/>
</mask>
<g mask="url(#mask0)">
<path d="M363.133 68.4402C365.427 70.7333 366.661 73.732 366.838 77.2599C366.838 78.1419 366.309 78.8475 365.427 78.8475H337.027C336.145 78.8475 335.439 77.9655 335.616 77.0835C336.498 73.3792 338.262 70.5569 340.908 68.2638C343.906 65.7943 347.611 64.3831 352.197 64.3831C356.783 64.3831 360.488 65.6179 363.133 68.4402ZM392.768 103.896L393.297 104.601C397.883 110.246 397.354 118.536 392.062 123.475C381.302 133.706 368.249 138.998 353.079 138.998C343.024 138.998 334.028 136.705 326.443 132.472C324.503 131.413 322.739 130.178 320.975 128.944C319.564 131.237 317.624 133.001 314.978 134.235C308.098 137.411 301.219 138.998 294.516 138.998C284.109 138.998 275.112 135.47 268.233 128.591C266.646 127.18 265.411 125.416 264.176 123.828V124.181C264.176 131.942 257.826 138.116 250.241 138.116H233.66C225.898 138.116 219.724 131.766 219.724 124.181V83.9629L203.32 128.767C201.379 134.235 196.088 137.94 190.267 137.94H173.685C167.688 137.94 162.396 134.059 160.456 128.414L155.164 113.421L150.049 128.591C148.108 134.235 142.816 138.116 136.819 138.116H120.238C114.417 138.116 109.125 134.412 107.185 128.944L98.7177 106.012C97.4829 110.951 95.5425 115.538 92.7202 119.595C88.134 126.474 81.7838 131.766 74.0224 135.294C66.6138 138.645 58.676 140.409 50.0327 140.409C40.8602 140.409 31.864 138.469 23.3971 134.588C15.9885 131.237 9.10909 126.121 3.46445 119.771C-1.29821 114.303 -1.12181 106.012 3.81724 100.897L15.2829 88.902C16.6941 87.4908 18.2816 86.4325 20.0456 85.5505C15.4593 82.7282 11.5786 79.0239 8.40351 74.614C3.99364 68.4402 1.70051 60.6788 1.70051 51.6827C1.70051 42.3338 4.17003 34.0432 8.93269 26.9874C13.6954 20.108 19.8692 14.8162 27.6305 11.2883C34.8627 7.76038 42.8005 5.99643 51.091 5.99643C59.3816 5.99643 67.3194 7.76038 74.9044 11.2883C81.6074 14.287 87.6048 18.6969 92.7202 24.3415C95.8953 27.8694 96.9537 32.8084 95.8953 37.2183H111.065C117.239 37.2183 122.531 41.099 124.471 46.92L128.528 59.9732L132.585 46.7436C134.349 40.9226 139.818 37.0419 145.991 37.0419H164.16C170.334 37.0419 175.626 40.9226 177.566 46.7436L181.27 58.3857L184.622 46.92C186.386 40.9226 191.854 36.8655 198.028 36.8655H216.726C217.961 36.8655 219.019 37.0419 220.254 37.3947C218.137 33.6904 216.902 29.6333 216.902 25.0471C216.902 18.3441 219.372 12.3466 224.311 7.58399C229.073 2.99772 235.071 0.70459 241.95 0.70459C248.83 0.70459 254.827 3.17412 259.59 7.58399C260.824 8.81875 262.059 10.2299 262.941 11.6411C265.411 9.70072 268.409 8.46596 271.761 8.46596H273.701C289.4 8.46596 302.101 21.1664 302.101 36.8655V82.0226C302.806 74.614 304.747 67.5582 308.275 61.208C312.685 53.0938 318.858 46.5672 326.796 41.981C334.734 37.3947 343.73 34.9252 353.785 34.9252C368.249 34.9252 379.715 39.6878 388.005 49.0368C395.943 58.0329 400 70.5569 400 86.0797V91.5479C400 96.8398 397.001 101.426 392.768 103.896ZM89.0159 94.8994C89.0159 88.1964 87.4284 82.7282 84.2533 78.6711C81.0782 74.614 77.3739 71.6153 72.964 69.4986C68.5541 67.5582 62.9095 65.6179 56.0301 63.6775C50.9147 62.09 47.034 60.8552 44.5644 59.9732C42.0949 58.9149 39.9782 57.6801 38.0378 55.9162C36.2739 54.1522 35.3919 52.0355 35.3919 49.2132C35.3919 45.8617 36.8031 43.2157 39.449 41.4518C42.0949 39.6878 45.6228 38.8059 49.8563 38.8059C53.9134 38.8059 57.9705 39.6878 62.0275 41.6282C65.0262 43.0393 67.6722 44.8033 69.6125 46.92C70.1417 47.4492 70.8473 47.802 71.7292 47.802C72.4348 47.802 73.3168 47.4492 73.846 46.92L84.4297 35.6308C85.488 34.5724 85.488 32.8084 84.4297 31.7501C80.3726 27.3402 75.6099 23.8123 70.3181 21.3428C64.3207 18.3441 57.7941 17.1093 51.091 17.1093C44.388 17.1093 38.0378 18.5205 32.2168 21.3428C26.3958 24.1651 21.6331 28.0458 17.9288 33.3376C14.4009 38.6295 12.637 44.6269 12.637 51.6827C12.637 58.3857 14.2245 63.8539 17.2232 68.0874C20.222 72.3209 24.1026 75.496 28.5125 77.6127C32.9224 79.7295 38.2142 81.8462 44.5644 83.6102C50.3855 85.1977 54.4426 86.4325 56.9121 87.3144C59.3816 88.1964 61.4984 89.2548 63.2623 90.8423C65.0262 92.4299 66.0846 94.5466 66.0846 97.0162C66.0846 100.015 64.6735 102.484 62.0275 104.425C59.3816 106.189 55.8537 107.247 51.7966 107.247C47.034 107.247 42.0949 106.012 37.3323 103.719C33.4516 101.955 30.2765 99.4857 27.4541 96.487C26.925 95.7814 26.043 95.4286 25.3374 95.4286C24.6318 95.4286 23.7499 95.7814 23.2207 96.3106L11.755 108.305C10.6966 109.364 10.6966 111.128 11.755 112.186C16.3413 117.478 21.9859 121.535 28.1597 124.357C35.2155 127.532 42.6241 129.12 50.2091 129.12C57.0885 129.12 63.6151 127.709 69.4361 125.063C75.2571 122.417 80.0198 118.36 83.5477 113.244C87.252 108.305 89.0159 101.955 89.0159 94.8994ZM216.726 47.9784H198.028C196.793 47.9784 195.558 48.8604 195.206 50.0951L183.034 92.0771C182.858 92.7827 182.329 93.1355 181.623 93.1355C181.094 93.1355 180.388 92.7827 180.212 92.0771L166.982 50.0951C166.63 48.8604 165.571 48.1548 164.16 48.1548H145.991C144.757 48.1548 143.698 49.0368 143.169 50.0951L129.94 92.4299C129.763 93.1355 129.058 93.4883 128.528 93.4883C127.999 93.4883 127.294 93.1355 127.117 92.4299L113.888 50.0951C113.535 48.8604 112.476 48.1548 111.065 48.1548H93.4258C91.4855 48.1548 90.0743 50.0951 90.7799 52.0355L117.415 125.239C117.768 126.298 118.827 127.18 120.061 127.18H136.643C137.877 127.18 138.936 126.474 139.288 125.239L153.576 82.7282C153.753 82.0226 154.458 81.6698 154.988 81.6698C155.517 81.6698 156.222 82.0226 156.399 82.7282L170.687 125.239C171.04 126.474 172.098 127.18 173.333 127.18H189.914C191.149 127.18 192.207 126.474 192.56 125.239L219.548 51.8591C220.077 50.0951 218.843 47.9784 216.726 47.9784ZM253.063 50.9771C253.063 49.3896 251.828 48.1548 250.241 48.1548H233.66C232.072 48.1548 230.837 49.3896 230.837 50.9771V124.181C230.837 125.769 232.072 127.003 233.66 127.003H250.241C251.828 127.003 253.063 125.769 253.063 124.181V50.9771ZM255.709 25.0471C255.709 21.3428 254.298 18.1677 251.652 15.6981C249.006 13.2286 245.655 11.8175 241.774 11.8175C237.893 11.8175 234.542 13.0522 231.896 15.6981C229.25 18.1677 227.839 21.3428 227.839 25.0471C227.839 28.7514 229.25 31.9265 231.896 34.396C234.542 36.8655 237.893 38.2767 241.774 38.2767C245.655 38.2767 249.006 37.0419 251.652 34.396C254.474 31.9265 255.709 28.7514 255.709 25.0471ZM311.979 119.771C310.568 118.007 309.333 116.067 308.275 113.95C307.393 112.539 306.687 110.951 306.158 109.364C305.629 108.129 304.394 107.423 302.983 107.776C301.924 108.129 300.866 108.129 300.161 108.129C297.515 108.129 295.221 107.247 293.634 105.483C291.87 103.719 290.988 101.25 290.988 98.2509V36.8655C290.988 27.3402 283.227 19.5788 273.701 19.5788H271.585C269.997 19.5788 268.762 20.8136 268.762 22.4012V100.368C268.762 109.011 271.232 115.89 275.994 120.653C280.934 125.416 287.107 127.885 294.516 127.885C298.926 127.885 304.218 127.003 310.921 123.828C312.685 122.946 313.214 121.182 311.979 119.771ZM388.534 86.2561C388.534 73.3792 385.888 63.5011 379.715 56.6217C373.541 49.7423 364.897 46.2145 353.785 46.2145C345.67 46.2145 338.615 47.9784 332.441 51.6827C326.267 55.387 321.504 60.326 318.153 66.4999C314.801 72.8501 313.037 79.9059 313.037 87.6672C313.037 95.4286 314.625 102.308 317.976 108.482C321.328 114.656 326.091 119.418 332.088 122.77C338.262 126.121 345.318 127.885 353.432 127.885C365.603 127.885 376.01 123.828 384.654 115.538C385.712 114.479 385.888 112.715 384.83 111.657L377.245 102.308C376.716 101.602 375.834 101.25 374.952 101.25C374.246 101.25 373.541 101.426 373.012 101.955C371.071 103.719 368.778 105.13 366.309 106.365C362.957 107.953 359.253 108.658 355.372 108.658C349.904 108.658 345.494 107.247 341.966 104.601C338.967 102.308 337.027 99.4857 335.969 96.3106C335.616 95.4286 336.321 94.5466 337.38 94.5466H385.712C387.3 94.5466 388.534 93.3119 388.534 91.7243V86.2561Z" fill="#E8E8E8"/>
<ellipse cx="115.618" cy="24.1958" rx="190.598" ry="102.92" transform="rotate(10.7144 115.618 24.1958)" fill="url(#paint0_radial)"/>
<ellipse cx="284.849" cy="47.9297" rx="123.183" ry="204.801" transform="rotate(-41.3394 284.849 47.9297)" fill="url(#paint1_radial)"/>
<ellipse cx="185" cy="145.205" rx="194" ry="124.5" fill="url(#paint2_radial)"/>
<ellipse opacity="0.9" cx="390.793" cy="87.2024" rx="102.23" ry="179.025" transform="rotate(14.7321 390.793 87.2024)" fill="url(#paint3_radial)"/>
<ellipse cx="40.8112" cy="158.377" rx="152.06" ry="224.302" transform="rotate(-33.8415 40.8112 158.377)" fill="url(#paint4_radial)"/>
</g>
<defs>
<radialGradient id="paint0_radial" cx="0" cy="0" r="1" gradientUnits="userSpaceOnUse" gradientTransform="translate(115.618 24.1958) rotate(90) scale(102.92 190.598)">
<stop stop-color="#F44378"/>
<stop offset="1" stop-color="#F44378" stop-opacity="0"/>
</radialGradient>
<radialGradient id="paint1_radial" cx="0" cy="0" r="1" gradientUnits="userSpaceOnUse" gradientTransform="translate(284.849 47.9297) rotate(90) scale(204.801 123.183)">
<stop stop-color="#EA5ACC"/>
<stop offset="1" stop-color="#EA5ACC" stop-opacity="0"/>
</radialGradient>
<radialGradient id="paint2_radial" cx="0" cy="0" r="1" gradientUnits="userSpaceOnUse" gradientTransform="translate(185 145.205) rotate(90) scale(124.5 194)">
<stop stop-color="#FF9426"/>
<stop offset="1" stop-color="#FF9426" stop-opacity="0"/>
</radialGradient>
<radialGradient id="paint3_radial" cx="0" cy="0" r="1" gradientUnits="userSpaceOnUse" gradientTransform="translate(390.793 87.2024) rotate(90) scale(179.025 102.23)">
<stop stop-color="#4FDFFF"/>
<stop offset="1" stop-color="#4FDFFF" stop-opacity="0"/>
</radialGradient>
<radialGradient id="paint4_radial" cx="0" cy="0" r="1" gradientUnits="userSpaceOnUse" gradientTransform="translate(40.8112 158.377) rotate(90) scale(224.302 152.06)">
<stop stop-color="#723ED8"/>
<stop offset="1" stop-color="#723ED8" stop-opacity="0"/>
</radialGradient>
</defs>
</svg>
