<svg id="Layer_1" xmlns="http://www.w3.org/2000/svg" viewBox="0 0 888.1 312.1"><style>.st0{fill:#0B0708;} .st1{fill:#ED3625;} .st2{fill:#ED3124;} .st3{fill:#0C0809;} .st4{fill:#F16642;} .st5{fill:#0D090A;} .st6{fill:#EF5434;} .st7{fill:#EE442B;} .st8{fill:#ED3A27;} .st9{fill:#EE422A;} .st10{fill:#F0603D;} .st11{fill:#F0603E;} .st12{fill:#EE4F31;} .st13{fill:#F05B39;} .st14{fill:#EF5B39;} .st15{fill:#EE3F28;} .st16{fill:#ED3B27;} .st17{fill:#EE492E;} .st18{fill:#EE4A2D;} .st19{fill:#EF5334;} .st20{fill:#EE5032;} .st21{fill:#ED3324;} .st22{fill:#F05D3A;} .st23{fill:#F05B3A;} .st24{fill:#EE492D;} .st25{fill:#EE432A;} .st26{fill:#EF4E30;} .st27{fill:#EE4028;} .st28{fill:#EF5333;} .st29{fill:#EF5636;} .st30{fill:#F2704C;} .st31{fill:#F3805D;} .st32{fill:#F59C7B;} .st33{fill:#F4906E;} .st34{fill:#F26D4A;} .st35{fill:#F16B47;} .st36{fill:#F16743;} .st37{fill:#F16340;} .st38{fill:#F16E4B;} .st39{fill:#F3805E;} .st40{fill:#F27754;} .st41{fill:#F8B498;} .st42{fill:#F7A586;} .st43{fill:#F8AD90;} .st44{fill:#F69B7B;} .st45{fill:#F59371;} .st46{fill:#F48B69;} .st47{fill:#F7A98B;} .st48{fill:#F6A283;} .st49{fill:#F9B89E;}</style><path class="st0" d="M307 212.1c5.5 3.7 10.2 7 15.2 10 14.1 8.4 28.9 13.2 45.7 10.6 24.6-3.8 39.3-29.3 29.9-52.4-2.6-6.4-7.3-11-13-14.7-8.9-5.7-18.4-9.9-28.1-14-9.2-3.9-18.1-8.3-26.6-13.6-17.7-11.1-24.2-27.3-22-47.4 2-18.8 12-32.4 29.1-40 22.2-9.9 44.2-7 65.6 3.1 2.8 1.3 7 1.9 7.5 5.1.8 4.9.7 10 0 14.9-.4 2.7-2.4.3-3.3-.3-10.1-6.3-20.7-11.5-32.6-13.3-12.9-1.9-25.1-.5-36.2 7.3-17.9 12.6-21.3 44.7 2.1 57.6 8.5 4.7 17 9 26 12.6 8.3 3.4 16.5 7 24.3 11.6 19.9 11.8 29.2 30.8 26.1 53.4-2.9 21.3-18.7 38.6-40.4 43.9-24.6 6-46.7-.6-67.4-14-1.7-1.1-2-2.4-2-4.1.2-5.1.1-10.2.1-16.3z"/><path class="st1" d="M2.7 171C1.1 165.1.6 159.1.8 153c-.6-4.9-.6-9.7 0-14.6 0-.9.1-1.8.1-2.8 2.1-1.7 4.4-1.6 6.7-.6 1.5 1.2 1.5 2.8 1.3 4.5-.2 1.3-.8 2.5-.7 3.8 0 .7.3 1.1.2.4 0 0 .3-.1.4-.1 5-6 11.4-10.3 17.7-14.6 2.1-1.4 4.3-2.7 7-2 11.1.5 22.2-.1 33.3.4 10.8.4 21.5-.7 32.3.3 5.7.5 11.6.1 17.2-1.5 4.2-.5 7.8 1.8 11.4 3.3 7.2 3 13.3 1.8 19-3.2 1.1-1 2.1-2.2 3.9-2 2.2 1.8 1.4 4.2 1 6.4-.6 3.4-.1 6.2 3.7 7.5 2.4.8 3 2.6 3.1 5 .1 4.4-.6 8.8.4 13.2.6 3.7 1.3 7.3 1.9 11-2.7 2-6.1 1.2-9 2.3-2.6-.9-2.7-3.6-4.1-5.4-3-3.9-5.3-4.8-9.9-2.8-5.8 2.6-11.5-.2-17.1-.4-3.1-.1-6-1.4-9.1.7-1.7 1.2-4 .9-5.9.5-5.8-1.2-11.7-.6-17.6-1.3-7-.8-14.2.2-21.4.1-15.3-.3-30.5 0-45.8-.1-3.8 0-6.5.2-7.5 4.4-.2.9-.9 1.8-1.7 2.4-2.6 1.7-6.3.7-8.9 3.2z"/><path class="st0" d="M439 311.6c-.5-2.2.8-3.5 1.5-5 13.3-27.4 26.6-54.7 40.1-82 1.7-3.4 1.4-5.9-.3-9.1-16.8-32-33.4-64-50-96-.7-1.4-1.4-2.9-2.5-4.9 5.2 0 9.8.1 14.4 0 2.8-.1 3 2.2 3.9 3.8 13.9 26.5 27.7 53.1 41.5 79.6.8 1.6 1.7 3.2 2.5 4.8 1.8-.6 2-2.3 2.6-3.6 12.9-26.4 25.9-52.8 38.6-79.4 1.9-4 3.9-6.1 8.5-5.4 2.8.4 5.6.1 8.4.1.9 1.7-.3 2.7-.9 3.8-30.3 62.7-61 125.3-91.5 187.9-2 4.2-4.3 6.2-9 5.5-2.5-.4-5.2-.1-7.8-.1z"/><path class="st2" d="M2.7 171c.1-2.1.7-3.5 3.2-3.3 2 .1 4 0 6 0 3.2 5 2.8 11.1 4.8 16.5 1.5 5.5 3.5 10.8 5.9 16 2.8 5.8 5.4 11.6 8.9 17 3.9 6.2 8.4 12.1 13.1 17.8 5.2 5.2 9.9 10.8 15.9 15.1 5.1 4.4 10.6 8.1 16.4 11.6 6.7 4.1 13.7 7.7 21.2 10.1 13 5 26.4 7.6 40.2 8.5 19.6 1.3 38.3-1.9 56.5-8.6 6.9-2.1 13.1-5.5 19.2-9.3 4.8-2.4 9.3-5.1 13.5-9.1-3.4-2.6-7.4-3.2-10.8-4.9-8.7-4.4-17.5-8.7-25.1-15-6.2-5-11.9-10.6-17.3-16.5-4.4-5.8-9.1-11.4-12.6-17.9-2.4-5.1-5.3-10-7-15.4-1.3-4.6-4.8-8.7-2.8-14 2.3-3.6 5.9-1.4 8.9-2 6.6 25.3 20.6 45.6 42 60.6 14.3 10 30.2 16 47.4 18.8 0 2.2-1.9 3.1-3.1 4.3-41.9 37.9-90.5 50.3-144.4 33.5C48.9 268 16.3 230.1 3.2 175.4c-.3-1.4-.3-3-.5-4.4z"/><path class="st0" d="M834.2 224.8v6.9c0 9.7 0 9.7-9 12.8-30.7 10.4-64 .8-81.2-24.3-26.9-39.2-8.4-100.4 48.1-107.7 12-1.6 23.5-.1 35 3.4 3.5 1 5.3 2.6 4.9 6.6-.4 3.6-.1 7.3-.1 11.6-16.4-8.7-33-11.5-50.3-5-11 4.2-19.2 11.9-25.3 21.8-12.8 20.8-10.2 49.2 6.1 67.4 17.5 19.4 39.8 21.6 71.8 6.5z"/><path class="st3" d="M704.3 180.7c0 20.1-.1 40.3.1 60.4 0 3.5-.4 4.9-4.5 4.8-10.5-.3-10.5 0-10.5-10.8 0-38.3.1-76.6-.1-114.8 0-4.3.7-6.1 5.6-5.8 9.5.4 9.5.1 9.5 9.8-.1 18.8-.1 37.6-.1 56.4z"/><path class="st4" d="M94.9 9.6c17.6-7.4 36.1-10 55-9.6C166.1.5 182 3 197 9.4c-.1 3.3-2.8 3.2-4.9 3.5-2.2.3-4.5.5-6.6 1.4-8.7-1-17.1-3.9-25.9-4.6-9.4-.8-18.8-.9-28.3-.1-4 .6-8 1.1-12 1.9-2.8.5-5.6 1.3-8.4 1.9-.8.1-1.6.1-2.4-.1-2.8-1.1-5.8-1.3-8.8-1.6-1.8-.1-3.6-.5-4.8-2.1z"/><path class="st5" d="M704.3 60.1v1c0 11.8-.4 12-12.5 10.7-2-.2-2.5-1-2.5-2.8 0-6.2-.9-12.5.3-18.4 1.2-6.2 7-1.8 10.6-2.8 1.9-.5 4.5-.8 4.2 2.9-.3 3.1-.1 6.3-.1 9.4z"/><path class="st6" d="M239.8 34.6c4.2 2.4 7.4 5.8 11.2 9.8-9.8 1.4-18.3 4.6-27.1 7-3.3-.9-7.1.2-9.9-2.4-.6-2.7 1.6-2.9 3.2-3.4 4.3-1.4 8.3-3.4 12.5-4.7 1.1-.3 2.5-.6 1.3-2.3-.5-.9-.8-1.8-.4-2.8 2.9-2.1 6-2.3 9.2-1.2z"/><path class="st7" d="M181.9 81.7c-5.6 5.8-8.2 13.5-13.1 19.7-3.1.3-6.1-.1-9.1-.6-1.2-2.6.5-4.5 1.7-6.3 2.4-3.9 4.9-7.8 7.7-11.4 1.4-1.9 2.8-3.9 5.4-4.4 2.9-.1 6.5-1.7 7.4 3z"/><path class="st8" d="M158.8 156.6c-2-3.8-.7-7.8-.9-11.7-.1-2.9-.3-5-4-5.5-5.2-.8-4.2-5.1-3.8-8.7.2-2.1 1.7-4.1-.2-6-.6-3.3 1.1-5.3 3.7-6.8 6.3-.7 7.6.2 7.4 5-1.8 8.6-2.5 17.2-2.3 25.9 0 2.5.1 5.2.1 7.8z"/><path class="st9" d="M4.9 110.6c1.7-9.1 4.8-17.8 9.1-26 2.7-2.1 5.2-2.1 7.5.6.3.7.3 1.5.2 2.3-.5 2-1.2 3.8-2.1 5.7-2.1 4.5-3.3 9.3-5 13.9-.5 1.5-.7 3.3-2.3 4.2-2.5.6-5 .2-7.4-.7z"/><path class="st10" d="M185.9 13.6c1-2.3 3.1-2 5-2 2.3 0 4.6-.1 6.1-2.2 6.3 2.5 12.8 4.6 18.7 8.2 1.5.9 3.5 1.1 4.2 3.1-2.3 3.8-6.7 1.4-9.6 3.4-2.7.4-4.7-1.5-7.1-2.1-4.6-1.9-9-4.3-13.9-5.7-1.4-.5-2.9-1-3.4-2.7z"/><path class="st11" d="M94.9 9.6c4.6 1.6 9.8 0 14 2.9-1.4 1.9-3.8 1.9-5.6 3-3.2 1.5-6.8 2.2-9.9 4-3.4 1.7-7 2.9-10.4 4.6-.7.2-1.4.1-2.1-.2-2.2-3.4-6.5-.9-9.1-3.4 7.2-4.6 14.8-8.4 23.1-10.9z"/><path class="st12" d="M213.9 48.6c3 1.9 7.4-.6 10 2.8-9.2 4.1-17.4 9.8-26 15-2.3-1-5.2-.4-7.1-2.6-.1-2.7 2.4-3.3 3.8-4.8 5.9-3.8 11.7-7.8 18-10.8.5 0 .9.1 1.3.4z"/><path class="st13" d="M209.9 23.6c1-2.2 3-2 4.9-2 1.8.1 3.5-.1 5.1-1 7.5 3.5 14.2 8 19.9 14-2.8 1.6-6.2.1-8.9 2-.9.8-1.9.6-2.7 0-5.6-4-11.6-7.5-17.3-11.4-.5-.3-.8-.9-1-1.6z"/><path class="st14" d="M71.8 20.6c2.3 0 4.6 0 6.9.1 2.1 0 3.2.8 2.2 3.1-3.3 4.1-8.3 6-12.3 9.1-2.6 2-5.1 4.7-8.8 5.1-2-1.7-5-1.8-6.3-4.5 5.4-5.5 12-9 18.3-12.9z"/><path class="st15" d="M161 122.8c-.5-5.6-4.9-3.7-8-4.1-.2-.2-.3-.4-.5-.6.5-6 2.7-11.4 5.4-16.7.5-.6 1.1-1 2-.7 3.2-1.9 6-.2 8.9.7-3.3 6.8-5.1 14.3-7.8 21.4z"/><path class="st16" d="M4.9 110.6c2.3-1.9 4.7.2 7 0 .3 6.7-1.3 13.1-2 19.7-.7 1.8-.4 3.9-2.1 5.3H.9c.1-8.5 1.4-16.8 4-25z"/><path class="st17" d="M20.9 85.7c-2-2.3-4.6-1-6.9-1 2.9-7.6 7.2-14.4 11.8-21.1 2.7-1.4 5.2-1.9 7.3 1 .6 2.8-1.4 4.7-2.3 7-1 1.8-2.2 3.5-3.2 5.3-1 1.8-1.9 3.6-3 5.3-1.1 1.2-1.3 3.6-3.7 3.5z"/><path class="st18" d="M190.9 63.6c2.2 1.4 5.6-.3 7 2.9-5.3 5.1-10.7 10.1-16 15.2-2-3.5-5.3-1.5-8-2-.5-1.1 0-2 .7-2.7 4.2-4.4 8.1-9 13.2-12.4.9-.7 1.8-1.5 3.1-1z"/><path class="st19" d="M53.6 33.5c2 1.5 5.4.7 6.3 3.9-2.7 5-7.1 8.4-11.4 11.9-1.7 1-2.2 3.8-4.9 3.3-1.3-2.4-4.1-2.5-5.9-4.1 4.6-5.7 10.1-10.5 15.9-15z"/><path class="st20" d="M37.7 48.6c2.6.3 6.3-1 6.2 3.8-.8 3.4-4.3 5.1-5.3 8.4-1.5 1.7-2.6 3.7-4.4 5.1-.5.1-.9 0-1.2-.3-1.7-3-4.7-1.5-7.1-2 3.3-5.4 7.4-10.4 11.8-15z"/><path class="st16" d="M.8 138.4V153c-1.1-4.9-1-9.7 0-14.6z"/><path class="st0" d="M660.7 127.1c9.5 0 9.4 0 8.8-9.5-.1-2-.6-3-2.8-2.9-21.1.4-42.3-.9-63.4.9-20.7 1.8-38.3 17.3-42.1 36.7-4.2 21.3 5.4 40 25.8 50.1 1.4.7 2.7 1.4 4.6 2.4-10.8 4.2-21 8.4-22 21.2-.8 10.6 6.7 15.4 15.8 19.3-6.5 1.6-12.4 3.2-17.7 6.4-20.2 12.2-20.3 39.7-.1 51.9 3.9 2.3 8 4 12.4 5.2 15.4 4.2 31 4 46.6 2.4 9.7-1 19.1-3.1 27.4-8.4 11.7-7.4 15.6-18.5 14.7-31.7-1-13.4-8.4-21.5-20.9-25.6-9.4-3.1-19-4.7-28.8-5.7-9.4-1-18.9-1.6-27.9-5.1-3.7-1.4-7.7-3-8.1-7.8-.3-4.8 2.7-7.6 6.3-10 4.6-3 9.9-4.7 15.2-6.1 11.1-2.9 22.2-5.8 32.1-12 16.2-10 23.5-27.2 20-45.9-1.9-9.8-7-17.7-13.8-24.8.6-.4.8-.8 1.1-.8 5.5-.2 11.1-.2 16.8-.2zm-36.8 126.1c6.1.5 12.2 1.6 17.9 4.1 7.7 3.4 12.5 8.9 12.7 17.5.2 8.4-3.7 14.7-11.1 18.7-10.6 5.8-22.2 6.4-33.9 6.5-8.9.1-17.6-.5-26.1-3.4-11.4-3.8-17.3-10.5-17.2-19.4.1-10.4 6.1-17.9 17.7-21.4 13-4 26.5-3.7 40-2.6zm19-92.2c.1 19.2-15 34.3-34.1 34.2-19-.1-34-14.9-34-33.8 0-19 15.2-34.3 34.1-34.3 18.9 0 34 15.1 34 33.9z"/><path class="st16" d="M151.9 169.6c.4 4.9 2.6 9.4 4 14-1.7 1.8-4 1.6-6.1 1.6-43.2.1-86.3 0-129.5.1-1.5 0-3-.1-4.4-.7-2.4-5.4-3.3-11.2-4-17 1.6-7.5 1.6-7.3 9.9-7.4 9 0 18.1-.6 27.1-.6 13.5.1 27.1.8 40.6-.4 1.3-.1 2.3.2 3.1 1.1.7.8 1.8 1.7 2.5 1.1 4.5-3.5 9.5 1.6 13.3-.3 5.5-2.7 10.3-1.2 15.6-.6 1.6.2 3.3 0 5 .6 2.4.8 5 1 7.3.1 8-3.3 11.9-1.5 14.6 6.8.2.6.7 1.1 1 1.6z"/><path class="st21" d="M116.9 126.7c-1 2.1-2.8 1.9-4.7 2-6.5.3-13.1.3-19.6.2-17.1-.5-34.3-.1-51.4-.3-2.7 0-5.9 2.4-8.3-1 .6-3.5 4-3.5 6.3-4.9 1.7-1.1 3.7-1.6 5.5-2.3 14.9-5.5 30.2-5.2 45.6-2.9 7.9 1.9 16 3.4 23.4 7.1 1.1.6 2.4.9 3.2 2.1z"/><path class="st22" d="M116.9 126.7c-7-1.6-13.4-5.1-20.5-6.5-1.8-.3-4 .1-5.5-1.6 1.1-1.5 2.7-1.9 4.4-1.8 17.9.1 35.7.6 53.6.2 1.6 0 2.9.5 4 1.7h.1l-3 6c-6.6 8.2-12.2 9.8-21.8 6.2-3.8-1.5-7.6-2.8-11.3-4.2z"/><path class="st23" d="M43.9 121.6c-3.5 2.3-7.8 3.1-11 5.9-9.5 4-17.3 10.2-24 18-2.6-1.2-1.3-3.2-1-4.9v-5c.3-1.7-.6-3.6 1-5 .7-2.5 1.1-5 1.5-7.6.3-1.6.8-2.8 2.4-3.4 8.8-.5 17.6-.6 26.4-.3 1.9.1 3.6.6 4.7 2.3z"/><path class="st16" d="M7.9 140.7c.3 1.7-.6 3.6 1 4.9-.3 1.3-1 2.7-1.8.6-.6-1.7-.9-3.9.8-5.5z"/><path class="st24" d="M43.9 235.6c-5-5.5-9.7-11.2-13-18-.3-2 1.1-2.8 2.6-3 3.9-.4 7.9-.9 11.9-.9 12.4.2 24.8 1.4 37.2.3 5-.5 10.2.2 15.4.3 14.9.3 29.8.9 44.8.1 8.8-.5 17.5 0 26.3-.1 2.2 0 4.3.7 5.9 2.3 5.7 5.3 11.3 10.7 17 16-1.7 3.1-4.8 2.6-7.6 2.6-13.5.1-27 0-40.5 0h-77c-7.7.1-15.3-.1-23 .4z"/><path class="st25" d="M174.9 216.6c-8.6-.5-17.2-.7-25.8-.7-8.1 0-16.2 1.3-24.4.1-6.8-1-14 1.2-20.8.1-6.3-1-12.7 1.3-18.9-1.2-2.6-1.1-5.1 1.5-8.1 1.4-9.3-.4-18.5-.8-27.8-.7-4.5 0-9.1-.1-13.6 0-1.9 0-3.7-.1-4.7 2-4.4-4.9-6.5-11.1-9-17-1-2.1.5-2.6 2-3.1 1.8-.6 3.6-.5 5.4-.5h125.9c2.7 0 5.3 0 7.7 1.6 2.8 5.3 6.3 10.1 10.1 14.6 1 1.1 2 2 2 3.4z"/><path class="st26" d="M43.9 235.6c1.4-2.8 4-2 6.2-2h135.1c2.3 0 4.7.3 6.8-1 7.9 5.7 16.6 10.2 25 15-2.7 3-6.4 2.5-9.8 2.5-28.8.1-57.6.1-86.4 0-18.1-.1-36.3.2-54.4-.6-2.2-.1-4.2.8-6.4 1.1-6.6-3.7-11.1-9.6-16.1-15z"/><path class="st27" d="M162.9 198.6c-45.2 0-90.4 0-135.6.1-1.9 0-4.5-1.3-5.4 1.9-3.1-4.9-5-10.3-6-16 1.6-1.7 3.8-1 5.7-1h134.3c2.3 5 4.7 10 7 15z"/><path class="st28" d="M59.9 250.7c1-3.1 3.9-3.4 6.1-2.8 8.4 2 16.8.4 25.1.6 23.1.5 46.2.2 69.2.2 15.2 0 30.5-.1 45.7 0 3.7 0 7.3-.3 10.8-1 3.4 1.2 6.8 2.6 10.3 3.6 3.4 1 2.6 2.4.5 3.9-4.2 2.9-8.6 5.7-12.8 8.5-1.8-1.7-4.1-1.3-6.2-1.3-43.8-.1-87.5-.3-131.3.1-.5 0-1 .1-1.5.2-5.3-3.9-11.4-6.9-15.9-12z"/><path class="st29" d="M75.9 262.6c1.4-1.7 3.3-2 5.4-2h128.8c2.2 0 4.5-.1 4.8 3-6.2 3.3-12.1 7.1-19 9-2-2.1-4.6-1.7-7-1.6-11.1.7-22.2.1-33.3.4-12.6.3-25.2-.4-37.8-.5-5.5 0-10.9.8-16.4.2-1.6-.2-3.4-.1-4.5 1.4-7.5-2.1-14.3-5.9-21-9.9z"/><path class="st13" d="M96.9 272.6c-1.3-3.6 1.5-3 3.3-3 14.4-.1 28.8-.5 43.2.1 16.3.7 32.5-.4 48.7-.1 1.8 0 4.9-1.1 3.8 2.9-13.9 5.5-28.3 8.4-43.4 9.2-17.9.9-35.1-2-52-7.5-1.3-.2-2.4-1-3.6-1.6z"/><path class="st30" d="M185.9 13.6c6 2.3 12 4.7 18 7 .1 2.5-1.8 2.9-3.6 3.3-1.8.4-3.6.3-5.5.3H107c-2.3 0-4.7.2-6.9-.6-3.1-2-.4-2.7.8-3.7 2.9-1.2 5.8-2.4 8.7-3.4 3.1-.9 6.1-2.1 9.3-3 2.2-.3 4.3-.9 6.5-1.2 2.9-.2 5.8-1.1 9.4-1.3-1.4-1.4-3.2-1.2-3.9-2.5.6-.3 1.1-.9 1.7-.9 18.1-.7 36 .3 53.3 6z"/><path class="st31" d="M130.9 8.6c2.3 0 4.6.1 6.5 2.5-3.7 1.9-7.7 1.7-11.5 2.5-1-.2 1.6-1.5-.5-1.6-2.2-.1-4.6.4-6.5-1.5 3.8-1.4 7.9-1.9 12-1.9z"/><path class="st32" d="M118.9 14.6l-9 3c-2.3-1.2-5.2-.8-7-3 1.7-1.4 3.9-1.7 6-2.1h2c2.8 0 6.3-2.3 8 2.1z"/><path class="st33" d="M118.9 14.6c-2.4-2-5.2-2.1-8.1-2 2.5-1.4 5.2-2 8-2 2.3.2 4.5.1 6.8.5 2.4.4 1.1 1.6.3 2.5-2.3.4-4.7.7-7 1z"/><path class="st34" d="M98.8 22.6c33.3 0 66.6 0 99.9.1 2 0 4.1.4 5.2-2l6 3c7 4.3 14 8.7 21 13 .3.7.7 1.3 1 2-1.3 3.3-4.3 2.5-6.7 2.5-15.9.2-31.9.1-47.8.1-33.2 0-66.5.1-99.7-.1-2.5 0-5 .2-7.4-.5-3.4-1.9-.8-3.3.5-4.3 4.2-3.3 8.8-5.9 13.4-8.5 4.2-2 7.8-5.2 12.5-6.1.8 0 1.5.2 2.1.8z"/><path class="st35" d="M68.8 39.6c14.7.5 29.5.6 44.2.4 23.3-.3 46.5.1 69.8-.3 14.6-.3 29.3 0 44-.1 1.7 0 3.7.7 5.2-1 .8.5 2.2.7 2.2 1.7 0 1.2-1.4 1-2.3 1.3-6.1 1.9-12.1 4.1-17.9 7h-1c-2 1-4.2.7-6.4.7-37.9-.1-75.8-.3-113.8 0-10.9.1-21.9.2-32.8-.6-1.5-.8-1.8-2.1-.7-3.2 2.6-2.7 5-6.1 9.5-5.9z"/><path class="st36" d="M190.9 63.6c-6.5 4.5-12 10-17 16-2 .7-2.5 2.8-4 4-1.1.7-2.4 1.3-3.8 1.1-10.1-1.3-20.3-.4-30.3-.2-11.6.3-23.2-1-34.9.2-9.2 1-18.6-.3-27.9-.3-6.6 0-13.3.5-19.9 0-8.1-.6-16.3 1.9-24.3-.9-.5-.2-.9-.5-1.3-1-.8-2.4 1.3-3.6 2.1-5.3 1.3-2.1 3.3-3.7 4.3-6 .8-1.4 2.2-2.3 2.9-3.6 2.2-3.4 5.6-5.8 7.7-9.3.9-.7 2-1 3.1-1.1 3.8-.4 7.6-.3 11.5-.3 29.2-.1 58.5 0 87.7-.1 13.9 0 27.9-.6 41.8.2 2.3.1 4.8-.1 6 2.5-.4 2.1-2.5 2.7-3.7 4.1z"/><path class="st37" d="M28 82.7c9.3 1.2 18.7-.3 27.9.2 12 .8 24-.4 36 .5 8.9.7 18.2-1.4 27-.3 7.5.9 14.7-1.2 22.1-.1 4.3.6 9.3 1.4 14.1-.1 4.8-1.5 9.8.6 14.8.7-3.3 5.7-8.2 10.4-10 17l-1 1c-1.6 1.1-3.3 1.5-5.2 1.4-14.8-.8-29.6.5-44.3 0-10.8-.3-21.6-.4-32.4-.5-10.4 0-20.9-.6-31.3.3-4 .3-8-.4-11.9-.5-5-.1-9.9.4-14.9.1-3.1-2.6.2-4.6.7-6.9.5-1.1 1-2.1 1.4-3.2 1.1-2.5 2.9-4.5 4.2-6.9.7-1.1 1.2-2.4 2.8-2.7z"/><path class="st38" d="M20.9 95.6l-3 6c1.2 1.7.3 3.2-.3 4.7-2 4.7-2.5 10-5.7 14.3-.7 3.3-1.5 6.6-2.2 10 0 .1-.3.2-.4.2-.1 0-.3-.1-.4-.2.7-6.7.6-13.5 3-20 2.8-5.8 3.3-12.6 7-18.1 1.2.7 1.2 2.2 2 3.1z"/><path class="st39" d="M25.9 85.6c-.5 2.8-2.8 4.6-4 7-2.9-1.1-1.2-3.2-1-5v-2c1-1.3 2-2.7 3-4 1.2 1.1 1 2.9 2 4z"/><path class="st40" d="M20.9 87.6c.2 1.7-.7 3.6 1 5-.3 1-.7 2-1 3-2.1-.1-2-1.6-2-3 .4-1.8.7-3.6 2-5z"/><path class="st41" d="M46.9 58.7c-.8.1-1.6.2-2 1-2.9-.8-1.5-2.8-1-4.2.9-2.5 2.4-4.6 4-6.7 4-3.8 8-7.6 11.9-11.4C67 33.2 73 27 80.8 23.7c.6-.1 1.2-.1 1.8-.2 2.9-1.2 5.9-2.1 8.9-2.8 2-.4 4.3-1.2 5.2 1.8-4 2-8 4.1-11.9 6.1C74 31.1 65 36.5 58 45.1c-1.1 1.4-2.3 2.8-2.5 4.7-1.7 4.1-5 6.6-8.6 8.9z"/><path class="st42" d="M102.9 14.6c2.4.8 5.6-.2 7 3-2.7 1-5.4 2-8 3-3.1-.3-6.6 1.4-9-2 2.9-2.2 6.7-2.5 10-4z"/><path class="st43" d="M92.9 18.6c2.8 1.5 6.3.1 9 2-1 .7-2.1 1.3-3.1 2h-1.9c-3.6-2.5-6.9.4-10.4.4-1.3 0-2.5.4-3.8.6 2.8-2.9 6.8-3.3 10.2-5z"/><path class="st35" d="M46.9 58.7c2.7-3 5.4-6 8-9 .9-1.4 2-2.4 3.8-2.1 4.3.8 8.6.3 12.8.3 29.2 0 58.4-.4 87.6 0 12.9.2 25.9 0 38.9-.2 5-.1 10-.3 14.8 1-5.7 4.1-11.8 7.7-18 11-6-2.3-12.6-1.7-18.6-1.5-8.1.3-16.2.1-24.2.3-11.9.4-23.7.1-35.6.1-23.1 0-46.3 0-69.5.1z"/><path class="st10" d="M11.9 120.6c1-6.6 4-12.7 6-19 12.5-2 25.1-.4 37.6-.5 11.6-.1 23.2-.2 34.8.3 16.8.7 33.6.5 50.4-.2 6.1-.2 12.1 1 18.1.4-2.7 5.4-4.2 11.3-6 17h-62c-5.8-.2-11.5-1-17.3-1.2-10.2-.4-20 1.5-29.7 4.2-2.7-.9-5.5-1.1-8.3-1-7.8.1-15.7 0-23.6 0z"/><path class="st44" d="M34.9 71.6c-.1 2.8-3 3.8-4.1 5.9-3.5-1.5-1.3-3.9-1-6 .5-2.3 1.5-4.2 3-6 .3.1.7.1 1 0 2.2 1.8.7 4.1 1.1 6.1z"/><path class="st45" d="M29.9 71.6c.4 2-.8 4.3 1 6-.4 1.8-1.8 2.8-2.9 4.1-3.4-1.1-1.2-3.3-1.1-5.1.2-2.2 1.7-3.5 3-5z"/><path class="st46" d="M26.9 76.6c.3 1.7-.6 3.7 1.1 5.1 0 .3.1.7.1 1l-2.1 3c-4.1.4-1-2.8-2-4 .9-1.8 1.9-3.5 2.9-5.1z"/><path class="st47" d="M48 48.8c-.5 3.8-4.6 6.5-3 10.9-1.1 3.9-5.4 5.4-7.1 8.9-4.4-2.7-.4-5.4 0-8.1.8-3.6 3.5-5.8 6.1-8.1 1.2-1.2 2.6-2.4 4-3.6z"/><path class="st48" d="M37.8 60.5c1.1 2.7-2.4 5.4 0 8.1-.3 1.6-2.1 1.8-2.9 3.1-1.8-1.8-.7-4-1-6.1.9-2 2-3.9 3.9-5.1z"/><path class="st49" d="M58.8 47.6c-1.3.7-2.5 1.4-3.8 2.1-.6-.4-1.1-1-.7-1.6C61.4 37.7 71.1 31 83.2 27.8c.5-.1 1.1.5 1.7.8-5.3 3.8-11.4 6.4-16.1 11-3.7 2.2-7.3 4.6-10 8z"/><g><path class="st0" d="M874.1 139.4c-7.7 0-14-6.3-14-14s6.3-14 14-14 14 6.3 14 14-6.2 14-14 14zm0-26c-6.6 0-12 5.4-12 12s5.4 12 12 12 12-5.4 12-12-5.3-12-12-12z"/></g><g><path d="M868.6 132.8v-15h6.7c1.3 0 2.4.1 3.1.4s1.3.7 1.7 1.4.6 1.4.6 2.3c0 1.1-.3 2-1 2.7-.7.7-1.8 1.2-3.2 1.4.5.3.9.5 1.2.7.6.5 1.1 1.2 1.7 2l2.6 4.1h-2.5l-2-3.1c-.6-.9-1.1-1.6-1.4-2.1-.4-.5-.7-.8-1-1-.3-.2-.6-.3-.9-.4-.2 0-.6-.1-1.1-.1h-2.3v6.7h-2.2zm2-8.4h4.3c.9 0 1.6-.1 2.1-.3.5-.2.9-.5 1.2-.9.3-.4.4-.9.4-1.3 0-.7-.3-1.3-.8-1.8s-1.3-.7-2.4-.7h-4.8v5z"/></g></svg>