<svg xmlns="http://www.w3.org/2000/svg" viewBox="0 0 300 95.4"><linearGradient id="a" x1="65.718" x2="224.772" y1="133.196" y2="-25.859" gradientUnits="userSpaceOnUse"><stop offset="0" stop-color="#84181A"/><stop offset=".42" stop-color="#B61A1F"/><stop offset=".802" stop-color="#DD1B23"/><stop offset="1" stop-color="#EC1C24"/></linearGradient><path fill="url(#a)" d="M78.1 68.8c.4-15.9-8.8-27.4-23.4-32-4-1.3-8.3-1.5-12.2-3-4.1-1.6-7.6-6.6-7.2-12C35.8 15 40.6 10.6 47 9.6c6.2-.9 13.5 1.5 18.9 4.3 21.5 11.3 26.3 39.9 11.7 57.7.2-.9.5-1.9.5-2.8zM18.4 23.7C3.8 41.4 8.6 70 30 81.3c5.4 2.9 12.7 5.2 18.9 4.3 6.4-.9 11.2-5.4 11.7-12.2.4-5.4-3.1-10.3-7.2-12-3.9-1.5-8.2-1.8-12.2-3-14.5-4.6-23.8-16.1-23.4-32 .1-.9.4-1.8.6-2.7zM42.2 1.1C30.5 4 23.5 14.9 23.9 27.3c.5 13.6 8.5 25.8 22 26.9 14.4 1.2 20.3 9.6 20.4 18.6.2 12.4-11 20.2-23.1 18.5-12.5-1.7-25.3-9.6-32.2-20-7.2-11-8.9-25.2-4.7-37.6 1.9-5.6 4.9-10.8 8.7-15.3.4-.5 1.6-1.5 2.4-2.4.5-.3.9-.9.9-1.5 0-1-.8-1.9-1.9-1.9-.2 0-.4.1-.5.1h-.3c-.8.3-4 4.1-4.8 5-2 2.3-3.5 4.9-5 7.6C2.8 30.7.9 36.8.2 43c-1.4 12.8 2.6 25.9 11 35.6 8.2 9.5 21.1 16.6 33.8 16.8 15.6.4 26.1-8.8 27.3-21.3 1.1-12.2-4.6-28-18-31.6-9.7-2.6-14.5-1.1-21.4-10.6-4.1-5.7-5.2-21.5 10-26.8 11.9-4.1 26.8 2.2 35.8 11 8.5 8.3 13.4 20.3 13.4 32.1 0 6.6-2 12.7-4.8 18.6-2.4 5.1-5.4 9.1-9.4 13.1 0 0-.1.1-.1.2-.4.3-.6.8-.6 1.4 0 1 .8 1.9 1.9 1.9.6 0 1.1-.3 1.4-.7 1.3-.5 2-1.7 3.1-2.9 4.1-4.4 7.3-9.6 9.5-15.2 2.4-6.2 3.4-12.8 3.1-19.4-1.2-25.6-27-50.8-54-44.1zm70.8 26c-2.1-1-3.5-1.8-4.2-2.4-.6-.6-.9-1.3-.9-2.2 0-.9.3-1.6.9-2.3 1.7-1.7 4.7-1.5 8.1.9l.5.3 1.1-3.7-.3-.2c-2.1-.9-4.2-1.4-6.2-1.4-3.5 0-6.1 1.2-7.7 3.5-.8 1.2-1.2 2.6-1.2 4.1 0 1.7.6 3.2 1.7 4.4.9 1 2.5 2.1 4.7 3.1 2 1 3.3 1.6 3.8 2 1 .8 1.5 1.8 1.5 3.1 0 1.1-.4 2-1.1 2.7-.8.8-1.9 1.3-3.4 1.3s-2.9-.4-4.1-1.3c-.4-.3-1-.7-1.7-1.3l-.5-.4-1.1 4 .3.2c1.4.7 2.6 1.3 3.7 1.6 1.1.3 2.3.5 3.7.5 3.7 0 6.5-1.3 8.1-4 .8-1.3 1.2-2.8 1.2-4.3 0-1.8-.6-3.4-1.7-4.8-1.1-1.1-2.7-2.2-5.2-3.4zm21.8-4.5c-.1.3-.2.7-.3 1l-5.1 12.5-4.4-12.5c-.1-.3-.2-.6-.3-1l-.1-.4H119l.3.6c.2.5.4.8.5 1.1l6.8 18.8-2.1 4.7c-.1.3-.3.6-.6 1.1l-.4.7h3.6l.1-.4c.1-.4.2-.7.3-1l9.9-23.9c.1-.3.3-.7.5-1.1l.4-.7h-3.5v.5zm27.3 20l-.1.5h5.4l-.1-.5c-.1-.3-.1-.7-.1-1.1V27.8c0-4-2.2-6.1-6.2-6.1-1.3 0-2.5.2-3.5.7-.8.4-1.7 1-2.6 1.9-.6-.8-1.2-1.4-2-1.8-.9-.5-2.1-.7-3.5-.7-2.1 0-3.9.7-5.3 2.1v-1.6h-5l.2.6c.1.3.1.7.1 1.1v17.6c0 .4 0 .8-.1 1.1l-.1.5h5.4l-.1-.5c-.1-.3-.1-.7-.1-1.1v-13c0-1 .3-1.7 1-2.3.7-.6 1.6-.9 2.7-.9s1.9.3 2.4 1c.3.4.5 1.1.5 2.1v13c0 .4 0 .8-.1 1.1l-.2.5h5.4l-.2-.6c-.1-.3-.1-.7-.1-1.1V28.9c0-1.1.3-2 1-2.6.7-.6 1.6-.9 2.8-.9 1.2 0 2.1.3 2.5.9.3.4.5 1.1.5 2.1v13c-.4.5-.4.9-.5 1.2zm27.1-10.2c0 3.6-.8 6.4-2.4 8.4-.7.9-1.6 1.5-2.6 2-1.1.5-2.2.7-3.3.7-1.9 0-3.5-.7-4.8-1.9v5.9c0 .4 0 .8.1 1.1l.2.5H171l.1-.5c.1-.4.1-.7.1-1.1V23.9c0-.4 0-.8-.1-1.1l-.1-.5h5v2c1.4-1.7 3.3-2.5 5.4-2.5 2.2 0 4 .8 5.4 2.5.8 1 1.4 2.1 1.8 3.4.4 1.3.6 2.9.6 4.7zm-6-5.6c-.3-.5-.7-.9-1.2-1.2-.5-.3-1.1-.5-1.7-.5-.6 0-1.2.2-1.8.5-.6.3-1.1.7-1.4 1.3-.4.6-.7 1.4-.9 2.2-.2.9-.3 2.2-.3 3.8 0 1.7.1 3 .3 3.9.2.9.6 1.7 1.1 2.4.7.9 1.6 1.3 2.7 1.3 1.3 0 2.3-.6 3-1.9.7-1.4 1.1-3.4 1.1-6 .1-2.6-.2-4.6-.9-5.8zm21.5 15.8l-.2.6h5.4l-.1-.5c-.1-.4-.1-.7-.1-1.1V28c0-2-.6-3.5-1.8-4.6-1.2-1.1-2.9-1.6-5-1.6-1.4 0-2.6.3-3.6.8-.7.4-1.4.9-2 1.6v-7.8c0-.4 0-.8.1-1.1l.1-.5h-5.4l.1.5c.1.3.1.7.1 1.1v25.3c0 .4 0 .8-.1 1.1l-.1.5h5.4l-.1-.5c-.1-.4-.1-.7-.1-1.1V29.6c0-1.2.4-2.3 1.1-3.1.7-.8 1.7-1.1 3.1-1.1 1.2 0 2 .3 2.6.9.5.6.8 1.6.8 3v12.2c-.1.4-.1.8-.2 1.1zm27.6-10c0 3.4-.9 6.1-2.8 8.1-1.7 1.9-4.1 2.8-6.9 2.8-3 0-5.4-1-7.1-3.1-1.7-2.1-2.6-4.8-2.6-8.1 0-3.1.9-5.6 2.6-7.6 1.7-2 4.1-3 7.1-3 3.1 0 5.6 1.1 7.3 3.2 1.6 2 2.4 4.6 2.4 7.7zm-14.4-.1c0 2.8.5 5 1.5 6.6.4.6.8 1 1.4 1.4.6.3 1.2.5 1.8.5.6 0 1.2-.2 1.8-.5.6-.3 1.1-.8 1.4-1.4 1-1.6 1.5-3.8 1.5-6.5s-.5-4.9-1.5-6.5c-.4-.6-.8-1.1-1.4-1.4-.5-.3-1.1-.5-1.8-.5-.3 0-.6 0-.9.1-.3.1-.6.2-.9.4-.6.3-1.1.8-1.4 1.4-.2.4-.5.8-.6 1.3-.4.9-.6 2-.7 3.2-.2.6-.2 1.3-.2 1.9zm-29.2 30.1c0 3.4-.9 6.1-2.8 8.1-1.7 1.9-4.1 2.8-6.9 2.8-3 0-5.4-1-7.1-3.1-1.7-2.1-2.6-4.8-2.6-8.1 0-3.1.9-5.6 2.6-7.6 1.7-2 4.1-3 7.1-3 3.1 0 5.6 1.1 7.3 3.2 1.6 2 2.4 4.6 2.4 7.7zm-14.4-.1c0 2.8.5 5 1.5 6.6.4.6.8 1 1.4 1.4.6.3 1.2.5 1.8.5.6 0 1.2-.2 1.8-.5.6-.3 1.1-.8 1.4-1.4 1-1.6 1.5-3.8 1.5-6.5s-.5-4.9-1.5-6.5c-.4-.6-.8-1.1-1.4-1.4-.5-.3-1.1-.5-1.8-.5-.3 0-.6 0-.9.1-.3.1-.6.2-.9.4-.6.3-1.1.8-1.4 1.4-.2.4-.5.8-.6 1.3-.4.9-.6 2-.7 3.2-.1.6-.2 1.3-.2 1.9zm87 .3c0 3.4-.9 6.1-2.8 8.1-1.7 1.9-4.1 2.8-6.9 2.8-3 0-5.4-1-7.1-3.1-1.7-2.1-2.6-4.8-2.6-8.1 0-3.1.9-5.6 2.6-7.6 1.7-2 4.1-3 7.1-3 3.1 0 5.6 1.1 7.3 3.2 1.6 1.9 2.4 4.5 2.4 7.7zm-14.4-.1c0 2.8.5 5 1.5 6.6.4.6.8 1 1.4 1.4.6.3 1.2.5 1.8.5.6 0 1.2-.2 1.8-.5.6-.3 1.1-.8 1.4-1.4 1-1.6 1.5-3.8 1.5-6.5s-.5-4.9-1.5-6.5c-.4-.6-.8-1.1-1.4-1.4-.5-.3-1.1-.5-1.8-.5-.3 0-.6 0-.9.1-.3.1-.6.2-.9.4-.6.3-1.1.8-1.4 1.4-.2.4-.5.8-.6 1.3-.4.9-.6 2-.7 3.2-.2.6-.2 1.2-.2 1.9zm5.9-21.2V28c0-1.7-.4-3-1.2-4-1.3-1.5-3.1-2.2-5.5-2.2-1.9 0-3.4.4-4.6 1.3-.4.3-.8.6-1.1 1.1v-1.9h-5l.1.5c.1.3.1.7.1 1.1v17.6c0 .4 0 .8-.1 1.1l-.2.6h5.4l-.1-.5c-.1-.3-.1-.7-.1-1.1V29.7c0-1.3.4-2.4 1.1-3.2.7-.8 1.7-1.1 3.1-1.1 1.1 0 2 .3 2.5.8.6.5.9 1.3.9 2.3v12.9c0 .5 0 .8-.1 1.1l-.2.6h5.4l-.1-.5c-.3-.4-.3-.7-.3-1.1zm16.5-19.3l-.1.4c-.1.3-.2.7-.3 1l-5.1 12.5-4.3-12.5c-.1-.3-.2-.6-.3-1l-.1-.4h-5.6l.3.6c.2.5.4.8.5 1.1l6.8 18.8-2.1 4.7c-.1.3-.3.6-.6 1.1l-.4.7h3.6l.1-.3c.1-.4.2-.7.3-1l9.9-23.9c.1-.3.3-.7.5-1.1l.4-.7h-3.5zM161.1 57.4c-2.1-1-3.5-1.8-4.2-2.4-.6-.6-.9-1.3-.9-2.2 0-.9.3-1.6.9-2.3 1.7-1.7 4.7-1.5 8.1.9l.5.3 1.1-3.7-.3-.2c-2.1-.9-4.2-1.4-6.2-1.4-3.5 0-6.1 1.2-7.7 3.5-.8 1.2-1.2 2.6-1.2 4.1 0 1.7.6 3.2 1.7 4.4.9 1.1 2.5 2.1 4.7 3.1 2 1 3.3 1.6 3.8 2 1 .8 1.5 1.8 1.5 3.1 0 1.1-.4 2-1.1 2.7-.8.8-2 1.3-3.4 1.3-1.5 0-2.9-.4-4.1-1.3-.4-.3-1-.7-1.7-1.3l-.5-.4-1.1 4 .3.2c1.4.7 2.6 1.3 3.7 1.6 1.1.3 2.3.5 3.7.5 3.7 0 6.5-1.3 8.1-4 .8-1.3 1.2-2.8 1.2-4.3 0-1.8-.6-3.4-1.7-4.8-1.1-1.1-2.7-2.2-5.2-3.4zm35.9-12l.2-.6h-5.4l.1.5c.1.3.1.7.1 1.1v25.3c0 .4 0 .8-.1 1.1l-.1.5h5.4l-.1-.5c-.1-.4-.1-.7-.1-1.1V46.5c-.1-.4-.1-.8 0-1.1zm21.4 7.7l.2-.6h-5.4l.1.5c.1.3.1.7.1 1.1v12.2c0 1.1-.4 2-1.1 2.7-.8.7-1.8 1.1-3 1.1s-2.1-.3-2.7-1.1c-.4-.6-.7-1.3-.7-2.3V54.2c0-.4 0-.8.1-1.1l.2-.6h-5.4l.1.5c.1.3.1.7.1 1.1v13c0 2 .5 3.6 1.5 4.7 1.2 1.3 3 2 5.3 2 1.7 0 3.1-.4 4.2-1.1.5-.3.9-.7 1.4-1.2v2h5l-.1-.5c-.1-.4-.1-.8-.1-1.1V54.2c.1-.5.1-.8.2-1.1zM229 70.7c-.5 0-1.1-.2-1.1-1.3V55.2h3.2v-2.7H228v-2.4c0-.2 0-.7.1-1.4v-.5l-4.9.5v3.8h-3v2.7h3v14.2c0 1.5.4 2.6 1.1 3.3.7.7 1.8 1.1 3.2 1.1 1.2 0 2.4-.3 3.6-.8l.2-.1v-3.1l-.6.3c-.7.4-1.3.6-1.7.6zm9.9 1.1V54.2c0-.4 0-.8.1-1.1l.1-.5h-5.4l.2.6c.1.3.1.7.1 1.1v17.6c0 .4 0 .8-.1 1.1l-.1.5h5.4l-.1-.5c-.2-.4-.2-.8-.2-1.2zm-.3-24.2c-.5-.4-1.2-.6-2.1-.6-.8 0-1.5.2-2.1.6-.6.4-.8 1-.8 1.7 0 1 .5 2.3 2.9 2.3.8 0 1.5-.2 2-.6.5-.4.8-1 .8-1.7.1-.7-.2-1.3-.7-1.7zm43.7 24.2V58.3c0-1.7-.4-3-1.2-4-1.3-1.5-3.1-2.2-5.5-2.2-1.9 0-3.4.4-4.6 1.3-.4.3-.8.6-1.1 1.1v-1.9h-5l.1.5c.1.3.1.7.1 1.1v17.6c0 .4 0 .8-.1 1.1l-.2.6h5.4l-.1-.5c-.1-.4-.1-.7-.1-1.1V60c0-1.3.4-2.4 1.1-3.2.7-.8 1.7-1.1 3.1-1.1 1.1 0 2 .3 2.5.8.6.5.9 1.3.9 2.3v12.9c0 .5 0 .8-.1 1.1l-.2.6h5.4l-.1-.5c-.2-.4-.3-.7-.3-1.1zm16.4-8.6c-.9-.9-2.4-1.8-4.5-2.6-1.7-.7-2.8-1.2-3.3-1.6-.4-.4-.7-.8-.7-1.5 0-.8.3-1.4.9-1.9.6-.5 1.4-.7 2.4-.7 1.4 0 3 .6 4.7 1.8l.5.4.9-3.5-.3-.1c-4.1-1.8-8.1-1.8-10.9-.2-1.9 1.2-2.9 2.9-2.9 5.2 0 1.2.3 2.3 1 3.3.7 1.1 2.1 2 4.2 2.8 2 .8 3.3 1.4 3.9 1.9.5.4.8 1 .8 1.7 0 .8-.3 1.4-.8 2-.6.6-1.5.9-2.6.9-1 0-1.8-.2-2.6-.5-.8-.4-1.8-1-2.9-1.9l-.5-.4-.9 3.7.3.2c2.2 1.2 4.4 1.8 6.7 1.8s4.2-.5 5.6-1.6c1.7-1.3 2.6-3 2.6-5.3-.3-1.7-.8-3-1.6-3.9z"/></svg>