<svg id="Layer_1" data-name="Layer 1" xmlns="http://www.w3.org/2000/svg" viewBox="0 0 643.54 207"><defs><style>.cls-1{fill:#831618;}</style></defs><title>logo svg</title><path class="cls-1" d="M174.14 155.15c33.41-32.48 27.56-87.66-11.28-112.48-10.11-6.46-23.34-11.9-35.18-11.3-12.39.63-21.23 7.38-24 19.3-2.33 9.85 2.82 20.24 11.78 25.63 6.86 4.13 14.54 4.89 21.88 8 26.75 11.43 42.19 34.91 38.62 64.91a20.79 20.79 0 0 1-1.82 5.94zM78.78 160.93a74.92 74.92 0 0 0 30.62 13.77c6.66 1.37 26.05 1.61 31-19.17 2.61-11-4.81-25.05-19.45-27.83-34.56-4.57-60.25-28.86-48.86-75.61-30.69 30.09-28.42 81.81 6.69 108.84z"/><path class="cls-1" d="M119.89 14.1c-22.83 3.46-38 23.16-39.31 46.72-1.46 25.93 11.7 49.63 37 54.49 26.79 5.14 36 22 35.1 39.14-1.24 23.6-25.64 35.26-47 31-23.68-4.82-46.34-22.39-57.49-43.52-11.68-22.12-12.29-49.49-2.1-72.25A88.91 88.91 0 0 1 65.43 42.2c.92-.89 3.33-2.6 4.93-4.11.9-.85 3.21-3.38 2-5.42a3.48 3.48 0 0 0-4.92-1.19c-1.45.78-8.39 7.13-10 8.7a86.67 86.67 0 0 0-10.8 13.46 89.93 89.93 0 0 0 .73 102.09c13.88 19.47 37 35.19 61.09 38 29.54 3.48 51.16-11.91 55.64-35.5 4.36-23-3.76-54-28.53-63.22-18-6.71-27.39-4.71-38.6-23.89-6.47-13.35-4.73-41.72 23.85-49 23.3-5.65 50.45 9 65.92 27.23 14.58 17.2 21.72 40.95 19.55 63.3-1.21 12.43-6.06 23.78-12.5 34.47a84.47 84.47 0 0 1-20.27 23.11 2.33 2.33 0 0 0-.28.33 3.51 3.51 0 0 0-1.4 2.48A3.69 3.69 0 0 0 175 177c2.73.52 6.86-3.9 9.27-6a90.52 90.52 0 0 0 20.79-27.09 89.59 89.59 0 0 0 9.31-36.22C216.77 59 172.21 6.17 119.89 14.1zM246.47 64.82c-4-1.83-6.7-3.35-7.94-4.55a5.62 5.62 0 0 1-1.74-4.27 6 6 0 0 1 1.74-4.34c3.2-3.26 9-2.81 15.37 1.63l.94.65 2.07-7-.66-.29A29.1 29.1 0 0 0 244.49 44c-6.72 0-11.67 2.22-14.72 6.61a13.47 13.47 0 0 0-2.37 7.75 12.42 12.42 0 0 0 3.19 8.44c1.75 2 4.75 4 8.92 6a53.22 53.22 0 0 1 7.28 3.86 6.92 6.92 0 0 1 2.94 5.84 7.27 7.27 0 0 1-2.06 5.24 8.61 8.61 0 0 1-6.52 2.41 13.62 13.62 0 0 1-7.9-2.54c-.83-.57-1.87-1.39-3.2-2.53l-1-.83-2.19 7.69.58.32a34.07 34.07 0 0 0 7 3 26 26 0 0 0 7 .87c7.13 0 12.31-2.55 15.4-7.58a15.38 15.38 0 0 0 2.32-8.19 14.22 14.22 0 0 0-3.16-9.24c-1.74-2.12-4.85-4.12-9.53-6.3zM288 56.1a10.75 10.75 0 0 1-.6 1.9l-9.77 23.79-8.27-23.77a11.09 11.09 0 0 1-.49-2l-.12-.68H258l.6 1.2a15.86 15.86 0 0 1 .89 2l13 35.84-4 9a20 20 0 0 1-1.07 2l-.73 1.24h6.8l.13-.67a9.65 9.65 0 0 1 .6-2L293 58.67a15.05 15.05 0 0 1 1-2l.74-1.25h-6.7zM340 94.3l-.26 1H350l-.27-1a8.52 8.52 0 0 1-.26-2.16V66.07c0-7.57-4.11-11.57-11.9-11.57a15.91 15.91 0 0 0-6.59 1.26A17.59 17.59 0 0 0 326 59.3a10.65 10.65 0 0 0-3.86-3.45 14.46 14.46 0 0 0-6.6-1.35 14 14 0 0 0-10.12 4v-3h-9.56l.3 1.05a7.68 7.68 0 0 1 .26 2.09v33.5a8.77 8.77 0 0 1-.26 2.16l-.26 1h10.22l-.27-1a8.49 8.49 0 0 1-.26-2.16V67.61a5.5 5.5 0 0 1 1.9-4.4 7.71 7.71 0 0 1 5.23-1.7c2.16 0 3.68.61 4.65 1.87a6.64 6.64 0 0 1 .9 3.95v24.81a8.19 8.19 0 0 1-.26 2.15l-.29 1H328l-.29-1a8 8 0 0 1-.26-2.15v-24a6.37 6.37 0 0 1 1.83-4.94 7.62 7.62 0 0 1 5.35-1.74c2.33 0 3.95.61 4.78 1.8a7.26 7.26 0 0 1 .86 4v24.88a8.66 8.66 0 0 1-.27 2.16zM390.58 65.85a17.85 17.85 0 0 0-3.43-6.57 12.92 12.92 0 0 0-10.32-4.78 13.22 13.22 0 0 0-10.34 4.73v-3.81h-9.56l.25 1a8.86 8.86 0 0 1 .26 2.16v45a8.66 8.66 0 0 1-.26 2.13l-.26 1h10.23l-.29-1a8 8 0 0 1-.26-2.11V92.32a12.94 12.94 0 0 0 9.22 3.7 14.9 14.9 0 0 0 6.32-1.41 14 14 0 0 0 5-3.86c3-3.73 4.49-9.1 4.49-16a32.67 32.67 0 0 0-1.05-8.9zm-8.43 9.45c0 5-.72 8.77-2.14 11.36a6.47 6.47 0 0 1-11 1.11 12 12 0 0 1-2.01-4.55 35.64 35.64 0 0 1-.61-7.52 40.46 40.46 0 0 1 .49-7.24 11 11 0 0 1 1.67-4.22 7.17 7.17 0 0 1 2.67-2.41 7.37 7.37 0 0 1 3.48-.89 6.78 6.78 0 0 1 3.17.91 6 6 0 0 1 2.23 2.23c1.37 2.41 2.06 6.19 2.06 11.22zM421.17 94.28l-.3 1.05h10.24l-.26-1a8.74 8.74 0 0 1-.26-2.17V66.39c0-3.75-1.16-6.71-3.45-8.79s-5.47-3.11-9.54-3.11a14.81 14.81 0 0 0-6.81 1.51 14.52 14.52 0 0 0-3.88 3V44a8.36 8.36 0 0 1 .26-2.15l.28-1h-10.24l.28 1a8.33 8.33 0 0 1 .26 2.15v48.14a8.84 8.84 0 0 1-.26 2.17l-.26 1h10.2l-.26-1a8.84 8.84 0 0 1-.26-2.17V69.55a8.52 8.52 0 0 1 2-5.87c1.29-1.44 3.3-2.17 6-2.17 2.25 0 3.91.57 4.92 1.7s1.56 3.06 1.56 5.66v23.27a7.88 7.88 0 0 1-.22 2.14zM469.08 60.54c-3.31-4-8-6-13.89-6s-10.35 2-13.58 5.78-4.87 8.62-4.87 14.44c0 6.35 1.66 11.55 4.93 15.47S449.45 96 455.26 96c5.41 0 9.83-1.79 13.13-5.33 3.53-3.76 5.32-8.95 5.32-15.4 0-6.03-1.56-11-4.63-14.73zm-22.62 10.94a23.1 23.1 0 0 1 1.4-6.11 15.4 15.4 0 0 1 1.22-2.45 7.49 7.49 0 0 1 2.69-2.63 7.3 7.3 0 0 1 1.7-.72 6.52 6.52 0 0 1 1.76-.24 7.15 7.15 0 0 1 3.52.91 7.56 7.56 0 0 1 2.61 2.63c1.87 3 2.82 7.17 2.82 12.4s-.95 9.33-2.82 12.37a7.7 7.7 0 0 1-2.68 2.6 6.67 6.67 0 0 1-6.89 0 7.61 7.61 0 0 1-2.67-2.6c-1.87-3-2.83-7.26-2.83-12.52a35.78 35.78 0 0 1 .17-3.64zM386.11 117.69c-3.31-4-8-6-13.89-6s-10.35 2-13.58 5.78-4.87 8.62-4.87 14.44c0 6.35 1.66 11.55 4.93 15.47s7.78 5.84 13.59 5.84c5.41 0 9.83-1.79 13.13-5.33 3.53-3.76 5.32-8.95 5.32-15.4.01-6.1-1.55-11.07-4.63-14.8zm-22.61 10.95a23.1 23.1 0 0 1 1.4-6.11 15.4 15.4 0 0 1 1.22-2.45 7.49 7.49 0 0 1 2.69-2.63 7.3 7.3 0 0 1 1.7-.72 6.52 6.52 0 0 1 1.76-.24 7.15 7.15 0 0 1 3.52.91 7.56 7.56 0 0 1 2.61 2.63c1.87 3 2.82 7.17 2.82 12.4s-.95 9.33-2.82 12.37a7.7 7.7 0 0 1-2.68 2.6 6.67 6.67 0 0 1-6.89 0 7.61 7.61 0 0 1-2.67-2.6c-1.87-3-2.83-7.26-2.83-12.52a35.78 35.78 0 0 1 .17-3.64zM524.38 118c-3.31-4-8-6-13.89-6s-10.35 2-13.58 5.78-4.91 8.53-4.91 14.36c0 6.35 1.66 11.55 4.93 15.47s7.78 5.84 13.59 5.84c5.41 0 9.83-1.79 13.13-5.33 3.53-3.76 5.32-8.95 5.32-15.4.03-6.07-1.51-11.03-4.59-14.72zm-22.61 10.9a23.1 23.1 0 0 1 1.4-6.11 15.4 15.4 0 0 1 1.22-2.45 7.49 7.49 0 0 1 2.69-2.63 7.3 7.3 0 0 1 1.7-.72 6.52 6.52 0 0 1 1.76-.24 7.15 7.15 0 0 1 3.52.91 7.56 7.56 0 0 1 2.61 2.63c1.87 3 2.82 7.17 2.82 12.4s-.96 9.31-2.83 12.31a7.7 7.7 0 0 1-2.68 2.6 6.67 6.67 0 0 1-6.89 0 7.61 7.61 0 0 1-2.67-2.6c-1.87-3-2.83-7.26-2.83-12.52a35.78 35.78 0 0 1 .18-3.58zM512.77 92.14V66.43a11.54 11.54 0 0 0-2.35-7.65c-2.4-2.84-5.95-4.28-10.53-4.28a15.16 15.16 0 0 0-8.89 2.45 11.8 11.8 0 0 0-2.14 2.05v-3.58h-9.55l.28 1a8.15 8.15 0 0 1 .26 2.11v33.61a8 8 0 0 1-.26 2.14l-.3 1.05h10.25l-.27-1a8.57 8.57 0 0 1-.26-2.16v-22.4a8.68 8.68 0 0 1 2.11-6.09c1.32-1.44 3.33-2.17 6-2.17a6.85 6.85 0 0 1 4.88 1.57 5.79 5.79 0 0 1 1.64 4.46v24.6a7.11 7.11 0 0 1-.25 2.12l-.39 1.08h10.27l-.25-1a9 9 0 0 1-.25-2.2zM544.3 55.42l-.13.68a10.86 10.86 0 0 1-.56 2l-9.77 23.79-8.27-23.77a11 11 0 0 1-.5-2l-.07-.7h-10.8l.6 1.2a16.09 16.09 0 0 1 .89 2l13 35.84-4 9a20.37 20.37 0 0 1-1.07 2l-.73 1.24h6.79l.13-.66a10 10 0 0 1 .6-2l18.82-45.49a15.54 15.54 0 0 1 1-2l.77-1.13h-6.7zM338.17 122.56c-4-1.82-6.68-3.35-7.94-4.55a5.62 5.62 0 0 1-1.74-4.29 6 6 0 0 1 1.74-4.34c3.19-3.25 8.94-2.81 15.37 1.64l.94.65 2.07-7-.66-.29a29 29 0 0 0-11.75-2.68c-6.72 0-11.67 2.22-14.73 6.61a13.54 13.54 0 0 0-2.36 7.75 12.39 12.39 0 0 0 3.18 8.44c1.76 2 4.67 4 8.92 6a52.25 52.25 0 0 1 7.29 3.86 6.93 6.93 0 0 1 2.95 5.84 7.25 7.25 0 0 1-2.07 5.24 8.71 8.71 0 0 1-6.52 2.41 13.7 13.7 0 0 1-7.9-2.54c-.83-.58-1.91-1.43-3.2-2.54l-1-.84-2.18 7.69.58.32a33.94 33.94 0 0 0 7 3 26.08 26.08 0 0 0 7 .87c7.13 0 12.31-2.55 15.4-7.57a15.4 15.4 0 0 0 2.32-8.19 14.23 14.23 0 0 0-3.21-9.18c-1.67-2.1-4.81-4.16-9.5-6.31zM406.53 99.6l.29-1h-10.23l.27 1a8.59 8.59 0 0 1 .26 2.16v48.12a9 9 0 0 1-.26 2.17l-.26 1h10.2l-.26-1a8.84 8.84 0 0 1-.26-2.17v-48.13a8.05 8.05 0 0 1 .25-2.15zM447.29 114.22l.33-1.07h-10.27l.28 1a8.31 8.31 0 0 1 .25 2.11v23.2a6.73 6.73 0 0 1-2.15 5.23 8.07 8.07 0 0 1-5.76 2c-2.34 0-4-.66-5.16-2a6.87 6.87 0 0 1-1.28-4.4v-24a7.72 7.72 0 0 1 .25-2.1l.29-1h-10.24l.27 1a8.27 8.27 0 0 1 .26 2.11v24.85c0 3.82 1 6.8 2.95 8.87 2.36 2.49 5.73 3.75 10 3.75a14.83 14.83 0 0 0 8-2 13.59 13.59 0 0 0 2.67-2.37v3.72h9.51l-.24-1a9.6 9.6 0 0 1-.26-2.19V116.3a7.19 7.19 0 0 1 .3-2.08zM467.51 147.79c-1 0-2-.31-2-2.57v-26.85h6.13v-5.22h-6.14v-4.61c0-.45 0-1.36.14-2.74l.07-1-9.37 1v7.32h-5.71v5.22h5.71v27.06c0 2.77.68 4.88 2 6.25s3.41 2.08 6.14 2.08a15.66 15.66 0 0 0 6.83-1.6l.47-.23v-5.85l-1.22.66a7 7 0 0 1-3.05 1.08zM486.26 149.88v-33.55a8.84 8.84 0 0 1 .26-2.15l.26-1h-10.23l.3 1a8 8 0 0 1 .26 2.14v33.54a8.36 8.36 0 0 1-.26 2.16l-.28 1h10.21l-.25-1a9.11 9.11 0 0 1-.27-2.14zM485.72 103.88a6.54 6.54 0 0 0-3.92-1.08 6.44 6.44 0 0 0-3.93 1.12 3.81 3.81 0 0 0-1.61 3.2c0 2 1 4.31 5.61 4.31a6.2 6.2 0 0 0 3.87-1.13 3.9 3.9 0 0 0 1.56-3.3 3.78 3.78 0 0 0-1.58-3.12zM569.06 149.88v-25.71a11.52 11.52 0 0 0-2.35-7.65c-2.4-2.84-5.95-4.28-10.53-4.28a15.16 15.16 0 0 0-8.84 2.45 11.79 11.79 0 0 0-2.17 2.07v-3.61h-9.54l.27 1a8.27 8.27 0 0 1 .26 2.11v33.58a8.09 8.09 0 0 1-.26 2.15l-.29 1h10.24l-.27-1a8.53 8.53 0 0 1-.26-2.17V127.5a8.8 8.8 0 0 1 2.11-6.09c1.33-1.46 3.29-2.17 6-2.17a6.84 6.84 0 0 1 4.85 1.57 5.78 5.78 0 0 1 1.64 4.46v24.6a7.3 7.3 0 0 1-.25 2.13l-.34 1.07h10.26l-.25-1a8.94 8.94 0 0 1-.28-2.19zM600.2 133.47c-1.64-1.78-4.54-3.47-8.62-5a26.37 26.37 0 0 1-6.35-3 3.38 3.38 0 0 1-1.24-2.79 4.43 4.43 0 0 1 1.79-3.64 6.74 6.74 0 0 1 4.5-1.43c2.68 0 5.69 1.18 8.94 3.5l1 .7 1.74-6.59-.65-.28c-7.77-3.34-15.44-3.52-20.69-.31a11.36 11.36 0 0 0-3.62 16.03c1.41 2 4 3.78 8 5.36 3.79 1.49 6.27 2.7 7.35 3.58a3.91 3.91 0 0 1 1.44 3.22 5.3 5.3 0 0 1-1.6 3.81 6.62 6.62 0 0 1-5 1.76 12.6 12.6 0 0 1-5-1 25.28 25.28 0 0 1-5.53-3.59l-1-.82-1.75 7.09.56.31a26.74 26.74 0 0 0 12.71 3.37c4.43 0 8-1 10.66-3a11.88 11.88 0 0 0 4.9-10 10.33 10.33 0 0 0-2.54-7.28z"/></svg>