<svg xmlns="http://www.w3.org/2000/svg" id="Layer_1" viewBox="0 0 300 100"><style>.st0{fill-rule:evenodd;clip-rule:evenodd;} .st1{fill:#F15827;}</style><path d="M25.2 99.8V88.1h-4.4v-1.4H31v1.4h-4.4v11.7h-1.4zm20.2 0v-13h9.4V88h-8v4.5H54v1.3h-7.1v4.6H55v1.3h-9.6v.1zm30 .2c-1.9 0-3.4-.6-4.7-1.9-1.2-1.3-1.9-2.9-1.9-4.8s.6-3.5 1.9-4.8c1.3-1.3 2.8-2 4.7-2 1.1 0 2 .2 2.8.5.8.4 1.5.9 2.3 1.6l-1 1c-1.3-1.2-2.6-1.8-4.1-1.8-1.4 0-2.6.5-3.6 1.5s-1.4 2.3-1.4 3.8.5 2.8 1.5 3.8 2.2 1.6 3.6 1.6c.8 0 1.6-.2 2.2-.5.6-.3 1.3-.8 2-1.4l1 1c-.7.7-1.5 1.3-2.3 1.7-.9.5-1.8.7-3 .7zm19.4-.2v-13h1.5v5.8h7.5v-5.8h1.5v13h-1.5v-5.9h-7.5v5.9h-1.5zm25.7 0v-13h1.4l8.2 10.5V86.7h1.4v13h-1.2L121.9 89v10.7h-1.4v.1zm37.1-1.8c-1.3 1.3-2.9 2-4.8 2s-3.5-.7-4.8-2c-1.2-1.3-1.9-2.9-1.9-4.8s.6-3.4 1.9-4.8c1.3-1.3 2.9-2 4.8-2s3.5.7 4.8 2c1.2 1.3 1.9 2.9 1.9 4.8s-.6 3.5-1.9 4.8zm-8.4-1c1 1 2.2 1.6 3.7 1.6s2.7-.5 3.7-1.6c1-1 1.4-2.3 1.4-3.8s-.5-2.8-1.5-3.8-2.2-1.6-3.7-1.6-2.7.5-3.7 1.6c-1 1-1.4 2.3-1.4 3.8s.5 2.8 1.5 3.8zm25 2.8v-13h1.5v11.7h7.3v1.4h-8.8v-.1zm33.1-1.8c-1.3 1.3-2.9 2-4.8 2s-3.5-.7-4.8-2c-1.2-1.3-1.9-2.9-1.9-4.8s.6-3.4 1.9-4.8c1.3-1.3 2.9-2 4.8-2s3.5.7 4.8 2c1.2 1.3 1.9 2.9 1.9 4.8s-.6 3.5-1.9 4.8zm-8.4-1c1 1 2.2 1.6 3.7 1.6s2.7-.5 3.7-1.6c1-1 1.4-2.3 1.4-3.8s-.5-2.8-1.5-3.8-2.2-1.6-3.7-1.6-2.7.5-3.7 1.6c-1 1-1.4 2.3-1.4 3.8.1 1.5.5 2.8 1.5 3.8zm36.3 1c-1.5 1.3-3.2 2-5.2 2s-3.6-.6-4.8-1.9c-1.2-1.3-1.8-2.9-1.8-4.8 0-1.8.6-3.4 1.8-4.8 1.2-1.3 2.8-2 4.7-2 1 0 1.9.1 2.7.4.8.3 1.5.7 2.2 1.3l-1 1.1c-1.1-1-2.5-1.5-4-1.5-1.4 0-2.6.5-3.6 1.6-.9 1-1.4 2.3-1.4 3.8 0 1.6.5 2.9 1.4 3.9.9 1 2.2 1.5 3.8 1.5 1.4 0 2.7-.4 3.8-1.3v-3.2h-4v-1.3h5.4V98zm15 1.8v-13h1.5v13h-1.5zm16.8 0v-13h9.4V88h-8v4.5h7.1v1.3h-7.1v4.6h8.1v1.3H267v.1zm28.5.1c-2 0-3.8-.7-5.3-2.1l.9-1.1c.7.6 1.4 1.1 2.1 1.4.7.3 1.5.4 2.4.4.9 0 1.6-.2 2.1-.6.5-.4.8-1 .8-1.6 0-.6-.2-1.1-.7-1.5-.5-.4-1.4-.7-2.7-1-1.6-.3-2.7-.8-3.4-1.4-.7-.6-1-1.4-1-2.4s.4-1.9 1.2-2.6c.8-.7 1.8-1 3.1-1 1.7 0 3.3.5 4.6 1.6l-.9 1.1c-1.2-.9-2.4-1.4-3.8-1.4-.8 0-1.5.2-2 .6-.5.4-.8.9-.8 1.5s.2 1.2.7 1.5c.5.4 1.4.7 2.8 1 1.5.3 2.6.8 3.2 1.4.7.6 1 1.4 1 2.4 0 1.1-.4 2-1.2 2.7-.7.8-1.7 1.1-3.1 1.1z" class="st0"/><path d="M99.9 42.7V27.3h35.5v15.4H99.9zM69 54.2V.2h15.4v54.1h50.9v15.4H69V54.2zm30.9-38.6V.2h35.5v15.4H99.9z" class="st1"/><path d="M225.6 69.7V.5h20.3l16.5 26.8L278.9.5h20.3v69.2h-19.1V30l-17.7 27h-.4l-17.6-26.8v39.5h-18.8zM0 17.3V.5h60.6v16.8H39.8v52.4H20.7V17.3H0zm141.8 52.4L171.3 0h18.5l29.4 69.7h-20.6l-5.1-12.4h-26.7L162 69.7h-20.2zm30.7-27.3H188l-7.7-19.7-7.8 19.7z" class="st0"/></svg>