<svg xmlns="http://www.w3.org/2000/svg" id="Layer_1" viewBox="0 0 236.9 60"><style>.st0{fill:#017676;} .st1{fill:#333333;}</style><path d="M75.1 17.9c-3.5.8-7 1.5-10.6 2.3.7-2.9 1.3-5.6 2-8.3-.1 0-.1 0-.1-.1-1.9 5.7-3.8 11.3-5.8 17.1-3.8-3.9-7.6-7.7-11.4-11.5 1.2-.4 2.3-.9 3.3-1.3 4.5-1.6 9-3.3 13.5-5 .5-.2.9-.1 1.3.2l7.2 6c.2.1.3.3.6.6zM29 30.2c3.3 2.8 6.5 5.6 9.8 8.4l.1-.1c-.1-.1-.3-.4-.4-.5l-8.1-8.4c-.4-.4-.4-.7-.3-1.1 1.6-6.9 3.1-13.9 4.6-20.8 0-.1 0-.1-.1-.2l-4.2 14.7C20.2 14.8 10.1 7.4 0 .1L.1 0c1.7.4 3.3.6 5 1l18.6 3.6c3.5.7 7.1 1.3 10.7 2.1.4.1.8.4 1.1.6 8.1 7.1 16.2 14.1 24.4 21.2.1.1.3.3.5.4-.3.1-.5.3-.7.4-6.2 3.2-12.3 6.3-18.4 9.5-.6.3-1.1.6-1.6 1.1-8.8 6.7-17.4 13.3-26.1 20-.2 0-.4.1-.6.1 5.3-9.9 10.7-19.8 16-29.8z" class="st0"/><path d="M93 22.6v19.9h-4.1V22.6h-6.7v-3.9h17.6v3.9H93zm13.9 20.3c-2.5 0-4.4-.8-5.9-2.4-1.4-1.6-2.1-3.8-2.1-6.7s.7-5 2.2-6.7c1.4-1.6 3.4-2.4 5.9-2.4 2.2 0 4 .7 5.5 2.1 1.4 1.4 2.1 3.4 2.1 6.1 0 .9-.1 1.8-.1 2.5H103c.1 1.2.5 2.2 1.3 3 .8.8 1.7 1.1 2.8 1.1 1.6 0 2.8-.6 3.7-1.8l2.6 2.6c-1.8 1.6-3.9 2.6-6.5 2.6zm-4-10.9h7.7c-.1-1.3-.5-2.2-1.1-2.8s-1.5-1-2.5-1c-1.1 0-2.1.3-2.8.9-.8.7-1.3 1.6-1.3 2.9zm21.6 10.9c-2.4 0-4.3-.8-5.7-2.4-1.4-1.6-2.1-3.8-2.1-6.7s.7-5 2.1-6.7c1.4-1.6 3.3-2.4 5.7-2.4 3.6 0 5.9 1.6 6.9 4.8l-3.8 1.3c-.6-1.5-1.6-2.3-3-2.3-1.2 0-2.1.5-2.8 1.4-.7.9-1 2.3-1 3.9s.4 2.9 1 3.8c.6.9 1.6 1.4 2.7 1.4 1.6 0 2.7-.9 3.2-2.6l3.8 1.1c-1.1 3.7-3.4 5.4-7 5.4zm9.7-.5V19.8l4-1.8v8.8c1.1-1.3 2.7-2.1 4.6-2.1 1.8 0 3.3.6 4.5 1.7 1.1 1.1 1.7 2.9 1.7 5.4v10.7h-4v-10c0-2.6-1.1-4-3.3-4-2.3 0-3.5 1.3-3.5 3.9v10.1l-4-.1z" class="st1"/><path d="M174.9 42.4h-4.1V29.8c0-1.1.1-2 .1-2.8-.3.9-.6 1.8-1.1 2.9l-5.8 13-5.8-13c-.4-.9-.8-1.8-1.1-2.8.1.9.1 1.8.1 2.8v12.7h-4.1v-24h4.1l6.1 14c.3.6.5 1.2.6 1.8.2-.6.4-1.1.6-1.8l6.2-14h4v23.8h.2zm14.3 0V41c-1.1 1.2-2.7 1.8-4.6 1.8-1.8 0-3.4-.5-4.5-1.5s-1.8-2.4-1.8-4.3.6-3.3 2-4.3c1.3-.9 2.9-1.5 4.8-1.5 1.6 0 3 .3 4.1.9v-.9c0-1.1-.3-1.9-.9-2.4-.6-.5-1.4-.8-2.6-.8-1.9 0-3.6.6-5.2 1.6l-1.2-3.3c1.9-1.3 4.2-1.9 6.8-1.9.9 0 1.7.1 2.4.2s1.4.4 2.1.9c.7.4 1.3 1.1 1.7 2.1.4.9.6 2.1.6 3.5v11.2l-3.7.1zm-3.9-3c1.5 0 2.8-.6 3.9-1.7v-2.3c-1-.5-2.1-.7-3.5-.7-1.1 0-1.9.2-2.6.6s-1 1-1 1.8c0 .7.3 1.3.9 1.7.5.4 1.3.6 2.3.6zm17.7 9.8l-2.1-3.2c2.4-.1 4-.5 5-1.1.9-.6 1.3-1.5 1.3-2.7v-1c-.9 1.1-2.3 1.6-4 1.6-2.1 0-3.8-.8-5.2-2.3-1.3-1.6-2-3.8-2-6.7 0-2.8.6-5 2-6.7 1.3-1.6 3-2.4 5.2-2.4 1.6 0 2.9.5 3.9 1.5v-1.1h4v15.7c0 2.9-.6 5-1.8 6.2-1.2 1.2-3.4 2-6.3 2.2zm.9-10.2c1.4 0 2.6-.6 3.3-1.7v-7.2c-.8-1.1-1.9-1.7-3.3-1.7-1.3 0-2.2.4-2.9 1.3-.6.9-1 2.2-1 4 0 1.6.4 2.9 1 3.9.7 1 1.7 1.4 2.9 1.4zm14.8-17c-.4.5-1 .7-1.7.7-.6 0-1.2-.2-1.7-.7s-.7-1-.7-1.7c0-.6.2-1.2.7-1.7.5-.4 1-.7 1.7-.7.6 0 1.2.2 1.7.7.4.4.7 1 .7 1.7s-.2 1.2-.7 1.7zm-3.6 20.4V25.1h4v17.4c-.1-.1-4-.1-4-.1zm14.8.5c-2.4 0-4.3-.8-5.7-2.4-1.4-1.6-2.1-3.8-2.1-6.7 0-2.8.7-5 2.1-6.7 1.4-1.6 3.3-2.4 5.7-2.4 3.6 0 5.9 1.6 6.9 4.8l-3.8 1.3c-.6-1.5-1.6-2.3-3-2.3-1.2 0-2.1.5-2.8 1.4-.7.9-1 2.3-1 3.9s.4 2.9 1 3.8c.6.9 1.6 1.4 2.7 1.4 1.6 0 2.7-.9 3.2-2.6l3.8 1.1c-1.1 3.7-3.4 5.4-7 5.4z" class="st0"/></svg>