<?xml version="1.0" encoding="UTF-8" standalone="no"?>
<svg width="570px" height="400px" viewBox="0 0 570 400" version="1.1" xmlns="http://www.w3.org/2000/svg" xmlns:xlink="http://www.w3.org/1999/xlink">
    <!-- Generator: Sketch 46.2 (44496) - http://www.bohemiancoding.com/sketch -->
    <title>mill-logo-white</title>
    <desc>Created with Sketch.</desc>
    <defs></defs>
    <g id="sketches-02" stroke="none" stroke-width="1" fill="none" fill-rule="evenodd">
        <g id="mill-logo-white" fill-rule="nonzero" fill="#020202">
            <path d="M236.25,213.583333 L192.916667,213.583333 L192.916667,195.166667 L229.75,195.166667 L229.75,178.916667 L192.916667,178.916667 L192.916667,164.833333 L233,164.833333 L233,149.666667 L173.416667,149.666667 L173.416667,229.833333 L236.25,229.833333 L236.25,213.583333 Z M12,164.833333 L33.6666667,164.833333 L33.6666667,229.833333 L53.1666667,229.833333 L53.1666667,164.833333 L73.75,164.833333 L73.75,149.666667 L12,149.666667 L12,164.833333 Z M464.833333,149.666667 L459.416667,149.666667 L459.416667,14.25 L455.083333,11 L120.333333,11 L117.083333,14.25 L117.083333,178.916667 L106.25,178.916667 L106.25,149.666667 L86.75,149.666667 L86.75,229.833333 L106.25,229.833333 L106.25,195.166667 L117.083333,195.166667 L117.083333,297 L119.25,300.25 L286.083333,388 L290.416667,388 L457.25,300.25 L459.416667,297 L459.416667,229.833333 L496.25,229.833333 L496.25,212.5 L464.833333,212.5 L464.833333,149.666667 Z M283.916667,378.25 L126.833333,295.916667 L283.916667,295.916667 L283.916667,378.25 Z M283.916667,288.333333 L124.666667,288.333333 L124.666667,195.166667 L135.5,195.166667 L135.5,229.833333 L155,229.833333 L155,149.666667 L135.5,149.666667 L135.5,178.916667 L124.666667,178.916667 L124.666667,34.8333333 C145.466667,62.8916667 207.433333,82.9333333 283.916667,83.5833333 L283.916667,288.333333 Z M286.083333,76 C200.716667,76 129.866667,50.5416667 124.666667,18.5833333 L450.75,18.5833333 C445.55,50.5416667 375.783333,76 290.416667,76 L286.083333,76 Z M292.583333,378.25 L292.583333,295.916667 L448.583333,295.916667 L292.583333,378.25 Z M451.833333,149.666667 L444.25,149.666667 L444.25,229.833333 L451.833333,229.833333 L451.833333,288.333333 L292.583333,288.333333 L292.583333,83.5833333 C369.283333,82.9333333 431.358333,63.1083333 451.833333,34.8333333 L451.833333,149.666667 Z M352.275,197.225 C351.408333,200.908333 351.083333,201.558333 350,207.083333 L347.291667,194.3 L334.833333,149.666667 L305.583333,149.666667 L305.583333,229.833333 L324,229.833333 L324,178.916667 C323.675,171.333333 324.325,171.116667 324,164.833333 L327.141667,178.05 L341.333333,229.833333 L358.666667,229.833333 L373.725,175.775 C374.591667,172.416667 374.7,171.766667 375.783333,167.325 L376.433333,164.508333 L376,172.416667 L376,229.833333 L394.416667,229.833333 L394.416667,149.666667 L365.166667,149.666667 L352.275,197.225 Z M409.583333,229.833333 L429.083333,229.833333 L429.083333,149.666667 L409.583333,149.666667 L409.583333,229.833333 Z M526.583333,212.5 L526.583333,149.666667 L506,149.666667 L506,229.833333 L558,229.833333 L558,212.5 L526.583333,212.5 Z" id="Shape-Copy"></path>
        </g>
    </g>
</svg>