<svg xmlns="http://www.w3.org/2000/svg" viewBox="0 0 300 96.2"><g fill="#3D64AC"><path d="M65.7 40.1L25.5 0l-8.1 8.1 15 15L0 55.6l40.1 40.1 8.1-8.1-15-15.1 32.5-32.4zM18 57.1l24.2-24.2 5 5L23 62.1l-5-5zM93.3 11.7V24h13.4v7.1H93.3v27.7c0 6.4 1.8 10 7 10 2.5 0 4-.2 5.4-.6l.4 7.1c-1.8.6-4.7 1.3-8.3 1.3-4.3 0-7.8-1.5-10.1-3.9-2.5-2.9-3.6-7.4-3.6-13.5v-28h-7.9V24h7.9v-9.5l9.2-2.8zM156.9 49.2c0 19-13.2 27.2-25.5 27.2-13.8 0-24.6-10.2-24.6-26.4 0-17.1 11.3-27.1 25.4-27.1 14.7 0 24.7 10.7 24.7 26.3zm-40.6.5c0 11.2 6.4 19.7 15.5 19.7 8.9 0 15.6-8.4 15.6-19.9 0-8.7-4.3-19.6-15.4-19.6-11 0-15.7 10.2-15.7 19.8zM161.5 40.7c0-6.6-.2-11.9-.4-16.7h8.3l.5 8.8h.2c3.7-6.3 9.9-9.9 18.2-9.9 12.5 0 21.8 10.5 21.8 26 0 18.4-11.3 27.6-23.4 27.6-6.8 0-12.7-3-15.8-8.1h-.2v27.9h-9.2V40.7zm9.2 13.7c0 1.4.1 2.7.4 3.8 1.7 6.5 7.3 10.9 14 10.9 9.9 0 15.6-8.1 15.6-19.8 0-10.2-5.4-19-15.3-19-6.4 0-12.4 4.5-14.1 11.4-.3 1.2-.6 2.5-.6 3.7v9zM228 11.7V24h13.4v7.1H228v27.7c0 6.4 1.8 10 7 10 2.5 0 4-.2 5.4-.6l.4 7.1c-1.8.6-4.7 1.3-8.3 1.3-4.3 0-7.8-1.5-10.1-3.9-2.5-2.9-3.6-7.4-3.6-13.5v-28h-8V24h8v-9.5l9.2-2.8zM283.8 63c0 4.5.2 8.8.7 12.3h-8.4l-.7-6.5h-.3c-2.9 4-8.4 7.6-15.7 7.6-10.4 0-15.7-7.3-15.7-14.7 0-12.4 11-19.2 30.8-19.1v-1.1c0-4.1-1.2-11.9-11.7-11.8-4.9 0-9.9 1.4-13.5 3.8l-2.1-6.3c4.2-2.7 10.5-4.5 17-4.5 15.7 0 19.5 10.7 19.5 20.9V63zm-9-13.9c-10.2-.2-21.7 1.6-21.7 11.6 0 6.1 4 8.9 8.7 8.9 6.8 0 11.1-4.2 12.6-8.6.3-1.1.4-2.1.4-3v-8.9zM290.7 0h9.3v75.2h-9.3V0z"/></g></svg>