<svg xmlns="http://www.w3.org/2000/svg" viewBox="0 0 300 36.9"><g fill="#757575"><path d="M16.3 36.9l8.2-4.6 8.1-4.6V9.3l-3.6 2-2.2 1.4-4.7 2.6v4.3l6.9-3.9v6.7l-.1 3.2-12.6 7.1-12.6-7.1V11.3l12.6-7.1 8.9 5L29 7.1 16.3 0 0 9.2v18.5l8.2 4.6"/><path d="M6.4 12.9l4.1 2.3v6l5.8 3.3 5.8-3.3v-1.1l4.1-2.3v5.8l-9.9 5.5-9.9-5.5"/></g><path fill="#757575" d="M51.3 11l3.8 9.7L59 11h4.5l-6.7 15.9h-3.3L46.8 11h4.5zm22.8 3.5h-4.9v2.7h4.6v3.5h-4.6v2.7h4.9v3.5h-9V11h9v3.5zm16.2 12.4h-5.1l-3.9-6.1v6.1h-4.1V11h6.4c.9 0 1.7.1 2.3.4.7.3 1.2.6 1.6 1.1.4.4.7 1 1 1.6.2.6.3 1.2.3 1.9 0 1.2-.3 2.2-.9 2.9-.6.8-1.4 1.3-2.6 1.5l5 6.5zm-9.1-8.8h.8c.8 0 1.4-.2 1.9-.5.4-.3.7-.8.7-1.5 0-.6-.2-1.1-.7-1.5-.4-.3-1.1-.5-1.9-.5h-.8v4zm13.9 1.1L89.3 11h4.9l2.9 4.3L100 11h4.9l-5.8 8.3v7.6H95v-7.7zm26.3-1.2h8.2c0 .8 0 1.6-.1 2.3-.1.7-.2 1.3-.4 1.9-.3.8-.7 1.6-1.2 2.2-.5.6-1.1 1.2-1.8 1.6-.7.4-1.4.8-2.2 1-.8.2-1.7.3-2.6.3-1.2 0-2.4-.2-3.4-.6-1-.4-1.9-1-2.6-1.7-.7-.7-1.3-1.6-1.7-2.7-.4-1-.6-2.2-.6-3.4 0-1.2.2-2.4.6-3.4.4-1 1-1.9 1.7-2.6.7-.7 1.6-1.3 2.7-1.7 1-.4 2.2-.6 3.5-.6 1.7 0 3.1.4 4.4 1.1 1.2.7 2.2 1.8 3 3.3l-3.9 1.6c-.4-.9-.8-1.5-1.4-1.9-.6-.4-1.2-.6-2-.6-.6 0-1.2.1-1.7.3-.5.2-.9.6-1.3 1s-.6.9-.8 1.5c-.2.6-.3 1.3-.3 2s.1 1.3.3 1.9c.2.6.4 1.1.8 1.5.3.4.8.7 1.3 1 .5.2 1.1.3 1.8.3.4 0 .8 0 1.2-.1.4-.1.7-.2 1-.4.3-.2.5-.5.7-.8.2-.3.3-.7.4-1.2h-3.4l-.2-3.1zm10 .9c0-1.2.2-2.3.7-3.3.4-1 1-1.9 1.8-2.7.8-.8 1.7-1.4 2.8-1.8 1.1-.4 2.3-.6 3.5-.6 1.3 0 2.5.2 3.5.6 1.1.4 2 1 2.8 1.8.8.8 1.4 1.6 1.8 2.7.4 1 .7 2.1.7 3.3s-.2 2.3-.7 3.3c-.4 1-1 1.9-1.8 2.7-.8.8-1.7 1.4-2.8 1.8-1.1.4-2.3.6-3.5.6-1.3 0-2.5-.2-3.5-.6-1.1-.4-2-1-2.8-1.8-.8-.8-1.4-1.6-1.8-2.7-.4-1-.7-2.1-.7-3.3zm4.4 0c0 .6.1 1.2.4 1.7.2.5.6 1 1 1.4.4.4.9.7 1.4.9.5.2 1.1.3 1.7.3.6 0 1.2-.1 1.7-.3.5-.2 1-.5 1.4-.9.4-.4.7-.9 1-1.4.2-.5.4-1.1.4-1.7 0-.6-.1-1.2-.4-1.7-.2-.5-.6-1-1-1.4-.4-.4-.9-.7-1.4-.9-.5-.2-1.1-.3-1.7-.3-.6 0-1.2.1-1.7.3-.5.2-1 .5-1.4.9-.4.4-.7.9-1 1.4-.3.5-.4 1.1-.4 1.7zm15.1 0c0-1.2.2-2.3.7-3.3.4-1 1-1.9 1.8-2.7.8-.8 1.7-1.4 2.8-1.8 1.1-.4 2.3-.6 3.5-.6 1.3 0 2.5.2 3.5.6 1.1.4 2 1 2.8 1.8.8.8 1.4 1.6 1.8 2.7.4 1 .7 2.1.7 3.3s-.2 2.3-.7 3.3c-.4 1-1 1.9-1.8 2.7-.8.8-1.7 1.4-2.8 1.8-1.1.4-2.3.6-3.5.6-1.3 0-2.5-.2-3.5-.6-1.1-.4-2-1-2.8-1.8-.8-.8-1.4-1.6-1.8-2.7-.5-1-.7-2.1-.7-3.3zm4.3 0c0 .6.1 1.2.4 1.7.2.5.6 1 1 1.4.4.4.9.7 1.4.9s1.1.3 1.7.3c.6 0 1.2-.1 1.7-.3.5-.2 1-.5 1.4-.9.4-.4.7-.9 1-1.4.2-.5.4-1.1.4-1.7 0-.6-.1-1.2-.4-1.7-.2-.5-.6-1-1-1.4-.4-.4-.9-.7-1.4-.9-.5-.2-1.1-.3-1.7-.3-.6 0-1.2.1-1.7.3s-1 .5-1.4.9c-.4.4-.7.9-1 1.4-.3.5-.4 1.1-.4 1.7zm15.9-7.9h6.1c1.1 0 2.1.2 3 .7.9.4 1.8 1 2.5 1.7s1.3 1.6 1.7 2.5c.4 1 .6 2 .6 3s-.2 2-.6 3c-.4 1-1 1.8-1.7 2.5s-1.5 1.3-2.5 1.7c-.9.4-2 .7-3.1.7H171V11zm4.1 12.4h.9c.7 0 1.4-.1 1.9-.3.6-.2 1-.5 1.4-.9.4-.4.7-.9.9-1.4.2-.5.3-1.1.3-1.8 0-.6-.1-1.2-.3-1.8-.2-.5-.5-1-.9-1.4-.4-.4-.9-.7-1.4-.9-.6-.2-1.2-.3-1.9-.3h-.9v8.8zm28.3-8.3c-.5-.4-.9-.6-1.3-.8-.5-.2-.9-.3-1.3-.3-.5 0-1 .1-1.3.4-.3.3-.5.6-.5 1 0 .3.1.5.3.7.2.2.4.3.7.5l.9.3c.3.1.7.2 1 .3 1.3.4 2.3 1 3 1.8.6.8.9 1.7.9 2.9 0 .8-.1 1.6-.4 2.2-.3.7-.7 1.2-1.2 1.7s-1.2.8-1.9 1.1c-.8.3-1.6.4-2.6.4-2 0-3.9-.6-5.6-1.8l1.8-3.3c.6.5 1.2 1 1.8 1.2.6.3 1.2.4 1.8.4.7 0 1.2-.2 1.5-.5.3-.3.5-.7.5-1.1 0-.2 0-.4-.1-.6-.1-.2-.2-.3-.4-.5-.2-.1-.5-.3-.8-.4-.3-.1-.7-.3-1.1-.4-.5-.2-1.1-.4-1.6-.6-.5-.2-1-.5-1.4-.8-.4-.3-.7-.8-1-1.3-.2-.5-.4-1.2-.4-1.9s.1-1.5.4-2.1c.3-.6.6-1.2 1.1-1.6.5-.5 1-.8 1.7-1.1.7-.3 1.4-.4 2.3-.4.8 0 1.6.1 2.5.3.9.2 1.7.5 2.5 1l-1.8 3.3zm13.9-.6h-4.9v2.7h4.6v3.5h-4.6v2.7h4.9v3.5h-9V11h9v3.5zm14.4 1.8c-1-1.2-2.1-1.7-3.5-1.7-.6 0-1.2.1-1.7.3-.5.2-1 .5-1.4.9-.4.4-.7.8-.9 1.4-.2.5-.3 1.1-.3 1.7 0 .6.1 1.2.3 1.7.2.5.5 1 .9 1.4.4.4.8.7 1.4.9.5.2 1.1.3 1.7.3 1.3 0 2.5-.6 3.6-1.7v4.9l-.4.1c-.6.2-1.2.4-1.8.5-.5.1-1.1.2-1.6.2-1.1 0-2.1-.2-3.2-.6-1-.4-1.9-1-2.7-1.7-.8-.7-1.4-1.6-1.8-2.7-.5-1-.7-2.2-.7-3.4 0-1.2.2-2.3.7-3.4.5-1 1.1-1.9 1.8-2.6.8-.7 1.7-1.3 2.7-1.7 1-.4 2.1-.6 3.2-.6.6 0 1.3.1 1.9.2.6.1 1.3.3 1.9.6l-.1 5zm6.8-5.3v8.6c0 .5 0 .9.1 1.4 0 .5.1.9.3 1.3.2.4.5.7.8 1 .4.2.9.4 1.6.4.7 0 1.2-.1 1.6-.4.4-.2.6-.6.8-1 .2-.4.3-.8.3-1.3s.1-1 .1-1.4V11h4.1v9.2c0 2.5-.6 4.3-1.7 5.4-1.1 1.1-2.9 1.7-5.2 1.7-2.3 0-4.1-.6-5.2-1.7-1.1-1.1-1.7-2.9-1.7-5.4V11h4.1zm26.2 15.9h-5.1l-3.9-6.1v6.1h-4.1V11h6.4c.9 0 1.7.1 2.3.4.7.3 1.2.6 1.6 1.1.4.4.8 1 1 1.6.2.6.3 1.2.3 1.9 0 1.2-.3 2.2-.9 2.9-.6.8-1.4 1.3-2.6 1.5l5 6.5zm-9.1-8.8h.8c.8 0 1.4-.2 1.9-.5.4-.3.7-.8.7-1.5 0-.6-.2-1.1-.7-1.5-.4-.3-1.1-.5-1.9-.5h-.8v4zm14.9-7.1v15.9h-4.1V11h4.1zm9.4 3.5v12.4h-4.1V14.5h-3.4V11h10.9v3.5H280zm10.1 4.7l-5.8-8.3h4.9l2.9 4.3 2.9-4.3h4.9l-5.8 8.3v7.6H290l.1-7.6z"/></svg>