<svg id="logo" xmlns="http://www.w3.org/2000/svg" viewBox="0 0 346.1 80"><style>.st0{fill:#a1c5e8}.st1{fill:#ef3e42}.st2{fill:#9bcd6e}.st3{fill:#429dd5}.st4{fill:#cbe3b1}.st5{fill:#7ac143}.st6{fill:#0081c6}.st7{fill:#696a6d}</style><path class="st0" d="M34 .8C31.9.3 29.8 0 27.5 0c-2.2 0-4.4.3-6.5.8v7.3h13V.8z"/><path class="st1" d="M21 21h13v13H21z"/><path class="st2" d="M21 34h13v13H21z"/><path class="st3" d="M21 54.3c2.1.5 4.3.8 6.5.8s4.4-.3 6.5-.8V47H21v7.3z"/><path class="st4" d="M21 8.1h13v13H21z"/><path class="st4" d="M8.1 21h13v13h-13z"/><path class="st5" d="M8.1 34h13v13h-13z"/><path class="st6" d="M8.1 47c3.5 3.5 8 6.1 13 7.3V47h-13z"/><path class="st2" d="M8.1 8.1h13v13h-13z"/><path class="st3" d="M21 .8C16 2 11.5 4.6 8 8.1h13V.8z"/><path class="st6" d="M8.1 47V34H.8c1.2 5 3.7 9.5 7.3 13z"/><path class="st3" d="M8.1 8.1C4.5 11.6 2 16 .8 21h7.3V8.1z"/><path class="st2" d="M34 21h13v13H34z"/><path class="st5" d="M34 34h13v13H34z"/><path class="st6" d="M47 47H34v7.3c5-1.2 9.5-3.8 13-7.3z"/><path class="st5" d="M34 8.1h13v13H34z"/><path class="st6" d="M34 .8v7.3h13C43.5 4.5 39 2 34 .8zM47 47c3.5-3.5 6.1-8 7.3-13H47v13zm0-38.9v13h7.3c-1.2-5.1-3.8-9.5-7.3-13z"/><path class="st0" d="M.8 21c-.5 2.1-.8 4.3-.8 6.5s.3 4.4.8 6.5h7.3V21H.8z"/><path class="st3" d="M54.3 34c.5-2.1.8-4.3.8-6.5s-.3-4.4-.8-6.5H47v13h7.3z"/><path class="st7" d="M100.9 47h-2.5l-5.7-15.9c-.5-1.3-1-3-1.6-4.8H91c-.6 1.8-1.1 3.4-1.6 4.8L83.5 47H81L70.2 16h3.7l6.9 20.6c.6 1.7 1.1 3.3 1.5 4.8h.1c.4-1.5 1-3 1.6-4.7l5.3-14.6-2-6.1h3.6L98 36.4c.6 1.8 1.2 3.3 1.6 4.8h.1c.4-1.5.8-3 1.4-4.6l6.7-20.6h3.6l-10.5 31zm26.8-2.3c-1.7 1.8-4.2 2.8-7 2.8s-5.2-.9-6.9-2.7c-2-2.1-3.1-5.2-3.1-8.9s1.1-6.7 3.1-8.8c1.8-1.8 4.2-2.9 6.9-2.9 2.9 0 5.2 1 7 2.9 2 2.1 3.1 5.1 3.1 8.8 0 3.7-1.1 6.8-3.1 8.8m-7-17.5c-4.2 0-6.6 3.4-6.6 8.6 0 5.2 2.5 8.7 6.6 8.7s6.6-3.5 6.6-8.7c0-5.2-2.3-8.6-6.6-8.6m18.4 20.3c-2.7 0-3.9-1.7-3.9-4.1V13.8h3.4v28c0 2.1.5 2.5 1.8 2.5.2 0 .6 0 1.2-.1l.4 2.5c-.9.6-1.7.8-2.9.8m13 0c-3.2 0-4.7-1.9-4.7-4.7v-15h-3.6v-2.9h3.6V20l3.4-1.2v6h6.8l-1.2 2.9h-5.6v14c0 1.9.7 2.7 2.2 2.7 1.6 0 3-.9 3.9-1.6l1.1 2.4c-1.7 1.3-3.9 2.3-5.9 2.3m10.9-11c0 4.2 2.4 8 7.4 8 1.9 0 3.9-.8 5.3-1.6l1 2.3c-1.6 1.3-4.4 2.3-7 2.3-6.9 0-10.3-5.7-10.3-12 0-6.4 3.7-11.2 9-11.2 5.7 0 8.9 4.5 8.9 11.4v.8H163zm5.4-9.3c-3.3 0-5.3 2.9-5.3 6.4h10.5c-.1-3.1-1.9-6.4-5.2-6.4m23.8 1.1c-.5-.2-1.2-.4-2.1-.4-1.3 0-3.5 1.1-4.9 2.7V47h-3.4V24.9h2.8l.5 2.5c3-2.8 4.7-3.1 6.3-3.1 1 0 1.8.4 2.3.7l-1.5 3.3zm123.1 8.2c0 4.2 2.4 8 7.4 8 1.9 0 3.9-.8 5.3-1.6l1 2.3c-1.6 1.3-4.4 2.3-7 2.3-6.9 0-10.3-5.7-10.3-12 0-6.4 3.7-11.2 9-11.2 5.7 0 8.9 4.5 8.9 11.4v.8h-14.3zm5.4-9.3c-3.3 0-5.3 2.9-5.3 6.4h10.5c-.1-3.1-1.8-6.4-5.2-6.4m23.9 1.1c-.5-.2-1.2-.4-2.1-.4-1.3 0-3.5 1.1-4.9 2.7V47h-3.4V24.9h2.8l.5 2.5c3-2.8 4.7-3.1 6.3-3.1 1 0 1.8.4 2.3.7l-1.5 3.3zM200.9 47.5c-3.2 0-5.1-.8-6.6-1.7l1.3-2.7c1 .7 3 1.6 5.4 1.6 2.7 0 4.7-1.2 4.7-3.3 0-5.4-10.1-3.5-10.1-11.3 0-3.2 2.3-5.9 7.4-5.9 2.3 0 4.1.5 5.6 1.2v3c-1.5-.7-3.1-1.3-5.4-1.3-2.2 0-4.1.8-4.1 2.8 0 5 10.3 3.7 10.3 11-.1 4.7-3.9 6.6-8.5 6.6m38.7-.5l-12.3-13.9V47h-3.5V16.1h3.5v14.2l11.5-14.1h4.3l-12.7 15.2L244.2 47zm11.7.5c-2.7 0-3.9-1.7-3.9-4.1V13.8h3.4v28c0 2.1.5 2.5 1.8 2.5.2 0 .6 0 1.2-.1l.4 2.5c-.9.6-1.7.8-2.9.8m21.2-.5l-.9-2.3c-1.6 1.4-4.2 2.8-7.2 2.8s-6.7-1.5-6.7-7.8V24.9h3.4v14.5c0 3.7 1.5 5.2 4.3 5.2s5-1.8 5.9-3V24.9h3.4v12.9c0 7 .1 8.3.5 9.3h-2.7zm30.4 0h-3.1l-5.5-17.7h-.1L288.7 47h-3l-7.4-22.1h3.5l5.4 17.4h.1l5.5-17.4h3.1l5.5 17.5h.2l5.3-17.5h3.3zM55.1 43h1.2c.3 0 .5 0 .6.1.5.2.8.6.8 1 0 .6-.5 1-.9 1.1.3.1.7.9 1.2 1.8h-1c-.5-1-.8-1.6-1-1.6h-.1V47h-.8v-4zm1 1.8c.4 0 .8-.2.8-.6 0-.2-.1-.4-.3-.5-.1-.1-.3-.1-.4-.1H56v1.1h.1z"/><path class="st7" d="M60.1 45.1c0 2.1-1.7 3.7-3.7 3.7-2.1 0-3.7-1.7-3.7-3.7 0-2.1 1.7-3.7 3.7-3.7 2-.1 3.7 1.6 3.7 3.7zm-3.7-3c-1.6 0-3 1.3-3 3 0 1.6 1.3 3 3 3 1.6 0 3-1.3 3-3-.1-1.7-1.4-3-3-3zM73.2 62.4h1.6l2.5 7.8c.3.8.6 1.9.9 2.9.3-1.1.6-1.9.9-2.9l1.9-5.6-.8-2.2h1.6l2.6 7.8c.3.8.6 1.9.9 2.8.3-1 .5-1.9.8-2.8l2.5-7.8h1.5l-4.3 13h-1.2l-2.1-6.1c-.4-1-.6-1.8-.9-2.8h-.1c-.3.9-.5 1.6-.9 2.8l-2.1 6.1h-1.2l-4.1-13zm19.2-.9h1.4v5.8c1-.8 2-1.4 3.2-1.4 1.5 0 2.8.9 2.8 3.3v6.3h-1.4v-5.8c0-1.4-.4-2.4-1.7-2.4-1 0-2 .6-2.9 1.4v6.8h-1.4v-14zm10 9.1c0-2.8 1.5-4.8 3.8-4.8 2.4 0 3.7 1.8 3.7 4.8v.4h-6c0 1.9 1.1 3.4 3.1 3.4.9 0 1.7-.3 2.3-.6l.5 1c-.8.5-1.9.8-3 .8-2.9-.1-4.4-2.3-4.4-5zm6-.8c0-1.4-.7-2.8-2.2-2.8-1.4 0-2.3 1.3-2.3 2.8h4.5zm4.3-3.7h1.2l.2 1.2c1-.9 2.1-1.4 3.3-1.4 1.5 0 2.7.9 2.7 3.3v6.3h-1.4v-5.8c0-1.4-.4-2.4-1.7-2.4-1 0-2 .6-2.8 1.4v6.8h-1.5v-9.4zm14 12.4c.4.2.8.3 1.3.3 1.2 0 2.2-.9 2.9-3.4l-4.1-9.3h1.6l3.2 7.5 2.5-7.5h1.5l-3.5 10c-1.2 3.4-2.6 3.9-4.1 3.9-.7 0-1.2-.1-1.6-.3l.3-1.2zm10.2-7.8c0-2.7 1.7-4.9 4.3-4.9 2.6 0 4.3 2.1 4.3 4.9 0 2.7-1.7 4.8-4.3 4.8-2.6 0-4.3-2.1-4.3-4.8zm7.1 0c0-2.1-1.1-3.6-2.8-3.6-1.7 0-2.8 1.5-2.8 3.6s1.1 3.6 2.8 3.6c1.7 0 2.8-1.5 2.8-3.6zm4.4 3.1c-.2-.5-.2-1-.2-1.7V66h1.5v5.7c0 .6 0 1.1.2 1.4.2.7.8 1 1.5 1 1.1 0 2.1-.7 2.6-1.3v-6.9h1.4V72c0 1.8.1 2.7.2 3.1h-1.3L154 74c-.8.7-1.9 1.3-3.1 1.3-.9.2-2.1-.1-2.5-1.5zm15.5-12.3h1.4v5.8c1-.8 2-1.4 3.2-1.4 1.4 0 2.7.9 2.7 3.3v6.3h-1.4v-5.8c0-1.4-.4-2.4-1.7-2.4-1 0-2 .6-2.9 1.4v6.8h-1.4v-14zm15.7 12.8c-.7.7-1.6 1.2-2.8 1.2-1.7 0-2.9-1.1-2.9-2.9 0-1.2.6-2.1 1.6-2.5.6-.3 1.4-.4 2.3-.5l1.8-.1v-.6c0-1.4-.8-2-2-2-1.1 0-1.9.4-2.5.8l-.6-1c1.1-.7 2.2-.9 3.3-.9 1.9 0 3.3.9 3.3 3.2v3.2c0 1.8.1 2.7.2 3.2H180l-.4-1.1zm-1.7-3.5c-.8 0-1.3.1-1.7.3-.5.3-.8.8-.8 1.4 0 1 .7 1.7 1.7 1.7 1.2 0 2-.8 2.5-1.2v-2.4l-1.7.2zm5.1-4.7h1.5l2.7 7.4 2.6-7.4h1.5l-3.6 9.3h-1.2l-3.5-9.3zm9.9 4.5c0-2.8 1.6-4.8 3.8-4.8 2.4 0 3.7 1.8 3.7 4.8v.4h-6c0 1.9 1.1 3.4 3.1 3.4.9 0 1.6-.3 2.3-.6l.5 1c-.8.5-1.9.8-3 .8-3-.1-4.4-2.3-4.4-5zm6-.8c0-1.4-.7-2.8-2.2-2.8-1.4 0-2.3 1.3-2.3 2.8h4.5zm9.6 3.6v-6.1h-1.6v-1.2h1.6V64l1.4-.5v2.6h2.8l-.4 1.2H210v5.9c0 .8.3 1.2 1 1.2.6 0 1.1-.3 1.5-.5l.5 1c-.6.4-1.4.7-2.3.7-1.4-.1-2.2-.8-2.2-2.2zm6.1-2.7c0-2.7 1.7-4.9 4.3-4.9 2.6 0 4.3 2.1 4.3 4.9 0 2.7-1.7 4.8-4.3 4.8-2.6 0-4.3-2.1-4.3-4.8zm7.1 0c0-2.1-1.1-3.6-2.8-3.6-1.7 0-2.8 1.5-2.8 3.6s1.1 3.6 2.8 3.6c1.7 0 2.8-1.5 2.8-3.6zM231 75V61.5h1.4v4.8c.6-.2 1.2-.4 2.1-.4 2.3 0 4.2 1.6 4.2 4.6 0 3.2-2.2 5.1-5.1 5.1-1.2-.1-2.1-.3-2.6-.6zm6.2-4.5c0-2-1-3.4-2.9-3.4-1 0-1.6.4-1.9.5v6.5c.5.2 1 .3 1.4.3 2-.1 3.4-1.6 3.4-3.9zm3.7.1c0-2.8 1.5-4.8 3.8-4.8 2.4 0 3.7 1.8 3.7 4.8v.4h-6c0 1.9 1.1 3.4 3.1 3.4.9 0 1.7-.3 2.3-.6l.5 1c-.8.5-1.9.8-3 .8-3-.1-4.4-2.3-4.4-5zm6-.8c0-1.4-.7-2.8-2.2-2.8-1.4 0-2.3 1.3-2.3 2.8h4.5zm9.3-3.7h1.2l.2 1.2c1-1.1 1.8-1.4 2.6-1.4.4 0 .8.1 1 .2l-.5 1.3c-.2-.1-.5-.2-.8-.2-.7 0-1.3.4-2.2 1.3v6.8h-1.5v-9.2zm7.1-3.1c0-.6.4-1 1-1s1 .4 1 1-.4 1-1 1-1-.4-1-1zm.3 3.1h1.4v9.3h-1.4v-9.3zm14.8-4.6h1.4v5.8c1-.8 2-1.4 3.2-1.4 1.5 0 2.7.9 2.7 3.3v6.3h-1.4v-5.8c0-1.4-.4-2.4-1.7-2.4-1 0-2 .6-2.9 1.4v6.8h-1.4v-14zm11.3 11.9v-6.1h-1.6v-1.2h1.6V64l1.4-.5v2.6h2.8l-.4 1.2h-2.3v5.9c0 .8.3 1.2 1 1.2.6 0 1.1-.3 1.5-.5l.5 1c-.6.4-1.4.7-2.3.7-1.4-.1-2.2-.8-2.2-2.2zM267.5 77.3c0-.9.5-1.8 1.7-2.4-.4-.2-.7-.7-.7-1.2 0-.4.2-1.1 1-1.8-.9-.6-1.4-1.6-1.4-2.8 0-1.9 1.4-3.3 3.4-3.3.8 0 1.4.2 1.8.4h.2c.4-.5 1.1-.8 1.9-.8.2 0 .5 0 .6.1l-.4 1.1c-.2 0-.4-.1-.5-.1-.3 0-.6.1-.9.3.7.6 1.1 1.5 1.1 2.4 0 2-1.5 3.4-3.6 3.4-.5 0-.9-.1-1.2-.2-.3.4-.5.7-.5 1.1 0 1.8 6.1.2 6.1 3.7 0 1.7-1.7 2.9-4.5 2.9-2.5-.1-4.1-1.1-4.1-2.8zm7.1-.1c0-1.7-2.8-1.4-4.5-1.9-.5.3-1.3.8-1.3 1.7 0 1.1 1.2 1.8 2.8 1.8 2.1 0 3-.7 3-1.6zm-.8-8c0-1.2-.9-2.1-2.1-2.1-1.2 0-2.1.8-2.1 2.1s.8 2.2 2.1 2.2c1.2 0 2.1-.8 2.1-2.2z"/></svg>