<svg id="Ebene_1" xmlns="http://www.w3.org/2000/svg" viewBox="0 0 200 39.4"><style>.st0{fill:#F58233;}</style><path d="M88.5 9.7c-1.4-.8-3.6-1.2-6.6-1.2-4.1 0-7.8.8-9.3 1.4-.2.1-.6.4-.6.8v.1l.4 2c.1.4.5.6.8.6h.3l.7-.2c1.8-.4 4.4-1.1 7.4-1.1 1.8 0 3 .2 3.8.5 1.3.5 1.3 1.4 1.3 2.8v2.1h-.8c-1.5 0-4.3.1-7.2.5-4.3.7-7.9 1.7-7.9 7.6 0 7.6 7 7.6 10.4 7.6 2.3 0 4.4-.3 5.8-.6 3.2-.6 4-1.6 4-4.7V15.3c0-1.9 0-4.3-2.5-5.6m-1.7 19.4c-1.7.5-3.5.8-5.4.8v.2-.2c-3.1 0-6.1-.4-6.1-4.3 0-3.1 1.7-3.5 3.8-4h.1c1.9-.4 6.6-.5 7.6-.5v8zM126 15.3v12.6c0 3.1-.8 4.1-3.9 4.8-1.4.3-3.5.6-5.8.6-3.4 0-10.4 0-10.4-7.6 0-5.9 3.5-7 7.9-7.6 2.8-.5 5.7-.5 7.2-.5h.8v-2.1c0-1.4 0-2.3-1.3-2.8-.8-.3-2-.5-3.8-.5-3 0-5.7.7-7.4 1.1l-.7.2h-.3c-.3 0-.7-.2-.8-.6l-.4-2v-.1c0-.5.3-.8.7-.9 1.4-.5 5.2-1.4 9.3-1.4 3 0 5.1.4 6.6 1.2 2.3 1.3 2.3 3.7 2.3 5.6m-4.2 5.8c-1 0-5.7.1-7.6.5h-.1c-2.1.5-3.8.8-3.8 4 0 3.9 3 4.3 6.1 4.3v.2-.2c1.9 0 3.8-.3 5.4-.8v-8zm67.6-12.6c-9.8 0-10.6 6.4-10.6 12.4s.8 12.4 10.6 12.4c9.7 0 10.6-6.4 10.6-12.4 0-6.2-.8-12.4-10.6-12.4m0 21.3c-5.9 0-6.2-3.1-6.3-8.9 0-5.8.3-8.9 6.3-8.9 5.9 0 6.2 3.1 6.3 8.9-.1 5.9-.4 8.9-6.3 8.9m-17.5 2.6l-.3.1c-1.4.3-3.2.8-6.5.8-9 0-10.8-4.6-10.8-12.4 0-9 2.9-12.4 10.5-12.4 2.7 0 4.6.4 5.9.7V1.9c0-.3.1-.7.9-.9l2.4-.6h.1c.6 0 .7.5.7.9v27.3c.2 1.8 0 3.2-2.9 3.8m-1.1-19.7c-.8-.2-3-.7-5.6-.7-4.6 0-6.6 1.3-6.6 9 .1 8.4 2.6 8.9 6.6 8.9v.2-.2c2.5 0 4.7-.5 5.5-.7l.1-16.5zm-21.6 20.1h-2.1c-.6 0-1-.4-1-1V15.6c0-2.7-.9-3.5-3.8-3.5-3.3 0-6.7.8-7.8 1.1v18.6c0 .6-.4 1-1 1h-2.2c-.6 0-1-.4-1-1V13.6c0-1.7.1-2.8 2.5-3.6 2.3-.8 6.7-1.5 9.6-1.5 5.5 0 7.9 2 7.9 6.7v16.6c-.1.5-.5 1-1.1 1m-48.5.4c1.2 0 2.1-.3 2.5-.7.1-.1.2-.3.2-.5 0-.1 0-.1-.3-1.7-.1-.4-.4-.6-.6-.6h-.6c-.9 0-1.6-.2-1.6-1.4V1.4c0-.4-.3-.9-.8-.9h-.2l-2.4.6c-.4 0-.8.3-.8.9v26.4c-.2 3.1 1.5 4.8 4.6 4.8zm-33.9-.4H49.6c-.6 0-1-.4-1-1v-2.1c0-.5.2-.7.5-1.1l13.7-15.9H49.3c-.6 0-1-.4-1-1v-1.5c0-.6.4-1 1-1h17.4c.6 0 1 .4 1 1v2.1c0 .4-.1.7-.4 1.1l-13.7 16h13.2c.6 0 1 .4 1 1v1.5c0 .4-.5.9-1 .9"/><path class="st0" d="M36.4 15.5c-2.8-3.5-6.8-6.8-11.9-9.9C19.3 2.6 14.4.9 10 .2 7.2-.3 5.9.2 5.3.6c-.6.3-1.7 1.2-2.7 3.8C1 8.6 0 13.7 0 19.7S1 30.8 2.6 35c1 2.6 2.1 3.5 2.7 3.8.6.3 1.9.9 4.7.4 4.4-.7 9.3-2.5 14.5-5.4 5.2-3 9.1-6.4 11.9-9.9 1.8-2.2 2-3.6 2-4.3 0-.6-.2-2-2-4.1z"/></svg>