<svg width="60px" height="60px" viewBox="0 0 60 60" version="1.1" xmlns="http://www.w3.org/2000/svg" xmlns:xlink="http://www.w3.org/1999/xlink"><title>logo</title><defs></defs><g id="Page 1" stroke="none" stroke-width="1" fill="none" fill-rule="evenodd"><g id="logo"><g id="Group" transform="translate(-251.191406, -522.355469)"><g transform="translate(250.000000, 522.000000)"><path d="M1.55799866,0.533996582 L1.55799866,60.166996 L61.1879997,60.166996 L61.1879997,0.533996582 L1.55799866,0.533996582 Z M1.55799866,0.533996582" id="Rectangle" fill="#CA6D6D" fillalt="#B0403A"></path><path d="M62.231,27.975 L50.53,27.975 L50.53,13.818 C50.53,12.285 49.288,11.039 47.751,11.039 L0.905,11.033 L0.905,16.594 L44.97,16.603 L44.97,27.976 L23.094,27.976 C21.56,27.976 20.314,29.218 20.314,30.752 L20.314,48.422 C20.314,49.958 21.56,51.205 23.094,51.205 L39.083,51.205 L40.174,51.205 L47.751,51.205 L50.53,51.205 L50.53,48.422 L50.53,38.797 L50.53,37.797 L50.53,33.536 L62.231,33.536 L62.231,27.975 L62.231,27.975 Z M44.97,45.642 L25.876,45.642 L25.876,33.536 L44.97,33.536 L44.97,45.642 L44.97,45.642 Z M44.97,45.642" id="Shape" fill="#FFFFFF"></path></g></g></g></g></svg>