<svg width="143" height="39" viewBox="0 0 143 39" fill="none" xmlns="http://www.w3.org/2000/svg">
<path d="M12.5 29.05C12.6667 29.1833 12.95 29.25 13.35 29.25C13.75 29.25 14.0333 29.1833 14.2 29.05C14.3 28.95 14.35 28.8833 14.35 28.85V28.95V29.1C14.35 29.2333 14.25 29.3333 14.05 29.4C13.85 29.4667 13.6167 29.5 13.35 29.5C13.0833 29.5 12.85 29.4667 12.65 29.4C12.45 29.3333 12.35 29.2333 12.35 29.1V28.95V28.85C12.35 28.8833 12.4 28.95 12.5 29.05ZM10.2 27.8C10.4 27.9333 10.7 28 11.1 28C11.5 28 11.7833 27.9333 11.95 27.8C12.05 27.7 12.1 27.6333 12.1 27.6V27.7V27.85C12.1 27.9833 12 28.0833 11.8 28.15C11.6 28.2167 11.3667 28.25 11.1 28.25C10.8333 28.25 10.6 28.2167 10.4 28.15C10.1667 28.0833 10.05 27.9833 10.05 27.85V27.7V27.6C10.05 27.6333 10.1 27.7 10.2 27.8ZM12.5 10.1C12.6667 10.2667 12.95 10.35 13.35 10.35C13.75 10.35 14.0333 10.2667 14.2 10.1C14.3 10.0333 14.35 9.96666 14.35 9.9V10V10.15C14.35 10.2833 14.25 10.3833 14.05 10.45C13.85 10.55 13.6167 10.6 13.35 10.6C13.0833 10.6 12.85 10.55 12.65 10.45C12.45 10.3833 12.35 10.2833 12.35 10.15V10V9.9C12.35 9.96666 12.4 10.0333 12.5 10.1ZM10.2 8.85C10.4 9.01666 10.7 9.1 11.1 9.1C11.5 9.1 11.7833 9.01666 11.95 8.85C12.05 8.78333 12.1 8.71667 12.1 8.65V8.75V8.9C12.1 9.03333 12 9.13333 11.8 9.2C11.6 9.3 11.3667 9.35 11.1 9.35C10.8333 9.35 10.6 9.3 10.4 9.2C10.1667 9.13333 10.05 9.03333 10.05 8.9V8.75V8.65C10.05 8.71667 10.1 8.78333 10.2 8.85ZM15.75 9.65C15.95 9.78333 16.25 9.85 16.65 9.85C17.05 9.85 17.3333 9.78333 17.5 9.65C17.6 9.55 17.65 9.48333 17.65 9.45V9.55V9.7C17.65 9.83333 17.5333 9.93333 17.3 10C17.1333 10.0667 16.9167 10.1 16.65 10.1C16.3833 10.1 16.15 10.0667 15.95 10C15.7167 9.93333 15.6 9.83333 15.6 9.7V9.55V9.45C15.6 9.48333 15.65 9.55 15.75 9.65ZM13.5 8.4C13.6667 8.53333 13.95 8.6 14.35 8.6C14.75 8.6 15.0333 8.53333 15.2 8.4C15.3333 8.3 15.4 8.23333 15.4 8.2V8.3V8.45C15.4 8.58333 15.2833 8.68333 15.05 8.75C14.85 8.81666 14.6167 8.85 14.35 8.85C14.0833 8.85 13.85 8.81666 13.65 8.75C13.45 8.68333 13.35 8.58333 13.35 8.45V8.3V8.2C13.35 8.23333 13.4 8.3 13.5 8.4ZM2.65 3.9C2.85 4.03333 3.15 4.1 3.55 4.1C3.95 4.1 4.23333 4.03333 4.4 3.9C4.5 3.8 4.55 3.71666 4.55 3.65V3.8V3.95C4.55 4.08333 4.43333 4.18333 4.2 4.25C4.03333 4.31667 3.81667 4.35 3.55 4.35C3.28333 4.35 3.05 4.31667 2.85 4.25C2.61667 4.18333 2.5 4.08333 2.5 3.95V3.8V3.65C2.5 3.71666 2.55 3.8 2.65 3.9ZM0.4 2.65C0.566667 2.78333 0.85 2.85 1.25 2.85C1.65 2.85 1.95 2.78333 2.15 2.65C2.25 2.55 2.3 2.46667 2.3 2.4V2.55V2.7C2.3 2.83333 2.18333 2.93333 1.95 3C1.75 3.06666 1.51667 3.1 1.25 3.1C0.983333 3.1 0.75 3.06666 0.55 3C0.35 2.93333 0.25 2.83333 0.25 2.7V2.55V2.4C0.25 2.46667 0.3 2.55 0.4 2.65ZM5.95 3.45C6.11667 3.58333 6.4 3.65 6.8 3.65C7.2 3.65 7.48333 3.58333 7.65 3.45C7.75 3.35 7.8 3.26666 7.8 3.2V3.35V3.45C7.8 3.58333 7.7 3.7 7.5 3.8C7.3 3.86667 7.06667 3.9 6.8 3.9C6.53333 3.9 6.3 3.86667 6.1 3.8C5.9 3.7 5.8 3.58333 5.8 3.45V3.35V3.2C5.8 3.26666 5.85 3.35 5.95 3.45ZM3.65 2.2C3.85 2.33333 4.15 2.4 4.55 2.4C4.95 2.4 5.23333 2.33333 5.4 2.2C5.5 2.1 5.55 2.01666 5.55 1.95V2.1V2.2C5.55 2.33333 5.45 2.45 5.25 2.55C5.05 2.61666 4.81667 2.65 4.55 2.65C4.28333 2.65 4.05 2.61666 3.85 2.55C3.61667 2.45 3.5 2.33333 3.5 2.2V2.1V1.95C3.5 2.01666 3.55 2.1 3.65 2.2ZM22.7 13.45V32.45L19.4 32.9V36.7L6.35 38.5V34.75L3.05 35.2V4.85L9.6 3.9V10.75C9.73333 10.7833 9.9 10.8 10.1 10.8C10.4667 10.8 10.75 10.7167 10.95 10.55C11.05 10.4833 11.1 10.4167 11.1 10.35V10.5V10.6C11.1 10.7333 10.9833 10.85 10.75 10.95C10.5833 11.0167 10.3667 11.05 10.1 11.05C9.93333 11.05 9.76667 11.0333 9.6 11V11.5L19.4 10.1V13.15C19.5667 13.1833 19.7333 13.2 19.9 13.2C20.3 13.2 20.5833 13.1333 20.75 13C20.85 12.9 20.9 12.8167 20.9 12.75V12.9V13C20.9 13.1333 20.8 13.25 20.6 13.35C20.4 13.4167 20.1667 13.45 19.9 13.45C19.7333 13.45 19.5667 13.4333 19.4 13.4V13.9L22.7 13.45ZM16.15 29.5V18.15L9.6 19.1V29.7C9.73333 29.7333 9.9 29.75 10.1 29.75C10.5 29.75 10.7833 29.6667 10.95 29.5C11.05 29.4333 11.1 29.3667 11.1 29.3V29.4V29.55C11.1 29.6833 10.9833 29.7833 10.75 29.85C10.5833 29.95 10.3667 30 10.1 30C9.93333 30 9.76667 29.9833 9.6 29.95V30.45L16.15 29.5ZM23.4996 3.95C23.6996 4.08333 23.9996 4.15 24.3996 4.15C24.7996 4.15 25.0829 4.08333 25.2496 3.95C25.3496 3.85 25.3996 3.76666 25.3996 3.7V3.85V3.95C25.3996 4.08333 25.2996 4.2 25.0996 4.3C24.8996 4.36667 24.6663 4.4 24.3996 4.4C24.1329 4.4 23.8996 4.36667 23.6996 4.3C23.4663 4.2 23.3496 4.08333 23.3496 3.95V3.85V3.7C23.3496 3.76666 23.3996 3.85 23.4996 3.95ZM21.2496 2.7C21.4163 2.83333 21.6996 2.9 22.0996 2.9C22.4996 2.9 22.7996 2.83333 22.9996 2.7C23.0996 2.6 23.1496 2.51667 23.1496 2.45V2.6V2.7C23.1496 2.83333 23.0329 2.95 22.7996 3.05C22.5996 3.11667 22.3663 3.15 22.0996 3.15C21.8329 3.15 21.5996 3.11667 21.3996 3.05C21.1996 2.95 21.0996 2.83333 21.0996 2.7V2.6V2.45C21.0996 2.51667 21.1496 2.6 21.2496 2.7ZM26.7996 3.45C26.9663 3.61667 27.2496 3.7 27.6496 3.7C28.0496 3.7 28.3329 3.61667 28.4996 3.45C28.5996 3.38333 28.6496 3.31666 28.6496 3.25V3.4V3.5C28.6496 3.63333 28.5496 3.75 28.3496 3.85C28.1496 3.91667 27.9163 3.95 27.6496 3.95C27.3829 3.95 27.1496 3.91667 26.9496 3.85C26.7496 3.75 26.6496 3.63333 26.6496 3.5V3.4V3.25C26.6496 3.31666 26.6996 3.38333 26.7996 3.45ZM24.4996 2.2C24.6996 2.36667 24.9996 2.45 25.3996 2.45C25.7996 2.45 26.0829 2.36667 26.2496 2.2C26.3496 2.13333 26.3996 2.06667 26.3996 2V2.15V2.25C26.3996 2.38333 26.2996 2.5 26.0996 2.6C25.8996 2.66667 25.6663 2.7 25.3996 2.7C25.1329 2.7 24.8996 2.66667 24.6996 2.6C24.4663 2.5 24.3496 2.38333 24.3496 2.25V2.15V2C24.3496 2.06667 24.3996 2.13333 24.4996 2.2ZM30.4496 3.95V38.1L23.8996 39V4.85L30.4496 3.95ZM31.2633 3.95C31.4633 4.08333 31.7633 4.15 32.1633 4.15C32.5633 4.15 32.8466 4.08333 33.0133 3.95C33.1133 3.85 33.1633 3.76666 33.1633 3.7V3.85V3.95C33.1633 4.08333 33.0633 4.2 32.8633 4.3C32.6633 4.36667 32.4299 4.4 32.1633 4.4C31.8966 4.4 31.6633 4.36667 31.4633 4.3C31.2299 4.2 31.1133 4.08333 31.1133 3.95V3.85V3.7C31.1133 3.76666 31.1633 3.85 31.2633 3.95ZM29.0133 2.7C29.1799 2.83333 29.4633 2.9 29.8633 2.9C30.2633 2.9 30.5633 2.83333 30.7633 2.7C30.8633 2.6 30.9133 2.51667 30.9133 2.45V2.6V2.7C30.9133 2.83333 30.7966 2.95 30.5633 3.05C30.3633 3.11667 30.1299 3.15 29.8633 3.15C29.5966 3.15 29.3633 3.11667 29.1633 3.05C28.9633 2.95 28.8633 2.83333 28.8633 2.7V2.6V2.45C28.8633 2.51667 28.9133 2.6 29.0133 2.7ZM34.5633 3.45C34.7299 3.61667 35.0133 3.7 35.4133 3.7C35.8133 3.7 36.0966 3.61667 36.2633 3.45C36.3633 3.38333 36.4133 3.31666 36.4133 3.25V3.4V3.5C36.4133 3.63333 36.3133 3.75 36.1133 3.85C35.9133 3.91667 35.6799 3.95 35.4133 3.95C35.1466 3.95 34.9133 3.91667 34.7133 3.85C34.5133 3.75 34.4133 3.63333 34.4133 3.5V3.4V3.25C34.4133 3.31666 34.4633 3.38333 34.5633 3.45ZM32.2633 2.2C32.4633 2.36667 32.7633 2.45 33.1633 2.45C33.5633 2.45 33.8466 2.36667 34.0133 2.2C34.1133 2.13333 34.1633 2.06667 34.1633 2V2.15V2.25C34.1633 2.38333 34.0633 2.5 33.8633 2.6C33.6633 2.66667 33.4299 2.7 33.1633 2.7C32.8966 2.7 32.6633 2.66667 32.4633 2.6C32.2299 2.5 32.1133 2.38333 32.1133 2.25V2.15V2C32.1133 2.06667 32.1633 2.13333 32.2633 2.2ZM38.2133 11.55V38.1L31.6633 39V12.45L38.2133 11.55ZM31.2633 11.55C31.4633 11.6833 31.7633 11.75 32.1633 11.75C32.5633 11.75 32.8466 11.6833 33.0133 11.55C33.1133 11.45 33.1633 11.3667 33.1633 11.3V11.45V11.55C33.1633 11.6833 33.0633 11.8 32.8633 11.9C32.6633 11.9667 32.4299 12 32.1633 12C31.8966 12 31.6633 11.9667 31.4633 11.9C31.2299 11.8 31.1133 11.6833 31.1133 11.55V11.45V11.3C31.1133 11.3667 31.1633 11.45 31.2633 11.55ZM29.0133 10.3C29.1799 10.4333 29.4633 10.5 29.8633 10.5C30.2633 10.5 30.5633 10.4333 30.7633 10.3C30.8633 10.2 30.9133 10.1167 30.9133 10.05V10.2V10.3C30.9133 10.4333 30.7966 10.55 30.5633 10.65C30.3633 10.7167 30.1299 10.75 29.8633 10.75C29.5966 10.75 29.3633 10.7167 29.1633 10.65C28.9633 10.55 28.8633 10.4333 28.8633 10.3V10.2V10.05C28.8633 10.1167 28.9133 10.2 29.0133 10.3ZM34.5633 11.05C34.7299 11.2167 35.0133 11.3 35.4133 11.3C35.8133 11.3 36.0966 11.2167 36.2633 11.05C36.3633 10.9833 36.4133 10.9167 36.4133 10.85V11V11.1C36.4133 11.2333 36.3133 11.35 36.1133 11.45C35.9133 11.5167 35.6799 11.55 35.4133 11.55C35.1466 11.55 34.9133 11.5167 34.7133 11.45C34.5133 11.35 34.4133 11.2333 34.4133 11.1V11V10.85C34.4133 10.9167 34.4633 10.9833 34.5633 11.05ZM32.2633 9.8C32.4633 9.96666 32.7633 10.05 33.1633 10.05C33.5633 10.05 33.8466 9.96666 34.0133 9.8C34.1133 9.73333 34.1633 9.66667 34.1633 9.6V9.75V9.85C34.1633 9.98333 34.0633 10.1 33.8633 10.2C33.6633 10.2667 33.4299 10.3 33.1633 10.3C32.8966 10.3 32.6633 10.2667 32.4633 10.2C32.2299 10.1 32.1133 9.98333 32.1133 9.85V9.75V9.6C32.1133 9.66667 32.1633 9.73333 32.2633 9.8ZM31.6633 4.85L38.2133 3.95V7.75L31.6633 8.65V4.85ZM39.027 15.3C39.227 15.4333 39.527 15.5 39.927 15.5C40.327 15.5 40.6103 15.4333 40.777 15.3C40.877 15.2 40.927 15.1167 40.927 15.05V15.2V15.35C40.927 15.4833 40.8103 15.5833 40.577 15.65C40.4103 15.7167 40.1936 15.75 39.927 15.75C39.6603 15.75 39.427 15.7167 39.227 15.65C38.9936 15.5833 38.877 15.4833 38.877 15.35V15.2V15.05C38.877 15.1167 38.927 15.2 39.027 15.3ZM36.777 14.05C36.9436 14.1833 37.227 14.25 37.627 14.25C38.027 14.25 38.327 14.1833 38.527 14.05C38.627 13.95 38.677 13.8667 38.677 13.8V13.95V14.1C38.677 14.2333 38.5603 14.3333 38.327 14.4C38.127 14.4667 37.8936 14.5 37.627 14.5C37.3603 14.5 37.127 14.4667 36.927 14.4C36.727 14.3333 36.627 14.2333 36.627 14.1V13.95V13.8C36.627 13.8667 36.677 13.95 36.777 14.05ZM42.327 11.05C42.4936 11.1833 42.777 11.25 43.177 11.25C43.577 11.25 43.8603 11.1833 44.027 11.05C44.127 10.95 44.177 10.8667 44.177 10.8V10.95V11.1C44.177 11.2333 44.077 11.3333 43.877 11.4C43.677 11.4667 43.4436 11.5 43.177 11.5C42.9103 11.5 42.677 11.4667 42.477 11.4C42.277 11.3333 42.177 11.2333 42.177 11.1V10.95V10.8C42.177 10.8667 42.227 10.95 42.327 11.05ZM40.027 9.8C40.227 9.93333 40.527 10 40.927 10C41.327 10 41.6103 9.93333 41.777 9.8C41.877 9.7 41.927 9.61667 41.927 9.55V9.7V9.85C41.927 9.98333 41.827 10.0833 41.627 10.15C41.427 10.2167 41.1936 10.25 40.927 10.25C40.6603 10.25 40.427 10.2167 40.227 10.15C39.9936 10.0833 39.877 9.98333 39.877 9.85V9.7V9.55C39.877 9.61667 39.927 9.7 40.027 9.8ZM45.577 10.6C45.777 10.7333 46.0603 10.8 46.427 10.8C46.827 10.8 47.127 10.7333 47.327 10.6C47.427 10.5 47.477 10.4167 47.477 10.35V10.5V10.65C47.477 10.75 47.3603 10.85 47.127 10.95C46.9603 11.0167 46.7436 11.05 46.477 11.05C46.2103 11.05 45.977 11.0167 45.777 10.95C45.5436 10.85 45.427 10.75 45.427 10.65V10.5V10.35C45.427 10.4167 45.477 10.5 45.577 10.6ZM43.327 9.35C43.4936 9.48333 43.777 9.55 44.177 9.55C44.577 9.55 44.8603 9.48333 45.027 9.35C45.1603 9.25 45.227 9.16667 45.227 9.1V9.25V9.35C45.227 9.48333 45.1103 9.6 44.877 9.7C44.677 9.76666 44.4436 9.8 44.177 9.8C43.9103 9.8 43.677 9.76666 43.477 9.7C43.277 9.6 43.177 9.48333 43.177 9.35V9.25V9.1C43.177 9.16667 43.227 9.25 43.327 9.35ZM48.877 10.1C49.0436 10.2667 49.327 10.35 49.727 10.35C50.127 10.35 50.4103 10.2667 50.577 10.1C50.677 10.0333 50.727 9.96666 50.727 9.9V10.05V10.15C50.727 10.2833 50.627 10.4 50.427 10.5C50.227 10.5667 49.9936 10.6 49.727 10.6C49.4603 10.6 49.227 10.5667 49.027 10.5C48.827 10.4 48.727 10.2833 48.727 10.15V10.05V9.9C48.727 9.96666 48.777 10.0333 48.877 10.1ZM46.577 8.85C46.777 9.01666 47.077 9.1 47.477 9.1C47.877 9.1 48.1603 9.01666 48.327 8.85C48.427 8.78333 48.477 8.71667 48.477 8.65V8.8V8.9C48.477 9.03333 48.377 9.15 48.177 9.25C47.977 9.31666 47.7436 9.35 47.477 9.35C47.2103 9.35 46.977 9.31666 46.777 9.25C46.5436 9.15 46.427 9.03333 46.427 8.9V8.8V8.65C46.427 8.71667 46.477 8.78333 46.577 8.85ZM52.127 9.65C52.327 9.81667 52.627 9.9 53.027 9.9C53.427 9.9 53.7103 9.81667 53.877 9.65C53.977 9.58333 54.027 9.51666 54.027 9.45V9.55V9.7C54.027 9.83333 53.9103 9.93333 53.677 10C53.5103 10.1 53.2936 10.15 53.027 10.15C52.7603 10.15 52.527 10.1 52.327 10C52.0936 9.93333 51.977 9.83333 51.977 9.7V9.55V9.45C51.977 9.51666 52.027 9.58333 52.127 9.65ZM49.877 8.4C50.0436 8.56666 50.327 8.65 50.727 8.65C51.127 8.65 51.4103 8.56666 51.577 8.4C51.7103 8.33333 51.777 8.26666 51.777 8.2V8.3V8.45C51.777 8.58333 51.6603 8.68333 51.427 8.75C51.227 8.85 50.9936 8.9 50.727 8.9C50.4603 8.9 50.227 8.85 50.027 8.75C49.827 8.68333 49.727 8.58333 49.727 8.45V8.3V8.2C49.727 8.26666 49.777 8.33333 49.877 8.4ZM59.077 13.45V36.25L52.527 37.15V18.15L45.977 19.1V38.1L39.427 39V16.2L42.677 15.75V12L55.777 10.15V13.15C55.9436 13.1833 56.1103 13.2 56.277 13.2C56.677 13.2 56.9603 13.1333 57.127 13C57.227 12.9 57.277 12.8167 57.277 12.75V12.9V13.05C57.277 13.1833 57.177 13.2833 56.977 13.35C56.777 13.4167 56.5436 13.45 56.277 13.45C56.1103 13.45 55.9436 13.4333 55.777 13.4V13.95L59.077 13.45ZM59.8766 15.3C60.0766 15.4333 60.3766 15.5 60.7766 15.5C61.1766 15.5 61.4599 15.4333 61.6266 15.3C61.7266 15.2 61.7766 15.1167 61.7766 15.05V15.2V15.3C61.7766 15.4333 61.6599 15.55 61.4266 15.65C61.2599 15.7167 61.0432 15.75 60.7766 15.75C60.5099 15.75 60.2766 15.7167 60.0766 15.65C59.8432 15.55 59.7266 15.4333 59.7266 15.3V15.2V15.05C59.7266 15.1167 59.7766 15.2 59.8766 15.3ZM57.6266 14.05C57.7932 14.1833 58.0766 14.25 58.4766 14.25C58.8766 14.25 59.1766 14.1833 59.3766 14.05C59.4766 13.95 59.5266 13.8667 59.5266 13.8V13.95V14.05C59.5266 14.1833 59.4099 14.3 59.1766 14.4C58.9766 14.4667 58.7432 14.5 58.4766 14.5C58.2099 14.5 57.9766 14.4667 57.7766 14.4C57.5766 14.3 57.4766 14.1833 57.4766 14.05V13.95V13.8C57.4766 13.8667 57.5266 13.95 57.6266 14.05ZM69.7266 29.05C69.8932 29.1833 70.1766 29.25 70.5766 29.25C70.9766 29.25 71.2599 29.1833 71.4266 29.05C71.5266 28.95 71.5766 28.8833 71.5766 28.85V28.95V29.1C71.5766 29.2333 71.4766 29.3333 71.2766 29.4C71.0766 29.4667 70.8432 29.5 70.5766 29.5C70.3099 29.5 70.0766 29.4667 69.8766 29.4C69.6766 29.3333 69.5766 29.2333 69.5766 29.1V28.95V28.85C69.5766 28.8833 69.6266 28.95 69.7266 29.05ZM67.4266 27.8C67.6266 27.9333 67.9266 28 68.3266 28C68.7266 28 69.0099 27.9333 69.1766 27.8C69.2766 27.7 69.3266 27.6333 69.3266 27.6V27.7V27.85C69.3266 27.9833 69.2266 28.0833 69.0266 28.15C68.8266 28.2167 68.5932 28.25 68.3266 28.25C68.0599 28.25 67.8266 28.2167 67.6266 28.15C67.3932 28.0833 67.2766 27.9833 67.2766 27.85V27.7V27.6C67.2766 27.6333 67.3266 27.7 67.4266 27.8ZM63.1766 11.05C63.3432 11.1833 63.6266 11.25 64.0266 11.25C64.4266 11.25 64.7099 11.1833 64.8766 11.05C64.9766 10.95 65.0266 10.8667 65.0266 10.8V10.95V11.05C65.0266 11.1833 64.9266 11.3 64.7266 11.4C64.5266 11.4667 64.2932 11.5 64.0266 11.5C63.7599 11.5 63.5266 11.4667 63.3266 11.4C63.1266 11.3 63.0266 11.1833 63.0266 11.05V10.95V10.8C63.0266 10.8667 63.0766 10.95 63.1766 11.05ZM60.8766 9.8C61.0766 9.93333 61.3766 10 61.7766 10C62.1766 10 62.4599 9.93333 62.6266 9.8C62.7266 9.7 62.7766 9.61667 62.7766 9.55V9.7V9.8C62.7766 9.93333 62.6766 10.05 62.4766 10.15C62.2766 10.2167 62.0432 10.25 61.7766 10.25C61.5099 10.25 61.2766 10.2167 61.0766 10.15C60.8432 10.05 60.7266 9.93333 60.7266 9.8V9.7V9.55C60.7266 9.61667 60.7766 9.7 60.8766 9.8ZM66.4266 10.55C66.6266 10.7167 66.9099 10.8 67.2766 10.8C67.6766 10.8 67.9766 10.7167 68.1766 10.55C68.2766 10.4833 68.3266 10.4167 68.3266 10.35V10.5V10.6C68.3266 10.7333 68.2099 10.85 67.9766 10.95C67.8099 11.0167 67.5932 11.05 67.3266 11.05C67.0599 11.05 66.8266 11.0167 66.6266 10.95C66.3932 10.85 66.2766 10.7333 66.2766 10.6V10.5V10.35C66.2766 10.4167 66.3266 10.4833 66.4266 10.55ZM64.1766 9.3C64.3432 9.46666 64.6266 9.55 65.0266 9.55C65.4266 9.55 65.7099 9.46666 65.8766 9.3C66.0099 9.23333 66.0766 9.16667 66.0766 9.1V9.25V9.35C66.0766 9.48333 65.9599 9.6 65.7266 9.7C65.5266 9.76666 65.2932 9.8 65.0266 9.8C64.7599 9.8 64.5266 9.76666 64.3266 9.7C64.1266 9.6 64.0266 9.48333 64.0266 9.35V9.25V9.1C64.0266 9.16667 64.0766 9.23333 64.1766 9.3ZM69.7266 10.1C69.8932 10.2667 70.1766 10.35 70.5766 10.35C70.9766 10.35 71.2599 10.2667 71.4266 10.1C71.5266 10.0333 71.5766 9.96666 71.5766 9.9V10V10.15C71.5766 10.2833 71.4766 10.3833 71.2766 10.45C71.0766 10.55 70.8432 10.6 70.5766 10.6C70.3099 10.6 70.0766 10.55 69.8766 10.45C69.6766 10.3833 69.5766 10.2833 69.5766 10.15V10V9.9C69.5766 9.96666 69.6266 10.0333 69.7266 10.1ZM67.4266 8.85C67.6266 9.01666 67.9266 9.1 68.3266 9.1C68.7266 9.1 69.0099 9.01666 69.1766 8.85C69.2766 8.78333 69.3266 8.71667 69.3266 8.65V8.75V8.9C69.3266 9.03333 69.2266 9.13333 69.0266 9.2C68.8266 9.3 68.5932 9.35 68.3266 9.35C68.0599 9.35 67.8266 9.3 67.6266 9.2C67.3932 9.13333 67.2766 9.03333 67.2766 8.9V8.75V8.65C67.2766 8.71667 67.3266 8.78333 67.4266 8.85ZM76.2766 1.6C76.4432 1.73333 76.7266 1.8 77.1266 1.8C77.5266 1.8 77.8099 1.73333 77.9766 1.6C78.0766 1.5 78.1266 1.41666 78.1266 1.35V1.5V1.6C78.1266 1.73333 78.0266 1.85 77.8266 1.95C77.6266 2.01666 77.3932 2.05 77.1266 2.05C76.8599 2.05 76.6266 2.01666 76.4266 1.95C76.2266 1.85 76.1266 1.73333 76.1266 1.6V1.5V1.35C76.1266 1.41666 76.1766 1.5 76.2766 1.6ZM73.9766 0.349997C74.1766 0.483331 74.4766 0.549997 74.8766 0.549997C75.2766 0.549997 75.5599 0.483331 75.7266 0.349997C75.8266 0.249998 75.8766 0.166665 75.8766 0.0999972V0.249998V0.349997C75.8766 0.483331 75.7766 0.599998 75.5766 0.699998C75.3766 0.766664 75.1432 0.799997 74.8766 0.799997C74.6099 0.799997 74.3766 0.766664 74.1766 0.699998C73.9432 0.599998 73.8266 0.483331 73.8266 0.349997V0.249998V0.0999972C73.8266 0.166665 73.8766 0.249998 73.9766 0.349997ZM72.9766 2.05C73.1766 2.18333 73.4766 2.25 73.8766 2.25C74.2766 2.25 74.5599 2.18333 74.7266 2.05C74.8266 1.95 74.8766 1.86666 74.8766 1.8V1.95V2.1C74.8766 2.23333 74.7599 2.33333 74.5266 2.4C74.3599 2.46667 74.1432 2.5 73.8766 2.5C73.6099 2.5 73.3766 2.46667 73.1766 2.4C72.9432 2.33333 72.8266 2.23333 72.8266 2.1V1.95V1.8C72.8266 1.86666 72.8766 1.95 72.9766 2.05ZM70.7266 0.799997C70.8932 0.933331 71.1766 0.999997 71.5766 0.999997C71.9766 0.999997 72.2599 0.933331 72.4266 0.799997C72.5599 0.699998 72.6266 0.616665 72.6266 0.549997V0.699998V0.849999C72.6266 0.949998 72.5099 1.05 72.2766 1.15C72.0766 1.21666 71.8432 1.25 71.5766 1.25C71.3099 1.25 71.0766 1.21666 70.8766 1.15C70.6766 1.05 70.5766 0.949998 70.5766 0.849999V0.699998V0.549997C70.5766 0.616665 70.6266 0.699998 70.7266 0.799997ZM73.3766 3L79.9266 2.05V32.45L76.6266 32.9V36.7L63.5766 38.5V34.75L60.2766 35.2V16.2L63.5266 15.75V11.95L73.3766 10.6V3ZM73.3766 29.5V18.15L66.8266 19.1V29.7C66.9599 29.7333 67.1266 29.75 67.3266 29.75C67.7266 29.75 68.0099 29.6667 68.1766 29.5C68.2766 29.4333 68.3266 29.3667 68.3266 29.3V29.4V29.55C68.3266 29.6833 68.2099 29.7833 67.9766 29.85C67.8099 29.95 67.5932 30 67.3266 30C67.1599 30 66.9932 29.9833 66.8266 29.95V30.45L73.3766 29.5ZM80.7262 15.3C80.9262 15.4333 81.2262 15.5 81.6262 15.5C82.0262 15.5 82.3095 15.4333 82.4762 15.3C82.5762 15.2 82.6262 15.1167 82.6262 15.05V15.2V15.35C82.6262 15.4833 82.5095 15.5833 82.2762 15.65C82.1095 15.7167 81.8928 15.75 81.6262 15.75C81.3595 15.75 81.1262 15.7167 80.9262 15.65C80.6928 15.5833 80.5762 15.4833 80.5762 15.35V15.2V15.05C80.5762 15.1167 80.6262 15.2 80.7262 15.3ZM78.4762 14.05C78.6428 14.1833 78.9262 14.25 79.3262 14.25C79.7262 14.25 80.0262 14.1833 80.2262 14.05C80.3262 13.95 80.3762 13.8667 80.3762 13.8V13.95V14.1C80.3762 14.2333 80.2595 14.3333 80.0262 14.4C79.8262 14.4667 79.5928 14.5 79.3262 14.5C79.0595 14.5 78.8262 14.4667 78.6262 14.4C78.4262 14.3333 78.3262 14.2333 78.3262 14.1V13.95V13.8C78.3262 13.8667 78.3762 13.95 78.4762 14.05ZM84.0262 11.05C84.1928 11.1833 84.4762 11.25 84.8762 11.25C85.2762 11.25 85.5595 11.1833 85.7262 11.05C85.8262 10.95 85.8762 10.8667 85.8762 10.8V10.95V11.1C85.8762 11.2333 85.7762 11.3333 85.5762 11.4C85.3762 11.4667 85.1428 11.5 84.8762 11.5C84.6095 11.5 84.3762 11.4667 84.1762 11.4C83.9762 11.3333 83.8762 11.2333 83.8762 11.1V10.95V10.8C83.8762 10.8667 83.9262 10.95 84.0262 11.05ZM81.7262 9.8C81.9262 9.93333 82.2262 10 82.6262 10C83.0262 10 83.3095 9.93333 83.4762 9.8C83.5762 9.7 83.6262 9.61667 83.6262 9.55V9.7V9.85C83.6262 9.98333 83.5262 10.0833 83.3262 10.15C83.1262 10.2167 82.8928 10.25 82.6262 10.25C82.3595 10.25 82.1262 10.2167 81.9262 10.15C81.6928 10.0833 81.5762 9.98333 81.5762 9.85V9.7V9.55C81.5762 9.61667 81.6262 9.7 81.7262 9.8ZM87.2762 10.6C87.4762 10.7333 87.7595 10.8 88.1262 10.8C88.5262 10.8 88.8262 10.7333 89.0262 10.6C89.1262 10.5 89.1762 10.4167 89.1762 10.35V10.5V10.65C89.1762 10.75 89.0595 10.85 88.8262 10.95C88.6595 11.0167 88.4428 11.05 88.1762 11.05C87.9095 11.05 87.6762 11.0167 87.4762 10.95C87.2428 10.85 87.1262 10.75 87.1262 10.65V10.5V10.35C87.1262 10.4167 87.1762 10.5 87.2762 10.6ZM85.0262 9.35C85.1928 9.48333 85.4762 9.55 85.8762 9.55C86.2762 9.55 86.5595 9.48333 86.7262 9.35C86.8595 9.25 86.9262 9.16667 86.9262 9.1V9.25V9.35C86.9262 9.48333 86.8095 9.6 86.5762 9.7C86.3762 9.76666 86.1428 9.8 85.8762 9.8C85.6095 9.8 85.3762 9.76666 85.1762 9.7C84.9762 9.6 84.8762 9.48333 84.8762 9.35V9.25V9.1C84.8762 9.16667 84.9262 9.25 85.0262 9.35ZM90.5762 10.1C90.7428 10.2667 91.0262 10.35 91.4262 10.35C91.8262 10.35 92.1095 10.2667 92.2762 10.1C92.3762 10.0333 92.4262 9.96666 92.4262 9.9V10.05V10.15C92.4262 10.2833 92.3262 10.4 92.1262 10.5C91.9262 10.5667 91.6928 10.6 91.4262 10.6C91.1595 10.6 90.9262 10.5667 90.7262 10.5C90.5262 10.4 90.4262 10.2833 90.4262 10.15V10.05V9.9C90.4262 9.96666 90.4762 10.0333 90.5762 10.1ZM88.2762 8.85C88.4762 9.01666 88.7762 9.1 89.1762 9.1C89.5762 9.1 89.8595 9.01666 90.0262 8.85C90.1262 8.78333 90.1762 8.71667 90.1762 8.65V8.8V8.9C90.1762 9.03333 90.0762 9.15 89.8762 9.25C89.6762 9.31666 89.4428 9.35 89.1762 9.35C88.9095 9.35 88.6762 9.31666 88.4762 9.25C88.2428 9.15 88.1262 9.03333 88.1262 8.9V8.8V8.65C88.1262 8.71667 88.1762 8.78333 88.2762 8.85ZM93.8262 9.65C94.0262 9.81667 94.3262 9.9 94.7262 9.9C95.1262 9.9 95.4095 9.81667 95.5762 9.65C95.6762 9.58333 95.7262 9.51666 95.7262 9.45V9.55V9.7C95.7262 9.83333 95.6095 9.93333 95.3762 10C95.2095 10.1 94.9928 10.15 94.7262 10.15C94.4595 10.15 94.2262 10.1 94.0262 10C93.7928 9.93333 93.6762 9.83333 93.6762 9.7V9.55V9.45C93.6762 9.51666 93.7262 9.58333 93.8262 9.65ZM91.5762 8.4C91.7428 8.56666 92.0262 8.65 92.4262 8.65C92.8262 8.65 93.1095 8.56666 93.2762 8.4C93.4095 8.33333 93.4762 8.26666 93.4762 8.2V8.3V8.45C93.4762 8.58333 93.3595 8.68333 93.1262 8.75C92.9262 8.85 92.6928 8.9 92.4262 8.9C92.1595 8.9 91.9262 8.85 91.7262 8.75C91.5262 8.68333 91.4262 8.58333 91.4262 8.45V8.3V8.2C91.4262 8.26666 91.4762 8.33333 91.5762 8.4ZM100.776 13.45V36.25L94.2262 37.15V18.15L87.6762 19.1V38.1L81.1262 39V16.2L84.3762 15.75V12L97.4762 10.15V13.15C97.6428 13.1833 97.8095 13.2 97.9762 13.2C98.3762 13.2 98.6595 13.1333 98.8262 13C98.9262 12.9 98.9762 12.8167 98.9762 12.75V12.9V13.05C98.9762 13.1833 98.8762 13.2833 98.6762 13.35C98.4762 13.4167 98.2428 13.45 97.9762 13.45C97.8095 13.45 97.6428 13.4333 97.4762 13.4V13.95L100.776 13.45ZM104.876 11.1C105.042 11.2333 105.326 11.3 105.726 11.3C106.126 11.3 106.409 11.2333 106.576 11.1C106.676 11 106.726 10.9167 106.726 10.85V11V11.1C106.726 11.2333 106.626 11.35 106.426 11.45C106.226 11.5167 105.992 11.55 105.726 11.55C105.459 11.55 105.226 11.5167 105.026 11.45C104.826 11.35 104.726 11.2333 104.726 11.1V11V10.85C104.726 10.9167 104.776 11 104.876 11.1ZM102.576 9.85C102.776 9.98333 103.076 10.05 103.476 10.05C103.876 10.05 104.159 9.98333 104.326 9.85C104.426 9.75 104.476 9.66667 104.476 9.6V9.75V9.85C104.476 9.98333 104.376 10.1 104.176 10.2C103.976 10.2667 103.742 10.3 103.476 10.3C103.209 10.3 102.976 10.2667 102.776 10.2C102.542 10.1 102.426 9.98333 102.426 9.85V9.75V9.6C102.426 9.66667 102.476 9.75 102.576 9.85ZM108.126 10.6C108.326 10.7667 108.626 10.85 109.026 10.85C109.426 10.85 109.709 10.7667 109.876 10.6C109.976 10.5333 110.026 10.4667 110.026 10.4V10.55V10.65C110.026 10.7833 109.909 10.9 109.676 11C109.509 11.0667 109.276 11.1 108.976 11.1C108.709 11.1 108.492 11.0667 108.326 11C108.092 10.9 107.976 10.7833 107.976 10.65V10.55V10.4C107.976 10.4667 108.026 10.5333 108.126 10.6ZM105.876 9.35C106.042 9.51667 106.326 9.6 106.726 9.6C107.126 9.6 107.409 9.51667 107.576 9.35C107.709 9.28333 107.776 9.21667 107.776 9.15V9.3V9.4C107.776 9.53333 107.659 9.65 107.426 9.75C107.226 9.81667 106.992 9.85 106.726 9.85C106.459 9.85 106.226 9.81667 106.026 9.75C105.826 9.65 105.726 9.53333 105.726 9.4V9.3V9.15C105.726 9.21667 105.776 9.28333 105.876 9.35ZM111.426 10.15C111.592 10.3167 111.876 10.4 112.276 10.4C112.676 10.4 112.959 10.3167 113.126 10.15C113.226 10.0833 113.276 10.0167 113.276 9.95V10.05V10.2C113.276 10.3333 113.176 10.4333 112.976 10.5C112.776 10.6 112.542 10.65 112.276 10.65C112.009 10.65 111.776 10.6 111.576 10.5C111.376 10.4333 111.276 10.3333 111.276 10.2V10.05V9.95C111.276 10.0167 111.326 10.0833 111.426 10.15ZM109.126 8.9C109.326 9.06667 109.626 9.15 110.026 9.15C110.426 9.15 110.709 9.06667 110.876 8.9C110.976 8.83333 111.026 8.76667 111.026 8.7V8.8V8.95C111.026 9.08333 110.926 9.18333 110.726 9.25C110.526 9.35 110.292 9.4 110.026 9.4C109.759 9.4 109.526 9.35 109.326 9.25C109.092 9.18333 108.976 9.08333 108.976 8.95V8.8V8.7C108.976 8.76667 109.026 8.83333 109.126 8.9ZM114.676 9.7C114.876 9.83333 115.159 9.9 115.526 9.9C115.926 9.9 116.226 9.83333 116.426 9.7C116.526 9.6 116.576 9.53333 116.576 9.5V9.6V9.75C116.576 9.88333 116.459 9.98333 116.226 10.05C116.059 10.1167 115.826 10.15 115.526 10.15C115.259 10.15 115.042 10.1167 114.876 10.05C114.642 9.98333 114.526 9.88333 114.526 9.75V9.6V9.5C114.526 9.53333 114.576 9.6 114.676 9.7ZM112.426 8.45C112.592 8.58333 112.876 8.65 113.276 8.65C113.676 8.65 113.959 8.58333 114.126 8.45C114.226 8.35 114.276 8.28333 114.276 8.25V8.35V8.5C114.276 8.63333 114.176 8.73333 113.976 8.8C113.776 8.86666 113.542 8.9 113.276 8.9C113.009 8.9 112.776 8.86666 112.576 8.8C112.376 8.73333 112.276 8.63333 112.276 8.5V8.35V8.25C112.276 8.28333 112.326 8.35 112.426 8.45ZM111.426 29.1C111.592 29.2333 111.876 29.3 112.276 29.3C112.676 29.3 112.959 29.2333 113.126 29.1C113.259 29 113.326 28.9333 113.326 28.9V29V29.15C113.326 29.2833 113.209 29.3833 112.976 29.45C112.776 29.5167 112.542 29.55 112.276 29.55C112.009 29.55 111.776 29.5167 111.576 29.45C111.376 29.3833 111.276 29.2833 111.276 29.15V29V28.9C111.276 28.9333 111.326 29 111.426 29.1ZM109.126 27.85C109.326 27.9833 109.626 28.05 110.026 28.05C110.426 28.05 110.709 27.9833 110.876 27.85C110.976 27.75 111.026 27.6833 111.026 27.65V27.75V27.9C111.026 28.0333 110.926 28.1333 110.726 28.2C110.526 28.2667 110.292 28.3 110.026 28.3C109.759 28.3 109.526 28.2667 109.326 28.2C109.092 28.1333 108.976 28.0333 108.976 27.9V27.75V27.65C108.976 27.6833 109.026 27.75 109.126 27.85ZM114.676 28.65C114.876 28.7833 115.176 28.85 115.576 28.85C115.976 28.85 116.259 28.7833 116.426 28.65C116.526 28.55 116.576 28.4667 116.576 28.4V28.55V28.7C116.576 28.8 116.476 28.9 116.276 29C116.076 29.0667 115.842 29.1 115.576 29.1C115.309 29.1 115.076 29.0667 114.876 29C114.642 28.9 114.526 28.8 114.526 28.7V28.55V28.4C114.526 28.4667 114.576 28.55 114.676 28.65ZM112.426 27.4C112.592 27.5333 112.876 27.6 113.276 27.6C113.676 27.6 113.976 27.5333 114.176 27.4C114.276 27.3 114.326 27.2167 114.326 27.15V27.3V27.45C114.326 27.55 114.209 27.65 113.976 27.75C113.776 27.8167 113.542 27.85 113.276 27.85C113.009 27.85 112.776 27.8167 112.576 27.75C112.376 27.65 112.276 27.55 112.276 27.45V27.3V27.15C112.276 27.2167 112.326 27.3 112.426 27.4ZM117.976 28.2C118.142 28.3333 118.426 28.4 118.826 28.4C119.226 28.4 119.509 28.3333 119.676 28.2C119.776 28.1 119.826 28.0167 119.826 27.95V28.1V28.2C119.826 28.3333 119.726 28.45 119.526 28.55C119.326 28.6167 119.092 28.65 118.826 28.65C118.559 28.65 118.326 28.6167 118.126 28.55C117.926 28.45 117.826 28.3333 117.826 28.2V28.1V27.95C117.826 28.0167 117.876 28.1 117.976 28.2ZM115.676 26.95C115.876 27.0833 116.176 27.15 116.576 27.15C116.976 27.15 117.259 27.0833 117.426 26.95C117.526 26.85 117.576 26.7667 117.576 26.7V26.85V26.95C117.576 27.0833 117.476 27.2 117.276 27.3C117.076 27.3667 116.842 27.4 116.576 27.4C116.309 27.4 116.076 27.3667 115.876 27.3C115.642 27.2 115.526 27.0833 115.526 26.95V26.85V26.7C115.526 26.7667 115.576 26.85 115.676 26.95ZM111.426 21.55C111.592 21.7167 111.876 21.8 112.276 21.8C112.676 21.8 112.959 21.7167 113.126 21.55C113.226 21.4833 113.276 21.4167 113.276 21.35V21.5V21.6C113.276 21.7333 113.176 21.8333 112.976 21.9C112.776 22 112.542 22.05 112.276 22.05C112.009 22.05 111.776 22 111.576 21.9C111.376 21.8333 111.276 21.7333 111.276 21.6V21.5V21.35C111.276 21.4167 111.326 21.4833 111.426 21.55ZM109.126 20.3C109.326 20.4667 109.626 20.55 110.026 20.55C110.426 20.55 110.709 20.4667 110.876 20.3C110.976 20.2333 111.026 20.1667 111.026 20.1V20.25V20.35C111.026 20.4833 110.926 20.5833 110.726 20.65C110.526 20.75 110.292 20.8 110.026 20.8C109.759 20.8 109.526 20.75 109.326 20.65C109.092 20.5833 108.976 20.4833 108.976 20.35V20.25V20.1C108.976 20.1667 109.026 20.2333 109.126 20.3ZM101.576 15.35C101.776 15.4833 102.076 15.55 102.476 15.55C102.876 15.55 103.159 15.4833 103.326 15.35C103.426 15.25 103.476 15.1667 103.476 15.1V15.25V15.4C103.476 15.5333 103.376 15.6333 103.176 15.7C102.976 15.7667 102.742 15.8 102.476 15.8C102.209 15.8 101.976 15.7667 101.776 15.7C101.542 15.6333 101.426 15.5333 101.426 15.4V15.25V15.1C101.426 15.1667 101.476 15.25 101.576 15.35ZM99.3258 14.1C99.4924 14.2333 99.7758 14.3 100.176 14.3C100.576 14.3 100.876 14.2333 101.076 14.1C101.176 14 101.226 13.9167 101.226 13.85V14V14.15C101.226 14.2833 101.109 14.3833 100.876 14.45C100.676 14.5167 100.442 14.55 100.176 14.55C99.9091 14.55 99.6758 14.5167 99.4758 14.45C99.2758 14.3833 99.1758 14.2833 99.1758 14.15V14V13.85C99.1758 13.9167 99.2258 14 99.3258 14.1ZM108.526 30.5L121.626 28.65V36.2L105.226 38.5V34.75L101.976 35.2V16.3L105.226 15.8V12L118.326 10.15V13.2C118.459 13.2333 118.626 13.25 118.826 13.25C119.226 13.25 119.509 13.1667 119.676 13C119.776 12.9333 119.826 12.8667 119.826 12.8V12.95V13.05C119.826 13.1833 119.726 13.3 119.526 13.4C119.326 13.4667 119.092 13.5 118.826 13.5C118.659 13.5 118.492 13.4833 118.326 13.45V13.95L121.626 13.5V24.85L108.526 26.75V29.7C108.659 29.7333 108.826 29.75 109.026 29.75C109.426 29.75 109.709 29.6833 109.876 29.55C109.976 29.4833 110.026 29.4167 110.026 29.35V29.45V29.6C110.026 29.7333 109.909 29.8333 109.676 29.9C109.509 29.9667 109.292 30 109.026 30C108.859 30 108.692 29.9833 108.526 29.95V30.5ZM115.076 18.25L108.526 19.2V22.2C108.659 22.2333 108.826 22.25 109.026 22.25C109.426 22.25 109.709 22.1833 109.876 22.05C109.976 21.95 110.026 21.8667 110.026 21.8V21.95V22.05C110.026 22.1833 109.909 22.3 109.676 22.4C109.509 22.4667 109.292 22.5 109.026 22.5C108.859 22.5 108.692 22.4833 108.526 22.45V22.95L115.076 22.05V18.25ZM132.275 10.1C132.442 10.2667 132.725 10.35 133.125 10.35C133.525 10.35 133.809 10.2667 133.975 10.1C134.075 10.0333 134.125 9.96666 134.125 9.9V10V10.15C134.125 10.2833 134.025 10.3833 133.825 10.45C133.625 10.55 133.392 10.6 133.125 10.6C132.859 10.6 132.625 10.55 132.425 10.45C132.225 10.3833 132.125 10.2833 132.125 10.15V10V9.9C132.125 9.96666 132.175 10.0333 132.275 10.1ZM129.975 8.85C130.175 9.01666 130.475 9.1 130.875 9.1C131.275 9.1 131.559 9.01666 131.725 8.85C131.825 8.78333 131.875 8.71667 131.875 8.65V8.75V8.9C131.875 9.03333 131.775 9.13333 131.575 9.2C131.375 9.3 131.142 9.35 130.875 9.35C130.609 9.35 130.375 9.3 130.175 9.2C129.942 9.13333 129.825 9.03333 129.825 8.9V8.75V8.65C129.825 8.71667 129.875 8.78333 129.975 8.85ZM135.525 9.65C135.725 9.78333 136.025 9.85 136.425 9.85C136.825 9.85 137.109 9.78333 137.275 9.65C137.375 9.55 137.425 9.48333 137.425 9.45V9.55V9.7C137.425 9.83333 137.309 9.93333 137.075 10C136.909 10.0667 136.692 10.1 136.425 10.1C136.159 10.1 135.925 10.0667 135.725 10C135.492 9.93333 135.375 9.83333 135.375 9.7V9.55V9.45C135.375 9.48333 135.425 9.55 135.525 9.65ZM133.275 8.4C133.442 8.53333 133.725 8.6 134.125 8.6C134.525 8.6 134.809 8.53333 134.975 8.4C135.109 8.3 135.175 8.23333 135.175 8.2V8.3V8.45C135.175 8.58333 135.059 8.68333 134.825 8.75C134.625 8.81666 134.392 8.85 134.125 8.85C133.859 8.85 133.625 8.81666 133.425 8.75C133.225 8.68333 133.125 8.58333 133.125 8.45V8.3V8.2C133.125 8.23333 133.175 8.3 133.275 8.4ZM122.425 3.9C122.625 4.03333 122.925 4.1 123.325 4.1C123.725 4.1 124.009 4.03333 124.175 3.9C124.275 3.8 124.325 3.71666 124.325 3.65V3.8V3.95C124.325 4.08333 124.209 4.18333 123.975 4.25C123.809 4.31667 123.592 4.35 123.325 4.35C123.059 4.35 122.825 4.31667 122.625 4.25C122.392 4.18333 122.275 4.08333 122.275 3.95V3.8V3.65C122.275 3.71666 122.325 3.8 122.425 3.9ZM120.175 2.65C120.342 2.78333 120.625 2.85 121.025 2.85C121.425 2.85 121.725 2.78333 121.925 2.65C122.025 2.55 122.075 2.46667 122.075 2.4V2.55V2.7C122.075 2.83333 121.959 2.93333 121.725 3C121.525 3.06666 121.292 3.1 121.025 3.1C120.759 3.1 120.525 3.06666 120.325 3C120.125 2.93333 120.025 2.83333 120.025 2.7V2.55V2.4C120.025 2.46667 120.075 2.55 120.175 2.65ZM125.725 3.45C125.892 3.58333 126.175 3.65 126.575 3.65C126.975 3.65 127.259 3.58333 127.425 3.45C127.525 3.35 127.575 3.26666 127.575 3.2V3.35V3.45C127.575 3.58333 127.475 3.7 127.275 3.8C127.075 3.86667 126.842 3.9 126.575 3.9C126.309 3.9 126.075 3.86667 125.875 3.8C125.675 3.7 125.575 3.58333 125.575 3.45V3.35V3.2C125.575 3.26666 125.625 3.35 125.725 3.45ZM123.425 2.2C123.625 2.33333 123.925 2.4 124.325 2.4C124.725 2.4 125.009 2.33333 125.175 2.2C125.275 2.1 125.325 2.01666 125.325 1.95V2.1V2.2C125.325 2.33333 125.225 2.45 125.025 2.55C124.825 2.61666 124.592 2.65 124.325 2.65C124.059 2.65 123.825 2.61666 123.625 2.55C123.392 2.45 123.275 2.33333 123.275 2.2V2.1V1.95C123.275 2.01666 123.325 2.1 123.425 2.2ZM138.825 28.1C138.992 28.2667 139.275 28.35 139.675 28.35C140.075 28.35 140.359 28.2667 140.525 28.1C140.625 28.0333 140.675 27.9667 140.675 27.9V28.05V28.15C140.675 28.2833 140.575 28.4 140.375 28.5C140.175 28.5667 139.942 28.6 139.675 28.6C139.409 28.6 139.175 28.5667 138.975 28.5C138.775 28.4 138.675 28.2833 138.675 28.15V28.05V27.9C138.675 27.9667 138.725 28.0333 138.825 28.1ZM136.525 26.85C136.725 27.0167 137.025 27.1 137.425 27.1C137.825 27.1 138.109 27.0167 138.275 26.85C138.375 26.7833 138.425 26.7167 138.425 26.65V26.8V26.9C138.425 27.0333 138.309 27.15 138.075 27.25C137.909 27.3167 137.692 27.35 137.425 27.35C137.159 27.35 136.925 27.3167 136.725 27.25C136.492 27.15 136.375 27.0333 136.375 26.9V26.8V26.65C136.375 26.7167 136.425 26.7833 136.525 26.85ZM129.375 30.45L142.475 28.6V36.2L126.125 38.5V34.75L122.825 35.2V4.85L129.375 3.9V10.75C129.509 10.7833 129.675 10.8 129.875 10.8C130.242 10.8 130.525 10.7167 130.725 10.55C130.825 10.4833 130.875 10.4167 130.875 10.35V10.5V10.6C130.875 10.7333 130.759 10.85 130.525 10.95C130.359 11.0167 130.142 11.05 129.875 11.05C129.709 11.05 129.542 11.0333 129.375 11V11.5L139.175 10.1V17.7L129.375 19.1V29.7C129.509 29.7 129.675 29.7 129.875 29.7C130.275 29.7 130.559 29.6333 130.725 29.5C130.825 29.4333 130.875 29.3667 130.875 29.3V29.4V29.55C130.875 29.6833 130.759 29.7833 130.525 29.85C130.359 29.95 130.142 30 129.875 30C129.709 30 129.542 29.9833 129.375 29.95V30.45ZM132.275 29.05C132.442 29.1833 132.725 29.25 133.125 29.25C133.525 29.25 133.809 29.1833 133.975 29.05C134.075 28.95 134.125 28.8667 134.125 28.8V28.95V29.1C134.125 29.2333 134.025 29.3333 133.825 29.4C133.625 29.4667 133.392 29.5 133.125 29.5C132.859 29.5 132.625 29.4667 132.425 29.4C132.225 29.3333 132.125 29.2333 132.125 29.1V28.95V28.8C132.125 28.8667 132.175 28.95 132.275 29.05ZM129.975 27.8C130.175 27.9333 130.475 28 130.875 28C131.275 28 131.559 27.9333 131.725 27.8C131.825 27.7 131.875 27.6167 131.875 27.55V27.7V27.85C131.875 27.9833 131.775 28.0833 131.575 28.15C131.375 28.2167 131.142 28.25 130.875 28.25C130.609 28.25 130.375 28.2167 130.175 28.15C129.942 28.0833 129.825 27.9833 129.825 27.85V27.7V27.55C129.825 27.6167 129.875 27.7 129.975 27.8ZM135.525 28.6C135.725 28.7333 136.009 28.8 136.375 28.8C136.775 28.8 137.075 28.7333 137.275 28.6C137.375 28.5 137.425 28.4167 137.425 28.35V28.5V28.65C137.425 28.75 137.309 28.85 137.075 28.95C136.909 29.0167 136.675 29.05 136.375 29.05C136.109 29.05 135.892 29.0167 135.725 28.95C135.492 28.85 135.375 28.75 135.375 28.65V28.5V28.35C135.375 28.4167 135.425 28.5 135.525 28.6ZM133.275 27.35C133.442 27.4833 133.725 27.55 134.125 27.55C134.525 27.55 134.809 27.4833 134.975 27.35C135.075 27.25 135.125 27.1667 135.125 27.1V27.25V27.4C135.125 27.5 135.025 27.6 134.825 27.7C134.625 27.7667 134.392 27.8 134.125 27.8C133.859 27.8 133.625 27.7667 133.425 27.7C133.225 27.6 133.125 27.5 133.125 27.4V27.25V27.1C133.125 27.1667 133.175 27.25 133.275 27.35Z" fill="white"/>
</svg>