<?xml version="1.0" encoding="UTF-8"?> <svg xmlns="http://www.w3.org/2000/svg" width="140" height="140"><path d="M0 0h140v140H0V0z" fill="#FD0"></path><path d="M38.74 49.252a5.609 5.609 0 0 1-2.53 5.16v.16c2.24 1 3.53 3 3.53 6 0 4.53-3.69 7-8.64 7H20.67c-1.12 0-1.51-.4-1.51-1.49v-22c0-1.12.39-1.51 1.51-1.51h10.3c4.85 0 7.77 2.39 7.77 6.68zm-9.2-1h-3.42v3.84h3.41c1.4 0 2.14-.52 2.14-1.89 0-1.37-.74-1.97-2.14-1.97zm.66 9.52h-4.08v4.11h4.07c1.52 0 2.25-.6 2.25-2.07 0-1.47-.7-2.06-2.25-2.06zm32.35-6.7c0 3.45-1.4 5.91-3.79 7.24.374.471.702.977.98 1.51l3.16 6c.49.95.25 1.73-.91 1.73h-3.8c-1.86 0-2.67-.46-3.23-1.69l-2.25-4.82a2.602 2.602 0 0 0-2.64-1.79h-.8v6.82c-.03 1.1-.39 1.5-1.53 1.5h-4c-1.13 0-1.51-.39-1.51-1.48v-22c.05-1.1.43-1.52 1.56-1.52h10c5.32 0 8.76 3.06 8.76 8.5zm-9.52-2.32h-3.79v4.64h3.79a2.147 2.147 0 0 0 2.32-2.35 2.1 2.1 0 0 0-2.32-2.29zm33.71 18.82h-3.77c-1.83 0-2.36-.39-2.64-1.48l-.81-2.52h-7.59l-.81 2.53c-.38 1.07-.8 1.47-2.56 1.47h-3.69c-1.09 0-1.3-.5-1-1.45L72 43.842c.35-1.02.81-1.27 1.83-1.27h4c1 0 1.48.25 1.83 1.16l8.08 22.38c.39.95.08 1.46-1 1.46zm-10.87-18.57h-.35a18.87 18.87 0 0 1-.67 4.89l-1.3 4.14h4.39l-1.3-4.11a22.2 22.2 0 0 1-.77-4.92zm15.21-6.43h4.14c1.06 0 1.41.36 1.41 1.41v22.17c0 1.05-.35 1.41-1.41 1.41h-4.14c-1.06 0-1.41-.36-1.41-1.41v-22.14c0-1.05.35-1.44 1.41-1.44zm30.18 1.51v22c0 1.09-.39 1.48-1.47 1.48h-4a1.49 1.49 0 0 1-1.44-.71l-5.39-8.28a24.848 24.848 0 0 1-3.09-7.23h-.28a34.82 34.82 0 0 1 1.15 9.01v5.73c0 1.09-.38 1.49-1.5 1.49h-3.5c-1.13 0-1.51-.39-1.51-1.48v-22c-.05-1.1.33-1.52 1.51-1.52h4.14a1.483 1.483 0 0 1 1.48.71l5.76 9c1.55 2.43 1.83 3.76 3 6.43h.29a24.735 24.735 0 0 1-1.67-8.87v-5.76c0-1.09.34-1.51 1.46-1.51h3.59c1.08 0 1.47.42 1.47 1.51zm-90.05 23.9c6.24 0 10.13 2.5 11.83 6.94.41 1.15.12 1.75-1.09 2.14l-4.34 1.51c-1.25.36-1.74.16-2.18-1.07-.73-1.79-2-2.58-4.22-2.58-3.2 0-4.47 1.35-4.47 4.13v7.22c0 2.78 1.25 4.13 4.45 4.13 2.27 0 3.57-.88 4.22-2.58.48-1.23 1-1.51 2.18-1.07l4.34 1.5c1.21.4 1.5 1 1.09 2.15-1.7 4.44-5.59 6.94-11.83 6.94-7.95 0-12.45-4.25-12.45-11.11v-7.14c0-6.87 4.5-11.11 12.47-11.11zm26.53 22.37c2.8 0 4.21-1.33 4.21-3.72v-16.85c0-1.26.41-1.7 1.71-1.7h4.57c1.3 0 1.74.44 1.74 1.7v16.48c0 6.81-4.21 11.18-12.23 11.18s-12.15-4.37-12.15-11.18v-16.48c0-1.26.41-1.7 1.7-1.7h4.58c1.3 0 1.74.44 1.74 1.7v16.85c0 2.39 1.38 3.72 4.13 3.72zm38.64-14.62a6.489 6.489 0 0 1-2.92 6v.16c2.59 1.13 4.09 3.44 4.09 7 0 5.23-4.25 8-10 8h-12c-1.29 0-1.74-.44-1.74-1.7v-25.41c0-1.3.45-1.74 1.74-1.74h11.88c5.59 0 8.95 2.75 8.95 7.69zm-10.64-1.16h-3.9v4.45h3.9c1.62 0 2.47-.61 2.47-2.18 0-1.57-.82-2.27-2.47-2.27zm.77 11h-4.67v4.7h4.7c1.74 0 2.59-.69 2.59-2.39 0-1.7-.85-2.31-2.59-2.31zm34.41-15.79v3.64c0 1.3-.44 1.75-1.74 1.75h-10.69v3.6h8.54c1.3 0 1.75.45 1.75 1.7v3.65c0 1.29-.45 1.74-1.75 1.74h-8.54v3.89h11.06c1.25 0 1.7.4 1.7 1.7v3.68c0 1.26-.45 1.7-1.7 1.7h-17.34c-1.29 0-1.74-.44-1.74-1.7v-25.35c0-1.26.45-1.7 1.74-1.7h17c1.27 0 1.71.49 1.71 1.7z" fill="#1D1D1B"></path><path d="M123.74 65.122a3.071 3.071 0 1 1-1.095 5.91 3.07 3.07 0 0 1 1.095-5.91zm0 5.78a2.71 2.71 0 1 0-2.72-2.72 2.722 2.722 0 0 0 2.78 2.72zm1.5-3.33a.89.89 0 0 1-.76 1l.63 1.11c.07.08.07.14-.06.14h-.16c-.11 0-.13 0-.17-.08l-.64-1.17h-1.2v1.12c0 .05 0 .08-.09.08h-.18c-.06 0-.09 0-.09-.08v-3c0-.11 0-.14.16-.14h1.45a.999.999 0 0 1 1.11 1.02zm-.38 0a.67.67 0 0 0-.74-.7h-1.24v1.38h1.24c.45.03.74-.19.74-.68z" fill="#1D1D1B"></path></svg> 