<svg width="647" height="142" viewBox="0 0 647 142" fill="none" xmlns="http://www.w3.org/2000/svg">
<path d="M87.8 62.1C87.8 65.7 84.8 68.7 81.2 68.7C77.6 68.7 74.6 65.7 74.6 62.1C74.6 58.5 77.6 55.5 81.2 55.5C84.8 55.5 87.8 58.5 87.8 62.1Z" fill="#009DFF"/>
<path d="M86.6 82.7C86.6 86.2 83.8 89 80.3 89C76.8 89 74 86.2 74 82.7C74 79.2 76.8 76.4 80.3 76.4C83.8 76.4 86.6 79.2 86.6 82.7Z" fill="#009DFF"/>
<path d="M85.9 103.7C85.9 107.2 83.1001 110 79.6001 110C76.1001 110 73.3 107.2 73.3 103.7C73.3 100.2 76.1001 97.4 79.6001 97.4C83.1001 97.4 85.9 100.2 85.9 103.7Z" fill="#009DFF"/>
<path d="M84.9 123.1C84.9 126.4 82.2 129.1 78.9 129.1C75.6 129.1 72.9 126.4 72.9 123.1C72.9 119.8 75.6 117.1 78.9 117.1C82.3 117.2 84.9 119.8 84.9 123.1Z" fill="#009DFF"/>
<path d="M118.9 44.7C118.9 46.9 117.1 48.6 115 48.6C112.9 48.6 111.1 46.8 111.1 44.7C111.1 42.5 112.9 40.8 115 40.8C117.1 40.8 118.9 42.5 118.9 44.7Z" fill="#009DFF"/>
<path d="M116.4 64.2C116.4 66.4 114.6 68.2 112.4 68.2C110.2 68.2 108.4 66.4 108.4 64.2C108.4 62 110.2 60.2 112.4 60.2C114.6 60.2 116.4 62 116.4 64.2Z" fill="#009DFF"/>
<path d="M113.5 84.4C113.5 86.6 111.7 88.4 109.5 88.4C107.3 88.4 105.5 86.6 105.5 84.4C105.5 82.2 107.3 80.4 109.5 80.4C111.7 80.4 113.5 82.2 113.5 84.4Z" fill="#009DFF"/>
<path d="M110.8 103.5C110.8 105.7 109 107.5 106.8 107.5C104.6 107.5 102.8 105.7 102.8 103.5C102.8 101.3 104.6 99.5 106.8 99.5C109 99.5 110.8 101.3 110.8 103.5Z" fill="#009DFF"/>
<path d="M105.1 52.4C105.1 55.3 102.7 57.7 99.8 57.7C96.9 57.7 94.5 55.3 94.5 52.4C94.5 49.5 96.9 47.1 99.8 47.1C102.7 47.1 105.1 49.5 105.1 52.4Z" fill="#009DFF"/>
<path d="M104 72.1C104 75.3 101.4 77.9 98.2 77.9C95 77.9 92.4 75.3 92.4 72.1C92.4 68.9 95 66.3 98.2 66.3C101.4 66.3 104 68.9 104 72.1Z" fill="#009DFF"/>
<path d="M101.5 92.2C101.5 94.9 99.3 97.1 96.6 97.1C93.9 97.1 91.7 94.9 91.7 92.2C91.7 89.5 93.9 87.3 96.6 87.3C99.3 87.3 101.5 89.5 101.5 92.2Z" fill="#009DFF"/>
<path d="M99.7 111.4C99.7 113.9 97.7 115.9 95.2 115.9C92.7 115.9 90.7 113.9 90.7 111.4C90.7 108.9 92.7 106.9 95.2 106.9C97.7 106.9 99.7 109 99.7 111.4Z" fill="#009DFF"/>
<path d="M88.7 42.6C88.7 46.5 85.6 49.6 81.7 49.6C77.8 49.6 74.7 46.5 74.7 42.6C74.7 38.7 77.8 35.6 81.7 35.6C85.6 35.6 88.7 38.7 88.7 42.6Z" fill="#009DFF"/>
<path d="M70.5 51.6C70.5 56.6 66.4 60.7 61.4 60.7C56.4 60.7 52.3 56.6 52.3 51.6C52.3 46.6 56.4 42.5 61.4 42.5C66.4 42.6 70.5 46.6 70.5 51.6Z" fill="#009DFF"/>
<path d="M69.5 71.9C69.5 76.4 65.9 80 61.4 80C56.9 80 53.3 76.4 53.3 71.9C53.3 67.4 56.9 63.8 61.4 63.8C65.9 63.8 69.5 67.4 69.5 71.9Z" fill="#009DFF"/>
<path d="M69.1 93.1C69.1 97.4 65.6 100.8 61.4 100.8C57.1 100.8 53.7 97.3 53.7 93.1C53.7 88.8 57.2 85.4 61.4 85.4C65.6 85.4 69.1 88.8 69.1 93.1Z" fill="#009DFF"/>
<path d="M68.5 114.5C68.5 118.4 65.3 121.6 61.4 121.6C57.5 121.6 54.3 118.4 54.3 114.5C54.3 110.6 57.5 107.4 61.4 107.4C65.3 107.4 68.5 110.6 68.5 114.5Z" fill="#009DFF"/>
<path d="M67.8 134.9C67.8 138.4 64.9 141.3 61.4 141.3C57.9 141.3 55 138.4 55 134.9C55 131.4 57.9 128.5 61.4 128.5C64.9 128.5 67.8 131.4 67.8 134.9Z" fill="#009DFF"/>
<path d="M122.6 24.7C122.6 27.3 120.5 29.4 117.9 29.4C115.3 29.4 113.2 27.3 113.2 24.7C113.2 22.1 115.3 20 117.9 20C120.5 20 122.6 22.1 122.6 24.7Z" fill="#009DFF"/>
<path d="M107.2 32.7C107.2 36.1 104.4 38.9 101 38.9C97.6 38.9 94.8 36.1 94.8 32.7C94.8 29.3 97.6 26.5 101 26.5C104.4 26.5 107.2 29.3 107.2 32.7Z" fill="#009DFF"/>
<path d="M35 62.1C35 65.7 38 68.7 41.6 68.7C45.2 68.7 48.2 65.7 48.2 62.1C48.2 58.5 45.2 55.5 41.6 55.5C38 55.5 35 58.5 35 62.1Z" fill="#009DFF"/>
<path d="M36.1 82.7C36.1 86.2 38.9 89 42.4 89C45.9 89 48.7 86.2 48.7 82.7C48.7 79.2 45.9 76.4 42.4 76.4C38.9 76.4 36.1 79.2 36.1 82.7Z" fill="#009DFF"/>
<path d="M36.8 103.7C36.8 107.2 39.6 110 43.1 110C46.6 110 49.4 107.2 49.4 103.7C49.4 100.2 46.6 97.4 43.1 97.4C39.6 97.4 36.8 100.2 36.8 103.7Z" fill="#009DFF"/>
<path d="M37.8 123.1C37.8 126.4 40.5 129.1 43.8 129.1C47.1 129.1 49.8 126.4 49.8 123.1C49.8 119.8 47.1 117.1 43.8 117.1C40.5 117.2 37.8 119.8 37.8 123.1Z" fill="#009DFF"/>
<path d="M3.80005 44.7C3.80005 46.9 5.60004 48.6 7.70004 48.6C9.90004 48.6 11.6 46.8 11.6 44.7C11.6 42.5 9.80004 40.8 7.70004 40.8C5.60004 40.7 3.80005 42.5 3.80005 44.7Z" fill="#009DFF"/>
<path d="M6.40002 64.2C6.40002 66.4 8.20002 68.2 10.4 68.2C12.6 68.2 14.4 66.4 14.4 64.2C14.4 62 12.6 60.2 10.4 60.2C8.20002 60.2 6.40002 62 6.40002 64.2Z" fill="#009DFF"/>
<path d="M9.30005 84.4C9.30005 86.6 11.1 88.4 13.3 88.4C15.5 88.4 17.3 86.6 17.3 84.4C17.3 82.2 15.5 80.4 13.3 80.4C11.1 80.4 9.30005 82.2 9.30005 84.4Z" fill="#009DFF"/>
<path d="M11.9 103.5C11.9 105.7 13.7 107.5 15.9 107.5C18.1 107.5 19.9 105.7 19.9 103.5C19.9 101.3 18.1 99.5 15.9 99.5C13.7 99.5 11.9 101.3 11.9 103.5Z" fill="#009DFF"/>
<path d="M34.1 42.6C34.1 46.5 37.2 49.6 41.1 49.6C45 49.6 48.1 46.5 48.1 42.6C48.1 38.7 45 35.6 41.1 35.6C37.2 35.6 34.1 38.7 34.1 42.6Z" fill="#009DFF"/>
<path d="M0.200012 24.7C0.200012 27.3 2.30002 29.4 4.90002 29.4C7.50002 29.4 9.60001 27.3 9.60001 24.7C9.60001 22.1 7.50002 20 4.90002 20C2.30002 20 0.200012 22.1 0.200012 24.7Z" fill="#009DFF"/>
<path d="M15.6 32.7C15.6 36.1 18.4 38.9 21.8 38.9C25.2 38.9 28 36.1 28 32.7C28 29.3 25.2 26.5 21.8 26.5C18.4 26.5 15.6 29.3 15.6 32.7Z" fill="#009DFF"/>
<path d="M17.7 52.4C17.7 55.3 20.1 57.7 23 57.7C25.9 57.7 28.3 55.3 28.3 52.4C28.3 49.5 25.9 47.1 23 47.1C20.1 47.1 17.7 49.5 17.7 52.4Z" fill="#009DFF"/>
<path d="M18.8 72.1C18.8 75.3 21.4 77.9 24.6 77.9C27.8 77.9 30.4 75.3 30.4 72.1C30.4 68.9 27.8 66.3 24.6 66.3C21.4 66.3 18.8 68.9 18.8 72.1Z" fill="#009DFF"/>
<path d="M21.3 92.2C21.3 94.9 23.5 97.1 26.2 97.1C28.9 97.1 31.1 94.9 31.1 92.2C31.1 89.5 28.9 87.3 26.2 87.3C23.5 87.3 21.3 89.5 21.3 92.2Z" fill="#009DFF"/>
<path d="M23 111.4C23 113.9 25 115.9 27.5 115.9C30 115.9 32 113.9 32 111.4C32 108.9 30 106.9 27.5 106.9C25.1 106.9 23 109 23 111.4Z" fill="#009DFF"/>
<path d="M84.7 23.6C84.7 26.5 82.4 28.8 79.5 28.8C76.6 28.8 74.3 26.5 74.3 23.6C74.3 20.7 76.6 18.4 79.5 18.4C82.4 18.4 84.7 20.7 84.7 23.6Z" fill="#009DFF"/>
<path d="M66.6 15.6C66.6 18.5 64.2 20.9 61.3 20.9C58.4 20.9 56 18.5 56 15.6C56 12.7 58.4 10.3 61.3 10.3C64.2 10.3 66.6 12.7 66.6 15.6Z" fill="#009DFF"/>
<path d="M65.1 4.09997C65.1 6.19997 63.4 7.89997 61.3 7.89997C59.2 7.89997 57.5 6.19997 57.5 4.09997C57.5 1.99997 59.2 0.299971 61.3 0.299971C63.4 0.199971 65.1 1.89997 65.1 4.09997Z" fill="#009DFF"/>
<path d="M67.7 32.6C67.7 36.1 64.8 39 61.3 39C57.8 39 54.9 36.1 54.9 32.6C54.9 29.1 57.8 26.2 61.3 26.2C64.8 26.2 67.7 29 67.7 32.6Z" fill="#009DFF"/>
<path d="M99.2 16.6C99.2 18.9 97.3 20.8 95 20.8C92.7 20.8 90.8 18.9 90.8 16.6C90.8 14.3 92.7 12.4 95 12.4C97.3 12.4 99.2 14.3 99.2 16.6Z" fill="#009DFF"/>
<path d="M79.1001 9.49998C79.1001 11.4 77.6 12.9 75.7 12.9C73.8 12.9 72.3 11.4 72.3 9.49998C72.3 7.59998 73.8 6.09998 75.7 6.09998C77.6 6.09998 79.1001 7.59998 79.1001 9.49998Z" fill="#009DFF"/>
<path d="M37.8 23.6C37.8 26.5 40.1 28.8 43 28.8C45.9 28.8 48.2 26.5 48.2 23.6C48.2 20.7 45.9 18.4 43 18.4C40.1 18.4 37.8 20.7 37.8 23.6Z" fill="#009DFF"/>
<path d="M23.3 16.6C23.3 18.9 25.2 20.8 27.5 20.8C29.8 20.8 31.7 18.9 31.7 16.6C31.7 14.3 29.8 12.4 27.5 12.4C25.2 12.4 23.3 14.3 23.3 16.6Z" fill="#009DFF"/>
<path d="M43.4 9.49998C43.4 11.4 44.9 12.9 46.8 12.9C48.7 12.9 50.2 11.4 50.2 9.49998C50.2 7.59998 48.7 6.09998 46.8 6.09998C44.9 6.09998 43.4 7.59998 43.4 9.49998Z" fill="#009DFF"/>
<path d="M210 99.9C226.1 99.9 236.6 89.1 236.6 74.1V73.9C236.6 58.9 226.1 47.9 210 47.9H194.9V100H210V99.9ZM181.5 42.3C181.5 38.5 184.5 35.5 188.3 35.5H210C234.1 35.5 250.7 52 250.7 73.6V73.8C250.7 95.3 234.1 112.1 210 112.1H188.2C184.4 112.1 181.4 109.1 181.4 105.3L181.5 42.3Z" fill="#00183C"/>
<path d="M263.1 57.1C263.1 54.2 265.4 51.9 268.4 51.9C271.3 51.9 273.6 54.2 273.6 57.1V107.4C273.6 110.3 271.3 112.6 268.4 112.6C265.4 112.6 263.1 110.3 263.1 107.4V57.1Z" fill="#00183C"/>
<path d="M287.8 57.1C287.8 54.2 290.1 51.9 293.1 51.9C296 51.9 298.3 54.2 298.3 57.1V102.6H325.4C328 102.6 330.2 104.7 330.2 107.4C330.2 110.1 328.1 112.2 325.4 112.2H293.1C290.1 112.2 287.8 109.9 287.8 106.9V57.1Z" fill="#00183C"/>
<path d="M339.6 57.1C339.6 54.2 341.9 51.9 344.9 51.9C347.8 51.9 350.1 54.2 350.1 57.1V107.4C350.1 110.3 347.8 112.6 344.9 112.6C341.9 112.6 339.6 110.3 339.6 107.4V57.1Z" fill="#00183C"/>
<path d="M382.7 48H364.1C360.6 48 357.9 45.2 357.9 41.8C357.9 38.4 360.6 35.6 364.1 35.6H415C418.4 35.6 421.1 38.4 421.1 41.8C421.1 45.2 418.4 48 415 48H396.3V106C396.3 109.7 393.2 112.7 389.5 112.7C385.8 112.7 382.7 109.7 382.7 106V48Z" fill="#00183C"/>
<path d="M453.1 81.9C460.6 81.9 465.4 78 465.4 71.9V71.7C465.4 65.3 460.8 61.8 453 61.8H437.7V81.9H453.1ZM427.2 57.6C427.2 54.6 429.5 52.3 432.5 52.3H453.9C461.4 52.3 467.3 54.5 471.2 58.3C474.4 61.5 476.2 66 476.2 71.2V71.4C476.2 81 470.6 86.8 462.6 89.3L474.1 103.7C475.1 105 475.8 106.1 475.8 107.7C475.8 110.6 473.3 112.6 470.8 112.6C468.4 112.6 466.9 111.5 465.7 109.9L451.2 91.4H437.9V107.5C437.9 110.4 435.6 112.7 432.7 112.7C429.7 112.7 427.4 110.4 427.4 107.5V57.6H427.2Z" fill="#00183C"/>
<path d="M486.2 86.7V57.1C486.2 54.2 488.5 51.9 491.5 51.9C494.4 51.9 496.7 54.2 496.7 57.1V86.3C496.7 97.4 502.4 103.3 511.8 103.3C521.1 103.3 526.8 97.7 526.8 86.7V57.1C526.8 54.2 529.1 51.9 532.1 51.9C535 51.9 537.3 54.2 537.3 57.1V86.2C537.3 104.1 527.2 113 511.6 113C496.2 113 486.2 104.1 486.2 86.7Z" fill="#00183C"/>
<path d="M548.6 105.4C547.4 104.5 546.5 103.1 546.5 101.4C546.5 98.7 548.7 96.5 551.5 96.5C553 96.5 553.9 96.9 554.6 97.4C559.6 101.3 564.9 103.6 571.4 103.6C577.9 103.6 582 100.5 582 96.1V95.9C582 91.6 579.6 89.3 568.5 86.8C555.8 83.7 548.6 80 548.6 68.9V68.7C548.6 58.4 557.1 51.3 569 51.3C576.5 51.3 582.6 53.3 588 56.9C589.2 57.6 590.3 59 590.3 61.1C590.3 63.8 588.1 66 585.3 66C584.3 66 583.4 65.7 582.6 65.2C578 62.2 573.5 60.7 568.8 60.7C562.6 60.7 559.1 63.9 559.1 67.8V68C559.1 72.6 561.8 74.7 573.4 77.4C586.1 80.5 592.5 85 592.5 94.9V95.1C592.5 106.3 583.7 113 571.1 113C562.9 113 555.2 110.4 548.6 105.4Z" fill="#00183C"/>
<path d="M616.4 62H601.9C599.2 62 597 59.8 597 57.1C597 54.4 599.1 52.2 601.9 52.2H641.6C644.3 52.2 646.4 54.4 646.4 57.1C646.4 59.7 644.3 62 641.6 62H627V107.3C627 110.2 624.6 112.5 621.7 112.5C618.8 112.5 616.4 110.2 616.4 107.3V62Z" fill="#00183C"/>
</svg>
