<svg xmlns="http://www.w3.org/2000/svg" width="1000" height="328.56"><path d="M246.11 116.18H129.54v34.59h82.673c-4.084 48.507-44.44 69.193-82.533 69.193-48.736 0-91.264-38.346-91.264-92.092 0-52.356 40.54-92.678 91.37-92.678 39.218 0 62.327 25 62.327 25l24.22-25.08S185.246.5 128.55.5C56.35.503.5 61.437.5 127.253c0 64.494 52.538 127.38 129.89 127.38 68.03 0 117.83-46.603 117.83-115.52 0-14.538-2.112-22.94-2.112-22.94z" fill="#4285f4"/><path d="M341.6 91.13c-47.832 0-82.11 37.394-82.11 81.007 0 44.258 33.248 82.348 82.672 82.348 44.742 0 81.397-34.197 81.397-81.397 0-54.098-42.64-81.96-81.96-81.96zm.476 32.082c23.522 0 45.812 19.017 45.812 49.66 0 29.993-22.195 49.552-45.92 49.552-26.068 0-46.633-20.878-46.633-49.79 0-28.292 20.31-49.422 46.74-49.422z" fill="#ea4335"/><path d="M520.18 91.13c-47.832 0-82.11 37.394-82.11 81.007 0 44.258 33.248 82.348 82.672 82.348 44.742 0 81.397-34.197 81.397-81.397 0-54.098-42.64-81.96-81.96-81.96zm.476 32.082c23.522 0 45.812 19.017 45.812 49.66 0 29.993-22.195 49.552-45.92 49.552-26.068 0-46.633-20.878-46.633-49.79 0-28.292 20.31-49.422 46.74-49.422z" fill="#fbbc05"/><path d="M695.34 91.215c-43.904 0-78.414 38.453-78.414 81.613 0 49.163 40.01 81.765 77.657 81.765 23.28 0 35.657-9.24 44.796-19.847v16.106c0 28.18-17.11 45.055-42.937 45.055-24.95 0-37.463-18.55-41.812-29.078l-31.39 13.122c11.136 23.547 33.554 48.103 73.463 48.103 43.652 0 76.922-27.495 76.922-85.16V96.126H739.38v13.837c-10.53-11.347-24.93-18.745-44.04-18.745zm3.178 32.018c21.525 0 43.628 18.38 43.628 49.768 0 31.905-22.056 49.488-44.104 49.488-23.406 0-45.185-19.005-45.185-49.184 0-31.358 22.62-50.07 45.66-50.07z" fill="#4285f4"/><path d="M925.89 91.02c-41.414 0-76.187 32.95-76.187 81.57 0 51.447 38.76 81.96 80.165 81.96 34.558 0 55.768-18.907 68.426-35.846l-28.235-18.787c-7.328 11.37-19.577 22.484-40.02 22.484-22.96 0-33.52-12.573-40.06-24.753l109.52-45.444-5.686-13.318c-10.58-26.08-35.26-47.86-67.92-47.86zm1.427 31.413c14.923 0 25.663 7.934 30.224 17.447l-73.138 30.57c-3.153-23.667 19.27-48.017 42.915-48.017z" fill="#ea4335"/><path d="M797.49 249.7h35.975V8.95H797.49z" fill="#34a853"/></svg>