<svg id="Layer_1" data-name="Layer 1" xmlns="http://www.w3.org/2000/svg" xmlns:xlink="http://www.w3.org/1999/xlink" viewBox="0 0 929.67 685.6"><defs><style>.cls-1{fill:#34a853;}.cls-2{fill:#4285f4;}.cls-3{fill:#ea4335;}.cls-4{fill:#fbbc05;}.cls-5{fill:#5f6368;}.cls-6{clip-path:url(#clip-path);}.cls-7{clip-path:url(#clip-path-2);}.cls-8{clip-path:url(#clip-path-3);}.cls-9{clip-path:url(#clip-path-4);}</style><clipPath id="clip-path"><path class="cls-1" d="M437.4,460.63a49.27,49.27,0,0,1,0-69.7,49.29,49.29,0,1,1,0,69.7ZM459.49,413a17.85,17.85,0,0,0-4.66,8.06,18.11,18.11,0,0,0,4.67,17.42h0a18.41,18.41,0,0,0,25.47,0A18,18,0,1,0,459.49,413Z"/></clipPath><clipPath id="clip-path-2"><path class="cls-2" d="M589.7,308.32a49.32,49.32,0,1,1,34.84,14.42A49.42,49.42,0,0,1,589.7,308.32Zm22.1-47.59a18.07,18.07,0,1,0,12.75-5.26A18.06,18.06,0,0,0,611.8,260.73Z"/></clipPath><clipPath id="clip-path-3"><path class="cls-3" d="M437.4,156a49.29,49.29,0,0,1,34.84-84.14A49.28,49.28,0,1,1,437.4,156Zm22.09-47.59a18,18,0,1,0,12.75-5.29A18,18,0,0,0,459.49,108.42Z"/></clipPath><clipPath id="clip-path-4"><path class="cls-4" d="M285.06,308.32a49.31,49.31,0,1,1,34.85,14.42A49.42,49.42,0,0,1,285.06,308.32Zm22.1-47.59a18.07,18.07,0,1,0,12.74-5.26A18.06,18.06,0,0,0,307.16,260.73Z"/></clipPath></defs><title>OpenSource_Logo</title><g id="_Group_" data-name="&lt;Group&gt;"><path class="cls-5" d="M430.17,606.51a32.57,32.57,0,0,1-46,0,33.89,33.89,0,0,1,0-46.49,32.44,32.44,0,0,1,45.92.05,33.74,33.74,0,0,1,0,46.44Zm-40-5.26a24.08,24.08,0,0,0,34.05,0q7-7,7-18t-7-18a24.11,24.11,0,0,0-34.05,0q-7,7.05-7,18T390.17,601.25Z"/><path class="cls-5" d="M468.73,616a18.19,18.19,0,0,1-8.79-2.1,14.92,14.92,0,0,1-5.83-5.25h-.35l.35,6v18.91h-8.05v-61.8h7.7v5.95h.35a14.92,14.92,0,0,1,5.83-5.25,18.19,18.19,0,0,1,8.79-2.1,18.89,18.89,0,0,1,14.36,6.56,25,25,0,0,1,0,32.57A18.89,18.89,0,0,1,468.73,616Zm-1.31-7.35a12.8,12.8,0,0,0,9.63-4.25q4-4.24,4-11.24t-4-11.25a13.13,13.13,0,0,0-19.3,0q-4,4.2-4,11.3t4,11.29A12.82,12.82,0,0,0,467.42,608.65Z"/><path class="cls-5" d="M514.78,616q-9.72,0-15.8-6.47t-6.09-16.37a23.6,23.6,0,0,1,5.91-16.11,19.19,19.19,0,0,1,15.1-6.74q9.54,0,15.28,6.21t5.73,16.64l-.09,1.48H501q.35,6.48,4.33,10.25a13.12,13.12,0,0,0,9.32,3.76q8.67,0,11.73-7.35l7.18,3a19.22,19.22,0,0,1-6.91,8.36A20.08,20.08,0,0,1,514.78,616Zm11.55-28a11.41,11.41,0,0,0-3.37-7q-3.11-3.33-9.23-3.33a11.59,11.59,0,0,0-7.75,2.8,14.34,14.34,0,0,0-4.51,7.53Z"/><path class="cls-5" d="M548.83,571.71v5.95h.35a14.3,14.3,0,0,1,5.52-5.21,16,16,0,0,1,8-2.14q8,0,12.17,4.9t4.2,13.13V614.6h-8.06v-25q0-11.91-10.59-11.91a9.93,9.93,0,0,0-8.14,4,14.49,14.49,0,0,0-3.15,9.24V614.6h-8V571.71Z"/><path class="cls-5" d="M626,616a23.36,23.36,0,0,1-13.35-4.46A20.69,20.69,0,0,1,604.15,599l7.36-3a16.74,16.74,0,0,0,5.38,8.71A13.53,13.53,0,0,0,626,608.3a14.63,14.63,0,0,0,9-2.76,8.82,8.82,0,0,0,3.72-7.48A9.6,9.6,0,0,0,635,590q-3.72-2.85-11.77-5.3-8.32-2.62-12.61-6.78a14.17,14.17,0,0,1-4.29-10.64,15.57,15.57,0,0,1,5.34-11.73q5.34-5,13.92-5,8,0,13,4a18.42,18.42,0,0,1,6.47,8.71l-7.35,3.06a10.76,10.76,0,0,0-3.9-5.51,12.2,12.2,0,0,0-8-2.54,12.44,12.44,0,0,0-7.93,2.58,7.88,7.88,0,0,0-3.28,6.43,7.3,7.3,0,0,0,3,5.91,28.9,28.9,0,0,0,8.89,4.34,75.37,75.37,0,0,1,7.74,2.88,36.63,36.63,0,0,1,6.31,3.73,14.79,14.79,0,0,1,4.81,5.77,18.72,18.72,0,0,1,1.62,8,17.29,17.29,0,0,1-1.88,8.14,15.28,15.28,0,0,1-5,5.69A25,25,0,0,1,626,616Z"/><path class="cls-5" d="M658,576.83a22.51,22.51,0,0,1,31.69,0,24.56,24.56,0,0,1,0,32.65,22.51,22.51,0,0,1-31.69,0,24.53,24.53,0,0,1,0-32.65Zm6,27.57a13.53,13.53,0,0,0,19.69,0q4.16-4.24,4.16-11.24t-4.16-11.25a13.53,13.53,0,0,0-19.69,0q-4.17,4.25-4.16,11.25T664,604.4Z"/><path class="cls-5" d="M739.31,614.6h-7.7v-6h-.35a15,15,0,0,1-5.6,5.21,15.86,15.86,0,0,1-8,2.14q-8.06,0-12.21-4.9T701.32,598V571.71h8.06v24.95q0,12,10.59,12a9.87,9.87,0,0,0,8.14-4,14.62,14.62,0,0,0,3.15-9.28V571.71h8Z"/><path class="cls-5" d="M756,614.6h-8V571.71h7.7v7H756a11,11,0,0,1,5-5.78,14.43,14.43,0,0,1,7.39-2.27,15.31,15.31,0,0,1,6,1.05l-3.06,7.53a12.1,12.1,0,0,0-4.29-.62,10.55,10.55,0,0,0-7.75,3.46,12.47,12.47,0,0,0-3.37,9.06Z"/><path class="cls-5" d="M795.6,616a20.91,20.91,0,0,1-15.84-6.52,24.53,24.53,0,0,1,0-32.65,20.91,20.91,0,0,1,15.84-6.52,19.53,19.53,0,0,1,11.91,3.5,20.48,20.48,0,0,1,6.91,8.84l-7.35,3.06q-3.33-8-12-8.05a12.51,12.51,0,0,0-9.41,4.38,17.21,17.21,0,0,0,0,22.23,12.51,12.51,0,0,0,9.41,4.38q9,0,12.44-8l7.17,3.06a20.59,20.59,0,0,1-7,8.8A19.92,19.92,0,0,1,795.6,616Z"/><path class="cls-5" d="M839.54,616q-9.7,0-15.8-6.47t-6.08-16.37a23.6,23.6,0,0,1,5.91-16.11,19.19,19.19,0,0,1,15.1-6.74q9.54,0,15.27,6.21t5.74,16.64l-.09,1.48H825.71q.36,6.48,4.34,10.25a13.12,13.12,0,0,0,9.32,3.76q8.67,0,11.73-7.35l7.18,3a19.17,19.17,0,0,1-6.92,8.36A20.08,20.08,0,0,1,839.54,616Zm11.56-28a11.46,11.46,0,0,0-3.37-7q-3.11-3.33-9.24-3.33a11.59,11.59,0,0,0-7.74,2.8,14.34,14.34,0,0,0-4.51,7.53Z"/></g><path class="cls-5" d="M139.72,583c0,7.35-1.88,16.45-8.36,22.93-6.3,6.57-14.36,10.07-25,10.07C86.54,616,69.9,599.9,69.9,580.12s16.64-35.9,36.42-35.9a34.16,34.16,0,0,1,24.6,9.9L124,561a25,25,0,0,0-17.69-7,26.09,26.09,0,0,0,0,52.18c9.37,0,14.71-3.77,18.12-7.18,2.8-2.8,4.64-6.74,5.34-12.26H106.45V577h32.9A39.46,39.46,0,0,1,139.72,583Z"/><path class="cls-5" d="M189.53,592.9a23.11,23.11,0,1,1-23.11-23.11A22.79,22.79,0,0,1,189.53,592.9Zm-10.11,0c0-8.32-6-14-13-14s-13,5.69-13,14,6,14,13,14S179.42,601.13,179.42,592.9Z"/><path class="cls-5" d="M239.43,592.9a23.11,23.11,0,1,1-23.11-23.11A22.79,22.79,0,0,1,239.43,592.9Zm-10.12,0c0-8.32-6-14-13-14s-13,5.69-13,14,6,14,13,14S229.31,601.13,229.31,592.9Z"/><path class="cls-5" d="M287.54,571.19v41.49c0,17.08-10.07,24.08-22,24.08a22,22,0,0,1-20.48-13.66l8.84-3.67c1.58,3.76,5.43,8.23,11.64,8.23,7.62,0,12.35-4.73,12.35-13.57v-3.33h-.35A15.78,15.78,0,0,1,265.39,616c-11.56,0-22.15-10.07-22.15-23s10.59-23.2,22.15-23.2A16,16,0,0,1,277.56,575h.35v-3.76ZM278.61,593c0-8.15-5.43-14.1-12.35-14.1s-12.87,6-12.87,14.1,5.87,13.92,12.87,13.92S278.61,601,278.61,593Z"/><path class="cls-5" d="M304,546.67v67.94H293.88V546.67Z"/><path class="cls-5" d="M342.38,600.52l7.88,5.25A23,23,0,0,1,331,616c-13.13,0-22.94-10.15-22.94-23.11,0-13.75,9.89-23.11,21.8-23.11s17.86,9.54,19.79,14.7l1.05,2.63L319.79,599.9c2.37,4.64,6,7,11.21,7S339.75,604.37,342.38,600.52Zm-24.25-8.32,20.66-8.58c-1.14-2.89-4.55-4.9-8.58-4.9A12.68,12.68,0,0,0,318.13,592.2Z"/><path class="cls-1" d="M437.39,460.63a49.27,49.27,0,1,1,34.85,14.44A49.45,49.45,0,0,1,437.39,460.63ZM459.5,413a18,18,0,0,0,0,25.49,18.44,18.44,0,0,0,25.48,0A18,18,0,0,0,459.5,413Z"/><path class="cls-1" d="M437.4,460.63a49.27,49.27,0,0,1,0-69.7,49.29,49.29,0,1,1,0,69.7ZM459.49,413a17.85,17.85,0,0,0-4.66,8.06,18.11,18.11,0,0,0,4.67,17.42h0a18.41,18.41,0,0,0,25.47,0A18,18,0,1,0,459.49,413Z"/><g class="cls-6"><path class="cls-1" d="M472.24,478.19a49.28,49.28,0,1,0-47.61-62,49.44,49.44,0,0,0,12.77,47.59A48.87,48.87,0,0,0,472.24,478.19Z"/></g><rect class="cls-1" x="471.68" y="355.44" width="110.54" height="31.26" transform="translate(-108.04 481.29) rotate(-45)"/><path class="cls-2" d="M589.7,308.33h0a49.26,49.26,0,0,1,0-69.7,49.26,49.26,0,1,1,0,69.7Zm22.1-47.58a18,18,0,1,0,12.75-5.29A18,18,0,0,0,611.8,260.75Z"/><path class="cls-2" d="M589.7,308.32a49.32,49.32,0,1,1,34.84,14.42A49.42,49.42,0,0,1,589.7,308.32Zm22.1-47.59a18.07,18.07,0,1,0,12.75-5.26A18.06,18.06,0,0,0,611.8,260.73Z"/><g class="cls-7"><path class="cls-2" d="M624.54,325.86a49.25,49.25,0,1,0-34.84-14.41A49.13,49.13,0,0,0,624.54,325.86Z"/></g><rect class="cls-2" x="554.21" y="163.5" width="31.26" height="110.54" transform="translate(12.21 467.01) rotate(-45)"/><path class="cls-3" d="M437.39,156h0a49.26,49.26,0,0,1,0-69.69,49.25,49.25,0,1,1,0,69.7Zm22.12-47.6a18,18,0,1,0,12.73-5.28A18,18,0,0,0,459.51,108.41Z"/><path class="cls-3" d="M437.4,156a49.29,49.29,0,0,1,34.84-84.14A49.28,49.28,0,1,1,437.4,156Zm22.09-47.59a18,18,0,1,0,12.75-5.29A18,18,0,0,0,459.49,108.42Z"/><g class="cls-8"><path class="cls-3" d="M472.24,173.54a49.26,49.26,0,1,0-34.84-14.41A49.16,49.16,0,0,0,472.24,173.54Z"/></g><rect class="cls-3" x="362.26" y="160.24" width="110.54" height="31.26" transform="translate(-2.07 346.75) rotate(-45)"/><path class="cls-4" d="M285.06,308.34h0a49.28,49.28,0,0,1,0-69.7,49.26,49.26,0,1,1,0,69.71Zm22.1-47.6a17.9,17.9,0,0,0-4.66,8.06,18.1,18.1,0,0,0,4.66,17.42h0a18,18,0,1,0,25.48-25.48,18,18,0,0,0-25.48,0Z"/><path class="cls-4" d="M285.06,308.32a49.31,49.31,0,1,1,34.85,14.42A49.42,49.42,0,0,1,285.06,308.32Zm22.1-47.59a18.07,18.07,0,1,0,12.74-5.26A18.06,18.06,0,0,0,307.16,260.73Z"/><g class="cls-9"><path class="cls-4" d="M319.91,325.86a49.25,49.25,0,1,0-34.85-14.41A49.1,49.1,0,0,0,319.91,325.86Z"/></g><rect class="cls-4" x="358.99" y="272.92" width="31.26" height="110.54" transform="translate(-122.34 361.02) rotate(-45)"/></svg>