<svg width="851" height="209" viewBox="0 0 851 209" fill="none" xmlns="http://www.w3.org/2000/svg">
<path d="M241.847 15.227V173.896C241.847 182.731 234.254 189.726 225.458 188.99L128.053 181.443C116.572 180.523 105.09 183.1 95.0905 188.714L61.4801 207.581C58.5172 209.238 55.2766 205.832 57.1284 202.979L73.9799 177.301L89.6277 153.372C91.2943 150.795 94.535 149.599 97.4979 150.519C122.034 158.434 149.812 149.323 164.533 126.866C182.126 99.8996 174.441 63.8217 147.404 46.335C120.275 28.7562 83.9796 36.4872 66.3874 63.3616C51.6655 85.9102 54.6284 114.809 71.7577 133.861C73.7947 136.162 74.0725 139.567 72.3132 142.144L52.4989 172.516C51.2952 174.264 49.2582 175.277 47.1286 175.185L10.8331 172.423C4.62953 171.963 0 166.993 0 160.919V28.112C0 22.1297 4.62953 17.0677 10.7405 16.6076L225.458 0.0411962C234.254 -0.603052 241.847 6.39164 241.847 15.227ZM115.275 55.3545C93.1461 55.3545 75.1835 73.2093 75.1835 95.2058C75.1835 105.882 79.4427 115.638 86.387 122.816C90.6462 127.142 95.8312 130.547 101.664 132.664C105.924 134.229 110.461 135.057 115.275 135.057C137.404 135.057 155.367 117.202 155.367 95.2058C155.367 73.1173 137.404 55.3545 115.275 55.3545Z" fill="url(#paint0_linear_2168_61)"/>
<path d="M326.567 18.8171C326.567 24.0631 324.9 28.2047 321.475 31.1498C318.049 34.187 314.067 35.6596 309.438 35.6596C304.808 35.6596 300.827 34.187 297.401 31.1498C293.975 28.1127 292.309 24.0631 292.309 18.8171C292.309 13.5711 293.975 9.42948 297.401 6.48434C300.827 3.44718 304.808 1.97461 309.438 1.97461C314.067 1.97461 318.049 3.44718 321.475 6.48434C324.9 9.42948 326.567 13.5711 326.567 18.8171ZM323.882 148.587H295.179V47.9003H323.882V148.587Z" fill="#383838"/>
<path d="M342.77 51.3041C347.678 49.9236 353.974 48.6351 361.659 47.3466C369.344 46.1501 377.492 45.5059 385.918 45.5059C394.528 45.5059 401.658 46.6103 407.399 48.8191C413.139 51.028 417.676 54.2492 421.009 58.2988C424.343 62.3483 426.75 67.2262 428.139 72.8404C429.528 78.4545 430.268 84.7129 430.268 91.6156V148.493H401.565V95.1129C401.565 85.9094 400.362 79.3749 397.862 75.6014C395.454 71.7359 390.825 69.8952 384.158 69.8952C382.121 69.8952 379.899 69.9873 377.584 70.1713C375.27 70.3554 373.233 70.6315 371.381 70.8156V148.586H342.678V51.3041H342.77Z" fill="#383838"/>
<path d="M476.749 84.0693C479.527 81.0322 482.49 77.8109 485.545 74.5897C488.601 71.2764 491.471 68.0552 494.341 64.7419C497.119 61.5207 499.804 58.3915 502.304 55.5384C504.804 52.5932 506.934 50.1083 508.785 47.8994H542.951C536.1 55.6304 529.526 63.0853 523.044 70.172C516.563 77.2587 509.434 84.5295 501.749 92.0764C505.637 95.5738 509.619 99.6233 513.693 104.409C517.767 109.195 521.748 114.165 525.637 119.319C529.526 124.473 533.044 129.535 536.192 134.689C539.433 139.843 542.118 144.445 544.248 148.678H511.285C509.248 145.365 506.934 141.683 504.249 137.634C501.656 133.584 498.878 129.535 495.915 125.577C492.952 121.528 489.897 117.662 486.564 113.981C483.323 110.299 480.082 107.17 476.842 104.593V148.77H448.139V4.64279L476.842 0.0410156V84.0693H476.749Z" fill="#383838"/>
<path d="M542.025 98.9791C542.025 90.0517 543.414 82.2287 546.192 75.5101C548.97 68.7915 552.581 63.2694 557.118 58.7597C561.655 54.2499 566.747 50.9367 572.58 48.6358C578.413 46.3349 584.432 45.2305 590.543 45.2305C604.894 45.2305 616.283 49.6482 624.616 58.2995C632.949 67.0429 637.116 79.9278 637.116 96.8623C637.116 98.519 637.023 100.36 636.931 102.292C636.838 104.317 636.653 106.066 636.56 107.538H571.469C572.117 113.429 574.895 118.03 579.71 121.528C584.617 124.933 591.098 126.682 599.339 126.682C604.617 126.682 609.802 126.222 614.802 125.209C619.894 124.289 623.968 123.092 627.209 121.712L631.097 144.905C629.523 145.641 627.486 146.469 624.894 147.206C622.301 147.942 619.431 148.678 616.283 149.23C613.135 149.783 609.802 150.243 606.191 150.703C602.58 151.071 598.969 151.255 595.45 151.255C586.376 151.255 578.413 149.875 571.654 147.206C564.895 144.537 559.34 140.855 554.895 136.161C550.451 131.468 547.21 125.946 545.081 119.595C543.136 113.337 542.025 106.434 542.025 98.9791ZM609.431 88.119C609.339 85.726 608.876 83.3331 608.135 81.0322C607.394 78.7314 606.376 76.7066 604.894 74.8659C603.413 73.1172 601.561 71.6446 599.339 70.4482C597.117 69.3437 594.339 68.6995 591.006 68.6995C587.765 68.6995 585.08 69.2517 582.765 70.3561C580.45 71.4606 578.506 72.8411 577.025 74.6818C575.451 76.4305 574.34 78.5473 573.506 80.9402C572.673 83.3331 572.025 85.726 571.654 88.119H609.431Z" fill="#383838"/>
<path d="M647.579 98.9791C647.579 90.0517 648.968 82.2287 651.746 75.5101C654.523 68.7915 658.134 63.2694 662.671 58.7597C667.208 54.2499 672.301 50.9367 678.134 48.6358C683.967 46.3349 689.986 45.2305 696.097 45.2305C710.448 45.2305 721.837 49.6482 730.17 58.2995C738.503 67.0429 742.67 79.9278 742.67 96.8623C742.67 98.519 742.577 100.36 742.484 102.292C742.392 104.317 742.207 106.066 742.114 107.538H677.023C677.671 113.429 680.449 118.03 685.263 121.528C690.171 124.933 696.652 126.682 704.893 126.682C710.17 126.682 715.355 126.222 720.355 125.209C725.448 124.289 729.522 123.092 732.762 121.712L736.651 144.905C735.077 145.641 733.04 146.469 730.448 147.206C727.855 147.942 724.985 148.678 721.837 149.23C718.689 149.783 715.355 150.243 711.744 150.703C708.133 151.071 704.522 151.255 701.004 151.255C691.93 151.255 683.967 149.875 677.208 147.206C670.449 144.537 664.894 140.855 660.449 136.161C656.005 131.468 652.764 125.946 650.635 119.595C648.69 113.337 647.579 106.434 647.579 98.9791ZM714.985 88.119C714.892 85.726 714.429 83.3331 713.689 81.0322C712.948 78.7314 711.93 76.7066 710.448 74.8659C708.967 73.1172 707.115 71.6446 704.893 70.4482C702.67 69.3437 699.893 68.6995 696.559 68.6995C693.319 68.6995 690.634 69.2517 688.319 70.3561C686.004 71.4606 684.06 72.8411 682.578 74.6818C681.004 76.4305 679.893 78.5473 679.06 80.9402C678.227 83.3331 677.578 85.726 677.208 88.119H714.985Z" fill="#383838"/>
<path d="M851 98.2421C851 106.065 850.074 113.152 848.13 119.502C846.186 125.853 843.408 131.375 839.612 135.977C835.908 140.578 831.279 144.168 825.723 146.653C820.168 149.23 813.872 150.518 806.65 150.518C802.668 150.518 798.964 150.15 795.446 149.414C792.02 148.678 788.594 147.573 785.446 146.193V184.111L756.743 188.989V51.3041C759.336 50.5678 762.299 49.8315 765.632 49.0952C768.965 48.359 772.484 47.8067 776.095 47.2545C779.798 46.7023 783.502 46.3342 787.298 45.966C791.094 45.6899 794.705 45.5059 798.224 45.5059C806.557 45.5059 814.057 46.7944 820.538 49.2793C827.112 51.7643 832.575 55.2616 837.112 59.7713C841.649 64.2811 845.075 69.8032 847.389 76.3377C849.797 82.9643 851 90.2351 851 98.2421ZM821.742 98.9784C821.742 90.143 819.705 83.1483 815.816 77.8103C811.835 72.4722 805.909 69.8952 798.131 69.8952C795.539 69.8952 793.224 69.9873 791.002 70.1713C788.78 70.3554 787.02 70.6315 785.631 70.8156V122.355C787.391 123.46 789.798 124.472 792.668 125.209C795.539 125.945 798.502 126.313 801.464 126.313C814.89 126.405 821.742 117.293 821.742 98.9784Z" fill="#383838"/>
<defs>
<linearGradient id="paint0_linear_2168_61" x1="12.0082" y1="175.009" x2="181.339" y2="60.0828" gradientUnits="userSpaceOnUse">
<stop stop-color="#00BFEA"/>
<stop offset="1" stop-color="#26D6FF"/>
</linearGradient>
</defs>
</svg>
