<?xml version="1.0" encoding="UTF-8"?>
<svg width="538px" height="145px" viewBox="0 0 538 145" version="1.1" xmlns="http://www.w3.org/2000/svg" xmlns:xlink="http://www.w3.org/1999/xlink">
    <!-- Generator: Sketch 52 (66869) - http://www.bohemiancoding.com/sketch -->
    <title>Page 1@3x</title>
    <desc>Created with Sketch.</desc>
    <defs>
        <polygon id="path-1" points="538.713488 144.740177 538.713488 0.261665116 0.967497674 0.261665116 0.967497674 144.740177 538.713488 144.740177"></polygon>
    </defs>
    <g id="Logo" stroke="none" stroke-width="1" fill="none" fill-rule="evenodd">
        <g id="lunchr_default" transform="translate(-243.000000, -143.000000)">
            <g id="Page-1" transform="translate(242.000000, 142.000000)">
                <g id="Group-3" transform="translate(0.186047, 0.796902)">
                    <mask id="mask-2" fill="white">
                        <use xlink:href="#path-1"></use>
                    </mask>
                    <g id="Clip-2"></g>
                    <path d="M39.5732651,144.008456 C31.6034977,143.884363 25.1442419,143.032828 20.1783814,141.449572 C15.2125209,139.864177 11.2907535,137.6412 8.41093953,134.772084 C5.53112558,131.907247 3.56703256,128.434781 2.5272186,124.350409 C1.48740465,120.261758 0.967497674,115.661758 0.967497674,110.541851 L0.967497674,4.6519907 L28.3599628,0.263804651 L28.3599628,105.053944 C28.3599628,107.497293 28.5439628,109.686037 28.9119628,111.635153 C29.2778233,113.590688 29.9838698,115.235991 31.0236837,116.57534 C32.0656372,117.918967 33.5654512,119.016549 35.5295442,119.868084 C37.4872186,120.723898 40.1231256,121.271619 43.4351256,121.513386 L39.5732651,144.008456 Z M141.609823,138.888549 C136.949916,140.232177 130.944242,141.479526 123.59066,142.637014 C116.239219,143.794502 108.515498,144.370037 100.430195,144.370037 C92.2165209,144.370037 85.3785674,143.278874 79.9270326,141.081572 C74.4733581,138.888549 70.1536372,135.807619 66.9657302,131.8452 C63.7778233,127.88706 61.5120558,123.160828 60.1662884,117.672921 C58.8162419,112.187153 58.1422884,106.153665 58.1422884,99.5681767 L58.1422884,45.9856651 L85.5347535,45.9856651 L85.5347535,96.273293 C85.5347535,105.053944 86.6986605,111.393386 89.028614,115.295898 C91.3542884,119.198409 95.7082419,121.145386 102.081916,121.145386 C104.039591,121.145386 106.125637,121.055526 108.331498,120.873665 C110.539498,120.689665 112.497172,120.477851 114.215219,120.233944 L114.215219,45.9856651 L141.609823,45.9856651 L141.609823,138.888549 Z M167.348428,49.2762698 C172.001916,47.9347814 178.00973,46.6874326 185.361172,45.5278047 C192.716893,44.3681767 200.438474,43.7905023 208.528056,43.7905023 C216.737451,43.7905023 223.568986,44.8581302 229.0248,46.9912465 C234.480614,49.1243628 238.798195,52.141107 241.983963,56.0414791 C245.17187,59.9461302 247.439777,64.5782233 248.791963,69.9398977 C250.13773,75.3079907 250.809544,81.2815721 250.809544,87.8649209 L250.809544,142.179153 L223.417079,142.179153 L223.417079,91.153386 C223.417079,82.377014 222.253172,76.1595256 219.923219,72.5030605 C217.593265,68.8444558 213.24573,67.017293 206.869916,67.017293 C204.907963,67.017293 202.830474,67.109293 200.618195,67.2911535 C198.412335,67.473014 196.45466,67.6869674 194.734474,67.9287349 L194.734474,142.179153 L167.348428,142.179153 L167.348428,49.2762698 Z M271.032428,94.0824093 C271.032428,87.1332 272.164242,80.5798047 274.432149,74.4200837 C276.700056,68.2667814 279.977823,62.9008279 284.27187,58.3286419 C288.559498,53.7564558 293.767126,50.1299442 299.899033,47.4469674 C306.022381,44.7682698 313.012242,43.4225023 320.855777,43.4225023 C326.001358,43.4225023 330.719033,43.8825023 335.013079,44.7939442 C339.300707,45.7096651 343.47066,47.0190605 347.514381,48.7285488 L341.81466,70.4897581 C339.2408,69.5162698 336.420893,68.6625953 333.357079,67.9287349 C330.293265,67.1991535 326.859312,66.8311535 323.061637,66.8311535 C314.972056,66.8311535 308.934288,69.3322698 304.950474,74.3302233 C300.97094,79.3303163 298.974753,85.9158047 298.974753,94.0824093 C298.974753,102.738967 300.846847,109.44213 304.584614,114.198316 C308.320242,118.954502 314.847963,121.331526 324.163498,121.331526 C327.475498,121.331526 331.027126,121.027712 334.829079,120.415805 C338.626753,119.808177 342.120614,118.832549 345.304242,117.49106 L349.166102,139.799991 C345.978195,141.145758 341.99866,142.298967 337.21894,143.278874 C332.437079,144.250223 327.165265,144.740177 321.409916,144.740177 C312.584335,144.740177 304.982567,143.428642 298.608893,140.807712 C292.237358,138.188921 286.995498,134.622316 282.89187,130.110037 C278.781823,125.599898 275.782195,120.261758 273.880149,114.106316 C271.980242,107.950874 271.032428,101.277665 271.032428,94.0824093 L271.032428,94.0824093 Z M367.551126,142.179153 L367.551126,4.65413023 L394.94573,0.261665116 L394.94573,46.349386 C396.78787,45.7417581 399.141358,45.1598047 402.021172,44.6120837 C404.903126,44.0643628 407.693079,43.7905023 410.388893,43.7905023 C418.230288,43.7905023 424.758009,44.8581302 429.967777,46.9912465 C435.177544,49.1222233 439.343219,52.141107 442.471219,56.0414791 C445.59494,59.9439907 447.8008,64.5782233 449.09094,69.9398977 C450.3768,75.3079907 451.0208,81.2815721 451.0208,87.8649209 L451.0208,142.179153 L423.626195,142.179153 L423.626195,91.153386 C423.626195,82.377014 422.494381,76.1595256 420.224335,72.5009209 C417.956428,68.8465953 413.75866,67.0151535 407.628893,67.0151535 C405.176986,67.0151535 402.879126,67.229107 400.737451,67.6548744 C398.591498,68.0849209 396.659498,68.5385023 394.94573,69.0284558 L394.94573,142.179153 L367.551126,142.179153 Z M534.116056,70.1260372 C531.662009,69.5184093 528.780056,68.8744093 525.472335,68.2047349 C522.164614,67.5350605 518.608707,67.201293 514.811033,67.201293 C513.092986,67.201293 511.043312,67.3532 508.653451,67.657014 C506.263591,67.9608279 504.451405,68.2945953 503.227591,68.6625953 L503.227591,142.179153 L475.832986,142.179153 L475.832986,51.1034326 C480.7368,49.3982233 486.524242,47.785014 493.210288,46.257386 C499.887777,44.7361767 507.333358,43.9745023 515.547033,43.9745023 C517.016893,43.9745023 518.792707,44.0643628 520.878753,44.2483628 C522.960521,44.4302233 525.044428,44.6741302 527.130474,44.9779442 C529.212242,45.2838977 531.294009,45.6497581 533.382195,46.0755256 C535.461823,46.5055721 537.237637,47.0212 538.713916,47.6309674 L534.116056,70.1260372 Z" id="Fill-1" fill="#1A2531" mask="url(#mask-2)"></path>
                </g>
            </g>
        </g>
    </g>
</svg>