<?xml version="1.0" encoding="UTF-8"?>
<!-- Generator: Adobe Illustrator 22.1.0, SVG Export Plug-In . SVG Version: 6.00 Build 0)  -->
<svg version="1.1" xmlns="http://www.w3.org/2000/svg" xmlns:xlink="http://www.w3.org/1999/xlink" x="0px" y="0px" viewBox="0 0 707.1 181" style="enable-background:new 0 0 707.1 181;" xml:space="preserve">
<style type="text/css">
	.st0{fill:url(#SVGID_1_);}
	.st1{fill:url(#SVGID_2_);}
	.st2{fill:#000545;}
	.st3{display:none;}
	.st4{display:inline;}
	.st5{fill:url(#SVGID_3_);}
	.st6{fill:url(#SVGID_4_);}
</style>
<g id="LOGOTYPE">
	<g>
		<g id="isotype_envol_2_">
			<linearGradient id="SVGID_1_" gradientUnits="userSpaceOnUse" x1="68.0833" y1="146.3997" x2="127.6562" y2="87.4474">
				<stop offset="0.2136" style="stop-color:#5233FF"/>
				<stop offset="0.9996" style="stop-color:#06BFD3"/>
			</linearGradient>
			<polygon class="st0" points="53.6,142.9 72.6,147.2 130.8,114 140.4,82.6 133.2,52.4    "/>
			<linearGradient id="SVGID_2_" gradientUnits="userSpaceOnUse" x1="58.9446" y1="59.2096" x2="101.2729" y2="129.935">
				<stop offset="0" style="stop-color:#47CC6F"/>
				<stop offset="0.2882" style="stop-color:#4CD281;stop-opacity:0.9424"/>
				<stop offset="0.8667" style="stop-color:#58E2B1;stop-opacity:0.8267"/>
				<stop offset="1" style="stop-color:#5BE6BD;stop-opacity:0.8"/>
			</linearGradient>
			<polygon class="st1" points="69.1,33.8 130.8,114 72.6,147.2 44,96.4 44,68    "/>
		</g>
		<g>
			<path class="st2" d="M237.6,71.9c5.3,2.8,9.5,6.8,12.5,12.1c3,5.3,4.5,11.4,4.5,18.4c0,7-1.5,13.2-4.5,18.4     c-3,5.3-7.2,9.3-12.5,12.1c-5.3,2.8-11.3,4.2-18,4.2c-6.7,0-12.7-1.4-18.1-4.2c-5.3-2.8-9.5-6.8-12.5-12.1     c-3-5.3-4.5-11.4-4.5-18.4c0-7,1.5-13.2,4.5-18.4c3-5.3,7.2-9.3,12.5-12.1c5.3-2.8,11.4-4.2,18.1-4.2     C226.3,67.7,232.3,69.1,237.6,71.9z M209.6,90c-2.7,2.9-4.1,7-4.1,12.4c0,5.4,1.4,9.5,4.1,12.4c2.7,2.8,6,4.2,10,4.2     c4,0,7.3-1.4,9.9-4.2c2.7-2.8,4-6.9,4-12.4c0-5.4-1.3-9.6-4-12.4c-2.7-2.9-6-4.3-9.9-4.3C215.6,85.7,212.3,87.1,209.6,90z"/>
			<path class="st2" d="M317.9,74.9c5.9,4.8,9.6,11.4,11.2,19.8h-21.9c-0.6-2.9-2-5.2-4-6.8c-2-1.6-4.6-2.4-7.6-2.4     c-3.6,0-6.6,1.4-9,4.3c-2.3,2.9-3.5,7.1-3.5,12.5c0,5.5,1.2,9.7,3.5,12.5c2.3,2.9,5.3,4.3,9,4.3c3.1,0,5.6-0.8,7.6-2.4     c2-1.6,3.4-3.9,4-6.8H329c-1.5,8.4-5.3,15-11.2,19.8c-5.9,4.8-13.2,7.2-21.9,7.2c-6.6,0-12.5-1.4-17.6-4.2     c-5.1-2.8-9.2-6.8-12.1-12.1c-2.9-5.3-4.4-11.4-4.4-18.4c0-7.1,1.4-13.3,4.3-18.5c2.9-5.2,6.9-9.2,12.1-12     c5.2-2.8,11.1-4.2,17.7-4.2C304.7,67.7,312,70.1,317.9,74.9z"/>
			<path class="st2" d="M379.8,118.4v17.8h-9.3c-7.9,0-14.1-2-18.5-5.9c-4.4-3.9-6.6-10.4-6.6-19.5V86h-9.1V68.6h9.1V52h20.7v16.6     h13.6V86h-13.6v25.2c0,2.7,0.5,4.5,1.6,5.6c1.1,1.1,2.9,1.6,5.5,1.6H379.8z"/>
			<path class="st2" d="M440.4,71.9c5.3,2.8,9.5,6.8,12.5,12.1c3,5.3,4.5,11.4,4.5,18.4c0,7-1.5,13.2-4.5,18.4     c-3,5.3-7.2,9.3-12.5,12.1c-5.3,2.8-11.3,4.2-18,4.2c-6.7,0-12.7-1.4-18.1-4.2c-5.3-2.8-9.5-6.8-12.5-12.1     c-3-5.3-4.5-11.4-4.5-18.4c0-7,1.5-13.2,4.5-18.4c3-5.3,7.2-9.3,12.5-12.1c5.3-2.8,11.4-4.2,18.1-4.2     C429.1,67.7,435.1,69.1,440.4,71.9z M412.4,90c-2.7,2.9-4.1,7-4.1,12.4c0,5.4,1.4,9.5,4.1,12.4c2.7,2.8,6,4.2,10,4.2     c4,0,7.3-1.4,9.9-4.2c2.7-2.8,4-6.9,4-12.4c0-5.4-1.3-9.6-4-12.4c-2.7-2.9-6-4.3-9.9-4.3C418.4,85.7,415.1,87.1,412.4,90z"/>
			<path class="st2" d="M522.8,71.9c4.4,2.8,7.9,6.8,10.4,12c2.5,5.2,3.8,11.4,3.8,18.5c0,7-1.3,13.2-3.8,18.4     c-2.5,5.3-6,9.3-10.4,12.1c-4.4,2.8-9.4,4.2-15,4.2c-5.2,0-9.6-1.2-13.3-3.5c-3.7-2.3-6.4-5.5-8.1-9.6v12.2h-20.7V46.5h20.7v34.3     c1.7-4,4.4-7.2,8.1-9.6c3.7-2.3,8.2-3.5,13.3-3.5C513.4,67.7,518.4,69.1,522.8,71.9z M490.4,90.3c-2.8,3-4.2,7-4.2,12.1     c0,5,1.4,9,4.2,12c2.8,3,6.4,4.5,10.7,4.5c4.4,0,8-1.5,10.7-4.4c2.7-2.9,4.1-6.9,4.1-12.1c0-5.2-1.4-9.2-4.1-12.1     c-2.7-2.9-6.3-4.4-10.7-4.4C496.8,85.9,493.2,87.4,490.4,90.3z"/>
			<path class="st2" d="M654.6,71.5c4.1-2.4,8.5-3.6,13.3-3.6V90h-5.9c-5.5,0-9.8,1.2-12.8,3.5c-3,2.3-4.5,6.3-4.5,11.9v30.8h-20.7     V68.6h20.7v12.7C647.2,77.2,650.5,73.9,654.6,71.5z"/>
			<path class="st2" d="M579,137.2c-9.9,0-18-3.2-24.3-9.6c-6.3-6.4-9.5-14.8-9.5-25.4s3.1-18.9,9.4-25.2c6.3-6.2,14.4-9.4,24.4-9.4     c10,0,18.3,3.1,24.8,9.2c6.6,6.2,9.9,14.7,9.9,25.7c0,2.4-0.2,4.5-0.5,6.6h-46.7c0.4,3,1.7,5.5,4,7.4s4.7,2.9,7.4,2.9     c2.6,0,4.6-0.3,5.9-0.8c1.3-0.5,2.3-1.1,2.9-1.6c0.6-0.5,1.4-1.4,2.4-2.6h22.5c-1.9,6.8-5.8,12.3-11.7,16.5     C594,135.1,587.1,137.2,579,137.2z M587.9,88.5c-2.4-2-5.3-3-8.6-3c-3.3,0-6.1,1-8.4,3c-2.3,2-3.7,4.6-4.3,7.7H592     C591.7,93,590.3,90.5,587.9,88.5z"/>
		</g>
	</g>
</g>
<g id="try_outs" class="st3">
	<g class="st4">
		<path class="st2" d="M-661.8-765.7c5.2,2.8,9.4,6.7,12.4,11.9c3,5.2,4.5,11.3,4.5,18.2c0,7-1.5,13-4.5,18.2    c-3,5.2-7.1,9.2-12.4,11.9c-5.2,2.8-11.2,4.1-17.8,4.1c-6.6,0-12.6-1.4-17.9-4.1c-5.3-2.8-9.4-6.7-12.4-11.9    c-3-5.2-4.5-11.3-4.5-18.2c0-7,1.5-13,4.5-18.2c3-5.2,7.1-9.2,12.4-11.9c5.3-2.8,11.2-4.1,17.9-4.1    C-673-769.8-667.1-768.5-661.8-765.7z M-689.5-747.8c-2.7,2.8-4,6.9-4,12.3c0,5.4,1.3,9.4,4,12.2c2.7,2.8,6,4.2,9.9,4.2    c3.9,0,7.2-1.4,9.8-4.2c2.6-2.8,4-6.9,4-12.2c0-5.4-1.3-9.5-4-12.3c-2.6-2.8-5.9-4.3-9.8-4.3    C-683.6-752.1-686.9-750.7-689.5-747.8z"/>
		<path class="st2" d="M-582.3-762.7c5.8,4.8,9.5,11.3,11,19.6H-593c-0.6-2.9-2-5.1-4-6.7c-2-1.6-4.5-2.4-7.6-2.4    c-3.6,0-6.6,1.4-8.9,4.3c-2.3,2.8-3.5,7-3.5,12.4c0,5.4,1.2,9.6,3.5,12.4c2.3,2.8,5.3,4.3,8.9,4.3c3,0,5.6-0.8,7.6-2.4    c2-1.6,3.3-3.8,4-6.7h21.7c-1.5,8.3-5.2,14.9-11,19.6c-5.8,4.8-13.1,7.1-21.7,7.1c-6.6,0-12.4-1.4-17.5-4.1    c-5.1-2.8-9.1-6.7-11.9-11.9c-2.9-5.2-4.3-11.3-4.3-18.2c0-7,1.4-13.1,4.3-18.3c2.8-5.2,6.8-9.1,11.9-11.9    c5.1-2.8,11-4.1,17.5-4.1C-595.4-769.8-588.2-767.5-582.3-762.7z"/>
		<path class="st2" d="M-522.7-719.7v17.6h-9.2c-7.8,0-13.9-1.9-18.3-5.8c-4.4-3.9-6.5-10.3-6.5-19.3v-24.6h-9V-769h9v-16.4h20.5    v16.4h13.4v17.3h-13.4v25c0,2.6,0.5,4.5,1.6,5.5c1.1,1,2.9,1.6,5.5,1.6H-522.7z"/>
		<path class="st2" d="M-462-765.7c5.2,2.8,9.4,6.7,12.4,11.9c3,5.2,4.5,11.3,4.5,18.2c0,7-1.5,13-4.5,18.2    c-3,5.2-7.1,9.2-12.4,11.9c-5.2,2.8-11.2,4.1-17.8,4.1c-6.6,0-12.6-1.4-17.9-4.1c-5.3-2.8-9.4-6.7-12.4-11.9    c-3-5.2-4.5-11.3-4.5-18.2c0-7,1.5-13,4.5-18.2c3-5.2,7.1-9.2,12.4-11.9c5.3-2.8,11.2-4.1,17.9-4.1    C-473.2-769.8-467.3-768.5-462-765.7z M-489.7-747.8c-2.7,2.8-4,6.9-4,12.3c0,5.4,1.3,9.4,4,12.2c2.7,2.8,6,4.2,9.9,4.2    c3.9,0,7.2-1.4,9.8-4.2c2.6-2.8,4-6.9,4-12.2c0-5.4-1.3-9.5-4-12.3c-2.6-2.8-5.9-4.3-9.8-4.3    C-483.8-752.1-487.1-750.7-489.7-747.8z"/>
		<path class="st2" d="M-377.9-765.7c4.4,2.8,7.8,6.7,10.3,11.9c2.5,5.2,3.8,11.3,3.8,18.3c0,7-1.3,13-3.8,18.2    c-2.5,5.2-6,9.2-10.3,11.9c-4.4,2.8-9.3,4.1-14.8,4.1c-5.1,0-9.5-1.2-13.2-3.5c-3.7-2.3-6.4-5.5-8-9.5v12.1h-20.5v-88.8h20.5v34    c1.7-4,4.4-7.2,8-9.5c3.7-2.3,8.1-3.5,13.2-3.5C-387.2-769.8-382.3-768.5-377.9-765.7z M-409.9-747.5c-2.8,2.9-4.1,6.9-4.1,11.9    c0,5,1.4,8.9,4.1,11.9c2.8,3,6.3,4.4,10.6,4.4c4.4,0,7.9-1.4,10.6-4.3c2.7-2.9,4-6.9,4-12c0-5.1-1.3-9.1-4-12    c-2.7-2.9-6.2-4.3-10.6-4.3C-403.6-751.8-407.2-750.4-409.9-747.5z"/>
		<path class="st2" d="M-248.4-766.1c4-2.4,8.4-3.6,13.1-3.6v22h-5.9c-5.4,0-9.7,1.2-12.7,3.5c-3,2.3-4.5,6.2-4.5,11.8v30.5h-20.5    v-67h20.5v12.6C-255.8-760.5-252.5-763.7-248.4-766.1z"/>
		<path class="st2" d="M-323.2-701c-9.8,0-17.8-3.1-24.1-9.5c-6.3-6.3-9.4-14.7-9.4-25.1c0-10.4,3.1-18.8,9.3-24.9    c6.2-6.2,14.3-9.3,24.2-9.3s18.1,3.1,24.6,9.2c6.5,6.1,9.8,14.6,9.8,25.4c0,2.3-0.2,4.5-0.5,6.5h-46.3c0.4,3,1.7,5.4,4,7.3    c2.2,1.9,4.7,2.8,7.3,2.8c2.6,0,4.6-0.3,5.8-0.8s2.2-1,2.8-1.6c0.6-0.5,1.4-1.4,2.3-2.6h22.3c-1.9,6.7-5.8,12.2-11.6,16.3    C-308.4-703.1-315.3-701-323.2-701z M-314.4-749.3c-2.4-2-5.3-3-8.6-3c-3.3,0-6.1,1-8.3,3s-3.7,4.5-4.2,7.7h25.2    C-310.6-744.8-312-747.3-314.4-749.3z"/>
	</g>
	<g id="isotype_envol_3_" class="st4">
		<linearGradient id="SVGID_3_" gradientUnits="userSpaceOnUse" x1="-847.7398" y1="-774.0538" x2="-805.4111" y2="-703.3278">
			<stop offset="3.533291e-04" style="stop-color:#06BFD3;stop-opacity:0.8"/>
			<stop offset="0.11" style="stop-color:#0AB7D6;stop-opacity:0.8131"/>
			<stop offset="0.2826" style="stop-color:#17A0DD;stop-opacity:0.8337"/>
			<stop offset="0.4964" style="stop-color:#2B7CE8;stop-opacity:0.8592"/>
			<stop offset="0.7409" style="stop-color:#4649F8;stop-opacity:0.8885"/>
			<stop offset="0.8375" style="stop-color:#5233FF;stop-opacity:0.9"/>
		</linearGradient>
		<polygon class="st5" points="-837.6,-799.4 -775.9,-719.3 -834.1,-686.1 -862.7,-736.9 -862.7,-765.3   "/>
		<linearGradient id="SVGID_4_" gradientUnits="userSpaceOnUse" x1="-838.601" y1="-686.8629" x2="-779.0275" y2="-745.8157">
			<stop offset="0" style="stop-color:#5BE6BD;stop-opacity:0.75"/>
			<stop offset="0.4667" style="stop-color:#52DB9B;stop-opacity:0.8667"/>
			<stop offset="1" style="stop-color:#47CC6F"/>
		</linearGradient>
		<polygon class="st6" points="-853.1,-690.4 -834.1,-686.1 -775.9,-719.3 -766.3,-750.6 -773.5,-780.9   "/>
	</g>
	
		<text transform="matrix(1 0 0 1 -714.4445 -546.511)" style="display:inline;fill:#000545; font-family:'Poppins-Bold'; font-size:120px;">october</text>
</g>
</svg>