<svg id="Calque_1" xmlns="http://www.w3.org/2000/svg" xmlns:xlink="http://www.w3.org/1999/xlink" viewBox="0 0 1024 621"><style>.st0{clip-path:url(#SVGID_2_)}.st1{clip-path:url(#SVGID_4_)}.st2,.st3{clip-path:url(#SVGID_6_);fill:#aeca0b}.st3{clip-path:url(#SVGID_8_)}.st4,.st5{clip-path:url(#SVGID_10_);fill:#c6c6c5}.st5{clip-path:url(#SVGID_12_)}</style><defs><path id="SVGID_1_" d="M-195.4-228.3h1379.7v929.7H-195.4z"/></defs><clipPath id="SVGID_2_"><use xlink:href="#SVGID_1_" overflow="visible"/></clipPath><path class="st0" d="M145.6 234.5c-15.5-15.5-34.8-27-57.4-34.4-13.6-6.3-24.3-13.4-31.9-20.9-8-8-11.9-17.5-11.9-28.8 0-11.5 3.9-20.9 11.9-28.9s17.5-11.9 28.8-11.9 20.8 3.9 28.8 11.8c4.5 4.5 7.7 9.4 9.7 14.7l1 2.7 19.2-7.6-.8-2.5c-2.6-8.1-7.3-15.5-14-21.9-12.1-12-26.9-18.1-43.9-18.1-17.1 0-31.9 6.1-43.9 18.2s-18.1 26.7-18.1 43.5c0 17.1 6.1 31.9 18.1 43.9 11.8 11.8 28 21.2 48.1 27.9 16.4 6.7 30.3 15.8 41.6 27 12.6 12.6 18.9 27.9 18.9 45.6 0 17.8-6.4 33.2-18.9 45.8-12.6 12.6-28 18.9-45.8 18.9-17.7 0-33-6.4-45.6-18.9-10.8-10.8-17-23.6-18.6-38l-.4-3.5-20.3 7.4.3 2.2c2.6 17.7 10.7 33.3 24 46.6 16.7 16.8 37 25.3 60.5 25.3s43.9-8.4 60.5-25.1c16.7-16.7 25.1-37.1 25.1-60.7.1-23.4-8.3-43.7-25-60.3"/><defs><path id="SVGID_3_" d="M-195.4-228.3h1379.7v929.7H-195.4z"/></defs><clipPath id="SVGID_4_"><use xlink:href="#SVGID_3_" overflow="visible"/></clipPath><path class="st1" d="M449 131c-28.4-28.4-63.2-42.8-103.4-42.8s-75 14.4-103.4 42.8c-28.4 28.4-42.8 63.2-42.8 103.4s14.4 75 42.8 103.4c28.4 28.4 63.2 42.8 103.4 42.8s75-14.4 103.4-42.8c28.4-28.4 42.8-63.2 42.8-103.4s-14.4-75-42.8-103.4M345.6 359.2c-34.3 0-63.9-12.3-88.1-36.6-24.2-24.3-36.5-54-36.5-88.2 0-34.3 12.3-63.9 36.5-88.1 24.2-24.2 53.9-36.5 88.1-36.5 34.3 0 63.9 12.3 88.1 36.5 24.2 24.2 36.5 53.9 36.5 88.1 0 34.3-12.3 64-36.5 88.2-24.2 24.3-53.8 36.6-88.1 36.6"/><defs><path id="SVGID_5_" d="M-195.4-228.3h1379.7v929.7H-195.4z"/></defs><clipPath id="SVGID_6_"><use xlink:href="#SVGID_5_" overflow="visible"/></clipPath><path class="st2" d="M751.2 80L644.5 373.1l-1.4 3.5h22.7l39-105.1h92.9l39 105.1h22.5L751.2 80zm38.7 168.7h-77.4l38.7-106.4 38.7 106.4z"/><defs><path id="SVGID_7_" d="M-195.4-228.3h1379.7v929.7H-195.4z"/></defs><clipPath id="SVGID_8_"><use xlink:href="#SVGID_7_" overflow="visible"/></clipPath><path class="st3" d="M861 91v21.6h71.4v264.1h20.2V112.6h71.4V91z"/><defs><path id="SVGID_9_" d="M-195.4-228.3h1379.7v929.7H-195.4z"/></defs><clipPath id="SVGID_10_"><use xlink:href="#SVGID_9_" overflow="visible"/></clipPath><path class="st4" d="M17 514.7s15.2-3.6 42-8.8c26.9-5 65.2-12.5 111.5-19.5 46.3-7.2 100.5-14.4 158.9-20.2 29.2-2.8 59.3-5.7 90.1-7.6 30.7-2 62-3.6 93.3-4.6 31.3-.8 62.6-.9 93.5-.4 30.8.4 61.2 2.2 90.6 4.5 58.6 4.8 113.3 13.7 158.7 27 45.6 12.9 81.2 31.6 102.9 48.6 11.1 8.3 18.2 16.6 23.1 22 4.4 5.8 6.8 8.9 6.8 8.9s-2.7-2.9-7.7-8.2c-5.3-5-13.3-12.1-24.6-19.5-11.2-7.5-25.8-15.2-43.2-22.1-17.5-6.9-37.8-13-60.3-18.3-45.1-10.5-99-17-157-20.4-29-1.7-59-2.3-89.6-2.7-30.6-.3-61.6.1-92.6 1.1-31.1.7-62.1 2.1-92.7 3.8-30.6 1.8-60.6 3.5-89.7 5.8-58.2 4.3-112.4 9.3-159 13.9-46.5 4.7-85.3 8.5-112.4 11.8-27.1 3.1-42.6 4.9-42.6 4.9"/><defs><path id="SVGID_11_" d="M-195.4-228.3h1379.7v929.7H-195.4z"/></defs><clipPath id="SVGID_12_"><use xlink:href="#SVGID_11_" overflow="visible"/></clipPath><path class="st5" d="M633.1 1.3c-.3-.9.8 2.9 2.2 8.7 1.4 6 3.4 14.9 4.9 26.3 3.1 22.9 5.3 56.2.7 95.9-2.3 19.8-6.1 41.3-12.2 63.4s-13.9 45.2-24.6 68c-10.5 22.8-22.8 45.8-37.7 67.6-14.7 21.9-31.3 43-49.2 62.9-18.1 19.7-37.5 38.1-57.5 55.1-19.9 17.1-40.9 32.2-61.5 46.1-20.6 14-41.3 26.2-61.3 37-19.9 11-39.3 20.3-57.3 28.4-36.1 16.3-67 27.5-88.9 34.7-10.8 3.8-19.6 6.1-25.5 8-5.9 1.8-9 2.7-9 2.7s11.8-5.6 32.6-15.4c20.7-9.8 50-24.4 84.2-43.1 34.1-18.9 73.2-42.3 112.4-70.8 19.7-14.1 39.1-29.9 58.3-46.4 19.1-16.6 37.5-34.6 54.7-53.6 17.4-18.8 33.5-38.8 47.7-59.6 14.2-20.8 27.2-41.9 37.8-63.4 21.6-42.9 35.2-86 42.6-124 7.4-38 9-70.5 8.7-93.3-.2-11.4-.6-20.4-1.2-26.5-.6-5.7-1.3-9.6-.9-8.7"/></svg>