<svg width="500" height="168" viewBox="0 0 500 168" fill="none" xmlns="http://www.w3.org/2000/svg">
<path fill-rule="evenodd" clip-rule="evenodd" d="M312.287 32.6255C321.861 32.6255 329.946 26.058 329.946 16.3127C329.946 7.41488 322.287 0 312.287 0C301.862 0 294.628 7.20303 294.628 16.3127C294.628 26.2699 302.287 32.6255 312.287 32.6255ZM56.169 168C83.1896 168 105.742 156.136 105.742 129.443C105.742 107.41 86.3811 98.512 58.7221 93.2156C57.5055 92.9684 56.1963 92.727 54.8325 92.4755L54.8316 92.4753L54.8287 92.4748L54.8276 92.4746L54.8235 92.4738C53.5034 92.2303 52.1323 91.9775 50.7449 91.7008L49.8959 91.5287C40.6829 89.6303 31.0631 86.5629 31.0631 78.174C31.0631 69.488 40.6374 66.0984 49.7861 66.0984C62.5518 66.0984 72.3388 71.8184 75.3175 84.3178L100.849 77.3266C94.2532 54.4464 74.0409 43.43 49.9989 43.43C25.5313 43.43 3.61694 53.8108 3.61694 79.2333C3.61694 103.861 23.3068 109.8 44.0326 114.089L45.371 114.363L46.7112 114.634C47.3815 114.769 48.0521 114.903 48.7223 115.037C63.8284 118.214 77.2323 122.451 77.2323 131.561C77.2323 141.942 65.956 145.332 55.9562 145.332C41.914 145.332 31.0631 138.764 27.0207 125.417L0 132.62C6.80836 157.831 31.9142 168 56.169 168ZM326.542 45.9723V167.16H297.819V45.9723H326.542ZM240.439 167.999C248.583 167.936 263.448 164.818 270.396 144.272C273.8 133.68 274.652 124.358 275.29 107.41C275.309 107.029 275.328 106.648 275.349 106.268L275.41 105.127C275.442 104.558 275.474 103.989 275.508 103.423L275.578 102.292C276.529 87.2478 278.445 73.7251 283.8 73.7251V45.9723C275.29 45.9723 259.758 49.1501 252.524 70.5473C249.173 81.1857 248.296 94.2888 247.457 106.823L247.418 107.41L247.378 108.089L247.339 108.76C247.15 112.005 246.916 116.031 246.549 120.113L246.457 121.114L246.359 122.115C245.415 131.451 243.704 140.459 240.184 140.459C236.915 140.459 234.91 132.766 233.684 124.198L233.546 123.206C233.434 122.377 233.328 121.542 233.23 120.707L233.115 119.707L233.006 118.708C232.565 114.558 232.281 110.539 232.099 107.41C231.461 94.9105 230.61 80.9281 226.993 70.3354C220.185 49.1501 204.866 45.9723 196.355 45.9723C187.845 45.9723 172.952 49.1501 165.931 70.3354C162.526 80.9281 161.675 94.9105 161.037 107.41C160.856 110.539 160.589 114.558 160.167 118.708L160.063 119.707C158.974 129.872 156.934 140.459 152.952 140.459C148.956 140.459 146.477 130.593 145.11 121.051L144.971 120.048L144.839 119.051C144.265 114.576 143.934 110.335 143.803 107.41C143.165 89.6141 142.74 70.3354 142.74 45.9723H114.868L114.869 52.4266C114.877 73.3382 114.965 88.5356 115.932 107.41C116.783 123.934 119.336 136.434 121.889 143.849C127.208 159.95 137.846 168 152.952 168C167.845 168 179.547 158.678 183.802 143.849C186.781 132.832 188.058 120.121 188.696 107.41C188.784 106.341 188.874 105.137 188.971 103.838L188.971 103.832L188.971 103.831C189.202 100.737 189.474 97.1001 189.852 93.449L189.958 92.445C190.979 83.0793 192.741 73.7251 196.355 73.7251C199.903 73.7251 201.715 82.126 202.736 90.9431L202.848 91.9436C202.884 92.2777 202.919 92.6123 202.954 92.9469L203.053 93.9508C203.463 98.2109 203.715 102.418 203.914 105.733L203.914 105.734L203.914 105.737L203.914 105.737C203.949 106.324 203.982 106.883 204.015 107.41L204.021 107.541C204.658 120.21 205.304 133.081 208.908 143.849C215.929 165.034 231.674 168 240.184 168L240.439 167.999ZM369.252 105.503C369.252 124.994 373.294 137.281 383.507 151.052L360.316 168C346.486 149.357 340.529 131.137 340.529 105.503V3.17781H369.252V105.503ZM442.413 168C469.859 168 487.944 151.899 495.603 132.62L469.221 125.629C465.178 136.01 456.03 142.578 443.051 142.578C426.881 142.578 412.626 130.29 411.775 111.223H499.646C503.05 74.9962 481.774 43.43 442.2 43.43C406.882 43.43 383.265 70.5473 383.265 105.503C383.265 140.035 406.882 168 442.413 168ZM441.917 66.9458C427.237 66.9458 414.897 76.2673 412.131 89.826H471.704C469.576 77.5385 457.662 66.9458 441.917 66.9458Z" fill="black"/>
</svg>
