<svg id="Calque_1" data-name="Calque 1" xmlns="http://www.w3.org/2000/svg" viewBox="0 0 237.3 63.7"><polygon points="45.83 29.29 28.01 29.29 28.01 42.28 45.83 29.29" style="fill:#004b96"/><polygon points="4.06 34.34 21.89 34.34 21.89 21.35 4.06 34.34" style="fill:#004b96"/><polygon points="17.7 59.99 45.83 42.9 45.83 29.29 17.7 46.37 17.7 59.99" style="fill:#227cff"/><polygon points="4 34.42 32.13 17.33 32.13 3.71 4 20.8 4 34.42" style="fill:#227cff"/><path d="M80.12,34.8c0,7.2-6.54,9.67-11.74,9.67-9,0-12.76-5.12-13.47-10.46h6.36c.84,3,2.69,4.59,7.06,4.59,3.58,0,5.43-1.33,5.43-3.53s-2.16-2.61-7.57-3.79-10.46-3-10.46-9c0-6.49,5.79-9.71,11.66-9.71,8.29,0,11.74,4.45,12.44,9.57H73.41c-.63-2.16-2.21-3.7-6-3.7S62.06,20,62.06,22c0,1.81,1.55,2.25,5.61,3.15C75.92,26.86,80.12,28.7,80.12,34.8Z" style="fill:#227cff"/><path d="M106.28,19.66,90.48,55H83.77l6.35-14.25L80.77,19.66h6.7l6,14.21,6-14.21Z" style="fill:#227cff"/><path d="M130.41,28.7V43.93H124.1V30.05c0-3.15-1.19-4.94-4.55-4.94-3.57,0-5.47,2.08-5.47,6.05V43.91h-6.3V19.64h6.3V23a8.7,8.7,0,0,1,7.57-3.84C127.1,19.13,130.41,22.75,130.41,28.7Z" style="fill:#227cff"/><path d="M157.74,19.66l-.05,24.28h-6.3V40.68a9,9,0,0,1-7.57,3.78c-6.35,0-11.08-5.21-11.08-12.67s4.82-12.66,11-12.66a9.1,9.1,0,0,1,7.65,3.93v-3.4ZM151.43,31.8c0-4-2.69-6.66-6.22-6.66s-6.13,2.69-6.13,6.66,2.64,6.67,6.13,6.67S151.43,35.82,151.43,31.8Z" style="fill:#227cff"/><path d="M183.43,28.7V43.93h-6.3V30.05c0-3.15-1.2-4.94-4.55-4.94-3.57,0-5.47,2.08-5.47,6.05V43.91H160.8V19.64h6.31V23a8.7,8.7,0,0,1,7.56-3.84C180.12,19.13,183.43,22.75,183.43,28.7Z" style="fill:#227cff"/><path d="M205.22,42.53A14.8,14.8,0,0,1,198,44.46c-4.85,0-9.09-2.91-9.09-9.89V25.62h-4.33v-6h4.33V14.41l6.3-1.37v6.62h9v6h-9v8.61c0,2.87,1.37,4.37,3.89,4.37a16.55,16.55,0,0,0,5-1.19Z" style="fill:#227cff"/><path d="M230.88,31.8a12.65,12.65,0,1,1-12.67-12.67,12.4,12.4,0,0,1,12.67,12.12ZM212,31.8c0,4,2.75,6.67,6.31,6.67s6.27-2.65,6.27-6.67-2.74-6.66-6.27-6.66a6.33,6.33,0,0,0-6.36,6.66Z" style="fill:#227cff"/></svg>