<?xml version="1.0" encoding="utf-8"?>
<!-- Generator: Adobe Illustrator 16.0.0, SVG Export Plug-In . SVG Version: 6.00 Build 0)  -->
<!DOCTYPE svg PUBLIC "-//W3C//DTD SVG 1.1//EN" "http://www.w3.org/Graphics/SVG/1.1/DTD/svg11.dtd">
<svg version="1.1" id="Calque_1" xmlns="http://www.w3.org/2000/svg" xmlns:xlink="http://www.w3.org/1999/xlink" x="0px" y="0px"
	 width="1351.433px" height="425.979px" viewBox="0 0 1351.433 425.979" enable-background="new 0 0 1351.433 425.979"
	 xml:space="preserve">
<polygon fill="#003A70" points="309.033,9.174 189.016,247.508 126.798,247.508 6.781,9.174 53.359,9.174 156.377,213.508 
	160.457,211.128 262.454,9.174 "/>
<rect x="350.85" y="9.174" fill="#003A70" width="40.458" height="238.334"/>
<g>
	<defs>
		<rect id="SVGID_1_" x="-284.124" y="-327.601" width="1920" height="1080"/>
	</defs>
	<clipPath id="SVGID_2_">
		<use xlink:href="#SVGID_1_"  overflow="visible"/>
	</clipPath>
	<path clip-path="url(#SVGID_2_)" fill="#003A70" d="M708.179,177.47c0,26.296-6.801,44.878-20.4,55.758
		c-12.017,9.52-31.396,14.28-58.139,14.28H510.304c-52.36,0-78.427-22.552-78.199-67.659h41.138
		c0,20.856,14.732,31.279,44.201,31.279h103.016c14.28,0,24.93-1.923,31.959-5.781c9.292-5.21,13.94-14.502,13.94-27.878
		c0-15.182-8.049-25.499-24.139-30.938c-9.748-3.401-24.14-5.101-43.18-5.101c-7.708,0-19.156,0.287-34.338,0.849
		c-15.189,0.568-26.637,0.851-34.34,0.851c-30.147,0-52.815-3.74-67.998-11.22c-21.079-10.651-31.619-29.463-31.619-56.439
		c0-24.479,7.252-42.041,21.76-52.697c12.462-9.064,31.502-13.6,57.118-13.6H623.18c55.981,0,83.978,22.44,83.978,67.317h-42.839
		c0-20.851-14.959-31.279-44.879-31.279H512.344c-24.709,0-37.061,10.317-37.061,30.939c0,21.536,22.552,32.299,67.659,32.299
		c7.023,0,17.51-0.392,31.45-1.189c13.938-0.791,24.42-1.19,31.449-1.19c30.822,0,54.17,4.196,70.038,12.58
		C697.409,129.988,708.179,149.591,708.179,177.47"/>
	<path clip-path="url(#SVGID_2_)" fill="#003A70" d="M1031.164,177.13c0,30.376-9.86,50.207-29.58,59.499
		c-14.736,7.256-44.087,10.88-88.058,10.88h-52.699c-33.318,0-57.575-2.832-72.758-8.5c-16.549-6.12-27.996-17.452-34.339-34
		c-5.668-15.182-8.5-39.437-8.5-72.757c0-35.812,2.492-61.421,7.48-76.838c5.663-18.13,16.659-30.599,32.979-37.399
		c15.64-6.571,40.911-9.86,75.818-9.86h52.698c41.932,0,72.078,6.009,90.438,18.02c17.223,11.109,25.84,28.447,25.84,52.017h-38.42
		c0-15.182-7.257-25.042-21.76-29.578c-9.297-2.72-28.559-4.08-57.799-4.08h-48.618c-32.417,0-53.379,3.06-62.898,9.18
		c-11.788,7.708-17.797,25.617-18.021,53.718v34.34c-0.228,31.736,5.44,51.795,17,60.177c9.063,6.578,30.032,9.86,62.898,9.86
		h49.979c29.92,0,49.3-1.36,58.139-4.08c14.503-4.302,21.644-14.502,21.419-30.598H1031.164z M944.466,141.771H782.289l0.34-34.68
		h161.837V141.771z"/>
	<path clip-path="url(#SVGID_2_)" fill="#003A70" d="M1344.971,141.771c0,31.736-3.738,55.025-11.219,69.869
		c-7.479,14.848-20.176,24.765-38.079,29.748c-14.28,4.08-37.627,6.12-70.039,6.12h-43.858c-33.319,0-57.575-2.832-72.758-8.5
		c-16.776-6.12-28.219-17.452-34.339-34c-5.668-15.41-8.5-39.777-8.5-73.097c0-35.36,2.38-60.742,7.141-76.158
		c5.661-18.131,16.77-30.711,33.318-37.739c15.639-6.8,40.91-10.2,75.818-10.2h43.518c37.4,0,64.313,3.857,80.749,11.56
		c16.431,7.708,27.142,21.537,32.13,41.479C1342.933,75.811,1344.971,102.788,1344.971,141.771 M1304.173,140.411v-22.78
		c0-22.663-2.27-38.812-6.801-48.449c-4.536-9.631-12.808-15.809-24.818-18.529c-8.388-2.04-24.479-3.06-48.279-3.06h-39.438
		c-32.868,0-53.607,3.4-62.219,10.2c-10.429,8.388-15.64,28.447-15.64,60.178v22.78c0,30.828,5.323,50.318,15.979,58.477
		c8.384,6.12,28.671,9.18,60.858,9.18h41.139c23.343,0,39.1-0.902,47.26-2.72c12.011-2.49,20.34-8.44,24.988-17.849
		C1301.846,178.436,1304.173,162.627,1304.173,140.411"/>
	
		<line clip-path="url(#SVGID_2_)" fill="none" stroke="#003B70" stroke-width="6.736" stroke-miterlimit="10" x1="6.781" y1="393.153" x2="186.542" y2="393.153"/>
	
		<line clip-path="url(#SVGID_2_)" fill="none" stroke="#003B70" stroke-width="6.736" stroke-miterlimit="10" x1="1165.21" y1="393.153" x2="1344.971" y2="393.153"/>
	<path clip-path="url(#SVGID_2_)" fill="#0099FF" d="M253.59,374.181c3.462,2.886,5.194,6.856,5.194,11.915
		c0,5.06-1.732,9.032-5.194,11.915c-3.46,2.886-8.209,4.328-14.243,4.328h-11.517v14.111h-6.657v-46.596h18.174
		C245.381,369.855,250.13,371.298,253.59,374.181 M248.798,393.851c2.219-1.797,3.328-4.381,3.328-7.755
		c0-3.371-1.109-5.957-3.328-7.754c-2.219-1.798-5.437-2.696-9.651-2.696h-11.317v20.901h11.317
		C243.361,396.547,246.579,395.649,248.798,393.851"/>
	<path clip-path="url(#SVGID_2_)" fill="#0099FF" d="M328.576,415.351c-3.263-1.086-5.825-2.495-7.688-4.228l2.462-5.19
		c1.774,1.598,4.049,2.896,6.823,3.894c2.773,1,5.625,1.499,8.554,1.499c3.861,0,6.745-0.654,8.654-1.965
		c1.906-1.309,2.862-3.05,2.862-5.225c0-1.599-0.522-2.896-1.564-3.895c-1.044-0.998-2.331-1.764-3.862-2.296
		c-1.531-0.533-3.695-1.132-6.49-1.798c-3.505-0.842-6.334-1.686-8.487-2.529c-2.153-0.842-3.993-2.14-5.525-3.895
		c-1.531-1.753-2.296-4.115-2.296-7.088c0-2.485,0.654-4.728,1.964-6.724c1.308-1.998,3.295-3.595,5.956-4.794
		c2.663-1.196,5.969-1.797,9.919-1.797c2.751,0,5.458,0.356,8.121,1.065c2.663,0.711,4.948,1.731,6.857,3.062l-2.197,5.326
		c-1.953-1.243-4.039-2.186-6.258-2.829c-2.219-0.643-4.393-0.966-6.523-0.966c-3.773,0-6.602,0.688-8.487,2.064
		c-1.886,1.375-2.829,3.15-2.829,5.324c0,1.598,0.533,2.896,1.598,3.895c1.065,0.999,2.384,1.775,3.96,2.33
		c1.575,0.556,3.717,1.143,6.424,1.764c3.504,0.843,6.323,1.688,8.453,2.529c2.131,0.843,3.961,2.13,5.492,3.86
		c1.531,1.731,2.297,4.062,2.297,6.99c0,2.44-0.667,4.671-1.997,6.689c-1.332,2.02-3.351,3.617-6.058,4.793
		c-2.707,1.176-6.035,1.765-9.984,1.765C335.221,416.984,331.837,416.44,328.576,415.351"/>
	<path clip-path="url(#SVGID_2_)" fill="#0099FF" d="M292.803,372.78c-12.82,0-23.212,10.393-23.212,23.212v13.616
		c0,0.048,0.06,0.069,0.085,0.028c3.62-6.113,11.943-18.968,20.671-24.134c0.786-0.463,1.821-0.138,2.177,0.745
		c0.289,0.716-0.084,1.522-0.744,1.922c-1.671,1.013-4.104,3.006-4.866,3.767c-4.585,4.005-7.545,8.295-10.752,13.13
		c-2.165,3.264-4.149,6.55-5.054,8.142c-0.018,0.031,0.007,0.066,0.043,0.066h15.765c12.796,0,23.169-10.373,23.169-23.169v-17.278
		c0-0.025-0.021-0.047-0.047-0.047H292.803z"/>
	<rect x="366.483" y="369.855" clip-path="url(#SVGID_2_)" fill="#0099FF" width="6.656" height="46.596"/>
	<polygon clip-path="url(#SVGID_2_)" fill="#0099FF" points="396.371,375.646 380.395,375.646 380.395,369.855 418.937,369.855 
		418.937,375.646 402.962,375.646 402.962,416.451 396.371,416.451 	"/>
	<rect x="426.191" y="369.855" clip-path="url(#SVGID_2_)" fill="#0099FF" width="6.656" height="46.596"/>
	<polygon clip-path="url(#SVGID_2_)" fill="#0099FF" points="486.833,369.855 466.397,416.451 459.808,416.451 439.306,369.855 
		446.495,369.855 463.27,408.129 480.178,369.855 	"/>
	<polygon clip-path="url(#SVGID_2_)" fill="#0099FF" points="526.572,410.66 526.572,416.451 492.757,416.451 492.757,369.855 
		525.64,369.855 525.64,375.646 499.413,375.646 499.413,389.958 522.778,389.958 522.778,395.616 499.413,395.616 499.413,410.66 	
		"/>
	<path clip-path="url(#SVGID_2_)" fill="#003A70" d="M555.26,369.855h19.637c4.925,0,9.297,0.977,13.114,2.929
		c3.816,1.953,6.777,4.693,8.885,8.221c2.107,3.528,3.162,7.578,3.162,12.147c0,4.572-1.055,8.621-3.162,12.148
		c-2.108,3.528-5.069,6.27-8.885,8.222c-3.817,1.953-8.188,2.929-13.114,2.929H555.26V369.855z M574.498,410.66
		c3.771,0,7.088-0.733,9.952-2.197c2.861-1.465,5.068-3.517,6.622-6.157c1.553-2.639,2.33-5.691,2.33-9.153
		c0-3.46-0.777-6.511-2.33-9.152c-1.554-2.639-3.761-4.691-6.622-6.157c-2.864-1.465-6.181-2.196-9.952-2.196h-12.582v35.014
		H574.498z"/>
	<rect x="610.242" y="369.855" clip-path="url(#SVGID_2_)" fill="#003A70" width="6.656" height="46.596"/>
	<path clip-path="url(#SVGID_2_)" fill="#003A70" d="M663.162,392.886h6.39v18.172c-2.308,1.909-4.993,3.373-8.055,4.395
		c-3.062,1.02-6.257,1.531-9.585,1.531c-4.704,0-8.942-1.032-12.714-3.097c-3.773-2.063-6.734-4.902-8.887-8.521
		c-2.152-3.616-3.228-7.688-3.228-12.215c0-4.525,1.076-8.608,3.228-12.247c2.153-3.639,5.127-6.479,8.92-8.521
		c3.794-2.04,8.065-3.063,12.815-3.063c3.727,0,7.11,0.611,10.151,1.831c3.039,1.222,5.624,3.007,7.755,5.358l-4.127,4.127
		c-3.728-3.594-8.233-5.392-13.513-5.392c-3.551,0-6.735,0.766-9.552,2.297c-2.82,1.531-5.026,3.661-6.624,6.391
		c-1.598,2.729-2.396,5.802-2.396,9.218c0,3.374,0.798,6.425,2.396,9.153c1.598,2.729,3.804,4.87,6.624,6.424
		c2.817,1.554,5.979,2.329,9.485,2.329c4.171,0,7.811-0.998,10.917-2.995V392.886z"/>
	<rect x="682.265" y="369.855" clip-path="url(#SVGID_2_)" fill="#003A70" width="6.657" height="46.596"/>
	<polygon clip-path="url(#SVGID_2_)" fill="#003A70" points="712.151,375.646 696.177,375.646 696.177,369.855 734.718,369.855 
		734.718,375.646 718.742,375.646 718.742,416.451 712.151,416.451 	"/>
	<path clip-path="url(#SVGID_2_)" fill="#003A70" d="M769.332,404.801H744.57l-5.126,11.649h-6.856l21.101-46.596h6.591
		l21.167,46.596h-6.988L769.332,404.801z M767.002,399.476l-10.051-22.831l-10.052,22.831H767.002z"/>
	<polygon clip-path="url(#SVGID_2_)" fill="#003A70" points="788.369,369.855 795.025,369.855 795.025,410.66 820.254,410.66 
		820.254,416.451 788.369,416.451 	"/>
	<polygon clip-path="url(#SVGID_2_)" fill="#003A70" points="889.016,416.451 888.949,382.502 872.108,410.792 869.046,410.792 
		852.204,382.702 852.204,416.451 845.814,416.451 845.814,369.855 851.273,369.855 870.71,402.605 889.88,369.855 895.34,369.855 
		895.405,416.451 	"/>
	<path clip-path="url(#SVGID_2_)" fill="#003A70" d="M939.071,404.801h-24.764l-5.125,11.649h-6.855l21.101-46.596h6.591
		l21.167,46.596h-6.988L939.071,404.801z M936.741,399.476l-10.051-22.831l-10.053,22.831H936.741z"/>
	<polygon clip-path="url(#SVGID_2_)" fill="#003A70" points="973.285,395.749 964.764,404.402 964.764,416.451 958.108,416.451 
		958.108,369.855 964.764,369.855 964.764,395.881 990.06,369.855 997.647,369.855 977.745,390.824 998.913,416.451 
		991.125,416.451 	"/>
	<polygon clip-path="url(#SVGID_2_)" fill="#003A70" points="1039.783,410.66 1039.783,416.451 1005.967,416.451 1005.967,369.855 
		1038.851,369.855 1038.851,375.646 1012.623,375.646 1012.623,389.958 1035.988,389.958 1035.988,395.616 1012.623,395.616 
		1012.623,410.66 	"/>
	<path clip-path="url(#SVGID_2_)" fill="#003A70" d="M1081.72,416.451l-10.052-14.313c-1.243,0.09-2.221,0.134-2.929,0.134h-11.517
		v14.179h-6.656v-46.596h18.173c6.034,0,10.783,1.443,14.244,4.326c3.462,2.886,5.193,6.856,5.193,11.915
		c0,3.596-0.889,6.656-2.663,9.187c-1.775,2.529-4.305,4.373-7.589,5.525l11.05,15.643H1081.72z M1078.19,393.884
		c2.22-1.818,3.328-4.414,3.328-7.788c0-3.371-1.108-5.957-3.328-7.754c-2.219-1.798-5.436-2.696-9.651-2.696h-11.316v20.968h11.316
		C1072.755,396.614,1075.972,395.706,1078.19,393.884"/>
	<path clip-path="url(#SVGID_2_)" fill="#003A70" d="M1102.388,415.351c-3.263-1.086-5.824-2.495-7.688-4.228l2.462-5.19
		c1.774,1.598,4.05,2.896,6.823,3.894c2.773,1,5.625,1.499,8.554,1.499c3.861,0,6.746-0.654,8.654-1.965
		c1.906-1.309,2.861-3.05,2.861-5.225c0-1.599-0.521-2.896-1.563-3.895c-1.044-0.998-2.331-1.764-3.861-2.296
		c-1.531-0.533-3.695-1.132-6.49-1.798c-3.506-0.842-6.335-1.686-8.487-2.529c-2.152-0.842-3.992-2.14-5.524-3.895
		c-1.531-1.753-2.296-4.115-2.296-7.088c0-2.485,0.654-4.728,1.963-6.724c1.309-1.998,3.296-3.595,5.957-4.794
		c2.662-1.196,5.969-1.797,9.919-1.797c2.751,0,5.458,0.356,8.121,1.065c2.661,0.711,4.947,1.731,6.856,3.062l-2.197,5.326
		c-1.952-1.243-4.039-2.186-6.258-2.829c-2.219-0.643-4.393-0.966-6.522-0.966c-3.772,0-6.602,0.688-8.487,2.064
		c-1.887,1.375-2.829,3.15-2.829,5.324c0,1.598,0.533,2.896,1.597,3.895c1.066,0.999,2.386,1.775,3.961,2.33
		c1.575,0.556,3.718,1.143,6.424,1.764c3.505,0.843,6.324,1.688,8.453,2.529c2.132,0.843,3.962,2.13,5.492,3.86
		c1.531,1.731,2.297,4.062,2.297,6.99c0,2.44-0.666,4.671-1.998,6.689c-1.33,2.02-3.35,3.617-6.057,4.793
		c-2.706,1.176-6.034,1.765-9.984,1.765C1109.032,416.984,1105.649,416.44,1102.388,415.351"/>
</g>
</svg>
