<svg fill="none" height="25" width="154" xmlns="http://www.w3.org/2000/svg" xmlns:xlink="http://www.w3.org/1999/xlink"><linearGradient id="a"><stop offset=".16" stop-color="#a1e924"/><stop offset="1" stop-color="#00c34e"/></linearGradient><linearGradient id="b" gradientUnits="userSpaceOnUse" x1="-3.57" x2="20.72" xlink:href="#a" y1="6.36" y2="31.58"/><linearGradient id="c" gradientUnits="userSpaceOnUse" x1="2.52" x2="26.81" xlink:href="#a" y1=".5" y2="25.71"/><linearGradient id="d" gradientUnits="userSpaceOnUse" x1="19.83" x2="38.32" y1="19.34" y2="1.55"><stop offset="0" stop-color="#00c34e"/><stop offset=".84" stop-color="#a1e924"/></linearGradient><linearGradient id="e" gradientUnits="userSpaceOnUse" x1="20.88" x2="40.41" y1="26.78" y2="-2.5"><stop offset="0"/><stop offset=".61" stop-color="#fff"/></linearGradient><path d="M63.3 9.5c-1.52 0-2.85.94-3.4 2.39l-2.92 7.62-1.19-3.27 2.62-6.7H57.1a3.66 3.66 0 0 0-3.46 2.52l-.3.88-.28-.86a3.66 3.66 0 0 0-3.46-2.53h-1.31l2.65 6.7-1.21 3.28-2.93-7.63a3.63 3.63 0 0 0-3.4-2.38h-1.91l6.22 15.31h3.59l2.05-5.43 2.08 5.43H59l6.25-15.31H63.3zm16.79 8.55h-10.2c.05 1.14.32 1.96.84 2.45.5.5 1.16.74 1.95.74.67 0 1.22-.18 1.67-.51.43-.34.73-.79.86-1.33h4.77a6.54 6.54 0 0 1-1.26 2.86 6.74 6.74 0 0 1-2.48 1.98 7.7 7.7 0 0 1-3.35.71c-1.44 0-2.72-.31-3.83-.93s-2-1.52-2.63-2.7a8.5 8.5 0 0 1-.96-4.1c0-1.59.3-2.96.94-4.12a6.43 6.43 0 0 1 2.62-2.67 7.83 7.83 0 0 1 3.85-.94c1.47 0 2.75.3 3.85.93A6.43 6.43 0 0 1 79.31 13a7.85 7.85 0 0 1 .78 5.05zm-5.21-4.18a2.8 2.8 0 0 0-2-.74c-.82 0-1.51.25-2.05.76-.54.5-.85 1.24-.93 2.22h5.75c.02-1-.24-1.74-.78-2.24zM95 10.42a6.35 6.35 0 0 1 2.26 2.67c.56 1.16.83 2.54.83 4.12 0 1.56-.27 2.93-.82 4.1a5.87 5.87 0 0 1-5.52 3.63 5.27 5.27 0 0 1-2.91-.78 4.56 4.56 0 0 1-1.77-2.14v2.73h-4.52v-20h1.34A3.22 3.22 0 0 1 87.08 8v4.39a4.55 4.55 0 0 1 1.77-2.14c.8-.53 1.78-.79 2.9-.79a5.9 5.9 0 0 1 3.26.95zm-7.04 4.1c-.6.67-.92 1.56-.92 2.7 0 1.12.31 2 .92 2.67.6.66 1.39 1 2.33 1 .96 0 1.75-.33 2.33-.98.6-.65.88-1.55.88-2.7s-.3-2.06-.88-2.7a3 3 0 0 0-2.33-.99c-.96.02-1.73.34-2.33 1zm18.97 5.72 2.5-8.28a3.18 3.18 0 0 1 3.05-2.3h2.46l-5.23 15.09h-5.6L98.9 9.67h2.47c1.39 0 2.62.92 3.03 2.28zm23.4-2.18h-10.21c.05 1.14.33 1.95.85 2.44.5.5 1.15.74 1.95.74.67 0 1.22-.18 1.66-.51.44-.34.73-.79.87-1.33h4.77a6.52 6.52 0 0 1-1.26 2.86c-.65.84-1.47 1.5-2.48 1.98s-2.12.71-3.35.71c-1.44 0-2.72-.31-3.84-.93s-1.99-1.52-2.63-2.7-.95-2.54-.95-4.1c0-1.59.3-2.96.93-4.12a6.43 6.43 0 0 1 2.63-2.67 7.83 7.83 0 0 1 3.85-.94c1.46 0 2.75.3 3.85.93a6.43 6.43 0 0 1 2.57 2.58 7.85 7.85 0 0 1 .79 5.05zm-5.22-4.19a2.8 2.8 0 0 0-1.99-.74c-.83 0-1.52.25-2.06.76-.54.5-.84 1.24-.92 2.22h5.75c.02-1-.24-1.74-.78-2.24zm14.38-3.55a5.45 5.45 0 0 1 2.88-.81v4.94h-1.28c-1.2 0-2.12.26-2.79.78-.66.52-.98 1.4-.98 2.65v6.87h-4.52V9.67h1.74a2.8 2.8 0 0 1 2.76 2.83 6.73 6.73 0 0 1 2.19-2.18zM154 20.78v3.98h-2.04c-1.72 0-3.06-.44-4.01-1.32-.96-.87-1.44-2.32-1.44-4.33v-5.54h-1.99v-3.9h1.98v-3.7h1.33a3.22 3.22 0 0 1 3.18 3.25v.45h2.96v3.89H151v5.62c0 .6.12 1.01.36 1.24.23.24.64.35 1.2.35H154z" fill="#fff"/><path d="M15.07 22.81c-.3.28-.58.5-.86.71-.23.16-.4.3-.6.42-1.9 1.2-3.3 1.06-3.6 1.01a5.04 5.04 0 0 1-3.7-1.77 5.84 5.84 0 0 1-.48-.64 7.82 7.82 0 0 1-.29-.44c-.3-.53-.44-.9-.44-.9l-.48-1.07-.02-.05-4.2-9.35-.02-.04-.38-.8h3.34c.33 0 .65.05.95.15.25.07.48.17.7.28a5.15 5.15 0 0 1 2.57 2.37l.21.45 2.82 6.2.35.78a5.17 5.17 0 0 0 3.33 2.55l.23.05.55.07h.03v.01z" fill="url(#b)"/><path d="M21.99 21.02a5.84 5.84 0 0 1-.48-.64 3.61 3.61 0 0 1-.17-.26l-.35-.76-5.15-11.1a5.95 5.95 0 0 0-.21-.46 5.1 5.1 0 0 0-2.57-2.37 3.26 3.26 0 0 0-.7-.28 3.13 3.13 0 0 0-.95-.15H8.06l.37.81.02.05 6.53 14.23.02.05.48 1.07s.13.38.44.9a7.76 7.76 0 0 0 .77 1.08 5.1 5.1 0 0 0 3.7 1.78 4.75 4.75 0 0 0 1.13 0 5.04 5.04 0 0 0 4.03-2.19 5.09 5.09 0 0 1-3.56-1.76z" fill="url(#c)"/><path d="M34.18 0h-1.56c-.33 0-.65.05-.95.15a4.99 4.99 0 0 0-.7.28A5.15 5.15 0 0 0 28.4 2.8c-.07.16-.15.3-.21.46L23.22 14.1a4.65 4.65 0 0 0-.15 1.2 5.27 5.27 0 0 0 1.06 3.28c.04.07.15.25.33.46.17.23.3.37.37.43.1.1.19.22.3.32.4.42.87.75 1.37 1l.3-.66.02-.05 1.32-2.93L35.6.85l.02-.03.37-.82z" fill="url(#d)"/><path d="M34.12 0h-1.56c-.33 0-.65.05-.96.15a4.99 4.99 0 0 0-.7.28 5.15 5.15 0 0 0-2.56 2.37c-.08.16-.15.3-.21.46L23.15 14.1a6.23 6.23 0 0 0-.14 1.2 5.27 5.27 0 0 0 1.06 3.28c.04.07.14.25.32.46.17.23.31.37.38.43.09.1.19.22.3.32.4.42.87.75 1.37 1l.3-.66.02-.05 1.32-2.93L35.53.85l.01-.03.38-.82z" fill="url(#e)" opacity=".2"/></svg>