<svg version="1.2" baseProfile="tiny" xmlns="http://www.w3.org/2000/svg" viewBox="0 0 364.6 339"><path fill="#FDBA20" d="M153.8 105.7c-5.4 3.5-16.7 21.2-34.4 24.6-17.7 3.5-39.8 2.7-45 4.1-5.2 1.4-9.9 4.4-10 34.4v.4c0 30 4.7 33 10 34.4 5.3 1.4 27.3.6 45 4.1 17.7 3.5 29.1 21.1 34.4 24.6 5.4 3.5 6.3-.8 6.3-.8s0-17.9.1-40.2l-19.2-4.7-19.4 6.1-15.5-3h16l18.8-6.9 19.2 3.8v-8h.3c4.6 0 8.6-3.1 9.9-7.3h7.7v-6.2h-7.7c-1.3-4.2-5.2-7.3-9.9-7.3h-.3c0-27.2-.1-51.6-.1-51.6s-.8-4-6.2-.5z"/><path fill="#FEC218" d="M153.8 105.7c-5.4 3.5-16.7 21.2-34.4 24.6-17.7 3.5-39.8 2.7-45 4.1-5.2 1.4-9.9 4.4-10 34.4v.4c0 30 4.7 33 10 34.4 5.3 1.4 27.3.6 45 4.1 17.7 3.5 29.1 21.1 34.4 24.6 5.4 3.5 6.3-.8 6.3-.8s0-17.9.1-40.2l-19.2-4.7-19.4 6.1-15.5-3h16l18.8-6.9 19.2 3.8v-8h.3c4.6 0 8.6-3.1 9.9-7.3h7.7v-6.2h-7.7c-1.3-4.2-5.2-7.3-9.9-7.3h-.3c0-27.2-.1-51.6-.1-51.6s-.8-4-6.2-.5z"/><path d="M55.6 234.7c-3 0-6-.3-8.8-1-2.9-.7-5.4-1.8-7.6-3.5-2.2-1.7-4-3.9-5.4-6.7-1.4-2.8-2-6.3-2-10.6v-20.6c0-3.5-.7-6.1-2.1-7.6-1.4-1.6-3.6-2.3-6.6-2.3h-2.8v-17.2H23c3 0 5.2-.8 6.6-2.3 1.4-1.6 2.1-4.1 2.1-7.6V128c0-4.2.7-7.8 2-10.6 1.4-2.8 3.1-5.1 5.4-6.7 2.2-1.7 4.8-2.8 7.6-3.5 2.9-.7 5.8-1 8.8-1h7.1v17.2h-5.4c-2.1 0-3.6.4-4.2 1.3-.7.9-1 2.1-1 3.9v29.2c0 5.4-1.3 9.3-3.9 11.6-2.6 2.3-6 3.8-10.1 4.5 4.1.7 7.5 2.2 10.1 4.5 2.6 2.3 3.9 6.1 3.9 11.6v22.5c0 1.7.3 3 1 3.9.7.9 2.1 1.3 4.2 1.3h5.4v17.2h-7zm246.3-17.2h5.4c2.1 0 3.6-.4 4.2-1.3.7-.9 1-2.1 1-3.9v-22.5c0-5.4 1.3-9.3 3.9-11.6 2.6-2.3 5.9-3.8 10-4.5-4.1-.7-7.4-2.2-10-4.5-2.6-2.3-3.9-6.1-3.9-11.6l-.2-29.2c0-1.7-.3-3-1-3.9-.7-.9-2-1.3-4.2-1.3h-5.3V106h7.1c3 0 6 .3 8.8 1 2.9.7 5.4 1.8 7.6 3.5 2.2 1.7 4 3.9 5.4 6.7 1.4 2.8 2 6.4 2 10.6V155c0 3.5.7 6.1 2.1 7.6 1.4 1.6 3.6 2.3 6.6 2.3h2.8v17.2h-2.8c-3 0-5.2.8-6.6 2.3-1.4 1.6-2.1 4.1-2.1 7.6v20.6c0 4.2-.7 7.8-2 10.6-1.4 2.8-3.2 5.1-5.4 6.7-2.2 1.7-4.8 2.8-7.6 3.5-2.9.7-5.8 1-8.8 1h-7.1v-16.9zm-104.9-1c-3.6 0-6.9-.4-9.7-1.3-2.9-.9-5.4-2-7.6-3.5-2.2-1.5-4.1-3.3-5.7-5.3-1.6-2-3-4.1-4-6.4l14.7-8.9c1.4 2.5 2.9 4.7 4.5 6.5 1.6 1.8 4 2.8 7.1 2.8 1.5 0 2.8-.2 4-.5 1.2-.3 2.2-.9 3-1.8.8-.9 1.5-2 1.9-3.5.5-1.5.7-3.3.7-5.5v-61.3h18v61.6c0 4.6-.6 8.7-1.9 12.1-1.3 3.4-3.1 6.3-5.5 8.5s-5.3 3.9-8.6 5-6.9 1.5-10.9 1.5zm69.6 0c-4.2 0-8-.5-11.5-1.4-3.4-.9-6.5-2.2-9.3-3.8s-5.1-3.6-7.2-5.8c-2-2.3-3.7-4.7-5-7.2l14.7-8.5c2 3.2 4.3 5.8 7 7.9 2.7 2.1 6.3 3.1 10.8 3.1 3.8 0 6.8-.8 9-2.5s3.3-3.8 3.3-6.4c0-3.1-1.2-5.4-3.5-7-2.3-1.5-5.5-3.2-9.7-5l-4.5-1.9c-3.3-1.4-6.2-2.9-8.9-4.5s-4.9-3.5-6.8-5.7c-1.9-2.1-3.3-4.6-4.4-7.4-1-2.8-1.5-6-1.5-9.7 0-3.4.6-6.5 1.9-9.4 1.2-2.9 3-5.5 5.3-7.6 2.3-2.2 5-3.8 8.3-5 3.3-1.2 6.9-1.8 11-1.8 5.8 0 10.7 1.1 14.9 3.3 4.2 2.2 7.8 6 10.8 11.2l-14 9c-1.5-2.7-3.2-4.7-5-5.9-1.8-1.2-4-1.8-6.6-1.8-2.7 0-4.8.7-6.3 2.2-1.5 1.5-2.3 3.3-2.3 5.5 0 2.7.9 4.8 2.6 6.2 1.8 1.4 4.6 3 8.4 4.7l4.5 1.9c3.9 1.6 7.3 3.3 10.2 5.1 3 1.8 5.5 3.7 7.5 5.9s3.6 4.7 4.6 7.5c1.1 2.8 1.6 6.1 1.6 9.8 0 4-.8 7.6-2.3 10.7-1.5 3.1-3.6 5.8-6.2 7.9-2.7 2.1-5.8 3.8-9.5 4.8-3.6 1.1-7.6 1.6-11.9 1.6z"/></svg>