<svg version="1.2" baseProfile="tiny" xmlns="http://www.w3.org/2000/svg" viewBox="0 0 364.6 339"><path fill="#FDBA20" d="M256.6 150.2c-2.3 1.5-7.2 9.1-14.8 10.6s-17.1 1.2-19.3 1.8c-2.3.6-4.3 1.9-4.3 14.8v.2c0 12.9 2 14.2 4.3 14.8 2.3.6 11.7.3 19.3 1.8 7.6 1.5 12.5 9.1 14.8 10.6s2.7-.3 2.7-.3v-17.3l-8.3-2-8.3 2.6-6.7-1.3h6.9l8.1-3 8.3 1.7v-3.4h.1c2 0 3.7-1.3 4.3-3.1h3.3V176h-3.3c-.6-1.8-2.3-3.1-4.3-3.1h-.1v-22.2s-.4-2-2.7-.5z"/><path fill="#FEC218" d="M256.6 150.2c-2.3 1.5-7.2 9.1-14.8 10.6s-17.1 1.2-19.3 1.8c-2.3.6-4.3 1.9-4.3 14.8v.2c0 12.9 2 14.2 4.3 14.8 2.3.6 11.7.3 19.3 1.8 7.6 1.5 12.5 9.1 14.8 10.6s2.7-.3 2.7-.3v-17.3l-8.3-2-8.3 2.6-6.7-1.3h6.9l8.1-3 8.3 1.7v-3.4h.1c2 0 3.7-1.3 4.3-3.1h3.3V176h-3.3c-.6-1.8-2.3-3.1-4.3-3.1h-.1v-22.2s-.4-2-2.7-.5z"/><path d="M214.4 205.6c-1.3 0-2.6-.1-3.8-.4-1.2-.3-2.3-.8-3.3-1.5s-1.7-1.7-2.3-2.9c-.6-1.2-.9-2.7-.9-4.5v-8.8c0-1.5-.3-2.6-.9-3.3-.6-.7-1.6-1-2.8-1h-1.2v-7.4h1.2c1.3 0 2.2-.3 2.8-1 .6-.7.9-1.8.9-3.3v-11.7c0-1.8.3-3.3.9-4.5.6-1.2 1.4-2.2 2.3-2.9 1-.7 2-1.2 3.3-1.5 1.2-.3 2.5-.4 3.8-.4h3.1v7.4h-2.3c-.9 0-1.5.2-1.8.6-.3.4-.4.9-.4 1.7v12.5c0 2.3-.6 4-1.7 5s-2.6 1.6-4.4 1.9c1.8.3 3.2.9 4.4 1.9 1.1 1 1.7 2.6 1.7 5v9.7c0 .7.1 1.3.4 1.7.3.4.9.6 1.8.6h2.3v7.4h-3.1zm105.9-7.4h2.3c.9 0 1.5-.2 1.8-.6.3-.4.4-.9.4-1.7v-9.7c0-2.3.6-4 1.7-5s2.5-1.6 4.3-1.9c-1.8-.3-3.2-.9-4.3-1.9-1.1-1-1.7-2.6-1.7-5l-.1-12.5c0-.7-.1-1.3-.4-1.7-.3-.4-.9-.6-1.8-.6h-2.3v-7.4h3.1c1.3 0 2.6.1 3.8.4 1.2.3 2.3.8 3.3 1.5s1.7 1.7 2.3 2.9c.6 1.2.9 2.7.9 4.5v11.7c0 1.5.3 2.6.9 3.3.6.7 1.6 1 2.8 1h1.2v7.4h-1.2c-1.3 0-2.2.3-2.8 1-.6.7-.9 1.8-.9 3.3v8.8c0 1.8-.3 3.3-.9 4.5-.6 1.2-1.4 2.2-2.3 2.9-1 .7-2 1.2-3.3 1.5-1.2.3-2.5.4-3.8.4h-3.1v-7.1zM26.1 156.6h7.8v30.8H51v6.8H26.1v-37.6zm34.1 10.2c-1.3 0-2.4-.4-3.3-1.3-.9-.9-1.4-2-1.4-3.4s.5-2.5 1.4-3.3c.9-.9 2.1-1.3 3.3-1.3 1.3 0 2.4.4 3.3 1.3.9.9 1.4 2 1.4 3.3 0 1.4-.5 2.5-1.4 3.4-.9.8-2 1.3-3.3 1.3zm-3.7 3.9H64v23.6h-7.5v-23.6zm28.3 24.1c-1.8 0-3.3-.3-4.6-1-1.2-.7-2.2-1.7-2.9-2.9l.2 3.4H70v-40h7.5V174c.8-1.2 1.8-2.1 2.9-2.8 1.2-.7 2.7-1 4.5-1 1.4 0 2.8.3 4.1.9 1.3.6 2.4 1.4 3.3 2.5 1 1.1 1.7 2.4 2.3 3.9.6 1.5.8 3.1.8 5s-.3 3.5-.9 5c-.6 1.5-1.3 2.8-2.3 3.9-1 1.1-2.1 1.9-3.4 2.5-1.2.6-2.6.9-4 .9zm-2.2-6.6c1.6 0 2.8-.5 3.7-1.5.9-1 1.4-2.4 1.4-4.3 0-1.8-.5-3.2-1.4-4.2-.9-1-2.2-1.5-3.7-1.5-1.6 0-2.9.5-3.9 1.5s-1.4 2.4-1.4 4.2c0 1.9.5 3.3 1.4 4.3 1 1 2.3 1.5 3.9 1.5zm24.8-3.5c.4 1.2 1.1 2.2 2 2.8 1 .7 2.3 1 4 1 1.4 0 2.5-.2 3.5-.6 1-.4 1.8-.8 2.4-1.2l4.3 4.6c-1.1 1-2.5 1.8-4 2.5-1.6.7-3.6 1-6 1-2.1 0-4-.3-5.7-.9-1.7-.6-3.2-1.5-4.4-2.5-1.2-1.1-2.2-2.4-2.8-3.9-.6-1.5-1-3.2-1-5 0-1.8.3-3.4 1-4.9.7-1.5 1.6-2.8 2.8-3.9 1.2-1.1 2.6-1.9 4.1-2.5 1.6-.6 3.3-.9 5.1-.9 2.1 0 4 .4 5.6 1.1 1.6.7 3 1.8 4 3.1 1.1 1.3 1.9 2.9 2.4 4.6.5 1.8.7 3.7.5 5.8h-17.8zm10.3-4.3c-.2-1.3-.7-2.3-1.5-3-.8-.7-2-1.1-3.4-1.1s-2.7.3-3.7 1-1.6 1.7-1.9 3.1h10.5zm12.7-9.7h7.5l-.1 4.3c.4-1 .9-1.8 1.5-2.4.5-.6 1.1-1.1 1.7-1.5s1.2-.6 1.9-.7c.6-.1 1.3-.2 1.9-.2.8 0 1.5.1 2 .3.6.2 1.1.4 1.6.7L146 178c-.5-.2-1-.4-1.4-.5-.5-.1-1-.2-1.5-.2-1.7 0-3 .5-3.9 1.4-.9.9-1.3 2.7-1.3 5.2v10.5h-7.5v-23.7zm32.2 24.2c-1.2 0-2.3-.2-3.3-.5s-1.9-.8-2.6-1.6c-.7-.8-1.3-1.7-1.7-2.9-.4-1.2-.6-2.7-.6-4.5v-8.5h-3.5v-6.2h3.5v-12.3h7.5v12.3h6v6.2h-6v8.7c0 1.2.2 2 .5 2.3.4.4.8.6 1.4.6.6 0 1.2-.1 1.6-.4.4-.2.8-.5 1-.6l2.8 5.2c-.6.5-1.4 1-2.4 1.4-1.1.5-2.5.8-4.2.8zm17.5-2.8l-9.4-21.4h8.2l3.4 9.1c.2.6.4 1.2.6 1.9.2.7.4 1.4.6 2 .2.7.4 1.5.5 2.2.1-.7.3-1.5.4-2.2.1-.6.3-1.3.5-2s.4-1.3.6-1.9l3.7-9.1h7.6L181.5 206H174l6.1-13.9zm95.1 5.7c-1.6 0-2.9-.2-4.2-.6-1.2-.4-2.3-.9-3.3-1.5s-1.8-1.4-2.5-2.3c-.7-.9-1.3-1.8-1.7-2.7l6.3-3.8c.6 1.1 1.2 2 1.9 2.8.7.8 1.7 1.2 3 1.2.6 0 1.2-.1 1.7-.2s1-.4 1.3-.8c.4-.4.6-.9.8-1.5.2-.6.3-1.4.3-2.4v-26.4h7.8v26.5c0 2-.3 3.7-.8 5.2-.6 1.5-1.3 2.7-2.4 3.7-1 1-2.3 1.7-3.7 2.1-1.3.5-2.8.7-4.5.7zm29.9 0c-1.8 0-3.5-.2-4.9-.6-1.5-.4-2.8-1-4-1.6-1.2-.7-2.2-1.5-3.1-2.5-.9-1-1.6-2-2.1-3.1l6.3-3.7c.8 1.4 1.9 2.5 3 3.4 1.2.9 2.7 1.3 4.6 1.3 1.6 0 2.9-.4 3.8-1.1.9-.7 1.4-1.6 1.4-2.7 0-1.3-.5-2.3-1.5-3-1-.7-2.4-1.4-4.2-2.2l-1.9-.8c-1.4-.6-2.7-1.2-3.8-1.9-1.1-.7-2.1-1.5-2.9-2.4-.8-.9-1.4-2-1.9-3.2-.4-1.2-.7-2.6-.7-4.2 0-1.4.3-2.8.8-4 .5-1.3 1.3-2.3 2.3-3.3 1-.9 2.2-1.6 3.6-2.2s3-.8 4.7-.8c2.5 0 4.6.5 6.4 1.4 1.8.9 3.3 2.6 4.6 4.8l-6 3.9c-.7-1.2-1.4-2-2.2-2.5-.8-.5-1.7-.8-2.8-.8-1.1 0-2 .3-2.7.9-.7.6-1 1.4-1 2.4 0 1.2.4 2.1 1.1 2.7.8.6 2 1.3 3.6 2l1.9.8c1.7.7 3.1 1.4 4.4 2.2 1.3.8 2.3 1.6 3.2 2.5.9.9 1.5 2 2 3.2.5 1.2.7 2.6.7 4.2 0 1.7-.3 3.3-1 4.6-.6 1.3-1.5 2.5-2.7 3.4-1.1.9-2.5 1.6-4.1 2.1-1.4.6-3.1.8-4.9.8z"/></svg>