<svg width="59" height="46" viewBox="0 0 59 46" fill="none" xmlns="http://www.w3.org/2000/svg">
<mask id="mask0_17_186" style="mask-type:luminance" maskUnits="userSpaceOnUse" x="0" y="0" width="59" height="46">
<path d="M0 0H58.853V46H0V0Z" fill="white"/>
</mask>
<g mask="url(#mask0_17_186)">
<path d="M51.8294 0.0126953H7.00205C6.54328 0.0126953 6.08883 0.056455 5.63653 0.143975C5.18638 0.231495 4.74916 0.358607 4.32486 0.529479C3.8984 0.700351 3.49564 0.908732 3.11441 1.1567C2.73104 1.40468 2.37781 1.68391 2.05258 1.99856C1.72736 2.31322 1.43659 2.65496 1.18244 3.02588C0.92614 3.39471 0.710759 3.78647 0.534146 4.19698C0.357533 4.60749 0.223996 5.0305 0.13569 5.46601C0.0452298 5.90361 0 6.3433 0 6.78923V39.3153C0 39.7592 0.0452298 40.201 0.13569 40.6365C0.223996 41.072 0.357533 41.4971 0.534146 41.9076C0.710759 42.3181 0.92614 42.7078 1.18244 43.0787C1.43659 43.4475 1.72736 43.7893 2.05258 44.1039C2.37781 44.4186 2.73104 44.6999 3.11441 44.9479C3.49564 45.1938 3.8984 45.4021 4.32486 45.573C4.74916 45.7439 5.18638 45.8731 5.63653 45.9606C6.08883 46.046 6.54328 46.0919 7.00205 46.0919H51.8294C52.2881 46.0919 52.7447 46.046 53.1949 45.9606C53.645 45.8731 54.0822 45.7439 54.5087 45.573C54.933 45.4021 55.3358 45.1938 55.7191 44.9479C56.1004 44.6999 56.4536 44.4186 56.7788 44.1039C57.104 43.7893 57.3948 43.4475 57.649 43.0787C57.9053 42.7078 58.1206 42.3181 58.2973 41.9076C58.4739 41.4971 58.6074 41.072 58.6979 40.6365C58.7862 40.201 58.8314 39.7592 58.8336 39.3153V6.78923C58.8314 6.3433 58.7862 5.90361 58.6979 5.46601C58.6074 5.0305 58.4739 4.60749 58.2973 4.19698C58.1206 3.78647 57.9053 3.39471 57.649 3.02588C57.3948 2.65496 57.104 2.31322 56.7788 1.99856C56.4536 1.68391 56.1004 1.40468 55.7191 1.1567C55.3358 0.908732 54.933 0.700351 54.5087 0.529479C54.0822 0.358607 53.645 0.231495 53.1949 0.143975C52.7447 0.056455 52.2881 0.0126953 51.8294 0.0126953ZM56.0314 39.3153C56.0314 39.5821 56.0034 39.8467 55.9496 40.1072C55.8958 40.3698 55.8161 40.624 55.7105 40.8699C55.605 41.1158 55.4758 41.3512 55.3207 41.5721C55.1678 41.7951 54.9933 41.9993 54.7995 42.1889C54.6035 42.3765 54.3924 42.5452 54.1619 42.6932C53.9336 42.8432 53.6903 42.9683 53.4361 43.0704C53.182 43.1725 52.9192 43.2496 52.6478 43.3017C52.3786 43.3538 52.105 43.3809 51.8294 43.3809H7.00205C6.72636 43.3809 6.45498 43.3538 6.1836 43.3017C5.91222 43.2496 5.64945 43.1725 5.3953 43.0704C5.14115 42.9683 4.89777 42.8432 4.66947 42.6932C4.44116 42.5452 4.22794 42.3765 4.03194 42.1889C3.83809 41.9993 3.66364 41.7951 3.51072 41.5721C3.3578 41.3512 3.22641 41.1158 3.12088 40.8699C3.01534 40.624 2.93565 40.3698 2.8818 40.1072C2.82796 39.8467 2.79996 39.5821 2.79996 39.3153V6.78923C2.79996 6.5225 2.82796 6.25786 2.8818 5.9953C2.93565 5.73482 3.01534 5.4806 3.12088 5.23263C3.22641 4.98674 3.3578 4.75335 3.51072 4.53039C3.66364 4.3095 3.83809 4.10321 4.03194 3.91566C4.22794 3.72604 4.44116 3.55725 4.66947 3.4093C4.89777 3.26135 5.14115 3.13632 5.3953 3.03421C5.64945 2.93211 5.91222 2.85292 6.1836 2.80083C6.45498 2.74873 6.72636 2.72373 7.00205 2.72373H51.8294C52.105 2.72373 52.3786 2.74873 52.6478 2.80083C52.9192 2.85292 53.182 2.93211 53.4361 3.03421C53.6903 3.13632 53.9336 3.26135 54.1619 3.4093C54.3924 3.55725 54.6035 3.72604 54.7995 3.91566C54.9933 4.10321 55.1678 4.3095 55.3207 4.53039C55.4758 4.75335 55.605 4.98674 55.7105 5.23263C55.8161 5.4806 55.8958 5.73482 55.9496 5.9953C56.0034 6.25786 56.0314 6.5225 56.0314 6.78923V39.3153ZM24.8033 22.0927C24.9347 22.2198 25.0359 22.3678 25.107 22.5324C25.1781 22.6991 25.2125 22.872 25.2125 23.0512C25.2125 23.2305 25.1781 23.4034 25.107 23.5701C25.0359 23.7368 24.9347 23.8827 24.8033 24.0098L13.597 34.8518C13.4656 34.9748 13.3127 35.0706 13.1426 35.1352C12.9724 35.2019 12.7958 35.2332 12.6106 35.2332C12.4275 35.2311 12.2509 35.1957 12.0829 35.1269C11.9127 35.0581 11.762 34.9602 11.6327 34.8352C11.5035 34.7101 11.4023 34.5643 11.3312 34.4017C11.2601 34.2371 11.2235 34.0662 11.2235 33.8891C11.2214 33.712 11.2537 33.539 11.3226 33.3744C11.3915 33.2098 11.4884 33.0639 11.6155 32.9347L21.8311 23.0512L11.6155 13.1678C11.4884 13.0406 11.3894 12.8927 11.3226 12.7281C11.2537 12.5635 11.2214 12.3926 11.2235 12.2155C11.2235 12.0363 11.2601 11.8654 11.3312 11.7028C11.4023 11.5382 11.5035 11.3944 11.6327 11.2673C11.762 11.1423 11.9127 11.0444 12.0807 10.9756C12.2509 10.9068 12.4275 10.8735 12.6106 10.8714C12.7958 10.8693 12.9724 10.9027 13.1426 10.9673C13.3127 11.0339 13.4635 11.1277 13.597 11.2507L24.8033 22.0927ZM47.6273 33.8933C47.6273 34.0746 47.5907 34.2475 47.5196 34.4122C47.4485 34.5789 47.3473 34.7247 47.2159 34.8518C47.0845 34.979 46.9337 35.0769 46.7614 35.1457C46.5891 35.2144 46.4104 35.2498 46.2251 35.2498H29.4168C29.2294 35.2498 29.0506 35.2144 28.8805 35.1457C28.7082 35.0769 28.5574 34.979 28.426 34.8518C28.2946 34.7247 28.1934 34.5789 28.1223 34.4122C28.0513 34.2475 28.0146 34.0746 28.0146 33.8933C28.0146 33.7141 28.0513 33.5411 28.1223 33.3744C28.1934 33.2098 28.2946 33.0618 28.426 32.9347C28.5574 32.8076 28.7082 32.7097 28.8805 32.6409C29.0506 32.5722 29.2294 32.5388 29.4168 32.5388H46.2251C46.4104 32.5388 46.5891 32.5722 46.7614 32.6409C46.9337 32.7097 47.0845 32.8076 47.2159 32.9347C47.3473 33.0618 47.4485 33.2098 47.5196 33.3744C47.5907 33.5411 47.6273 33.7141 47.6273 33.8933Z" fill="white"/>
</g>
</svg>
