<svg width="363" height="354" viewBox="0 0 363 354" fill="none" xmlns="http://www.w3.org/2000/svg">
<path d="M161.542 1.47061C137.329 6.983 117.917 20.1125 103.92 40.4582C99.7311 46.572 94.1119 58.3985 92.5794 64.412L91.3534 68.9222L75.4152 69.5236C58.3532 70.0247 53.1427 71.1271 42.4151 76.2386C22.6968 85.5596 7.67814 103.6 2.05893 124.347C-0.49526 134.269 -0.290925 151.808 2.67193 161.43C8.39332 180.172 19.4274 194.504 36.0807 204.427C42.6194 208.436 55.5947 213.046 62.5421 214.048L67.8548 214.75L66.118 217.857C64.7898 220.463 64.3811 224.973 64.1768 240.508C63.7681 262.557 64.4833 266.466 69.8982 273.482L73.3719 277.892L70.7155 280.598C69.3873 282.001 67.2418 285.409 66.118 288.015C64.1768 292.424 63.9725 294.93 63.9725 312.67V332.515L67.0375 338.528C68.7743 342.036 71.8394 345.844 74.1892 347.749C82.3626 354.163 77.0499 353.963 186.574 353.662L286.187 353.361L290.274 351.156C295.893 348.25 300.49 343.239 303.147 337.325C305.088 333.116 305.497 330.009 305.905 316.98L306.416 301.745H319.596C333.695 301.745 336.964 300.944 343.196 296.333C345.138 294.93 347.998 291.322 349.633 288.516L352.596 283.204V244.116C352.596 205.028 352.596 205.028 350.246 200.618C348.918 198.213 346.772 195.206 345.444 193.903L342.992 191.498L347.896 185.183C353.413 178.067 358.419 167.043 360.871 156.719C362.097 151.708 362.404 146.998 361.995 138.879C361.076 119.335 354.23 104.101 339.927 90.2701C330.834 81.4503 322.048 76.2386 310.707 72.6305C303.964 70.4256 299.673 69.9244 286.902 69.3231L271.27 68.7217L268.41 60.5033C262.382 43.3647 249.917 26.9278 235.001 16.5044C227.441 11.1924 213.75 4.67783 205.475 2.47287C196.995 0.167694 169.92 -0.433685 161.542 1.47061ZM196.79 15.1012C226.419 21.0145 249.611 42.8636 257.069 71.7285C258.193 76.1384 259.828 80.3478 260.747 81.2499C261.973 82.4526 266.264 82.8535 281.896 83.3546C299.366 83.8557 302.227 84.1564 308.153 86.3614C338.19 97.4864 354.639 129.458 345.444 158.924C342.89 167.143 337.884 175.862 331.754 182.778L328.382 186.486H317.246H306.11V173.658C306.11 155.817 304.986 150.105 300.184 143.39C297.221 139.28 294.667 137.075 290.274 134.87L284.246 131.864H185.143C105.759 131.864 85.2233 132.164 82.1583 133.167C75.9261 135.372 68.4678 142.688 66.118 149.002C64.279 153.813 63.9725 156.82 63.9725 172.856C63.9725 185.885 64.3811 192.6 65.4028 195.908L66.9353 200.718L63.1551 200.017C41.2913 196.008 23.0033 179.471 16.3624 157.822C13.9104 149.804 13.9104 133.968 16.3624 125.85C21.8794 107.409 38.5327 90.8715 57.3316 85.2589C59.5793 84.5573 70.0003 83.6553 80.4214 83.3546C103 82.653 102.694 82.7533 105.35 71.9289C106.27 67.9199 109.131 60.403 111.685 55.1913C115.669 47.0731 117.61 44.4672 125.682 36.6497C136.205 26.4267 144.583 21.215 156.332 17.5067C171.861 12.6958 181.976 12.0945 196.79 15.1012ZM283.02 146.797C284.859 147.499 287.311 149.403 288.537 150.906C290.682 153.512 290.784 154.815 290.784 170.049V186.486H259.317H227.849L222.23 189.192C218.654 191.097 215.487 193.602 213.137 196.709L209.561 201.52H149.998C84.8146 201.52 86.245 201.62 81.0344 195.607L78.2759 192.299V173.758C78.2759 152.61 78.8889 150.506 85.9385 147.298C89.8208 145.494 94.9292 145.394 184.837 145.394C263.097 145.394 280.159 145.594 283.02 146.797ZM228.156 202.723C231.119 205.629 233.571 208.636 233.571 209.438C233.571 211.643 224.273 220.563 222.128 220.563C219.165 220.563 219.982 217.456 224.069 213.347L227.849 209.538L224.069 205.73C220.493 202.122 219.471 199.616 221.004 198.213C222.128 197.01 222.639 197.311 228.156 202.723ZM256.558 216.855C260.134 219.46 257.273 220.563 247.363 220.563C237.453 220.563 234.592 219.46 238.168 216.855C239.394 216.053 242.868 215.552 247.363 215.552C251.859 215.552 255.332 216.053 256.558 216.855ZM110.97 238.102C113.422 240.307 113.626 245.319 111.276 247.824C108.824 250.53 97.4834 250.43 94.6227 247.624C90.9447 244.016 92.4772 238.303 97.6877 236.298C100.548 235.096 108.926 236.298 110.97 238.102ZM146.728 238.102C149.385 240.408 149.385 245.018 146.728 247.624C144.072 250.23 133.038 250.53 130.177 247.924C126.499 244.717 128.338 238.303 133.446 236.298C136.307 235.096 144.685 236.298 146.728 238.102ZM208.029 242.612V249.728L198.221 249.428C188.821 249.127 188.208 249.027 186.267 246.421C184.53 244.116 184.428 243.314 185.45 240.808C187.187 236.699 189.843 235.697 199.651 235.697L208.029 235.597V242.612ZM210.481 286.912C211.4 290.821 217.019 296.433 222.536 299.14L227.849 301.745H259.317H290.784V316.879V332.013L286.8 335.922L282.815 339.831H184.632H86.4493L82.5669 336.423L78.7868 333.016L78.4802 313.772C78.1737 295.531 78.2759 294.529 80.4214 291.122C84.5081 284.607 82.7713 284.807 149.385 284.707H209.868L210.481 286.912Z" fill="#FAF9F6"/>
<path d="M94.6227 168.446C91.6599 171.353 91.9664 175.863 95.2357 178.368C98.3008 180.774 105.146 181.175 109.335 179.371C114.137 177.166 114.648 169.849 110.05 167.544C108.926 166.943 105.452 166.441 102.387 166.441C97.9942 166.441 96.1552 166.943 94.6227 168.446Z" fill="#FAF9F6"/>
<path d="M130.381 168.446C128.338 170.45 127.725 174.96 129.155 177.065C130.484 179.07 134.264 180.473 138.555 180.473C145.4 180.473 148.772 178.067 148.772 173.156C148.772 168.546 145.604 166.441 138.555 166.441C133.753 166.441 132.016 166.842 130.381 168.446Z" fill="#FAF9F6"/>
<path d="M186.982 169.047C184.939 170.951 184.53 172.154 185.041 174.259C186.471 180.072 185.245 179.972 228.258 180.272C250.02 180.473 269.329 180.272 271.066 179.972C277.4 178.869 279.035 170.35 273.518 167.544C272.19 166.842 257.478 166.441 230.506 166.441H189.536L186.982 169.047Z" fill="#FAF9F6"/>
<path d="M94.6227 307.759C92.0685 310.265 91.9664 314.975 94.5206 317.18C97.1769 319.485 103.716 320.287 108.211 318.884C112.298 317.581 114.341 313.672 112.911 310.064C111.787 306.957 108.824 305.754 102.387 305.754C97.9943 305.754 96.1552 306.256 94.6227 307.759Z" fill="#FAF9F6"/>
<path d="M130.586 307.358C127.929 309.162 127.521 314.775 129.871 317.18C133.242 320.488 143.152 320.488 146.932 317.08C149.385 314.975 149.282 310.265 146.728 307.759C144.174 305.253 134.059 304.953 130.586 307.358Z" fill="#FAF9F6"/>
<path d="M186.676 308.36C184.326 311.367 184.326 311.367 185.143 314.574C186.574 319.586 188.515 319.786 230.914 319.786C257.58 319.786 271.066 319.385 272.701 318.684C277.809 316.378 278.32 309.363 273.518 306.857C272.19 306.156 257.376 305.755 230.097 305.755H188.719L186.676 308.36Z" fill="#FAF9F6"/>
</svg>
