<svg xmlns="http://www.w3.org/2000/svg" width="200" height="71.544" viewBox="470.835 397.97 200 71.544" enable-background="new 470.835 397.97 200 71.544"><path d="M494.152 438.58c0 1.522 1.015 2.578 3.045 3.168.508.15.883.32 1.126.514.243.193.365.557.365 1.092 0 .28-.164.52-.492.723-.328.203-.682.305-1.063.305-.402 0-.947-.095-1.634-.286-.69-.19-1.25-.286-1.67-.286-.49 0-1.1.095-1.84.286-.74.19-1.24.286-1.49.286-.3 0-.59-.106-.88-.317-.286-.21-.43-.423-.43-.634 0-.33-.104-.5-.315-.5-.148 0-.34.076-.57.22-2.39 1.48-4.97 2.22-7.74 2.22-1.314 0-2.778-.34-4.396-1.01s-2.915-1.718-3.887-3.125c-.973-1.405-1.46-3.145-1.46-5.22 0-2.2 1.05-4.143 3.152-5.835 2.1-1.693 4.807-2.54 8.12-2.54 1.12 0 2.35.31 3.69.936 1.34.626 2.01 1.266 2.01 1.92 0 .318-.137.57-.41.76-.276.19-.615.287-1.016.287-.275 0-.814-.19-1.618-.57-.805-.383-1.63-.573-2.475-.573-1.733 0-3.17.51-4.313 1.534-1.14 1.023-1.712 2.388-1.712 4.097 0 1.986.655 3.51 1.967 4.575 1.31 1.064 2.822 1.597 4.536 1.597 1.543 0 2.965-.51 4.266-1.523 1.3-1.016 1.95-2.37 1.95-4.06v-8.6c0-1.29-.426-2.337-1.28-3.14-.856-.805-2-1.207-3.435-1.207-1.835 0-3.62.58-5.347 1.747-.59.4-.99.602-1.2.602-.51 0-.94-.133-1.3-.398-.36-.264-.538-.61-.538-1.03 0-1.04.947-1.915 2.84-2.634 1.89-.72 3.96-1.08 6.2-1.08 2.77 0 5.003.698 6.696 2.092 1.69 1.394 2.536 3.052 2.536 4.973v10.643zm11.262 10.35c.127-1.202.19-4.536.19-10.003 0-2.638-.063-6.49-.19-11.554-.043-.527-.26-.986-.65-1.376-.39-.39-1.21-.692-2.46-.903-.95-.15-1.57-.332-1.855-.546s-.43-.482-.43-.803c0-.835.65-1.253 1.97-1.253.25 0 .88.1 1.88.3.99.202 1.62.302 1.87.302.275 0 .85-.122 1.72-.365.87-.25 1.41-.37 1.623-.37.57 0 .932.122 1.08.38.15.25.223.64.223 1.17v11.18c0 2.28.72 4.09 2.157 5.43 1.44 1.34 3.12 2.01 5.045 2.01.93 0 2.12-.405 3.57-1.217 1.446-.81 2.58-1.987 3.39-3.525.814-1.54 1.22-3.278 1.22-5.217 0-2.297-.702-4.34-2.11-6.133-1.406-1.79-3.04-2.688-4.9-2.688-1.12 0-2.152.204-3.093.62-.94.41-1.56.616-1.856.616-.296 0-.56-.095-.793-.286-.233-.19-.35-.423-.35-.698 0-.62.777-1.257 2.33-1.91 1.55-.65 2.886-.98 4.005-.98 3.42 0 6.286 1.09 8.598 3.27 2.313 2.178 3.47 5.14 3.47 8.883 0 2.897-1.193 5.56-3.58 7.993-2.385 2.433-5.257 3.65-8.615 3.65-1.288 0-2.507-.17-3.658-.51-1.15-.34-2.657-1.12-4.515-2.347-.17 0-.254.54-.254 1.62 0 2.687-.18 4.733-.54 6.14-.36 1.406-.977 2.63-1.848 3.664-.87 1.035-1.726 1.77-2.565 2.204-.838.432-1.65.65-2.435.65-1.166 0-1.75-.28-1.75-.84 0-.24.264-.498.793-.78 1.27-.695 2.136-1.6 2.6-2.705.47-1.108.7-2.136.7-3.086zm32.232 0c.127-1.202.19-4.536.19-10.003 0-2.638-.063-6.49-.19-11.554-.043-.527-.26-.986-.65-1.376-.39-.39-1.21-.692-2.46-.903-.95-.15-1.57-.332-1.855-.546s-.42-.482-.42-.803c0-.835.66-1.253 1.975-1.253.255 0 .88.1 1.878.3.998.202 1.623.302 1.878.302.277 0 .85-.122 1.72-.365.87-.25 1.41-.37 1.624-.37.573 0 .934.122 1.08.38.15.25.225.64.225 1.17v11.18c0 2.28.72 4.09 2.157 5.43 1.438 1.34 3.12 2.01 5.044 2.01.93 0 2.12-.405 3.57-1.217 1.45-.81 2.58-1.987 3.395-3.525.816-1.54 1.223-3.278 1.223-5.217 0-2.297-.703-4.34-2.11-6.133-1.407-1.79-3.04-2.688-4.9-2.688-1.122 0-2.153.204-3.094.62-.94.41-1.56.616-1.855.616-.297 0-.56-.095-.794-.286-.234-.19-.35-.423-.35-.698 0-.62.776-1.257 2.328-1.91 1.55-.65 2.888-.98 4.007-.98 3.42 0 6.287 1.09 8.6 3.27 2.31 2.178 3.467 5.14 3.467 8.883 0 2.897-1.192 5.56-3.58 7.993-2.384 2.433-5.256 3.65-8.614 3.65-1.288 0-2.508-.17-3.658-.51-1.15-.34-2.658-1.12-4.516-2.347-.17 0-.253.54-.253 1.62 0 2.687-.18 4.733-.54 6.14-.36 1.406-.976 2.63-1.847 3.664-.87 1.035-1.725 1.77-2.564 2.204-.84.432-1.65.65-2.434.65-1.167 0-1.75-.28-1.75-.84 0-.24.263-.498.792-.78 1.27-.695 2.136-1.6 2.6-2.705.467-1.108.7-2.136.7-3.086z" enable-background="new" fill="#EB3C00"/><path d="M588.244 439.75c.593 0 .89.494.89 1.482 0 .63-1.068 1.446-3.204 2.444s-4.378 1.498-6.725 1.498c-3.85 0-7.15-1.17-9.898-3.505-2.75-2.34-4.124-5.29-4.124-8.84 0-3.15 1.3-5.92 3.902-8.31 2.6-2.39 5.71-3.59 9.327-3.59 1.946 0 4.156.4 6.63 1.2 2.474.8 3.712 1.528 3.712 2.18 0 1.18.063 2.14.19 2.877s.19 1.16.19 1.264c0 .95-.44 1.424-1.318 1.424-.665 0-1.183-.633-1.553-1.9-.37-1.27-1.147-2.28-2.332-3.03-1.18-.75-2.64-1.128-4.37-1.128-2.18 0-4.2.805-6.073 2.42-1.872 1.61-2.81 3.892-2.81 6.842 0 2.715 1.05 4.94 3.148 6.67 2.098 1.73 4.28 2.592 6.547 2.592.826 0 1.684-.108 2.574-.32.89-.21 1.88-.643 2.97-1.3 1.094-.653 1.87-.98 2.34-.98zm12.913-.158c0 .57.148 1.058.444 1.46.3.4.96.686 1.97.856 1.02.17 1.64.383 1.86.64.22.257.336.58.336.964 0 .686-.52 1.03-1.56 1.03-.635 0-1.58-.08-2.83-.24-1.25-.158-2.193-.237-2.83-.237-.592 0-1.46.08-2.605.238-1.145.16-2.014.238-2.607.238-.847 0-1.393-.09-1.637-.28-.246-.193-.367-.46-.367-.803s.1-.633.3-.87c.2-.234.835-.43 1.903-.59 1.067-.16 1.765-.506 2.093-1.046.33-.54.496-1.167.496-1.886V404.86c0-.74-.17-1.39-.51-1.95-.34-.56-1.034-.967-2.092-1.22-1.057-.254-1.686-.51-1.887-.766-.2-.257-.3-.547-.3-.87 0-.32.174-.577.524-.77.35-.194.717-.29 1.1-.29.34 0 .842.063 1.51.19.67.127 1.162.19 1.48.19.36 0 .902-.063 1.623-.19s1.26-.19 1.623-.19c.68 0 1.176.18 1.494.54.32.36.478 1.004.478 1.934V439.6zm17.163-.984c0 1.036.394 1.893 1.18 2.57.788.677 1.728 1.015 2.82 1.015.673 0 1.466-.27 2.38-.81s1.58-.808 2-.808c.42 0 .63.26.63.776 0 .61-.786 1.36-2.358 2.27s-3.35 1.37-5.333 1.37c-1.55 0-2.89-.472-4.04-1.422s-1.82-2.006-2-3.17c-.18-1.16-.27-5.51-.27-13.047 0-1.013-1.036-1.752-3.11-2.217-.91-.193-1.363-.547-1.363-1.063 0-.345.143-.61.43-.807.286-.19.642-.29 1.066-.29.127 0 .747.087 1.862.256 1.112.17 2.05.254 2.816.254.278 0 .687-.08 1.228-.237.54-.16.876-.24 1.003-.24.7 0 1.05 1.438 1.05 4.313v11.296zm10.437-10.822c0-1.52-.825-2.396-2.474-2.63-.994-.15-1.618-.336-1.872-.56-.25-.225-.38-.51-.38-.852 0-.792.61-1.188 1.82-1.188.32 0 .96.11 1.928.333.965.22 2 .33 3.103.33.297 0 .668-.04 1.114-.13.446-.088.72-.13.828-.13.575 0 .86.643.86 1.93 0 9.734.085 14.91.255 15.535.17.623 1.027 1.125 2.57 1.504.805.214 1.3.406 1.49.58s.288.373.288.61c0 .28-.174.535-.524.77-.35.237-.803.355-1.355.355-.233 0-.805-.074-1.72-.22-.91-.15-1.56-.224-1.94-.224-.404 0-.89.076-1.464.224-.572.147-.954.22-1.145.22-.466 0-.784-.126-.954-.38-.17-.252-.28-.875-.333-1.87-.054-.99-.08-2.9-.08-5.73v-8.488zm21.572 15.137c-.13.127-.26.344-.39.65-.128.306-.28.534-.46.682-.18.148-.504.222-.97.222-.36 0-.925-.09-1.697-.27-.773-.18-1.38-.27-1.825-.27s-1.064.09-1.857.27c-.792.18-1.39.27-1.79.27-.487 0-.91-.123-1.27-.37-.36-.246-.54-.584-.54-1.013 0-.28.107-.514.317-.707.21-.193.94-.416 2.193-.67 1.25-.252 2.103-.738 2.555-1.456.45-.71.68-1.57.68-2.56v-32.56c0-1.75-.415-2.975-1.23-3.67-.467-.4-1.208-.677-2.228-.824-1.02-.15-1.633-.345-1.843-.59-.21-.247-.315-.542-.315-.885 0-.34.205-.625.62-.85.41-.225.81-.34 1.19-.34.42 0 1.045.09 1.87.27.825.18 1.44.27 1.84.27.38 0 .92-.066 1.62-.204.696-.136 1.214-.205 1.553-.205.634 0 1.1.174 1.396.523.296.35.444 1 .444 1.952v37.11c0 1.314.808 2.48 2.423 3.508 1.614 1.025 3.14 1.54 4.575 1.54 1.643 0 3.384-.7 5.22-2.096 1.835-1.396 2.753-3.712 2.753-6.948 0-2.518-.727-4.67-2.183-6.457-1.457-1.787-3.346-2.68-5.666-2.68-.885 0-1.798.242-2.737.73-.94.486-1.556.73-1.85.73-.254 0-.513-.112-.776-.334-.265-.223-.397-.44-.397-.65 0-.953.813-1.788 2.44-2.507 1.625-.72 3.06-1.08 4.306-1.08 3.465 0 6.35 1.244 8.664 3.73 2.312 2.484 3.468 5.514 3.468 9.088 0 3.28-1.21 5.98-3.625 8.106-2.42 2.126-5.337 3.19-8.76 3.19-1.73 0-3.925-.697-6.586-2.088l-1.144-.547z"/><path d="M546.77 460.273c.536.197.966.484 1.292.86.325.38.488.815.488 1.31v2.922c0 .723.08 1.396.243 2.018.162.622.458 1.148.89 1.58.09.09.133.15.133.18 0 .248-.044.372-.133.372-.108 0-.367-.12-.776-.362-.41-.24-.826-.58-1.25-1.014-.425-.44-.723-1.01-.895-1.7-.07-.28-.105-.73-.105-1.37v-2.57c0-.47-.13-.87-.39-1.2-.26-.34-.6-.58-1.018-.74v-.58c.41-.154.75-.39 1.01-.716.26-.324.39-.704.39-1.14v-2.57c0-.838.06-1.394.19-1.666.15-.533.43-1.007.83-1.423.4-.415.802-.746 1.22-.99.41-.244.673-.366.79-.366.09 0 .13.124.13.37l-.133.182c-.43.43-.727.954-.89 1.573-.16.62-.24 1.294-.24 2.023v2.92c0 .47-.166.888-.49 1.253-.328.365-.76.64-1.294.833zm9.774 6.11l-.114.195c-.038.092-.084.16-.138.205-.054.044-.15.067-.29.067-.108 0-.278-.027-.51-.08-.23-.055-.413-.082-.546-.082s-.32.027-.557.08c-.24.055-.42.082-.54.082-.15 0-.28-.037-.38-.11-.11-.075-.17-.176-.17-.305 0-.084.03-.154.094-.212.063-.058.283-.125.66-.2.374-.077.63-.222.766-.438.137-.215.205-.472.205-.77v-9.77c0-.525-.12-.892-.37-1.1-.136-.122-.36-.204-.664-.248-.304-.044-.49-.103-.552-.177-.063-.074-.095-.162-.095-.265 0-.103.062-.188.186-.256s.242-.11.356-.11c.127 0 .314.026.56.08.25.054.43.08.554.08.114 0 .276-.02.485-.062.205-.04.36-.06.462-.06.19 0 .33.052.42.156.087.104.13.3.13.585v11.133c0 .394.243.744.727 1.052.486.308.944.462 1.374.462.494 0 1.016-.21 1.567-.63.55-.42.828-1.115.828-2.085 0-.755-.218-1.4-.655-1.937-.434-.537-1-.805-1.7-.805-.262 0-.54.074-.82.22-.28.146-.464.22-.553.22-.077 0-.154-.034-.233-.1-.08-.07-.12-.133-.12-.196 0-.288.245-.538.733-.754.487-.215.917-.323 1.29-.323 1.04 0 1.904.374 2.6 1.12.69.745 1.04 1.653 1.04 2.726 0 .982-.365 1.793-1.09 2.43-.725.64-1.6.957-2.627.957-.52 0-1.177-.21-1.976-.625l-.343-.166zm9.393-1.294c0 .31.118.56.354.77.24.2.52.3.85.3.2 0 .44-.08.72-.247.274-.16.474-.243.6-.243s.19.078.19.233c0 .18-.237.407-.708.68s-1.005.41-1.6.41c-.462 0-.866-.144-1.21-.43-.346-.284-.545-.6-.6-.95s-.08-1.652-.08-3.914c0-.306-.31-.528-.933-.667-.275-.056-.41-.162-.41-.32 0-.1.042-.18.13-.24.084-.056.19-.085.32-.085l.557.076c.335.05.617.078.846.078.083 0 .205-.025.368-.072l.304-.07c.21 0 .315.43.315 1.293v3.39zm3.13-3.25c0-.46-.246-.72-.74-.79-.3-.05-.486-.1-.563-.17-.076-.07-.114-.15-.114-.26 0-.24.18-.358.544-.358.095 0 .288.032.578.1s.6.1.93.1l.335-.04.248-.037c.172 0 .258.193.258.58 0 2.92.025 4.474.076 4.66.05.187.3.34.77.45.24.065.39.123.44.175.055.05.084.113.084.184 0 .083-.053.16-.158.23s-.24.107-.407.107c-.07 0-.243-.02-.517-.065-.274-.043-.468-.066-.58-.066-.12 0-.268.02-.44.065l-.344.07c-.14 0-.237-.04-.287-.115-.05-.076-.08-.263-.1-.56-.013-.3-.02-.87-.02-1.72v-2.546zm6.51 3.37c0 .31.058.51.172.61.11.09.26.15.45.18s.322.07.4.12c.08.05.12.16.12.32 0 .21-.186.32-.554.32-.16 0-.398-.02-.716-.06-.32-.04-.554-.058-.706-.058-.154 0-.377.024-.67.075-.29.05-.51.077-.657.077s-.27-.04-.375-.125-.156-.194-.156-.33c0-.083.03-.156.085-.217.06-.06.205-.11.44-.15.235-.038.398-.114.49-.228.09-.117.138-.39.138-.83v-3.21c0-.27-.055-.452-.17-.54-.113-.09-.28-.155-.503-.2-.22-.044-.36-.102-.412-.173-.054-.07-.08-.156-.08-.26 0-.114.045-.21.137-.283.093-.075.202-.11.33-.11.11 0 .263.022.463.07.2.047.35.07.444.07.11 0 .276-.017.5-.05.222-.037.387-.054.495-.054.236 0 .353.2.353.59l-.01.253-.01.212v3.97zm-.775-8.26c.29 0 .542.1.753.31.212.21.318.462.318.752 0 .26-.104.48-.313.66-.208.18-.455.27-.74.27s-.528-.1-.733-.3c-.205-.2-.308-.437-.308-.715 0-.265.1-.496.3-.69.203-.197.442-.295.713-.295zm5.687 8.43c0 .17.04.312.13.44s.28.2.59.25c.3.05.49.115.55.19.066.08.1.176.1.29 0 .207-.157.31-.468.31-.19 0-.475-.024-.85-.07-.375-.048-.658-.07-.85-.07-.177 0-.44.023-.78.07-.344.05-.605.07-.783.07-.254 0-.418-.028-.49-.086-.074-.06-.11-.14-.11-.24 0-.105.03-.19.09-.26.06-.073.25-.13.57-.18.32-.048.53-.15.63-.314.097-.16.147-.35.147-.565v-10.26c0-.224-.05-.42-.15-.587-.104-.17-.31-.29-.63-.367s-.506-.15-.566-.23c-.06-.073-.09-.16-.09-.26 0-.093.053-.17.158-.23.104-.06.214-.085.33-.085.1 0 .252.02.452.056.202.037.35.056.445.056.11 0 .27-.02.487-.057.216-.04.38-.06.487-.06.202 0 .35.055.447.163.095.107.143.3.143.58v11.44zm10.08-.77c0 .31.06.59.19.85s.353.44.683.552c.33.114.52.197.57.25.052.05.077.11.077.173 0 .277-.147.415-.44.415-.094 0-.23-.026-.4-.077-.172-.05-.395-.076-.67-.076-.183 0-.385.025-.604.076-.22.05-.36.076-.416.076-.12 0-.222-.047-.305-.136-.083-.09-.13-.18-.14-.277-.01-.095-.03-.143-.06-.143l-.153.07c-.964.545-1.775.817-2.434.817-.937 0-1.78-.357-2.533-1.074-.75-.717-1.125-1.54-1.125-2.465 0-1.06.38-1.93 1.14-2.616S585.593 460 586.6 460c.424 0 .862.107 1.31.318.45.21.676.446.676.704 0 .082-.03.152-.09.208-.06.06-.127.087-.203.087-.096 0-.316-.08-.66-.235-.346-.155-.664-.233-.955-.233-.64 0-1.18.27-1.624.8-.443.534-.665 1.17-.665 1.91 0 .63.2 1.25.6 1.87.4.612.95.92 1.647.92.373 0 .802-.102 1.286-.31s.793-.483.926-.835.2-.884.2-1.6v-8.18c0-.525-.09-.89-.267-1.093-.177-.203-.434-.355-.77-.457-.336-.104-.542-.18-.62-.23-.075-.053-.113-.137-.113-.253 0-.084.05-.156.144-.217.095-.06.23-.09.4-.09l.45.047c.23.032.413.048.554.048.294 0 .547-.01.76-.035l.386-.04c.23 0 .38.063.455.193.076.13.115.31.115.536 0 .42.004.757.01 1.01l.01.675v9.09zm2.982.2c.297 0 .562.14.796.42.234.28.35.652.35 1.12 0 .39-.21.992-.637 1.81s-.74 1.22-.95 1.22c-.115 0-.173-.06-.173-.18 0-.04.12-.3.364-.79.246-.5.367-.89.367-1.17 0-.215-.135-.39-.41-.527s-.456-.28-.55-.43-.134-.31-.134-.48c0-.31.092-.556.275-.734.18-.177.42-.265.71-.265zm6.295-3.09c0-.23-.068-.406-.205-.53s-.266-.19-.393-.19c-.38 0-.57-.12-.57-.36 0-.276.135-.414.41-.414.075 0 .223.02.443.066.22.043.39.066.5.066.155 0 .313-.02.475-.06l.33-.057c.17 0 .285.044.343.13.057.086.1.433.124 1.04.026.61.04 1.32.04 2.124l-.02 1.657c0 .293.017.475.052.548s.11.146.227.216.256.112.415.13c.16.02.274.05.347.09.073.044.11.13.11.268 0 .222-.163.335-.488.335-.236 0-.475-.025-.717-.07-.24-.05-.48-.07-.716-.07-.19 0-.423.022-.7.07-.276.05-.484.07-.624.07-.358 0-.536-.1-.536-.31 0-.154.032-.255.1-.304.066-.05.19-.084.365-.107.18-.023.323-.074.434-.153.112-.08.182-.18.21-.31.03-.124.043-.383.043-.776v-3.106zm4.33-.02c0-.14-.06-.258-.184-.356-.123-.098-.258-.147-.403-.147-.317 0-.69.18-1.12.536-.253.22-.437.33-.55.33-.164 0-.246-.073-.246-.22 0-.323.298-.7.89-1.127.594-.43 1.13-.643 1.605-.643.405 0 .76.145 1.065.434.306.29.46.63.46 1.024l-.02 3.845c0 .196.067.36.2.49s.292.194.476.194c.325 0 .486.126.486.384 0 .225-.17.34-.506.34l-.567-.064c-.34-.04-.628-.06-.857-.06-.38 0-.7.024-.963.07-.26.05-.428.07-.505.07-.116 0-.216-.035-.3-.11-.087-.073-.13-.17-.13-.284 0-.18.11-.27.333-.27.2 0 .39-.064.57-.194.178-.13.266-.325.266-.584V461.7zm4.35 0c0-.14-.06-.258-.185-.356-.12-.098-.256-.147-.4-.147-.254 0-.565.144-.935.433-.37.29-.613.433-.733.433-.077 0-.145-.026-.205-.07-.06-.05-.09-.106-.09-.17 0-.286.28-.646.837-1.08.557-.435 1.125-.65 1.703-.65.675 0 1.135.28 1.38.845.09.17.135 1.11.135 2.818l-.02 1.62c0 .202.052.354.16.456.11.103.273.175.495.22.222.044.357.097.404.158.05.06.07.135.07.218 0 .24-.155.358-.467.358l-.575-.063c-.336-.04-.622-.062-.86-.062-.233 0-.49.027-.766.07s-.508.075-.69.075c-.118 0-.218-.037-.3-.11-.09-.075-.13-.17-.13-.286 0-.2.15-.314.44-.34s.49-.11.586-.236c.096-.128.144-.286.144-.476V461.7zm7.414-1.88c1.053 0 1.97.36 2.755 1.083s1.174 1.56 1.174 2.503c0 1.06-.376 1.92-1.125 2.59-.75.664-1.75 1-3.006 1-.99 0-1.88-.34-2.67-1.02s-1.187-1.523-1.187-2.53c0-.965.345-1.81 1.04-2.537.695-.727 1.7-1.09 3.013-1.09zm.01 6.34c.73 0 1.31-.266 1.745-.79.434-.53.65-1.196.65-2 0-.79-.232-1.44-.7-1.95-.465-.51-1.057-.76-1.774-.76-.734 0-1.305.25-1.71.743-.41.497-.61 1.14-.61 1.926 0 .87.223 1.56.674 2.065.45.51 1.026.762 1.724.762zm5.9-4.44c0-.234-.046-.41-.14-.527-.09-.118-.282-.2-.574-.253-.29-.05-.438-.18-.438-.394 0-.09.05-.18.152-.267.104-.087.238-.13.403-.13.07 0 .19.022.365.07.177.042.32.065.437.065.07 0 .23-.02.483-.057l.472-.057c.13 0 .217.053.267.158.05.11.08.32.085.637.014.527.02 1.088.02 1.685l-.057 2.714c0 .197.017.317.05.362.033.044.107.102.225.17s.268.125.452.163c.183.037.3.09.35.16.05.066.077.144.077.234 0 .214-.166.32-.497.32-.23 0-.464-.02-.706-.062-.242-.04-.48-.06-.716-.06-.19 0-.437.016-.74.05-.3.036-.525.053-.672.053-.324 0-.486-.12-.486-.357 0-.104.03-.187.088-.25.057-.066.18-.105.37-.118.217-.014.35-.045.4-.096.147-.152.24-.285.277-.4s.057-.347.057-.702v-3.105zm5.834 3.657c0 .274.045.453.137.54.094.086.26.155.497.21.24.053.36.154.36.303 0 .2-.118.3-.353.3l-.57-.032c-.338-.02-.62-.03-.85-.03-.38 0-.703.025-.963.07s-.43.07-.505.07c-.115 0-.22-.04-.32-.113-.1-.077-.148-.17-.148-.28 0-.082.04-.16.123-.235.083-.075.18-.11.287-.11.2 0 .38-.06.54-.18.16-.114.24-.29.24-.524 0-1.526.01-2.47.03-2.835l.025-.61c0-.493-.225-.74-.68-.74-.193 0-.472.15-.834.447-.36.298-.62.447-.77.447-.05 0-.106-.03-.17-.092-.062-.063-.094-.13-.094-.202 0-.226.29-.567.874-1.023.583-.46 1.153-.686 1.71-.686.33 0 .614.086.854.254s.4.38.48.633c.08.253.12.61.12 1.074l-.01.61v2.75zm7.822-2.407c.145 0 .243-.024.294-.075s.078-.14.078-.275c0-.484-.19-.938-.565-1.36s-.947-.632-1.708-.632c-.527 0-1.07.25-1.632.75-.56.506-.84 1.21-.84 2.13 0 .67.295 1.278.887 1.81.592.538 1.256.806 1.99.806.558 0 1.16-.174 1.806-.523.246-.13.41-.2.483-.2.113 0 .203.035.27.1.07.06.1.142.1.24 0 .23-.35.51-1.05.84-.7.33-1.425.494-2.167.494-1.097 0-2.02-.374-2.77-1.123-.75-.75-1.12-1.64-1.12-2.672 0-.948.41-1.757 1.23-2.43s1.74-1.01 2.763-1.01c1.327 0 2.32.34 2.98 1.02s.99 1.49.99 2.434c0 .204-.05.33-.152.377-.1.05-.287.07-.56.07h-4.36c-.355 0-.532-.13-.532-.393 0-.25.183-.377.55-.377h3.036zm5.48 1.62c0 .534.024.875.074 1.024.05.15.14.224.275.224.206 0 .46-.115.76-.344.3-.228.503-.343.607-.343.083 0 .16.04.222.118.063.08.095.172.095.28 0 .18-.25.474-.75.88s-.937.61-1.32.61c-1 0-1.502-.736-1.502-2.205v-3.658c0-.12-.016-.185-.048-.195-.032-.01-.21-.014-.533-.014-.256 0-.427-.04-.516-.11s-.132-.185-.132-.327c0-.12.03-.21.1-.26.065-.05.195-.105.39-.16.19-.053.34-.116.445-.19s.25-.224.438-.456.32-.56.4-.978c.08-.42.12-1.023.12-1.81 0-.373.1-.56.31-.56.23 0 .376.05.433.157.057.105.086.28.086.53v3.18c0 .124.08.19.246.19h1.35c.274 0 .41.116.41.354 0 .276-.197.414-.59.414h-1.19c-.09 0-.143.01-.162.04l-.03.214v3.388zm5.86.62c0 .31.06.514.17.61.117.094.27.156.46.185.19.03.325.07.404.12.08.05.12.158.12.318 0 .213-.184.32-.552.32-.16 0-.4-.02-.716-.058-.318-.038-.554-.057-.706-.057-.154 0-.377.022-.67.073-.292.05-.512.078-.66.078s-.27-.04-.375-.125-.155-.193-.155-.328c0-.084.03-.157.086-.218.057-.06.203-.11.438-.15.236-.038.4-.114.49-.228.093-.114.14-.39.14-.826v-3.212c0-.27-.058-.452-.17-.54-.116-.09-.284-.155-.506-.2-.22-.044-.36-.102-.412-.173-.052-.07-.08-.156-.08-.26 0-.114.047-.21.14-.283.092-.077.2-.11.33-.11.107 0 .262.02.462.07s.35.07.446.07c.11 0 .274-.02.497-.05.222-.04.39-.056.496-.056.236 0 .353.197.353.59l-.01.25-.01.215v3.97zm-.774-8.26c.29 0 .54.105.752.316.21.212.315.463.315.753 0 .26-.106.48-.315.66-.208.18-.455.27-.74.27s-.528-.1-.733-.3c-.206-.2-.31-.436-.31-.714 0-.265.1-.496.308-.69.207-.197.445-.295.717-.295zm6.4 9.145c.26 0 .39-.117.39-.352v-.257c0-.35.12-.523.365-.523.16 0 .28.074.36.22.08.147.12.453.12.918 0 .296-.02.48-.06.56-.04.08-.144.13-.31.15-.164.02-.503.03-1.017.03h-2.845c-.36 0-.54-.11-.54-.332 0-.16.09-.406.265-.736l2.163-3.996c.1-.21.15-.37.15-.486 0-.134-.035-.215-.107-.243s-.22-.04-.448-.04h-.564c-.34 0-.543.02-.608.065-.07.044-.14.2-.21.466-.077.263-.21.4-.41.4-.22 0-.33-.16-.33-.47l-.02-.68c0-.21.03-.354.088-.428.057-.073.15-.11.276-.11h4.12c.077 0 .144.03.2.09.058.06.087.128.087.205 0 .13-.083.353-.248.664l-2.294 4.15c-.082.145-.123.28-.123.4 0 .22.125.332.38.332h1.165zm7.975-3.12c.147 0 .245-.026.296-.077.05-.05.077-.14.077-.277 0-.482-.19-.936-.564-1.36-.38-.42-.95-.63-1.71-.63-.528 0-1.07.25-1.633.75-.56.503-.84 1.21-.84 2.13 0 .67.296 1.275.888 1.81.595.535 1.26.803 1.99.803.56 0 1.16-.174 1.81-.523.245-.13.406-.2.482-.2.115 0 .205.034.27.1.07.06.1.142.1.24 0 .23-.35.51-1.05.84-.7.33-1.423.493-2.165.493-1.098 0-2.02-.374-2.77-1.123-.748-.75-1.12-1.64-1.12-2.672 0-.945.41-1.754 1.23-2.427s1.743-1.01 2.765-1.01c1.324 0 2.32.34 2.98 1.02.66.68.99 1.49.99 2.436 0 .203-.054.328-.155.376-.1.05-.29.07-.56.07h-4.36c-.355 0-.532-.13-.532-.394 0-.25.185-.376.553-.376h3.036zm10.374-2.41c-.42.153-.757.398-1.014.734-.258.34-.386.74-.386 1.2v2.57c0 .673-.055 1.204-.166 1.594-.112.39-.28.746-.51 1.066-.224.32-.505.618-.84.89-.334.274-.65.49-.943.65-.294.165-.486.246-.575.246s-.132-.124-.132-.37c0-.033.05-.093.144-.182.43-.43.726-.958.885-1.58.16-.622.24-1.294.24-2.018v-2.922c0-.495.163-.93.492-1.31.33-.377.76-.664 1.287-.86-.536-.19-.966-.468-1.292-.833-.325-.365-.487-.782-.487-1.252v-2.922c0-.73-.08-1.404-.237-2.022-.16-.62-.455-1.143-.886-1.575l-.14-.187c0-.247.042-.37.13-.37.11 0 .368.118.778.356.41.236.823.574 1.25 1.012.422.44.723 1.007.902 1.705.07.274.105.73.105 1.37v2.57c0 .44.128.82.385 1.143.257.324.595.562 1.014.714v.58z" enable-background="new"/></svg>