<svg xmlns="http://www.w3.org/2000/svg" width="438.79" height="80" viewBox="0 0 438.79 80"><path d="M49.106 60.828c-2.4 0-5.284-1.954-6.175-4.18l-8.6-21.51c-.79-1.984.18-4.244 2.16-5.038L58 21.497c.41-.164.797-.248 1.147-.248 1.44 0 1.594 1.47 1.594 2.1v33.6c0 2.13-1.74 3.87-3.872 3.87H49.11zm-45.23 0C1.74 60.828 0 59.088 0 56.95V49.2c0-2.4 1.954-5.284 4.18-6.175l21.51-8.603c.456-.183.935-.275 1.423-.275 1.58 0 3.032.98 3.615 2.435L39.33 58.09c.33.82.334 1.533.014 2.007-.32.474-.984.735-1.868.735h-33.6zM1.596 39.67C.153 39.67 0 38.2 0 37.568v-33.6C0 1.83 1.74.092 3.877.092h7.753c2.4 0 5.284 1.955 6.175 4.182l8.603 21.508c.794 1.985-.175 4.245-2.16 5.04l-21.506 8.6c-.41.164-.796.248-1.146.248zm32.03-12.895c-1.58 0-3.035-.98-3.617-2.435L21.4 2.832c-.328-.82-.332-1.533-.012-2.007.32-.474.985-.735 1.87-.735h33.6c2.14 0 3.877 1.74 3.877 3.877v7.754c0 2.4-1.954 5.29-4.18 6.18l-21.51 8.6c-.457.19-.936.28-1.425.28zm72.783-9.51c5.62 0 9.99 1.922 13.1 5.763 3.11 3.842 4.67 9.277 4.67 16.31 0 7.03-1.57 12.493-4.71 16.386-3.14 3.893-7.495 5.84-13.067 5.84-2.79 0-5.334-.516-7.64-1.544-2.304-1.03-4.237-2.61-5.8-4.746h-.47l-1.366 5.508H86.48V0h6.484v14.766c0 3.308-.102 6.276-.31 8.906h.312c3.02-4.27 7.5-6.406 13.436-6.406zm-.94 5.43c-4.43 0-7.62 1.27-9.57 3.81-1.95 2.538-2.93 6.815-2.93 12.83 0 6.016 1 10.32 3.01 12.91 2 2.592 5.22 3.887 9.65 3.887 3.98 0 6.95-1.45 8.9-4.356 1.95-2.903 2.93-7.076 2.93-12.52 0-5.57-.978-9.725-2.93-12.46-1.956-2.733-4.977-4.1-9.065-4.1zm48.12 38.867c-6.328 0-11.32-1.927-14.98-5.78-3.66-3.855-5.488-9.206-5.488-16.056 0-6.9 1.7-12.383 5.097-16.445 3.4-4.06 7.962-6.09 13.692-6.09 5.363 0 9.61 1.77 12.733 5.3 3.124 3.53 4.686 8.184 4.686 13.965v4.1h-29.49c.13 5.027 1.4 8.843 3.81 11.446 2.408 2.605 5.8 3.907 10.176 3.907 4.61 0 9.166-.963 13.672-2.89v5.78c-2.294.99-4.46 1.7-6.506 2.13-2.047.43-4.514.645-7.404.645zm-1.758-38.944c-3.44 0-6.18 1.12-8.224 3.36-2.045 2.24-3.25 5.338-3.613 9.296h22.383c0-4.088-.91-7.22-2.732-9.394-1.824-2.175-4.428-3.262-7.813-3.262zm42.38 33.592c1.146 0 2.252-.084 3.32-.253 1.067-.17 1.914-.345 2.54-.527v4.96c-.704.34-1.74.62-3.107.84-1.367.222-2.597.333-3.69.333-8.283 0-12.423-4.36-12.423-13.086v-25.47h-6.13v-3.124l6.132-2.695 2.734-9.14h3.75v9.922h12.422v5.04h-12.42v25.194c0 2.578.61 4.557 1.835 5.937 1.223 1.38 2.903 2.07 5.04 2.07zm40.74 4.57l-1.29-6.093h-.31c-2.136 2.683-4.264 4.5-6.386 5.45-2.123.95-4.77 1.425-7.95 1.425-4.244 0-7.57-1.093-9.98-3.28s-3.613-5.3-3.613-9.337c0-8.645 6.914-13.177 20.742-13.593l7.265-.235V32.46c0-3.36-.723-5.84-2.17-7.44-1.444-1.6-3.755-2.402-6.932-2.402-3.57 0-7.605 1.094-12.11 3.28l-1.99-4.96c2.107-1.146 4.42-2.044 6.93-2.695 2.513-.65 5.033-.976 7.558-.976 5.105 0 8.888 1.133 11.35 3.398 2.46 2.266 3.69 5.9 3.69 10.898v29.22h-4.805zm-14.647-4.57c4.036 0 7.207-1.106 9.51-3.32 2.306-2.212 3.46-5.312 3.46-9.296v-3.867L226.8 40c-5.158.182-8.876.983-11.155 2.402s-3.418 3.627-3.418 6.62c0 2.345.71 4.13 2.13 5.353 1.418 1.224 3.403 1.836 5.956 1.836zm52.734 5.352c-2.787 0-5.33-.515-7.637-1.543-2.303-1.03-4.236-2.62-5.8-4.75h-.47c.314 2.5.47 4.87.47 7.11V80h-6.484V17.97h5.274l.897 5.858h.313c1.663-2.344 3.604-4.036 5.82-5.078 2.21-1.04 4.75-1.563 7.614-1.563 5.68 0 10.06 1.94 13.147 5.82 3.086 3.88 4.63 9.323 4.63 16.328 0 7.03-1.57 12.494-4.708 16.387-3.14 3.894-7.494 5.84-13.067 5.84zm-.937-38.867c-4.373 0-7.537 1.21-9.49 3.633-1.953 2.422-2.956 6.276-3.01 11.562v1.446c0 6.015 1.004 10.32 3.01 12.91 2.005 2.59 5.22 3.886 9.65 3.886 3.697 0 6.594-1.497 8.69-4.492 2.096-2.994 3.145-7.122 3.145-12.383 0-5.338-1.05-9.434-3.147-12.285-2.097-2.85-5.046-4.277-8.85-4.277zM308.63 60.78h-6.484V0h6.484v60.78zm40.078 0l-1.29-6.09h-.31c-2.135 2.686-4.263 4.5-6.385 5.45-2.123.95-4.772 1.428-7.95 1.428-4.244 0-7.57-1.093-9.98-3.28s-3.613-5.3-3.613-9.337c0-8.642 6.915-13.174 20.743-13.59l7.266-.235v-2.66c0-3.36-.72-5.84-2.17-7.44-1.445-1.6-3.756-2.4-6.933-2.4-3.57 0-7.606 1.094-12.11 3.28l-1.99-4.96c2.106-1.146 4.42-2.044 6.93-2.695 2.515-.65 5.035-.977 7.56-.977 5.104 0 8.887 1.133 11.35 3.398 2.46 2.268 3.69 5.9 3.69 10.9v29.22h-4.81zm-14.646-4.57c4.037 0 7.207-1.1 9.51-3.32 2.306-2.21 3.46-5.31 3.46-9.29v-3.87l-6.485.27c-5.16.184-8.877.985-11.156 2.404s-3.414 3.627-3.414 6.62c0 2.345.71 4.13 2.13 5.353 1.418 1.224 3.403 1.836 5.956 1.836zm49.922 5.358c-6.198 0-10.996-1.907-14.395-5.722-3.4-3.814-5.1-9.21-5.1-16.19 0-7.16 1.725-12.696 5.177-16.602 3.45-3.905 8.365-5.86 14.746-5.86 2.057 0 4.114.223 6.17.665 2.058.44 3.673.96 4.845 1.56l-1.99 5.51c-1.43-.574-2.994-1.05-4.69-1.427-1.69-.376-3.19-.565-4.49-.565-8.7 0-13.046 5.545-13.046 16.64 0 5.26 1.062 9.295 3.185 12.11 2.12 2.81 5.266 4.215 9.433 4.215 3.57 0 7.227-.77 10.978-2.305v5.745c-2.863 1.485-6.47 2.227-10.82 2.227zm39.062 0c-6.33 0-11.324-1.927-14.98-5.78-3.66-3.855-5.49-9.206-5.49-16.056 0-6.9 1.7-12.383 5.1-16.445 3.4-4.06 7.96-6.093 13.69-6.093 5.364 0 9.61 1.766 12.733 5.294 3.124 3.53 4.69 8.184 4.69 13.965v4.1H409.3c.13 5.027 1.4 8.843 3.808 11.446 2.41 2.6 5.8 3.903 10.176 3.903 4.61 0 9.166-.962 13.672-2.89v5.78c-2.292.99-4.46 1.7-6.503 2.13-2.047.43-4.514.646-7.405.646zm-1.76-38.944c-3.437 0-6.18 1.12-8.22 3.36-2.047 2.24-3.25 5.338-3.616 9.296h22.384c0-4.09-.912-7.22-2.734-9.395-1.823-2.173-4.428-3.26-7.813-3.26z"/></svg>