<svg xmlns="http://www.w3.org/2000/svg" viewBox="0 0 200 71.5" enable-background="new 0 0 200 71.5"><style type="text/css">.st0{fill:#040707;}</style><path class="st0" d="M162.5 70.6c-11.9-3-19.5-11.9-20.6-24.2-.2-2.4-.3-4.9-.3-7.3V3c0-1.4.3-1.9 1.8-1.9 4.1.1 8.2.1 12.2 0 1.5 0 2 .4 2 1.9-.1 11.9-.1 23.7 0 35.6 0 3.5.4 6.9 1.7 10.2 2.9 7.2 12.5 10.3 19.1 6.2 3.8-2.4 4.9-6.4 5.5-10.5.4-2.5.4-5.1.4-7.7v-34c0-1.5.4-1.9 1.8-1.8 4.7.1 9.3.1 14 .1v45.8c-.3 3.9-1 7.6-2.9 11.1-4.4 8-11 12.6-20.2 13.2-.4.2-9.7.7-14.5-.6zm-24.9-42.8c-2.4-12-9.2-20.6-20.6-25.4-3.4-1.5-7-2-10.7-2.4H95.2c-1.5.4-3.1.2-4.6.6C79.5 3.5 71.5 10 66.8 20.5c-3.7 8.3-4.2 16.9-1.9 25.7 2.8 10.6 9.2 18.1 19.2 22.7 3.7 1.7 7.6 2.4 11.6 2.8H106c.2-.1.3-.2.5-.2 13.7-1.1 23.1-8.3 28.8-20.6 3.4-7.4 3.8-15.2 2.3-23.1zm-36.5 28.8C89.7 56.6 81 47.5 81 35.7c0-12.2 8.3-20.8 20-20.8 11.5 0 19.9 8.9 19.9 21 0 12.5-7.9 20.7-19.8 20.7zM60.9 29C59.4 19.4 55 11.5 46.6 6.3 40.2 2.3 33.1.5 25.5.4 17.7.3 9.9.5 2 .6 1.3.6.5.6 0 1.2v69.2c.6.6 1.4.6 2.2.6 6.5-.1 13 .3 19.5.2 6.6-.1 13-1.1 19.1-3.7 7.2-3.1 12.7-8 16.3-14.9 4-7.4 5-15.4 3.8-23.6zm-17.1 8.3c-1.2 11.9-9.3 17.8-20.6 18.3-1.9.1-3.8 0-5.7 0-1.2 0-1.6-.4-1.6-1.7.1-6.1 0-12.1 0-18.2V17.5c0-.9 0-1.7 1.2-1.7 5-.2 10-.2 14.8 1.6 8.3 3.2 12.7 10.9 11.9 19.9z"/></svg>