<svg xmlns="http://www.w3.org/2000/svg" viewBox="0 0 200 37.024" enable-background="new 0 0 200 37.024"><path fill="#414042" d="M13.108 17h9.2c-1.19 4.23-5.076 7.342-9.683 7.342-5.54 0-10.058-4.516-10.058-10.064 0-5.547 4.518-10.066 10.058-10.066 4.195 0 7.795 2.58 9.305 6.235h2.73C23.036 5.35 18.26 1.65 12.627 1.65 5.67 1.65 0 7.315 0 14.28c0 6.963 5.67 12.628 12.625 12.628 3.98 0 7.68-1.994 9.842-4.883v4.338h2.338V14.476H13.108V17zM29.074 2.435h2.517V26.36H29.08zm74.412 0h2.52V26.33h-2.52zM44.72 24.63c-3.872 0-7.015-3.326-7.015-7.188 0-3.87 3.143-7.17 7.014-7.17 3.86 0 7.01 3.3 7.01 7.17 0 3.862-3.15 7.188-7.015 7.188m0-16.75c-5.276 0-9.563 4.287-9.563 9.562 0 5.272 4.288 9.557 9.562 9.557 5.27 0 9.562-4.296 9.562-9.56 0-5.278-4.294-9.56-9.564-9.56m22.05 16.75c-3.874 0-7.017-3.33-7.017-7.19 0-3.87 3.14-7.17 7.016-7.17 3.867 0 7.01 3.3 7.01 7.17 0 3.86-3.143 7.19-7.01 7.19m.108-16.927c-2.83 0-5.367 1.244-7.13 3.214V2.433h-2.51V26.36h2.516v-2.402c1.762 1.967 4.297 3.21 7.128 3.21 5.312 0 9.624-4.354 9.624-9.73 0-5.374-4.312-9.732-9.624-9.732m22.63 16.914c-3.864 0-7.012-3.325-7.012-7.193 0-3.87 3.148-7.168 7.013-7.168 3.87 0 7.012 3.292 7.012 7.163 0 3.866-3.14 7.193-7.012 7.193m7.032-13.666c-1.78-1.99-4.36-3.25-7.245-3.25-5.377 0-9.734 4.36-9.734 9.736 0 5.374 4.358 9.73 9.734 9.73 2.884 0 5.464-1.26 7.247-3.248v2.437h2.545V8.84h-2.545v2.115zM172.293 0h4.468v4.23h-4.463zm-57.305 2.434h-4.09V26.34h13.405v-3.843h-9.315zm57.305 5.096h4.468v18.777h-4.463zm-36.65 15.55c-2.988 0-5.416-2.602-5.416-5.805s2.428-5.8 5.415-5.8 5.414 2.596 5.414 5.8-2.427 5.804-5.414 5.804m0-15.617c-5.415 0-9.812 4.393-9.812 9.812 0 5.416 4.398 9.804 9.812 9.804s9.803-4.388 9.803-9.805c0-5.42-4.39-9.813-9.803-9.813m59.74 12.455c-.893 1.905-2.724 3.21-4.843 3.21-2.99 0-5.42-2.607-5.42-5.813 0-3.498 2.43-5.806 5.42-5.806 2.01 0 3.772 1.18 4.704 2.925h4.678c-1.225-4.017-4.966-6.94-9.387-6.94-5.42 0-9.822 4.395-9.822 9.825 0 5.415 4.403 9.81 9.82 9.81 4.522 0 8.32-3.056 9.462-7.214h-4.617zM157.45 32.83c-2 0-3.913-1.05-5.072-2.624l-3.968 1.93c1.873 2.938 5 4.89 9.038 4.887 5.23 0 9.512-4.136 9.935-9.147H162.9c-.386 2.8-2.678 4.953-5.45 4.953"/><path fill="#414042" d="M157.658 23.17c-2.975 0-5.393-2.596-5.393-5.785 0-3.19 2.418-5.778 5.393-5.778 2.984 0 5.402 2.586 5.402 5.778 0 3.19-2.418 5.786-5.402 5.786m5.735-13.68c-1.614-1.17-3.59-1.867-5.735-1.867-5.393 0-9.77 4.37-9.77 9.77 0 5.396 4.377 9.767 9.77 9.767 5.39 0 9.747-4.35 9.77-9.727V7.548h-4.036v1.94z"/></svg>