<svg xmlns="http://www.w3.org/2000/svg" width="224.538" height="60" viewBox="0 0 224.538 60"><path d="M0 47.31v-46h9.793v46H0zm38.412 0V27.172c0-4.62-2.414-6.207-6.138-6.207-3.448 0-6.07 1.93-7.586 3.862V47.31H15.93V14h8.758v4.276c2.138-2.483 6.276-5.104 11.655-5.104 7.38 0 10.896 4.138 10.896 10.62V47.31h-8.83zm11.79-4.344l3.794-6.345c2.483 2.35 7.38 4.63 11.517 4.63 3.793 0 5.586-1.45 5.586-3.52 0-5.45-19.73-.963-19.73-14.07 0-5.583 4.823-10.48 13.65-10.48 5.586 0 10.07 1.93 13.38 4.55l-3.52 6.205c-2-2.067-5.792-3.86-9.86-3.86-3.17 0-5.24 1.38-5.24 3.24 0 4.898 19.792.76 19.792 14.208 0 6.14-5.24 10.62-14.483 10.62-5.793 0-11.38-1.93-14.897-5.17zm41.792.068V60h-8.76V14h8.76v4.207c2.552-3.24 6.207-5.034 10.276-5.034 8.552 0 14.758 6.345 14.758 17.448s-6.208 17.52-14.758 17.52c-3.93 0-7.517-1.65-10.276-5.1zm16-12.413c0-5.72-3.448-9.65-8.483-9.65-2.82 0-6 1.59-7.51 3.798V36.49c1.45 2.137 4.69 3.86 7.52 3.86 5.036 0 8.484-3.93 8.484-9.724zm11.86-25.44c0-2.895 2.345-5.17 5.173-5.17 2.896 0 5.24 2.276 5.24 5.172s-2.344 5.24-5.24 5.24c-2.828 0-5.173-2.343-5.173-5.24zm.828 42.14V14h8.76v33.31h-8.76zm14.688 0V14h8.76v4.483c2.413-2.897 6.48-5.31 10.62-5.31v8.55c-.622-.137-1.38-.206-2.415-.206-2.897 0-6.76 1.655-8.207 3.793v22h-8.758zm19.93-16.69c0-9.654 7.17-17.447 17.24-17.447 10 0 16.69 7.448 16.69 18.276v2.067h-24.76c.622 4.07 3.932 7.45 9.587 7.45 2.827 0 6.69-1.173 8.828-3.24l3.93 5.79c-3.31 3.035-8.55 4.62-13.723 4.62-10.138 0-17.793-6.827-17.793-17.516zm17.24-10.275c-5.448 0-7.793 3.793-8.137 7.103h16.413c-.276-3.172-2.483-7.103-8.276-7.103zm43.17 26.965v-4.28c-2.62 3.31-6.207 5.102-10.275 5.102-8.345 0-14.76-6.344-14.76-17.516 0-10.827 6.277-17.447 14.76-17.447 3.93 0 7.655 1.65 10.275 5.1V1.31h8.828v46h-8.828zm0-10.758v-11.8c-1.448-2.207-4.62-3.793-7.517-3.793-5.034 0-8.483 3.93-8.483 9.653 0 5.8 3.45 9.73 8.483 9.73 2.897 0 6.07-1.586 7.517-3.792z" fill="#ED1C24"/></svg>