<svg xmlns="http://www.w3.org/2000/svg" width="115.574" height="80" viewBox="0 0 115.574 80"><path fill="#0BA7B0" d="M115.574 52.01C114.734 18.576 89.194 0 57.787 0S.84 18.576 0 52.01c38.286-6.493 77.288-6.493 115.574 0z"/><path fill="#22BDBD" d="M107.87 52.01C107.14 18.576 85.006 0 57.786 0S8.432 18.576 7.706 52.01c33.18-6.493 66.982-6.493 100.163 0z"/><path fill="#49C2C3" d="M100.164 52.01C99.55 18.576 80.82 0 57.787 0S16.025 18.576 15.41 52.01c28.076-6.493 56.677-6.493 84.754 0z"/><path fill="#5EC6C8" d="M92.46 52.01C91.955 18.576 76.63 0 57.786 0s-34.17 18.576-34.672 52.01c22.972-6.493 46.372-6.493 69.344 0z"/><path d="M0 60.265h3.35V80H0V60.265zm17.975 3.017h-4.208V80h-3.32V63.282H6.24v-3.017h11.735v3.017zM39.87 77.716h-7.04L31.97 80h-3.606l7.986-20.3L44.364 80h-3.606l-.888-2.284zm-5.953-2.847h4.866l-2.433-6.86-2.433 6.85zm18.746-3.11h-2.72V80h-3.348V60.265h6.67s6.697 0 6.697 5.75c0 3.187-2.06 4.596-3.864 5.245L60.19 80H56.5l-3.837-8.232zm-2.72-3.27h3.32s3.35 0 3.35-2.48c0-2.455-3.35-2.455-3.35-2.455h-3.32v4.934zm17.174-4.936v4.934h8.33v3.27h-8.33v4.94h10.018V80H63.768V60.265h13.367v3.298H67.117zM97.285 80h-3.378l-9.96-14.04V80h-3.35V60.265h3.378l9.99 14.04v-14.04h3.32V80zm13.795-2.284h-7.04L103.18 80h-3.606l7.986-20.3 8.014 20.3h-3.606l-.888-2.284zm-5.953-2.847h4.866l-2.433-6.86-2.433 6.85z" fill="#3A3B3B"/></svg>