<svg xmlns="http://www.w3.org/2000/svg" width="111.297" height="80" viewBox="0 0 111.297 80"><linearGradient id="a" gradientUnits="userSpaceOnUse" x1="4.432" y1="101.402" x2="4.432" y2="60.662"><stop offset="0" stop-color="#4D4D4D"/><stop offset=".418" stop-color="#434342"/><stop offset="1" stop-color="#3A3938"/></linearGradient><path fill="url(#a)" d="M0 63.84h3.31v13.117h5.554v2.8H0V63.842z"/><linearGradient id="b" gradientUnits="userSpaceOnUse" x1="17.83" y1="101.402" x2="17.83" y2="60.662"><stop offset="0" stop-color="#4D4D4D"/><stop offset=".418" stop-color="#434342"/><stop offset="1" stop-color="#3A3938"/></linearGradient><path fill="url(#b)" d="M13.23 63.84h9.202l-.87 2.802h-5.024v3.67h5.048v2.78h-5.048v3.865h5.87v2.8h-9.18V63.842z"/><linearGradient id="c" gradientUnits="userSpaceOnUse" x1="36.097" y1="101.402" x2="36.097" y2="60.662"><stop offset="0" stop-color="#4D4D4D"/><stop offset=".418" stop-color="#434342"/><stop offset="1" stop-color="#3A3938"/></linearGradient><path fill="url(#c)" d="M27.92 63.84h2.996l4.082 5.773c.53.75.918 1.353 1.28 1.982h.05c.313-.605.724-1.282 1.23-2.078l3.696-5.676h3.02v15.92h-3.31v-8.55c0-.62 0-1.35.025-1.91h-.03c-.198.42-.82 1.33-1.09 1.74l-2.85 4.4h-1.49l-3.215-4.54c-.338-.46-.725-.963-1.063-1.57h-.05c.025.558.025 1.28.025 1.79v8.647h-3.31V63.84z"/><linearGradient id="d" gradientUnits="userSpaceOnUse" x1="55.902" y1="101.402" x2="55.902" y2="60.662"><stop offset="0" stop-color="#4D4D4D"/><stop offset=".418" stop-color="#434342"/><stop offset="1" stop-color="#3A3938"/></linearGradient><path fill="url(#d)" d="M50.358 63.84h5c3.453 0 5 2.005 5 4.035 0 1.304-.653 2.583-1.884 3.212v.048c1.908.507 2.97 2.053 2.97 3.84 0 2.416-1.884 4.783-5.65 4.783h-5.436V63.84zm4.565 6.497c1.45 0 2.198-.82 2.198-1.86 0-1.086-.72-1.93-2.27-1.93h-1.18v3.79h1.26zm.435 6.716c1.835 0 2.753-.63 2.753-2.078 0-1.23-.91-1.932-2.43-1.932h-2.01v4.01h1.69z"/><linearGradient id="e" gradientUnits="userSpaceOnUse" x1="71.191" y1="101.402" x2="71.191" y2="60.662"><stop offset="0" stop-color="#4D4D4D"/><stop offset=".418" stop-color="#434342"/><stop offset="1" stop-color="#3A3938"/></linearGradient><path fill="url(#e)" d="M66.59 63.84h9.203l-.87 2.802H69.9v3.67h5.047v2.78H69.9v3.865h5.868v2.8H66.59V63.842z"/><linearGradient id="f" gradientUnits="userSpaceOnUse" x1="87.357" y1="101.402" x2="87.357" y2="60.662"><stop offset="0" stop-color="#4D4D4D"/><stop offset=".418" stop-color="#434342"/><stop offset="1" stop-color="#3A3938"/></linearGradient><path fill="url(#f)" d="M81.282 63.84h4.758c1.425 0 2.487.218 3.334.604 1.835.797 2.535 2.32 2.535 4.01 0 2.077-1.31 3.526-3.1 4.082v.05c.482.264 1.182 1.133 2.03 2.607l2.582 4.565h-3.79l-2.104-3.816c-.797-1.497-1.35-2.102-1.74-2.198h-1.2v6.014H81.28V63.84zm4.54 7.223c.726 0 1.184-.122 1.595-.338.628-.387 1.063-1.04 1.063-1.934 0-.84-.386-1.57-1.087-1.93-.362-.21-.82-.33-1.546-.33H84.59v4.54h1.233z"/><linearGradient id="g" gradientUnits="userSpaceOnUse" x1="104.075" y1="101.404" x2="104.075" y2="60.661"><stop offset="0" stop-color="#4D4D4D"/><stop offset=".418" stop-color="#434342"/><stop offset="1" stop-color="#3A3938"/></linearGradient><path fill="url(#g)" d="M111.297 78.695c-1.57.797-3.743 1.305-5.966 1.305-5.38 0-8.47-3.358-8.47-7.9 0-4.806 3.5-8.43 8.915-8.43 1.884 0 3.406.34 4.734.774v3.068c-1.304-.627-2.73-1.063-4.468-1.063-3.72 0-5.652 2.24-5.652 5.45 0 3.19 1.86 5.34 5.146 5.34.99 0 1.884-.17 2.463-.41v-4.88h3.31v6.74z"/><linearGradient id="h" gradientUnits="userSpaceOnUse" x1="65.635" y1="-5.081" x2="65.635" y2="49.376" gradientTransform="matrix(1 0 .052 1 -11.158 0)"><stop offset="0" stop-color="#4D4D4D"/><stop offset=".418" stop-color="#434342"/><stop offset="1" stop-color="#3A3938"/></linearGradient><path fill="url(#h)" d="M80.043 15.302c-1.377-1.695-3.63-3.857-6.155-5.53-2.93-1.944-4.07-2.59-5.506-4.383C65.672 2 57.285-.88 50.77.25c-14.4 2.49-21.933 15.867-20.48 28.916 1.496 13.444 11.367 18.997 28.226 18.997 3.544 0 3.385-4.546.396-5.016-8.842-1.392-16.648-8.158-18.442-17.57C38.423 14.835 44.66 5.76 53.895 4.085c5.027-.913 9.38.588 12.475 3.044 2.76 2.18 3.776 2.29 6.128 4.02 1.447 1.06 3.028 2.17 5.374 4.52 2.042 2.04-.636 2.34-3.536 2.35-1.05 0-.928 1.07-.01 1.43 2.075.65 3.64.94 3.076 2.62-.17.503-.458 1.01-1.15 1.26-.83.306-5.313.62-5.872.833-.81.306-.468 1.283.398 1.335.51.03 1.124-.3 1.793-.448 1.89-.414 4.04-.082 3.97.255-.552 3.054-4.66 3.41-5.46 2.156-.572-.902-1.87-1.44-3.13-1.44-.72 0-1.25.184-1.76.72-.85.9.45 1.797 1.13 1.08.17-.18.53-.18.71-.18.54 0 .99.256 1.29.54.3.285.58.72.788 1.26 1.23 2.875 6.16.898 7.148-.9 1.645-2.877 2.377-6.113 3.663-8.99.625-1.796.12-3.043-.867-4.26z"/><linearGradient id="i" gradientUnits="userSpaceOnUse" x1="77.428" y1="-4.101" x2="77.428" y2="57.406" gradientTransform="matrix(1 0 .052 1 -11.158 0)"><stop offset="0" stop-color="#4D4D4D"/><stop offset=".418" stop-color="#434342"/><stop offset="1" stop-color="#3A3938"/></linearGradient><path fill="url(#i)" d="M67.214 14.05c1.203.4 1.532-.465 1.988-1.32.185-.348-.218-.72-.4-.72H65.21c-.54 0-.877 1.017-.268 1.272 1.025.428 1.57.532 2.272.767z"/><linearGradient id="j" gradientUnits="userSpaceOnUse" x1="69.939" y1="46.758" x2="69.939" y2="9.044" gradientTransform="matrix(1 0 .052 1 -11.158 0)"><stop offset="0" stop-color="#005CA9"/><stop offset="1" stop-color="#0080C9"/></linearGradient><path fill-rule="evenodd" clip-rule="evenodd" fill="url(#j)" d="M70.236 45.194c2.568-2.444 3.207-6.327 1.935-10.973-1.41-3.05 2.54-3.6 3.32-.65 1.8 6.8-1.73 12.15-4.74 13.6-2.73 1.33-6.09 1.4-6.98-1.35-.76-2.35-1.14-3.13-5.43-4.78-6.92-2.65-12.37-8.34-13.45-16.34C43.71 15.97 48.13 8.83 53.9 8.83c3.95 0 6.853 3.553 5.23 8.9-1.493 4.93-.544 8.007 5.17 13.436 3.72 3.535 6.92 8.283 4.98 13.86-.49.898.43.69.967.18zM57.76 14.42c0-2.215-1.795-4.01-4.01-4.01-2.216 0-4.012 1.795-4.012 4.01s1.795 4.01 4.01 4.01 4.012-1.795 4.012-4.01zm-.954 0c0-1.688-1.37-3.056-3.057-3.056s-3.06 1.368-3.06 3.056 1.37 3.056 3.05 3.056c1.687 0 3.056-1.368 3.056-3.056z"/></svg>