<svg xmlns="http://www.w3.org/2000/svg" width="200" height="140.666" viewBox="0 0 200 140.666"><path d="M.578 30.996c.65 0 1.664-.326 2.89-.326 3.106 0 2.964 3.544 2.964 13.094v32.778c0 5.847-.144 11.282-.507 16.226-3.757.822-5.637 1.478-5.637 2.294 0 .582.362.744 1.157.744.58 0 3.466-.495 8.603-.495 5.13 0 8.018.5 8.6.5.793 0 1.154-.16 1.154-.74 0-.815-1.88-1.472-5.566-2.293-.358-4.866-.504-10.297-.504-16.226V26.98c0-1.406-.073-1.906-.582-1.906-1.157 0-4.046 1.653-9.178 3.3C1.52 29.198 0 29.27 0 30.268c0 .494.288.73.578.73zM47.188 53.9c2.176-1.304 3.326-2.287 3.326-4.34 0-2.126-1.304-3.6-3.18-3.6-1.513 0-2.954 1.062-4.765 3.194L32.96 60.45h3.18l11.047-6.55zm-7.15 11.577c-10.546 0-16.836 6.255-16.836 15.643 0 8.997 6.213 14.687 16.403 14.687 10.483 0 16.842-6.413 16.842-15.165 0-9.544-6.067-15.165-16.408-15.165zm-.5 28.488c-5.068 0-8.162-4.657-8.162-13.08 0-8.585 3.605-13.485 8.74-13.485 4.838 0 8.167 4.815 8.167 12.85 0 8.503-3.622 13.715-8.744 13.715zm159.63-5.422c-.86 0-2.454 2.507-4.838 2.507-1.23 0-1.374-.896-1.23-3.798l.588-9.954c.055-1.685.055-2.748.055-3.23 0-5.98-2.81-8.808-8.808-8.808-8.17 0-14.017 4.123-14.017 5.98 0 .563.217.897.726.897 1.158 0 4.334-2.828 9.61-2.828 4.263 0 5.197 2.18 5.197 7.51v3.23c-3.1-1.3-5.85-2.028-8.45-2.028-5.56 0-9.315 3.792-9.315 9.222 0 5.324 3.04 8.554 7.59 8.554 3.03 0 6.214-1.86 10.185-5.336-.144 3.64.584 5.336 2.532 5.336 1.875 0 4.625-1.042 7.88-3.31 2.094-1.445 3.11-2.583 3.11-3.23 0-.32-.37-.723-.802-.723zm-12.717.072c-2.67 1.856-4.62 3.073-6.35 3.073-2.39 0-3.902-2.018-3.902-5.42 0-3.95 1.74-5.978 4.984-5.978 1.236 0 2.97.49 5.28 1.532v6.793zM94.39 92.93c-.5-3.047-.426-6.01-.426-9.057v-7.9c0-.62-.016-1.193-.03-1.752-.022-.74-.063-1.44-.13-2.08-.468-4.515-2.08-6.79-6.746-6.79-2.637 0-7.264 1.56-13.68 5.017V26.97c0-1.405-.07-1.905-.57-1.905-1.136 0-3.99 1.653-9.05 3.302-2.415.816-3.91.9-3.91 1.897 0 .495.28.73.565.73.642 0 1.637-.326 2.856-.326 3.06 0 2.91 3.545 2.91 13.095V76.54c0 5.847-.15 11.282-.5 16.226-3.64 1.066-5.56 1.312-5.56 2.294 0 .582.353.744 1.14.744.78 0 3.49-.495 7.98-.495 4.555 0 7.19.49 7.97.49.793 0 1.147-.16 1.147-.747 0-.816-1.496-1.39-4.56-2.13-.497-3.05-.43-6.01-.43-9.06V72.75c3.06-2.143 5.77-3.292 8.833-3.292 3.75 0 4.395 2.64 4.475 7.576.02.35.02.7.02 1.075v7.57c.003 2.422-.038 4.803-.43 7.242-3.058.742-4.56 1.316-4.56 2.132 0 .58.35.743 1.142.743.78 0 3.413-.495 7.976-.495 4.49 0 7.2.495 7.98.495.78 0 1.14-.16 1.14-.742 0-.893-1.854-1.39-5.563-2.13zm48.193-26.137c0 .37.222.648.44.648 1.442 0 4.403-3.16 8.306-3.16 2.89 0 4.77 2.33 4.77 5.68 0 3.25-1.75 5.77-5.28 8.46l-1.808-2.88c-3.4 1.49-6.066 2.6-8.024 3.43l6.65 8.02c4.835 5.758 8.46 8.826 11.634 8.826 3.39 0 5.992-3.626 5.992-5.58 0-.46-.214-.556-.58-.556-.787 0-1.66 2.05-3.326 2.05-2.163 0-4.91-4.277-9.752-11.908 7.876-3.716 11.783-7.54 11.783-11.99 0-4.38-2.6-7.172-7.29-7.172-7.66 0-13.52 5.208-13.52 6.14zm-2.098 25.976c-.35-4.87-.504-10.3-.504-16.23V26.97c0-1.405-.06-1.905-.57-1.905-1.152 0-4.04 1.653-9.17 3.302-2.46.816-3.982.9-3.982 1.897 0 .495.3.73.593.73.64 0 1.653-.326 2.886-.326 3.104 0 2.953 3.544 2.953 13.094v32.78c0 5.846-.14 11.28-.495 16.225-3.692.904-5.636 1.4-5.636 2.293 0 .582.36.744 1.155.744.787 0 3.532-.495 8.09-.495 4.62 0 7.3.49 8.09.49s1.15-.16 1.15-.747c0-.818-1.576-1.146-4.55-2.296zM3.348 107.04l-1.163 3.173H.735l3.916-10.51h1.7l4.12 10.51H9.04l-1.22-3.172H3.35zm.395-1.122H7.37l-1.434-3.696-.424-1.537-.41 1.537-1.36 3.696zm9.648.503c.07.5.22.96.45 1.36.22.42.55.75.996 1 .435.257 1.036.386 1.79.386.456 0 .89-.083 1.313-.25.414-.17.783-.423 1.11-.77l.955.894c-.447.47-.96.823-1.55 1.04-.58.21-1.193.326-1.827.326-.894 0-1.65-.144-2.252-.42-.602-.28-1.092-.66-1.46-1.142-.37-.486-.63-1.06-.794-1.722-.16-.665-.24-1.39-.24-2.165v-.557c0-.768.096-1.45.295-2.053.198-.598.495-1.11.886-1.53.395-.42.886-.74 1.484-.96.592-.226 1.29-.33 2.085-.33.61 0 1.216.096 1.81.306.584.205 1.1.524 1.534.966l-.927.92c-.315-.327-.68-.558-1.11-.72-.43-.158-.87-.235-1.31-.235-.666 0-1.21.11-1.644.32-.427.22-.772.503-1.02.854-.25.35-.425.744-.523 1.18-.092.43-.14.86-.14 1.3v.5c0 .503.033 1.006.1 1.51zm9.87 0c.07.5.21.96.44 1.36.228.42.56.75 1 1 .442.257 1.037.386 1.792.386.46 0 .893-.083 1.31-.25.418-.17.79-.423 1.11-.77l.955.894c-.44.47-.954.823-1.54 1.04-.59.21-1.2.326-1.834.326-.9 0-1.644-.144-2.25-.42-.61-.28-1.093-.66-1.46-1.142-.367-.486-.634-1.06-.797-1.722-.16-.665-.237-1.39-.237-2.165v-.557c0-.768.095-1.45.293-2.053.2-.598.49-1.11.875-1.53.398-.42.894-.74 1.49-.96.592-.226 1.287-.33 2.083-.33.617 0 1.22.096 1.81.306.59.205 1.1.524 1.535.966l-.924.92c-.31-.327-.683-.558-1.11-.72-.43-.158-.86-.235-1.31-.235-.66 0-1.21.11-1.64.32-.42.22-.77.503-1.02.854-.25.35-.426.744-.52 1.18-.093.43-.144.86-.144 1.3v.5c0 .503.035 1.006.1 1.51zm16.18 3.8h-7.52V99.71h7.567l-.392 1.24h-5.81v3.083h5.208v1.237h-5.21v3.71h6.155v1.235zm3.23-10.51v9.276h5.19l-.38 1.236H41.3V99.71h1.363zm14.19 10.51h-7.52V99.71h7.56l-.394 1.24h-5.81v3.083H55.9v1.237h-5.204v3.71h6.157v1.235zm5.376-4.082c-.11-.14-.256-.242-.423-.3-.175-.06-.345-.092-.52-.092h-1.21v4.477h-1.36V99.71H63.5c.44 0 .85.062 1.224.2.38.14.7.335.96.59.27.258.48.564.63.933.158.357.23.77.23 1.226 0 .893-.26 1.61-.76 2.17-.51.542-1.226.84-2.14.892l2.434 3.054c.18.232.338.38.485.423.14.04.316.064.528.064v.95c-.11.06-.24.108-.38.142-.15.026-.278.045-.38.045-.29 0-.556-.1-.785-.304-.24-.202-.46-.41-.65-.644l-2.662-3.32zm-2.15-1.617h3.177c.65 0 1.137-.15 1.45-.452.313-.304.47-.77.47-1.404 0-.592-.15-1.02-.45-1.295-.295-.28-.73-.414-1.293-.414h-3.36v3.568zm11.06 2.53l-1.164 3.17h-1.45l3.915-10.51h1.694l4.113 10.51h-1.42l-1.225-3.17H71.14zm.396-1.124h3.63l-1.437-3.696-.42-1.54-.414 1.538-1.36 3.695zm12.54-4.973v9.268h-1.36v-9.267h-3.51v-1.245h8.362l-.39 1.243h-3.1zm12.62 9.268h-7.52V99.71h7.564l-.398 1.242H90.54v3.08h5.197v1.237H90.54v3.71h6.152v1.233zm13.135-10.51v10.51h-1.36V99.71h1.36zm2.497 10.51V99.71h1.74l5.25 8.435v-8.437h1.365v10.51h-1.667l-5.327-8.607v8.61h-1.363zm10.764 0V99.71h1.734l5.25 8.435v-8.437h1.36v10.51h-1.666l-5.32-8.607v8.61h-1.36zm15.38.187c-.875 0-1.63-.146-2.25-.423-.625-.283-1.135-.674-1.53-1.166-.39-.49-.68-1.06-.867-1.73-.187-.668-.282-1.377-.282-2.134v-.408c0-.716.115-1.38.346-2 .22-.61.548-1.143.97-1.59.42-.453.94-.81 1.55-1.053.614-.257 1.3-.38 2.065-.38.77 0 1.456.124 2.064.38.61.245 1.126.6 1.553 1.054.42.446.742.978.97 1.59.23.62.344 1.283.344 2v.406c0 .76-.095 1.468-.282 2.13-.18.674-.475 1.245-.87 1.734-.39.492-.902.882-1.53 1.167-.62.28-1.37.424-2.25.424zm0-9.64c-.564 0-1.06.1-1.494.3-.44.207-.804.474-1.097.824-.3.343-.528.748-.687 1.21-.153.465-.23.96-.23 1.473v.343c0 .577.07 1.12.203 1.635.13.51.343.96.625 1.343.28.39.64.698 1.083.923.44.238.96.346 1.563.346.62 0 1.16-.11 1.614-.325.447-.22.81-.52 1.1-.898.283-.38.495-.824.625-1.34.13-.51.2-1.08.2-1.685v-.345c0-.514-.085-1.01-.238-1.472-.16-.464-.386-.868-.686-1.21-.293-.35-.663-.617-1.1-.822-.44-.2-.936-.3-1.493-.3zm7.707-1.24l2.86 7.46.558 1.74.56-1.74 2.903-7.46 1.314.36-3.98 10.33h-1.572l-3.976-10.33 1.332-.36zm11.92 7.52l-1.167 3.17h-1.45l3.92-10.51h1.693l4.11 10.51h-1.42l-1.225-3.17h-4.46zm.393-1.122h3.633l-1.44-3.694-.423-1.534-.412 1.538-1.36 3.698zm12.542-4.97v9.267h-1.36v-9.27h-3.508V99.7h8.36l-.387 1.244h-3.108zm6.46-1.244v10.51h-1.36V99.7h1.36zm7.13 10.7c-.877 0-1.63-.146-2.25-.423-.627-.283-1.137-.674-1.528-1.166-.397-.49-.685-1.06-.87-1.73-.188-.665-.283-1.374-.283-2.13v-.407c0-.716.114-1.38.34-2 .227-.61.554-1.143.98-1.59.423-.453.94-.81 1.547-1.053.614-.258 1.3-.38 2.067-.38.765 0 1.45.12 2.063.376.607.244 1.13.6 1.55 1.053.425.445.75.98.978 1.59.223.62.337 1.282.337 2v.405c0 .758-.09 1.467-.28 2.13-.19.673-.474 1.244-.867 1.733-.394.49-.905.88-1.53 1.165-.623.276-1.376.42-2.252.42zm0-9.64c-.563 0-1.062.1-1.5.3-.43.207-.795.474-1.094.824-.3.34-.526.747-.68 1.21-.154.464-.235.958-.235 1.47v.347c0 .576.07 1.12.207 1.634.136.51.345.96.625 1.342.285.39.645.7 1.08.924.444.234.963.342 1.57.342.623 0 1.165-.11 1.61-.326.45-.22.82-.517 1.11-.896.28-.38.494-.82.627-1.34.126-.51.193-1.076.193-1.682v-.346c0-.516-.08-1.01-.232-1.474-.152-.463-.38-.867-.676-1.21-.3-.35-.665-.616-1.103-.82-.446-.2-.94-.3-1.495-.3zm7.024 9.453V99.7h1.74l5.244 8.436V99.7H200v10.51h-1.667l-5.322-8.607v8.608h-1.36z"/><path d="M118.297 92.94c-.502-2.998-.434-5.905-.434-8.908V66.528c0-.972-.068-1.136-.946-1.136-.87 0-4.075 1.87-10.34 2.924-.457.066-.757.08-1.018.092-.85.138-.13 1.526.25 1.932.02.02 1.02.083 1.344.083h2.832c.37 2.188.444 4.374.444 6.564v7.046c0 3.003.066 5.91-.445 8.907-3.78.73-5.593 1.222-5.593 2.11 0 .568.29.73 1.09.73.58 0 3.49-.492 8.66-.492 5.16 0 8.083.493 8.662.493.79 0 1.092-.16 1.092-.73 0-.89-1.828-1.38-5.61-2.11zm-5.286-45.557c3.15 0 5.81 2.707 5.81 5.808 0 3.28-2.57 5.9-5.81 5.9-3.24 0-5.9-2.62-5.9-5.9 0-3.1 2.77-5.8 5.9-5.8zM75.15 33.095v3.076c7.95 12.09 18.184 26.25 29.455 40.94.204.01.83.06.972.08C93.405 61 82.56 45.43 75.145 33.1zM59.5.502c-2.907 2.222.76 11.345 8.562 24.42.62-.352 1.227-.727 1.84-1.086-4.416-8.483-6.144-14.29-3.972-15.92 4.822-3.638 24.278 14.268 46.17 41.17l.045-.164.003-.017C86.926 17.785 64.84-3.595 59.5.502zm98.207 112.845h-1.95c5.146 10.294 7.054 17.393 4.567 19.26-3.413 2.57-12.664-5.12-26.053-19.26h-1.05c16.95 18.745 28.68 29.873 32.677 26.816 3.084-2.363-.106-12.496-8.18-26.816zM126.63 32.77c-3.163 3.597-6.42 7.39-9.777 11.386l-.003.265c3.53-4.15 6.956-8.06 10.23-11.68l-.45.03zm31.927-24.807c3.977 3.013-3.046 20.278-16.825 42.27v2.306c18.133-26.9 27.946-48.37 23.306-51.96-3.816-2.948-15.964 7.44-31.92 24.92.318-.11.642-.2.97-.287 12.157-12.608 21.324-19.65 24.47-17.26zm-27.51 58.275c-2.972 4.218-6.1 8.498-9.418 12.82-2.8 3.643-5.59 7.15-8.35 10.525l.68.004c2.91-3.544 5.844-7.206 8.79-10.974 2.877-3.686 5.635-7.336 8.29-10.948v-1.427zm-38.914 47.11c-13.88 14.085-24.73 21.745-28.138 19.156-2.473-1.886-.534-8.938 4.66-19.157h-1.968c-8.18 14.237-11.613 24.398-8.542 26.766 3.987 3.077 17.628-8.086 35.076-26.766h-1.08z" fill="#68AD45"/></svg>