<svg xmlns="http://www.w3.org/2000/svg" width="344.348" height="60" viewBox="-194.348 10 344.348 60" enable-background="new -194.348 10 344.348 60"><path d="M-194.348 24.053l32.314 32.314 32.315-32.314V10l-32.31 32.314L-194.35 10v7.07zm6.564 26.003l-6.564 7.237V70l19.944-19.944-19.944-20.028v12.79zm51.417 0l6.648-7.237v-12.8l-20.02 20.03L-129.71 70V57.21zm57.223 11.613V36L-93.45 49.467l-14.306-13.464V61.67h-9.004V15.637l23.226 21.374 23.31-21.37v46.12h-8.92v-.083zM-43.8 16.9c7.993 0 14.22 4.04 16.998 9.846l-6.732 4.628c-2.104-5.133-6.648-6.732-10.52-6.732-8.33 0-12.538 7.826-12.538 15.063 0 7.994 5.217 15.316 12.707 15.316 3.87 0 8.5-1.93 10.603-6.9l7.237 4.13c-2.777 6.73-10.94 10.52-18.008 10.52-12.54 0-21.374-11.863-21.374-23.31 0-11.022 7.91-22.55 21.626-22.55zM9.55 54.264v7.49h-30.46V17.91H9.55v7.49h-21.878v10.52h18.43v6.9h-18.43v11.444h21.88zm9.68 7.405v-.85c0-10.858 4.46-15.738 11.95-19.27 5.72-2.696 12.958-4.38 12.958-11.7 0-4.63-3.03-8.753-9.51-8.753-6.31 0-10.35 3.87-12.2 6.31l-2.778-2.69c.926-1.178 6.143-7.574 15.484-7.574 9.088 0 13.633 5.89 13.633 12.623 0 8.752-8.33 12.034-13.212 14.053-9.004 3.786-11.276 7.91-11.276 13.97h24.57v3.87H19.23zm36.267-21.63c0-10.61 6.9-22.3 18.093-22.3 12.035 0 18.094 12.7 18.094 22.3 0 10.68-6.9 22.13-18.093 22.3C61.64 62 55.5 49.97 55.5 40.04zM73.59 58.38c9.34 0 13.8-10.603 13.8-18.345 0-8.583-5.048-18.345-13.8-18.345-9.34 0-13.8 10.603-13.8 18.345.252 8.586 4.796 18.347 13.8 18.347zm37.027 3.282h-4.292V22.54c-1.346 1.934-6.396 5.3-9.762 5.3v-3.954c4.292 0 9.677-5.806 9.762-6.06h4.292V61.67zM150 47.78c0 8.668-6.816 14.558-15.23 14.558-6.228 0-11.53-3.365-14.054-8.5l2.777-2.102c2.272 4.038 6.564 6.73 11.276 6.73 6.14 0 10.85-4.29 10.85-10.602 0-6.06-4.63-10.35-10.52-10.35-3.79 0-7.49 1.766-9.68 4.964h-3.87c.42-2.104 4.88-24.656 4.88-24.656h21.206v3.87h-18.09l-3.03 15.737c2.104-2.36 5.386-3.62 9.004-3.62 8.247 0 14.474 5.72 14.474 13.97z" fill="#231F20"/></svg>