<svg xmlns="http://www.w3.org/2000/svg" viewBox="0 0 200 266.224" enable-background="new 0 0 200 266.224"><path fill="#EE4037" d="M0 0h200v200.01H0z"/><g fill="#231F20"><path d="M28.564 265.053V244.91c0-5.85-3.196-10.3-9.284-10.3-5.854 0-9.836 4.915-9.836 10.773v19.67H0v-38.557h8.507l.626 5.226c3.902-3.823 7.805-5.775 12.644-5.775 9.052 0 16.313 6.794 16.313 18.887v20.22h-9.526zM52.444 226.57l.7 4.45c2.964-4.758 6.947-5.466 10.85-5.466 3.98 0 7.805 1.56 9.912 3.672l-4.293 8.268c-1.952-1.638-3.744-2.496-6.87-2.496-4.994 0-9.598 2.658-9.598 9.764v20.29H43.62v-38.48h8.824zM106.116 226.57h9.128v38.483h-8.972l-.47-5.62c-2.187 4.526-8.193 6.712-12.49 6.79-11.394.078-19.826-6.942-19.826-20.453 0-13.273 8.818-20.215 20.06-20.136 5.154 0 10.068 2.423 12.256 6.246l.314-5.31zm-23.104 19.2c0 7.337 5.07 11.708 11.398 11.708 14.983 0 14.983-23.334 0-23.334-6.327 0-11.398 4.293-11.398 11.625zM161.7 226.497l-16.39 38.712h-10.303l-16.47-38.713h10.38l5.308 12.714 5.935 16.24 5.854-16.078 5.305-12.876h10.38zM200 245.846c0 11.09-7.573 20.066-20.06 20.066-12.493 0-19.985-8.977-19.985-20.066 0-11.004 7.65-20.06 19.908-20.06 12.252 0 20.137 9.056 20.137 20.06zm-30.52 0c0 5.858 3.508 11.32 10.46 11.32 6.946 0 10.46-5.462 10.46-11.32 0-5.772-4.06-11.392-10.46-11.392-6.87 0-10.46 5.62-10.46 11.392z"/></g><path fill="#fff" d="M45.174 50.328c10.55-2.435 23.546-3.043 34.92-2.027v10.152c6.914-5.686 19.496-9.744 29.657-9.744 26.597 0 35.937 11.173 35.937 41.628v38.996c4.674 1.826 8.945 4.26 11.177 6.9l-2.036 15.638H108.12l-2.035-15.638c2.035-2.64 6.305-5.074 11.18-6.9V89.118c0-15.43-5.286-18.48-15.23-18.48-7.926 0-14.425 3.05-19.3 6.5v52.193c4.68 1.827 8.943 4.262 11.182 6.9l-2.044 15.64h-46.7l-2.037-15.64c2.037-2.64 6.3-5.073 11.173-6.9V72.876c-4.67-1.624-8.534-4.06-11.174-6.906l2.038-15.642z"/></svg>