<svg xmlns="http://www.w3.org/2000/svg" width="80" height="80" viewBox="0 0 80 80"><path fill="#3F4345" d="M.007 47.28C.007 31.66.01 16.038 0 .418 0 .098.042 0 .4 0c26.403.01 52.807.01 79.21.002.325 0 .388.065.388.39-.01 26.402-.01 52.805.002 79.208 0 .36-.1.4-.418.4-16.874-.008-33.747-.007-50.62-.007-.02-.13-.12-.204-.2-.292-3.356-3.79-6.715-7.58-10.074-11.37L3.89 51.64C2.6 50.18 1.302 48.73.007 47.28zm26.023-4.42h.51c1.853 0 3.706-.024 5.558.008 2.042.035 3.774-.67 5.247-2.056 1.74-1.638 2.758-3.578 2.664-6.042-.07-1.61-.01-3.225-.02-4.838 0-.44.033-.878.09-1.315.14-1.173.76-1.923 1.92-2.22.58-.15 1.173-.224 1.78-.224 2.89 0 5.78.002 8.672-.003.4 0 .798.028 1.194.082 1.4.19 2.324.95 2.625 2.164.094.377.115.762.115 1.15-.005 9.757 0 19.514-.01 29.27 0 .332.05.453.422.447 1.625-.025 3.25-.017 4.877-.004.28 0 .368-.08.36-.36-.02-.698-.005-1.39-.005-2.08 0-8.24.01-16.48.003-24.71 0-1.61.093-3.23-.135-4.83-.348-2.46-1.427-4.45-3.706-5.64-1.35-.704-2.8-1.04-4.3-1.087-3.8-.113-7.6-.117-11.398 0-1.692.052-3.334.433-4.782 1.364-.432.28-.69.32-1.14-.015-1.47-1.09-3.19-1.41-4.98-1.41-4.426 0-8.85.004-13.277-.006-.305 0-.376.09-.374.385.01 1.613.015 3.226 0 4.838-.007.34.064.444.43.443 4.16-.013 8.32 0 12.475-.014.645 0 1.24.148 1.81.41.817.38 1.38.99 1.6 1.88.027.102.056.21.054.312-.02 1.945.097 3.89-.003 5.835-.074 1.42-.913 2.31-2.308 2.543-.358.06-.716.06-1.076.06-4.172.005-8.344.01-12.516-.01-.4 0-.48.118-.47.49.02 1.148.052 2.297-.01 3.44-.04.73.214 1.25.674 1.78 4.643 5.36 9.268 10.735 13.893 16.108.16.186.316.273.572.27 2.21-.01 4.422-.005 6.635-.01.11 0 .236.057.35-.068L26.03 42.86z"/><path fill="#d00" d="M.007 47.28C1.3 48.73 2.6 50.18 3.89 51.635c4.934 5.564 9.865 11.13 14.798 16.695 3.36 3.79 6.717 7.58 10.075 11.37.078.09.18.164.198.293-9.53 0-19.07-.002-28.61.008-.29 0-.35-.06-.35-.35.01-10.79.01-21.58.01-32.37z"/><path fill="#FDFDFD" d="M26.03 42.86L40.068 59.2c-.114.123-.24.068-.35.068-2.212.004-4.424-.002-6.637.01-.25 0-.41-.085-.57-.27-4.62-5.374-9.25-10.747-13.89-16.106-.46-.53-.71-1.053-.67-1.783.065-1.15.034-2.3.01-3.44-.01-.38.07-.49.47-.49 4.17.012 8.344.01 12.516.01.36 0 .718 0 1.076-.06 1.395-.238 2.233-1.128 2.307-2.548.1-1.944-.02-3.89.003-5.835 0-.104-.03-.21-.053-.313-.22-.89-.782-1.5-1.6-1.878-.57-.265-1.166-.414-1.81-.41-4.16.01-8.32 0-12.476.014-.364.004-.435-.1-.43-.44.02-1.614.015-3.227 0-4.84 0-.293.07-.385.376-.385 4.424.01 8.85.005 13.275.006 1.795 0 3.515.32 4.985 1.41.45.33.706.296 1.14.017 1.45-.93 3.09-1.31 4.78-1.364 3.8-.116 7.6-.11 11.396 0 1.5.046 2.955.384 4.3 1.087 2.28 1.19 3.36 3.175 3.708 5.63.227 1.603.13 3.22.133 4.83.006 8.24 0 16.476-.003 24.714 0 .692-.013 1.386.006 2.08.008.28-.08.355-.358.353-1.626-.012-3.253-.02-4.878.005-.375.007-.425-.115-.424-.445.01-9.757.006-19.514.01-29.27 0-.39-.02-.775-.115-1.15-.3-1.216-1.223-1.976-2.622-2.165-.395-.05-.793-.08-1.194-.08-2.89.006-5.783 0-8.675.004-.602 0-1.194.073-1.778.223-1.16.295-1.78 1.045-1.92 2.22-.053.435-.09.872-.09 1.313.006 1.613-.047 3.23.014 4.84.096 2.462-.924 4.402-2.662 6.04-1.472 1.39-3.205 2.09-5.246 2.056-1.85-.036-3.704-.01-5.557-.01h-.513z"/></svg>