<svg xmlns="http://www.w3.org/2000/svg" width="217.521" height="60" viewBox="0 0 200 45.821" enable-background="new 0 0 200 45.821"><path fill-rule="evenodd" clip-rule="evenodd" fill="#0094D9" d="M5.766 45.793c-1.536-.073-3.165-.207-4.08-.73C.01 44.1-.42 40.18.412 38.297c.556-1.307 2.28-.3 4.387.173 11.68 2.607 28.833.634 34.68-9.676 2.63-4.65-1.347-7.605-6.446-7.998-9.51-.728-24.378 4.51-24.97-3.467-.3-4.068 6.09-7.32 9.92-8.29 3.456-.88 9.156-1.97 16.76-.19.936.146 1.376 1.155 1.36 2.02-.136 7.772-.978 1.52-12.677.54-7.355-.61-12.828 3.09-10.3 6.955 3.165 4.825 19.346-1.15 27.025.362C47.738 20.22 47.185 29 39.865 34.97c-7.184 5.854-17.477 8.953-26.52 10.26-3.12.453-5.627.666-7.586.557m6.765-10.33c-1.197-.115-4.78-.463-5.647-2.185-.38-.888-.728-4.185.09-4.944.1.006.303-.085.5-.084.836.04 7.61 4.26 16 3.506 11.915-1.075 13.065-8.137 5.24-8.554-7.01-.376-27.58 5.828-28.146-4.48C-.22 4.49 27.75-1.614 38.594.363c1.294.25 1.963.056 2.263 1.564.155.782.226 4.925-.88 4.542-4.63-1.6-8.34-2.27-13.33-2.038-6.67.322-18.675 3.15-20.54 11.337-.66 2.865 2.04 5.75 5.465 6.463 8.338 1.733 28.046-4.725 26.356 4.252-1.257 6.746-18.295 10.227-25.396 8.973z"/><path fill-rule="evenodd" clip-rule="evenodd" d="M195.386 22.805c-.02-.966-.268-1.695-.722-2.178-.453-.493-1.16-.73-2.123-.73-.89 0-1.63.228-2.2.69-.575.46-.9 1.197-.96 2.218h6.01zm4.614 2.7h-10.62c.07 1.127.5 1.99 1.297 2.59.796.597 1.96.9 3.513.9.98 0 1.928-.176 2.845-.53.92-.35 1.648-.722 2.185-1.124h.513v3.707c-1.05.417-2.038.72-2.97.91-.928.186-1.954.283-3.074.283-2.91 0-5.138-.655-6.69-1.95-1.54-1.298-2.313-3.15-2.313-5.544 0-2.38.727-4.257 2.192-5.65 1.465-1.388 3.476-2.08 6.034-2.08 2.348 0 4.114.592 5.303 1.772 1.19 1.19 1.777 2.89 1.777 5.11v1.612zm-16.828-8.042l-5.585 14.384h-5.258l-5.548-14.384h4.91l3.355 9.89 3.312-9.89h4.807zm-17.21 4.396h-.41c-.197-.08-.516-.13-.955-.16-.43-.038-.8-.05-1.096-.05-.65 0-1.24.04-1.75.12-.503.09-1.05.234-1.63.44v9.63h-4.645V17.46h4.645v2.108c1.02-.866 1.912-1.444 2.666-1.733.758-.286 1.454-.427 2.09-.427.16 0 .35.007.556.014.206.01.387.018.535.04v4.397zm-18.378.94c-.022-.966-.265-1.695-.72-2.178-.458-.493-1.164-.73-2.127-.73-.89 0-1.628.228-2.21.69-.573.46-.896 1.197-.96 2.218h6.017zm4.612 2.7h-10.618c.07 1.127.503 1.99 1.3 2.59.792.597 1.958.9 3.508.9.982 0 1.927-.176 2.846-.53.925-.35 1.648-.72 2.187-1.124h.502v3.7c-1.047.418-2.034.72-2.963.91-.923.187-1.95.284-3.08.284-2.905 0-5.13-.653-6.678-1.95-1.546-1.296-2.316-3.15-2.316-5.542 0-2.38.73-4.257 2.192-5.65 1.47-1.388 3.472-2.08 6.026-2.08 2.358 0 4.123.592 5.31 1.772 1.19 1.19 1.778 2.89 1.778 5.11v1.612zm-17.5-.378c0 2.108-.895 3.818-2.696 5.13-1.798 1.32-4.234 1.983-7.312 1.983-1.79 0-3.34-.16-4.66-.47-1.33-.315-2.566-.71-3.728-1.19V25.45h.607c1.15.91 2.43 1.605 3.85 2.096 1.42.49 2.79.732 4.1.732.335 0 .78-.027 1.332-.08.55-.06.99-.154 1.34-.294.42-.17.77-.387 1.042-.643.277-.256.414-.64.414-1.15 0-.466-.204-.872-.6-1.214-.4-.338-.986-.603-1.76-.784-.807-.19-1.66-.37-2.564-.536-.9-.17-1.747-.386-2.533-.64-1.808-.586-3.11-1.376-3.91-2.38-.797-.995-1.19-2.24-1.19-3.728 0-1.99.9-3.614 2.692-4.872 1.797-1.26 4.108-1.888 6.927-1.888 1.42 0 2.82.132 4.2.407 1.377.272 2.58.62 3.59 1.03v4.92h-.59c-.866-.69-1.933-1.262-3.19-1.73-1.257-.46-2.54-.698-3.854-.698-.46 0-.92.035-1.38.096-.45.057-.895.177-1.317.35-.38.138-.7.36-.97.653-.274.29-.405.627-.405.997 0 .565.214 1 .65 1.3.433.304 1.25.578 2.455.827.79.166 1.55.32 2.275.474.73.16 1.51.37 2.347.633 1.653.54 2.87 1.27 3.653 2.195.784.924 1.174 2.12 1.174 3.598zm-20.547 6.59c-.51.13-1.03.234-1.59.308-.56.07-1.24.105-2.05.105-1.81 0-3.15-.365-4.03-1.088-.877-.728-1.32-1.97-1.32-3.73v-6.72h-1.91V17.46h1.91v-4.11h4.64v4.115h4.346v3.125H109.8v5.095c0 .5.006.95.015 1.324.007.37.08.71.206 1.01.12.29.34.53.64.71.308.172.75.262 1.33.262.25 0 .565-.052.956-.156.394-.105.665-.196.818-.286h.388v3.165zm-11.028-16.42h-.345c-.207-.062-.477-.126-.803-.206-.336-.08-.69-.116-1.073-.116-.91 0-1.522.168-1.842.49-.324.32-.488.95-.488 1.885v.112h3.583v3.125h-3.43v11.26H94.09v-11.26h-1.985V17.46h1.984v-.4c0-1.76.47-3.082 1.41-3.96.94-.876 2.362-1.317 4.27-1.317.685 0 1.31.018 1.87.066.56.05 1.05.11 1.48.19v3.25zm-18.42 12.862c.302-.37.527-.808.68-1.33.147-.515.225-1.23.225-2.144 0-.844-.078-1.55-.23-2.124-.15-.57-.373-1.028-.65-1.376-.27-.35-.6-.592-.987-.736-.387-.15-.807-.223-1.25-.223-.447 0-.846.06-1.19.185-.354.12-.68.36-.997.72-.285.33-.514.79-.678 1.368-.168.58-.248 1.316-.248 2.19 0 .787.062 1.47.21 2.05.144.573.356 1.033.644 1.38.27.34.604.58.99.73.38.16.817.235 1.3.235.426 0 .827-.065 1.21-.21.386-.14.707-.38.974-.71zm5.708-3.502c0 2.37-.69 4.235-2.08 5.594-1.386 1.363-3.334 2.045-5.84 2.045-2.515 0-4.46-.68-5.843-2.045-1.39-1.36-2.085-3.226-2.085-5.595 0-2.377.7-4.25 2.095-5.61 1.4-1.35 3.343-2.03 5.843-2.03 2.525 0 4.476.686 5.853 2.05 1.38 1.37 2.066 3.227 2.066 5.596zm-18.04.47c0 2.107-.895 3.817-2.695 5.13-1.796 1.32-4.233 1.982-7.317 1.982-1.78 0-3.338-.158-4.66-.47-1.326-.314-2.56-.71-3.726-1.188V25.45h.61c1.15.91 2.427 1.605 3.85 2.096 1.42.49 2.79.73 4.098.73.34 0 .78-.025 1.328-.08.554-.06.998-.152 1.348-.292.422-.17.772-.387 1.044-.643.276-.255.416-.64.416-1.15 0-.465-.203-.87-.602-1.213-.4-.337-.986-.602-1.756-.783-.81-.19-1.664-.37-2.567-.536-.9-.17-1.74-.385-2.532-.64-1.808-.585-3.11-1.375-3.91-2.38-.796-.994-1.19-2.24-1.19-3.727 0-1.99.9-3.612 2.697-4.87 1.79-1.26 4.102-1.887 6.93-1.887 1.41 0 2.812.132 4.193.407 1.384.27 2.58.62 3.595 1.03v4.92h-.593c-.873-.69-1.93-1.263-3.19-1.73-1.26-.46-2.54-.7-3.853-.7-.46 0-.92.037-1.38.098-.453.057-.896.177-1.32.35-.376.138-.696.36-.97.653-.268.294-.4.63-.4 1 0 .565.216 1 .65 1.3.432.304 1.25.578 2.457.827.79.166 1.545.32 2.272.474.726.16 1.506.37 2.345.634 1.647.54 2.87 1.268 3.65 2.194.79.923 1.177 2.12 1.177 3.597z"/></svg>