<svg id="Layer_1" data-name="Layer 1" xmlns="http://www.w3.org/2000/svg" viewBox="0 0 941.2 120"><defs><style>.cls-1,.cls-2,.cls-3,.cls-4{fill:none;stroke:#fff;stroke-miterlimit:10;}.cls-1{stroke-width:1.7px;}.cls-2{stroke-width:3.7px;}.cls-3{stroke-width:7.7px;}.cls-4{stroke-width:5.7px;}</style></defs><title>barcode_white</title><path class="cls-1" d="M-86,120V0m4,120V0m6,120V0" transform="translate(86.85)"/><line class="cls-2" x1="17.85" y1="120" x2="17.85"/><line class="cls-3" x1="25.85" y1="120" x2="25.85"/><line class="cls-1" x1="32.85" y1="120" x2="32.85"/><line class="cls-4" x1="40.85" y1="120" x2="40.85"/><line class="cls-1" x1="46.85" y1="120" x2="46.85"/><line class="cls-2" x1="51.85" y1="120" x2="51.85"/><path class="cls-1" d="M-26,120V0m10,120V0m4,120V0m6,120V0M2,120V0M6,120V0m4,120V0m4,120V0m6,120V0" transform="translate(86.85)"/><line class="cls-4" x1="116.85" y1="120" x2="116.85"/><line class="cls-1" x1="122.85" y1="120" x2="122.85"/><line class="cls-4" x1="130.85" y1="120" x2="130.85"/><line class="cls-1" x1="138.85" y1="120" x2="138.85"/><path class="cls-2" d="M57,120V0m8,120V0m6,120V0m6,120V0" transform="translate(86.85)"/><path class="cls-1" d="M84,120V0m6,120V0m8,120V0m4,120V0" transform="translate(86.85)"/><path class="cls-1" d="M102,120V0m4,120V0m6,120V0" transform="translate(86.85)"/><line class="cls-2" x1="205.85" y1="120" x2="205.85"/><line class="cls-3" x1="213.85" y1="120" x2="213.85"/><line class="cls-1" x1="220.85" y1="120" x2="220.85"/><line class="cls-4" x1="228.85" y1="120" x2="228.85"/><line class="cls-1" x1="234.85" y1="120" x2="234.85"/><line class="cls-2" x1="239.85" y1="120" x2="239.85"/><path class="cls-1" d="M162,120V0m10,120V0m4,120V0m6,120V0m8,120V0m4,120V0m4,120V0m4,120V0m6,120V0" transform="translate(86.85)"/><line class="cls-4" x1="304.85" y1="120" x2="304.85"/><line class="cls-1" x1="310.85" y1="120" x2="310.85"/><line class="cls-4" x1="318.85" y1="120" x2="318.85"/><line class="cls-1" x1="326.85" y1="120" x2="326.85"/><path class="cls-2" d="M245,120V0m8,120V0m6,120V0m6,120V0" transform="translate(86.85)"/><path class="cls-1" d="M272,120V0m6,120V0m8,120V0m4,120V0" transform="translate(86.85)"/><path class="cls-1" d="M292.5,120V0m4,120V0m6,120V0" transform="translate(86.85)"/><line class="cls-2" x1="396.35" y1="120" x2="396.35"/><line class="cls-3" x1="404.35" y1="120" x2="404.35"/><line class="cls-1" x1="411.35" y1="120" x2="411.35"/><line class="cls-4" x1="419.35" y1="120" x2="419.35"/><line class="cls-1" x1="425.35" y1="120" x2="425.35"/><line class="cls-2" x1="430.35" y1="120" x2="430.35"/><path class="cls-1" d="M352.5,120V0m10,120V0m4,120V0m6,120V0m8,120V0m4,120V0m4,120V0m4,120V0m6,120V0" transform="translate(86.85)"/><line class="cls-4" x1="495.35" y1="120" x2="495.35"/><line class="cls-1" x1="501.35" y1="120" x2="501.35"/><line class="cls-4" x1="509.35" y1="120" x2="509.35"/><line class="cls-1" x1="517.35" y1="120" x2="517.35"/><path class="cls-2" d="M435.5,120V0m8,120V0m6,120V0m6,120V0" transform="translate(86.85)"/><path class="cls-1" d="M462.5,120V0m6,120V0m8,120V0m4,120V0" transform="translate(86.85)"/><path class="cls-1" d="M475.5,120V0m4,120V0m6,120V0" transform="translate(86.85)"/><line class="cls-2" x1="579.35" y1="120" x2="579.35"/><line class="cls-3" x1="587.35" y1="120" x2="587.35"/><line class="cls-1" x1="594.35" y1="120" x2="594.35"/><line class="cls-4" x1="602.35" y1="120" x2="602.35"/><line class="cls-1" x1="608.35" y1="120" x2="608.35"/><line class="cls-2" x1="613.35" y1="120" x2="613.35"/><path class="cls-1" d="M535.5,120V0m10,120V0m4,120V0m6,120V0m8,120V0m4,120V0m4,120V0m4,120V0m6,120V0" transform="translate(86.85)"/><line class="cls-4" x1="678.35" y1="120" x2="678.35"/><line class="cls-1" x1="684.35" y1="120" x2="684.35"/><line class="cls-4" x1="692.35" y1="120" x2="692.35"/><line class="cls-1" x1="700.35" y1="120" x2="700.35"/><path class="cls-2" d="M618.5,120V0m8,120V0m6,120V0m6,120V0" transform="translate(86.85)"/><path class="cls-1" d="M645.5,120V0m6,120V0m8,120V0m4,120V0" transform="translate(86.85)"/><path class="cls-1" d="M665.5,120V0m4,120V0m6,120V0" transform="translate(86.85)"/><line class="cls-2" x1="769.35" y1="120" x2="769.35"/><line class="cls-3" x1="777.35" y1="120" x2="777.35"/><line class="cls-1" x1="784.35" y1="120" x2="784.35"/><line class="cls-4" x1="792.35" y1="120" x2="792.35"/><line class="cls-1" x1="798.35" y1="120" x2="798.35"/><line class="cls-2" x1="803.35" y1="120" x2="803.35"/><path class="cls-1" d="M725.5,120V0m10,120V0m4,120V0m6,120V0m8,120V0m4,120V0m4,120V0m4,120V0m6,120V0" transform="translate(86.85)"/><line class="cls-4" x1="868.35" y1="120" x2="868.35"/><line class="cls-1" x1="874.35" y1="120" x2="874.35"/><line class="cls-4" x1="882.35" y1="120" x2="882.35"/><line class="cls-1" x1="890.35" y1="120" x2="890.35"/><path class="cls-2" d="M808.5,120V0m8,120V0m6,120V0m6,120V0" transform="translate(86.85)"/><path class="cls-1" d="M835.5,120V0m6,120V0m8,120V0m4,120V0" transform="translate(86.85)"/></svg>