<svg id="Layer_4" xmlns="http://www.w3.org/2000/svg" viewBox="0 0 1110.7 200"><style>.st0{fill:#757575;}</style><g id="XMLID_261_"><path id="XMLID_259_" class="st0" d="M32.3 0H0l92.3 160 16.2-28L32.3 0z"/><path id="XMLID_258_" class="st0" d="M120.9 91L68.3 0H36.1l74.3 128.8 10.5-18.2c1.7-2.8 2.8-6.2 2.8-9.8-.1-3.6-1.1-6.9-2.8-9.8z"/><path id="XMLID_257_" class="st0" d="M56.3 104.1L.9 200h32.3l39.3-68-16.2-27.9z"/><path id="XMLID_256_" class="st0" d="M74.3 135.3L37 200h32.2l21.3-36.8-16.2-27.9z"/></g><path class="st0" d="M360.2 104.9c0 22-6.5 39.5-19.6 52.6-14.8 15.5-34.1 23.3-57.9 23.3-22.7 0-42.1-7.9-58-23.6-15.9-15.8-23.9-35.3-23.9-58.6 0-23.3 8-42.9 23.9-58.6 15.9-15.8 35.2-23.7 58-23.7 11.3 0 22.1 2.2 32.3 6.6 10.3 4.4 18.5 10.3 24.6 17.6l-13.9 13.9c-10.4-12.5-24.8-18.7-43.1-18.7-16.6 0-30.9 5.8-43 17.5-12.1 11.7-18.2 26.8-18.2 45.4 0 18.6 6.1 33.8 18.2 45.4 12.1 11.7 26.4 17.5 43 17.5 17.6 0 32.3-5.9 44-17.6 7.6-7.6 12-18.3 13.2-31.9h-57.2V93h76.3c.9 4.1 1.3 8 1.3 11.9zM380.2 177.2V19.7h48.2c24.2 0 43.6 7.3 58.1 21.9 14.5 14.6 21.8 33.5 21.8 56.9 0 23.3-7.3 42.3-21.8 56.9-14.5 14.6-33.9 21.9-58.1 21.9h-48.2zm20.2-19.3h27.9c18.2 0 32.6-5.2 43.2-15.6 10.6-10.4 16-25 16-43.8 0-18.6-5.3-33.2-16-43.7-10.6-10.5-25-15.7-43.2-15.7h-27.9v118.8zM679.9 104.9c0 22-6.5 39.5-19.6 52.6-14.8 15.5-34.1 23.3-57.9 23.3-22.7 0-42.1-7.9-58-23.6-15.9-15.8-23.9-35.3-23.9-58.6 0-23.3 8-42.9 23.9-58.6 15.9-15.8 35.2-23.7 58-23.7 11.3 0 22.1 2.2 32.3 6.6 10.3 4.4 18.5 10.3 24.6 17.6l-13.9 13.9c-10.4-12.5-24.8-18.7-43.1-18.7-16.6 0-30.9 5.8-43 17.5-12.1 11.7-18.1 26.8-18.1 45.4 0 18.6 6 33.8 18.1 45.4 12.1 11.7 26.4 17.5 43 17.5 17.6 0 32.3-5.9 44-17.6 7.6-7.6 12-18.3 13.2-31.9h-57.2V93h76.3c.9 4.1 1.3 8 1.3 11.9zM827.1 180.8c-23.2 0-42.6-7.8-58.3-23.5-15.7-15.7-23.5-35.3-23.5-58.7 0-23.5 7.8-43 23.5-58.7 15.7-15.7 35.1-23.5 58.3-23.5 23.8 0 43 8.6 57.9 25.7l-14.1 13.6c-10.7-13.3-25.3-20-43.8-20-17.2 0-31.6 5.8-43.5 17.4-11.8 11.6-17.7 26.8-17.7 45.5 0 18.8 5.9 34 17.7 45.5 11.8 11.6 26.3 17.4 43.5 17.4 18.9 0 35.1-7.6 48.4-22.9l14.1 14.1c-7.2 8.7-16.2 15.5-27.1 20.6-10.8 4.9-22.6 7.5-35.4 7.5zM997.2 39.1h-71.7V89h64.7v18.9h-64.7v49.9h71.7v19.4h-92V19.7h92v19.4zM1110.7 39.1H1039V89h64.7v18.9H1039v49.9h71.7v19.4h-92V19.7h92v19.4z"/></svg>