<?xml version="1.0" encoding="utf-8"?>
<!-- Generator: Adobe Illustrator 19.1.0, SVG Export Plug-In . SVG Version: 6.00 Build 0)  -->
<svg version="1.1" id="Layer_4" xmlns="http://www.w3.org/2000/svg" xmlns:xlink="http://www.w3.org/1999/xlink" x="0px" y="0px"
	 viewBox="-454 151 1089.3 200" style="enable-background:new -454 151 1089.3 200;" xml:space="preserve">
<style type="text/css">
	.st0{fill:#757575;}
	.st1{font-family:'ProductSans-Regular';}
	.st2{font-size:153px;}
</style>
<g id="XMLID_261_">
	<path id="XMLID_259_" class="st0" d="M-416.2,151h-32.3l92.3,160l16.2-28L-416.2,151z"/>
	<path id="XMLID_258_" class="st0" d="M-327.6,242l-52.6-91h-32.2l74.3,128.8l10.5-18.2c1.7-2.8,2.8-6.2,2.8-9.8
		C-324.9,248.2-325.9,244.9-327.6,242L-327.6,242z"/>
	<path id="XMLID_257_" class="st0" d="M-392.2,255.1l-55.4,95.9h32.3l39.3-68L-392.2,255.1z"/>
	<path id="XMLID_256_" class="st0" d="M-374.2,286.3l-37.3,64.7h32.2l21.3-36.8L-374.2,286.3L-374.2,286.3z"/>
</g>
<text transform="matrix(1 0 0 1 -269.5 311)" class="st0 st1 st2">GDG Nantes</text>
</svg>
