<?xml version="1.0" encoding="utf-8"?>
<!-- Generator: Adobe Illustrator 19.0.0, SVG Export Plug-In . SVG Version: 6.00 Build 0)  -->
<svg version="1.1" id="Layer_1" xmlns="http://www.w3.org/2000/svg" xmlns:xlink="http://www.w3.org/1999/xlink" x="0px" y="0px"
	 viewBox="0 0 1600 110" style="enable-background:new 0 0 1600 110;" xml:space="preserve">
<style type="text/css">
	.st0{opacity:0.5;}
	.st1{fill:#020202;}
	.st2{fill:none;}
	.st3{fill:#FCC118;}
	.st4{fill:#0F9D58;}
	.st5{opacity:0.2;fill:#BF3C27;enable-background:new    ;}
	.st6{opacity:0.2;fill:#28343A;enable-background:new    ;}
	.st7{opacity:0.2;fill:#FFFFFF;enable-background:new    ;}
	.st8{fill:url(#XMLID_14_);}
	.st9{fill:url(#XMLID_15_);}
	.st10{fill:#567FC0;}
	.st11{fill:#DC4637;}
	.st12{opacity:0.2;fill:#2C3279;enable-background:new    ;}
	.st13{opacity:0.2;fill:#3F2823;enable-background:new    ;}
	.st14{fill:url(#XMLID_16_);}
	.st15{opacity:0.5;fill:#020202;enable-background:new    ;}
	.st16{fill:url(#XMLID_17_);}
	.st17{fill:url(#XMLID_20_);}
	.st18{fill:url(#XMLID_21_);}
</style>
<g id="XMLID_12_">
	<g id="XMLID_243_" class="st0">
		<path id="XMLID_245_" class="st1" d="M386.3,86.1h-9.1V14.8h24.3c6.2,0,11.5,2,15.7,6.1c4.4,4.1,6.5,9.1,6.5,15
			c0,4.9-1.6,9.3-4.9,13.1c-3.2,3.8-7.3,6.3-12.2,7.3l-0.2,0.3l20,29V86h-10.8l-19.2-28.9h-10.2V86.1z M386.3,23.6v25.1H401
			c3.7,0,6.9-1.2,9.5-3.7c2.6-2.4,3.9-5.4,3.9-9c0-3.3-1.2-6.2-3.7-8.7c-2.5-2.5-5.5-3.7-9.1-3.7L386.3,23.6L386.3,23.6z"/>
		<path id="XMLID_248_" class="st1" d="M444.8,20.5c0,1.8-0.6,3.3-1.9,4.6c-1.3,1.3-2.8,1.9-4.6,1.9c-1.8,0-3.3-0.6-4.6-1.9
			c-1.3-1.3-1.9-2.8-1.9-4.6c0-1.8,0.6-3.3,1.9-4.6s2.8-1.9,4.6-1.9c1.8,0,3.3,0.6,4.6,1.9C444.2,17.2,444.8,18.7,444.8,20.5z
			 M443,37.3v48.8h-9.1V37.3H443z"/>
		<path id="XMLID_251_" class="st1" d="M476.1,109.2c-2.7,0-5.3-0.4-7.7-1.1s-4.6-1.7-6.5-3c-2-1.3-3.7-2.7-5-4.5
			c-1.4-1.8-2.5-3.7-3.2-5.8l8.6-3.6c1,2.9,2.7,5.1,5.2,6.9s5.3,2.6,8.6,2.6c5,0,8.9-1.5,11.7-4.5c2.8-3,4.1-7.1,4.1-12.4v-4.7h-0.4
			c-1.8,2.6-4.1,4.6-7,6.1c-3,1.5-6.2,2.2-9.6,2.2c-6.4,0-11.9-2.5-16.5-7.5c-4.5-5.1-6.7-11.2-6.7-18.5s2.2-13.4,6.7-18.4
			c4.6-5.1,10.1-7.6,16.5-7.6c3.4,0,6.7,0.8,9.6,2.2s5.3,3.5,7,6.1h0.4v-6.7h8.8v46.7c0,7.8-2.2,14-6.7,18.4
			C489.4,106.9,483.4,109.2,476.1,109.2z M476.3,79.3c4.5,0,8.2-1.6,11-4.9c3-3.2,4.5-7.5,4.5-12.7c0-5.1-1.5-9.4-4.5-12.7
			c-3-3.3-6.6-5-11-5c-4.4,0-8.1,1.7-11,5c-3,3.3-4.5,7.5-4.5,12.7c0,5.2,1.5,9.4,4.5,12.7C468.3,77.6,472,79.3,476.3,79.3z"/>
		<path id="XMLID_254_" class="st1" d="M529.8,35.7c6.7,0,12.1,1.8,16,5.4s5.9,8.6,5.9,14.9v30.1h-8.8v-6.7h-0.4
			c-3.8,5.6-8.9,8.4-15.1,8.4c-5.3,0-9.8-1.6-13.5-4.8c-3.6-3.2-5.4-7.2-5.4-12c0-5.1,1.9-9.1,5.7-12c3.8-3,8.9-4.5,15.3-4.5
			c5.4,0,9.9,1,13.4,3v-2.1c0-3.2-1.3-5.9-3.8-8.1c-2.5-2.2-5.5-3.3-8.9-3.3c-5.1,0-9.1,2.2-12.2,6.5l-8.1-5.1
			C514.5,38.9,521.1,35.7,529.8,35.7z M518,71.2c0,2.4,1,4.4,3,6c2,1.6,4.4,2.4,7.1,2.4c3.9,0,7.3-1.4,10.3-4.3
			c3-2.9,4.5-6.2,4.5-10.1c-2.9-2.2-6.8-3.4-12-3.4c-3.7,0-6.8,0.9-9.3,2.7C519.2,66.2,518,68.5,518,71.2z"/>
	</g>
	<g id="XMLID_319_">
		<g id="XMLID_325_">
			<g id="XMLID_326_">
				<path id="XMLID_354_" class="st2" d="M60.9,45.1L34.9,0H0l28.8,49.7L0,99.4h34.8l26.1-45.1C62.6,51.5,62.6,48,60.9,45.1z"/>
				<polygon id="XMLID_353_" class="st3" points="46,79.4 37.7,65.2 17.9,99.4 34.9,99.4 46.2,79.9 				"/>
				<path id="XMLID_352_" class="st2" d="M60.9,45.1L34.9,0H0l28.8,49.7L0,99.4h34.8l26.1-45.1C62.6,51.5,62.6,48,60.9,45.1z"/>
				<polygon id="XMLID_351_" class="st4" points="28.8,49.7 37.7,65.2 17.9,99.4 0,99.4 				"/>
				<path id="XMLID_350_" class="st2" d="M60.9,45.1L34.9,0H0l28.8,49.7L0,99.4h34.8l26.1-45.1C62.6,51.5,62.6,48,60.9,45.1z"/>
				<polygon id="XMLID_349_" class="st5" points="34.9,98.6 18.4,98.6 17.9,99.4 34.9,99.4 46.2,79.9 46,79.4 				"/>
				<path id="XMLID_348_" class="st2" d="M60.9,45.1L34.9,0H0l28.8,49.7L0,99.4h34.8l26.1-45.1C62.6,51.5,62.6,48,60.9,45.1z"/>
				<polygon id="XMLID_347_" class="st6" points="0.5,98.6 0,99.4 17.9,99.4 18.4,98.6 				"/>
				<path id="XMLID_346_" class="st2" d="M60.9,45.1L34.9,0H0l28.8,49.7L0,99.4h34.8l26.1-45.1C62.6,51.5,62.6,48,60.9,45.1z"/>
				<polygon id="XMLID_345_" class="st7" points="0,99.4 0.5,99.4 29,50.1 28.8,49.7 				"/>
				<path id="XMLID_344_" class="st2" d="M60.9,45.1L34.9,0H0l28.8,49.7L0,99.4h34.8l26.1-45.1C62.6,51.5,62.6,48,60.9,45.1z"/>
				
					<radialGradient id="XMLID_14_" cx="46.0668" cy="-268.4623" r="34.3824" gradientTransform="matrix(1 0 0 1 0 348)" gradientUnits="userSpaceOnUse">
					<stop  offset="0" style="stop-color:#BF3C27;stop-opacity:0.2"/>
					<stop  offset="1" style="stop-color:#BF3C27;stop-opacity:2.000000e-02"/>
				</radialGradient>
				<polygon id="XMLID_343_" class="st8" points="46.2,79.9 46.2,79.9 37.7,65.2 35.6,68.8 				"/>
				<path id="XMLID_342_" class="st2" d="M60.9,45.1L34.9,0H0l28.8,49.7L0,99.4h34.8l26.1-45.1C62.6,51.5,62.6,48,60.9,45.1z"/>
				
					<radialGradient id="XMLID_15_" cx="45.9692" cy="-268.2448" r="34.6616" gradientTransform="matrix(1 0 0 1 0 348)" gradientUnits="userSpaceOnUse">
					<stop  offset="0" style="stop-color:#28343A;stop-opacity:0.2"/>
					<stop  offset="1" style="stop-color:#28343A;stop-opacity:2.000000e-02"/>
				</radialGradient>
				<polygon id="XMLID_341_" class="st9" points="35.6,68.8 37.7,65.2 28.8,49.7 24.5,57.1 				"/>
				<path id="XMLID_340_" class="st2" d="M60.9,45.1L34.9,0H0l28.8,49.7L0,99.4h34.8l26.1-45.1C62.6,51.5,62.6,48,60.9,45.1z"/>
				<g id="XMLID_337_">
					<g id="XMLID_338_">
						<polygon id="XMLID_339_" class="st10" points="17.9,0 0,0 46.2,79.9 55.1,64.4 55.1,64.4 						"/>
					</g>
				</g>
				<path id="XMLID_336_" class="st2" d="M60.9,45.1L34.9,0H0l28.8,49.7L0,99.4h34.8l26.1-45.1C62.6,51.5,62.6,48,60.9,45.1z"/>
				<path id="XMLID_335_" class="st11" d="M60.9,54.4c1.7-2.9,1.7-6.5,0-9.4L34.9,0h-17l37.3,64.4L60.9,54.4z"/>
				<path id="XMLID_334_" class="st2" d="M60.9,45.1L34.9,0H0l28.8,49.7L0,99.4h34.8l26.1-45.1C62.6,51.5,62.6,48,60.9,45.1z"/>
				<polygon id="XMLID_333_" class="st12" points="55.1,64.4 54.9,64 46.2,79.1 0.5,0 0,0 46.2,79.9 				"/>
				<path id="XMLID_332_" class="st2" d="M60.9,45.1L34.9,0H0l28.8,49.7L0,99.4h34.8l26.1-45.1C62.6,51.5,62.6,48,60.9,45.1z"/>
				<path id="XMLID_331_" class="st7" d="M34.9,0.8L61,45.8c0.8,1.3,1.2,2.8,1.2,4.3c0.1-1.8-0.4-3.5-1.2-5.1L34.9,0H0l0.4,0.8H34.9
					z"/>
				<path id="XMLID_330_" class="st2" d="M60.9,45.1L34.9,0H0l28.8,49.7L0,99.4h34.8l26.1-45.1C62.6,51.5,62.6,48,60.9,45.1z"/>
				<path id="XMLID_329_" class="st13" d="M55.1,64.4l5.8-10c0.9-1.5,1.3-3.3,1.2-5.1c-0.1,1.5-0.5,3-1.2,4.3l-6,10.4L55.1,64.4z"/>
				<path id="XMLID_328_" class="st2" d="M60.9,45.1L34.9,0H0l28.8,49.7L0,99.4h34.8l26.1-45.1C62.6,51.5,62.6,48,60.9,45.1z"/>
				
					<radialGradient id="XMLID_16_" cx="-0.7541" cy="-347.2063" r="104.3589" gradientTransform="matrix(1 0 0 1 0 348)" gradientUnits="userSpaceOnUse">
					<stop  offset="0" style="stop-color:#FFFFFF;stop-opacity:0.1"/>
					<stop  offset="1" style="stop-color:#FFFFFF;stop-opacity:0"/>
				</radialGradient>
				<path id="XMLID_327_" class="st14" d="M60.9,45.1L34.9,0H0l28.8,49.7L0,99.4h34.8l26.1-45.1C62.6,51.5,62.6,48,60.9,45.1z"/>
			</g>
		</g>
		<path id="XMLID_322_" class="st15" d="M188.4,8.7h23.8c24.2,0,39.4,16,39.4,38.6c0,22.6-15.2,38.6-39.4,38.6h-23.8V8.7L188.4,8.7z
			 M212.5,74.2c16.9,0,27.3-9.4,27.3-26.9c0-17.4-10.4-26.9-27.3-26.9H200v53.8L212.5,74.2L212.5,74.2z"/>
		<path id="XMLID_321_" class="st15" d="M178.6,43.8h-37.1v11.5h26.1c-0.8,5.8-2.9,10.4-5.9,13.4c-3.9,3.9-9.9,8.2-20.5,8.2
			c-16.4,0-29.1-13.1-29.1-29.5s12.8-29.5,29.1-29.5c8.8,0,15.3,3.4,20,7.9l7.8-7.8c-6.6-6.3-15.5-11.2-27.8-11.2
			C118.8,6.7,100,25,100,47.4S118.8,88,141.2,88c12.1,0,21.2-3.9,28.3-11.4c7.3-7.3,9.6-17.6,9.6-25.9C179.2,48,179,45.8,178.6,43.8
			z"/>
		<path id="XMLID_320_" class="st15" d="M337.7,43.8h-37.1v11.5h26.1c-0.8,5.8-2.9,10.4-5.9,13.4c-3.9,3.9-9.9,8.2-20.5,8.2
			c-16.4,0-29.1-13.1-29.1-29.5s12.8-29.5,29.1-29.5c8.8,0,15.3,3.4,20,7.9l7.8-7.8c-6.6-6.3-15.5-11.2-27.8-11.2
			c-22.4,0-41.2,18.2-41.2,40.6S277.9,88,300.3,88c12.1,0,21.2-3.9,28.3-11.4c7.3-7.3,9.6-17.6,9.6-25.9
			C338.3,48,338.1,45.8,337.7,43.8z"/>
	</g>
</g>
<g id="XMLID_13_">
	<g id="XMLID_292_" class="st0">
		<path id="XMLID_316_" class="st1" d="M1127.1,84.9V16.3h21c10.5,0,18.9,3.2,25.2,9.5c6.4,6.3,9.5,14.6,9.5,24.8
			c0,10.3-3.2,18.6-9.5,24.9c-6.4,6.3-14.8,9.4-25.2,9.4L1127.1,84.9L1127.1,84.9z M1135.9,24.8v51.7h12.2c8,0,14.3-2.3,18.9-6.8
			c4.6-4.6,6.9-10.9,6.9-19c0-8-2.3-14.4-6.9-19c-4.6-4.6-10.9-6.9-18.9-6.9L1135.9,24.8L1135.9,24.8z"/>
		<path id="XMLID_313_" class="st1" d="M1209.5,36.5c6.5,0,11.7,1.7,15.4,5.2c3.8,3.5,5.7,8.3,5.7,14.3v28.9h-8.4v-6.5h-0.4
			c-3.6,5.4-8.5,8-14.6,8c-5.2,0-9.5-1.5-13-4.6s-5.2-6.9-5.2-11.5c0-4.9,1.8-8.7,5.5-11.6c3.7-2.9,8.6-4.3,14.7-4.3
			c5.2,0,9.5,1,12.9,2.9v-2c0-3.1-1.2-5.7-3.6-7.8c-2.4-2.1-5.3-3.2-8.5-3.2c-4.9,0-8.8,2.1-11.7,6.2l-7.8-4.9
			C1194.9,39.5,1201.2,36.5,1209.5,36.5z M1198.1,70.6c0,2.3,1,4.2,2.9,5.7c1.9,1.5,4.2,2.3,6.8,2.3c3.7,0,7-1.4,9.9-4.1
			c2.9-2.7,4.4-6,4.4-9.7c-2.7-2.2-6.6-3.3-11.5-3.3c-3.6,0-6.6,0.9-9,2.6C1199.3,65.9,1198.1,68,1198.1,70.6z"/>
		<path id="XMLID_311_" class="st1" d="M1281.8,84.9h-8.4v-6.5h-0.4c-1.3,2.3-3.4,4.2-6.2,5.7c-2.8,1.5-5.7,2.3-8.7,2.3
			c-5.7,0-10.2-1.6-13.3-4.9s-4.6-8-4.6-14V38h8.8v28.9c0.2,7.7,4.1,11.5,11.6,11.5c3.5,0,6.5-1.4,8.8-4.3c2.4-2.8,3.5-6.2,3.5-10.2
			v-26h8.8v47H1281.8z"/>
		<path id="XMLID_308_" class="st1" d="M1312.8,107.2c-2.6,0-5.1-0.3-7.4-1s-4.4-1.6-6.3-2.8c-1.9-1.2-3.5-2.7-4.8-4.3
			c-1.3-1.7-2.4-3.5-3.1-5.6l8.3-3.4c1,2.7,2.6,4.9,5,6.6s5.1,2.5,8.2,2.5c4.8,0,8.5-1.4,11.2-4.3c2.7-2.9,4-6.8,4-11.9v-4.5h-0.4
			c-1.7,2.5-3.9,4.5-6.8,5.9c-2.8,1.4-5.9,2.2-9.2,2.2c-6.1,0-11.4-2.4-15.8-7.2c-4.3-4.9-6.5-10.9-6.5-17.8s2.2-12.9,6.5-17.7
			c4.4-4.9,9.7-7.3,15.8-7.3c3.3,0,6.4,0.7,9.2,2.2c2.8,1.4,5.1,3.4,6.8,5.9h0.4V38h8.4v44.9c0,7.5-2.1,13.4-6.4,17.7
			C1325.7,105,1320,107.2,1312.8,107.2z M1313.1,78.4c4.3,0,7.9-1.6,10.6-4.7c2.9-3.1,4.3-7.2,4.3-12.3c0-4.9-1.4-9-4.3-12.2
			c-2.8-3.2-6.4-4.8-10.6-4.8s-7.8,1.6-10.6,4.8c-2.9,3.2-4.3,7.2-4.3,12.2s1.4,9,4.3,12.2C1305.3,76.8,1308.9,78.4,1313.1,78.4z"/>
		<path id="XMLID_305_" class="st1" d="M1364.6,36.5c6.5,0,11.7,1.7,15.4,5.2c3.8,3.5,5.7,8.3,5.7,14.3v28.9h-8.4v-6.5h-0.4
			c-3.6,5.4-8.5,8-14.6,8c-5.2,0-9.5-1.5-13-4.6s-5.2-6.9-5.2-11.5c0-4.9,1.8-8.7,5.5-11.6c3.7-2.9,8.6-4.3,14.7-4.3
			c5.2,0,9.5,1,12.9,2.9v-2c0-3.1-1.2-5.7-3.6-7.8c-2.4-2.1-5.3-3.2-8.5-3.2c-4.9,0-8.8,2.1-11.7,6.2l-7.8-4.9
			C1349.9,39.5,1356.2,36.5,1364.6,36.5z M1353.2,70.6c0,2.3,1,4.2,2.9,5.7s4.2,2.3,6.8,2.3c3.7,0,7-1.4,9.9-4.1s4.4-6,4.4-9.7
			c-2.7-2.2-6.6-3.3-11.5-3.3c-3.6,0-6.6,0.9-9,2.6C1354.4,65.9,1353.2,68,1353.2,70.6z"/>
		<path id="XMLID_303_" class="st1" d="M1417.4,84.9h-8.8l-19-46.9h9.6l13.8,36.4h0.2l14-36.4h9.4L1417.4,84.9z"/>
		<path id="XMLID_300_" class="st1" d="M1466.8,86.5c-3.4,0-6.6-0.7-9.4-2.2s-5-3.4-6.6-5.8h-0.4l0.4,6.5v20.7h-8.8V38h8.4v6.5h0.4
			c1.5-2.4,3.7-4.4,6.6-5.8c2.8-1.5,6-2.2,9.4-2.2c6.2,0,11.4,2.4,15.7,7.3c4.4,4.9,6.6,10.8,6.6,17.7c0,7-2.2,12.9-6.6,17.7
			C1478.2,84,1473,86.5,1466.8,86.5z M1465.3,78.4c4.2,0,7.8-1.6,10.6-4.8c2.9-3.1,4.3-7.2,4.3-12.2c0-4.9-1.4-9-4.3-12.2
			c-2.9-3.2-6.4-4.8-10.6-4.8c-4.3,0-7.9,1.6-10.7,4.8c-2.8,3.2-4.2,7.2-4.2,12.2s1.4,9.1,4.2,12.3
			C1457.5,76.9,1461.1,78.4,1465.3,78.4z"/>
		<path id="XMLID_297_" class="st1" d="M1508.1,21.8c0,1.7-0.6,3.2-1.8,4.4c-1.2,1.2-2.7,1.8-4.4,1.8c-1.7,0-3.2-0.6-4.4-1.8
			c-1.2-1.2-1.8-2.7-1.8-4.4c0-1.7,0.6-3.2,1.8-4.4c1.2-1.2,2.7-1.8,4.4-1.8c1.7,0,3.2,0.6,4.4,1.8
			C1507.5,18.6,1508.1,20.1,1508.1,21.8z M1506.2,38v46.9h-8.8V38H1506.2z"/>
		<path id="XMLID_295_" class="st1" d="M1526.6,16.3v68.6h-8.8V16.3H1526.6z"/>
		<path id="XMLID_293_" class="st1" d="M1572.7,71.9c0,4.1-1.8,7.5-5.4,10.3s-8.1,4.2-13.5,4.2c-4.7,0-8.9-1.2-12.5-3.7
			s-6.1-5.7-7.7-9.7l7.9-3.4c1.2,2.8,2.8,5,5,6.6c2.2,1.6,4.6,2.3,7.2,2.3c2.8,0,5.2-0.6,7-1.8c1.9-1.2,2.8-2.6,2.8-4.3
			c0-3-2.3-5.2-6.9-6.6l-8-2c-9.1-2.3-13.7-6.7-13.7-13.2c0-4.3,1.7-7.7,5.2-10.3c3.5-2.6,7.9-3.9,13.4-3.9c4.2,0,7.9,1,11.3,3
			s5.7,4.6,7,8l-7.9,3.3c-0.9-2-2.3-3.5-4.4-4.6c-2-1.1-4.3-1.7-6.8-1.7c-2.3,0-4.4,0.6-6.2,1.7c-1.8,1.1-2.7,2.6-2.7,4.2
			c0,2.7,2.5,4.6,7.6,5.7l7.1,1.8C1568.1,60.1,1572.7,64.8,1572.7,71.9z"/>
	</g>
	<g id="XMLID_244_">
		<g id="XMLID_262_">
			<g id="XMLID_263_">
				<path id="XMLID_291_" class="st2" d="M822.8,45.5L797.7,2.1h-33.5L791.8,50l-27.7,47.8h33.5l25.1-43.4
					C824.4,51.7,824.4,48.3,822.8,45.5z"/>
				<polygon id="XMLID_290_" class="st3" points="808.4,78.6 800.4,64.8 781.4,97.8 797.7,97.8 808.6,78.9 				"/>
				<path id="XMLID_289_" class="st2" d="M822.8,45.5L797.7,2.1h-33.5L791.8,50l-27.7,47.8h33.5l25.1-43.4
					C824.4,51.7,824.4,48.3,822.8,45.5z"/>
				<polygon id="XMLID_288_" class="st4" points="791.8,50 800.4,64.8 781.4,97.8 764.2,97.8 				"/>
				<path id="XMLID_287_" class="st2" d="M822.8,45.5L797.7,2.1h-33.5L791.8,50l-27.7,47.8h33.5l25.1-43.4
					C824.4,51.7,824.4,48.3,822.8,45.5z"/>
				<polygon id="XMLID_286_" class="st5" points="797.7,97.1 781.8,97.1 781.4,97.8 797.7,97.8 808.6,78.9 808.4,78.6 				"/>
				<path id="XMLID_285_" class="st2" d="M822.8,45.5L797.7,2.1h-33.5L791.8,50l-27.7,47.8h33.5l25.1-43.4
					C824.4,51.7,824.4,48.3,822.8,45.5z"/>
				<polygon id="XMLID_284_" class="st6" points="764.6,97.1 764.2,97.8 781.4,97.8 781.8,97.1 				"/>
				<path id="XMLID_283_" class="st2" d="M822.8,45.5L797.7,2.1h-33.5L791.8,50l-27.7,47.8h33.5l25.1-43.4
					C824.4,51.7,824.4,48.3,822.8,45.5z"/>
				<polygon id="XMLID_282_" class="st7" points="764.2,97.8 764.6,97.8 792.1,50.3 791.8,50 				"/>
				<path id="XMLID_281_" class="st2" d="M822.8,45.5L797.7,2.1h-33.5L791.8,50l-27.7,47.8h33.5l25.1-43.4
					C824.4,51.7,824.4,48.3,822.8,45.5z"/>
				
					<radialGradient id="XMLID_17_" cx="808.4316" cy="-269.3488" r="33.0904" gradientTransform="matrix(1 0 0 1 0 348)" gradientUnits="userSpaceOnUse">
					<stop  offset="0" style="stop-color:#BF3C27;stop-opacity:0.2"/>
					<stop  offset="1" style="stop-color:#BF3C27;stop-opacity:2.000000e-02"/>
				</radialGradient>
				<polygon id="XMLID_280_" class="st16" points="808.6,78.9 808.6,78.9 800.4,64.8 798.4,68.3 				"/>
				<path id="XMLID_279_" class="st2" d="M822.8,45.5L797.7,2.1h-33.5L791.8,50l-27.7,47.8h33.5l25.1-43.4
					C824.4,51.7,824.4,48.3,822.8,45.5z"/>
				
					<radialGradient id="XMLID_20_" cx="808.3378" cy="-269.1396" r="33.3591" gradientTransform="matrix(1 0 0 1 0 348)" gradientUnits="userSpaceOnUse">
					<stop  offset="0" style="stop-color:#28343A;stop-opacity:0.2"/>
					<stop  offset="1" style="stop-color:#28343A;stop-opacity:2.000000e-02"/>
				</radialGradient>
				<polygon id="XMLID_278_" class="st17" points="798.4,68.3 800.4,64.8 791.8,50 787.7,57.1 				"/>
				<path id="XMLID_277_" class="st2" d="M822.8,45.5L797.7,2.1h-33.5L791.8,50l-27.7,47.8h33.5l25.1-43.4
					C824.4,51.7,824.4,48.3,822.8,45.5z"/>
				<g id="XMLID_274_">
					<g id="XMLID_275_">
						<polygon id="XMLID_276_" class="st10" points="781.4,2.1 764.2,2.1 808.6,78.9 817.2,64.1 817.2,64.1 						"/>
					</g>
				</g>
				<path id="XMLID_273_" class="st2" d="M822.8,45.5L797.7,2.1h-33.5L791.8,50l-27.7,47.8h33.5l25.1-43.4
					C824.4,51.7,824.4,48.3,822.8,45.5z"/>
				<path id="XMLID_272_" class="st11" d="M822.8,54.4c1.6-2.8,1.6-6.2,0-9L797.7,2h-16.3l35.8,62L822.8,54.4z"/>
				<path id="XMLID_271_" class="st2" d="M822.8,45.5L797.7,2.1h-33.5L791.8,50l-27.7,47.8h33.5l25.1-43.4
					C824.4,51.7,824.4,48.3,822.8,45.5z"/>
				<polygon id="XMLID_270_" class="st12" points="817.2,64.1 817,63.7 808.6,78.2 764.6,2.1 764.2,2.1 808.6,78.9 				"/>
				<path id="XMLID_269_" class="st2" d="M822.8,45.5L797.7,2.1h-33.5L791.8,50l-27.7,47.8h33.5l25.1-43.4
					C824.4,51.7,824.4,48.3,822.8,45.5z"/>
				<path id="XMLID_268_" class="st7" d="M797.7,2.9l25.1,43.4c0.7,1.3,1.1,2.7,1.2,4.1c0.1-1.7-0.3-3.4-1.2-4.9L797.7,2.1h-33.5
					l0.4,0.7L797.7,2.9L797.7,2.9z"/>
				<path id="XMLID_267_" class="st2" d="M822.8,45.5L797.7,2.1h-33.5L791.8,50l-27.7,47.8h33.5l25.1-43.4
					C824.4,51.7,824.4,48.3,822.8,45.5z"/>
				<path id="XMLID_266_" class="st13" d="M817.2,64.1l5.6-9.6c0.9-1.5,1.2-3.2,1.2-4.9c-0.1,1.4-0.4,2.8-1.2,4.1l-5.8,10
					L817.2,64.1z"/>
				<path id="XMLID_265_" class="st2" d="M822.8,45.5L797.7,2.1h-33.5L791.8,50l-27.7,47.8h33.5l25.1-43.4
					C824.4,51.7,824.4,48.3,822.8,45.5z"/>
				
					<radialGradient id="XMLID_21_" cx="763.3702" cy="-345.1339" r="100.4374" gradientTransform="matrix(1 0 0 1 0 348)" gradientUnits="userSpaceOnUse">
					<stop  offset="0" style="stop-color:#FFFFFF;stop-opacity:0.1"/>
					<stop  offset="1" style="stop-color:#FFFFFF;stop-opacity:0"/>
				</radialGradient>
				<path id="XMLID_264_" class="st18" d="M822.8,45.5L797.7,2.1h-33.5L791.8,50l-27.7,47.8h33.5l25.1-43.4
					C824.4,51.7,824.4,48.3,822.8,45.5z"/>
			</g>
		</g>
		<path id="XMLID_259_" class="st15" d="M945.4,10.5h22.9c23.3,0,37.9,15.5,37.9,37.2c0,21.8-14.6,37.2-37.9,37.2h-22.9V10.5
			L945.4,10.5z M968.7,73.5c16.2,0,26.3-9,26.3-25.9c0-16.8-10-25.9-26.3-25.9h-12v51.8H968.7z"/>
		<path id="XMLID_258_" class="st15" d="M936,44.3h-35.6v11h25.1c-0.8,5.6-2.8,10-5.7,12.9c-3.7,3.7-9.5,7.8-19.7,7.8
			c-15.7,0-28-12.7-28-28.4c0-15.7,12.3-28.4,28-28.4c8.5,0,14.7,3.3,19.3,7.6l7.5-7.5c-6.4-6.1-14.9-10.8-26.8-10.8
			c-21.6,0-39.7,17.5-39.7,39.1c0,21.6,18.1,39.1,39.7,39.1c11.6,0,20.4-3.8,27.3-11c7.1-7.1,9.3-17,9.3-25
			C936.6,48.3,936.4,46.2,936,44.3z"/>
		<path id="XMLID_257_" class="st15" d="M1089.1,44.3h-35.6v11h25.1c-0.8,5.6-2.8,10-5.7,12.9c-3.7,3.7-9.5,7.8-19.7,7.8
			c-15.7,0-28-12.7-28-28.4c0-15.7,12.3-28.4,28-28.4c8.5,0,14.7,3.3,19.3,7.6l7.5-7.5c-6.4-6.1-14.9-10.8-26.8-10.8
			c-21.6,0-39.7,17.5-39.7,39.1c0,21.6,18.1,39.1,39.7,39.1c11.6,0,20.4-3.8,27.3-11c7.1-7.1,9.3-17,9.3-25
			C1089.7,48.3,1089.5,46.2,1089.1,44.3z"/>
	</g>
</g>
</svg>
