<?xml version="1.0" encoding="utf-8"?>
<!-- Generator: Adobe Illustrator 19.0.0, SVG Export Plug-In . SVG Version: 6.00 Build 0)  -->
<svg version="1.1" id="Layer_4" xmlns="http://www.w3.org/2000/svg" xmlns:xlink="http://www.w3.org/1999/xlink" x="0px" y="0px"
	 viewBox="-94 301 1089.3 200" style="enable-background:new -94 301 1089.3 200;" xml:space="preserve">
<style type="text/css">
	.st0{fill:#757575;}
	.st1{font-family:'ProductSans-Regular';}
	.st2{font-size:153.5238px;}
</style>
<g id="XMLID_6_">
	<path id="XMLID_3_" class="st0" d="M173.4,410.7c0,15.4-4.5,27.6-13.7,36.8c-10.3,10.9-23.8,16.3-40.4,16.3
		c-15.9,0-29.4-5.5-40.5-16.5c-11.1-11-16.7-24.7-16.7-41s5.6-29.9,16.7-41s24.6-16.5,40.5-16.5c7.9,0,15.4,1.5,22.6,4.6
		c7.2,3.1,12.9,7.2,17.2,12.3l-9.7,9.7c-7.3-8.8-17.4-13.1-30.2-13.1c-11.6,0-21.6,4-30.1,12.2s-12.7,18.7-12.7,31.8
		s4.3,23.6,12.7,31.8s18.5,12.2,30.1,12.2c12.3,0,22.5-4.1,30.8-12.3c5.3-5.3,8.4-12.8,9.2-22.3h-40v-13.3h53.3
		C173.1,405.3,173.4,408.1,173.4,410.7L173.4,410.7z"/>
	<path id="XMLID_20_" class="st0" d="M187.6,461.3V351.2h33.6c16.9,0,30.4,5.1,40.6,15.3c10.1,10.2,15.2,23.4,15.2,39.8
		c0,16.3-5.1,29.5-15.2,39.8c-10.1,10.2-23.7,15.3-40.6,15.3H187.6z M201.8,447.8h19.5c12.7,0,22.7-3.6,30.2-10.9
		c7.4-7.3,11.2-17.4,11.2-30.6c0-13-3.7-23.2-11.2-30.5c-7.5-7.3-17.5-11-30.2-11h-19.5V447.8z"/>
	<path id="XMLID_23_" class="st0" d="M397.5,410.7c0,15.4-4.5,27.6-13.7,36.8c-10.3,10.9-23.8,16.3-40.4,16.3
		c-15.9,0-29.4-5.5-40.5-16.5c-11.1-11-16.7-24.7-16.7-41s5.6-29.9,16.7-41c11.1-11,24.6-16.5,40.5-16.5c7.9,0,15.4,1.5,22.6,4.6
		c7.2,3.1,12.9,7.2,17.2,12.3l-9.7,9.7c-7.3-8.8-17.4-13.1-30.2-13.1c-11.6,0-21.6,4-30.1,12.2s-12.7,18.7-12.7,31.8
		s4.3,23.6,12.7,31.8c8.4,8.2,18.5,12.2,30.1,12.2c12.3,0,22.5-4.1,30.8-12.3c5.3-5.3,8.4-12.8,9.2-22.3h-40v-13.3h53.3
		C397.2,405.3,397.5,408.1,397.5,410.7L397.5,410.7z"/>
</g>
<g id="XMLID_261_">
	<path id="XMLID_259_" class="st0" d="M-55.2,337.9h-22.5l64.4,111.7L-2.1,430L-55.2,337.9z"/>
	<path id="XMLID_258_" class="st0" d="M6.6,401.4l-36.7-63.5h-22.5l51.8,89.9l7.3-12.7c1.2-2,2-4.3,2-6.8
		C8.5,405.7,7.8,403.4,6.6,401.4L6.6,401.4z"/>
	<path id="XMLID_257_" class="st0" d="M-38.5,410.5l-38.7,66.9h22.5l27.4-47.5L-38.5,410.5z"/>
	<path id="XMLID_256_" class="st0" d="M-25.9,432.3l-26,45.1h22.5l14.9-25.7L-25.9,432.3L-25.9,432.3z"/>
</g>
<text transform="matrix(1 0 0 1 433.5575 460.5644)" class="st0 st1 st2">Tekirdag</text>
</svg>
