<?xml version="1.0" encoding="UTF-8"?>
<svg width="1044px" height="288px" viewBox="0 0 1044 288" version="1.1" xmlns="http://www.w3.org/2000/svg" xmlns:xlink="http://www.w3.org/1999/xlink">
    <!-- Generator: Sketch 46.2 (44496) - http://www.bohemiancoding.com/sketch -->
    <title>GDG</title>
    <desc>Created with Sketch.</desc>
    <defs>
        <radialGradient cx="98.7985294%" cy="97.9036527%" fx="98.7985294%" fy="97.9036527%" r="325.466912%" gradientTransform="translate(0.987985,0.979037),scale(1.000000,0.720833),translate(-0.987985,-0.979037)" id="radialGradient-1">
            <stop stop-color="#BF360C" stop-opacity="0.2" offset="0%"></stop>
            <stop stop-color="#BF360C" stop-opacity="0.02" offset="100%"></stop>
        </radialGradient>
        <radialGradient cx="162.571513%" cy="157.70665%" fx="162.571513%" fy="157.70665%" r="262.641554%" gradientTransform="translate(1.625715,1.577067),scale(1.000000,0.660763),translate(-1.625715,-1.577067)" id="radialGradient-2">
            <stop stop-color="#263238" stop-opacity="0.2" offset="0%"></stop>
            <stop stop-color="#263238" stop-opacity="0.02" offset="100%"></stop>
        </radialGradient>
        <radialGradient cx="-1.24996094%" cy="0.78125%" fx="-1.24996094%" fy="0.78125%" r="167.932627%" gradientTransform="translate(-0.012500,0.007812),scale(1.000000,0.639028),translate(0.012500,-0.007812)" id="radialGradient-3">
            <stop stop-color="#FFFFFF" stop-opacity="0.1" offset="0%"></stop>
            <stop stop-color="#FFFFFF" stop-opacity="0" offset="100%"></stop>
        </radialGradient>
    </defs>
    <g id="Page-1" stroke="none" stroke-width="1" fill="none" fill-rule="evenodd">
        <g id="Group" transform="translate(0.000000, 24.000000)">
            <g id="logo_lockup_gdg_horizontal">
                <g id="XMLID_50_">
                    <g id="XMLID_72_">
                        <path d="M142.650849,101.987981 L82.3518352,0 L1.71943352,0 L68.2748741,112.538462 L1.71943352,225.076923 L82.3518352,225.076923 L142.650849,123.088942 C146.51617,116.565228 146.51617,108.511695 142.650849,101.987981 Z" id="Shape"></path>
                        <polygon id="XMLID_80_" fill="#FFC107" fill-rule="nonzero" points="106.876831 181.171891 88.0389429 149.076923 42.8138353 226.076923 81.5351755 226.076923 107.390752 182.044511"></polygon>
                        <path d="M142.650849,101.987981 L82.3518352,0 L1.71943352,0 L68.2748741,112.538462 L1.71943352,225.076923 L82.3518352,225.076923 L142.650849,123.088942 C146.51617,116.565228 146.51617,108.511695 142.650849,101.987981 Z" id="Shape"></path>
                        <polygon id="Shape" fill="#0F9D58" fill-rule="nonzero" points="69.6678021 109.5 89.8435514 145.377188 45.0709321 225 4.71943352 225"></polygon>
                        <polygon id="Shape" fill="#BF360C" fill-rule="nonzero" opacity="0.2" points="81.5351755 226.196852 43.8416786 226.196852 42.8138353 228.038462 81.5351755 228.038462 107.390752 181.574651 106.876831 180.653846"></polygon>
                        <path d="M142.650849,101.987981 L82.3518352,0 L1.71943352,0 L68.2748741,112.538462 L1.71943352,225.076923 L82.3518352,225.076923 L142.650849,123.088942 C146.51617,116.565228 146.51617,108.511695 142.650849,101.987981 Z" id="Shape"></path>
                        <polygon id="Shape" fill="#263238" fill-rule="nonzero" opacity="0.2" points="2.80243756 225.076923 1.71943352 226.680627 44.6661456 226.680627 45.7491497 225.076923"></polygon>
                        <path d="M142.650849,101.987981 L82.3518352,0 L1.71943352,0 L68.2748741,112.538462 L1.71943352,225.076923 L82.3518352,225.076923 L142.650849,123.088942 C146.51617,116.565228 146.51617,108.511695 142.650849,101.987981 Z" id="Shape"></path>
                        <path d="M142.650849,101.987981 L82.3518352,0 L1.71943352,0 L68.2748741,112.538462 L1.71943352,225.076923 L82.3518352,225.076923 L142.650849,123.088942 C146.51617,116.565228 146.51617,108.511695 142.650849,101.987981 Z" id="Shape"></path>
                        <polygon id="XMLID_79_" fill="url(#radialGradient-1)" fill-rule="nonzero" points="104.455438 180.653846 104.455438 180.653846 85.6003594 148.076923 80.9729226 156.061632"></polygon>
                        <path d="M142.650849,101.987981 L82.3518352,0 L1.71943352,0 L68.2748741,112.538462 L1.71943352,225.076923 L82.3518352,225.076923 L142.650849,123.088942 C146.51617,116.565228 146.51617,108.511695 142.650849,101.987981 Z" id="Shape"></path>
                        <polygon id="XMLID_78_" fill="url(#radialGradient-2)" fill-rule="nonzero" points="82.213391 154.923077 86.8435514 146.531447 66.9753256 110.5 57.4904073 127.718247"></polygon>
                        <path d="M142.650849,101.987981 L82.3518352,0 L1.71943352,0 L68.2748741,112.538462 L1.71943352,225.076923 L82.3518352,225.076923 L142.650849,123.088942 C146.51617,116.565228 146.51617,108.511695 142.650849,101.987981 Z" id="Shape"></path>
                        <g id="XMLID_75_" fill-rule="nonzero" fill="#4285F4">
                            <g id="XMLID_76_">
                                <polygon id="XMLID_77_" points="42.0937659 0.471660746 0.484664972 0.471660746 108.017055 179.999716 128.803514 145.288979 128.821605 145.254041"></polygon>
                            </g>
                        </g>
                        <path d="M142.650849,101.987981 L82.3518352,0 L1.71943352,0 L68.2748741,112.538462 L1.71943352,225.076923 L82.3518352,225.076923 L142.650849,123.088942 C146.51617,116.565228 146.51617,108.511695 142.650849,101.987981 Z" id="Shape"></path>
                        <path d="M140.79134,123.563669 C144.555587,117.067795 144.555587,109.048629 140.79134,102.552755 L82.0690885,1 L43.8138353,1 L127.747787,146.115385 L140.79134,123.563669 Z" id="Shape" fill="#DB4437" fill-rule="nonzero"></path>
                        <path d="M142.650849,101.987981 L82.3518352,0 L1.71943352,0 L68.2748741,112.538462 L1.71943352,225.076923 L82.3518352,225.076923 L142.650849,123.088942 C146.51617,116.565228 146.51617,108.511695 142.650849,101.987981 Z" id="Shape"></path>
                        <polygon id="Shape" fill="#1A237E" fill-rule="nonzero" opacity="0.2" points="127.937953 145.690287 127.421977 144.828942 107.476817 178.896 2.75138645 0 1.71943352 0 107.476817 180.653846 127.920161 145.725444"></polygon>
                        <path d="M142.650849,101.987981 L82.3518352,0 L1.71943352,0 L68.2748741,112.538462 L1.71943352,225.076923 L82.3518352,225.076923 L142.650849,123.088942 C146.51617,116.565228 146.51617,108.511695 142.650849,101.987981 Z" id="Shape"></path>
                        <path d="M82.3744138,1.79069767 L142.690312,105.651163 C144.470656,108.713256 145.387803,112.097674 145.531669,115.5 C145.693519,111.488837 144.776372,107.44186 142.690312,103.860465 L82.3744138,0 L1.71943352,0 L2.76246336,1.79069767 L82.3744138,1.79069767 Z" id="Shape" fill="#FFFFFF" fill-rule="nonzero" opacity="0.2"></path>
                        <path d="M142.650849,101.987981 L82.3518352,0 L1.71943352,0 L68.2748741,112.538462 L1.71943352,225.076923 L82.3518352,225.076923 L142.650849,123.088942 C146.51617,116.565228 146.51617,108.511695 142.650849,101.987981 Z" id="Shape"></path>
                        <path d="M128.394133,148.076923 L140.113237,126.426213 C141.937957,123.064301 142.740204,119.265341 142.598631,115.5 C142.472789,118.693816 141.670541,121.870822 140.113237,124.745257 L127.937953,147.253255 L128.394133,148.076923 Z" id="XMLID_74_" fill="#3E2723" fill-rule="nonzero" opacity="0.2"></path>
                        <path d="M142.650849,101.987981 L82.3518352,0 L1.71943352,0 L68.2748741,112.538462 L1.71943352,225.076923 L82.3518352,225.076923 L142.650849,123.088942 C146.51617,116.565228 146.51617,108.511695 142.650849,101.987981 Z" id="Shape"></path>
                        <path d="M142.931415,101.987981 L82.6324017,0 L2,0 L68.5554406,112.538462 L2,225.076923 L82.6324017,225.076923 L142.931415,123.088942 C146.796736,116.565228 146.796736,108.511695 142.931415,101.987981 Z" id="XMLID_73_" fill="url(#radialGradient-3)" fill-rule="nonzero"></path>
                    </g>
                </g>
                <g id="XMLID_8_" opacity="0.54" transform="translate(211.444653, 0.000000)">
                    <path d="M104.030055,3.19909091 L131.615148,3.19909091 C159.705066,3.19909091 177.33789,22.3750909 177.33789,49.2845455 C177.33789,76.3145455 159.696051,95.37 131.615148,95.37 L104.030055,95.37 L104.030055,3.19909091 L104.030055,3.19909091 Z M132.092929,81.4052727 C151.645892,81.4052727 163.761697,70.2409091 163.761697,49.2845455 C163.761697,28.4487273 151.645892,17.1638182 132.092929,17.1638182 L117.606248,17.1638182 L117.606248,81.4052727 L132.092929,81.4052727 L132.092929,81.4052727 Z" id="XMLID_104_" fill="#000000" fill-rule="nonzero"></path>
                    <rect id="XMLID_103_" x="0.360589446" y="0.788181818" width="276.959739" height="100.553455"></rect>
                    <path d="M92.6985318,45.1025455 L49.7252846,45.1025455 L49.7252846,58.7890909 L80.0238128,58.7890909 C79.0231771,65.7714545 76.670331,71.2145455 73.1455691,74.8494545 C68.6562305,79.4672727 61.6427658,84.5487273 49.337651,84.5487273 C30.3616314,84.5487273 15.5233757,68.8129091 15.5233757,49.2938182 C15.5233757,29.7747273 30.3616314,14.0389091 49.337651,14.0389091 C59.5693765,14.0389091 67.0516075,18.1838182 72.568626,23.5063636 L81.6554801,14.1594545 C73.9478807,6.58363636 63.7161551,0.788181818 49.337651,0.788181818 C23.3481666,0.788181818 1.4964462,22.5512727 1.4964462,49.2938182 C1.4964462,76.0270909 23.3481666,97.7994545 49.337651,97.7994545 C63.3645804,97.7994545 73.9478807,93.0703636 82.2324232,84.1963636 C90.7423341,75.4429091 93.3926665,63.138 93.3926665,53.1976364 C93.3926665,50.1190909 93.1582834,47.4670909 92.6985318,45.1025455 Z" id="XMLID_102_" fill="#000000" fill-rule="nonzero"></path>
                    <path d="M277.338358,45.1025455 L234.36511,45.1025455 L234.36511,58.7890909 L264.663639,58.7890909 C263.663003,65.7714545 261.310157,71.2145455 257.785395,74.8494545 C253.296056,79.4672727 246.282592,84.5487273 233.977477,84.5487273 C215.001457,84.5487273 200.163202,68.8129091 200.163202,49.2938182 C200.163202,29.7747273 215.001457,14.0389091 233.977477,14.0389091 C244.209202,14.0389091 251.691433,18.1838182 257.208452,23.5063636 L266.295306,14.1594545 C258.587707,6.58363636 248.355981,0.788181818 233.977477,0.788181818 C207.987992,0.788181818 186.136272,22.5512727 186.136272,49.2938182 C186.136272,76.0270909 207.987992,97.7994545 233.977477,97.7994545 C248.004406,97.7994545 258.587707,93.0703636 266.872249,84.1963636 C275.38216,75.4429091 278.032492,63.138 278.032492,53.1976364 C278.032492,50.1190909 277.798109,47.4670909 277.338358,45.1025455 Z" id="XMLID_86_" fill="#000000" fill-rule="nonzero"></path>
                </g>
            </g>
            <path d="M528.856,94 L528.856,5.932 L540.172,5.932 L570.799,59.56 L571.291,59.56 L601.918,5.932 L613.234,5.932 L613.234,94 L601.918,94 L601.918,41.725 L602.41,26.965 L601.918,26.965 L574.366,75.304 L567.724,75.304 L540.172,26.965 L539.68,26.965 L540.172,41.725 L540.172,94 L528.856,94 Z M656.53,31.762 C665.550045,31.762 672.970971,34.8164695 678.793,40.9255 C684.615029,47.0345305 687.526,54.6809541 687.526,63.865 C687.526,73.0490459 684.615029,80.6954695 678.793,86.8045 C672.970971,92.9135305 665.550045,95.968 656.53,95.968 C647.509955,95.968 640.089029,92.9135305 634.267,86.8045 C628.444971,80.6954695 625.534,73.0490459 625.534,63.865 C625.534,54.6809541 628.444971,47.0345305 634.267,40.9255 C640.089029,34.8164695 647.509955,31.762 656.53,31.762 Z M656.53,85.636 C661.860027,85.636 666.472481,83.6475199 670.3675,79.6705 C674.262519,75.6934801 676.21,70.4250328 676.21,63.865 C676.21,57.3049672 674.262519,52.0365199 670.3675,48.0595 C666.472481,44.0824801 661.860027,42.094 656.53,42.094 C651.199973,42.094 646.587519,44.0824801 642.6925,48.0595 C638.797481,52.0365199 636.85,57.3049672 636.85,63.865 C636.85,70.4250328 638.797481,75.6934801 642.6925,79.6705 C646.587519,83.6475199 651.199973,85.636 656.53,85.636 Z M707.452,33.73 L707.452,42.094 L707.944,42.094 C709.584008,39.2239857 712.166982,36.78451 715.693,34.7755 C719.219018,32.76649 722.99098,31.762 727.009,31.762 C734.471037,31.762 740.16998,34.057977 744.106,38.65 C748.04202,43.242023 750.01,49.3919615 750.01,57.1 L750.01,94 L738.694,94 L738.694,58.822 C738.694,47.6699442 733.73305,42.094 723.811,42.094 C719.136977,42.094 715.324015,43.9594813 712.372,47.6905 C709.419985,51.4215187 707.944,55.7469754 707.944,60.667 L707.944,94 L696.628,94 L696.628,33.73 L707.452,33.73 Z M786.295,94.984 C779.980968,94.984 775.163517,93.3030168 771.8425,89.941 C768.521483,86.5789832 766.861,81.8230308 766.861,75.673 L766.861,44.062 L756.283,44.062 L756.283,33.73 L766.861,33.73 L766.861,15.28 L778.177,15.28 L778.177,33.73 L792.937,33.73 L792.937,44.062 L778.177,44.062 L778.177,74.812 C778.177,81.3720328 780.882973,84.652 786.295,84.652 C788.34501,84.652 790.066993,84.3240033 791.461,83.668 L795.397,93.385 C792.936988,94.4510053 789.903018,94.984 786.295,94.984 Z M815.077,94 L803.761,94 L803.761,33.73 L814.585,33.73 L814.585,43.57 L815.077,43.57 C816.225006,40.2899836 818.582482,37.5840107 822.1495,35.452 C825.716518,33.3199893 829.180983,32.254 832.543,32.254 C835.905017,32.254 838.733989,32.7459951 841.03,33.73 L836.725,44.308 C835.248993,43.7339971 833.240013,43.447 830.698,43.447 C826.59798,43.447 822.969516,45.0664838 819.8125,48.3055 C816.655484,51.5445162 815.077,55.7879738 815.077,61.036 L815.077,94 Z M872.026,95.968 C862.923954,95.968 855.523528,92.9340303 849.8245,86.866 C844.125472,80.7979697 841.276,73.1310463 841.276,63.865 C841.276,55.0909561 844.043472,47.5470316 849.5785,41.233 C855.113528,34.9189684 862.185957,31.762 870.796,31.762 C879.734045,31.762 886.888473,34.6729709 892.2595,40.495 C897.630527,46.3170291 900.316,54.1069512 900.316,63.865 L900.193,65.956 L852.592,65.956 C852.920002,72.0240303 854.949481,76.8209824 858.6805,80.347 C862.411519,83.8730176 866.777975,85.636 871.78,85.636 C879.898041,85.636 885.391986,82.1920344 888.262,75.304 L898.348,79.486 C896.37999,84.1600234 893.141023,88.0754842 888.631,91.2325 C884.120977,94.3895158 878.586033,95.968 872.026,95.968 Z M888.262,56.608 C888.015999,53.1639828 886.437515,49.8840156 883.5265,46.768 C880.615485,43.6519844 876.290029,42.094 870.55,42.094 C866.367979,42.094 862.739515,43.4059869 859.6645,46.03 C856.589485,48.6540131 854.478006,52.1799779 853.33,56.608 L888.262,56.608 Z M930.328,95.968 C923.931968,95.968 918.581522,94.1230185 914.2765,90.433 C909.971478,86.7429816 907.819,81.8640303 907.819,75.796 C907.819,69.2359672 910.360975,64.0905187 915.445,60.3595 C920.529025,56.6284813 926.801963,54.763 934.264,54.763 C940.906033,54.763 946.358979,55.9929877 950.623,58.453 L950.623,56.731 C950.623,52.3029779 949.106015,48.7565133 946.072,46.0915 C943.037985,43.4264867 939.307022,42.094 934.879,42.094 C931.598984,42.094 928.626513,42.8729922 925.9615,44.431 C923.296487,45.9890078 921.472005,48.1209865 920.488,50.827 L910.156,46.399 C911.550007,42.790982 914.29698,39.4495154 918.397,36.3745 C922.497021,33.2994846 927.908966,31.762 934.633,31.762 C942.341039,31.762 948.736975,34.0169775 953.821,38.527 C958.905025,43.0370226 961.447,49.391959 961.447,57.592 L961.447,94 L950.623,94 L950.623,85.636 L950.131,85.636 C945.620977,92.5240344 939.020043,95.968 930.328,95.968 Z M932.173,85.636 C936.847023,85.636 941.090481,83.8935174 944.9035,80.4085 C948.716519,76.9234826 950.623,72.8030238 950.623,68.047 C947.424984,65.4229869 942.628032,64.111 936.232,64.111 C930.737973,64.111 926.597014,65.2999881 923.809,67.678 C921.020986,70.0560119 919.627,72.843984 919.627,76.042 C919.627,78.9940148 920.897987,81.3309914 923.44,83.053 C925.982013,84.7750086 928.892984,85.636 932.173,85.636 Z M985.555,94 L974.239,94 L974.239,5.932 L985.555,5.932 L985.555,94 Z" id="Montreal" fill="#757575"></path>
            <path d="M209.905687,233 L243.115688,144.932 L255.907688,144.932 L289.117687,233 L276.571687,233 L268.084687,209.138 L231.061688,209.138 L222.451687,233 L209.905687,233 Z M234.874687,198.56 L264.148687,198.56 L249.757688,158.831 L249.265688,158.831 L234.874687,198.56 Z M308.305687,172.73 L308.305687,181.094 L308.797687,181.094 C310.437696,178.223986 313.02067,175.78451 316.546688,173.7755 C320.072705,171.76649 323.844667,170.762 327.862687,170.762 C335.324725,170.762 341.023668,173.057977 344.959687,177.65 C348.895707,182.242023 350.863687,188.391961 350.863687,196.1 L350.863687,233 L339.547687,233 L339.547687,197.822 C339.547687,186.669944 334.586737,181.094 324.664688,181.094 C319.990664,181.094 316.177702,182.959481 313.225687,186.6905 C310.273673,190.421519 308.797687,194.746975 308.797687,199.667 L308.797687,233 L297.481688,233 L297.481688,172.73 L308.305687,172.73 Z M389.362687,234.968 C381.572649,234.968 374.848716,231.893031 369.190687,225.743 C363.532659,219.592969 360.703688,211.967046 360.703688,202.865 C360.703688,193.762954 363.532659,186.137031 369.190687,179.987 C374.848716,173.836969 381.572649,170.762 389.362687,170.762 C393.95471,170.762 398.075169,171.74599 401.724187,173.714 C405.373206,175.68201 408.099678,178.141985 409.903688,181.094 L410.395688,181.094 L409.903688,172.73 L409.903688,144.932 L421.219687,144.932 L421.219687,233 L410.395688,233 L410.395688,224.636 L409.903688,224.636 C408.099678,227.588015 405.373206,230.04799 401.724187,232.016 C398.075169,233.98401 393.95471,234.968 389.362687,234.968 Z M391.207688,224.636 C396.537714,224.636 401.068169,222.66802 404.799188,218.732 C408.530206,214.79598 410.395688,209.507033 410.395688,202.865 C410.395688,196.222967 408.530206,190.93402 404.799188,186.998 C401.068169,183.06198 396.537714,181.094 391.207688,181.094 C385.959661,181.094 381.449706,183.08248 377.677688,187.0595 C373.905669,191.03652 372.019688,196.304967 372.019688,202.865 C372.019688,209.425033 373.905669,214.69348 377.677688,218.6705 C381.449706,222.64752 385.959661,224.636 391.207688,224.636 Z M446.311688,233 L434.995688,233 L434.995688,172.73 L445.819687,172.73 L445.819687,182.57 L446.311688,182.57 C447.459693,179.289984 449.81717,176.584011 453.384188,174.452 C456.951205,172.319989 460.415671,171.254 463.777688,171.254 C467.139704,171.254 469.968676,171.745995 472.264688,172.73 L467.959687,183.308 C466.48368,182.733997 464.4747,182.447 461.932688,182.447 C457.832667,182.447 454.204203,184.066484 451.047188,187.3055 C447.890172,190.544516 446.311688,194.787974 446.311688,200.036 L446.311688,233 Z M503.506688,170.762 C512.526733,170.762 519.947658,173.816469 525.769687,179.9255 C531.591717,186.034531 534.502688,193.680954 534.502688,202.865 C534.502688,212.049046 531.591717,219.695469 525.769687,225.8045 C519.947658,231.913531 512.526733,234.968 503.506688,234.968 C494.486642,234.968 487.065717,231.913531 481.243688,225.8045 C475.421658,219.695469 472.510688,212.049046 472.510688,202.865 C472.510688,193.680954 475.421658,186.034531 481.243688,179.9255 C487.065717,173.816469 494.486642,170.762 503.506688,170.762 Z M503.506687,224.636 C508.836714,224.636 513.449168,222.64752 517.344187,218.6705 C521.239207,214.69348 523.186688,209.425033 523.186688,202.865 C523.186688,196.304967 521.239207,191.03652 517.344187,187.0595 C513.449168,183.08248 508.836714,181.094 503.506687,181.094 C498.176661,181.094 493.564207,183.08248 489.669187,187.0595 C485.774168,191.03652 483.826687,196.304967 483.826687,202.865 C483.826687,209.425033 485.774168,214.69348 489.669187,218.6705 C493.564207,222.64752 498.176661,224.636 503.506687,224.636 Z M550.246688,159.938 C548.032676,159.938 546.146695,159.159008 544.588687,157.601 C543.03068,156.042992 542.251688,154.157011 542.251688,151.943 C542.251688,149.728989 543.03068,147.843008 544.588687,146.285 C546.146695,144.726992 548.032676,143.948 550.246688,143.948 C552.460699,143.948 554.34668,144.726992 555.904687,146.285 C557.462695,147.843008 558.241687,149.728989 558.241687,151.943 C558.241687,154.157011 557.462695,156.042992 555.904687,157.601 C554.34668,159.159008 552.460699,159.938 550.246688,159.938 Z M555.904687,233 L544.588687,233 L544.588687,172.73 L555.904687,172.73 L555.904687,233 Z M595.264688,234.968 C587.474649,234.968 580.750716,231.893031 575.092688,225.743 C569.434659,219.592969 566.605687,211.967046 566.605687,202.865 C566.605687,193.762954 569.434659,186.137031 575.092688,179.987 C580.750716,173.836969 587.474649,170.762 595.264688,170.762 C599.85671,170.762 603.977169,171.74599 607.626188,173.714 C611.275206,175.68201 614.001678,178.141985 615.805687,181.094 L616.297687,181.094 L615.805687,172.73 L615.805687,144.932 L627.121688,144.932 L627.121688,233 L616.297687,233 L616.297687,224.636 L615.805687,224.636 C614.001678,227.588015 611.275206,230.04799 607.626188,232.016 C603.977169,233.98401 599.85671,234.968 595.264688,234.968 Z M597.109687,224.636 C602.439714,224.636 606.970169,222.66802 610.701187,218.732 C614.432206,214.79598 616.297687,209.507033 616.297687,202.865 C616.297687,196.222967 614.432206,190.93402 610.701187,186.998 C606.970169,183.06198 602.439714,181.094 597.109687,181.094 C591.861661,181.094 587.351706,183.08248 583.579687,187.0595 C579.807669,191.03652 577.921687,196.304967 577.921687,202.865 C577.921687,209.425033 579.807669,214.69348 583.579687,218.6705 C587.351706,222.64752 591.861661,224.636 597.109687,224.636 Z" id="Android" fill="#757575"></path>
        </g>
    </g>
</svg>