<?xml version="1.0" encoding="utf-8"?>
<!-- Generator: Adobe Illustrator 19.0.0, SVG Export Plug-In . SVG Version: 6.00 Build 0)  -->
<svg version="1.1" id="Layer_4" xmlns="http://www.w3.org/2000/svg" xmlns:xlink="http://www.w3.org/1999/xlink" x="0px" y="0px"
	 viewBox="40 173 691.4 448" style="enable-background:new 40 173 691.4 448;" xml:space="preserve">
<style type="text/css">
	.st0{fill:none;}
	.st1{fill:#FFC107;}
	.st2{fill:#0F9D58;}
	.st3{opacity:0.2;fill:#BF360C;enable-background:new    ;}
	.st4{opacity:0.2;fill:#263238;enable-background:new    ;}
	.st5{opacity:0.2;fill:#FFFFFF;enable-background:new    ;}
	.st6{fill:url(#XMLID_2_);}
	.st7{fill:url(#XMLID_3_);}
	.st8{fill:#4285F4;}
	.st9{fill:#DB4437;}
	.st10{opacity:0.2;fill:#1A237E;enable-background:new    ;}
	.st11{opacity:0.2;fill:#3E2723;enable-background:new    ;}
	.st12{fill:url(#XMLID_4_);}
	.st13{fill:#FFFFFF;}
</style>
<g>
	<g id="XMLID_50_">
		<g id="XMLID_72_">
			<path class="st0" d="M16.3,392.3l-33.5-58h-44.8l37,64l-37,64h44.9l33.5-58C18.5,400.6,18.5,396,16.3,392.3z"/>
			<polygon id="XMLID_80_" class="st1" points="-2.9,436.5 -13.5,418.1 -39.1,462.3 -17.2,462.3 -2.6,437 			"/>
			<path class="st0" d="M16.3,392.3l-33.5-58h-44.8l37,64l-37,64h44.9l33.5-58C18.5,400.6,18.5,396,16.3,392.3z"/>
			<polygon class="st2" points="-25,398.3 -13.5,418.1 -39.1,462.3 -62.1,462.3 			"/>
			<path class="st0" d="M16.3,392.3l-33.5-58h-44.8l37,64l-37,64h44.9l33.5-58C18.5,400.6,18.5,396,16.3,392.3z"/>
			<polygon class="st3" points="-17.2,461.3 -38.5,461.3 -39.1,462.3 -17.2,462.3 -2.6,437 -2.9,436.5 			"/>
			<path class="st0" d="M16.3,392.3l-33.5-58h-44.8l37,64l-37,64h44.9l33.5-58C18.5,400.6,18.5,396,16.3,392.3z"/>
			<polygon class="st4" points="-61.5,461.3 -62.1,462.3 -39.1,462.3 -38.5,461.3 			"/>
			<path class="st0" d="M16.3,392.3l-33.5-58h-44.8l37,64l-37,64h44.9l33.5-58C18.5,400.6,18.5,396,16.3,392.3z"/>
			<polygon class="st5" points="-62.1,462.3 -61.5,462.3 -24.8,398.8 -25,398.3 			"/>
			<path class="st0" d="M16.3,392.3l-33.5-58h-44.8l37,64l-37,64h44.9l33.5-58C18.5,400.6,18.5,396,16.3,392.3z"/>
			
				<radialGradient id="XMLID_2_" cx="-2.7834" cy="778.644" r="44.2635" gradientTransform="matrix(1 0 0 1 0 -342)" gradientUnits="userSpaceOnUse">
				<stop  offset="0" style="stop-color:#BF360C;stop-opacity:0.2"/>
				<stop  offset="1" style="stop-color:#BF360C;stop-opacity:2.000000e-02"/>
			</radialGradient>
			<polygon id="XMLID_79_" class="st6" points="-2.6,437 -2.6,437 -13.5,418.1 -16.2,422.8 			"/>
			<path class="st0" d="M16.3,392.3l-33.5-58h-44.8l37,64l-37,64h44.9l33.5-58C18.5,400.6,18.5,396,16.3,392.3z"/>
			
				<radialGradient id="XMLID_3_" cx="-2.9091" cy="778.9239" r="44.6228" gradientTransform="matrix(1 0 0 1 0 -342)" gradientUnits="userSpaceOnUse">
				<stop  offset="0" style="stop-color:#263238;stop-opacity:0.2"/>
				<stop  offset="1" style="stop-color:#263238;stop-opacity:2.000000e-02"/>
			</radialGradient>
			<polygon id="XMLID_78_" class="st7" points="-16.2,422.8 -13.5,418.1 -25,398.3 -30.5,407.8 			"/>
			<path class="st0" d="M16.3,392.3l-33.5-58h-44.8l37,64l-37,64h44.9l33.5-58C18.5,400.6,18.5,396,16.3,392.3z"/>
			<g id="XMLID_75_">
				<g id="XMLID_76_">
					<polygon id="XMLID_77_" class="st8" points="-39.1,334.3 -62.1,334.3 -2.6,437 8.9,417.2 8.9,417.1 					"/>
				</g>
			</g>
			<path class="st0" d="M16.3,392.3l-33.5-58h-44.8l37,64l-37,64h44.9l33.5-58C18.5,400.6,18.5,396,16.3,392.3z"/>
			<path class="st9" d="M16.3,404.3c2.1-3.7,2.1-8.3,0-12l-33.5-58h-21.9l47.9,82.9L16.3,404.3z"/>
			<path class="st0" d="M16.3,392.3l-33.5-58h-44.8l37,64l-37,64h44.9l33.5-58C18.5,400.6,18.5,396,16.3,392.3z"/>
			<polygon class="st10" points="8.9,417.1 8.6,416.7 -2.6,436 -61.5,334.3 -62.1,334.3 -2.6,437 8.9,417.2 			"/>
			<path class="st0" d="M16.3,392.3l-33.5-58h-44.8l37,64l-37,64h44.9l33.5-58C18.5,400.6,18.5,396,16.3,392.3z"/>
			<path class="st5" d="M-17.2,335.3l33.5,58c1,1.7,1.5,3.6,1.6,5.5c0.1-2.2-0.4-4.5-1.6-6.5l-33.5-58h-44.8l0.6,1H-17.2z"/>
			<path class="st0" d="M16.3,392.3l-33.5-58h-44.8l37,64l-37,64h44.9l33.5-58C18.5,400.6,18.5,396,16.3,392.3z"/>
			<path id="XMLID_74_" class="st11" d="M8.9,417.1l7.4-12.9c1.2-2,1.7-4.3,1.6-6.5c-0.1,1.9-0.6,3.8-1.6,5.5l-7.7,13.4L8.9,417.1z"
				/>
			<path class="st0" d="M16.3,392.3l-33.5-58h-44.8l37,64l-37,64h44.9l33.5-58C18.5,400.6,18.5,396,16.3,392.3z"/>
			
				<radialGradient id="XMLID_4_" cx="-63.06" cy="677.27" r="134.3503" gradientTransform="matrix(1 0 0 1 0 -342)" gradientUnits="userSpaceOnUse">
				<stop  offset="0" style="stop-color:#FFFFFF;stop-opacity:0.1"/>
				<stop  offset="1" style="stop-color:#FFFFFF;stop-opacity:0"/>
			</radialGradient>
			<path id="XMLID_73_" class="st12" d="M16.3,392.3l-33.5-58h-44.8l37,64l-37,64h44.9l33.5-58C18.5,400.6,18.5,396,16.3,392.3z"/>
		</g>
	</g>
</g>
<g id="XMLID_8_">
	<path id="XMLID_104_" class="st13" d="M180.4,345.5H211c31.2,0,50.7,20.7,50.7,49.7c0,29.1-19.6,49.7-50.7,49.7h-30.6V345.5
		L180.4,345.5z M211.5,429.8c21.7,0,35.1-12,35.1-34.6c0-22.5-13.4-34.6-35.1-34.6h-16.1v69.3H211.5z"/>
	<rect id="XMLID_103_" x="65.4" y="342.9" class="st0" width="307.2" height="108.4"/>
	<path id="XMLID_102_" class="st13" d="M167.8,390.6h-47.7v14.8h33.6c-1.1,7.5-3.7,13.4-7.6,17.3c-5,5-12.8,10.5-26.4,10.5
		c-21,0-37.5-17-37.5-38c0-21,16.5-38,37.5-38c11.4,0,19.6,4.5,25.8,10.2l10.1-10.1c-8.5-8.2-19.9-14.4-35.9-14.4
		c-28.8,0-53.1,23.5-53.1,52.3c0,28.8,24.2,52.3,53.1,52.3c15.6,0,27.3-5.1,36.5-14.7c9.4-9.4,12.4-22.7,12.4-33.4
		C168.6,396,168.3,393.2,167.8,390.6z"/>
	<path id="XMLID_86_" class="st13" d="M372.7,390.6H325v14.8h33.6c-1.1,7.5-3.7,13.4-7.6,17.3c-5,5-12.8,10.5-26.4,10.5
		c-21,0-37.5-17-37.5-38c0-21,16.5-38,37.5-38c11.3,0,19.7,4.5,25.8,10.2l10.1-10.1c-8.5-8.2-19.9-14.4-35.8-14.4
		c-28.8,0-53.1,23.5-53.1,52.3c0,28.8,24.2,52.3,53.1,52.3c15.6,0,27.3-5.1,36.5-14.7c9.4-9.4,12.4-22.7,12.4-33.4
		C373.4,396,373.2,393.2,372.7,390.6z"/>
</g>
<g>
	<path class="st0" d="M442.4,440.1h-46.7v-83.8h46.7v8.7h-37v27h34.7v8.6h-34.7v30.8h37V440.1z"/>
	<path class="st0" d="M500,423c0,5.8-2.2,10.4-6.5,13.5c-4.4,3.2-10.5,4.8-18.3,4.8c-8.3,0-14.8-1.3-19.5-4v-8.8
		c3,1.5,6.3,2.7,9.7,3.6c3.5,0.9,6.8,1.3,10,1.3c5,0,8.8-0.8,11.5-2.4c2.7-1.6,4-4,4-7.2c0-2.4-1.1-4.5-3.2-6.3
		c-2.1-1.7-6.3-3.8-12.4-6.2c-5.8-2.2-10-4.1-12.5-5.7c-2.5-1.6-4.3-3.5-5.5-5.5c-1.2-2.1-1.8-4.5-1.8-7.4c0-5.1,2.1-9.2,6.2-12.1
		c4.2-3,9.9-4.4,17.1-4.4c6.8,0,13.4,1.4,19.8,4.1l-3.4,7.7c-6.3-2.6-12-3.9-17.1-3.9c-4.5,0-7.9,0.7-10.2,2.1
		c-2.3,1.4-3.4,3.4-3.4,5.8c0,1.7,0.4,3.1,1.3,4.3c0.9,1.2,2.2,2.3,4.2,3.4c1.9,1.1,5.6,2.6,11,4.6c7.4,2.7,12.5,5.4,15.1,8.2
		C498.7,415.4,500,418.8,500,423z"/>
	<path class="st0" d="M524.9,408c1.6-2.3,4.1-5.4,7.5-9.2l20.3-21.5H564l-25.4,26.8l27.2,36h-11.5l-22.2-29.7l-7.2,6.2v23.5h-9.4
		V351h9.4v47.3c0,2.1-0.2,5.3-0.5,9.7H524.9z"/>
	<path class="st0" d="M576.3,360.3c0-2.2,0.5-3.8,1.6-4.8c1.1-1,2.4-1.5,4-1.5c1.5,0,2.8,0.5,4,1.5c1.1,1,1.7,2.6,1.7,4.8
		c0,2.1-0.6,3.7-1.7,4.8c-1.1,1.1-2.4,1.6-4,1.6c-1.6,0-2.9-0.5-4-1.6C576.8,364,576.3,362.4,576.3,360.3z M586.6,440.1h-9.5v-62.8
		h9.5V440.1z"/>
	<path class="st0" d="M647.3,423c0,5.8-2.2,10.4-6.5,13.5c-4.4,3.2-10.5,4.8-18.3,4.8c-8.3,0-14.8-1.3-19.5-4v-8.8
		c3,1.5,6.3,2.7,9.7,3.6c3.5,0.9,6.8,1.3,10,1.3c5,0,8.8-0.8,11.5-2.4c2.7-1.6,4-4,4-7.2c0-2.4-1.1-4.5-3.2-6.3
		c-2.1-1.7-6.3-3.8-12.4-6.2c-5.8-2.2-10-4.1-12.5-5.7c-2.5-1.6-4.3-3.5-5.5-5.5c-1.2-2.1-1.8-4.5-1.8-7.4c0-5.1,2.1-9.2,6.2-12.1
		c4.2-3,9.9-4.4,17.1-4.4c6.8,0,13.4,1.4,19.8,4.1l-3.4,7.7c-6.3-2.6-12-3.9-17.1-3.9c-4.5,0-7.9,0.7-10.2,2.1
		c-2.3,1.4-3.4,3.4-3.4,5.8c0,1.7,0.4,3.1,1.3,4.3c0.9,1.2,2.2,2.3,4.2,3.4c1.9,1.1,5.6,2.6,11,4.6c7.4,2.7,12.5,5.4,15.1,8.2
		C646,415.4,647.3,418.8,647.3,423z"/>
	<path class="st0" d="M689.3,441.3c-9.3,0-16.6-2.8-22-8.5c-5.4-5.7-8-13.5-8-23.5c0-10.1,2.5-18.2,7.5-24.1s11.7-8.9,20.1-8.9
		c7.9,0,14.1,2.6,18.7,7.8c4.6,5.2,6.9,12,6.9,20.5v6h-43.3c0.2,7.4,2.1,13,5.6,16.8c3.5,3.8,8.5,5.7,14.9,5.7
		c6.8,0,13.4-1.4,20.1-4.2v8.5c-3.4,1.5-6.5,2.5-9.5,3.1C697.1,440.9,693.5,441.3,689.3,441.3z M686.7,384.1c-5,0-9.1,1.6-12.1,4.9
		c-3,3.3-4.8,7.8-5.3,13.6h32.8c0-6-1.3-10.6-4-13.8C695.5,385.7,691.7,384.1,686.7,384.1z"/>
	<path class="st0" d="M771.6,440.1v-40.6c0-5.1-1.2-8.9-3.5-11.5s-6-3.8-10.9-3.8c-6.6,0-11.4,1.8-14.5,5.4c-3,3.6-4.6,9.5-4.6,17.6
		v32.8h-9.5V351h9.5v27c0,3.2-0.2,5.9-0.5,8.1h0.6c1.9-3,4.5-5.4,8-7.1c3.5-1.7,7.4-2.6,11.8-2.6c7.7,0,13.4,1.8,17.3,5.5
		c3.8,3.6,5.8,9.4,5.8,17.4v41H771.6z"/>
	<path class="st0" d="M799.8,360.3c0-2.2,0.5-3.8,1.6-4.8c1.1-1,2.4-1.5,4-1.5c1.5,0,2.8,0.5,4,1.5c1.1,1,1.7,2.6,1.7,4.8
		c0,2.1-0.6,3.7-1.7,4.8c-1.1,1.1-2.4,1.6-4,1.6c-1.6,0-2.9-0.5-4-1.6C800.3,364,799.8,362.4,799.8,360.3z M810.1,440.1h-9.5v-62.8
		h9.5V440.1z"/>
	<path class="st0" d="M858.9,376.2c2.8,0,5.3,0.2,7.5,0.7l-1.3,8.8c-2.6-0.6-4.9-0.9-6.9-0.9c-5.1,0-9.4,2.1-13,6.2
		c-3.6,4.1-5.4,9.3-5.4,15.4v33.7h-9.5v-62.8h7.8l1.1,11.6h0.5c2.3-4.1,5.1-7.2,8.4-9.5C851.4,377.3,855,376.2,858.9,376.2z"/>
</g>
</svg>
