<svg id="Layer_1" data-name="Layer 1" xmlns="http://www.w3.org/2000/svg" viewBox="0 0 487.02 145.82"><defs><style>.cls-1{fill:#fad2cf;}.cls-2{fill:#aecbfa;}.cls-3{fill:#a8dab5;}.cls-4{fill:#fbbc04;}.cls-5{fill:#fde293;}.cls-6{fill:#4285f4;}.cls-7{fill:#34a853;}.cls-10,.cls-11,.cls-12,.cls-13,.cls-14,.cls-8{fill:none;stroke-miterlimit:10;}.cls-8{stroke:#0d652d;}.cls-10,.cls-11,.cls-12,.cls-8{stroke-width:0.94px;}.cls-9{fill:#ea4335;}.cls-10{stroke:#e37400;}.cls-11{stroke:#174ea6;}.cls-12,.cls-13{stroke:#a50e0e;}.cls-13{stroke-width:0.93px;}.cls-14{stroke:#fff;stroke-width:5px;}</style></defs><title>logo</title><rect class="cls-1" x="235.21" width="26.5" height="65.39"/><rect class="cls-2" x="443.86" width="26.5" height="65.39"/><rect class="cls-3" width="26.5" height="65.39"/><path class="cls-4" d="M135.21,137.28h0V71.89h0a23.38,23.38,0,0,0-23.38,23.38v18.62A23.39,23.39,0,0,0,135.21,137.28Z" transform="translate(-36.59 -71.89)"/><rect class="cls-5" x="98.62" width="29.63" height="65.39"/><polygon class="cls-2" points="144.29 0 182.05 65.39 182.05 0 144.29 0"/><polygon class="cls-6" points="219.8 0 182.05 0 182.05 65.39 182.05 65.39 219.8 0"/><path class="cls-7" d="M63.1,71.89a32.7,32.7,0,0,1,0,65.39Z" transform="translate(-36.59 -71.89)"/><path class="cls-8" d="M63.1,124.79a20.21,20.21,0,0,0,0-40.42H49.84V99.84" transform="translate(-36.59 -71.89)"/><path class="cls-4" d="M431,120.93a24.52,24.52,0,1,1,0-49Z" transform="translate(-36.59 -71.89)"/><rect class="cls-9" x="261.72" width="21.8" height="16.35"/><rect class="cls-6" x="427.2" width="16.66" height="16.35"/><rect class="cls-6" x="470.36" width="16.66" height="16.35"/><rect class="cls-9" x="261.72" y="32.69" width="16.35" height="16.35"/><rect class="cls-4" x="394.37" width="21.8" height="16.35"/><path class="cls-5" d="M431,88.24v32.69H409.17v16.35H431a24.52,24.52,0,1,0,0-49Z" transform="translate(-36.59 -71.89)"/><path class="cls-10" d="M419.53,108.09a16.35,16.35,0,0,1,11.43-28h12.26" transform="translate(-36.59 -71.89)"/><line class="cls-11" x1="435.53" y1="8.33" x2="478.69" y2="8.33"/><path class="cls-7" d="M359.08,137.28h0V71.89h0A23.38,23.38,0,0,0,335.7,95.27v18.62A23.39,23.39,0,0,0,359.08,137.28Z" transform="translate(-36.59 -71.89)"/><rect class="cls-3" x="322.49" width="29.63" height="65.39"/><line class="cls-8" x1="315.19" y1="22.82" x2="310.97" y2="22.79"/><line class="cls-8" x1="352.12" y1="22.86" x2="323.09" y2="22.86"/><line class="cls-8" x1="352.12" y1="42.53" x2="343.45" y2="42.53"/><line class="cls-8" x1="335.55" y1="42.53" x2="328.96" y2="42.53"/><circle class="cls-11" cx="182.05" cy="38.58" r="4.16"/><circle class="cls-11" cx="196.58" cy="13.4" r="4.16"/><line class="cls-11" x1="194.51" y1="17" x2="184.1" y2="35.02"/><circle class="cls-11" cx="167.51" cy="13.4" r="4.16"/><line class="cls-11" x1="169.59" y1="17" x2="179.99" y2="35.02"/><rect class="cls-8" x="46.49" y="101.23" width="6.71" height="6.71" transform="translate(51.96 -76.5) rotate(45)"/><rect class="cls-8" x="373.3" y="111.62" width="5.59" height="5.59" transform="translate(154.47 -304.31) rotate(45)"/><rect class="cls-8" x="353.02" y="91.95" width="5.59" height="5.59" transform="translate(134.62 -295.74) rotate(45)"/><circle class="cls-11" cx="457.11" cy="22.16" r="3.95"/><circle class="cls-11" cx="457.11" cy="37.31" r="3.95"/><circle class="cls-11" cx="457.11" cy="52.46" r="3.95"/><path class="cls-10" d="M423.24,129.1H431a16.35,16.35,0,1,0,0-32.69" transform="translate(-36.59 -71.89)"/><polyline class="cls-12" points="265.31 40.81 248.47 40.81 248.47 57.65"/><polyline class="cls-13" points="272.58 8.17 248.47 8.17 248.47 32.28"/><line class="cls-10" x1="128.25" y1="22.86" x2="98.5" y2="22.86"/><line class="cls-10" x1="128.25" y1="32.69" x2="98.5" y2="32.69"/><line class="cls-10" x1="128.25" y1="42.53" x2="98.5" y2="42.53"/><path class="cls-14" d="M365.58,166.16a16.35,16.35,0,0,1,16.35,16.35v16.35a16.34,16.34,0,0,1-16.35,16.34H353.32" transform="translate(-36.59 -71.89)"/><path class="cls-14" d="M254.49,166.16a16.35,16.35,0,0,1,16.35,16.35v16.35a16.35,16.35,0,0,1-32.7,0V182.51A16.35,16.35,0,0,1,254.49,166.16Z" transform="translate(-36.59 -71.89)"/><line class="cls-14" x1="273.86" y1="94.43" x2="273.86" y2="143.32"/><polyline class="cls-14" points="168.18 143.32 143.87 143.32 143.87 135.14"/><path class="cls-14" d="M180.46,207a11.44,11.44,0,0,1,11.44-11.44,14.72,14.72,0,0,0,0-29.43H180.46" transform="translate(-36.59 -71.89)"/><path class="cls-14" d="M365.58,166.16a16.35,16.35,0,1,0,16.35,16.35" transform="translate(-36.59 -71.89)"/></svg>