<svg id="Layer_4" xmlns="http://www.w3.org/2000/svg" viewBox="0 0 839 200"><style>.st0{fill:#673AB7;}</style><path class="st0" d="M275.5 51.8c0 10.9-3.2 19.7-9.7 26.1-7.4 7.7-17 11.6-28.8 11.6-11.3 0-20.9-3.9-28.8-11.8-7.9-7.8-11.9-17.6-11.9-29.1s4-21.3 11.9-29.1S225.7 7.7 237 7.7c5.6 0 11 1.1 16.1 3.3 5.1 2.2 9.2 5.1 12.2 8.8l-6.9 6.9c-5.2-6.2-12.3-9.3-21.4-9.3-8.2 0-15.4 2.9-21.4 8.7s-9 13.3-9 22.6 3 16.8 9 22.6c6 5.8 13.1 8.7 21.4 8.7 8.8 0 16-2.9 21.9-8.8 3.8-3.8 6-9.1 6.6-15.9H237v-9.4h38c.3 2.1.5 4 .5 5.9zm9.9 36V9.5h24c12 0 21.7 3.6 28.9 10.9 7.2 7.3 10.8 16.7 10.8 28.3s-3.6 21-10.8 28.3c-7.2 7.3-16.8 10.9-28.9 10.9l-24-.1zm10.1-9.6h13.9c9 0 16.2-2.6 21.5-7.8 5.3-5.2 7.9-12.4 7.9-21.8 0-9.3-2.6-16.5-7.9-21.7s-12.5-7.8-21.5-7.8h-13.9v59.1zm139-26.4c0 10.9-3.2 19.7-9.7 26.1-7.4 7.7-17 11.6-28.8 11.6-11.3 0-20.9-3.9-28.8-11.8-7.9-7.8-11.9-17.6-11.9-29.1s4-21.3 11.9-29.1S384.7 7.7 396 7.7c5.6 0 11 1.1 16.1 3.3s9.2 5.1 12.2 8.8l-6.9 6.9c-5.2-6.2-12.3-9.3-21.4-9.3-8.2 0-15.4 2.9-21.4 8.7s-9 13.3-9 22.6 3 16.8 9 22.6c6 5.8 13.1 8.7 21.4 8.7 8.8 0 16-2.9 21.9-8.8 3.8-3.8 6-9.1 6.6-15.9H396v-9.4h38c.3 2.1.5 4 .5 5.9zm36.3 36V9.5h24c12 0 21.7 3.6 28.9 10.9s10.8 16.7 10.8 28.3-3.6 21-10.8 28.3-16.8 10.9-28.9 10.9l-24-.1zm10.1-9.6h13.9c9 0 16.2-2.6 21.5-7.8 5.3-5.2 7.9-12.4 7.9-21.8 0-9.3-2.6-16.5-7.9-21.7-5.3-5.2-12.5-7.8-21.5-7.8h-13.9v59.1zm86.5 11.4c-8.1 0-14.7-2.7-19.7-8.1-5.1-5.4-7.6-12.2-7.6-20.5 0-7.8 2.5-14.5 7.4-20.1s11.2-8.4 18.9-8.4c7.9 0 14.3 2.6 19.1 7.8s7.2 12.1 7.2 20.8l-.1 1.9h-42.3c.3 5.4 2.1 9.7 5.4 12.8 3.3 3.1 7.2 4.7 11.6 4.7 7.2 0 12.1-3.1 14.7-9.2l9 3.7c-1.8 4.2-4.6 7.6-8.6 10.4-4.2 2.8-9.1 4.2-15 4.2zm14.5-35c-.2-3.1-1.6-6-4.2-8.8-2.6-2.8-6.4-4.2-11.5-4.2-3.7 0-6.9 1.2-9.7 3.5-2.7 2.3-4.6 5.5-5.6 9.4l31 .1zm31.8 33.2L592 34.2h11l15.8 41.6h.2l16-41.6h10.7l-21.9 53.6h-10.1zm47.9 0h-10.1V9.5h45.7v9.6h-35.7v25.7h32.2v9.4h-32.2l.1 33.6zm66.1 1.8c-8.1 0-14.7-2.7-19.7-8.1-5.1-5.4-7.6-12.2-7.6-20.5 0-7.8 2.5-14.5 7.4-20.1s11.2-8.4 18.9-8.4c7.9 0 14.3 2.6 19.1 7.8s7.2 12.1 7.2 20.8l-.1 1.9h-42.3c.3 5.4 2.1 9.7 5.4 12.8 3.3 3.1 7.2 4.7 11.6 4.7 7.2 0 12.1-3.1 14.7-9.2l9 3.7c-1.8 4.2-4.6 7.6-8.6 10.4-4.3 2.8-9.2 4.2-15 4.2zm14.4-35c-.2-3.1-1.6-6-4.2-8.8-2.6-2.8-6.4-4.2-11.5-4.2-3.7 0-6.9 1.2-9.7 3.5-2.7 2.3-4.6 5.5-5.6 9.4l31 .1zm37.4 35c-6 0-10.9-1.5-14.8-4.4-3.9-2.9-6.8-6.6-8.6-10.9l9-3.7c2.8 6.7 7.7 10.1 14.5 10.1 3.1 0 5.7-.7 7.7-2.1s3-3.2 3-5.5c0-3.5-2.4-5.9-7.3-7.1l-10.8-2.6c-3.4-.9-6.7-2.5-9.7-5-3.1-2.4-4.6-5.7-4.6-9.9 0-4.7 2.1-8.6 6.3-11.5 4.2-3 9.2-4.4 14.9-4.4 4.7 0 9 1.1 12.7 3.2 3.7 2.2 6.4 5.2 8 9.2l-8.8 3.6c-2-4.7-6.1-7.1-12.2-7.1-3 0-5.5.6-7.5 1.9-2 1.2-3.1 2.9-3.1 5 0 3.1 2.4 5.1 7.1 6.2l10.6 2.5c5 1.2 8.8 3.2 11.2 6s3.6 6.1 3.6 9.6c0 4.8-2 8.8-5.9 12-4 3.3-9.1 4.9-15.3 4.9zm51.4-.9c-5.6 0-9.9-1.5-12.9-4.5s-4.4-7.2-4.4-12.7V43.4h-9.4v-9.2h9.4V17.8h10.1v16.4h13.1v9.2h-13.1v27.3c0 5.8 2.4 8.8 7.2 8.8 1.8 0 3.4-.3 4.6-.9l3.5 8.6c-2.2 1-4.9 1.5-8.1 1.5zm-608.7 104c-5.7 0-11.2-1.9-16.7-5.6-5.4-3.7-9-8.9-10.7-15.6l9.2-3.7c1.1 4.3 3.3 7.9 6.7 10.9s7.2 4.4 11.4 4.4c4.4 0 8.1-1.1 11.2-3.4 3.1-2.3 4.6-5.4 4.6-9.4 0-4.4-1.6-7.7-4.6-10.1-3.1-2.4-8-4.6-14.7-6.6-6.9-2.2-12.2-5-15.8-8.5s-5.4-7.9-5.4-13.3c0-5.6 2.2-10.5 6.7-14.7 4.4-4.2 10.2-6.2 17.4-6.2 6.6 0 12 1.7 16.2 5s6.9 6.9 8.1 10.9l-9.2 3.8c-.7-2.5-2.3-4.8-4.9-6.9-2.6-2.1-5.9-3.2-10-3.2-3.9 0-7.2 1.1-9.9 3.2-2.7 2.2-4.1 4.8-4.1 8 0 2.9 1.3 5.4 3.8 7.4s6.2 3.8 11.1 5.4c3.9 1.2 7.1 2.4 9.7 3.6 2.6 1.2 5.2 2.7 7.9 4.6 2.7 1.9 4.7 4.3 6 7.2s2 6.2 2 10-.8 7.2-2.4 10.2c-1.6 3-3.6 5.4-6.2 7.1-2.6 1.8-5.4 3.1-8.4 4-2.8 1-5.9 1.5-9 1.5zm59.2 0c-8.1 0-14.7-2.7-19.7-8.1-5.1-5.4-7.6-12.2-7.6-20.5 0-7.8 2.5-14.5 7.4-20.1s11.2-8.4 18.9-8.4c7.9 0 14.3 2.6 19.1 7.8 4.8 5.2 7.2 12.1 7.2 20.8l-.1 1.9h-42.3c.3 5.4 2.1 9.7 5.4 12.8s7.2 4.7 11.6 4.7c7.2 0 12.1-3.1 14.7-9.2l9 3.7c-1.8 4.2-4.6 7.6-8.6 10.4-4.3 2.8-9.2 4.2-15 4.2zm14.4-35c-.2-3.1-1.6-6-4.2-8.8s-6.4-4.2-11.5-4.2c-3.7 0-6.9 1.2-9.7 3.5-2.7 2.3-4.6 5.5-5.6 9.4h31v.1zm34.5 35c-5.7 0-10.4-1.6-14.3-4.9-3.8-3.3-5.7-7.6-5.7-13 0-5.8 2.3-10.4 6.8-13.7s10.1-5 16.7-5c5.9 0 10.8 1.1 14.5 3.3v-1.5c0-3.9-1.3-7.1-4-9.5s-6-3.6-10-3.6c-2.9 0-5.6.7-7.9 2.1-2.4 1.4-4 3.3-4.9 5.7l-9.2-3.9c1.2-3.2 3.7-6.2 7.3-8.9 3.6-2.7 8.5-4.1 14.4-4.1 6.9 0 12.5 2 17.1 6 4.5 4 6.8 9.7 6.8 17v32.4h-9.6v-7.4h-.4c-4 5.9-9.9 9-17.6 9zm1.7-9.2c4.2 0 7.9-1.5 11.3-4.6s5.1-6.8 5.1-11c-2.8-2.3-7.1-3.5-12.8-3.5-4.9 0-8.6 1.1-11 3.2-2.5 2.1-3.7 4.6-3.7 7.4 0 2.6 1.1 4.7 3.4 6.2 2.2 1.5 4.7 2.3 7.7 2.3zm55 9.2c-6 0-10.9-1.5-14.8-4.4s-6.8-6.6-8.6-10.9l9-3.7c2.8 6.7 7.7 10.1 14.5 10.1 3.1 0 5.7-.7 7.7-2.1 2-1.4 3-3.2 3-5.5 0-3.5-2.4-5.9-7.3-7.1l-10.8-2.6c-3.4-.9-6.7-2.5-9.7-5-3.1-2.4-4.6-5.7-4.6-9.9 0-4.7 2.1-8.6 6.3-11.5 4.2-3 9.2-4.4 14.9-4.4 4.7 0 9 1.1 12.7 3.2 3.7 2.2 6.4 5.2 8 9.2l-8.8 3.6c-2-4.7-6.1-7.1-12.2-7.1-3 0-5.5.6-7.5 1.9-2 1.2-3.1 2.9-3.1 5 0 3.1 2.4 5.1 7.1 6.2l10.6 2.5c5 1.2 8.7 3.2 11.2 6 2.4 2.8 3.6 6.1 3.6 9.6 0 4.8-2 8.8-5.9 12-4.1 3.3-9.1 4.9-15.3 4.9zm32.7-49c5.2-5.4 11.8-8.1 19.8-8.1s14.6 2.7 19.8 8.1c5.2 5.4 7.8 12.2 7.8 20.4s-2.6 15-7.8 20.4c-5.2 5.4-11.8 8.1-19.8 8.1s-14.6-2.7-19.8-8.1c-5.2-5.4-7.8-12.2-7.8-20.4 0-8.1 2.6-14.9 7.8-20.4zm7.5 34.5c3.5 3.5 7.6 5.3 12.3 5.3 4.7 0 8.8-1.8 12.3-5.3s5.2-8.2 5.2-14.1c0-5.8-1.7-10.5-5.2-14.1-3.5-3.5-7.6-5.3-12.3-5.3-4.7 0-8.8 1.8-12.3 5.3s-5.2 8.2-5.2 14.1 1.7 10.6 5.2 14.1zm56.6-40.9v7.4h.4c1.5-2.6 3.8-4.7 6.9-6.5s6.5-2.7 10.1-2.7c6.6 0 11.7 2 15.2 6.1s5.2 9.6 5.2 16.4v32.8h-10.1v-31.3c0-9.9-4.4-14.9-13.2-14.9-4.2 0-7.5 1.7-10.2 5-2.6 3.3-3.9 7.2-3.9 11.5v29.6h-10.1v-53.6h9.7v.2zm119.7 53.6h-47.7v-10.1c14.3-14.4 23.4-23.7 27.5-28.1 3.6-4 6-7.1 7.2-9.1 1.2-2.1 1.9-4.6 1.9-7.7 0-3.1-1.2-5.9-3.7-8.3-2.5-2.4-5.8-3.6-10-3.6-3.8 0-6.9 1.1-9.2 3.3s-3.8 4.6-4.5 7.2l-9.2-3.7c1.2-3.9 3.8-7.7 7.8-11.2 3.9-3.5 9-5.2 15.3-5.2 6.9 0 12.6 2.1 17.1 6.3 4.4 4.2 6.7 9.3 6.7 15.2 0 7.3-4 15.1-11.9 23.4l-21.9 22h34.7l-.1 9.6zm57.6-9.5c-5.5 7.5-12.8 11.3-21.8 11.3s-16.2-3.8-21.8-11.3c-5.5-7.5-8.3-16.8-8.3-27.9 0-11.2 2.8-20.5 8.3-27.9 5.5-7.5 12.8-11.2 21.8-11.2s16.2 3.7 21.8 11.2c5.5 7.5 8.3 16.8 8.3 27.9s-2.8 20.4-8.3 27.9zm-21.8 1.7c6 0 10.8-2.8 14.4-8.4 3.6-5.6 5.4-12.6 5.4-21.1s-1.8-15.6-5.4-21.2c-3.6-5.6-8.4-8.4-14.4-8.4-6.1 0-10.9 2.8-14.4 8.4-3.6 5.6-5.4 12.6-5.4 21.2 0 8.5 1.8 15.5 5.4 21.1 3.6 5.6 8.4 8.4 14.4 8.4zm62 7.8h-10.1v-62.3l-14.5 6.3-3.8-8.5 22-10.3h6.5v74.8h-.1zm20.8 1.8l-9-4.6 34.7-62.3H710l.2-9.6h48.2v10.3l-36.3 66.2z" id="XMLID_7_"/><path class="st0" d="M110.5 127l9.5-16.4c1.7-2.8 2.8-6.2 2.8-9.8s-.9-6.9-2.8-9.8L67.3 0H37l73.5 127zm-56.1-21.2L0 200h30.2l39.4-68-15.2-26.2zM92.5 158l13.9-23.9L29.1 0H1.4l91.1 158zm-18.9-18.9L38.3 200h30l20.3-35-15-25.9z"/></svg>
