<?xml version="1.0" encoding="UTF-8" standalone="no"?>
<!-- Created with Inkscape (http://www.inkscape.org/) -->

<svg
   xmlns:dc="http://purl.org/dc/elements/1.1/"
   xmlns:cc="http://creativecommons.org/ns#"
   xmlns:rdf="http://www.w3.org/1999/02/22-rdf-syntax-ns#"
   xmlns:svg="http://www.w3.org/2000/svg"
   xmlns="http://www.w3.org/2000/svg"
   xmlns:sodipodi="http://sodipodi.sourceforge.net/DTD/sodipodi-0.dtd"
   xmlns:inkscape="http://www.inkscape.org/namespaces/inkscape"
   version="1.1"
   id="svg2"
   xml:space="preserve"
   width="2383.2666"
   height="578.78668"
   viewBox="0 0 2383.2666 578.78668"
   sodipodi:docname="logo.svg"
   inkscape:version="0.92.4 (unknown)"><metadata
     id="metadata8"><rdf:RDF><cc:Work
         rdf:about=""><dc:format>image/svg+xml</dc:format><dc:type
           rdf:resource="http://purl.org/dc/dcmitype/StillImage" /><dc:title></dc:title></cc:Work></rdf:RDF></metadata><defs
     id="defs6" /><sodipodi:namedview
     pagecolor="#ffffff"
     bordercolor="#666666"
     borderopacity="1"
     objecttolerance="10"
     gridtolerance="10"
     guidetolerance="10"
     inkscape:pageopacity="0"
     inkscape:pageshadow="2"
     inkscape:window-width="838"
     inkscape:window-height="480"
     id="namedview4"
     showgrid="false"
     inkscape:zoom="0.14895522"
     inkscape:cx="1191.6333"
     inkscape:cy="289.39334"
     inkscape:window-x="0"
     inkscape:window-y="27"
     inkscape:window-maximized="0"
     inkscape:current-layer="g10" /><g
     id="g10"
     inkscape:groupmode="layer"
     inkscape:label="ink_ext_XXXXXX"
     transform="matrix(1.3333333,0,0,-1.3333333,0,578.78667)"><g
       id="g12"
       transform="scale(0.1)"><g
         id="g14"
         transform="scale(1.0966)"><path
           d="M 16300,0 H -0.00356216 V 3958.52 H 16300 V 0"
           style="fill:#f6e9e2;fill-opacity:1;fill-rule:nonzero;stroke:none"
           id="path16"
           inkscape:connector-curvature="0" /></g><path
         d="m 3279.48,2606.53 c -6.08,2.02 -12.57,3.14 -19.33,3.14 -34.06,0 -61.67,-27.61 -61.67,-61.67 0,-7.1 1.27,-13.9 3.48,-20.26 5.01,-14.36 15.13,-26.31 28.23,-33.62 8.87,-4.94 19.08,-7.78 29.96,-7.78 7.28,0 14.24,1.33 20.73,3.65 14.24,5.09 26.09,15.22 33.3,28.3 4.86,8.82 7.63,18.94 7.63,29.71 0,11.24 -3.05,21.74 -8.29,30.81 -7.51,12.97 -19.57,22.95 -34.04,27.72"
         style="fill:#ef3025;fill-opacity:1;fill-rule:nonzero;stroke:none"
         id="path18"
         inkscape:connector-curvature="0" /><path
         d="m 2419.66,2894.37 -258.84,-272.88 179.29,-208.28 265.05,284.45 -185.5,196.71"
         style="fill:#f8a4c2;fill-opacity:1;fill-rule:nonzero;stroke:none"
         id="path20"
         inkscape:connector-curvature="0" /><path
         d="m 2512.66,2126.95 -273.58,317.82 -163.35,-561.16 91.22,-111.6 345.71,354.94"
         style="fill:#7d339a;fill-opacity:1;fill-rule:nonzero;stroke:none"
         id="path22"
         inkscape:connector-curvature="0" /><path
         d="m 1930.42,1972.95 -54.04,-499.28 251.26,257.98 z"
         style="fill:#f8a4c2;fill-opacity:1;fill-rule:nonzero;stroke:none"
         id="path24"
         inkscape:connector-curvature="0" /><path
         d="m 2124.1,2664.14 257.09,271.03 -310.93,329.71 -51.75,-478.08 105.59,-122.66"
         style="fill:#65b0e4;fill-opacity:1;fill-rule:nonzero;stroke:none"
         id="path26"
         inkscape:connector-curvature="0" /><path
         d="m 2809.69,2046.35 234.58,-267.06 172.74,177.8 -365.1,468.91 -42.22,-379.65"
         style="fill:#f8a4c2;fill-opacity:1;fill-rule:nonzero;stroke:none"
         id="path28"
         inkscape:connector-curvature="0" /><path
         d="m 3149.25,2485.1 c -10.56,18.58 -16.67,40.01 -16.67,62.9 0,70.46 57.11,127.57 127.57,127.57 22.16,0 42.99,-5.66 61.15,-15.6 l 84.85,86.24 -462.08,508.55 -83.3,-749.02 136.42,-175.2 152.06,154.56"
         style="fill:#7d339a;fill-opacity:1;fill-rule:nonzero;stroke:none"
         id="path30"
         inkscape:connector-curvature="0" /><path
         d="m 3443.86,2704.7 -80.55,-81.87 c 15.29,-21.03 24.41,-46.83 24.41,-74.83 0,-28.52 -9.48,-54.76 -25.3,-76.01 l 167.78,-192.52 31.16,32.07 123.81,127.6 -241.31,265.56"
         style="fill:#65b0e4;fill-opacity:1;fill-rule:nonzero;stroke:none"
         id="path32"
         inkscape:connector-curvature="0" /><path
         d="m 2745.83,1472.1 259.3,266.91 -203.81,232.04 z"
         style="fill:#7d339a;fill-opacity:1;fill-rule:nonzero;stroke:none"
         id="path34"
         inkscape:connector-curvature="0" /><path
         d="m 3750.42,1651.01 155.6,87.59 c 0,0 15.36,7.92 13.53,15.76 l 48.59,-141.42 c 0,0 19.33,-40.1 -179.69,-117.92 l -59.44,106.65 21.41,49.34"
         style="fill:#65b0e4;fill-opacity:1;fill-rule:nonzero;stroke:none"
         id="path36"
         inkscape:connector-curvature="0" /><path
         d="m 3725.37,1782.32 c 20.07,-14.81 38.29,-35.82 36.67,-67.62 l -48.42,-110.55 c -10.45,24.45 -33.38,68.21 -78.41,88.34 l 54.02,108.36 c 8.14,-2.41 22.54,-8.25 36.14,-18.53"
         style="fill:#65b0e4;fill-opacity:1;fill-rule:nonzero;stroke:none"
         id="path38"
         inkscape:connector-curvature="0" /><path
         d="m 4625.11,1443.72 c -36.48,-42.8 -136.84,-158.69 -253.33,-277.45 -79.86,-81.42 -151.91,-148.55 -215.19,-200.86 h -3143.2 c -22.546,25.371 -38.972,55.52 -44.476,91.27 H 4064.7 l 460.29,458.25 z M 3948.99,836.961 c -431.2,0.019 -2601.91,4.418 -2672.85,4.559 -13.93,2.261 -128.9,22.421 -214.61,81.902 h 3041.88 c -62.68,-46.961 -114.72,-76.293 -154.42,-86.461 z M 1763.53,1203.71 h 295.35 v -105.04 h -307.44 z m 832.75,41.99 h -795.84 l 902.8,932.96 z m -4.81,-41.99 -12.04,-105.04 h -478.55 v 105.04 z m 44.64,7.64 44.29,45.64 h 122.45 v -158.32 h -181.16 l 13.06,114 z m 208.74,-112.68 v 158.32 h 357.13 v -158.32 z m 494.67,0 h -95.54 v 158.32 h 125.75 z m 261.59,158.32 v -158.32 h -215.38 l 30.21,158.32 z m 446.26,-158.32 H 3643.1 v 158.32 h 179.24 v 42 h -398.38 l 43.31,226.91 c 148.03,-17.45 223.98,41.4 240.06,53.57 -0.67,1.24 -1.49,2.01 -1.68,3.11 0,0 -1.26,4.53 -4.2,12.17 -7.41,18.86 -24.53,54.13 -55.23,75.21 -28.22,-18.52 -83.64,-5.3 -150.17,6.7 l 26.66,139.68 -44.59,8.51 -100.37,-525.86 h -656.6 l 1190.53,1226.86 -30.13,29.23 -1239.31,-1277.12 273.6,2386.53 -41.71,4.78 -128.47,-1120.59 -102,108.16 -266.8,-286.32 175.01,-203.3 169.91,174.45 4.75,40.11 -15.44,-134.62 -939.16,-970.53 274.99,2387.85 -41.72,4.81 -279.1,-2423.59 h -685.55 v -41.99 h 680.72 l -12.1,-105.04 H 924.387 L 925,1077.09 c 6.336,-225.168 332.57,-275.309 346.45,-277.328 l 2.99,-0.231 c 22.42,-0.051 2247.04,-4.562 2677.12,-4.562 h 2.48 l 2.42,0.582 c 226.11,54.281 695.68,614.769 715.56,638.599 l 14.52,17.42 -166.09,118.1 -473.08,-471"
         style="fill:#2f2d2e;fill-opacity:1;fill-rule:nonzero;stroke:none"
         id="path40"
         inkscape:connector-curvature="0" /><path
         d="m 1938.87,2051.07 93.87,-114.84 162.76,559.16 -185.24,215.19 -71.39,-659.51"
         style="fill:#2f2d2e;fill-opacity:1;fill-rule:nonzero;stroke:none"
         id="path42"
         inkscape:connector-curvature="0" /><path
         d="m 3320.06,2435.4 c -17.87,-9.52 -38.25,-14.96 -59.91,-14.96 -27.25,0 -52.45,8.61 -73.17,23.17 l -155.1,-157.63 224.51,-288.34 234.66,241.53 -170.99,196.23"
         style="fill:#2f2d2e;fill-opacity:1;fill-rule:nonzero;stroke:none"
         id="path44"
         inkscape:connector-curvature="0" /><g
         id="g46"
         transform="scale(1.03436)"><path
           d="M 16259.4,813.583 H 12027 V 3330.98 h 4232.4 z M 3024.64,3371.58 v -40.6 H 11986.4 V 813.583 H 4536.18 V 772.989 H 16300 V 3371.58 H 3024.64"
           style="fill:#2f2d2e;fill-opacity:1;fill-rule:nonzero;stroke:none"
           id="path48"
           inkscape:connector-curvature="0" /></g><path
         d="m 5573.02,2933.6 v 91.6 h -408 v -638.98 h 96.85 v 273.03 h 265.58 v 85.9 h -265.58 v 188.45 h 311.15"
         style="fill:#2f2d2e;fill-opacity:1;fill-rule:nonzero;stroke:none"
         id="path50"
         inkscape:connector-curvature="0" /><path
         d="m 6103.64,2578.18 c -4.69,-22.21 -13.31,-40.18 -25.86,-53.92 -9.65,-13.14 -22.51,-23.81 -38.57,-31.99 -16.95,-9.64 -36.97,-14.46 -60.04,-14.46 -22.79,0 -42.37,4.82 -58.73,14.46 -16.65,8.18 -30.09,18.85 -40.32,31.99 -12.57,13.74 -20.89,31.71 -24.98,53.92 -4.68,22.19 -7.01,64.7 -7.01,127.52 0,62.82 2.33,105.62 7.01,128.41 4.09,21.62 12.41,39.29 24.98,53.03 10.23,13.15 23.67,24.11 40.32,32.87 16.36,8.47 35.94,13 58.73,13.59 23.07,-0.59 43.09,-5.12 60.04,-13.59 16.06,-8.76 28.92,-19.72 38.57,-32.87 12.55,-13.74 21.17,-31.41 25.86,-53.03 4.37,-22.79 6.56,-65.59 6.56,-128.41 0,-62.82 -2.19,-105.33 -6.56,-127.52 z m 75.37,337.45 c -14.9,29.51 -39.15,55.8 -72.75,78.89 -33.9,23.36 -76.26,35.34 -127.09,35.93 -50.26,-0.59 -92.19,-12.57 -125.78,-35.93 -34.19,-23.09 -59.02,-49.38 -74.51,-78.89 -9.64,-15.49 -16.8,-35.79 -21.48,-60.92 -4.38,-25.13 -6.57,-74.8 -6.57,-149.01 0,-73.04 2.19,-122.42 6.57,-148.13 2.34,-13.73 5.27,-25.13 8.77,-34.18 3.79,-8.76 8.04,-17.97 12.71,-27.61 15.49,-29.51 40.32,-55.51 74.51,-78.01 33.59,-23.37 75.52,-35.64 125.78,-36.81 50.83,1.17 93.19,13.44 127.09,36.81 33.6,22.5 57.85,48.5 72.75,78.01 10.81,15.48 18.26,36.08 22.35,61.79 3.79,25.71 5.7,75.09 5.7,148.13 0,74.21 -1.91,123.88 -5.7,149.01 -4.09,25.13 -11.54,45.43 -22.35,60.92"
         style="fill:#2f2d2e;fill-opacity:1;fill-rule:nonzero;stroke:none"
         id="path52"
         inkscape:connector-curvature="0" /><path
         d="m 6635.11,2477.81 c -70.12,0.59 -130.6,21.76 -181.44,63.55 l -63.54,-72.75 c 68.07,-58.44 149.45,-87.65 244.11,-87.65 146.38,1.75 221.17,63.69 224.39,185.82 0,45.28 -14.18,85.02 -42.51,119.2 -28.64,34.77 -72.9,56.24 -132.8,64.43 -30.39,3.79 -54.34,7.16 -71.87,10.08 -31.55,5.83 -54.5,16.36 -68.81,31.55 -14.32,14.9 -21.47,31.56 -21.47,49.96 0.58,30.68 11.24,53.76 31.99,69.25 19.87,14.9 44.7,22.35 74.5,22.35 57.56,-1.18 110.29,-17.53 158.22,-49.09 l 53.9,79.76 c -58.73,42.37 -127.83,64.43 -207.29,66.18 -66.04,-0.59 -117.02,-17.82 -152.96,-51.71 -37.11,-34.18 -55.66,-79.18 -55.66,-134.98 0,-46.46 14.75,-85.9 44.27,-118.33 28.63,-31.56 70.41,-51.87 125.34,-60.92 30.68,-4.38 58.87,-8.33 84.58,-11.83 56.1,-9.65 83.85,-38.28 83.27,-85.9 -1.17,-58.15 -43.24,-87.8 -126.22,-88.97"
         style="fill:#2f2d2e;fill-opacity:1;fill-rule:nonzero;stroke:none"
         id="path54"
         inkscape:connector-curvature="0" /><path
         d="m 7275.72,2477.81 c -70.12,0.59 -130.61,21.76 -181.44,63.55 l -63.55,-72.75 c 68.08,-58.44 149.45,-87.65 244.11,-87.65 146.38,1.75 221.17,63.69 224.39,185.82 0,45.28 -14.17,85.02 -42.51,119.2 -28.64,34.77 -72.9,56.24 -132.79,64.43 -30.39,3.79 -54.35,7.16 -71.88,10.08 -31.55,5.83 -54.49,16.36 -68.8,31.55 -14.32,14.9 -21.48,31.56 -21.48,49.96 0.59,30.68 11.25,53.76 31.99,69.25 19.87,14.9 44.71,22.35 74.51,22.35 57.55,-1.18 110.29,-17.53 158.21,-49.09 l 53.9,79.76 c -58.72,42.37 -127.82,64.43 -207.29,66.18 -66.04,-0.59 -117.01,-17.82 -152.95,-51.71 -37.11,-34.18 -55.66,-79.18 -55.66,-134.98 0,-46.46 14.75,-85.9 44.26,-118.33 28.63,-31.56 70.41,-51.87 125.34,-60.92 30.69,-4.38 58.88,-8.33 84.59,-11.83 56.09,-9.65 83.85,-38.28 83.27,-85.9 -1.18,-58.15 -43.25,-87.8 -126.22,-88.97"
         style="fill:#2f2d2e;fill-opacity:1;fill-rule:nonzero;stroke:none"
         id="path56"
         inkscape:connector-curvature="0" /><path
         d="m 7883.89,3025.2 -213.43,-457.55 v -86.33 h 266.46 v -95.1 h 91.6 v 95.1 h 50.83 v 86.33 h -50.83 v 183.64 h -91.6 v -183.64 h -166.97 l 216.06,457.55 h -102.12"
         style="fill:#2f2d2e;fill-opacity:1;fill-rule:nonzero;stroke:none"
         id="path58"
         inkscape:connector-curvature="0" /><path
         d="m 8390.83,2887.14 c 10.23,13.15 23.67,24.11 40.32,32.87 16.37,8.47 35.95,13 58.74,13.59 30.96,-0.59 57.25,-9.5 78.88,-26.73 20.74,-18.13 35.06,-40.04 42.95,-65.75 h 102.55 c -10.23,53.47 -34.77,98.32 -73.63,134.55 -38.86,35.94 -89.11,54.19 -150.75,54.78 -50.26,-0.59 -92.19,-12.57 -125.79,-35.93 -34.18,-23.09 -59.01,-49.38 -74.5,-78.89 -9.64,-15.49 -16.8,-35.79 -21.48,-60.92 -4.38,-25.13 -6.57,-74.8 -6.57,-149.01 0,-73.04 2.19,-122.42 6.57,-148.13 2.34,-13.73 5.27,-25.13 8.77,-34.18 3.79,-8.76 8.03,-17.97 12.71,-27.61 15.49,-29.51 40.32,-55.51 74.5,-78.01 33.6,-23.37 75.53,-35.64 125.79,-36.81 65.14,1.17 119.19,23.23 162.15,66.18 42.65,43.23 64.56,96.85 65.74,160.84 v 130.16 h -227.02 v -91.6 h 130.16 v -33.31 c -0.59,-40.03 -13.15,-72.31 -37.69,-96.85 -24.54,-25.71 -55.66,-38.57 -93.34,-38.57 -22.79,0 -42.37,4.82 -58.74,14.46 -16.65,8.18 -30.09,18.85 -40.32,31.99 -12.56,13.74 -20.89,31.71 -24.97,53.92 -4.69,22.19 -7.01,64.7 -7.01,127.52 0,62.82 2.32,105.62 7.01,128.41 4.08,21.62 12.41,39.29 24.97,53.03"
         style="fill:#2f2d2e;fill-opacity:1;fill-rule:nonzero;stroke:none"
         id="path60"
         inkscape:connector-curvature="0" /><path
         d="m 9486.67,2477.81 c -70.12,0.59 -130.61,21.76 -181.44,63.55 l -63.54,-72.75 c 68.06,-58.44 149.44,-87.65 244.1,-87.65 146.38,1.75 221.17,63.69 224.38,185.82 0,45.28 -14.17,85.02 -42.51,119.2 -28.63,34.77 -72.9,56.24 -132.78,64.43 -30.39,3.79 -54.35,7.16 -71.88,10.08 -31.55,5.83 -54.5,16.36 -68.8,31.55 -14.32,14.9 -21.48,31.56 -21.48,49.96 0.59,30.68 11.25,53.76 31.99,69.25 19.87,14.9 44.7,22.35 74.51,22.35 57.55,-1.18 110.29,-17.53 158.21,-49.09 l 53.91,79.76 c -58.74,42.37 -127.84,64.43 -207.3,66.18 -66.03,-0.59 -117.01,-17.82 -152.95,-51.71 -37.12,-34.18 -55.66,-79.18 -55.66,-134.98 0,-46.46 14.74,-85.9 44.26,-118.33 28.63,-31.56 70.41,-51.87 125.35,-60.92 30.67,-4.38 58.86,-8.33 84.58,-11.83 56.09,-9.65 83.84,-38.28 83.27,-85.9 -1.18,-58.15 -43.24,-87.8 -126.22,-88.97"
         style="fill:#2f2d2e;fill-opacity:1;fill-rule:nonzero;stroke:none"
         id="path62"
         inkscape:connector-curvature="0" /><path
         d="m 10268.8,2578.18 c -4.7,-22.21 -13.3,-40.18 -25.8,-53.92 -9.7,-13.14 -22.5,-23.81 -38.6,-31.99 -16.9,-9.64 -37,-14.46 -60,-14.46 -22.8,0 -42.4,4.82 -58.8,14.46 -16.6,8.18 -30.1,18.85 -40.3,31.99 -12.5,13.74 -20.9,31.71 -25,53.92 -4.6,22.19 -7,64.7 -7,127.52 0,62.82 2.4,105.62 7,128.41 4.1,21.62 12.5,39.29 25,53.03 10.2,13.15 23.7,24.11 40.3,32.87 16.4,8.47 36,13 58.8,13.59 23,-0.59 43.1,-5.12 60,-13.59 16.1,-8.76 28.9,-19.72 38.6,-32.87 12.5,-13.74 21.1,-31.41 25.8,-53.03 4.4,-22.79 6.6,-65.59 6.6,-128.41 0,-62.82 -2.2,-105.33 -6.6,-127.52 z m 75.4,337.45 c -14.9,29.51 -39.1,55.8 -72.7,78.89 -33.9,23.36 -76.3,35.34 -127.1,35.93 -50.3,-0.59 -92.2,-12.57 -125.8,-35.93 -34.2,-23.09 -59.03,-49.38 -74.52,-78.89 -9.64,-15.49 -16.8,-35.79 -21.48,-60.92 -4.38,-25.13 -6.57,-74.8 -6.57,-149.01 0,-73.04 2.19,-122.42 6.57,-148.13 2.34,-13.73 5.27,-25.13 8.77,-34.18 3.79,-8.76 8.03,-17.97 12.71,-27.61 15.49,-29.51 40.32,-55.51 74.52,-78.01 33.6,-23.37 75.5,-35.64 125.8,-36.81 50.8,1.17 93.2,13.44 127.1,36.81 33.6,22.5 57.8,48.5 72.7,78.01 10.8,15.48 18.3,36.08 22.4,61.79 3.7,25.71 5.7,75.09 5.7,148.13 0,74.21 -2,123.88 -5.7,149.01 -4.1,25.13 -11.6,45.43 -22.4,60.92"
         style="fill:#2f2d2e;fill-opacity:1;fill-rule:nonzero;stroke:none"
         id="path64"
         inkscape:connector-curvature="0" /><path
         d="m 10800.3,2386.22 v 552.64 h 174.9 v 86.34 h -447 v -86.34 h 174.8 v -552.64 h 97.3"
         style="fill:#2f2d2e;fill-opacity:1;fill-rule:nonzero;stroke:none"
         id="path66"
         inkscape:connector-curvature="0" /><path
         d="m 11714.8,2386.22 v 638.98 h -91.6 l -179.6,-416.35 -183.2,416.35 h -91.2 v -638.98 h 96.9 v 398.37 h 1.7 l 133.7,-306.78 h 80.6 l 133.7,306.78 h 2.2 v -398.37 h 96.8"
         style="fill:#2f2d2e;fill-opacity:1;fill-rule:nonzero;stroke:none"
         id="path68"
         inkscape:connector-curvature="0" /><path
         d="m 5245.76,1820.62 c 4.88,25.84 14.84,46.96 29.85,63.39 12.23,15.71 28.29,28.8 48.21,39.28 19.55,10.13 42.95,15.54 70.2,16.24 27.58,-0.7 51.5,-6.11 71.76,-16.24 19.21,-10.48 34.58,-23.57 46.1,-39.28 15.02,-16.43 25.32,-37.55 30.91,-63.39 5.24,-27.25 7.86,-78.41 7.86,-153.5 0,-75.1 -2.62,-125.91 -7.86,-152.45 -5.59,-26.54 -15.89,-48.03 -30.91,-64.43 -11.52,-15.72 -26.89,-28.47 -46.1,-38.25 -20.26,-11.52 -44.18,-17.29 -71.76,-17.29 -27.25,0 -50.65,5.77 -70.2,17.29 -19.92,9.78 -35.98,22.53 -48.21,38.25 -15.01,16.4 -24.97,37.89 -29.85,64.43 -5.59,26.54 -8.38,77.35 -8.38,152.45 0,75.09 2.79,126.25 8.38,153.5 z m -116.83,24.62 c -5.24,-30.04 -7.86,-89.42 -7.86,-178.12 0,-87.31 2.62,-146.34 7.86,-177.07 2.8,-16.42 6.29,-30.04 10.48,-40.87 4.53,-10.47 9.6,-21.47 15.19,-33 18.51,-35.28 48.2,-66.35 89.06,-93.25 40.16,-27.94 90.28,-42.61 150.36,-44 60.76,1.39 111.4,16.06 151.92,44 40.16,26.9 69.15,57.97 86.96,93.25 12.92,18.51 21.82,43.13 26.71,73.87 4.54,30.73 6.82,89.76 6.82,177.07 0,88.7 -2.28,148.08 -6.82,178.12 -4.89,30.03 -13.79,54.3 -26.71,72.82 -17.81,35.26 -46.8,66.7 -86.96,94.3 -40.52,27.93 -91.16,42.24 -151.92,42.94 -60.08,-0.7 -110.2,-15.01 -150.36,-42.94 -40.86,-27.6 -70.55,-59.04 -89.06,-94.3 -11.52,-18.52 -20.08,-42.79 -25.67,-72.82"
         style="fill:#2f2d2e;fill-opacity:1;fill-rule:nonzero;stroke:none"
         id="path70"
         inkscape:connector-curvature="0" /><path
         d="m 6155.62,2055.3 c -60.08,-0.7 -110.2,-15.01 -150.35,-42.94 -40.86,-27.6 -70.56,-59.04 -89.07,-94.3 -11.51,-18.52 -20.08,-42.79 -25.66,-72.82 -5.24,-30.04 -7.87,-89.42 -7.87,-178.12 0,-87.31 2.63,-146.34 7.87,-177.07 2.79,-16.42 6.28,-30.04 10.48,-40.87 4.53,-10.47 9.59,-21.47 15.18,-33 18.51,-35.28 48.21,-66.35 89.07,-93.25 40.15,-27.94 90.27,-42.61 150.35,-44 66.35,0 123.81,18.85 172.35,56.58 47.15,38.06 79.1,92.54 95.87,163.45 h -122.58 c -32.14,-69.51 -80.68,-104.26 -145.64,-104.26 -27.24,0 -50.64,5.77 -70.2,17.29 -19.91,9.78 -35.97,22.53 -48.2,38.25 -15.02,16.4 -24.97,37.89 -29.86,64.43 -5.59,26.54 -8.38,77.35 -8.38,152.45 0,75.09 2.79,126.25 8.38,153.5 4.89,25.84 14.84,46.96 29.86,63.39 12.23,15.71 28.29,28.8 48.2,39.28 19.56,10.13 42.96,15.54 70.2,16.24 37.01,-0.7 68.44,-11.34 94.29,-31.95 24.8,-21.66 41.91,-47.85 51.35,-78.58 h 122.58 c -12.23,63.91 -41.57,117.52 -88.01,160.83 -46.45,42.95 -106.53,64.77 -180.21,65.47"
         style="fill:#2f2d2e;fill-opacity:1;fill-rule:nonzero;stroke:none"
         id="path72"
         inkscape:connector-curvature="0" /><path
         d="m 6612.86,1285.22 h 487.72 v 109.48 h -371.95 v 224.22 h 317.47 v 102.68 h -317.47 v 217.93 h 371.95 v 109.49 h -487.72 v -763.8"
         style="fill:#2f2d2e;fill-opacity:1;fill-rule:nonzero;stroke:none"
         id="path74"
         inkscape:connector-curvature="0" /><path
         d="m 7452,1558.67 110.54,333.71 h 2.1 l 110.53,-333.71 z m 62.87,490.35 -277.66,-763.8 h 122.59 l 58.67,170.78 h 289.71 l 59.19,-170.78 h 122.07 l -277.66,763.8 h -96.91"
         style="fill:#2f2d2e;fill-opacity:1;fill-rule:nonzero;stroke:none"
         id="path76"
         inkscape:connector-curvature="0" /><path
         d="m 8078.45,2049.02 v -763.8 h 115.77 v 542.73 h 2.1 l 345.23,-542.73 h 109.49 v 763.8 h -115.78 v -542.73 h -2.09 l -345.76,542.73 h -108.96"
         style="fill:#2f2d2e;fill-opacity:1;fill-rule:nonzero;stroke:none"
         id="path78"
         inkscape:connector-curvature="0" /><path
         d="m 8919.69,2049.02 v -763.8 h 115.77 v 763.8 h -115.77"
         style="fill:#2f2d2e;fill-opacity:1;fill-rule:nonzero;stroke:none"
         id="path80"
         inkscape:connector-curvature="0" /><path
         d="m 9549.27,1892.38 h 2.1 l 110.54,-333.71 h -223.17 z m -202.73,-607.16 58.67,170.78 h 289.7 l 59.2,-170.78 h 122.06 l -277.65,763.8 h -96.92 l -277.66,-763.8 h 122.6"
         style="fill:#2f2d2e;fill-opacity:1;fill-rule:nonzero;stroke:none"
         id="path82"
         inkscape:connector-curvature="0" /><path
         d="m 12816.4,2657.87 h 43.4 l 65.9,248.27 h 1 l 65.7,-248.27 h 43.7 l 86,344.42 h -55.1 l -54.3,-244.73 h -1 l -66.6,244.73 h -37.8 l -66.8,-244.73 h -1 l -54.1,244.73 h -55 l 86,-344.42"
         style="fill:#2f2d2e;fill-opacity:1;fill-rule:nonzero;stroke:none"
         id="path84"
         inkscape:connector-curvature="0" /><path
         d="m 13432.2,2707.24 h -167.7 v 101.11 h 143.1 v 46.3 h -143.1 v 98.27 h 167.7 v 49.37 h -220 v -344.42 h 220 v 49.37"
         style="fill:#2f2d2e;fill-opacity:1;fill-rule:nonzero;stroke:none"
         id="path86"
         inkscape:connector-curvature="0" /><path
         d="m 13749.6,2707.24 h -167.7 v 295.05 h -52.2 v -344.42 h 219.9 v 49.37"
         style="fill:#2f2d2e;fill-opacity:1;fill-rule:nonzero;stroke:none"
         id="path88"
         inkscape:connector-curvature="0" /><path
         d="m 14067,2707.24 h -167.7 v 295.05 h -52.2 v -344.42 h 219.9 v 49.37"
         style="fill:#2f2d2e;fill-opacity:1;fill-rule:nonzero;stroke:none"
         id="path90"
         inkscape:connector-curvature="0" /><path
         d="m 14216.8,3002.29 h -52.2 v -344.42 h 52.2 v 344.42"
         style="fill:#2f2d2e;fill-opacity:1;fill-rule:nonzero;stroke:none"
         id="path92"
         inkscape:connector-curvature="0" /><path
         d="m 14389.9,2902.6 h 0.9 l 155.7,-244.73 h 49.4 v 344.42 h -52.2 v -244.73 h -1 l -155.9,244.73 h -49.1 v -344.42 h 52.2 v 244.73"
         style="fill:#2f2d2e;fill-opacity:1;fill-rule:nonzero;stroke:none"
         id="path94"
         inkscape:connector-curvature="0" /><path
         d="m 14713.5,2731.81 c 2,-4.72 4.3,-9.68 6.8,-14.88 8.4,-15.91 21.7,-29.93 40.2,-42.05 18.1,-12.6 40.7,-19.21 67.8,-19.84 35.1,0.63 64.2,12.52 87.4,35.66 23,23.32 34.8,52.21 35.4,86.7 v 70.17 h -122.4 v -49.38 h 70.2 v -17.95 c -0.3,-21.58 -7.1,-38.98 -20.3,-52.21 -13.2,-13.86 -30,-20.79 -50.3,-20.79 -12.3,0 -22.9,2.6 -31.7,7.8 -9,4.4 -16.2,10.16 -21.7,17.25 -6.8,7.39 -11.3,17.08 -13.5,29.05 -2.5,11.97 -3.8,34.88 -3.8,68.74 0,33.86 1.3,56.93 3.8,69.22 2.2,11.65 6.7,21.18 13.5,28.58 5.5,7.09 12.7,12.99 21.7,17.72 8.8,4.56 19.4,7 31.7,7.32 16.7,-0.32 30.8,-5.12 42.5,-14.41 11.2,-9.77 18.9,-21.58 23.1,-35.43 h 55.3 c -5.5,28.82 -18.7,52.99 -39.7,72.52 -20.9,19.37 -48,29.21 -81.2,29.53 -27.1,-0.32 -49.7,-6.78 -67.8,-19.38 -18.5,-12.44 -31.8,-26.61 -40.2,-42.52 -5.2,-8.35 -9.1,-19.29 -11.6,-32.83 -2.3,-13.55 -3.5,-40.32 -3.5,-80.32 0,-39.38 1.2,-65.99 3.5,-79.84 1.3,-7.41 2.9,-13.55 4.8,-18.43"
         style="fill:#2f2d2e;fill-opacity:1;fill-rule:nonzero;stroke:none"
         id="path96"
         inkscape:connector-curvature="0" /><path
         d="m 15118.8,2657.87 h 52.4 v 297.88 h 94.3 v 46.54 h -241 v -46.54 h 94.3 v -297.88"
         style="fill:#2f2d2e;fill-opacity:1;fill-rule:nonzero;stroke:none"
         id="path98"
         inkscape:connector-curvature="0" /><path
         d="m 15386.4,2899.3 c 2.2,11.65 6.7,21.18 13.4,28.58 5.6,7.09 12.8,12.99 21.8,17.72 8.8,4.56 19.3,7 31.6,7.32 12.5,-0.32 23.3,-2.76 32.4,-7.32 8.7,-4.73 15.6,-10.63 20.8,-17.72 6.8,-7.4 11.4,-16.93 13.9,-28.58 2.4,-12.29 3.6,-35.36 3.6,-69.22 0,-33.86 -1.2,-56.77 -3.6,-68.74 -2.5,-11.97 -7.1,-21.66 -13.9,-29.05 -5.2,-7.09 -12.1,-12.85 -20.8,-17.25 -9.1,-5.2 -19.9,-7.8 -32.4,-7.8 -12.3,0 -22.8,2.6 -31.6,7.8 -9,4.4 -16.2,10.16 -21.8,17.25 -6.7,7.39 -11.2,17.08 -13.4,29.05 -2.5,11.97 -3.8,34.88 -3.8,68.74 0,33.86 1.3,56.93 3.8,69.22 z m -48,-167.49 c 2.1,-4.72 4.4,-9.68 6.9,-14.88 8.3,-15.91 21.7,-29.93 40.1,-42.05 18.1,-12.6 40.7,-19.21 67.8,-19.84 27.4,0.63 50.3,7.24 68.5,19.84 18.1,12.12 31.2,26.14 39.3,42.05 5.8,8.34 9.8,19.45 12,33.31 2,13.85 3.1,40.46 3.1,79.84 0,40 -1.1,66.77 -3.1,80.32 -2.2,13.54 -6.2,24.48 -12,32.83 -8.1,15.91 -21.2,30.08 -39.3,42.52 -18.2,12.6 -41.1,19.06 -68.5,19.38 -27.1,-0.32 -49.7,-6.78 -67.8,-19.38 -18.4,-12.44 -31.8,-26.61 -40.1,-42.52 -5.2,-8.35 -9.1,-19.29 -11.6,-32.83 -2.4,-13.55 -3.5,-40.32 -3.5,-80.32 0,-39.38 1.1,-65.99 3.5,-79.84 1.3,-7.41 2.8,-13.55 4.7,-18.43"
         style="fill:#2f2d2e;fill-opacity:1;fill-rule:nonzero;stroke:none"
         id="path100"
         inkscape:connector-curvature="0" /><path
         d="m 15737.6,2902.6 h 0.9 l 155.7,-244.73 h 49.4 v 344.42 h -52.2 v -244.73 h -1 l -155.9,244.73 h -49.1 v -344.42 h 52.2 v 244.73"
         style="fill:#2f2d2e;fill-opacity:1;fill-rule:nonzero;stroke:none"
         id="path102"
         inkscape:connector-curvature="0" /><path
         d="m 12967.3,2082.91 h -0.9 l -155.9,244.73 h -49.2 v -344.42 h 52.2 v 244.74 h 1 l 155.7,-244.74 h 49.3 v 344.42 h -52.2 v -244.73"
         style="fill:#2f2d2e;fill-opacity:1;fill-rule:nonzero;stroke:none"
         id="path104"
         inkscape:connector-curvature="0" /><path
         d="m 13360.6,2032.6 h -167.7 v 101.1 h 143.1 v 46.3 h -143.1 v 98.27 h 167.7 v 49.37 h -219.9 v -344.42 h 219.9 v 49.38"
         style="fill:#2f2d2e;fill-opacity:1;fill-rule:nonzero;stroke:none"
         id="path106"
         inkscape:connector-curvature="0" /><path
         d="m 13513.2,1983.22 h 43.4 l 65.9,248.28 h 1 l 65.6,-248.28 h 43.7 l 86,344.42 h -55 l -54.3,-244.73 h -1 l -66.6,244.73 h -37.8 l -66.9,-244.73 h -0.9 l -54.1,244.73 h -55 l 86,-344.42"
         style="fill:#2f2d2e;fill-opacity:1;fill-rule:nonzero;stroke:none"
         id="path108"
         inkscape:connector-curvature="0" /><path
         d="m 14058.7,2281.11 h 150 l -156.1,-254.42 v -43.47 h 219.9 v 49.38 h -156.6 l 156.6,255.83 v 39.21 h -213.8 v -46.53"
         style="fill:#2f2d2e;fill-opacity:1;fill-rule:nonzero;stroke:none"
         id="path110"
         inkscape:connector-curvature="0" /><path
         d="m 14592.8,2278.27 v 49.37 h -219.9 v -344.42 h 219.9 v 49.38 h -167.7 v 101.1 h 143.1 v 46.3 h -143.1 v 98.27 h 167.7"
         style="fill:#2f2d2e;fill-opacity:1;fill-rule:nonzero;stroke:none"
         id="path112"
         inkscape:connector-curvature="0" /><path
         d="m 14801.1,2257.01 h 0.9 l 49.9,-150.48 h -100.6 z m -65,-196.77 h 130.7 l 26.7,-77.02 h 55 l -125.2,344.42 h -43.7 l -125.2,-344.42 h 55.3 l 26.4,77.02"
         style="fill:#2f2d2e;fill-opacity:1;fill-rule:nonzero;stroke:none"
         id="path114"
         inkscape:connector-curvature="0" /><path
         d="m 15085.9,2327.64 h -52.2 v -344.42 h 220 v 49.38 h -167.8 v 295.04"
         style="fill:#2f2d2e;fill-opacity:1;fill-rule:nonzero;stroke:none"
         id="path116"
         inkscape:connector-curvature="0" /><path
         d="m 15462,2257.01 h 0.9 l 49.9,-150.48 h -100.7 z m -65,-196.77 h 130.6 l 26.7,-77.02 h 55.1 l -125.2,344.42 h -43.7 l -125.2,-344.42 h 55.2 l 26.5,77.02"
         style="fill:#2f2d2e;fill-opacity:1;fill-rule:nonzero;stroke:none"
         id="path118"
         inkscape:connector-curvature="0" /><path
         d="m 15900.6,2082.91 h -1 l -155.9,244.73 h -49.1 v -344.42 h 52.2 v 244.74 h 1 l 155.6,-244.74 h 49.4 v 344.42 h -52.2 v -244.73"
         style="fill:#2f2d2e;fill-opacity:1;fill-rule:nonzero;stroke:none"
         id="path120"
         inkscape:connector-curvature="0" /><g
         id="g122"
         transform="scale(1.00109)"><path
           d="m 16108.6,2030.4 v 245.4 h 62.3 c 26.5,0.63 46.9,-9.05 61.4,-29.02 7.1,-8.03 11.6,-18.49 13.5,-31.38 1.4,-12.91 2.1,-34.3 2.1,-64.19 0,-30.68 -0.7,-51.6 -2.1,-62.78 -1.6,-11.31 -5.3,-20.68 -11.1,-28.07 -13.2,-19.97 -34.5,-29.96 -63.8,-29.96 z m 130.1,-32.33 c 17.9,10.53 31.9,23.91 42,40.11 3.7,6.13 7,12.04 9.6,17.7 2.6,5.82 4.4,12.42 5.7,19.82 2.7,14.63 4,40.43 4,77.39 0,34.77 -0.8,59.24 -2.6,73.39 -2.2,14.16 -7.5,27.69 -15.8,40.59 -23.3,38.39 -58.2,57.74 -104.8,58.05 h -120.3 v -344.05 h 116.8 c 25.8,0 47.6,5.67 65.4,17"
           style="fill:#2f2d2e;fill-opacity:1;fill-rule:nonzero;stroke:none"
           id="path124"
           inkscape:connector-curvature="0" /></g><path
         d="m 12967.3,1408.26 h -0.9 l -155.9,244.73 h -49.2 v -344.41 h 52.2 v 244.72 h 1 l 155.7,-244.72 h 49.3 v 344.41 h -52.2 v -244.73"
         style="fill:#2f2d2e;fill-opacity:1;fill-rule:nonzero;stroke:none"
         id="path126"
         inkscape:connector-curvature="0" /><path
         d="m 13185.1,1550 c 2.2,11.65 6.7,21.17 13.4,28.59 5.6,7.08 12.8,12.98 21.8,17.71 8.8,4.56 19.3,7 31.6,7.32 12.5,-0.32 23.3,-2.76 32.4,-7.32 8.7,-4.73 15.6,-10.63 20.8,-17.71 6.8,-7.42 11.4,-16.94 13.9,-28.59 2.4,-12.28 3.6,-35.36 3.6,-69.22 0,-33.85 -1.2,-56.77 -3.6,-68.74 -2.5,-11.97 -7.1,-21.65 -13.9,-29.05 -5.2,-7.09 -12.1,-12.84 -20.8,-17.25 -9.1,-5.19 -19.9,-7.79 -32.4,-7.79 -12.3,0 -22.8,2.6 -31.6,7.79 -9,4.41 -16.2,10.16 -21.8,17.25 -6.7,7.4 -11.2,17.08 -13.4,29.05 -2.5,11.97 -3.8,34.89 -3.8,68.74 0,33.86 1.3,56.94 3.8,69.22 z m -48,-167.48 c 2.1,-4.74 4.4,-9.69 6.9,-14.88 8.3,-15.92 21.7,-29.93 40.1,-42.05 18.1,-12.61 40.7,-19.22 67.8,-19.85 27.4,0.63 50.3,7.24 68.5,19.85 18.1,12.12 31.2,26.13 39.2,42.05 5.9,8.34 9.9,19.44 12.1,33.3 2,13.86 3.1,40.47 3.1,79.84 0,40 -1.1,66.78 -3.1,80.32 -2.2,13.54 -6.2,24.49 -12.1,32.84 -8,15.91 -21.1,30.08 -39.2,42.52 -18.2,12.59 -41.1,19.05 -68.5,19.37 -27.1,-0.32 -49.7,-6.78 -67.8,-19.37 -18.4,-12.44 -31.8,-26.61 -40.1,-42.52 -5.2,-8.35 -9.1,-19.3 -11.6,-32.84 -2.4,-13.54 -3.5,-40.32 -3.5,-80.32 0,-39.37 1.1,-65.98 3.5,-79.84 1.3,-7.4 2.8,-13.55 4.7,-18.42"
         style="fill:#2f2d2e;fill-opacity:1;fill-rule:nonzero;stroke:none"
         id="path128"
         inkscape:connector-curvature="0" /><path
         d="m 13570.6,1390.78 h -1 l -78.2,262.21 h -55.3 l 113.7,-344.41 h 40.6 l 113.9,344.41 h -55.3 l -78.4,-262.21"
         style="fill:#2f2d2e;fill-opacity:1;fill-rule:nonzero;stroke:none"
         id="path130"
         inkscape:connector-curvature="0" /><path
         d="m 13962.4,1617.33 v -52.45 l 48.9,35.9 v -292.2 h 49.3 v 344.41 h -49.3 l -48.9,-35.66"
         style="fill:#2f2d2e;fill-opacity:1;fill-rule:nonzero;stroke:none"
         id="path132"
         inkscape:connector-curvature="0" /><path
         d="m 14213.6,1556.85 h 49.2 c 1.7,15.75 7.2,27.96 16.5,36.62 9,8.65 20.3,12.99 33.8,12.99 15.3,-0.33 27.1,-5.28 35.4,-14.89 8.1,-9.61 12.1,-20.87 12.1,-33.78 0,-4.88 -0.7,-10.07 -1.9,-15.58 -1.9,-5.83 -5.4,-12.14 -10.6,-18.91 l -134.5,-168.19 v -46.53 h 196.4 v 49.37 h -131.6 l 110.8,138.9 c 13.8,17.63 20.8,37.8 20.8,60.48 -0.4,28.34 -9.9,51.72 -28.6,70.15 -18.5,18.59 -42.5,28.03 -72.1,28.35 -26.4,-0.32 -48.7,-9.61 -66.8,-27.88 -18,-18.74 -27.6,-42.44 -28.9,-71.1"
         style="fill:#2f2d2e;fill-opacity:1;fill-rule:nonzero;stroke:none"
         id="path134"
         inkscape:connector-curvature="0" /><path
         d="m 14504.4,1417.95 h 145.5 v 49.37 h -145.5 v -49.37"
         style="fill:#2f2d2e;fill-opacity:1;fill-rule:nonzero;stroke:none"
         id="path136"
         inkscape:connector-curvature="0" /><path
         d="m 14768.7,1617.33 v -52.45 l 48.9,35.9 v -292.2 h 49.4 v 344.41 h -49.4 l -48.9,-35.66"
         style="fill:#2f2d2e;fill-opacity:1;fill-rule:nonzero;stroke:none"
         id="path138"
         inkscape:connector-curvature="0" /><path
         d="m 15059,1326.52 c 19.3,-13.85 40.7,-20.78 64,-20.78 17.3,0.32 32.3,4.33 44.9,12.05 12.9,7.4 22.7,15.59 29.5,24.57 7.7,9.13 13.2,19.6 16.5,31.41 3.2,11.97 4.8,29.14 4.8,51.5 0,14.49 -0.5,26.69 -1.5,36.62 -0.9,9.76 -2.5,18.02 -4.7,24.8 -4.2,12.44 -11.2,23.39 -20.8,32.83 -6.4,7.09 -14.9,13.08 -25.2,17.96 -11.1,4.41 -23.2,6.77 -36.4,7.08 -20.7,0 -39,-6.3 -55.1,-18.89 v 77.95 h 137 v 49.37 h -183.5 v -186.14 h 46.5 c 5.9,10.54 12.5,17.96 19.9,22.2 7.4,4.1 15.6,6.15 24.5,6.15 10.1,0 18.5,-1.42 25.3,-4.26 6.8,-3.47 11.9,-8.11 15.4,-13.94 6.4,-12.28 9.5,-28.27 9.2,-47.95 0,-8.03 -0.2,-16.3 -0.5,-24.8 -0.6,-8.66 -2.3,-16.7 -5.2,-24.1 -2.7,-7.4 -7.4,-13.39 -14.2,-17.95 -7,-4.73 -16.5,-7.09 -28.3,-7.09 -27.6,0.31 -44,13.7 -49.4,40.16 h -49.3 c 4.7,-31.66 16.9,-54.57 36.6,-68.75"
         style="fill:#2f2d2e;fill-opacity:1;fill-rule:nonzero;stroke:none"
         id="path140"
         inkscape:connector-curvature="0" /><path
         d="m 15493.8,1627.95 c -18,-18.74 -27.6,-42.44 -28.9,-71.1 h 49.2 c 1.7,15.75 7.2,27.96 16.5,36.62 9,8.65 20.2,12.99 33.8,12.99 15.3,-0.33 27.1,-5.28 35.4,-14.89 8.1,-9.61 12.1,-20.87 12.1,-33.78 0,-4.88 -0.7,-10.07 -1.9,-15.58 -1.9,-5.83 -5.5,-12.14 -10.6,-18.91 l -134.5,-168.19 v -46.53 h 196.3 v 49.37 h -131.5 l 110.8,138.9 c 13.8,17.63 20.7,37.8 20.7,60.48 -0.3,28.34 -9.8,51.72 -28.5,70.15 -18.5,18.59 -42.5,28.03 -72.1,28.35 -26.4,-0.32 -48.7,-9.61 -66.8,-27.88"
         style="fill:#2f2d2e;fill-opacity:1;fill-rule:nonzero;stroke:none"
         id="path142"
         inkscape:connector-curvature="0" /><path
         d="m 15894.4,1407.79 c -1,-34.81 -17.1,-52.37 -48.5,-52.68 -31.5,0.31 -47.5,17.87 -48.2,52.68 v 145.99 c 0.7,34.49 16.7,52.04 48.2,52.68 31.4,-0.64 47.5,-18.19 48.5,-52.68 z m -48.5,248.04 c -26,0 -48.3,-8.5 -67.1,-25.52 -20,-17.16 -30.1,-41.65 -30.4,-73.46 v -151.89 c 0.3,-31.66 10.4,-56.07 30.4,-73.23 18.8,-17.01 41.1,-25.67 67.1,-25.99 26.8,0.32 49.6,8.98 68.3,25.99 19.1,17.16 28.9,41.57 29.5,73.23 v 151.89 c -0.6,31.81 -10.4,56.3 -29.5,73.46 -18.7,17.02 -41.5,25.52 -68.3,25.52"
         style="fill:#2f2d2e;fill-opacity:1;fill-rule:nonzero;stroke:none"
         id="path144"
         inkscape:connector-curvature="0" /><path
         d="m 16104.3,1308.58 h 49.4 v 344.41 h -49.4 l -48.9,-35.66 v -52.45 l 48.9,35.9 v -292.2"
         style="fill:#2f2d2e;fill-opacity:1;fill-rule:nonzero;stroke:none"
         id="path146"
         inkscape:connector-curvature="0" /><g
         id="g148"
         transform="scale(1.01245)"><path
           d="m 16153.8,1549.14 c 1.4,4.98 3.9,10.11 7.5,15.4 3.6,5.29 8.4,10.11 14.5,14.46 6.2,4.36 14.1,6.77 23.7,7.24 8.7,0.47 16.1,-0.28 21.9,-2.22 5.8,-1.94 10.5,-4.63 14.3,-8.05 3.8,-3.42 6.6,-7.42 8.7,-12.02 2,-4.58 3.4,-9.36 4.2,-14.34 0.9,-4.98 1.4,-9.88 1.4,-14.7 0.1,-4.83 0.2,-9.18 0.4,-13.07 0,-1.86 -0.4,-4.35 -1.2,-7.47 -0.8,-3.11 -2,-6.49 -3.8,-10.15 -1.8,-3.65 -4.1,-7.34 -6.7,-11.08 -2.8,-3.73 -6.1,-7.08 -9.7,-10.03 -3.8,-2.95 -8,-5.33 -12.9,-7.11 -4.8,-1.79 -10.1,-2.53 -16.1,-2.22 -11.8,0.63 -21,3.22 -27.5,7.81 -6.5,4.59 -11.4,10.11 -14.3,16.57 -3.1,6.45 -5,13.33 -5.6,20.65 -0.6,7.31 -0.9,14 -0.9,20.07 0,1.86 0.7,5.28 2.1,10.26 z m -48.4,4.31 c -0.9,-4.43 -1.4,-7.19 -1.5,-8.26 -0.4,-2.2 -0.6,-4.84 -0.6,-7.95 -0.1,-3.12 -0.1,-6.18 -0.1,-9.22 0,-3.02 0,-5.8 0.1,-8.29 0,-2.48 0.1,-4.19 0.1,-5.12 0,-2.96 0.5,-7.04 1.5,-12.24 1,-5.23 2.7,-10.83 5,-16.81 2.2,-5.99 5.2,-12.13 9,-18.43 3.6,-6.29 8.3,-12.02 13.9,-17.15 5.6,-5.14 12.2,-9.41 19.9,-12.83 7.7,-3.43 16.7,-5.29 27,-5.6 7.5,-0.33 14,-0.2 19.8,0.34 5.6,0.55 10.7,2.15 15.3,4.78 -3,-5.12 -6.9,-12.2 -11.6,-21.22 -4.7,-9.03 -9.9,-18.89 -15.3,-29.63 -5.4,-10.74 -11,-21.63 -16.6,-32.68 -5.5,-11.04 -10.7,-21.07 -15.1,-30.09 -4.6,-9.03 -8.2,-16.37 -11,-22.05 -2.8,-5.67 -4.1,-8.51 -4,-8.51 h 55.8 c 14.8,29.86 28.1,56.92 40.1,81.19 5.1,10.26 10.2,20.49 15.1,30.69 4.8,10.18 9.4,19.44 13.5,27.75 4.1,8.33 7.5,15.37 10.3,21.13 2.7,5.75 4.3,9.48 4.9,11.2 2.6,6.21 4.8,11.97 6.7,17.27 1.8,5.28 3.4,10.64 4.9,16.1 1.5,5.43 2.8,11.16 3.8,17.14 1.1,5.98 2.2,12.79 3.1,20.41 0.6,5.13 0.5,11.33 -0.5,18.55 -0.9,7.24 -2.8,14.7 -5.6,22.41 -3,7.69 -6.9,15.28 -12.1,22.75 -5.1,7.45 -11.6,13.99 -19.3,19.59 -7.8,5.6 -17.1,9.88 -27.9,12.84 -10.8,2.95 -23.3,3.81 -37.5,2.56 -13.5,-1.25 -25.2,-4.12 -35.1,-8.62 -9.9,-4.53 -18.2,-9.89 -25,-16.1 -6.7,-6.24 -12.2,-12.88 -16.4,-19.96 -4.2,-7.09 -7.5,-13.73 -9.8,-19.95 -2.3,-6.22 -3.9,-11.54 -4.8,-15.99"
           style="fill:#2f2d2e;fill-opacity:1;fill-rule:nonzero;stroke:none"
           id="path150"
           inkscape:connector-curvature="0" /></g><path
         d="m 10382.5,2034.6 c -19.7,-12.37 -38.3,-24.06 -76.2,-24.06 -37.8,0 -56.4,11.69 -76.2,24.06 -16,10.06 -33.8,21.08 -61.8,25.57 v -24.21 c 21,-4.05 34.8,-12.62 49.1,-21.6 20.8,-12.99 44.2,-27.72 88.9,-27.72 44.8,0 68.2,14.73 88.9,27.72 19.8,12.37 38.4,24.06 76.3,24.06 37.8,0 56.4,-11.69 76.2,-24.06 20.7,-12.99 44.1,-27.72 88.9,-27.72 44.7,0 68.2,14.73 88.9,27.72 19.7,12.37 38.3,24.06 76.2,24.06 37.8,0 56.5,-11.69 76.2,-24.06 20.7,-12.99 44.2,-27.72 88.9,-27.72 44.7,0 68.2,14.73 88.9,27.72 19.7,12.37 38.4,24.06 76.2,24.06 37.8,0 56.5,-11.69 76.2,-24.06 20.7,-12.99 44.2,-27.72 88.9,-27.72 44.7,0 68.2,14.73 88.9,27.72 19.7,12.37 38.4,24.06 76.2,24.06 37.9,0 56.5,-11.69 76.2,-24.06 20.8,-12.99 44.2,-27.72 89,-27.72 44.7,0 68.1,14.73 88.9,27.72 5.6,3.51 11.1,6.94 17,10.09 v 26.46 c -11.3,-4.91 -20.8,-10.74 -29.7,-16.31 -19.8,-12.37 -38.4,-24.06 -76.2,-24.06 -37.9,0 -56.5,11.69 -76.3,24.06 -20.7,12.99 -44.2,27.71 -88.9,27.71 -44.7,0 -68.2,-14.72 -88.9,-27.71 -19.7,-12.37 -38.3,-24.06 -76.2,-24.06 -37.8,0 -56.5,11.69 -76.2,24.06 -20.7,12.99 -44.2,27.71 -88.9,27.71 -44.7,0 -68.2,-14.72 -88.9,-27.71 -19.7,-12.37 -38.4,-24.06 -76.2,-24.06 -37.8,0 -56.5,11.69 -76.2,24.06 -20.7,12.99 -44.2,27.71 -88.9,27.71 -44.7,0 -68.2,-14.72 -88.9,-27.71 -19.8,-12.37 -38.4,-24.06 -76.2,-24.06 -37.9,0 -56.5,11.69 -76.3,24.06 -20.7,12.99 -44.1,27.71 -88.8,27.71 -44.8,0 -68.2,-14.72 -89,-27.71"
         style="fill:#2f2d2e;fill-opacity:1;fill-rule:nonzero;stroke:none"
         id="path152"
         inkscape:connector-curvature="0" /><path
         d="m 11733.2,1936.46 c -11.3,-4.92 -20.8,-10.75 -29.7,-16.32 -19.8,-12.37 -38.4,-24.06 -76.2,-24.06 -37.9,0 -56.5,11.69 -76.3,24.06 -20.7,12.99 -44.2,27.71 -88.9,27.71 -44.7,0 -68.2,-14.72 -88.9,-27.71 -19.7,-12.37 -38.3,-24.06 -76.2,-24.06 -37.8,0 -56.5,11.69 -76.2,24.06 -20.7,12.99 -44.2,27.71 -88.9,27.71 -44.7,0 -68.2,-14.72 -88.9,-27.71 -19.7,-12.37 -38.4,-24.06 -76.2,-24.06 -37.8,0 -56.5,11.69 -76.2,24.06 -20.7,12.99 -44.2,27.71 -88.9,27.71 -44.7,0 -68.2,-14.72 -88.9,-27.71 -19.8,-12.37 -38.4,-24.06 -76.2,-24.06 -37.9,0 -56.5,11.69 -76.3,24.06 -20.7,12.99 -44.1,27.71 -88.8,27.71 -44.8,0 -68.2,-14.72 -89,-27.71 -19.7,-12.37 -38.3,-24.06 -76.2,-24.06 -37.8,0 -56.4,11.69 -76.2,24.06 -16,10.06 -33.8,21.08 -61.8,25.57 v -24.2 c 21,-4.06 34.8,-12.62 49.1,-21.61 20.8,-12.98 44.2,-27.71 88.9,-27.71 44.8,0 68.2,14.73 88.9,27.71 19.8,12.37 38.4,24.07 76.3,24.07 37.8,0 56.4,-11.7 76.2,-24.07 20.7,-12.98 44.1,-27.71 88.9,-27.71 44.7,0 68.2,14.73 88.9,27.71 19.7,12.37 38.3,24.07 76.2,24.07 37.8,0 56.5,-11.7 76.2,-24.07 20.7,-12.98 44.2,-27.71 88.9,-27.71 44.7,0 68.2,14.73 88.9,27.71 19.7,12.37 38.4,24.07 76.2,24.07 37.8,0 56.5,-11.7 76.2,-24.07 20.7,-12.98 44.2,-27.71 88.9,-27.71 44.7,0 68.2,14.73 88.9,27.7 19.7,12.38 38.4,24.08 76.2,24.08 37.9,0 56.5,-11.7 76.2,-24.07 20.8,-12.98 44.2,-27.71 89,-27.71 44.7,0 68.1,14.73 88.9,27.71 5.6,3.52 11.1,6.94 17,10.09 v 26.47"
         style="fill:#2f2d2e;fill-opacity:1;fill-rule:nonzero;stroke:none"
         id="path154"
         inkscape:connector-curvature="0" /><path
         d="m 11733.2,1707.54 c -11.3,-4.91 -20.8,-10.74 -29.7,-16.32 -19.8,-12.37 -38.4,-24.06 -76.2,-24.06 -37.9,0 -56.5,11.69 -76.3,24.06 -20.7,12.99 -44.2,27.72 -88.9,27.72 -44.7,0 -68.2,-14.73 -88.9,-27.72 -19.7,-12.37 -38.3,-24.06 -76.2,-24.06 -37.8,0 -56.5,11.69 -76.2,24.06 -20.7,12.99 -44.2,27.72 -88.9,27.72 -44.7,0 -68.2,-14.73 -88.9,-27.72 -19.7,-12.37 -38.4,-24.06 -76.2,-24.06 -37.8,0 -56.5,11.69 -76.2,24.06 -20.7,12.99 -44.2,27.72 -88.9,27.72 -44.7,0 -68.2,-14.73 -88.9,-27.72 -19.8,-12.37 -38.4,-24.06 -76.2,-24.06 -37.9,0 -56.5,11.69 -76.3,24.06 -20.7,12.99 -44.1,27.72 -88.8,27.72 -44.8,0 -68.2,-14.73 -89,-27.72 -19.7,-12.37 -38.3,-24.06 -76.2,-24.06 -37.8,0 -56.4,11.69 -76.2,24.06 -16,10.07 -33.8,21.09 -61.8,25.58 v -24.22 c 21,-4.04 34.8,-12.61 49.1,-21.6 20.8,-12.99 44.2,-27.71 88.9,-27.71 44.8,0 68.2,14.72 88.9,27.71 19.8,12.38 38.4,24.06 76.3,24.06 37.8,0 56.4,-11.68 76.2,-24.06 20.7,-12.98 44.1,-27.71 88.9,-27.71 44.7,0 68.2,14.72 88.9,27.71 19.7,12.38 38.3,24.06 76.2,24.06 37.8,0 56.5,-11.68 76.2,-24.06 20.7,-12.99 44.2,-27.71 88.9,-27.71 44.7,0 68.2,14.73 88.9,27.71 19.7,12.38 38.4,24.06 76.2,24.06 37.8,0 56.5,-11.68 76.2,-24.06 20.7,-12.98 44.2,-27.71 88.9,-27.71 44.7,0 68.2,14.72 88.9,27.71 19.7,12.37 38.4,24.06 76.2,24.06 37.9,0 56.5,-11.68 76.2,-24.06 20.8,-12.98 44.2,-27.71 89,-27.71 44.7,0 68.1,14.72 88.9,27.71 5.6,3.52 11.1,6.94 17,10.1 v 26.46"
         style="fill:#2f2d2e;fill-opacity:1;fill-rule:nonzero;stroke:none"
         id="path156"
         inkscape:connector-curvature="0" /><path
         d="m 11733.2,1478.62 c -11.3,-4.91 -20.8,-10.74 -29.7,-16.31 -19.8,-12.37 -38.4,-24.06 -76.2,-24.06 -37.9,0 -56.5,11.69 -76.3,24.06 -20.7,12.99 -44.2,27.71 -88.9,27.71 -44.7,0 -68.2,-14.73 -88.9,-27.71 -19.7,-12.38 -38.3,-24.06 -76.2,-24.06 -37.8,0 -56.5,11.69 -76.2,24.06 -20.7,12.99 -44.2,27.71 -88.9,27.71 -44.7,0 -68.2,-14.72 -88.9,-27.71 -19.7,-12.37 -38.4,-24.06 -76.2,-24.06 -37.8,0 -56.5,11.68 -76.2,24.06 -20.7,12.99 -44.2,27.71 -88.9,27.71 -44.7,0 -68.2,-14.72 -88.9,-27.71 -19.8,-12.37 -38.4,-24.06 -76.2,-24.06 -37.9,0 -56.5,11.69 -76.3,24.06 -20.7,12.99 -44.1,27.71 -88.8,27.71 -44.8,0 -68.2,-14.72 -89,-27.71 -19.7,-12.38 -38.3,-24.06 -76.2,-24.06 -37.8,0 -56.4,11.68 -76.2,24.06 -16,10.06 -33.8,21.08 -61.8,25.57 v -24.21 c 21,-4.05 34.8,-12.61 49.1,-21.6 20.8,-12.99 44.2,-27.71 88.9,-27.71 44.8,0 68.2,14.72 88.9,27.71 19.8,12.37 38.4,24.05 76.3,24.05 37.8,0 56.4,-11.68 76.2,-24.05 20.7,-12.99 44.1,-27.71 88.9,-27.71 44.7,0 68.2,14.72 88.9,27.71 19.7,12.37 38.3,24.05 76.2,24.05 37.8,0 56.5,-11.68 76.2,-24.05 20.7,-12.99 44.2,-27.71 88.9,-27.71 44.7,0 68.2,14.72 88.9,27.71 19.7,12.37 38.4,24.05 76.2,24.05 37.8,0 56.5,-11.68 76.2,-24.05 20.7,-12.99 44.2,-27.71 88.9,-27.71 44.7,0 68.2,14.72 88.9,27.71 19.7,12.37 38.4,24.05 76.2,24.05 37.9,0 56.5,-11.68 76.2,-24.05 20.8,-12.99 44.2,-27.71 89,-27.71 44.7,0 68.1,14.72 88.9,27.71 5.6,3.52 11.1,6.95 17,10.1 v 26.45"
         style="fill:#2f2d2e;fill-opacity:1;fill-rule:nonzero;stroke:none"
         id="path158"
         inkscape:connector-curvature="0" /><path
         d="m 11580.4,1347.85 c -20.7,12.99 -44.2,27.71 -88.9,27.71 -44.7,0 -68.2,-14.72 -88.9,-27.71 -19.7,-12.37 -38.4,-24.06 -76.2,-24.06 -37.9,0 -56.5,11.69 -76.2,24.06 -20.7,12.99 -44.2,27.71 -88.9,27.71 -44.7,0 -68.2,-14.72 -88.9,-27.71 -19.7,-12.37 -38.4,-24.06 -76.2,-24.06 -37.9,0 -56.5,11.69 -76.2,24.06 -20.7,12.99 -44.2,27.71 -88.9,27.71 -44.8,0 -68.2,-14.72 -88.9,-27.71 -19.8,-12.37 -38.4,-24.06 -76.3,-24.06 -37.8,0 -56.4,11.69 -76.2,24.06 -20.7,12.99 -44.2,27.71 -88.9,27.71 -44.7,0 -68.2,-14.72 -88.9,-27.71 -19.7,-12.37 -38.3,-24.06 -76.2,-24.06 -37.8,0 -56.5,11.69 -76.2,24.06 -20.7,12.99 -44.2,27.71 -88.9,27.71 v -23.89 c 37.9,0 56.5,-11.69 76.2,-24.06 20.7,-12.99 44.2,-27.71 88.9,-27.71 44.7,0 68.2,14.72 88.9,27.71 19.8,12.37 38.4,24.06 76.2,24.06 37.9,0 56.5,-11.69 76.2,-24.06 20.8,-12.99 44.2,-27.71 88.9,-27.71 44.8,0 68.2,14.72 89,27.71 19.7,12.37 38.3,24.06 76.2,24.06 37.8,0 56.4,-11.69 76.2,-24.06 20.7,-12.99 44.2,-27.71 88.9,-27.71 44.7,0 68.2,14.72 88.9,27.71 19.7,12.37 38.3,24.06 76.2,24.06 37.8,0 56.5,-11.69 76.2,-24.06 20.7,-12.99 44.2,-27.71 88.9,-27.71 44.7,0 68.2,14.72 88.9,27.71 19.7,12.37 38.4,24.06 76.2,24.06 37.9,0 56.5,-11.69 76.2,-24.06 20.7,-12.99 44.2,-27.71 88.9,-27.71 36.3,0 58.5,9.67 76.6,20.25 v 27.94 c -0.1,-0.08 -0.2,-0.16 -0.4,-0.24 -19.7,-12.37 -38.3,-24.06 -76.2,-24.06 -37.8,0 -56.4,11.69 -76.2,24.06"
         style="fill:#2f2d2e;fill-opacity:1;fill-rule:nonzero;stroke:none"
         id="path160"
         inkscape:connector-curvature="0" /><path
         d="m 11733.2,1577 c -0.1,-0.07 -0.2,-0.15 -0.4,-0.23 -19.7,-12.37 -38.3,-24.06 -76.2,-24.06 -37.8,0 -56.4,11.69 -76.2,24.06 -20.7,12.99 -44.2,27.7 -88.9,27.7 -44.7,0 -68.2,-14.71 -88.9,-27.7 -19.7,-12.37 -38.4,-24.06 -76.2,-24.06 -37.9,0 -56.5,11.69 -76.2,24.06 -20.7,12.99 -44.2,27.7 -88.9,27.7 -44.7,0 -68.2,-14.71 -88.9,-27.7 -19.7,-12.37 -38.4,-24.06 -76.2,-24.06 -37.9,0 -56.5,11.69 -76.2,24.06 -20.7,12.99 -44.2,27.7 -88.9,27.7 -44.8,0 -68.2,-14.71 -88.9,-27.7 -19.8,-12.37 -38.4,-24.06 -76.3,-24.06 -37.8,0 -56.4,11.69 -76.2,24.06 -20.7,12.99 -44.2,27.7 -88.9,27.7 -44.7,0 -68.2,-14.71 -88.9,-27.7 -19.7,-12.37 -38.3,-24.06 -76.2,-24.06 -37.8,0 -56.5,11.69 -76.2,24.06 -20.7,12.99 -44.2,27.7 -88.9,27.7 v -23.88 c 37.9,0 56.5,-11.69 76.2,-24.07 20.7,-12.98 44.2,-27.7 88.9,-27.7 44.7,0 68.2,14.72 88.9,27.7 19.8,12.38 38.4,24.07 76.2,24.07 37.9,0 56.5,-11.69 76.2,-24.07 20.8,-12.98 44.2,-27.7 88.9,-27.7 44.8,0 68.2,14.72 89,27.7 19.7,12.38 38.3,24.07 76.2,24.07 37.8,0 56.4,-11.69 76.2,-24.07 20.7,-12.98 44.2,-27.7 88.9,-27.7 44.7,0 68.2,14.72 88.9,27.7 19.7,12.38 38.3,24.07 76.2,24.07 37.8,0 56.5,-11.69 76.2,-24.07 20.7,-12.98 44.2,-27.7 88.9,-27.7 44.7,0 68.2,14.72 88.9,27.7 19.7,12.38 38.4,24.07 76.2,24.07 37.9,0 56.5,-11.69 76.2,-24.07 20.7,-12.98 44.2,-27.7 88.9,-27.7 36.3,0 58.5,9.67 76.6,20.24 V 1577"
         style="fill:#2f2d2e;fill-opacity:1;fill-rule:nonzero;stroke:none"
         id="path162"
         inkscape:connector-curvature="0" /><path
         d="m 11733.2,1805.92 c -0.1,-0.08 -0.2,-0.16 -0.4,-0.23 -19.7,-12.38 -38.3,-24.07 -76.2,-24.07 -37.8,0 -56.4,11.69 -76.2,24.07 -20.7,12.98 -44.2,27.7 -88.9,27.7 -44.7,0 -68.2,-14.72 -88.9,-27.7 -19.7,-12.38 -38.4,-24.07 -76.2,-24.07 -37.8,0 -56.5,11.69 -76.2,24.07 -20.7,12.98 -44.2,27.7 -88.9,27.7 -44.7,0 -68.2,-14.72 -88.9,-27.7 -19.7,-12.38 -38.4,-24.07 -76.2,-24.07 -37.9,0 -56.5,11.69 -76.2,24.07 -20.7,12.98 -44.2,27.7 -88.9,27.7 -44.8,0 -68.2,-14.72 -88.9,-27.7 -19.8,-12.38 -38.4,-24.07 -76.3,-24.07 -37.8,0 -56.4,11.69 -76.2,24.07 -20.7,12.98 -44.2,27.7 -88.9,27.7 -44.7,0 -68.2,-14.72 -88.9,-27.7 -19.7,-12.38 -38.3,-24.07 -76.2,-24.07 -37.8,0 -56.5,11.69 -76.2,24.07 -20.7,12.98 -44.2,27.7 -88.9,27.7 v -23.89 c 37.9,0 56.5,-11.69 76.2,-24.06 20.7,-12.99 44.2,-27.7 88.9,-27.7 44.7,0 68.2,14.71 88.9,27.7 19.8,12.37 38.4,24.06 76.2,24.06 37.9,0 56.5,-11.69 76.2,-24.06 20.8,-12.99 44.2,-27.7 88.9,-27.7 44.8,0 68.2,14.71 89,27.7 19.7,12.37 38.3,24.06 76.2,24.06 37.8,0 56.4,-11.69 76.2,-24.06 20.7,-12.99 44.2,-27.7 88.9,-27.7 44.7,0 68.2,14.71 88.9,27.7 19.7,12.37 38.3,24.06 76.2,24.06 37.8,0 56.5,-11.69 76.2,-24.06 20.7,-12.99 44.2,-27.7 88.9,-27.7 44.7,0 68.2,14.71 88.9,27.7 19.7,12.37 38.4,24.06 76.2,24.06 37.9,0 56.5,-11.69 76.2,-24.06 20.7,-12.99 44.2,-27.7 88.9,-27.7 36.3,0 58.5,9.66 76.6,20.24 v 27.94"
         style="fill:#2f2d2e;fill-opacity:1;fill-rule:nonzero;stroke:none"
         id="path164"
         inkscape:connector-curvature="0" /><path
         d="m 3760.25,1673.6 138.23,78.16 c 0.14,0.49 0.62,0.34 0.62,0.34 1.86,1.01 3.86,2.5 5.24,3.64 4.77,3.8 0.95,4.94 0.95,4.94 -1.92,0.56 -6.31,-0.22 -6.31,-0.22 -74.13,-16.51 -113.53,-8.98 -131.77,-2.01 7.21,-12.55 11.03,-27.74 9.89,-45.62 l -0.71,-2.39 -16.14,-36.84"
         style="fill:#2f2d2e;fill-opacity:1;fill-rule:nonzero;stroke:none"
         id="path166"
         inkscape:connector-curvature="0" /></g></g></svg>