<?xml version="1.0" encoding="utf-8"?>
<!-- Generator: Adobe Illustrator 19.0.0, SVG Export Plug-In . SVG Version: 6.00 Build 0)  -->
<svg version="1.1" id="Layer_4" xmlns="http://www.w3.org/2000/svg" xmlns:xlink="http://www.w3.org/1999/xlink" x="0px" y="0px"
	 viewBox="114 297 839 200" style="enable-background:new 114 297 839 200;" xml:space="preserve">
<style type="text/css">
	.st0{fill:none;}
	.st1{fill:#FFC107;}
	.st2{fill:#0F9D58;}
	.st3{opacity:0.2;fill:#BF360C;enable-background:new    ;}
	.st4{opacity:0.2;fill:#263238;enable-background:new    ;}
	.st5{opacity:0.2;fill:#FFFFFF;enable-background:new    ;}
	.st6{fill:url(#XMLID_3_);}
	.st7{fill:url(#XMLID_5_);}
	.st8{fill:#4285F4;}
	.st9{fill:#DB4437;}
	.st10{opacity:0.2;fill:#1A237E;enable-background:new    ;}
	.st11{opacity:0.2;fill:#3E2723;enable-background:new    ;}
	.st12{fill:url(#XMLID_6_);}
	.st13{fill:#FAFAFA;}
</style>
<g id="XMLID_60_">
	<g id="XMLID_61_">
		<g id="XMLID_62_">
			<path id="XMLID_106_" class="st0" d="M231.5,384.1L182.2,299h-65.9l54.3,94l-54.3,94h65.9l49.3-85.2
				C234.6,396.4,234.6,389.6,231.5,384.1z"/>
			<path id="XMLID_105_" class="st1" d="M203.2,449.2l-15.6-27L150.1,487h32.2l21.4-37L203.2,449.2z"/>
			<path id="XMLID_104_" class="st0" d="M231.5,384.1L182.2,299h-65.9l54.3,94l-54.3,94h65.9l49.3-85.2
				C234.6,396.4,234.6,389.6,231.5,384.1z"/>
			<path id="XMLID_103_" class="st2" d="M170.7,393l16.9,29.2L150.1,487h-33.8L170.7,393z"/>
			<path id="XMLID_102_" class="st0" d="M231.5,384.1L182.2,299h-65.9l54.3,94l-54.3,94h65.9l49.3-85.2
				C234.6,396.4,234.6,389.6,231.5,384.1z"/>
			<path id="XMLID_101_" class="st3" d="M182.2,485.5h-31.3l-0.8,1.5h32.2l21.4-37l-0.5-0.8L182.2,485.5z"/>
			<path id="XMLID_100_" class="st0" d="M231.5,384.1L182.2,299h-65.9l54.3,94l-54.3,94h65.9l49.3-85.2
				C234.6,396.4,234.6,389.6,231.5,384.1z"/>
			<path id="XMLID_99_" class="st4" d="M117.2,485.5l-0.8,1.5h33.8l0.8-1.5H117.2z"/>
			<path id="XMLID_98_" class="st0" d="M231.5,384.1L182.2,299h-65.9l54.3,94l-54.3,94h65.9l49.3-85.2
				C234.6,396.4,234.6,389.6,231.5,384.1z"/>
			<path id="XMLID_96_" class="st5" d="M116.3,487h0.8l54-93.3l-0.5-0.8L116.3,487z"/>
			<path id="XMLID_94_" class="st0" d="M231.5,384.1L182.2,299h-65.9l54.3,94l-54.3,94h65.9l49.3-85.2
				C234.6,396.4,234.6,389.6,231.5,384.1z"/>
			
				<radialGradient id="XMLID_3_" cx="203.4021" cy="2422.106" r="65.0253" gradientTransform="matrix(1 0 0 -1 0 2871.46)" gradientUnits="userSpaceOnUse">
				<stop  offset="0" style="stop-color:#BF360C;stop-opacity:0.2"/>
				<stop  offset="1" style="stop-color:#BF360C;stop-opacity:2.000000e-02"/>
			</radialGradient>
			<path id="XMLID_92_" class="st6" d="M203.7,450l-16.1-27.7l-3.9,6.8L203.7,450z"/>
			<path id="XMLID_90_" class="st0" d="M231.5,384.1L182.2,299h-65.9l54.3,94l-54.3,94h65.9l49.3-85.2
				C234.6,396.4,234.6,389.6,231.5,384.1z"/>
			
				<radialGradient id="XMLID_5_" cx="203.2169" cy="2421.6943" r="65.5527" gradientTransform="matrix(1 0 0 -1 0 2871.46)" gradientUnits="userSpaceOnUse">
				<stop  offset="0" style="stop-color:#263238;stop-opacity:0.2"/>
				<stop  offset="1" style="stop-color:#263238;stop-opacity:2.000000e-02"/>
			</radialGradient>
			<path id="XMLID_89_" class="st7" d="M183.6,429l3.9-6.8L170.7,393l-8,13.9L183.6,429z"/>
			<path id="XMLID_88_" class="st0" d="M231.5,384.1L182.2,299h-65.9l54.3,94l-54.3,94h65.9l49.3-85.2
				C234.6,396.4,234.6,389.6,231.5,384.1z"/>
			<g id="XMLID_85_">
				<g id="XMLID_86_">
					<path id="XMLID_87_" class="st8" d="M150.1,299h-33.8l87.3,151l16.8-29.2L150.1,299z"/>
				</g>
			</g>
			<path id="XMLID_84_" class="st0" d="M231.5,384.1L182.2,299h-65.9l54.3,94l-54.3,94h65.9l49.3-85.2
				C234.6,396.4,234.6,389.6,231.5,384.1z"/>
			<path id="XMLID_83_" class="st9" d="M231.5,401.8c3.2-5.5,3.2-12.2,0-17.7L182.2,299h-32.2l70.4,121.8L231.5,401.8z"/>
			<path id="XMLID_82_" class="st0" d="M231.5,384.1L182.2,299h-65.9l54.3,94l-54.3,94h65.9l49.3-85.2
				C234.6,396.4,234.6,389.6,231.5,384.1z"/>
			<path id="XMLID_71_" class="st10" d="M220.5,420.7l-0.4-0.8l-16.5,28.5L117.2,299h-0.8l87.3,151L220.5,420.7z"/>
			<path id="XMLID_69_" class="st0" d="M231.5,384.1L182.2,299h-65.9l54.3,94l-54.3,94h65.9l49.3-85.2
				C234.6,396.4,234.6,389.6,231.5,384.1z"/>
			<path id="XMLID_67_" class="st5" d="M182.2,300.5l49.3,85.2c1.4,2.5,2.2,5.3,2.4,8.1c0.1-3.3-0.7-6.6-2.4-9.6L182.2,299h-65.9
				l0.8,1.5H182.2z"/>
			<path id="XMLID_66_" class="st0" d="M231.5,384.1L182.2,299h-65.9l54.3,94l-54.3,94h65.9l49.3-85.2
				C234.6,396.4,234.6,389.6,231.5,384.1z"/>
			<path id="XMLID_65_" class="st11" d="M220.5,420.7l10.9-18.9c1.7-2.9,2.4-6.3,2.4-9.6c-0.1,2.8-0.8,5.5-2.4,8.1L220,420
				L220.5,420.7z"/>
			<path id="XMLID_64_" class="st0" d="M231.5,384.1L182.2,299h-65.9l54.3,94l-54.3,94h65.9l49.3-85.2
				C234.6,396.4,234.6,389.6,231.5,384.1z"/>
			
				<radialGradient id="XMLID_6_" cx="114.8524" cy="2571.0291" r="197.3661" gradientTransform="matrix(1 0 0 -1 0 2871.46)" gradientUnits="userSpaceOnUse">
				<stop  offset="0" style="stop-color:#FFFFFF;stop-opacity:0.1"/>
				<stop  offset="1" style="stop-color:#FFFFFF;stop-opacity:0"/>
			</radialGradient>
			<path id="XMLID_63_" class="st12" d="M231.5,384.1L182.2,299h-65.9l54.3,94l-54.3,94h65.9l49.3-85.2
				C234.6,396.4,234.6,389.6,231.5,384.1z"/>
		</g>
	</g>
</g>
<g id="XMLID_7_">
	<path id="XMLID_2_" class="st13" d="M346.8,345c0,10.7-3.1,19.3-9.5,25.5c-7.2,7.5-16.6,11.4-28.2,11.4c-11.1,0-20.5-3.8-28.2-11.5
		c-7.7-7.6-11.6-17.2-11.6-28.5c0-11.3,3.9-20.8,11.6-28.5s17.1-11.5,28.2-11.5c5.5,0,10.8,1.1,15.8,3.2c5,2.2,9,5,11.9,8.6
		l-6.8,6.8c-5.1-6.1-12-9.1-20.9-9.1c-8,0-15.1,2.8-20.9,8.5c-5.9,5.7-8.8,13-8.8,22.1c0,9.1,2.9,16.4,8.8,22.1
		c5.9,5.7,12.8,8.5,20.9,8.5c8.6,0,15.7-2.8,21.4-8.6c3.7-3.7,5.9-8.9,6.5-15.6h-27.9v-9.2h37.2C346.6,341.2,346.8,343.1,346.8,345
		L346.8,345z"/>
	<path id="XMLID_4_" class="st13" d="M356.4,380.2v-76.6h23.5c11.7,0,21.2,3.5,28.3,10.7c7,7.1,10.6,16.3,10.6,27.7
		c0,11.4-3.5,20.6-10.6,27.7c-7,7.1-16.4,10.7-28.3,10.7L356.4,380.2L356.4,380.2z M366.3,370.8h13.6c8.8,0,15.9-2.5,21-7.6
		c5.2-5.1,7.7-12.1,7.7-21.3c0-9.1-2.5-16.1-7.7-21.2s-12.2-7.6-21-7.6h-13.6C366.3,313,366.3,370.8,366.3,370.8z"/>
	<path id="XMLID_8_" class="st13" d="M502.4,345c0,10.7-3.1,19.3-9.5,25.5c-7.2,7.5-16.6,11.4-28.2,11.4c-11.1,0-20.5-3.8-28.2-11.5
		c-7.7-7.6-11.6-17.2-11.6-28.5c0-11.3,3.9-20.8,11.6-28.5s17.1-11.5,28.2-11.5c5.5,0,10.8,1.1,15.8,3.2c5,2.2,9,5,11.9,8.6
		l-6.8,6.8c-5.1-6.1-12-9.1-20.9-9.1c-8,0-15.1,2.8-20.9,8.5c-5.9,5.7-8.8,13-8.8,22.1c0,9.1,2.9,16.4,8.8,22.1
		c5.9,5.7,12.8,8.5,20.9,8.5c8.6,0,15.7-2.8,21.4-8.6c3.7-3.7,5.9-8.9,6.5-15.6h-27.9v-9.2h37.2C502.2,341.2,502.4,343.1,502.4,345
		L502.4,345z"/>
	<path id="XMLID_10_" class="st13" d="M537.9,380.2v-76.6h23.5c11.7,0,21.2,3.5,28.3,10.7c7,7.1,10.6,16.3,10.6,27.7
		c0,11.4-3.5,20.6-10.6,27.7c-7,7.1-16.4,10.7-28.3,10.7L537.9,380.2L537.9,380.2z M547.8,370.8h13.6c8.8,0,15.9-2.5,21-7.6
		c5.2-5.1,7.7-12.1,7.7-21.3c0-9.1-2.5-16.1-7.7-21.2c-5.2-5.1-12.2-7.6-21-7.6h-13.6C547.8,313,547.8,370.8,547.8,370.8z"/>
	<path id="XMLID_13_" class="st13" d="M632.4,382c-7.9,0-14.4-2.6-19.3-7.9c-5-5.3-7.4-11.9-7.4-20.1c0-7.6,2.4-14.2,7.2-19.7
		c4.8-5.5,11-8.2,18.5-8.2c7.7,0,14,2.5,18.7,7.6c4.7,5.1,7,11.8,7,20.4l-0.1,1.9h-41.4c0.3,5.3,2.1,9.5,5.3,12.5
		c3.2,3,7,4.6,11.4,4.6c7,0,11.8-3,14.4-9l8.8,3.6c-1.8,4.1-4.5,7.4-8.4,10.2C643,380.6,638.2,382,632.4,382L632.4,382z
		 M646.6,347.7c-0.2-3-1.6-5.9-4.1-8.6c-2.5-2.7-6.3-4.1-11.3-4.1c-3.6,0-6.8,1.2-9.5,3.4c-2.6,2.3-4.5,5.4-5.5,9.2L646.6,347.7
		L646.6,347.7z"/>
	<path id="XMLID_16_" class="st13" d="M677.8,380.2l-21.2-52.5h10.8l15.5,40.7h0.2l15.7-40.7h10.5l-21.4,52.5L677.8,380.2
		L677.8,380.2z"/>
	<path id="XMLID_18_" class="st13" d="M724.6,380.2h-9.9v-76.6h44.7v9.4h-34.9v25.2H756v9.2h-31.5L724.6,380.2L724.6,380.2z"/>
	<path id="XMLID_20_" class="st13" d="M789.3,382c-7.9,0-14.4-2.6-19.3-7.9c-5-5.3-7.4-11.9-7.4-20.1c0-7.6,2.4-14.2,7.2-19.7
		c4.8-5.5,11-8.2,18.5-8.2c7.7,0,14,2.5,18.7,7.6c4.7,5.1,7,11.8,7,20.4l-0.1,1.9h-41.4c0.3,5.3,2.1,9.5,5.3,12.5
		c3.2,3,7,4.6,11.4,4.6c7,0,11.8-3,14.4-9l8.8,3.6c-1.8,4.1-4.5,7.4-8.4,10.2C799.8,380.6,795,382,789.3,382L789.3,382z
		 M803.4,347.7c-0.2-3-1.6-5.9-4.1-8.6c-2.5-2.7-6.3-4.1-11.3-4.1c-3.6,0-6.8,1.2-9.5,3.4c-2.6,2.3-4.5,5.4-5.5,9.2L803.4,347.7
		L803.4,347.7z"/>
	<path id="XMLID_27_" class="st13" d="M840,382c-5.9,0-10.7-1.5-14.5-4.3c-3.8-2.8-6.7-6.5-8.4-10.7l8.8-3.6
		c2.7,6.6,7.5,9.9,14.2,9.9c3,0,5.6-0.7,7.5-2.1c2-1.4,2.9-3.1,2.9-5.4c0-3.4-2.3-5.8-7.1-6.9l-10.6-2.5c-3.3-0.9-6.6-2.4-9.5-4.9
		c-3-2.3-4.5-5.6-4.5-9.7c0-4.6,2.1-8.4,6.2-11.3c4.1-2.9,9-4.3,14.6-4.3c4.6,0,8.8,1.1,12.4,3.1c3.6,2.2,6.3,5.1,7.8,9l-8.6,3.5
		c-2-4.6-6-6.9-11.9-6.9c-2.9,0-5.4,0.6-7.3,1.9c-2,1.2-3,2.8-3,4.9c0,3,2.3,5,6.9,6.1l10.4,2.4c4.9,1.2,8.6,3.1,11,5.9
		s3.5,6,3.5,9.4c0,4.7-2,8.6-5.8,11.7C851.1,380.4,846.1,382,840,382L840,382z"/>
	<path id="XMLID_29_" class="st13" d="M890.3,381.1c-5.5,0-9.7-1.5-12.6-4.4c-2.9-2.9-4.3-7-4.3-12.4v-27.5h-9.2v-9h9.2v-16.1h9.9
		v16.1h12.8v9h-12.8v26.7c0,5.7,2.3,8.6,7,8.6c1.8,0,3.3-0.3,4.5-0.9l3.4,8.4C896.1,380.6,893.5,381.1,890.3,381.1L890.3,381.1z"/>
	<path id="XMLID_46_" class="st13" d="M795,490.9h-46.7V481c14-14.1,22.9-23.2,26.9-27.5c3.5-3.9,5.9-6.9,7-8.9
		c1.2-2.1,1.9-4.5,1.9-7.5s-1.2-5.8-3.6-8.1c-2.4-2.3-5.7-3.5-9.8-3.5c-3.7,0-6.8,1.1-9,3.2s-3.7,4.5-4.4,7l-9-3.6
		c1.2-3.8,3.7-7.5,7.6-11c3.8-3.4,8.8-5.1,15-5.1c6.8,0,12.3,2.1,16.7,6.2c4.3,4.1,6.6,9.1,6.6,14.9c0,7.1-3.9,14.8-11.6,22.9
		l-21.4,21.5h34L795,490.9L795,490.9z"/>
	<path id="XMLID_48_" class="st13" d="M851.4,481.6c-5.4,7.3-12.5,11.1-21.3,11.1s-15.9-3.7-21.3-11.1c-5.4-7.3-8.1-16.4-8.1-27.3
		c0-11,2.7-20.1,8.1-27.3c5.4-7.3,12.5-11,21.3-11s15.9,3.6,21.3,11c5.4,7.3,8.1,16.4,8.1,27.3S856.8,474.2,851.4,481.6z M830,483.2
		c5.9,0,10.6-2.7,14.1-8.2c3.5-5.5,5.3-12.3,5.3-20.7s-1.8-15.3-5.3-20.7c-3.5-5.5-8.2-8.2-14.1-8.2c-6,0-10.7,2.7-14.1,8.2
		c-3.5,5.5-5.3,12.3-5.3,20.7c0,8.3,1.8,15.2,5.3,20.7C819.5,480.5,824.2,483.2,830,483.2z"/>
	<path id="XMLID_51_" class="st13" d="M890.7,490.9h-9.9v-61l-14.2,6.2l-3.7-8.3l21.5-10.1h6.4L890.7,490.9L890.7,490.9L890.7,490.9
		z"/>
	<path id="XMLID_53_" class="st13" d="M928.1,444.1c5.7,0,11,2.3,15.8,7c4.8,4.7,7.1,10.4,7.1,16.9c0,6.5-2.4,12.2-7.4,17.1
		c-5,4.9-10.9,7.3-17.6,7.3c-7.2,0-13.3-2.4-18-7.4c-4.8-5-7.1-10.7-7.1-17c0-6.8,2.8-14.4,8.6-22.7l19.9-29.5l7.9,5.5l-17.4,24.2
		l0.2,0.2C921.7,444.7,924.4,444.1,928.1,444.1L928.1,444.1z M925.9,483.1c4.1,0,7.7-1.5,10.7-4.3c2.9-2.8,4.4-6.4,4.4-10.6
		c0-4.1-1.5-7.6-4.4-10.6c-2.9-2.9-6.6-4.3-10.7-4.3c-4.1,0-7.7,1.5-10.7,4.3c-3,2.9-4.5,6.4-4.5,10.6c0,4.2,1.5,7.7,4.4,10.6
		C918.1,481.7,921.7,483.1,925.9,483.1z"/>
	<g>
		<path class="st13" d="M285.5,488.6h-45V409h45v11h-32v21.6h30v10.9h-30v25h32V488.6z"/>
		<path class="st13" d="M341.8,471.4c0,5.9-2.1,10.4-6.4,13.5c-4.3,3.1-10.4,4.7-18.4,4.7c-8,0-14.5-1.2-19.3-3.6v-11
			c7.1,3.3,13.7,4.9,19.7,4.9c7.9,0,11.8-2.4,11.8-7.1c0-1.5-0.4-2.8-1.3-3.8c-0.9-1-2.3-2.1-4.3-3.2c-2-1.1-4.8-2.3-8.3-3.7
			c-6.9-2.7-11.6-5.4-14.1-8.1s-3.7-6.2-3.7-10.4c0-5.1,2.1-9.1,6.2-12s9.8-4.3,16.9-4.3c7.1,0,13.8,1.4,20.1,4.3l-4.1,9.6
			c-6.5-2.7-11.9-4-16.4-4c-6.7,0-10.1,1.9-10.1,5.8c0,1.9,0.9,3.5,2.6,4.8c1.8,1.3,5.6,3.1,11.5,5.4c5,1.9,8.6,3.7,10.8,5.3
			c2.2,1.6,3.9,3.4,5,5.5S341.8,468.5,341.8,471.4z"/>
		<path class="st13" d="M367.9,456.8l7.2-9l18.2-19.4h14.7l-24.2,25.8l25.7,34.3h-15l-19.3-26.4l-7,5.8v20.6h-12.7v-84.6h12.7v41.3
			l-0.7,11.6H367.9z"/>
		<path class="st13" d="M418.5,412.5c0-2.3,0.6-4,1.9-5.3s3-1.8,5.4-1.8c2.2,0,4,0.6,5.2,1.8c1.3,1.2,1.9,3,1.9,5.3
			c0,2.2-0.6,3.9-1.9,5.1c-1.3,1.3-3,1.9-5.2,1.9c-2.3,0-4.1-0.6-5.4-1.9C419.2,416.4,418.5,414.6,418.5,412.5z M432.1,488.6h-12.8
			v-60.2h12.8V488.6z"/>
		<path class="st13" d="M490.8,471.4c0,5.9-2.1,10.4-6.4,13.5c-4.3,3.1-10.4,4.7-18.4,4.7c-8,0-14.5-1.2-19.3-3.6v-11
			c7.1,3.3,13.7,4.9,19.7,4.9c7.9,0,11.8-2.4,11.8-7.1c0-1.5-0.4-2.8-1.3-3.8c-0.9-1-2.3-2.1-4.3-3.2c-2-1.1-4.8-2.3-8.3-3.7
			c-6.9-2.7-11.6-5.4-14.1-8.1c-2.4-2.7-3.7-6.2-3.7-10.4c0-5.1,2.1-9.1,6.2-12s9.8-4.3,16.9-4.3c7.1,0,13.8,1.4,20.1,4.3l-4.1,9.6
			c-6.5-2.7-11.9-4-16.4-4c-6.7,0-10.1,1.9-10.1,5.8c0,1.9,0.9,3.5,2.6,4.8c1.8,1.3,5.6,3.1,11.5,5.4c5,1.9,8.6,3.7,10.8,5.3
			s3.9,3.4,5,5.5C490.2,466,490.8,468.5,490.8,471.4z"/>
		<path class="st13" d="M530.9,489.7c-9.4,0-16.7-2.7-21.9-8.2c-5.3-5.5-7.9-13-7.9-22.5c0-9.8,2.4-17.6,7.3-23.2s11.6-8.4,20.2-8.4
			c7.9,0,14.2,2.4,18.8,7.2c4.6,4.8,6.9,11.5,6.9,19.9v6.9h-40.1c0.2,5.8,1.8,10.3,4.7,13.5s7.2,4.7,12.6,4.7c3.6,0,6.9-0.3,9.9-1
			s6.4-1.8,9.9-3.3v10.4c-3.1,1.5-6.3,2.5-9.5,3.2C538.6,489.3,535,489.7,530.9,489.7z M528.5,437c-4.1,0-7.3,1.3-9.8,3.9
			c-2.4,2.6-3.9,6.3-4.4,11.3h27.3c-0.1-5-1.3-8.7-3.6-11.3C535.8,438.3,532.6,437,528.5,437z"/>
		<path class="st13" d="M621.7,488.6h-12.8v-37c0-4.6-0.9-8.1-2.8-10.4s-4.8-3.4-8.9-3.4c-5.4,0-9.3,1.6-11.8,4.8
			c-2.5,3.2-3.8,8.6-3.8,16.1v29.9h-12.8v-84.6h12.8v21.5c0,3.4-0.2,7.1-0.7,11h0.8c1.7-2.9,4.2-5.1,7.3-6.7
			c3.1-1.6,6.7-2.4,10.9-2.4c14.6,0,21.9,7.3,21.9,22V488.6z"/>
		<path class="st13" d="M638.7,412.5c0-2.3,0.6-4,1.9-5.3c1.3-1.2,3-1.8,5.4-1.8c2.2,0,4,0.6,5.2,1.8c1.3,1.2,1.9,3,1.9,5.3
			c0,2.2-0.6,3.9-1.9,5.1c-1.3,1.3-3,1.9-5.2,1.9c-2.3,0-4.1-0.6-5.4-1.9C639.3,416.4,638.7,414.6,638.7,412.5z M652.3,488.6h-12.8
			v-60.2h12.8V488.6z"/>
		<path class="st13" d="M701.1,427.3c2.6,0,4.7,0.2,6.4,0.5l-1.3,11.9c-1.8-0.4-3.7-0.7-5.7-0.7c-5.1,0-9.3,1.7-12.4,5
			s-4.8,7.7-4.8,13v31.4h-12.8v-60.2h10l1.7,10.6h0.7c2-3.6,4.6-6.4,7.8-8.5C693.9,428.4,697.4,427.3,701.1,427.3z"/>
	</g>
</g>
</svg>
