<?xml version="1.0" encoding="utf-8"?>
<!-- Generator: Adobe Illustrator 19.0.0, SVG Export Plug-In . SVG Version: 6.00 Build 0)  -->
<svg version="1.1" id="Layer_4" xmlns="http://www.w3.org/2000/svg" xmlns:xlink="http://www.w3.org/1999/xlink" x="0px" y="0px"
	 viewBox="-211 217 680 128" style="enable-background:new -211 217 680 128;" xml:space="preserve">
<style type="text/css">
	.st0{fill:none;}
	.st1{fill:#FFC107;}
	.st2{fill:#0F9D58;}
	.st3{opacity:0.2;fill:#BF360C;enable-background:new    ;}
	.st4{opacity:0.2;fill:#263238;enable-background:new    ;}
	.st5{opacity:0.2;fill:#FFFFFF;enable-background:new    ;}
	.st6{fill:url(#XMLID_3_);}
	.st7{fill:url(#XMLID_4_);}
	.st8{fill:#4285F4;}
	.st9{fill:#DB4437;}
	.st10{opacity:0.2;fill:#1A237E;enable-background:new    ;}
	.st11{opacity:0.2;fill:#3E2723;enable-background:new    ;}
	.st12{fill:url(#XMLID_5_);}
	.st13{fill:#FFFFFF;}
</style>
<g id="XMLID_60_">
	<g id="XMLID_61_">
		<g id="XMLID_62_">
			<path id="XMLID_106_" class="st0" d="M-132.6,275l-33.6-58H-211l37,64l-37,64h44.8l33.5-58C-130.5,283.3-130.5,278.7-132.6,275z"
				/>
			<path id="XMLID_105_" class="st1" d="M-151.8,319.3l-10.7-18.4L-188,345h21.8l14.6-25.2L-151.8,319.3z"/>
			<path id="XMLID_104_" class="st0" d="M-132.6,275l-33.6-58H-211l37,64l-37,64h44.8l33.5-58C-130.5,283.3-130.5,278.7-132.6,275z"
				/>
			<path id="XMLID_103_" class="st2" d="M-174,281l11.5,19.9L-188,345h-23L-174,281z"/>
			<path id="XMLID_102_" class="st0" d="M-132.6,275l-33.6-58H-211l37,64l-37,64h44.8l33.5-58C-130.5,283.3-130.5,278.7-132.6,275z"
				/>
			<path id="XMLID_101_" class="st3" d="M-166.2,344h-21.2l-0.6,1h21.8l14.6-25.2l-0.2-0.5L-166.2,344z"/>
			<path id="XMLID_100_" class="st0" d="M-132.6,275l-33.6-58H-211l37,64l-37,64h44.8l33.5-58C-130.5,283.3-130.5,278.7-132.6,275z"
				/>
			<path id="XMLID_99_" class="st4" d="M-210.4,344l-0.6,1h23l0.6-1H-210.4z"/>
			<path id="XMLID_98_" class="st0" d="M-132.6,275l-33.6-58H-211l37,64l-37,64h44.8l33.5-58C-130.5,283.3-130.5,278.7-132.6,275z"
				/>
			<path id="XMLID_96_" class="st5" d="M-211,345h0.6l36.7-63.5l-0.3-0.5L-211,345z"/>
			<path id="XMLID_94_" class="st0" d="M-132.6,275l-33.6-58H-211l37,64l-37,64h44.8l33.5-58C-130.5,283.3-130.5,278.7-132.6,275z"
				/>
			
				<radialGradient id="XMLID_3_" cx="-151.723" cy="-1916.0859" r="44.264" gradientTransform="matrix(1 0 0 1 0 2235.46)" gradientUnits="userSpaceOnUse">
				<stop  offset="0" style="stop-color:#BF360C;stop-opacity:0.2"/>
				<stop  offset="1" style="stop-color:#BF360C;stop-opacity:2.000000e-002"/>
			</radialGradient>
			<path id="XMLID_92_" class="st6" d="M-151.6,319.8l-10.9-18.9l-2.7,4.6L-151.6,319.8z"/>
			<path id="XMLID_90_" class="st0" d="M-132.6,275l-33.6-58H-211l37,64l-37,64h44.8l33.5-58C-130.5,283.3-130.5,278.7-132.6,275z"
				/>
			
				<radialGradient id="XMLID_4_" cx="-151.849" cy="-1915.8059" r="44.623" gradientTransform="matrix(1 0 0 1 0 2235.46)" gradientUnits="userSpaceOnUse">
				<stop  offset="0" style="stop-color:#263238;stop-opacity:0.2"/>
				<stop  offset="1" style="stop-color:#263238;stop-opacity:2.000000e-002"/>
			</radialGradient>
			<path id="XMLID_89_" class="st7" d="M-165.2,305.5l2.7-4.6L-174,281l-5.5,9.5L-165.2,305.5z"/>
			<path id="XMLID_88_" class="st0" d="M-132.6,275l-33.6-58H-211l37,64l-37,64h44.8l33.5-58C-130.5,283.3-130.5,278.7-132.6,275z"
				/>
			<g id="XMLID_85_">
				<g id="XMLID_86_">
					<path id="XMLID_87_" class="st8" d="M-188,217h-23l59.4,102.8l11.5-19.9L-188,217z"/>
				</g>
			</g>
			<path id="XMLID_84_" class="st0" d="M-132.6,275l-33.6-58H-211l37,64l-37,64h44.8l33.5-58C-130.5,283.3-130.5,278.7-132.6,275z"
				/>
			<path id="XMLID_83_" class="st9" d="M-132.6,287c2.1-3.7,2.1-8.3,0-12l-33.6-58H-188l47.9,82.9L-132.6,287z"/>
			<path id="XMLID_82_" class="st0" d="M-132.6,275l-33.6-58H-211l37,64l-37,64h44.8l33.5-58C-130.5,283.3-130.5,278.7-132.6,275z"
				/>
			<path id="XMLID_71_" class="st10" d="M-140.1,299.9l-0.2-0.5l-11.3,19.4L-210.4,217h-0.6l59.4,102.8L-140.1,299.9z"/>
			<path id="XMLID_69_" class="st0" d="M-132.6,275l-33.6-58H-211l37,64l-37,64h44.8l33.5-58C-130.5,283.3-130.5,278.7-132.6,275z"
				/>
			<path id="XMLID_67_" class="st5" d="M-166.2,218l33.5,58c1,1.7,1.5,3.6,1.6,5.5c0.1-2.2-0.4-4.5-1.6-6.5l-33.5-58H-211l0.6,1
				H-166.2z"/>
			<path id="XMLID_66_" class="st0" d="M-132.6,275l-33.6-58H-211l37,64l-37,64h44.8l33.5-58C-130.5,283.3-130.5,278.7-132.6,275z"
				/>
			<path id="XMLID_65_" class="st11" d="M-140.1,299.9l7.5-12.9c1.2-2,1.7-4.3,1.6-6.5c-0.1,1.9-0.6,3.8-1.6,5.5l-7.7,13.4
				L-140.1,299.9z"/>
			<path id="XMLID_64_" class="st0" d="M-132.6,275l-33.6-58H-211l37,64l-37,64h44.8l33.5-58C-130.5,283.3-130.5,278.7-132.6,275z"
				/>
			
				<radialGradient id="XMLID_5_" cx="-212" cy="-2017.46" r="134.35" gradientTransform="matrix(1 0 0 1 0 2235.46)" gradientUnits="userSpaceOnUse">
				<stop  offset="0" style="stop-color:#FFFFFF;stop-opacity:0.1"/>
				<stop  offset="1" style="stop-color:#FFFFFF;stop-opacity:0"/>
			</radialGradient>
			<path id="XMLID_63_" class="st12" d="M-132.6,275l-33.6-58H-211l37,64l-37,64h44.8l33.5-58C-130.5,283.3-130.5,278.7-132.6,275z"
				/>
		</g>
	</g>
</g>
<path id="XMLID_1_" class="st13" d="M-34.6,250.1c0,7-2,12.6-6.2,16.7c-4.7,4.9-10.9,7.4-18.4,7.4c-7.2,0-13.4-2.5-18.4-7.5
	c-5.1-5-7.6-11.3-7.6-18.6c0-7.4,2.6-13.6,7.6-18.6c5.1-5,11.2-7.5,18.4-7.5c3.6,0,7,0.7,10.3,2.1c3.3,1.4,5.9,3.3,7.8,5.6l-4.4,4.4
	c-3.3-4-7.9-5.9-13.7-5.9c-5.2,0-9.9,1.9-13.7,5.6s-5.8,8.5-5.8,14.5s1.9,10.7,5.8,14.5c3.8,3.7,8.4,5.6,13.7,5.6
	c5.6,0,10.2-1.9,14-5.6c2.4-2.4,3.8-5.8,4.2-10.2h-18.2v-6H-35C-34.8,247.7-34.6,248.9-34.6,250.1L-34.6,250.1z M-28.3,273.1v-50.1
	h15.4c7.7,0,13.9,2.3,18.5,7c4.6,4.7,6.9,10.7,6.9,18.1s-2.3,13.4-6.9,18.1s-10.7,7-18.5,7L-28.3,273.1z M-21.8,267h8.9
	c5.8,0,10.4-1.7,13.8-5c3.4-3.3,5.1-7.9,5.1-13.9c0-5.9-1.7-10.6-5.1-13.9c-3.4-3.3-8-5-13.8-5h-8.9V267z M67.1,250.1
	c0,7-2,12.6-6.2,16.7c-4.7,4.9-10.9,7.4-18.4,7.4c-7.2,0-13.4-2.5-18.4-7.5c-5.1-5-7.6-11.3-7.6-18.6c0-7.4,2.6-13.6,7.6-18.6
	c5.1-5,11.2-7.5,18.4-7.5c3.6,0,7,0.7,10.3,2.1c3.3,1.4,5.9,3.3,7.8,5.6l-4.4,4.4c-3.3-4-7.9-5.9-13.7-5.9c-5.2,0-9.9,1.9-13.7,5.6
	s-5.8,8.5-5.8,14.5s1.9,10.7,5.8,14.5c3.8,3.7,8.4,5.6,13.7,5.6c5.6,0,10.2-1.9,14-5.6c2.4-2.4,3.8-5.8,4.2-10.2H42.5v-6h24.3
	C67,247.7,67.1,248.9,67.1,250.1L67.1,250.1z M90.3,273.1v-50.1h15.4c7.7,0,13.9,2.3,18.5,7c4.6,4.7,6.9,10.7,6.9,18.1
	s-2.3,13.4-6.9,18.1c-4.6,4.7-10.7,7-18.5,7L90.3,273.1L90.3,273.1z M96.8,267h8.9c5.8,0,10.4-1.7,13.8-5c3.4-3.3,5.1-7.9,5.1-13.9
	c0-5.9-1.7-10.6-5.1-13.9c-3.4-3.3-8-5-13.8-5h-8.9V267z M152.1,274.3c-5.2,0-9.4-1.7-12.6-5.2c-3.3-3.5-4.9-7.8-4.9-13.1
	c0-5,1.6-9.3,4.7-12.9s7.2-5.4,12.1-5.4c5.1,0,9.1,1.7,12.2,5c3.1,3.3,4.6,7.7,4.6,13.3l-0.1,1.2h-27.1c0.2,3.5,1.3,6.2,3.5,8.2
	c2.1,2,4.6,3,7.4,3c4.6,0,7.7-2,9.4-5.9l5.8,2.4c-1.2,2.7-2.9,4.9-5.5,6.7C159,273.4,155.9,274.3,152.1,274.3L152.1,274.3z
	 M161.4,251.9c-0.1-2-1-3.8-2.7-5.6s-4.1-2.7-7.4-2.7c-2.4,0-4.4,0.8-6.2,2.2c-1.7,1.5-2.9,3.5-3.6,6L161.4,251.9z M181.7,273.1
	l-13.9-34.3h7l10.1,26.6h0.1l10.2-26.6h6.8l-14,34.3H181.7z M212.4,273.1h-6.5v-50.1h29.2v6.1h-22.8v16.4h20.6v6h-20.6L212.4,273.1z
	 M254.7,274.3c-5.2,0-9.4-1.7-12.6-5.2c-3.3-3.5-4.9-7.8-4.9-13.1c0-5,1.6-9.3,4.7-12.9s7.2-5.4,12.1-5.4c5.1,0,9.1,1.7,12.2,5
	c3.1,3.3,4.6,7.7,4.6,13.3l-0.1,1.2h-27.1c0.2,3.5,1.3,6.2,3.5,8.2c2.1,2,4.6,3,7.4,3c4.6,0,7.7-2,9.4-5.9l5.8,2.4
	c-1.2,2.7-2.9,4.9-5.5,6.7C261.5,273.4,258.4,274.3,254.7,274.3L254.7,274.3z M263.9,251.9c-0.1-2-1-3.8-2.7-5.6
	c-1.7-1.8-4.1-2.7-7.4-2.7c-2.4,0-4.4,0.8-6.2,2.2c-1.7,1.5-2.9,3.5-3.6,6L263.9,251.9z M287.8,274.3c-3.8,0-7-1-9.5-2.8
	c-2.5-1.9-4.4-4.2-5.5-7l5.8-2.4c1.8,4.3,4.9,6.5,9.3,6.5c2,0,3.6-0.4,4.9-1.3c1.3-0.9,1.9-2,1.9-3.5c0-2.2-1.5-3.8-4.7-4.5
	l-6.9-1.7c-2.2-0.6-4.3-1.6-6.2-3.2c-2-1.5-2.9-3.6-2.9-6.3c0-3,1.3-5.5,4-7.4c2.7-1.9,5.9-2.8,9.5-2.8c3,0,5.8,0.7,8.1,2
	c2.4,1.4,4.1,3.3,5.1,5.9l-5.6,2.3c-1.3-3-3.9-4.5-7.8-4.5c-1.9,0-3.5,0.4-4.8,1.2c-1.3,0.8-2,1.9-2,3.2c0,2,1.5,3.3,4.5,4l6.8,1.6
	c3.2,0.8,5.6,2,7.2,3.8c1.5,1.8,2.3,3.9,2.3,6.1c0,3.1-1.3,5.6-3.8,7.7C295,273.3,291.8,274.3,287.8,274.3L287.8,274.3z
	 M320.7,273.7c-3.6,0-6.3-1-8.3-2.9s-2.8-4.6-2.8-8.1v-18h-6v-5.9h6v-10.5h6.5v10.5h8.4v5.9h-8.4v17.5c0,3.7,1.5,5.6,4.6,5.6
	c1.2,0,2.2-0.2,2.9-0.6l2.2,5.5C324.4,273.4,322.7,273.7,320.7,273.7L320.7,273.7z M369.9,339.1h-30.5v-6.5c9.1-9.2,15-15.2,17.6-18
	c2.3-2.6,3.8-4.5,4.6-5.8c0.8-1.3,1.2-2.9,1.2-4.9s-0.8-3.8-2.4-5.3c-1.6-1.5-3.7-2.3-6.4-2.3c-2.4,0-4.4,0.7-5.9,2.1
	s-2.4,2.9-2.9,4.6l-5.9-2.4c0.8-2.5,2.4-4.9,5-7.2c2.5-2.2,5.8-3.3,9.8-3.3c4.4,0,8.1,1.3,10.9,4c2.8,2.7,4.3,5.9,4.3,9.7
	c0,4.7-2.6,9.7-7.6,15l-14,14.1h22.2L369.9,339.1L369.9,339.1z M406.7,333c-3.5,4.8-8.2,7.2-13.9,7.2s-10.4-2.4-13.9-7.2
	c-3.5-4.8-5.3-10.7-5.3-17.8c0-7.2,1.8-13.1,5.3-17.8c3.5-4.8,8.2-7.2,13.9-7.2s10.4,2.4,13.9,7.2c3.5,4.8,5.3,10.7,5.3,17.8
	C412,322.3,410.2,328.2,406.7,333z M392.8,334.1c3.8,0,6.9-1.8,9.2-5.4c2.3-3.6,3.5-8.1,3.5-13.5s-1.2-10-3.5-13.6
	c-2.3-3.6-5.4-5.4-9.2-5.4c-3.9,0-7,1.8-9.2,5.4c-2.3,3.6-3.5,8.1-3.5,13.6c0,5.4,1.2,9.9,3.5,13.5S388.9,334.1,392.8,334.1z
	 M432.4,339.1H426v-39.9l-9.3,4l-2.4-5.4l14.1-6.6h4.2L432.4,339.1L432.4,339.1L432.4,339.1z M445.7,340.3l-5.8-2.9l22.2-39.9H438
	l0.1-6.1H469v6.6L445.7,340.3L445.7,340.3z M-59.4,340.1c-7.4,0-13.6-2.5-18.6-7.4c-4.9-5-7.4-11.2-7.4-18.6s2.4-13.6,7.4-18.6
	c4.9-5,11.1-7.5,18.6-7.5c7.5,0,13.6,2.7,18.3,8.1l-4.6,4.5c-3.6-4.4-8.1-6.5-13.7-6.5c-5.5,0-10.2,1.9-13.9,5.6
	c-3.6,3.6-5.5,8.4-5.5,14.3c0,5.9,1.9,10.7,5.5,14.3c3.7,3.7,8.3,5.6,13.9,5.6c5.8,0,10.8-2.4,15.1-7.3l4.7,4.5
	c-2.4,2.8-5.2,5.1-8.7,6.6C-51.8,339.4-55.4,340.1-59.4,340.1z M-36.6,322c0-5.2,1.7-9.6,4.9-13.1c3.3-3.5,7.5-5.2,12.6-5.2
	s9.2,1.7,12.5,5.2c3.3,3.5,5,7.8,5,13.1c0,5.3-1.7,9.7-5,13.1c-3.3,3.5-7.5,5.2-12.5,5.2c-5.1,0-9.3-1.7-12.6-5.2
	C-34.9,331.5-36.6,327.2-36.6,322z M-30.2,322c0,3.6,1.1,6.7,3.2,8.9c2.1,2.3,4.8,3.4,7.9,3.4s5.8-1.2,7.9-3.4
	c2.1-2.3,3.2-5.2,3.2-8.9s-1.1-6.6-3.2-8.8c-2.2-2.3-4.8-3.5-7.9-3.5s-5.8,1.2-7.9,3.5C-29.1,315.4-30.2,318.3-30.2,322z M20,340.1
	c-5.1,0-9.3-1.7-12.6-5.2c-3.3-3.5-4.9-7.9-4.9-13.1c0-5.2,1.7-9.6,4.9-13.1c3.3-3.5,7.5-5.2,12.6-5.2c3.5,0,6.5,0.9,9.1,2.6
	c2.6,1.7,4.5,4.2,5.8,7.2l-5.8,2.4c-1.8-4.3-5-6.4-9.5-6.4c-2.9,0-5.4,1.2-7.6,3.6c-2.1,2.4-3.1,5.3-3.1,8.8c0,3.5,1,6.4,3.1,8.8
	c2.1,2.4,4.7,3.6,7.6,3.6c4.7,0,8-2.1,9.9-6.4l5.7,2.4c-1.3,3.1-3.2,5.4-5.9,7.2C26.7,339.3,23.5,340.1,20,340.1z M40.8,289.1h6.4
	v15.7l-0.3,4.7h0.3c1-1.7,2.5-3.1,4.5-4.2c2-1.1,4.1-1.7,6.3-1.7c4.2,0,7.4,1.2,9.7,3.6s3.4,5.8,3.4,10.2V339h-6.4v-20.2
	c0-6.1-2.7-9.2-8.1-9.2c-2.6,0-4.8,1.1-6.6,3.3c-1.8,2.2-2.7,4.7-2.7,7.5V339h-6.4L40.8,289.1L40.8,289.1z M91.1,303.8
	c4.7,0,8.4,1.3,11.2,3.8c2.8,2.6,4.1,6,4.1,10.4v21h-6.1v-4.7H100c-2.6,3.9-6.2,5.8-10.6,5.8c-3.8,0-6.9-1.1-9.5-3.3
	c-2.6-2.2-3.8-5-3.8-8.4c0-3.5,1.3-6.3,4-8.4c2.7-2.1,6.2-3.1,10.7-3.1c3.8,0,6.9,0.7,9.4,2.1v-1.5c0-2.2-0.9-4.1-2.6-5.7
	c-1.8-1.5-3.8-2.3-6.2-2.3c-3.6,0-6.4,1.5-8.5,4.5l-5.6-3.6C80.5,306,85.1,303.8,91.1,303.8z M82.8,328.5c0,1.7,0.7,3.1,2.1,4.2
	c1.4,1.1,3.1,1.7,5,1.7c2.7,0,5.1-1,7.2-3c2.1-2,3.2-4.4,3.2-7c-2-1.6-4.8-2.4-8.4-2.4c-2.6,0-4.8,0.6-6.5,1.9
	C83.7,325.2,82.8,326.7,82.8,328.5z M131.7,340.1c-2.5,0-4.8-0.5-6.8-1.6c-2-1.1-3.6-2.5-4.8-4.2h-0.3v4.7h-6.1v-49.9h6.4v15.7
	l-0.3,4.7h0.3c1.1-1.8,2.7-3.2,4.8-4.2c2-1.1,4.4-1.6,6.8-1.6c4.5,0,8.3,1.8,11.5,5.3c3.2,3.6,4.8,7.9,4.8,12.9
	c0,5.1-1.6,9.3-4.8,12.9C140,338.4,136.2,340.1,131.7,340.1z M130.7,334.3c3.1,0,5.6-1.2,7.7-3.5c2.1-2.3,3.1-5.2,3.1-8.8
	s-1-6.5-3.1-8.8c-2.1-2.3-4.7-3.5-7.7-3.5c-3.1,0-5.7,1.2-7.8,3.5c-2,2.3-3.1,5.2-3.1,8.8c0,3.6,1,6.6,3.1,8.9
	C125,333.1,127.5,334.3,130.7,334.3z M166.8,303.8c4.7,0,8.4,1.3,11.2,3.8c2.8,2.6,4.1,6,4.1,10.4v21h-6.1v-4.7h-0.3
	c-2.6,3.9-6.2,5.8-10.6,5.8c-3.8,0-6.9-1.1-9.5-3.3c-2.6-2.2-3.8-5-3.8-8.4c0-3.5,1.3-6.3,4-8.4c2.7-2.1,6.2-3.1,10.7-3.1
	c3.8,0,6.9,0.7,9.4,2.1v-1.5c0-2.2-0.9-4.1-2.6-5.7c-1.8-1.5-3.8-2.3-6.2-2.3c-3.6,0-6.4,1.5-8.5,4.5l-5.6-3.6
	C156.1,306,160.7,303.8,166.8,303.8z M158.4,328.5c0,1.7,0.7,3.1,2.1,4.2c1.4,1.1,3.1,1.7,5,1.7c2.7,0,5.1-1,7.2-3
	c2.1-2,3.2-4.4,3.2-7c-2-1.6-4.8-2.4-8.4-2.4c-2.6,0-4.8,0.6-6.5,1.9C159.3,325.2,158.4,326.7,158.4,328.5z M195.7,339h-6.4v-34.1
	h6.1v4.7h0.3c1-1.7,2.5-3.1,4.5-4.2c2-1.1,4-1.7,6-1.7c2.5,0,4.7,0.6,6.6,1.7c1.9,1.2,3.3,2.8,4.2,4.8c2.8-4.4,6.8-6.5,11.8-6.5
	c4,0,7,1.2,9.1,3.6c2.1,2.4,3.2,5.8,3.2,10.3v21.3h-6.4v-20.4c0-3.2-0.6-5.5-1.7-6.9c-1.2-1.4-3.1-2.1-5.8-2.1c-2.4,0-4.5,1-6.2,3.1
	c-1.7,2.1-2.5,4.5-2.5,7.4V339H212v-20.3c0-3.2-0.6-5.5-1.7-6.9c-1.2-1.4-3.1-2.1-5.8-2.1c-2.4,0-4.5,1-6.2,3.1
	c-1.7,2.1-2.5,4.5-2.5,7.4L195.7,339L195.7,339z M266.7,340.1c-2.5,0-4.8-0.5-6.8-1.6s-3.6-2.5-4.8-4.2h-0.3v4.7h-6.1v-49.9h6.4
	v15.7l-0.3,4.7h0.3c1.1-1.8,2.7-3.2,4.8-4.2c2-1.1,4.4-1.6,6.8-1.6c4.5,0,8.3,1.8,11.5,5.3c3.2,3.6,4.8,7.9,4.8,12.9
	c0,5.1-1.6,9.3-4.8,12.9C275,338.4,271.2,340.1,266.7,340.1z M265.7,334.3c3.1,0,5.6-1.2,7.7-3.5c2.1-2.3,3.1-5.2,3.1-8.8
	s-1-6.5-3.1-8.8c-2.1-2.3-4.7-3.5-7.7-3.5c-3.1,0-5.7,1.2-7.8,3.5c-2,2.3-3.1,5.2-3.1,8.8c0,3.6,1,6.6,3.1,8.9
	C260,333.1,262.5,334.3,265.7,334.3z M301.7,303.8c4.7,0,8.4,1.3,11.2,3.8c2.8,2.6,4.1,6,4.1,10.4v21h-6.1v-4.7h-0.3
	c-2.6,3.9-6.2,5.8-10.6,5.8c-3.8,0-6.9-1.1-9.5-3.3c-2.6-2.2-3.8-5-3.8-8.4c0-3.5,1.3-6.3,4-8.4s6.2-3.1,10.7-3.1
	c3.8,0,6.9,0.7,9.4,2.1v-1.5c0-2.2-0.9-4.1-2.6-5.7c-1.8-1.5-3.8-2.3-6.2-2.3c-3.6,0-6.4,1.5-8.5,4.5l-5.6-3.6
	C291.1,306,295.7,303.8,301.7,303.8z M293.4,328.5c0,1.7,0.7,3.1,2.1,4.2c1.4,1.1,3.1,1.7,5,1.7c2.7,0,5.1-1,7.2-3
	c2.1-2,3.2-4.4,3.2-7c-2-1.6-4.8-2.4-8.4-2.4c-2.6,0-4.8,0.6-6.5,1.9C294.3,325.2,293.4,326.7,293.4,328.5z"/>
</svg>
