<svg id="Layer_1" xmlns="http://www.w3.org/2000/svg" viewBox="0 0 1163.6 296.4"><style>.st0{fill:#FFFFFF;}</style><g id="XMLID_1_"><path class="st0" d="M406.8 77.1c0 16.3-4.8 29.2-14.5 38.9-11 11.5-25.2 17.2-42.8 17.2-16.8 0-31.1-5.8-42.9-17.5-11.7-11.6-17.6-26-17.6-43.3s5.9-31.7 17.7-43.4c11.8-11.7 26.1-17.5 42.9-17.5 8.4 0 16.3 1.6 23.9 4.9 7.6 3.3 13.7 7.6 18.2 13l-10.3 10.3c-7.7-9.2-18.3-13.8-31.9-13.8-12.3 0-22.9 4.3-31.8 12.9-9 8.6-13.4 19.8-13.4 33.6s4.5 25 13.4 33.6c9 8.6 19.6 12.9 31.8 12.9 13 0 23.9-4.3 32.5-13 5.6-5.6 8.9-13.5 9.8-23.6h-42.3v-14H406c.6 3.1.8 6 .8 8.8zM421.6 130.7V14.2h35.6c17.9 0 32.2 5.4 43 16.2 10.7 10.8 16.1 24.8 16.1 42.1s-5.4 31.3-16.1 42.1c-10.7 10.8-25.1 16.2-43 16.2h-35.6zm15-14.4h20.7c13.5 0 24.1-3.8 32-11.6 7.9-7.7 11.8-18.5 11.8-32.4 0-13.8-3.9-24.5-11.8-32.3-7.9-7.8-18.5-11.6-32-11.6h-20.7v87.9zM643.3 77.1c0 16.3-4.8 29.2-14.5 38.9-11 11.5-25.2 17.2-42.8 17.2-16.8 0-31.1-5.8-42.9-17.5-11.8-11.7-17.7-26.1-17.7-43.4s5.9-31.7 17.7-43.4c11.8-11.7 26.1-17.5 42.9-17.5 8.4 0 16.3 1.6 23.9 4.9 7.6 3.3 13.7 7.6 18.2 13L618 39.7c-7.7-9.2-18.3-13.8-31.9-13.8-12.3 0-22.9 4.3-31.8 12.9-9 8.6-13.4 19.8-13.4 33.6s4.5 25 13.4 33.6c9 8.6 19.6 12.9 31.8 12.9 13 0 23.9-4.3 32.5-13 5.6-5.6 8.9-13.5 9.8-23.6h-42.3v-14h56.5c.5 3.1.7 6 .7 8.8zM752.2 133.3c-17.1 0-31.5-5.8-43.1-17.4-11.6-11.6-17.4-26.1-17.4-43.4 0-17.4 5.8-31.8 17.4-43.4 11.6-11.6 26-17.4 43.1-17.4 17.6 0 31.8 6.3 42.8 19l-10.4 10.1c-7.9-9.9-18.7-14.8-32.4-14.8-12.7 0-23.4 4.3-32.1 12.9-8.7 8.6-13.1 19.8-13.1 33.7 0 13.9 4.4 25.1 13.1 33.7 8.7 8.6 19.4 12.9 32.1 12.9 14 0 25.9-5.6 35.8-16.9l10.4 10.4c-5.3 6.4-12 11.5-20 15.2-8 3.5-16.8 5.4-26.2 5.4zM878 28.5h-53v36.9h47.8v14H825v36.9h53v14.3h-68V14.2h68v14.3zM962 28.5h-53v36.9h47.8v14H909v36.9h53v14.3h-68V14.2h68v14.3zM327.6 286.7c-8.5 0-16.7-2.8-24.8-8.3-8.1-5.5-13.4-13.3-15.9-23.3l13.7-5.5c1.6 6.4 5 11.8 10 16.2s10.7 6.6 17 6.6c6.5 0 12.1-1.7 16.7-5.1 4.6-3.4 6.9-8.1 6.9-13.9 0-6.5-2.3-11.5-6.9-15.1-4.6-3.5-11.9-6.8-21.9-9.8-10.3-3.3-18.1-7.5-23.4-12.6-5.3-5.2-8-11.7-8-19.8 0-8.4 3.3-15.6 9.9-21.8 6.6-6.2 15.2-9.3 25.9-9.3 9.9 0 17.9 2.5 24.1 7.4 6.2 4.9 10.2 10.3 12 16.2l-13.7 5.7c-1-3.7-3.4-7.1-7.2-10.3-3.9-3.1-8.8-4.7-14.9-4.7-5.8 0-10.7 1.6-14.7 4.8-4.1 3.2-6.1 7.2-6.1 12 0 4.3 1.9 8 5.6 11 3.7 3 9.2 5.7 16.5 8.1 5.7 1.8 10.5 3.6 14.4 5.4 3.8 1.7 7.8 4 11.7 6.9 4 2.9 6.9 6.5 9 10.7 2 4.3 3 9.2 3 14.9 0 5.6-1.2 10.7-3.5 15.1-2.3 4.5-5.4 8-9.3 10.6-3.9 2.6-8 4.6-12.4 5.9-4.5 1.3-9 2-13.7 2zM449.3 284.1H435V273h-.7c-2.3 3.8-5.8 7-10.4 9.7-4.7 2.7-9.6 4-14.8 4-10 0-17.5-3-22.7-9.1-5.2-6.1-7.7-14.2-7.7-24.4v-48.8h15v46.4c0 14.9 6.6 22.3 19.7 22.3 6.2 0 11.2-2.5 15.1-7.5 3.9-5 5.9-10.7 5.9-17.2v-43.9h15v79.6zM464.3 284.1v-79.7h14.3v11.1h.7c2.3-3.8 5.8-7 10.5-9.7 4.7-2.7 9.4-4 14.1-4 12.4 0 20.8 5.1 25.2 15.3 6.5-10.2 15.8-15.3 27.8-15.3 9.4 0 16.5 3 21.3 9 4.8 6 7.2 14.2 7.2 24.5v48.8h-15v-46.5c0-8-1.5-13.7-4.4-17.1-2.9-3.4-7.4-5-13.3-5S542 218 538.1 223c-3.9 5-5.8 10.7-5.8 17.1v44.1h-15v-46.5c0-8-1.5-13.7-4.4-17.1-2.9-3.4-7.4-5-13.3-5s-10.7 2.5-14.6 7.5c-3.9 5-5.8 10.7-5.8 17.1v44.1h-14.9zM599.9 284.1v-79.7h14.3v11.1h.7c2.3-3.8 5.8-7 10.5-9.7 4.7-2.7 9.4-4 14.1-4 12.4 0 20.8 5.1 25.2 15.3 6.5-10.2 15.8-15.3 27.8-15.3 9.4 0 16.5 3 21.3 9 4.8 6 7.2 14.2 7.2 24.5v48.8h-15v-46.5c0-8-1.5-13.7-4.4-17.1-2.9-3.4-7.4-5-13.3-5s-10.7 2.5-14.6 7.5c-3.9 5-5.8 10.7-5.8 17.1v44.1h-15v-46.5c0-8-1.5-13.7-4.4-17.1-2.9-3.4-7.4-5-13.3-5s-10.7 2.5-14.6 7.5c-3.9 5-5.8 10.7-5.8 17.1v44.1h-14.9zM750.9 184.3c-2.1 2.1-4.6 3.1-7.5 3.1-2.9 0-5.4-1-7.5-3.1-2.1-2.1-3.1-4.6-3.1-7.5 0-2.9 1-5.4 3.1-7.5 2.1-2.1 4.6-3.1 7.5-3.1 2.9 0 5.4 1 7.5 3.1 2.1 2.1 3.1 4.6 3.1 7.5 0 3-1 5.5-3.1 7.5zm0 99.8h-15v-79.7h15v79.7zM799.5 285.4c-8.4 0-14.7-2.2-19.1-6.7-4.4-4.4-6.6-10.7-6.6-18.9V218h-14v-13.7h14V180h15v24.4h19.5V218h-19.5v40.7c0 8.7 3.6 13 10.7 13 2.7 0 5-.4 6.8-1.3l5.2 12.9c-3.2 1.4-7.2 2.1-12 2.1zM926.8 284.1h-71v-15c21.3-21.4 34.9-35.3 40.8-41.8 5.3-6 8.9-10.5 10.7-13.6 1.8-3.1 2.8-6.9 2.8-11.5 0-4.7-1.8-8.8-5.5-12.4-3.7-3.6-8.6-5.4-14.8-5.4-5.6 0-10.2 1.7-13.7 5s-5.7 6.9-6.7 10.7l-13.7-5.5c1.8-5.9 5.7-11.4 11.6-16.6 5.9-5.2 13.5-7.8 22.8-7.8 10.3 0 18.8 3.1 25.4 9.4 6.6 6.3 9.9 13.8 9.9 22.6 0 10.8-5.9 22.5-17.7 34.8l-32.5 32.7h51.6v14.4zM1012.4 269.9c-8.2 11.2-19 16.8-32.4 16.8-13.3 0-24.1-5.6-32.4-16.8-8.2-11.2-12.4-25-12.4-41.5 0-16.6 4.1-30.5 12.4-41.6 8.2-11.1 19-16.7 32.4-16.7 13.3 0 24.1 5.6 32.4 16.7 8.2 11.1 12.4 25 12.4 41.6-.1 16.5-4.2 30.4-12.4 41.5zm-32.4 2.5c8.9 0 16-4.2 21.4-12.5 5.4-8.4 8.1-18.8 8.1-31.4 0-12.7-2.7-23.2-8.1-31.5-5.4-8.3-12.5-12.4-21.4-12.4-9 0-16.2 4.2-21.5 12.4-5.3 8.3-8 18.8-8 31.5 0 12.6 2.7 23.1 8 31.4 5.3 8.3 12.5 12.5 21.5 12.5zM1072.1 284.1h-15v-92.8l-21.6 9.4-5.7-12.7 32.7-15.3h9.6v111.4zM1128.8 213c8.7 0 16.7 3.6 23.9 10.7 7.3 7.1 10.9 15.7 10.9 25.8 0 9.9-3.8 18.6-11.3 26-7.5 7.5-16.5 11.2-26.8 11.2-11.1 0-20.2-3.8-27.4-11.3-7.2-7.5-10.8-16.2-10.8-26 0-10.3 4.3-21.8 13-34.5l30.3-44.8 12 8.3-26.5 36.8.3.3c2.7-1.6 6.8-2.5 12.4-2.5zm-3.3 59.2c6.3 0 11.7-2.2 16.2-6.5s6.8-9.7 6.8-16.1c0-6.3-2.3-11.6-6.8-16s-9.9-6.6-16.2-6.6c-6.3 0-11.7 2.2-16.3 6.6s-6.8 9.7-6.8 16c0 6.4 2.2 11.8 6.8 16.1 4.5 4.4 9.9 6.5 16.3 6.5z"/></g><g id="XMLID_261_"><path id="XMLID_259_" class="st0" d="M47.9 0H0l136.8 237.1 24-41.5L47.9 0z"/><path id="XMLID_258_" class="st0" d="M179.2 134.9L101.2 0H53.5l110.1 190.9 15.6-27c2.5-4.1 4.1-9.2 4.1-14.5-.1-5.3-1.6-10.2-4.1-14.5z"/><path id="XMLID_257_" class="st0" d="M83.4 154.3L1.3 296.4h47.9l58.2-100.8-24-41.3z"/><path id="XMLID_256_" class="st0" d="M110.1 200.5l-55.3 95.9h47.7l31.6-54.5-24-41.4z"/></g></svg>