<svg width="176" height="32" viewBox="0 0 176 32" fill="none" xmlns="http://www.w3.org/2000/svg">
<path d="M37.3267 5.79443H38.7644L40.7524 13.8528L40.9387 14.6072H41.0009L41.2316 13.8528L43.6811 5.79443H45.0301L47.373 13.8528L47.6038 14.6072H47.6659L49.8225 5.79443H51.2602L48.3049 16.7638H46.9648L44.6396 8.82965L44.3911 7.96878H44.329L44.0716 8.82965L41.6487 16.7638H40.2998L37.3267 5.79443Z" fill="white"/>
<path d="M53.1595 16.4529C52.5472 16.089 52.0679 15.5831 51.7307 14.953C51.3934 14.3229 51.2159 13.6218 51.2159 12.8585C51.2159 12.0953 51.3846 11.3942 51.7307 10.7552C52.0768 10.1162 52.5472 9.61919 53.1595 9.25532C53.7719 8.89145 54.4642 8.70508 55.2274 8.70508C55.9906 8.70508 56.6829 8.89145 57.2952 9.25532C57.9076 9.61919 58.3869 10.1251 58.7241 10.7552C59.0702 11.3853 59.2388 12.0864 59.2388 12.8585C59.2388 13.6218 59.0702 14.3229 58.7241 14.953C58.378 15.5831 57.9076 16.089 57.2952 16.4529C56.6829 16.8167 55.9906 17.0031 55.2274 17.0031C54.4553 17.012 53.7719 16.8256 53.1595 16.4529ZM56.5675 15.4678C56.9846 15.2281 57.313 14.882 57.5615 14.4294C57.81 13.9768 57.9342 13.4531 57.9342 12.8497C57.9342 12.2462 57.81 11.7225 57.5615 11.2699C57.313 10.8173 56.9757 10.4712 56.5675 10.2316C56.1504 9.99194 55.7066 9.87657 55.2274 9.87657C54.7481 9.87657 54.2955 9.99194 53.8784 10.2316C53.4613 10.4712 53.124 10.8173 52.8755 11.2699C52.627 11.7225 52.5028 12.2462 52.5028 12.8497C52.5028 13.4531 52.627 13.9768 52.8755 14.4294C53.124 14.882 53.4613 15.2281 53.8784 15.4678C54.2955 15.7074 54.7481 15.8227 55.2274 15.8227C55.7066 15.8316 56.1504 15.7074 56.5675 15.4678Z" fill="white"/>
<path d="M60.6055 8.9447H61.848V10.0984H61.9101C62.132 9.69907 62.4692 9.3707 62.9218 9.10445C63.3744 8.8382 63.8448 8.70508 64.3507 8.70508C64.9187 8.70508 65.4245 8.8382 65.8417 9.1222C66.2677 9.39732 66.5694 9.77007 66.7558 10.2227C67.0309 9.76119 67.3948 9.39732 67.8474 9.1222C68.3 8.84708 68.8325 8.70508 69.436 8.70508C70.3324 8.70508 71.0157 8.9802 71.4683 9.52157C71.921 10.0718 72.1517 10.8084 72.1517 11.7492V16.7635H70.8649V11.9533C70.8649 11.2255 70.714 10.7019 70.4211 10.3736C70.1282 10.0452 69.6845 9.88544 69.1076 9.88544C68.7171 9.88544 68.371 10.0008 68.0515 10.2227C67.732 10.4446 67.4835 10.7463 67.306 11.1279C67.1285 11.5095 67.0398 11.9178 67.0398 12.3527V16.7635H65.7352V11.971C65.7352 11.2344 65.5843 10.7019 65.2914 10.3736C64.9985 10.0452 64.5637 9.88544 63.9868 9.88544C63.5963 9.88544 63.2502 10.0008 62.9307 10.2316C62.6112 10.4623 62.3627 10.7641 62.1852 11.1546C62.0077 11.5362 61.919 11.9533 61.919 12.3882V16.7724H60.6143V8.9447H60.6055Z" fill="white"/>
<path d="M75.4799 16.4707C74.8853 16.1157 74.4238 15.6187 74.0954 14.9886C73.767 14.3585 73.5984 13.6574 73.5984 12.8675C73.5984 12.1131 73.7581 11.4209 74.0688 10.7819C74.3794 10.1518 74.8231 9.64591 75.3911 9.26428C75.9591 8.88266 76.6247 8.69629 77.3791 8.69629C78.1423 8.69629 78.808 8.86491 79.3671 9.21103C79.9262 9.55716 80.3611 10.0275 80.6628 10.631C80.9646 11.2345 81.1154 11.9268 81.1154 12.6989C81.1154 12.8497 81.0977 12.9829 81.0711 13.0982H74.8941C74.9207 13.6929 75.0716 14.1899 75.3201 14.5981C75.5775 15.0063 75.897 15.317 76.2964 15.5211C76.6869 15.7252 77.104 15.8228 77.53 15.8228C78.5328 15.8228 79.305 15.3525 79.8463 14.4117L80.9468 14.9442C80.6096 15.5743 80.1481 16.0802 79.5712 16.4441C78.9943 16.8079 78.2932 16.9943 77.4767 16.9943C76.749 17.0121 76.0745 16.8257 75.4799 16.4707ZM79.7398 12.0244C79.7221 11.696 79.6244 11.3676 79.4647 11.0481C79.3049 10.7198 79.0476 10.4446 78.6926 10.2228C78.3376 10.0009 77.8938 9.88553 77.3702 9.88553C76.7579 9.88553 76.2342 10.0808 75.8171 10.4713C75.3911 10.8618 75.116 11.3854 74.9829 12.0244H79.7398Z" fill="white"/>
<path d="M82.6418 8.9447H83.8843V10.0984H83.9465C84.1594 9.70794 84.5056 9.37957 84.9759 9.11332C85.4463 8.84708 85.9433 8.70508 86.4758 8.70508C87.4165 8.70508 88.1354 8.9802 88.6324 9.52157C89.1294 10.0718 89.3779 10.8084 89.3779 11.7492V16.7635H88.0733V11.9533C88.0733 11.2255 87.8958 10.7019 87.5497 10.3736C87.2035 10.0452 86.7243 9.88544 86.1208 9.88544C85.7037 9.88544 85.3221 10.0008 84.9937 10.2404C84.6653 10.4801 84.408 10.7818 84.2216 11.1723C84.0352 11.5539 83.9465 11.9533 83.9465 12.3704V16.7724H82.6418V8.9447Z" fill="white"/>
<path d="M96.6908 7.02764H93.6112V5.78516H101.057V7.02764H97.9954V16.7545H96.6908V7.02764Z" fill="white"/>
<path d="M102.681 16.4707C102.087 16.1157 101.625 15.6187 101.297 14.9886C100.969 14.3585 100.8 13.6574 100.8 12.8675C100.8 12.1131 100.96 11.4209 101.27 10.7819C101.581 10.1518 102.025 9.64591 102.593 9.26428C103.161 8.88266 103.826 8.69629 104.581 8.69629C105.344 8.69629 106.009 8.86491 106.569 9.21103C107.128 9.55716 107.563 10.0275 107.864 10.631C108.166 11.2345 108.317 11.9268 108.317 12.6989C108.317 12.8497 108.299 12.9829 108.273 13.0982H102.096C102.122 13.6929 102.273 14.1899 102.522 14.5981C102.779 15.0063 103.099 15.317 103.498 15.5211C103.888 15.7252 104.306 15.8228 104.732 15.8228C105.734 15.8228 106.506 15.3525 107.048 14.4117L108.148 14.9442C107.811 15.5743 107.35 16.0802 106.773 16.4441C106.196 16.8079 105.495 16.9943 104.678 16.9943C103.951 17.0121 103.276 16.8257 102.681 16.4707ZM106.941 12.0244C106.924 11.696 106.826 11.3676 106.666 11.0481C106.506 10.7198 106.249 10.4446 105.894 10.2228C105.539 10.0009 105.095 9.88553 104.572 9.88553C103.959 9.88553 103.436 10.0808 103.019 10.4713C102.593 10.8618 102.318 11.3854 102.184 12.0244H106.941Z" fill="white"/>
<path d="M111.423 16.4618C110.82 16.098 110.349 15.601 110.012 14.9708C109.675 14.3407 109.506 13.6396 109.506 12.8497C109.506 12.0599 109.675 11.3499 110.012 10.7198C110.349 10.0896 110.82 9.59265 111.423 9.22878C112.027 8.87379 112.701 8.69629 113.464 8.69629C114.316 8.69629 115.026 8.89154 115.603 9.28203C116.18 9.67253 116.588 10.1961 116.837 10.8529L115.657 11.341C115.461 10.8618 115.177 10.4979 114.787 10.2494C114.405 10.0009 113.944 9.87665 113.402 9.87665C112.941 9.87665 112.515 10.0009 112.115 10.2494C111.716 10.4979 111.397 10.8529 111.157 11.2966C110.917 11.7493 110.793 12.264 110.793 12.8497C110.793 13.4355 110.917 13.9502 111.157 14.394C111.397 14.8466 111.716 15.1927 112.115 15.4412C112.515 15.6897 112.941 15.814 113.402 15.814C113.953 15.814 114.432 15.6897 114.831 15.4323C115.231 15.175 115.523 14.8111 115.719 14.3407L116.881 14.8288C116.615 15.4767 116.189 15.9915 115.603 16.3908C115.018 16.7902 114.308 16.9854 113.464 16.9854C112.701 17.0121 112.018 16.8257 111.423 16.4618Z" fill="white"/>
<path d="M118.284 5.79395H119.588V9.02441L119.526 10.0983H119.588C119.801 9.6989 120.138 9.37053 120.609 9.10428C121.07 8.83803 121.585 8.70491 122.135 8.70491C123.085 8.70491 123.813 8.98003 124.31 9.53915C124.807 10.0983 125.064 10.8349 125.064 11.7579V16.7722H123.759V11.962C123.759 11.252 123.582 10.7373 123.227 10.4C122.872 10.0628 122.402 9.89415 121.834 9.89415C121.425 9.89415 121.053 10.0184 120.706 10.258C120.36 10.5065 120.094 10.8171 119.89 11.2076C119.695 11.5981 119.588 11.9975 119.588 12.4146V16.7633H118.284V5.79395V5.79395Z" fill="white"/>
<path d="M126.928 8.9447H128.17V10.0984H128.232C128.454 9.69907 128.791 9.3707 129.244 9.10445C129.697 8.8382 130.167 8.70508 130.673 8.70508C131.241 8.70508 131.747 8.8382 132.164 9.1222C132.59 9.39732 132.892 9.77007 133.078 10.2227C133.353 9.76119 133.717 9.39732 134.17 9.1222C134.622 8.84708 135.155 8.70508 135.758 8.70508C136.655 8.70508 137.338 8.9802 137.79 9.52157C138.243 10.0718 138.474 10.8084 138.474 11.7492V16.7635H137.187V11.9533C137.187 11.2255 137.036 10.7019 136.743 10.3736C136.45 10.0452 136.007 9.88544 135.43 9.88544C135.039 9.88544 134.693 10.0008 134.374 10.2227C134.054 10.4446 133.806 10.7463 133.628 11.1279C133.451 11.5095 133.362 11.9178 133.362 12.3527V16.7635H132.057V11.971C132.057 11.2344 131.906 10.7019 131.614 10.3736C131.321 10.0452 130.886 9.88544 130.309 9.88544C129.918 9.88544 129.572 10.0008 129.253 10.2316C128.933 10.4623 128.685 10.7641 128.507 11.1546C128.33 11.5362 128.241 11.9533 128.241 12.3882V16.7724H126.928V8.9447Z" fill="white"/>
<path d="M141.225 16.6748C140.772 16.453 140.426 16.1423 140.187 15.7518C139.938 15.3613 139.823 14.9087 139.823 14.4117C139.823 13.5864 140.133 12.9385 140.755 12.4681C141.376 12.0066 142.166 11.767 143.115 11.767C143.586 11.767 144.021 11.8203 144.429 11.9179C144.828 12.0244 145.139 12.1398 145.352 12.2729V11.7936C145.352 11.2079 145.148 10.7464 144.74 10.3914C144.331 10.0364 143.817 9.8589 143.195 9.8589C142.752 9.8589 142.352 9.95653 141.988 10.1429C141.624 10.3293 141.332 10.5955 141.119 10.9328L140.133 10.1961C140.444 9.72578 140.861 9.36191 141.394 9.09566C141.926 8.82941 142.521 8.69629 143.178 8.69629C144.243 8.69629 145.077 8.97141 145.68 9.53053C146.284 10.0897 146.594 10.844 146.594 11.8025V16.7547H145.352V15.6365H145.29C145.068 16.0181 144.731 16.3376 144.278 16.6038C143.825 16.8701 143.32 17.0032 142.76 17.0032C142.184 17.0121 141.678 16.8967 141.225 16.6748ZM144.109 15.5211C144.491 15.2992 144.793 14.9975 145.015 14.6158C145.237 14.2342 145.352 13.826 145.352 13.3734C145.103 13.2136 144.802 13.0805 144.447 12.974C144.092 12.8675 143.71 12.8231 143.311 12.8231C142.592 12.8231 142.059 12.974 141.695 13.2669C141.332 13.5597 141.154 13.9502 141.154 14.4206C141.154 14.8466 141.314 15.2016 141.642 15.459C141.971 15.7252 142.379 15.8583 142.885 15.8583C143.32 15.8583 143.728 15.743 144.109 15.5211Z" fill="white"/>
<path d="M148.396 5.79395H149.701V12.6897L153.375 8.95341H155.026V9.01553L151.964 12.1129L155.105 16.7101V16.7722H153.561L151.05 13.0181L149.701 14.3671V16.7722H148.396V5.79395Z" fill="white"/>
<path d="M157.377 16.4707C156.783 16.1157 156.321 15.6187 155.993 14.9886C155.665 14.3585 155.496 13.6574 155.496 12.8675C155.496 12.1131 155.656 11.4209 155.966 10.7819C156.277 10.1518 156.721 9.64591 157.289 9.26428C157.857 8.88266 158.522 8.69629 159.277 8.69629C160.04 8.69629 160.706 8.86491 161.265 9.21103C161.824 9.55716 162.259 10.0275 162.56 10.631C162.862 11.2345 163.013 11.9268 163.013 12.6989C163.013 12.8497 162.995 12.9829 162.969 13.0982H156.792C156.818 13.6929 156.969 14.1899 157.218 14.5981C157.475 15.0063 157.795 15.317 158.194 15.5211C158.584 15.7252 159.002 15.8228 159.428 15.8228C160.43 15.8228 161.203 15.3525 161.744 14.4117L162.844 14.9442C162.507 15.5743 162.046 16.0802 161.469 16.4441C160.892 16.8079 160.191 16.9943 159.374 16.9943C158.638 17.0121 157.972 16.8257 157.377 16.4707ZM161.637 12.0244C161.62 11.696 161.522 11.3676 161.362 11.0481C161.203 10.7198 160.945 10.4446 160.59 10.2228C160.235 10.0009 159.791 9.88553 159.268 9.88553C158.655 9.88553 158.132 10.0808 157.715 10.4713C157.289 10.8618 157.014 11.3854 156.88 12.0244H161.637Z" fill="white"/>
<path d="M164.531 8.9447H165.773V10.2049H165.835C165.986 9.77894 166.288 9.41507 166.723 9.13107C167.157 8.84708 167.619 8.70508 168.098 8.70508C168.453 8.70508 168.764 8.75833 169.021 8.8737V10.2671C168.693 10.1073 168.329 10.0186 167.921 10.0186C167.539 10.0186 167.193 10.1251 166.882 10.3381C166.563 10.5511 166.314 10.8439 166.128 11.2078C165.942 11.5717 165.844 11.9622 165.844 12.3793V16.7546H164.539V8.9447H164.531Z" fill="white"/>
<path d="M170.601 16.417C170.042 16.0265 169.643 15.5207 169.403 14.9083L170.566 14.3847C170.761 14.8551 171.045 15.2189 171.435 15.4763C171.817 15.7337 172.243 15.8579 172.696 15.8579C173.184 15.8579 173.601 15.7603 173.956 15.5562C174.302 15.3609 174.479 15.0769 174.479 14.7042C174.479 14.3758 174.337 14.1184 174.062 13.9143C173.787 13.7191 173.352 13.5416 172.758 13.3996L171.808 13.1511C171.187 13.0002 170.672 12.734 170.273 12.3701C169.873 12.0062 169.678 11.527 169.678 10.9412C169.678 10.4886 169.811 10.0981 170.086 9.752C170.353 9.40588 170.716 9.1485 171.169 8.96213C171.622 8.77576 172.101 8.68701 172.625 8.68701C173.308 8.68701 173.92 8.83788 174.453 9.13076C174.985 9.42363 175.367 9.84075 175.598 10.3732L174.462 10.8969C174.116 10.2046 173.494 9.8585 172.607 9.8585C172.181 9.8585 171.799 9.95612 171.48 10.1602C171.16 10.3555 171 10.6129 171 10.9146C171 11.1986 171.116 11.4294 171.338 11.6157C171.56 11.7932 171.897 11.9441 172.349 12.0506L173.485 12.3435C174.249 12.5387 174.826 12.8227 175.216 13.2132C175.607 13.5948 175.802 14.0652 175.802 14.6154C175.802 15.0947 175.66 15.5207 175.385 15.8757C175.11 16.2395 174.737 16.5147 174.266 16.7099C173.796 16.9052 173.272 17.0028 172.704 17.0028C171.861 17.0117 171.16 16.8075 170.601 16.417Z" fill="white"/>
<path d="M7.3295 23.3578H1.15257C0.904073 23.3578 0.699951 23.1537 0.699951 22.9052V1.15282C0.699951 0.904319 0.904073 0.700195 1.15257 0.700195H7.3295C7.578 0.700195 7.78212 0.904319 7.78212 1.15282V3.07867C7.78212 3.32717 7.578 3.53129 7.3295 3.53129H3.98366C3.73517 3.53129 3.53104 3.73541 3.53104 3.98391V20.0563C3.53104 20.3048 3.73517 20.509 3.98366 20.509H7.3295C7.578 20.509 7.78212 20.7131 7.78212 20.9616V22.9052C7.79099 23.1537 7.58687 23.3578 7.3295 23.3578Z" fill="white"/>
<path d="M21.0768 0.700195H27.2271C27.4756 0.700195 27.6797 0.904319 27.6797 1.15282V22.9052C27.6797 23.1537 27.4756 23.3578 27.2271 23.3578H21.0768C20.8283 23.3578 20.6241 23.1537 20.6241 22.9052V20.9793C20.6241 20.7308 20.8283 20.5267 21.0768 20.5267H24.4137C24.6622 20.5267 24.8663 20.3226 24.8663 20.0741V4.00166C24.8663 3.75316 24.6622 3.54904 24.4137 3.54904H21.0768C20.8283 3.54904 20.6241 3.34491 20.6241 3.09642V1.15282C20.6241 0.904319 20.8283 0.700195 21.0768 0.700195Z" fill="white"/>
<path d="M17.793 11.785L16.6747 10.1343C16.657 10.2319 16.6215 10.3295 16.5771 10.4094L16.5682 10.4183L14.4471 13.6221L17.8285 18.7163C18.006 19.0269 18.2012 19.1068 18.4675 19.1068H18.4763H18.4941H21.3429H21.3696C21.7423 19.1068 22.0529 18.8051 22.0529 18.4234V18.0684L17.793 11.785Z" fill="white"/>
<path d="M22.044 5.63454C22.044 5.26179 21.7423 4.95117 21.3607 4.95117H18.4763C18.1036 4.95117 17.793 5.27067 17.793 5.63454V11.2878L22.044 17.5713V5.63454Z" fill="white"/>
<path d="M10.7019 5.63454C10.7019 5.26179 10.4001 4.95117 10.0185 4.95117H7.13417C6.76143 4.95117 6.45081 5.25292 6.45081 5.63454V17.6334L10.7019 11.3677V5.63454Z" fill="white"/>
<path d="M16.3019 9.56611C16.2753 9.51286 16.2398 9.45961 16.1954 9.41523C16.0623 9.28211 15.8848 9.19336 15.6718 9.19336H12.9029C12.6277 9.19336 12.4059 9.33536 12.2461 9.58385L10.764 11.7582L6.45081 18.1215V18.4144C6.45081 18.512 6.47743 18.5919 6.51293 18.6718C6.61943 18.9202 6.85018 19.0977 7.17855 19.0977H10.0096H10.0185H10.0806C10.3558 19.0977 10.5776 18.9557 10.7374 18.7073L14.2696 13.3646L16.3197 10.2583C16.4439 10.0631 16.4351 9.79685 16.3019 9.56611Z" fill="white"/>
<path d="M37.3267 23.4395H38.2958V30.7657H41.9185V31.7002H37.3267V23.4395Z" fill="white"/>
<path d="M45.5734 23.4395H46.681L49.8192 31.7002H48.7462L47.9155 29.4273H44.3505L43.5198 31.7002H42.4468L45.5734 23.4395ZM47.5809 28.5044L46.4849 25.5277L46.1503 24.6393H46.1042L45.7811 25.5277L44.6851 28.5044H47.5809Z" fill="white"/>
<path d="M51.8557 24.374H49.5367V23.4395H55.1439V24.374H52.8364V31.7002H51.8557V24.374Z" fill="white"/>
<path d="M58.0009 23.4395H59.1085L62.2467 31.7002H61.1737L60.343 29.4273H56.7779L55.9473 31.7002H54.8743L58.0009 23.4395ZM60.0084 28.5044L58.9124 25.5277L58.5778 24.6393H58.5316L58.2086 25.5277L57.1125 28.5044H60.0084Z" fill="white"/>
<path d="M63.3421 23.4395H64.7612L67.3917 30.2119H67.4378L70.0684 23.4395H71.4875V31.7002H70.5183V26.4507L70.5645 24.8816H70.5183L67.8186 31.7002H67.011L64.3112 24.8816H64.2651L64.3112 26.4507V31.7002H63.3421V23.4395Z" fill="white"/>
</svg>
