<?xml version="1.0" encoding="UTF-8" standalone="no"?>
<svg
   xmlns:dc="http://purl.org/dc/elements/1.1/"
   xmlns:cc="http://creativecommons.org/ns#"
   xmlns:rdf="http://www.w3.org/1999/02/22-rdf-syntax-ns#"
   xmlns:svg="http://www.w3.org/2000/svg"
   xmlns="http://www.w3.org/2000/svg"
   xmlns:sodipodi="http://sodipodi.sourceforge.net/DTD/sodipodi-0.dtd"
   xmlns:inkscape="http://www.inkscape.org/namespaces/inkscape"
   id="Layer_1"
   data-name="Layer 1"
   viewBox="0 0 390.00001 160"
   version="1.1"
   sodipodi:docname="logotext.svg"
   inkscape:export-filename="/home/mtthsfrdrch/dev/projects/devfest19/logotext.png"
   inkscape:export-xdpi="377"
   inkscape:export-ydpi="377"
   width="390"
   height="160"
   inkscape:version="0.92.4 (f8dce91, 2019-08-02)">
  <metadata
     id="metadata17">
    <rdf:RDF>
      <cc:Work
         rdf:about="">
        <dc:format>image/svg+xml</dc:format>
        <dc:type
           rdf:resource="http://purl.org/dc/dcmitype/StillImage" />
        <dc:title>logotext</dc:title>
      </cc:Work>
    </rdf:RDF>
  </metadata>
  <sodipodi:namedview
     pagecolor="#ffffff"
     bordercolor="#666666"
     borderopacity="1"
     objecttolerance="10"
     gridtolerance="10"
     guidetolerance="10"
     inkscape:pageopacity="0"
     inkscape:pageshadow="2"
     inkscape:window-width="1920"
     inkscape:window-height="1016"
     id="namedview15"
     showgrid="false"
     inkscape:zoom="1.8541911"
     inkscape:cx="160.2425"
     inkscape:cy="156.63193"
     inkscape:window-x="0"
     inkscape:window-y="27"
     inkscape:window-maximized="1"
     inkscape:current-layer="Layer_1" />
  <defs
     id="defs4">
    <style
       id="style2">.cls-1{font-size:24px;fill:#878787;font-family:Consolas;}</style>
  </defs>
  <title
     id="title6">logotext</title>
  <g
     id="g7676"
     transform="translate(-41.325693,-45.887932)">
    <path
       style="fill:#9f9f9f;stroke-width:0.23980705"
       d="m 114.8521,183.30299 c -6.99606,-0.39581 -18.332859,-1.94695 -22.538757,-3.08383 -3.123416,-0.84428 -3.929443,-1.59285 -1.858248,-1.72579 1.596475,-0.10247 8.939496,0.19067 15.885025,0.63413 8.10183,0.5173 23.01602,1.09024 28.5847,1.0981 5.48833,0.008 11.31562,0.33558 12.23683,0.68841 1.5979,0.61201 0.41769,1.05942 -4.47313,1.6957 -6.86461,0.89307 -18.97428,1.19467 -27.83642,0.69328 z m 40.30548,-2.30098 c -0.29772,-0.2978 -0.11803,-1.27843 0.67624,-3.69047 1.14707,-3.48339 2.24518,-6.01183 2.8282,-6.51208 0.27282,-0.23408 1.42493,-0.92501 2.56024,-1.53541 2.69619,-1.4496 3.33675,-1.94157 4.32264,-3.31997 0.96574,-1.35024 1.26043,-1.34907 -3.33743,-0.0133 -8.0449,2.33715 -13.25046,2.97762 -12.00548,1.4771 0.50388,-0.60731 4.15401,-1.69725 8.52875,-2.54671 5.05111,-0.9808 9.14355,-1.5986 9.33316,-1.40894 0.0643,0.0643 -0.0445,0.86819 -0.2419,1.78636 -0.19736,0.91816 -0.47235,2.26299 -0.6111,2.98851 -0.13874,0.72551 -0.37144,1.46372 -0.51712,1.64047 -0.14567,0.17674 -1.58282,0.95942 -3.19367,1.7393 l -2.92881,1.41795 -1.24536,2.33798 c -2.17589,4.08489 -3.6834,6.12435 -4.16836,5.63924 z M 73.131422,177.4208 c -3.312521,-0.72104 -5.454182,-1.32185 -6.910764,-1.9387 -0.828095,-0.35069 -1.052287,-0.66374 -2.326249,-3.24823 -1.872383,-3.79851 -2.352425,-6.16537 -1.250448,-6.16537 0.599315,0 2.109292,1.88664 3.970214,4.96059 0.671526,1.10925 1.092173,1.54387 1.66941,1.72487 1.236903,0.38783 3.728553,0.94751 5.92682,1.3313 4.254471,0.74277 5.899146,1.07526 6.653729,1.3451 2.345362,0.83872 -0.777448,2.17359 -4.965744,2.12265 -1.25808,-0.0153 -2.503216,-0.0748 -2.766968,-0.13221 z m 7.552882,-5.59088 c -5.14304,-0.52988 -10.880017,-2.71135 -13.509645,-5.13698 -1.969451,-1.81666 -0.39139,-1.99254 4.923471,-0.54871 4.363043,1.18526 7.146309,1.81951 11.223688,2.55767 4.999679,0.90513 6.127496,1.29743 5.84523,2.0332 -0.327855,0.85461 -4.982907,1.45541 -8.482744,1.09482 z m 2.88838,-6.13919 c -7.238876,-0.83031 -14.305556,-2.608 -18.596837,-4.67822 -1.781813,-0.85959 -2.30173,-1.3463 -1.781621,-1.66783 0.188239,-0.11637 0.558944,-0.1684 0.823791,-0.11563 0.264847,0.0528 1.18288,0.16307 2.040072,0.24511 0.857192,0.082 1.990124,0.2444 2.517627,0.36079 1.249129,0.27561 6.454851,1.08294 9.950621,1.54319 5.699937,0.75044 10.818508,1.10669 19.484348,1.35612 9.096915,0.26183 10.500715,0.3762 10.664905,0.86889 0.22776,0.68346 -2.78228,1.48454 -7.88939,2.09966 -3.73288,0.44959 -13.24669,0.44292 -17.213516,-0.0121 z m 29.960656,-0.021 c -1.21468,-0.12522 -1.67337,-0.42177 -1.27253,-0.82272 0.451,-0.45112 7.30789,-1.33723 17.45728,-2.25598 9.94684,-0.90042 21.52273,-2.16371 25.17627,-2.74752 0.79125,-0.12643 2.57158,-0.40458 3.95627,-0.61809 6.15681,-0.94937 11.85896,-2.21839 17.98305,-4.00215 6.22126,-1.81207 5.6794,-1.57595 6.38653,-2.78291 0.35181,-0.60048 0.65026,-1.35678 0.66323,-1.68068 0.0339,-0.84583 0.73455,-1.23141 1.26802,-0.69778 0.35804,0.35813 0.37696,0.55283 0.13949,1.43498 -0.15111,0.56134 -0.50707,1.54385 -0.79101,2.18336 -0.47198,1.06301 -0.6635,1.22968 -2.23301,1.94334 -4.66736,2.12224 -13.18762,4.98751 -17.44675,5.86716 -0.5798,0.11974 -2.34896,0.49271 -3.93147,0.8288 -6.7945,1.44302 -12.82317,2.25309 -22.65864,3.04463 -2.98867,0.24052 -22.93377,0.48729 -24.69673,0.30556 z m 29.97175,-7.85455 c 0,-0.51658 2.42755,-1.37489 8.87164,-3.13677 1.78032,-0.48676 3.72249,-1.02952 4.31594,-1.20614 0.59344,-0.17662 2.53561,-0.72014 4.31593,-1.20782 3.08811,-0.84594 6.04786,-1.69159 8.39209,-2.39779 0.59344,-0.17877 1.78032,-0.53529 2.63751,-0.79227 14.3009,-4.28728 26.66083,-9.51444 37.52339,-15.8691 1.97882,-1.15762 4.10801,-2.35194 4.73152,-2.65404 2.27777,-1.1036 1.63185,0.15393 -1.39829,2.72232 -9.76068,8.27327 -24.50467,15.20527 -42.65492,20.05454 -7.08556,1.89308 -13.99466,3.31415 -21.10012,4.3399 -4.05487,0.58537 -5.63469,0.62663 -5.63469,0.14717 z m -60.423046,-6.38191 c 0,-0.37005 1.84003,-1.59201 4.599177,-3.05428 5.229943,-2.77173 7.643137,-4.72853 8.992998,-7.29222 0.641656,-1.21865 0.673777,-1.43209 0.66198,-4.39872 -0.01149,-2.89069 -0.07009,-3.28397 -0.804044,-5.3964 -1.443675,-4.15512 -4.1325,-9.16309 -9.335999,-17.38841 -3.064962,-4.84487 -4.209516,-6.81996 -4.046587,-6.98293 0.81719,-0.81742 7.149533,6.32525 11.506498,12.97893 3.016271,4.60626 5.076807,9.13185 5.944493,13.05599 1.6506,7.4649 -1.470149,12.96712 -9.213538,16.24447 -2.066555,0.87466 -4.566489,1.71275 -6.341721,2.12602 -1.797048,0.41836 -1.963257,0.42746 -1.963257,0.10755 z m 26.375136,-6.1732 c 0,-0.40394 3.55178,-2.27343 6.59781,-3.47278 7.08226,-2.78859 13.05653,-2.7257 18.89137,0.19886 0.89742,0.4498 1.67968,0.81782 1.73837,0.81782 0.0587,0 0.10669,-0.23056 0.10669,-0.51236 0,-0.58015 0.8686,-6.23967 1.20971,-7.88204 0.12328,-0.5936 0.44496,-2.05063 0.71484,-3.23784 2.00547,-8.8222 0.25389,-18.47697 -5.3955,-29.74017 -1.90057,-3.789171 -1.93098,-3.817453 -5.33485,-4.961596 -3.28962,-1.105744 -6.10212,-1.46189 -10.37612,-1.313928 -2.04407,0.07076 -4.79548,0.301107 -6.11424,0.511872 -4.22907,0.675891 -4.43582,0.693912 -4.43582,0.386646 0,-0.586402 4.61122,-2.216495 8.47768,-2.996913 4.85398,-0.979737 11.76284,-0.132754 16.61509,2.036912 1.31534,0.588148 1.57237,0.824069 2.37415,2.179156 1.1285,1.907295 4.26525,7.993801 4.61488,8.954651 0.144,0.39573 0.70102,1.85276 1.23782,3.23784 1.94202,5.01087 2.70827,9.00617 2.7139,14.15057 0.006,5.39249 -0.79036,9.23027 -3.16817,15.26996 -0.77032,1.95661 -1.54115,4.02741 -1.71297,4.60177 -0.17181,0.57436 -0.44978,1.09702 -0.6177,1.16148 -0.16792,0.0644 -0.82185,-0.054 -1.45316,-0.26322 -3.00236,-0.99503 -9.04122,-2.06352 -11.65111,-2.0615 -2.55069,0.002 -5.90424,0.7007 -11.97917,2.4959 -2.14307,0.6333 -3.0535,0.76416 -3.0535,0.43891 z m 55.05027,-9.37564 c -0.24548,-0.39732 1.25838,-1.5117 3.00109,-2.22384 2.69109,-1.0997 7.35162,-2.23669 14.95983,-3.64964 5.85888,-1.08807 8.27276,-1.37877 13.18757,-1.58813 2.90127,-0.12359 5.53386,-0.25718 5.8502,-0.29686 0.31634,-0.0397 0.61406,0.0388 0.6616,0.17435 0.0475,0.13557 -0.96658,0.55016 -2.25359,0.92131 -7.18065,2.07077 -8.37275,2.3181 -15.76736,3.27142 -12.82895,1.65392 -17.22562,2.40977 -18.82271,3.23589 -0.38041,0.19677 -0.74789,0.26675 -0.81663,0.1555 z m 35.22465,-8.12137 c -1.0654,-0.25592 -7.79727,-2.238 -9.59096,-2.8239 -16.45766,-5.37582 -34.7637,-14.74415 -46.03381,-23.55835 -2.35333,-1.840494 -3.25043,-2.973166 -1.96878,-2.485751 0.32291,0.122806 3.48692,1.941811 7.03112,4.042241 15.80844,9.36867 21.80351,12.59709 32.81915,17.67351 2.80046,1.29055 10.84441,4.41212 14.86599,5.76896 2.24189,0.75639 4.12112,1.41549 4.17607,1.46468 0.13052,0.11684 -0.68672,0.0656 -1.29878,-0.0814 z M 120.12713,87.724973 c -2.67437,-0.927694 -6.24586,-1.753584 -7.60797,-1.759306 -0.49187,-0.0022 -1.33256,0.171644 -1.8682,0.386025 -0.53564,0.214381 -1.04151,0.322146 -1.12416,0.239478 -0.29827,-0.298349 0.4785,-1.298998 1.41865,-1.827539 2.10036,-1.180792 5.83795,-0.806826 9.4209,0.942608 1.0547,0.514978 1.95579,0.898158 2.00243,0.851514 0.13048,-0.130523 0.49172,-2.890939 0.6661,-5.090093 0.27203,-3.430678 -0.79514,-5.172783 -5.2216,-8.52403 -4.32741,-3.276257 -6.68949,-4.193928 -12.17235,-4.728971 -4.65463,-0.454218 -5.39493,-0.976389 -2.25082,-1.587616 6.16245,-1.198002 10.58577,-0.306473 15.83339,3.191245 5.65228,3.767444 7.95468,7.693596 7.23722,12.341239 -0.29935,1.939174 -0.50997,2.435701 -2.04526,4.821702 -0.67016,1.041501 -1.19309,1.611174 -1.46615,1.597201 -0.23344,-0.01195 -1.50342,-0.396003 -2.82218,-0.853457 z"
       id="path7694"
       inkscape:connector-curvature="0" />
    <path
       style="fill:#f9bc1c;stroke-width:0.23980705"
       d="m 118.32882,183.32101 c -8.85316,-0.33981 -18.701128,-1.54312 -25.241913,-3.08427 -2.541588,-0.59885 -3.857801,-1.12177 -3.653957,-1.45168 0.191013,-0.30915 3.917761,-0.3086 8.634969,0.001 11.754221,0.77214 21.984641,1.23132 32.129721,1.44208 13.98704,0.29059 18.05786,0.59537 17.35412,1.2993 -0.27221,0.27229 -3.73834,0.85147 -7.18162,1.20003 -5.77795,0.58489 -15.46574,0.84565 -22.04132,0.59326 z m 36.9252,-3.15986 c 0,-1.30458 2.5688,-8.35191 3.31547,-9.09576 0.22056,-0.21974 1.59759,-1.05443 3.06005,-1.85487 2.2525,-1.23284 2.83392,-1.67801 3.80294,-2.91175 0.62915,-0.80103 1.09195,-1.50839 1.02844,-1.5719 -0.0635,-0.0635 -1.50507,0.27772 -3.20349,0.75832 -7.10447,2.01034 -11.71187,2.95999 -12.63737,2.60475 -1.36543,-0.52411 0.85728,-1.4892 6.05732,-2.63005 3.57916,-0.78525 11.07769,-2.07677 11.22164,-1.93278 0.0943,0.0943 -1.08285,6.16593 -1.22249,6.30561 -0.0257,0.0257 -1.44635,0.74016 -3.15704,1.58771 l -3.11033,1.541 -1.31875,2.47391 c -1.52671,2.86401 -3.11121,5.30143 -3.53905,5.44408 -0.19783,0.066 -0.29734,-0.17443 -0.29734,-0.71827 z m -81.282969,-2.8508 c -2.004031,-0.23186 -4.920182,-0.93641 -7.021638,-1.69644 -1.278171,-0.46227 -1.450415,-0.61588 -2.204003,-1.96547 -1.932257,-3.46047 -2.995492,-6.9002 -2.271269,-7.34792 0.178258,-0.1102 0.41743,-0.14267 0.531498,-0.0721 0.336136,0.2078 2.648359,3.43378 3.624186,5.05641 0.64944,1.07991 1.080789,1.53933 1.543495,1.64396 0.353194,0.0799 1.235611,0.2906 1.960927,0.4683 0.725316,0.1777 3.41062,0.71021 5.967345,1.18335 2.556722,0.47315 4.870066,0.97883 5.140766,1.12375 l 0.49218,0.26347 -0.532608,0.4314 c -0.981213,0.79476 -4.45468,1.23254 -7.230879,0.91134 z m 5.154721,-5.81791 c -4.413625,-0.72498 -8.117904,-2.17363 -11.264093,-4.40511 -1.186069,-0.84124 -1.53342,-1.38501 -1.137625,-1.78091 0.266809,-0.26688 1.725234,0.0369 7.726125,1.6096 1.780322,0.46657 5.233068,1.22746 7.672769,1.69088 5.794369,1.10062 7.006767,1.44457 6.907604,1.95963 -0.04507,0.23407 -0.521166,0.53502 -1.154354,0.72969 -1.519577,0.46718 -6.430408,0.57731 -8.750426,0.19622 z m 7.792656,-5.67622 c -6.852411,-0.41394 -14.310387,-1.94128 -19.781356,-4.0511 -3.40305,-1.31235 -4.875553,-2.41214 -3.229603,-2.41214 0.421648,0 2.345834,0.26589 4.27597,0.59085 12.424283,2.09183 17.552308,2.58768 31.08335,3.00563 4.351901,0.13443 8.209261,0.30617 8.571921,0.38166 2.75738,0.57397 -3.37666,2.03042 -10.48602,2.48977 -4.182148,0.27022 -5.89628,0.26945 -10.434262,-0.005 z m 28.133322,-0.19127 c -2.2836,-0.14617 -2.99172,-0.32123 -2.65635,-0.6567 0.40824,-0.40835 5.72601,-1.11017 15.28461,-2.01721 13.7296,-1.30284 16.17118,-1.56129 23.85751,-2.52546 10.65358,-1.33638 19.4752,-3.18951 28.55256,-5.99794 l 2.65696,-0.82203 0.68945,-1.26356 c 0.3792,-0.69495 0.69414,-1.47941 0.69988,-1.74323 0.007,-0.31631 0.17374,-0.47968 0.48997,-0.47968 0.74336,0 0.59249,1.90595 -0.27747,3.5053 -0.66924,1.23032 -0.73394,1.27577 -3.55892,2.49992 -8.84783,3.83406 -21.01733,6.82159 -33.56836,8.24082 -9.0666,1.02522 -25.67404,1.67557 -32.16984,1.25977 z m 28.69312,-7.89496 c 0,-0.39644 2.83206,-1.32298 10.07051,-3.29467 1.78032,-0.48495 3.72249,-1.02598 4.31593,-1.2023 0.59344,-0.17631 2.69746,-0.76856 4.67559,-1.3161 20.20922,-5.59386 34.22677,-11.17803 47.19671,-18.80174 1.9568,-1.1502 3.92459,-2.26623 4.37286,-2.48005 2.03699,-0.97164 0.75213,0.69745 -2.65567,3.44984 -12.87484,10.39869 -34.38738,18.72946 -59.10429,22.88826 -4.7898,0.80592 -8.87164,1.1541 -8.87164,0.75676 z m -60.415519,-6.44438 c 0.01199,-0.32947 0.859753,-0.86703 4.635503,-2.93933 4.196784,-2.30338 5.420591,-3.11794 6.871919,-4.57392 2.381462,-2.3891 3.20608,-5.07432 2.678714,-8.72277 -0.667873,-4.62052 -3.086771,-9.83432 -8.753576,-18.86783 -4.360751,-6.95152 -5.141901,-8.24937 -5.317454,-8.83471 -0.14702,-0.49021 -0.11254,-0.53052 0.275906,-0.32258 0.81268,0.43506 4.980689,4.92589 6.940817,7.47841 6.788724,8.84042 10.16414,16.16864 10.16414,22.06693 0,5.69949 -2.521935,9.20649 -8.709021,12.11077 -3.55629,1.66936 -8.809566,3.22677 -8.786948,2.60503 z m 26.367609,-6.12241 c 0,-0.27398 5.45386,-2.88499 7.67277,-3.67331 4.47454,-1.58969 9.41564,-1.99895 12.88995,-1.06765 1.86655,0.50034 4.74464,1.66457 5.76479,2.33194 0.31947,0.20899 0.6333,0.27023 0.74536,0.14545 0.10646,-0.11855 0.37717,-1.56464 0.60159,-3.21354 0.22442,-1.6489 0.61776,-4.02332 0.87409,-5.27648 1.35419,-6.62039 1.45533,-7.3489 1.46514,-10.55296 0.021,-6.84007 -1.92822,-13.87366 -6.28904,-22.69414 l -1.67453,-3.387011 -1.37416,-0.615345 c -1.9024,-0.851896 -5.11472,-1.751618 -7.49891,-2.100328 -2.39075,-0.349673 -8.00819,-0.171467 -11.01908,0.349562 -5.12143,0.886252 -5.68922,0.745006 -2.15797,-0.536829 4.34308,-1.576529 5.90757,-1.837137 10.90972,-1.817302 4.10392,0.01628 4.78311,0.07919 6.84881,0.634405 1.2612,0.338988 3.09547,0.933727 4.07615,1.321644 1.76166,0.696841 1.79697,0.728083 2.94183,2.603436 1.79316,2.937288 4.56364,8.691388 5.7948,12.035408 2.15879,5.86361 3.0404,11.81473 2.52803,17.06496 -0.34116,3.49591 -1.17151,7.2033 -2.23501,9.97904 -0.45359,1.18387 -1.29251,3.39367 -1.86426,4.91066 -0.57176,1.51699 -1.07153,2.80209 -1.1106,2.85577 -0.0391,0.0537 -0.87822,-0.137 -1.86479,-0.42374 -3.74292,-1.08785 -6.42902,-1.52116 -10.21676,-1.64813 -4.12796,-0.13838 -5.60625,0.066 -10.09436,1.39591 -3.93156,1.16495 -5.71356,1.59492 -5.71356,1.37858 z m 54.96459,-9.61435 c 0.19402,-0.60395 2.76895,-1.89671 5.33857,-2.68026 3.72258,-1.13512 7.79684,-2.00229 16.30464,-3.4703 3.14704,-0.54302 5.16923,-0.73706 8.87163,-0.85129 2.63752,-0.0814 5.33498,-0.21085 5.99435,-0.28771 1.37175,-0.15991 1.27727,0.11955 -0.19574,0.57897 -5.96266,1.85972 -9.90214,2.74641 -15.14979,3.40988 -14.41923,1.82304 -18.53198,2.49367 -20.06917,3.27247 -0.80662,0.40867 -1.22012,0.41934 -1.09449,0.0282 z m 35.8648,-7.77876 c 0.17309,-0.0693 0.37989,-0.0608 0.45957,0.0189 0.0797,0.0797 -0.0619,0.13639 -0.3147,0.12597 -0.27933,-0.0115 -0.33614,-0.0683 -0.14487,-0.1449 z m -3.31188,-0.71054 c -13.6912,-3.92845 -26.94795,-9.50357 -38.84983,-16.33827 -7.6056,-4.36755 -17.25627,-11.169451 -16.67391,-11.751967 0.23384,-0.233909 1.78435,0.607645 8.16838,4.433477 11.22175,6.72498 17.63346,10.28756 24.93649,13.85559 8.05395,3.9349 16.57105,7.44957 22.77853,9.3998 1.05501,0.33145 2.0207,0.70013 2.14598,0.81928 0.34665,0.32967 -0.24296,0.23133 -2.50564,-0.41791 z M 119.79174,87.609716 c -1.50321,-0.522197 -3.79147,-1.130098 -5.08502,-1.350893 -2.38035,-0.406301 -2.59437,-0.391184 -4.82993,0.341103 -0.65873,0.215777 -0.50837,-0.463208 0.26716,-1.206417 1.93952,-1.858691 6.02936,-1.732391 10.22735,0.315838 1.05198,0.513268 1.94611,0.899785 1.98696,0.858928 0.0408,-0.04086 0.22798,-1.084411 0.41585,-2.319007 0.86332,-5.673228 0.24135,-7.206533 -4.42997,-10.920903 -4.30096,-3.419888 -7.16276,-4.58806 -12.52181,-5.111355 -3.12191,-0.304844 -4.08612,-0.507701 -4.21225,-0.886195 -0.12873,-0.386279 0.41912,-0.524893 3.82751,-0.96841 2.928,-0.381005 3.26119,-0.380971 5.49643,4.8e-4 1.30871,0.223382 3.15916,0.730822 4.11209,1.127639 1.61806,0.673783 2.18647,1.007809 5.32079,3.126705 1.84534,1.247507 4.24664,3.795726 5.08801,5.399299 0.99864,1.903326 1.33526,4.00793 0.99434,6.216843 -0.28766,1.863853 -0.50585,2.373201 -2.03379,4.747777 -0.66858,1.03904 -1.19374,1.611579 -1.46615,1.598426 -0.23344,-0.01127 -1.65435,-0.447746 -3.15757,-0.96994 z"
       id="path7692"
       inkscape:connector-curvature="0" />
    <path
       style="fill:#6a9bba;stroke-width:0.23980705"
       d="m 118.32882,183.32101 c -8.85316,-0.33981 -18.701128,-1.54312 -25.241913,-3.08427 -2.541588,-0.59885 -3.857801,-1.12177 -3.653957,-1.45168 0.191013,-0.30915 3.917761,-0.3086 8.634969,0.001 11.754221,0.77214 21.984641,1.23132 32.129721,1.44208 13.98704,0.29059 18.05786,0.59537 17.35412,1.2993 -0.27221,0.27229 -3.73834,0.85147 -7.18162,1.20003 -5.77795,0.58489 -15.46574,0.84565 -22.04132,0.59326 z m 36.9252,-3.15986 c 0,-1.30458 2.5688,-8.35191 3.31547,-9.09576 0.22056,-0.21974 1.59759,-1.05443 3.06005,-1.85487 2.2525,-1.23284 2.83392,-1.67801 3.80294,-2.91175 0.62915,-0.80103 1.09195,-1.50839 1.02844,-1.5719 -0.0635,-0.0635 -1.50507,0.27772 -3.20349,0.75832 -7.10447,2.01034 -11.71187,2.95999 -12.63737,2.60475 -1.36543,-0.52411 0.85728,-1.4892 6.05732,-2.63005 3.57916,-0.78525 11.07769,-2.07677 11.22164,-1.93278 0.0943,0.0943 -1.08285,6.16593 -1.22249,6.30561 -0.0257,0.0257 -1.44635,0.74016 -3.15704,1.58771 l -3.11033,1.541 -1.31875,2.47391 c -1.52671,2.86401 -3.11121,5.30143 -3.53905,5.44408 -0.19783,0.066 -0.29734,-0.17443 -0.29734,-0.71827 z m -81.282969,-2.8508 c -2.004031,-0.23186 -4.920182,-0.93641 -7.021638,-1.69644 -1.278171,-0.46227 -1.450415,-0.61588 -2.204003,-1.96547 -1.932257,-3.46047 -2.995492,-6.9002 -2.271269,-7.34792 0.178258,-0.1102 0.41743,-0.14267 0.531498,-0.0721 0.336136,0.2078 2.648359,3.43378 3.624186,5.05641 0.64944,1.07991 1.080789,1.53933 1.543495,1.64396 0.353194,0.0799 1.235611,0.2906 1.960927,0.4683 0.725316,0.1777 3.41062,0.71021 5.967345,1.18335 2.556722,0.47315 4.870066,0.97883 5.140766,1.12375 l 0.49218,0.26347 -0.532608,0.4314 c -0.981213,0.79476 -4.45468,1.23254 -7.230879,0.91134 z m 5.154721,-5.81791 c -4.413625,-0.72498 -8.117904,-2.17363 -11.264093,-4.40511 -1.186069,-0.84124 -1.53342,-1.38501 -1.137625,-1.78091 0.266809,-0.26688 1.725234,0.0369 7.726125,1.6096 1.780322,0.46657 5.233068,1.22746 7.672769,1.69088 5.794369,1.10062 7.006767,1.44457 6.907604,1.95963 -0.04507,0.23407 -0.521166,0.53502 -1.154354,0.72969 -1.519577,0.46718 -6.430408,0.57731 -8.750426,0.19622 z m 7.792656,-5.67622 c -6.852411,-0.41394 -14.310387,-1.94128 -19.781356,-4.0511 -3.40305,-1.31235 -4.875553,-2.41214 -3.229603,-2.41214 0.421648,0 2.345834,0.26589 4.27597,0.59085 12.424283,2.09183 17.552308,2.58768 31.08335,3.00563 4.351901,0.13443 8.209261,0.30617 8.571921,0.38166 2.75738,0.57397 -3.37666,2.03042 -10.48602,2.48977 -4.182148,0.27022 -5.89628,0.26945 -10.434262,-0.005 z m 28.133322,-0.19127 c -2.2836,-0.14617 -2.99172,-0.32123 -2.65635,-0.6567 0.40824,-0.40835 5.72601,-1.11017 15.28461,-2.01721 13.7296,-1.30284 16.17118,-1.56129 23.85751,-2.52546 10.65358,-1.33638 19.4752,-3.18951 28.55256,-5.99794 l 2.65696,-0.82203 0.68945,-1.26356 c 0.3792,-0.69495 0.69414,-1.47941 0.69988,-1.74323 0.007,-0.31631 0.17374,-0.47968 0.48997,-0.47968 0.74336,0 0.59249,1.90595 -0.27747,3.5053 -0.66924,1.23032 -0.73394,1.27577 -3.55892,2.49992 -8.84783,3.83406 -21.01733,6.82159 -33.56836,8.24082 -9.0666,1.02522 -25.67404,1.67557 -32.16984,1.25977 z m 28.69312,-7.89496 c 0,-0.39644 2.83206,-1.32298 10.07051,-3.29467 1.78032,-0.48495 3.72249,-1.02598 4.31593,-1.2023 0.59344,-0.17631 2.69746,-0.76856 4.67559,-1.3161 20.20922,-5.59386 34.22677,-11.17803 47.19671,-18.80174 1.9568,-1.1502 3.92459,-2.26623 4.37286,-2.48005 2.03699,-0.97164 0.75213,0.69745 -2.65567,3.44984 -12.87484,10.39869 -34.38738,18.72946 -59.10429,22.88826 -4.7898,0.80592 -8.87164,1.1541 -8.87164,0.75676 z m -60.415519,-6.44438 c 0.01199,-0.32947 0.859753,-0.86703 4.635503,-2.93933 4.196784,-2.30338 5.420591,-3.11794 6.871919,-4.57392 2.381462,-2.3891 3.20608,-5.07432 2.678714,-8.72277 -0.667873,-4.62052 -3.086771,-9.83432 -8.753576,-18.86783 -4.360751,-6.95152 -5.141901,-8.24937 -5.317454,-8.83471 -0.14702,-0.49021 -0.11254,-0.53052 0.275906,-0.32258 0.81268,0.43506 4.980689,4.92589 6.940817,7.47841 6.788724,8.84042 10.16414,16.16864 10.16414,22.06693 0,5.69949 -2.521935,9.20649 -8.709021,12.11077 -3.55629,1.66936 -8.809566,3.22677 -8.786948,2.60503 z m 26.367609,-6.12241 c 0,-0.27398 5.45386,-2.88499 7.67277,-3.67331 4.47454,-1.58969 9.41564,-1.99895 12.88995,-1.06765 1.86655,0.50034 4.74464,1.66457 5.76479,2.33194 0.31947,0.20899 0.6333,0.27023 0.74536,0.14545 0.10646,-0.11855 0.37717,-1.56464 0.60159,-3.21354 0.22442,-1.6489 0.61776,-4.02332 0.87409,-5.27648 1.35419,-6.62039 1.45533,-7.3489 1.46514,-10.55296 0.021,-6.84007 -1.92822,-13.87366 -6.28904,-22.69414 l -1.67453,-3.387011 -1.37416,-0.615345 c -1.9024,-0.851896 -5.11472,-1.751618 -7.49891,-2.100328 -2.39075,-0.349673 -8.00819,-0.171467 -11.01908,0.349562 -5.12143,0.886252 -5.68922,0.745006 -2.15797,-0.536829 4.34308,-1.576529 5.90757,-1.837137 10.90972,-1.817302 4.10392,0.01628 4.78311,0.07919 6.84881,0.634405 1.2612,0.338988 3.09547,0.933727 4.07615,1.321644 1.76166,0.696841 1.79697,0.728083 2.94183,2.603436 1.79316,2.937288 4.56364,8.691388 5.7948,12.035408 2.15879,5.86361 3.0404,11.81473 2.52803,17.06496 -0.34116,3.49591 -1.17151,7.2033 -2.23501,9.97904 -0.45359,1.18387 -1.29251,3.39367 -1.86426,4.91066 -0.57176,1.51699 -1.07153,2.80209 -1.1106,2.85577 -0.0391,0.0537 -0.87822,-0.137 -1.86479,-0.42374 -3.74292,-1.08785 -6.42902,-1.52116 -10.21676,-1.64813 -4.12796,-0.13838 -5.60625,0.066 -10.09436,1.39591 -3.93156,1.16495 -5.71356,1.59492 -5.71356,1.37858 z m 54.96459,-9.61435 c 0.19402,-0.60395 2.76895,-1.89671 5.33857,-2.68026 3.72258,-1.13512 7.79684,-2.00229 16.30464,-3.4703 3.14704,-0.54302 5.16923,-0.73706 8.87163,-0.85129 2.63752,-0.0814 5.33498,-0.21085 5.99435,-0.28771 1.37175,-0.15991 1.27727,0.11955 -0.19574,0.57897 -5.96266,1.85972 -9.90214,2.74641 -15.14979,3.40988 -14.41923,1.82304 -18.53198,2.49367 -20.06917,3.27247 -0.80662,0.40867 -1.22012,0.41934 -1.09449,0.0282 z m 35.8648,-7.77876 c 0.17309,-0.0693 0.37989,-0.0608 0.45957,0.0189 0.0797,0.0797 -0.0619,0.13639 -0.3147,0.12597 -0.27933,-0.0115 -0.33614,-0.0683 -0.14487,-0.1449 z m -3.31188,-0.71054 c -13.6912,-3.92845 -26.94795,-9.50357 -38.84983,-16.33827 -7.6056,-4.36755 -17.25627,-11.169451 -16.67391,-11.751967 0.23384,-0.233909 1.78435,0.607645 8.16838,4.433477 11.22175,6.72498 17.63346,10.28756 24.93649,13.85559 8.05395,3.9349 16.57105,7.44957 22.77853,9.3998 1.05501,0.33145 2.0207,0.70013 2.14598,0.81928 0.34665,0.32967 -0.24296,0.23133 -2.50564,-0.41791 z"
       id="path7690"
       inkscape:connector-curvature="0" />
    <path
       style="fill:#4d78ba;stroke-width:0.23980705"
       d="m 118.32882,183.32101 c -8.85316,-0.33981 -18.701128,-1.54312 -25.241913,-3.08427 -2.541588,-0.59885 -3.857801,-1.12177 -3.653957,-1.45168 0.191013,-0.30915 3.917761,-0.3086 8.634969,0.001 11.754221,0.77214 21.984641,1.23132 32.129721,1.44208 13.98704,0.29059 18.05786,0.59537 17.35412,1.2993 -0.27221,0.27229 -3.73834,0.85147 -7.18162,1.20003 -5.77795,0.58489 -15.46574,0.84565 -22.04132,0.59326 z m 36.9252,-3.15986 c 0,-1.30458 2.5688,-8.35191 3.31547,-9.09576 0.22056,-0.21974 1.59759,-1.05443 3.06005,-1.85487 2.2525,-1.23284 2.83392,-1.67801 3.80294,-2.91175 0.62915,-0.80103 1.09195,-1.50839 1.02844,-1.5719 -0.0635,-0.0635 -1.50507,0.27772 -3.20349,0.75832 -7.10447,2.01034 -11.71187,2.95999 -12.63737,2.60475 -1.36543,-0.52411 0.85728,-1.4892 6.05732,-2.63005 3.57916,-0.78525 11.07769,-2.07677 11.22164,-1.93278 0.0943,0.0943 -1.08285,6.16593 -1.22249,6.30561 -0.0257,0.0257 -1.44635,0.74016 -3.15704,1.58771 l -3.11033,1.541 -1.31875,2.47391 c -1.52671,2.86401 -3.11121,5.30143 -3.53905,5.44408 -0.19783,0.066 -0.29734,-0.17443 -0.29734,-0.71827 z m -81.282969,-2.8508 c -2.004031,-0.23186 -4.920182,-0.93641 -7.021638,-1.69644 -1.278171,-0.46227 -1.450415,-0.61588 -2.204003,-1.96547 -1.932257,-3.46047 -2.995492,-6.9002 -2.271269,-7.34792 0.178258,-0.1102 0.41743,-0.14267 0.531498,-0.0721 0.336136,0.2078 2.648359,3.43378 3.624186,5.05641 0.64944,1.07991 1.080789,1.53933 1.543495,1.64396 0.353194,0.0799 1.235611,0.2906 1.960927,0.4683 0.725316,0.1777 3.41062,0.71021 5.967345,1.18335 2.556722,0.47315 4.870066,0.97883 5.140766,1.12375 l 0.49218,0.26347 -0.532608,0.4314 c -0.981213,0.79476 -4.45468,1.23254 -7.230879,0.91134 z m 5.154721,-5.81791 c -4.413625,-0.72498 -8.117904,-2.17363 -11.264093,-4.40511 -1.186069,-0.84124 -1.53342,-1.38501 -1.137625,-1.78091 0.266809,-0.26688 1.725234,0.0369 7.726125,1.6096 1.780322,0.46657 5.233068,1.22746 7.672769,1.69088 5.794369,1.10062 7.006767,1.44457 6.907604,1.95963 -0.04507,0.23407 -0.521166,0.53502 -1.154354,0.72969 -1.519577,0.46718 -6.430408,0.57731 -8.750426,0.19622 z m 7.792656,-5.67622 c -6.852411,-0.41394 -14.310387,-1.94128 -19.781356,-4.0511 -3.40305,-1.31235 -4.875553,-2.41214 -3.229603,-2.41214 0.421648,0 2.345834,0.26589 4.27597,0.59085 12.424283,2.09183 17.552308,2.58768 31.08335,3.00563 4.351901,0.13443 8.209261,0.30617 8.571921,0.38166 2.75738,0.57397 -3.37666,2.03042 -10.48602,2.48977 -4.182148,0.27022 -5.89628,0.26945 -10.434262,-0.005 z m 28.133322,-0.19127 c -2.2836,-0.14617 -2.99172,-0.32123 -2.65635,-0.6567 0.40824,-0.40835 5.72601,-1.11017 15.28461,-2.01721 13.7296,-1.30284 16.17118,-1.56129 23.85751,-2.52546 10.65358,-1.33638 19.4752,-3.18951 28.55256,-5.99794 l 2.65696,-0.82203 0.68945,-1.26356 c 0.3792,-0.69495 0.69414,-1.47941 0.69988,-1.74323 0.007,-0.31631 0.17374,-0.47968 0.48997,-0.47968 0.74336,0 0.59249,1.90595 -0.27747,3.5053 -0.66924,1.23032 -0.73394,1.27577 -3.55892,2.49992 -8.84783,3.83406 -21.01733,6.82159 -33.56836,8.24082 -9.0666,1.02522 -25.67404,1.67557 -32.16984,1.25977 z m 28.69312,-7.89496 c 0,-0.39644 2.83206,-1.32298 10.07051,-3.29467 1.78032,-0.48495 3.72249,-1.02598 4.31593,-1.2023 0.59344,-0.17631 2.69746,-0.76856 4.67559,-1.3161 20.20922,-5.59386 34.22677,-11.17803 47.19671,-18.80174 1.9568,-1.1502 3.92459,-2.26623 4.37286,-2.48005 2.03699,-0.97164 0.75213,0.69745 -2.65567,3.44984 -12.87484,10.39869 -34.38738,18.72946 -59.10429,22.88826 -4.7898,0.80592 -8.87164,1.1541 -8.87164,0.75676 z m -60.415519,-6.44438 c 0.01199,-0.32947 0.859753,-0.86703 4.635503,-2.93933 4.196784,-2.30338 5.420591,-3.11794 6.871919,-4.57392 2.381462,-2.3891 3.20608,-5.07432 2.678714,-8.72277 -0.667873,-4.62052 -3.086771,-9.83432 -8.753576,-18.86783 -4.360751,-6.95152 -5.141901,-8.24937 -5.317454,-8.83471 -0.14702,-0.49021 -0.11254,-0.53052 0.275906,-0.32258 0.81268,0.43506 4.980689,4.92589 6.940817,7.47841 6.788724,8.84042 10.16414,16.16864 10.16414,22.06693 0,5.69949 -2.521935,9.20649 -8.709021,12.11077 -3.55629,1.66936 -8.809566,3.22677 -8.786948,2.60503 z m 27.326699,-6.71786 c 6.64608,-3.87364 14.40965,-5.53783 19.48605,-4.177 1.805,0.48387 4.91374,1.72791 5.84798,2.34022 0.29727,0.19483 0.63891,0.29338 0.75922,0.219 0.12031,-0.0744 0.29399,-0.81219 0.38596,-1.63959 0.21437,-1.92866 1.13857,-7.1374 1.94785,-10.97805 0.78686,-3.73423 0.88209,-8.4091 0.24674,-12.11193 -0.90064,-5.24894 -3.11752,-11.6219 -6.06004,-17.42102 l -1.53775,-3.030623 -1.36665,-0.611976 c -1.92623,-0.862556 -5.34504,-1.81818 -7.60077,-2.124558 -2.33942,-0.317748 -8.09222,-0.121273 -10.90971,0.372601 -5.10785,0.895342 -5.69479,0.750066 -2.11825,-0.524296 4.27127,-1.521905 6.14582,-1.843336 10.75011,-1.843336 4.41493,0 5.69808,0.195316 9.47107,1.441647 3.13944,1.03705 3.38112,1.19373 4.33962,2.813421 9.16417,15.48577 10.87903,27.61303 5.75254,40.68105 -0.72882,1.85784 -1.57098,4.08253 -1.87146,4.94374 -0.30048,0.86122 -0.65459,1.56502 -0.78691,1.56401 -0.13231,-9.6e-4 -0.94191,-0.21968 -1.7991,-0.48594 -3.72107,-1.15583 -7.31833,-1.69314 -11.3044,-1.68851 -3.17878,0.004 -4.84539,0.30211 -10.2083,1.82783 -2.06468,0.58739 -3.92245,1.06667 -4.12837,1.06508 -0.20592,-0.002 0.11113,-0.28588 0.70457,-0.63177 z m 54.18893,-9.07585 c 0,-0.0643 0.42873,-0.38763 0.95272,-0.71851 2.24428,-1.41714 7.39648,-2.81653 16.31101,-4.43023 1.51657,-0.27453 3.29689,-0.60098 3.95627,-0.72544 2.54262,-0.47993 5.21859,-0.73208 10.06602,-0.94851 2.76693,-0.12353 5.05825,-0.19712 5.09184,-0.16352 0.0523,0.0523 -4.29456,1.30771 -8.50338,2.45579 -1.33577,0.36437 -3.03832,0.62896 -7.49369,1.16459 -3.06489,0.36846 -9.22274,1.17705 -11.9887,1.57423 -2.79216,0.40095 -6.45998,1.17674 -7.37863,1.56068 -0.91181,0.38108 -1.01346,0.40424 -1.01346,0.23092 z m 29.61209,-9.47669 c -0.3162,-0.13592 -0.35704,-0.21062 -0.11989,-0.21931 0.19782,-0.007 0.52151,0.0914 0.71933,0.21931 0.4383,0.28332 0.0597,0.28332 -0.59944,0 z m -5.27503,-1.66298 c -6.52066,-2.24436 -10.13529,-3.65718 -16.42452,-6.41971 -2.44219,-1.07273 -10.80484,-5.36776 -13.98065,-7.18041 -5.81704,-3.32019 -13.31181,-8.3658 -16.07968,-10.825137 -1.61312,-1.433306 -0.17449,-0.697779 6.74281,3.447377 6.55957,3.9308 13.62691,8.01235 17.20329,9.93529 2.32668,1.25101 12.25568,6.22988 12.42379,6.22988 0.066,0 1.12805,0.46871 2.36009,1.04156 1.23204,0.57286 4.34409,1.87419 6.91566,2.89184 5.71413,2.26125 5.73056,2.26834 5.27503,2.27614 -0.19781,0.003 -2.19393,-0.62519 -4.43582,-1.39683 z"
       id="path7688"
       inkscape:connector-curvature="0" />
    <path
       style="fill:#e74235;stroke-width:0.23980705"
       d="m 118.32882,183.32101 c -8.85316,-0.33981 -18.701128,-1.54312 -25.241913,-3.08427 -2.541588,-0.59885 -3.857801,-1.12177 -3.653957,-1.45168 0.191013,-0.30915 3.917761,-0.3086 8.634969,0.001 11.754221,0.77214 21.984641,1.23132 32.129721,1.44208 13.98704,0.29059 18.05786,0.59537 17.35412,1.2993 -0.27221,0.27229 -3.73834,0.85147 -7.18162,1.20003 -5.77795,0.58489 -15.46574,0.84565 -22.04132,0.59326 z m 36.9252,-3.15986 c 0,-1.30458 2.5688,-8.35191 3.31547,-9.09576 0.22056,-0.21974 1.59759,-1.05443 3.06005,-1.85487 2.2525,-1.23284 2.83392,-1.67801 3.80294,-2.91175 0.62915,-0.80103 1.09195,-1.50839 1.02844,-1.5719 -0.0635,-0.0635 -1.50507,0.27772 -3.20349,0.75832 -7.10447,2.01034 -11.71187,2.95999 -12.63737,2.60475 -1.36543,-0.52411 0.85728,-1.4892 6.05732,-2.63005 3.57916,-0.78525 11.07769,-2.07677 11.22164,-1.93278 0.0943,0.0943 -1.08285,6.16593 -1.22249,6.30561 -0.0257,0.0257 -1.44635,0.74016 -3.15704,1.58771 l -3.11033,1.541 -1.31875,2.47391 c -1.52671,2.86401 -3.11121,5.30143 -3.53905,5.44408 -0.19783,0.066 -0.29734,-0.17443 -0.29734,-0.71827 z m -81.282969,-2.8508 c -2.004031,-0.23186 -4.920182,-0.93641 -7.021638,-1.69644 -1.278171,-0.46227 -1.450415,-0.61588 -2.204003,-1.96547 -1.932257,-3.46047 -2.995492,-6.9002 -2.271269,-7.34792 0.178258,-0.1102 0.41743,-0.14267 0.531498,-0.0721 0.336136,0.2078 2.648359,3.43378 3.624186,5.05641 0.64944,1.07991 1.080789,1.53933 1.543495,1.64396 0.353194,0.0799 1.235611,0.2906 1.960927,0.4683 0.725316,0.1777 3.41062,0.71021 5.967345,1.18335 2.556722,0.47315 4.870066,0.97883 5.140766,1.12375 l 0.49218,0.26347 -0.532608,0.4314 c -0.981213,0.79476 -4.45468,1.23254 -7.230879,0.91134 z m 5.154721,-5.81791 c -4.413625,-0.72498 -8.117904,-2.17363 -11.264093,-4.40511 -1.186069,-0.84124 -1.53342,-1.38501 -1.137625,-1.78091 0.266809,-0.26688 1.725234,0.0369 7.726125,1.6096 1.780322,0.46657 5.233068,1.22746 7.672769,1.69088 5.794369,1.10062 7.006767,1.44457 6.907604,1.95963 -0.04507,0.23407 -0.521166,0.53502 -1.154354,0.72969 -1.519577,0.46718 -6.430408,0.57731 -8.750426,0.19622 z m 7.792656,-5.67622 c -6.852411,-0.41394 -14.310387,-1.94128 -19.781356,-4.0511 -3.40305,-1.31235 -4.875553,-2.41214 -3.229603,-2.41214 0.421648,0 2.345834,0.26589 4.27597,0.59085 12.424283,2.09183 17.552308,2.58768 31.08335,3.00563 4.351901,0.13443 8.209261,0.30617 8.571921,0.38166 2.75738,0.57397 -3.37666,2.03042 -10.48602,2.48977 -4.182148,0.27022 -5.89628,0.26945 -10.434262,-0.005 z m 28.133322,-0.19127 c -2.2836,-0.14617 -2.99172,-0.32123 -2.65635,-0.6567 0.40824,-0.40835 5.72601,-1.11017 15.28461,-2.01721 13.7296,-1.30284 16.17118,-1.56129 23.85751,-2.52546 10.65358,-1.33638 19.4752,-3.18951 28.55256,-5.99794 l 2.65696,-0.82203 0.68945,-1.26356 c 0.3792,-0.69495 0.69414,-1.47941 0.69988,-1.74323 0.007,-0.31631 0.17374,-0.47968 0.48997,-0.47968 0.74336,0 0.59249,1.90595 -0.27747,3.5053 -0.66924,1.23032 -0.73394,1.27577 -3.55892,2.49992 -8.84783,3.83406 -21.01733,6.82159 -33.56836,8.24082 -9.0666,1.02522 -25.67404,1.67557 -32.16984,1.25977 z m 28.69312,-7.89496 c 0,-0.39644 2.83206,-1.32298 10.07051,-3.29467 1.78032,-0.48495 3.72249,-1.02598 4.31593,-1.2023 0.59344,-0.17631 2.69746,-0.76856 4.67559,-1.3161 20.20922,-5.59386 34.22677,-11.17803 47.19671,-18.80174 1.9568,-1.1502 3.92459,-2.26623 4.37286,-2.48005 2.03699,-0.97164 0.75213,0.69745 -2.65567,3.44984 -12.87484,10.39869 -34.38738,18.72946 -59.10429,22.88826 -4.7898,0.80592 -8.87164,1.1541 -8.87164,0.75676 z m -60.415519,-6.44438 c 0.01199,-0.32947 0.859753,-0.86703 4.635503,-2.93933 4.196784,-2.30338 5.420591,-3.11794 6.871919,-4.57392 2.381462,-2.3891 3.20608,-5.07432 2.678714,-8.72277 -0.667873,-4.62052 -3.086771,-9.83432 -8.753576,-18.86783 -4.360751,-6.95152 -5.141901,-8.24937 -5.317454,-8.83471 -0.14702,-0.49021 -0.11254,-0.53052 0.275906,-0.32258 0.81268,0.43506 4.980689,4.92589 6.940817,7.47841 6.788724,8.84042 10.16414,16.16864 10.16414,22.06693 0,5.69949 -2.521935,9.20649 -8.709021,12.11077 -3.55629,1.66936 -8.809566,3.22677 -8.786948,2.60503 z m 27.326699,-6.71786 c 6.64608,-3.87364 14.40965,-5.53783 19.48605,-4.177 1.805,0.48387 4.91374,1.72791 5.84798,2.34022 0.29727,0.19483 0.63891,0.29338 0.75922,0.219 0.12031,-0.0744 0.29399,-0.81219 0.38596,-1.63959 0.21437,-1.92866 1.13857,-7.1374 1.94785,-10.97805 0.78686,-3.73423 0.88209,-8.4091 0.24674,-12.11193 -0.90064,-5.24894 -3.11752,-11.6219 -6.06004,-17.42102 l -1.53775,-3.030623 -1.36665,-0.611976 c -1.92623,-0.862556 -5.34504,-1.81818 -7.60077,-2.124558 -2.33942,-0.317748 -8.09222,-0.121273 -10.90971,0.372601 -5.10785,0.895342 -5.69479,0.750066 -2.11825,-0.524296 4.27127,-1.521905 6.14582,-1.843336 10.75011,-1.843336 4.41493,0 5.69808,0.195316 9.47107,1.441647 3.13944,1.03705 3.38112,1.19373 4.33962,2.813421 9.16417,15.48577 10.87903,27.61303 5.75254,40.68105 -0.72882,1.85784 -1.57098,4.08253 -1.87146,4.94374 -0.30048,0.86122 -0.65459,1.56502 -0.78691,1.56401 -0.13231,-9.6e-4 -0.94191,-0.21968 -1.7991,-0.48594 -3.72107,-1.15583 -7.31833,-1.69314 -11.3044,-1.68851 -3.17878,0.004 -4.84539,0.30211 -10.2083,1.82783 -2.06468,0.58739 -3.92245,1.06667 -4.12837,1.06508 -0.20592,-0.002 0.11113,-0.28588 0.70457,-0.63177 z"
       id="path7686"
       inkscape:connector-curvature="0" />
    <path
       style="fill:#e63c2e;stroke-width:0.23980705"
       d="m 118.32882,183.32101 c -8.85316,-0.33981 -18.701128,-1.54312 -25.241913,-3.08427 -2.541588,-0.59885 -3.857801,-1.12177 -3.653957,-1.45168 0.191013,-0.30915 3.917761,-0.3086 8.634969,0.001 11.754221,0.77214 21.984641,1.23132 32.129721,1.44208 13.98704,0.29059 18.05786,0.59537 17.35412,1.2993 -0.27221,0.27229 -3.73834,0.85147 -7.18162,1.20003 -5.77795,0.58489 -15.46574,0.84565 -22.04132,0.59326 z m 36.9252,-3.15986 c 0,-1.30458 2.5688,-8.35191 3.31547,-9.09576 0.22056,-0.21974 1.59759,-1.05443 3.06005,-1.85487 2.2525,-1.23284 2.83392,-1.67801 3.80294,-2.91175 0.62915,-0.80103 1.09195,-1.50839 1.02844,-1.5719 -0.0635,-0.0635 -1.50507,0.27772 -3.20349,0.75832 -7.10447,2.01034 -11.71187,2.95999 -12.63737,2.60475 -1.36543,-0.52411 0.85728,-1.4892 6.05732,-2.63005 3.57916,-0.78525 11.07769,-2.07677 11.22164,-1.93278 0.0943,0.0943 -1.08285,6.16593 -1.22249,6.30561 -0.0257,0.0257 -1.44635,0.74016 -3.15704,1.58771 l -3.11033,1.541 -1.31875,2.47391 c -1.52671,2.86401 -3.11121,5.30143 -3.53905,5.44408 -0.19783,0.066 -0.29734,-0.17443 -0.29734,-0.71827 z m -81.282969,-2.8508 c -2.004031,-0.23186 -4.920182,-0.93641 -7.021638,-1.69644 -1.278171,-0.46227 -1.450415,-0.61588 -2.204003,-1.96547 -1.932257,-3.46047 -2.995492,-6.9002 -2.271269,-7.34792 0.178258,-0.1102 0.41743,-0.14267 0.531498,-0.0721 0.336136,0.2078 2.648359,3.43378 3.624186,5.05641 0.64944,1.07991 1.080789,1.53933 1.543495,1.64396 0.353194,0.0799 1.235611,0.2906 1.960927,0.4683 0.725316,0.1777 3.41062,0.71021 5.967345,1.18335 2.556722,0.47315 4.870066,0.97883 5.140766,1.12375 l 0.49218,0.26347 -0.532608,0.4314 c -0.981213,0.79476 -4.45468,1.23254 -7.230879,0.91134 z m 5.154721,-5.81791 c -4.413625,-0.72498 -8.117904,-2.17363 -11.264093,-4.40511 -1.186069,-0.84124 -1.53342,-1.38501 -1.137625,-1.78091 0.266809,-0.26688 1.725234,0.0369 7.726125,1.6096 1.780322,0.46657 5.233068,1.22746 7.672769,1.69088 5.794369,1.10062 7.006767,1.44457 6.907604,1.95963 -0.04507,0.23407 -0.521166,0.53502 -1.154354,0.72969 -1.519577,0.46718 -6.430408,0.57731 -8.750426,0.19622 z m 7.792656,-5.67622 c -6.852411,-0.41394 -14.310387,-1.94128 -19.781356,-4.0511 -3.40305,-1.31235 -4.875553,-2.41214 -3.229603,-2.41214 0.421648,0 2.345834,0.26589 4.27597,0.59085 12.424283,2.09183 17.552308,2.58768 31.08335,3.00563 4.351901,0.13443 8.209261,0.30617 8.571921,0.38166 2.75738,0.57397 -3.37666,2.03042 -10.48602,2.48977 -4.182148,0.27022 -5.89628,0.26945 -10.434262,-0.005 z m 28.133322,-0.19127 c -2.2836,-0.14617 -2.99172,-0.32123 -2.65635,-0.6567 0.40824,-0.40835 5.72601,-1.11017 15.28461,-2.01721 13.7296,-1.30284 16.17118,-1.56129 23.85751,-2.52546 10.65358,-1.33638 19.4752,-3.18951 28.55256,-5.99794 l 2.65696,-0.82203 0.68945,-1.26356 c 0.3792,-0.69495 0.69414,-1.47941 0.69988,-1.74323 0.007,-0.31631 0.17374,-0.47968 0.48997,-0.47968 0.74336,0 0.59249,1.90595 -0.27747,3.5053 -0.66924,1.23032 -0.73394,1.27577 -3.55892,2.49992 -8.84783,3.83406 -21.01733,6.82159 -33.56836,8.24082 -9.0666,1.02522 -25.67404,1.67557 -32.16984,1.25977 z m 28.69312,-7.89496 c 0,-0.39644 2.83206,-1.32298 10.07051,-3.29467 1.78032,-0.48495 3.72249,-1.02598 4.31593,-1.2023 0.59344,-0.17631 2.69746,-0.76856 4.67559,-1.3161 20.20922,-5.59386 34.22677,-11.17803 47.19671,-18.80174 1.9568,-1.1502 3.92459,-2.26623 4.37286,-2.48005 2.03699,-0.97164 0.75213,0.69745 -2.65567,3.44984 -12.87484,10.39869 -34.38738,18.72946 -59.10429,22.88826 -4.7898,0.80592 -8.87164,1.1541 -8.87164,0.75676 z M 83.321818,151.3245 c 0,-0.0626 0.3261,-0.28244 0.724669,-0.48861 0.51987,-0.26891 0.841741,-0.3066 1.138926,-0.13337 0.340853,0.19868 0.278682,0.24276 -0.350856,0.24876 -0.420813,0.004 -0.8318,0.11523 -0.913304,0.24714 -0.149574,0.24208 -0.599435,0.3367 -0.599435,0.12608 z m 2.637514,-0.8456 c 0,-0.13191 0.168216,-0.23984 0.373812,-0.23984 0.205597,0 0.307127,0.10793 0.225623,0.23984 -0.0815,0.13191 -0.24972,0.23984 -0.373813,0.23984 -0.124092,0 -0.225622,-0.10793 -0.225622,-0.23984 z m -0.719322,-0.30115 c 0.289191,-0.30631 2.877288,-1.59386 2.877288,-1.43143 0,0.0992 -0.556017,0.44861 -1.235592,0.77656 -1.387533,0.66958 -1.817532,0.84111 -1.641696,0.65487 z m 2.157966,-0.17853 c 0.329689,-0.10562 0.815232,-0.19203 1.078983,-0.19203 0.379723,0 0.354765,0.04 -0.119887,0.19203 -0.329689,0.10561 -0.815232,0.19202 -1.078983,0.19202 -0.379723,0 -0.354765,-0.04 0.119887,-0.19202 z m 2.038079,-0.71952 c 0.263751,-0.11337 0.641395,-0.20613 0.839209,-0.20613 0.226702,0 0.182382,0.0762 -0.119887,0.20613 -0.263751,0.11337 -0.641395,0.20612 -0.839209,0.20612 -0.226702,0 -0.182382,-0.0762 0.119887,-0.20612 z m 1.318757,-0.47452 c 0,-0.19713 1.18838,-0.57528 1.337898,-0.42572 0.04534,0.0454 -0.237134,0.20312 -0.627728,0.3506 -0.390592,0.14747 -0.71017,0.18128 -0.71017,0.0751 z m -1.558531,-0.83835 c 0.527503,-0.32498 1.066994,-0.59088 1.19887,-0.59088 0.131876,0 -0.191819,0.2659 -0.719322,0.59088 -0.527503,0.32499 -1.066994,0.59089 -1.19887,0.59089 -0.131876,0 0.191819,-0.2659 0.719322,-0.59089 z m 3.236949,0.10788 c 0,-0.19031 1.454961,-0.77736 1.590536,-0.64175 0.04077,0.0408 -0.30042,0.24397 -0.758204,0.45152 -0.457783,0.20755 -0.832332,0.29315 -0.832332,0.19023 z m -1.676903,-0.90477 c 7.2e-4,-0.0928 0.32453,-0.35258 0.719322,-0.57729 0.394796,-0.22471 0.717124,-0.33264 0.716292,-0.23984 -7.2e-4,0.0928 -0.32453,0.35258 -0.719322,0.57729 -0.394795,0.22471 -0.717124,0.33264 -0.716292,0.23984 z m 3.951867,-0.33979 c 0.262164,-0.15203 0.585859,-0.36577 0.719322,-0.475 0.133465,-0.10923 0.549116,-0.42877 0.923669,-0.71009 0.374556,-0.28132 1.10287,-1.04534 1.618475,-1.69781 0.515608,-0.65247 0.937468,-1.10679 0.937468,-1.00959 0,0.65583 -3.725378,4.1938 -4.397407,4.17618 -0.153002,-0.004 -0.06369,-0.13167 0.198473,-0.28369 z m -2.274964,-0.76263 c 0,-0.0519 0.167451,-0.15854 0.372115,-0.2371 0.21338,-0.0819 0.309625,-0.0417 0.225623,0.0943 -0.14081,0.2279 -0.597738,0.33708 -0.597738,0.14284 z m 2.517627,-2.06431 c 1.148899,-1.16676 1.318757,-1.30821 1.318757,-1.09821 0,0.16301 -2.181138,2.29741 -2.347713,2.29741 -0.08354,0 0.379492,-0.53964 1.028956,-1.1992 z m 15.705193,0.56454 c 6.64608,-3.87364 14.40965,-5.53783 19.48605,-4.177 1.805,0.48387 4.91374,1.72791 5.84798,2.34022 0.29727,0.19483 0.63891,0.29338 0.75922,0.219 0.12031,-0.0744 0.29399,-0.81219 0.38596,-1.63959 0.21437,-1.92866 1.13857,-7.1374 1.94785,-10.97805 0.78686,-3.73423 0.88209,-8.4091 0.24674,-12.11193 -0.90064,-5.24894 -3.11752,-11.6219 -6.06004,-17.42102 l -1.53775,-3.030623 -1.36665,-0.611976 c -1.92623,-0.862556 -5.34504,-1.81818 -7.60077,-2.124558 -2.33942,-0.317748 -8.09222,-0.121273 -10.90971,0.372601 -5.10785,0.895342 -5.69479,0.750066 -2.11825,-0.524296 4.27127,-1.521905 6.14582,-1.843336 10.75011,-1.843336 4.41493,0 5.69808,0.195316 9.47107,1.441647 3.13944,1.03705 3.38112,1.19373 4.33962,2.813421 9.16417,15.48577 10.87903,27.61303 5.75254,40.68105 -0.72882,1.85784 -1.57098,4.08253 -1.87146,4.94374 -0.30048,0.86122 -0.65459,1.56502 -0.78691,1.56401 -0.13231,-9.6e-4 -0.94191,-0.21968 -1.7991,-0.48594 -3.72107,-1.15583 -7.31833,-1.69314 -11.3044,-1.68851 -3.17878,0.004 -4.84539,0.30211 -10.2083,1.82783 -2.06468,0.58739 -3.92245,1.06667 -4.12837,1.06508 -0.20592,-0.002 0.11113,-0.28588 0.70457,-0.63177 z M 96.558223,142.0954 c 0.16097,-0.25782 0.326273,-0.43516 0.367336,-0.39409 0.142131,0.14217 -0.228593,0.86286 -0.443855,0.86286 -0.118885,0 -0.08445,-0.21094 0.07652,-0.46877 z m 2.609204,0.34885 c 0.02497,-0.45431 0.424582,-1.21931 0.438499,-0.83944 0.0072,0.19787 -0.09141,0.52166 -0.21925,0.71952 -0.127837,0.19787 -0.2265,0.25184 -0.219249,0.11992 z m 0.459023,-1.67888 c 0,-0.19787 0.107899,-0.35976 0.239774,-0.35976 0.131876,0 0.239776,0.16189 0.239776,0.35976 0,0.19787 -0.1079,0.35976 -0.239776,0.35976 -0.131875,0 -0.239774,-0.16189 -0.239774,-0.35976 z m -1.995212,-0.95936 c 0.07615,-0.65956 0.178589,-1.24417 0.22763,-1.29913 0.168508,-0.18886 0.04123,1.29952 -0.162366,1.89873 -0.137393,0.40436 -0.158644,0.20912 -0.06526,-0.5996 z m 2.530392,-0.35976 c 0,-0.46169 0.0493,-0.65056 0.10965,-0.41972 0.0603,0.23085 0.0603,0.6086 0,0.83944 -0.0603,0.23085 -0.10965,0.042 -0.10965,-0.41972 z m 0.2311,-2.30326 c -0.0258,-0.8051 -0.0968,-2.1542 -0.1577,-2.998 l -0.11075,-1.53418 0.2349,1.43904 c 0.1292,0.79147 0.20016,2.14057 0.15771,2.998 l -0.0772,1.55896 z m -2.139619,-0.0951 c 0,-0.5936 0.04676,-0.83644 0.103911,-0.53964 0.05715,0.2968 0.05715,0.78248 0,1.07928 -0.05715,0.2968 -0.103911,0.054 -0.103911,-0.53964 z m -0.484386,-2.51832 c 0.0027,-0.52765 0.05176,-0.71526 0.109116,-0.41692 0.05735,0.29834 0.05517,0.73005 -0.0048,0.95936 -0.06001,0.22931 -0.106939,-0.0148 -0.104277,-0.54244 z m -0.253497,-1.67888 c 0.0049,-0.39574 0.05863,-0.52859 0.119417,-0.29524 0.06079,0.23336 0.0568,0.55714 -0.0089,0.71952 -0.06568,0.16238 -0.11542,-0.0285 -0.110534,-0.42428 z m 2.111222,-0.97352 c 0,-0.20565 0.107899,-0.30721 0.239774,-0.22568 0.131876,0.0815 0.239776,0.24979 0.239776,0.37391 0,0.12413 -0.1079,0.22569 -0.239776,0.22569 -0.131875,0 -0.239774,-0.16826 -0.239774,-0.37392 z m -2.637514,-0.22568 c 0,-0.19787 0.04241,-0.35976 0.09423,-0.35976 0.05183,0 0.15634,0.16189 0.23225,0.35976 0.07591,0.19787 0.0335,0.35976 -0.09423,0.35976 -0.127737,0 -0.23225,-0.16189 -0.23225,-0.35976 z m 2.435598,-0.83944 c 0,-0.32978 0.05442,-0.46469 0.12094,-0.2998 0.06652,0.16489 0.06652,0.43471 0,0.5996 -0.06652,0.16489 -0.12094,0.03 -0.12094,-0.2998 z m -2.656442,-0.13991 c 0.01151,-0.2794 0.06832,-0.33623 0.144862,-0.1449 0.06926,0.17313 0.06075,0.38 -0.01892,0.45969 -0.07967,0.0797 -0.136345,-0.062 -0.125934,-0.31479 z m -0.378591,-0.81945 c -0.0815,-0.13191 -0.03392,-0.23984 0.105736,-0.23984 0.139659,0 0.253925,0.10793 0.253925,0.23984 0,0.13191 -0.04758,0.23984 -0.105735,0.23984 -0.05815,0 -0.172422,-0.10793 -0.253926,-0.23984 z m 2.657404,0.0322 c -0.103288,-0.16717 -0.123043,-0.36872 -0.0439,-0.44788 0.214591,-0.21465 0.448562,0.10104 0.332661,0.44885 -0.08122,0.24371 -0.137696,0.24352 -0.28876,-9.6e-4 z m -2.998135,-0.89162 c 0.01151,-0.2794 0.06832,-0.33623 0.144862,-0.1449 0.06926,0.17313 0.06075,0.38 -0.01892,0.45969 -0.07967,0.0797 -0.136345,-0.062 -0.125934,-0.31479 z m 2.515824,-0.47682 c -0.08819,-0.35149 -0.11411,-0.68533 -0.05759,-0.74186 0.05652,-0.0565 0.174918,0.18479 0.263111,0.53628 0.08819,0.35149 0.114111,0.68532 0.05759,0.74186 -0.05652,0.0565 -0.174918,-0.1848 -0.263112,-0.53628 z m -3.255553,-1.08214 c -7.19e-4,-0.18688 -0.15626,-0.63658 -0.345442,-0.99933 -0.189179,-0.36276 -0.250833,-0.65956 -0.137005,-0.65956 0.260376,0 0.822236,1.66026 0.627707,1.85484 -0.07908,0.0791 -0.144447,-0.009 -0.14526,-0.19595 z m 2.638991,-0.23401 c 0,-0.1397 0.107899,-0.18729 0.239774,-0.10576 0.131876,0.0815 0.239774,0.19582 0.239774,0.25399 0,0.0582 -0.107898,0.10577 -0.239774,0.10577 -0.131875,0 -0.239774,-0.1143 -0.239774,-0.254 z m -0.719322,-1.43904 c 0,-0.1397 0.107899,-0.18729 0.239774,-0.10576 0.131876,0.0815 0.239774,0.19582 0.239774,0.25399 0,0.0582 -0.107898,0.10577 -0.239774,0.10577 -0.131875,0 -0.239774,-0.1143 -0.239774,-0.254 z m -0.330039,-0.83456 c -0.231377,-0.60312 -0.163121,-0.75874 0.119535,-0.27254 0.139953,0.24074 0.203951,0.48824 0.142217,0.54999 -0.06173,0.0618 -0.179524,-0.0631 -0.261752,-0.27745 z m -2.90691,-0.35048 c -0.0815,-0.13192 -0.03392,-0.23984 0.105736,-0.23984 0.139658,0 0.253925,0.10792 0.253925,0.23984 0,0.13191 -0.04758,0.23984 -0.105735,0.23984 -0.05815,0 -0.172422,-0.10793 -0.253926,-0.23984 z m -0.449926,-0.84872 c -0.231377,-0.60312 -0.163121,-0.75874 0.119534,-0.27254 0.139954,0.24074 0.203952,0.48824 0.142218,0.54999 -0.06173,0.0617 -0.179524,-0.0631 -0.261752,-0.27745 z m -0.763268,-1.40146 c -0.08665,-0.34535 -0.243196,-0.62791 -0.347874,-0.62791 -0.104678,0 -0.312126,-0.2968 -0.460992,-0.65956 -0.282415,-0.68819 -0.557501,-1.16814 -1.310221,-2.28596 -0.247046,-0.36688 -0.38061,-0.73563 -0.296809,-0.81945 0.0838,-0.0838 0.152367,-0.043 0.152367,0.0907 0,0.13371 0.215797,0.492 0.479548,0.79619 0.263751,0.30419 0.479548,0.69846 0.479548,0.87614 0,0.17768 0.09734,0.32306 0.216317,0.32306 0.118976,0 0.339093,0.29681 0.489149,0.65956 0.150055,0.36276 0.440162,0.96455 0.644682,1.3373 0.20452,0.37275 0.313349,0.73626 0.241844,0.80778 -0.07151,0.0715 -0.200907,-0.15251 -0.287559,-0.49785 z m 2.616668,-0.0539 c -0.09149,-0.24972 -0.363775,-0.71144 -0.605079,-1.02603 -0.241304,-0.31459 -0.438734,-0.68386 -0.438734,-0.8206 0,-0.13674 0.336976,0.26027 0.748838,0.88224 0.41186,0.62196 0.684145,1.19555 0.605077,1.27464 -0.07906,0.0791 -0.218611,-0.0605 -0.310102,-0.31025 z m -1.613626,-2.62188 c -0.231377,-0.60312 -0.163121,-0.75874 0.119534,-0.27254 0.139954,0.24074 0.203952,0.48823 0.142218,0.54999 -0.06173,0.0617 -0.179524,-0.0631 -0.261752,-0.27745 z m -1.168548,-1.66753 c -0.362659,-0.56302 -0.659379,-1.10517 -0.659379,-1.20478 0,-0.23378 0.800116,0.79671 1.182549,1.52305 0.505686,0.96042 0.168252,0.75515 -0.52317,-0.31827 z m -3.105911,-1.08287 c -0.224649,-0.39491 -0.332547,-0.71732 -0.239774,-0.71649 0.09277,7.2e-4 0.352483,0.32462 0.577132,0.71952 0.224649,0.3949 0.332547,0.71732 0.239774,0.71649 -0.09277,-7.2e-4 -0.352483,-0.32462 -0.577132,-0.71952 z m 1.533672,-1.14418 c -0.304259,-0.49112 -1.037579,-1.43259 -1.6296,-2.09215 -1.126859,-1.25541 -1.790556,-2.22574 -1.325917,-1.9385 0.366235,0.22641 3.628603,4.47635 3.628603,4.72704 0,0.33824 -0.08945,0.24569 -0.673086,-0.69639 z m -2.294467,-0.1827 c -0.231378,-0.60312 -0.163121,-0.75875 0.119534,-0.27254 0.139954,0.24074 0.203952,0.48823 0.142217,0.54998 -0.06173,0.0618 -0.179523,-0.0631 -0.261751,-0.27744 z m -0.922126,-1.32533 c -0.222172,-0.38722 -0.318388,-0.70404 -0.213813,-0.70404 0.197024,0 0.820979,1.20481 0.691187,1.33463 -0.04038,0.0404 -0.255199,-0.24337 -0.477374,-0.63059 z m -1.120221,-1.79033 c -0.315744,-0.46375 -0.504567,-0.91271 -0.419605,-0.9977 0.08496,-0.085 0.154477,-0.0451 0.154477,0.0886 0,0.13371 0.215796,0.492 0.479548,0.79619 0.409251,0.472 0.624513,0.96332 0.419604,0.95772 -0.03297,-9.6e-4 -0.31828,-0.38107 -0.634024,-0.84481 z m -0.332174,-2.33312 c -0.850389,-0.93308 -1.197443,-1.17494 -1.345333,-0.93756 -0.158549,0.25449 -0.230802,0.2378 -0.353336,-0.0816 -0.08472,-0.22083 -0.08203,-0.51804 0.006,-0.66046 0.09655,-0.15627 0.02263,-0.20623 -0.1864,-0.126 -0.212119,0.0814 -0.450986,-0.0887 -0.61621,-0.43892 -0.148401,-0.31453 -0.190778,-0.57188 -0.09418,-0.57188 0.209143,0 3.855406,3.71664 3.855406,3.92982 0,0.25542 -0.09284,0.17376 -1.265916,-1.11339 z m -0.945345,0.28601 c -0.222172,-0.38722 -0.318389,-0.70404 -0.213813,-0.70404 0.197024,0 0.820979,1.2048 0.691186,1.33463 -0.04038,0.0404 -0.255198,-0.24337 -0.477373,-0.63059 z"
       id="path7684"
       inkscape:connector-curvature="0" />
    <path
       style="fill:#33a753;stroke-width:0.23980705"
       d="m 118.32882,183.32101 c -8.85316,-0.33981 -18.701128,-1.54312 -25.241913,-3.08427 -2.541588,-0.59885 -3.857801,-1.12177 -3.653957,-1.45168 0.191013,-0.30915 3.917761,-0.3086 8.634969,0.001 11.754221,0.77214 21.984641,1.23132 32.129721,1.44208 13.98704,0.29059 18.05786,0.59537 17.35412,1.2993 -0.27221,0.27229 -3.73834,0.85147 -7.18162,1.20003 -5.77795,0.58489 -15.46574,0.84565 -22.04132,0.59326 z m 36.9252,-3.15986 c 0,-1.30458 2.5688,-8.35191 3.31547,-9.09576 0.22056,-0.21974 1.59759,-1.05443 3.06005,-1.85487 2.2525,-1.23284 2.83392,-1.67801 3.80294,-2.91175 0.62915,-0.80103 1.09195,-1.50839 1.02844,-1.5719 -0.0635,-0.0635 -1.50507,0.27772 -3.20349,0.75832 -7.10447,2.01034 -11.71187,2.95999 -12.63737,2.60475 -1.36543,-0.52411 0.85728,-1.4892 6.05732,-2.63005 3.57916,-0.78525 11.07769,-2.07677 11.22164,-1.93278 0.0943,0.0943 -1.08285,6.16593 -1.22249,6.30561 -0.0257,0.0257 -1.44635,0.74016 -3.15704,1.58771 l -3.11033,1.541 -1.31875,2.47391 c -1.52671,2.86401 -3.11121,5.30143 -3.53905,5.44408 -0.19783,0.066 -0.29734,-0.17443 -0.29734,-0.71827 z m -81.282969,-2.8508 c -2.004031,-0.23186 -4.920182,-0.93641 -7.021638,-1.69644 -1.278171,-0.46227 -1.450415,-0.61588 -2.204003,-1.96547 -1.932257,-3.46047 -2.995492,-6.9002 -2.271269,-7.34792 0.178258,-0.1102 0.41743,-0.14267 0.531498,-0.0721 0.336136,0.2078 2.648359,3.43378 3.624186,5.05641 0.64944,1.07991 1.080789,1.53933 1.543495,1.64396 0.353194,0.0799 1.235611,0.2906 1.960927,0.4683 0.725316,0.1777 3.41062,0.71021 5.967345,1.18335 2.556722,0.47315 4.870066,0.97883 5.140766,1.12375 l 0.49218,0.26347 -0.532608,0.4314 c -0.981213,0.79476 -4.45468,1.23254 -7.230879,0.91134 z m 5.154721,-5.81791 c -4.413625,-0.72498 -8.117904,-2.17363 -11.264093,-4.40511 -1.186069,-0.84124 -1.53342,-1.38501 -1.137625,-1.78091 0.266809,-0.26688 1.725234,0.0369 7.726125,1.6096 1.780322,0.46657 5.233068,1.22746 7.672769,1.69088 5.794369,1.10062 7.006767,1.44457 6.907604,1.95963 -0.04507,0.23407 -0.521166,0.53502 -1.154354,0.72969 -1.519577,0.46718 -6.430408,0.57731 -8.750426,0.19622 z m 7.792656,-5.67622 c -6.852411,-0.41394 -14.310387,-1.94128 -19.781356,-4.0511 -3.40305,-1.31235 -4.875553,-2.41214 -3.229603,-2.41214 0.421648,0 2.345834,0.26589 4.27597,0.59085 12.424283,2.09183 17.552308,2.58768 31.08335,3.00563 4.351901,0.13443 8.209261,0.30617 8.571921,0.38166 2.75738,0.57397 -3.37666,2.03042 -10.48602,2.48977 -4.182148,0.27022 -5.89628,0.26945 -10.434262,-0.005 z m 28.133322,-0.19127 c -2.2836,-0.14617 -2.99172,-0.32123 -2.65635,-0.6567 0.40824,-0.40835 5.72601,-1.11017 15.28461,-2.01721 13.7296,-1.30284 16.17118,-1.56129 23.85751,-2.52546 10.65358,-1.33638 19.4752,-3.18951 28.55256,-5.99794 l 2.65696,-0.82203 0.68945,-1.26356 c 0.3792,-0.69495 0.69414,-1.47941 0.69988,-1.74323 0.007,-0.31631 0.17374,-0.47968 0.48997,-0.47968 0.74336,0 0.59249,1.90595 -0.27747,3.5053 -0.66924,1.23032 -0.73394,1.27577 -3.55892,2.49992 -8.84783,3.83406 -21.01733,6.82159 -33.56836,8.24082 -9.0666,1.02522 -25.67404,1.67557 -32.16984,1.25977 z m 28.69312,-7.89496 c 0,-0.39644 2.83206,-1.32298 10.07051,-3.29467 1.78032,-0.48495 3.72249,-1.02598 4.31593,-1.2023 0.59344,-0.17631 2.69746,-0.76856 4.67559,-1.3161 20.20922,-5.59386 34.22677,-11.17803 47.19671,-18.80174 1.9568,-1.1502 3.92459,-2.26623 4.37286,-2.48005 2.03699,-0.97164 0.75213,0.69745 -2.65567,3.44984 -12.87484,10.39869 -34.38738,18.72946 -59.10429,22.88826 -4.7898,0.80592 -8.87164,1.1541 -8.87164,0.75676 z m -33.08882,-13.16224 c 6.64608,-3.87364 14.40965,-5.53783 19.48605,-4.177 1.805,0.48387 4.91374,1.72791 5.84798,2.34022 0.29727,0.19483 0.63891,0.29338 0.75922,0.219 0.12031,-0.0744 0.29399,-0.81219 0.38596,-1.63959 0.21437,-1.92866 1.13857,-7.1374 1.94785,-10.97805 0.78686,-3.73423 0.88209,-8.4091 0.24674,-12.11193 -0.90064,-5.24894 -3.11752,-11.6219 -6.06004,-17.42102 l -1.53775,-3.030623 -1.36665,-0.611976 c -1.92623,-0.862556 -5.34504,-1.81818 -7.60077,-2.124558 -2.33942,-0.317748 -8.09222,-0.121273 -10.90971,0.372601 -5.10785,0.895342 -5.69479,0.750066 -2.11825,-0.524296 4.27127,-1.521905 6.14582,-1.843336 10.75011,-1.843336 4.41493,0 5.69808,0.195316 9.47107,1.441647 3.13944,1.03705 3.38112,1.19373 4.33962,2.813421 9.16417,15.48577 10.87903,27.61303 5.75254,40.68105 -0.72882,1.85784 -1.57098,4.08253 -1.87146,4.94374 -0.30048,0.86122 -0.65459,1.56502 -0.78691,1.56401 -0.13231,-9.6e-4 -0.94191,-0.21968 -1.7991,-0.48594 -3.72107,-1.15583 -7.31833,-1.69314 -11.3044,-1.68851 -3.17878,0.004 -4.84539,0.30211 -10.2083,1.82783 -2.06468,0.58739 -3.92245,1.06667 -4.12837,1.06508 -0.20592,-0.002 0.11113,-0.28588 0.70457,-0.63177 z"
       id="path7682"
       inkscape:connector-curvature="0" />
    <path
       style="fill:#5f5f5f;stroke-width:0.23980705"
       d="m 118.32882,183.32101 c -8.85316,-0.33981 -18.701128,-1.54312 -25.241913,-3.08427 -2.541588,-0.59885 -3.857801,-1.12177 -3.653957,-1.45168 0.191013,-0.30915 3.917761,-0.3086 8.634969,0.001 11.754221,0.77214 21.984641,1.23132 32.129721,1.44208 13.98704,0.29059 18.05786,0.59537 17.35412,1.2993 -0.27221,0.27229 -3.73834,0.85147 -7.18162,1.20003 -5.77795,0.58489 -15.46574,0.84565 -22.04132,0.59326 z m 36.9252,-3.15986 c 0,-1.30458 2.5688,-8.35191 3.31547,-9.09576 0.22056,-0.21974 1.59759,-1.05443 3.06005,-1.85487 2.2525,-1.23284 2.83392,-1.67801 3.80294,-2.91175 0.62915,-0.80103 1.09195,-1.50839 1.02844,-1.5719 -0.0635,-0.0635 -1.50507,0.27772 -3.20349,0.75832 -7.10447,2.01034 -11.71187,2.95999 -12.63737,2.60475 -1.36543,-0.52411 0.85728,-1.4892 6.05732,-2.63005 3.57916,-0.78525 11.07769,-2.07677 11.22164,-1.93278 0.0943,0.0943 -1.08285,6.16593 -1.22249,6.30561 -0.0257,0.0257 -1.44635,0.74016 -3.15704,1.58771 l -3.11033,1.541 -1.31875,2.47391 c -1.52671,2.86401 -3.11121,5.30143 -3.53905,5.44408 -0.19783,0.066 -0.29734,-0.17443 -0.29734,-0.71827 z m -81.282969,-2.8508 c -2.004031,-0.23186 -4.920182,-0.93641 -7.021638,-1.69644 -1.278171,-0.46227 -1.450415,-0.61588 -2.204003,-1.96547 -1.932257,-3.46047 -2.995492,-6.9002 -2.271269,-7.34792 0.178258,-0.1102 0.41743,-0.14267 0.531498,-0.0721 0.336136,0.2078 2.648359,3.43378 3.624186,5.05641 0.64944,1.07991 1.080789,1.53933 1.543495,1.64396 0.353194,0.0799 1.235611,0.2906 1.960927,0.4683 0.725316,0.1777 3.41062,0.71021 5.967345,1.18335 2.556722,0.47315 4.870066,0.97883 5.140766,1.12375 l 0.49218,0.26347 -0.532608,0.4314 c -0.981213,0.79476 -4.45468,1.23254 -7.230879,0.91134 z m 5.154721,-5.81791 c -4.413625,-0.72498 -8.117904,-2.17363 -11.264093,-4.40511 -1.186069,-0.84124 -1.53342,-1.38501 -1.137625,-1.78091 0.266809,-0.26688 1.725234,0.0369 7.726125,1.6096 1.780322,0.46657 5.233068,1.22746 7.672769,1.69088 5.794369,1.10062 7.006767,1.44457 6.907604,1.95963 -0.04507,0.23407 -0.521166,0.53502 -1.154354,0.72969 -1.519577,0.46718 -6.430408,0.57731 -8.750426,0.19622 z m 7.792656,-5.67622 c -6.852411,-0.41394 -14.310387,-1.94128 -19.781356,-4.0511 -3.40305,-1.31235 -4.875553,-2.41214 -3.229603,-2.41214 0.421648,0 2.345834,0.26589 4.27597,0.59085 12.424283,2.09183 17.552308,2.58768 31.08335,3.00563 4.351901,0.13443 8.209261,0.30617 8.571921,0.38166 2.75738,0.57397 -3.37666,2.03042 -10.48602,2.48977 -4.182148,0.27022 -5.89628,0.26945 -10.434262,-0.005 z m 28.133322,-0.19127 c -2.2836,-0.14617 -2.99172,-0.32123 -2.65635,-0.6567 0.40824,-0.40835 5.72601,-1.11017 15.28461,-2.01721 13.7296,-1.30284 16.17118,-1.56129 23.85751,-2.52546 10.65358,-1.33638 19.4752,-3.18951 28.55256,-5.99794 l 2.65696,-0.82203 0.68945,-1.26356 c 0.3792,-0.69495 0.69414,-1.47941 0.69988,-1.74323 0.007,-0.31631 0.17374,-0.47968 0.48997,-0.47968 0.74336,0 0.59249,1.90595 -0.27747,3.5053 -0.66924,1.23032 -0.73394,1.27577 -3.55892,2.49992 -8.84783,3.83406 -21.01733,6.82159 -33.56836,8.24082 -9.0666,1.02522 -25.67404,1.67557 -32.16984,1.25977 z m 28.69312,-7.89496 c 0,-0.39644 2.83206,-1.32298 10.07051,-3.29467 1.78032,-0.48495 3.72249,-1.02598 4.31593,-1.2023 0.59344,-0.17631 2.69746,-0.76856 4.67559,-1.3161 20.20922,-5.59386 34.22677,-11.17803 47.19671,-18.80174 1.9568,-1.1502 3.92459,-2.26623 4.37286,-2.48005 2.03699,-0.97164 0.75213,0.69745 -2.65567,3.44984 -12.87484,10.39869 -34.38738,18.72946 -59.10429,22.88826 -4.7898,0.80592 -8.87164,1.1541 -8.87164,0.75676 z"
       id="path7680"
       inkscape:connector-curvature="0" />
    <path
       style="fill:#060606;stroke-width:0.23980705"
       d="m 114.01289,182.95756 c -8.63363,-0.61497 -17.487621,-1.89166 -22.355626,-3.22355 -2.18759,-0.59852 -2.438674,-0.79758 -1.216944,-0.96478 0.918835,-0.12575 11.12527,0.34472 20.5754,0.94843 2.11001,0.1348 8.20626,0.35959 13.54723,0.49954 19.4008,0.50837 23.70195,0.75013 22.83886,1.28369 -0.58569,0.36208 -6.99824,1.131 -12.27963,1.47243 -6.64836,0.4298 -14.94103,0.42361 -21.10929,-0.0158 z m 41.24113,-2.69939 c 0,-0.5517 1.07099,-3.70377 2.35504,-6.93123 l 0.88134,-2.21525 2.94333,-1.62219 c 2.51338,-1.38523 3.10231,-1.82654 4.03162,-3.02107 1.33724,-1.71887 1.55914,-2.20772 0.91866,-2.02381 -6.96859,2.00102 -9.75398,2.71674 -12.44875,3.19881 -3.39593,0.60749 -4.56561,0.31395 -2.41808,-0.60684 1.23024,-0.52749 6.9629,-1.93234 9.37153,-2.29659 0.5275,-0.0798 1.76833,-0.29174 2.7574,-0.47104 0.98907,-0.17929 2.32437,-0.39603 2.96734,-0.48163 l 1.16903,-0.15565 -0.17203,1.15845 c -0.0946,0.63715 -0.31437,1.75206 -0.48836,2.47757 -0.17398,0.72552 -0.3764,1.59393 -0.44981,1.9298 -0.1104,0.50507 -0.6698,0.87223 -3.23477,2.12314 l -3.10129,1.51246 -1.40187,2.61624 c -2.28515,4.26464 -3.68033,6.08763 -3.68033,4.80883 z m -81.64305,-3.06194 c -1.293789,-0.18997 -4.890078,-1.0988 -6.417415,-1.62178 l -1.495127,-0.51194 -1.540869,-3.08286 c -1.162262,-2.32538 -1.567233,-3.40087 -1.648166,-4.37709 -0.0821,-0.99024 -0.02993,-1.29385 0.222112,-1.29266 0.379399,0.002 2.508194,2.85107 3.792904,5.07659 l 0.875968,1.51746 2.385975,0.54986 c 1.312285,0.30243 3.195211,0.69519 4.184279,0.87279 0.989068,0.17761 2.811161,0.50509 4.049095,0.72774 3.711069,0.66745 4.174907,1.01257 2.244973,1.67042 -1.126041,0.38382 -5.257079,0.67655 -6.653729,0.47147 z m 5.874463,-5.7615 c -2.939449,-0.53548 -5.652866,-1.3289 -7.792655,-2.27861 -2.249274,-0.9983 -5.155141,-3.03565 -5.155141,-3.61435 0,-0.35036 1.312875,-0.20109 3.60927,0.41035 6.965699,1.85469 8.468991,2.19958 14.134007,3.24263 4.683462,0.86233 5.480243,1.26812 3.77644,1.92328 -0.77077,0.29639 -7.349248,0.53944 -8.571921,0.3167 z m 3.885347,-6.07479 c -5.543091,-0.67012 -10.255811,-1.66814 -14.315516,-3.03159 -2.429258,-0.81587 -5.274841,-2.10732 -5.520957,-2.50565 -0.2574,-0.4166 2.130368,-0.18464 7.427844,0.72158 8.996942,1.53907 14.748492,2.07357 26.026785,2.41871 9.824324,0.30065 11.329644,0.40634 11.202934,0.78658 -0.13038,0.39124 -2.66699,1.02138 -6.04779,1.50238 -4.384112,0.62375 -14.047364,0.67933 -18.7733,0.10799 z m 30.46228,0.0521 c -4.09504,-0.28655 1.87294,-1.24943 15.28559,-2.46618 10.05174,-0.91186 12.13439,-1.13022 21.69955,-2.27513 6.02382,-0.72103 12.44737,-1.7945 17.5035,-2.9251 4.71365,-1.05402 13.73689,-3.61543 14.40067,-4.0879 0.49559,-0.35276 1.55067,-2.54108 1.42147,-2.94826 -0.15171,-0.47811 0.3703,-0.76208 0.85269,-0.46386 0.27172,0.16798 0.25322,0.43669 -0.10991,1.59673 -0.70691,2.25825 -1.00064,2.65706 -2.52323,3.42588 -4.32225,2.18246 -14.30572,5.34315 -21.23491,6.72281 -9.97615,1.98633 -16.82176,2.78674 -28.66411,3.35147 -4.81071,0.22941 -15.76258,0.27029 -18.63131,0.0695 z m 30.15158,-7.67124 c 0,-0.28051 3.84855,-1.52785 9.52952,-3.08857 7.04008,-1.9341 10.1009,-2.78387 11.5706,-3.2123 10.71542,-3.12366 21.88747,-6.89622 26.25525,-8.86582 0.26375,-0.11893 1.55853,-0.67423 2.87729,-1.234 3.80689,-1.61588 11.3536,-5.48452 16.29321,-8.35233 2.49936,-1.45105 4.59665,-2.58591 4.66064,-2.5219 0.40641,0.40652 -4.74681,4.6927 -8.84526,7.35702 -12.11839,7.87794 -27.53413,13.71461 -46.99571,17.79343 -6.35901,1.33275 -15.34554,2.57686 -15.34554,2.12447 z"
       id="path7678"
       inkscape:connector-curvature="0" />
  </g>
  <text
     class="cls-1"
     id="text12"
     style="font-size:24px;font-family:Consolas;fill:#878787"
     x="190.37566"
     y="50.599525">
    <tspan
       x="190.37566"
       y="79.399529"
       id="tspan10">DevFest</tspan>
  </text>
  <text
     class="cls-1"
     style="font-size:24px;font-family:Consolas;fill:#878787"
     x="190.85025"
     y="79.835136"
     id="text3722">
    <tspan
       x="190.85025"
       y="108.63515"
       id="tspan3724">Hamburg 2019</tspan>
  </text>
</svg>
