<?xml version="1.0" encoding="utf-8"?>
<!-- Generator: Adobe Illustrator 22.0.0, SVG Export Plug-In . SVG Version: 6.00 Build 0)  -->
<svg version="1.1" id="Layer_4" xmlns="http://www.w3.org/2000/svg" xmlns:xlink="http://www.w3.org/1999/xlink" x="0px" y="0px"
	 viewBox="0 0 536.9 128" style="enable-background:new 0 0 536.9 128;" xml:space="preserve">
<style type="text/css">
	.st0{fill-rule:evenodd;clip-rule:evenodd;fill:#C63A2A;}
	.st1{fill-rule:evenodd;clip-rule:evenodd;fill:#5F75B3;}
	.st2{fill-rule:evenodd;clip-rule:evenodd;fill:#E9B92B;}
	.st3{fill-rule:evenodd;clip-rule:evenodd;fill:#579956;}
	.st4{fill:#FFFFFF;}
	.st5{font-family:'ProductSans-Regular';}
	.st6{font-size:47.5422px;}
</style>
<g>
	<g>
		<g>
			<path class="st0" d="M100.8,44.6L46.7,75.9c-7.3,4.2-16.8,1.7-21-5.6l0,0c-4.2-7.3-1.7-16.8,5.6-21L85.4,18
				c7.3-4.2,16.8-1.7,21,5.6l0,0C110.7,30.9,108.1,40.4,100.8,44.6z"/>
			<path class="st1" d="M85.6,106.9l-54.2-31c-7.3-4.2-9.9-13.6-5.7-21l0,0c4.2-7.3,13.6-9.9,21-5.7l54.2,31
				c7.3,4.2,9.9,13.6,5.7,21l0,0C102.3,108.5,92.9,111.1,85.6,106.9z"/>
		</g>
		<g>
			<path class="st2" d="M139.3,80.2L193.4,49c7.3-4.2,16.8-1.7,21,5.6l0,0c4.2,7.3,1.7,16.8-5.6,21l-54.1,31.3
				c-7.3,4.2-16.8,1.7-21-5.6l0,0C129.4,93.9,131.9,84.5,139.3,80.2z"/>
			<path class="st3" d="M154.5,18l54.2,31c7.3,4.2,9.9,13.6,5.7,21l0,0c-4.2,7.3-13.6,9.9-21,5.7l-54.2-31c-7.3-4.2-9.9-13.6-5.7-21
				l0,0C137.7,16.3,147.2,13.8,154.5,18z"/>
		</g>
	</g>
	<text transform="matrix(1 0 0 1 225.6972 57.426)"><tspan x="0" y="0" class="st4 st5 st6">GDG DevFest</tspan><tspan x="0" y="42.6" class="st4 st5 st6">Season 2019</tspan></text>
</g>
</svg>
