<?xml version="1.0" encoding="UTF-8" standalone="no"?>
<svg
   xmlns:dc="http://purl.org/dc/elements/1.1/"
   xmlns:cc="http://creativecommons.org/ns#"
   xmlns:rdf="http://www.w3.org/1999/02/22-rdf-syntax-ns#"
   xmlns:svg="http://www.w3.org/2000/svg"
   xmlns="http://www.w3.org/2000/svg"
   version="1.1"
   id="svg3370"
   viewBox="0 0 2480.3149 744.09448"
   height="210mm"
   width="700mm">
  <defs
     id="defs3372" />
  <metadata
     id="metadata3375">
    <rdf:RDF>
      <cc:Work
         rdf:about="">
        <dc:format>image/svg+xml</dc:format>
        <dc:type
           rdf:resource="http://purl.org/dc/dcmitype/StillImage" />
        <dc:title></dc:title>
      </cc:Work>
    </rdf:RDF>
  </metadata>
  <g
     transform="translate(0,-308.26772)"
     id="layer1">
    <g
       id="g3340"
       transform="matrix(0.125,0,0,-0.125,35.941843,937.18067)"
       style="fill:#999999;stroke:none">
      <path
         style="fill:#999999"
         id="path3342"
         d="m 1660,4215 c -141,-32 -274,-77 -395,-137 l -64,-31 -223,56 c -220,55 -249,58 -260,25 -2,-7 1,-110 7,-228 9,-176 9,-219 -2,-235 -7,-11 -44,-63 -83,-115 -139,-189 -243,-430 -292,-672 -19,-93 -23,-146 -23,-303 0,-114 5,-220 13,-265 67,-377 215,-666 476,-925 201,-201 401,-327 647,-409 205,-69 277,-80 534,-80 201,-1 243,2 336,21 309,66 569,199 810,414 l 76,68 84,-9 c 105,-12 170,-28 199,-50 l 22,-16 -60,-125 C 3332,930 3308,834 3349,745 c 39,-85 128,-140 258,-158 165,-24 338,46 444,180 34,41 36,72 11,104 -33,40 -76,31 -133,-29 -97,-101 -194,-135 -322,-112 -58,10 -78,19 -104,45 -18,18 -33,42 -33,54 0,37 41,142 116,300 56,116 74,164 74,196 0,84 -77,152 -205,181 -38,8 -82,18 -96,22 l -27,7 68,102 c 123,186 203,377 251,603 31,143 34,472 5,625 -53,286 -186,568 -374,792 -33,39 -58,73 -55,76 9,10 -18,442 -29,454 -6,7 -17,13 -26,13 -15,0 -242,-79 -344,-120 l -47,-18 -102,45 c -56,24 -159,61 -228,81 l -126,36 -300,2 c -233,3 -315,0 -365,-11 z m 488,-115 c 264,-28 501,-113 723,-262 130,-86 316,-273 402,-403 150,-228 240,-479 263,-737 l 7,-78 -372,0 -372,0 -24,-25 c -21,-20 -25,-34 -25,-85 0,-51 4,-65 25,-85 l 24,-25 366,0 c 318,0 365,-2 365,-15 0,-13 -46,-15 -355,-15 -435,0 -425,3 -425,-115 0,-43 5,-60 24,-82 l 24,-28 341,-3 c 188,-1 341,-5 341,-8 0,-3 -16,-49 -36,-102 -139,-372 -404,-667 -759,-844 -235,-118 -461,-165 -745,-155 -173,6 -269,23 -424,73 -456,147 -840,536 -982,992 l -13,42 330,0 c 406,0 399,-2 399,115 0,118 10,115 -425,115 -309,0 -355,2 -355,15 0,13 47,15 365,15 l 366,0 24,25 c 21,20 25,34 25,86 0,51 -4,67 -22,86 l -21,23 -375,0 -374,0 6,63 c 31,296 111,521 269,756 306,455 870,718 1415,661 z" />
      <path
         style="fill:#999999"
         id="path3344"
         d="m 1335,3281 c -11,-5 -31,-21 -45,-36 -25,-26 -25,-30 -28,-213 -6,-301 -5,-302 235,-302 l 165,0 29,31 29,31 0,214 0,214 -29,32 -29,33 -154,2 c -84,1 -162,-1 -173,-6 z" />
      <path
         style="fill:#999999"
         id="path3346"
         d="m 2323,3270 c -17,-10 -37,-28 -42,-39 -7,-12 -11,-98 -11,-221 0,-286 -5,-279 226,-280 237,0 237,0 232,291 -4,269 -4,269 -237,269 -117,0 -140,-3 -168,-20 z" />
      <path
         style="fill:#999999"
         id="path3348"
         d="m 1782,2538 c -7,-7 -12,-18 -12,-26 0,-17 195,-283 216,-295 8,-4 21,-4 30,1 23,13 214,273 214,292 0,37 -18,40 -230,40 -147,0 -209,-3 -218,-12 z" />
      <path
         style="fill:#999999"
         id="path3350"
         d="M 507,3797 C 454,3732 351,3574 303,3484 189,3270 117,3063 73,2820 51,2700 48,2362 68,2250 c 58,-321 174,-591 361,-835 65,-85 223,-247 311,-318 240,-193 536,-342 811,-407 113,-26 278,-50 357,-50 l 62,0 -2,-242 -3,-243 -293,-3 -293,-2 3,-68 3,-67 638,-3 637,-2 0,70 0,70 -275,0 -275,0 0,243 0,243 143,17 c 203,25 407,77 547,140 l 50,22 -27,60 c -15,33 -28,62 -29,64 -2,2 -36,-10 -76,-27 -95,-39 -268,-87 -393,-109 -75,-13 -155,-17 -325,-17 -205,0 -236,2 -351,27 -379,80 -717,270 -991,555 -461,480 -590,1162 -342,1805 69,180 215,439 304,541 l 28,32 -53,47 -53,46 -35,-42 z" />
    </g>
    <text
       id="text3394"
       y="772.36218"
       x="582.85712"
       style="font-style:normal;font-weight:normal;font-size:125px;line-height:125%;font-family:sans-serif;letter-spacing:0px;word-spacing:0px;fill:#999999;fill-opacity:1;stroke:none;stroke-width:1px;stroke-linecap:butt;stroke-linejoin:miter;stroke-opacity:1;"
       xml:space="preserve"><tspan
         style="font-style:normal;font-variant:normal;font-weight:500;font-stretch:normal;font-size:337.5px;font-family:Roboto;-inkscape-font-specification:'Roboto Medium';fill:#999999;"
         y="772.36218"
         x="582.85712"
         id="tspan3396">HackTrin IV</tspan></text>
  </g>
</svg>
