<?xml version="1.0" encoding="utf-8"?>
<!-- Generator: Adobe Illustrator 22.0.0, SVG Export Plug-In . SVG Version: 6.00 Build 0)  -->
<svg version="1.1" id="Layer_4" xmlns="http://www.w3.org/2000/svg" xmlns:xlink="http://www.w3.org/1999/xlink" x="0px" y="0px"
	 viewBox="0 0 134.1 32" style="enable-background:new 0 0 134.1 32;" xml:space="preserve">
<style type="text/css">
	.st0{fill:#673AB7;}
	.st1{fill-rule:evenodd;clip-rule:evenodd;fill:#C63A2A;}
	.st2{fill-rule:evenodd;clip-rule:evenodd;fill:#5F75B3;}
	.st3{fill-rule:evenodd;clip-rule:evenodd;fill:#E9B92B;}
	.st4{fill-rule:evenodd;clip-rule:evenodd;fill:#579956;}
	.st5{font-family:'ProductSans-Regular';}
	.st6{font-size:12.8474px;}
	.st7{fill-rule:evenodd;clip-rule:evenodd;fill:#FFFFFF;stroke:#673AB7;stroke-width:0.9932;stroke-miterlimit:10;}
</style>
<g id="XMLID_261_">
	<path id="XMLID_259_" class="st0" d="M1.2-48.1H-4l14.8,25.6l2.6-4.5L1.2-48.1z"/>
	<path id="XMLID_258_" class="st0" d="M15.3-33.5L6.9-48.1H1.8l11.9,20.6l1.7-2.9c0.3-0.5,0.4-1,0.4-1.6
		C15.8-32.5,15.6-33.1,15.3-33.5z"/>
	<path id="XMLID_257_" class="st0" d="M5-31.4l-8.8,15.3h5.1L7.6-27L5-31.4z"/>
	<path id="XMLID_256_" class="st0" d="M7.9-26.5l-6,10.4h5.2l3.4-5.9L7.9-26.5z"/>
</g>
<g>
	<g>
		<path class="st1" d="M25-19.4l-13.6,7.8c-1.8,1.1-4.2,0.4-5.3-1.4l0,0c-1.1-1.8-0.4-4.2,1.4-5.3L21.2-26c1.8-1.1,4.2-0.4,5.3,1.4
			l0,0C27.5-22.8,26.9-20.4,25-19.4z"/>
		<path class="st2" d="M21.2-3.7L7.6-11.5c-1.8-1.1-2.5-3.4-1.4-5.3l0,0c1.1-1.8,3.4-2.5,5.3-1.4L25-10.4c1.8,1.1,2.5,3.4,1.4,5.3
			l0,0C25.4-3.3,23.1-2.7,21.2-3.7z"/>
	</g>
	<g>
		<path class="st3" d="M34.7-10.4l13.6-7.8c1.8-1.1,4.2-0.4,5.3,1.4l0,0c1.1,1.8,0.4,4.2-1.4,5.3L38.5-3.7c-1.8,1.1-4.2,0.4-5.3-1.4
			l0,0C32.2-7,32.8-9.4,34.7-10.4z"/>
		<path class="st4" d="M38.5-26l13.6,7.8c1.8,1.1,2.5,3.4,1.4,5.3l0,0c-1.1,1.8-3.4,2.5-5.3,1.4l-13.6-7.8c-1.8-1.1-2.5-3.4-1.4-5.3
			l0,0C34.3-26.5,36.7-27.1,38.5-26z"/>
	</g>
</g>
<g>
	<text transform="matrix(1 0 0 1 55.209 15.2739)"><tspan x="0" y="0" class="st0 st5 st6">GDG DevFest</tspan><tspan x="0" y="11.5" class="st0 st5 st6">Season 2019</tspan></text>
	<g>
		<g>
			<path class="st7" d="M22,10.7L7.4,19.1c-2,1.1-4.5,0.5-5.7-1.5l0,0c-1.1-2-0.5-4.5,1.5-5.7l14.6-8.4c2-1.1,4.5-0.5,5.7,1.5l0,0
				C24.7,7,24,9.6,22,10.7z"/>
			<path class="st7" d="M17.9,27.5L3.3,19.1c-2-1.1-2.7-3.7-1.5-5.7l0,0c1.1-2,3.7-2.7,5.7-1.5L22,20.3c2,1.1,2.7,3.7,1.5,5.7l0,0
				C22.4,27.9,19.9,28.6,17.9,27.5z"/>
		</g>
		<g>
			<path class="st7" d="M32.4,20.3L47,11.9c2-1.1,4.5-0.5,5.7,1.5l0,0c1.1,2,0.5,4.5-1.5,5.7l-14.6,8.4c-2,1.1-4.5,0.5-5.7-1.5l0,0
				C29.7,24,30.4,21.4,32.4,20.3z"/>
			<path class="st7" d="M36.5,3.5l14.6,8.4c2,1.1,2.7,3.7,1.5,5.7l0,0c-1.1,2-3.7,2.7-5.7,1.5l-14.6-8.4c-2-1.1-2.7-3.7-1.5-5.7l0,0
				C32,3.1,34.5,2.4,36.5,3.5z"/>
		</g>
	</g>
</g>
</svg>
