<?xml version="1.0" encoding="UTF-8" standalone="no"?>
<svg
   xmlns:dc="http://purl.org/dc/elements/1.1/"
   xmlns:cc="http://creativecommons.org/ns#"
   xmlns:rdf="http://www.w3.org/1999/02/22-rdf-syntax-ns#"
   xmlns:svg="http://www.w3.org/2000/svg"
   xmlns="http://www.w3.org/2000/svg"
   xmlns:sodipodi="http://sodipodi.sourceforge.net/DTD/sodipodi-0.dtd"
   xmlns:inkscape="http://www.inkscape.org/namespaces/inkscape"
   id="Layer_4"
   width="104.10098"
   height="32"
   version="1.1"
   sodipodi:docname="logo-monochrome.svg"
   inkscape:version="0.92.3 (2405546, 2018-03-11)">
  <metadata
     id="metadata17">
    <rdf:RDF>
      <cc:Work
         rdf:about="">
        <dc:format>image/svg+xml</dc:format>
        <dc:type
           rdf:resource="http://purl.org/dc/dcmitype/StillImage" />
        <dc:title></dc:title>
      </cc:Work>
    </rdf:RDF>
  </metadata>
  <defs
     id="defs15" />
  <sodipodi:namedview
     pagecolor="#ffffff"
     bordercolor="#666666"
     borderopacity="1"
     objecttolerance="10"
     gridtolerance="10"
     guidetolerance="10"
     inkscape:pageopacity="0"
     inkscape:pageshadow="2"
     inkscape:window-width="1920"
     inkscape:window-height="1015"
     id="namedview13"
     showgrid="false"
     fit-margin-top="0"
     fit-margin-left="0"
     fit-margin-right="0"
     fit-margin-bottom="0"
     inkscape:zoom="8.6"
     inkscape:cx="67.050003"
     inkscape:cy="16"
     inkscape:window-x="0"
     inkscape:window-y="0"
     inkscape:window-maximized="1"
     inkscape:current-layer="Layer_4" />
  <style
     id="style2">.st0{fill:#673ab7}</style>
  <g
     id="XMLID_261_"
     style="fill:#673ab7;fill-opacity:1">
    <path
       id="XMLID_259_"
       d="M 5.2,0 H 0 l 14.8,25.6 2.6,-4.5 z"
       class="st0"
       style="fill:#673ab7;fill-opacity:1"
       inkscape:connector-curvature="0" />
    <path
       id="XMLID_258_"
       d="M 19.3,14.6 10.9,0 H 5.8 l 11.9,20.6 1.7,-2.9 c 0.3,-0.5 0.4,-1 0.4,-1.6 0,-0.5 -0.2,-1.1 -0.5,-1.5 z"
       class="st0"
       style="fill:#673ab7;fill-opacity:1"
       inkscape:connector-curvature="0" />
    <path
       id="XMLID_257_"
       d="M 9,16.7 0.2,32 h 5.1 l 6.3,-10.9 z"
       class="st0"
       style="fill:#673ab7;fill-opacity:1"
       inkscape:connector-curvature="0" />
    <path
       id="XMLID_256_"
       d="M 11.9,21.6 5.9,32 h 5.2 l 3.4,-5.9 z"
       class="st0"
       style="fill:#673ab7;fill-opacity:1"
       inkscape:connector-curvature="0" />
  </g>
  <g
     aria-label="DevFest 
Paris 2019"
     style="font-style:normal;font-weight:normal;font-size:40px;line-height:1.25;font-family:sans-serif;letter-spacing:0px;word-spacing:5px;fill:#673ab7;fill-opacity:1;stroke:none"
     id="text826">
    <path
       d="m 24.413486,2.3515625 v 9.0703125 h 1.90625 q 2.414063,0 3.53125,-1.09375 1.125,-1.09375 1.125,-3.453125 0,-2.34375 -1.125,-3.4296875 -1.117187,-1.09375 -3.53125,-1.09375 z m -1.578125,-1.296875 h 3.242188 q 3.390625,0 4.976562,1.4140625 1.585938,1.40625 1.585938,4.40625 0,3.015625 -1.59375,4.429688 -1.59375,1.414062 -4.96875,1.414062 h -3.242188 z"
       style="font-style:normal;font-variant:normal;font-weight:normal;font-stretch:normal;font-size:16px;font-family:sans-serif;-inkscape-font-specification:'sans-serif, Normal';font-variant-ligatures:normal;font-variant-caps:normal;font-variant-numeric:normal;font-feature-settings:normal;text-align:start;word-spacing:0px;writing-mode:lr-tb;text-anchor:start;fill:#673ab7;fill-opacity:1"
       id="path918" />
    <path
       d="M 42.569736,7.984375 V 8.6875 h -6.609375 q 0.09375,1.484375 0.890625,2.265625 0.804688,0.773438 2.234375,0.773438 0.828125,0 1.601563,-0.203125 0.78125,-0.203125 1.546875,-0.609375 v 1.359375 q -0.773438,0.328125 -1.585938,0.5 -0.8125,0.171875 -1.648437,0.171875 -2.09375,0 -3.320313,-1.21875 -1.21875,-1.21875 -1.21875,-3.2968755 0,-2.1484375 1.15625,-3.40625 1.164063,-1.265625 3.132813,-1.265625 1.765625,0 2.789062,1.140625 1.03125,1.1328125 1.03125,3.0859375 z M 41.132236,7.5625 q -0.01563,-1.1796875 -0.664062,-1.8828125 -0.640625,-0.703125 -1.703125,-0.703125 -1.203125,0 -1.929688,0.6796875 -0.71875,0.6796875 -0.828125,1.9140625 z"
       style="font-style:normal;font-variant:normal;font-weight:normal;font-stretch:normal;font-size:16px;font-family:sans-serif;-inkscape-font-specification:'sans-serif, Normal';font-variant-ligatures:normal;font-variant-caps:normal;font-variant-numeric:normal;font-feature-settings:normal;text-align:start;word-spacing:0px;writing-mode:lr-tb;text-anchor:start;fill:#673ab7;fill-opacity:1"
       id="path920" />
    <path
       d="m 43.897861,3.96875 h 1.523438 l 2.734375,7.34375 2.734375,-7.34375 h 1.523437 l -3.28125,8.75 h -1.953125 z"
       style="font-style:normal;font-variant:normal;font-weight:normal;font-stretch:normal;font-size:16px;font-family:sans-serif;-inkscape-font-specification:'sans-serif, Normal';font-variant-ligatures:normal;font-variant-caps:normal;font-variant-numeric:normal;font-feature-settings:normal;text-align:start;word-spacing:0px;writing-mode:lr-tb;text-anchor:start;fill:#673ab7;fill-opacity:1"
       id="path922" />
    <path
       d="m 54.460361,1.0546875 h 6.703125 v 1.328125 h -5.125 v 3.4375 h 4.625 v 1.328125 h -4.625 V 12.71875 h -1.578125 z"
       style="font-style:normal;font-variant:normal;font-weight:normal;font-stretch:normal;font-size:16px;font-family:sans-serif;-inkscape-font-specification:'sans-serif, Normal';font-variant-ligatures:normal;font-variant-caps:normal;font-variant-numeric:normal;font-feature-settings:normal;text-align:start;word-spacing:0px;writing-mode:lr-tb;text-anchor:start;fill:#673ab7;fill-opacity:1"
       id="path924" />
    <path
       d="M 70.225986,7.984375 V 8.6875 h -6.609375 q 0.09375,1.484375 0.890625,2.265625 0.804688,0.773438 2.234375,0.773438 0.828125,0 1.601563,-0.203125 0.78125,-0.203125 1.546875,-0.609375 v 1.359375 q -0.773438,0.328125 -1.585938,0.5 -0.8125,0.171875 -1.648437,0.171875 -2.09375,0 -3.320313,-1.21875 -1.21875,-1.21875 -1.21875,-3.2968755 0,-2.1484375 1.15625,-3.40625 1.164063,-1.265625 3.132813,-1.265625 1.765625,0 2.789062,1.140625 1.03125,1.1328125 1.03125,3.0859375 z M 68.788486,7.5625 q -0.01563,-1.1796875 -0.664062,-1.8828125 -0.640625,-0.703125 -1.703125,-0.703125 -1.203125,0 -1.929688,0.6796875 -0.71875,0.6796875 -0.828125,1.9140625 z"
       style="font-style:normal;font-variant:normal;font-weight:normal;font-stretch:normal;font-size:16px;font-family:sans-serif;-inkscape-font-specification:'sans-serif, Normal';font-variant-ligatures:normal;font-variant-caps:normal;font-variant-numeric:normal;font-feature-settings:normal;text-align:start;word-spacing:0px;writing-mode:lr-tb;text-anchor:start;fill:#673ab7;fill-opacity:1"
       id="path926" />
    <path
       d="m 78.163486,4.2265625 v 1.359375 q -0.609375,-0.3125 -1.265625,-0.46875 -0.65625,-0.15625 -1.359375,-0.15625 -1.070312,0 -1.609375,0.328125 -0.53125,0.328125 -0.53125,0.984375 0,0.5 0.382813,0.7890625 0.382812,0.28125 1.539062,0.5390625 l 0.492188,0.109375 q 1.53125,0.328125 2.171875,0.9296875 0.648437,0.59375 0.648437,1.664063 0,1.21875 -0.96875,1.929687 -0.960937,0.710938 -2.648437,0.710938 -0.703125,0 -1.46875,-0.140625 -0.757813,-0.132813 -1.601563,-0.40625 v -1.484375 q 0.796875,0.414062 1.570313,0.625 0.773437,0.203125 1.53125,0.203125 1.015625,0 1.5625,-0.34375 0.546875,-0.351563 0.546875,-0.984375 0,-0.585938 -0.398438,-0.898438 -0.390625,-0.3125 -1.726562,-0.6015625 l -0.5,-0.1171875 Q 73.194736,8.515625 72.600986,7.9375 q -0.59375,-0.5859375 -0.59375,-1.6015625 0,-1.234375 0.875,-1.90625 0.875,-0.671875 2.484375,-0.671875 0.796875,0 1.5,0.1171875 0.703125,0.1171875 1.296875,0.3515625 z"
       style="font-style:normal;font-variant:normal;font-weight:normal;font-stretch:normal;font-size:16px;font-family:sans-serif;-inkscape-font-specification:'sans-serif, Normal';font-variant-ligatures:normal;font-variant-caps:normal;font-variant-numeric:normal;font-feature-settings:normal;text-align:start;word-spacing:0px;writing-mode:lr-tb;text-anchor:start;fill:#673ab7;fill-opacity:1"
       id="path928" />
    <path
       d="M 82.350986,1.484375 V 3.96875 h 2.960938 v 1.1171875 h -2.960938 v 4.75 q 0,1.0703125 0.289063,1.3750005 0.296875,0.304687 1.195312,0.304687 h 1.476563 v 1.203125 h -1.476563 q -1.664062,0 -2.296875,-0.617187 -0.632812,-0.625 -0.632812,-2.2656255 v -4.75 H 79.850986 V 3.96875 h 1.054688 V 1.484375 Z"
       style="font-style:normal;font-variant:normal;font-weight:normal;font-stretch:normal;font-size:16px;font-family:sans-serif;-inkscape-font-specification:'sans-serif, Normal';font-variant-ligatures:normal;font-variant-caps:normal;font-variant-numeric:normal;font-feature-settings:normal;text-align:start;word-spacing:0px;writing-mode:lr-tb;text-anchor:start;fill:#673ab7;fill-opacity:1"
       id="path930" />
    <path
       d="m 24.413486,20.351562 v 4.382813 h 1.984375 q 1.101563,0 1.703125,-0.570313 0.601563,-0.570312 0.601563,-1.625 0,-1.046875 -0.601563,-1.617187 -0.601562,-0.570313 -1.703125,-0.570313 z m -1.578125,-1.296875 h 3.5625 q 1.960938,0 2.960938,0.890625 1.007812,0.882813 1.007812,2.59375 0,1.726563 -1.007812,2.609375 -1,0.882813 -2.960938,0.882813 h -1.984375 v 4.6875 h -1.578125 z"
       style="font-style:normal;font-variant:normal;font-weight:normal;font-stretch:normal;font-size:16px;font-family:sans-serif;-inkscape-font-specification:'sans-serif, Normal';font-variant-ligatures:normal;font-variant-caps:normal;font-variant-numeric:normal;font-feature-settings:normal;text-align:start;word-spacing:0px;writing-mode:lr-tb;text-anchor:start;fill:#673ab7;fill-opacity:1"
       id="path932" />
    <path
       d="m 35.686924,26.320312 q -1.742188,0 -2.414063,0.398438 -0.671875,0.398437 -0.671875,1.359375 0,0.765625 0.5,1.21875 0.507813,0.445312 1.375,0.445312 1.195313,0 1.914063,-0.84375 0.726562,-0.851562 0.726562,-2.257812 v -0.320313 z m 2.867187,-0.59375 v 4.992188 h -1.4375 v -1.328125 q -0.492187,0.796875 -1.226562,1.179687 -0.734375,0.375 -1.796875,0.375 -1.34375,0 -2.140625,-0.75 -0.789063,-0.757812 -0.789063,-2.023437 0,-1.476563 0.984375,-2.226563 0.992188,-0.75 2.953125,-0.75 h 2.015625 v -0.140625 q 0,-0.992187 -0.65625,-1.53125 -0.648437,-0.546875 -1.828125,-0.546875 -0.75,0 -1.460937,0.179688 -0.710938,0.179687 -1.367188,0.539062 v -1.328125 q 0.789063,-0.304687 1.53125,-0.453125 0.742188,-0.15625 1.445313,-0.15625 1.898437,0 2.835937,0.984375 0.9375,0.984375 0.9375,2.984375 z"
       style="font-style:normal;font-variant:normal;font-weight:normal;font-stretch:normal;font-size:16px;font-family:sans-serif;-inkscape-font-specification:'sans-serif, Normal';font-variant-ligatures:normal;font-variant-caps:normal;font-variant-numeric:normal;font-feature-settings:normal;text-align:start;word-spacing:0px;writing-mode:lr-tb;text-anchor:start;fill:#673ab7;fill-opacity:1"
       id="path934" />
    <path
       d="m 46.593174,23.3125 q -0.242188,-0.140625 -0.53125,-0.203125 -0.28125,-0.07031 -0.625,-0.07031 -1.21875,0 -1.875,0.796875 -0.648438,0.789063 -0.648438,2.273438 v 4.609375 h -1.445312 v -8.75 h 1.445312 v 1.359375 q 0.453125,-0.796875 1.179688,-1.179688 0.726562,-0.390625 1.765625,-0.390625 0.148437,0 0.328125,0.02344 0.179687,0.01563 0.398437,0.05469 z"
       style="font-style:normal;font-variant:normal;font-weight:normal;font-stretch:normal;font-size:16px;font-family:sans-serif;-inkscape-font-specification:'sans-serif, Normal';font-variant-ligatures:normal;font-variant-caps:normal;font-variant-numeric:normal;font-feature-settings:normal;text-align:start;word-spacing:0px;writing-mode:lr-tb;text-anchor:start;fill:#673ab7;fill-opacity:1"
       id="path936" />
    <path
       d="m 48.116611,21.96875 h 1.4375 v 8.75 h -1.4375 z m 0,-3.40625 h 1.4375 v 1.820312 h -1.4375 z"
       style="font-style:normal;font-variant:normal;font-weight:normal;font-stretch:normal;font-size:16px;font-family:sans-serif;-inkscape-font-specification:'sans-serif, Normal';font-variant-ligatures:normal;font-variant-caps:normal;font-variant-numeric:normal;font-feature-settings:normal;text-align:start;word-spacing:0px;writing-mode:lr-tb;text-anchor:start;fill:#673ab7;fill-opacity:1"
       id="path938" />
    <path
       d="m 58.132236,22.226562 v 1.359375 q -0.609375,-0.3125 -1.265625,-0.46875 -0.65625,-0.15625 -1.359375,-0.15625 -1.070312,0 -1.609375,0.328125 -0.53125,0.328125 -0.53125,0.984375 0,0.5 0.382813,0.789063 0.382812,0.28125 1.539062,0.539062 l 0.492188,0.109375 q 1.53125,0.328125 2.171875,0.929688 0.648437,0.59375 0.648437,1.664062 0,1.21875 -0.96875,1.929688 -0.960937,0.710937 -2.648437,0.710937 -0.703125,0 -1.46875,-0.140625 -0.757813,-0.132812 -1.601563,-0.40625 v -1.484375 q 0.796875,0.414063 1.570313,0.625 0.773437,0.203125 1.53125,0.203125 1.015625,0 1.5625,-0.34375 0.546875,-0.351562 0.546875,-0.984375 0,-0.585937 -0.398438,-0.898437 -0.390625,-0.3125 -1.726562,-0.601563 l -0.5,-0.117187 q -1.335938,-0.28125 -1.929688,-0.859375 -0.59375,-0.585938 -0.59375,-1.601563 0,-1.234375 0.875,-1.90625 0.875,-0.671875 2.484375,-0.671875 0.796875,0 1.5,0.117188 0.703125,0.117187 1.296875,0.351562 z"
       style="font-style:normal;font-variant:normal;font-weight:normal;font-stretch:normal;font-size:16px;font-family:sans-serif;-inkscape-font-specification:'sans-serif, Normal';font-variant-ligatures:normal;font-variant-caps:normal;font-variant-numeric:normal;font-feature-settings:normal;text-align:start;word-spacing:0px;writing-mode:lr-tb;text-anchor:start;fill:#673ab7;fill-opacity:1"
       id="path940" />
    <path
       d="m 67.554111,29.390625 h 5.507813 v 1.328125 h -7.40625 v -1.328125 q 0.898437,-0.929688 2.445312,-2.492188 1.554688,-1.570312 1.953125,-2.023437 0.757813,-0.851563 1.054688,-1.4375 0.304687,-0.59375 0.304687,-1.164063 0,-0.929687 -0.65625,-1.515625 -0.648437,-0.585937 -1.695312,-0.585937 -0.742188,0 -1.570313,0.257812 -0.820312,0.257813 -1.757812,0.78125 v -1.59375 q 0.953125,-0.382812 1.78125,-0.578125 0.828125,-0.195312 1.515625,-0.195312 1.8125,0 2.890625,0.90625 1.078125,0.90625 1.078125,2.421875 0,0.71875 -0.273438,1.367187 -0.265625,0.640625 -0.976562,1.515625 -0.195313,0.226563 -1.242188,1.3125 -1.046875,1.078125 -2.953125,3.023438 z"
       style="font-style:normal;font-variant:normal;font-weight:normal;font-stretch:normal;font-size:16px;font-family:sans-serif;-inkscape-font-specification:'sans-serif, Normal';font-variant-ligatures:normal;font-variant-caps:normal;font-variant-numeric:normal;font-feature-settings:normal;text-align:start;word-spacing:0px;writing-mode:lr-tb;text-anchor:start;fill:#673ab7;fill-opacity:1"
       id="path942" />
    <path
       d="m 79.757236,20.09375 q -1.21875,0 -1.835937,1.203125 -0.609375,1.195312 -0.609375,3.601562 0,2.398438 0.609375,3.601563 0.617187,1.195312 1.835937,1.195312 1.226563,0 1.835938,-1.195312 0.617187,-1.203125 0.617187,-3.601563 0,-2.40625 -0.617187,-3.601562 -0.609375,-1.203125 -1.835938,-1.203125 z m 0,-1.25 q 1.960938,0 2.992188,1.554687 1.039062,1.546875 1.039062,4.5 0,2.945313 -1.039062,4.5 -1.03125,1.546875 -2.992188,1.546875 -1.960937,0 -3,-1.546875 -1.03125,-1.554687 -1.03125,-4.5 0,-2.953125 1.03125,-4.5 1.039063,-1.554687 3,-1.554687 z"
       style="font-style:normal;font-variant:normal;font-weight:normal;font-stretch:normal;font-size:16px;font-family:sans-serif;-inkscape-font-specification:'sans-serif, Normal';font-variant-ligatures:normal;font-variant-caps:normal;font-variant-numeric:normal;font-feature-settings:normal;text-align:start;word-spacing:0px;writing-mode:lr-tb;text-anchor:start;fill:#673ab7;fill-opacity:1"
       id="path944" />
    <path
       d="m 86.843174,29.390625 h 2.578125 v -8.898438 l -2.804688,0.5625 v -1.4375 l 2.789063,-0.5625 h 1.578125 v 10.335938 h 2.578125 v 1.328125 h -6.71875 z"
       style="font-style:normal;font-variant:normal;font-weight:normal;font-stretch:normal;font-size:16px;font-family:sans-serif;-inkscape-font-specification:'sans-serif, Normal';font-variant-ligatures:normal;font-variant-caps:normal;font-variant-numeric:normal;font-feature-settings:normal;text-align:start;word-spacing:0px;writing-mode:lr-tb;text-anchor:start;fill:#673ab7;fill-opacity:1"
       id="path946" />
    <path
       d="m 96.804111,30.476562 v -1.4375 q 0.59375,0.28125 1.203125,0.429688 0.609375,0.148437 1.195313,0.148437 1.562501,0 2.382811,-1.046875 0.82813,-1.054687 0.94531,-3.195312 -0.45312,0.671875 -1.14843,1.03125 -0.69532,0.359375 -1.539066,0.359375 -1.75,0 -2.773438,-1.054688 -1.015625,-1.0625 -1.015625,-2.898437 0,-1.796875 1.0625,-2.882813 1.0625,-1.085937 2.828125,-1.085937 2.023434,0 3.085934,1.554687 1.07032,1.546875 1.07032,4.5 0,2.757813 -1.3125,4.40625 -1.30469,1.640625 -3.515629,1.640625 -0.59375,0 -1.203125,-0.117187 -0.609375,-0.117188 -1.265625,-0.351563 z m 3.140625,-4.945312 q 1.062504,0 1.679684,-0.726563 0.625,-0.726562 0.625,-1.992187 0,-1.257813 -0.625,-1.984375 -0.61718,-0.734375 -1.679684,-0.734375 -1.0625,0 -1.6875,0.734375 -0.617187,0.726562 -0.617187,1.984375 0,1.265625 0.617187,1.992187 0.625,0.726563 1.6875,0.726563 z"
       style="font-style:normal;font-variant:normal;font-weight:normal;font-stretch:normal;font-size:16px;font-family:sans-serif;-inkscape-font-specification:'sans-serif, Normal';font-variant-ligatures:normal;font-variant-caps:normal;font-variant-numeric:normal;font-feature-settings:normal;text-align:start;word-spacing:0px;writing-mode:lr-tb;text-anchor:start;fill:#673ab7;fill-opacity:1"
       id="path948" />
  </g>
</svg>
