<?xml version="1.0" encoding="UTF-8" standalone="no"?>
<svg
   xmlns:dc="http://purl.org/dc/elements/1.1/"
   xmlns:cc="http://creativecommons.org/ns#"
   xmlns:rdf="http://www.w3.org/1999/02/22-rdf-syntax-ns#"
   xmlns:svg="http://www.w3.org/2000/svg"
   xmlns="http://www.w3.org/2000/svg"
   xmlns:sodipodi="http://sodipodi.sourceforge.net/DTD/sodipodi-0.dtd"
   xmlns:inkscape="http://www.inkscape.org/namespaces/inkscape"
   version="1.1"
   id="svg3904"
   width="537.41022"
   height="132"
   viewBox="0 0 537.41024 132"
   sodipodi:docname="logo.svg"
   inkscape:version="0.92.2 5c3e80d, 2017-08-06">
  <sodipodi:namedview
     pagecolor="#ffffff"
     bordercolor="#666666"
     borderopacity="1"
     objecttolerance="10"
     gridtolerance="10"
     guidetolerance="10"
     inkscape:pageopacity="0"
     inkscape:pageshadow="2"
     inkscape:window-width="1680"
     inkscape:window-height="1006"
     id="namedview13"
     showgrid="false"
     inkscape:zoom="1.0841922"
     inkscape:cx="309.13522"
     inkscape:cy="66"
     inkscape:window-x="0"
     inkscape:window-y="1"
     inkscape:window-maximized="1"
     inkscape:current-layer="svg3904" />
  <metadata
     id="metadata3910">
    <rdf:RDF>
      <cc:Work
         rdf:about="">
        <dc:format>image/svg+xml</dc:format>
        <dc:type
           rdf:resource="http://purl.org/dc/dcmitype/StillImage" />
        <dc:title />
      </cc:Work>
    </rdf:RDF>
  </metadata>
  <defs
     id="defs3908" />
  <path
     style="opacity:0;fill:none;stroke:#000000;stroke-width:0.48290268px;stroke-linecap:butt;stroke-linejoin:miter;stroke-opacity:1"
     d="M 75.597276,36.547579 C 17.109543,69.837039 17.109543,69.837039 17.109543,69.837039"
     id="path3940" />
  <path
     style="fill:#ea4335;fill-opacity:1;stroke:#ea4335;stroke-width:33.80318832;stroke-linecap:round;stroke-linejoin:round;stroke-miterlimit:4;stroke-dasharray:none;stroke-opacity:1"
     d="M 75.597276,36.465389 17.109543,70.720649"
     id="path4747" />
  <path
     id="path4749"
     d="M 192.34157,69.837039 133.85384,104.09231"
     style="fill:#ea4335;fill-opacity:1;stroke:#fbbc04;stroke-width:33.80318832;stroke-linecap:round;stroke-linejoin:round;stroke-miterlimit:4;stroke-dasharray:none;stroke-opacity:1" />
  <path
     style="fill:#0f9d58;fill-opacity:1;stroke:#0f9d58;stroke-width:33.80318832;stroke-linecap:round;stroke-linejoin:round;stroke-miterlimit:4;stroke-dasharray:none;stroke-opacity:1"
     d="m 133.85384,35.581779 58.48773,34.25526"
     id="path4751" />
  <path
     id="path4753"
     d="M 17.109543,70.720649 75.597276,104.97592"
     style="fill:#4285f4;fill-opacity:1;stroke:#4285f4;stroke-width:33.80318832;stroke-linecap:round;stroke-linejoin:round;stroke-miterlimit:4;stroke-dasharray:none;stroke-opacity:1" />
  <g
     aria-label="GDG DevFest Season 2019"
     style="font-style:normal;font-weight:normal;font-size:19.3161068px;line-height:1.25;font-family:sans-serif;letter-spacing:0px;word-spacing:0px;fill:#f4ffff;fill-opacity:1;stroke:none;stroke-width:0.48290268"
     id="text4765">
    <path
       d="m 255.97605,51.344031 v -9.077062 h -7.4699 v -3.757586 h 11.99711 v 14.509716 q -2.64842,1.878794 -5.8401,2.852144 -3.19168,0.950715 -6.81346,0.950715 -7.92262,0 -12.40456,-4.617757 -4.4593,-4.640393 -4.4593,-12.902556 0,-8.284799 4.4593,-12.902556 4.48194,-4.640393 12.40456,-4.640393 3.30487,0 6.27019,0.814898 2.98796,0.814898 5.50057,2.399423 v 4.866753 q -2.53524,-2.150426 -5.38739,-3.236957 -2.85214,-1.086531 -5.99855,-1.086531 -6.20228,0 -9.32606,3.463318 -3.10114,3.463318 -3.10114,10.322045 0,6.836091 3.10114,10.299409 3.12378,3.463317 9.32606,3.463317 2.42206,0 4.32349,-0.407449 1.90143,-0.430085 3.41804,-1.312891 z"
       style="font-size:46.35865784px;fill:#f4ffff;fill-opacity:1;stroke-width:0.48290268"
       id="path4515" />
    <path
       d="m 273.45109,26.127456 v 26.28047 h 5.5232 q 6.99454,0 10.2315,-3.169049 3.2596,-3.169049 3.2596,-10.00514 0,-6.790819 -3.2596,-9.937232 -3.23696,-3.169049 -10.2315,-3.169049 z m -4.57248,-3.757587 h 9.39396 q 9.82405,0 14.41918,4.097128 4.59512,4.074491 4.59512,12.76674 0,8.73752 -4.61776,12.834648 -4.61776,4.097127 -14.39654,4.097127 h -9.39396 z"
       style="font-size:46.35865784px;fill:#f4ffff;fill-opacity:1;stroke-width:0.48290268"
       id="path4517" />
    <path
       d="m 327.59655,51.344031 v -9.077062 h -7.4699 v -3.757586 h 11.99711 v 14.509716 q -2.64842,1.878794 -5.8401,2.852144 -3.19169,0.950715 -6.81346,0.950715 -7.92262,0 -12.40456,-4.617757 -4.4593,-4.640393 -4.4593,-12.902556 0,-8.284799 4.4593,-12.902556 4.48194,-4.640393 12.40456,-4.640393 3.30487,0 6.27019,0.814898 2.98796,0.814898 5.50057,2.399423 v 4.866753 q -2.53524,-2.150426 -5.38739,-3.236957 -2.85214,-1.086531 -5.99855,-1.086531 -6.20228,0 -9.32606,3.463318 -3.10114,3.463318 -3.10114,10.322045 0,6.836091 3.10114,10.299409 3.12378,3.463317 9.32606,3.463317 2.42206,0 4.32348,-0.407449 1.90143,-0.430085 3.41805,-1.312891 z"
       style="font-size:46.35865784px;fill:#f4ffff;fill-opacity:1;stroke-width:0.48290268"
       id="path4519" />
    <path
       d="m 359.83031,26.127456 v 26.28047 h 5.5232 q 6.99454,0 10.2315,-3.169049 3.25959,-3.169049 3.25959,-10.00514 0,-6.790819 -3.25959,-9.937232 -3.23696,-3.169049 -10.2315,-3.169049 z m -4.57248,-3.757587 h 9.39396 q 9.82405,0 14.41917,4.097128 4.59513,4.074491 4.59513,12.76674 0,8.73752 -4.61776,12.834648 -4.61776,4.097127 -14.39654,4.097127 h -9.39396 z"
       style="font-size:46.35865784px;fill:#f4ffff;fill-opacity:1;stroke-width:0.48290268"
       id="path4521" />
    <path
       d="m 412.43652,42.448058 v 2.037245 h -19.1501 q 0.27163,4.300852 2.58051,6.564459 2.33151,2.24097 6.47391,2.24097 2.39942,0 4.64039,-0.588538 2.26361,-0.588537 4.48194,-1.765613 v 3.938675 q -2.24097,0.950715 -4.59512,1.448709 -2.35415,0.497993 -4.77621,0.497993 -6.06646,0 -9.62032,-3.531226 -3.53123,-3.531226 -3.53123,-9.552419 0,-6.224917 3.35014,-9.869323 3.37277,-3.667043 9.07706,-3.667043 5.11575,0 8.08107,3.304866 2.98796,3.282229 2.98796,8.941245 z m -4.16503,-1.222348 q -0.0453,-3.418045 -1.92407,-5.455291 -1.85615,-2.037246 -4.93466,-2.037246 -3.48595,0 -5.59111,1.969338 -2.08251,1.969337 -2.39942,5.545835 z"
       style="font-size:46.35865784px;fill:#f4ffff;fill-opacity:1;stroke-width:0.48290268"
       id="path4523" />
    <path
       d="m 416.28465,30.813121 h 4.41404 l 7.92262,21.2779 7.92262,-21.2779 h 4.41403 l -9.50714,25.352391 h -5.65902 z"
       style="font-size:46.35865784px;fill:#f4ffff;fill-opacity:1;stroke-width:0.48290268"
       id="path4525" />
    <path
       d="m 446.88861,22.369869 h 19.42174 V 26.218 h -14.84926 v 9.959868 h 13.40055 v 3.848131 h -13.40055 v 16.139513 h -4.57248 z"
       style="font-size:46.35865784px;fill:#f4ffff;fill-opacity:1;stroke-width:0.48290268"
       id="path4527" />
    <path
       d="m 492.56818,42.448058 v 2.037245 h -19.15011 q 0.27163,4.300852 2.58051,6.564459 2.33151,2.24097 6.47391,2.24097 2.39943,0 4.6404,-0.588538 2.2636,-0.588537 4.48194,-1.765613 v 3.938675 q -2.24097,0.950715 -4.59512,1.448709 -2.35415,0.497993 -4.77621,0.497993 -6.06647,0 -9.62033,-3.531226 -3.53123,-3.531226 -3.53123,-9.552419 0,-6.224917 3.35014,-9.869323 3.37277,-3.667043 9.07706,-3.667043 5.11575,0 8.08108,3.304866 2.98796,3.282229 2.98796,8.941245 z m -4.16504,-1.222348 q -0.0453,-3.418045 -1.92406,-5.455291 -1.85616,-2.037246 -4.93467,-2.037246 -3.48595,0 -5.5911,1.969338 -2.08252,1.969337 -2.39943,5.545835 z"
       style="font-size:46.35865784px;fill:#f4ffff;fill-opacity:1;stroke-width:0.48290268"
       id="path4529" />
    <path
       d="m 515.56643,31.560111 v 3.938675 q -1.76561,-0.905442 -3.66704,-1.358164 -1.90143,-0.452721 -3.93868,-0.452721 -3.10114,0 -4.66302,0.950715 -1.53926,0.950714 -1.53926,2.852144 0,1.448708 1.10917,2.286242 1.10917,0.814898 4.4593,1.561889 l 1.42608,0.316904 q 4.43667,0.950715 6.29282,2.693692 1.8788,1.720341 1.8788,4.821481 0,3.531226 -2.80688,5.591108 -2.78423,2.059882 -7.67362,2.059882 -2.03725,0 -4.25558,-0.407449 -2.1957,-0.384813 -4.64039,-1.177076 v -4.300852 q 2.30887,1.199712 4.54984,1.810886 2.24097,0.588537 4.43667,0.588537 2.94269,0 4.52722,-0.995987 1.58452,-1.018622 1.58452,-2.852144 0,-1.697704 -1.15444,-2.603147 -1.1318,-0.905442 -5.00257,-1.742977 l -1.44871,-0.339541 q -3.87076,-0.814898 -5.59111,-2.489967 -1.72034,-1.697704 -1.72034,-4.640393 0,-3.576498 2.53524,-5.523199 2.53524,-1.946702 7.19827,-1.946702 2.30888,0 4.34613,0.339541 2.03724,0.339541 3.75758,1.018623 z"
       style="font-size:46.35865784px;fill:#f4ffff;fill-opacity:1;stroke-width:0.48290268"
       id="path4531" />
    <path
       d="m 527.69934,23.614853 v 7.198268 h 8.57907 v 3.236957 h -8.57907 v 13.762727 q 0,3.10114 0.83753,3.983947 0.86017,0.882806 3.46332,0.882806 h 4.27822 v 3.485954 h -4.27822 q -4.82148,0 -6.655,-1.788249 -1.83352,-1.810885 -1.83352,-6.564458 V 34.050078 h -3.05587 v -3.236957 h 3.05587 v -7.198268 z"
       style="font-size:46.35865784px;fill:#f4ffff;fill-opacity:1;stroke-width:0.48290268"
       id="path4533" />
    <path
       d="m 253.19182,81.427355 v 4.459305 q -2.60315,-1.244984 -4.91203,-1.856158 -2.30888,-0.611173 -4.4593,-0.611173 -3.73495,0 -5.7722,1.448708 -2.01461,1.448708 -2.01461,4.119763 0,2.24097 1.33553,3.39541 1.35816,1.131803 5.11575,1.833521 l 2.7616,0.565901 q 5.11575,0.973351 7.53781,3.440682 2.44469,2.444696 2.44469,6.564456 0,4.91203 -3.30486,7.44727 -3.28223,2.53524 -9.64297,2.53524 -2.39942,0 -5.11575,-0.54327 -2.69369,-0.54326 -5.5911,-1.60716 v -4.7083 q 2.78423,1.56189 5.45529,2.35415 2.67105,0.79226 5.25156,0.79226 3.91604,0 6.04383,-1.53925 2.12779,-1.53925 2.12779,-4.3914 0,-2.48996 -1.53925,-3.8934 -1.51662,-1.403435 -5.00257,-2.105153 l -2.78424,-0.543266 q -5.11575,-1.018623 -7.40199,-3.191685 -2.28624,-2.173062 -2.28624,-6.043829 0,-4.48194 3.14641,-7.062452 3.16905,-2.580511 8.71489,-2.580511 2.37678,0 4.84411,0.430085 2.46733,0.430086 5.04785,1.290256 z"
       style="font-size:46.35865784px;fill:#f4ffff;fill-opacity:1;stroke-width:0.48290268"
       id="path4535" />
    <path
       d="m 283.86368,100.39638 v 2.03724 h -19.15011 q 0.27163,4.30085 2.58051,6.56446 2.33152,2.24097 6.47392,2.24097 2.39942,0 4.64039,-0.58854 2.26361,-0.58853 4.48194,-1.76561 v 3.93867 q -2.24097,0.95072 -4.59512,1.44871 -2.35415,0.498 -4.77621,0.498 -6.06646,0 -9.62033,-3.53123 -3.53122,-3.53123 -3.53122,-9.55242 0,-6.224916 3.35013,-9.869322 3.37278,-3.667042 9.07707,-3.667042 5.11575,0 8.08107,3.304865 2.98796,3.282229 2.98796,8.941249 z m -4.16503,-1.222351 q -0.0453,-3.418046 -1.92407,-5.455292 -1.85616,-2.037245 -4.93466,-2.037245 -3.48596,0 -5.59111,1.969337 -2.08252,1.969338 -2.39942,5.545836 z"
       style="font-size:46.35865784px;fill:#f4ffff;fill-opacity:1;stroke-width:0.48290268"
       id="path4537" />
    <path
       d="m 302.22153,101.36973 q -5.04784,0 -6.99454,1.15444 -1.94671,1.15444 -1.94671,3.93867 0,2.21834 1.44871,3.53123 1.47135,1.29025 3.98395,1.29025 3.46332,0 5.54583,-2.44469 2.10516,-2.46733 2.10516,-6.54182 v -0.92808 z m 8.30743,-1.720344 v 14.464444 h -4.16503 v -3.84813 q -1.42607,2.30888 -3.55386,3.41805 -2.12779,1.08653 -5.2063,1.08653 -3.8934,0 -6.20228,-2.17307 -2.28624,-2.19569 -2.28624,-5.86274 0,-4.27821 2.85214,-6.45127 2.87478,-2.173066 8.55643,-2.173066 h 5.84011 v -0.407449 q 0,-2.87478 -1.90143,-4.436669 -1.87879,-1.584524 -5.29684,-1.584524 -2.17306,0 -4.23294,0.520629 -2.05988,0.52063 -3.96131,1.561889 v -3.848131 q 2.28624,-0.882807 4.43666,-1.312892 2.15043,-0.452721 4.18768,-0.452721 5.50056,0 8.21689,2.852144 2.71632,2.852144 2.71632,8.646976 z"
       style="font-size:46.35865784px;fill:#f4ffff;fill-opacity:1;stroke-width:0.48290268"
       id="path4539" />
    <path
       d="m 335.29282,89.50843 v 3.938675 q -1.76561,-0.905443 -3.66704,-1.358164 -1.90143,-0.452721 -3.93868,-0.452721 -3.10114,0 -4.66303,0.950714 -1.53925,0.950715 -1.53925,2.852144 0,1.448708 1.10917,2.286243 1.10916,0.814898 4.4593,1.561888 l 1.42607,0.316905 q 4.43667,0.950716 6.29283,2.693696 1.87879,1.72034 1.87879,4.82148 0,3.53122 -2.80687,5.5911 -2.78423,2.05989 -7.67362,2.05989 -2.03725,0 -4.25558,-0.40745 -2.1957,-0.38482 -4.6404,-1.17708 v -4.30085 q 2.30888,1.19971 4.54985,1.81088 2.24097,0.58854 4.43667,0.58854 2.94269,0 4.52721,-0.99598 1.58453,-1.01863 1.58453,-2.85215 0,-1.6977 -1.15444,-2.60315 -1.13181,-0.90544 -5.00257,-1.74297 l -1.44871,-0.33954 q -3.87077,-0.8149 -5.59111,-2.48997 -1.72034,-1.697705 -1.72034,-4.640393 0,-3.576498 2.53524,-5.5232 2.53524,-1.946701 7.19827,-1.946701 2.30888,0 4.34612,0.339541 2.03725,0.339541 3.75759,1.018623 z"
       style="font-size:46.35865784px;fill:#f4ffff;fill-opacity:1;stroke-width:0.48290268"
       id="path4541" />
    <path
       d="m 353.13004,91.681492 q -3.35014,0 -5.29684,2.625783 -1.9467,2.603147 -1.9467,7.152995 0,4.54985 1.92406,7.17563 1.9467,2.60315 5.31948,2.60315 3.3275,0 5.2742,-2.62578 1.9467,-2.62579 1.9467,-7.153 0,-4.504575 -1.9467,-7.130359 -1.9467,-2.648419 -5.2742,-2.648419 z m 0,-3.531226 q 5.43265,0 8.53379,3.531226 3.10114,3.531226 3.10114,9.778778 0,6.22492 -3.10114,9.77878 -3.10114,3.53123 -8.53379,3.53123 -5.45529,0 -8.55643,-3.53123 -3.07851,-3.55386 -3.07851,-9.77878 0,-6.247552 3.07851,-9.778778 3.10114,-3.531226 8.55643,-3.531226 z"
       style="font-size:46.35865784px;fill:#f4ffff;fill-opacity:1;stroke-width:0.48290268"
       id="path4543" />
    <path
       d="m 392.72051,98.811852 v 15.301978 h -4.16504 V 98.947668 q 0,-3.599134 -1.40343,-5.387383 -1.40344,-1.788249 -4.21031,-1.788249 -3.37277,0 -5.31948,2.150426 -1.9467,2.150426 -1.9467,5.86274 v 14.328628 h -4.18767 V 88.76144 h 4.18767 v 3.938675 q 1.49398,-2.286243 3.50859,-3.418046 2.03725,-1.131803 4.68567,-1.131803 4.36876,0 6.60973,2.716327 2.24097,2.693692 2.24097,7.945259 z"
       style="font-size:46.35865784px;fill:#f4ffff;fill-opacity:1;stroke-width:0.48290268"
       id="path4545" />
    <path
       d="m 420.35914,110.2657 h 15.95842 v 3.84813 h -21.45899 v -3.84813 q 2.60315,-2.69369 7.08509,-7.2209 4.50458,-4.549853 5.65902,-5.862745 2.1957,-2.467331 3.05587,-4.165036 0.8828,-1.72034 0.8828,-3.372773 0,-2.693692 -1.90143,-4.391396 -1.87879,-1.697705 -4.91202,-1.697705 -2.15043,0 -4.54985,0.74699 -2.37679,0.74699 -5.09311,2.263606 v -4.617757 q 2.7616,-1.109167 5.16102,-1.675068 2.39942,-0.565902 4.39139,-0.565902 5.25157,0 8.37535,2.625784 3.12377,2.625783 3.12377,7.017179 0,2.082518 -0.79226,3.961311 -0.76962,1.856158 -2.82951,4.391397 -0.5659,0.656445 -3.59913,3.802855 -3.03323,3.12378 -8.55643,8.76016 z"
       style="font-size:46.35865784px;fill:#f4ffff;fill-opacity:1;stroke-width:0.48290268"
       id="path4547" />
    <path
       d="m 455.71667,83.328784 q -3.53123,0 -5.31948,3.485954 -1.76561,3.463318 -1.76561,10.435225 0,6.949267 1.76561,10.435227 1.78825,3.46332 5.31948,3.46332 3.55386,0 5.31947,-3.46332 1.78825,-3.48596 1.78825,-10.435227 0,-6.971907 -1.78825,-10.435225 -1.76561,-3.485954 -5.31947,-3.485954 z m 0,-3.62177 q 5.68165,0 8.66961,4.504577 3.0106,4.48194 3.0106,13.038372 0,8.533797 -3.0106,13.038377 -2.98796,4.48194 -8.66961,4.48194 -5.68165,0 -8.69225,-4.48194 -2.98796,-4.50458 -2.98796,-13.038377 0,-8.556432 2.98796,-13.038372 3.0106,-4.504577 8.69225,-4.504577 z"
       style="font-size:46.35865784px;fill:#f4ffff;fill-opacity:1;stroke-width:0.48290268"
       id="path4549" />
    <path
       d="m 476.24759,110.2657 h 7.4699 V 84.483224 l -8.12634,1.629796 v -4.165036 l 8.08107,-1.629796 h 4.57249 V 110.2657 h 7.4699 v 3.84813 h -19.46702 z"
       style="font-size:46.35865784px;fill:#f4ffff;fill-opacity:1;stroke-width:0.48290268"
       id="path4551" />
    <path
       d="m 505.10856,113.41211 v -4.16503 q 1.72034,0.8149 3.48595,1.24498 1.76561,0.43009 3.46332,0.43009 4.52721,0 6.904,-3.03324 2.39942,-3.05587 2.73896,-9.258147 -1.31289,1.946697 -3.3275,2.987957 -2.01461,1.04126 -4.45931,1.04126 -5.07047,0 -8.0358,-3.055866 -2.94269,-3.078505 -2.94269,-8.39798 0,-5.206294 3.07851,-8.352707 3.0785,-3.146413 8.19425,-3.146413 5.86274,0 8.94125,4.504577 3.10114,4.48194 3.10114,13.038372 0,7.990527 -3.80286,12.766737 -3.78022,4.75358 -10.18623,4.75358 -1.72034,0 -3.48595,-0.33954 -1.76561,-0.33955 -3.66704,-1.01863 z m 9.09969,-14.328626 q 3.07851,0 4.86676,-2.105153 1.81088,-2.105154 1.81088,-5.772197 0,-3.644406 -1.81088,-5.74956 -1.78825,-2.12779 -4.86676,-2.12779 -3.0785,0 -4.88939,2.12779 -1.78825,2.105154 -1.78825,5.74956 0,3.667043 1.78825,5.772197 1.81089,2.105153 4.88939,2.105153 z"
       style="font-size:46.35865784px;fill:#f4ffff;fill-opacity:1;stroke-width:0.48290268"
       id="path4553" />
  </g>
</svg>
