<svg id="Layer_4" xmlns="http://www.w3.org/2000/svg" viewBox="0 0 839 200"><style>.st0{fill:#FFFFFF;}</style><g id="XMLID_7_"><path id="XMLID_116_" class="st0" d="M275.5 51.8c0 10.9-3.2 19.7-9.7 26.1-7.4 7.7-17 11.6-28.8 11.6-11.3 0-20.9-3.9-28.8-11.8-7.9-7.8-11.9-17.6-11.9-29.1s4-21.3 11.9-29.1c7.9-7.8 17.5-11.8 28.8-11.8 5.6 0 11 1.1 16.1 3.3 5.1 2.2 9.2 5.1 12.2 8.8l-6.9 6.9c-5.2-6.2-12.3-9.3-21.4-9.3-8.2 0-15.4 2.9-21.4 8.7-6 5.8-9 13.3-9 22.6s3 16.8 9 22.6c6 5.8 13.1 8.7 21.4 8.7 8.8 0 16-2.9 21.9-8.8 3.8-3.8 6-9.1 6.6-15.9H237v-9.4h38c.3 2.1.5 4 .5 5.9z"/><path id="XMLID_118_" class="st0" d="M285.4 87.8V9.5h24c12 0 21.7 3.6 28.9 10.9 7.2 7.3 10.8 16.7 10.8 28.3s-3.6 21-10.8 28.3c-7.2 7.3-16.8 10.9-28.9 10.9h-24zm10.1-9.6h13.9c9 0 16.2-2.6 21.5-7.8 5.3-5.2 7.9-12.4 7.9-21.8 0-9.3-2.6-16.5-7.9-21.7-5.3-5.2-12.5-7.8-21.5-7.8h-13.9v59.1z"/><path id="XMLID_121_" class="st0" d="M434.5 51.8c0 10.9-3.2 19.7-9.7 26.1-7.4 7.7-17 11.6-28.8 11.6-11.3 0-20.9-3.9-28.8-11.8-7.9-7.8-11.9-17.6-11.9-29.1s4-21.3 11.9-29.1c7.9-7.8 17.5-11.8 28.8-11.8 5.6 0 11 1.1 16.1 3.3 5.1 2.2 9.2 5.1 12.2 8.8l-6.9 6.9c-5.2-6.2-12.3-9.3-21.4-9.3-8.2 0-15.4 2.9-21.4 8.7-6 5.8-9 13.3-9 22.6s3 16.8 9 22.6c6 5.8 13.1 8.7 21.4 8.7 8.8 0 16-2.9 21.9-8.8 3.8-3.8 6-9.1 6.6-15.9H396v-9.4h38c.3 2.1.5 4 .5 5.9z"/><path id="XMLID_123_" class="st0" d="M470.8 87.8V9.5h24c12 0 21.7 3.6 28.9 10.9 7.2 7.3 10.8 16.7 10.8 28.3s-3.6 21-10.8 28.3c-7.2 7.3-16.8 10.9-28.9 10.9h-24zm10.1-9.6h13.9c9 0 16.2-2.6 21.5-7.8 5.3-5.2 7.9-12.4 7.9-21.8 0-9.3-2.6-16.5-7.9-21.7-5.3-5.2-12.5-7.8-21.5-7.8h-13.9v59.1z"/><path id="XMLID_126_" class="st0" d="M567.4 89.6c-8.1 0-14.7-2.7-19.7-8.1-5.1-5.4-7.6-12.2-7.6-20.5 0-7.8 2.5-14.5 7.4-20.1 4.9-5.6 11.2-8.4 18.9-8.4 7.9 0 14.3 2.6 19.1 7.8 4.8 5.2 7.2 12.1 7.2 20.8l-.1 1.9h-42.3c.3 5.4 2.1 9.7 5.4 12.8 3.3 3.1 7.2 4.7 11.6 4.7 7.2 0 12.1-3.1 14.7-9.2l9 3.7c-1.8 4.2-4.6 7.6-8.6 10.4-4.2 2.8-9.1 4.2-15 4.2zm14.5-35c-.2-3.1-1.6-6-4.2-8.8-2.6-2.8-6.4-4.2-11.5-4.2-3.7 0-6.9 1.2-9.7 3.5-2.7 2.3-4.6 5.5-5.6 9.4h31z"/><path id="XMLID_129_" class="st0" d="M613.7 87.8L592 34.2h11l15.8 41.6h.2l16-41.6h10.7l-21.9 53.6h-10.1z"/><path id="XMLID_131_" class="st0" d="M661.6 87.8h-10.1V9.5h45.7v9.6h-35.7v25.7h32.2v9.4h-32.2v33.6z"/><path id="XMLID_133_" class="st0" d="M727.7 89.6c-8.1 0-14.7-2.7-19.7-8.1-5.1-5.4-7.6-12.2-7.6-20.5 0-7.8 2.5-14.5 7.4-20.1 4.9-5.6 11.2-8.4 18.9-8.4 7.9 0 14.3 2.6 19.1 7.8 4.8 5.2 7.2 12.1 7.2 20.8l-.1 1.9h-42.3c.3 5.4 2.1 9.7 5.4 12.8 3.3 3.1 7.2 4.7 11.6 4.7 7.2 0 12.1-3.1 14.7-9.2l9 3.7c-1.8 4.2-4.6 7.6-8.6 10.4-4.3 2.8-9.2 4.2-15 4.2zm14.4-35c-.2-3.1-1.6-6-4.2-8.8-2.6-2.8-6.4-4.2-11.5-4.2-3.7 0-6.9 1.2-9.7 3.5-2.7 2.3-4.6 5.5-5.6 9.4h31z"/><path id="XMLID_136_" class="st0" d="M779.5 89.6c-6 0-10.9-1.5-14.8-4.4-3.9-2.9-6.8-6.6-8.6-10.9l9-3.7c2.8 6.7 7.7 10.1 14.5 10.1 3.1 0 5.7-.7 7.7-2.1 2-1.4 3-3.2 3-5.5 0-3.5-2.4-5.9-7.3-7.1l-10.8-2.6c-3.4-.9-6.7-2.5-9.7-5-3.1-2.4-4.6-5.7-4.6-9.9 0-4.7 2.1-8.6 6.3-11.5 4.2-3 9.2-4.4 14.9-4.4 4.7 0 9 1.1 12.7 3.2 3.7 2.2 6.4 5.2 8 9.2l-8.8 3.6c-2-4.7-6.1-7.1-12.2-7.1-3 0-5.5.6-7.5 1.9-2 1.2-3.1 2.9-3.1 5 0 3.1 2.4 5.1 7.1 6.2l10.6 2.5c5 1.2 8.8 3.2 11.2 6 2.4 2.8 3.6 6.1 3.6 9.6 0 4.8-2 8.8-5.9 12-4 3.3-9.1 4.9-15.3 4.9z"/><path id="XMLID_138_" class="st0" d="M830.9 88.7c-5.6 0-9.9-1.5-12.9-4.5s-4.4-7.2-4.4-12.7V43.4h-9.4v-9.2h9.4V17.8h10.1v16.4h13.1v9.2h-13.1v27.3c0 5.8 2.4 8.8 7.2 8.8 1.8 0 3.4-.3 4.6-.9l3.5 8.6c-2.2 1-4.9 1.5-8.1 1.5z"/><path id="XMLID_140_" class="st0" d="M227.3 192.7c-8.6 0-15.6-2.8-20.9-8.5-5.4-5.7-8-13.1-8-22.3v-49.2h10.1v49.7c0 6.2 1.6 11.2 4.9 15 3.2 3.8 7.9 5.7 14.1 5.7 6.1 0 10.8-1.9 14.1-5.7 3.2-3.8 4.9-8.8 4.9-15v-49.7h10.1v49.2c0 9.3-2.6 16.7-7.8 22.4-5.5 5.6-12.6 8.4-21.5 8.4z"/><path id="XMLID_142_" class="st0" d="M277.5 112.6v48.2l23.2-23.5h12.9v.4l-20.9 20.9 21.9 31.8v.4h-12.1l-16.8-25.3-8.1 8.1v17.2h-10.1v-78.3h10z"/><path id="XMLID_144_" class="st0" d="M329 190.9h-10.1v-53.6h9.6v8.7h.4c1-2.9 3.1-5.3 6.3-7.2 3.2-1.9 6.3-2.8 9.2-2.8 3 0 5.5.4 7.5 1.3l-3.8 9.4c-1.3-.5-3.1-.8-5.4-.8-3.6 0-6.9 1.4-9.7 4.3-2.8 2.9-4.2 6.7-4.2 11.3v29.4z"/><path id="XMLID_146_" class="st0" d="M372.2 192.7c-5.7 0-10.4-1.6-14.3-4.9-3.8-3.3-5.7-7.6-5.7-13 0-5.8 2.3-10.4 6.8-13.7 4.5-3.3 10.1-5 16.7-5 5.9 0 10.8 1.1 14.5 3.3v-1.5c0-3.9-1.3-7.1-4-9.5-2.7-2.4-6-3.6-10-3.6-2.9 0-5.6.7-7.9 2.1-2.4 1.4-4 3.3-4.9 5.7l-9.2-3.9c1.2-3.2 3.7-6.2 7.3-8.9 3.6-2.7 8.5-4.1 14.4-4.1 6.9 0 12.5 2 17.1 6 4.5 4 6.8 9.7 6.8 17v32.4h-9.6v-7.4h-.4c-4 5.9-9.9 9-17.6 9zm1.6-9.2c4.2 0 7.9-1.5 11.3-4.6 3.4-3.1 5.1-6.8 5.1-11-2.8-2.3-7.1-3.5-12.8-3.5-4.9 0-8.6 1.1-11 3.2-2.5 2.1-3.7 4.6-3.7 7.4 0 2.6 1.1 4.7 3.4 6.2 2.2 1.5 4.8 2.3 7.7 2.3z"/><path id="XMLID_157_" class="st0" d="M419.7 123.9c-1.4 1.4-3.1 2.1-5 2.1-2 0-3.6-.7-5-2.1-1.4-1.4-2.1-3.1-2.1-5 0-2 .7-3.6 2.1-5 1.4-1.4 3.1-2.1 5-2.1 2 0 3.6.7 5 2.1 1.4 1.4 2.1 3.1 2.1 5s-.7 3.6-2.1 5zm0 67h-10.1v-53.6h10.1v53.6z"/><path id="XMLID_160_" class="st0" d="M439.9 137.3v7.4h.4c1.5-2.6 3.8-4.7 6.9-6.5 3.1-1.8 6.5-2.7 10.1-2.7 6.6 0 11.7 2 15.2 6.1s5.2 9.6 5.2 16.4v32.8h-10.1v-31.3c0-9.9-4.4-14.9-13.2-14.9-4.2 0-7.5 1.7-10.2 5-2.6 3.3-3.9 7.2-3.9 11.5v29.6h-10.1v-53.6h9.7z"/><path id="XMLID_162_" class="st0" d="M511.9 192.7c-8.1 0-14.7-2.7-19.7-8.1-5.1-5.4-7.6-12.2-7.6-20.5 0-7.8 2.5-14.5 7.4-20.1 4.9-5.6 11.2-8.4 18.9-8.4 7.9 0 14.3 2.6 19.1 7.8 4.8 5.2 7.2 12.1 7.2 20.8l-.1 1.9h-42.3c.3 5.4 2.1 9.7 5.4 12.8 3.3 3.1 7.2 4.7 11.6 4.7 7.2 0 12.1-3.1 14.7-9.2l9 3.7c-1.8 4.2-4.6 7.6-8.6 10.4-4.3 2.8-9.2 4.2-15 4.2zm14.4-35c-.2-3.1-1.6-6-4.2-8.8-2.6-2.8-6.4-4.2-11.5-4.2-3.7 0-6.9 1.2-9.7 3.5-2.7 2.3-4.6 5.5-5.6 9.4h31z"/><path id="XMLID_165_" class="st0" d="M616.2 190.9h-47.7v-10.1c14.3-14.4 23.4-23.7 27.5-28.1 3.6-4 6-7.1 7.2-9.1 1.2-2.1 1.9-4.6 1.9-7.7 0-3.1-1.2-5.9-3.7-8.3-2.5-2.4-5.8-3.6-10-3.6-3.8 0-6.9 1.1-9.2 3.3-2.3 2.2-3.8 4.6-4.5 7.2l-9.2-3.7c1.2-3.9 3.8-7.7 7.8-11.2 3.9-3.5 9-5.2 15.3-5.2 6.9 0 12.6 2.1 17.1 6.3 4.4 4.2 6.7 9.3 6.7 15.2 0 7.3-4 15.1-11.9 23.4l-21.9 22h34.7v9.6z"/><path id="XMLID_167_" class="st0" d="M673.8 181.4c-5.5 7.5-12.8 11.3-21.8 11.3s-16.2-3.8-21.8-11.3c-5.5-7.5-8.3-16.8-8.3-27.9 0-11.2 2.8-20.5 8.3-27.9 5.5-7.5 12.8-11.2 21.8-11.2s16.2 3.7 21.8 11.2c5.5 7.5 8.3 16.8 8.3 27.9 0 11.1-2.7 20.4-8.3 27.9zm-21.7 1.7c6 0 10.8-2.8 14.4-8.4 3.6-5.6 5.4-12.6 5.4-21.1 0-8.5-1.8-15.6-5.4-21.2-3.6-5.6-8.4-8.4-14.4-8.4-6.1 0-10.9 2.8-14.4 8.4-3.6 5.6-5.4 12.6-5.4 21.2 0 8.5 1.8 15.5 5.4 21.1 3.5 5.6 8.3 8.4 14.4 8.4z"/><path id="XMLID_170_" class="st0" d="M714.1 190.9H704v-62.3l-14.5 6.3-3.8-8.5 22-10.3h6.5v74.8z"/><path id="XMLID_172_" class="st0" d="M752.2 143.1c5.8 0 11.2 2.4 16.1 7.2 4.9 4.8 7.3 10.6 7.3 17.3 0 6.6-2.5 12.5-7.6 17.5s-11.1 7.5-18 7.5c-7.4 0-13.6-2.5-18.4-7.6-4.9-5.1-7.3-10.9-7.3-17.4 0-6.9 2.9-14.7 8.8-23.2l20.3-30.1 8.1 5.6-17.8 24.7.2.2c1.8-1.1 4.6-1.7 8.3-1.7zm-2.2 39.8c4.2 0 7.9-1.5 10.9-4.4 3-2.9 4.5-6.5 4.5-10.8 0-4.2-1.5-7.8-4.5-10.8-3-3-6.7-4.4-10.9-4.4s-7.9 1.5-10.9 4.4c-3.1 3-4.6 6.5-4.6 10.8 0 4.3 1.5 7.9 4.5 10.8 3 3 6.7 4.4 11 4.4z"/></g><g id="XMLID_261_"><path id="XMLID_259_" class="st0" d="M32.3 0H0l92.3 160 16.2-28z"/><path id="XMLID_258_" class="st0" d="M120.9 91L68.3 0H36.1l74.3 128.8 10.5-18.2c1.7-2.8 2.8-6.2 2.8-9.8-.1-3.6-1.1-6.9-2.8-9.8z"/><path id="XMLID_257_" class="st0" d="M56.3 104.1L.9 200h32.3l39.3-68z"/><path id="XMLID_256_" class="st0" d="M74.3 135.3L37 200h32.2l21.3-36.8z"/></g></svg>