<?xml version="1.0" encoding="utf-8"?>
<!-- Generator: Adobe Illustrator 19.0.0, SVG Export Plug-In . SVG Version: 6.00 Build 0)  -->
<svg version="1.1" id="Layer_4" xmlns="http://www.w3.org/2000/svg" xmlns:xlink="http://www.w3.org/1999/xlink" x="0px" y="0px"
	 viewBox="51 181 694 200" style="enable-background:new 51 181 694 200;" xml:space="preserve">
<style type="text/css">
	.st0{fill:#F6087F;}
	.st1{fill:#FFFFFF;}
	.st2{fill:#F7BC0B;}
	.st3{fill:#D94D42;}
	.st4{fill:#189D5C;}
	.st5{fill:#4B89F1;}
</style>
<g>
	<g id="XMLID_2033_">
		<g>
			<path id="XMLID_62_" class="st0" d="M143.5,307h-12.6v13.1h-13.1v13.3H51.5v-91.9h65.5V254h13.3v13.1h13.1V307z M117.1,307v-39.9
				H104v-12.4h-26v65.3h26.6V307H117.1z"/>
			<path id="XMLID_60_" class="st0" d="M246.6,332.6h-93v-92.8h93v12.9h-66.3v26.4H220v13.7h-39.7v26.6h66.3V332.6z"/>
			<path id="XMLID_58_" class="st0" d="M346.5,293.9h-12.9V307h-13.1v13.1h-13.3v13.3h-13.3v-12.6h-13.3v-13.3h-13.1v-13.1h-12.9
				v-53h26v38.8h13.3v13.7h12.9v-12.9h13.3v-39.5h26.4V293.9z"/>
		</g>
	</g>
	<g id="XMLID_2024_">
		<path id="XMLID_2031_" class="st1" d="M453.4,254.2h-65.2v26h52v13.3h-52v39.9h-26.8v-91.9h91.9V254.2z"/>
		<path id="XMLID_2029_" class="st1" d="M556.5,332.6h-93v-92.8h93v12.9h-66.3v26.4h39.7v13.7h-39.7v26.6h66.3V332.6z"/>
		<path id="XMLID_2027_" class="st1" d="M656.4,320.1h-12.6v13.3h-66.1v-12.6h-13.3v-13.3h26.4v12.6H630v-25.7h-52.2v-13.3h-13.3
			v-26.4H577v-13.3h53V254h13.3v13.3h-26v-12.6h-26.4v25.5h52.4v13.5h13.1V320.1z"/>
		<path id="XMLID_2025_" class="st1" d="M745.1,254.2h-25.8v79.2h-26.4v-78.6h-26.6v-13.3h78.8V254.2z"/>
	</g>
	<path id="XMLID_1994_" class="st1" d="M379.6,361.9h-6.8v-3.6h-6.8v3.6h-3.5v11.4h3.4v3.9h6.9v-3.7h6.9v3.7h-3.3v3.8h-13.9v-3.6
		h-3.4v-3.9h-3.5v-11.6h3.3v-3.6h3.5v-3.8h13.9v3.6h3.4V361.9z"/>
	<path id="XMLID_1987_" class="st1" d="M406.3,377.2H403v3.8h-17.4v-3.6h-3.5v-19.1h3.3v-3.8h17.4v3.6h3.4V377.2z M399.4,377.2
		v-18.9h-10.3v18.9H399.4z"/>
	<path id="XMLID_1983_" class="st1" d="M433.1,361.9h-6.8v-3.6h-6.8v3.6h-3.5v11.4h3.4v3.9h6.9v-3.7h6.9v3.7h-3.3v3.8h-13.9v-3.6
		h-3.4v-3.9h-3.5v-11.6h3.3v-3.6h3.5v-3.8h13.9v3.6h3.4V361.9z"/>
	<path id="XMLID_1980_" class="st1" d="M459.8,381h-6.8v-11.4h-10.3V381h-7v-26.6h6.8v11.3h10.4v-11.3h6.9V381z"/>
	<path id="XMLID_1976_" class="st1" d="M486.5,381h-6.9v-7.6h-10.3v7.6h-6.9v-19h3.3v-3.8h3.5v-3.8h10.4v3.6h3.5v3.8h3.4V381z
		 M479.5,369.6v-7.7h-3.4v-3.6h-3.5v3.8h-3.3v7.5H479.5z"/>
	<path id="XMLID_1970_" class="st1" d="M513.2,377.2h-3.3v3.8H489v-26.6h20.7v3.7h3.4v7.6h-3.4v3.8h3.4V377.2z M506.3,365.8v-7.5
		H496v7.5H506.3z M506.3,377.2v-7.6H496v7.6H506.3z"/>
	<path id="XMLID_1964_" class="st1" d="M539.9,381H533v-7.6h-10.3v7.6h-6.9v-19h3.3v-3.8h3.5v-3.8H533v3.6h3.5v3.8h3.4V381z
		 M533,369.6v-7.7h-3.4v-3.6H526v3.8h-3.3v7.5H533z"/>
	<path id="XMLID_1961_" class="st1" d="M566.6,381h-6.8v-11.4h-3.5v3.7h-3.5v-3.7h-3.3V381h-7v-26.6h6.8v3.6h3.5v3.9h3.4v-3.7h3.5
		v-3.8h6.9V381z"/>
	<path id="XMLID_1955_" class="st1" d="M593.3,377.2H590v3.8h-20.9v-26.6h20.7v3.7h3.4v7.6H590v3.8h3.4V377.2z M586.4,365.8v-7.5
		h-10.3v7.5H586.4z M586.4,377.2v-7.6h-10.3v7.6H586.4z"/>
	<path id="XMLID_1951_" class="st1" d="M620.1,381h-6.9v-7.6h-10.3v7.6h-6.9v-19h3.3v-3.8h3.5v-3.8h10.4v3.6h3.5v3.8h3.4V381z
		 M613.1,369.6v-7.7h-3.4v-3.6h-3.5v3.8h-3.3v7.5H613.1z"/>
	<path id="XMLID_1779_" class="st0" d="M657.1,366h-3.6v3.7h-3.8v3.8h-7.7v3.7h15.1v3.8h-26.6v-7.5h3.6v-3.8h3.8V366h7.6v-4.1h3.8
		v-3.7h-11.2v3.7h-7.7v-3.7h3.6v-3.8h19.2v3.9h3.8V366z"/>
	<path id="XMLID_1763_" class="st0" d="M686.4,373.4h-3.6v3.8h-3.8v3.8h-11.5v-3.6h-3.8v-3.8h-3.8V362h3.6v-3.7h3.8v-3.8h11.5v3.6
		h3.8v3.8h3.8V373.4z M678.8,377.2v-15.3H675v-3.6h-7.5v15.3h3.8v3.6H678.8z"/>
	<path id="XMLID_1751_" class="st0" d="M713.9,381h-22.8v-3.7h7.5v-15.2h-3.7v-3.8h3.7v-3.8h7.6v22.7h7.6V381z"/>
	<path id="XMLID_1740_" class="st0" d="M745.1,362h-3.6v3.7h-3.8v3.8h-3.8V381h-7.6v-11.5h3.5v-3.8h3.8V362h3.9v-3.7h-11.2v3.7h-7.7
		v-7.6h26.6V362z"/>
	<g>
		<rect x="621.6" y="201.4" class="st0" width="9.9" height="9.9"/>
		<rect x="640.5" y="201.4" class="st0" width="9.9" height="9.9"/>
		<rect x="659.4" y="201.4" class="st0" width="9.9" height="9.9"/>
		<rect x="678.3" y="201.4" class="st0" width="9.9" height="9.9"/>
		<rect x="697.2" y="201.4" class="st0" width="9.9" height="9.9"/>
		<rect x="716.1" y="201.4" class="st0" width="9.9" height="9.9"/>
		<rect x="735" y="201.4" class="st0" width="9.9" height="9.9"/>
	</g>
	<g>
		<rect x="219" y="362.8" class="st1" width="9.9" height="9.9"/>
		<rect x="237.9" y="362.8" class="st1" width="9.9" height="9.9"/>
		<rect x="256.8" y="362.8" class="st1" width="9.9" height="9.9"/>
		<rect x="275.7" y="362.8" class="st1" width="9.9" height="9.9"/>
		<rect x="294.6" y="362.8" class="st1" width="9.9" height="9.9"/>
		<rect x="313.5" y="362.8" class="st1" width="9.9" height="9.9"/>
		<rect x="332.4" y="362.8" class="st1" width="9.9" height="9.9"/>
		<rect x="87.4" y="362.8" class="st1" width="9.9" height="9.9"/>
		<rect x="106.3" y="362.8" class="st1" width="9.9" height="9.9"/>
		<rect x="51" y="362.8" class="st1" width="9.9" height="9.9"/>
		<rect x="69.9" y="362.8" class="st1" width="9.9" height="9.9"/>
		<rect x="125.2" y="362.8" class="st1" width="9.9" height="9.9"/>
		<rect x="144.1" y="362.8" class="st1" width="9.9" height="9.9"/>
		<rect x="163" y="362.8" class="st1" width="9.9" height="9.9"/>
		<rect x="181.9" y="362.8" class="st1" width="9.9" height="9.9"/>
		<rect x="200.8" y="362.8" class="st1" width="9.9" height="9.9"/>
	</g>
	<g>
		<path class="st1" d="M600.4,202.9h-2.3v-2.6h-2.6v-2.6h-2.6h-2.6h-2.6H585v2.6h-2.6v-2.6h-2.6h-2.6v2.6v2.6v2.6v2.6v2.6v2.6v2.6
			v2.6v2.6v2.6v2.6v2.6h2.6h2.6v-2.6v-2.6v-2.6v-2.6h2.6v2.6h2.6h2.6h2.6h2.6v-2.6h2.6V216h2.3h0.3v-2.6v-2.6v-2.6v-2.6v-2.6H600.4z
			 M595.5,208.2v2.6v2.6h-2.6v2.6h-2.6h-2.6H585v-2.6h-2.6v-2.6v-2.6v-2.6h2.6v-2.6h2.6h2.6h2.6v2.6h2.6V208.2z"/>
		<polygon id="XMLID_2056_" class="st1" points="574.6,197.7 574.6,200.3 574.6,202.9 574.6,205.6 574.6,208.2 574.6,210.8 
			574.6,213.4 574.6,216 574.6,218.6 574.6,221.2 572,221.2 569.3,221.2 569.3,218.6 566.7,218.6 566.7,221.2 564.1,221.2 
			561.5,221.2 558.9,221.2 556.2,221.2 556.2,218.6 553.6,218.6 553.6,216 553.6,213.4 553.6,210.8 553.6,208.2 553.6,205.6 
			553.6,202.9 553.6,200.3 553.6,197.7 556.2,197.7 558.9,197.7 558.9,200.3 558.9,202.9 558.9,205.6 558.9,208.2 558.9,210.8 
			558.9,213.4 558.9,216 561.5,216 564.1,216 566.7,216 566.7,213.4 569.3,213.4 569.3,210.8 569.3,208.2 569.3,205.6 569.3,202.9 
			569.3,200.3 569.3,197.7 572,197.7 		"/>
		<path class="st1" d="M548.4,202.9v-2.6h-2.6v-2.6h-2.6h-2.6h-2.6h-2.6h-2.6v2.6h-2.6v2.6h-2.6v2.6v2.6v2.6v2.6v2.6h2.6v2.6h2.6
			v2.6h2.6h2.6h2.6h2.6h2.6v-2.6h2.6V216h2.6v-2.6v-2.6v-2.6v-2.6v-2.6H548.4z M545.8,208.2v2.6v2.6h-2.6v2.6h-2.6h-2.6h-2.6v-2.6
			h-2.6v-2.6v-2.6v-2.6h2.6v-2.6h2.6h2.6h2.6v2.6h2.6V208.2z"/>
		<polygon id="XMLID_2055_" class="st1" points="524.5,197.5 524.6,200.1 524.6,202.7 522,202.8 519.4,202.9 519.5,205.5 
			516.9,205.6 517,208.2 517,210.8 517.1,213.4 517.2,216 517.3,218.6 517.4,221.2 514.7,221.3 512.1,221.4 512.1,218.8 512,216.2 
			511.9,213.6 511.8,211 511.7,208.4 511.6,205.8 511.6,203.2 511.5,200.5 511.4,197.9 514,197.9 516.6,197.8 516.7,200.4 
			519.3,200.3 519.2,197.7 521.9,197.6 		"/>
		<polygon id="XMLID_2054_" class="st1" points="509.1,202.9 509.1,205.6 509.1,208.2 509.1,210.8 506.5,210.8 506.5,213.4 
			506.5,216 503.9,216 503.9,218.6 501.3,218.6 498.7,218.6 498.7,221.2 496.1,221.2 493.4,221.2 490.8,221.2 488.2,221.2 
			485.6,221.2 485.6,218.6 483,218.6 480.4,218.6 480.4,216 477.7,216 477.7,213.4 477.7,210.8 475.1,210.8 475.1,208.2 
			475.1,205.6 475.1,202.9 475.1,200.3 475.1,197.7 477.7,197.7 477.7,195.1 477.7,192.5 480.4,192.5 480.4,189.9 483,189.9 
			485.6,189.9 485.6,187.3 488.2,187.3 490.8,187.3 493.4,187.3 496.1,187.3 498.7,187.3 498.7,189.9 501.3,189.9 503.9,189.9 
			503.9,192.5 503.9,195.1 501.3,195.1 498.7,195.1 498.7,192.5 496.1,192.5 493.4,192.5 490.8,192.5 488.2,192.5 485.6,192.5 
			485.6,195.1 483,195.1 483,197.7 480.4,197.7 480.4,200.3 480.4,202.9 480.4,205.6 480.4,208.2 480.4,210.8 483,210.8 483,213.4 
			485.6,213.4 485.6,216 488.2,216 490.8,216 493.4,216 496.1,216 498.7,216 498.7,213.4 501.3,213.4 501.3,210.8 503.9,210.8 
			503.9,208.2 501.3,208.2 498.7,208.2 496.1,208.2 493.4,208.2 493.4,205.6 493.4,202.9 496.1,202.9 498.7,202.9 501.3,202.9 
			503.9,202.9 506.5,202.9 		"/>
		<polygon id="XMLID_2053_" class="st1" points="464.6,200.3 464.6,202.9 464.6,205.6 462,205.6 459.4,205.6 459.4,202.9 
			456.8,202.9 456.8,200.3 454.2,200.3 454.2,202.9 451.6,202.9 451.6,205.6 454.2,205.6 454.2,208.2 456.8,208.2 459.4,208.2 
			462,208.2 462,210.8 464.6,210.8 464.6,213.4 464.6,216 464.6,218.6 462,218.6 462,221.2 459.4,221.2 456.8,221.2 454.2,221.2 
			451.6,221.2 448.9,221.2 448.9,218.6 446.3,218.6 446.3,216 446.3,213.4 448.9,213.4 451.6,213.4 451.6,216 454.2,216 
			454.2,218.6 456.8,218.6 456.8,216 459.4,216 459.4,213.4 456.8,213.4 456.8,210.8 454.2,210.8 451.6,210.8 448.9,210.8 
			448.9,208.2 446.3,208.2 446.3,205.6 446.3,202.9 446.3,200.3 448.9,200.3 448.9,197.7 451.6,197.7 454.2,197.7 456.8,197.7 
			459.4,197.7 462,197.7 462,200.3 		"/>
		<polygon id="XMLID_2052_" class="st1" points="443.7,197.7 443.7,200.3 443.7,202.9 441.1,202.9 438.5,202.9 438.5,205.6 
			435.9,205.6 435.9,208.2 435.9,210.8 435.9,213.4 435.9,216 435.9,218.6 435.9,221.2 433.2,221.2 430.6,221.2 430.6,218.6 
			430.6,216 430.6,213.4 430.6,210.8 430.6,208.2 430.6,205.6 430.6,202.9 430.6,200.3 430.6,197.7 433.2,197.7 435.9,197.7 
			435.9,200.3 438.5,200.3 438.5,197.7 441.1,197.7 		"/>
		<path class="st1" d="M425.4,202.9v-2.6h-2.6v-2.6h-3h-2.6h-2.6H412v2.6h-2.6v2.6h-2.6v2.6v2.6v2.6v2.6v2.6h2.6v2.6h2.6v2.6h2.6
			h2.6h2.6h3v-2.6h2.6V216h2.6v-2.6h-2.6h-2.6v2.6h-3h-2.6h-2.6H412v-2.6v-2.6h2.6h2.6h2.6h3h2.6h2.6v-2.6v-2.6v-2.6H425.4z
			 M422.8,205.6h-3h-2.6h-2.6H412v-2.6h2.6h2.6h2.6h3V205.6z"/>
		<path class="st1" d="M401.5,205.6v-2.6v-2.6h-2.6v-2.6h-2.6h-2.6H391h-2.6v2.6h-2.6v-2.6h-2.6h-2.6v2.6v2.6v2.6v2.6v2.6v2.6v2.6
			v2.6v2.6v2.6v2.6v2.6h2.6h2.6v-2.6v-2.6v-2.6v-2.6h2.6v2.6h2.6h2.6h2.6h2.6v-2.6h2.6V216v-2.6h2.6v-2.6v-2.6v-2.6H401.5z
			 M398.9,208.2v2.6v2.6h-2.6v2.6h-2.6H391h-2.6v-2.6h-2.6v-2.6v-2.6v-2.6h2.6v-2.6h2.6h2.6h2.6v2.6h2.6V208.2z"/>
		<path class="st1" d="M375.3,202.9v-2.6h-2.6v-2.6h-2.6h-2.6h-2.6h-2.6h-2.6v2.6H357v2.6h-2.6v2.6v2.6v2.6v2.6v2.6h2.6v2.6h2.6v2.6
			h2.6h2.6h2.6h2.6h2.6v-2.6h2.6V216h2.6v-2.6v-2.6v-2.6v-2.6v-2.6H375.3z M372.7,208.2v2.6v2.6h-2.6v2.6h-2.6h-2.6h-2.6v-2.6h-2.6
			v-2.6v-2.6v-2.6h2.6v-2.6h2.6h2.6h2.6v2.6h2.6V208.2z"/>
		<polygon id="XMLID_2051_" class="st1" points="351.8,187.3 351.8,189.9 351.8,192.5 351.8,195.1 351.8,197.7 351.8,200.3 
			351.8,202.9 351.8,205.6 351.8,208.2 351.8,210.8 351.8,213.4 351.8,216 351.8,218.6 351.8,221.2 349.2,221.2 346.5,221.2 
			346.5,218.6 346.5,216 346.5,213.4 346.5,210.8 346.5,208.2 346.5,205.6 346.5,202.9 346.5,200.3 346.5,197.7 346.5,195.1 
			346.5,192.5 346.5,189.9 346.5,187.3 349.2,187.3 		"/>
		<path class="st1" d="M341.3,202.9v-2.6h-2.6v-2.6h-2.6h-2.6h-2.6h-2.6v2.6h-2.6v2.6H323v2.6v2.6v2.6v2.6v2.6h2.6v2.6h2.6v2.6h2.6
			h2.6h2.6h2.6v-2.6h2.6V216h2.6v-2.6h-2.6h-2.6v2.6h-2.6h-2.6h-2.6h-2.6v-2.6v-2.6h2.6h2.6h2.6h2.6h2.6h2.6v-2.6v-2.6v-2.6H341.3z
			 M338.7,205.6h-2.6h-2.6h-2.6h-2.6v-2.6h2.6h2.6h2.6h2.6V205.6z"/>
		<polygon id="XMLID_2050_" class="st1" points="320.4,197.7 320.4,200.3 320.4,202.9 320.4,205.6 317.7,205.6 317.7,208.2 
			317.7,210.8 315.1,210.8 315.1,213.4 315.1,216 312.5,216 312.5,218.6 312.5,221.2 309.9,221.2 307.3,221.2 307.3,218.6 
			307.3,216 304.7,216 304.7,213.4 304.7,210.8 302,210.8 302,208.2 302,205.6 299.4,205.6 299.4,202.9 299.4,200.3 299.4,197.7 
			302,197.7 304.7,197.7 304.7,200.3 304.7,202.9 304.7,205.6 307.3,205.6 307.3,208.2 307.3,210.8 309.9,210.8 312.5,210.8 
			312.5,208.2 312.5,205.6 315.1,205.6 315.1,202.9 315.1,200.3 315.1,197.7 317.7,197.7 		"/>
		<path class="st1" d="M294.2,202.9v-2.6h-2.6v-2.6H289h-2.6h-2.6h-2.6v2.6h-2.6v2.6h-2.6v2.6v2.6v2.6v2.6v2.6h2.6v2.6h2.6v2.6h2.6
			h2.6h2.6h2.6v-2.6h2.6V216h2.6v-2.6h-2.6h-2.6v2.6H289h-2.6h-2.6h-2.6v-2.6v-2.6h2.6h2.6h2.6h2.6h2.6h2.6v-2.6v-2.6v-2.6H294.2z
			 M291.6,205.6H289h-2.6h-2.6h-2.6v-2.6h2.6h2.6h2.6h2.6V205.6z"/>
		<path class="st1" d="M270.6,197.7v-2.6v-2.6H268v-2.6h-2.6h-2.6v-2.6h-2.6h-2.6h-2.6h-2.6h-2.6h-2.6v2.6v2.6v2.6v2.6v2.6v2.6v2.6
			v2.6v2.6v2.6v2.6v2.6v2.6h2.6h2.6h2.6h2.6h2.6h2.6v-2.6h2.6h2.6V216h2.6v-2.6v-2.6h2.6v-2.6v-2.6v-2.6v-2.6v-2.6H270.6z
			 M268,200.3v2.6v2.6v2.6v2.6h-2.6v2.6h-2.6v2.6h-2.6h-2.6h-2.6h-2.6v-2.6v-2.6v-2.6v-2.6v-2.6v-2.6v-2.6v-2.6v-2.6h2.6h2.6h2.6
			h2.6v2.6h2.6v2.6h2.6V200.3z"/>
		<path class="st1" d="M234.5,200.3h-2.6v-2.6h-2.6h-2.6H224v2.6h-2.6h-2.6v2.6v2.6h-2.6v2.6v2.6v2.6h2.6v2.6v2.6h2.6h2.6v2.6h2.6
			h2.6h2.6v-2.6h2.6h2.6V216v-2.6h-2.6h-2.6v2.6h-2.6h-2.6H224v-2.6h2.6v-2.6h2.6h2.6v-2.6h2.6h2.6v-2.6v-2.6v-2.6H234.5z
			 M231.8,205.6h-2.6h-2.6v2.6H224h-2.6v-2.6h2.6v-2.6h2.6h2.6h2.6V205.6z"/>
		<polygon id="XMLID_1950_" class="st1" points="213.5,187.3 213.5,189.9 213.5,192.5 213.5,195.1 213.5,197.7 213.5,200.3 
			213.5,202.9 213.5,205.6 213.5,208.2 213.5,210.8 213.5,213.4 213.5,216 213.5,218.6 213.5,221.2 210.9,221.2 208.3,221.2 
			208.3,218.6 208.3,216 208.3,213.4 208.3,210.8 208.3,208.2 208.3,205.6 208.3,202.9 208.3,200.3 208.3,197.7 208.3,195.1 
			208.3,192.5 208.3,189.9 208.3,187.3 210.9,187.3 		"/>
		<path class="st1" d="M203,197.7h-2.6v2.6h-2.6v-2.6h-2.6h-2.6H190v2.6h-2.6v2.6h-2.6v2.6v2.6v2.6v2.6v2.6h2.6v2.6h2.6v2.6h2.6h2.6
			h2.6v-2.6h2.6v2.6v2.6h-2.6v2.6h-2.6h-2.6H190v-2.6h-2.6h-2.6v2.6v2.6h2.6h2.6v2.6h2.6h2.6h2.6V229h2.6h2.6v-2.6h2.6v-2.6v-2.6
			v-2.6V216v-2.6v-2.6v-2.6v-2.6v-2.6v-2.6v-2.6H203z M200.4,208.2v2.6v2.6h-2.6v2.6h-2.6h-2.6v-2.6H190v-2.6v-2.6v-2.6h2.6v-2.6
			h2.6h2.6v2.6h2.6V208.2z"/>
		<path class="st1" d="M179.5,205.6v-2.6v-2.6h-2.6h-2.6v-2.6h-2.6H169h-2.6v2.6h-2.6h-2.6v2.6v2.6h-2.6v2.6v2.6v2.6h2.6v2.6v2.6
			h2.6h2.6v2.6h2.6h2.6h2.6v-2.6h2.6h2.6V216v-2.6h2.6v-2.6v-2.6v-2.6H179.5z M176.9,208.2v2.6v2.6h-2.6v2.6h-2.6H169h-2.6v-2.6
			h-2.6v-2.6v-2.6v-2.6h2.6v-2.6h2.6h2.6h2.6v2.6h2.6V208.2z"/>
		<path class="st1" d="M153.3,205.6v-2.6v-2.6h-2.6h-2.6v-2.6h-2.6h-2.6h-2.6v2.6h-2.6H135v2.6v2.6h-2.6v2.6v2.6v2.6h2.6v2.6v2.6
			h2.6h2.6v2.6h2.6h2.6h2.6v-2.6h2.6h2.6V216v-2.6h2.6v-2.6v-2.6v-2.6H153.3z M150.7,208.2v2.6v2.6h-2.6v2.6h-2.6h-2.6h-2.6v-2.6
			h-2.6v-2.6v-2.6v-2.6h2.6v-2.6h2.6h2.6h2.6v2.6h2.6V208.2z"/>
		<polygon id="XMLID_1815_" class="st1" points="129.8,200.3 129.8,202.9 129.8,205.6 129.8,208.2 129.8,210.8 129.8,213.4 
			127.1,213.4 127.1,216 124.5,216 124.5,218.6 121.9,218.6 119.3,218.6 119.3,221.2 116.7,221.2 114.1,221.2 111.4,221.2 
			108.8,221.2 108.8,218.6 106.2,218.6 103.6,218.6 103.6,216 101,216 101,213.4 98.4,213.4 98.4,210.8 98.4,208.2 95.7,208.2 
			95.7,205.6 95.7,202.9 95.7,200.3 95.7,197.7 98.4,197.7 98.4,195.1 98.4,192.5 101,192.5 101,189.9 103.6,189.9 103.6,187.3 
			106.2,187.3 108.8,187.3 108.8,184.7 111.4,184.7 114.1,184.7 116.7,184.7 119.3,184.7 119.3,187.3 121.9,187.3 124.5,187.3 
			124.5,189.9 124.5,192.5 121.9,192.5 119.3,192.5 119.3,189.9 116.7,189.9 114.1,189.9 111.4,189.9 108.8,189.9 108.8,192.5 
			106.2,192.5 106.2,195.1 103.6,195.1 103.6,197.7 101,197.7 101,200.3 101,202.9 101,205.6 101,208.2 103.6,208.2 103.6,210.8 
			106.2,210.8 106.2,213.4 108.8,213.4 108.8,216 111.4,216 114.1,216 116.7,216 119.3,216 119.3,213.4 121.9,213.4 121.9,210.8 
			124.5,210.8 124.5,208.2 124.5,205.6 121.9,205.6 119.3,205.6 116.7,205.6 114.1,205.6 114.1,202.9 114.1,200.3 116.7,200.3 
			119.3,200.3 121.9,200.3 124.5,200.3 127.1,200.3 		"/>
		<g>
			<polygon class="st2" points="74.7,213 74.7,211.3 73,211.3 73,213 71.2,213 71.2,214.8 69.4,214.8 69.4,216.6 69.4,218.4 
				67.6,218.4 67.6,220.1 67.6,221.9 65.8,221.9 65.8,223.7 65.8,225.5 67.6,225.5 69.4,225.5 71.2,225.5 73,225.5 73,223.7 
				73,221.9 74.7,221.9 74.7,220.1 76.5,220.1 76.5,218.4 76.5,216.6 76.5,214.8 76.5,213 			"/>
			<polygon class="st3" points="83.6,202.4 83.6,200.6 83.6,198.8 81.9,198.8 81.9,197 80.1,197 80.1,195.2 80.1,193.5 78.3,193.5 
				78.3,191.7 78.3,189.9 76.5,189.9 76.5,188.1 76.5,186.3 74.7,186.3 74.7,184.6 73,184.6 73,182.8 73,181 71.2,181 69.4,181 
				67.6,181 65.8,181 65.8,182.8 65.8,184.6 67.6,184.6 67.6,186.3 69.4,186.3 69.4,188.1 69.4,189.9 71.2,189.9 71.2,191.7 
				71.2,193.5 73,193.5 73,195.2 73,197 74.7,197 74.7,198.8 74.7,200.6 76.5,200.6 76.5,202.4 78.3,202.4 78.3,204.1 78.3,205.9 
				80.1,205.9 80.1,207.7 80.1,209.5 81.9,209.5 81.9,207.7 83.6,207.7 83.6,205.9 83.6,204.1 85.4,204.1 85.4,202.4 			"/>
			<polygon class="st4" points="71.2,207.7 71.2,205.9 71.2,204.1 69.4,204.1 67.6,204.1 67.6,205.9 67.6,207.7 65.8,207.7 
				65.8,209.5 65.8,211.3 64,211.3 64,213 62.3,213 62.3,214.8 62.3,216.6 60.5,216.6 60.5,218.4 60.5,220.1 58.7,220.1 58.7,221.9 
				58.7,223.7 56.9,223.7 56.9,225.5 58.7,225.5 60.5,225.5 62.3,225.5 64,225.5 65.8,225.5 65.8,223.7 65.8,221.9 67.6,221.9 
				67.6,220.1 67.6,218.4 69.4,218.4 69.4,216.6 69.4,214.8 71.2,214.8 71.2,213 73,213 73,211.3 73,209.5 73,207.7 			"/>
			<polygon class="st5" points="80.1,209.5 80.1,207.7 80.1,205.9 78.3,205.9 78.3,204.1 78.3,202.4 76.5,202.4 76.5,200.6 
				74.7,200.6 74.7,198.8 74.7,197 73,197 73,195.2 73,193.5 71.2,193.5 71.2,191.7 71.2,189.9 69.4,189.9 69.4,188.1 69.4,186.3 
				67.6,186.3 67.6,184.6 65.8,184.6 65.8,182.8 65.8,181 64,181 62.3,181 60.5,181 58.7,181 56.9,181 56.9,182.8 58.7,182.8 
				58.7,184.6 58.7,186.3 60.5,186.3 60.5,188.1 60.5,189.9 62.3,189.9 62.3,191.7 64,191.7 64,193.5 64,195.2 65.8,195.2 65.8,197 
				65.8,198.8 67.6,198.8 67.6,200.6 67.6,202.4 69.4,202.4 69.4,204.1 71.2,204.1 71.2,205.9 71.2,207.7 73,207.7 73,209.5 
				73,211.3 74.7,211.3 74.7,213 76.5,213 76.5,214.8 76.5,216.6 78.3,216.6 78.3,214.8 78.3,213 80.1,213 80.1,211.3 81.9,211.3 
				81.9,209.5 			"/>
		</g>
	</g>
</g>
</svg>
