<?xml version="1.0" standalone="no"?>
<!DOCTYPE svg PUBLIC "-//W3C//DTD SVG 20010904//EN"
 "http://www.w3.org/TR/2001/REC-SVG-20010904/DTD/svg10.dtd">
<svg version="1.0" xmlns="http://www.w3.org/2000/svg"
 width="128.000000pt" height="128.000000pt" viewBox="0 0 128.000000 128.000000"
 preserveAspectRatio="xMidYMid meet">

<g transform="translate(0.000000,128.000000) scale(0.100000,-0.100000)"
fill="#000000" stroke="none">
<path d="M283 854 l-153 -86 73 -39 c147 -80 121 -78 226 -19 50 29 100 64
111 78 22 27 26 72 10 103 -13 23 -61 49 -92 49 -13 0 -92 -39 -175 -86z"/>
<path d="M768 924 c-51 -27 -64 -91 -28 -137 11 -14 107 -74 212 -133 147 -83
201 -109 229 -109 43 0 67 18 86 63 12 30 12 38 -4 70 -16 31 -45 51 -218 149
-111 62 -211 113 -225 113 -14 -1 -37 -7 -52 -16z"/>
<path d="M54 721 c-45 -28 -59 -74 -37 -120 16 -31 46 -51 218 -148 110 -62
210 -113 223 -113 31 0 79 26 92 49 16 31 12 76 -10 104 -23 29 -383 234 -426
242 -19 4 -39 -1 -60 -14z"/>
<path d="M850 570 c-47 -27 -95 -61 -107 -75 -24 -28 -30 -74 -13 -106 13 -23
61 -49 91 -49 12 0 91 39 176 86 l153 86 -53 28 c-28 15 -72 40 -97 54 -25 14
-49 25 -55 25 -5 -1 -48 -23 -95 -49z"/>
</g>
</svg>
