<?xml version="1.0" encoding="UTF-8"?>
<svg width="1450px" height="200px" viewBox="0 0 1450 200" version="1.1" xmlns="http://www.w3.org/2000/svg" xmlns:xlink="http://www.w3.org/1999/xlink">
    <!-- Generator: Sketch 53.2 (72643) - https://sketchapp.com -->
    <title>GDG / Logo / New / Large / Colored</title>
    <desc>Created with Sketch.</desc>
    <g id="GDG-/-Logo-/-New-/-Large-/-Colored" stroke="none" stroke-width="1" fill="none" fill-rule="evenodd">
        <g id="Group" transform="translate(400.000000, 46.000000)" fill="#757575">
            <g id="GDG-/-Resources-/-Logo-/-Text-/-Grey" transform="translate(0.000000, 1.000000)" fill-rule="nonzero">
                <path d="M113.995,3.6 L144.595,3.6 C175.755,3.6 195.315,24.28 195.315,53.3 C195.315,82.45 175.745,103 144.595,103 L113.995,103 L113.995,3.6 Z M145.125,87.94 C166.815,87.94 180.255,75.9 180.255,53.3 C180.255,30.83 166.815,18.66 145.125,18.66 L129.055,18.66 L129.055,87.94 L145.125,87.94 Z" id="Shape"></path>
                <path d="M101.425,48.79 L53.755,48.79 L53.755,63.55 L87.365,63.55 C86.255,71.08 83.645,76.95 79.735,80.87 C74.755,85.85 66.975,91.33 53.325,91.33 C32.275,91.33 15.815,74.36 15.815,53.31 C15.815,32.26 32.275,15.29 53.325,15.29 C62.9244695,15.166357 72.1850274,18.8353635 79.095,25.5 L89.175,15.42 C79.6513209,5.98650131 66.7282309,0.788427175 53.325,1 C24.495,1 0.255,24.47 0.255,53.31 C0.255,82.14 24.495,105.62 53.325,105.62 C68.885,105.62 80.625,100.52 89.815,90.95 C99.255,81.51 102.195,68.24 102.195,57.52 C102.226794,54.5917302 101.968872,51.6674952 101.425,48.79 Z M306.245,48.79 L258.575,48.79 L258.575,63.55 L292.185,63.55 C291.075,71.08 288.465,76.95 284.555,80.87 C279.575,85.85 271.795,91.33 258.145,91.33 C237.095,91.33 220.635,74.36 220.635,53.31 C220.635,32.26 237.095,15.29 258.145,15.29 C267.744469,15.166357 277.005027,18.8353635 283.915,25.5 L293.995,15.42 C284.471321,5.98650131 271.548231,0.788427175 258.145,1 C229.315,1 205.075,24.47 205.075,53.31 C205.075,82.14 229.315,105.62 258.145,105.62 C273.705,105.62 285.445,100.52 294.635,90.95 C304.075,81.51 307.015,68.24 307.015,57.52 C307.046702,54.5917337 306.788781,51.6675077 306.245,48.79 Z" id="Shape"></path>
            </g>
            <g id="GDG-/-Resources-/-Logo-/-Town-/-Grey" transform="translate(358.000000, 0.000000)">
                <path d="M68.6,75.74 C68.6,84.5133772 65.3800322,91.5599734 58.94,96.88 C52.406634,102.106693 44.47338,104.72 35.14,104.72 C26.8332918,104.72 19.5066984,102.293358 13.16,97.44 C6.8133016,92.5866424 2.4266788,85.960042 0,77.56 L12.32,72.52 C13.1600042,75.5066816 14.3266592,78.2133212 15.82,80.64 C17.3133408,83.0666788 19.0633233,85.1433247 21.07,86.87 C23.0766767,88.5966753 25.2933212,89.9499951 27.72,90.93 C30.1466788,91.9100049 32.7133198,92.4 35.42,92.4 C41.3000294,92.4 46.106648,90.8833485 49.84,87.85 C53.573352,84.8166515 55.44,80.7800252 55.44,75.74 C55.44,71.539979 53.9000154,67.9466816 50.82,64.96 C47.9266522,62.0666522 42.513373,59.2666802 34.58,56.56 C26.5532932,53.6666522 21.5600098,51.7066718 19.6,50.68 C8.9599468,45.2666396 3.64,37.2867194 3.64,26.74 C3.64,19.3666298 6.5799706,13.0666928 12.46,7.84 C18.4333632,2.6133072 25.7599566,0 34.44,0 C42.0933716,0 48.719972,1.9599804 54.32,5.88 C59.920028,9.7066858 63.653324,14.5133044 65.52,20.3 L53.48,25.34 C52.3599944,21.606648 50.1433499,18.5033457 46.83,16.03 C43.5166501,13.5566543 39.4800238,12.32 34.72,12.32 C29.6799748,12.32 25.4333506,13.719986 21.98,16.52 C18.5266494,19.1333464 16.8,22.539979 16.8,26.74 C16.8,30.1933506 18.1533198,33.1799874 20.86,35.7 C23.8466816,38.2200126 30.3332834,41.2066494 40.32,44.66 C50.4933842,48.1133506 57.7499783,52.3366417 62.09,57.33 C66.4300217,62.3233583 68.6,68.4599636 68.6,75.74 Z M106.56,103.6 C100.959972,103.6 96.3166851,101.873351 92.63,98.42 C88.9433149,94.9666494 87.0533338,90.1600308 86.96,84 L86.96,45.64 L74.92,45.64 L74.92,33.88 L86.96,33.88 L86.96,12.88 L99.84,12.88 L99.84,33.88 L116.64,33.88 L116.64,45.64 L99.84,45.64 L99.84,79.8 C99.84,84.3733562 100.726658,87.4766585 102.5,89.11 C104.273342,90.7433415 106.279989,91.56 108.52,91.56 C109.546672,91.56 110.549995,91.4433345 111.53,91.21 C112.510005,90.9766655 113.419996,90.6733352 114.26,90.3 L118.32,101.78 C114.959983,102.993339 111.040022,103.6 106.56,103.6 Z M142.84,102.48 L129.96,102.48 L129.96,33.88 L142.28,33.88 L142.28,45.08 L142.84,45.08 C144.146673,41.4399818 146.82998,38.3366795 150.89,35.77 C154.95002,33.2033205 158.93998,31.92 162.86,31.92 C166.593352,31.92 169.766654,32.4799944 172.38,33.6 L168.46,46.06 C166.873325,45.4066634 164.353351,45.08 160.9,45.08 C156.046642,45.08 151.823351,47.0399804 148.23,50.96 C144.636649,54.8800196 142.84,59.4533072 142.84,64.68 L142.84,102.48 Z M188.36,81.48 C188.36,84.8400168 189.783319,87.6399888 192.63,89.88 C195.476681,92.1200112 198.813314,93.24 202.64,93.24 C208.05336,93.24 212.883312,91.2333534 217.13,87.22 C221.376688,83.2066466 223.5,78.4933604 223.5,73.08 C219.486647,69.9066508 213.886703,68.32 206.7,68.32 C201.473307,68.32 197.110018,69.5799874 193.61,72.1 C190.109983,74.6200126 188.36,77.746648 188.36,81.48 Z M205.02,31.64 C214.540048,31.64 222.053306,34.1833079 227.56,39.27 C233.066694,44.3566921 235.82,51.333289 235.82,60.2 L235.82,102.48 L223.5,102.48 L223.5,92.96 L222.94,92.96 C217.619973,100.800039 210.526711,104.72 201.66,104.72 C194.099962,104.72 187.776692,102.480022 182.69,98 C177.603308,93.5199776 175.06,87.9200336 175.06,81.2 C175.06,74.1066312 177.743306,68.460021 183.11,64.26 C188.476693,60.059979 195.639955,57.96 204.6,57.96 C212.253372,57.96 218.553309,59.359986 223.5,62.16 L223.5,59.22 C223.5,54.7399776 221.726684,50.9366823 218.18,47.81 C214.633316,44.6833177 210.480024,43.12 205.72,43.12 C198.533297,43.12 192.840021,46.153303 188.64,52.22 L177.3,45.08 C183.553365,36.1199552 192.793272,31.64 205.02,31.64 Z M303.18,83.44 C303.18,89.4133632 300.566693,94.4533128 295.34,98.56 C290.113307,102.666687 283.533373,104.72 275.6,104.72 C268.693299,104.72 262.626693,102.923351 257.4,99.33 C252.173307,95.7366487 248.440011,91.0000294 246.2,85.12 L257.68,80.22 C259.360008,84.3266872 261.809984,87.5233219 265.03,89.81 C268.250016,92.0966781 271.773314,93.24 275.6,93.24 C279.706687,93.24 283.136653,92.3533422 285.89,90.58 C288.643347,88.8066578 290.02,86.7066788 290.02,84.28 C290.02,79.8933114 286.660034,76.6733436 279.94,74.62 L268.18,71.68 C254.833267,68.3199832 248.16,61.8800476 248.16,52.36 C248.16,46.1066354 250.703308,41.0900189 255.79,37.31 C260.876692,33.5299811 267.386627,31.64 275.32,31.64 C281.386697,31.64 286.869975,33.0866522 291.77,35.98 C296.670025,38.8733478 300.09999,42.7466424 302.06,47.6 L290.58,52.36 C289.273327,49.4666522 287.150015,47.2033415 284.21,45.57 C281.269985,43.9366585 277.980018,43.12 274.34,43.12 C270.979983,43.12 267.970013,43.9599916 265.31,45.64 C262.649987,47.3200084 261.32,49.3733212 261.32,51.8 C261.32,55.7200196 265.00663,58.5199916 272.38,60.2 L282.74,62.86 C296.366735,66.2200168 303.18,73.0799482 303.18,83.44 Z M351.64,104.72 C346.599975,104.72 342.003354,103.646677 337.85,101.5 C333.696646,99.3533226 330.500011,96.5066844 328.26,92.96 L327.7,92.96 L327.7,102.48 L315.38,102.48 L315.38,2.24 L328.26,2.24 L328.26,33.88 L327.7,43.4 L328.26,43.4 C330.500011,39.8533156 333.696646,37.0066774 337.85,34.86 C342.003354,32.7133226 346.599975,31.64 351.64,31.64 C360.693379,31.64 368.346635,35.1866312 374.6,42.28 C381.040032,49.4667026 384.26,58.0999496 384.26,68.18 C384.26,78.3533842 381.040032,86.9866312 374.6,94.08 C368.346635,101.173369 360.693379,104.72 351.64,104.72 Z M349.54,92.96 C355.700031,92.96 360.879979,90.62669 365.08,85.96 C369.280021,81.3866438 371.38,75.4600364 371.38,68.18 C371.38,60.9932974 369.280021,55.06669 365.08,50.4 C360.879979,45.73331 355.700031,43.4 349.54,43.4 C343.286635,43.4 338.060021,45.73331 333.86,50.4 C329.753313,55.06669 327.7,60.9932974 327.7,68.18 C327.7,75.4600364 329.753313,81.43331 333.86,86.1 C338.060021,90.6733562 343.286635,92.96 349.54,92.96 Z M393.1,68.18 C393.1,57.6332806 396.4133,48.9067012 403.04,42 C409.760034,35.0932988 418.206616,31.64 428.38,31.64 C438.553384,31.64 446.9533,35.0932988 453.58,42 C460.300034,48.9067012 463.66,57.6332806 463.66,68.18 C463.66,78.8200532 460.300034,87.5466326 453.58,94.36 C446.9533,101.266701 438.553384,104.72 428.38,104.72 C418.206616,104.72 409.760034,101.266701 403.04,94.36 C396.4133,87.4532988 393.1,78.7267194 393.1,68.18 Z M405.98,68.18 C405.98,75.5533702 408.126645,81.5266438 412.42,86.1 C416.713355,90.6733562 422.033302,92.96 428.38,92.96 C434.726698,92.96 440.046645,90.6733562 444.34,86.1 C448.633355,81.5266438 450.78,75.5533702 450.78,68.18 C450.78,60.8999636 448.633355,54.9733562 444.34,50.4 C439.953311,45.73331 434.633365,43.4 428.38,43.4 C422.126635,43.4 416.806689,45.73331 412.42,50.4 C408.126645,54.9733562 405.98,60.8999636 405.98,68.18 Z M535.92,102.48 L523.6,102.48 L523.6,92.96 L523.04,92.96 C521.07999,96.3200168 518.07002,99.1199888 514.01,101.36 C509.94998,103.600011 505.726689,104.72 501.34,104.72 C492.939958,104.72 486.476689,102.316691 481.95,97.51 C477.423311,92.7033093 475.16,85.866711 475.16,77 L475.16,33.88 L488.04,33.88 L488.04,76.16 C488.320001,87.360056 493.966612,92.96 504.98,92.96 C510.113359,92.96 514.406649,90.8833541 517.86,86.73 C521.313351,82.5766459 523.04,77.6066956 523.04,71.82 L523.04,33.88 L535.92,33.88 L535.92,102.48 Z M565.48,102.48 L552.6,102.48 L552.6,33.88 L564.92,33.88 L564.92,45.08 L565.48,45.08 C566.786673,41.4399818 569.46998,38.3366795 573.53,35.77 C577.59002,33.2033205 581.57998,31.92 585.5,31.92 C589.233352,31.92 592.406654,32.4799944 595.02,33.6 L591.1,46.06 C589.513325,45.4066634 586.993351,45.08 583.54,45.08 C578.686642,45.08 574.463351,47.0399804 570.87,50.96 C567.276649,54.8800196 565.48,59.4533072 565.48,64.68 L565.48,102.48 Z M631.72,92.96 C638.066698,92.96 643.246647,90.6733562 647.26,86.1 C651.460021,81.5266438 653.56,75.5533702 653.56,68.18 C653.56,60.9932974 651.460021,55.06669 647.26,50.4 C643.153313,45.73331 637.973365,43.4 631.72,43.4 C625.559969,43.4 620.380021,45.73331 616.18,50.4 C611.979979,55.06669 609.88,60.9932974 609.88,68.18 C609.88,75.4600364 611.979979,81.3866438 616.18,85.96 C620.380021,90.62669 625.559969,92.96 631.72,92.96 Z M631.3,134.96 C627.473314,134.96 623.880017,134.470005 620.52,133.49 C617.159983,132.509995 614.103347,131.133342 611.35,129.36 C608.596653,127.586658 606.24001,125.486679 604.28,123.06 C602.31999,120.633321 600.826672,117.926682 599.8,114.94 L611.98,109.9 C613.380007,113.913353 615.806649,117.133321 619.26,119.56 C622.713351,121.986679 626.726644,123.2 631.3,123.2 C638.300035,123.2 643.75998,121.100021 647.68,116.9 C651.60002,112.699979 653.56,106.91337 653.56,99.54 L653.56,92.96 L653,92.96 C650.573321,96.6000182 647.283354,99.4699895 643.13,101.57 C638.976646,103.670011 634.473358,104.72 629.62,104.72 C620.659955,104.72 612.960032,101.220035 606.52,94.22 C600.173302,87.0332974 597,78.3533842 597,68.18 C597,58.0066158 600.173302,49.3733688 606.52,42.28 C612.960032,35.1866312 620.659955,31.64 629.62,31.64 C634.473358,31.64 638.976646,32.6899895 643.13,34.79 C647.283354,36.8900105 650.573321,39.7599818 653,43.4 L653.56,43.4 L653.56,33.88 L665.88,33.88 L665.88,99.54 C665.88,110.553388 662.753365,119.186635 656.5,125.44 C650.153302,131.786698 641.753386,134.96 631.3,134.96 Z" id="Strasbourg"></path>
            </g>
        </g>
        <g id="GDG-/-Resources-/-Logo-/-Symbol-/-New-/-Color" transform="translate(0.000000, 0.000000)">
            <g id="Group-2" transform="translate(206.076618, 0.000000)">
                <path d="M32.7214447,100.017477 L151.2155,99.990354 C167.575112,99.9866093 180.840234,113.24566 180.843979,129.605272 C180.84398,129.609791 180.84398,129.614311 180.843979,129.618831 L180.843979,129.618831 C180.840233,145.988126 167.571233,159.257127 151.201937,159.260874 L32.7078816,159.287997 C16.3482695,159.291741 3.08314787,146.032691 3.07940323,129.673079 C3.0794022,129.668559 3.0794022,129.66404 3.07940323,129.65952 L3.07940323,129.65952 C3.0831491,113.290224 16.3521488,100.021224 32.7214447,100.017477 Z" id="Y" fill="#FFC107" transform="translate(91.961691, 129.639175) rotate(-30.000000) translate(-91.961691, -129.639175) "></path>
                <path d="M32.7078816,40.7120035 L151.201937,40.7391262 C167.571233,40.7428731 180.840233,54.0118736 180.843979,70.3811695 L180.843979,70.3811695 C180.847722,86.7407816 167.588671,100.005902 151.229059,100.009646 C151.224539,100.009647 151.22002,100.009647 151.2155,100.009646 L32.7214447,99.9825233 C16.3521488,99.9787764 3.0831491,86.7097759 3.07940323,70.34048 L3.07940323,70.34048 C3.07565958,53.9808679 16.3347107,40.7157471 32.6943228,40.7120035 C32.6988424,40.7120024 32.703362,40.7120024 32.7078816,40.7120035 Z" id="G" fill="#0F9D58" transform="translate(91.961691, 70.360825) rotate(30.000000) translate(-91.961691, -70.360825) "></path>
            </g>
            <g id="Group">
                <path d="M32.7078816,40.7120035 L151.201937,40.7391262 C167.571233,40.7428731 180.840233,54.0118736 180.843979,70.3811695 L180.843979,70.3811695 C180.847722,86.7407816 167.588671,100.005902 151.229059,100.009646 C151.224539,100.009647 151.22002,100.009647 151.2155,100.009646 L32.7214447,99.9825233 C16.3521488,99.9787764 3.0831491,86.7097759 3.07940323,70.34048 L3.07940323,70.34048 C3.07565958,53.9808679 16.3347107,40.7157471 32.6943228,40.7120035 C32.6988424,40.7120024 32.703362,40.7120024 32.7078816,40.7120035 Z" id="R" fill="#DB4437" transform="translate(91.961691, 70.360825) scale(-1, 1) rotate(30.000000) translate(-91.961691, -70.360825) "></path>
                <path d="M32.7214447,100.017477 L151.2155,99.990354 C167.575112,99.9866093 180.840234,113.24566 180.843979,129.605272 C180.84398,129.609791 180.84398,129.614311 180.843979,129.618831 L180.843979,129.618831 C180.840233,145.988126 167.571233,159.257127 151.201937,159.260874 L32.7078816,159.287997 C16.3482695,159.291741 3.08314787,146.032691 3.07940323,129.673079 C3.0794022,129.668559 3.0794022,129.66404 3.07940323,129.65952 L3.07940323,129.65952 C3.0831491,113.290224 16.3521488,100.021224 32.7214447,100.017477 Z" id="B" fill="#4285F4" transform="translate(91.961691, 129.639175) scale(-1, 1) rotate(-30.000000) translate(-91.961691, -129.639175) "></path>
            </g>
        </g>
    </g>
</svg>