<svg id="Layer_1" data-name="Layer 1" xmlns="http://www.w3.org/2000/svg" viewBox="0 0 937.01 125.66"><defs><style>.cls-1{fill:#fff;}</style></defs><title>crosslink-logo</title><path class="cls-1" d="M127.22,297.37a52.77,52.77,0,0,1-9.08,5.58,45.91,45.91,0,0,1-10.66,3.58,62.48,62.48,0,0,1-12.8,1.21,50.72,50.72,0,0,1-20.3-4A49.93,49.93,0,0,1,58.29,292.8a50.6,50.6,0,0,1-10.66-16.38A55.44,55.44,0,0,1,47.56,236a50.54,50.54,0,0,1,10.66-16.52,49.92,49.92,0,0,1,16.3-11.15A52.06,52.06,0,0,1,95.4,204.2a63.31,63.31,0,0,1,12.51,1.14,51.18,51.18,0,0,1,10.37,3.22A48.8,48.8,0,0,1,127,213.5a68.53,68.53,0,0,1,7.58,6.29l-11.3,13a56.6,56.6,0,0,0-12.73-9,33.14,33.14,0,0,0-15.3-3.43A31.32,31.32,0,0,0,82,223.15a32.71,32.71,0,0,0-10.51,7.58A34,34,0,0,0,64.65,242a38.93,38.93,0,0,0-2.43,13.87,39.51,39.51,0,0,0,2.43,13.94,34.6,34.6,0,0,0,6.87,11.37A32.17,32.17,0,0,0,82,288.79a31.32,31.32,0,0,0,13.23,2.79,33.12,33.12,0,0,0,15.73-3.5,62.28,62.28,0,0,0,13-9.51L135.3,290A64.33,64.33,0,0,1,127.22,297.37Z" transform="translate(-43.77 -187.93)"/><path class="cls-1" d="M228.69,306,204,271.13H181.92V306H164.47V205.92h44.62a51.13,51.13,0,0,1,15.52,2.21,33.78,33.78,0,0,1,11.73,6.3,27,27,0,0,1,7.36,10,35.59,35.59,0,0,1,.79,24.45,29.16,29.16,0,0,1-4.93,8.73,29.89,29.89,0,0,1-7.51,6.43,37.29,37.29,0,0,1-9.66,4.08l27,37.89ZM223,226q-5.46-4.25-15.35-4.24H181.92v33.75h25.82q9.47,0,15.06-4.59a15.17,15.17,0,0,0,5.6-12.35Q228.4,230.26,223,226Z" transform="translate(-43.77 -187.93)"/><path class="cls-1" d="M425.9,237.24a10.53,10.53,0,0,0,3.66,4,28.63,28.63,0,0,0,7.31,3.43q4.65,1.58,11.83,3.29a116,116,0,0,1,14,4.43,34.91,34.91,0,0,1,10.1,5.94,23.49,23.49,0,0,1,6.1,8.15A26.72,26.72,0,0,1,481,277.42a29.56,29.56,0,0,1-2.63,12.73,26.89,26.89,0,0,1-7.3,9.44,32.17,32.17,0,0,1-11.25,5.86,49.15,49.15,0,0,1-14.43,2,63.21,63.21,0,0,1-22.17-3.94,60.63,60.63,0,0,1-19.59-12.08l10.58-12.59a61.27,61.27,0,0,0,14.73,9.66,40.6,40.6,0,0,0,16.88,3.36q8.14,0,12.94-3.43a10.87,10.87,0,0,0,4.79-9.3,12.11,12.11,0,0,0-.93-4.86,9.8,9.8,0,0,0-3.44-3.94,29.18,29.18,0,0,0-6.88-3.36q-4.38-1.56-11.4-3.29a121.74,121.74,0,0,1-14.27-4.14,36.57,36.57,0,0,1-10.46-5.72,22.78,22.78,0,0,1-6.46-8.3,28.48,28.48,0,0,1-2.22-11.87A27.45,27.45,0,0,1,410,221.72a28,28,0,0,1,7-9.22,31,31,0,0,1,10.75-5.94,43.62,43.62,0,0,1,13.72-2.07,57.43,57.43,0,0,1,19.8,3.21,59,59,0,0,1,16.52,9.37l-9.44,13.3a61.73,61.73,0,0,0-13.58-7.65,36.91,36.91,0,0,0-13.59-2.65q-7.72,0-12,3.51a10.63,10.63,0,0,0-4.29,8.51A12.07,12.07,0,0,0,425.9,237.24Z" transform="translate(-43.77 -187.93)"/><path class="cls-1" d="M526.73,237.24a10.42,10.42,0,0,0,3.65,4,29,29,0,0,0,7.31,3.43q4.66,1.58,11.83,3.29a115.42,115.42,0,0,1,14,4.43,35.1,35.1,0,0,1,10.11,5.94,23.34,23.34,0,0,1,6.09,8.15,26.56,26.56,0,0,1,2.08,10.94,29.56,29.56,0,0,1-2.62,12.73,26.92,26.92,0,0,1-7.31,9.44,32.21,32.21,0,0,1-11.24,5.86,49.17,49.17,0,0,1-14.44,2A63.12,63.12,0,0,1,524,303.52a60.57,60.57,0,0,1-19.6-12.08L515,278.85a61.27,61.27,0,0,0,14.73,9.66,40.52,40.52,0,0,0,16.87,3.36q8.16,0,12.94-3.43a10.85,10.85,0,0,0,4.8-9.3,12.11,12.11,0,0,0-.94-4.86,9.8,9.8,0,0,0-3.44-3.94,29,29,0,0,0-6.88-3.36c-2.92-1-6.71-2.14-11.4-3.29a121.54,121.54,0,0,1-14.26-4.14A36.63,36.63,0,0,1,517,253.83a22.75,22.75,0,0,1-6.45-8.3,28.33,28.33,0,0,1-2.22-11.87,27.31,27.31,0,0,1,2.55-11.94,27.76,27.76,0,0,1,7-9.22,31,31,0,0,1,10.75-5.94,43.51,43.51,0,0,1,13.71-2.07,57.49,57.49,0,0,1,19.81,3.21,59.13,59.13,0,0,1,16.52,9.37l-9.44,13.3a62,62,0,0,0-13.59-7.65A36.9,36.9,0,0,0,542,220.07q-7.72,0-12,3.51a10.63,10.63,0,0,0-4.29,8.51A12.07,12.07,0,0,0,526.73,237.24Z" transform="translate(-43.77 -187.93)"/><path class="cls-1" d="M613.25,205.92h17.44v84.23h52.63V306H613.25Z" transform="translate(-43.77 -187.93)"/><path class="cls-1" d="M730.94,205.92V306H713.5V205.92Z" transform="translate(-43.77 -187.93)"/><path class="cls-1" d="M838.34,205.92h17.45V306h-14.7L786,234.81V306H768.55V205.92h16.27l53.52,69.21Z" transform="translate(-43.77 -187.93)"/><path class="cls-1" d="M980.78,306H959.47l-34.18-45-15.58,16v29H892.26V205.92h17.45v50.34l47.62-50.34h21.59l-41.61,43Z" transform="translate(-43.77 -187.93)"/><polygon class="cls-1" points="282.73 94.19 282.73 125.66 321.35 71.41 282.73 94.19"/><polygon class="cls-1" points="282.73 46.53 282.73 86.92 321.35 64.07 282.73 46.53"/><polygon class="cls-1" points="282.73 0 282.73 46.53 321.35 64.07 282.73 0"/><polygon class="cls-1" points="282.73 94.19 282.73 125.66 244.12 71.41 282.73 94.19"/><polygon class="cls-1" points="282.73 46.53 282.73 86.92 244.12 64.07 282.73 46.53"/><polygon class="cls-1" points="282.73 0 282.73 46.53 244.12 64.07 282.73 0"/></svg>
