<?xml version="1.0" encoding="UTF-8" standalone="no"?>
<svg
   xmlns:dc="http://purl.org/dc/elements/1.1/"
   xmlns:cc="http://creativecommons.org/ns#"
   xmlns:rdf="http://www.w3.org/1999/02/22-rdf-syntax-ns#"
   xmlns:svg="http://www.w3.org/2000/svg"
   xmlns="http://www.w3.org/2000/svg"
   xmlns:sodipodi="http://sodipodi.sourceforge.net/DTD/sodipodi-0.dtd"
   xmlns:inkscape="http://www.inkscape.org/namespaces/inkscape"
   id="Layer_4"
   width="367.3768"
   height="128"
   version="1.1"
   sodipodi:docname="logo2.svg"
   inkscape:version="0.92.3 (2405546, 2018-03-11)">
  <metadata
     id="metadata58">
    <rdf:RDF>
      <cc:Work
         rdf:about="">
        <dc:format>image/svg+xml</dc:format>
        <dc:type
           rdf:resource="http://purl.org/dc/dcmitype/StillImage" />
        <dc:title></dc:title>
      </cc:Work>
    </rdf:RDF>
  </metadata>
  <defs
     id="defs56" />
  <sodipodi:namedview
     pagecolor="#ffffff"
     bordercolor="#666666"
     borderopacity="1"
     objecttolerance="10"
     gridtolerance="10"
     guidetolerance="10"
     inkscape:pageopacity="0"
     inkscape:pageshadow="2"
     inkscape:window-width="1920"
     inkscape:window-height="1015"
     id="namedview54"
     showgrid="false"
     fit-margin-top="0"
     fit-margin-left="0"
     fit-margin-right="0"
     fit-margin-bottom="0"
     inkscape:zoom="2.3150307"
     inkscape:cx="268.15001"
     inkscape:cy="42.183149"
     inkscape:window-x="0"
     inkscape:window-y="0"
     inkscape:window-maximized="1"
     inkscape:current-layer="Layer_4" />
  <style
     id="style2">.st0{fill:none}.st5{opacity:.2;enable-background:new}.st13,.st5{fill:#fff}</style>
  <g
     id="XMLID_2_"
     transform="translate(-0.3)">
    <g
       id="XMLID_3_">
      <g
         id="XMLID_4_">
        <path
           id="XMLID_33_"
           d="M 78.7,58 45.1,0 H 0.3 l 37,64 -37,64 H 45.1 L 78.6,70 c 2.2,-3.7 2.2,-8.3 0.1,-12 z"
           class="st0"
           inkscape:connector-curvature="0"
           style="fill:none" />
        <path
           id="XMLID_32_"
           d="M 59.4,102.3 48.8,83.9 23.3,128 h 21.8 l 14.6,-25.2 z"
           inkscape:connector-curvature="0"
           style="fill:#ffc107" />
        <path
           id="XMLID_31_"
           d="M 78.7,58 45.1,0 H 0.3 l 37,64 -37,64 H 45.1 L 78.6,70 c 2.2,-3.7 2.2,-8.3 0.1,-12 z"
           class="st0"
           inkscape:connector-curvature="0"
           style="fill:none" />
        <path
           id="XMLID_30_"
           d="M 37.3,64 48.8,83.9 23.3,128 h -23 z"
           inkscape:connector-curvature="0"
           style="fill:#0f9d58" />
        <path
           id="XMLID_29_"
           d="M 78.7,58 45.1,0 H 0.3 l 37,64 -37,64 H 45.1 L 78.6,70 c 2.2,-3.7 2.2,-8.3 0.1,-12 z"
           class="st0"
           inkscape:connector-curvature="0"
           style="fill:none" />
        <path
           id="XMLID_28_"
           d="M 45.1,127 H 23.8 l -0.5,1 h 21.8 l 14.6,-25.2 -0.3,-0.5 z"
           inkscape:connector-curvature="0"
           style="opacity:0.2;fill:#bf360c" />
        <path
           id="XMLID_27_"
           d="M 78.7,58 45.1,0 H 0.3 l 37,64 -37,64 H 45.1 L 78.6,70 c 2.2,-3.7 2.2,-8.3 0.1,-12 z"
           class="st0"
           inkscape:connector-curvature="0"
           style="fill:none" />
        <path
           id="XMLID_26_"
           d="m 0.8,127 -0.5,1 h 23 l 0.5,-1 z"
           inkscape:connector-curvature="0"
           style="opacity:0.2;fill:#263238" />
        <path
           id="XMLID_25_"
           d="M 78.7,58 45.1,0 H 0.3 l 37,64 -37,64 H 45.1 L 78.6,70 c 2.2,-3.7 2.2,-8.3 0.1,-12 z"
           class="st0"
           inkscape:connector-curvature="0"
           style="fill:none" />
        <path
           id="XMLID_24_"
           d="M 0.3,128 H 0.8 L 37.6,64.5 37.3,64 Z"
           class="st5"
           inkscape:connector-curvature="0"
           style="opacity:0.2;fill:#ffffff;enable-background:new" />
        <path
           id="XMLID_23_"
           d="M 78.7,58 45.1,0 H 0.3 l 37,64 -37,64 H 45.1 L 78.6,70 c 2.2,-3.7 2.2,-8.3 0.1,-12 z"
           class="st0"
           inkscape:connector-curvature="0"
           style="fill:none" />
        <radialGradient
           id="XMLID_34_"
           cx="59.536999"
           cy="27.625999"
           r="44.264"
           gradientTransform="matrix(1,0,0,-1,0,130)"
           gradientUnits="userSpaceOnUse">
          <stop
             offset="0"
             stop-color="#bf360c"
             stop-opacity=".2"
             id="stop15" />
          <stop
             offset="1"
             stop-color="#bf360c"
             stop-opacity=".02"
             id="stop17" />
        </radialGradient>
        <path
           id="XMLID_22_"
           d="M 59.7,102.8 48.8,83.9 46.1,88.5 Z"
           style="fill:url(#XMLID_34_)"
           inkscape:connector-curvature="0" />
        <path
           id="XMLID_21_"
           d="M 78.7,58 45.1,0 H 0.3 l 37,64 -37,64 H 45.1 L 78.6,70 c 2.2,-3.7 2.2,-8.3 0.1,-12 z"
           class="st0"
           inkscape:connector-curvature="0"
           style="fill:none" />
        <radialGradient
           id="XMLID_35_"
           cx="59.410999"
           cy="27.346001"
           r="44.623001"
           gradientTransform="matrix(1,0,0,-1,0,130)"
           gradientUnits="userSpaceOnUse">
          <stop
             offset="0"
             stop-color="#263238"
             stop-opacity=".2"
             id="stop22" />
          <stop
             offset="1"
             stop-color="#263238"
             stop-opacity=".02"
             id="stop24" />
        </radialGradient>
        <path
           id="XMLID_20_"
           d="M 46.1,88.5 48.8,83.9 37.3,64 31.8,73.5 Z"
           style="fill:url(#XMLID_35_)"
           inkscape:connector-curvature="0" />
        <path
           id="XMLID_19_"
           d="M 78.7,58 45.1,0 H 0.3 l 37,64 -37,64 H 45.1 L 78.6,70 c 2.2,-3.7 2.2,-8.3 0.1,-12 z"
           class="st0"
           inkscape:connector-curvature="0"
           style="fill:none" />
        <g
           id="XMLID_16_">
          <g
             id="XMLID_17_">
            <path
               id="XMLID_18_"
               d="M 23.3,0 H 0.3 L 59.7,102.8 71.2,82.9 Z"
               inkscape:connector-curvature="0"
               style="fill:#4285f4" />
          </g>
        </g>
        <path
           id="XMLID_15_"
           d="M 78.7,58 45.1,0 H 0.3 l 37,64 -37,64 H 45.1 L 78.6,70 c 2.2,-3.7 2.2,-8.3 0.1,-12 z"
           class="st0"
           inkscape:connector-curvature="0"
           style="fill:none" />
        <path
           id="XMLID_14_"
           d="m 78.7,70 c 2.1,-3.7 2.1,-8.3 0,-12 L 45.1,0 H 23.3 l 47.9,82.9 z"
           inkscape:connector-curvature="0"
           style="fill:#db4437" />
        <path
           id="XMLID_13_"
           d="M 78.7,58 45.1,0 H 0.3 l 37,64 -37,64 H 45.1 L 78.6,70 c 2.2,-3.7 2.2,-8.3 0.1,-12 z"
           class="st0"
           inkscape:connector-curvature="0"
           style="fill:none" />
        <path
           id="XMLID_12_"
           d="M 71.2,82.9 70.9,82.4 59.7,101.8 0.8,0 H 0.3 l 59.4,102.8 z"
           inkscape:connector-curvature="0"
           style="opacity:0.2;fill:#1a237e" />
        <path
           id="XMLID_11_"
           d="M 78.7,58 45.1,0 H 0.3 l 37,64 -37,64 H 45.1 L 78.6,70 c 2.2,-3.7 2.2,-8.3 0.1,-12 z"
           class="st0"
           inkscape:connector-curvature="0"
           style="fill:none" />
        <path
           id="XMLID_10_"
           d="m 45.1,1 33.5,58 c 1,1.7 1.5,3.6 1.6,5.5 C 80.3,62.3 79.8,60 78.6,58 L 45.1,0 H 0.3 l 0.6,1 z"
           class="st5"
           inkscape:connector-curvature="0"
           style="opacity:0.2;fill:#ffffff;enable-background:new" />
        <path
           id="XMLID_9_"
           d="M 78.7,58 45.1,0 H 0.3 l 37,64 -37,64 H 45.1 L 78.6,70 c 2.2,-3.7 2.2,-8.3 0.1,-12 z"
           class="st0"
           inkscape:connector-curvature="0"
           style="fill:none" />
        <path
           id="XMLID_8_"
           d="M 71.2,82.9 78.7,70 c 1.2,-2 1.7,-4.3 1.6,-6.5 -0.1,1.9 -0.6,3.8 -1.6,5.5 L 71,82.4 Z"
           inkscape:connector-curvature="0"
           style="opacity:0.2;fill:#3e2723" />
        <path
           id="XMLID_6_"
           d="M 78.7,58 45.1,0 H 0.3 l 37,64 -37,64 H 45.1 L 78.6,70 c 2.2,-3.7 2.2,-8.3 0.1,-12 z"
           class="st0"
           inkscape:connector-curvature="0"
           style="fill:none" />
        <radialGradient
           id="XMLID_36_"
           cx="-0.74000001"
           cy="129"
           r="134.35001"
           gradientTransform="matrix(1,0,0,-1,0,130)"
           gradientUnits="userSpaceOnUse">
          <stop
             offset="0"
             stop-color="#fff"
             stop-opacity=".1"
             id="stop41" />
          <stop
             offset="1"
             stop-color="#fff"
             stop-opacity="0"
             id="stop43" />
        </radialGradient>
        <path
           id="XMLID_5_"
           d="M 78.7,58 45.1,0 H 0.3 l 37,64 -37,64 H 45.1 L 78.6,70 c 2.2,-3.7 2.2,-8.3 0.1,-12 z"
           style="fill:url(#XMLID_36_)"
           inkscape:connector-curvature="0" />
      </g>
    </g>
  </g>
  <text
     xml:space="preserve"
     style="font-style:normal;font-weight:normal;font-size:40px;line-height:1.25;font-family:sans-serif;letter-spacing:0px;word-spacing:5px;fill:#ffffff;fill-opacity:1;stroke:none;"
     x="101.45404"
     y="42.866669"
     id="text870"><tspan
       sodipodi:role="line"
       id="tspan868"
       x="101.45404"
       y="42.866669"
       style="font-style:normal;font-variant:normal;font-weight:normal;font-stretch:normal;font-size:58.66666794px;font-family:'Google Sans';-inkscape-font-specification:'Google Sans, Normal';font-variant-ligatures:normal;font-variant-caps:normal;font-variant-numeric:normal;font-feature-settings:normal;text-align:start;writing-mode:lr-tb;text-anchor:start;fill:#ffffff;"
       dy="10">DevFest</tspan><tspan
       sodipodi:role="line"
       x="101.45404"
       y="116.2"
       id="tspan872"
       style="font-style:normal;font-variant:normal;font-weight:normal;font-stretch:normal;font-size:58.66666794px;font-family:'Google Sans';-inkscape-font-specification:'Google Sans, Normal';font-variant-ligatures:normal;font-variant-caps:normal;font-variant-numeric:normal;font-feature-settings:normal;text-align:start;writing-mode:lr-tb;text-anchor:start;fill:#ffffff;">Paris 2019</tspan></text>
</svg>
