<svg xmlns="http://www.w3.org/2000/svg" viewBox="0 0 841.9 595.3"><path d="M146.3 277.2v-95.3h29.2c14.6 0 26.3 4.4 35.1 13.2 8.8 8.8 13.2 20.3 13.2 34.5 0 14.3-4.4 25.8-13.2 34.6 -8.8 8.7-20.5 13.1-35.1 13.1H146.3zM158.6 193.6v71.9h16.9c11.1 0 19.8-3.2 26.2-9.5 6.4-6.3 9.6-15.2 9.6-26.4 0-11.2-3.2-20-9.6-26.4 -6.4-6.4-15.1-9.6-26.2-9.6H158.6z"/><path d="M263.5 279.4c-9.6 0-17.5-3.3-23.7-9.9 -6.2-6.6-9.3-14.9-9.3-24.9 0-9.9 3-18.2 9.1-24.8 6-6.6 13.8-9.9 23.2-9.9 9.7 0 17.4 3.1 23.1 9.4 5.7 6.3 8.6 15 8.6 26.3l-0.1 1.3H243c0.2 6.4 2.3 11.5 6.4 15.4 4.1 3.9 9 5.9 14.6 5.9 7.8 0 13.9-3.9 18.4-11.7l10.9 5.3c-2.9 5.5-7 9.8-12.2 12.9C276 277.8 270.1 279.4 263.5 279.4zM244 236.8h37.4c-0.4-4.5-2.2-8.3-5.5-11.3 -3.3-3-7.8-4.5-13.4-4.5 -4.6 0-8.6 1.4-11.9 4.3C247.2 228.2 245 232 244 236.8z"/><path d="M336 277.2h-12.3L297.3 212h13.3l19.2 50.6h0.3l19.4-50.6h13.1L336 277.2z"/><path d="M385 236.4v40.9h-12.3v-95.3h55.7v11.7H385v31.3h39.2v11.5H385z"/><path d="M465.4 279.4c-9.6 0-17.5-3.3-23.7-9.9 -6.2-6.6-9.3-14.9-9.3-24.9 0-9.9 3-18.2 9.1-24.8 6-6.6 13.8-9.9 23.2-9.9 9.7 0 17.4 3.1 23.1 9.4 5.7 6.3 8.6 15 8.6 26.3l-0.1 1.3h-51.3c0.2 6.4 2.3 11.5 6.4 15.4 4.1 3.9 9 5.9 14.6 5.9 7.8 0 13.9-3.9 18.4-11.7l10.9 5.3c-2.9 5.5-7 9.8-12.2 12.9C477.8 277.8 472 279.4 465.4 279.4zM445.8 236.8h37.4c-0.4-4.5-2.2-8.3-5.5-11.3 -3.3-3-7.8-4.5-13.4-4.5 -4.6 0-8.6 1.4-11.9 4.3C449.1 228.2 446.9 232 445.8 236.8z"/><path d="M558.1 259.1c0 5.7-2.5 10.5-7.5 14.4 -5 3.9-11.2 5.9-18.8 5.9 -6.6 0-12.3-1.7-17.3-5.1 -5-3.4-8.5-7.9-10.7-13.5l10.9-4.7c1.6 3.9 3.9 6.9 7 9.1 3.1 2.2 6.4 3.3 10.1 3.3 3.9 0 7.2-0.8 9.8-2.5 2.6-1.7 3.9-3.7 3.9-6 0-4.2-3.2-7.2-9.6-9.2l-11.2-2.8c-12.7-3.2-19-9.3-19-18.4 0-5.9 2.4-10.7 7.3-14.3 4.8-3.6 11-5.4 18.6-5.4 5.8 0 11 1.4 15.6 4.1 4.7 2.8 7.9 6.4 9.8 11.1l-10.9 4.5c-1.2-2.7-3.3-4.9-6.1-6.5 -2.8-1.6-5.9-2.3-9.4-2.3 -3.2 0-6.1 0.8-8.6 2.4 -2.5 1.6-3.8 3.6-3.8 5.9 0 3.7 3.5 6.4 10.5 8l9.9 2.5C551.6 242.8 558.1 249.3 558.1 259.1z"/><path d="M593.9 278.3c-5.3 0-9.7-1.6-13.3-4.9 -3.5-3.3-5.3-7.9-5.4-13.7v-36.5h-11.5V212h11.5v-20h12.3v20h16v11.2h-16v32.5c0 4.4 0.8 7.3 2.5 8.9 1.7 1.6 3.6 2.3 5.7 2.3 1 0 1.9-0.1 2.9-0.3 0.9-0.2 1.8-0.5 2.6-0.9l3.9 10.9C601.9 277.7 598.2 278.3 593.9 278.3z"/><path d="M146.3 421.5v-95.3h34.5c7.5 0 14 2.5 19.4 7.5 5.4 4.9 8.1 11.1 8.1 18.5 0 9.4-4.3 16-12.9 19.8v0.5c4.9 1.6 8.8 4.4 11.7 8.3 2.9 3.9 4.4 8.5 4.4 13.5 0 7.8-2.8 14.3-8.5 19.4 -5.5 5.2-12.3 7.7-20.4 7.7H146.3zM158.6 337.9V367h22.2c4.3 0 8-1.5 10.9-4.4 2.9-3 4.4-6.4 4.4-10.3 0-3.7-1.4-7.1-4.3-10.1 -2.8-2.9-6.3-4.4-10.5-4.4H158.6zM158.6 378.5v31.3h24.6c4.4 0 8.2-1.6 11.3-4.7 3-3.1 4.5-6.8 4.5-11.1 0-4.2-1.6-7.8-4.7-10.9 -3.1-3.1-7-4.7-11.7-4.7H158.6z"/><path d="M248.1 354.1c9.1 0 16.2 2.4 21.4 7.3 5.2 4.8 7.9 11.5 7.9 19.9v40.2h-11.7v-9.1h-0.5c-5.1 7.5-11.8 11.2-20.2 11.2 -7.2 0-13.2-2.1-18-6.4 -4.8-4.3-7.3-9.6-7.3-16 0-6.7 2.6-12.1 7.7-16.1 5.1-4 11.9-6 20.4-6 7.3 0 13.3 1.3 18 4v-2.8c0-4.3-1.7-7.9-5.1-10.9 -3.4-3-7.3-4.5-11.8-4.5 -6.8 0-12.3 2.9-16.2 8.7l-10.8-6.8C227.7 358.4 236.4 354.1 248.1 354.1zM232.2 401.5c0 3.2 1.4 5.9 4.1 8 2.7 2.1 5.9 3.2 9.5 3.2 5.1 0 9.7-1.9 13.8-5.7 4-3.8 6.1-8.3 6.1-13.4 -3.8-3-9.1-4.5-16-4.5 -5 0-9.1 1.2-12.5 3.6S232.2 398 232.2 401.5z"/><path d="M303.5 326.2v95.3h-12.2v-95.3H303.5z"/><path d="M344.9 422.6c-5.3 0-9.7-1.6-13.3-4.9 -3.5-3.3-5.3-7.9-5.4-13.7v-36.5h-11.5v-11.2h11.5v-20h12.3v20h16v11.2h-16v32.5c0 4.4 0.8 7.3 2.5 8.9 1.7 1.6 3.6 2.3 5.7 2.3 1 0 1.9-0.1 2.9-0.3 0.9-0.2 1.8-0.5 2.6-0.9l3.9 10.9C352.9 422 349.1 422.6 344.9 422.6z"/><path d="M382.7 333.8c0 2.4-0.8 4.4-2.5 6.1 -1.7 1.7-3.7 2.5-6.1 2.5 -2.4 0-4.4-0.8-6.1-2.5 -1.7-1.7-2.5-3.7-2.5-6.1 0-2.4 0.8-4.4 2.5-6.1 1.7-1.7 3.7-2.5 6.1-2.5 2.4 0 4.4 0.8 6.1 2.5C381.9 329.3 382.7 331.4 382.7 333.8zM380.2 356.3v65.2h-12.3v-65.2H380.2z"/><path d="M425.3 423.6c-9.7 0-17.7-3.3-24.1-9.9 -6.3-6.7-9.5-15-9.5-24.9 0-10 3.2-18.3 9.5-24.9 6.4-6.6 14.4-9.9 24.1-9.9 6.7 0 12.5 1.7 17.4 5 5 3.3 8.7 7.9 11.2 13.8l-11.2 4.7c-3.5-8.2-9.5-12.3-18.2-12.3 -5.6 0-10.4 2.3-14.5 6.8 -4 4.5-6 10.1-6 16.8 0 6.7 2 12.3 6 16.8 4.1 4.5 8.9 6.8 14.5 6.8 9 0 15.3-4.1 18.9-12.3l10.9 4.7c-2.4 5.9-6.1 10.5-11.3 13.8C438 422 432.1 423.6 425.3 423.6z"/><path d="M514.9 403.4c0 5.7-2.5 10.5-7.5 14.4 -5 3.9-11.2 5.9-18.8 5.9 -6.6 0-12.3-1.7-17.3-5.1 -5-3.4-8.5-7.9-10.7-13.5l10.9-4.7c1.6 3.9 3.9 6.9 7 9.1 3.1 2.2 6.4 3.3 10.1 3.3 3.9 0 7.2-0.8 9.8-2.5 2.6-1.7 3.9-3.7 3.9-6 0-4.2-3.2-7.2-9.6-9.2l-11.2-2.8c-12.7-3.2-19-9.3-19-18.4 0-5.9 2.4-10.7 7.3-14.3 4.8-3.6 11-5.4 18.6-5.4 5.8 0 11 1.4 15.6 4.1 4.7 2.8 7.9 6.4 9.8 11.1l-10.9 4.5c-1.2-2.8-3.3-4.9-6.1-6.5 -2.8-1.6-5.9-2.3-9.4-2.3 -3.2 0-6.1 0.8-8.6 2.4 -2.5 1.6-3.8 3.6-3.8 5.9 0 3.7 3.5 6.4 10.5 8l9.9 2.5C508.4 387 514.9 393.5 514.9 403.4z"/><path d="M610.8 409.8v11.7h-58.1v-12.3l23.6-23.8c7.9-8.1 13.4-14.1 16.4-18.2 3-4 4.5-8.3 4.5-12.7 0-4-1.6-7.4-4.7-10.3 -3.1-2.8-7.1-4.3-12-4.3 -4.2 0-7.8 1.2-10.8 3.7 -3 2.5-5 5.5-5.9 9.1l-11.2-4.5c1.8-5.6 5.2-10.3 10.3-14.2 5.1-3.9 11-5.8 17.8-5.8 8.3 0 15.1 2.5 20.6 7.6 5.5 5.1 8.3 11.3 8.3 18.6 0 8.8-4.8 18.3-14.5 28.5l-26.6 26.8H610.8z"/><path d="M622.5 376c0-13.8 3.4-25.3 10.3-34.2 6.8-9 15.6-13.4 26.4-13.4s19.5 4.5 26.4 13.6c6.8 9 10.3 20.3 10.3 34.1 0 13.7-3.4 25.1-10.3 34.2 -6.8 9-15.6 13.4-26.4 13.4s-19.5-4.5-26.4-13.4C625.9 401 622.5 389.6 622.5 376zM683.2 376c0-10.5-2.2-19.1-6.7-25.8 -4.3-6.7-10.2-10.1-17.4-10.1s-13.1 3.4-17.4 10.1c-4.4 6.7-6.7 15.4-6.7 25.8 0 10.5 2.2 19.1 6.7 26 4.3 6.7 10.2 10 17.4 10s13.1-3.4 17.4-10.1C681 395 683.2 386.3 683.2 376z"/><path d="M740.2 330.4v91.1H728v-75.9l-17.7 7.7 -4.7-10.4 26.8-12.5H740.2z"/><path d="M815.7 342.9l-44.2 80.7 -10.9-5.6 42.2-75.9h-46.1l0.3-11.7h58.7V342.9z"/><polygon points="69.9 256.1 48.7 292.7 65 292.7 78 270.2 "/><polygon points="58.6 236.6 26.2 292.7 43.6 292.7 67.3 251.7 "/><polygon points="89.3 250.7 43.6 171.7 26.2 171.7 80.6 265.8 "/><path d="M97.3 237c1.7-2.9 1.7-6.6 0-9.5L65 171.7H48.7l43.2 74.6L97.3 237z"/></svg>