<?xml version="1.0" encoding="UTF-8"?>
<svg width="325px" height="131px" viewBox="0 0 325 131" version="1.1" xmlns="http://www.w3.org/2000/svg" xmlns:xlink="http://www.w3.org/1999/xlink">
    <!-- Generator: Sketch 52.5 (67469) - http://www.bohemiancoding.com/sketch -->
    <title>Group</title>
    <desc>Created with Sketch.</desc>
    <g id="Page-1" stroke="none" stroke-width="1" fill="none" fill-rule="evenodd">
        <g id="Group">
            <path d="M133.524,1.3924 C128.128,4.9204 116.785,22.5584 99.077,26.0174 C81.37,29.4754 59.304,28.7144 54.047,30.0984 C48.799,31.4794 44.103,34.4804 44.087,64.5194 C44.087,64.5304 44.087,64.5404 44.087,64.5514 L44.087,64.6644 L44.087,64.7954 L44.087,64.9264 L44.087,65.0384 C44.087,65.0504 44.087,65.0614 44.087,65.0724 C44.103,95.1104 48.799,98.1124 54.047,99.4934 C59.304,100.8764 81.37,100.1164 99.077,103.5744 C116.785,107.0334 128.128,124.6704 133.524,128.1994 C138.919,131.7264 139.818,127.4374 139.818,127.4374 C139.818,127.4374 139.858,109.4964 139.893,87.1884 L120.652,82.4854 L101.284,88.5724 L85.791,85.5284 L101.838,85.5284 L120.652,78.6114 L139.9,82.4604 C139.904,79.8294 139.908,77.1484 139.911,74.4454 C140.016,74.4484 140.119,74.4604 140.224,74.4604 C144.867,74.4604 148.796,71.4084 150.116,67.2004 L157.802,67.2004 L157.802,60.9894 L150.116,60.9894 C148.796,56.7814 144.867,53.7284 140.224,53.7284 C140.118,53.7284 140.015,53.7414 139.91,53.7444 C139.873,26.5054 139.818,2.1534 139.818,2.1534 C139.818,2.1534 138.919,-2.1346 133.524,1.3924" id="Fill-1" fill="#FCB920"></path>
            <path d="M133.524,1.3924 C128.128,4.9204 116.785,22.5584 99.077,26.0174 C81.37,29.4754 59.304,28.7144 54.047,30.0984 C48.799,31.4794 44.103,34.4804 44.087,64.5194 C44.087,64.5304 44.087,64.5404 44.087,64.5514 L44.087,64.6644 L44.087,64.7954 L44.087,64.9264 L44.087,65.0384 C44.087,65.0504 44.087,65.0614 44.087,65.0724 C44.103,95.1104 48.799,98.1124 54.047,99.4934 C59.304,100.8764 81.37,100.1164 99.077,103.5744 C116.785,107.0334 128.128,124.6704 133.524,128.1994 C138.919,131.7264 139.818,127.4374 139.818,127.4374 C139.818,127.4374 139.858,109.4964 139.893,87.1884 L120.652,82.4854 L101.284,88.5724 L85.791,85.5284 L101.838,85.5284 L120.652,78.6114 L139.9,82.4604 C139.904,79.8294 139.908,77.1484 139.911,74.4454 C140.016,74.4484 140.119,74.4604 140.224,74.4604 C144.867,74.4604 148.796,71.4084 150.116,67.2004 L157.802,67.2004 L157.802,60.9894 L150.116,60.9894 C148.796,56.7814 144.867,53.7284 140.224,53.7284 C140.118,53.7284 140.015,53.7414 139.91,53.7444 C139.873,26.5054 139.818,2.1534 139.818,2.1534 C139.818,2.1534 138.919,-2.1346 133.524,1.3924" id="Fill-3" fill="#FDC117"></path>
            <path d="M35.3849,130.4012 C32.3619,130.4012 29.4119,130.0732 26.5389,129.4182 C23.6649,128.7622 21.1189,127.6042 18.9029,125.9412 C16.6829,124.2782 14.8939,122.0332 13.5339,119.2122 C12.1729,116.3872 11.4929,112.8612 11.4929,108.6262 L11.4929,88.0632 C11.4929,84.5342 10.7769,81.9892 9.3469,80.4262 C7.9149,78.8642 5.7199,78.0812 2.7569,78.0812 L-0.0001,78.0812 L-0.0001,60.8442 L2.7569,60.8442 C5.7199,60.8442 7.9149,60.0632 9.3469,58.4982 C10.7769,56.9382 11.4929,54.3932 11.4929,50.8622 L11.4929,23.6432 C11.4929,19.4102 12.1729,15.8822 13.5339,13.0582 C14.8939,10.2372 16.6829,7.9922 18.9029,6.3292 C21.1189,4.6662 23.6649,3.5092 26.5389,2.8522 C29.4119,2.1972 32.3619,1.8692 35.3849,1.8692 L42.4909,1.8692 L42.4909,19.1072 L37.1249,19.1072 C34.9749,19.1072 33.5689,19.5372 32.9049,20.3932 C32.2389,21.2512 31.9079,22.5362 31.9079,24.2482 L31.9079,53.4342 C31.9079,58.8782 30.5959,62.7342 27.9749,65.0012 C25.3519,67.2702 21.9759,68.7582 17.8439,69.4612 C21.9759,70.1692 25.3519,71.6542 27.9749,73.9232 C30.5959,76.1902 31.9079,80.0472 31.9079,85.4902 L31.9079,108.0222 C31.9079,109.7372 32.2389,111.0232 32.9049,111.8792 C33.5689,112.7332 34.9749,113.1622 37.1249,113.1622 L42.4909,113.1622 L42.4909,130.4012 L35.3849,130.4012 Z" id="Fill-5" fill="#FFFFFF"></path>
            <path d="M281.6578,113.1619 L287.0238,113.1619 C289.1738,113.1619 290.5798,112.7329 291.2468,111.8789 C291.9098,111.0229 292.2438,109.7369 292.2438,108.0219 L292.2438,85.4899 C292.2438,80.0469 293.5378,76.1899 296.1328,73.9239 C298.7238,71.6539 302.0648,70.1689 306.1528,69.4609 C302.0648,68.7589 298.7238,67.2699 296.1328,65.0009 C293.5378,62.7339 292.2438,58.8779 292.2438,53.4339 L292.0908,24.2479 C292.0908,22.5359 291.7618,21.2509 291.1068,20.3929 C290.4518,19.5369 289.0668,19.1069 286.9508,19.1069 L281.6578,19.1069 L281.6578,1.8689 L288.7638,1.8689 C291.7898,1.8689 294.7368,2.1969 297.6098,2.8519 C300.4828,3.5099 303.0288,4.6659 305.2468,6.3289 C307.4648,7.9919 309.2528,10.2369 310.6158,13.0579 C311.9758,15.8829 312.6558,19.4099 312.6558,23.6429 L312.6558,50.8619 C312.6558,54.3929 313.3688,56.9379 314.8028,58.4979 C316.2308,60.0629 318.4288,60.8449 321.3898,60.8449 L324.1488,60.8449 L324.1488,78.0809 L321.3898,78.0809 C318.4288,78.0809 316.2308,78.8639 314.8028,80.4269 C313.3688,81.9889 312.6558,84.5339 312.6558,88.0629 L312.6558,108.6259 C312.6558,112.8609 311.9758,116.3879 310.6158,119.2119 C309.2528,122.0329 307.4648,124.2779 305.2468,125.9409 C303.0288,127.6039 300.4828,128.7629 297.6098,129.4179 C294.7368,130.0729 291.7898,130.4009 288.7638,130.4009 L281.6578,130.4009 L281.6578,113.1619 Z" id="Fill-8" fill="#FFFFFF"></path>
            <path d="M176.7701,112.2059 C173.1631,112.2059 169.9181,111.7739 167.0421,110.9169 C164.1641,110.0599 161.6291,108.8769 159.4381,107.3749 C157.2481,105.8729 155.3361,104.1109 153.7061,102.0899 C152.0731,100.0739 150.7431,97.9469 149.7101,95.7129 L164.4011,86.8199 C165.7721,89.3129 167.2771,91.4819 168.9101,93.3289 C170.5411,95.1779 172.9031,96.0979 175.9981,96.0979 C177.4561,96.0979 178.7861,95.9289 179.9911,95.5849 C181.1921,95.2399 182.2031,94.6399 183.0191,93.7789 C183.8361,92.9219 184.4781,91.7639 184.9531,90.2999 C185.4221,88.8419 185.6611,86.9949 185.6611,84.7609 L185.6611,23.4249 L203.7001,23.4249 L203.7001,85.0179 C203.7001,89.6549 203.0551,93.6939 201.7691,97.1309 C200.4801,100.5659 198.6301,103.4009 196.2271,105.6349 C193.8211,107.8689 190.9641,109.5209 187.6571,110.5949 C184.3491,111.6679 180.7201,112.2059 176.7701,112.2059" id="Fill-10" fill="#FFFFFF"></path>
            <path d="M246.3492,112.2059 C242.1402,112.2059 238.3172,111.7359 234.8812,110.7999 C231.4452,109.8629 228.3542,108.5849 225.6032,106.9649 C222.8532,105.3459 220.4692,103.4089 218.4532,101.1499 C216.4322,98.8919 214.7802,96.4769 213.4912,93.9069 L228.1812,85.4049 C230.1562,88.5849 232.4962,91.2039 235.2032,93.2629 C237.9102,95.3249 241.4952,96.3569 245.9642,96.3569 C249.7422,96.3569 252.7292,95.5189 254.9192,93.8399 C257.1102,92.1619 258.2042,90.0319 258.2042,87.4479 C258.2042,84.3539 257.0442,82.0299 254.7252,80.4779 C252.4072,78.9299 249.1842,77.2529 245.0602,75.4449 L240.5512,73.5089 C237.2852,72.1319 234.3212,70.6269 231.6612,68.9909 C228.9952,67.3549 226.7202,65.4629 224.8302,63.3129 C222.9412,61.1639 221.4822,58.7089 220.4502,55.9559 C219.4202,53.1999 218.9042,49.9749 218.9042,46.2729 C218.9042,42.9189 219.5272,39.7769 220.7722,36.8519 C222.0172,33.9259 223.7792,31.3879 226.0542,29.2349 C228.3282,27.0849 231.1012,25.4059 234.3652,24.2019 C237.6282,22.9979 241.2802,22.3929 245.3202,22.3929 C251.0742,22.3929 256.0342,23.4989 260.2022,25.7079 C264.3672,27.9159 267.9532,31.6609 270.9592,36.9439 L256.9152,45.9749 C255.3702,43.2259 253.6932,41.2509 251.8912,40.0469 C250.0852,38.8449 247.8952,38.2429 245.3202,38.2429 C242.6542,38.2429 240.5512,38.9719 239.0052,40.4289 C237.4592,41.8879 236.6862,43.7309 236.6862,45.9599 C236.6862,48.7069 237.5662,50.7849 239.3282,52.1999 C241.0862,53.6149 243.9022,55.1799 247.7672,56.8949 L252.2762,58.8229 C256.1432,60.4539 259.5572,62.1469 262.5202,63.9059 C265.4842,65.6649 267.9742,67.6369 269.9952,69.8209 C272.0112,72.0099 273.5572,74.4969 274.6332,77.2829 C275.7062,80.0709 276.2452,83.3519 276.2452,87.1229 C276.2452,91.1539 275.4912,94.7349 273.9892,97.8619 C272.4862,100.9949 270.4022,103.6309 267.7402,105.7739 C265.0772,107.9179 261.9192,109.5269 258.2682,110.6009 C254.6172,111.6679 250.6452,112.2059 246.3492,112.2059" id="Fill-12" fill="#FFFFFF"></path>
        </g>
    </g>
</svg>