<svg id="Layer_4" xmlns="http://www.w3.org/2000/svg" viewBox="0 0 536.9 128"><style>.st0{fill:none;} .st1{fill:#FFC107;} .st2{fill:#0F9D58;} .st3{opacity:0.2;fill:#BF360C;enable-background:new ;} .st4{opacity:0.2;fill:#263238;enable-background:new ;} .st5{opacity:0.2;fill:#FFFFFF;enable-background:new ;} .st6{fill:url(#XMLID_2_);} .st7{fill:url(#XMLID_3_);} .st8{fill:#4285F4;} .st9{fill:#DB4437;} .st10{opacity:0.2;fill:#1A237E;enable-background:new ;} .st11{opacity:0.2;fill:#3E2723;enable-background:new ;} .st12{fill:url(#XMLID_4_);} .st13{fill:#FFFFFF;}</style><g id="XMLID_60_"><g id="XMLID_61_"><g id="XMLID_62_"><path id="XMLID_106_" class="st0" d="M78.4 58L44.8 0H0l37 64-37 64h44.8l33.5-58c2.2-3.7 2.2-8.3.1-12z"/><path id="XMLID_105_" class="st1" d="M59.2 102.3L48.5 83.9 23 128h21.8l14.6-25.2z"/><path id="XMLID_104_" class="st0" d="M78.4 58L44.8 0H0l37 64-37 64h44.8l33.5-58c2.2-3.7 2.2-8.3.1-12z"/><path id="XMLID_103_" class="st2" d="M37 64l11.5 19.9L23 128H0z"/><path id="XMLID_102_" class="st0" d="M78.4 58L44.8 0H0l37 64-37 64h44.8l33.5-58c2.2-3.7 2.2-8.3.1-12z"/><path id="XMLID_101_" class="st3" d="M44.8 127H23.6l-.6 1h21.8l14.6-25.2-.2-.5z"/><path id="XMLID_100_" class="st0" d="M78.4 58L44.8 0H0l37 64-37 64h44.8l33.5-58c2.2-3.7 2.2-8.3.1-12z"/><path id="XMLID_99_" class="st4" d="M.6 127l-.6 1h23l.6-1z"/><path id="XMLID_98_" class="st0" d="M78.4 58L44.8 0H0l37 64-37 64h44.8l33.5-58c2.2-3.7 2.2-8.3.1-12z"/><path id="XMLID_96_" class="st5" d="M0 128h.6l36.7-63.5-.3-.5z"/><path id="XMLID_94_" class="st0" d="M78.4 58L44.8 0H0l37 64-37 64h44.8l33.5-58c2.2-3.7 2.2-8.3.1-12z"/><radialGradient id="XMLID_2_" cx="59.277" cy="2693.086" r="44.264" gradientTransform="matrix(1 0 0 -1 0 2795.46)" gradientUnits="userSpaceOnUse"><stop offset="0" stop-color="#BF360C" stop-opacity=".2"/><stop offset="1" stop-color="#BF360C" stop-opacity=".02"/></radialGradient><path id="XMLID_92_" class="st6" d="M59.4 102.8L48.5 83.9l-2.7 4.6z"/><path id="XMLID_90_" class="st0" d="M78.4 58L44.8 0H0l37 64-37 64h44.8l33.5-58c2.2-3.7 2.2-8.3.1-12z"/><radialGradient id="XMLID_3_" cx="59.151" cy="2692.806" r="44.623" gradientTransform="matrix(1 0 0 -1 0 2795.46)" gradientUnits="userSpaceOnUse"><stop offset="0" stop-color="#263238" stop-opacity=".2"/><stop offset="1" stop-color="#263238" stop-opacity=".02"/></radialGradient><path id="XMLID_89_" class="st7" d="M45.8 88.5l2.7-4.6L37 64l-5.5 9.5z"/><path id="XMLID_88_" class="st0" d="M78.4 58L44.8 0H0l37 64-37 64h44.8l33.5-58c2.2-3.7 2.2-8.3.1-12z"/><g id="XMLID_85_"><g id="XMLID_86_"><path id="XMLID_87_" class="st8" d="M23 0H0l59.4 102.8 11.5-19.9z"/></g></g><path id="XMLID_84_" class="st0" d="M78.4 58L44.8 0H0l37 64-37 64h44.8l33.5-58c2.2-3.7 2.2-8.3.1-12z"/><path id="XMLID_83_" class="st9" d="M78.4 70c2.1-3.7 2.1-8.3 0-12L44.8 0H23l47.9 82.9L78.4 70z"/><path id="XMLID_82_" class="st0" d="M78.4 58L44.8 0H0l37 64-37 64h44.8l33.5-58c2.2-3.7 2.2-8.3.1-12z"/><path id="XMLID_71_" class="st10" d="M70.9 82.9l-.2-.5-11.3 19.4L.6 0H0l59.4 102.8 11.5-19.9z"/><path id="XMLID_69_" class="st0" d="M78.4 58L44.8 0H0l37 64-37 64h44.8l33.5-58c2.2-3.7 2.2-8.3.1-12z"/><path id="XMLID_67_" class="st5" d="M44.8 1l33.5 58c1 1.7 1.5 3.6 1.6 5.5.1-2.2-.4-4.5-1.6-6.5L44.8 0H0l.6 1h44.2z"/><path id="XMLID_66_" class="st0" d="M78.4 58L44.8 0H0l37 64-37 64h44.8l33.5-58c2.2-3.7 2.2-8.3.1-12z"/><path id="XMLID_65_" class="st11" d="M70.9 82.9L78.4 70c1.2-2 1.7-4.3 1.6-6.5-.1 1.9-.6 3.8-1.6 5.5l-7.7 13.4.2.5z"/><path id="XMLID_64_" class="st0" d="M78.4 58L44.8 0H0l37 64-37 64h44.8l33.5-58c2.2-3.7 2.2-8.3.1-12z"/><radialGradient id="XMLID_4_" cx="-1" cy="2794.46" r="134.35" gradientTransform="matrix(1 0 0 -1 0 2795.46)" gradientUnits="userSpaceOnUse"><stop offset="0" stop-color="#FFF" stop-opacity=".1"/><stop offset="1" stop-color="#FFF" stop-opacity="0"/></radialGradient><path id="XMLID_63_" class="st12" d="M78.4 58L44.8 0H0l37 64-37 64h44.8l33.5-58c2.2-3.7 2.2-8.3.1-12z"/></g></g></g><g id="XMLID_7_"><path class="st13" d="M176.3 33.2c0 7-2.1 12.6-6.2 16.7-4.7 4.9-10.9 7.4-18.4 7.4-7.2 0-13.4-2.5-18.4-7.5-5.1-5-7.6-11.2-7.6-18.7s2.5-13.6 7.6-18.7c5.1-5 11.2-7.5 18.4-7.5 3.6 0 7 .7 10.3 2.1 3.3 1.4 5.9 3.3 7.8 5.6l-4.4 4.4c-3.3-4-7.9-6-13.7-6-5.3 0-9.8 1.9-13.7 5.6-3.8 3.7-5.8 8.5-5.8 14.5 0 5.9 1.9 10.7 5.8 14.5 3.9 3.7 8.4 5.6 13.7 5.6 5.6 0 10.3-1.9 14-5.6 2.4-2.4 3.8-5.8 4.2-10.1h-18.2v-6H176c.2 1.2.3 2.5.3 3.7zM182.7 56.2V6.1H198c7.7 0 13.9 2.3 18.5 7 4.6 4.6 6.9 10.7 6.9 18.1s-2.3 13.5-6.9 18.1c-4.6 4.6-10.8 7-18.5 7h-15.3zm6.4-6.2h8.9c5.8 0 10.4-1.7 13.8-5 3.4-3.3 5.1-8 5.1-13.9s-1.7-10.6-5.1-13.9c-3.4-3.3-8-5-13.8-5h-8.9V50zM278.1 33.2c0 7-2.1 12.6-6.2 16.7-4.7 4.9-10.9 7.4-18.4 7.4-7.2 0-13.4-2.5-18.4-7.5-5.1-5-7.6-11.2-7.6-18.7s2.5-13.6 7.6-18.7c5.1-5 11.2-7.5 18.4-7.5 3.6 0 7 .7 10.3 2.1 3.3 1.4 5.9 3.3 7.8 5.6l-4.4 4.4c-3.3-4-7.9-6-13.7-6-5.3 0-9.8 1.9-13.7 5.6-3.8 3.7-5.8 8.5-5.8 14.5 0 5.9 1.9 10.7 5.8 14.5 3.9 3.7 8.4 5.6 13.7 5.6 5.6 0 10.3-1.9 14-5.6 2.4-2.4 3.8-5.8 4.2-10.1h-18.2v-6h24.3c.2 1.2.3 2.5.3 3.7zM301.3 56.2V6.1h15.3c7.7 0 13.9 2.3 18.5 7 4.6 4.6 6.9 10.7 6.9 18.1s-2.3 13.5-6.9 18.1c-4.6 4.6-10.8 7-18.5 7h-15.3zm6.5-6.2h8.9c5.8 0 10.4-1.7 13.8-5 3.4-3.3 5.1-8 5.1-13.9s-1.7-10.6-5.1-13.9c-3.4-3.3-8-5-13.8-5h-8.9V50zM363.1 57.3c-5.2 0-9.4-1.7-12.6-5.2-3.2-3.5-4.9-7.8-4.9-13.1 0-5 1.6-9.3 4.7-12.9 3.1-3.6 7.2-5.4 12.1-5.4 5.1 0 9.2 1.7 12.2 5 3.1 3.3 4.6 7.7 4.6 13.3l-.1 1.2H352c.2 3.5 1.3 6.2 3.5 8.2 2.1 2 4.6 3 7.5 3 4.6 0 7.7-2 9.4-5.9l5.7 2.4c-1.1 2.7-3 4.9-5.5 6.7-2.6 1.8-5.7 2.7-9.5 2.7zm9.3-22.4c-.1-2-1-3.8-2.7-5.6-1.7-1.8-4.1-2.7-7.4-2.7-2.4 0-4.4.7-6.2 2.2-1.8 1.5-3 3.5-3.6 6h19.9zM392.8 56.2l-13.9-34.3h7L396 48.5h.1l10.2-26.6h6.9l-14 34.3h-6.4zM423.4 56.2H417V6.1h29.3v6.2h-22.8v16.5H444v6h-20.6v21.4zM465.7 57.3c-5.2 0-9.4-1.7-12.6-5.2-3.2-3.5-4.9-7.8-4.9-13.1 0-5 1.6-9.3 4.7-12.9 3.2-3.6 7.2-5.4 12.1-5.4 5.1 0 9.2 1.7 12.2 5 3.1 3.3 4.6 7.7 4.6 13.3l-.1 1.2h-27.1c.2 3.5 1.3 6.2 3.5 8.2 2.1 2 4.6 3 7.5 3 4.6 0 7.7-2 9.4-5.9l5.7 2.4c-1.1 2.7-3 4.9-5.5 6.7-2.6 1.8-5.8 2.7-9.5 2.7zm9.2-22.4c-.1-2-1-3.8-2.7-5.6-1.7-1.8-4.1-2.7-7.4-2.7-2.4 0-4.4.7-6.2 2.2-1.8 1.5-3 3.5-3.6 6h19.9zM498.9 57.3c-3.8 0-7-.9-9.5-2.8s-4.3-4.2-5.5-7l5.7-2.4c1.8 4.3 4.9 6.4 9.3 6.4 2 0 3.7-.4 4.9-1.3 1.3-.9 1.9-2.1 1.9-3.5 0-2.2-1.6-3.8-4.7-4.5l-6.9-1.7c-2.2-.6-4.3-1.6-6.2-3.2-2-1.6-2.9-3.7-2.9-6.3 0-3 1.3-5.5 4-7.4 2.7-1.9 5.9-2.8 9.6-2.8 3 0 5.7.7 8.1 2.1 2.4 1.4 4.1 3.3 5.1 5.9l-5.6 2.3c-1.3-3-3.9-4.6-7.8-4.6-1.9 0-3.5.4-4.8 1.2-1.3.8-2 1.9-2 3.2 0 2 1.5 3.3 4.5 4l6.8 1.6c3.2.7 5.6 2 7.1 3.9 1.5 1.8 2.3 3.9 2.3 6.2 0 3.1-1.3 5.6-3.8 7.7-2.4 2-5.6 3-9.6 3zM531.8 56.8c-3.6 0-6.3-1-8.2-2.9-1.9-1.9-2.8-4.6-2.8-8.1v-18h-6v-5.9h6V11.4h6.4v10.5h8.4v5.9h-8.4v17.5c0 3.7 1.5 5.6 4.6 5.6 1.2 0 2.1-.2 2.9-.6l2.2 5.5c-1.4.7-3.1 1-5.1 1zM142.2 123.3c-3.6 0-7.2-1.2-10.7-3.6-3.5-2.4-5.8-5.7-6.8-10l5.9-2.4c.7 2.8 2.1 5.1 4.3 7 2.2 1.9 4.6 2.8 7.3 2.8 2.8 0 5.2-.7 7.2-2.2 2-1.5 3-3.5 3-6 0-2.8-1-5-3-6.5s-5.1-2.9-9.4-4.2c-4.4-1.4-7.8-3.2-10.1-5.4s-3.4-5.1-3.4-8.5c0-3.6 1.4-6.7 4.3-9.4 2.8-2.7 6.6-4 11.1-4 4.2 0 7.7 1.1 10.4 3.2s4.4 4.4 5.2 7l-5.9 2.4c-.4-1.6-1.5-3.1-3.1-4.4-1.7-1.4-3.8-2-6.4-2-2.5 0-4.6.7-6.3 2.1-1.8 1.4-2.6 3.1-2.6 5.1 0 1.9.8 3.4 2.4 4.7 1.6 1.3 4 2.4 7.1 3.5 2.5.8 4.5 1.6 6.2 2.3 1.7.7 3.3 1.7 5 3 1.7 1.2 3 2.8 3.9 4.6.9 1.8 1.3 4 1.3 6.4 0 2.4-.5 4.6-1.5 6.5-1 1.9-2.3 3.4-4 4.5-1.7 1.1-3.4 2-5.4 2.6-2 .6-4 .9-6 .9zM180.1 123.3c-5.2 0-9.4-1.7-12.6-5.2-3.2-3.5-4.9-7.8-4.9-13.1 0-5 1.6-9.3 4.7-12.9 3.1-3.6 7.2-5.4 12.1-5.4 5.1 0 9.2 1.7 12.2 5 3.1 3.3 4.6 7.7 4.6 13.3l-.1 1.2H169c.2 3.5 1.3 6.2 3.5 8.2 2.1 2 4.6 3 7.5 3 4.6 0 7.7-2 9.4-5.9l5.7 2.4c-1.1 2.7-3 4.9-5.5 6.7-2.6 1.8-5.8 2.7-9.5 2.7zm9.2-22.4c-.1-2-1-3.8-2.7-5.6-1.7-1.8-4.1-2.7-7.4-2.7-2.4 0-4.4.7-6.2 2.2-1.8 1.5-3 3.5-3.6 6h19.9zM211.4 123.3c-3.6 0-6.7-1.1-9.1-3.1-2.4-2.1-3.7-4.9-3.7-8.3 0-3.7 1.4-6.7 4.3-8.8 2.9-2.1 6.5-3.2 10.7-3.2 3.8 0 6.9.7 9.3 2.1v-1c0-2.5-.9-4.5-2.6-6.1-1.7-1.5-3.9-2.3-6.4-2.3-1.9 0-3.6.4-5.1 1.3-1.5.9-2.6 2.1-3.1 3.6l-5.9-2.5c.8-2.1 2.4-4 4.7-5.7 2.3-1.8 5.4-2.6 9.2-2.6 4.4 0 8 1.3 10.9 3.9 2.9 2.6 4.3 6.2 4.3 10.8v20.7H223v-4.8h-.3c-2.6 4.1-6.4 6-11.3 6zm1.1-5.9c2.7 0 5.1-1 7.2-3 2.2-2 3.3-4.3 3.3-7-1.8-1.5-4.5-2.2-8.2-2.2-3.1 0-5.5.7-7.1 2-1.6 1.4-2.4 2.9-2.4 4.8 0 1.7.7 3 2.2 4 1.4.9 3.1 1.4 5 1.4zM247.7 123.3c-3.8 0-7-.9-9.5-2.8s-4.3-4.2-5.5-7l5.7-2.4c1.8 4.3 4.9 6.4 9.3 6.4 2 0 3.7-.4 4.9-1.3 1.3-.9 1.9-2.1 1.9-3.5 0-2.2-1.6-3.8-4.7-4.5l-6.9-1.7c-2.2-.6-4.3-1.6-6.2-3.2-2-1.6-2.9-3.7-2.9-6.3 0-3 1.3-5.5 4-7.4 2.7-1.9 5.9-2.8 9.6-2.8 3 0 5.7.7 8.1 2.1 2.4 1.4 4.1 3.3 5.1 5.9l-5.6 2.3c-1.3-3-3.9-4.6-7.8-4.6-1.9 0-3.5.4-4.8 1.2-1.3.8-2 1.9-2 3.2 0 2 1.5 3.3 4.6 4l6.8 1.6c3.2.7 5.6 2 7.1 3.9 1.5 1.8 2.3 3.9 2.3 6.2 0 3.1-1.3 5.6-3.8 7.7-2.5 2-5.8 3-9.7 3zM268.6 92c3.3-3.5 7.5-5.2 12.7-5.2 5.1 0 9.4 1.7 12.7 5.2 3.3 3.5 5 7.8 5 13.1 0 5.2-1.7 9.6-5 13.1s-7.5 5.2-12.7 5.2c-5.1 0-9.4-1.7-12.7-5.2-3.3-3.5-5-7.8-5-13.1s1.7-9.6 5-13.1zm4.8 22c2.2 2.3 4.8 3.4 7.9 3.4 3 0 5.7-1.1 7.9-3.4s3.3-5.3 3.3-9-1.1-6.7-3.3-9c-2.2-2.3-4.8-3.4-7.9-3.4-3 0-5.7 1.1-7.9 3.4s-3.3 5.3-3.3 9c0 3.8 1.1 6.8 3.3 9zM309.7 87.9v4.8h.3c.9-1.6 2.4-3 4.4-4.2 2-1.1 4.2-1.7 6.4-1.7 4.2 0 7.5 1.3 9.7 3.9 2.2 2.6 3.4 6.1 3.4 10.5v21h-6.4v-20c0-6.3-2.8-9.5-8.5-9.5-2.7 0-4.8 1.1-6.5 3.2-1.7 2.1-2.5 4.6-2.5 7.4v19h-6.4V87.9h6.1zM386.2 122.2h-30.5v-6.4c9.1-9.2 15-15.2 17.6-18 2.3-2.6 3.8-4.5 4.6-5.8.8-1.3 1.2-3 1.2-4.9 0-2-.8-3.8-2.4-5.3-1.6-1.5-3.7-2.3-6.4-2.3-2.4 0-4.4.7-5.9 2.1-1.5 1.4-2.4 3-2.9 4.6l-5.9-2.4c.8-2.5 2.5-4.9 5-7.1 2.5-2.2 5.8-3.4 9.8-3.4 4.4 0 8.1 1.4 10.9 4.1 2.8 2.7 4.3 5.9 4.3 9.7 0 4.7-2.5 9.7-7.6 15L364 116h22.2v6.2zM423.1 116.1c-3.5 4.8-8.2 7.2-13.9 7.2-5.7 0-10.4-2.4-13.9-7.2-3.5-4.8-5.3-10.8-5.3-17.9 0-7.1 1.8-13.1 5.3-17.9 3.5-4.8 8.2-7.2 13.9-7.2 5.7 0 10.4 2.4 13.9 7.2 3.5 4.8 5.3 10.7 5.3 17.9 0 7.2-1.7 13.1-5.3 17.9zm-13.9 1.1c3.8 0 6.9-1.8 9.2-5.4 2.3-3.6 3.5-8.1 3.5-13.5 0-5.5-1.2-10-3.5-13.5-2.3-3.6-5.4-5.4-9.2-5.4-3.9 0-7 1.8-9.2 5.4-2.3 3.6-3.4 8.1-3.4 13.5s1.1 9.9 3.4 13.5c2.2 3.6 5.3 5.4 9.2 5.4zM448.9 122.2h-6.4V82.3l-9.3 4.1-2.5-5.5 14.1-6.6h4.1v47.9zM462.2 123.3l-5.7-2.9 22.2-39.9h-24.2l.1-6.2h30.9v6.6l-23.3 42.4z"/></g></svg>