<?xml version="1.0" encoding="UTF-8"?>
<svg width="1653px" height="1633px" viewBox="0 0 1653 1633" version="1.1" xmlns="http://www.w3.org/2000/svg" xmlns:xlink="http://www.w3.org/1999/xlink">
    <!-- Generator: Sketch 48.2 (47327) - http://www.bohemiancoding.com/sketch -->
    <title>Color</title>
    <desc>Created with Sketch.</desc>
    <defs>
        <linearGradient x1="81.016238%" y1="11.9768859%" x2="45.9585226%" y2="83.1727428%" id="linearGradient-1">
            <stop stop-color="#FFC152" offset="0%"></stop>
            <stop stop-color="#EF5E68" offset="100%"></stop>
        </linearGradient>
    </defs>
    <g id="Page-1" stroke="none" stroke-width="1" fill="none" fill-rule="evenodd">
        <g id="Color">
            <g id="Logo" transform="translate(230.000000, 312.000000)">
                <ellipse id="Oval-2" fill="#FFFFFF" cx="682.5" cy="502.0884" rx="511.5" ry="502.0884"></ellipse>
                <path d="M990.097304,494.54699 C987.856438,498.944473 985.636478,503.27919 983.437415,507.551155 C981.036561,512.35646 977.835469,517.962564 973.834045,524.369637 C969.832621,530.77671 965.931291,536.482923 962.129938,541.488449 C958.328585,546.493974 955.027459,550.097899 952.226462,552.30033 C949.425465,554.502761 948.024988,553.801998 948.024988,550.19802 C948.024988,545.793157 949.225397,538.785527 951.626252,529.174917 L960.029201,497.940594 C962.029913,493.535732 963.130288,490.63257 963.330359,489.231023 C963.53043,487.829476 963.830533,486.528059 964.230675,485.326733 L971.433203,461.90099 C971.833345,459.097896 972.43355,456.495062 973.233835,454.092409 C974.034119,451.689757 974.834392,449.086923 975.034466,446.283828 C976.234894,443.080292 977.035167,439.876804 977.435309,436.673267 C977.835451,433.469731 978.03552,430.466461 978.03552,427.663366 C978.03552,417.251873 975.034496,407.941735 969.03236,399.732673 C963.030224,391.523611 953.226881,387.419142 939.622039,387.419142 C924.816769,387.419142 911.012063,391.823938 898.207505,400.633663 C895.806651,401.83499 893.005696,404.037388 889.804557,407.240924 C889.004272,399.232083 887.203658,392.52478 884.402661,387.118812 C881.601664,381.712844 877.000095,378.008811 870.597816,376.006601 C866.19625,374.404832 861.194544,373.60396 855.59255,373.60396 C849.990557,373.60396 839.081005,376.799398 838.2648,377.511978 C836.752238,378.832505 836.385816,388.920759 835.185389,395.528053 C833.984962,402.135347 832.184348,409.943849 829.783493,418.953795 C827.382639,427.963741 824.681718,437.874533 821.68065,448.686469 C818.679582,459.498404 815.778593,470.310177 812.977596,481.122112 C812.324364,483.519087 811.674426,485.899586 811.02778,488.263612 C807.697641,494.828995 804.412873,501.258161 801.173453,507.551155 C798.772599,512.35646 795.571507,517.962564 791.570083,524.369637 C787.568659,530.77671 783.667329,536.482923 779.865976,541.488449 C776.064623,546.493974 772.763497,550.097899 769.9625,552.30033 C767.161503,554.502761 765.761026,553.801998 765.761026,550.19802 C765.761026,545.793157 766.961435,538.785527 769.36229,529.174917 L777.765238,497.940594 C779.765951,493.535732 780.866326,490.63257 781.066397,489.231023 C781.266468,487.829476 781.56657,486.528059 781.966713,485.326733 L789.16924,461.90099 C789.569383,459.097896 790.169587,456.495062 790.969872,454.092409 C791.770157,451.689757 792.57043,449.086923 792.770504,446.283828 C793.970932,443.080292 794.771204,439.876804 795.171347,436.673267 C795.571489,433.469731 795.771557,430.466461 795.771557,427.663366 C795.771557,417.251873 792.770534,407.941735 786.768398,399.732673 C780.766262,391.523611 770.962919,387.419142 757.358077,387.419142 C742.552807,387.419142 728.748101,391.823938 715.943543,400.633663 C713.542689,401.83499 710.741734,404.037388 707.540594,407.240924 C706.74031,399.232083 704.939696,392.52478 702.138699,387.118812 C699.337702,381.712844 694.736133,378.008811 688.333854,376.006601 C683.932287,374.404832 678.930582,373.60396 673.328588,373.60396 C667.726594,373.60396 655.951944,377.330053 655.101326,378.478718 C654.247943,379.631116 654.121854,388.920759 652.921427,395.528053 C651.720999,402.135347 649.920386,409.943849 647.519531,418.953795 C645.118677,427.963741 642.417756,437.874533 639.416688,448.686469 C636.415619,459.498404 633.51463,470.310177 630.713633,481.122112 C629.082541,487.107262 627.471981,492.98969 625.881942,498.769434 C624.191787,502.082619 622.467848,505.410297 620.710123,508.752475 C616.308556,515.159548 612.00709,521.366307 607.805594,527.372937 C603.604099,533.379568 599.702769,538.485127 596.101487,542.689769 C592.500205,546.89441 589.599216,549.697463 587.398433,551.09901 C585.197649,552.500557 584.097274,551.799794 584.097274,548.9967 C584.097274,545.392721 585.297683,538.785527 587.698538,529.174917 C588.09868,527.973591 588.898953,524.870212 590.099381,519.864686 C591.299808,514.859161 592.900353,508.85262 594.901066,501.844884 C596.901778,494.837149 598.90246,487.328973 600.903172,479.320132 C602.903884,471.311291 604.904566,463.703006 606.905278,456.49505 C608.90599,449.287093 610.60657,442.880116 612.007069,437.273927 C613.407567,431.667739 614.507942,428.063814 615.308227,426.462046 C616.108512,423.25851 616.708717,420.355349 617.108859,417.752475 C617.509001,415.149602 617.70907,412.246441 617.70907,409.042904 C617.70907,401.434505 616.108524,394.92742 612.907385,389.521452 C609.706245,384.115485 604.104335,379.810797 596.101487,376.607261 C594.100775,375.806377 591.79999,375.205723 589.199065,374.805281 C586.598139,374.404838 584.097286,374.20462 581.696432,374.20462 C576.094438,374.20462 564.754756,378.103434 563.898701,379.065888 C562.728247,380.381817 562.52673,388.857826 561.889481,392.524752 C561.089196,397.129836 559.988821,402.635832 558.588322,409.042904 C557.187824,415.449977 555.587278,422.657826 553.786637,430.666667 C551.985996,438.675508 550.085348,446.48401 548.084636,454.092409 C544.883497,462.10125 540.782099,470.910843 535.780318,480.521452 C530.778538,490.132061 525.876867,499.542308 521.075158,508.752475 C517.473876,514.759106 513.472512,520.765647 509.070945,526.772277 C504.669378,532.778908 500.668014,537.984576 497.066732,542.389439 C493.465451,546.794301 490.364393,549.797572 487.763468,551.39934 C485.162542,553.001108 483.862098,552.200236 483.862098,548.9967 C483.862098,543.790953 485.262576,537.183758 488.063573,529.174917 L511.471788,451.689769 C515.873354,437.674297 518.874377,427.162851 520.474947,420.155116 C522.075517,413.14738 522.87579,407.441166 522.87579,403.036304 C522.87579,397.029673 521.575346,392.024222 518.974421,388.019802 C516.373495,384.015382 513.172403,380.611675 509.37105,377.808581 C505.569697,375.005487 501.468299,373.003306 497.066732,371.80198 C492.665166,370.600654 488.663802,370 485.06252,370 C480.260811,370 471.76334,372.80012 471.161416,373.428908 C470.894531,373.707703 470.610324,375.143203 470.27003,377.335091 C469.355123,383.228147 468.034791,394.588708 465.555674,403.636964 C462.154464,416.050667 458.253133,429.465274 453.851567,443.881188 C451.450712,451.890029 449.149928,459.89875 446.949145,467.907591 C444.748361,475.916432 442.647645,483.724934 440.646933,491.333333 C438.646221,498.941732 437.045675,505.949363 435.845248,512.356436 C434.644821,518.763508 434.044616,524.169395 434.044616,528.574257 C434.044616,540.187077 432.929638,547.973426 441.847354,562.511551 C450.76507,577.049676 456.852548,582.433409 471.257675,589.240924 C477.659954,592.044018 483.022426,594.687923 489.864205,590.141914 C496.705984,585.595906 515.773274,563.412575 520.374912,556.605061 C524.97655,549.797546 529.077948,542.990133 532.67923,536.182618 C533.879657,545.392785 538.181134,559.307988 543.583056,567.917492 C548.984979,576.526996 558.088083,583.634735 570.89264,589.240924 C578.095204,592.44446 584.050942,593.244121 592.200118,588.339934 C600.024164,583.63141 608.408249,570.984523 614.553878,563.426479 C614.944524,564.882921 615.429389,566.279814 616.008473,567.617162 C618.609399,573.623792 622.31066,578.629243 627.11237,582.633663 C631.914079,586.638084 637.415954,589.341027 643.618162,590.742574 C649.82037,592.144121 661.924586,591.042904 661.924586,591.042904 C661.924586,591.042904 663.725212,580.331174 664.925639,572.122112 C666.126067,563.91305 667.826646,554.903239 670.02743,545.092409 C672.228213,535.281579 674.8291,525.170569 677.830168,514.759076 C680.831236,504.347583 683.732225,494.5369 686.533222,485.326733 C688.533934,480.521428 692.435264,473.013252 698.23733,462.80198 C704.039395,452.590708 712.94243,442.27948 724.946703,431.867987 C728.547985,428.264008 731.749076,426.462046 734.550073,426.462046 C736.550785,426.462046 737.551126,429.865753 737.551126,436.673267 C737.551126,441.07813 735.350376,449.887723 730.948809,463.10231 C730.948809,463.903194 730.848775,464.30363 730.648704,464.30363 C730.448633,464.30363 730.14853,464.704066 730.348598,465.50495 C727.547601,473.113349 724.946715,480.821743 722.54586,488.630363 C720.145006,496.438983 718.144324,503.947159 716.543754,511.155116 C716.143611,513.557768 715.843509,516.260711 715.643438,519.264026 C715.443367,522.267342 715.343333,525.370721 715.343333,528.574257 C715.343333,540.187077 717.844185,551.499395 722.845966,562.511551 C727.847746,573.523707 737.751122,582.433409 752.556392,589.240924 C759.758955,592.44446 766.861377,592.244242 773.863869,588.640264 C780.866362,585.036286 787.368579,579.630399 793.370715,572.422442 C794.916173,570.566504 796.428465,568.67075 797.907593,566.735177 C798.024741,567.031994 798.146355,567.325989 798.272435,567.617162 C800.873361,573.623792 804.574623,578.629243 809.376332,582.633663 C814.178041,586.638084 819.679917,589.341027 825.882124,590.742574 C832.084332,592.144121 838.186412,592.24423 844.188548,591.042904 C845.388966,583.901751 846.389317,577.59482 847.189602,572.122112 C848.390029,563.91305 850.090609,554.903239 852.291392,545.092409 C854.492175,535.281579 857.093062,525.170569 860.09413,514.759076 C863.095198,504.347583 865.996187,494.5369 868.797184,485.326733 C870.797897,480.521428 874.699227,473.013252 880.501292,462.80198 C886.303357,452.590708 895.206392,442.27948 907.210665,431.867987 C910.811947,428.264008 914.013038,426.462046 916.814035,426.462046 C918.814747,426.462046 919.815088,429.865753 919.815088,436.673267 C919.815088,441.07813 917.614338,449.887723 913.212771,463.10231 C913.212771,463.903194 913.112737,464.30363 912.912666,464.30363 C912.712595,464.30363 912.412492,464.704066 912.612561,465.50495 C909.811564,473.113349 907.210677,480.821743 904.809822,488.630363 C902.408968,496.438983 900.408286,503.947159 898.807716,511.155116 C898.407574,513.557768 898.107471,516.260711 897.9074,519.264026 C897.707329,522.267342 897.607295,525.370721 897.607295,528.574257 C897.607295,540.187077 900.108147,551.499395 905.109928,562.511551 C910.111708,573.523707 920.015084,582.433409 934.820354,589.240924 C942.022918,592.44446 949.125339,592.244242 956.127832,588.640264 C963.130324,585.036286 969.632541,579.630399 975.634677,572.422442 C980.479707,566.604053 984.998767,560.394348 989.191944,553.793203 C989.992408,556.04888 990.90856,558.254224 991.940399,560.409241 C996.542037,570.01985 1006.04528,578.228789 1020.4504,585.036304 C1025.25211,587.038514 1030.05375,587.739277 1034.85546,587.138614 C1039.65717,586.537951 1044.25874,584.836098 1048.6603,582.033003 C1053.06187,579.229909 1057.36334,575.726094 1061.56483,571.521452 C1065.76633,567.316811 1069.66766,562.811905 1073.26894,558.006601 L1073.26894,559.207921 C1072.46866,563.612783 1071.66838,567.617144 1070.8681,571.221122 C1070.06781,574.825101 1069.06747,578.028589 1067.86704,580.831683 L1053.46199,588.940594 C1047.45985,591.943909 1042.05801,594.847071 1037.2563,597.650165 C1020.05018,606.45989 1005.64527,614.468611 994.041136,621.676568 C982.437006,628.884524 973.0338,637.694117 965.831237,648.105611 C959.428958,657.71622 956.227867,669.128647 956.227867,682.343234 C956.227867,692.354285 958.328583,701.864641 962.530078,710.874587 C966.731574,719.884533 973.433859,726.191401 982.637134,729.79538 C989.439556,732.598474 996.642011,734 1004.24472,734 C1012.24757,734 1020.15026,732.398256 1027.95304,729.194719 C1035.75581,725.991183 1043.15834,721.886714 1050.16083,716.881188 C1057.16332,711.875663 1063.46547,706.269558 1069.06747,700.062706 C1074.66946,693.855855 1079.4711,687.548987 1083.47252,681.141914 C1091.47537,667.126443 1099.57813,650.107911 1107.78105,630.085809 C1113.24966,616.73774 1120.7523,596.115078 1130.28895,568.217822 C1152.29678,552.20014 1172.20357,533.780082 1190.00991,512.957096 C1191.34841,511.391829 1192.666,509.811857 1193.96268,508.217178 C1190.61801,782.688839 962.909494,1004.1768 682.5,1004.1768 C476.155469,1004.1768 298.348655,884.240507 217.482861,711.512605 L217.482861,859.02351 L274.175831,881.085277 C286.552751,886.708004 292.367857,901.16283 287.2178,913.909669 C282.067743,926.656507 267.84354,933.014927 255,928.547124 L266.874925,899.155652 L217.482861,880.195815 L217.482861,984.743252 C219.455573,984.257603 221.518009,984 223.640612,984 C237.388521,984 248.612425,994.806546 249.281225,1008.38854 L217.482861,1008.38854 L198,1008.39412 L198,872.717045 L99.5429775,834.922935 L81.5835978,828.146185 L157.540061,691.117098 C134.402846,681.500054 110.299502,668.084707 86.5,655.5 C57.0602351,639.932833 28.2269018,649.226397 1.13686838e-13,683.380694 C19.9685596,534.948192 78.1179745,454.979652 174.448245,443.475073 C204.022266,193.795661 420.205203,0 682.5,0 C951.843334,0 1172.56322,204.351185 1192.52895,463.72205 C1189.15307,469.045024 1185.61244,474.144268 1181.90706,479.019802 C1171.10322,493.235495 1159.29919,506.149557 1146.49464,517.762376 C1149.29563,508.952651 1151.69645,501.144148 1153.69716,494.336634 C1155.69788,487.529119 1157.49849,480.921924 1159.09906,474.514851 C1160.69963,468.107779 1162.30018,461.600693 1163.90075,454.993399 C1165.50132,448.386106 1167.30193,441.078148 1169.30264,433.069307 C1171.30335,425.86135 1172.30369,418.453283 1172.30369,410.844884 C1172.30369,403.636928 1170.90322,397.029733 1168.10222,391.023102 C1165.30122,385.016472 1160.49959,380.611675 1153.69716,377.808581 C1151.29631,377.007697 1148.69542,376.407043 1145.89443,376.006601 C1143.09343,375.606159 1140.49254,375.405941 1138.09169,375.405941 C1132.48969,375.405941 1121.11888,379.350918 1120.3359,380.348669 C1119.31601,381.648311 1118.48482,391.723829 1116.48411,400.333333 C1114.48339,408.942837 1111.88251,418.653411 1109.28158,429.465347 C1104.88001,440.677724 1099.37814,453.391568 1092.77579,467.607261 C1086.17344,481.822953 1079.27108,495.537888 1072.06852,508.752475 C1068.46724,515.159548 1064.56591,521.366307 1060.36441,527.372937 C1056.16292,533.379568 1052.16155,538.485127 1048.3602,542.689769 C1044.55885,546.89441 1041.45779,549.797572 1039.05693,551.39934 C1036.65608,553.001108 1035.45567,552.200236 1035.45567,548.9967 C1035.45567,544.191395 1036.65608,537.5842 1039.05693,529.174917 C1047.05978,502.745742 1053.2619,481.923068 1057.66346,466.706271 C1062.06503,451.489473 1065.36616,439.876828 1067.56694,431.867987 C1069.76772,423.859146 1071.06817,418.553368 1071.46831,415.950495 C1071.86845,413.347622 1072.06852,411.045115 1072.06852,409.042904 C1072.06852,401.834947 1070.76808,395.227753 1068.16715,389.221122 C1065.56622,383.214491 1060.46448,378.809695 1052.86178,376.006601 C1050.86107,375.205717 1048.56028,374.605063 1045.95936,374.20462 C1043.35843,373.804178 1040.85758,373.60396 1038.45672,373.60396 C1032.85473,373.60396 1021.32808,377.167803 1020.46828,378.178224 C1019.43796,379.389041 1018.64978,387.319003 1017.44935,393.125413 C1016.24892,398.931822 1014.54834,405.939453 1012.34756,414.148515 C1010.14678,422.357577 1007.84599,431.067061 1005.44514,440.277228 C1003.04428,449.487395 1000.64347,458.09677 998.842822,466.105611 L996.441979,473.313531 C994.047132,480.503452 991.932252,487.581232 990.097304,494.54699 Z M217.482861,711.512605 L217.482861,704.49583 C258.365523,703.492124 362.160147,692.614655 413.143516,593.561252 C465.643516,491.561252 377.436826,406.507507 346.864762,379.820935 C317.06937,353.812324 280.820988,292.95039 338.744476,249.730961 C347.56623,267.501967 366.140785,279.746289 387.627513,279.746289 C393.422425,279.746289 399.005516,278.855678 404.242595,277.206236 C430.075826,281.722599 447.183438,301.472273 455.565432,336.455255 C460.094627,340.903017 464.623821,330.895552 469.153016,306.432861 C472.630255,287.6519 462.759434,266.249324 439.540553,242.225135 C441.124597,237.217014 441.977849,231.892932 441.977849,226.373144 C441.977849,196.895971 417.644375,173 387.627513,173 C369.069168,173 352.683299,182.134245 342.877514,196.074375 C300.439095,210.381053 273.460711,238.271691 261.942363,279.746289 C248.35478,328.671671 268.736155,375.373173 323.08649,419.850793 C377.574619,466.409003 395.760295,507.479156 377.643516,543.061252 C350.468349,596.434396 374.420546,445.048605 203.643516,442.061252 C193.550479,441.884697 183.818722,442.355971 174.448245,443.475073 C172.170802,462.702437 171,482.261207 171,502.0884 C171,576.836375 187.640253,647.769323 217.482861,711.512605 Z M198,703.346281 C190.820723,702.223016 183.448715,700.366434 175.931172,697.948558 L109.530284,817.014342 L198,851.441859 L198,703.346281 Z M1011.44724,687.148515 C1004.64482,687.148515 1001.24366,684.946117 1001.24366,680.541254 C1001.24366,676.136392 1003.64448,669.929633 1008.44619,661.920792 C1014.04819,653.911951 1022.15095,646.003339 1032.75472,638.194719 C1043.3585,630.3861 1055.06249,622.877924 1067.86704,615.669967 C1059.06391,636.492953 1050.06084,654.312357 1040.85757,669.128713 C1035.05555,676.470104 1030.3539,681.075165 1026.75262,682.943894 C1021.35069,685.746989 1016.24895,687.148515 1011.44724,687.148515 Z M534.18,629.96 L534.18,639.2 C534.18,640.666674 533.446674,641.4 531.98,641.4 L496.12,641.4 C495.53333,641.4 495.24,641.69333 495.24,642.28 L495.24,779.56 C495.24,781.026674 494.506674,781.76 493.04,781.76 L481.82,781.76 C480.353326,781.76 479.62,781.026674 479.62,779.56 L479.62,642.28 C479.62,641.69333 479.32667,641.4 478.74,641.4 L444.2,641.4 C442.733326,641.4 442,640.666674 442,639.2 L442,629.96 C442,628.493326 442.733326,627.76 444.2,627.76 L531.98,627.76 C533.446674,627.76 534.18,628.493326 534.18,629.96 Z M653.52,641.4 L587.52,641.4 C586.93333,641.4 586.64,641.69333 586.64,642.28 L586.64,696.84 C586.64,697.42667 586.93333,697.72 587.52,697.72 L631.96,697.72 C633.426674,697.72 634.16,698.453326 634.16,699.92 L634.16,709.16 C634.16,710.626674 633.426674,711.36 631.96,711.36 L587.52,711.36 C586.93333,711.36 586.64,711.65333 586.64,712.24 L586.64,767.24 C586.64,767.82667 586.93333,768.12 587.52,768.12 L653.52,768.12 C654.986674,768.12 655.72,768.853326 655.72,770.32 L655.72,779.56 C655.72,781.026674 654.986674,781.76 653.52,781.76 L573.22,781.76 C571.753326,781.76 571.02,781.026674 571.02,779.56 L571.02,629.96 C571.02,628.493326 571.753326,627.76 573.22,627.76 L653.52,627.76 C654.986674,627.76 655.72,628.493326 655.72,629.96 L655.72,639.2 C655.72,640.666674 654.986674,641.4 653.52,641.4 Z M702.79,771.64 C694.649959,763.71996 690.58,753.233399 690.58,740.18 L690.58,669.12 C690.58,656.066601 694.649959,645.616706 702.79,637.77 C710.930041,629.923294 721.673267,626 735.02,626 C748.513401,626 759.329959,629.886628 767.47,637.66 C775.610041,645.433372 779.68,655.773269 779.68,668.68 L779.68,670.66 C779.68,672.126674 778.946674,672.86 777.48,672.86 L766.26,673.3 C764.793326,673.3 764.06,672.640007 764.06,671.32 L764.06,668.24 C764.06,659.733291 761.38336,652.840026 756.03,647.56 C750.67664,642.279974 743.673377,639.64 735.02,639.64 C726.366623,639.64 719.400026,642.243307 714.12,647.45 C708.839974,652.656693 706.2,659.586623 706.2,668.24 L706.2,741.28 C706.2,749.933377 708.839974,756.863307 714.12,762.07 C719.400026,767.276693 726.366623,769.88 735.02,769.88 C743.673377,769.88 750.67664,767.240026 756.03,761.96 C761.38336,756.679974 764.06,749.786709 764.06,741.28 L764.06,738.2 C764.06,736.879993 764.793326,736.22 766.26,736.22 L777.48,736.88 C778.946674,736.88 779.68,737.466661 779.68,738.64 L779.68,740.62 C779.68,753.526731 775.610041,763.903294 767.47,771.75 C759.329959,779.596706 748.513401,783.52 735.02,783.52 C721.673267,783.52 710.930041,779.56004 702.79,771.64 Z M894.62,627.76 L905.84,627.76 C907.306674,627.76 908.04,628.493326 908.04,629.96 L908.04,779.56 C908.04,781.026674 907.306674,781.76 905.84,781.76 L894.62,781.76 C893.153326,781.76 892.42,781.026674 892.42,779.56 L892.42,712.24 C892.42,711.65333 892.12667,711.36 891.54,711.36 L836.98,711.36 C836.39333,711.36 836.1,711.65333 836.1,712.24 L836.1,779.56 C836.1,781.026674 835.366674,781.76 833.9,781.76 L822.68,781.76 C821.213326,781.76 820.48,781.026674 820.48,779.56 L820.48,629.96 C820.48,628.493326 821.213326,627.76 822.68,627.76 L833.9,627.76 C835.366674,627.76 836.1,628.493326 836.1,629.96 L836.1,696.84 C836.1,697.42667 836.39333,697.72 836.98,697.72 L891.54,697.72 C892.12667,697.72 892.42,697.42667 892.42,696.84 L892.42,629.96 C892.42,628.493326 893.153326,627.76 894.62,627.76 Z" id="Combined-Shape" fill="url(#linearGradient-1)"></path>
            </g>
        </g>
    </g>
</svg>