<?xml version="1.0" encoding="UTF-8" standalone="no"?>
<!-- Created with Inkscape (http://www.inkscape.org/) -->

<svg
   xmlns:dc="http://purl.org/dc/elements/1.1/"
   xmlns:cc="http://creativecommons.org/ns#"
   xmlns:rdf="http://www.w3.org/1999/02/22-rdf-syntax-ns#"
   xmlns:svg="http://www.w3.org/2000/svg"
   xmlns="http://www.w3.org/2000/svg"
   xmlns:sodipodi="http://sodipodi.sourceforge.net/DTD/sodipodi-0.dtd"
   xmlns:inkscape="http://www.inkscape.org/namespaces/inkscape"
   version="1.1"
   id="svg3904"
   width="135.24722"
   height="32"
   viewBox="0 0 135.24723 32"
   sodipodi:docname="logo-monochrome.svg"
   inkscape:version="0.92.2 5c3e80d, 2017-08-06">
  <metadata
     id="metadata3910">
    <rdf:RDF>
      <cc:Work
         rdf:about="">
        <dc:format>image/svg+xml</dc:format>
        <dc:type
           rdf:resource="http://purl.org/dc/dcmitype/StillImage" />
        <dc:title />
      </cc:Work>
    </rdf:RDF>
  </metadata>
  <defs
     id="defs3908" />
  <sodipodi:namedview
     pagecolor="#ffffff"
     bordercolor="#666666"
     borderopacity="1"
     objecttolerance="10"
     gridtolerance="10"
     guidetolerance="10"
     inkscape:pageopacity="0"
     inkscape:pageshadow="2"
     inkscape:window-width="1680"
     inkscape:window-height="1006"
     id="namedview3906"
     showgrid="false"
     showguides="true"
     inkscape:guide-bbox="true"
     inkscape:zoom="7.2407734"
     inkscape:cx="63.441894"
     inkscape:cy="-9.7940151"
     inkscape:window-x="0"
     inkscape:window-y="1"
     inkscape:window-maximized="1"
     inkscape:current-layer="svg3904"
     fit-margin-top="0"
     fit-margin-left="0"
     fit-margin-right="0"
     fit-margin-bottom="0">
    <sodipodi:guide
       position="432.29233,294.45998"
       orientation="1,0"
       id="guide3918"
       inkscape:locked="false" />
    <sodipodi:guide
       position="135.15625,206.41709"
       orientation="1,0"
       id="guide6056"
       inkscape:locked="false" />
    <sodipodi:guide
       position="2.0716024,29.587903"
       orientation="0,1"
       id="guide6058"
       inkscape:locked="false" />
  </sodipodi:namedview>
  <path
     style="opacity:0;fill:none;stroke:#000000;stroke-width:0.1215296px;stroke-linecap:butt;stroke-linejoin:miter;stroke-opacity:1"
     d="M 19.025171,8.494636 C 4.3058696,16.872426 4.3058696,16.872426 4.3058696,16.872426"
     id="path3940"
     inkscape:connector-curvature="0" />
  <path
     style="fill:#ea4335;fill-opacity:1;stroke:#673ab7;stroke-width:8.50707245;stroke-linecap:round;stroke-linejoin:round;stroke-miterlimit:4;stroke-dasharray:none;stroke-opacity:1"
     d="M 19.025171,8.473956 4.3058696,17.094796"
     id="path4747"
     inkscape:connector-curvature="0"
     sodipodi:nodetypes="cc" />
  <path
     sodipodi:nodetypes="cc"
     inkscape:connector-curvature="0"
     id="path4749"
     d="m 48.405598,16.872426 -14.719303,8.62084"
     style="fill:#673ab7;fill-opacity:1;stroke:#673ab7;stroke-width:8.50707245;stroke-linecap:round;stroke-linejoin:round;stroke-miterlimit:4;stroke-dasharray:none;stroke-opacity:1" />
  <path
     style="fill:#0f9d58;fill-opacity:1;stroke:#673ab7;stroke-width:8.50707245;stroke-linecap:round;stroke-linejoin:round;stroke-miterlimit:4;stroke-dasharray:none;stroke-opacity:1"
     d="m 33.686295,8.251576 14.719303,8.62085"
     id="path4751"
     inkscape:connector-curvature="0"
     sodipodi:nodetypes="cc" />
  <path
     sodipodi:nodetypes="cc"
     inkscape:connector-curvature="0"
     id="path4753"
     d="m 4.3058696,17.094796 14.7193014,8.62084"
     style="fill:#4285f4;fill-opacity:1;stroke:#673ab7;stroke-width:8.50707245;stroke-linecap:round;stroke-linejoin:round;stroke-miterlimit:4;stroke-dasharray:none;stroke-opacity:1" />
  <g
     aria-label="GDG DevFest 
Season 2019"
     style="font-style:normal;font-weight:normal;font-size:4.86118364px;line-height:1.25;font-family:sans-serif;letter-spacing:0px;word-spacing:0px;fill:#673ab7;fill-opacity:1;stroke:none;stroke-width:0.1215296"
     id="text4765">
    <path
       d="M 64.420157,12.218388 V 9.9340109 H 62.540246 V 8.9883587 h 3.019251 v 3.6515843 q -0.666514,0.472826 -1.469749,0.717785 -0.803234,0.239261 -1.714706,0.239261 -1.993845,0 -3.121792,-1.162127 Q 58.131,11.267039 58.131,9.1877432 q 0,-2.0849922 1.12225,-3.247119 1.127947,-1.1678235 3.121792,-1.1678235 0.831718,0 1.577986,0.2050812 0.751964,0.2050812 1.384298,0.6038502 V 6.8065226 Q 64.699295,6.2653361 63.981511,5.9918945 63.263727,5.7184529 62.471886,5.7184529 q -1.560896,0 -2.347041,0.8715951 -0.780448,0.8715951 -0.780448,2.5976952 0,1.7204038 0.780448,2.5919988 0.786145,0.871595 2.347041,0.871595 0.609546,0 1.088069,-0.102541 0.478523,-0.108237 0.860202,-0.330408 z"
       style="font-size:11.66684151px;fill:#673ab7;fill-opacity:1;stroke-width:0.1215296"
       id="path17" />
    <path
       d="m 68.818009,5.8722638 v 6.6138682 h 1.389995 q 1.76028,0 2.574908,-0.797538 0.820325,-0.797538 0.820325,-2.5179409 0,-1.70901 -0.820325,-2.5008513 -0.814628,-0.797538 -2.574908,-0.797538 z M 67.667275,4.9266116 h 2.364131 q 2.472368,0 3.628798,1.0311027 1.15643,1.025406 1.15643,3.2129388 0,2.1989259 -1.162127,3.2300289 -1.162127,1.031103 -3.623101,1.031103 h -2.364131 z"
       style="font-size:11.66684151px;fill:#673ab7;fill-opacity:1;stroke-width:0.1215296"
       id="path19" />
    <path
       d="M 82.444514,12.218388 V 9.9340109 H 80.564603 V 8.9883587 h 3.019251 v 3.6515843 q -0.666514,0.472826 -1.469749,0.717785 -0.803235,0.239261 -1.714707,0.239261 -1.993845,0 -3.121791,-1.162127 -1.12225,-1.167823 -1.12225,-3.2471188 0,-2.0849922 1.12225,-3.247119 1.127946,-1.1678235 3.121791,-1.1678235 0.831719,0 1.577986,0.2050812 0.751965,0.2050812 1.384298,0.6038502 V 6.8065226 Q 82.723652,6.2653361 82.005868,5.9918945 81.288084,5.7184529 80.496242,5.7184529 q -1.560895,0 -2.34704,0.8715951 -0.780448,0.8715951 -0.780448,2.5976952 0,1.7204038 0.780448,2.5919988 0.786145,0.871595 2.34704,0.871595 0.609547,0 1.08807,-0.102541 0.478523,-0.108237 0.860202,-0.330408 z"
       style="font-size:11.66684151px;fill:#673ab7;fill-opacity:1;stroke-width:0.1215296"
       id="path21" />
    <path
       d="m 90.556615,5.8722638 v 6.6138682 h 1.389995 q 1.76028,0 2.574908,-0.797538 0.820325,-0.797538 0.820325,-2.5179409 0,-1.70901 -0.820325,-2.5008513 Q 93.70689,5.8722638 91.94661,5.8722638 Z M 89.405882,4.9266116 h 2.36413 q 2.472368,0 3.628798,1.0311027 1.15643,1.025406 1.15643,3.2129388 0,2.1989259 -1.162126,3.2300289 -1.162127,1.031103 -3.623102,1.031103 h -2.36413 z"
       style="font-size:11.66684151px;fill:#673ab7;fill-opacity:1;stroke-width:0.1215296"
       id="path23" />
    <path
       d="m 103.79574,9.9795845 v 0.5127025 h -4.819405 q 0.06836,1.082373 0.649424,1.652043 0.586761,0.563974 1.629261,0.563974 0.60385,0 1.16782,-0.148114 0.56967,-0.148115 1.12795,-0.444343 v 0.991226 q -0.56398,0.239261 -1.15643,0.364589 -0.59246,0.125327 -1.20201,0.125327 -1.526714,0 -2.421096,-0.888685 -0.888685,-0.888685 -0.888685,-2.404008 0,-1.5665921 0.843112,-2.4837608 0.848808,-0.9228654 2.284379,-0.9228654 1.28745,0 2.03372,0.8317182 0.75196,0.8260215 0.75196,2.2501965 z m -1.04819,-0.3076218 q -0.0114,-0.8602017 -0.48422,-1.3729047 -0.46713,-0.512703 -1.24188,-0.512703 -0.87729,0 -1.407084,0.4956129 -0.524097,0.4956129 -0.60385,1.3956915 z"
       style="font-size:11.66684151px;fill:#673ab7;fill-opacity:1;stroke-width:0.1215296"
       id="path25" />
    <path
       d="m 104.76419,7.0514807 h 1.11085 l 1.99385,5.3548983 1.99384,-5.3548983 h 1.11086 l -2.39262,6.3803043 h -1.42417 z"
       style="font-size:11.66684151px;fill:#673ab7;fill-opacity:1;stroke-width:0.1215296"
       id="path27" />
    <path
       d="m 112.46612,4.9266116 h 4.88777 v 0.968439 h -3.73703 v 2.506548 h 3.37244 v 0.968439 h -3.37244 v 4.0617474 h -1.15074 z"
       style="font-size:11.66684151px;fill:#673ab7;fill-opacity:1;stroke-width:0.1215296"
       id="path29" />
    <path
       d="m 123.96206,9.9795845 v 0.5127025 h -4.8194 q 0.0684,1.082373 0.64942,1.652043 0.58676,0.563974 1.62926,0.563974 0.60385,0 1.16782,-0.148114 0.56967,-0.148115 1.12795,-0.444343 v 0.991226 q -0.56398,0.239261 -1.15643,0.364589 -0.59246,0.125327 -1.20201,0.125327 -1.52671,0 -2.42109,-0.888685 -0.88869,-0.888685 -0.88869,-2.404008 0,-1.5665921 0.84311,-2.4837608 0.84881,-0.9228654 2.28438,-0.9228654 1.28745,0 2.03372,0.8317182 0.75196,0.8260215 0.75196,2.2501965 z m -1.04819,-0.3076218 q -0.0114,-0.8602017 -0.48422,-1.3729047 -0.46713,-0.512703 -1.24188,-0.512703 -0.87729,0 -1.40708,0.4956129 -0.5241,0.4956129 -0.60385,1.3956915 z"
       style="font-size:11.66684151px;fill:#673ab7;fill-opacity:1;stroke-width:0.1215296"
       id="path31" />
    <path
       d="m 129.74991,7.2394718 v 0.9912258 q -0.44434,-0.227868 -0.92286,-0.341802 -0.47853,-0.113934 -0.99123,-0.113934 -0.78045,0 -1.17352,0.2392614 -0.38738,0.2392614 -0.38738,0.7177842 0,0.3645888 0.27914,0.5753667 0.27914,0.2050812 1.12225,0.3930723 L 128.0352,9.7802 q 1.11656,0.239261 1.58369,0.677907 0.47282,0.432949 0.47282,1.213397 0,0.888686 -0.70639,1.407085 -0.70069,0.5184 -1.93118,0.5184 -0.5127,0 -1.07098,-0.102541 -0.55258,-0.09684 -1.16782,-0.296228 v -1.082373 q 0.58106,0.301925 1.14503,0.455736 0.56398,0.148114 1.11656,0.148114 0.74057,0 1.13934,-0.250655 0.39877,-0.256351 0.39877,-0.717784 0,-0.427252 -0.29054,-0.65512 -0.28483,-0.227868 -1.25897,-0.438646 l -0.36458,-0.08545 q -0.97414,-0.205081 -1.40709,-0.6266367 -0.43295,-0.4272525 -0.43295,-1.1678235 0,-0.9000786 0.63803,-1.3899948 0.63803,-0.4899162 1.81155,-0.4899162 0.58107,0 1.09377,0.085451 0.5127,0.08545 0.94565,0.2563515 z"
       style="font-size:11.66684151px;fill:#673ab7;fill-opacity:1;stroke-width:0.1215296"
       id="path33" />
    <path
       d="m 132.80334,5.2399301 v 1.8115506 h 2.15905 v 0.8146281 h -2.15905 v 3.4635932 q 0,0.780448 0.21078,1.00262 0.21647,0.222171 0.8716,0.222171 h 1.07667 v 0.877292 h -1.07667 q -1.2134,0 -1.67483,-0.45004 -0.46144,-0.455736 -0.46144,-1.652043 V 7.8661088 H 130.9804 V 7.0514807 h 0.76905 V 5.2399301 Z"
       style="font-size:11.66684151px;fill:#673ab7;fill-opacity:1;stroke-width:0.1215296"
       id="path35" />
    <path
       d="m 63.719463,19.789302 v 1.12225 q -0.655121,-0.313319 -1.236184,-0.46713 -0.581063,-0.153811 -1.12225,-0.153811 -0.939955,0 -1.452658,0.364589 -0.507007,0.364589 -0.507007,1.0368 0,0.563973 0.336106,0.854505 0.341802,0.284835 1.287454,0.461432 l 0.694997,0.142418 q 1.287454,0.244958 1.897001,0.865898 0.615244,0.615244 0.615244,1.652043 0,1.236184 -0.831718,1.874214 -0.826022,0.638031 -2.426795,0.638031 -0.60385,0 -1.287454,-0.136721 -0.677907,-0.136721 -1.407085,-0.404466 v -1.184913 q 0.700694,0.393072 1.372905,0.592457 0.672211,0.199384 1.321634,0.199384 0.98553,0 1.521019,-0.387376 0.53549,-0.387375 0.53549,-1.105159 0,-0.626637 -0.387375,-0.979833 -0.381679,-0.353195 -1.258971,-0.529793 L 60.683122,24.1074 q -1.287454,-0.256351 -1.862821,-0.803234 -0.575367,-0.546884 -0.575367,-1.521019 0,-1.127947 0.791841,-1.777371 0.797538,-0.649423 2.19323,-0.649423 0.598153,0 1.219094,0.108237 0.62094,0.108237 1.270364,0.324712 z"
       style="font-size:11.66684151px;fill:#673ab7;fill-opacity:1;stroke-width:0.1215296"
       id="path37" />
    <path
       d="m 71.438491,24.563136 v 0.512703 h -4.819408 q 0.06836,1.082373 0.649424,1.652043 0.58676,0.563974 1.629256,0.563974 0.60385,0 1.167823,-0.148115 0.56967,-0.148114 1.127947,-0.444342 v 0.991226 q -0.563973,0.239261 -1.15643,0.364588 -0.592457,0.125328 -1.202004,0.125328 -1.526715,0 -2.421097,-0.888685 -0.888685,-0.888686 -0.888685,-2.404008 0,-1.566592 0.843111,-2.483761 0.848808,-0.922865 2.284377,-0.922865 1.287454,0 2.033722,0.831718 0.751964,0.826021 0.751964,2.250196 z m -1.048193,-0.307621 q -0.01139,-0.860202 -0.484219,-1.372905 -0.46713,-0.512703 -1.241881,-0.512703 -0.877292,0 -1.407085,0.495613 -0.524096,0.495613 -0.60385,1.395691 z"
       style="font-size:11.66684151px;fill:#673ab7;fill-opacity:1;stroke-width:0.1215296"
       id="path39" />
    <path
       d="m 76.058514,24.808094 q -1.270364,0 -1.76028,0.290532 -0.489916,0.290532 -0.489916,0.991226 0,0.558277 0.364589,0.888685 0.370285,0.324712 1.002619,0.324712 0.871595,0 1.395691,-0.615244 0.529794,-0.62094 0.529794,-1.646346 v -0.233565 z m 2.090689,-0.432949 v 3.640192 h -1.048192 v -0.968439 q -0.358893,0.581063 -0.894382,0.860201 -0.53549,0.273442 -1.310241,0.273442 -0.979833,0 -1.560896,-0.546883 -0.575367,-0.55258 -0.575367,-1.475446 0,-1.076676 0.717784,-1.623559 0.723481,-0.546883 2.153353,-0.546883 h 1.469749 v -0.102541 q 0,-0.723481 -0.478523,-1.116553 -0.472826,-0.398769 -1.333028,-0.398769 -0.546883,0 -1.065283,0.131024 -0.5184,0.131024 -0.996922,0.393072 v -0.968439 q 0.575366,-0.222171 1.116553,-0.330408 0.541186,-0.113934 1.053889,-0.113934 1.384298,0 2.067902,0.717784 0.683604,0.717784 0.683604,2.176139 z"
       style="font-size:11.66684151px;fill:#673ab7;fill-opacity:1;stroke-width:0.1215296"
       id="path41" />
    <path
       d="m 84.381394,21.823024 v 0.991225 q -0.444343,-0.227868 -0.922865,-0.341802 -0.478523,-0.113934 -0.991226,-0.113934 -0.780448,0 -1.17352,0.239262 -0.387376,0.239261 -0.387376,0.717784 0,0.364589 0.279138,0.575367 0.279139,0.205081 1.12225,0.393072 l 0.358892,0.07975 q 1.116553,0.239261 1.583683,0.677907 0.472826,0.432949 0.472826,1.213397 0,0.888685 -0.706391,1.407085 -0.700694,0.5184 -1.931181,0.5184 -0.512703,0 -1.07098,-0.102541 -0.55258,-0.09684 -1.167823,-0.296228 v -1.082373 q 0.581063,0.301925 1.145036,0.455736 0.563974,0.148114 1.116554,0.148114 0.740571,0 1.13934,-0.250655 0.398769,-0.256351 0.398769,-0.717784 0,-0.427252 -0.290532,-0.65512 -0.284835,-0.227868 -1.258971,-0.438646 l -0.364589,-0.08545 q -0.974135,-0.205081 -1.407084,-0.626637 -0.43295,-0.427252 -0.43295,-1.167823 0,-0.900079 0.638031,-1.389995 0.63803,-0.489916 1.81155,-0.489916 0.581064,0 1.093767,0.08545 0.512703,0.08545 0.945652,0.256352 z"
       style="font-size:11.66684151px;fill:#673ab7;fill-opacity:1;stroke-width:0.1215296"
       id="path43" />
    <path
       d="m 88.870392,22.369907 q -0.843112,0 -1.333028,0.660817 -0.489916,0.655121 -0.489916,1.800157 0,1.145037 0.484219,1.805854 0.489917,0.655121 1.338725,0.655121 0.837415,0 1.327331,-0.660818 0.489916,-0.660817 0.489916,-1.800157 0,-1.133643 -0.489916,-1.79446 -0.489916,-0.666514 -1.327331,-0.666514 z m 0,-0.888685 q 1.367208,0 2.147656,0.888685 0.780448,0.888685 0.780448,2.460974 0,1.566593 -0.780448,2.460975 -0.780448,0.888685 -2.147656,0.888685 -1.372905,0 -2.153353,-0.888685 -0.774751,-0.894382 -0.774751,-2.460975 0,-1.572289 0.774751,-2.460974 0.780448,-0.888685 2.153353,-0.888685 z"
       style="font-size:11.66684151px;fill:#673ab7;fill-opacity:1;stroke-width:0.1215296"
       id="path45" />
    <path
       d="m 98.833923,24.164367 v 3.85097 H 97.78573 v -3.816789 q 0,-0.905776 -0.353196,-1.355815 -0.353195,-0.450039 -1.059586,-0.450039 -0.848808,0 -1.338724,0.541186 -0.489916,0.541187 -0.489916,1.475445 v 3.606012 h -1.05389 v -6.380304 h 1.05389 v 0.991225 q 0.375982,-0.575366 0.882988,-0.860201 0.512703,-0.284835 1.179217,-0.284835 1.099463,0 1.663436,0.683604 0.563974,0.677907 0.563974,1.999541 z"
       style="font-size:11.66684151px;fill:#673ab7;fill-opacity:1;stroke-width:0.1215296"
       id="path47" />
    <path
       d="m 105.78959,27.046898 h 4.01618 v 0.968439 h -5.40048 v -0.968439 q 0.65512,-0.677908 1.78307,-1.817248 1.13364,-1.145036 1.42418,-1.475445 0.55258,-0.62094 0.76905,-1.048193 0.22217,-0.432949 0.22217,-0.848808 0,-0.677907 -0.47852,-1.10516 -0.47283,-0.427252 -1.23618,-0.427252 -0.54119,0 -1.14504,0.187991 -0.59816,0.187991 -1.28176,0.56967 v -1.162127 q 0.695,-0.279138 1.29885,-0.421556 0.60385,-0.142417 1.10516,-0.142417 1.32163,0 2.10778,0.660817 0.78614,0.660817 0.78614,1.765977 0,0.524096 -0.19938,0.996922 -0.19369,0.46713 -0.71209,1.10516 -0.14242,0.165204 -0.90578,0.957046 -0.76335,0.786144 -2.15335,2.204623 z"
       style="font-size:11.66684151px;fill:#673ab7;fill-opacity:1;stroke-width:0.1215296"
       id="path49" />
    <path
       d="m 114.68784,20.267825 q -0.88869,0 -1.33873,0.877291 -0.44434,0.871595 -0.44434,2.626179 0,1.748887 0.44434,2.626179 0.45004,0.871595 1.33873,0.871595 0.89438,0 1.33872,-0.871595 0.45004,-0.877292 0.45004,-2.626179 0,-1.754584 -0.45004,-2.626179 -0.44434,-0.877291 -1.33872,-0.877291 z m 0,-0.911472 q 1.42987,0 2.18183,1.133643 0.75767,1.127946 0.75767,3.281299 0,2.147656 -0.75767,3.281299 -0.75196,1.127947 -2.18183,1.127947 -1.42987,0 -2.18753,-1.127947 -0.75197,-1.133643 -0.75197,-3.281299 0,-2.153353 0.75197,-3.281299 0.75766,-1.133643 2.18753,-1.133643 z"
       style="font-size:11.66684151px;fill:#673ab7;fill-opacity:1;stroke-width:0.1215296"
       id="path51" />
    <path
       d="m 119.85475,27.046898 h 1.87991 v -6.488542 l -2.04512,0.410163 v -1.048193 l 2.03372,-0.410163 h 1.15074 v 7.536735 h 1.87991 v 0.968439 h -4.89916 z"
       style="font-size:11.66684151px;fill:#673ab7;fill-opacity:1;stroke-width:0.1215296"
       id="path53" />
    <path
       d="m 127.11803,27.838739 v -1.048193 q 0.43295,0.205081 0.8773,0.313319 0.44434,0.108237 0.87159,0.108237 1.13934,0 1.73749,-0.763358 0.60386,-0.769054 0.68931,-2.32995 -0.33041,0.489916 -0.83742,0.751964 -0.50701,0.262048 -1.12225,0.262048 -1.27606,0 -2.02233,-0.769054 -0.74057,-0.774751 -0.74057,-2.113476 0,-1.310241 0.77475,-2.102082 0.77475,-0.791841 2.06221,-0.791841 1.47544,0 2.25019,1.133643 0.78045,1.127946 0.78045,3.281299 0,2.010935 -0.95704,3.212939 -0.95135,1.196307 -2.56352,1.196307 -0.43295,0 -0.87729,-0.08545 -0.44434,-0.08545 -0.92287,-0.256351 z m 2.29008,-3.606011 q 0.77475,0 1.22479,-0.529793 0.45573,-0.529793 0.45573,-1.452659 0,-0.917169 -0.45573,-1.446962 -0.45004,-0.535489 -1.22479,-0.535489 -0.77475,0 -1.23049,0.535489 -0.45004,0.529793 -0.45004,1.446962 0,0.922866 0.45004,1.452659 0.45574,0.529793 1.23049,0.529793 z"
       style="font-size:11.66684151px;fill:#673ab7;fill-opacity:1;stroke-width:0.1215296"
       id="path55" />
  </g>
</svg>
