<?xml version="1.0" encoding="UTF-8"?>
<svg width="80px" height="32px" viewBox="0 0 80 32" version="1.1" xmlns="http://www.w3.org/2000/svg" xmlns:xlink="http://www.w3.org/1999/xlink">
    <!-- Generator: Sketch 52.5 (67469) - http://www.bohemiancoding.com/sketch -->
    <title>Group</title>
    <desc>Created with Sketch.</desc>
    <g id="Page-1" stroke="none" stroke-width="1" fill="none" fill-rule="evenodd">
        <g id="Group-2" transform="translate(-73.000000, -148.000000)">
            <g id="Group" transform="translate(73.000000, 148.000000)">
                <path d="M32.5842875,0.341077191 C31.2693694,1.20554923 28.5052633,5.52741937 24.1901094,6.37498422 C19.8751991,7.22230403 14.4980709,7.03583487 13.2170248,7.37495882 C11.9381719,7.71334768 10.7938324,8.44868798 10.7899335,15.8091969 C10.7899335,15.8118923 10.7899335,15.8143426 10.7899335,15.817038 L10.7899335,15.8447265 L10.7899335,15.8768257 L10.7899335,15.9089249 L10.7899335,15.9363684 C10.7899335,15.9393088 10.7899335,15.9420042 10.7899335,15.9446995 C10.7938324,23.3049634 11.9381719,24.0405488 13.2170248,24.3789376 C14.4980709,24.7178165 19.8751991,24.5315924 24.1901094,25.3789122 C28.5052633,26.2264771 31.2693694,30.5481022 32.5842875,31.4128193 C33.898962,32.2770463 34.1180338,31.2261051 34.1180338,31.2261051 C34.1180338,31.2261051 34.1277812,26.8299903 34.1363101,21.3638219 L29.4475888,20.2114375 L24.7279197,21.7029458 L20.9525255,20.9570691 L24.8629205,20.9570691 L29.4475888,19.2621845 L34.1380159,20.2053117 C34.1389906,19.5606331 34.1399653,18.903703 34.1406964,18.2413822 C34.1662832,18.2421173 34.1913826,18.2450576 34.2169694,18.2450576 C35.3483936,18.2450576 36.3058276,17.4972207 36.6274903,16.4661271 L38.5004445,16.4661271 L38.5004445,14.9442348 L36.6274903,14.9442348 C36.3058276,13.9131412 35.3483936,13.1650592 34.2169694,13.1650592 C34.191139,13.1650592 34.1660395,13.1682447 34.1404527,13.1689798 C34.1314364,6.49455972 34.1180338,0.527546359 34.1180338,0.527546359 C34.1180338,0.527546359 33.898962,-0.523149817 32.5842875,0.341077191" id="Fill-1" fill="#FCB920"></path>
                <g id="Group-3">
                    <path d="M32.5842875,0.341077191 C31.2693694,1.20554923 28.5052633,5.52741937 24.1901094,6.37498422 C19.8751991,7.22230403 14.4980709,7.03583487 13.2170248,7.37495882 C11.9381719,7.71334768 10.7938324,8.44868798 10.7899335,15.8091969 C10.7899335,15.8118923 10.7899335,15.8143426 10.7899335,15.817038 L10.7899335,15.8447265 L10.7899335,15.8768257 L10.7899335,15.9089249 L10.7899335,15.9363684 C10.7899335,15.9393088 10.7899335,15.9420042 10.7899335,15.9446995 C10.7938324,23.3049634 11.9381719,24.0405488 13.2170248,24.3789376 C14.4980709,24.7178165 19.8751991,24.5315924 24.1901094,25.3789122 C28.5052633,26.2264771 31.2693694,30.5481022 32.5842875,31.4128193 C33.898962,32.2770463 34.1180338,31.2261051 34.1180338,31.2261051 C34.1180338,31.2261051 34.1277812,26.8299903 34.1363101,21.3638219 L29.4475888,20.2114375 L24.7279197,21.7029458 L20.9525255,20.9570691 L24.8629205,20.9570691 L29.4475888,19.2621845 L34.1380159,20.2053117 C34.1389906,19.5606331 34.1399653,18.903703 34.1406964,18.2413822 C34.1662832,18.2421173 34.1913826,18.2450576 34.2169694,18.2450576 C35.3483936,18.2450576 36.3058276,17.4972207 36.6274903,16.4661271 L38.5004445,16.4661271 L38.5004445,14.9442348 L36.6274903,14.9442348 C36.3058276,13.9131412 35.3483936,13.1650592 34.2169694,13.1650592 C34.191139,13.1650592 34.1660395,13.1682447 34.1404527,13.1689798 C34.1314364,6.49455972 34.1180338,0.527546359 34.1180338,0.527546359 C34.1180338,0.527546359 33.898962,-0.523149817 32.5842875,0.341077191" id="Fill-3" fill="#FDC117"></path>
                    <path d="M8.57704383,32 C7.84429256,32 7.12923592,31.9195957 6.43284347,31.7590323 C5.73620862,31.5982237 5.11907838,31.3143574 4.58193753,30.9066979 C4.04382711,30.4990384 3.61018767,29.9487103 3.28053444,29.2571844 C2.95063882,28.5646781 2.7858122,27.700332 2.7858122,26.6621853 L2.7858122,21.6214742 C2.7858122,20.7563928 2.61225947,20.1325242 2.26563879,19.7493782 C1.91853333,19.3664773 1.38648271,19.1745366 0.66827497,19.1745366 L-1.0658141e-14,19.1745366 L-1.0658141e-14,14.9491445 L0.66827497,14.9491445 C1.38648271,14.9491445 1.91853333,14.7576941 2.26563879,14.3740578 C2.61225947,13.9916472 2.7858122,13.3677786 2.7858122,12.5022069 L2.7858122,5.82987726 C2.7858122,4.79222079 2.95063882,3.9273845 3.28053444,3.23512325 C3.61018767,2.5435974 4.04382711,1.99326932 4.58193753,1.58560981 C5.11907838,1.1779503 5.73620862,0.894329099 6.43284347,0.733275401 C7.12923592,0.572711974 7.84429256,0.492307692 8.57704383,0.492307692 L10.299482,0.492307692 L10.299482,4.71794489 L8.99880605,4.71794489 C8.47766307,4.71794489 8.1368598,4.82335294 7.97591146,5.0331885 C7.81447833,5.24351434 7.73424656,5.55851282 7.73424656,5.97818394 L7.73424656,13.1326942 C7.73424656,14.4672091 7.41622814,15.4124497 6.7809185,15.9681708 C6.14512407,16.5243821 5.3268084,16.889143 4.32524431,17.0614729 C5.3268084,17.2350285 6.14512407,17.5990539 6.7809185,18.1552653 C7.41622814,18.7109863 7.73424656,19.656472 7.73424656,20.9907418 L7.73424656,26.5141238 C7.73424656,26.9345303 7.81447833,27.2497739 7.97591146,27.4596095 C8.1368598,27.6689548 8.47766307,27.7741177 8.99880605,27.7741177 L10.299482,27.7741177 L10.299482,32 L8.57704383,32 Z" id="Fill-5" fill="#000000"></path>
                </g>
                <path d="M68.9084388,27.7741177 L70.2091147,27.7741177 C70.7302577,27.7741177 71.071061,27.6689548 71.2327365,27.4596095 C71.3934425,27.2497739 71.4744014,26.9345303 71.4744014,26.5141238 L71.4744014,20.9907418 C71.4744014,19.656472 71.7880568,18.7109863 72.4170642,18.1555104 C73.0451021,17.5990539 73.8549341,17.2350285 74.8458329,17.0614729 C73.8549341,16.8893881 73.0451021,16.5243821 72.4170642,15.9681708 C71.7880568,15.4124497 71.4744014,14.4672091 71.4744014,13.1326942 L71.4373154,5.97818394 C71.4373154,5.55851282 71.3575684,5.24351434 71.1988016,5.0331885 C71.0400348,4.82335294 70.7043218,4.71794489 70.1914201,4.71794489 L68.9084388,4.71794489 L68.9084388,0.492307692 L70.630877,0.492307692 C71.3643554,0.492307692 72.0786849,0.572711974 72.7750773,0.733275401 C73.4714698,0.894574234 74.0886,1.1779503 74.6262257,1.58560981 C75.1638513,1.99326932 75.5972483,2.5435974 75.9276287,3.23512325 C76.257282,3.92762964 76.4221086,4.79222079 76.4221086,5.82987726 L76.4221086,12.5022069 C76.4221086,13.3677786 76.5949341,13.9916472 76.9425244,14.3740578 C77.2886603,14.7576941 77.8214381,14.9493897 78.539161,14.9493897 L79.2079208,14.9493897 L79.2079208,19.1745366 L78.539161,19.1745366 C77.8214381,19.1745366 77.2886603,19.3664773 76.9425244,19.7496233 C76.5949341,20.1325242 76.4221086,20.7563928 76.4221086,21.6214742 L76.4221086,26.6621853 C76.4221086,27.700332 76.257282,28.5649232 75.9276287,29.2571844 C75.5972483,29.9487103 75.1638513,30.4990384 74.6262257,30.9066979 C74.0886,31.3143574 73.4714698,31.5984689 72.7750773,31.7590323 C72.0786849,31.9195957 71.3643554,32 70.630877,32 L68.9084388,32 L68.9084388,27.7741177 Z" id="Fill-8" fill="#000000"></path>
                <path d="M43.1756766,27.3230769 C42.2909834,27.3230769 41.4950784,27.2176739 40.7896785,27.0085758 C40.083788,26.7994777 39.4620256,26.5108394 38.9246364,26.1443687 C38.3874926,25.7778981 37.9185341,25.3479904 37.518742,24.8548898 C37.1182142,24.3630091 36.7920035,23.8440456 36.5386384,23.2989754 L40.1419173,21.1291862 C40.4781841,21.7374494 40.8473172,22.2666603 41.2478451,22.717307 C41.6478824,23.1684416 42.2272129,23.392911 42.9863272,23.392911 C43.3439326,23.392911 43.6701433,23.3516769 43.965695,23.2677449 C44.2602657,23.1835689 44.5082349,23.0371758 44.7083762,22.8271018 C44.9087627,22.6180037 45.0662268,22.3354651 45.1827306,21.978266 C45.2977628,21.6225308 45.3563826,21.1718841 45.3563826,20.6268139 L45.3563826,5.66153846 L49.7808295,5.66153846 L49.7808295,20.689519 C49.7808295,21.8208934 49.6226296,22.8063628 49.3072108,23.6449511 C48.9910563,24.4830514 48.5373046,25.1747586 47.9479179,25.7198288 C47.3577955,26.264899 46.6570557,26.6679679 45.8459439,26.9300115 C45.0345868,27.1918111 44.1444977,27.3230769 43.1756766,27.3230769" id="Fill-10" fill="#000000"></path>
                <path d="M60.3223016,27.3230769 C59.2861002,27.3230769 58.3449271,27.2084319 57.4990284,26.9801175 C56.6531296,26.7515592 55.8921654,26.4398222 55.2149048,26.0446627 C54.5378904,25.6497471 53.9509804,25.1772632 53.4546673,24.6262352 C52.9571232,24.0754511 52.5504222,23.4863707 52.2330871,22.8594819 L55.849575,20.7856262 C56.3357945,21.5613097 56.9118722,22.2001509 57.5783006,22.7023938 C58.244729,23.2053684 59.1273096,23.4570997 60.2275196,23.4570997 C61.1576143,23.4570997 61.8929751,23.25269 62.4321247,22.8431389 C62.9715206,22.4338317 63.2408492,21.9142701 63.2408492,21.2839663 C63.2408492,20.5292604 62.9552722,19.9623772 62.3843644,19.5838046 C61.8137028,19.2062078 61.0202419,18.7971445 60.0049665,18.356127 L58.894909,17.8838869 C58.0908621,17.5480014 57.3611636,17.1808933 56.706306,16.781831 C56.0499713,16.3827686 55.4898957,15.9212614 55.0246022,15.3968213 C54.5595548,14.8726251 54.2003679,14.2737877 53.9463029,13.6022604 C53.6927302,12.9300014 53.5656977,12.1433413 53.5656977,11.2403286 C53.5656977,10.422202 53.7190722,9.65578771 54.0255751,8.94230525 C54.332078,8.22857887 54.7658596,7.60949563 55.3259352,7.08432375 C55.8857645,6.55988366 56.5684413,6.15033253 57.3719958,5.85664607 C58.1753042,5.56295962 59.0743794,5.41538462 60.0689751,5.41538462 C61.4855355,5.41538462 62.7066233,5.68516636 63.732731,6.22399807 C64.7581001,6.76258585 65.6409269,7.67608732 66.3809652,8.96474641 L62.9235141,11.1676387 C62.5431551,10.4970872 62.1302994,10.0153341 61.6866703,9.72164763 C61.2420565,9.42844903 60.7029068,9.2816058 60.0689751,9.2816058 C59.4126404,9.2816058 58.894909,9.45942758 58.5143038,9.81482722 C58.1336986,10.1707147 57.943396,10.6202696 57.943396,11.1639799 C57.943396,11.8340436 58.1600406,12.340921 58.5938222,12.6860758 C59.0266191,13.0312305 59.7198819,13.4129741 60.6713949,13.8313066 L61.7814523,14.3015952 C62.7334577,14.6994379 63.5739403,15.112404 64.3033926,15.5414692 C65.033091,15.9705343 65.6460968,16.4515557 66.1436409,16.9842892 C66.639954,17.5182424 67.0205592,18.1248855 67.2854565,18.8044623 C67.5496152,19.4845269 67.68231,20.2848469 67.68231,21.2046904 C67.68231,22.1879546 67.496685,23.0614523 67.126912,23.8242077 C66.7568929,24.5884267 66.243839,25.2314147 65.5884891,25.7541473 C64.9328929,26.2771238 64.1554342,26.6696002 63.2566052,26.9315763 C62.3577762,27.1918449 61.3799212,27.3230769 60.3223016,27.3230769" id="Fill-12" fill="#000000"></path>
            </g>
        </g>
    </g>
</svg>