<?xml version="1.0" encoding="UTF-8"?>
<svg width="80px" height="32px" viewBox="0 0 80 32" version="1.1" xmlns="http://www.w3.org/2000/svg" xmlns:xlink="http://www.w3.org/1999/xlink">
    <!-- Generator: Sketch 52.5 (67469) - http://www.bohemiancoding.com/sketch -->
    <title>Group</title>
    <desc>Created with Sketch.</desc>
    <g id="Page-1" stroke="none" stroke-width="1" fill="none" fill-rule="evenodd">
        <g id="Group">
            <path d="M32.6165496,0.340128244 C31.2984427,1.20192977 28.5276336,5.51044885 24.2020153,6.35539542 C19.8766412,7.20009771 14.4864733,7.01420458 13.2023206,7.35228092 C11.9203664,7.68962443 10.7732519,8.42269313 10.7693435,15.7604641 C10.7693435,15.7631511 10.7693435,15.7655939 10.7693435,15.7682809 L10.7693435,15.795884 L10.7693435,15.827884 L10.7693435,15.859884 L10.7693435,15.8872427 C10.7693435,15.890174 10.7693435,15.8928611 10.7693435,15.8955481 C10.7732519,23.2330748 11.9203664,23.9663878 13.2023206,24.3037313 C14.4864733,24.6415634 19.8766412,24.4559145 24.2020153,25.3006168 C28.5276336,26.1455634 31.2984427,30.4538382 32.6165496,31.315884 C33.9344122,32.1774412 34.1540153,31.1297466 34.1540153,31.1297466 C34.1540153,31.1297466 34.1637863,26.7472122 34.1723359,21.2979298 L29.4722443,20.1491053 L24.7411298,21.6360061 L20.9565802,20.8924336 L24.876458,20.8924336 L29.4722443,19.2027847 L34.1740458,20.1429985 C34.1750229,19.5003115 34.176,18.8454107 34.1767328,18.1851359 C34.2023817,18.1858687 34.227542,18.1888 34.2531908,18.1888 C35.3873588,18.1888 36.3471145,17.4432733 36.6695573,16.4153649 L38.5470534,16.4153649 L38.5470534,14.898174 L36.6695573,14.898174 C36.3471145,13.8702656 35.3873588,13.1244947 34.2531908,13.1244947 C34.2272977,13.1244947 34.2021374,13.1276702 34.1764885,13.1284031 C34.1674504,6.47460153 34.1540153,0.526021374 34.1540153,0.526021374 C34.1540153,0.526021374 33.9344122,-0.521429008 32.6165496,0.340128244" id="Fill-1" fill="#FCB920"></path>
            <path d="M32.6165496,0.340128244 C31.2984427,1.20192977 28.5276336,5.51044885 24.2020153,6.35539542 C19.8766412,7.20009771 14.4864733,7.01420458 13.2023206,7.35228092 C11.9203664,7.68962443 10.7732519,8.42269313 10.7693435,15.7604641 C10.7693435,15.7631511 10.7693435,15.7655939 10.7693435,15.7682809 L10.7693435,15.795884 L10.7693435,15.827884 L10.7693435,15.859884 L10.7693435,15.8872427 C10.7693435,15.890174 10.7693435,15.8928611 10.7693435,15.8955481 C10.7732519,23.2330748 11.9203664,23.9663878 13.2023206,24.3037313 C14.4864733,24.6415634 19.8766412,24.4559145 24.2020153,25.3006168 C28.5276336,26.1455634 31.2984427,30.4538382 32.6165496,31.315884 C33.9344122,32.1774412 34.1540153,31.1297466 34.1540153,31.1297466 C34.1540153,31.1297466 34.1637863,26.7472122 34.1723359,21.2979298 L29.4722443,20.1491053 L24.7411298,21.6360061 L20.9565802,20.8924336 L24.876458,20.8924336 L29.4722443,19.2027847 L34.1740458,20.1429985 C34.1750229,19.5003115 34.176,18.8454107 34.1767328,18.1851359 C34.2023817,18.1858687 34.227542,18.1888 34.2531908,18.1888 C35.3873588,18.1888 36.3471145,17.4432733 36.6695573,16.4153649 L38.5470534,16.4153649 L38.5470534,14.898174 L36.6695573,14.898174 C36.3471145,13.8702656 35.3873588,13.1244947 34.2531908,13.1244947 C34.2272977,13.1244947 34.2021374,13.1276702 34.1764885,13.1284031 C34.1674504,6.47460153 34.1540153,0.526021374 34.1540153,0.526021374 C34.1540153,0.526021374 33.9344122,-0.521429008 32.6165496,0.340128244" id="Fill-3" fill="#FDC117"></path>
            <path d="M8.64363969,31.8537282 C7.90519695,31.8537282 7.18458626,31.7736061 6.48278473,31.6136061 C5.78073893,31.4533618 5.15881527,31.1704916 4.61750229,30.7642626 C4.07521221,30.3580336 3.63820458,29.8096366 3.30599084,29.1205374 C2.97353282,28.4304611 2.80742595,27.5691481 2.80742595,26.5346443 L2.80742595,21.5116214 C2.80742595,20.6495756 2.63252519,20.0278962 2.28321221,19.6460947 C1.93341069,19.2645374 1.39722748,19.0732702 0.673441221,19.0732702 L-2.44274809e-05,19.0732702 L-2.44274809e-05,14.8627053 L0.673441221,14.8627053 C1.39722748,14.8627053 1.93341069,14.6719267 2.28321221,14.2896366 C2.63252519,13.9085679 2.80742595,13.2868885 2.80742595,12.4243542 L2.80742595,5.77543817 C2.80742595,4.7414229 2.97353282,3.87962137 3.30599084,3.18978931 C3.63820458,2.50069008 4.07521221,1.95229313 4.61750229,1.54606412 C5.15881527,1.13983511 5.78073893,0.85720916 6.48278473,0.696720611 C7.18458626,0.536720611 7.90519695,0.456598473 8.64363969,0.456598473 L10.3794565,0.456598473 L10.3794565,4.66740763 L9.06867786,4.66740763 C8.54348702,4.66740763 8.20003664,4.7724458 8.03783817,4.98154504 C7.87515115,5.19113282 7.79429618,5.50502595 7.79429618,5.92322443 L7.79429618,13.052629 C7.79429618,14.3824611 7.47380763,15.3243847 6.83356336,15.8781557 C6.19283053,16.4324153 5.36815878,16.7958962 4.35881527,16.9676214 C5.36815878,17.1405679 6.19283053,17.503316 6.83356336,18.0575756 C7.47380763,18.6113466 7.79429618,19.5535145 7.79429618,20.8831023 L7.79429618,26.3871023 C7.79429618,26.8060336 7.87515115,27.120171 8.03783817,27.3292702 C8.20003664,27.5378809 8.54348702,27.6426748 9.06867786,27.6426748 L10.3794565,27.6426748 L10.3794565,31.8537282 L8.64363969,31.8537282 Z" id="Fill-5" fill="#FDC117"></path>
            <path d="M68.8019053,27.6426015 L70.112684,27.6426015 C70.6378748,27.6426015 70.9813252,27.5378076 71.1442565,27.3291969 C71.3062107,27.1200977 71.3877985,26.8059603 71.3877985,26.387029 L71.3877985,20.883029 C71.3877985,19.5534412 71.7038901,18.6112733 72.3377832,18.0577466 C72.9706992,17.5032427 73.7868214,17.1404947 74.7854168,16.9675481 C73.7868214,16.7960672 72.9706992,16.432342 72.3377832,15.8780824 C71.7038901,15.3243115 71.3877985,14.3823878 71.3877985,13.0525557 L71.3504244,5.92315115 C71.3504244,5.50495267 71.270058,5.19105954 71.110058,4.98147176 C70.950058,4.77237252 70.6117374,4.66733435 70.0948519,4.66733435 L68.8019053,4.66733435 L68.8019053,0.456525191 L70.5377221,0.456525191 C71.2768977,0.456525191 71.9967756,0.536647328 72.6985771,0.696647328 C73.4003786,0.857380153 74.0223023,1.13976183 74.5641038,1.54599084 C75.1059053,1.95221985 75.5426687,2.50061679 75.8756153,3.18971603 C76.207829,3.87979237 76.3739359,4.74134962 76.3739359,5.77536489 L76.3739359,12.4242809 C76.3739359,13.2868153 76.5481038,13.9084947 76.8983939,14.2895634 C77.2472183,14.6718534 77.7841344,14.8628763 78.5074321,14.8628763 L79.1813863,14.8628763 L79.1813863,19.0731969 L78.5074321,19.0731969 C77.7841344,19.0731969 77.2472183,19.2644641 76.8983939,19.6462656 C76.5481038,20.0278229 76.3739359,20.6495023 76.3739359,21.5115481 L76.3739359,26.534571 C76.3739359,27.5690748 76.207829,28.4306321 75.8756153,29.1204641 C75.5426687,29.8095634 75.1059053,30.3579603 74.5641038,30.7641893 C74.0223023,31.1704183 73.4003786,31.4535328 72.6985771,31.6135328 C71.9967756,31.7735328 71.2768977,31.853655 70.5377221,31.853655 L68.8019053,31.853655 L68.8019053,27.6426015 Z" id="Fill-8" fill="#FDC117"></path>
            <path d="M43.1804824,27.4090748 C42.2993832,27.4090748 41.5067115,27.3035481 40.8041771,27.0942046 C40.1011542,26.8848611 39.4819176,26.595884 38.9467115,26.2289832 C38.4117496,25.8620824 37.9446962,25.4316702 37.5465282,24.9379908 C37.1476275,24.4455328 36.822742,23.9259603 36.5704061,23.3802504 L40.1590473,21.2079145 C40.4939481,21.8168916 40.8615817,22.3467237 41.2604824,22.7978992 C41.6588947,23.2495634 42.2358718,23.4742962 42.9919023,23.4742962 C43.348055,23.4742962 43.6729405,23.4330137 43.9672916,23.3489832 C44.2606656,23.2647084 44.5076275,23.1181435 44.7069557,22.9078229 C44.9065282,22.6984794 45.0633527,22.4156092 45.1793832,22.0579908 C45.2939481,21.7018382 45.3523298,21.2506626 45.3523298,20.7049527 L45.3523298,5.72211298 L49.7588031,5.72211298 L49.7588031,20.7677313 C49.7588031,21.9004336 49.6012458,22.8870595 49.2871084,23.7266321 C48.9722382,24.565716 48.5203298,25.2582351 47.9333374,25.803945 C47.3456122,26.349655 46.6477191,26.7531969 45.8399023,27.0155481 C45.0318412,27.277655 44.1453679,27.4090748 43.1804824,27.4090748" id="Fill-10" fill="#FDC117"></path>
            <path d="M60.1769038,27.4090748 C59.1487511,27.4090748 58.2148885,27.2942656 57.3755603,27.0656244 C56.5362321,26.8367389 55.7811786,26.5245557 55.1091786,26.1288305 C54.4374229,25.7333496 53.8550718,25.2601893 53.3626137,24.7083725 C52.8689344,24.1568 52.4653924,23.5668763 52.1505221,22.9390901 L55.7389191,20.8622656 C56.2213618,21.6390595 56.7929649,22.2788153 57.4542168,22.7817771 C58.1154687,23.2854718 58.9911939,23.5375634 60.082858,23.5375634 C61.0057282,23.5375634 61.7353771,23.3328611 62.2703389,22.9227237 C62.805545,22.5128305 63.0727817,21.9925252 63.0727817,21.3613191 C63.0727817,20.6055328 62.7894229,20.0378382 62.2229496,19.6587237 C61.6567206,19.2805863 60.8694229,18.8709374 59.8620336,18.4292885 L58.7605985,17.9563725 C57.9627969,17.6200061 57.2387664,17.2523725 56.5889954,16.8527389 C55.9377588,16.4531053 55.3820336,15.9909374 54.9203542,15.4657466 C54.4589191,14.9408 54.1025221,14.3411053 53.8504305,13.6686168 C53.5988275,12.9953954 53.4727817,12.2076092 53.4727817,11.3033038 C53.4727817,10.4840061 53.6249649,9.71649466 53.929087,9.00199084 C54.2332092,8.28724275 54.6636214,7.66727328 55.2193466,7.14134962 C55.7748275,6.61615878 56.4522015,6.20602137 57.2495145,5.9119145 C58.0465832,5.61780763 58.9386748,5.47002137 59.925545,5.47002137 C61.3311023,5.47002137 62.5427053,5.74018931 63.5608427,6.27979237 C64.5782473,6.81915115 65.4542168,7.73396031 66.1885069,9.02446412 L62.7579115,11.2305099 C62.3805069,10.5589985 61.970858,10.0765557 61.5306748,9.78244885 C61.0895145,9.48883053 60.5545527,9.3417771 59.925545,9.3417771 C59.2743084,9.3417771 58.7605985,9.51985344 58.3829496,9.87576183 C58.0053008,10.2321588 57.8164763,10.6823573 57.8164763,11.2268458 C57.8164763,11.8978687 58.0314382,12.4054718 58.4618504,12.7511206 C58.8912855,13.0967695 59.5791634,13.4790595 60.5232855,13.8979908 L61.6247206,14.3689527 C62.5693313,14.7673649 63.4032855,15.1809221 64.1270718,15.6106015 C64.8511023,16.0402809 65.4593466,16.5219908 65.953026,17.055487 C66.445484,17.5902046 66.8231328,18.197716 67.0859725,18.8782656 C67.3480794,19.5593038 67.4797435,20.3607695 67.4797435,21.2819298 C67.4797435,22.2666015 67.2955603,23.1413496 66.9286595,23.9051969 C66.5615145,24.6705099 66.0524458,25.3144183 65.4021863,25.8378992 C64.7516824,26.3616244 63.9802626,26.7546626 63.0884153,27.0170137 C62.1965679,27.277655 61.2263084,27.4090748 60.1769038,27.4090748" id="Fill-12" fill="#FDC117"></path>
        </g>
    </g>
</svg>