<svg width="1194" height="1009" xmlns="http://www.w3.org/2000/svg">
 <!-- Generator: Sketch 48.2 (47327) - http://www.bohemiancoding.com/sketch -->
 <title>Combined Shape</title>
 <desc>Created with Sketch.</desc>

 <g>
  <title>background</title>
  <rect fill="none" id="canvas_background" height="402" width="582" y="-1" x="-1"/>
 </g>
 <g>
  <title>Layer 1</title>
  <g fill-rule="evenodd" fill="none" id="white">
   <g fill="#FFFFFF" id="Logo">
    <path fill="#fa5c66" id="Combined-Shape" d="m990.09729,494.546997c-2.240845,4.397461 -4.460815,8.732178 -6.659851,13.00415c-2.400879,4.805298 -5.60199,10.411438 -9.603394,16.818481c-4.001404,6.407104 -7.902771,12.113281 -11.704102,17.118835c-3.801331,5.005493 -7.102478,8.609436 -9.903503,10.81189c-2.800964,2.202393 -4.201477,1.501648 -4.201477,-2.102356c0,-4.404846 1.200439,-11.412476 3.601318,-21.023071l8.402893,-31.234344c2.000732,-4.404846 3.101135,-7.308014 3.301208,-8.709564c0.200073,-1.40155 0.500122,-2.702972 0.900269,-3.904297l7.202576,-23.42572c0.400146,-2.803101 1.000305,-5.405945 1.800598,-7.808594c0.800293,-2.402649 1.600586,-5.005493 1.800659,-7.808594c1.200439,-3.203522 2.000671,-6.407013 2.400818,-9.610535c0.400146,-3.203552 0.60022,-6.206818 0.60022,-9.009918c0,-10.411499 -3.001038,-19.721619 -9.003174,-27.930695c-6.002136,-8.209045 -15.805481,-12.313538 -29.410339,-12.313538c-14.805237,0 -28.609924,4.404816 -41.41449,13.214539c-2.400879,1.201324 -5.201843,3.403717 -8.402954,6.607269c-0.800293,-8.00885 -2.600891,-14.716156 -5.401917,-20.122131c-2.800964,-5.405975 -7.402527,-9.109985 -13.80481,-11.112213c-4.401611,-1.601746 -9.40332,-2.402618 -15.00531,-2.402618c-5.60199,0 -16.511536,3.195435 -17.327759,3.90799c-1.512512,1.320557 -1.878967,11.408783 -3.079407,18.016083c-1.200378,6.6073 -3.001038,14.415802 -5.401855,23.425751c-2.400879,9.009949 -5.101807,18.920746 -8.102844,29.732666c-3.001099,10.811951 -5.9021,21.623718 -8.703064,32.435638c-0.653259,2.396973 -1.303162,4.777496 -1.949829,7.14151c-3.330139,6.565399 -6.614868,12.994537 -9.854309,19.287537c-2.400879,4.805298 -5.601929,10.411438 -9.603394,16.818481c-4.001404,6.407104 -7.90271,12.113281 -11.704102,17.118835c-3.801331,5.005493 -7.102478,8.609436 -9.903442,10.81189c-2.801025,2.202393 -4.201477,1.501648 -4.201477,-2.102356c0,-4.404846 1.200378,-11.412476 3.601257,-21.023071l8.402954,-31.234344c2.000671,-4.404846 3.101074,-7.308014 3.301147,-8.709564c0.200073,-1.40155 0.500183,-2.702972 0.90033,-3.904297l7.202515,-23.42572c0.400146,-2.803101 1.000366,-5.405945 1.800598,-7.808594c0.800293,-2.402649 1.600586,-5.005493 1.800659,-7.808594c1.200439,-3.203522 2.000671,-6.407013 2.400818,-9.610535c0.400146,-3.203552 0.60022,-6.206818 0.60022,-9.009918c0,-10.411499 -3.001038,-19.721619 -9.003174,-27.930695c-6.002136,-8.209045 -15.805481,-12.313538 -29.410278,-12.313538c-14.805298,0 -28.609985,4.404816 -41.414551,13.214539c-2.400879,1.201324 -5.201782,3.403717 -8.402954,6.607269c-0.800293,-8.00885 -2.600891,-14.716156 -5.401917,-20.122131c-2.800964,-5.405975 -7.402527,-9.109985 -13.80481,-11.112213c-4.40155,-1.601746 -9.403259,-2.402618 -15.005249,-2.402618c-5.60199,0 -17.376648,3.726074 -18.227295,4.874756c-0.853394,1.152374 -0.979492,10.442017 -2.179871,17.049316c-1.200439,6.6073 -3.001038,14.415802 -5.401917,23.425751c-2.400879,9.009949 -5.101746,18.920746 -8.102844,29.732666c-3.001038,10.811951 -5.902039,21.623718 -8.703064,32.435638c-1.631104,5.985168 -3.241638,11.867584 -4.831665,17.647339c-1.690186,3.313171 -3.414124,6.640869 -5.171814,9.983032c-4.401611,6.407074 -8.703064,12.613861 -12.904541,18.620453c-4.201477,6.006653 -8.102844,11.112183 -11.704102,15.316833c-3.601318,4.204651 -6.502258,7.00769 -8.703064,8.409241c-2.200806,1.40155 -3.301147,0.700806 -3.301147,-2.102295c0,-3.604004 1.200378,-10.211182 3.601257,-19.821777c0.400146,-1.201355 1.200378,-4.304688 2.400818,-9.310242c1.200439,-5.005554 2.800964,-11.012054 4.801697,-18.019806c2.000732,-7.007721 4.001404,-14.5159 6.002136,-22.52475c2.000671,-8.00885 4.001343,-15.617126 6.002075,-22.825073c2.000732,-7.207977 3.701294,-13.614929 5.101807,-19.22113c1.400513,-5.606201 2.500854,-9.210114 3.301147,-10.81189c0.800293,-3.203522 1.400513,-6.106689 1.800659,-8.709564c0.400085,-2.602875 0.600159,-5.506042 0.600159,-8.709564c0,-7.608398 -1.600525,-14.115479 -4.801636,-19.521454c-3.201172,-5.405975 -8.803101,-9.710663 -16.805908,-12.914185c-2.000732,-0.800903 -4.301514,-1.40155 -6.902466,-1.802002c-2.600891,-0.400421 -5.101746,-0.600647 -7.502625,-0.600647c-5.60199,0 -16.94165,3.898804 -17.797729,4.861267c-1.17041,1.315918 -1.371948,9.791931 -2.009216,13.458862c-0.800293,4.605072 -1.900635,10.111084 -3.301147,16.518158c-1.400513,6.407074 -3.001038,13.614929 -4.801697,21.623749c-1.800598,8.00885 -3.701294,15.817352 -5.701965,23.425751c-3.201172,8.00885 -7.302551,16.818451 -12.304321,26.429047c-5.00177,9.610596 -9.903442,19.020844 -14.7052,28.231018c-3.601257,6.006622 -7.6026,12.013153 -12.004181,18.019806c-4.401581,6.006653 -8.402954,11.21228 -12.004211,15.617188c-3.601288,4.404846 -6.702362,7.408081 -9.303284,9.009888c-2.600922,1.601746 -3.901367,0.800903 -3.901367,-2.402649c0,-5.20575 1.400482,-11.812927 4.201477,-19.821777l23.408234,-77.485168c4.40155,-14.015472 7.402588,-24.526917 9.003174,-31.534637c1.600525,-7.007751 2.400818,-12.713959 2.400818,-17.118805c0,-6.006653 -1.300476,-11.012085 -3.901367,-15.01651c-2.600952,-4.004425 -5.802002,-7.408142 -9.603363,-10.211212c-3.801361,-2.803101 -7.902771,-4.805298 -12.304321,-6.006622c-4.401581,-1.201324 -8.402954,-1.801971 -12.004211,-1.801971c-4.801727,0 -13.299194,2.80011 -13.901123,3.428894c-0.266876,0.278809 -0.551086,1.714294 -0.891388,3.906189c-0.914886,5.893066 -2.235229,17.253632 -4.714355,26.30188c-3.401215,12.413696 -7.302521,25.828308 -11.704102,40.244232c-2.400848,8.00882 -4.70163,16.017548 -6.902405,24.026398c-2.200806,8.00885 -4.301514,15.817352 -6.302216,23.425751c-2.000732,7.608398 -3.601257,14.616028 -4.801697,21.023102c-1.200439,6.407043 -1.800629,11.812927 -1.800629,16.217834c0,11.612793 -1.11499,19.39917 7.802734,33.937256c8.917725,14.538147 15.005188,19.921875 29.410309,26.72937c6.402283,2.803101 11.764771,5.447021 18.606537,0.901001c6.841797,-4.546021 25.909058,-26.729309 30.510742,-33.536865c4.601624,-6.807495 8.703003,-13.614929 12.304321,-20.422424c1.200378,9.210144 5.501892,23.125366 10.903809,31.734863c5.401917,8.609497 14.505005,15.717224 27.30957,21.323425c7.202576,3.203552 13.158325,4.003235 21.307495,-0.901001c7.824036,-4.708496 16.20813,-17.355408 22.35376,-24.913452c0.390625,1.456482 0.875488,2.853333 1.45459,4.190735c2.600891,6.006592 6.302185,11.012085 11.103882,15.016479c4.801697,4.004395 10.303589,6.707336 16.505798,8.108887c6.202209,1.40155 18.306396,0.300354 18.306396,0.300354c0,0 1.800659,-10.711731 3.001099,-18.920776c1.200378,-8.209106 2.901001,-17.218872 5.101746,-27.029724c2.200806,-9.810852 4.801697,-19.921814 7.802734,-30.333313c3.001099,-10.411499 5.9021,-20.222198 8.703064,-29.432373c2.000732,-4.805298 5.902039,-12.313477 11.704102,-22.52475c5.802063,-10.211273 14.705139,-20.522491 26.709412,-30.93399c3.601257,-3.603973 6.802368,-5.405945 9.603333,-5.405945c2.000732,0 3.001099,3.403717 3.001099,10.211243c0,4.404846 -2.200745,13.214447 -6.602356,26.429016c0,0.800903 -0.100037,1.201324 -0.30011,1.201324c-0.200073,0 -0.500122,0.400452 -0.30011,1.201324c-2.800964,7.608398 -5.401855,15.316803 -7.802734,23.125427c-2.400818,7.808624 -4.401489,15.316803 -6.002075,22.52475c-0.400146,2.402618 -0.700256,5.10556 -0.90033,8.108917c-0.200073,3.003296 -0.30011,6.106689 -0.30011,9.310242c0,11.612793 2.500854,22.92511 7.502625,33.937256c5.00177,11.012146 14.905151,19.921875 29.710449,26.72937c7.202576,3.203552 14.304993,3.003357 21.307495,-0.600647c7.002441,-3.603943 13.5047,-9.009888 19.506836,-16.217834c1.545471,-1.855896 3.057739,-3.751648 4.536865,-5.687256c0.117126,0.296814 0.23877,0.59082 0.364868,0.882019c2.600891,6.006592 6.302185,11.012085 11.103882,15.016479c4.801697,4.004395 10.303589,6.707336 16.505798,8.108887c6.202209,1.40155 12.30426,1.501648 18.306396,0.300354c1.200439,-7.141174 2.200806,-13.448059 3.001038,-18.920776c1.200439,-8.209106 2.901062,-17.218872 5.101807,-27.029724c2.200806,-9.810852 4.801697,-19.921814 7.802734,-30.333313c3.001099,-10.411499 5.9021,-20.222198 8.703064,-29.432373c2.000732,-4.805298 5.902039,-12.313477 11.704102,-22.52475c5.802063,-10.211273 14.705139,-20.522491 26.709412,-30.93399c3.601257,-3.603973 6.802368,-5.405945 9.603333,-5.405945c2.000732,0 3.001038,3.403717 3.001038,10.211243c0,4.404846 -2.200745,13.214447 -6.602295,26.429016c0,0.800903 -0.100037,1.201324 -0.30011,1.201324c-0.200073,0 -0.500183,0.400452 -0.30011,1.201324c-2.800964,7.608398 -5.401855,15.316803 -7.802734,23.125427c-2.400818,7.808624 -4.40155,15.316803 -6.002075,22.52475c-0.400146,2.402618 -0.700256,5.10556 -0.90033,8.108917c-0.200073,3.003296 -0.30011,6.106689 -0.30011,9.310242c0,11.612793 2.500854,22.92511 7.502625,33.937256c5.00177,11.012146 14.905151,19.921875 29.710449,26.72937c7.202515,3.203552 14.304993,3.003357 21.307434,-0.600647c7.002502,-3.603943 13.504761,-9.009888 19.506897,-16.217834c4.845032,-5.818359 9.364075,-12.028076 13.557251,-18.629211c0.800476,2.255676 1.716614,4.460999 2.748413,6.616028c4.601685,9.610596 14.104919,17.819519 28.51001,24.627075c4.801697,2.002197 9.603333,2.702942 14.40509,2.102295c4.801758,-0.600647 9.40332,-2.30249 13.80481,-5.105591c4.401611,-2.803101 8.703003,-6.306946 12.904541,-10.511597c4.201538,-4.20459 8.102783,-8.709534 11.704102,-13.514832l0,1.201355c-0.800293,4.404846 -1.600586,8.40918 -2.400879,12.013184c-0.800293,3.603943 -1.800537,6.807434 -3.000977,9.610535l-14.405029,8.108948c-6.002197,3.003296 -11.404053,5.906433 -16.205688,8.709534c-17.206177,8.809753 -31.611084,16.818481 -43.21521,24.026428c-11.604126,7.207947 -21.007324,16.017517 -28.2099,26.429016c-6.402283,9.610657 -9.603394,21.023071 -9.603394,34.237671c0,10.011047 2.100769,19.521362 6.302246,28.531311c4.201477,9.009949 10.903748,15.316833 20.107056,18.920837c6.802429,2.80304 14.004883,4.20459 21.607544,4.20459c8.002869,0 15.905579,-1.601746 23.708313,-4.805298c7.802856,-3.203491 15.205322,-7.307983 22.207886,-12.313538c7.002441,-5.005493 13.304565,-10.611633 18.906616,-16.818481c5.601929,-6.206848 10.403564,-12.513672 14.405029,-18.920776c8.002808,-14.015442 16.105591,-31.033997 24.308472,-51.056091c5.468628,-13.348083 12.971313,-33.970764 22.507935,-61.867981c22.007813,-16.0177 41.914673,-34.437744 59.720947,-55.260742c1.338501,-1.565277 2.656128,-3.145233 3.952759,-4.739929c-3.344604,274.47168 -231.053162,495.959656 -511.462646,495.959656c-206.344543,0 -384.151337,-119.93634 -465.017136,-292.664185l0,147.510864l56.692978,22.061768c12.376923,5.622742 18.192017,20.077576 13.041962,32.824402c-5.150055,12.746826 -19.374268,19.105286 -32.217804,14.637451l11.874939,-29.391479l-49.392075,-18.959839l0,104.547424c1.972702,-0.485596 4.035141,-0.743225 6.157745,-0.743225c13.74791,0 24.971817,10.806519 25.64061,24.38855l-31.798355,0l-19.482864,0.005554l0,-135.677063l-98.457031,-37.794128l-17.959366,-6.776733l75.956451,-137.029053c-23.137207,-9.617065 -47.240555,-23.03241 -71.040054,-35.617126c-29.439774,-15.567139 -58.273102,-6.273621 -86.5,27.880676c19.968567,-148.432495 78.117981,-228.401031 174.448242,-239.905609c29.57402,-249.679413 245.756958,-443.475067 508.051758,-443.475067c269.343323,0 490.063232,204.351181 510.028931,463.722046c-3.375854,5.322968 -6.916504,10.422211 -10.621826,15.29776c-10.803833,14.215698 -22.60791,27.129761 -35.412476,38.742584c2.801025,-8.809753 5.201782,-16.618256 7.202515,-23.425751c2.000732,-6.807526 3.801392,-13.414703 5.401855,-19.821777c1.600586,-6.407074 3.201172,-12.914154 4.801758,-19.521454c1.600586,-6.6073 3.401123,-13.915253 5.401855,-21.924103c2.000732,-7.207947 3.001099,-14.616028 3.001099,-22.224426c0,-7.207947 -1.400513,-13.815155 -4.201538,-19.821777c-2.800903,-6.006622 -7.602539,-10.411438 -14.405029,-13.214508c-2.400879,-0.800903 -5.001709,-1.40155 -7.802734,-1.802002c-2.801025,-0.400421 -5.401855,-0.600647 -7.802734,-0.600647c-5.601929,0 -16.972778,3.944977 -17.755737,4.942719c-1.019897,1.299652 -1.851074,11.375153 -3.851807,19.98468c-2.000732,8.609497 -4.601563,18.320068 -7.202515,29.131989c-4.401611,11.212402 -9.903442,23.926239 -16.505859,38.141937c-6.602295,14.215698 -13.504639,27.930634 -20.707275,41.145203c-3.601196,6.407074 -7.502563,12.613861 -11.704102,18.620453c-4.201416,6.006653 -8.202881,11.112183 -12.00415,15.316833c-3.801392,4.204651 -6.902466,7.107788 -9.303345,8.709595c-2.400757,1.601746 -3.601196,0.800903 -3.601196,-2.402649c0,-4.805298 1.200439,-11.412476 3.601196,-19.821777c8.00293,-26.429199 14.204956,-47.251862 18.606567,-62.468658c4.401611,-15.216797 7.702759,-26.829437 9.903442,-34.838287c2.200806,-8.00885 3.501221,-13.314606 3.901367,-15.91748c0.400146,-2.602875 0.60022,-4.905396 0.60022,-6.907593c0,-7.207947 -1.300415,-13.815155 -3.901367,-19.821777c-2.600952,-6.006653 -7.702637,-10.411438 -15.305298,-13.214539c-2.000732,-0.800873 -4.301514,-1.40152 -6.902466,-1.801971c-2.600952,-0.400452 -5.101807,-0.600647 -7.502686,-0.600647c-5.601929,0 -17.128601,3.563843 -17.988403,4.574249c-1.030273,1.210815 -1.818481,9.140778 -3.018921,14.947205c-1.200439,5.806396 -2.901001,12.814026 -5.101807,21.023102c-2.200745,8.209045 -4.501526,16.918518 -6.902405,26.128693c-2.400879,9.210175 -4.801636,17.81955 -6.602295,25.8284l-2.400879,7.207916c-2.394836,7.189911 -4.509705,14.2677 -6.344666,21.233459zm-772.614426,216.965637l0,-7.016785c40.882645,-1.003723 144.677292,-11.881165 195.66066,-110.93457c52.5,-102.000031 -35.706696,-187.053772 -66.278748,-213.740356c-29.79541,-26.008606 -66.043793,-86.870544 -8.1203,-130.089966c8.821747,17.770996 27.396301,30.01532 48.883026,30.01532c5.794922,0 11.378021,-0.890594 16.615082,-2.540039c25.833252,4.516357 42.940857,24.266022 51.322845,59.249023c4.529205,4.447754 9.05838,-5.559723 13.587585,-30.0224c3.477234,-18.780975 -6.393585,-40.183533 -29.612457,-64.207733c1.584045,-5.008118 2.437286,-10.332199 2.437286,-15.85199c0,-29.477173 -24.333466,-53.373138 -54.350342,-53.373138c-18.55835,0 -34.944214,9.134247 -44.75,23.074371c-42.438416,14.306686 -69.416779,42.197327 -80.93515,83.671906c-13.58757,48.925385 6.793793,95.626892 61.144135,140.104523c54.488129,46.558197 72.673798,87.628357 54.557037,123.21048c-27.175171,53.373108 -3.222992,-98.012665 -174.000015,-101.000031c-10.093033,-0.176544 -19.824783,0.294708 -29.195267,1.413818c-2.277435,19.227356 -3.448242,38.786133 -3.448242,58.613342c0,74.747955 16.640259,145.680939 46.482864,209.424225zm-19.482864,-8.166382c-7.179276,-1.12323 -14.551285,-2.979797 -22.068832,-5.397705l-66.400887,119.065796l88.469719,34.42749l0,-148.095581zm813.447266,-16.197754c-6.802429,0 -10.203613,-2.202393 -10.203613,-6.607239c0,-4.404846 2.400818,-10.611633 7.202515,-18.620483c5.602051,-8.00885 13.704773,-15.917419 24.308594,-23.726074c10.60376,-7.808594 22.307739,-15.316772 35.112305,-22.524719c-8.803101,20.822998 -17.806274,38.642395 -27.009521,53.45874c-5.802002,7.34137 -10.503662,11.946472 -14.10498,13.815186c-5.401855,2.803101 -10.503601,4.20459 -15.305298,4.20459zm-477.267273,-57.188477l0,9.23999c0,1.466675 -0.733337,2.200012 -2.200012,2.200012l-35.859985,0c-0.58667,0 -0.880005,0.293335 -0.880005,0.880005l0,137.279968c0,1.466675 -0.733307,2.200012 -2.199982,2.200012l-11.220001,0c-1.466675,0 -2.200012,-0.733337 -2.200012,-2.200012l0,-137.279968c0,-0.58667 -0.293335,-0.880005 -0.880005,-0.880005l-34.539978,0c-1.466675,0 -2.200012,-0.733337 -2.200012,-2.200012l0,-9.23999c0,-1.466675 0.733337,-2.200012 2.200012,-2.200012l87.779968,0c1.466675,0 2.200012,0.733337 2.200012,2.200012zm119.340027,11.440002l-66,0c-0.58667,0 -0.880005,0.293335 -0.880005,0.880005l0,54.559998c0,0.58667 0.293335,0.879944 0.880005,0.879944l44.440002,0c1.466675,0 2.199951,0.733337 2.199951,2.200012l0,9.23999c0,1.466675 -0.733276,2.200012 -2.199951,2.200012l-44.440002,0c-0.58667,0 -0.880005,0.293335 -0.880005,0.880005l0,55c0,0.58667 0.293335,0.880005 0.880005,0.880005l66,0c1.466675,0 2.199951,0.733337 2.199951,2.200012l0,9.23999c0,1.466675 -0.733276,2.200012 -2.199951,2.200012l-80.300049,0c-1.466675,0 -2.199951,-0.733337 -2.199951,-2.200012l0,-149.599976c0,-1.466675 0.733276,-2.200012 2.199951,-2.200012l80.300049,0c1.466675,0 2.199951,0.733337 2.199951,2.200012l0,9.23999c0,1.466675 -0.733276,2.200012 -2.199951,2.200012zm49.269958,130.23999c-8.140015,-7.920044 -12.209961,-18.406616 -12.209961,-31.460022l0,-71.059998c0,-13.053406 4.069946,-23.503296 12.209961,-31.349976c8.140076,-7.846741 18.883301,-11.77002 32.230042,-11.77002c13.493408,0 24.309937,3.886658 32.449951,11.659973c8.140076,7.773376 12.210022,18.113281 12.210022,31.02002l0,1.97998c0,1.466675 -0.733337,2.200012 -2.200012,2.200012l-11.219971,0.440002c-1.466675,0 -2.200012,-0.659973 -2.200012,-1.97998l0,-3.080017c0,-8.506714 -2.676636,-15.399963 -8.029968,-20.679993c-5.353394,-5.280029 -12.356628,-7.919983 -21.01001,-7.919983c-8.653381,0 -15.619995,2.603271 -20.900024,7.809998c-5.280029,5.206665 -7.919983,12.136597 -7.919983,20.789978l0,73.040039c0,8.65332 2.639954,15.583252 7.919983,20.789978c5.280029,5.206665 12.246643,7.809998 20.900024,7.809998c8.653381,0 15.656616,-2.639954 21.01001,-7.919983c5.353333,-5.280029 8.029968,-12.17334 8.029968,-20.679993l0,-3.080017c0,-1.320007 0.733337,-1.980042 2.200012,-1.980042l11.219971,0.660034c1.466675,0 2.200012,0.58667 2.200012,1.76001l0,1.97998c0,12.906738 -4.069946,23.283325 -12.210022,31.130005c-8.140015,7.84668 -18.956543,11.77002 -32.449951,11.77002c-13.346741,0 -24.089966,-3.959961 -32.230042,-11.880005zm191.830017,-143.880005l11.220032,0c1.466675,0 2.199951,0.733337 2.199951,2.200012l0,149.599976c0,1.466675 -0.733276,2.200012 -2.199951,2.200012l-11.220032,0c-1.466675,0 -2.200012,-0.733337 -2.200012,-2.200012l0,-67.320007c0,-0.58667 -0.293335,-0.880005 -0.880005,-0.880005l-54.559998,0c-0.58667,0 -0.880005,0.293335 -0.880005,0.880005l0,67.320007c0,1.466675 -0.733276,2.200012 -2.199951,2.200012l-11.220032,0c-1.466675,0 -2.200012,-0.733337 -2.200012,-2.200012l0,-149.599976c0,-1.466675 0.733337,-2.200012 2.200012,-2.200012l11.220032,0c1.466675,0 2.199951,0.733337 2.199951,2.200012l0,66.880005c0,0.58667 0.293335,0.879944 0.880005,0.879944l54.559998,0c0.58667,0 0.880005,-0.293274 0.880005,-0.879944l0,-66.880005c0,-1.466675 0.733337,-2.200012 2.200012,-2.200012z"/>
   </g>
  </g>
 </g>
</svg>