<svg xmlns="http://www.w3.org/2000/svg" id="Layer_1" data-name="Layer 1" viewBox="0 -15 607.44 240"><script xmlns=""/><defs><style>.cls-1{fill:#fff;}</style></defs><title>svg_color</title><path d="M223.42,107.59q0,25.3,0,50.63a2,2,0,0,1-1.33,2c-6.07,3-12.13,6.08-18.2,9.1q-11.85,5.9-23.7,11.77c-6,3-12,6-18,9q-12.06,6-24.13,12c-5.76,2.86-11.52,5.72-17.22,8.68a2.07,2.07,0,0,1-2.31,0c-6.32-3.25-12.68-6.41-19.07-9.53a2.88,2.88,0,0,1-2-3.07c.14-5.63,0-11.28.08-16.92a1.87,1.87,0,0,0-1.19-2c-5.22-2.49-10.42-5-15.63-7.55a23.93,23.93,0,0,1-3-1.49,2.15,2.15,0,0,1-.76-1.55c-.06-5.24,0-10.48,0-15.72,0-1.51-.3-1.65-1.69-1-5,2.51-10.1,5-15.14,7.46l-18.14,9c-1.11.55-2.19,1.17-3.34,1.63a2.35,2.35,0,0,1-1.69,0c-5.87-2.89-11.71-5.84-17.56-8.78a16.45,16.45,0,0,0-1.92-1,2.32,2.32,0,0,1-1.7-2.62c.08-6.48.05-13,0-19.44A1.79,1.79,0,0,1,17,136.47q14.37-7.14,28.71-14.35c2.43-1.21,4.87-2.4,7.29-3.64.31-.16.52-.54.78-.82a5.54,5.54,0,0,0-.86-.69c-5.32-2.66-10.66-5.28-15.95-8a2.07,2.07,0,0,1-.72-1.59c0-5.87-.06-11.75,0-17.63a2.15,2.15,0,0,0-1.4-2.22C28.89,84.6,23,81.62,17,78.66a1.89,1.89,0,0,1-1.2-2q.08-9.83,0-19.67a2.14,2.14,0,0,1,1.33-2.24C23.08,51.87,29,48.9,34.84,46l16.71-8.35Q62.8,32,74.05,26.37L96.3,15.19c6.89-3.45,13.84-6.78,20.64-10.39a5.07,5.07,0,0,1,5.44,0c7.34,3.87,14.81,7.5,22.23,11.22q9,4.47,17.89,8.94,10.5,5.25,21,10.53l19.28,9.63q9.69,4.84,19.38,9.68a2,2,0,0,1,1.3,2Q223.4,82.21,223.42,107.59Zm-3.49.92V86.31q0-12.78,0-25.56c0-1.28-.29-1.46-1.37-.84a5.28,5.28,0,0,1-.53.27L197.25,70.56l-24,12L152.47,93l-22.39,11.17c-2.64,1.31-5.3,2.6-7.9,4a2.15,2.15,0,0,0-1,1.53c-.08,4.76,0,9.52,0,14.28,0,.91.32,1.14,1.17.71L139.53,116l20.77-10.39L179.7,96q11-5.52,22-11.06c1-.5,1.25-.31,1.25.83q0,31.07,0,62.15a2,2,0,0,1-1.27,2.16c-1.48.69-2.93,1.45-4.4,2.18q-13.44,6.71-26.89,13.4Q158,171.87,145.5,178.14q-11.56,5.79-23.16,11.51a2,2,0,0,0-1.24,2c0,4.56,0,9.12,0,13.68,0,1.18.37,1.38,1.47.82q4.05-2.08,8.11-4.11c6-3,11.95-5.92,17.91-8.9,7.89-3.95,15.76-7.94,23.65-11.88,7.46-3.73,14.94-7.41,22.41-11.14,8-4,15.9-8,23.87-12A2.15,2.15,0,0,0,220,156Q219.9,132.26,219.93,108.51ZM184.31,56.23l.11.47L103.24,97.25c.74.45,1.09.7,1.46.89,4.74,2.38,9.48,4.78,14.25,7.12a1.87,1.87,0,0,0,1.43,0c1.59-.74,3.13-1.59,4.7-2.37L148.88,91q10.49-5.25,21-10.53l21-10.5,18-9c2.54-1.26,5.08-2.52,7.61-3.8.29-.15.49-.49.73-.74a3.7,3.7,0,0,0-.73-.65c-1.81-.93-3.64-1.82-5.46-2.73L178.15,36.54,139.19,17c-6.14-3.09-12.28-6.14-18.39-9.28a2.6,2.6,0,0,0-2.67.2q-6.82,3.48-13.68,6.9c-7,3.49-13.93,6.94-20.88,10.43s-13.91,7-20.87,10.5L41.82,46.19,22.88,55.71a6.75,6.75,0,0,0-1,.73,4.33,4.33,0,0,0,.91.86c4.63,2.34,9.29,4.63,13.92,7a2.22,2.22,0,0,0,2.24,0c5.9-3,11.82-6,17.74-9L79.11,44.12q9-4.53,18.08-9.09c7-3.49,13.92-7,20.84-10.51a3.11,3.11,0,0,1,3.2,0c6,3.11,12.11,6.12,18.17,9.17q9.69,4.86,19.36,9.74l19.37,9.71Zm-45.9,11.43c0-2.36,0-4.72,0-7.08,0-1.12-.29-1.26-1.29-.76q-14,7-27.92,14Q96.67,80.1,84.13,86.34C76.57,90.12,69,93.93,61.45,97.71a2,2,0,0,0-1.28,2.05c0,4.4,0,8.8,0,13.19,0,1.74.29,1.9,1.86,1.1q8.39-4.23,16.79-8.43L99.72,95.17l20.76-10.4c5.64-2.83,11.26-5.68,16.91-8.47a1.67,1.67,0,0,0,1-1.8C138.38,72.22,138.4,69.94,138.41,67.66Zm-98.82,8.2v7.08c0,.74.13,1.39,1.08.93,2-1,4-2,6-3Q57,75.63,67.28,70.44L88.15,60l21-10.51c2.53-1.26,5.09-2.48,7.59-3.83.58-.31,1.31-1.05,1.33-1.6.1-4.76.07-9.52.07-14.28,0-.77-.38-1-1.09-.69-.25.12-.51.23-.76.36q-7,3.49-13.91,7L79.85,47.64q-9,4.48-18,9c-7.07,3.54-14.13,7.09-21.22,10.59A1.71,1.71,0,0,0,39.58,69C39.61,71.3,39.59,73.58,39.59,75.86Zm139.65,53c0-2.28,0-4.56,0-6.84,0-1.41-.23-1.52-1.54-.87q-10.15,5.11-20.33,10.19l-19.82,9.88L118.05,151,102,159a1.82,1.82,0,0,0-1.25,1.81c0,4.56,0,9.12,0,13.68,0,1.2.32,1.41,1.35.89,3.07-1.52,6.13-3.07,9.21-4.6q9.8-4.87,19.62-9.73l18.12-9,16.61-8.27c4.18-2.08,8.35-4.19,12.54-6.25a1.75,1.75,0,0,0,1.06-1.81C179.21,133.45,179.24,131.17,179.24,128.9ZM82.88,148.3a6.86,6.86,0,0,0,.78.57c4.71,2.37,9.44,4.69,14.12,7.11a3,3,0,0,0,3.11-.11q11.91-6,23.85-12l24-12,20.88-10.43c2-1,4.08-2,6.1-3a1.57,1.57,0,0,0,.62-.78c0-.11-.29-.44-.51-.55L161.58,110a2.17,2.17,0,0,0-2.15-.07c-4.05,2.08-8.12,4.1-12.18,6.14l-18,9L110,134.65,87.43,146C86,146.69,84.56,147.44,82.88,148.3ZM42.06,87.15c.55.33.8.5,1.07.64,4.52,2.3,9.06,4.54,13.54,6.91A3.17,3.17,0,0,0,60,94.6q11.87-6,23.76-11.92c7.54-3.77,15.09-7.5,22.62-11.26q11.94-6,23.88-11.94c1.53-.77,3.08-1.5,4.61-2.29a1.76,1.76,0,0,0,.69-.76c0-.08-.26-.45-.47-.56-3.89-1.94-7.91-3.67-11.65-5.87-2.69-1.58-4.78-1.52-7.54,0-7.3,3.94-14.82,7.48-22.25,11.2Q81.07,67.47,68.5,73.8,56.67,79.72,44.82,85.61C44,86,43.13,86.55,42.06,87.15Zm155,61.3a11.56,11.56,0,0,0-1.24-.9c-4.77-2.4-9.55-4.8-14.35-7.16a1.76,1.76,0,0,0-1.35,0c-5.33,2.63-10.64,5.31-15.95,8l-20.87,10.46-23.78,11.89-15.1,7.54c-.29.14-.73.53-.68.66a1.62,1.62,0,0,0,.73.82c4,2,8.07,4,12.11,6,3.69,1.84,2.32,1.87,6.06,0q17.28-8.66,34.57-17.3l36.63-18.3C194.89,149.64,195.88,149.09,197.1,148.45Zm-32.65-41c.75.47,1.21.8,1.72,1.06q7.5,3.75,15,7.47a2.08,2.08,0,0,1,1.31,2.14c-.07,5.6,0,11.2-.08,16.8a3,3,0,0,0,2,3.18c4.6,2.21,9.16,4.54,13.71,6.85,1.19.6,1.47.48,1.47-.86V91.53c0-1.54-.2-1.66-1.55-1l-30.18,15.13C166.84,106.2,165.8,106.75,164.45,107.44ZM141.81,64.61h0v8.16c0,.73.07,1.34,1.09.82,3.31-1.69,6.63-3.34,10-5l18.2-9.1c1.53-.77,3.08-1.51,4.6-2.3a1.9,1.9,0,0,0,.7-.76c0-.08-.25-.45-.46-.56-5.31-2.66-10.64-5.3-16-8q-11.14-5.55-22.28-11.13L122.77,29.3c-1-.53-1.44-.3-1.43.8,0,4.56,0,9.12,0,13.67a1.84,1.84,0,0,0,1.08,1.83l4.8,2.44c4.48,2.28,8.94,4.58,13.44,6.82a1.94,1.94,0,0,1,1.18,2.08C141.77,59.5,141.81,62.06,141.81,64.61ZM83,107.37a8.78,8.78,0,0,0,1.25.95c4,2,7.92,4,11.88,6,1.24.62,1.47.5,1.47-.86q0-5.94,0-11.88c0-1.15-.37-1.35-1.38-.84l-8.34,4.21ZM36.21,138.13c0-2,0-4,0-6,0-1.17-.21-1.31-1.25-.8-2.76,1.36-5.5,2.75-8.25,4.12-1.36.68-2.74,1.32-4.08,2a1.73,1.73,0,0,0-.68.76c-.05.08.27.44.48.55q6.26,3.15,12.52,6.27c.89.44,1.25.2,1.26-.81C36.22,142.21,36.21,140.17,36.21,138.13ZM77,117.85h0v-6c0-1.23-.36-1.44-1.42-.9q-6,3.06-12.07,6.12c-.25.13-.62.46-.58.61a1.36,1.36,0,0,0,.63.78q6,3.08,12.07,6.09c1.07.54,1.36.36,1.37-.82C77,121.77,77,119.81,77,117.85Zm23.73,10.09c0,2,0,4.07,0,6.11,0,1.09.3,1.22,1.3.72,4-2,8.12-4.05,12.18-6.1.28-.14.71-.54.66-.66a1.6,1.6,0,0,0-.74-.8c-4-2-8.06-4-12.08-6-1.1-.55-1.31-.46-1.32.77C100.73,123.94,100.74,125.94,100.74,127.94ZM54.27,158.61c-.66-.38-.92-.55-1.19-.69-4-1.95-8-3.89-12-5.86-1.19-.59-1.44-.47-1.44.88,0,3.79,0,7.59,0,11.38,0,1.44.3,1.59,1.64.91,2.76-1.41,5.55-2.79,8.32-4.19Zm26.34-20.47c0,2,0,4.07,0,6.11,0,1,.37,1.17,1.26.71l11.83-6a6.19,6.19,0,0,0,.86-.69c-.27-.27-.49-.64-.81-.81q-5.85-3-11.73-5.95c-1.22-.62-1.4-.49-1.41.91C80.61,134.3,80.62,136.22,80.61,138.14Zm-6.1,10.36a3.54,3.54,0,0,0-.63-.57c-4.15-2.14-8.29-4.28-12.46-6.39-.85-.42-1.23-.12-1.24.9,0,4,0,7.91,0,11.87,0,1.1.44,1.33,1.42.83,2.72-1.41,5.46-2.8,8.19-4.2C71.32,150.17,72.82,149.38,74.51,148.5Zm-18-20.58v-6.11c0-.7-.11-1.28-1-.82-4.13,2.09-8.26,4.17-12.37,6.28a1.19,1.19,0,0,0-.56.8c0,.18.36.47.62.6l12.06,6.1c1,.51,1.27.38,1.28-.73C56.53,132,56.52,130,56.52,127.92Z" transform="translate(-2.16 10.56)"/><path d="M562.89,91.74a29,29,0,0,1-5.11,2c-4.48.85-8-.93-10.51-4.63a13,13,0,0,1,2.34-16.94A10,10,0,0,1,562.13,72l.57.43c.52-1.83.52-1.83,2.41-1.83,2.92,0,2.87-.32,2.86,2.86,0,5.88,0,11.76,0,17.63a19.71,19.71,0,0,1-.61,4.85,10.16,10.16,0,0,1-9.15,7.45,12.52,12.52,0,0,1-8.77-2.12,9.46,9.46,0,0,1-3.2-4.11c-.25-.62-.17-.94.49-1.17.94-.34,1.86-.72,2.76-1.15s1.36-.14,1.81.69a6.3,6.3,0,0,0,10,1.28A6.47,6.47,0,0,0,562.89,91.74Zm.35-9.65-.31-.12c0-.52,0-1-.09-1.55a6.56,6.56,0,0,0-5.47-5.69,6,6,0,0,0-6.28,3.63,8.12,8.12,0,0,0,.18,7.49,6,6,0,0,0,10.41.52A20.2,20.2,0,0,0,563.24,82.09Z" transform="translate(-2.16 40.56)"/><path d="M253.09,80.52V91.41c0,1.76-.14,1.9-1.93,1.89-3.57,0-3.25.44-3.25-3.28V62.44c0-1.72,0-1.73,1.75-1.73h10a10.06,10.06,0,0,1,9.82,7.92,9.78,9.78,0,0,1-6.23,11c-.25.1-.49.23-.84.4,2,2.93,4,5.78,5.95,8.63.72,1.06,1.47,2.1,2.17,3.16.52.79.22,1.4-.73,1.44a32.52,32.52,0,0,1-3.95,0,1.86,1.86,0,0,1-1.14-.83c-2.38-3.51-4.77-7-7-10.58A2.42,2.42,0,0,0,255,80.51,17.29,17.29,0,0,1,253.09,80.52Zm.1-14.88v10c2.25,0,4.42.16,6.55,0a4.94,4.94,0,0,0,4.57-5.42c-.2-2.63-2.35-4.47-5.25-4.48Z" transform="translate(-2.16 40.56)"/><path d="M317.79,72.42c0-2.23,0-4.21,0-6.19,0-1.44,0-2.88,0-4.32,0-.88.34-1.24,1.21-1.2.67,0,1.35,0,2,0,1.89,0,1.9,0,1.9,1.84V75.86q0,7.92,0,15.83c0,1.46-.15,1.6-1.56,1.61h-1.08c-2,0-2,0-2.48-1.84a1.66,1.66,0,0,0-.4.21c-4,3.57-11.6,3.36-15.45-3.08a13,13,0,0,1,2.77-16.52,10.07,10.07,0,0,1,12.15-.31Zm-6.18,16.72a5.6,5.6,0,0,0,4.77-2.29,8.09,8.09,0,0,0,1.4-6.81,6.47,6.47,0,0,0-5.55-5.34,6.06,6.06,0,0,0-6.1,3.57,8.18,8.18,0,0,0,0,7.28A5.88,5.88,0,0,0,311.61,89.14Z" transform="translate(-2.16 40.56)"/><path d="M459.85,65.68c-1,1-1.89,1.9-2.83,2.81-.6.58-1.11.38-1.63-.17-3.47-3.66-7.7-4.26-12.21-2.58-4.3,1.6-6.66,4.93-7.16,9.51-.48,4.39.57,8.26,4.11,11.17a11.64,11.64,0,0,0,15.94-1.19c.82-.85,1.4-.87,2.15-.06s1.66,1.72,2.5,2.58c-3.27,5-11.24,7.45-18.21,5.54a16.59,16.59,0,0,1-11.84-15.5c-.24-7.88,4-14.47,10.94-16.85C448.12,58.71,455.64,60.12,459.85,65.68Z" transform="translate(-2.16 40.56)"/><path d="M579.16,83.21A5.85,5.85,0,0,0,583,88.73c3.08,1.21,5.29.28,8.33-3.56,1.17.58,2.4,1.13,3.58,1.77.84.45.57,1.11.17,1.72a11.58,11.58,0,0,1-21-3.72c-1.31-5.77,1.13-11.55,5.9-13.93,5.25-2.61,14.35-1.2,15.74,8.17.19,1.28.21,2.59.31,4Zm.48-4.55h10.68a5.18,5.18,0,0,0-5.57-4C582.06,74.72,579.79,76.74,579.64,78.66Z" transform="translate(-2.16 40.56)"/><path d="M471.68,72c1.66-.67,3.25-1.65,4.94-1.92,5.1-.83,9.83,1.73,10,8.07.15,4.55,0,9.11.08,13.66,0,1.15-.42,1.62-1.56,1.52-.68-.06-1.36,0-2,0-1.34,0-1.58-.24-1.58-1.63,0-3.8,0-7.59,0-11.39,0-.48,0-1-.05-1.44-.13-1.65-.69-3.07-2.33-3.75a4.72,4.72,0,0,0-5,.56,6.31,6.31,0,0,0-2.47,5.22c0,3.44,0,6.87,0,10.31,0,2-.07,2.12-2.06,2.12h-1.56c-1.4,0-1.55-.16-1.55-1.61,0-1.68,0-3.36,0-5V62.43c0-1.69,0-1.73,1.65-1.72,4,0,3.51-.56,3.52,3.47,0,2.52-.06,5-.09,7.55A.62.62,0,0,0,471.68,72Z" transform="translate(-2.16 40.56)"/><path d="M507.44,91.34a9.3,9.3,0,0,1-5.32,2.58,8.58,8.58,0,0,1-9.71-6.74A7.24,7.24,0,0,1,497.23,79a14.83,14.83,0,0,1,8.94-.37c.41.1.81.22,1.24.34a4.18,4.18,0,0,0-2.93-4c-3-1-5.37,0-7.22,2.66-1.23-.77-2.41-1.5-3.57-2.25-.72-.47-.58-1.07-.12-1.64a9.46,9.46,0,0,1,4.76-3.27,13.23,13.23,0,0,1,8,0,8.6,8.6,0,0,1,6.17,8.6c0,4.24,0,8.47,0,12.71,0,1.13-.48,1.62-1.6,1.52-.48,0-1,0-1.44,0C507.76,93.3,507.76,93.3,507.44,91.34Zm-4.52-9.06a28.57,28.57,0,0,0-3.5,1.12,2.82,2.82,0,0,0-1.76,3,3,3,0,0,0,2.13,2.5c3,1.25,7.2-1.14,7.6-4.37a1.37,1.37,0,0,0-.59-1.17C505.57,82.91,504.29,82.64,502.92,82.28Z" transform="translate(-2.16 40.56)"/><path d="M382.93,79c.23-1.57-.87-3.16-2.7-3.95-2.57-1.11-5-.3-7.4,2.58-1.22-.77-2.48-1.51-3.67-2.35-.6-.42-.45-1,0-1.54A9.69,9.69,0,0,1,376.87,70a17.41,17.41,0,0,1,6,.92A7.64,7.64,0,0,1,388,78.16c.18,4.63.07,9.28.09,13.92,0,.83-.36,1.26-1.23,1.23-.64,0-1.28,0-1.92,0-1.67,0-1.74-.06-1.93-1.84-.29.2-.53.35-.75.53a9.23,9.23,0,0,1-12.39-.89c-4.09-4.45-1.72-11.19,4.46-12.56A15.93,15.93,0,0,1,382.93,79Zm-4.33,3.3a27.05,27.05,0,0,0-3.51,1.06,2.89,2.89,0,0,0-1.88,3,3.2,3.2,0,0,0,2.59,2.66,6.05,6.05,0,0,0,7.2-4.47,1.41,1.41,0,0,0-.57-1.2C381.22,82.93,379.94,82.65,378.6,82.29Z" transform="translate(-2.16 40.56)"/><path d="M289.63,79A4.1,4.1,0,0,0,286.82,75c-2.53-1.06-4.75-.3-7.37,2.59-1.15-.72-2.34-1.45-3.49-2.21-.76-.5-.61-1.09-.11-1.72A10.1,10.1,0,0,1,283.11,70c3.05-.27,6,.12,8.49,2.14a7.65,7.65,0,0,1,3,5.88c.14,4.72.07,9.44.08,14.15,0,.86-.43,1.23-1.27,1.19-.48,0-1,0-1.44,0-1.94,0-1.94,0-2.41-1.91a8.75,8.75,0,0,1-5.19,2.53c-4.12.5-8.4-2-9.5-5.53-1.4-4.56,1.23-8.79,6.13-9.86A17,17,0,0,1,289.63,79ZM285.2,82.3a25.76,25.76,0,0,0-3.47,1.06,2.87,2.87,0,0,0-1.86,3.07,3.23,3.23,0,0,0,2.64,2.63,6.15,6.15,0,0,0,7.16-4.33c.17-.75,0-1.28-.78-1.49C287.71,82.92,286.52,82.63,285.2,82.3Z" transform="translate(-2.16 40.56)"/><path d="M524.48,72.05a25.44,25.44,0,0,1,4.87-2c5.23-1,9.95,1.82,10.14,7.91.14,4.68,0,9.36,0,14,0,.91-.35,1.34-1.28,1.28-.56,0-1.12,0-1.68,0-2.1,0-2.1,0-2.1-2.16,0-3.67,0-7.35,0-11a13.55,13.55,0,0,0-.09-1.43c-.18-1.82-1-3.24-2.83-3.76a4.88,4.88,0,0,0-5.44,1.46,6.12,6.12,0,0,0-1.53,4.06q0,5.64,0,11.27c0,1.41-.18,1.58-1.6,1.59h-2.4c-.79,0-1.18-.35-1.18-1.15q0-10.2,0-20.39c0-.79.35-1.18,1.16-1.17h1.68C524.13,70.59,524.13,70.59,524.48,72.05Z" transform="translate(-2.16 40.56)"/><path d="M358.93,78.88l-.44-.83a5.83,5.83,0,0,0-10.26-.63,8.46,8.46,0,0,0-.16,8.75,6,6,0,0,0,10.64-.38c.13-.25.27-.48.46-.82,1.34.57,2.67,1.09,3.94,1.73.21.11.33.82.19,1.12a9.89,9.89,0,0,1-7.48,5.92A11.38,11.38,0,0,1,342.76,87a12.64,12.64,0,0,1,3.93-15.15C352.11,68,360,69.78,363,75.51c.6,1.14.49,1.47-.72,2Z" transform="translate(-2.16 40.56)"/><path d="M415.85,77.75c1.17-1.75,2.37-3.3,3.28-5s2.14-2.51,4.08-2.16c.55.09,1.13,0,1.68,0,.34,0,.88.22.94.44a1.6,1.6,0,0,1-.26,1.17c-1.84,2.66-3.75,5.27-5.6,7.93-1.36,2-1.34,1.25,0,3.22,1.9,2.77,3.86,5.49,5.76,8.25a1.57,1.57,0,0,1,.22,1.25c-.1.25-.69.34-1.08.42-3,.61-5-.48-6.33-3.31a31.77,31.77,0,0,0-2.78-4.21c-1.47,2.23-2.89,4.3-4.2,6.44a2,2,0,0,1-2.12,1.11c-.91-.1-1.84,0-2.75,0a1.49,1.49,0,0,1-1.06-.47,1.32,1.32,0,0,1,.2-1.13c2.05-3,4.1-6,6.22-9a1.41,1.41,0,0,0,0-2c-2-2.78-4-5.6-5.92-8.44a1.61,1.61,0,0,1-.31-1.24c.13-.28.75-.38,1.17-.47,2.81-.57,4.75.44,6,3.05A33.19,33.19,0,0,0,415.85,77.75Z" transform="translate(-2.16 40.56)"/><path d="M400.09,77q0,7.31,0,14.63c0,1.5-.14,1.65-1.64,1.64-3.77,0-3.4.5-3.41-3.36V62.49c0-1.77,0-1.79,1.71-1.78,3.91,0,3.31-.54,3.34,3.37C400.11,68.4,400.09,72.71,400.09,77Z" transform="translate(-2.16 40.56)"/><path d="M330.52,81.8c0-3.23,0-6.47,0-9.71,0-1.16.42-1.59,1.55-1.51a13,13,0,0,0,2.16,0c1.12-.09,1.45.43,1.45,1.48,0,5.48,0,11,0,16.42,0,1.2,0,2.4,0,3.6,0,.83-.36,1.26-1.24,1.23s-1.68,0-2.52,0c-1.05,0-1.4-.44-1.39-1.44C330.53,88.51,330.52,85.16,330.52,81.8Z" transform="translate(-2.16 40.56)"/><path d="M336.44,63.73a3.36,3.36,0,0,1-3.39,3.41,3.5,3.5,0,0,1-3.4-3.46,3.42,3.42,0,0,1,3.45-3.39A3.32,3.32,0,0,1,336.44,63.73Z" transform="translate(-2.16 40.56)"/></svg>