<svg xmlns="http://www.w3.org/2000/svg" id="Layer_4" width="134.1" height="32"><style>.st0{fill:#673ab7}</style><g id="XMLID_261_"><path id="XMLID_259_" d="M5.2 0H0l14.8 25.6 2.6-4.5z" class="st0"/><path id="XMLID_258_" d="M19.3 14.6L10.9 0H5.8l11.9 20.6 1.7-2.9c.3-.5.4-1 .4-1.6 0-.5-.2-1.1-.5-1.5z" class="st0"/><path id="XMLID_257_" d="M9 16.7L.2 32h5.1l6.3-10.9z" class="st0"/><path id="XMLID_256_" d="M11.9 21.6L5.9 32h5.2l3.4-5.9z" class="st0"/></g><g id="XMLID_1_"><path d="M44 8.4c0 1.8-.5 3.1-1.6 4.2-1.2 1.2-2.7 1.9-4.6 1.9-1.8 0-3.3-.6-4.6-1.9-1.3-1.3-1.9-2.8-1.9-4.7s.6-3.4 1.9-4.7C34.5 2 36 1.4 37.8 1.4c.9 0 1.8.2 2.6.5s1.5.8 2 1.4l-1.1 1.1c-.8-1-2-1.5-3.4-1.5-1.3 0-2.5.5-3.4 1.4-1 .9-1.4 2.1-1.4 3.6s.5 2.7 1.4 3.6c1 .9 2.1 1.4 3.4 1.4 1.4 0 2.6-.5 3.5-1.4.6-.6 1-1.5 1.1-2.5h-4.6V7.5H44c-.1.3 0 .6 0 .9zM45.6 14.2V1.6h3.8c1.9 0 3.5.6 4.6 1.7 1.2 1.2 1.7 2.7 1.7 4.5s-.6 3.4-1.7 4.5c-1.2 1.2-2.7 1.7-4.6 1.7h-3.8zm1.6-1.6h2.2c1.4 0 2.6-.4 3.4-1.2.8-.8 1.3-2 1.3-3.5s-.4-2.6-1.3-3.5c-.8-.8-2-1.3-3.4-1.3h-2.2v9.5zM69.4 8.4c0 1.8-.5 3.1-1.6 4.2-1.2 1.2-2.7 1.9-4.6 1.9-1.8 0-3.3-.6-4.6-1.9-1.3-1.3-1.9-2.8-1.9-4.7s.6-3.4 1.9-4.7c1.3-1.3 2.8-1.9 4.6-1.9.9 0 1.8.2 2.6.5s1.5.8 2 1.4l-1.1 1.1c-.8-1-2-1.5-3.4-1.5-1.3 0-2.5.5-3.4 1.4-1 .9-1.4 2.1-1.4 3.6s.5 2.7 1.4 3.6c1 .9 2.1 1.4 3.4 1.4 1.4 0 2.6-.5 3.5-1.4.6-.6 1-1.5 1.1-2.5h-4.6V7.5h6.1v.9zM75.2 14.2V1.6H79c1.9 0 3.5.6 4.6 1.7 1.2 1.2 1.7 2.7 1.7 4.5s-.6 3.4-1.7 4.5C82.4 13.5 80.9 14 79 14h-3.8zm1.6-1.6H79c1.4 0 2.6-.4 3.4-1.2.8-.8 1.3-2 1.3-3.5s-.4-2.6-1.3-3.5c-.8-.8-2-1.3-3.4-1.3h-2.2v9.5zM90.7 14.5c-1.3 0-2.3-.4-3.2-1.3-.8-.9-1.2-2-1.2-3.3 0-1.2.4-2.3 1.2-3.2.8-.9 1.8-1.3 3-1.3 1.3 0 2.3.4 3.1 1.2.8.8 1.1 1.9 1.1 3.3v.3h-6.8c0 .9.3 1.5.9 2 .5.5 1.2.8 1.9.8 1.2 0 1.9-.5 2.3-1.5l1.4.6c-.3.7-.7 1.2-1.4 1.7-.6.4-1.4.7-2.3.7zM93 8.9c0-.5-.3-1-.7-1.4-.4-.4-1-.7-1.8-.7-.6 0-1.1.2-1.5.6-.4.4-.7.9-.9 1.5H93zM98.1 14.2l-3.5-8.6h1.8l2.5 6.6 2.6-6.6h1.7l-3.5 8.6h-1.6zM105.8 14.2h-1.6V1.6h7.3v1.5h-5.7v4.1h5.1v1.5h-5.1v5.5zM116.3 14.5c-1.3 0-2.3-.4-3.2-1.3-.8-.9-1.2-2-1.2-3.3 0-1.2.4-2.3 1.2-3.2.8-.9 1.8-1.3 3-1.3 1.3 0 2.3.4 3.1 1.2.8.8 1.1 1.9 1.1 3.3v.3h-6.8c0 .9.3 1.5.9 2 .5.5 1.2.8 1.9.8 1.2 0 1.9-.5 2.3-1.5l1.4.6c-.3.7-.7 1.2-1.4 1.7-.6.4-1.3.7-2.3.7zm2.3-5.6c0-.5-.3-1-.7-1.4-.4-.4-1-.7-1.8-.7-.6 0-1.1.2-1.5.6-.4.4-.7.9-.9 1.5h4.9zM124.6 14.5c-1 0-1.7-.2-2.4-.7-.6-.5-1.1-1-1.4-1.8l1.4-.6c.5 1.1 1.2 1.6 2.3 1.6.5 0 .9-.1 1.2-.3.3-.2.5-.5.5-.9 0-.6-.4-.9-1.2-1.1l-1.7-.4c-.5-.1-1.1-.4-1.6-.8s-.7-.9-.7-1.6c0-.8.3-1.4 1-1.8.7-.5 1.5-.7 2.4-.7.8 0 1.4.2 2 .5.6.3 1 .8 1.3 1.5l-1.4.6c-.3-.8-1-1.1-2-1.1-.5 0-.9.1-1.2.3-.3.2-.5.5-.5.8 0 .5.4.8 1.1 1l1.7.4c.8.2 1.4.5 1.8 1 .4.5.6 1 .6 1.5 0 .8-.3 1.4-.9 1.9-.5.4-1.3.7-2.3.7zM132.8 14.3c-.9 0-1.6-.2-2.1-.7-.5-.5-.7-1.2-.7-2V7.1h-1.5V5.6h1.5V3h1.6v2.6h2.1v1.5h-2.1v4.4c0 .9.4 1.4 1.2 1.4.3 0 .5 0 .7-.1l.6 1.4c-.3 0-.8.1-1.3.1zM35.4 31c-.9 0-1.8-.3-2.7-.9-.9-.6-1.4-1.4-1.7-2.5l1.5-.6c.2.7.5 1.3 1.1 1.7.5.5 1.2.7 1.8.7.7 0 1.3-.2 1.8-.6.5-.4.7-.9.7-1.5 0-.7-.2-1.2-.7-1.6-.5-.4-1.3-.7-2.4-1.1-1.1-.3-1.9-.8-2.5-1.4-.6-.6-.9-1.3-.9-2.1 0-.9.4-1.7 1.1-2.3.7-.7 1.6-1 2.8-1 1.1 0 1.9.3 2.6.8.7.5 1.1 1.1 1.3 1.7l-1.4.7c-.1-.4-.4-.8-.8-1.1-.4-.3-.9-.5-1.6-.5-.6 0-1.1.2-1.6.5-.4.3-.7.8-.7 1.3s.2.9.6 1.2c.4.3 1 .6 1.8.9.6.2 1.1.4 1.5.6.4.2.8.4 1.3.7.4.3.7.7 1 1.2.2.5.3 1 .3 1.6 0 .6-.1 1.1-.4 1.6-.3.5-.6.9-1 1.1-.4.3-.9.5-1.3.6-.5.2-1 .3-1.5.3zM44.9 31c-1.3 0-2.3-.4-3.2-1.3-.8-.9-1.2-2-1.2-3.3 0-1.2.4-2.3 1.2-3.2.8-.9 1.8-1.3 3-1.3 1.3 0 2.3.4 3.1 1.2.8.8 1.1 1.9 1.1 3.3v.3h-6.8c0 .9.3 1.5.9 2 .5.5 1.2.8 1.9.8 1.2 0 1.9-.5 2.3-1.5l1.4.6c-.3.7-.7 1.2-1.4 1.7-.6.4-1.4.7-2.3.7zm2.3-5.6c0-.5-.3-1-.7-1.4-.4-.4-1-.7-1.8-.7-.6 0-1.1.2-1.5.6-.4.4-.7.9-.9 1.5h4.9zM52.7 31c-.9 0-1.7-.3-2.3-.8-.6-.5-.9-1.2-.9-2.1 0-.9.4-1.7 1.1-2.2.7-.5 1.6-.8 2.7-.8.9 0 1.7.2 2.3.5v-.2c0-.6-.2-1.1-.6-1.5-.4-.4-1-.6-1.6-.6-.5 0-.9.1-1.3.3-.4.2-.6.5-.8.9l-1.5-.6c.2-.5.6-1 1.2-1.4.6-.4 1.4-.7 2.3-.7 1.1 0 2 .3 2.7 1 .7.6 1.1 1.5 1.1 2.7v5.2h-1.5v-1.2h-.1c-.6 1-1.5 1.5-2.8 1.5zm.3-1.5c.7 0 1.3-.2 1.8-.7.5-.5.8-1.1.8-1.8-.5-.4-1.1-.6-2-.6-.8 0-1.4.2-1.8.5-.4.3-.6.7-.6 1.2 0 .4.2.8.5 1 .4.3.8.4 1.3.4zM61.8 31c-1 0-1.7-.2-2.4-.7-.6-.5-1.1-1-1.4-1.8l1.4-.6c.5 1.1 1.2 1.6 2.3 1.6.5 0 .9-.1 1.2-.3.3-.2.5-.5.5-.9 0-.6-.4-.9-1.2-1.1l-1.7-.4c-.5-.1-1.1-.4-1.6-.8s-.7-.9-.7-1.6c0-.8.3-1.4 1-1.8.7-.5 1.5-.7 2.4-.7.8 0 1.4.2 2 .5.6.3 1 .8 1.3 1.5l-1.4.6c-.3-.8-1-1.1-2-1.1-.5 0-.9.1-1.2.3-.1.1-.3.3-.3.7 0 .5.4.8 1.1 1l1.7.4c.8.2 1.4.5 1.8 1 .4.5.6 1 .6 1.5 0 .8-.3 1.4-.9 1.9-.7.5-1.5.8-2.5.8zM67 23.1c.8-.9 1.9-1.3 3.2-1.3 1.3 0 2.3.4 3.2 1.3.8.9 1.2 2 1.2 3.3 0 1.3-.4 2.4-1.2 3.3-.8.9-1.9 1.3-3.2 1.3-1.3 0-2.3-.4-3.2-1.3-.8-.9-1.2-2-1.2-3.3 0-1.3.4-2.4 1.2-3.3zm1.2 5.5c.6.6 1.2.8 2 .8s1.4-.3 2-.8c.6-.6.8-1.3.8-2.2 0-.9-.3-1.7-.8-2.2-.6-.6-1.2-.8-2-.8s-1.4.3-2 .8c-.6.6-.8 1.3-.8 2.2 0 .9.3 1.7.8 2.2zM77.3 22.1v1.2h.1c.2-.4.6-.8 1.1-1 .5-.3 1-.4 1.6-.4 1.1 0 1.9.3 2.4 1 .6.7.8 1.5.8 2.6v5.2h-1.6v-5c0-1.6-.7-2.4-2.1-2.4-.7 0-1.2.3-1.6.8-.4.5-.6 1.1-.6 1.8v4.7h-1.6V22h1.5zM96.5 30.7h-7.6v-1.6c2.3-2.3 3.8-3.8 4.4-4.5.6-.6 1-1.1 1.2-1.5.2-.3.3-.7.3-1.2s-.2-.9-.6-1.3c-.4-.4-.9-.6-1.6-.6-.6 0-1.1.2-1.5.5-.4.4-.6.7-.7 1.1l-1.6-.6c.2-.6.6-1.2 1.2-1.8.6-.6 1.4-.8 2.4-.8 1.1 0 2 .3 2.7 1 .7.7 1.1 1.5 1.1 2.4 0 1.2-.6 2.4-1.9 3.7L90.8 29h5.5v1.7zM105.7 29.2c-.9 1.2-2 1.8-3.5 1.8-1.4 0-2.6-.6-3.5-1.8-.9-1.2-1.3-2.7-1.3-4.5 0-1.8.4-3.3 1.3-4.5.9-1.2 2-1.8 3.5-1.8 1.4 0 2.6.6 3.5 1.8.9 1.2 1.3 2.7 1.3 4.5 0 1.8-.4 3.3-1.3 4.5zm-3.5.2c1 0 1.7-.4 2.3-1.3.6-.9.9-2 .9-3.4s-.3-2.5-.9-3.4c-.6-.9-1.3-1.3-2.3-1.3-1 0-1.7.4-2.3 1.3-.6.9-.9 2-.9 3.4s.3 2.5.9 3.4c.5.9 1.3 1.3 2.3 1.3zM112.1 30.7h-1.6v-10l-2.3 1-.6-1.4 3.5-1.6h1v12zM120.9 29.9c-.8.7-1.7 1-2.9 1-1.1 0-2.1-.3-2.9-1-.8-.7-1.2-1.5-1.2-2.6 0-.7.2-1.3.5-1.8.4-.5.8-.9 1.4-1.2v-.1c-.5-.3-.8-.7-1.1-1.1-.3-.4-.4-.9-.4-1.4 0-1 .3-1.8 1-2.4.7-.6 1.6-1 2.6-1 1.1 0 1.9.3 2.6 1 .7.6 1 1.5 1 2.4 0 .5-.1 1-.4 1.4-.3.4-.7.8-1.1 1.1v.1c.6.3 1.1.7 1.4 1.2.4.5.5 1.1.5 1.8.2 1.1-.2 1.9-1 2.6zm-4.6-1.1c.5.4 1 .6 1.7.6s1.2-.2 1.7-.6c.5-.4.7-.9.7-1.5s-.2-1.1-.7-1.5c-.5-.4-1-.6-1.7-.6s-1.2.2-1.7.6c-.5.4-.7.9-.7 1.5s.3 1.1.7 1.5zm.3-5.7c.4.3.9.5 1.4.5.6 0 1.1-.2 1.4-.5.4-.3.6-.8.6-1.4 0-.6-.2-1-.6-1.3-.4-.3-.9-.5-1.4-.5-.6 0-1.1.2-1.4.5-.4.3-.6.8-.6 1.3 0 .6.2 1.1.6 1.4z" class="st0"/></g></svg>