<?xml version="1.0" encoding="utf-8"?>
<!-- Generator: Adobe Illustrator 23.0.1, SVG Export Plug-In . SVG Version: 6.00 Build 0)  -->
<svg version="1.1" id="Layer_4" xmlns="http://www.w3.org/2000/svg" xmlns:xlink="http://www.w3.org/1999/xlink" x="0px" y="0px"
	 viewBox="0 0 134.1 32" style="enable-background:new 0 0 134.1 32;" xml:space="preserve">
<style type="text/css">
	.st0{fill:#673AB7;}
</style>
<g id="XMLID_261_">
	<path id="XMLID_259_" class="st0" d="M5.2,0H0l14.8,25.6l2.6-4.5L5.2,0z"/>
	<path id="XMLID_258_" class="st0" d="M19.3,14.6L10.9,0H5.8l11.9,20.6l1.7-2.9c0.3-0.5,0.4-1,0.4-1.6C19.8,15.6,19.6,15,19.3,14.6z
		"/>
	<path id="XMLID_257_" class="st0" d="M9,16.7L0.2,32h5.1l6.3-10.9L9,16.7z"/>
	<path id="XMLID_256_" class="st0" d="M11.9,21.6L5.9,32h5.2l3.4-5.9L11.9,21.6z"/>
</g>
<g id="XMLID_1_">
	<path class="st0" d="M39.1,17.2c0,1.8-0.5,3.1-1.6,4.2c-1.2,1.2-2.7,1.9-4.6,1.9c-1.8,0-3.3-0.6-4.6-1.9c-1.3-1.3-1.9-2.8-1.9-4.7
		s0.6-3.4,1.9-4.7c1.3-1.2,2.8-1.8,4.6-1.8c0.9,0,1.8,0.2,2.6,0.5c0.8,0.3,1.5,0.8,2,1.4l-1.1,1.1c-0.8-1-2-1.5-3.4-1.5
		c-1.3,0-2.5,0.5-3.4,1.4c-1,0.9-1.4,2.1-1.4,3.6s0.5,2.7,1.4,3.6c1,0.9,2.1,1.4,3.4,1.4c1.4,0,2.6-0.5,3.5-1.4
		c0.6-0.6,1-1.5,1.1-2.5H33v-1.5h6.1C39,16.7,39.1,17,39.1,17.2z M40.7,23.1V10.5h3.8c1.9,0,3.5,0.6,4.6,1.7
		c1.2,1.2,1.7,2.7,1.7,4.5c0,1.8-0.6,3.4-1.7,4.5c-1.2,1.2-2.7,1.7-4.6,1.7h-3.8V23.1z M42.3,21.5h2.2c1.4,0,2.6-0.4,3.4-1.2
		c0.8-0.8,1.3-2,1.3-3.5s-0.4-2.6-1.3-3.5c-0.8-0.8-2-1.3-3.4-1.3h-2.2V21.5z M64.5,17.2c0,1.8-0.5,3.1-1.6,4.2
		c-1.2,1.2-2.7,1.9-4.6,1.9c-1.8,0-3.3-0.6-4.6-1.9c-1.3-1.3-1.9-2.8-1.9-4.7s0.6-3.4,1.9-4.7c1.3-1.3,2.8-1.9,4.6-1.9
		c0.9,0,1.8,0.2,2.6,0.5s1.5,0.8,2,1.4l-1.1,1.1c-0.8-1-2-1.5-3.4-1.5c-1.3,0-2.5,0.5-3.4,1.4c-1,0.9-1.4,2.1-1.4,3.6
		s0.5,2.7,1.4,3.6c1,0.9,2.1,1.4,3.4,1.4c1.4,0,2.6-0.5,3.5-1.4c0.6-0.6,1-1.5,1.1-2.5h-4.6v-1.4h6.1V17.2z M70.3,23.1V10.5h3.8
		c1.9,0,3.5,0.6,4.6,1.7c1.2,1.2,1.7,2.7,1.7,4.5c0,1.8-0.6,3.4-1.7,4.5c-1.2,1.2-2.7,1.7-4.6,1.7h-3.8V23.1z M71.9,21.5h2.2
		c1.4,0,2.6-0.4,3.4-1.2c0.8-0.8,1.3-2,1.3-3.5s-0.4-2.6-1.3-3.5c-0.8-0.8-2-1.3-3.4-1.3h-2.2C71.9,11.9,71.9,21.5,71.9,21.5z
		 M85.8,23.4c-1.3,0-2.3-0.4-3.2-1.3c-0.8-0.9-1.2-2-1.2-3.3c0-1.2,0.4-2.3,1.2-3.2c0.8-0.9,1.8-1.3,3-1.3c1.3,0,2.3,0.4,3.1,1.2
		c0.8,0.8,1.1,1.9,1.1,3.3v0.3H83c0,0.9,0.3,1.5,0.9,2c0.5,0.5,1.2,0.8,1.9,0.8c1.2,0,1.9-0.5,2.3-1.5l1.4,0.6
		c-0.3,0.7-0.7,1.2-1.4,1.7C87.5,23.1,86.7,23.4,85.8,23.4z M88.1,17.8c0-0.5-0.3-1-0.7-1.4c-0.4-0.4-1-0.7-1.8-0.7
		c-0.6,0-1.1,0.2-1.5,0.6s-0.7,0.9-0.9,1.5H88.1z M93.2,23.1l-3.5-8.6h1.8L94,21l2.6-6.6h1.7L94.8,23C94.8,23,93.2,23,93.2,23.1z
		 M100.9,23.1h-1.6V10.5h7.3V12h-5.7v4.1h5.1v1.5h-5.1C100.9,17.6,100.9,23.1,100.9,23.1z M111.4,23.4c-1.3,0-2.3-0.4-3.2-1.3
		c-0.8-0.9-1.2-2-1.2-3.3c0-1.2,0.4-2.3,1.2-3.2c0.8-0.9,1.8-1.3,3-1.3c1.3,0,2.3,0.4,3.1,1.2c0.8,0.8,1.1,1.9,1.1,3.3v0.3h-6.8
		c0,0.9,0.3,1.5,0.9,2c0.5,0.5,1.2,0.8,1.9,0.8c1.2,0,1.9-0.5,2.3-1.5l1.4,0.6c-0.3,0.7-0.7,1.2-1.4,1.7
		C113.1,23.1,112.4,23.4,111.4,23.4z M113.7,17.8c0-0.5-0.3-1-0.7-1.4c-0.4-0.4-1-0.7-1.8-0.7c-0.6,0-1.1,0.2-1.5,0.6
		s-0.7,0.9-0.9,1.5H113.7z M119.7,23.4c-1,0-1.7-0.2-2.4-0.7c-0.6-0.5-1.1-1-1.4-1.8l1.4-0.6c0.5,1.1,1.2,1.6,2.3,1.6
		c0.5,0,0.9-0.1,1.2-0.3c0.3-0.2,0.5-0.5,0.5-0.9c0-0.6-0.4-0.9-1.2-1.1l-1.7-0.4c-0.5-0.1-1.1-0.4-1.6-0.8
		c-0.5-0.4-0.7-0.9-0.7-1.6c0-0.8,0.3-1.4,1-1.8c0.7-0.5,1.5-0.7,2.4-0.7c0.8,0,1.4,0.2,2,0.5s1,0.8,1.3,1.5l-1.4,0.6
		c-0.3-0.8-1-1.1-2-1.1c-0.5,0-0.9,0.1-1.2,0.3c-0.3,0.2-0.5,0.5-0.5,0.8c0,0.5,0.4,0.8,1.1,1l1.7,0.4c0.8,0.2,1.4,0.5,1.8,1
		s0.6,1,0.6,1.5c0,0.8-0.3,1.4-0.9,1.9C121.5,23.1,120.7,23.4,119.7,23.4z M127.9,23.2c-0.9,0-1.6-0.2-2.1-0.7s-0.7-1.2-0.7-2V16
		h-1.5v-1.5h1.5v-2.6h1.6v2.6h2.1V16h-2.1v4.4c0,0.9,0.4,1.4,1.2,1.4c0.3,0,0.5,0,0.7-0.1l0.6,1.4C128.9,23,128.4,23.1,127.9,23.2z"
		/>
</g>
</svg>
