<?xml version="1.0" encoding="UTF-8" standalone="no"?>
<svg
   xmlns:dc="http://purl.org/dc/elements/1.1/"
   xmlns:cc="http://creativecommons.org/ns#"
   xmlns:rdf="http://www.w3.org/1999/02/22-rdf-syntax-ns#"
   xmlns:svg="http://www.w3.org/2000/svg"
   xmlns="http://www.w3.org/2000/svg"
   xmlns:sodipodi="http://sodipodi.sourceforge.net/DTD/sodipodi-0.dtd"
   xmlns:inkscape="http://www.inkscape.org/namespaces/inkscape"
   version="1.0"
   width="550"
   height="200"
   viewBox="0 0 5500 2000"
   preserveAspectRatio="xMidYMid meet"
   id="svg4561"
   sodipodi:docname="logo_text_white.svg"
   inkscape:version="0.92.4 (f8dce91, 2019-08-02)">
  <metadata
     id="metadata4567">
    <rdf:RDF>
      <cc:Work
         rdf:about="">
        <dc:format>image/svg+xml</dc:format>
        <dc:type
           rdf:resource="http://purl.org/dc/dcmitype/StillImage" />
        <dc:title></dc:title>
      </cc:Work>
    </rdf:RDF>
  </metadata>
  <defs
     id="defs4565" />
  <sodipodi:namedview
     pagecolor="#ffffff"
     bordercolor="#666666"
     borderopacity="1"
     objecttolerance="10"
     gridtolerance="10"
     guidetolerance="10"
     inkscape:pageopacity="0"
     inkscape:pageshadow="2"
     inkscape:window-width="1920"
     inkscape:window-height="1016"
     id="namedview4563"
     showgrid="false"
     inkscape:zoom="1.18"
     inkscape:cx="114.5"
     inkscape:cy="100"
     inkscape:window-x="0"
     inkscape:window-y="27"
     inkscape:window-maximized="1"
     inkscape:current-layer="svg4561" />
  <g
     id="layer101"
     style="fill:#0c0c0c;stroke:none">
    <path
       d="m 875,1774 c -16,-2 -71,-9 -120,-14 -50,-6 -113,-17 -140,-25 -49,-15 -48,-15 65,-9 63,3 223,9 355,14 289,11 280,10 230,21 -45,9 -344,20 -390,13 z"
       id="path4481"
       inkscape:connector-curvature="0" />
    <path
       d="m 1412,1729 c 3,-8 13,-37 23,-66 14,-40 26,-56 56,-73 48,-26 74,-60 56,-72 -8,-5 -6,-8 7,-8 14,0 17,5 12,23 -3,12 -6,31 -6,42 0,14 -13,25 -43,38 -36,15 -48,27 -67,68 -22,46 -51,82 -38,48 z"
       id="path4483"
       inkscape:connector-curvature="0" />
    <path
       d="m 355,1693 c -94,-19 -107,-26 -126,-67 -31,-67 -23,-88 12,-34 29,44 35,48 99,62 38,9 76,16 84,16 9,0 16,5 16,10 0,6 -9,10 -19,10 -11,0 -25,2 -33,4 -7,2 -22,2 -33,-1 z"
       id="path4485"
       inkscape:connector-curvature="0" />
    <path
       d="m 392,1604 c -63,-17 -103,-37 -123,-60 -12,-16 -12,-17 3,-11 9,3 68,18 130,33 149,35 148,34 123,44 -29,12 -73,11 -133,-6 z"
       id="path4487"
       inkscape:connector-curvature="0" />
    <path
       d="m 1360,1561 c 20,-12 133,-41 156,-40 11,0 -8,8 -41,18 -77,23 -135,34 -115,22 z"
       id="path4489"
       inkscape:connector-curvature="0" />
    <path
       d="m 485,1530 c -38,-4 -90,-13 -115,-19 -51,-14 -152,-52 -148,-57 2,-1 53,6 113,17 61,10 185,22 278,26 92,3 167,9 167,13 0,19 -194,32 -295,20 z"
       id="path4491"
       inkscape:connector-curvature="0" />
    <path
       d="m 871,1525 c 3,-2 95,-14 204,-25 414,-43 654,-92 698,-142 9,-11 17,-17 17,-13 0,57 -244,139 -505,170 -118,14 -425,21 -414,10 z"
       id="path4493"
       inkscape:connector-curvature="0" />
    <path
       d="m 1291,1416 c 2,-2 90,-29 194,-60 284,-85 427,-145 645,-271 l 45,-26 -45,41 c -92,85 -291,186 -483,244 -154,47 -379,92 -356,72 z"
       id="path4495"
       inkscape:connector-curvature="0" />
  </g>
  <g
     id="layer102"
     style="fill:#404041;stroke:none">
    <path
       d="m 1208,1743 c 12,-2 30,-2 40,0 9,3 -1,5 -23,4 -22,0 -30,-2 -17,-4 z"
       id="path4498"
       inkscape:connector-curvature="0" />
    <path
       d="m 883,1733 c 9,-2 23,-2 30,0 6,3 -1,5 -18,5 -16,0 -22,-2 -12,-5 z"
       id="path4500"
       inkscape:connector-curvature="0" />
    <path
       d="m 718,1723 c 6,-2 18,-2 25,0 6,3 1,5 -13,5 -14,0 -19,-2 -12,-5 z"
       id="path4502"
       inkscape:connector-curvature="0" />
    <path
       d="m 200,1555 c 0,-8 4,-15 10,-15 5,0 7,7 4,15 -4,8 -8,15 -10,15 -2,0 -4,-7 -4,-15 z"
       id="path4504"
       inkscape:connector-curvature="0" />
    <path
       d="m 518,1533 c 6,-2 18,-2 25,0 6,3 1,5 -13,5 -14,0 -19,-2 -12,-5 z"
       id="path4506"
       inkscape:connector-curvature="0" />
    <path
       d="m 648,1533 c 6,-2 18,-2 25,0 6,3 1,5 -13,5 -14,0 -19,-2 -12,-5 z"
       id="path4508"
       inkscape:connector-curvature="0" />
    <path
       d="m 1275,1420 c 4,-6 11,-8 16,-5 14,9 11,15 -7,15 -8,0 -12,-5 -9,-10 z"
       id="path4510"
       inkscape:connector-curvature="0" />
    <path
       d="m 1880,1255 c 14,-8 30,-14 35,-14 6,0 -1,6 -15,14 -14,8 -29,14 -35,14 -5,0 1,-6 15,-14 z"
       id="path4512"
       inkscape:connector-curvature="0" />
    <path
       d="m 1930,1236 c 0,-3 9,-10 20,-16 11,-6 20,-8 20,-6 0,3 -9,10 -20,16 -11,6 -20,8 -20,6 z"
       id="path4514"
       inkscape:connector-curvature="0" />
    <path
       d="m 1900,1200 c 8,-5 20,-10 25,-10 6,0 3,5 -5,10 -8,5 -19,10 -25,10 -5,0 -3,-5 5,-10 z"
       id="path4516"
       inkscape:connector-curvature="0" />
    <path
       d="m 1980,1166 c 0,-3 9,-10 20,-16 11,-6 20,-8 20,-6 0,3 -9,10 -20,16 -11,6 -20,8 -20,6 z"
       id="path4518"
       inkscape:connector-curvature="0" />
  </g>
  <g
     id="layer103"
     style="fill:#606060;stroke:none">
    <path
       d="m 838,1773 c 6,-2 18,-2 25,0 6,3 1,5 -13,5 -14,0 -19,-2 -12,-5 z"
       id="path4521"
       inkscape:connector-curvature="0" />
    <path
       d="m 1168,1773 c 6,-2 18,-2 25,0 6,3 1,5 -13,5 -14,0 -19,-2 -12,-5 z"
       id="path4523"
       inkscape:connector-curvature="0" />
    <path
       d="m 933,1733 c 9,-2 25,-2 35,0 9,3 1,5 -18,5 -19,0 -27,-2 -17,-5 z"
       id="path4525"
       inkscape:connector-curvature="0" />
    <path
       d="m 560,1718 c 0,-4 16,-8 35,-8 19,0 35,2 35,4 0,2 -16,6 -35,8 -19,2 -35,0 -35,-4 z"
       id="path4527"
       inkscape:connector-curvature="0" />
    <path
       d="m 758,1723 c 6,-2 18,-2 25,0 6,3 1,5 -13,5 -14,0 -19,-2 -12,-5 z"
       id="path4529"
       inkscape:connector-curvature="0" />
    <path
       d="m 928,1533 c 28,-2 76,-2 105,0 28,2 5,3 -53,3 -58,0 -81,-1 -52,-3 z"
       id="path4531"
       inkscape:connector-curvature="0" />
    <path
       d="m 1218,1523 c 6,-2 18,-2 25,0 6,3 1,5 -13,5 -14,0 -19,-2 -12,-5 z"
       id="path4533"
       inkscape:connector-curvature="0" />
    <path
       d="m 568,1493 c 6,-2 18,-2 25,0 6,3 1,5 -13,5 -14,0 -19,-2 -12,-5 z"
       id="path4535"
       inkscape:connector-curvature="0" />
    <path
       d="m 1786,1345 c -9,-26 -7,-32 5,-12 6,10 9,21 6,23 -2,3 -7,-2 -11,-11 z"
       id="path4537"
       inkscape:connector-curvature="0" />
    <path
       d="m 2148,1089 c 12,-14 19,-29 15,-34 -5,-4 -3,-5 4,-2 6,4 14,1 16,-5 3,-7 6,-8 6,-2 1,5 -14,23 -31,40 -27,23 -29,24 -10,3 z"
       id="path4539"
       inkscape:connector-curvature="0" />
  </g>
  <g
     id="layer104"
     style="fill:#37a957;stroke:none">
    <path
       d="m 845,1236 c 39,-26 136,-56 183,-56 26,0 67,9 91,20 24,11 46,18 48,16 10,-9 43,-222 43,-272 0,-57 -29,-180 -58,-246 -10,-24 -25,-57 -31,-75 -19,-48 -80,-68 -204,-67 -118,1 -116,-15 2,-23 119,-8 185,9 222,60 15,21 33,55 40,75 6,20 15,42 19,47 4,6 15,39 25,75 36,124 23,284 -33,413 -13,30 -20,36 -36,31 -91,-30 -172,-31 -258,-4 -75,24 -78,24 -53,6 z"
       id="path4542"
       inkscape:connector-curvature="0" />
  </g>
  <g
     id="layer105"
     style="fill:#e84a3d;stroke:none">
    <path
       d="m 470,1337 c 0,-3 28,-22 63,-41 165,-92 167,-175 15,-442 -39,-68 -69,-127 -66,-129 16,-17 164,202 198,293 34,91 23,201 -26,244 -41,36 -184,94 -184,75 z"
       id="path4545"
       inkscape:connector-curvature="0" />
  </g>
  <g
     id="layer106"
     style="fill:#5982c1;stroke:none">
    <path
       d="m 1530,1116 c 0,-14 87,-45 185,-66 101,-22 300,-41 287,-28 -13,13 -165,47 -302,67 -75,11 -143,23 -153,26 -9,4 -17,4 -17,1 z"
       id="path4548"
       inkscape:connector-curvature="0" />
    <path
       d="m 1820,955 c -181,-66 -448,-217 -560,-316 -53,-48 -19,-31 150,76 141,88 383,216 485,257 74,30 21,17 -75,-17 z"
       id="path4550"
       inkscape:connector-curvature="0" />
  </g>
  <g
     id="layer107"
     style="fill:#73c188;stroke:none">
    <path
       d="m 805,560 c -8,-13 5,-13 25,0 13,8 13,10 -2,10 -9,0 -20,-4 -23,-10 z"
       id="path4553"
       inkscape:connector-curvature="0" />
    <path
       d="m 933,523 c 15,-2 37,-2 50,0 12,2 0,4 -28,4 -27,0 -38,-2 -22,-4 z"
       id="path4555"
       inkscape:connector-curvature="0" />
  </g>
  <g
     id="layer108"
     style="fill:#fabe28;stroke:none">
    <path
       d="m 930,448 c -35,-12 -68,-18 -90,-14 l -35,5 24,-19 c 28,-24 59,-25 107,-5 20,8 40,12 45,9 5,-3 9,-28 9,-55 0,-44 -4,-54 -41,-94 -50,-54 -106,-82 -181,-91 -32,-4 -58,-10 -58,-14 0,-14 99,-21 143,-10 47,12 128,69 159,111 31,41 34,100 8,153 -12,25 -25,46 -28,45 -4,0 -32,-10 -62,-21 z"
       id="path4558"
       inkscape:connector-curvature="0" />
  </g>
  <text
     xml:space="preserve"
     style="font-style:normal;font-weight:normal;font-size:400px;line-height:1.25;font-family:sans-serif;letter-spacing:0px;word-spacing:0px;fill:#000000;fill-opacity:1;stroke:none;stroke-width:10"
     x="2305.0801"
     y="921.70416"
     id="text4764"><tspan
       sodipodi:role="line"
       x="2305.0801"
       y="921.70416"
       id="tspan4762"
       style="stroke-width:10;fill:#ffffff"><tspan
         x="2305.0801"
         y="921.70416"
         id="tspan4760"
         style="stroke-width:10;fill:#ffffff">DevFest</tspan></tspan></text>
  <text
     xml:space="preserve"
     style="font-style:normal;font-weight:normal;font-size:400px;line-height:1.25;font-family:sans-serif;letter-spacing:0px;word-spacing:0px;fill:#000000;fill-opacity:1;stroke:none;stroke-width:10"
     x="2296.6135"
     y="1396.2874"
     id="text4770"><tspan
       sodipodi:role="line"
       x="2296.6135"
       y="1396.2874"
       id="tspan4768"
       style="stroke-width:10;fill:#ffffff"><tspan
         x="2296.6135"
         y="1396.2874"
         id="tspan4766"
         style="stroke-width:10;fill:#ffffff">Hamburg 2019</tspan></tspan></text>
</svg>
