<?xml version="1.0" encoding="utf-8"?>
<!-- Generator: Adobe Illustrator 19.1.0, SVG Export Plug-In . SVG Version: 6.00 Build 0)  -->
<svg version="1.1" id="Layer_4" xmlns="http://www.w3.org/2000/svg" xmlns:xlink="http://www.w3.org/1999/xlink" x="0px" y="0px"
	 viewBox="-580 151 839 200" style="enable-background:new -580 151 839 200;" xml:space="preserve">
<style type="text/css">
	.st0{fill:none;}
	.st1{fill:#FFC107;}
	.st2{fill:#0F9D58;}
	.st3{opacity:0.2;fill:#BF360C;enable-background:new    ;}
	.st4{opacity:0.2;fill:#263238;enable-background:new    ;}
	.st5{opacity:0.2;fill:#FFFFFF;enable-background:new    ;}
	.st6{fill:url(#XMLID_2_);}
	.st7{fill:url(#XMLID_3_);}
	.st8{fill:#4285F4;}
	.st9{fill:#DB4437;}
	.st10{opacity:0.2;fill:#1A237E;enable-background:new    ;}
	.st11{opacity:0.2;fill:#3E2723;enable-background:new    ;}
	.st12{fill:url(#XMLID_4_);}
	.st13{fill:#FAFAFA;}
</style>
<g id="XMLID_60_">
	<g id="XMLID_61_">
		<g id="XMLID_62_">
			<path id="XMLID_106_" class="st0" d="M-457.5,241.6l-52.4-90.6H-580l57.8,100L-580,351h70.1l52.4-90.6
				C-454.2,254.6-454.2,247.4-457.5,241.6z"/>
			<path id="XMLID_105_" class="st1" d="M-487.6,310.8l-16.6-28.7l-39.9,68.9h34.2l22.8-39.4L-487.6,310.8z"/>
			<path id="XMLID_104_" class="st0" d="M-457.5,241.6l-52.4-90.6H-580l57.8,100L-580,351h70.1l52.4-90.6
				C-454.2,254.6-454.2,247.4-457.5,241.6z"/>
			<path id="XMLID_103_" class="st2" d="M-522.2,251l18,31.1l-39.9,68.9H-580L-522.2,251z"/>
			<path id="XMLID_102_" class="st0" d="M-457.5,241.6l-52.4-90.6H-580l57.8,100L-580,351h70.1l52.4-90.6
				C-454.2,254.6-454.2,247.4-457.5,241.6z"/>
			<path id="XMLID_101_" class="st3" d="M-509.9,349.4h-33.3l-0.9,1.6h34.2l22.8-39.4l-0.5-0.8L-509.9,349.4z"/>
			<path id="XMLID_100_" class="st0" d="M-457.5,241.6l-52.4-90.6H-580l57.8,100L-580,351h70.1l52.4-90.6
				C-454.2,254.6-454.2,247.4-457.5,241.6z"/>
			<path id="XMLID_99_" class="st4" d="M-579.1,349.4l-0.9,1.6h35.9l0.9-1.6H-579.1z"/>
			<path id="XMLID_98_" class="st0" d="M-457.5,241.6l-52.4-90.6H-580l57.8,100L-580,351h70.1l52.4-90.6
				C-454.2,254.6-454.2,247.4-457.5,241.6z"/>
			<path id="XMLID_96_" class="st5" d="M-580,351h0.9l57.4-99.2l-0.5-0.8L-580,351z"/>
			<path id="XMLID_94_" class="st0" d="M-457.5,241.6l-52.4-90.6H-580l57.8,100L-580,351h70.1l52.4-90.6
				C-454.2,254.6-454.2,247.4-457.5,241.6z"/>
			
				<radialGradient id="XMLID_2_" cx="-487.38" cy="-2056.501" r="69.162" gradientTransform="matrix(1 0 0 1 0 2367.46)" gradientUnits="userSpaceOnUse">
				<stop  offset="0" style="stop-color:#BF360C;stop-opacity:0.2"/>
				<stop  offset="1" style="stop-color:#BF360C;stop-opacity:2.000000e-02"/>
			</radialGradient>
			<path id="XMLID_92_" class="st6" d="M-487.1,311.6l-17.1-29.5l-4.2,7.2L-487.1,311.6z"/>
			<path id="XMLID_90_" class="st0" d="M-457.5,241.6l-52.4-90.6H-580l57.8,100L-580,351h70.1l52.4-90.6
				C-454.2,254.6-454.2,247.4-457.5,241.6z"/>
			
				<radialGradient id="XMLID_3_" cx="-487.577" cy="-2056.063" r="69.723" gradientTransform="matrix(1 0 0 1 0 2367.46)" gradientUnits="userSpaceOnUse">
				<stop  offset="0" style="stop-color:#263238;stop-opacity:0.2"/>
				<stop  offset="1" style="stop-color:#263238;stop-opacity:2.000000e-02"/>
			</radialGradient>
			<path id="XMLID_89_" class="st7" d="M-508.4,289.3l4.2-7.2l-18-31.1l-8.5,14.8L-508.4,289.3z"/>
			<path id="XMLID_88_" class="st0" d="M-457.5,241.6l-52.4-90.6H-580l57.8,100L-580,351h70.1l52.4-90.6
				C-454.2,254.6-454.2,247.4-457.5,241.6z"/>
			<g id="XMLID_85_">
				<g id="XMLID_86_">
					<path id="XMLID_87_" class="st8" d="M-544.1,151H-580l92.9,160.6l17.9-31.1L-544.1,151z"/>
				</g>
			</g>
			<path id="XMLID_84_" class="st0" d="M-457.5,241.6l-52.4-90.6H-580l57.8,100L-580,351h70.1l52.4-90.6
				C-454.2,254.6-454.2,247.4-457.5,241.6z"/>
			<path id="XMLID_83_" class="st9" d="M-457.5,260.4c3.4-5.8,3.4-13,0-18.8l-52.4-90.6h-34.2l74.9,129.5L-457.5,260.4z"/>
			<path id="XMLID_82_" class="st0" d="M-457.5,241.6l-52.4-90.6H-580l57.8,100L-580,351h70.1l52.4-90.6
				C-454.2,254.6-454.2,247.4-457.5,241.6z"/>
			<path id="XMLID_71_" class="st10" d="M-469.2,280.5l-0.4-0.8l-17.5,30.3l-92-159h-0.9l92.9,160.6L-469.2,280.5z"/>
			<path id="XMLID_69_" class="st0" d="M-457.5,241.6l-52.4-90.6H-580l57.8,100L-580,351h70.1l52.4-90.6
				C-454.2,254.6-454.2,247.4-457.5,241.6z"/>
			<path id="XMLID_67_" class="st5" d="M-509.9,152.6l52.4,90.6c1.5,2.7,2.3,5.6,2.5,8.6c0.1-3.5-0.7-7-2.5-10.2l-52.4-90.6H-580
				l0.9,1.6H-509.9z"/>
			<path id="XMLID_66_" class="st0" d="M-457.5,241.6l-52.4-90.6H-580l57.8,100L-580,351h70.1l52.4-90.6
				C-454.2,254.6-454.2,247.4-457.5,241.6z"/>
			<path id="XMLID_65_" class="st11" d="M-469.2,280.5l11.6-20.1c1.8-3.1,2.6-6.7,2.5-10.2c-0.1,3-0.9,5.9-2.5,8.6l-12.1,20.9
				L-469.2,280.5z"/>
			<path id="XMLID_64_" class="st0" d="M-457.5,241.6l-52.4-90.6H-580l57.8,100L-580,351h70.1l52.4-90.6
				C-454.2,254.6-454.2,247.4-457.5,241.6z"/>
			
				<radialGradient id="XMLID_4_" cx="-581.563" cy="-2214.8979" r="209.922" gradientTransform="matrix(1 0 0 1 0 2367.46)" gradientUnits="userSpaceOnUse">
				<stop  offset="0" style="stop-color:#FFFFFF;stop-opacity:0.1"/>
				<stop  offset="1" style="stop-color:#FFFFFF;stop-opacity:0"/>
			</radialGradient>
			<path id="XMLID_63_" class="st12" d="M-457.5,241.6l-52.4-90.6H-580l57.8,100L-580,351h70.1l52.4-90.6
				C-454.2,254.6-454.2,247.4-457.5,241.6z"/>
		</g>
	</g>
</g>
<g>
	<path class="st13" d="M-382.1,237.8V159h24.1c12,0,21.7,3.6,29,10.9c7.3,7.3,10.9,16.8,10.9,28.5c0,11.8-3.6,21.3-10.9,28.5
		c-7.3,7.2-17,10.8-29,10.8H-382.1z M-372,168.7v59.4h14c9.2,0,16.4-2.6,21.7-7.9c5.3-5.2,7.9-12.5,7.9-21.8
		c0-9.2-2.6-16.5-7.9-21.8c-5.3-5.3-12.5-7.9-21.7-7.9H-372z"/>
	<path class="st13" d="M-285.3,239.6c-7.9,0-14.4-2.7-19.6-8.1c-5.1-5.4-7.7-12.3-7.7-20.6c0-8.2,2.5-15.1,7.5-20.5
		c5-5.5,11.4-8.2,19.1-8.2c8,0,14.4,2.6,19.1,7.8c4.7,5.2,7.1,12.4,7.1,21.7l-0.1,1.1h-42.4c0.1,5.3,1.9,9.5,5.3,12.8
		c3.4,3.2,7.4,4.8,12.1,4.8c6.5,0,11.5-3.2,15.2-9.7l9,4.4c-2.4,4.5-5.8,8.1-10.1,10.7C-275,238.3-279.9,239.6-285.3,239.6z
		 M-301.5,204.4h30.9c-0.3-3.7-1.8-6.8-4.6-9.3c-2.8-2.5-6.4-3.7-11.1-3.7c-3.8,0-7.1,1.2-9.8,3.5
		C-298.8,197.2-300.6,200.4-301.5,204.4z"/>
	<path class="st13" d="M-225.4,237.8h-10.1l-21.8-53.9h11l15.8,41.8h0.2l16.1-41.8h10.8L-225.4,237.8z"/>
	<path class="st13" d="M-185,204v33.8h-10.1V159h46v9.7H-185v25.9h32.3v9.5H-185z"/>
	<path class="st13" d="M-118.5,239.6c-7.9,0-14.4-2.7-19.6-8.1c-5.1-5.4-7.7-12.3-7.7-20.6c0-8.2,2.5-15.1,7.5-20.5
		c5-5.5,11.4-8.2,19.1-8.2c8,0,14.4,2.6,19.1,7.8c4.7,5.2,7.1,12.4,7.1,21.7l-0.1,1.1h-42.3c0.1,5.3,1.9,9.5,5.3,12.8
		c3.4,3.2,7.4,4.8,12.1,4.8c6.5,0,11.5-3.2,15.2-9.7l9,4.4c-2.4,4.5-5.8,8.1-10.1,10.7C-108.2,238.3-113.1,239.6-118.5,239.6z
		 M-134.7,204.4h30.9c-0.3-3.7-1.8-6.8-4.6-9.3c-2.8-2.5-6.4-3.7-11.1-3.7c-3.8,0-7.1,1.2-9.8,3.5
		C-132,197.2-133.8,200.4-134.7,204.4z"/>
	<path class="st13" d="M-42,222.8c0,4.7-2.1,8.7-6.2,11.9c-4.1,3.2-9.3,4.8-15.5,4.8c-5.4,0-10.2-1.4-14.3-4.2
		c-4.1-2.8-7-6.5-8.8-11.2l9-3.9c1.3,3.2,3.2,5.7,5.8,7.5c2.5,1.8,5.3,2.7,8.3,2.7c3.2,0,5.9-0.7,8.1-2.1c2.2-1.4,3.2-3,3.2-4.9
		c0-3.4-2.6-6-7.9-7.6l-9.2-2.3c-10.5-2.6-15.7-7.7-15.7-15.2c0-4.9,2-8.9,6-11.8c4-3,9.1-4.5,15.3-4.5c4.8,0,9.1,1.1,12.9,3.4
		c3.8,2.3,6.5,5.3,8.1,9.1l-9,3.7c-1-2.3-2.7-4.1-5-5.3c-2.3-1.3-4.9-1.9-7.8-1.9c-2.6,0-5,0.7-7.1,2c-2.1,1.3-3.1,2.9-3.1,4.8
		c0,3.1,2.9,5.3,8.7,6.6l8.1,2.1C-47.3,209.3-42,214.7-42,222.8z"/>
	<path class="st13" d="M-12.4,238.7c-4.4,0-8-1.4-10.9-4.1c-2.9-2.7-4.4-6.5-4.5-11.3v-30.1h-9.5v-9.2h9.5v-16.5h10.1v16.5h13.2v9.2
		h-13.2V220c0,3.6,0.7,6,2.1,7.3c1.4,1.3,3,1.9,4.7,1.9c0.8,0,1.6-0.1,2.4-0.3c0.8-0.2,1.5-0.4,2.1-0.7l3.2,9
		C-5.8,238.2-8.9,238.7-12.4,238.7z"/>
</g>
<g>
	<path class="st13" d="M-372,340.8h-10.1V262h12.3l38.3,61.3h0.4l-0.4-15.2V262h10.1v78.8h-10.6l-40-64.2h-0.4l0.4,15.2V340.8z"/>
	<path class="st13" d="M-288.5,285.1c7.5,0,13.4,2,17.7,6c4.3,4,6.5,9.5,6.5,16.4v33.2h-9.7v-7.5h-0.4c-4.2,6.2-9.8,9.2-16.7,9.2
		c-5.9,0-10.9-1.8-14.9-5.3c-4-3.5-6-7.9-6-13.2c0-5.6,2.1-10,6.3-13.3c4.2-3.3,9.8-5,16.9-5c6,0,11,1.1,14.9,3.3v-2.3
		c0-3.5-1.4-6.5-4.2-9c-2.8-2.5-6-3.7-9.8-3.7c-5.6,0-10.1,2.4-13.4,7.1l-8.9-5.6C-305.3,288.7-298.1,285.1-288.5,285.1z
		 M-301.6,324.3c0,2.6,1.1,4.8,3.4,6.6c2.2,1.8,4.9,2.6,7.9,2.6c4.3,0,8-1.6,11.4-4.7c3.3-3.2,5-6.9,5-11.1
		c-3.2-2.5-7.6-3.7-13.2-3.7c-4.1,0-7.5,1-10.3,3C-300.2,318.9-301.6,321.4-301.6,324.3z"/>
	<path class="st13" d="M-252.8,286.9h9.7v7.5h0.4c1.5-2.6,3.9-4.8,7.1-6.6s6.5-2.6,10-2.6c6.6,0,11.7,1.9,15.2,5.7
		c3.6,3.8,5.3,9.1,5.3,16.1v33.9h-10.1v-33.2c-0.2-8.8-4.7-13.2-13.3-13.2c-4,0-7.4,1.6-10.1,4.9c-2.7,3.3-4.1,7.2-4.1,11.7v29.8
		h-10.1V286.9z"/>
	<path class="st13" d="M-174.6,341.7c-4.4,0-8-1.4-10.9-4.1c-2.9-2.7-4.4-6.5-4.5-11.3v-30.1h-9.5v-9.2h9.5v-16.5h10.1v16.5h13.2
		v9.2h-13.2V323c0,3.6,0.7,6,2.1,7.3c1.4,1.3,3,1.9,4.7,1.9c0.8,0,1.6-0.1,2.4-0.3c0.8-0.2,1.5-0.4,2.1-0.7l3.2,9
		C-168,341.2-171.1,341.7-174.6,341.7z"/>
	<path class="st13" d="M-133.4,342.6c-7.9,0-14.4-2.7-19.6-8.1c-5.1-5.4-7.7-12.3-7.7-20.6c0-8.2,2.5-15.1,7.5-20.5
		c5-5.5,11.4-8.2,19.1-8.2c8,0,14.4,2.6,19.1,7.8c4.7,5.2,7.1,12.4,7.1,21.7l-0.1,1.1h-42.3c0.1,5.3,1.9,9.5,5.3,12.8
		c3.4,3.2,7.4,4.8,12.1,4.8c6.5,0,11.5-3.2,15.2-9.7l9,4.4c-2.4,4.5-5.8,8.1-10.1,10.7S-127.9,342.6-133.4,342.6z M-149.5,307.4
		h30.9c-0.3-3.7-1.8-6.8-4.6-9.3c-2.8-2.5-6.4-3.7-11.1-3.7c-3.8,0-7.1,1.2-9.8,3.5C-146.8,300.2-148.7,303.4-149.5,307.4z"/>
	<path class="st13" d="M-56.8,325.8c0,4.7-2.1,8.7-6.2,11.9c-4.1,3.2-9.3,4.8-15.5,4.8c-5.4,0-10.2-1.4-14.3-4.2
		c-4.1-2.8-7-6.5-8.8-11.2l9-3.9c1.3,3.2,3.2,5.7,5.8,7.5c2.5,1.8,5.3,2.7,8.3,2.7c3.2,0,5.9-0.7,8.1-2.1c2.2-1.4,3.2-3,3.2-5
		c0-3.4-2.6-6-7.9-7.6l-9.2-2.3c-10.5-2.6-15.7-7.7-15.7-15.2c0-4.9,2-8.9,6-11.8c4-3,9.1-4.5,15.3-4.5c4.8,0,9.1,1.1,12.9,3.4
		c3.8,2.3,6.5,5.3,8.1,9.1l-9,3.7c-1-2.3-2.7-4.1-5-5.3c-2.3-1.3-4.9-1.9-7.8-1.9c-2.6,0-5,0.7-7.1,2c-2.1,1.3-3.1,2.9-3.1,4.8
		c0,3.1,2.9,5.3,8.7,6.6l8.1,2.1C-62.2,312.3-56.8,317.7-56.8,325.8z"/>
	<path class="st13" d="M46.6,331.1v9.7h-48v-10.1L18.1,311c6.5-6.7,11-11.7,13.5-15c2.5-3.3,3.7-6.8,3.7-10.5c0-3.3-1.3-6.1-3.8-8.5
		c-2.6-2.3-5.9-3.5-9.9-3.5c-3.4,0-6.4,1-8.9,3.1c-2.5,2.1-4.1,4.5-4.8,7.5l-9.2-3.7c1.5-4.6,4.3-8.5,8.5-11.7
		c4.2-3.2,9.1-4.8,14.7-4.8c6.8,0,12.5,2.1,17,6.3c4.5,4.2,6.8,9.3,6.8,15.4c0,7.3-4,15.1-12,23.5l-22,22.1H46.6z"/>
	<path class="st13" d="M56.3,303.2c0-11.4,2.8-20.9,8.5-28.3c5.6-7.4,12.9-11.1,21.8-11.1c8.9,0,16.1,3.7,21.8,11.2
		c5.6,7.4,8.5,16.8,8.5,28.2c0,11.3-2.8,20.7-8.5,28.3c-5.6,7.4-12.9,11.1-21.8,11.1c-8.9,0-16.1-3.7-21.8-11.1
		C59.1,323.9,56.3,314.5,56.3,303.2z M106.4,303.2c0-8.7-1.8-15.8-5.5-21.3c-3.6-5.6-8.4-8.4-14.4-8.4c-6,0-10.8,2.8-14.4,8.4
		c-3.7,5.6-5.5,12.7-5.5,21.3c0,8.7,1.8,15.8,5.5,21.5c3.6,5.5,8.4,8.2,14.4,8.2c6,0,10.8-2.8,14.4-8.4
		C104.6,318.9,106.4,311.8,106.4,303.2z"/>
	<path class="st13" d="M153.5,265.6v75.2h-10.1v-62.7l-14.6,6.4l-3.8-8.6l22.1-10.3H153.5z"/>
	<path class="st13" d="M215.9,275.9l-36.5,66.7l-9-4.6l34.9-62.7h-38.1l0.2-9.7h48.5V275.9z"/>
</g>
</svg>
