<svg id="Capa_1" data-name="Capa 1" xmlns="http://www.w3.org/2000/svg" xmlns:xlink="http://www.w3.org/1999/xlink" viewBox="0 0 312 90"><defs><style>.cls-1{fill:none;}.cls-2{opacity:0.85;}.cls-3{clip-path:url(#clip-path);}.cls-4{fill:#fff;}.cls-5,.cls-6{fill:#fcc010;}.cls-10,.cls-6,.cls-7,.cls-8,.cls-9{fill-rule:evenodd;}.cls-7{fill:#0c9e58;}.cls-8{fill:#527bbd;}.cls-9{fill:#dc4537;}.cls-10{fill:#f28b16;}</style><clipPath id="clip-path"><rect class="cls-1" x="-40.82" y="-40.24" width="397.02" height="192.26"/></clipPath></defs><title>Banner-GDG-Open</title><g class="cls-3"><g class="cls-3"><path class="cls-4" d="M111.19,24.66a23.85,23.85,0,0,1-2.35,11,22,22,0,0,1-6.18,7.58A25.86,25.86,0,0,1,94,47.57,35,35,0,0,1,84.21,49H66.27V.62H83.66a42.65,42.65,0,0,1,10.06,1.2,25,25,0,0,1,8.84,4,20.24,20.24,0,0,1,6.25,7.41,25,25,0,0,1,2.38,11.47m-12.1,0a15.31,15.31,0,0,0-1.33-6.8,11.47,11.47,0,0,0-3.53-4.3,14.17,14.17,0,0,0-5-2.29,24.9,24.9,0,0,0-5.81-.68H77.61V38.86h5.51a24.73,24.73,0,0,0,6-.72,14,14,0,0,0,5.1-2.35,11.63,11.63,0,0,0,3.53-4.37,15.34,15.34,0,0,0,1.33-6.76"/><path class="cls-4" d="M148.45,32.23v1.29a12.07,12.07,0,0,1-.06,1.23H125.12a5.55,5.55,0,0,0,.8,2.45,7.13,7.13,0,0,0,1.74,1.9,8.53,8.53,0,0,0,5.13,1.71,8.81,8.81,0,0,0,4.25-.94,8.36,8.36,0,0,0,2.84-2.41l7.34,4.64a14.92,14.92,0,0,1-6,5.06,19.75,19.75,0,0,1-8.6,1.77,20.56,20.56,0,0,1-6.83-1.13,16.53,16.53,0,0,1-5.64-3.29,15.21,15.21,0,0,1-3.8-5.31A17.75,17.75,0,0,1,115,32a18.07,18.07,0,0,1,1.35-7.12A16.15,16.15,0,0,1,120,19.44,16.37,16.37,0,0,1,125.51,16a18.83,18.83,0,0,1,6.83-1.22A17.41,17.41,0,0,1,138.85,16a14.36,14.36,0,0,1,5.09,3.45,16,16,0,0,1,3.32,5.48,21.2,21.2,0,0,1,1.19,7.34m-9.73-4.06a6.33,6.33,0,0,0-1.58-4.31,5.94,5.94,0,0,0-4.74-1.81,8,8,0,0,0-2.83.48,7.45,7.45,0,0,0-2.26,1.33,6.69,6.69,0,0,0-1.55,2,5.82,5.82,0,0,0-.64,2.35Z"/><path class="cls-4" d="M251.57,32.23v1.29a9.7,9.7,0,0,1-.07,1.23H228.24a5.55,5.55,0,0,0,.8,2.45,7.13,7.13,0,0,0,1.74,1.9,8.53,8.53,0,0,0,5.13,1.71,8.81,8.81,0,0,0,4.25-.94A8.36,8.36,0,0,0,243,37.46l7.35,4.64a15,15,0,0,1-6,5.06,19.75,19.75,0,0,1-8.6,1.77A20.56,20.56,0,0,1,229,47.8a16.53,16.53,0,0,1-5.64-3.29,15.36,15.36,0,0,1-3.81-5.31A17.92,17.92,0,0,1,218.12,32a18.07,18.07,0,0,1,1.35-7.12,16.15,16.15,0,0,1,3.68-5.42A16.43,16.43,0,0,1,228.62,16a18.93,18.93,0,0,1,6.84-1.22A17.41,17.41,0,0,1,242,16a14.36,14.36,0,0,1,5.09,3.45,16,16,0,0,1,3.32,5.48,21.2,21.2,0,0,1,1.19,7.34m-9.73-4.06a6.33,6.33,0,0,0-1.58-4.31,5.94,5.94,0,0,0-4.74-1.81,8,8,0,0,0-2.83.48,7.45,7.45,0,0,0-2.26,1.33,6.69,6.69,0,0,0-1.55,2,5.82,5.82,0,0,0-.64,2.35Z"/><polygon class="cls-4" points="173.1 48.97 161.45 48.97 148.55 14.77 160.47 14.77 167.38 37.16 167.57 37.16 174.49 14.77 186 14.77 173.1 48.97"/><path class="cls-4" d="M278.44,24.23a12.31,12.31,0,0,0-3.15-2.14,8.69,8.69,0,0,0-3.82-.87,6.73,6.73,0,0,0-2.84.6,2.12,2.12,0,0,0-1.31,2.08,2.06,2.06,0,0,0,1.44,2,31.33,31.33,0,0,0,4.66,1.34,25.76,25.76,0,0,1,3.78,1.14,13.54,13.54,0,0,1,3.45,1.94,9.31,9.31,0,0,1,2.48,3,8.68,8.68,0,0,1,.94,4.15,10,10,0,0,1-4.59,8.84,14.07,14.07,0,0,1-4.59,1.94,21.59,21.59,0,0,1-5.09.61,25.22,25.22,0,0,1-8-1.31,16.76,16.76,0,0,1-6.53-3.85l6.17-6.5A12.19,12.19,0,0,0,265,39.84a10,10,0,0,0,4.56,1.07,6,6,0,0,0,2.64-.63A2.3,2.3,0,0,0,273.55,38a2.43,2.43,0,0,0-1.61-2.28,28.44,28.44,0,0,0-5-1.53,25.77,25.77,0,0,1-3.48-1.08,10.86,10.86,0,0,1-3.12-1.81,8.76,8.76,0,0,1-2.24-2.81,8.59,8.59,0,0,1-.87-4,9.72,9.72,0,0,1,1.27-5.12,10.72,10.72,0,0,1,3.28-3.45,14.74,14.74,0,0,1,4.46-2,19.34,19.34,0,0,1,4.85-.63,23.53,23.53,0,0,1,7.34,1.17A15.82,15.82,0,0,1,284.47,18Z"/><path class="cls-4" d="M304.29,22.91V35.68a5.69,5.69,0,0,0,.91,3.53,3.84,3.84,0,0,0,3.24,1.18,11.51,11.51,0,0,0,1.71-.13,5.85,5.85,0,0,0,1.51-.41l.13,8a17.79,17.79,0,0,1-2.88.71,20.45,20.45,0,0,1-3.48.3,16.41,16.41,0,0,1-5.63-.84,8.77,8.77,0,0,1-3.65-2.42,9.54,9.54,0,0,1-2-3.76,17.93,17.93,0,0,1-.61-4.87V22.91h-5.36V14.74h5.3V6h10.78v8.78h7.84v8.17Z"/><polygon class="cls-4" points="199.07 8.99 199.07 17.09 214.27 17.09 214.27 24.91 199.07 24.91 199.07 48.82 189.69 48.82 189.69 0.89 215.54 0.89 215.54 8.99 199.07 8.99"/><polygon class="cls-4" points="66.27 90.32 66.27 56.29 68.24 56.29 68.24 88.44 84.69 88.44 84.69 90.32 66.27 90.32"/><polygon class="cls-4" points="66.74 89.85 66.74 56.76 67.77 56.76 67.77 88.92 84.22 88.92 84.22 89.85 66.74 89.85"/><rect class="cls-4" x="90.37" y="56.29" width="1.97" height="34.03"/><rect class="cls-4" x="90.84" y="56.76" width="1.03" height="33.09"/><polygon class="cls-4" points="131.88 90.32 131.88 59.68 117.84 90.32 116.39 90.32 102.45 59.79 102.45 90.32 100.48 90.32 100.48 56.29 103.07 56.29 117.17 87.22 131.26 56.29 133.85 56.29 133.85 90.32 131.88 90.32"/><polygon class="cls-4" points="132.35 89.85 132.35 57.93 132.17 57.93 117.54 89.85 116.7 89.85 102.12 57.93 101.98 57.93 101.98 89.85 100.95 89.85 100.95 56.76 102.77 56.76 117.17 88.36 131.56 56.76 133.38 56.76 133.38 89.85 132.35 89.85"/><path class="cls-4" d="M167.19,90.32l-3.93-9.49H144.68l-4.07,9.49h-2.15l14.76-34h1.93l14.18,34ZM162.54,79l-8.41-20.37L145.45,79Z"/><path class="cls-4" d="M167.5,89.85l-3.92-9.49H144.37l-4.07,9.49h-1.12l14.35-33.09h1.31l13.78,33.09ZM154.13,57.41l-9.39,22.06h18.51Z"/><polygon class="cls-5" points="181.63 90.32 181.63 65.45 175.27 70.33 171.07 64.64 182.31 56.46 189.69 56.46 189.69 90.32 181.63 90.32"/><path class="cls-5" d="M222.66,80.45a9.46,9.46,0,0,1-3.81,7.9,11.74,11.74,0,0,1-4,1.94,18.1,18.1,0,0,1-9.54,0,12.27,12.27,0,0,1-4-1.92,9.6,9.6,0,0,1-2.77-3.25,9.78,9.78,0,0,1-1-4.62,8.11,8.11,0,0,1,.48-2.82,7.91,7.91,0,0,1,1.3-2.33,8.65,8.65,0,0,1,1.92-1.75,8.94,8.94,0,0,1,2.33-1.12v-.09a8.37,8.37,0,0,1-3.66-2.63,7.2,7.2,0,0,1-1.46-4.63,8.75,8.75,0,0,1,.94-4.12,8.87,8.87,0,0,1,2.56-3,11.5,11.5,0,0,1,3.75-1.83,16.5,16.5,0,0,1,8.89,0,11.26,11.26,0,0,1,3.72,1.78,8.89,8.89,0,0,1,2.59,3,8.37,8.37,0,0,1,1,4.1,7.61,7.61,0,0,1-1.42,4.7,7.45,7.45,0,0,1-3.7,2.65v.14A8.62,8.62,0,0,1,219,73.6a8.24,8.24,0,0,1,1.88,1.75,8.34,8.34,0,0,1,1.28,2.33,8.17,8.17,0,0,1,.46,2.77m-7.92-.28a4.4,4.4,0,0,0-1.3-3.25,4.52,4.52,0,0,0-3.34-1.31,4.65,4.65,0,0,0-3.39,1.28,4.42,4.42,0,0,0-1.31,3.28,4.23,4.23,0,0,0,1.31,3.25,4.81,4.81,0,0,0,3.39,1.2,4.7,4.7,0,0,0,3.36-1.2,4.24,4.24,0,0,0,1.28-3.25m-.61-14.61a3.58,3.58,0,0,0-1.19-2.75,4,4,0,0,0-2.84-1.09,3.88,3.88,0,0,0-2.89,1.09,3.72,3.72,0,0,0-1.1,2.75,4,4,0,0,0,1.07,2.8,3.72,3.72,0,0,0,2.92,1.18A3.83,3.83,0,0,0,213,68.36a3.9,3.9,0,0,0,1.14-2.8"/><polygon class="cls-6" points="44.13 75.62 36.68 62.73 20.98 90.32 36.3 90.32 44.33 75.97 44.13 75.62"/><polygon class="cls-7" points="28.61 48.8 36.67 62.73 20.98 90.32 4.86 90.32 28.61 48.8"/><polygon class="cls-8" points="16.37 0.62 0.25 0.62 44.33 75.97 52.38 62.05 52.39 62.03 16.37 0.62"/><path class="cls-9" d="M57.61,53a8.39,8.39,0,0,0,0-8.41L31.69.62H16.37L52.39,62Z"/><polygon class="cls-10" points="35.26 65.17 44.33 75.97 36.68 62.73 35.26 65.17"/></g></g></svg>