<?xml version="1.0" encoding="utf-8"?>
<!-- Generator: Adobe Illustrator 19.0.0, SVG Export Plug-In . SVG Version: 6.00 Build 0)  -->
<svg version="1.1" id="Layer_4" xmlns="http://www.w3.org/2000/svg" xmlns:xlink="http://www.w3.org/1999/xlink" x="0px" y="0px"
	 viewBox="-60 181 1026.7 200" style="enable-background:new -60 181 1026.7 200;" xml:space="preserve">
<style type="text/css">
	.st0{fill:#F70A80;}
</style>
<path id="XMLID_7_" class="st0" d="M179.5,232.8c0,10.9-3.2,19.7-9.7,26.1c-7.4,7.7-17,11.6-28.8,11.6c-11.3,0-20.9-3.9-28.8-11.8
	c-7.9-7.8-11.9-17.6-11.9-29.1s4-21.3,11.9-29.1s17.5-11.8,28.8-11.8c5.6,0,11,1.1,16.1,3.3s9.2,5.1,12.2,8.8l-6.9,6.9
	c-5.2-6.2-12.3-9.3-21.4-9.3c-8.2,0-15.4,2.9-21.4,8.7c-6,5.8-9,13.3-9,22.6s3,16.8,9,22.6c6,5.8,13.1,8.7,21.4,8.7
	c8.8,0,16-2.9,21.9-8.8c3.8-3.8,6-9.1,6.6-15.9H141v-9.4h38C179.3,229,179.5,230.9,179.5,232.8L179.5,232.8z M189.4,268.8v-78.3h24
	c12,0,21.7,3.6,28.9,10.9c7.2,7.3,10.8,16.7,10.8,28.3s-3.6,21-10.8,28.3c-7.2,7.3-16.8,10.9-28.9,10.9L189.4,268.8z M199.5,259.2
	h13.9c9,0,16.2-2.6,21.5-7.8c5.3-5.2,7.9-12.4,7.9-21.8c0-9.3-2.6-16.5-7.9-21.7c-5.3-5.2-12.5-7.8-21.5-7.8h-13.9
	C199.5,200.1,199.5,259.2,199.5,259.2z M338.5,232.8c0,10.9-3.2,19.7-9.7,26.1c-7.4,7.7-17,11.6-28.8,11.6
	c-11.3,0-20.9-3.9-28.8-11.8c-7.9-7.8-11.9-17.6-11.9-29.1s4-21.3,11.9-29.1c7.9-7.8,17.5-11.8,28.8-11.8c5.6,0,11,1.1,16.1,3.3
	c5.1,2.2,9.2,5.1,12.2,8.8l-6.9,6.9c-5.2-6.2-12.3-9.3-21.4-9.3c-8.2,0-15.4,2.9-21.4,8.7c-6,5.8-9,13.3-9,22.6s3,16.8,9,22.6
	c6,5.8,13.1,8.7,21.4,8.7c8.8,0,16-2.9,21.9-8.8c3.8-3.8,6-9.1,6.6-15.9H300v-9.4h38C338.3,229,338.5,230.9,338.5,232.8L338.5,232.8
	z M374.8,268.8v-78.3h24c12,0,21.7,3.6,28.9,10.9c7.2,7.3,10.8,16.7,10.8,28.3s-3.6,21-10.8,28.3c-7.2,7.3-16.8,10.9-28.9,10.9
	L374.8,268.8L374.8,268.8z M384.9,259.2h13.9c9,0,16.2-2.6,21.5-7.8c5.3-5.2,7.9-12.4,7.9-21.8c0-9.3-2.6-16.5-7.9-21.7
	c-5.3-5.2-12.5-7.8-21.5-7.8h-13.9C384.9,200.1,384.9,259.2,384.9,259.2z M471.4,270.6c-8.1,0-14.7-2.7-19.7-8.1
	c-5.1-5.4-7.6-12.2-7.6-20.5c0-7.8,2.5-14.5,7.4-20.1s11.2-8.4,18.9-8.4c7.9,0,14.3,2.6,19.1,7.8s7.2,12.1,7.2,20.8l-0.1,1.9h-42.3
	c0.3,5.4,2.1,9.7,5.4,12.8c3.3,3.1,7.2,4.7,11.6,4.7c7.2,0,12.1-3.1,14.7-9.2l9,3.7c-1.8,4.2-4.6,7.6-8.6,10.4
	C482.2,269.2,477.3,270.6,471.4,270.6L471.4,270.6z M485.9,235.6c-0.2-3.1-1.6-6-4.2-8.8c-2.6-2.8-6.4-4.2-11.5-4.2
	c-3.7,0-6.9,1.2-9.7,3.5c-2.7,2.3-4.6,5.5-5.6,9.4L485.9,235.6z M517.7,268.8L496,215.2h11l15.8,41.6h0.2l16-41.6h10.7l-21.9,53.6
	H517.7z M565.6,268.8h-10.1v-78.3h45.7v9.6h-35.7v25.7h32.2v9.4h-32.2L565.6,268.8z M631.7,270.6c-8.1,0-14.7-2.7-19.7-8.1
	c-5.1-5.4-7.6-12.2-7.6-20.5c0-7.8,2.5-14.5,7.4-20.1s11.2-8.4,18.9-8.4c7.9,0,14.3,2.6,19.1,7.8s7.2,12.1,7.2,20.8l-0.1,1.9h-42.3
	c0.3,5.4,2.1,9.7,5.4,12.8c3.3,3.1,7.2,4.7,11.6,4.7c7.2,0,12.1-3.1,14.7-9.2l9,3.7c-1.8,4.2-4.6,7.6-8.6,10.4
	C642.4,269.2,637.5,270.6,631.7,270.6L631.7,270.6z M646.1,235.6c-0.2-3.1-1.6-6-4.2-8.8c-2.6-2.8-6.4-4.2-11.5-4.2
	c-3.7,0-6.9,1.2-9.7,3.5c-2.7,2.3-4.6,5.5-5.6,9.4L646.1,235.6z M683.5,270.6c-6,0-10.9-1.5-14.8-4.4c-3.9-2.9-6.8-6.6-8.6-10.9
	l9-3.7c2.8,6.7,7.7,10.1,14.5,10.1c3.1,0,5.7-0.7,7.7-2.1s3-3.2,3-5.5c0-3.5-2.4-5.9-7.3-7.1l-10.8-2.6c-3.4-0.9-6.7-2.5-9.7-5
	c-3.1-2.4-4.6-5.7-4.6-9.9c0-4.7,2.1-8.6,6.3-11.5c4.2-3,9.2-4.4,14.9-4.4c4.7,0,9,1.1,12.7,3.2c3.7,2.2,6.4,5.2,8,9.2l-8.8,3.6
	c-2-4.7-6.1-7.1-12.2-7.1c-3,0-5.5,0.6-7.5,1.9c-2,1.2-3.1,2.9-3.1,5c0,3.1,2.4,5.1,7.1,6.2l10.6,2.5c5,1.2,8.8,3.2,11.2,6
	c2.4,2.8,3.6,6.1,3.6,9.6c0,4.8-2,8.8-5.9,12C694.8,269,689.7,270.6,683.5,270.6L683.5,270.6z M734.9,269.7c-5.6,0-9.9-1.5-12.9-4.5
	s-4.4-7.2-4.4-12.7v-28.1h-9.4v-9.2h9.4v-16.4h10.1v16.4h13.1v9.2h-13.1v27.3c0,5.8,2.4,8.8,7.2,8.8c1.8,0,3.4-0.3,4.6-0.9l3.5,8.6
	C740.8,269.2,738.1,269.7,734.9,269.7L734.9,269.7z M811.8,371.9h-47.7v-10.1c14.3-14.4,23.4-23.7,27.5-28.1c3.6-4,6-7.1,7.2-9.1
	c1.2-2.1,1.9-4.6,1.9-7.7c0-3.1-1.2-5.9-3.7-8.3s-5.8-3.6-10-3.6c-3.8,0-6.9,1.1-9.2,3.3c-2.3,2.2-3.8,4.6-4.5,7.2l-9.2-3.7
	c1.2-3.9,3.8-7.7,7.8-11.2c3.9-3.5,9-5.2,15.3-5.2c6.9,0,12.6,2.1,17.1,6.3c4.4,4.2,6.7,9.3,6.7,15.2c0,7.3-4,15.1-11.9,23.4
	l-21.9,22h34.7L811.8,371.9L811.8,371.9z M869.4,362.4c-5.5,7.5-12.8,11.3-21.8,11.3s-16.2-3.8-21.8-11.3
	c-5.5-7.5-8.3-16.8-8.3-27.9c0-11.2,2.8-20.5,8.3-27.9c5.5-7.5,12.8-11.2,21.8-11.2s16.2,3.7,21.8,11.2c5.5,7.5,8.3,16.8,8.3,27.9
	S874.9,354.9,869.4,362.4z M847.6,364.1c6,0,10.8-2.8,14.4-8.4c3.6-5.6,5.4-12.6,5.4-21.1s-1.8-15.6-5.4-21.2
	c-3.6-5.6-8.4-8.4-14.4-8.4c-6.1,0-10.9,2.8-14.4,8.4c-3.6,5.6-5.4,12.6-5.4,21.2c0,8.5,1.8,15.5,5.4,21.1
	C836.8,361.3,841.6,364.1,847.6,364.1z M909.6,371.9h-10.1v-62.3l-14.5,6.3l-3.8-8.5l22-10.3h6.5v74.8H909.6L909.6,371.9z
	 M930.4,373.7l-9-4.6l34.7-62.3h-37.8l0.2-9.6h48.2v10.3L930.4,373.7L930.4,373.7z M140.8,373.5c-11.5,0-21.2-3.9-29-11.6
	c-7.7-7.8-11.5-17.5-11.5-29.1c0-11.6,3.8-21.3,11.5-29c7.7-7.8,17.3-11.8,29-11.8c11.8,0,21.3,4.2,28.6,12.7l-7.2,7
	c-5.6-6.8-12.7-10.1-21.4-10.1c-8.6,0-15.9,2.9-21.7,8.7c-5.7,5.7-8.6,13.2-8.6,22.4c0,9.2,2.9,16.7,8.6,22.4
	c5.8,5.8,13,8.7,21.7,8.7c9.1,0,16.9-3.8,23.6-11.4l7.3,7.1c-3.7,4.4-8.2,7.9-13.6,10.3C152.7,372.3,147,373.5,140.8,373.5z
	 M176.5,345.1c0-8.2,2.6-15,7.7-20.4c5.2-5.4,11.8-8.1,19.7-8.1c7.9,0,14.4,2.7,19.6,8.1c5.2,5.4,7.8,12.2,7.8,20.4
	c0,8.3-2.6,15.1-7.8,20.4c-5.2,5.4-11.7,8.1-19.6,8.1c-7.9,0-14.5-2.7-19.7-8.1C179.1,360.1,176.5,353.3,176.5,345.1z M186.5,345.1
	c0,5.7,1.7,10.4,5,13.9c3.3,3.6,7.5,5.3,12.4,5.3c4.9,0,9.1-1.8,12.4-5.3c3.3-3.6,5-8.2,5-13.9c0-5.7-1.7-10.3-5-13.8
	c-3.4-3.6-7.5-5.4-12.4-5.4c-4.9,0-9,1.8-12.4,5.4C188.2,334.8,186.5,339.4,186.5,345.1z M264.9,373.5c-7.9,0-14.5-2.7-19.7-8.1
	c-5.2-5.5-7.7-12.3-7.7-20.4c0-8.2,2.6-15,7.7-20.4c5.2-5.4,11.8-8.1,19.7-8.1c5.4,0,10.2,1.4,14.3,4.1c4.1,2.7,7.1,6.5,9.1,11.3
	l-9.1,3.8c-2.8-6.7-7.8-10-14.9-10c-4.6,0-8.5,1.9-11.9,5.6c-3.3,3.7-4.9,8.3-4.9,13.7c0,5.4,1.6,10,4.9,13.7
	c3.3,3.7,7.3,5.6,11.9,5.6c7.3,0,12.5-3.3,15.5-10l8.9,3.8c-2,4.8-5,8.5-9.2,11.3C275.3,372.2,270.4,373.5,264.9,373.5z
	 M297.4,293.8h10v24.6l-0.4,7.4h0.4c1.5-2.6,3.9-4.8,7-6.5c3.2-1.7,6.4-2.6,9.9-2.6c6.5,0,11.6,1.9,15.1,5.6
	c3.5,3.7,5.3,9.1,5.3,15.9v33.5h-10v-31.6c0-9.6-4.2-14.4-12.7-14.4c-4.1,0-7.5,1.7-10.3,5.1c-2.8,3.4-4.2,7.3-4.2,11.8v29.1h-10
	V293.8z M376.1,316.7c7.4,0,13.2,2,17.5,5.9c4.3,4,6.4,9.4,6.4,16.3v32.9h-9.6v-7.4H390c-4.1,6.1-9.7,9.1-16.5,9.1
	c-5.9,0-10.8-1.7-14.8-5.2c-4-3.5-5.9-7.8-5.9-13.1c0-5.5,2.1-9.9,6.3-13.2c4.2-3.3,9.7-4.9,16.7-4.9c6,0,10.8,1.1,14.7,3.3v-2.3
	c0-3.5-1.4-6.4-4.1-8.9c-2.8-2.4-6-3.6-9.7-3.6c-5.6,0-10,2.4-13.3,7.1l-8.8-5.6C359.4,320.2,366.6,316.7,376.1,316.7z M363.1,355.4
	c0,2.6,1.1,4.8,3.3,6.5c2.2,1.7,4.8,2.6,7.8,2.6c4.2,0,8-1.6,11.3-4.7c3.3-3.1,5-6.8,5-11c-3.1-2.5-7.5-3.7-13.1-3.7
	c-4.1,0-7.5,1-10.2,2.9C364.5,350.1,363.1,352.5,363.1,355.4z M439.5,373.5c-3.9,0-7.5-0.8-10.7-2.5c-3.2-1.7-5.7-3.9-7.5-6.6h-0.4
	v7.4h-9.6v-78h10v24.6l-0.4,7.4h0.4c1.7-2.8,4.2-5,7.5-6.6c3.2-1.7,6.8-2.5,10.7-2.5c7,0,13,2.8,17.9,8.3c5,5.6,7.5,12.3,7.5,20.1
	c0,7.9-2.5,14.6-7.5,20.1C452.5,370.8,446.6,373.5,439.5,373.5z M437.9,364.4c4.8,0,8.8-1.8,12.1-5.4c3.3-3.6,4.9-8.2,4.9-13.8
	c0-5.6-1.6-10.2-4.9-13.8c-3.3-3.6-7.3-5.4-12.1-5.4c-4.9,0-8.9,1.8-12.2,5.4c-3.2,3.6-4.8,8.2-4.8,13.8c0,5.7,1.6,10.3,4.8,13.9
	C429,362.6,433,364.4,437.9,364.4z M494.3,316.7c7.4,0,13.2,2,17.5,5.9c4.3,4,6.4,9.4,6.4,16.3v32.9h-9.6v-7.4h-0.4
	c-4.1,6.1-9.7,9.1-16.5,9.1c-5.9,0-10.8-1.7-14.8-5.2c-4-3.5-5.9-7.8-5.9-13.1c0-5.5,2.1-9.9,6.3-13.2c4.2-3.3,9.7-4.9,16.7-4.9
	c6,0,10.8,1.1,14.7,3.3v-2.3c0-3.5-1.4-6.4-4.1-8.9c-2.8-2.4-6-3.6-9.7-3.6c-5.6,0-10,2.4-13.3,7.1l-8.8-5.6
	C477.6,320.2,484.8,316.7,494.3,316.7z M481.3,355.4c0,2.6,1.1,4.8,3.3,6.5c2.2,1.7,4.8,2.6,7.8,2.6c4.2,0,8-1.6,11.3-4.7
	c3.3-3.1,5-6.8,5-11c-3.1-2.5-7.5-3.7-13.1-3.7c-4.1,0-7.5,1-10.2,2.9C482.7,350.1,481.3,352.5,481.3,355.4z M539.6,371.8h-10v-53.3
	h9.6v7.4h0.4c1.5-2.6,3.9-4.8,7-6.5c3.2-1.7,6.3-2.6,9.4-2.6c3.9,0,7.4,0.9,10.3,2.7c3,1.8,5.2,4.3,6.5,7.5
	c4.4-6.8,10.6-10.2,18.4-10.2c6.2,0,10.9,1.9,14.3,5.7c3.3,3.8,5,9.1,5,16.1v33.3h-10V340c0-5-0.9-8.6-2.7-10.8
	c-1.8-2.2-4.9-3.3-9.1-3.3c-3.8,0-7.1,1.6-9.7,4.9c-2.6,3.3-3.9,7.1-3.9,11.5v29.5h-10V340c0-5-0.9-8.6-2.7-10.8
	c-1.8-2.2-4.9-3.3-9.1-3.3c-3.8,0-7.1,1.6-9.7,4.9c-2.6,3.3-3.9,7.1-3.9,11.5V371.8z M650.5,373.5c-3.9,0-7.5-0.8-10.7-2.5
	c-3.2-1.7-5.7-3.9-7.5-6.6h-0.4v7.4h-9.6v-78h10v24.6l-0.4,7.4h0.4c1.7-2.8,4.2-5,7.5-6.6c3.2-1.7,6.8-2.5,10.7-2.5
	c7,0,13,2.8,17.9,8.3c5,5.6,7.5,12.3,7.5,20.1c0,7.9-2.5,14.6-7.5,20.1C663.5,370.8,657.6,373.5,650.5,373.5z M648.9,364.4
	c4.8,0,8.8-1.8,12.1-5.4c3.3-3.6,4.9-8.2,4.9-13.8c0-5.6-1.6-10.2-4.9-13.8c-3.3-3.6-7.3-5.4-12.1-5.4c-4.9,0-8.9,1.8-12.2,5.4
	c-3.2,3.6-4.8,8.2-4.8,13.8c0,5.7,1.6,10.3,4.8,13.9C640,362.6,644,364.4,648.9,364.4z M705.3,316.7c7.4,0,13.2,2,17.5,5.9
	c4.3,4,6.4,9.4,6.4,16.3v32.9h-9.6v-7.4h-0.4c-4.1,6.1-9.7,9.1-16.5,9.1c-5.9,0-10.8-1.7-14.8-5.2c-4-3.5-5.9-7.8-5.9-13.1
	c0-5.5,2.1-9.9,6.3-13.2c4.2-3.3,9.7-4.9,16.7-4.9c6,0,10.8,1.1,14.7,3.3v-2.3c0-3.5-1.4-6.4-4.1-8.9c-2.8-2.4-6-3.6-9.7-3.6
	c-5.6,0-10,2.4-13.3,7.1l-8.8-5.6C688.6,320.2,695.8,316.7,705.3,316.7z M692.3,355.4c0,2.6,1.1,4.8,3.3,6.5
	c2.2,1.7,4.8,2.6,7.8,2.6c4.2,0,8-1.6,11.3-4.7c3.3-3.1,5-6.8,5-11c-3.1-2.5-7.5-3.7-13.1-3.7c-4.1,0-7.5,1-10.2,2.9
	C693.7,350.1,692.3,352.5,692.3,355.4z"/>
<path class="st0" d="M50.5,308l9.5-16.4c1.7-2.8,2.8-6.2,2.8-9.8s-0.9-6.9-2.8-9.8L7.3,181H-23L50.5,308z M-5.6,286.8L-60,381h30.2
	l39.4-68C9.6,313-5.6,286.8-5.6,286.8z M32.5,339l13.9-23.9L-30.9,181h-27.7L32.5,339z M13.6,320.1L-21.7,381h30l20.3-35
	C28.6,346,13.6,320.1,13.6,320.1z"/>
</svg>
