<?xml version="1.0" encoding="utf-8"?>
<!-- Generator: Adobe Illustrator 21.1.0, SVG Export Plug-In . SVG Version: 6.00 Build 0)  -->
<svg version="1.1" id="Layer_4" xmlns="http://www.w3.org/2000/svg" xmlns:xlink="http://www.w3.org/1999/xlink" x="0px" y="0px"
	 viewBox="0 0 839 200" style="enable-background:new 0 0 839 200;" xml:space="preserve">
<style type="text/css">
	.st0{fill:none;}
	.st1{fill:#FFC107;}
	.st2{fill:#0F9D58;}
	.st3{opacity:0.2;fill:#BF360C;enable-background:new    ;}
	.st4{opacity:0.2;fill:#263238;enable-background:new    ;}
	.st5{opacity:0.2;fill:#FFFFFF;enable-background:new    ;}
	.st6{fill:url(#XMLID_3_);}
	.st7{fill:url(#XMLID_5_);}
	.st8{fill:#4285F4;}
	.st9{fill:#DB4437;}
	.st10{opacity:0.2;fill:#1A237E;enable-background:new    ;}
	.st11{opacity:0.2;fill:#3E2723;enable-background:new    ;}
	.st12{fill:url(#XMLID_6_);}
	.st13{fill:#767676;}
</style>
<g id="XMLID_60_">
	<g id="XMLID_61_">
		<g id="XMLID_62_">
			<path id="XMLID_106_" class="st0" d="M122.5,90.6L70.1,0H0l57.8,100L0,200h70.1l52.4-90.6C125.8,103.6,125.8,96.4,122.5,90.6z"/>
			<path id="XMLID_105_" class="st1" d="M92.4,159.8l-16.6-28.7L35.9,200h34.2l22.8-39.4L92.4,159.8z"/>
			<path id="XMLID_104_" class="st0" d="M122.5,90.6L70.1,0H0l57.8,100L0,200h70.1l52.4-90.6C125.8,103.6,125.8,96.4,122.5,90.6z"/>
			<path id="XMLID_103_" class="st2" d="M57.8,100l18,31.1L35.9,200H0L57.8,100z"/>
			<path id="XMLID_102_" class="st0" d="M122.5,90.6L70.1,0H0l57.8,100L0,200h70.1l52.4-90.6C125.8,103.6,125.8,96.4,122.5,90.6z"/>
			<path id="XMLID_101_" class="st3" d="M70.1,198.4H36.8l-0.9,1.6h34.2l22.8-39.4l-0.5-0.8L70.1,198.4z"/>
			<path id="XMLID_100_" class="st0" d="M122.5,90.6L70.1,0H0l57.8,100L0,200h70.1l52.4-90.6C125.8,103.6,125.8,96.4,122.5,90.6z"/>
			<path id="XMLID_99_" class="st4" d="M0.9,198.4L0,200h35.9l0.9-1.6H0.9z"/>
			<path id="XMLID_98_" class="st0" d="M122.5,90.6L70.1,0H0l57.8,100L0,200h70.1l52.4-90.6C125.8,103.6,125.8,96.4,122.5,90.6z"/>
			<path id="XMLID_96_" class="st5" d="M0,200h0.9l57.4-99.2l-0.5-0.8L0,200z"/>
			<path id="XMLID_94_" class="st0" d="M122.5,90.6L70.1,0H0l57.8,100L0,200h70.1l52.4-90.6C125.8,103.6,125.8,96.4,122.5,90.6z"/>
			
				<radialGradient id="XMLID_3_" cx="92.62" cy="-1915.501" r="69.162" gradientTransform="matrix(1 0 0 1 0 2075.46)" gradientUnits="userSpaceOnUse">
				<stop  offset="0" style="stop-color:#BF360C;stop-opacity:0.2"/>
				<stop  offset="1" style="stop-color:#BF360C;stop-opacity:2.000000e-02"/>
			</radialGradient>
			<path id="XMLID_92_" class="st6" d="M92.9,160.6l-17.1-29.5l-4.2,7.2L92.9,160.6z"/>
			<path id="XMLID_90_" class="st0" d="M122.5,90.6L70.1,0H0l57.8,100L0,200h70.1l52.4-90.6C125.8,103.6,125.8,96.4,122.5,90.6z"/>
			
				<radialGradient id="XMLID_5_" cx="92.423" cy="-1915.063" r="69.723" gradientTransform="matrix(1 0 0 1 0 2075.46)" gradientUnits="userSpaceOnUse">
				<stop  offset="0" style="stop-color:#263238;stop-opacity:0.2"/>
				<stop  offset="1" style="stop-color:#263238;stop-opacity:2.000000e-02"/>
			</radialGradient>
			<path id="XMLID_89_" class="st7" d="M71.6,138.3l4.2-7.2l-18-31.1l-8.5,14.8L71.6,138.3z"/>
			<path id="XMLID_88_" class="st0" d="M122.5,90.6L70.1,0H0l57.8,100L0,200h70.1l52.4-90.6C125.8,103.6,125.8,96.4,122.5,90.6z"/>
			<g id="XMLID_85_">
				<g id="XMLID_86_">
					<path id="XMLID_87_" class="st8" d="M35.9,0H0l92.9,160.6l17.9-31.1L35.9,0z"/>
				</g>
			</g>
			<path id="XMLID_84_" class="st0" d="M122.5,90.6L70.1,0H0l57.8,100L0,200h70.1l52.4-90.6C125.8,103.6,125.8,96.4,122.5,90.6z"/>
			<path id="XMLID_83_" class="st9" d="M122.5,109.4c3.4-5.8,3.4-13,0-18.8L70.1,0H35.9l74.9,129.5L122.5,109.4z"/>
			<path id="XMLID_82_" class="st0" d="M122.5,90.6L70.1,0H0l57.8,100L0,200h70.1l52.4-90.6C125.8,103.6,125.8,96.4,122.5,90.6z"/>
			<path id="XMLID_71_" class="st10" d="M110.8,129.5l-0.4-0.8L92.9,159L0.9,0H0l92.9,160.6L110.8,129.5z"/>
			<path id="XMLID_69_" class="st0" d="M122.5,90.6L70.1,0H0l57.8,100L0,200h70.1l52.4-90.6C125.8,103.6,125.8,96.4,122.5,90.6z"/>
			<path id="XMLID_67_" class="st5" d="M70.1,1.6l52.4,90.6c1.5,2.7,2.3,5.6,2.5,8.6c0.1-3.5-0.7-7-2.5-10.2L70.1,0H0l0.9,1.6H70.1z
				"/>
			<path id="XMLID_66_" class="st0" d="M122.5,90.6L70.1,0H0l57.8,100L0,200h70.1l52.4-90.6C125.8,103.6,125.8,96.4,122.5,90.6z"/>
			<path id="XMLID_65_" class="st11" d="M110.8,129.5l11.6-20.1c1.8-3.1,2.6-6.7,2.5-10.2c-0.1,3-0.9,5.9-2.5,8.6l-12.1,20.9
				L110.8,129.5z"/>
			<path id="XMLID_64_" class="st0" d="M122.5,90.6L70.1,0H0l57.8,100L0,200h70.1l52.4-90.6C125.8,103.6,125.8,96.4,122.5,90.6z"/>
			
				<radialGradient id="XMLID_6_" cx="-1.563" cy="-2073.8979" r="209.922" gradientTransform="matrix(1 0 0 1 0 2075.46)" gradientUnits="userSpaceOnUse">
				<stop  offset="0" style="stop-color:#FFFFFF;stop-opacity:0.1"/>
				<stop  offset="1" style="stop-color:#FFFFFF;stop-opacity:0"/>
			</radialGradient>
			<path id="XMLID_63_" class="st12" d="M122.5,90.6L70.1,0H0l57.8,100L0,200h70.1l52.4-90.6C125.8,103.6,125.8,96.4,122.5,90.6z"/>
		</g>
	</g>
</g>
<g id="XMLID_7_">
	<path id="XMLID_2_" class="st13" d="M275.5,51.8c0,10.9-3.2,19.7-9.7,26.1c-7.4,7.7-17,11.6-28.8,11.6c-11.3,0-20.9-3.9-28.8-11.8
		c-7.9-7.8-11.9-17.6-11.9-29.1s4-21.3,11.9-29.1S225.7,7.7,237,7.7c5.6,0,11,1.1,16.1,3.3c5.1,2.2,9.2,5.1,12.2,8.8l-6.9,6.9
		c-5.2-6.2-12.3-9.3-21.4-9.3c-8.2,0-15.4,2.9-21.4,8.7s-9,13.3-9,22.6s3,16.8,9,22.6c6,5.8,13.1,8.7,21.4,8.7
		c8.8,0,16-2.9,21.9-8.8c3.8-3.8,6-9.1,6.6-15.9H237v-9.4h38C275.3,48,275.5,49.9,275.5,51.8L275.5,51.8z"/>
	<path id="XMLID_4_" class="st13" d="M285.4,87.8V9.5h24c12,0,21.7,3.6,28.9,10.9c7.2,7.3,10.8,16.7,10.8,28.3s-3.6,21-10.8,28.3
		c-7.2,7.3-16.8,10.9-28.9,10.9L285.4,87.8L285.4,87.8z M295.5,78.2h13.9c9,0,16.2-2.6,21.5-7.8c5.3-5.2,7.9-12.4,7.9-21.8
		c0-9.3-2.6-16.5-7.9-21.7s-12.5-7.8-21.5-7.8h-13.9C295.5,19.1,295.5,78.2,295.5,78.2z"/>
	<path id="XMLID_8_" class="st13" d="M434.5,51.8c0,10.9-3.2,19.7-9.7,26.1c-7.4,7.7-17,11.6-28.8,11.6c-11.3,0-20.9-3.9-28.8-11.8
		c-7.9-7.8-11.9-17.6-11.9-29.1s4-21.3,11.9-29.1S384.7,7.7,396,7.7c5.6,0,11,1.1,16.1,3.3s9.2,5.1,12.2,8.8l-6.9,6.9
		c-5.2-6.2-12.3-9.3-21.4-9.3c-8.2,0-15.4,2.9-21.4,8.7s-9,13.3-9,22.6s3,16.8,9,22.6c6,5.8,13.1,8.7,21.4,8.7
		c8.8,0,16-2.9,21.9-8.8c3.8-3.8,6-9.1,6.6-15.9H396v-9.4h38C434.3,48,434.5,49.9,434.5,51.8L434.5,51.8z"/>
	<path id="XMLID_10_" class="st13" d="M470.8,87.8V9.5h24c12,0,21.7,3.6,28.9,10.9s10.8,16.7,10.8,28.3s-3.6,21-10.8,28.3
		s-16.8,10.9-28.9,10.9L470.8,87.8L470.8,87.8z M480.9,78.2h13.9c9,0,16.2-2.6,21.5-7.8c5.3-5.2,7.9-12.4,7.9-21.8
		c0-9.3-2.6-16.5-7.9-21.7c-5.3-5.2-12.5-7.8-21.5-7.8h-13.9C480.9,19.1,480.9,78.2,480.9,78.2z"/>
	<path id="XMLID_13_" class="st13" d="M567.4,89.6c-8.1,0-14.7-2.7-19.7-8.1c-5.1-5.4-7.6-12.2-7.6-20.5c0-7.8,2.5-14.5,7.4-20.1
		s11.2-8.4,18.9-8.4c7.9,0,14.3,2.6,19.1,7.8s7.2,12.1,7.2,20.8l-0.1,1.9h-42.3c0.3,5.4,2.1,9.7,5.4,12.8c3.3,3.1,7.2,4.7,11.6,4.7
		c7.2,0,12.1-3.1,14.7-9.2l9,3.7c-1.8,4.2-4.6,7.6-8.6,10.4C578.2,88.2,573.3,89.6,567.4,89.6L567.4,89.6z M581.9,54.6
		c-0.2-3.1-1.6-6-4.2-8.8c-2.6-2.8-6.4-4.2-11.5-4.2c-3.7,0-6.9,1.2-9.7,3.5c-2.7,2.3-4.6,5.5-5.6,9.4L581.9,54.6L581.9,54.6z"/>
	<path id="XMLID_16_" class="st13" d="M613.7,87.8L592,34.2h11l15.8,41.6h0.2l16-41.6h10.7l-21.9,53.6H613.7z"/>
	<path id="XMLID_18_" class="st13" d="M661.6,87.8h-10.1V9.5h45.7v9.6h-35.7v25.7h32.2v9.4h-32.2L661.6,87.8L661.6,87.8z"/>
	<path id="XMLID_20_" class="st13" d="M727.7,89.6c-8.1,0-14.7-2.7-19.7-8.1c-5.1-5.4-7.6-12.2-7.6-20.5c0-7.8,2.5-14.5,7.4-20.1
		s11.2-8.4,18.9-8.4c7.9,0,14.3,2.6,19.1,7.8s7.2,12.1,7.2,20.8l-0.1,1.9h-42.3c0.3,5.4,2.1,9.7,5.4,12.8c3.3,3.1,7.2,4.7,11.6,4.7
		c7.2,0,12.1-3.1,14.7-9.2l9,3.7c-1.8,4.2-4.6,7.6-8.6,10.4C738.4,88.2,733.5,89.6,727.7,89.6L727.7,89.6z M742.1,54.6
		c-0.2-3.1-1.6-6-4.2-8.8c-2.6-2.8-6.4-4.2-11.5-4.2c-3.7,0-6.9,1.2-9.7,3.5c-2.7,2.3-4.6,5.5-5.6,9.4L742.1,54.6L742.1,54.6z"/>
	<path id="XMLID_27_" class="st13" d="M779.5,89.6c-6,0-10.9-1.5-14.8-4.4c-3.9-2.9-6.8-6.6-8.6-10.9l9-3.7
		c2.8,6.7,7.7,10.1,14.5,10.1c3.1,0,5.7-0.7,7.7-2.1s3-3.2,3-5.5c0-3.5-2.4-5.9-7.3-7.1l-10.8-2.6c-3.4-0.9-6.7-2.5-9.7-5
		c-3.1-2.4-4.6-5.7-4.6-9.9c0-4.7,2.1-8.6,6.3-11.5c4.2-3,9.2-4.4,14.9-4.4c4.7,0,9,1.1,12.7,3.2c3.7,2.2,6.4,5.2,8,9.2l-8.8,3.6
		c-2-4.7-6.1-7.1-12.2-7.1c-3,0-5.5,0.6-7.5,1.9c-2,1.2-3.1,2.9-3.1,5c0,3.1,2.4,5.1,7.1,6.2l10.6,2.5c5,1.2,8.8,3.2,11.2,6
		s3.6,6.1,3.6,9.6c0,4.8-2,8.8-5.9,12C790.8,88,785.7,89.6,779.5,89.6L779.5,89.6z"/>
	<path id="XMLID_29_" class="st13" d="M830.9,88.7c-5.6,0-9.9-1.5-12.9-4.5s-4.4-7.2-4.4-12.7V43.4h-9.4v-9.2h9.4V17.8h10.1v16.4
		h13.1v9.2h-13.1v27.3c0,5.8,2.4,8.8,7.2,8.8c1.8,0,3.4-0.3,4.6-0.9l3.5,8.6C836.8,88.2,834.1,88.7,830.9,88.7L830.9,88.7z"/>
	<path id="XMLID_31_" class="st13" d="M222.2,192.7c-5.7,0-11.2-1.9-16.7-5.6c-5.4-3.7-9-8.9-10.7-15.6l9.2-3.7
		c1.1,4.3,3.3,7.9,6.7,10.9s7.2,4.4,11.4,4.4c4.4,0,8.1-1.1,11.2-3.4c3.1-2.3,4.6-5.4,4.6-9.4c0-4.4-1.6-7.7-4.6-10.1
		c-3.1-2.4-8-4.6-14.7-6.6c-6.9-2.2-12.2-5-15.8-8.5s-5.4-7.9-5.4-13.3c0-5.6,2.2-10.5,6.7-14.7c4.4-4.2,10.2-6.2,17.4-6.2
		c6.6,0,12,1.7,16.2,5s6.9,6.9,8.1,10.9l-9.2,3.8c-0.7-2.5-2.3-4.8-4.9-6.9c-2.6-2.1-5.9-3.2-10-3.2c-3.9,0-7.2,1.1-9.9,3.2
		c-2.7,2.2-4.1,4.8-4.1,8c0,2.9,1.3,5.4,3.8,7.4s6.2,3.8,11.1,5.4c3.9,1.2,7.1,2.4,9.7,3.6c2.6,1.2,5.2,2.7,7.9,4.6
		c2.7,1.9,4.7,4.3,6,7.2s2,6.2,2,10s-0.8,7.2-2.4,10.2c-1.6,3-3.6,5.4-6.2,7.1c-2.6,1.8-5.4,3.1-8.4,4
		C228.4,192.2,225.3,192.7,222.2,192.7L222.2,192.7z"/>
	<path id="XMLID_33_" class="st13" d="M281.4,192.7c-8.1,0-14.7-2.7-19.7-8.1c-5.1-5.4-7.6-12.2-7.6-20.5c0-7.8,2.5-14.5,7.4-20.1
		s11.2-8.4,18.9-8.4c7.9,0,14.3,2.6,19.1,7.8c4.8,5.2,7.2,12.1,7.2,20.8l-0.1,1.9h-42.3c0.3,5.4,2.1,9.7,5.4,12.8s7.2,4.7,11.6,4.7
		c7.2,0,12.1-3.1,14.7-9.2l9,3.7c-1.8,4.2-4.6,7.6-8.6,10.4C292.1,191.3,287.2,192.7,281.4,192.7L281.4,192.7z M295.8,157.7
		c-0.2-3.1-1.6-6-4.2-8.8s-6.4-4.2-11.5-4.2c-3.7,0-6.9,1.2-9.7,3.5c-2.7,2.3-4.6,5.5-5.6,9.4h31L295.8,157.7z"/>
	<path id="XMLID_36_" class="st13" d="M330.3,192.7c-5.7,0-10.4-1.6-14.3-4.9c-3.8-3.3-5.7-7.6-5.7-13c0-5.8,2.3-10.4,6.8-13.7
		s10.1-5,16.7-5c5.9,0,10.8,1.1,14.5,3.3v-1.5c0-3.9-1.3-7.1-4-9.5s-6-3.6-10-3.6c-2.9,0-5.6,0.7-7.9,2.1c-2.4,1.4-4,3.3-4.9,5.7
		l-9.2-3.9c1.2-3.2,3.7-6.2,7.3-8.9c3.6-2.7,8.5-4.1,14.4-4.1c6.9,0,12.5,2,17.1,6c4.5,4,6.8,9.7,6.8,17v32.4h-9.6v-7.4h-0.4
		C343.9,189.6,338,192.7,330.3,192.7L330.3,192.7z M332,183.5c4.2,0,7.9-1.5,11.3-4.6s5.1-6.8,5.1-11c-2.8-2.3-7.1-3.5-12.8-3.5
		c-4.9,0-8.6,1.1-11,3.2c-2.5,2.1-3.7,4.6-3.7,7.4c0,2.6,1.1,4.7,3.4,6.2C326.5,182.7,329,183.5,332,183.5L332,183.5z"/>
	<path id="XMLID_39_" class="st13" d="M387,192.7c-6,0-10.9-1.5-14.8-4.4s-6.8-6.6-8.6-10.9l9-3.7c2.8,6.7,7.7,10.1,14.5,10.1
		c3.1,0,5.7-0.7,7.7-2.1c2-1.4,3-3.2,3-5.5c0-3.5-2.4-5.9-7.3-7.1l-10.8-2.6c-3.4-0.9-6.7-2.5-9.7-5c-3.1-2.4-4.6-5.7-4.6-9.9
		c0-4.7,2.1-8.6,6.3-11.5c4.2-3,9.2-4.4,14.9-4.4c4.7,0,9,1.1,12.7,3.2c3.7,2.2,6.4,5.2,8,9.2l-8.8,3.6c-2-4.7-6.1-7.1-12.2-7.1
		c-3,0-5.5,0.6-7.5,1.9c-2,1.2-3.1,2.9-3.1,5c0,3.1,2.4,5.1,7.1,6.2l10.6,2.5c5,1.2,8.7,3.2,11.2,6c2.4,2.8,3.6,6.1,3.6,9.6
		c0,4.8-2,8.8-5.9,12C398.2,191.1,393.2,192.7,387,192.7L387,192.7z"/>
	<path id="XMLID_41_" class="st13" d="M419.7,143.7c5.2-5.4,11.8-8.1,19.8-8.1s14.6,2.7,19.8,8.1c5.2,5.4,7.8,12.2,7.8,20.4
		s-2.6,15-7.8,20.4c-5.2,5.4-11.8,8.1-19.8,8.1s-14.6-2.7-19.8-8.1c-5.2-5.4-7.8-12.2-7.8-20.4C411.9,156,414.5,149.2,419.7,143.7z
		 M427.2,178.2c3.5,3.5,7.6,5.3,12.3,5.3c4.7,0,8.8-1.8,12.3-5.3s5.2-8.2,5.2-14.1c0-5.8-1.7-10.5-5.2-14.1
		c-3.5-3.5-7.6-5.3-12.3-5.3c-4.7,0-8.8,1.8-12.3,5.3s-5.2,8.2-5.2,14.1S423.7,174.7,427.2,178.2z"/>
	<path id="XMLID_44_" class="st13" d="M483.8,137.3v7.4h0.4c1.5-2.6,3.8-4.7,6.9-6.5s6.5-2.7,10.1-2.7c6.6,0,11.7,2,15.2,6.1
		s5.2,9.6,5.2,16.4v32.8h-10.1v-31.3c0-9.9-4.4-14.9-13.2-14.9c-4.2,0-7.5,1.7-10.2,5c-2.6,3.3-3.9,7.2-3.9,11.5v29.6h-10.1v-53.6
		h9.7L483.8,137.3z"/>
	<path id="XMLID_46_" class="st13" d="M603.5,190.9h-47.7v-10.1c14.3-14.4,23.4-23.7,27.5-28.1c3.6-4,6-7.1,7.2-9.1
		c1.2-2.1,1.9-4.6,1.9-7.7c0-3.1-1.2-5.9-3.7-8.3c-2.5-2.4-5.8-3.6-10-3.6c-3.8,0-6.9,1.1-9.2,3.3s-3.8,4.6-4.5,7.2l-9.2-3.7
		c1.2-3.9,3.8-7.7,7.8-11.2c3.9-3.5,9-5.2,15.3-5.2c6.9,0,12.6,2.1,17.1,6.3c4.4,4.2,6.7,9.3,6.7,15.2c0,7.3-4,15.1-11.9,23.4
		l-21.9,22h34.7L603.5,190.9L603.5,190.9z"/>
	<path id="XMLID_48_" class="st13" d="M661.1,181.4c-5.5,7.5-12.8,11.3-21.8,11.3s-16.2-3.8-21.8-11.3c-5.5-7.5-8.3-16.8-8.3-27.9
		c0-11.2,2.8-20.5,8.3-27.9c5.5-7.5,12.8-11.2,21.8-11.2s16.2,3.7,21.8,11.2c5.5,7.5,8.3,16.8,8.3,27.9S666.6,173.9,661.1,181.4z
		 M639.3,183.1c6,0,10.8-2.8,14.4-8.4c3.6-5.6,5.4-12.6,5.4-21.1s-1.8-15.6-5.4-21.2c-3.6-5.6-8.4-8.4-14.4-8.4
		c-6.1,0-10.9,2.8-14.4,8.4c-3.6,5.6-5.4,12.6-5.4,21.2c0,8.5,1.8,15.5,5.4,21.1C628.5,180.3,633.3,183.1,639.3,183.1z"/>
	<path id="XMLID_51_" class="st13" d="M701.3,190.9h-10.1v-62.3l-14.5,6.3l-3.8-8.5l22-10.3h6.5v74.8H701.3z"/>
</g>
<g>
	<path class="st13" d="M758.9,124.2l-30,66.8h-10.1l30.5-66.8h-36.3V116h45.8V124.2z"/>
</g>
</svg>
