<svg width="704" height="200" viewBox="0 0 704 200" xmlns="http://www.w3.org/2000/svg"><title>logo-white</title><defs><radialGradient cx="98.685%" cy="97.827%" fx="98.685%" fy="97.827%" r="324.704%" id="a"><stop stop-color="#BF360C" stop-opacity=".2" offset="0%"/><stop stop-color="#BF360C" stop-opacity=".02" offset="100%"/></radialGradient><radialGradient cx="162.728%" cy="157.695%" fx="162.728%" fy="157.695%" r="263.106%" id="b"><stop stop-color="#263238" stop-opacity=".2" offset="0%"/><stop stop-color="#263238" stop-opacity=".02" offset="100%"/></radialGradient><radialGradient cx="-1.251%" cy=".781%" fx="-1.251%" fy=".781%" r="167.971%" id="c"><stop stop-color="#FFF" stop-opacity=".1" offset="0%"/><stop stop-color="#FFF" stop-opacity="0" offset="100%"/></radialGradient></defs><g fill="none" fill-rule="evenodd"><path d="M227.152 47.536c0 8.956-2.657 16.09-7.97 21.404-5.97 6.329-13.822 9.493-23.554 9.493-9.313 0-17.194-3.224-23.642-9.672s-9.672-14.389-9.672-23.822 3.224-17.374 9.672-23.822 14.329-9.672 23.642-9.672c4.717 0 9.165.836 13.344 2.508 4.18 1.671 7.612 4.03 10.3 7.075l-5.912 5.91c-1.97-2.388-4.522-4.254-7.657-5.597-3.134-1.343-6.492-2.015-10.075-2.015-6.985 0-12.896 2.418-17.732 7.254-4.776 4.896-7.164 11.015-7.164 18.359 0 7.344 2.388 13.463 7.164 18.359 4.836 4.836 10.747 7.254 17.732 7.254 6.389 0 11.702-1.791 15.941-5.373 4.24-3.583 6.687-8.508 7.344-14.777h-23.285V42.7h31.076c.299 1.672.448 3.284.448 4.836zM237.182 77V12.878h19.613c9.792 0 17.658 2.955 23.598 8.866 5.94 5.91 8.911 13.642 8.911 23.195 0 9.612-2.97 17.359-8.91 23.24-5.941 5.88-13.807 8.821-23.599 8.821h-19.613zm8.24-56.241v48.36h11.373c7.463 0 13.344-2.134 17.643-6.403 4.298-4.269 6.448-10.195 6.448-17.777 0-7.523-2.15-13.433-6.448-17.732-4.299-4.299-10.18-6.448-17.643-6.448h-11.373zM360.77 47.536c0 8.956-2.657 16.09-7.97 21.404-5.971 6.329-13.822 9.493-23.554 9.493-9.314 0-17.195-3.224-23.643-9.672s-9.672-14.389-9.672-23.822 3.224-17.374 9.672-23.822 14.33-9.672 23.643-9.672c4.717 0 9.164.836 13.344 2.508 4.18 1.671 7.612 4.03 10.299 7.075l-5.911 5.91c-1.97-2.388-4.523-4.254-7.657-5.597-3.134-1.343-6.493-2.015-10.075-2.015-6.985 0-12.896 2.418-17.732 7.254-4.776 4.896-7.165 11.015-7.165 18.359 0 7.344 2.389 13.463 7.165 18.359 4.836 4.836 10.747 7.254 17.732 7.254 6.388 0 11.702-1.791 15.94-5.373 4.24-3.583 6.688-8.508 7.345-14.777h-23.285V42.7h31.076c.298 1.672.448 3.284.448 4.836zM390.502 77V12.878h19.613c9.792 0 17.657 2.955 23.598 8.866 5.94 5.91 8.91 13.642 8.91 23.195 0 9.612-2.97 17.359-8.91 23.24-5.94 5.88-13.806 8.821-23.598 8.821h-19.613zm8.24-56.241v48.36h11.373c7.463 0 13.344-2.134 17.643-6.403 4.298-4.269 6.448-10.195 6.448-17.777 0-7.523-2.15-13.433-6.448-17.732-4.3-4.299-10.18-6.448-17.643-6.448h-11.374zm71.913 57.674c-6.448 0-11.762-2.21-15.941-6.627-4.18-4.418-6.269-10-6.269-16.747 0-6.687 2.03-12.254 6.09-16.702 4.06-4.448 9.254-6.672 15.583-6.672 6.507 0 11.687 2.104 15.537 6.313 3.851 4.21 5.777 10.105 5.777 17.688l-.09.895h-34.479c.12 4.299 1.553 7.762 4.299 10.389 2.746 2.627 6.03 3.94 9.851 3.94 5.254 0 9.374-2.627 12.359-7.88l7.343 3.582c-1.97 3.701-4.701 6.597-8.194 8.686-3.493 2.09-7.448 3.135-11.866 3.135zM457.49 49.775h25.165c-.238-3.045-1.477-5.567-3.716-7.568-2.24-2-5.24-3-9-3-3.105 0-5.777.956-8.016 2.866-2.239 1.91-3.716 4.478-4.433 7.702zM520.27 77h-8.24l-17.731-43.882h8.955l12.896 34.03h.18l13.075-34.03h8.776L520.27 77zm32.956-27.494V77h-8.239V12.878h37.435v7.88h-29.196v21.046h26.33v7.702h-26.33zm56.779 28.927c-6.448 0-11.762-2.21-15.941-6.627-4.18-4.418-6.269-10-6.269-16.747 0-6.687 2.03-12.254 6.09-16.702 4.06-4.448 9.254-6.672 15.583-6.672 6.507 0 11.687 2.104 15.538 6.313 3.85 4.21 5.776 10.105 5.776 17.688l-.09.895h-34.479c.12 4.299 1.553 7.762 4.299 10.389 2.746 2.627 6.03 3.94 9.851 3.94 5.254 0 9.374-2.627 12.359-7.88l7.344 3.582c-1.97 3.701-4.702 6.597-8.195 8.686-3.493 2.09-7.448 3.135-11.866 3.135zM596.84 49.775h25.165c-.238-3.045-1.477-5.567-3.716-7.568-2.239-2-5.24-3-9-3-3.105 0-5.777.956-8.016 2.866-2.239 1.91-3.716 4.478-4.433 7.702zm75.048 15.045c0 3.821-1.672 7.045-5.015 9.672-3.343 2.627-7.552 3.94-12.627 3.94-4.418 0-8.3-1.148-11.643-3.447-3.343-2.299-5.731-5.329-7.164-9.09l7.343-3.134c1.075 2.627 2.642 4.671 4.702 6.134s4.314 2.194 6.762 2.194c2.627 0 4.82-.567 6.582-1.701 1.761-1.135 2.642-2.478 2.642-4.03 0-2.806-2.15-4.866-6.448-6.18l-7.523-1.88c-8.538-2.15-12.806-6.27-12.806-12.359 0-4 1.627-7.21 4.88-9.627 3.254-2.418 7.419-3.627 12.494-3.627 3.88 0 7.388.925 10.522 2.776 3.135 1.85 5.329 4.328 6.583 7.433l-7.344 3.045c-.836-1.85-2.194-3.299-4.075-4.344-1.88-1.044-3.985-1.567-6.313-1.567-2.15 0-4.075.538-5.777 1.612-1.701 1.075-2.552 2.388-2.552 3.94 0 2.508 2.358 4.3 7.075 5.374l6.627 1.702c8.717 2.149 13.075 6.537 13.075 13.164zm24.539 12.896c-3.583 0-6.553-1.104-8.911-3.313-2.359-2.21-3.568-5.284-3.627-9.224V40.64h-7.702v-7.522h7.702V19.684h8.239v13.434h10.747v7.522h-10.747v21.852c0 2.925.567 4.91 1.701 5.955 1.135 1.045 2.418 1.568 3.851 1.568.657 0 1.299-.075 1.926-.224a9.987 9.987 0 0 0 1.746-.582l2.597 7.343c-2.15.776-4.657 1.164-7.522 1.164zm-491.394 91.179c0 5.612-2.06 10.12-6.18 13.523-4.179 3.343-9.254 5.015-15.224 5.015-5.314 0-10-1.552-14.06-4.657-4.06-3.105-6.866-7.344-8.419-12.717l7.881-3.224c.538 1.91 1.284 3.642 2.24 5.194.954 1.553 2.074 2.881 3.358 3.986a15.222 15.222 0 0 0 4.253 2.597c1.553.627 3.195.94 4.926.94 3.761 0 6.836-.97 9.224-2.91 2.388-1.941 3.583-4.523 3.583-7.747 0-2.687-.986-4.985-2.956-6.896-1.85-1.85-5.313-3.642-10.388-5.373-5.135-1.851-8.329-3.105-9.583-3.762-6.806-3.463-10.21-8.567-10.21-15.314 0-4.716 1.881-8.746 5.643-12.09 3.82-3.343 8.508-5.015 14.06-5.015 4.896 0 9.135 1.254 12.717 3.761 3.582 2.448 5.97 5.523 7.165 9.225l-7.702 3.224c-.717-2.389-2.135-4.374-4.254-5.956-2.12-1.582-4.702-2.373-7.747-2.373-3.224 0-5.94.895-8.15 2.687-2.208 1.671-3.313 3.85-3.313 6.537 0 2.21.866 4.12 2.597 5.732 1.91 1.612 6.06 3.522 12.448 5.731 6.508 2.21 11.15 4.911 13.926 8.105 2.777 3.194 4.165 7.12 4.165 11.777zm28.21 18.538c-6.448 0-11.762-2.21-15.941-6.627-4.18-4.418-6.269-10-6.269-16.747 0-6.687 2.03-12.254 6.09-16.702 4.06-4.448 9.254-6.672 15.583-6.672 6.507 0 11.687 2.104 15.538 6.313 3.85 4.21 5.776 10.105 5.776 17.688l-.09.895h-34.48c.12 4.299 1.553 7.762 4.299 10.389 2.746 2.627 6.03 3.94 9.851 3.94 5.254 0 9.374-2.627 12.359-7.88l7.343 3.582c-1.97 3.701-4.701 6.597-8.194 8.686-3.493 2.09-7.448 3.135-11.866 3.135zm-13.165-28.658h25.165c-.238-3.045-1.477-5.567-3.716-7.568-2.24-2-5.24-3-9-3-3.105 0-5.777.956-8.016 2.866-2.239 1.91-3.716 4.478-4.433 7.702zm47.465 13.792c0 2.149.91 3.94 2.731 5.373 1.821 1.433 3.956 2.15 6.404 2.15 3.462 0 6.552-1.284 9.269-3.852 2.716-2.567 4.074-5.582 4.074-9.045-2.567-2.03-6.15-3.045-10.746-3.045-3.344 0-6.135.806-8.374 2.418-2.239 1.612-3.358 3.612-3.358 6zm10.657-31.882c6.09 0 10.896 1.627 14.419 4.88 3.522 3.254 5.283 7.717 5.283 13.39V186h-7.88v-6.09h-.359c-3.403 5.015-7.94 7.523-13.612 7.523-4.836 0-8.881-1.433-12.135-4.299-3.254-2.866-4.881-6.448-4.881-10.747 0-4.537 1.717-8.15 5.15-10.836 3.433-2.686 8.015-4.03 13.746-4.03 4.896 0 8.926.896 12.09 2.687v-1.88c0-2.867-1.134-5.3-3.403-7.3-2.268-2-4.925-3-7.97-3-4.597 0-8.24 1.94-10.926 5.821l-7.254-4.567c4-5.732 9.91-8.597 17.732-8.597zm62.6 33.135c0 3.821-1.672 7.045-5.015 9.672-3.344 2.627-7.553 3.94-12.628 3.94-4.418 0-8.299-1.148-11.642-3.447-3.344-2.299-5.732-5.329-7.165-9.09l7.344-3.134c1.075 2.627 2.642 4.671 4.702 6.134s4.313 2.194 6.761 2.194c2.627 0 4.821-.567 6.582-1.701 1.762-1.135 2.642-2.478 2.642-4.03 0-2.806-2.149-4.866-6.448-6.18l-7.522-1.88c-8.538-2.15-12.807-6.27-12.807-12.359 0-4 1.627-7.21 4.881-9.627 3.254-2.418 7.418-3.627 12.493-3.627 3.88 0 7.388.925 10.523 2.776 3.134 1.85 5.328 4.328 6.582 7.433l-7.343 3.045c-.836-1.85-2.194-3.299-4.075-4.344-1.88-1.044-3.985-1.567-6.314-1.567-2.15 0-4.075.538-5.776 1.612-1.702 1.075-2.553 2.388-2.553 3.94 0 2.508 2.359 4.3 7.075 5.374l6.627 1.702c8.717 2.149 13.076 6.537 13.076 13.164zm4.657-9.761c0-6.747 2.119-12.33 6.358-16.747 4.299-4.418 9.702-6.627 16.21-6.627 6.507 0 11.88 2.209 16.12 6.627 4.298 4.418 6.448 10 6.448 16.747 0 6.806-2.15 12.388-6.448 16.747-4.24 4.418-9.613 6.627-16.12 6.627-6.508 0-11.911-2.21-16.21-6.627-4.239-4.418-6.358-10-6.358-16.747zm8.239 0c0 4.716 1.373 8.537 4.12 11.463 2.746 2.925 6.149 4.388 10.209 4.388s7.463-1.463 10.21-4.388c2.745-2.926 4.119-6.747 4.119-11.463 0-4.657-1.374-8.448-4.12-11.374-2.806-2.985-6.21-4.478-10.21-4.478-4 0-7.403 1.493-10.209 4.478-2.746 2.926-4.12 6.717-4.12 11.374zm44.42-21.941h7.88v6.09h.359c1.253-2.15 3.179-3.941 5.776-5.374 2.597-1.433 5.299-2.15 8.105-2.15 5.373 0 9.508 1.538 12.403 4.613 2.896 3.075 4.344 7.448 4.344 13.12V186h-8.24v-27.046c-.178-7.164-3.79-10.747-10.836-10.747-3.283 0-6.03 1.329-8.239 3.986-2.209 2.656-3.313 5.836-3.313 9.537V186h-8.24v-43.882zm105.855 36.001V186h-39.047v-8.24l15.852-16.03c5.313-5.433 8.985-9.508 11.015-12.224 2.03-2.717 3.045-5.567 3.045-8.553 0-2.686-1.045-4.985-3.134-6.895-2.09-1.911-4.777-2.866-8.06-2.866-2.807 0-5.225.836-7.255 2.507-2.03 1.672-3.343 3.702-3.94 6.09l-7.523-3.045c1.194-3.761 3.493-6.94 6.896-9.538 3.403-2.597 7.403-3.895 12-3.895 5.553 0 10.18 1.701 13.882 5.104 3.701 3.404 5.552 7.583 5.552 12.538 0 5.911-3.254 12.3-9.761 19.165L475.58 178.12h28.39zm7.88-22.747c0-9.314 2.3-16.986 6.896-23.016 4.598-6.03 10.508-9.045 17.733-9.045 7.224 0 13.134 3.045 17.732 9.135 4.597 6.03 6.895 13.672 6.895 22.926 0 9.194-2.298 16.866-6.895 23.016-4.598 6.03-10.508 9.045-17.732 9.045-7.225 0-13.135-3.015-17.733-9.045-4.597-6.15-6.895-13.822-6.895-23.016zm40.838 0c0-7.045-1.492-12.836-4.478-17.374-2.925-4.538-6.836-6.806-11.731-6.806-4.896 0-8.807 2.268-11.732 6.806-2.986 4.538-4.478 10.329-4.478 17.374 0 7.045 1.492 12.866 4.478 17.463 2.925 4.478 6.836 6.717 11.732 6.717 4.895 0 8.806-2.269 11.731-6.806 2.986-4.598 4.478-10.389 4.478-17.374zm39.226-30.628V186h-8.24v-51.047l-11.91 5.194-3.135-6.985 18-8.418h5.285zm50.778 8.418l-29.733 54.27-7.343-3.76 28.389-51.047H603.02l.179-7.881h39.494v8.418z" fill="#777"/><path d="M122.5 90.6L70.1 0H0l57.8 100L0 200h70.1l52.4-90.6c3.3-5.8 3.3-13 0-18.8z"/><path fill="#FFC107" d="M92.4 159.8l-16.6-28.7L35.9 200h34.2l22.8-39.4z"/><path d="M122.5 90.6L70.1 0H0l57.8 100L0 200h70.1l52.4-90.6c3.3-5.8 3.3-13 0-18.8z"/><path fill="#0F9D58" d="M57.8 100l18 31.1L35.9 200H0z"/><path d="M122.5 90.6L70.1 0H0l57.8 100L0 200h70.1l52.4-90.6c3.3-5.8 3.3-13 0-18.8z"/><path fill="#BF360C" opacity=".2" d="M70.1 198.4H36.8l-.9 1.6h34.2l22.8-39.4-.5-.8z"/><path d="M122.5 90.6L70.1 0H0l57.8 100L0 200h70.1l52.4-90.6c3.3-5.8 3.3-13 0-18.8z"/><path fill="#263238" opacity=".2" d="M.9 198.4L0 200h35.9l.9-1.6z"/><path d="M122.5 90.6L70.1 0H0l57.8 100L0 200h70.1l52.4-90.6c3.3-5.8 3.3-13 0-18.8z"/><path fill="#FFF" opacity=".2" d="M0 200h.9l57.4-99.2-.5-.8z"/><path d="M122.5 90.6L70.1 0H0l57.8 100L0 200h70.1l52.4-90.6c3.3-5.8 3.3-13 0-18.8z"/><path fill="url(#a)" d="M92.9 160.6l-17.1-29.5-4.2 7.2z"/><path d="M122.5 90.6L70.1 0H0l57.8 100L0 200h70.1l52.4-90.6c3.3-5.8 3.3-13 0-18.8z"/><path fill="url(#b)" d="M71.6 138.3l4.2-7.2-18-31.1-8.5 14.8z"/><path d="M122.5 90.6L70.1 0H0l57.8 100L0 200h70.1l52.4-90.6c3.3-5.8 3.3-13 0-18.8z"/><path d="M35.9 0H0l92.9 160.6 17.9-31.1z" fill="#4285F4"/><path d="M122.5 90.6L70.1 0H0l57.8 100L0 200h70.1l52.4-90.6c3.3-5.8 3.3-13 0-18.8z"/><path d="M122.5 109.4c3.4-5.8 3.4-13 0-18.8L70.1 0H35.9l74.9 129.5 11.7-20.1z" fill="#DB4437"/><path d="M122.5 90.6L70.1 0H0l57.8 100L0 200h70.1l52.4-90.6c3.3-5.8 3.3-13 0-18.8z"/><path fill="#1A237E" opacity=".2" d="M110.8 129.5l-.4-.8L92.9 159 .9 0H0l92.9 160.6 17.9-31.1z"/><path d="M122.5 90.6L70.1 0H0l57.8 100L0 200h70.1l52.4-90.6c3.3-5.8 3.3-13 0-18.8z"/><path d="M70.1 1.6l52.4 90.6c1.5 2.7 2.3 5.6 2.5 8.6.1-3.5-.7-7-2.5-10.2L70.1 0H0l.9 1.6h69.2z" fill="#FFF" opacity=".2"/><path d="M122.5 90.6L70.1 0H0l57.8 100L0 200h70.1l52.4-90.6c3.3-5.8 3.3-13 0-18.8z"/><path d="M110.8 129.5l11.6-20.1c1.8-3.1 2.6-6.7 2.5-10.2-.1 3-.9 5.9-2.5 8.6l-12.1 20.9.5.8z" fill="#3E2723" opacity=".2"/><path d="M122.5 90.6L70.1 0H0l57.8 100L0 200h70.1l52.4-90.6c3.3-5.8 3.3-13 0-18.8z"/><path d="M122.5 90.6L70.1 0H0l57.8 100L0 200h70.1l52.4-90.6c3.3-5.8 3.3-13 0-18.8z" fill="url(#c)"/></g></svg>