<?xml version="1.0" encoding="utf-8"?>
<!-- Generator: Adobe Illustrator 19.0.0, SVG Export Plug-In . SVG Version: 6.00 Build 0)  -->
<svg version="1.1" id="Layer_4" xmlns="http://www.w3.org/2000/svg" xmlns:xlink="http://www.w3.org/1999/xlink" x="0px" y="0px"
	 viewBox="-139 217 444.2 128" style="enable-background:new -139 217 444.2 128;" xml:space="preserve">
<style type="text/css">
	.st0{fill:#F6087F;}
	.st1{fill:#211F35;}
	.st2{fill:#F7BC0B;}
	.st3{fill:#D94D42;}
	.st4{fill:#189D5C;}
	.st5{fill:#4B89F1;}
</style>
<g>
	<g id="XMLID_3761_">
		<g>
			<path id="XMLID_55_" class="st0" d="M-79.8,297.6h-8v8.4h-8.4v8.5h-42.4v-58.8h41.9v8h8.5v8.4h8.4V297.6z M-96.7,297.6v-25.5
				h-8.4v-7.9h-16.7V306h17v-8.4H-96.7z"/>
			<path id="XMLID_53_" class="st0" d="M-13.8,314h-59.5v-59.4h59.5v8.3h-42.4v16.9h25.4v8.7h-25.4v17h42.4V314z"/>
			<path id="XMLID_51_" class="st0" d="M50.1,289.2h-8.3v8.4h-8.4v8.4h-8.5v8.5h-8.5v-8H7.9V298h-8.4v-8.4h-8.3v-33.9H7.9v24.8h8.5
				v8.7h8.3V281h8.5v-25.3h16.9V289.2z"/>
		</g>
	</g>
	<g id="XMLID_3743_">
		<g>
			<path id="XMLID_64_" class="st1" d="M118.4,263.8H76.8v16.7h33.3v8.5H76.8v25.5H59.6v-58.8h58.8V263.8z"/>
			<path id="XMLID_62_" class="st1" d="M184.5,314h-59.5v-59.4h59.5v8.3h-42.4v16.9h25.4v8.7h-25.4v17h42.4V314z"/>
			<path id="XMLID_60_" class="st1" d="M248.3,306h-8v8.5H198v-8h-8.5V298h16.9v8h25v-16.4H198v-8.5h-8.5v-16.9h8v-8.5h33.9v8h8.5
				v8.5h-16.7v-8h-16.9v16.3H240v8.6h8.4V306z"/>
			<path id="XMLID_58_" class="st1" d="M305.2,263.8h-16.5v50.7h-16.9v-50.3h-17v-8.5h50.4V263.8z"/>
		</g>
	</g>
	<path id="XMLID_3741_" class="st1" d="M71.3,332.8h-4.4v-2.3h-4.4v2.3h-2.3v7.3h2.2v2.5h4.4v-2.4h4.4v2.4h-2.1v2.5h-8.9v-2.3H58
		v-2.5h-2.2v-7.4h2.1v-2.3h2.2V328h8.9v2.3h2.2V332.8z"/>
	<path id="XMLID_3738_" class="st1" d="M88.4,342.5h-2.1v2.5H75.1v-2.3h-2.2v-12.2H75V328h11.2v2.3h2.2V342.5z M83.9,342.5v-12.1
		h-6.6v12.1H83.9z"/>
	<path id="XMLID_3736_" class="st1" d="M105.5,332.8h-4.4v-2.3h-4.4v2.3h-2.3v7.3h2.2v2.5h4.4v-2.4h4.4v2.4h-2.1v2.5h-8.9v-2.3h-2.2
		v-2.5H90v-7.4h2.1v-2.3h2.2V328h8.9v2.3h2.2V332.8z"/>
	<path id="XMLID_3734_" class="st1" d="M122.6,345h-4.4v-7.3h-6.6v7.3h-4.5v-17h4.4v7.2h6.7V328h4.4V345z"/>
	<path id="XMLID_3731_" class="st1" d="M139.6,345h-4.4v-4.9h-6.6v4.9h-4.4v-12.1h2.1v-2.4h2.2V328h6.7v2.3h2.2v2.4h2.2V345z
		 M135.2,337.7v-5H133v-2.3h-2.3v2.4h-2.1v4.8H135.2z"/>
	<path id="XMLID_3727_" class="st1" d="M156.7,342.5h-2.1v2.5h-13.4v-17h13.3v2.4h2.2v4.9h-2.1v2.4h2.1V342.5z M152.3,335.2v-4.8
		h-6.6v4.8H152.3z M152.3,342.5v-4.9h-6.6v4.9H152.3z"/>
	<path id="XMLID_3724_" class="st1" d="M173.8,345h-4.4v-4.9h-6.6v4.9h-4.4v-12.1h2.1v-2.4h2.2V328h6.7v2.3h2.2v2.4h2.2V345z
		 M169.4,337.7v-5h-2.2v-2.3h-2.3v2.4h-2.1v4.8H169.4z"/>
	<path id="XMLID_3722_" class="st1" d="M190.9,345h-4.4v-7.3h-2.2v2.4h-2.2v-2.4H180v7.3h-4.5v-17h4.4v2.3h2.2v2.5h2.2v-2.4h2.2V328
		h4.4V345z"/>
	<path id="XMLID_3718_" class="st1" d="M208,342.5h-2.1v2.5h-13.4v-17h13.3v2.4h2.2v4.9h-2.1v2.4h2.1V342.5z M203.6,335.2v-4.8H197
		v4.8H203.6z M203.6,342.5v-4.9H197v4.9H203.6z"/>
	<path id="XMLID_3715_" class="st1" d="M225.1,345h-4.4v-4.9h-6.6v4.9h-4.4v-12.1h2.1v-2.4h2.2V328h6.7v2.3h2.2v2.4h2.2V345z
		 M220.7,337.7v-5h-2.2v-2.3h-2.3v2.4h-2.1v4.8H220.7z"/>
	<path id="XMLID_3713_" class="st0" d="M248.8,335.4h-2.3v2.4H244v2.5h-4.9v2.4h9.7v2.5h-17v-4.8h2.3v-2.5h2.5v-2.4h4.9v-2.6h2.5
		v-2.4h-7.2v2.4h-5v-2.4h2.3V328h12.3v2.5h2.4V335.4z"/>
	<path id="XMLID_3710_" class="st0" d="M267.6,340.1h-2.3v2.4h-2.5v2.5h-7.3v-2.3H253v-2.5h-2.5v-7.4h2.3v-2.4h2.5V328h7.3v2.3h2.5
		v2.4h2.4V340.1z M262.7,342.5v-9.8h-2.4v-2.3h-4.8v9.8h2.5v2.3H262.7z"/>
	<path id="XMLID_3708_" class="st0" d="M285.2,345h-14.6v-2.4h4.8v-9.7H273v-2.5h2.4V328h4.9v14.6h4.9V345z"/>
	<path id="XMLID_3706_" class="st0" d="M305.2,332.8h-2.3v2.4h-2.4v2.4H298v7.3h-4.9v-7.3h2.3v-2.4h2.4v-2.4h2.5v-2.4h-7.2v2.4h-5
		V328h17V332.8z"/>
	<g>
		<rect x="226.1" y="230" class="st0" width="6.3" height="6.3"/>
		<rect x="238.2" y="230" class="st0" width="6.3" height="6.3"/>
		<rect x="250.3" y="230" class="st0" width="6.3" height="6.3"/>
		<rect x="262.4" y="230" class="st0" width="6.3" height="6.3"/>
		<rect x="274.5" y="230" class="st0" width="6.3" height="6.3"/>
		<rect x="286.5" y="230" class="st0" width="6.3" height="6.3"/>
		<rect x="298.6" y="230" class="st0" width="6.3" height="6.3"/>
	</g>
	<g>
		<rect x="-31.5" y="333.3" class="st1" width="6.3" height="6.3"/>
		<rect x="-19.4" y="333.3" class="st1" width="6.3" height="6.3"/>
		<rect x="-7.3" y="333.3" class="st1" width="6.3" height="6.3"/>
		<rect x="4.8" y="333.3" class="st1" width="6.3" height="6.3"/>
		<rect x="16.9" y="333.3" class="st1" width="6.3" height="6.3"/>
		<rect x="29" y="333.3" class="st1" width="6.3" height="6.3"/>
		<rect x="41.1" y="333.3" class="st1" width="6.3" height="6.3"/>
		<rect x="-115.7" y="333.3" class="st1" width="6.3" height="6.3"/>
		<rect x="-103.6" y="333.3" class="st1" width="6.3" height="6.3"/>
		<rect x="-139" y="333.3" class="st1" width="6.3" height="6.3"/>
		<rect x="-126.9" y="333.3" class="st1" width="6.3" height="6.3"/>
		<rect x="-91.5" y="333.3" class="st1" width="6.3" height="6.3"/>
		<rect x="-79.5" y="333.3" class="st1" width="6.3" height="6.3"/>
		<rect x="-67.4" y="333.3" class="st1" width="6.3" height="6.3"/>
		<rect x="-55.3" y="333.3" class="st1" width="6.3" height="6.3"/>
		<rect x="-43.2" y="333.3" class="st1" width="6.3" height="6.3"/>
	</g>
	<g>
		<path class="st1" d="M212.6,231h-1.5v-1.7h-1.7v-1.7h-1.7h-1.7h-1.7h-1.7v1.7H201v-1.7h-1.7h-1.7v1.7v1.7v1.7v1.7v1.7v1.7v1.7v1.7
			v1.7v1.7v1.7v1.7h1.7h1.7v-1.7v-1.7v-1.7v-1.7h1.7v1.7h1.7h1.7h1.7h1.7v-1.7h1.7v-1.7h1.5h0.2v-1.7V236v-1.7v-1.7V231H212.6z
			 M209.4,234.4v1.7v1.7h-1.7v1.7h-1.7h-1.7h-1.7v-1.7H201V236v-1.7v-1.7h1.7V231h1.7h1.7h1.7v1.7h1.7V234.4z"/>
		<polygon id="XMLID_3705_" class="st1" points="196,227.7 196,229.4 196,231 196,232.7 196,234.4 196,236 196,237.7 196,239.4 
			196,241.1 196,242.7 194.3,242.7 192.7,242.7 192.7,241.1 191,241.1 191,242.7 189.3,242.7 187.6,242.7 186,242.7 184.3,242.7 
			184.3,241.1 182.6,241.1 182.6,239.4 182.6,237.7 182.6,236 182.6,234.4 182.6,232.7 182.6,231 182.6,229.4 182.6,227.7 
			184.3,227.7 186,227.7 186,229.4 186,231 186,232.7 186,234.4 186,236 186,237.7 186,239.4 187.6,239.4 189.3,239.4 191,239.4 
			191,237.7 192.7,237.7 192.7,236 192.7,234.4 192.7,232.7 192.7,231 192.7,229.4 192.7,227.7 194.3,227.7 		"/>
		<path class="st1" d="M179.3,231v-1.7h-1.7v-1.7h-1.7h-1.7h-1.7h-1.7h-1.7v1.7h-1.7v1.7h-1.7v1.7v1.7v1.7v1.7v1.7h1.7v1.7h1.7v1.7
			h1.7h1.7h1.7h1.7h1.7v-1.7h1.7v-1.7h1.7v-1.7V236v-1.7v-1.7V231H179.3z M177.6,234.4v1.7v1.7h-1.7v1.7h-1.7h-1.7h-1.7v-1.7h-1.7
			V236v-1.7v-1.7h1.7V231h1.7h1.7h1.7v1.7h1.7V234.4z"/>
		<polygon id="XMLID_3704_" class="st1" points="164,227.6 164,229.2 164.1,230.9 162.4,231 160.7,231 160.8,232.7 159.1,232.7 
			159.1,234.4 159.2,236.1 159.2,237.7 159.3,239.4 159.4,241.1 159.4,242.7 157.7,242.8 156.1,242.9 156,241.2 156,239.5 
			155.9,237.8 155.8,236.2 155.8,234.5 155.7,232.8 155.7,231.2 155.6,229.5 155.6,227.8 157.3,227.8 158.9,227.7 159,229.4 
			160.7,229.3 160.6,227.7 162.3,227.6 		"/>
		<polygon id="XMLID_3703_" class="st1" points="154.1,231 154.1,232.7 154.1,234.4 154.1,236 152.5,236 152.5,237.7 152.5,239.4 
			150.8,239.4 150.8,241.1 149.1,241.1 147.4,241.1 147.4,242.7 145.8,242.7 144.1,242.7 142.4,242.7 140.7,242.7 139.1,242.7 
			139.1,241.1 137.4,241.1 135.7,241.1 135.7,239.4 134.1,239.4 134.1,237.7 134.1,236 132.4,236 132.4,234.4 132.4,232.7 
			132.4,231 132.4,229.4 132.4,227.7 134.1,227.7 134.1,226 134.1,224.4 135.7,224.4 135.7,222.7 137.4,222.7 139.1,222.7 
			139.1,221 140.7,221 142.4,221 144.1,221 145.8,221 147.4,221 147.4,222.7 149.1,222.7 150.8,222.7 150.8,224.4 150.8,226 
			149.1,226 147.4,226 147.4,224.4 145.8,224.4 144.1,224.4 142.4,224.4 140.7,224.4 139.1,224.4 139.1,226 137.4,226 137.4,227.7 
			135.7,227.7 135.7,229.4 135.7,231 135.7,232.7 135.7,234.4 135.7,236 137.4,236 137.4,237.7 139.1,237.7 139.1,239.4 
			140.7,239.4 142.4,239.4 144.1,239.4 145.8,239.4 147.4,239.4 147.4,237.7 149.1,237.7 149.1,236 150.8,236 150.8,234.4 
			149.1,234.4 147.4,234.4 145.8,234.4 144.1,234.4 144.1,232.7 144.1,231 145.8,231 147.4,231 149.1,231 150.8,231 152.5,231 		"/>
		<polygon id="XMLID_3702_" class="st1" points="125.7,229.4 125.7,231 125.7,232.7 124,232.7 122.3,232.7 122.3,231 120.7,231 
			120.7,229.4 119,229.4 119,231 117.3,231 117.3,232.7 119,232.7 119,234.4 120.7,234.4 122.3,234.4 124,234.4 124,236 125.7,236 
			125.7,237.7 125.7,239.4 125.7,241.1 124,241.1 124,242.7 122.3,242.7 120.7,242.7 119,242.7 117.3,242.7 115.6,242.7 
			115.6,241.1 114,241.1 114,239.4 114,237.7 115.6,237.7 117.3,237.7 117.3,239.4 119,239.4 119,241.1 120.7,241.1 120.7,239.4 
			122.3,239.4 122.3,237.7 120.7,237.7 120.7,236 119,236 117.3,236 115.6,236 115.6,234.4 114,234.4 114,232.7 114,231 114,229.4 
			115.6,229.4 115.6,227.7 117.3,227.7 119,227.7 120.7,227.7 122.3,227.7 124,227.7 124,229.4 		"/>
		<polygon id="XMLID_3701_" class="st1" points="112.3,227.7 112.3,229.4 112.3,231 110.6,231 108.9,231 108.9,232.7 107.3,232.7 
			107.3,234.4 107.3,236 107.3,237.7 107.3,239.4 107.3,241.1 107.3,242.7 105.6,242.7 103.9,242.7 103.9,241.1 103.9,239.4 
			103.9,237.7 103.9,236 103.9,234.4 103.9,232.7 103.9,231 103.9,229.4 103.9,227.7 105.6,227.7 107.3,227.7 107.3,229.4 
			108.9,229.4 108.9,227.7 110.6,227.7 		"/>
		<path class="st1" d="M100.6,231v-1.7h-1.7v-1.7H97h-1.7h-1.7H92v1.7h-1.7v1.7h-1.7v1.7v1.7v1.7v1.7v1.7h1.7v1.7H92v1.7h1.7h1.7H97
			h1.9v-1.7h1.7v-1.7h1.7v-1.7h-1.7h-1.7v1.7H97h-1.7h-1.7H92v-1.7V236h1.7h1.7H97h1.9h1.7h1.7v-1.7v-1.7V231H100.6z M98.9,232.7H97
			h-1.7h-1.7H92V231h1.7h1.7H97h1.9V232.7z"/>
		<path class="st1" d="M85.3,232.7V231v-1.7h-1.7v-1.7h-1.7h-1.7h-1.7h-1.7v1.7h-1.7v-1.7h-1.7h-1.7v1.7v1.7v1.7v1.7v1.7v1.7v1.7
			v1.7v1.7v1.7v1.7v1.7h1.7h1.7v-1.7v-1.7v-1.7v-1.7h1.7v1.7h1.7h1.7h1.7h1.7v-1.7h1.7v-1.7v-1.7h1.7V236v-1.7v-1.7H85.3z
			 M83.6,234.4v1.7v1.7h-1.7v1.7h-1.7h-1.7h-1.7v-1.7h-1.7V236v-1.7v-1.7h1.7V231h1.7h1.7h1.7v1.7h1.7V234.4z"/>
		<path class="st1" d="M68.5,231v-1.7h-1.7v-1.7h-1.7h-1.7h-1.7h-1.7h-1.7v1.7h-1.7v1.7h-1.7v1.7v1.7v1.7v1.7v1.7h1.7v1.7h1.7v1.7
			h1.7h1.7h1.7h1.7h1.7v-1.7h1.7v-1.7h1.7v-1.7V236v-1.7v-1.7V231H68.5z M66.8,234.4v1.7v1.7h-1.7v1.7h-1.7h-1.7h-1.7v-1.7h-1.7V236
			v-1.7v-1.7h1.7V231h1.7h1.7h1.7v1.7h1.7V234.4z"/>
		<polygon id="XMLID_3700_" class="st1" points="53.5,221 53.5,222.7 53.5,224.4 53.5,226 53.5,227.7 53.5,229.4 53.5,231 
			53.5,232.7 53.5,234.4 53.5,236 53.5,237.7 53.5,239.4 53.5,241.1 53.5,242.7 51.8,242.7 50.1,242.7 50.1,241.1 50.1,239.4 
			50.1,237.7 50.1,236 50.1,234.4 50.1,232.7 50.1,231 50.1,229.4 50.1,227.7 50.1,226 50.1,224.4 50.1,222.7 50.1,221 51.8,221 		
			"/>
		<path class="st1" d="M46.8,231v-1.7h-1.7v-1.7h-1.7h-1.7h-1.7h-1.7v1.7h-1.7v1.7H35v1.7v1.7v1.7v1.7v1.7h1.7v1.7h1.7v1.7h1.7h1.7
			h1.7h1.7v-1.7h1.7v-1.7h1.7v-1.7h-1.7h-1.7v1.7h-1.7h-1.7h-1.7h-1.7v-1.7V236h1.7h1.7h1.7h1.7h1.7h1.7v-1.7v-1.7V231H46.8z
			 M45.1,232.7h-1.7h-1.7h-1.7h-1.7V231h1.7h1.7h1.7h1.7V232.7z"/>
		<polygon id="XMLID_3699_" class="st1" points="33.4,227.7 33.4,229.4 33.4,231 33.4,232.7 31.7,232.7 31.7,234.4 31.7,236 30,236 
			30,237.7 30,239.4 28.3,239.4 28.3,241.1 28.3,242.7 26.7,242.7 25,242.7 25,241.1 25,239.4 23.3,239.4 23.3,237.7 23.3,236 
			21.6,236 21.6,234.4 21.6,232.7 20,232.7 20,231 20,229.4 20,227.7 21.6,227.7 23.3,227.7 23.3,229.4 23.3,231 23.3,232.7 
			25,232.7 25,234.4 25,236 26.7,236 28.3,236 28.3,234.4 28.3,232.7 30,232.7 30,231 30,229.4 30,227.7 31.7,227.7 		"/>
		<path class="st1" d="M16.6,231v-1.7h-1.7v-1.7h-1.7h-1.7H9.9H8.2v1.7H6.6v1.7H4.9v1.7v1.7v1.7v1.7v1.7h1.7v1.7h1.7v1.7h1.7h1.7
			h1.7h1.7v-1.7h1.7v-1.7h1.7v-1.7h-1.7h-1.7v1.7h-1.7h-1.7H9.9H8.2v-1.7V236h1.7h1.7h1.7h1.7h1.7h1.7v-1.7v-1.7V231H16.6z
			 M14.9,232.7h-1.7h-1.7H9.9H8.2V231h1.7h1.7h1.7h1.7V232.7z"/>
		<path class="st1" d="M1.5,227.7V226v-1.7h-1.7v-1.7h-1.7h-1.7V221h-1.7h-1.7h-1.7h-1.7h-1.7h-1.7v1.7v1.7v1.7v1.7v1.7v1.7v1.7v1.7
			v1.7v1.7v1.7v1.7v1.7h1.7h1.7h1.7h1.7h1.7h1.7v-1.7h1.7h1.7v-1.7h1.7v-1.7V236h1.7v-1.7v-1.7V231v-1.7v-1.7H1.5z M-0.1,229.4v1.7
			v1.7v1.7v1.7h-1.7v1.7h-1.7v1.7h-1.7h-1.7h-1.7h-1.7v-1.7V236v-1.7v-1.7V231v-1.7v-1.7V226v-1.7h1.7h1.7h1.7h1.7v1.7h1.7v1.7h1.7
			V229.4z"/>
		<path class="st1" d="M-21.6,229.4h-1.7v-1.7H-25h-1.7h-1.7v1.7H-30h-1.7v1.7v1.7h-1.7v1.7v1.7v1.7h1.7v1.7v1.7h1.7h1.7v1.7h1.7
			h1.7h1.7v-1.7h1.7h1.7v-1.7v-1.7h-1.7h-1.7v1.7H-25h-1.7h-1.7v-1.7h1.7v-1.7h1.7h1.7v-1.7h1.7h1.7v-1.7V231v-1.7H-21.6z
			 M-23.3,232.7H-25h-1.7v1.7h-1.7H-30v-1.7h1.7V231h1.7h1.7h1.7V232.7z"/>
		<polygon id="XMLID_3698_" class="st1" points="-35,221 -35,222.7 -35,224.4 -35,226 -35,227.7 -35,229.4 -35,231 -35,232.7 
			-35,234.4 -35,236.1 -35,237.7 -35,239.4 -35,241.1 -35,242.7 -36.7,242.7 -38.4,242.7 -38.4,241.1 -38.4,239.4 -38.4,237.7 
			-38.4,236.1 -38.4,234.4 -38.4,232.7 -38.4,231 -38.4,229.4 -38.4,227.7 -38.4,226 -38.4,224.4 -38.4,222.7 -38.4,221 -36.7,221 
					"/>
		<path class="st1" d="M-41.7,227.7h-1.7v1.7h-1.7v-1.7h-1.7h-1.7h-1.7v1.7h-1.7v1.7h-1.7v1.7v1.7v1.7v1.7v1.7h1.7v1.7h1.7v1.7h1.7
			h1.7h1.7v-1.7h1.7v1.7v1.7h-1.7v1.7h-1.7h-1.7h-1.7v-1.7h-1.7h-1.7v1.7v1.7h1.7h1.7v1.7h1.7h1.7h1.7v-1.7h1.7h1.7v-1.7h1.7v-1.7
			v-1.7v-1.7v-1.7v-1.7v-1.7v-1.7v-1.7V231v-1.7v-1.7H-41.7z M-43.4,234.4v1.7v1.7h-1.7v1.7h-1.7h-1.7v-1.7h-1.7v-1.7v-1.7v-1.7h1.7
			V231h1.7h1.7v1.7h1.7V234.4z"/>
		<path class="st1" d="M-56.8,232.7V231v-1.7h-1.7h-1.7v-1.7h-1.7h-1.7h-1.7v1.7h-1.7h-1.7v1.7v1.7h-1.7v1.7v1.7v1.7h1.7v1.7v1.7
			h1.7h1.7v1.7h1.7h1.7h1.7v-1.7h1.7h1.7v-1.7v-1.7h1.7v-1.7v-1.7v-1.7H-56.8z M-58.5,234.4v1.7v1.7h-1.7v1.7h-1.7h-1.7h-1.7v-1.7
			h-1.7v-1.7v-1.7v-1.7h1.7V231h1.7h1.7h1.7v1.7h1.7V234.4z"/>
		<path class="st1" d="M-73.5,232.7V231v-1.7h-1.7h-1.7v-1.7h-1.7h-1.7h-1.7v1.7h-1.7h-1.7v1.7v1.7h-1.7v1.7v1.7v1.7h1.7v1.7v1.7
			h1.7h1.7v1.7h1.7h1.7h1.7v-1.7h1.7h1.7v-1.7v-1.7h1.7v-1.7v-1.7v-1.7H-73.5z M-75.2,234.4v1.7v1.7h-1.7v1.7h-1.7h-1.7h-1.7v-1.7
			h-1.7v-1.7v-1.7v-1.7h1.7V231h1.7h1.7h1.7v1.7h1.7V234.4z"/>
		<polygon id="XMLID_3697_" class="st1" points="-88.6,229.4 -88.6,231 -88.6,232.7 -88.6,234.4 -88.6,236.1 -88.6,237.7 
			-90.3,237.7 -90.3,239.4 -92,239.4 -92,241.1 -93.6,241.1 -95.3,241.1 -95.3,242.7 -97,242.7 -98.7,242.7 -100.3,242.7 
			-102,242.7 -102,241.1 -103.7,241.1 -105.4,241.1 -105.4,239.4 -107,239.4 -107,237.7 -108.7,237.7 -108.7,236.1 -108.7,234.4 
			-110.4,234.4 -110.4,232.7 -110.4,231 -110.4,229.4 -110.4,227.7 -108.7,227.7 -108.7,226 -108.7,224.4 -107,224.4 -107,222.7 
			-105.4,222.7 -105.4,221 -103.7,221 -102,221 -102,219.4 -100.3,219.4 -98.7,219.4 -97,219.4 -95.3,219.4 -95.3,221 -93.6,221 
			-92,221 -92,222.7 -92,224.4 -93.6,224.4 -95.3,224.4 -95.3,222.7 -97,222.7 -98.7,222.7 -100.3,222.7 -102,222.7 -102,224.4 
			-103.7,224.4 -103.7,226 -105.4,226 -105.4,227.7 -107,227.7 -107,229.4 -107,231 -107,232.7 -107,234.4 -105.4,234.4 
			-105.4,236.1 -103.7,236.1 -103.7,237.7 -102,237.7 -102,239.4 -100.3,239.4 -98.7,239.4 -97,239.4 -95.3,239.4 -95.3,237.7 
			-93.6,237.7 -93.6,236.1 -92,236.1 -92,234.4 -92,232.7 -93.6,232.7 -95.3,232.7 -97,232.7 -98.7,232.7 -98.7,231 -98.7,229.4 
			-97,229.4 -95.3,229.4 -93.6,229.4 -92,229.4 -90.3,229.4 		"/>
		<g>
			<polygon class="st2" points="-123.8,237.5 -123.8,236.4 -125,236.4 -125,237.5 -126.1,237.5 -126.1,238.6 -127.2,238.6 
				-127.2,239.8 -127.2,240.9 -128.4,240.9 -128.4,242 -128.4,243.2 -129.5,243.2 -129.5,244.3 -129.5,245.5 -128.4,245.5 
				-127.2,245.5 -126.1,245.5 -125,245.5 -125,244.3 -125,243.2 -123.8,243.2 -123.8,242 -122.7,242 -122.7,240.9 -122.7,239.8 
				-122.7,238.6 -122.7,237.5 			"/>
			<polygon class="st3" points="-118.1,230.7 -118.1,229.5 -118.1,228.4 -119.3,228.4 -119.3,227.3 -120.4,227.3 -120.4,226.1 
				-120.4,225 -121.5,225 -121.5,223.8 -121.5,222.7 -122.7,222.7 -122.7,221.6 -122.7,220.4 -123.8,220.4 -123.8,219.3 -125,219.3 
				-125,218.1 -125,217 -126.1,217 -127.2,217 -128.4,217 -129.5,217 -129.5,218.1 -129.5,219.3 -128.4,219.3 -128.4,220.4 
				-127.2,220.4 -127.2,221.6 -127.2,222.7 -126.1,222.7 -126.1,223.8 -126.1,225 -125,225 -125,226.1 -125,227.3 -123.8,227.3 
				-123.8,228.4 -123.8,229.5 -122.7,229.5 -122.7,230.7 -121.5,230.7 -121.5,231.8 -121.5,232.9 -120.4,232.9 -120.4,234.1 
				-120.4,235.2 -119.3,235.2 -119.3,234.1 -118.1,234.1 -118.1,232.9 -118.1,231.8 -117,231.8 -117,230.7 			"/>
			<polygon class="st4" points="-126.1,234.1 -126.1,232.9 -126.1,231.8 -127.2,231.8 -128.4,231.8 -128.4,232.9 -128.4,234.1 
				-129.5,234.1 -129.5,235.2 -129.5,236.4 -130.7,236.4 -130.7,237.5 -131.8,237.5 -131.8,238.6 -131.8,239.8 -132.9,239.8 
				-132.9,240.9 -132.9,242 -134.1,242 -134.1,243.2 -134.1,244.3 -135.2,244.3 -135.2,245.5 -134.1,245.5 -132.9,245.5 
				-131.8,245.5 -130.7,245.5 -129.5,245.5 -129.5,244.3 -129.5,243.2 -128.4,243.2 -128.4,242 -128.4,240.9 -127.2,240.9 
				-127.2,239.8 -127.2,238.6 -126.1,238.6 -126.1,237.5 -125,237.5 -125,236.4 -125,235.2 -125,234.1 			"/>
			<polygon class="st5" points="-120.4,235.2 -120.4,234.1 -120.4,232.9 -121.5,232.9 -121.5,231.8 -121.5,230.7 -122.7,230.7 
				-122.7,229.5 -123.8,229.5 -123.8,228.4 -123.8,227.3 -125,227.3 -125,226.1 -125,225 -126.1,225 -126.1,223.8 -126.1,222.7 
				-127.2,222.7 -127.2,221.6 -127.2,220.4 -128.4,220.4 -128.4,219.3 -129.5,219.3 -129.5,218.1 -129.5,217 -130.7,217 -131.8,217 
				-132.9,217 -134.1,217 -135.2,217 -135.2,218.1 -134.1,218.1 -134.1,219.3 -134.1,220.4 -132.9,220.4 -132.9,221.6 -132.9,222.7 
				-131.8,222.7 -131.8,223.8 -130.7,223.8 -130.7,225 -130.7,226.1 -129.5,226.1 -129.5,227.3 -129.5,228.4 -128.4,228.4 
				-128.4,229.5 -128.4,230.7 -127.2,230.7 -127.2,231.8 -126.1,231.8 -126.1,232.9 -126.1,234.1 -125,234.1 -125,235.2 -125,236.4 
				-123.8,236.4 -123.8,237.5 -122.7,237.5 -122.7,238.6 -122.7,239.8 -121.5,239.8 -121.5,238.6 -121.5,237.5 -120.4,237.5 
				-120.4,236.4 -119.3,236.4 -119.3,235.2 			"/>
		</g>
	</g>
</g>
</svg>
