<?xml version="1.0" encoding="utf-8"?>
<!-- Generator: Adobe Illustrator 19.0.0, SVG Export Plug-In . SVG Version: 6.00 Build 0)  -->
<svg version="1.1" id="Layer_4" xmlns="http://www.w3.org/2000/svg" xmlns:xlink="http://www.w3.org/1999/xlink" x="0px" y="0px"
	 viewBox="-220 301 839 200" style="enable-background:new -220 301 839 200;" xml:space="preserve">
<style type="text/css">
	.st0{fill:#FFFFFF;}
	.st1{font-family:'ProductSans-Regular';}
	.st2{font-size:105px;}
	.st3{font-size:104px;}
</style>
<g id="XMLID_7_">
	<path id="XMLID_2_" class="st0" d="M55.5,352.8c0,10.9-3.2,19.7-9.7,26.1c-7.4,7.7-17,11.6-28.8,11.6c-11.3,0-20.9-3.9-28.8-11.8
		c-7.9-7.8-11.9-17.6-11.9-29.1s4-21.3,11.9-29.1S5.7,308.7,17,308.7c5.6,0,11,1.1,16.1,3.3c5.1,2.2,9.2,5.1,12.2,8.8l-6.9,6.9
		c-5.2-6.2-12.3-9.3-21.4-9.3c-8.2,0-15.4,2.9-21.4,8.7c-6,5.8-9,13.3-9,22.6c0,9.3,3,16.8,9,22.6c6,5.8,13.1,8.7,21.4,8.7
		c8.8,0,16-2.9,21.9-8.8c3.8-3.8,6-9.1,6.6-15.9H17v-9.4h38C55.3,349,55.5,350.9,55.5,352.8L55.5,352.8z"/>
	<path id="XMLID_4_" class="st0" d="M65.4,388.8v-78.3h24c12,0,21.7,3.6,28.9,10.9c7.2,7.3,10.8,16.7,10.8,28.3
		c0,11.6-3.6,21-10.8,28.3c-7.2,7.3-16.8,10.9-28.9,10.9h-24V388.8z M75.5,379.2h13.9c9,0,16.2-2.6,21.5-7.8
		c5.3-5.2,7.9-12.4,7.9-21.8c0-9.3-2.6-16.5-7.9-21.7c-5.3-5.2-12.5-7.8-21.5-7.8H75.5C75.5,320.1,75.5,379.2,75.5,379.2z"/>
	<path id="XMLID_8_" class="st0" d="M214.5,352.8c0,10.9-3.2,19.7-9.7,26.1c-7.4,7.7-17,11.6-28.8,11.6c-11.3,0-20.9-3.9-28.8-11.8
		c-7.9-7.8-11.9-17.6-11.9-29.1s4-21.3,11.9-29.1s17.5-11.8,28.8-11.8c5.6,0,11,1.1,16.1,3.3s9.2,5.1,12.2,8.8l-6.9,6.9
		c-5.2-6.2-12.3-9.3-21.4-9.3c-8.2,0-15.4,2.9-21.4,8.7c-6,5.8-9,13.3-9,22.6c0,9.3,3,16.8,9,22.6c6,5.8,13.1,8.7,21.4,8.7
		c8.8,0,16-2.9,21.9-8.8c3.8-3.8,6-9.1,6.6-15.9H176v-9.4h38C214.3,349,214.5,350.9,214.5,352.8L214.5,352.8z"/>
	<path id="XMLID_10_" class="st0" d="M250.8,388.8v-78.3h24c12,0,21.7,3.6,28.9,10.9c7.2,7.3,10.8,16.7,10.8,28.3
		c0,11.6-3.6,21-10.8,28.3s-16.8,10.9-28.9,10.9h-24L250.8,388.8z M260.9,379.2h13.9c9,0,16.2-2.6,21.5-7.8
		c5.3-5.2,7.9-12.4,7.9-21.8c0-9.3-2.6-16.5-7.9-21.7c-5.3-5.2-12.5-7.8-21.5-7.8h-13.9C260.9,320.1,260.9,379.2,260.9,379.2z"/>
	<path id="XMLID_13_" class="st0" d="M347.4,390.6c-8.1,0-14.7-2.7-19.7-8.1c-5.1-5.4-7.6-12.2-7.6-20.5c0-7.8,2.5-14.5,7.4-20.1
		s11.2-8.4,18.9-8.4c7.9,0,14.3,2.6,19.1,7.8c4.8,5.2,7.2,12.1,7.2,20.8l-0.1,1.9h-42.3c0.3,5.4,2.1,9.7,5.4,12.8
		c3.3,3.1,7.2,4.7,11.6,4.7c7.2,0,12.1-3.1,14.7-9.2l9,3.7c-1.8,4.2-4.6,7.6-8.6,10.4C358.2,389.2,353.3,390.6,347.4,390.6
		L347.4,390.6z M361.9,355.6c-0.2-3.1-1.6-6-4.2-8.8c-2.6-2.8-6.4-4.2-11.5-4.2c-3.7,0-6.9,1.2-9.7,3.5c-2.7,2.3-4.6,5.5-5.6,9.4h31
		V355.6z"/>
	<path id="XMLID_16_" class="st0" d="M393.7,388.8L372,335.2h11l15.8,41.6h0.2l16-41.6h10.7l-21.9,53.6H393.7z"/>
	<path id="XMLID_18_" class="st0" d="M441.6,388.8h-10.1v-78.3h45.7v9.6h-35.7v25.7h32.2v9.4h-32.2L441.6,388.8L441.6,388.8z"/>
	<path id="XMLID_20_" class="st0" d="M507.7,390.6c-8.1,0-14.7-2.7-19.7-8.1c-5.1-5.4-7.6-12.2-7.6-20.5c0-7.8,2.5-14.5,7.4-20.1
		s11.2-8.4,18.9-8.4c7.9,0,14.3,2.6,19.1,7.8c4.8,5.2,7.2,12.1,7.2,20.8l-0.1,1.9h-42.3c0.3,5.4,2.1,9.7,5.4,12.8
		c3.3,3.1,7.2,4.7,11.6,4.7c7.2,0,12.1-3.1,14.7-9.2l9,3.7c-1.8,4.2-4.6,7.6-8.6,10.4C518.4,389.2,513.5,390.6,507.7,390.6
		L507.7,390.6z M522.1,355.6c-0.2-3.1-1.6-6-4.2-8.8c-2.6-2.8-6.4-4.2-11.5-4.2c-3.7,0-6.9,1.2-9.7,3.5c-2.7,2.3-4.6,5.5-5.6,9.4h31
		V355.6z"/>
	<path id="XMLID_27_" class="st0" d="M559.5,390.6c-6,0-10.9-1.5-14.8-4.4c-3.9-2.9-6.8-6.6-8.6-10.9l9-3.7
		c2.8,6.7,7.7,10.1,14.5,10.1c3.1,0,5.7-0.7,7.7-2.1s3-3.2,3-5.5c0-3.5-2.4-5.9-7.3-7.1l-10.8-2.6c-3.4-0.9-6.7-2.5-9.7-5
		c-3.1-2.4-4.6-5.7-4.6-9.9c0-4.7,2.1-8.6,6.3-11.5c4.2-3,9.2-4.4,14.9-4.4c4.7,0,9,1.1,12.7,3.2c3.7,2.2,6.4,5.2,8,9.2l-8.8,3.6
		c-2-4.7-6.1-7.1-12.2-7.1c-3,0-5.5,0.6-7.5,1.9c-2,1.2-3.1,2.9-3.1,5c0,3.1,2.4,5.1,7.1,6.2l10.6,2.5c5,1.2,8.8,3.2,11.2,6
		c2.4,2.8,3.6,6.1,3.6,9.6c0,4.8-2,8.8-5.9,12C570.8,389,565.7,390.6,559.5,390.6L559.5,390.6z"/>
	<path id="XMLID_29_" class="st0" d="M610.9,389.7c-5.6,0-9.9-1.5-12.9-4.5s-4.4-7.2-4.4-12.7v-28.1h-9.4v-9.2h9.4v-16.4h10.1v16.4
		h13.1v9.2h-13.1v27.3c0,5.8,2.4,8.8,7.2,8.8c1.8,0,3.4-0.3,4.6-0.9l3.5,8.6C616.8,389.2,614.1,389.7,610.9,389.7L610.9,389.7z"/>
</g>
<g id="XMLID_261_">
	<path id="XMLID_259_" class="st0" d="M-187.7,301H-220l92.3,160l16.2-28L-187.7,301z"/>
	<path id="XMLID_258_" class="st0" d="M-99.1,392l-52.6-91h-32.2l74.3,128.8l10.5-18.2c1.7-2.8,2.8-6.2,2.8-9.8
		C-96.4,398.2-97.4,394.9-99.1,392z"/>
	<path id="XMLID_257_" class="st0" d="M-163.7,405.1l-55.4,95.9h32.3l39.3-68L-163.7,405.1z"/>
	<path id="XMLID_256_" class="st0" d="M-145.7,436.3L-183,501h32.2l21.3-36.8L-145.7,436.3z"/>
</g>
<text transform="matrix(1 0 0 1 398.8504 477.55)" class="st0 st1 st2">2017</text>
<text transform="matrix(1 0 0 1 -12.8996 477.1)" class="st0 st1 st3">Tekirdag</text>
</svg>
