<?xml version="1.0" encoding="utf-8"?>
<!-- Generator: Adobe Illustrator 21.0.2, SVG Export Plug-In . SVG Version: 6.00 Build 0)  -->
<svg version="1.1" id="Layer_1" xmlns="http://www.w3.org/2000/svg" xmlns:xlink="http://www.w3.org/1999/xlink" x="0px" y="0px"
	 viewBox="0 0 766.9 72" style="enable-background:new 0 0 766.9 72;" xml:space="preserve">
<style type="text/css">
	.st0{fill:#FFFFFF;}
</style>
<g>
	<g>
		<polygon class="st0" points="26,50.3 13.4,72 23.1,72 30.8,58.6 		"/>
		<polygon class="st0" points="19.3,38.7 0,72 10.3,72 24.5,47.6 		"/>
		<polygon class="st0" points="37.5,47 10.3,0 0,0 32.3,56 		"/>
		<path class="st0" d="M42.2,38.9c1-1.8,1-3.9,0-5.7L23,0h-9.7L39,44.4L42.2,38.9z"/>
	</g>
	<g>
		<path class="st0" d="M71.4,64.1V7.4h17.3c8.7,0,15.6,2.6,20.9,7.8c5.3,5.2,7.9,12.1,7.9,20.5c0,8.5-2.6,15.3-7.9,20.5
			c-5.3,5.2-12.2,7.8-20.9,7.8H71.4V64.1z M78.7,14.3v42.8h10.1c6.6,0,11.8-1.9,15.6-5.7c3.8-3.8,5.7-9,5.7-15.7s-1.9-11.9-5.7-15.7
			c-3.8-3.8-9-5.7-15.6-5.7L78.7,14.3L78.7,14.3z"/>
		<path class="st0" d="M141.1,65.3c-5.7,0-10.4-2-14.1-5.9c-3.7-3.9-5.5-8.8-5.5-14.8c0-5.9,1.8-10.8,5.4-14.8
			c3.6-3.9,8.2-5.9,13.8-5.9c5.8,0,10.3,1.9,13.7,5.6s5.1,8.9,5.1,15.6l-0.1,0.8h-30.5c0.1,3.8,1.4,6.9,3.8,9.2
			c2.4,2.3,5.3,3.5,8.7,3.5c4.6,0,8.3-2.3,10.9-7l6.5,3.2c-1.7,3.3-4.2,5.8-7.2,7.7S145,65.3,141.1,65.3z M129.5,40h22.2
			c-0.2-2.7-1.3-4.9-3.3-6.7c-2-1.8-4.6-2.7-8-2.7c-2.7,0-5.1,0.8-7.1,2.5C131.4,34.9,130.1,37.1,129.5,40z"/>
		<path class="st0" d="M184.2,64.1h-7.3l-15.7-38.8h7.9l11.4,30.1h0.2l11.6-30.1h7.8L184.2,64.1z"/>
		<path class="st0" d="M213.3,39.8v24.3H206V7.4h33.1v7h-25.8V33h23.3v6.8H213.3z"/>
		<path class="st0" d="M261.1,65.3c-5.7,0-10.4-2-14.1-5.9s-5.5-8.8-5.5-14.8c0-5.9,1.8-10.8,5.4-14.8c3.6-3.9,8.2-5.9,13.8-5.9
			c5.8,0,10.3,1.9,13.7,5.6c3.4,3.7,5.1,8.9,5.1,15.6l-0.1,0.8h-30.5c0.1,3.8,1.4,6.9,3.8,9.2c2.4,2.3,5.3,3.5,8.7,3.5
			c4.6,0,8.3-2.3,10.9-7l6.5,3.2c-1.7,3.3-4.2,5.8-7.2,7.7C268.6,64.4,265.1,65.3,261.1,65.3z M249.5,40h22.2
			c-0.2-2.7-1.3-4.9-3.3-6.7c-2-1.8-4.6-2.7-8-2.7c-2.7,0-5.1,0.8-7.1,2.5C251.4,34.9,250.1,37.1,249.5,40z"/>
		<path class="st0" d="M316.3,53.3c0,3.4-1.5,6.2-4.4,8.6c-3,2.3-6.7,3.5-11.2,3.5c-3.9,0-7.3-1-10.3-3s-5.1-4.7-6.3-8l6.5-2.8
			c1,2.3,2.3,4.1,4.2,5.4c1.8,1.3,3.8,1.9,6,1.9c2.3,0,4.3-0.5,5.8-1.5c1.6-1,2.3-2.2,2.3-3.6c0-2.5-1.9-4.3-5.7-5.5l-6.6-1.7
			c-7.6-1.9-11.3-5.5-11.3-10.9c0-3.5,1.4-6.4,4.3-8.5s6.6-3.2,11-3.2c3.4,0,6.5,0.8,9.3,2.5c2.8,1.6,4.7,3.8,5.8,6.6l-6.5,2.7
			c-0.7-1.6-1.9-2.9-3.6-3.8s-3.5-1.4-5.6-1.4c-1.9,0-3.6,0.5-5.1,1.4s-2.3,2.1-2.3,3.5c0,2.2,2.1,3.8,6.3,4.8l5.9,1.5
			C312.4,43.6,316.3,47.4,316.3,53.3z"/>
		<path class="st0" d="M337.6,64.7c-3.2,0-5.8-1-7.9-2.9c-2.1-2-3.2-4.7-3.2-8.2V31.9h-6.8v-6.7h6.8V13.4h7.3v11.9h9.5V32h-9.5v19.3
			c0,2.6,0.5,4.3,1.5,5.3c1,0.9,2.1,1.4,3.4,1.4c0.6,0,1.1-0.1,1.7-0.2s1.1-0.3,1.5-0.5l2.3,6.5C342.3,64.4,340.1,64.7,337.6,64.7z"
			/>
		<path class="st0" d="M368.9,64.1V7.4h20.5c4.5,0,8.3,1.5,11.6,4.4c3.2,2.9,4.8,6.6,4.8,11c0,5.6-2.6,9.5-7.7,11.8v0.3
			c2.9,1,5.2,2.6,7,4.9c1.7,2.3,2.6,5,2.6,8c0,4.6-1.7,8.5-5.1,11.6c-3.3,3.1-7.3,4.6-12.1,4.6h-21.6V64.1z M376.2,14.3v17.3h13.2
			c2.6,0,4.8-0.9,6.5-2.6c1.7-1.8,2.6-3.8,2.6-6.1c0-2.2-0.8-4.2-2.5-6c-1.7-1.7-3.8-2.6-6.3-2.6L376.2,14.3L376.2,14.3z
			 M376.2,38.5v18.6h14.6c2.6,0,4.9-0.9,6.7-2.8c1.8-1.8,2.7-4,2.7-6.6c0-2.5-0.9-4.6-2.8-6.5c-1.8-1.8-4.2-2.8-7-2.8L376.2,38.5
			L376.2,38.5z"/>
		<path class="st0" d="M429.4,24c5.4,0,9.6,1.4,12.7,4.3s4.7,6.8,4.7,11.8V64h-7v-5.4h-0.3c-3,4.4-7,6.7-12,6.7
			c-4.3,0-7.9-1.3-10.7-3.8c-2.9-2.5-4.3-5.7-4.3-9.5c0-4,1.5-7.2,4.6-9.6c3-2.4,7.1-3.6,12.2-3.6c4.3,0,7.9,0.8,10.7,2.4v-1.7
			c0-2.5-1-4.7-3-6.5s-4.4-2.7-7-2.7c-4.1,0-7.3,1.7-9.7,5.1l-6.4-4C417.3,26.5,422.5,24,429.4,24z M420,52.2c0,1.9,0.8,3.5,2.4,4.8
			s3.5,1.9,5.7,1.9c3.1,0,5.8-1.1,8.2-3.4c2.4-2.3,3.6-4.9,3.6-8c-2.3-1.8-5.4-2.7-9.5-2.7c-3,0-5.4,0.7-7.4,2.1
			C421,48.3,420,50.1,420,52.2z"/>
		<path class="st0" d="M462.3,7.4v56.7H455V7.4H462.3z"/>
		<path class="st0" d="M487,64.7c-3.2,0-5.8-1-7.9-2.9c-2.1-2-3.2-4.7-3.2-8.2V31.9h-6.8v-6.7h6.8V13.4h7.3v11.9h9.5V32h-9.5v19.3
			c0,2.6,0.5,4.3,1.5,5.3c1,0.9,2.1,1.4,3.4,1.4c0.6,0,1.1-0.1,1.7-0.2c0.6-0.1,1.1-0.3,1.5-0.5l2.3,6.5
			C491.7,64.4,489.5,64.7,487,64.7z"/>
		<path class="st0" d="M509.4,11.9c0,1.4-0.5,2.6-1.5,3.6s-2.2,1.5-3.6,1.5c-1.4,0-2.6-0.5-3.6-1.5s-1.5-2.2-1.5-3.6
			s0.5-2.6,1.5-3.6s2.2-1.5,3.6-1.5c1.4,0,2.6,0.5,3.6,1.5C508.9,9.2,509.4,10.5,509.4,11.9z M507.9,25.3v38.8h-7.3V25.3H507.9z"/>
		<path class="st0" d="M534.8,65.3c-5.8,0-10.5-2-14.3-5.9c-3.7-4-5.6-8.9-5.6-14.8c0-6,1.9-10.9,5.6-14.8c3.8-3.9,8.6-5.9,14.3-5.9
			c4,0,7.4,1,10.4,3s5.2,4.7,6.7,8.2l-6.7,2.8c-2.1-4.9-5.7-7.3-10.8-7.3c-3.3,0-6.2,1.3-8.6,4c-2.4,2.7-3.6,6-3.6,10
			s1.2,7.3,3.6,10c2.4,2.7,5.3,4,8.6,4c5.3,0,9.1-2.4,11.2-7.3l6.5,2.8c-1.4,3.5-3.7,6.2-6.7,8.2C542.3,64.3,538.8,65.3,534.8,65.3z
			"/>
		<path class="st0" d="M588.1,53.3c0,3.4-1.5,6.2-4.4,8.6c-3,2.3-6.7,3.5-11.2,3.5c-3.9,0-7.3-1-10.3-3s-5.1-4.7-6.3-8l6.5-2.8
			c1,2.3,2.3,4.1,4.2,5.4c1.8,1.3,3.8,1.9,6,1.9c2.3,0,4.3-0.5,5.8-1.5c1.6-1,2.3-2.2,2.3-3.6c0-2.5-1.9-4.3-5.7-5.5l-6.6-1.7
			c-7.6-1.9-11.3-5.5-11.3-10.9c0-3.5,1.4-6.4,4.3-8.5c2.9-2.1,6.6-3.2,11-3.2c3.4,0,6.5,0.8,9.3,2.5c2.8,1.6,4.7,3.8,5.8,6.6
			l-6.5,2.7c-0.7-1.6-1.9-2.9-3.6-3.8c-1.7-0.9-3.5-1.4-5.6-1.4c-1.9,0-3.6,0.5-5.1,1.4s-2.3,2.1-2.3,3.5c0,2.2,2.1,3.8,6.3,4.8
			l5.9,1.5C584.2,43.6,588.1,47.4,588.1,53.3z"/>
		<path class="st0" d="M645.1,57.1v7h-34.5v-7.3l14-14.2c4.7-4.8,7.9-8.4,9.7-10.8s2.7-4.9,2.7-7.6c0-2.4-0.9-4.4-2.8-6.1
			c-1.8-1.7-4.2-2.5-7.1-2.5c-2.5,0-4.6,0.7-6.4,2.2c-1.8,1.5-3,3.3-3.5,5.4l-6.7-2.7c1.1-3.3,3.1-6.1,6.1-8.4s6.5-3.4,10.6-3.4
			c4.9,0,9,1.5,12.3,4.5s4.9,6.7,4.9,11.1c0,5.2-2.9,10.9-8.6,16.9L620,57.1H645.1z"/>
		<path class="st0" d="M652,37c0-8.2,2-15,6.1-20.3s9.3-8,15.7-8s11.6,2.7,15.7,8.1c4.1,5.3,6.1,12.1,6.1,20.3
			c0,8.1-2,14.9-6.1,20.3c-4.1,5.3-9.3,8-15.7,8s-11.6-2.7-15.7-8C654.1,51.9,652,45.1,652,37z M688.1,37c0-6.2-1.3-11.3-4-15.4
			c-2.6-4-6-6-10.4-6c-4.3,0-7.8,2-10.4,6c-2.6,4-4,9.1-4,15.4c0,6.2,1.3,11.4,4,15.4c2.6,4,6,5.9,10.4,5.9c4.3,0,7.8-2,10.4-6
			C686.8,48.3,688.1,43.2,688.1,37z"/>
		<path class="st0" d="M722,9.9v54.2h-7.3V19l-10.5,4.6l-2.8-6.2l15.9-7.4h4.7V9.9z"/>
		<path class="st0" d="M766.9,17.4l-26.3,48l-6.5-3.3L759.2,17h-27.4l0.2-7h34.9V17.4z"/>
	</g>
</g>
</svg>
