<?xml version="1.0" encoding="utf-8"?>
<!-- Generator: Adobe Illustrator 23.0.1, SVG Export Plug-In . SVG Version: 6.00 Build 0)  -->
<svg version="1.1" id="Layer_4" xmlns="http://www.w3.org/2000/svg" xmlns:xlink="http://www.w3.org/1999/xlink" x="0px" y="0px"
	 viewBox="0 0 536.9 128" style="enable-background:new 0 0 536.9 128;" xml:space="preserve">
<style type="text/css">
	.st0{fill:none;}
	.st1{fill:#FFC107;}
	.st2{fill:#0F9D58;}
	.st3{opacity:0.2;fill:#BF360C;enable-background:new    ;}
	.st4{opacity:0.2;fill:#263238;enable-background:new    ;}
	.st5{opacity:0.2;fill:#FFFFFF;enable-background:new    ;}
	.st6{fill:url(#XMLID_34_);}
	.st7{fill:url(#XMLID_35_);}
	.st8{fill:#4285F4;}
	.st9{fill:#DB4437;}
	.st10{opacity:0.2;fill:#1A237E;enable-background:new    ;}
	.st11{opacity:0.2;fill:#3E2723;enable-background:new    ;}
	.st12{fill:url(#XMLID_36_);}
	.st13{fill:#FFFFFF;}
</style>
<g id="XMLID_2_">
	<g id="XMLID_3_">
		<g id="XMLID_4_">
			<path id="XMLID_33_" class="st0" d="M78.7,58L45.1,0H0.3l37,64l-37,64h44.8l33.5-58C80.8,66.3,80.8,61.7,78.7,58z"/>
			<path id="XMLID_32_" class="st1" d="M59.4,102.3L48.8,83.9L23.3,128h21.8l14.6-25.2L59.4,102.3z"/>
			<path id="XMLID_31_" class="st0" d="M78.7,58L45.1,0H0.3l37,64l-37,64h44.8l33.5-58C80.8,66.3,80.8,61.7,78.7,58z"/>
			<path id="XMLID_30_" class="st2" d="M37.3,64l11.5,19.9L23.3,128h-23L37.3,64z"/>
			<path id="XMLID_29_" class="st0" d="M78.7,58L45.1,0H0.3l37,64l-37,64h44.8l33.5-58C80.8,66.3,80.8,61.7,78.7,58z"/>
			<path id="XMLID_28_" class="st3" d="M45.1,127H23.8l-0.5,1h21.8l14.6-25.2l-0.3-0.5L45.1,127z"/>
			<path id="XMLID_27_" class="st0" d="M78.7,58L45.1,0H0.3l37,64l-37,64h44.8l33.5-58C80.8,66.3,80.8,61.7,78.7,58z"/>
			<path id="XMLID_26_" class="st4" d="M0.8,127l-0.5,1h23l0.5-1H0.8z"/>
			<path id="XMLID_25_" class="st0" d="M78.7,58L45.1,0H0.3l37,64l-37,64h44.8l33.5-58C80.8,66.3,80.8,61.7,78.7,58z"/>
			<path id="XMLID_24_" class="st5" d="M0.3,128h0.5l36.8-63.5L37.3,64L0.3,128z"/>
			<path id="XMLID_23_" class="st0" d="M78.7,58L45.1,0H0.3l37,64l-37,64h44.8l33.5-58C80.8,66.3,80.8,61.7,78.7,58z"/>
			
				<radialGradient id="XMLID_34_" cx="59.537" cy="764.374" r="44.264" gradientTransform="matrix(1 0 0 1 0 -662)" gradientUnits="userSpaceOnUse">
				<stop  offset="0" style="stop-color:#BF360C;stop-opacity:0.2"/>
				<stop  offset="1" style="stop-color:#BF360C;stop-opacity:2.000000e-02"/>
			</radialGradient>
			<path id="XMLID_22_" class="st6" d="M59.7,102.8L48.8,83.9l-2.7,4.6L59.7,102.8z"/>
			<path id="XMLID_21_" class="st0" d="M78.7,58L45.1,0H0.3l37,64l-37,64h44.8l33.5-58C80.8,66.3,80.8,61.7,78.7,58z"/>
			
				<radialGradient id="XMLID_35_" cx="59.411" cy="764.654" r="44.623" gradientTransform="matrix(1 0 0 1 0 -662)" gradientUnits="userSpaceOnUse">
				<stop  offset="0" style="stop-color:#263238;stop-opacity:0.2"/>
				<stop  offset="1" style="stop-color:#263238;stop-opacity:2.000000e-02"/>
			</radialGradient>
			<path id="XMLID_20_" class="st7" d="M46.1,88.5l2.7-4.6L37.3,64l-5.5,9.5L46.1,88.5z"/>
			<path id="XMLID_19_" class="st0" d="M78.7,58L45.1,0H0.3l37,64l-37,64h44.8l33.5-58C80.8,66.3,80.8,61.7,78.7,58z"/>
			<g id="XMLID_16_">
				<g id="XMLID_17_">
					<path id="XMLID_18_" class="st8" d="M23.3,0h-23l59.4,102.8l11.5-19.9L23.3,0z"/>
				</g>
			</g>
			<path id="XMLID_15_" class="st0" d="M78.7,58L45.1,0H0.3l37,64l-37,64h44.8l33.5-58C80.8,66.3,80.8,61.7,78.7,58z"/>
			<path id="XMLID_14_" class="st9" d="M78.7,70c2.1-3.7,2.1-8.3,0-12L45.1,0H23.3l47.9,82.9L78.7,70z"/>
			<path id="XMLID_13_" class="st0" d="M78.7,58L45.1,0H0.3l37,64l-37,64h44.8l33.5-58C80.8,66.3,80.8,61.7,78.7,58z"/>
			<path id="XMLID_12_" class="st10" d="M71.2,82.9l-0.3-0.5l-11.2,19.4L0.8,0H0.3l59.4,102.8L71.2,82.9z"/>
			<path id="XMLID_11_" class="st0" d="M78.7,58L45.1,0H0.3l37,64l-37,64h44.8l33.5-58C80.8,66.3,80.8,61.7,78.7,58z"/>
			<path id="XMLID_10_" class="st5" d="M45.1,1l33.5,58c1,1.7,1.5,3.6,1.6,5.5c0.1-2.2-0.4-4.5-1.6-6.5L45.1,0H0.3l0.6,1
				C0.9,1,45.1,1,45.1,1z"/>
			<path id="XMLID_9_" class="st0" d="M78.7,58L45.1,0H0.3l37,64l-37,64h44.8l33.5-58C80.8,66.3,80.8,61.7,78.7,58z"/>
			<path id="XMLID_8_" class="st11" d="M71.2,82.9L78.7,70c1.2-2,1.7-4.3,1.6-6.5c-0.1,1.9-0.6,3.8-1.6,5.5L71,82.4L71.2,82.9z"/>
			<path id="XMLID_6_" class="st0" d="M78.7,58L45.1,0H0.3l37,64l-37,64h44.8l33.5-58C80.8,66.3,80.8,61.7,78.7,58z"/>
			
				<radialGradient id="XMLID_36_" cx="-0.74" cy="663" r="134.35" gradientTransform="matrix(1 0 0 1 0 -662)" gradientUnits="userSpaceOnUse">
				<stop  offset="0" style="stop-color:#FFFFFF;stop-opacity:0.1"/>
				<stop  offset="1" style="stop-color:#FFFFFF;stop-opacity:0"/>
			</radialGradient>
			<path id="XMLID_5_" class="st12" d="M78.7,58L45.1,0H0.3l37,64l-37,64h44.8l33.5-58C80.8,66.3,80.8,61.7,78.7,58z"/>
		</g>
	</g>
</g>
<g id="XMLID_1_">
	<path class="st13" d="M155.6,65.2c0,7-2.1,12.6-6.2,16.7c-4.7,4.9-10.9,7.4-18.4,7.4c-7.2,0-13.4-2.5-18.4-7.5
		c-5.1-5-7.6-11.2-7.6-18.7s2.5-13.6,7.6-18.7c5.1-5,11.2-7.5,18.4-7.5c3.6,0,7,0.7,10.3,2.1c3.3,1.4,5.9,3.3,7.8,5.6l-4.4,4.4
		c-3.3-4-7.9-6-13.7-6c-5.3,0-9.8,1.9-13.7,5.6c-3.8,3.7-5.8,8.5-5.8,14.5c0,5.9,1.9,10.7,5.8,14.5c3.9,3.7,8.4,5.6,13.7,5.6
		c5.6,0,10.3-1.9,14-5.6c2.4-2.4,3.8-5.8,4.2-10.1H131v-6h24.3C155.4,62.7,155.6,64,155.6,65.2z M161.9,88.2V38.1h15.3
		c7.7,0,13.9,2.3,18.5,7c4.6,4.6,6.9,10.7,6.9,18.1s-2.3,13.5-6.9,18.1c-4.6,4.6-10.8,7-18.5,7h-15.3V88.2z M168.4,82h8.9
		c5.8,0,10.4-1.7,13.8-5c3.4-3.3,5.1-8,5.1-13.9s-1.7-10.6-5.1-13.9c-3.4-3.3-8-5-13.8-5h-8.9V82z M257.4,65.2
		c0,7-2.1,12.6-6.2,16.7c-4.7,4.9-10.9,7.4-18.4,7.4c-7.2,0-13.4-2.5-18.4-7.5c-5.1-5-7.6-11.2-7.6-18.7s2.5-13.6,7.6-18.7
		c5.1-5,11.2-7.5,18.4-7.5c3.6,0,7,0.7,10.3,2.1c3.3,1.4,5.9,3.3,7.8,5.6l-4.4,4.4c-3.3-4-7.9-6-13.7-6c-5.3,0-9.8,1.9-13.7,5.6
		c-3.8,3.7-5.8,8.5-5.8,14.5c0,5.9,1.9,10.7,5.8,14.5c3.9,3.7,8.4,5.6,13.7,5.6c5.6,0,10.3-1.9,14-5.6c2.4-2.4,3.8-5.8,4.2-10.1
		h-18.2v-6H257C257.2,62.7,257.4,64,257.4,65.2z M280.6,88.2V38.1h15.3c7.7,0,13.9,2.3,18.5,7c4.6,4.6,6.9,10.7,6.9,18.1
		s-2.3,13.5-6.9,18.1c-4.6,4.6-10.8,7-18.5,7h-15.3V88.2z M287,82h8.9c5.8,0,10.4-1.7,13.8-5s5.1-8,5.1-13.9s-1.7-10.6-5.1-13.9
		s-8-5-13.8-5H287V82z M342.4,89.3c-5.2,0-9.4-1.7-12.6-5.2s-4.9-7.8-4.9-13.1c0-5,1.6-9.3,4.7-12.9c3.1-3.6,7.2-5.4,12.1-5.4
		c5.1,0,9.2,1.7,12.2,5c3.1,3.3,4.6,7.7,4.6,13.3l-0.1,1.2h-27.1c0.2,3.5,1.3,6.2,3.5,8.2c2.1,2,4.6,3,7.5,3c4.6,0,7.7-2,9.4-5.9
		l5.7,2.4c-1.1,2.7-3,4.9-5.5,6.7C349.3,88.4,346.1,89.3,342.4,89.3L342.4,89.3z M351.6,66.9c-0.1-2-1-3.8-2.7-5.6
		c-1.7-1.8-4.1-2.7-7.4-2.7c-2.4,0-4.4,0.7-6.2,2.2c-1.8,1.5-3,3.5-3.6,6L351.6,66.9L351.6,66.9z M372,88.2l-13.9-34.3h7l10.1,26.6
		h0.1l10.2-26.6h6.9l-14,34.3C378.4,88.2,372,88.2,372,88.2z M402.7,88.2h-6.4V38.1h29.3v6.2h-22.8v16.5h20.6v6h-20.6v21.4H402.7z
		 M445,89.3c-5.2,0-9.4-1.7-12.6-5.2s-4.9-7.8-4.9-13.1c0-5,1.6-9.3,4.7-12.9c3.2-3.6,7.2-5.4,12.1-5.4c5.1,0,9.2,1.7,12.2,5
		c3.1,3.3,4.6,7.7,4.6,13.3l-0.1,1.2h-27.1c0.2,3.5,1.3,6.2,3.5,8.2c2.1,2,4.6,3,7.5,3c4.6,0,7.7-2,9.4-5.9l5.7,2.4
		c-1.1,2.7-3,4.9-5.5,6.7C451.8,88.4,448.7,89.3,445,89.3L445,89.3z M454.2,66.9c-0.1-2-1-3.8-2.7-5.6c-1.7-1.8-4.1-2.7-7.4-2.7
		c-2.4,0-4.4,0.7-6.2,2.2c-1.8,1.5-3,3.5-3.6,6L454.2,66.9L454.2,66.9z M478.1,89.3c-3.8,0-7-0.9-9.5-2.8s-4.3-4.2-5.5-7l5.7-2.4
		c1.8,4.3,4.9,6.4,9.3,6.4c2,0,3.7-0.4,4.9-1.3c1.3-0.9,1.9-2.1,1.9-3.5c0-2.2-1.6-3.8-4.7-4.5l-6.9-1.7c-2.2-0.6-4.3-1.6-6.2-3.2
		c-2-1.6-2.9-3.7-2.9-6.3c0-3,1.3-5.5,4-7.4c2.7-1.9,5.9-2.8,9.6-2.8c3,0,5.7,0.7,8.1,2.1s4.1,3.3,5.1,5.9l-5.6,2.3
		c-1.3-3-3.9-4.6-7.8-4.6c-1.9,0-3.5,0.4-4.8,1.2s-2,1.9-2,3.2c0,2,1.5,3.3,4.5,4l6.8,1.6c3.2,0.7,5.6,2,7.1,3.9
		c1.5,1.8,2.3,3.9,2.3,6.2c0,3.1-1.3,5.6-3.8,7.7C485.4,88.3,482.1,89.3,478.1,89.3z M511,88.8c-3.6,0-6.3-1-8.2-2.9
		c-1.9-1.9-2.8-4.6-2.8-8.1v-18h-6v-5.9h6V43.4h6.4v10.5h8.4v5.9h-8.4v17.5c0,3.7,1.5,5.6,4.6,5.6c1.2,0,2.1-0.2,2.9-0.6l2.2,5.5
		C514.8,88.5,513.1,88.8,511,88.8L511,88.8z"/>
</g>
</svg>
