<?xml version="1.0" standalone="no"?>
<!DOCTYPE svg PUBLIC "-//W3C//DTD SVG 20010904//EN"
 "http://www.w3.org/TR/2001/REC-SVG-20010904/DTD/svg10.dtd">
<svg version="1.0" xmlns="http://www.w3.org/2000/svg"
 width="932.000000pt" height="201.000000pt" viewBox="0 0 932.000000 201.000000"
 preserveAspectRatio="xMidYMid meet">

<g transform="translate(0.000000,201.000000) scale(0.100000,-0.100000)"
fill="#000000" stroke="none">
<path d="M3480 1793 c0 -5 137 -178 305 -387 168 -208 305 -380 305 -383 0 -5
-118 -153 -418 -526 l-192 -237 98 0 97 0 227 283 c126 155 243 300 261 321
l33 39 23 -32 23 -31 -33 -43 c-40 -51 -396 -495 -417 -519 -14 -17 -9 -18 84
-18 l99 1 40 52 c79 102 316 392 323 395 4 1 91 -101 192 -228 l185 -230 98 0
c76 0 96 3 91 13 -4 6 -136 171 -293 366 -157 194 -295 365 -306 380 -11 15
-159 199 -328 409 l-308 382 -94 0 c-52 0 -95 -3 -95 -7z"/>
<path d="M3777 1788 c13 -17 526 -656 842 -1048 139 -173 285 -354 323 -402
l70 -88 99 0 c55 0 98 4 95 8 -3 5 -142 179 -310 387 l-305 379 20 27 c11 15
147 187 304 381 l284 353 -86 3 c-48 2 -92 1 -99 -2 -9 -3 -346 -415 -510
-622 -15 -19 -17 -18 -42 16 l-22 29 223 278 c123 153 226 284 231 291 5 9
-14 12 -87 12 l-94 0 -183 -225 c-100 -124 -186 -225 -190 -223 -4 2 -90 105
-191 231 l-182 227 -100 0 c-78 0 -97 -3 -90 -12z"/>
<path d="M7960 170 c0 -5 11 -10 25 -10 14 0 25 5 25 10 0 6 -11 10 -25 10
-14 0 -25 -4 -25 -10z"/>
</g>
</svg>
