<?xml version="1.0" encoding="UTF-8" standalone="no"?>
<!-- Created with Inkscape (http://www.inkscape.org/) -->

<svg
   xmlns:dc="http://purl.org/dc/elements/1.1/"
   xmlns:cc="http://creativecommons.org/ns#"
   xmlns:rdf="http://www.w3.org/1999/02/22-rdf-syntax-ns#"
   xmlns:svg="http://www.w3.org/2000/svg"
   xmlns="http://www.w3.org/2000/svg"
   xmlns:sodipodi="http://sodipodi.sourceforge.net/DTD/sodipodi-0.dtd"
   xmlns:inkscape="http://www.inkscape.org/namespaces/inkscape"
   version="1.1"
   id="svg815"
   xml:space="preserve"
   width="657.09332"
   height="849.73334"
   viewBox="0 0 657.09332 849.73334"
   sodipodi:docname="logo.svg"
   inkscape:version="0.92.4 (unknown)"><metadata
     id="metadata821"><rdf:RDF><cc:Work
         rdf:about=""><dc:format>image/svg+xml</dc:format><dc:type
           rdf:resource="http://purl.org/dc/dcmitype/StillImage" /><dc:title></dc:title></cc:Work></rdf:RDF></metadata><defs
     id="defs819" /><sodipodi:namedview
     pagecolor="#ffffff"
     bordercolor="#666666"
     borderopacity="1"
     objecttolerance="10"
     gridtolerance="10"
     guidetolerance="10"
     inkscape:pageopacity="0"
     inkscape:pageshadow="2"
     inkscape:window-width="1865"
     inkscape:window-height="1056"
     id="namedview817"
     showgrid="false"
     inkscape:zoom="1.0756316"
     inkscape:cx="328.54666"
     inkscape:cy="424.86667"
     inkscape:window-x="55"
     inkscape:window-y="24"
     inkscape:window-maximized="1"
     inkscape:current-layer="g823" /><g
     id="g823"
     inkscape:groupmode="layer"
     inkscape:label="ink_ext_XXXXXX"
     transform="matrix(1.3333333,0,0,-1.3333333,0,849.73333)"><path
       inkscape:connector-curvature="0"
       id="path829"
       style="fill:#ef3025;fill-opacity:1;fill-rule:nonzero;stroke:none;stroke-width:0.1"
       d="m 277.438,382.625 c -0.44,0.145 -0.907,0.227 -1.395,0.227 -2.456,0 -4.448,-1.991 -4.448,-4.448 0,-0.513 0.091,-1.003 0.251,-1.462 0.361,-1.035 1.091,-1.898 2.037,-2.424 0.639,-0.357 1.376,-0.562 2.16,-0.562 0.525,0 1.027,0.096 1.495,0.264 1.028,0.367 1.882,1.097 2.402,2.041 0.35,0.635 0.551,1.366 0.551,2.143 0,0.81 -0.22,1.568 -0.599,2.222 -0.541,0.935 -1.411,1.655 -2.454,1.999" /><path
       inkscape:connector-curvature="0"
       id="path831"
       style="fill:#f8a4c2;fill-opacity:1;fill-rule:nonzero;stroke:none;stroke-width:0.1"
       d="m 215.423,403.386 -18.669,-19.682 12.931,-15.022 19.117,20.516 -13.379,14.188" /><path
       inkscape:connector-curvature="0"
       id="path833"
       style="fill:#7d339a;fill-opacity:1;fill-rule:nonzero;stroke:none;stroke-width:0.1"
       d="m 222.13,348.036 -19.732,22.922 -11.781,-40.473 6.579,-8.05 24.934,25.601" /><path
       inkscape:connector-curvature="0"
       id="path835"
       style="fill:#f8a4c2;fill-opacity:1;fill-rule:nonzero;stroke:none;stroke-width:0.1"
       d="m 180.136,336.928 -3.897,-36.01 18.122,18.606 z" /><path
       inkscape:connector-curvature="0"
       id="path837"
       style="fill:#65b0e4;fill-opacity:1;fill-rule:nonzero;stroke:none;stroke-width:0.1"
       d="m 194.106,386.78 18.542,19.549 -22.426,23.78 -3.732,-34.482 7.616,-8.847" /><path
       inkscape:connector-curvature="0"
       id="path839"
       style="fill:#f8a4c2;fill-opacity:1;fill-rule:nonzero;stroke:none;stroke-width:0.1"
       d="m 243.553,342.222 16.919,-19.262 12.459,12.825 -26.333,33.819 -3.045,-27.382" /><path
       inkscape:connector-curvature="0"
       id="path841"
       style="fill:#7d339a;fill-opacity:1;fill-rule:nonzero;stroke:none;stroke-width:0.1"
       d="m 268.044,373.867 c -0.761,1.34 -1.202,2.886 -1.202,4.537 0,5.082 4.12,9.201 9.201,9.201 1.598,0 3.101,-0.409 4.41,-1.126 l 6.121,6.221 -33.328,36.679 -6.008,-54.024 9.838,-12.635 10.968,11.147" /><path
       inkscape:connector-curvature="0"
       id="path843"
       style="fill:#65b0e4;fill-opacity:1;fill-rule:nonzero;stroke:none;stroke-width:0.1"
       d="m 289.294,389.706 -5.81,-5.905 c 1.102,-1.517 1.76,-3.378 1.76,-5.397 0,-2.057 -0.684,-3.95 -1.824,-5.482 l 12.1,-13.886 2.248,2.313 8.93,9.203 -17.404,19.154" /><path
       inkscape:connector-curvature="0"
       id="path845"
       style="fill:#7d339a;fill-opacity:1;fill-rule:nonzero;stroke:none;stroke-width:0.1"
       d="m 238.948,300.804 18.702,19.251 -14.701,16.736 z" /><path
       inkscape:connector-curvature="0"
       id="path847"
       style="fill:#65b0e4;fill-opacity:1;fill-rule:nonzero;stroke:none;stroke-width:0.1"
       d="m 290.065,317.707 c 8.356,-1.357 15.466,-3.428 18.883,-1.186 3.311,-2.274 5.157,-6.079 5.957,-8.112 0.317,-0.825 0.453,-1.314 0.453,-1.314 0.021,-0.119 0.109,-0.201 0.181,-0.334 -1.811,-1.372 -10.631,-8.251 -28.007,-5.508 -0.551,8.164 0.711,10.16 2.533,16.454" /><path
       inkscape:connector-curvature="0"
       id="path849"
       style="fill:#65b0e4;fill-opacity:1;fill-rule:nonzero;stroke:none;stroke-width:0.1"
       d="m 323.065,321.146 c 0.123,1.928 -0.289,3.566 -1.066,4.92 1.966,-0.752 6.217,-1.564 14.213,0.217 0,0 0.473,0.084 0.68,0.023 0,0 0.413,-0.122 -0.102,-0.531 -0.149,-0.125 -0.365,-0.285 -0.566,-0.394 0,0 -0.051,0.015 -0.066,-0.036 l -14.911,-8.432 1.741,3.975 0.077,0.258" /><path
       inkscape:connector-curvature="0"
       id="path851"
       style="fill:#f6eae4;fill-opacity:1;fill-rule:nonzero;stroke:none;stroke-width:0.1"
       d="M 366.895,158.823 C 360.356,143.363 350.994,129.477 339.07,117.554 327.145,105.63 313.261,96.2668 297.801,89.7281 281.795,82.959 264.792,79.5262 247.264,79.5262 c -17.528,0 -34.531,3.4328 -50.537,10.2019 -15.46,6.5387 -29.344,15.9019 -41.269,27.8259 -11.924,11.923 -21.285,25.809 -27.824,41.269 -6.77,16.006 -10.203,33.008 -10.203,50.536 h -3.028 c 0,-17.935 3.513,-35.335 10.441,-51.716 6.692,-15.821 16.272,-30.03 28.473,-42.231 12.201,-12.201 26.409,-21.7811 42.231,-28.4729 16.381,-6.9282 33.78,-10.4411 51.716,-10.4411 17.935,0 35.335,3.5129 51.716,10.4411 15.822,6.6918 30.03,16.2719 42.231,28.4729 12.201,12.201 21.781,26.41 28.473,42.231 6.929,16.381 10.441,33.781 10.441,51.716 h -3.028 c 0,-17.528 -3.433,-34.53 -10.202,-50.536" /><path
       inkscape:connector-curvature="0"
       id="path853"
       style="fill:#f6eae4;fill-opacity:1;fill-rule:nonzero;stroke:none;stroke-width:0.1"
       d="m 117.431,435.926 c 0,17.528 3.433,34.53 10.203,50.536 6.539,15.46 15.9,29.346 27.824,41.269 11.925,11.925 25.809,21.286 41.27,27.825 16.005,6.77 33.008,10.203 50.536,10.203 17.528,0 34.531,-3.433 50.537,-10.203 15.46,-6.539 29.344,-15.9 41.269,-27.825 11.924,-11.923 21.286,-25.809 27.825,-41.269 6.769,-16.006 10.202,-33.008 10.202,-50.536 V 327.707 h 3.028 v 108.219 c 0,17.935 -3.512,35.335 -10.441,51.716 -6.692,15.821 -16.272,30.03 -28.473,42.231 -12.201,12.201 -26.409,21.781 -42.231,28.473 -16.381,6.928 -33.781,10.441 -51.716,10.441 -17.936,0 -35.336,-3.513 -51.716,-10.441 -15.822,-6.692 -30.03,-16.272 -42.231,-28.473 -12.201,-12.201 -21.781,-26.41 -28.473,-42.231 -6.928,-16.381 -10.441,-33.781 -10.441,-51.716 V 307.084 h 3.028 v 128.842" /><path
       inkscape:connector-curvature="0"
       id="path855"
       style="fill:#f6eae4;fill-opacity:1;fill-rule:nonzero;stroke:none;stroke-width:0.1"
       d="m 129.029,194.333 8.777,-0.275 0.005,-0.038 -8.39,-2.604 0.24,-1.784 13.495,-0.189 -0.27,2.007 -8.726,-0.247 -0.004,0.037 8.395,2.699 -0.195,1.45 -8.598,0.356 -0.006,0.037 8.272,2.078 -0.27,2.007 -12.965,-3.75 0.24,-1.784" /><path
       inkscape:connector-curvature="0"
       id="path857"
       style="fill:#f6eae4;fill-opacity:1;fill-rule:nonzero;stroke:none;stroke-width:0.1"
       d="m 138.287,177.753 1.742,0.453 -0.83,3.193 3.792,0.986 0.953,-3.666 1.742,0.453 -1.433,5.516 -12.92,-3.356 1.433,-5.517 1.851,0.481 -0.952,3.666 3.792,0.985 0.83,-3.194" /><path
       inkscape:connector-curvature="0"
       id="path859"
       style="fill:#f6eae4;fill-opacity:1;fill-rule:nonzero;stroke:none;stroke-width:0.1"
       d="m 147.22,174.401 -12.508,-4.661 1.99,-5.341 1.792,0.668 -1.323,3.549 10.717,3.993 -0.668,1.792" /><path
       inkscape:connector-curvature="0"
       id="path861"
       style="fill:#f6eae4;fill-opacity:1;fill-rule:nonzero;stroke:none;stroke-width:0.1"
       d="m 151.226,164.47 -11.964,-5.92 2.528,-5.109 1.714,0.848 -1.68,3.395 10.25,5.072 -0.848,1.714" /><path
       inkscape:connector-curvature="0"
       id="path863"
       style="fill:#f6eae4;fill-opacity:1;fill-rule:nonzero;stroke:none;stroke-width:0.1"
       d="m 157.311,153.278 -0.995,1.633 -11.397,-6.951 0.996,-1.632 11.396,6.95" /><path
       inkscape:connector-curvature="0"
       id="path865"
       style="fill:#f6eae4;fill-opacity:1;fill-rule:nonzero;stroke:none;stroke-width:0.1"
       d="m 153.658,135.238 10.696,7.988 -1.145,1.532 -6.444,-4.813 -0.022,0.03 4.716,7.126 -1.099,1.472 -10.695,-7.988 1.144,-1.532 6.429,4.802 0.023,-0.03 -4.679,-7.145 1.076,-1.442" /><path
       inkscape:connector-curvature="0"
       id="path867"
       style="fill:#f6eae4;fill-opacity:1;fill-rule:nonzero;stroke:none;stroke-width:0.1"
       d="m 168.07,133.24 1.307,-1.396 0.493,0.461 c 0.392,0.367 0.675,0.76 0.848,1.179 0.173,0.418 0.257,0.831 0.253,1.238 -0.022,0.408 -0.113,0.797 -0.273,1.17 -0.161,0.372 -0.373,0.7 -0.637,0.982 -0.265,0.284 -0.578,0.517 -0.939,0.702 -0.361,0.184 -0.739,0.296 -1.136,0.336 -0.415,0.04 -0.836,-0.013 -1.266,-0.158 -0.429,-0.145 -0.84,-0.401 -1.232,-0.768 l -5.146,-4.818 c -0.411,-0.384 -0.698,-0.781 -0.862,-1.192 -0.164,-0.41 -0.235,-0.818 -0.213,-1.226 0.004,-0.407 0.086,-0.796 0.246,-1.169 0.161,-0.372 0.373,-0.699 0.638,-0.982 0.264,-0.283 0.577,-0.517 0.938,-0.701 0.361,-0.185 0.749,-0.297 1.163,-0.337 0.397,-0.04 0.805,0.009 1.225,0.145 0.42,0.137 0.835,0.397 1.246,0.781 l 3.066,2.87 -2.344,2.505 -1.232,-1.153 1.038,-1.108 -1.835,-1.717 c -0.337,-0.317 -0.674,-0.456 -1.008,-0.418 -0.335,0.037 -0.622,0.184 -0.861,0.44 -0.24,0.255 -0.367,0.551 -0.382,0.887 -0.015,0.337 0.145,0.663 0.483,0.979 l 5.147,4.818 c 0.337,0.316 0.674,0.455 1.008,0.417 0.335,-0.037 0.622,-0.184 0.861,-0.439 0.24,-0.256 0.367,-0.552 0.382,-0.888 0.015,-0.337 -0.145,-0.663 -0.483,-0.979 l -0.493,-0.461" /><path
       inkscape:connector-curvature="0"
       id="path869"
       style="fill:#f6eae4;fill-opacity:1;fill-rule:nonzero;stroke:none;stroke-width:0.1"
       d="m 177.339,127.251 1.666,-1.455 1.184,1.355 -4.772,4.169 -1.184,-1.355 1.666,-1.455 -7.599,-8.698 1.44,-1.258 7.599,8.697" /><path
       inkscape:connector-curvature="0"
       id="path871"
       style="fill:#f6eae4;fill-opacity:1;fill-rule:nonzero;stroke:none;stroke-width:0.1"
       d="m 179.206,115.068 4.084,5.745 c 0.268,0.377 0.57,0.581 0.906,0.611 0.335,0.03 0.646,-0.057 0.931,-0.26 0.285,-0.202 0.468,-0.467 0.551,-0.794 0.082,-0.327 -0.011,-0.679 -0.279,-1.056 l -4.085,-5.745 c -0.268,-0.377 -0.57,-0.58 -0.905,-0.61 -0.336,-0.029 -0.646,0.057 -0.931,0.26 -0.285,0.203 -0.469,0.467 -0.551,0.794 -0.082,0.327 0.011,0.678 0.279,1.055 z m -1.656,-2.572 c 0.231,-0.333 0.504,-0.611 0.82,-0.836 0.315,-0.225 0.668,-0.391 1.059,-0.5 0.39,-0.108 0.792,-0.142 1.207,-0.099 0.396,0.04 0.787,0.169 1.171,0.386 0.385,0.218 0.74,0.556 1.066,1.014 l 4.085,5.746 c 0.311,0.437 0.51,0.879 0.596,1.324 0.086,0.444 0.086,0.866 0.001,1.264 -0.102,0.395 -0.269,0.759 -0.5,1.092 -0.231,0.333 -0.504,0.611 -0.82,0.836 -0.316,0.225 -0.669,0.391 -1.059,0.5 -0.391,0.109 -0.784,0.143 -1.181,0.103 -0.414,-0.043 -0.817,-0.178 -1.209,-0.406 -0.391,-0.227 -0.743,-0.56 -1.054,-0.998 l -4.085,-5.745 c -0.326,-0.459 -0.529,-0.906 -0.607,-1.34 -0.079,-0.435 -0.068,-0.85 0.035,-1.244 0.085,-0.399 0.243,-0.764 0.475,-1.097" /><path
       inkscape:connector-curvature="0"
       id="path873"
       style="fill:#f6eae4;fill-opacity:1;fill-rule:nonzero;stroke:none;stroke-width:0.1"
       d="m 192.672,103.017 6.459,11.682 -1.674,0.925 -3.891,-7.038 -0.033,0.017 1.365,8.436 -1.608,0.89 -6.46,-11.683 1.674,-0.925 3.883,7.023 0.033,-0.019 -1.324,-8.437 1.576,-0.871" /><path
       inkscape:connector-curvature="0"
       id="path875"
       style="fill:#f6eae4;fill-opacity:1;fill-rule:nonzero;stroke:none;stroke-width:0.1"
       d="m 210.987,103.929 0.035,-0.012 0.265,-8.5361 1.709,-0.5641 4.181,12.6772 -1.816,0.599 -2.519,-7.638 -0.036,0.012 -0.223,8.542 -1.745,0.576 -4.18,-12.678 1.815,-0.5992 2.514,7.6212" /><path
       inkscape:connector-curvature="0"
       id="path877"
       style="fill:#f6eae4;fill-opacity:1;fill-rule:nonzero;stroke:none;stroke-width:0.1"
       d="m 227.426,105.041 -5.369,1.162 -0.38,-1.759 3.335,-0.721 -5.604,-8.8769 -0.358,-1.65 5.552,-1.2012 0.382,1.759 -3.592,0.777 5.713,9.0271 0.321,1.483" /><path
       inkscape:connector-curvature="0"
       id="path879"
       style="fill:#f6eae4;fill-opacity:1;fill-rule:nonzero;stroke:none;stroke-width:0.1"
       d="m 244.642,99.6621 c -0.4,0.1879 -0.831,0.291 -1.293,0.3078 -0.462,0.0153 -0.9,-0.057 -1.312,-0.2168 -0.412,-0.1613 -0.773,-0.3863 -1.083,-0.675 -0.31,-0.2902 -0.56,-0.6351 -0.749,-1.034 -0.189,-0.4011 -0.292,-0.8312 -0.308,-1.2929 -0.016,-0.4621 0.056,-0.9004 0.217,-1.3121 0.161,-0.4121 0.386,-0.7731 0.675,-1.0832 0.289,-0.3098 0.634,-0.5598 1.034,-0.7489 0.399,-0.189 0.831,-0.2922 1.293,-0.3082 0.462,-0.016 0.899,0.0563 1.311,0.2172 0.412,0.161 0.773,0.3852 1.084,0.675 0.31,0.2891 0.56,0.634 0.749,1.034 0.189,0.3988 0.292,0.8309 0.308,1.2918 0.016,0.4621 -0.057,0.9004 -0.217,1.3121 -0.161,0.4121 -0.386,0.7731 -0.675,1.084 -0.289,0.3101 -0.634,0.5601 -1.034,0.7492" /><path
       inkscape:connector-curvature="0"
       id="path881"
       style="fill:#f6eae4;fill-opacity:1;fill-rule:nonzero;stroke:none;stroke-width:0.1"
       d="m 262.166,104.269 -1.69,-1.667 0.291,-2.003 1.69,1.667 1.631,-11.207 1.892,0.2762 -1.922,13.2088 -1.892,-0.275" /><path
       inkscape:connector-curvature="0"
       id="path883"
       style="fill:#f6eae4;fill-opacity:1;fill-rule:nonzero;stroke:none;stroke-width:0.1"
       d="m 273.34,94.5441 0.439,-1.7453 5.527,1.3903 -0.466,1.855 -3.346,-0.8421 1.405,5.94 c 0.076,0.316 0.131,0.582 0.167,0.796 0.036,0.215 0.049,0.425 0.036,0.628 -0.013,0.203 -0.04,0.412 -0.081,0.627 -0.041,0.215 -0.101,0.481 -0.18,0.796 -0.11,0.437 -0.266,0.835 -0.466,1.197 -0.201,0.363 -0.448,0.667 -0.743,0.915 -0.307,0.246 -0.654,0.413 -1.044,0.501 -0.389,0.089 -0.827,0.073 -1.312,-0.049 -0.388,-0.098 -0.733,-0.265 -1.034,-0.502 -0.301,-0.237 -0.541,-0.513 -0.719,-0.828 -0.191,-0.319 -0.316,-0.666 -0.376,-1.042 -0.06,-0.376 -0.041,-0.758 0.056,-1.146 l 0.256,-1.018 1.855,0.466 -0.265,1.055 c -0.076,0.303 -0.053,0.554 0.071,0.752 0.124,0.199 0.326,0.334 0.604,0.403 0.23,0.059 0.418,0.057 0.562,-0.003 0.144,-0.06 0.263,-0.15 0.357,-0.268 0.095,-0.118 0.166,-0.264 0.217,-0.439 0.05,-0.174 0.095,-0.34 0.135,-0.497 0.089,-0.351 0.15,-0.648 0.185,-0.89 0.036,-0.244 0.008,-0.543 -0.083,-0.902 l -1.757,-7.1499" /><path
       inkscape:connector-curvature="0"
       id="path885"
       style="fill:#f6eae4;fill-opacity:1;fill-rule:nonzero;stroke:none;stroke-width:0.1"
       d="m 289.471,102.055 -0.657,1.795 -5.3,-1.939 0.658,-1.796 5.299,1.94" /><path
       inkscape:connector-curvature="0"
       id="path887"
       style="fill:#f6eae4;fill-opacity:1;fill-rule:nonzero;stroke:none;stroke-width:0.1"
       d="m 293.182,113.655 -1.099,-2.103 0.89,-1.819 1.1,2.104 4.978,-10.171 1.718,0.841 -5.869,11.989 -1.718,-0.841" /><path
       inkscape:connector-curvature="0"
       id="path889"
       style="fill:#f6eae4;fill-opacity:1;fill-rule:nonzero;stroke:none;stroke-width:0.1"
       d="m 309.238,109.343 c -0.244,-0.153 -0.49,-0.2 -0.74,-0.142 -0.25,0.058 -0.461,0.225 -0.633,0.5 l -0.258,0.414 -1.622,-1.013 0.298,-0.477 c 0.238,-0.381 0.516,-0.68 0.834,-0.894 0.317,-0.214 0.654,-0.357 1.009,-0.43 0.355,-0.074 0.713,-0.075 1.074,-0.004 0.361,0.07 0.701,0.205 1.019,0.404 0.318,0.198 0.588,0.443 0.81,0.737 0.222,0.293 0.379,0.616 0.469,0.967 0.09,0.351 0.109,0.716 0.056,1.096 -0.053,0.379 -0.198,0.761 -0.436,1.141 l -1.826,2.927 c -0.417,0.668 -0.903,1.062 -1.455,1.181 -0.554,0.119 -1.106,0.006 -1.657,-0.338 -0.287,-0.179 -0.515,-0.392 -0.685,-0.638 -0.171,-0.246 -0.284,-0.49 -0.339,-0.73 l -1.906,3.054 3.213,2.004 -0.953,1.527 -4.644,-2.899 3.811,-6.107 1.431,0.894 c -0.002,0.027 -0.007,0.106 -0.013,0.234 -0.015,0.094 -0.01,0.193 0.014,0.296 0.024,0.103 0.069,0.209 0.134,0.316 0.066,0.108 0.167,0.204 0.305,0.29 0.223,0.139 0.456,0.174 0.698,0.104 0.243,-0.07 0.433,-0.216 0.572,-0.439 l 1.658,-2.656 c 0.165,-0.265 0.228,-0.513 0.188,-0.744 -0.04,-0.232 -0.182,-0.423 -0.426,-0.575" /><path
       inkscape:connector-curvature="0"
       id="path891"
       style="fill:#f6eae4;fill-opacity:1;fill-rule:nonzero;stroke:none;stroke-width:0.1"
       d="m 328.19,121.585 1.335,1.207 -8.952,9.901 -1.419,-1.282 5.394,-5.966 -0.028,-0.025 -7.535,4.029 -1.363,-1.232 8.952,-9.902 1.419,1.284 -5.382,5.951 0.028,0.025 7.551,-3.99" /><path
       inkscape:connector-curvature="0"
       id="path893"
       style="fill:#f6eae4;fill-opacity:1;fill-rule:nonzero;stroke:none;stroke-width:0.1"
       d="m 327.446,136.798 c 0.006,0.337 0.126,0.636 0.358,0.898 0.233,0.261 0.516,0.415 0.85,0.462 0.333,0.046 0.673,-0.084 1.019,-0.391 l 5.271,-4.681 c 0.346,-0.307 0.515,-0.629 0.509,-0.966 -0.007,-0.337 -0.127,-0.636 -0.359,-0.897 -0.232,-0.262 -0.515,-0.416 -0.849,-0.462 -0.334,-0.047 -0.673,0.083 -1.019,0.39 l -5.271,4.681 c -0.346,0.307 -0.516,0.629 -0.509,0.966 z m 5.776,-7.825 c 0.424,-0.125 0.837,-0.158 1.241,-0.099 0.405,0.042 0.785,0.16 1.141,0.353 0.356,0.194 0.663,0.436 0.92,0.726 0.258,0.29 0.461,0.623 0.612,0.999 0.15,0.376 0.226,0.773 0.228,1.189 0.003,0.398 -0.083,0.8 -0.258,1.206 -0.175,0.406 -0.472,0.796 -0.892,1.169 l -5.271,4.681 c -0.402,0.357 -0.82,0.602 -1.253,0.736 -0.432,0.133 -0.851,0.179 -1.256,0.138 -0.404,-0.06 -0.784,-0.187 -1.14,-0.38 -0.356,-0.194 -0.662,-0.436 -0.92,-0.726 -0.257,-0.289 -0.461,-0.622 -0.611,-0.999 -0.15,-0.376 -0.227,-0.763 -0.23,-1.162 -0.001,-0.416 0.089,-0.831 0.273,-1.245 0.184,-0.415 0.477,-0.8 0.879,-1.157 l 5.271,-4.68 c 0.421,-0.374 0.843,-0.623 1.266,-0.749" /><path
       inkscape:connector-curvature="0"
       id="path895"
       style="fill:#f6eae4;fill-opacity:1;fill-rule:nonzero;stroke:none;stroke-width:0.1"
       d="m 344.802,140.575 -9.264,9.992 -1.178,-1.647 6.684,-6.671 -0.022,-0.03 -8.462,4.185 -1.178,-1.647 12.439,-5.554 0.981,1.372" /><path
       inkscape:connector-curvature="0"
       id="path897"
       style="fill:#f6eae4;fill-opacity:1;fill-rule:nonzero;stroke:none;stroke-width:0.1"
       d="m 344.823,163.214 c 0.138,0.072 0.283,0.107 0.434,0.104 0.151,-0.002 0.31,-0.04 0.476,-0.112 0.167,-0.073 0.323,-0.144 0.469,-0.213 0.328,-0.156 0.596,-0.298 0.805,-0.425 0.21,-0.128 0.423,-0.341 0.641,-0.638 l 4.389,-5.913 1.625,-0.774 2.452,5.145 -1.727,0.823 -1.483,-3.114 -3.682,4.869 c -0.195,0.259 -0.364,0.471 -0.507,0.636 -0.143,0.165 -0.296,0.308 -0.461,0.428 -0.164,0.119 -0.343,0.232 -0.534,0.338 -0.192,0.105 -0.435,0.227 -0.729,0.367 -0.406,0.194 -0.813,0.328 -1.219,0.405 -0.407,0.076 -0.8,0.08 -1.179,0.011 -0.384,-0.08 -0.734,-0.242 -1.051,-0.486 -0.317,-0.243 -0.583,-0.591 -0.798,-1.042 -0.172,-0.361 -0.263,-0.733 -0.273,-1.116 -0.009,-0.384 0.051,-0.744 0.18,-1.083 0.125,-0.35 0.312,-0.668 0.564,-0.954 0.251,-0.285 0.557,-0.514 0.919,-0.687 l 0.947,-0.451 0.823,1.726 -0.982,0.468 c -0.282,0.134 -0.46,0.313 -0.534,0.535 -0.074,0.222 -0.049,0.463 0.074,0.723 0.102,0.213 0.222,0.357 0.361,0.43" /><path
       inkscape:connector-curvature="0"
       id="path899"
       style="fill:#f6eae4;fill-opacity:1;fill-rule:nonzero;stroke:none;stroke-width:0.1"
       d="m 356.618,169.047 -7.383,2.625 c -0.26,0.092 -0.445,0.251 -0.557,0.477 -0.113,0.225 -0.123,0.468 -0.031,0.727 0.093,0.259 0.253,0.44 0.482,0.545 0.23,0.104 0.474,0.11 0.733,0.018 l 7.384,-2.625 c 0.26,-0.092 0.445,-0.251 0.557,-0.477 0.112,-0.225 0.123,-0.467 0.03,-0.727 -0.092,-0.259 -0.253,-0.441 -0.482,-0.544 -0.229,-0.105 -0.473,-0.11 -0.733,-0.019 z m 1.627,-1.692 c 0.324,0.163 0.605,0.385 0.844,0.665 0.238,0.28 0.421,0.597 0.546,0.95 0.126,0.353 0.184,0.714 0.176,1.082 -0.009,0.367 -0.087,0.717 -0.235,1.048 -0.147,0.331 -0.359,0.628 -0.637,0.893 -0.278,0.264 -0.628,0.472 -1.052,0.623 l -7.384,2.625 c -0.425,0.151 -0.827,0.211 -1.209,0.181 -0.382,-0.03 -0.735,-0.127 -1.059,-0.291 -0.323,-0.163 -0.604,-0.385 -0.843,-0.665 -0.239,-0.28 -0.421,-0.596 -0.547,-0.95 -0.125,-0.353 -0.184,-0.714 -0.175,-1.081 0.008,-0.369 0.087,-0.718 0.234,-1.049 0.148,-0.331 0.36,-0.629 0.638,-0.893 0.277,-0.265 0.628,-0.472 1.052,-0.622 l 7.384,-2.625 c 0.424,-0.151 0.827,-0.212 1.209,-0.182 0.382,0.03 0.735,0.127 1.058,0.291" /><path
       inkscape:connector-curvature="0"
       id="path901"
       style="fill:#f6eae4;fill-opacity:1;fill-rule:nonzero;stroke:none;stroke-width:0.1"
       d="m 363.307,181.901 -12.969,3.158 -0.453,-1.858 0.914,-2.191 1.967,-0.479 -0.913,2.191 11.002,-2.679 0.452,1.858" /><path
       inkscape:connector-curvature="0"
       id="path903"
       style="fill:#f6eae4;fill-opacity:1;fill-rule:nonzero;stroke:none;stroke-width:0.1"
       d="m 357.807,192.864 c -0.198,-0.162 -0.441,-0.223 -0.725,-0.184 l -2.452,0.338 c -0.285,0.039 -0.501,0.163 -0.648,0.373 -0.148,0.209 -0.205,0.438 -0.171,0.686 0.034,0.247 0.151,0.452 0.349,0.614 0.2,0.161 0.441,0.223 0.726,0.184 l 2.452,-0.338 c 0.284,-0.04 0.501,-0.164 0.649,-0.373 0.148,-0.21 0.204,-0.438 0.17,-0.686 -0.034,-0.248 -0.15,-0.453 -0.35,-0.614 z m 7.151,-2.499 0.291,2.117 -6.306,3.405 c -0.165,0.085 -0.322,0.16 -0.47,0.225 -0.149,0.065 -0.32,0.13 -0.513,0.194 -0.182,0.05 -0.406,0.1 -0.671,0.149 -0.264,0.049 -0.6,0.102 -1.009,0.158 -0.434,0.06 -0.79,0.102 -1.071,0.129 -0.28,0.026 -0.521,0.04 -0.722,0.043 -0.191,-0.012 -0.359,-0.039 -0.503,-0.083 -0.145,-0.043 -0.298,-0.098 -0.459,-0.163 -0.43,-0.194 -0.787,-0.479 -1.073,-0.856 -0.285,-0.377 -0.464,-0.825 -0.535,-1.346 -0.072,-0.52 -0.025,-1.003 0.14,-1.448 0.166,-0.445 0.436,-0.82 0.811,-1.124 0.137,-0.107 0.269,-0.198 0.397,-0.272 0.129,-0.075 0.285,-0.137 0.467,-0.187 0.193,-0.065 0.427,-0.123 0.705,-0.173 0.277,-0.051 0.632,-0.106 1.065,-0.166 0.52,-0.072 0.951,-0.125 1.294,-0.159 0.342,-0.035 0.627,-0.049 0.855,-0.042 0.226,-0.006 0.414,0.005 0.563,0.036 0.149,0.029 0.292,0.079 0.427,0.149 0.27,0.127 0.506,0.321 0.705,0.584 0.201,0.262 0.324,0.561 0.37,0.896 0.029,0.21 0.037,0.382 0.024,0.517 -0.013,0.134 -0.04,0.235 -0.081,0.304 l 0.042,0.032 5.257,-2.919" /><path
       inkscape:connector-curvature="0"
       id="path905"
       style="fill:#f6eae4;fill-opacity:1;fill-rule:nonzero;stroke:none;stroke-width:0.1"
       d="m 186.077,173.496 c 0,0.974 0.269,1.691 0.81,2.152 0.539,0.461 1.178,0.692 1.916,0.692 0.736,0 1.375,-0.231 1.915,-0.692 0.54,-0.461 0.81,-1.178 0.81,-2.152 v -14.853 c 0,-0.974 -0.27,-1.692 -0.81,-2.152 -0.54,-0.462 -1.179,-0.692 -1.915,-0.692 -0.738,0 -1.377,0.23 -1.916,0.692 -0.541,0.46 -0.81,1.178 -0.81,2.152 z m -1.857,-19.988 c 0.632,-0.579 1.35,-1.014 2.153,-1.303 0.803,-0.29 1.613,-0.435 2.43,-0.435 0.815,0 1.625,0.145 2.429,0.435 0.803,0.289 1.533,0.724 2.192,1.303 0.632,0.553 1.146,1.251 1.541,2.093 0.395,0.843 0.592,1.857 0.592,3.042 v 14.853 c 0,1.132 -0.197,2.133 -0.592,3.002 -0.395,0.869 -0.909,1.593 -1.541,2.172 -0.659,0.554 -1.389,0.974 -2.192,1.265 -0.804,0.289 -1.614,0.434 -2.429,0.434 -0.817,0 -1.627,-0.145 -2.43,-0.434 -0.803,-0.291 -1.521,-0.711 -2.153,-1.265 -0.658,-0.579 -1.185,-1.303 -1.58,-2.172 -0.395,-0.869 -0.592,-1.87 -0.592,-3.002 v -14.853 c 0,-1.185 0.197,-2.199 0.592,-3.042 0.395,-0.842 0.922,-1.54 1.58,-2.093" /><path
       inkscape:connector-curvature="0"
       id="path907"
       style="fill:#f6eae4;fill-opacity:1;fill-rule:nonzero;stroke:none;stroke-width:0.1"
       d="m 215.861,172.074 v 1.58 c 0,0.974 -0.165,1.876 -0.494,2.705 -0.33,0.83 -0.784,1.547 -1.363,2.153 -1.185,1.238 -2.725,1.857 -4.621,1.857 -0.975,0 -1.864,-0.165 -2.667,-0.494 -0.804,-0.33 -1.495,-0.784 -2.074,-1.363 -0.579,-0.579 -1.026,-1.264 -1.343,-2.054 -0.316,-0.79 -0.474,-1.646 -0.474,-2.567 v -15.485 c 0,-1.29 0.204,-2.35 0.613,-3.18 0.407,-0.829 0.928,-1.507 1.56,-2.034 0.632,-0.527 1.343,-0.895 2.133,-1.106 0.79,-0.211 1.566,-0.316 2.33,-0.316 0.895,0 1.732,0.178 2.509,0.534 0.776,0.355 1.455,0.835 2.034,1.441 0.579,0.606 1.033,1.297 1.363,2.074 0.329,0.776 0.494,1.6 0.494,2.469 v 1.738 h -4.03 v -1.383 c 0,-0.553 -0.078,-1.014 -0.236,-1.382 -0.159,-0.369 -0.356,-0.659 -0.593,-0.869 -0.263,-0.211 -0.547,-0.363 -0.849,-0.455 -0.304,-0.092 -0.587,-0.138 -0.85,-0.138 -0.922,0 -1.56,0.277 -1.916,0.83 -0.355,0.553 -0.533,1.237 -0.533,2.054 v 14.378 c 0,0.948 0.164,1.731 0.494,2.351 0.329,0.618 0.994,0.928 1.995,0.928 0.763,0 1.369,-0.29 1.817,-0.869 0.447,-0.58 0.671,-1.265 0.671,-2.055 v -1.342 h 4.03" /><path
       inkscape:connector-curvature="0"
       id="path909"
       style="fill:#f6eae4;fill-opacity:1;fill-rule:nonzero;stroke:none;stroke-width:0.1"
       d="m 235.097,176.34 v 3.792 h -12.008 v -28.125 h 12.008 v 4.029 h -7.979 v 8.256 h 6.953 v 3.792 h -6.953 v 8.256 h 7.979" /><path
       inkscape:connector-curvature="0"
       id="path911"
       style="fill:#f6eae4;fill-opacity:1;fill-rule:nonzero;stroke:none;stroke-width:0.1"
       d="m 245.762,161.843 1.975,10.191 h 0.079 l 1.975,-10.191 z m 5.965,-9.836 h 4.029 l -6.281,28.125 h -3.358 l -6.28,-28.125 h 4.029 l 1.185,6.044 h 5.491 l 1.185,-6.044" /><path
       inkscape:connector-curvature="0"
       id="path913"
       style="fill:#f6eae4;fill-opacity:1;fill-rule:nonzero;stroke:none;stroke-width:0.1"
       d="m 275.585,152.007 v 28.125 h -4.029 v -16.946 h -0.079 l -6.083,16.946 h -3.871 v -28.125 h 4.029 v 16.907 h 0.079 l 6.162,-16.907 h 3.792" /><path
       inkscape:connector-curvature="0"
       id="path915"
       style="fill:#f6eae4;fill-opacity:1;fill-rule:nonzero;stroke:none;stroke-width:0.1"
       d="m 283.287,180.132 v -28.125 h 4.029 v 28.125 h -4.029" /><path
       inkscape:connector-curvature="0"
       id="path917"
       style="fill:#f6eae4;fill-opacity:1;fill-rule:nonzero;stroke:none;stroke-width:0.1"
       d="m 299.285,161.843 1.975,10.191 h 0.079 l 1.975,-10.191 z m 5.965,-9.836 h 4.029 l -6.281,28.125 h -3.358 l -6.28,-28.125 h 4.029 l 1.185,6.044 h 5.491 l 1.185,-6.044" /><path
       inkscape:connector-curvature="0"
       id="path919"
       style="fill:#f6eae4;fill-opacity:1;fill-rule:nonzero;stroke:none;stroke-width:0.1"
       d="m 385.482,298.758 c -2.629,-3.085 -9.858,-11.434 -18.258,-19.998 -6.161,-6.282 -11.678,-11.388 -16.464,-15.263 H 115.04 v -0.308 c -2.156,2.036 -3.775,4.551 -4.253,7.653 h 234.276 l 33.198,33.051 z m -48.765,-43.763 c -31.159,0.002 -198.465,0.318 -203.771,0.329 -0.944,0.152 -8.298,1.444 -14.309,5.144 H 346.82 c -4.06,-2.941 -7.461,-4.797 -10.103,-5.473 z m -202.718,26.452 h 31.052 l -0.873,-7.576 h -30.179 z m 94.162,3.029 h -57.4 l 65.115,67.289 z m -0.347,-3.029 -0.868,-7.576 h -59.719 l 0.873,7.576 z m 3.22,0.55 3.195,3.292 h 47.629 l -2.18,-11.418 h -49.684 l 0.943,8.221 z m 69.601,3.292 v -11.418 h -17.873 l 2.179,11.418 z m 43.177,-11.418 h -40.149 v 11.418 h 12.928 v 3.029 h -31.072 l 6.183,32.396 -2.974,0.568 -6.292,-32.964 h -45.269 l 85.867,88.488 -2.173,2.109 -89.384,-92.113 19.733,172.129 -3.009,0.345 -9.263,-80.802 -7.36,7.78 -19.242,-20.651 12.622,-14.663 12.27,12.622 -0.786,-6.856 -67.736,-69.999 19.833,172.223 -3.009,0.346 -20.13,-174.8 h -49.445 v -3.029 h 15.015 v -7.576 h -23.394 l 0.044,-1.557 c 0.457,-16.24 23.986,-19.857 24.988,-20.003 l 0.215,-0.016 c 1.728,-0.003 173.06,-0.328 204.079,-0.328 h 0.179 l 0.175,0.041 c 16.308,3.914 50.176,44.341 51.61,46.059 l 1.047,1.257 -11.979,8.518 -34.122,-33.971" /><path
       inkscape:connector-curvature="0"
       id="path921"
       style="fill:#f6eae4;fill-opacity:1;fill-rule:nonzero;stroke:none;stroke-width:0.1"
       d="m 337.482,233.652 c -2.626,1.646 -5.602,3.512 -11.271,3.512 -5.668,0 -8.644,-1.866 -11.27,-3.512 -2.501,-1.569 -4.864,-3.05 -9.661,-3.05 -4.797,0 -7.16,1.481 -9.662,3.05 -2.626,1.646 -5.601,3.512 -11.27,3.512 -5.668,0 -8.644,-1.866 -11.27,-3.512 -2.501,-1.569 -4.863,-3.05 -9.66,-3.05 -4.798,0 -7.16,1.481 -9.661,3.05 -2.626,1.646 -5.601,3.512 -11.27,3.512 -5.668,0 -8.643,-1.866 -11.269,-3.512 -2.5,-1.569 -4.863,-3.05 -9.659,-3.05 -4.797,0 -7.159,1.481 -9.66,3.05 -2.626,1.646 -5.602,3.512 -11.27,3.512 -5.668,0 -8.644,-1.866 -11.27,-3.512 -2.501,-1.569 -4.864,-3.05 -9.661,-3.05 -4.797,0 -7.159,1.481 -9.661,3.05 -2.625,1.646 -5.601,3.512 -11.269,3.512 -5.669,0 -8.644,-1.866 -11.27,-3.512 -2.501,-1.569 -4.863,-3.05 -9.66,-3.05 -0.007,0 -0.014,0 -0.021,0 0.839,-0.974 1.689,-1.937 2.553,-2.888 4.079,0.459 6.535,1.991 8.737,3.372 2.501,1.568 4.863,3.05 9.661,3.05 4.797,0 7.159,-1.482 9.66,-3.05 2.626,-1.647 5.602,-3.513 11.27,-3.513 5.668,0 8.644,1.866 11.27,3.513 2.502,1.568 4.864,3.05 9.661,3.05 4.797,0 7.159,-1.482 9.661,-3.05 2.625,-1.647 5.601,-3.513 11.269,-3.513 5.667,0 8.643,1.866 11.268,3.513 2.501,1.568 4.864,3.05 9.66,3.05 4.797,0 7.16,-1.482 9.661,-3.05 2.625,-1.647 5.601,-3.513 11.27,-3.513 5.668,0 8.644,1.866 11.269,3.513 2.502,1.568 4.864,3.05 9.661,3.05 4.798,0 7.16,-1.482 9.662,-3.05 2.626,-1.647 5.602,-3.513 11.27,-3.513 5.668,0 8.644,1.866 11.27,3.513 2.501,1.568 4.863,3.05 9.661,3.05 4.798,0 7.161,-1.482 9.663,-3.05 2.626,-1.647 5.602,-3.513 11.271,-3.513 1.338,0 2.522,0.107 3.591,0.288 1.338,1.476 2.646,2.982 3.922,4.513 -1.885,-1.009 -4.072,-1.772 -7.513,-1.772 -4.798,0 -7.161,1.481 -9.663,3.05" /><path
       inkscape:connector-curvature="0"
       id="path923"
       style="fill:#f6eae4;fill-opacity:1;fill-rule:nonzero;stroke:none;stroke-width:0.1"
       d="m 326.211,215.98 c 4.469,0 6.826,-1.286 9.15,-2.73 0.822,0.673 1.636,1.355 2.442,2.045 -0.106,0.067 -0.213,0.134 -0.321,0.201 -2.626,1.647 -5.602,3.513 -11.271,3.513 -5.668,0 -8.644,-1.866 -11.27,-3.513 -2.501,-1.568 -4.864,-3.05 -9.661,-3.05 -4.797,0 -7.16,1.482 -9.662,3.05 -2.626,1.647 -5.601,3.513 -11.27,3.513 -5.668,0 -8.644,-1.866 -11.27,-3.513 -2.501,-1.568 -4.863,-3.05 -9.66,-3.05 -4.798,0 -7.16,1.482 -9.661,3.05 -2.626,1.647 -5.601,3.513 -11.27,3.513 -5.668,0 -8.643,-1.866 -11.269,-3.513 -2.5,-1.568 -4.863,-3.05 -9.659,-3.05 -4.797,0 -7.159,1.482 -9.66,3.05 -2.626,1.647 -5.602,3.513 -11.27,3.513 -5.668,0 -8.644,-1.866 -11.27,-3.513 -2.501,-1.568 -4.864,-3.05 -9.661,-3.05 -4.797,0 -7.159,1.482 -9.661,3.05 -2.625,1.647 -5.601,3.513 -11.269,3.513 -3.497,0 -5.967,-0.711 -7.965,-1.642 0.841,-0.752 1.69,-1.495 2.549,-2.227 1.446,0.51 3.16,0.84 5.416,0.84 4.797,0 7.159,-1.481 9.66,-3.05 2.626,-1.646 5.602,-3.513 11.27,-3.513 5.668,0 8.645,1.867 11.27,3.513 2.502,1.569 4.864,3.05 9.661,3.05 4.797,0 7.159,-1.481 9.661,-3.05 2.625,-1.646 5.601,-3.513 11.269,-3.513 5.667,0 8.643,1.867 11.268,3.513 2.501,1.569 4.864,3.05 9.66,3.05 4.797,0 7.16,-1.481 9.661,-3.05 2.625,-1.646 5.601,-3.513 11.27,-3.513 5.668,0 8.644,1.867 11.269,3.513 2.502,1.569 4.864,3.05 9.661,3.05 4.798,0 7.16,-1.481 9.662,-3.05 2.626,-1.646 5.602,-3.513 11.27,-3.513 5.668,0 8.644,1.867 11.27,3.513 2.501,1.569 4.863,3.05 9.661,3.05" /><path
       inkscape:connector-curvature="0"
       id="path925"
       style="fill:#f6eae4;fill-opacity:1;fill-rule:nonzero;stroke:none;stroke-width:0.1"
       d="m 180.746,342.562 6.77,-8.282 11.739,40.329 -13.361,15.52 -5.148,-47.567" /><path
       inkscape:connector-curvature="0"
       id="path927"
       style="fill:#f6eae4;fill-opacity:1;fill-rule:nonzero;stroke:none;stroke-width:0.1"
       d="m 292.697,356.129 -12.333,14.153 c -1.289,-0.687 -2.759,-1.079 -4.321,-1.079 -1.966,0 -3.783,0.622 -5.278,1.671 l -11.186,-11.369 16.193,-20.796 16.925,17.42" /><path
       inkscape:connector-curvature="0"
       id="path929"
       style="fill:#f6eae4;fill-opacity:1;fill-rule:nonzero;stroke:none;stroke-width:0.1"
       d="m 343.672,310.37 -5.242,15.255 c 0.199,-0.845 -1.459,-1.701 -1.459,-1.701 l -16.784,-9.448 -2.309,-5.322 6.411,-11.503 c 21.468,8.394 19.383,12.719 19.383,12.719" /><path
       inkscape:connector-curvature="0"
       id="path931"
       style="fill:#f6eae4;fill-opacity:1;fill-rule:nonzero;stroke:none;stroke-width:0.1"
       d="m 317.485,328.641 c -1.467,1.109 -3.021,1.739 -3.898,1.999 l -5.827,-11.689 c 4.857,-2.172 7.331,-6.892 8.457,-9.528 l 5.223,11.924 c 0.176,3.429 -1.79,5.697 -3.955,7.294" /><path
       inkscape:connector-curvature="0"
       id="path933"
       style="fill:#f6eae4;fill-opacity:1;fill-rule:nonzero;stroke:none;stroke-width:0.1"
       d="m 191.396,540.398 -9.152,-5.548 8.688,-14.333 2.173,1.317 -3.713,6.124 5.957,3.612 -1.167,1.927 -5.958,-3.612 -2.562,4.227 6.979,4.231 -1.245,2.055" /><path
       inkscape:connector-curvature="0"
       id="path935"
       style="fill:#f6eae4;fill-opacity:1;fill-rule:nonzero;stroke:none;stroke-width:0.1"
       d="m 207.534,543.554 c 0.142,0.413 0.382,0.8 0.721,1.159 0.334,0.349 0.781,0.628 1.341,0.836 0.578,0.182 1.113,0.24 1.606,0.174 0.473,-0.081 0.885,-0.244 1.236,-0.488 0.429,-0.234 0.793,-0.599 1.093,-1.096 0.302,-0.528 0.721,-1.571 1.255,-3.13 0.535,-1.559 0.842,-2.632 0.922,-3.22 0.073,-0.591 0.011,-1.11 -0.183,-1.558 -0.128,-0.408 -0.356,-0.782 -0.685,-1.122 -0.339,-0.383 -0.795,-0.673 -1.367,-0.869 -0.566,-0.194 -1.092,-0.241 -1.581,-0.141 -0.482,0.061 -0.906,0.211 -1.272,0.451 -0.429,0.234 -0.788,0.609 -1.078,1.125 -0.305,0.511 -0.725,1.546 -1.259,3.105 -0.534,1.559 -0.84,2.641 -0.918,3.246 -0.082,0.571 -0.026,1.08 0.169,1.528 z m 0.816,-10.572 c 0.636,-0.6 1.473,-1.034 2.512,-1.302 1.033,-0.294 2.177,-0.242 3.434,0.156 1.252,0.462 2.199,1.126 2.841,1.994 0.642,0.845 1.023,1.696 1.142,2.555 0.136,0.476 0.146,1.051 0.029,1.723 -0.125,0.671 -0.497,1.912 -1.119,3.724 -0.631,1.842 -1.1,3.058 -1.408,3.649 -0.315,0.589 -0.673,1.03 -1.073,1.322 -0.621,0.606 -1.446,1.051 -2.476,1.338 -1.04,0.293 -2.193,0.229 -3.459,-0.188 -1.242,-0.442 -2.18,-1.096 -2.816,-1.962 -0.652,-0.864 -1.044,-1.727 -1.177,-2.591 -0.108,-0.466 -0.113,-1.031 -0.015,-1.694 0.105,-0.661 0.473,-1.912 1.104,-3.753 0.622,-1.813 1.096,-3.019 1.423,-3.62 0.175,-0.321 0.344,-0.579 0.508,-0.774 0.169,-0.185 0.352,-0.377 0.55,-0.577" /><path
       inkscape:connector-curvature="0"
       id="path937"
       style="fill:#f6eae4;fill-opacity:1;fill-rule:nonzero;stroke:none;stroke-width:0.1"
       d="m 235.545,536.62 c 3.809,0.479 5.575,2.314 5.298,5.507 -0.135,1.18 -0.622,2.174 -1.462,2.981 -0.849,0.821 -2.066,1.25 -3.652,1.285 -0.802,0.009 -1.437,0.027 -1.903,0.05 -0.839,0.059 -1.468,0.265 -1.886,0.619 -0.418,0.346 -0.654,0.759 -0.708,1.239 -0.075,0.801 0.134,1.434 0.629,1.899 0.474,0.447 1.099,0.715 1.876,0.803 1.503,0.14 2.926,-0.13 4.268,-0.811 l 1.169,2.239 c -1.656,0.93 -3.522,1.3 -5.599,1.111 -1.719,-0.211 -2.997,-0.811 -3.833,-1.801 -0.866,-1.001 -1.216,-2.228 -1.051,-3.683 0.138,-1.211 0.639,-2.195 1.505,-2.953 0.839,-0.737 1.988,-1.143 3.446,-1.216 0.813,-0.023 1.559,-0.043 2.24,-0.058 1.491,-0.086 2.298,-0.749 2.424,-1.992 0.142,-1.519 -0.866,-2.417 -3.025,-2.693 -1.83,-0.192 -3.469,0.181 -4.917,1.119 l -1.441,-2.084 c 1.947,-1.322 4.154,-1.842 6.622,-1.561" /><path
       inkscape:connector-curvature="0"
       id="path939"
       style="fill:#f6eae4;fill-opacity:1;fill-rule:nonzero;stroke:none;stroke-width:0.1"
       d="m 257.277,539.352 c -1.83,0.189 -3.356,0.892 -4.58,2.109 l -1.84,-1.743 c 1.633,-1.694 3.685,-2.659 6.157,-2.893 3.827,-0.317 5.934,1.115 6.32,4.296 0.112,1.183 -0.159,2.256 -0.815,3.218 -0.661,0.979 -1.764,1.65 -3.308,2.011 -0.784,0.175 -1.401,0.322 -1.852,0.442 -0.809,0.23 -1.382,0.562 -1.718,0.994 -0.338,0.425 -0.483,0.878 -0.437,1.358 0.091,0.8 0.427,1.376 1.007,1.729 0.555,0.34 1.222,0.473 2.001,0.399 1.5,-0.173 2.836,-0.731 4.009,-1.674 l 1.606,1.95 c -1.429,1.251 -3.179,1.999 -5.25,2.241 -1.725,0.149 -3.099,-0.175 -4.122,-0.971 -1.053,-0.801 -1.65,-1.93 -1.787,-3.387 -0.116,-1.213 0.172,-2.28 0.863,-3.2 0.668,-0.895 1.709,-1.528 3.122,-1.901 0.79,-0.191 1.516,-0.363 2.179,-0.519 1.441,-0.39 2.095,-1.207 1.961,-2.449 -0.174,-1.516 -1.346,-2.185 -3.516,-2.01" /><path
       inkscape:connector-curvature="0"
       id="path941"
       style="fill:#f6eae4;fill-opacity:1;fill-rule:nonzero;stroke:none;stroke-width:0.1"
       d="m 282.238,548.952 -8.865,-9.839 -0.662,-2.165 6.683,-2.045 -0.729,-2.385 2.297,-0.703 0.73,2.385 1.275,-0.39 0.663,2.166 -1.276,0.39 1.409,4.605 -2.297,0.704 -1.409,-4.606 -4.189,1.281 8.931,9.818 -2.561,0.784" /><path
       inkscape:connector-curvature="0"
       id="path943"
       style="fill:#f6eae4;fill-opacity:1;fill-rule:nonzero;stroke:none;stroke-width:0.1"
       d="m 307.203,532.453 c 0.445,1.357 0.451,2.698 0.019,4.023 -0.435,1.319 -1.356,2.376 -2.764,3.172 -1.16,0.625 -2.275,0.883 -3.343,0.773 -1.078,-0.096 -1.981,-0.383 -2.712,-0.864 -0.418,-0.233 -0.84,-0.608 -1.266,-1.125 -0.42,-0.522 -1.101,-1.634 -2.043,-3.337 -0.928,-1.676 -1.505,-2.837 -1.731,-3.483 -0.121,-0.345 -0.199,-0.643 -0.233,-0.896 -0.025,-0.249 -0.044,-0.514 -0.059,-0.795 -0.019,-0.874 0.22,-1.786 0.719,-2.737 0.474,-0.963 1.281,-1.777 2.419,-2.442 1.51,-0.801 3.031,-0.981 4.562,-0.541 1.528,0.451 2.712,1.403 3.552,2.857 l 1.653,2.987 -5.21,2.883 -1.164,-2.102 2.988,-1.653 -0.424,-0.764 c -0.521,-0.912 -1.219,-1.493 -2.094,-1.745 -0.891,-0.278 -1.768,-0.178 -2.633,0.301 -0.523,0.289 -0.911,0.649 -1.164,1.078 -0.278,0.399 -0.451,0.814 -0.519,1.246 -0.114,0.475 -0.077,0.993 0.111,1.555 0.175,0.569 0.662,1.574 1.459,3.015 0.798,1.442 1.395,2.395 1.792,2.859 0.369,0.444 0.784,0.743 1.247,0.899 0.402,0.172 0.85,0.253 1.343,0.242 0.483,-0.013 0.99,-0.158 1.52,-0.434 0.703,-0.407 1.194,-0.945 1.471,-1.615 0.246,-0.679 0.296,-1.364 0.151,-2.054 l 2.353,-1.303" /><path
       inkscape:connector-curvature="0"
       id="path945"
       style="fill:#f6eae4;fill-opacity:1;fill-rule:nonzero;stroke:none;stroke-width:0.1"
       d="m 168.846,474.62 c -3.579,0.029 -6.666,1.11 -9.261,3.243 l -3.244,-3.713 c 3.475,-2.983 7.629,-4.474 12.461,-4.474 7.471,0.089 11.289,3.251 11.453,9.485 0,2.311 -0.724,4.339 -2.17,6.084 -1.462,1.774 -3.721,2.871 -6.778,3.289 -1.551,0.193 -2.774,0.365 -3.669,0.514 -1.61,0.298 -2.781,0.835 -3.512,1.611 -0.731,0.76 -1.096,1.61 -1.096,2.55 0.03,1.566 0.574,2.744 1.633,3.534 1.014,0.761 2.282,1.141 3.803,1.141 2.938,-0.059 5.629,-0.895 8.075,-2.505 l 2.752,4.071 c -2.998,2.162 -6.525,3.289 -10.581,3.378 -3.37,-0.03 -5.973,-0.91 -7.807,-2.64 -1.894,-1.745 -2.841,-4.042 -2.841,-6.89 0,-2.371 0.753,-4.384 2.259,-6.04 1.461,-1.61 3.594,-2.647 6.398,-3.109 1.566,-0.224 3.005,-0.425 4.317,-0.604 2.864,-0.492 4.28,-1.954 4.251,-4.384 -0.06,-2.968 -2.208,-4.482 -6.443,-4.541" /><path
       inkscape:connector-curvature="0"
       id="path947"
       style="fill:#f6eae4;fill-opacity:1;fill-rule:nonzero;stroke:none;stroke-width:0.1"
       d="m 212.579,492.806 c 0.209,1.104 0.634,2.006 1.275,2.707 0.522,0.671 1.209,1.23 2.058,1.678 0.835,0.432 1.835,0.663 2.998,0.693 1.178,-0.03 2.2,-0.261 3.065,-0.693 0.82,-0.448 1.476,-1.007 1.968,-1.678 0.641,-0.701 1.081,-1.603 1.32,-2.707 0.224,-1.163 0.336,-3.348 0.336,-6.554 0,-3.207 -0.112,-5.377 -0.336,-6.51 -0.239,-1.134 -0.679,-2.051 -1.32,-2.751 -0.492,-0.672 -1.148,-1.216 -1.968,-1.634 -0.865,-0.491 -1.887,-0.737 -3.065,-0.737 -1.163,0 -2.163,0.246 -2.998,0.737 -0.849,0.418 -1.536,0.962 -2.058,1.634 -0.641,0.7 -1.066,1.617 -1.275,2.751 -0.238,1.133 -0.358,3.303 -0.358,6.51 0,3.206 0.12,5.391 0.358,6.554 z m -4.541,-15.86 c 0.194,-0.448 0.41,-0.917 0.649,-1.409 0.79,-1.507 2.058,-2.834 3.803,-3.982 1.715,-1.194 3.855,-1.82 6.42,-1.879 2.595,0.059 4.757,0.685 6.487,1.879 1.715,1.148 2.953,2.475 3.714,3.982 0.551,0.79 0.932,1.841 1.14,3.154 0.194,1.312 0.291,3.832 0.291,7.561 0,3.787 -0.097,6.323 -0.291,7.605 -0.208,1.283 -0.589,2.319 -1.14,3.11 -0.761,1.506 -1.999,2.848 -3.714,4.027 -1.73,1.192 -3.892,1.804 -6.487,1.834 -2.565,-0.03 -4.705,-0.642 -6.42,-1.834 -1.745,-1.179 -3.013,-2.521 -3.803,-4.027 -0.492,-0.791 -0.858,-1.827 -1.096,-3.11 -0.224,-1.282 -0.336,-3.818 -0.336,-7.605 0,-3.729 0.112,-6.249 0.336,-7.561 0.119,-0.701 0.268,-1.283 0.447,-1.745" /><path
       inkscape:connector-curvature="0"
       id="path949"
       style="fill:#f6eae4;fill-opacity:1;fill-rule:nonzero;stroke:none;stroke-width:0.1"
       d="m 263.919,469.944 h 4.966 v 28.209 h 8.925 v 4.407 h -22.817 v -4.407 h 8.926 v -28.209" /><path
       inkscape:connector-curvature="0"
       id="path951"
       style="fill:#f6eae4;fill-opacity:1;fill-rule:nonzero;stroke:none;stroke-width:0.1"
       d="m 309.151,490.278 h 0.09 l 6.822,-15.658 h 4.116 l 6.823,15.658 h 0.112 v -20.334 h 4.944 v 32.616 h -4.676 l -9.171,-21.252 -9.351,21.252 h -4.653 v -32.616 h 4.944 v 20.334" /><path
       inkscape:connector-curvature="0"
       id="path953"
       style="fill:#f6eae4;fill-opacity:1;fill-rule:nonzero;stroke:none;stroke-width:0.1"
       d="m 441.084,450.965 c -0.002,0.001 -0.005,0.003 -0.008,0.004 0.003,0.001 0.006,0.003 0.008,0.004 h -0.016 c -2.995,1.323 -5.422,3.696 -6.812,6.654 v 0.019 c -0.002,-0.003 -0.004,-0.006 -0.005,-0.009 -0.002,0.003 -0.003,0.006 -0.005,0.009 v -0.019 c -1.391,-2.958 -3.817,-5.331 -6.813,-6.654 h -0.016 c 0.003,-0.001 0.006,-0.003 0.009,-0.004 -0.003,-10e-4 -0.006,-0.003 -0.009,-0.004 h 0.016 c 2.996,-1.323 5.422,-3.696 6.813,-6.655 v -0.019 c 0.002,0.004 0.003,0.007 0.005,0.01 0.001,-0.003 0.003,-0.006 0.005,-0.01 v 0.019 c 1.39,2.959 3.817,5.332 6.812,6.655 h 0.016" /><path
       inkscape:connector-curvature="0"
       id="path955"
       style="fill:#f6eae4;fill-opacity:1;fill-rule:nonzero;stroke:none;stroke-width:0.1"
       d="m 353.75,434.05 c 2.996,-1.323 5.422,-3.696 6.813,-6.655 v -0.018 c 0.001,0.003 0.003,0.006 0.004,0.009 0.002,-0.003 0.004,-0.006 0.005,-0.009 v 0.018 c 1.391,2.959 3.817,5.332 6.813,6.655 h 0.016 c -0.003,0.002 -0.006,0.003 -0.008,0.004 0.002,0.001 0.005,0.003 0.008,0.004 h -0.016 c -2.996,1.323 -5.422,3.696 -6.813,6.655 v 0.018 c -10e-4,-0.003 -0.003,-0.006 -0.005,-0.009 -0.001,0.003 -0.003,0.006 -0.004,0.009 v -0.018 c -1.391,-2.959 -3.817,-5.332 -6.813,-6.655 h -0.016 c 0.003,-10e-4 0.005,-0.003 0.008,-0.004 -0.003,-10e-4 -0.005,-0.002 -0.008,-0.004 h 0.016" /><path
       inkscape:connector-curvature="0"
       id="path957"
       style="fill:#f6eae4;fill-opacity:1;fill-rule:nonzero;stroke:none;stroke-width:0.1"
       d="m 373.177,384.009 c -2.995,1.323 -5.421,3.696 -6.812,6.655 v 0.019 c -0.002,-0.004 -0.003,-0.007 -0.005,-0.01 -0.001,0.003 -0.003,0.006 -0.005,0.01 v -0.019 c -1.39,-2.959 -3.817,-5.332 -6.812,-6.655 h -0.016 c 0.003,-0.001 0.005,-0.003 0.007,-0.004 -0.002,-10e-4 -0.004,-0.003 -0.007,-0.004 h 0.016 c 2.995,-1.323 5.422,-3.696 6.812,-6.654 v -0.019 c 0.002,0.003 0.004,0.006 0.005,0.009 0.002,-0.003 0.003,-0.006 0.005,-0.009 v 0.019 c 1.391,2.958 3.817,5.331 6.812,6.654 h 0.017 c -0.003,0.001 -0.006,0.003 -0.009,0.004 0.003,10e-4 0.006,0.003 0.009,0.004 h -0.017" /><path
       inkscape:connector-curvature="0"
       id="path959"
       style="fill:#f6eae4;fill-opacity:1;fill-rule:nonzero;stroke:none;stroke-width:0.1"
       d="m 325.018,400.916 c 2.996,-1.323 5.422,-3.696 6.813,-6.655 v -0.019 c 10e-4,0.004 0.003,0.006 0.004,0.01 0.002,-0.004 0.004,-0.006 0.005,-0.01 v 0.019 c 1.391,2.959 3.817,5.332 6.813,6.655 h 0.016 c -0.003,10e-4 -0.006,0.002 -0.008,0.004 0.002,10e-4 0.005,0.002 0.008,0.003 h -0.016 c -2.996,1.324 -5.422,3.697 -6.813,6.655 v 0.019 c -10e-4,-0.003 -0.003,-0.006 -0.005,-0.009 -10e-4,0.003 -0.003,0.006 -0.004,0.009 v -0.019 c -1.391,-2.958 -3.817,-5.331 -6.813,-6.655 h -0.016 c 0.003,-10e-4 0.005,-0.002 0.008,-0.003 -0.003,-0.002 -0.005,-0.003 -0.008,-0.004 h 0.016" /><path
       inkscape:connector-curvature="0"
       id="path961"
       style="fill:#f6eae4;fill-opacity:1;fill-rule:nonzero;stroke:none;stroke-width:0.1"
       d="m 360.35,368.947 c -2.246,0.992 -4.066,2.772 -5.109,4.99 v 0.014 c 0,-0.002 -0.002,-0.005 -0.003,-0.007 -10e-4,0.002 -0.002,0.005 -0.003,0.007 v -0.014 c -1.043,-2.218 -2.863,-3.998 -5.109,-4.99 h -0.012 c 0.002,-10e-4 0.004,-0.002 0.006,-0.003 -0.002,-0.001 -0.004,-0.002 -0.006,-0.003 h 0.012 c 2.246,-0.992 4.066,-2.772 5.109,-4.99 v -0.015 c 10e-4,0.003 0.002,0.005 0.003,0.008 10e-4,-0.003 0.003,-0.005 0.003,-0.008 v 0.015 c 1.043,2.218 2.863,3.998 5.109,4.99 h 0.012 c -0.002,0.001 -0.004,0.002 -0.006,0.003 0.002,10e-4 0.004,0.002 0.006,0.003 h -0.012" /><path
       inkscape:connector-curvature="0"
       id="path963"
       style="fill:#f6eae4;fill-opacity:1;fill-rule:nonzero;stroke:none;stroke-width:0.1"
       d="m 449.339,435.911 h -0.013 c -2.246,0.992 -4.065,2.772 -5.108,4.99 v 0.014 c -0.001,-0.002 -0.002,-0.005 -0.004,-0.007 -10e-4,0.002 -0.002,0.005 -0.003,0.007 v -0.014 c -1.043,-2.218 -2.863,-3.998 -5.109,-4.99 h -0.012 c 0.002,-10e-4 0.004,-0.002 0.006,-0.003 -0.002,-0.001 -0.004,-0.002 -0.006,-0.003 h 0.012 c 2.246,-0.992 4.066,-2.772 5.109,-4.99 v -0.014 c 10e-4,0.002 0.002,0.004 0.003,0.007 0.002,-0.003 0.003,-0.005 0.004,-0.007 v 0.014 c 1.043,2.218 2.862,3.998 5.108,4.99 h 0.013 c -0.002,0.001 -0.004,0.002 -0.007,0.003 0.003,10e-4 0.005,0.002 0.007,0.003" /><path
       inkscape:connector-curvature="0"
       id="path965"
       style="fill:#f6eae4;fill-opacity:1;fill-rule:nonzero;stroke:none;stroke-width:0.1"
       d="m 403.904,427.571 c -3.669,1.62 -6.64,4.527 -8.343,8.149 v 0.023 c -0.002,-0.004 -0.004,-0.007 -0.006,-0.011 -0.002,0.004 -0.003,0.007 -0.005,0.011 v -0.023 c -1.704,-3.622 -4.675,-6.529 -8.343,-8.149 h -0.02 c 0.004,-0.002 0.007,-0.003 0.01,-0.005 -0.003,-10e-4 -0.006,-0.003 -0.01,-0.005 h 0.02 c 3.668,-1.62 6.639,-4.526 8.343,-8.148 v -0.024 c 0.002,0.004 0.003,0.008 0.005,0.012 0.002,-0.004 0.004,-0.008 0.006,-0.012 v 0.024 c 1.703,3.622 4.674,6.528 8.343,8.148 h 0.02 c -0.004,0.002 -0.007,0.004 -0.01,0.005 0.003,0.002 0.006,0.003 0.01,0.005 h -0.02" /></g></svg>