<svg id="Layer_1" data-name="Layer 1" xmlns="http://www.w3.org/2000/svg" viewBox="0 0 607.44 240"><defs><style>.cls-1{fill:#fff;}</style></defs><title>svg_color</title><path class="cls-1" d="M609.6,229.44H2.16v-240H609.6ZM223.42,107.59q0-25.38,0-50.76a2,2,0,0,0-1.3-2q-9.7-4.82-19.38-9.68l-19.28-9.63Q173,30.25,162.5,25q-8.94-4.49-17.89-8.94c-7.42-3.72-14.89-7.35-22.23-11.22a5.07,5.07,0,0,0-5.44,0c-6.8,3.61-13.75,6.94-20.64,10.39L74.05,26.37Q62.8,32,51.55,37.61L34.84,46C29,48.9,23.08,51.87,17.17,54.79A2.14,2.14,0,0,0,15.84,57q.08,9.84,0,19.67a1.89,1.89,0,0,0,1.2,2c5.93,3,11.85,5.94,17.79,8.87a2.15,2.15,0,0,1,1.4,2.22c-.06,5.88,0,11.76,0,17.63A2.07,2.07,0,0,0,37,109c5.29,2.72,10.63,5.34,15.95,8a5.54,5.54,0,0,1,.86.69c-.26.28-.47.66-.78.82-2.42,1.24-4.86,2.43-7.29,3.64Q31.33,129.31,17,136.47a1.79,1.79,0,0,0-1.13,1.86c0,6.48.06,13,0,19.44a2.32,2.32,0,0,0,1.7,2.62,16.45,16.45,0,0,1,1.92,1c5.85,2.94,11.69,5.89,17.56,8.78a2.35,2.35,0,0,0,1.69,0c1.15-.46,2.23-1.08,3.34-1.63l18.14-9c5-2.49,10.1-4.95,15.14-7.46,1.39-.69,1.69-.55,1.69,1,0,5.24,0,10.48,0,15.72a2.15,2.15,0,0,0,.76,1.55,23.93,23.93,0,0,0,3,1.49c5.21,2.52,10.41,5.06,15.63,7.55a1.87,1.87,0,0,1,1.19,2c0,5.64.06,11.29-.08,16.92a2.88,2.88,0,0,0,2,3.07c6.39,3.12,12.75,6.28,19.07,9.53a2.07,2.07,0,0,0,2.31,0c5.7-3,11.46-5.82,17.22-8.68q12.06-6,24.13-12c6-3,12-6,18-9q11.83-5.9,23.7-11.77c6.07-3,12.13-6.08,18.2-9.1a2,2,0,0,0,1.33-2Q223.4,132.9,223.42,107.59Zm40.12,31.76-.81-1.34c-2.75-4.82-5.65-9.57-8.19-14.5-1.15-2.24-2.49-3.17-5-2.84-1.61.22-1.66.06-1.66,1.74v29.16c0,1.62.12,1.73,1.68,1.73.64,0,1.29,0,1.92,0,1.14.09,1.6-.41,1.59-1.53C253,145.5,253,139.22,253,133v-1.69a2.73,2.73,0,0,1,.93,1.05l7.59,13.33a2.54,2.54,0,0,0,4.09,0q3.87-6.75,7.72-13.53c.18-.32.4-.62.61-.94a2.65,2.65,0,0,1,.2,1.22c0,5.8,0,11.6,0,17.4,0,4-.43,3.42,3.51,3.51,1.15,0,1.57-.35,1.55-1.51,0-3.92,0-7.84,0-11.76,0-6,0-11.92,0-17.87,0-1.08-.31-1.58-1.43-1.48a13,13,0,0,1-2.16,0,1.81,1.81,0,0,0-2,1.1c-3.05,5.44-6.16,10.84-9.26,16.24C264.11,138.42,263.88,138.78,263.54,139.35ZM562.89,91.74a6.47,6.47,0,0,1-1.61,5.06,6.3,6.3,0,0,1-10-1.28c-.45-.83-.92-1.12-1.81-.69s-1.82.81-2.76,1.15c-.66.23-.74.55-.49,1.17a9.46,9.46,0,0,0,3.2,4.11,12.52,12.52,0,0,0,8.77,2.12,10.16,10.16,0,0,0,9.15-7.45,19.71,19.71,0,0,0,.61-4.85c.07-5.87,0-11.75,0-17.63,0-3.18.06-2.86-2.86-2.86-1.89,0-1.89,0-2.41,1.83l-.57-.43a10,10,0,0,0-12.52.18,13,13,0,0,0-2.34,16.94c2.52,3.7,6,5.48,10.51,4.63A29,29,0,0,0,562.89,91.74ZM253.09,80.52a17.29,17.29,0,0,0,1.92,0,2.42,2.42,0,0,1,2.61,1.34c2.27,3.57,4.66,7.07,7,10.58a1.86,1.86,0,0,0,1.14.83,32.52,32.52,0,0,0,3.95,0c.95,0,1.25-.65.73-1.44-.7-1.06-1.45-2.1-2.17-3.16-2-2.85-3.94-5.7-5.95-8.63.35-.17.59-.3.84-.4a9.78,9.78,0,0,0,6.23-11,10.06,10.06,0,0,0-9.82-7.92h-10c-1.74,0-1.75,0-1.75,1.73V90c0,3.72-.32,3.26,3.25,3.28,1.79,0,1.92-.13,1.93-1.89Zm182.64,57.87c0-5.42-1.16-9.25-3.53-12.37a11.22,11.22,0,0,0-18.2-.11,17.11,17.11,0,0,0-3.43,9.06c-.48,5,.15,9.73,3.08,14a11.26,11.26,0,0,0,18.42.58A18.12,18.12,0,0,0,435.73,138.39Zm-117.94-66-.92-.66a10.07,10.07,0,0,0-12.15.31A13,13,0,0,0,302,88.59c3.85,6.44,11.41,6.65,15.45,3.08a1.66,1.66,0,0,1,.4-.21c.46,1.84.46,1.84,2.48,1.84h1.08c1.41,0,1.56-.15,1.56-1.61q0-7.92,0-15.83V62.55c0-1.84,0-1.84-1.9-1.84-.68,0-1.36,0-2,0-.87,0-1.24.32-1.21,1.2,0,1.44,0,2.88,0,4.32C317.79,68.21,317.79,70.19,317.79,72.42Zm142.06-6.74c-4.21-5.56-11.73-7-18.24-4.74-7,2.38-11.18,9-10.94,16.85a16.59,16.59,0,0,0,11.84,15.5c7,1.91,14.94-.52,18.21-5.54-.84-.86-1.68-1.71-2.5-2.58s-1.33-.79-2.15.06a11.64,11.64,0,0,1-15.94,1.19c-3.54-2.91-4.59-6.78-4.11-11.17.5-4.58,2.86-7.91,7.16-9.51,4.51-1.68,8.74-1.08,12.21,2.58.52.55,1,.75,1.63.17C458,67.58,458.88,66.64,459.85,65.68ZM579.16,83.21H596c-.1-1.44-.12-2.75-.31-4-1.39-9.37-10.49-10.78-15.74-8.17-4.77,2.38-7.21,8.16-5.9,13.93a11.58,11.58,0,0,0,21,3.72c.4-.61.67-1.27-.17-1.72-1.18-.64-2.41-1.19-3.58-1.77-3,3.84-5.25,4.77-8.33,3.56A5.85,5.85,0,0,1,579.16,83.21Zm-109.1,58.9c-.36.54-.59.9-.84,1.25-1.63,2.27-3.26,4.54-4.91,6.79-.59.81-.56,1.43.34,2a22.3,22.3,0,0,1,1.88,1.29c.83.64,1.38.45,2-.41,2.72-4.13,5.5-8.23,8.23-12.36a24.78,24.78,0,0,0,1.67-3,12.43,12.43,0,0,0,1.23-7.56,10.77,10.77,0,0,0-12-8.61,11.36,11.36,0,0,0-9.08,7.38,10.3,10.3,0,0,0,3.11,11A10,10,0,0,0,470.06,142.11ZM471.68,72a.62.62,0,0,1-.05-.25c0-2.52.09-5,.09-7.55,0-4,.48-3.42-3.52-3.47-1.62,0-1.65,0-1.65,1.72V86.65c0,1.68,0,3.36,0,5,0,1.45.15,1.6,1.55,1.61h1.56c2,0,2.06-.07,2.06-2.12,0-3.44,0-6.87,0-10.31a6.31,6.31,0,0,1,2.47-5.22,4.72,4.72,0,0,1,5-.56c1.64.68,2.2,2.1,2.33,3.75,0,.48.05,1,.05,1.44,0,3.8,0,7.59,0,11.39,0,1.39.24,1.62,1.58,1.63.68,0,1.36,0,2,0,1.14.1,1.57-.37,1.56-1.52-.05-4.55.07-9.11-.08-13.66-.21-6.34-4.94-8.9-10-8.07C474.93,70.33,473.34,71.31,471.68,72Zm35.76,19.36c.32,2,.32,2,2.06,2,.48,0,1,0,1.44,0,1.12.1,1.6-.39,1.6-1.52,0-4.24,0-8.47,0-12.71a8.6,8.6,0,0,0-6.17-8.6,13.23,13.23,0,0,0-8,0,9.46,9.46,0,0,0-4.76,3.27c-.46.57-.6,1.17.12,1.64,1.16.75,2.34,1.48,3.57,2.25,1.85-2.61,4.19-3.71,7.22-2.66a4.18,4.18,0,0,1,2.93,4c-.43-.12-.83-.24-1.24-.34a14.83,14.83,0,0,0-8.94.37,7.24,7.24,0,0,0-4.82,8.15,8.58,8.58,0,0,0,9.71,6.74A9.3,9.3,0,0,0,507.44,91.34Zm-114.14,57-.13-.29c.26-.29.52-.58.79-.86,2.12-2.12,4.35-4.14,6.32-6.39a32,32,0,0,0,4.38-6.08,8.67,8.67,0,0,0-1.5-10.31,10.67,10.67,0,0,0-17.26,3.52c-.24.66-.2,1,.52,1.27s1.71.67,2.55,1,1.36.23,1.78-.69a6.28,6.28,0,0,1,1.47-2,5.39,5.39,0,0,1,6.55-.15c1.8,1.41,2.2,3.62,1,5.92a12.25,12.25,0,0,1-1.82,2.52c-3.8,4-7.66,7.93-11.47,11.92a2.34,2.34,0,0,0-.67,1.29c-.1,1,0,2.08,0,3.12,0,.79.36,1.16,1.16,1.16h18c.81,0,1.17-.37,1.16-1.17s0-1.76,0-2.63-.42-1.2-1.25-1.19H393.3ZM382.93,79a15.93,15.93,0,0,0-8.6-.45c-6.18,1.37-8.55,8.11-4.46,12.56a9.23,9.23,0,0,0,12.39.89c.22-.18.46-.33.75-.53.19,1.78.26,1.84,1.93,1.84.64,0,1.28,0,1.92,0,.87,0,1.23-.4,1.23-1.23,0-4.64.09-9.29-.09-13.92a7.64,7.64,0,0,0-5.17-7.28,17.41,17.41,0,0,0-6-.92,9.69,9.69,0,0,0-7.71,3.77c-.45.56-.6,1.12,0,1.54,1.19.84,2.45,1.58,3.67,2.35,2.4-2.88,4.83-3.69,7.4-2.58C382.06,75.83,383.16,77.42,382.93,79Zm-93.3,0a17,17,0,0,0-8.59-.43c-4.9,1.07-7.53,5.3-6.13,9.86,1.1,3.57,5.38,6,9.5,5.53a8.75,8.75,0,0,0,5.19-2.53c.47,1.91.47,1.91,2.41,1.91.48,0,1,0,1.44,0,.84,0,1.28-.33,1.27-1.19,0-4.71.06-9.43-.08-14.15a7.65,7.65,0,0,0-3-5.88c-2.5-2-5.44-2.41-8.49-2.14a10.1,10.1,0,0,0-7.26,3.72c-.5.63-.65,1.22.11,1.72,1.15.76,2.34,1.49,3.49,2.21,2.62-2.89,4.84-3.65,7.37-2.59A4.1,4.1,0,0,1,289.63,79Zm-1.29,58.64c2.87-3,5.14-3.72,7.68-2.46,1.73.86,2.69,2.36,2.44,3.84l-1-.27a14.63,14.63,0,0,0-9.51.52,7.4,7.4,0,0,0-2.14,12.24,9.25,9.25,0,0,0,12,.58c.24-.19.49-.36.77-.56.4,1.81.4,1.81,2.21,1.81.52,0,1,0,1.56,0,.9.05,1.33-.34,1.33-1.26,0-4.59.08-9.19-.06-13.79a7.65,7.65,0,0,0-5.08-7.33,16.88,16.88,0,0,0-6-1,9.68,9.68,0,0,0-7.82,3.79c-.52.66-.52,1.24.21,1.71C286.05,136.19,287.2,136.89,288.34,137.6Zm66.39-5.11c0-3.67,0-7,0-10.37,0-1-.29-1.5-1.37-1.42-.71.06-1.44,0-2.16,0-1.47,0-1.53.07-1.54,1.58v23.63c0,2,0,3.92,0,5.88,0,1.15.43,1.61,1.57,1.51.63-.05,1.27,0,1.91,0,1.49,0,1.58-.09,1.58-1.56,0-3.32,0-6.64,0-10,0-2.45.59-4.68,2.71-6.22a4.79,4.79,0,0,1,4.89-.44c1.59.65,2.12,2.06,2.28,3.66.05.51.06,1,.06,1.55,0,3.8,0,7.6,0,11.4,0,1.08.36,1.66,1.54,1.58a17.35,17.35,0,0,1,2.28,0c1,.06,1.34-.37,1.34-1.34,0-4.64,0-9.28,0-13.92-.08-4.83-3.41-8.05-8.23-8.17A9.9,9.9,0,0,0,354.73,132.49ZM524.48,72.05c-.35-1.46-.35-1.46-2.25-1.46h-1.68c-.81,0-1.16.38-1.16,1.17q0,10.2,0,20.39c0,.8.39,1.16,1.18,1.15H523c1.42,0,1.6-.18,1.6-1.59q0-5.62,0-11.27a6.12,6.12,0,0,1,1.53-4.06,4.88,4.88,0,0,1,5.44-1.46c1.87.52,2.65,1.94,2.83,3.76a13.55,13.55,0,0,1,.09,1.43c0,3.68,0,7.36,0,11,0,2.16,0,2.16,2.1,2.16.56,0,1.12,0,1.68,0,.93.06,1.29-.37,1.28-1.28,0-4.67.1-9.35,0-14-.19-6.09-4.91-8.87-10.14-7.91A25.44,25.44,0,0,0,524.48,72.05ZM358.93,78.88l3.3-1.38c1.21-.52,1.32-.85.72-2-3-5.73-10.84-7.47-16.26-3.62A12.64,12.64,0,0,0,342.76,87a11.38,11.38,0,0,0,13.06,6.7,9.89,9.89,0,0,0,7.48-5.92c.14-.3,0-1-.19-1.12-1.27-.64-2.6-1.16-3.94-1.73-.19.34-.33.57-.46.82a6,6,0,0,1-10.64.38,8.46,8.46,0,0,1,.16-8.75,5.83,5.83,0,0,1,10.26.63Zm-18,60,3.27-1.36c1.27-.54,1.38-.87.75-2.08a11,11,0,0,0-14.19-4.67c-5.67,2.42-8.39,9-6.32,15.32a11.4,11.4,0,0,0,13.73,7.55,10.14,10.14,0,0,0,7.57-6.74L341.2,145c-.18.34-.3.55-.4.77a6,6,0,0,1-10.7.39A7.94,7.94,0,0,1,330,138a5.84,5.84,0,0,1,6.49-3.19C338.76,135.18,340,136.74,340.94,138.9Zm74.91-61.15a33.19,33.19,0,0,1-2.82-4.1c-1.3-2.61-3.24-3.62-6-3.05-.42.09-1,.19-1.17.47a1.61,1.61,0,0,0,.31,1.24c1.94,2.84,3.9,5.66,5.92,8.44a1.41,1.41,0,0,1,0,2c-2.12,3-4.17,6-6.22,9a1.32,1.32,0,0,0-.2,1.13,1.49,1.49,0,0,0,1.06.47c.91.07,1.84-.06,2.75,0a2,2,0,0,0,2.12-1.11c1.31-2.14,2.73-4.21,4.2-6.44A31.77,31.77,0,0,1,418.55,90c1.29,2.83,3.33,3.92,6.33,3.31.39-.08,1-.17,1.08-.42a1.57,1.57,0,0,0-.22-1.25c-1.9-2.76-3.86-5.48-5.76-8.25-1.35-2-1.37-1.26,0-3.22,1.85-2.66,3.76-5.27,5.6-7.93a1.6,1.6,0,0,0,.26-1.17c-.06-.22-.6-.39-.94-.44-.55-.07-1.13.06-1.68,0-1.94-.35-3.16.43-4.08,2.16S417,76,415.85,77.75Zm31.06,50.74v1.65q0,10,0,19.92c0,3.64-.36,3.23,3.28,3.24,1.76,0,1.85-.08,1.85-1.81V126.05c0-.92,0-1.84,0-2.76s-.37-1.35-1.22-1.24a12.77,12.77,0,0,0-3.34.66c-2.43,1-4.79,2.19-7.17,3.31-.31.15-.6.34-.95.53.66,1.48,1.28,2.85,2,4.34Zm-123.59,2.27c-3.63-1.54-6.71-.67-9.5,1.89-.29-2.06-.29-2.06-2.27-2.06-.52,0-1,0-1.55,0-.87,0-1.24.4-1.24,1.23s0,1.68,0,2.52q0,8.63,0,17.25c0,1.52.2,1.71,1.74,1.71h1.79c1.46,0,1.59-.13,1.59-1.58,0-3.55,0-7.11,0-10.66a6,6,0,0,1,1.57-4.15c1.4-1.58,3.17-1.81,5.13-1.63a1.72,1.72,0,0,0,1.43-.59A41.14,41.14,0,0,0,323.32,130.76ZM400.09,77c0-4.32,0-8.63,0-13,0-3.91.57-3.32-3.34-3.37-1.7,0-1.71,0-1.71,1.78V89.94c0,3.86-.36,3.33,3.41,3.36,1.5,0,1.64-.14,1.64-1.64Q400.1,84.34,400.09,77ZM330.52,81.8c0,3.36,0,6.71,0,10.07,0,1,.34,1.49,1.39,1.44.84,0,1.68,0,2.52,0s1.24-.4,1.24-1.23c0-1.2,0-2.4,0-3.6,0-5.47,0-10.94,0-16.42,0-1-.33-1.57-1.45-1.48a13,13,0,0,1-2.16,0c-1.13-.08-1.57.35-1.55,1.51C330.55,75.33,330.52,78.57,330.52,81.8Zm5.92-18.07a3.32,3.32,0,0,0-3.34-3.44,3.42,3.42,0,0,0-3.45,3.39,3.5,3.5,0,0,0,3.4,3.46A3.36,3.36,0,0,0,336.44,63.73Z" transform="translate(-2.16 10.56)"/><path d="M223.42,107.59q0,25.3,0,50.63a2,2,0,0,1-1.33,2c-6.07,3-12.13,6.08-18.2,9.1q-11.85,5.9-23.7,11.77c-6,3-12,6-18,9q-12.06,6-24.13,12c-5.76,2.86-11.52,5.72-17.22,8.68a2.07,2.07,0,0,1-2.31,0c-6.32-3.25-12.68-6.41-19.07-9.53a2.88,2.88,0,0,1-2-3.07c.14-5.63,0-11.28.08-16.92a1.87,1.87,0,0,0-1.19-2c-5.22-2.49-10.42-5-15.63-7.55a23.93,23.93,0,0,1-3-1.49,2.15,2.15,0,0,1-.76-1.55c-.06-5.24,0-10.48,0-15.72,0-1.51-.3-1.65-1.69-1-5,2.51-10.1,5-15.14,7.46l-18.14,9c-1.11.55-2.19,1.17-3.34,1.63a2.35,2.35,0,0,1-1.69,0c-5.87-2.89-11.71-5.84-17.56-8.78a16.45,16.45,0,0,0-1.92-1,2.32,2.32,0,0,1-1.7-2.62c.08-6.48.05-13,0-19.44A1.79,1.79,0,0,1,17,136.47q14.37-7.14,28.71-14.35c2.43-1.21,4.87-2.4,7.29-3.64.31-.16.52-.54.78-.82a5.54,5.54,0,0,0-.86-.69c-5.32-2.66-10.66-5.28-15.95-8a2.07,2.07,0,0,1-.72-1.59c0-5.87-.06-11.75,0-17.63a2.15,2.15,0,0,0-1.4-2.22C28.89,84.6,23,81.62,17,78.66a1.89,1.89,0,0,1-1.2-2q.08-9.83,0-19.67a2.14,2.14,0,0,1,1.33-2.24C23.08,51.87,29,48.9,34.84,46l16.71-8.35Q62.8,32,74.05,26.37L96.3,15.19c6.89-3.45,13.84-6.78,20.64-10.39a5.07,5.07,0,0,1,5.44,0c7.34,3.87,14.81,7.5,22.23,11.22q9,4.47,17.89,8.94,10.5,5.25,21,10.53l19.28,9.63q9.69,4.84,19.38,9.68a2,2,0,0,1,1.3,2Q223.4,82.21,223.42,107.59Zm-3.49.92V86.31q0-12.78,0-25.56c0-1.28-.29-1.46-1.37-.84a5.28,5.28,0,0,1-.53.27L197.25,70.56l-24,12L152.47,93l-22.39,11.17c-2.64,1.31-5.3,2.6-7.9,4a2.15,2.15,0,0,0-1,1.53c-.08,4.76,0,9.52,0,14.28,0,.91.32,1.14,1.17.71L139.53,116l20.77-10.39L179.7,96q11-5.52,22-11.06c1-.5,1.25-.31,1.25.83q0,31.07,0,62.15a2,2,0,0,1-1.27,2.16c-1.48.69-2.93,1.45-4.4,2.18q-13.44,6.71-26.89,13.4Q158,171.87,145.5,178.14q-11.56,5.79-23.16,11.51a2,2,0,0,0-1.24,2c0,4.56,0,9.12,0,13.68,0,1.18.37,1.38,1.47.82q4.05-2.08,8.11-4.11c6-3,11.95-5.92,17.91-8.9,7.89-3.95,15.76-7.94,23.65-11.88,7.46-3.73,14.94-7.41,22.41-11.14,8-4,15.9-8,23.87-12A2.15,2.15,0,0,0,220,156Q219.9,132.26,219.93,108.51ZM184.31,56.23l.11.47L103.24,97.25c.74.45,1.09.7,1.46.89,4.74,2.38,9.48,4.78,14.25,7.12a1.87,1.87,0,0,0,1.43,0c1.59-.74,3.13-1.59,4.7-2.37L148.88,91q10.49-5.25,21-10.53l21-10.5,18-9c2.54-1.26,5.08-2.52,7.61-3.8.29-.15.49-.49.73-.74a3.7,3.7,0,0,0-.73-.65c-1.81-.93-3.64-1.82-5.46-2.73L178.15,36.54,139.19,17c-6.14-3.09-12.28-6.14-18.39-9.28a2.6,2.6,0,0,0-2.67.2q-6.82,3.48-13.68,6.9c-7,3.49-13.93,6.94-20.88,10.43s-13.91,7-20.87,10.5L41.82,46.19,22.88,55.71a6.75,6.75,0,0,0-1,.73,4.33,4.33,0,0,0,.91.86c4.63,2.34,9.29,4.63,13.92,7a2.22,2.22,0,0,0,2.24,0c5.9-3,11.82-6,17.74-9L79.11,44.12q9-4.53,18.08-9.09c7-3.49,13.92-7,20.84-10.51a3.11,3.11,0,0,1,3.2,0c6,3.11,12.11,6.12,18.17,9.17q9.69,4.86,19.36,9.74l19.37,9.71Zm-45.9,11.43c0-2.36,0-4.72,0-7.08,0-1.12-.29-1.26-1.29-.76q-14,7-27.92,14Q96.67,80.1,84.13,86.34C76.57,90.12,69,93.93,61.45,97.71a2,2,0,0,0-1.28,2.05c0,4.4,0,8.8,0,13.19,0,1.74.29,1.9,1.86,1.1q8.39-4.23,16.79-8.43L99.72,95.17l20.76-10.4c5.64-2.83,11.26-5.68,16.91-8.47a1.67,1.67,0,0,0,1-1.8C138.38,72.22,138.4,69.94,138.41,67.66Zm-98.82,8.2v7.08c0,.74.13,1.39,1.08.93,2-1,4-2,6-3Q57,75.63,67.28,70.44L88.15,60l21-10.51c2.53-1.26,5.09-2.48,7.59-3.83.58-.31,1.31-1.05,1.33-1.6.1-4.76.07-9.52.07-14.28,0-.77-.38-1-1.09-.69-.25.12-.51.23-.76.36q-7,3.49-13.91,7L79.85,47.64q-9,4.48-18,9c-7.07,3.54-14.13,7.09-21.22,10.59A1.71,1.71,0,0,0,39.58,69C39.61,71.3,39.59,73.58,39.59,75.86Zm139.65,53c0-2.28,0-4.56,0-6.84,0-1.41-.23-1.52-1.54-.87q-10.15,5.11-20.33,10.19l-19.82,9.88L118.05,151,102,159a1.82,1.82,0,0,0-1.25,1.81c0,4.56,0,9.12,0,13.68,0,1.2.32,1.41,1.35.89,3.07-1.52,6.13-3.07,9.21-4.6q9.8-4.87,19.62-9.73l18.12-9,16.61-8.27c4.18-2.08,8.35-4.19,12.54-6.25a1.75,1.75,0,0,0,1.06-1.81C179.21,133.45,179.24,131.17,179.24,128.9ZM82.88,148.3a6.86,6.86,0,0,0,.78.57c4.71,2.37,9.44,4.69,14.12,7.11a3,3,0,0,0,3.11-.11q11.91-6,23.85-12l24-12,20.88-10.43c2-1,4.08-2,6.1-3a1.57,1.57,0,0,0,.62-.78c0-.11-.29-.44-.51-.55L161.58,110a2.17,2.17,0,0,0-2.15-.07c-4.05,2.08-8.12,4.1-12.18,6.14l-18,9L110,134.65,87.43,146C86,146.69,84.56,147.44,82.88,148.3ZM42.06,87.15c.55.33.8.5,1.07.64,4.52,2.3,9.06,4.54,13.54,6.91A3.17,3.17,0,0,0,60,94.6q11.87-6,23.76-11.92c7.54-3.77,15.09-7.5,22.62-11.26q11.94-6,23.88-11.94c1.53-.77,3.08-1.5,4.61-2.29a1.76,1.76,0,0,0,.69-.76c0-.08-.26-.45-.47-.56-3.89-1.94-7.91-3.67-11.65-5.87-2.69-1.58-4.78-1.52-7.54,0-7.3,3.94-14.82,7.48-22.25,11.2Q81.07,67.47,68.5,73.8,56.67,79.72,44.82,85.61C44,86,43.13,86.55,42.06,87.15Zm155,61.3a11.56,11.56,0,0,0-1.24-.9c-4.77-2.4-9.55-4.8-14.35-7.16a1.76,1.76,0,0,0-1.35,0c-5.33,2.63-10.64,5.31-15.95,8l-20.87,10.46-23.78,11.89-15.1,7.54c-.29.14-.73.53-.68.66a1.62,1.62,0,0,0,.73.82c4,2,8.07,4,12.11,6,3.69,1.84,2.32,1.87,6.06,0q17.28-8.66,34.57-17.3l36.63-18.3C194.89,149.64,195.88,149.09,197.1,148.45Zm-32.65-41c.75.47,1.21.8,1.72,1.06q7.5,3.75,15,7.47a2.08,2.08,0,0,1,1.31,2.14c-.07,5.6,0,11.2-.08,16.8a3,3,0,0,0,2,3.18c4.6,2.21,9.16,4.54,13.71,6.85,1.19.6,1.47.48,1.47-.86V91.53c0-1.54-.2-1.66-1.55-1l-30.18,15.13C166.84,106.2,165.8,106.75,164.45,107.44ZM141.81,64.61h0v8.16c0,.73.07,1.34,1.09.82,3.31-1.69,6.63-3.34,10-5l18.2-9.1c1.53-.77,3.08-1.51,4.6-2.3a1.9,1.9,0,0,0,.7-.76c0-.08-.25-.45-.46-.56-5.31-2.66-10.64-5.3-16-8q-11.14-5.55-22.28-11.13L122.77,29.3c-1-.53-1.44-.3-1.43.8,0,4.56,0,9.12,0,13.67a1.84,1.84,0,0,0,1.08,1.83l4.8,2.44c4.48,2.28,8.94,4.58,13.44,6.82a1.94,1.94,0,0,1,1.18,2.08C141.77,59.5,141.81,62.06,141.81,64.61ZM83,107.37a8.78,8.78,0,0,0,1.25.95c4,2,7.92,4,11.88,6,1.24.62,1.47.5,1.47-.86q0-5.94,0-11.88c0-1.15-.37-1.35-1.38-.84l-8.34,4.21ZM36.21,138.13c0-2,0-4,0-6,0-1.17-.21-1.31-1.25-.8-2.76,1.36-5.5,2.75-8.25,4.12-1.36.68-2.74,1.32-4.08,2a1.73,1.73,0,0,0-.68.76c-.05.08.27.44.48.55q6.26,3.15,12.52,6.27c.89.44,1.25.2,1.26-.81C36.22,142.21,36.21,140.17,36.21,138.13ZM77,117.85h0v-6c0-1.23-.36-1.44-1.42-.9q-6,3.06-12.07,6.12c-.25.13-.62.46-.58.61a1.36,1.36,0,0,0,.63.78q6,3.08,12.07,6.09c1.07.54,1.36.36,1.37-.82C77,121.77,77,119.81,77,117.85Zm23.73,10.09c0,2,0,4.07,0,6.11,0,1.09.3,1.22,1.3.72,4-2,8.12-4.05,12.18-6.1.28-.14.71-.54.66-.66a1.6,1.6,0,0,0-.74-.8c-4-2-8.06-4-12.08-6-1.1-.55-1.31-.46-1.32.77C100.73,123.94,100.74,125.94,100.74,127.94ZM54.27,158.61c-.66-.38-.92-.55-1.19-.69-4-1.95-8-3.89-12-5.86-1.19-.59-1.44-.47-1.44.88,0,3.79,0,7.59,0,11.38,0,1.44.3,1.59,1.64.91,2.76-1.41,5.55-2.79,8.32-4.19Zm26.34-20.47c0,2,0,4.07,0,6.11,0,1,.37,1.17,1.26.71l11.83-6a6.19,6.19,0,0,0,.86-.69c-.27-.27-.49-.64-.81-.81q-5.85-3-11.73-5.95c-1.22-.62-1.4-.49-1.41.91C80.61,134.3,80.62,136.22,80.61,138.14Zm-6.1,10.36a3.54,3.54,0,0,0-.63-.57c-4.15-2.14-8.29-4.28-12.46-6.39-.85-.42-1.23-.12-1.24.9,0,4,0,7.91,0,11.87,0,1.1.44,1.33,1.42.83,2.72-1.41,5.46-2.8,8.19-4.2C71.32,150.17,72.82,149.38,74.51,148.5Zm-18-20.58v-6.11c0-.7-.11-1.28-1-.82-4.13,2.09-8.26,4.17-12.37,6.28a1.19,1.19,0,0,0-.56.8c0,.18.36.47.62.6l12.06,6.1c1,.51,1.27.38,1.28-.73C56.53,132,56.52,130,56.52,127.92Z" transform="translate(-2.16 10.56)"/><path d="M263.54,139.35c.34-.57.57-.93.78-1.31,3.1-5.4,6.21-10.8,9.26-16.24a1.81,1.81,0,0,1,2-1.1,13,13,0,0,0,2.16,0c1.12-.1,1.44.4,1.43,1.48,0,5.95,0,11.91,0,17.87,0,3.92,0,7.84,0,11.76,0,1.16-.4,1.54-1.55,1.51-3.94-.09-3.51.52-3.51-3.51,0-5.8,0-11.6,0-17.4a2.65,2.65,0,0,0-.2-1.22c-.21.32-.43.62-.61.94q-3.85,6.76-7.72,13.53a2.54,2.54,0,0,1-4.09,0l-7.59-13.33a2.73,2.73,0,0,0-.93-1.05V133c0,6.27.07,12.55.13,18.83,0,1.12-.45,1.62-1.59,1.53-.63-.05-1.28,0-1.92,0-1.56,0-1.67-.11-1.68-1.73V122.41c0-1.68.05-1.52,1.66-1.74,2.48-.33,3.82.6,5,2.84,2.54,4.93,5.44,9.68,8.19,14.5Z" transform="translate(-2.16 10.56)"/><path d="M562.89,91.74a29,29,0,0,1-5.11,2c-4.48.85-8-.93-10.51-4.63a13,13,0,0,1,2.34-16.94A10,10,0,0,1,562.13,72l.57.43c.52-1.83.52-1.83,2.41-1.83,2.92,0,2.87-.32,2.86,2.86,0,5.88,0,11.76,0,17.63a19.71,19.71,0,0,1-.61,4.85,10.16,10.16,0,0,1-9.15,7.45,12.52,12.52,0,0,1-8.77-2.12,9.46,9.46,0,0,1-3.2-4.11c-.25-.62-.17-.94.49-1.17.94-.34,1.86-.72,2.76-1.15s1.36-.14,1.81.69a6.3,6.3,0,0,0,10,1.28A6.47,6.47,0,0,0,562.89,91.74Zm.35-9.65-.31-.12c0-.52,0-1-.09-1.55a6.56,6.56,0,0,0-5.47-5.69,6,6,0,0,0-6.28,3.63,8.12,8.12,0,0,0,.18,7.49,6,6,0,0,0,10.41.52A20.2,20.2,0,0,0,563.24,82.09Z" transform="translate(-2.16 10.56)"/><path d="M253.09,80.52V91.41c0,1.76-.14,1.9-1.93,1.89-3.57,0-3.25.44-3.25-3.28V62.44c0-1.72,0-1.73,1.75-1.73h10a10.06,10.06,0,0,1,9.82,7.92,9.78,9.78,0,0,1-6.23,11c-.25.1-.49.23-.84.4,2,2.93,4,5.78,5.95,8.63.72,1.06,1.47,2.1,2.17,3.16.52.79.22,1.4-.73,1.44a32.52,32.52,0,0,1-3.95,0,1.86,1.86,0,0,1-1.14-.83c-2.38-3.51-4.77-7-7-10.58A2.42,2.42,0,0,0,255,80.51,17.29,17.29,0,0,1,253.09,80.52Zm.1-14.88v10c2.25,0,4.42.16,6.55,0a4.94,4.94,0,0,0,4.57-5.42c-.2-2.63-2.35-4.47-5.25-4.48Z" transform="translate(-2.16 10.56)"/><path d="M435.73,138.39a18.12,18.12,0,0,1-3.66,11.12,11.26,11.26,0,0,1-18.42-.58c-2.93-4.23-3.56-9-3.08-14a17.11,17.11,0,0,1,3.43-9.06,11.22,11.22,0,0,1,18.2.11C434.57,129.14,435.73,133,435.73,138.39Zm-20.09-1.57c0,4.38.86,7.41,2.45,9.56,2.07,2.79,5.78,3.57,8.33,1.53a8.88,8.88,0,0,0,2.7-3.56,22,22,0,0,0,1.34-6.26,13.6,13.6,0,0,0-2.38-9.08,6,6,0,0,0-10.1.13A14,14,0,0,0,415.64,136.82Z" transform="translate(-2.16 10.56)"/><path d="M317.79,72.42c0-2.23,0-4.21,0-6.19,0-1.44,0-2.88,0-4.32,0-.88.34-1.24,1.21-1.2.67,0,1.35,0,2,0,1.89,0,1.9,0,1.9,1.84V75.86q0,7.92,0,15.83c0,1.46-.15,1.6-1.56,1.61h-1.08c-2,0-2,0-2.48-1.84a1.66,1.66,0,0,0-.4.21c-4,3.57-11.6,3.36-15.45-3.08a13,13,0,0,1,2.77-16.52,10.07,10.07,0,0,1,12.15-.31Zm-6.18,16.72a5.6,5.6,0,0,0,4.77-2.29,8.09,8.09,0,0,0,1.4-6.81,6.47,6.47,0,0,0-5.55-5.34,6.06,6.06,0,0,0-6.1,3.57,8.18,8.18,0,0,0,0,7.28A5.88,5.88,0,0,0,311.61,89.14Z" transform="translate(-2.16 10.56)"/><path d="M459.85,65.68c-1,1-1.89,1.9-2.83,2.81-.6.58-1.11.38-1.63-.17-3.47-3.66-7.7-4.26-12.21-2.58-4.3,1.6-6.66,4.93-7.16,9.51-.48,4.39.57,8.26,4.11,11.17a11.64,11.64,0,0,0,15.94-1.19c.82-.85,1.4-.87,2.15-.06s1.66,1.72,2.5,2.58c-3.27,5-11.24,7.45-18.21,5.54a16.59,16.59,0,0,1-11.84-15.5c-.24-7.88,4-14.47,10.94-16.85C448.12,58.71,455.64,60.12,459.85,65.68Z" transform="translate(-2.16 10.56)"/><path d="M579.16,83.21A5.85,5.85,0,0,0,583,88.73c3.08,1.21,5.29.28,8.33-3.56,1.17.58,2.4,1.13,3.58,1.77.84.45.57,1.11.17,1.72a11.58,11.58,0,0,1-21-3.72c-1.31-5.77,1.13-11.55,5.9-13.93,5.25-2.61,14.35-1.2,15.74,8.17.19,1.28.21,2.59.31,4Zm.48-4.55h10.68a5.18,5.18,0,0,0-5.57-4C582.06,74.72,579.79,76.74,579.64,78.66Z" transform="translate(-2.16 10.56)"/><path d="M470.06,142.11a10,10,0,0,1-8.42-2.32,10.3,10.3,0,0,1-3.11-11,11.36,11.36,0,0,1,9.08-7.38,10.77,10.77,0,0,1,12,8.61,12.43,12.43,0,0,1-1.23,7.56,24.78,24.78,0,0,1-1.67,3c-2.73,4.13-5.51,8.23-8.23,12.36-.57.86-1.12,1.05-2,.41a22.3,22.3,0,0,0-1.88-1.29c-.9-.54-.93-1.16-.34-2,1.65-2.25,3.28-4.52,4.91-6.79C469.47,143,469.7,142.65,470.06,142.11Zm4.5-10.11a5.68,5.68,0,0,0-11.35-.12,5.68,5.68,0,0,0,11.35.12Z" transform="translate(-2.16 10.56)"/><path d="M471.68,72c1.66-.67,3.25-1.65,4.94-1.92,5.1-.83,9.83,1.73,10,8.07.15,4.55,0,9.11.08,13.66,0,1.15-.42,1.62-1.56,1.52-.68-.06-1.36,0-2,0-1.34,0-1.58-.24-1.58-1.63,0-3.8,0-7.59,0-11.39,0-.48,0-1-.05-1.44-.13-1.65-.69-3.07-2.33-3.75a4.72,4.72,0,0,0-5,.56,6.31,6.31,0,0,0-2.47,5.22c0,3.44,0,6.87,0,10.31,0,2-.07,2.12-2.06,2.12h-1.56c-1.4,0-1.55-.16-1.55-1.61,0-1.68,0-3.36,0-5V62.43c0-1.69,0-1.73,1.65-1.72,4,0,3.51-.56,3.52,3.47,0,2.52-.06,5-.09,7.55A.62.62,0,0,0,471.68,72Z" transform="translate(-2.16 10.56)"/><path d="M507.44,91.34a9.3,9.3,0,0,1-5.32,2.58,8.58,8.58,0,0,1-9.71-6.74A7.24,7.24,0,0,1,497.23,79a14.83,14.83,0,0,1,8.94-.37c.41.1.81.22,1.24.34a4.18,4.18,0,0,0-2.93-4c-3-1-5.37,0-7.22,2.66-1.23-.77-2.41-1.5-3.57-2.25-.72-.47-.58-1.07-.12-1.64a9.46,9.46,0,0,1,4.76-3.27,13.23,13.23,0,0,1,8,0,8.6,8.6,0,0,1,6.17,8.6c0,4.24,0,8.47,0,12.71,0,1.13-.48,1.62-1.6,1.52-.48,0-1,0-1.44,0C507.76,93.3,507.76,93.3,507.44,91.34Zm-4.52-9.06a28.57,28.57,0,0,0-3.5,1.12,2.82,2.82,0,0,0-1.76,3,3,3,0,0,0,2.13,2.5c3,1.25,7.2-1.14,7.6-4.37a1.37,1.37,0,0,0-.59-1.17C505.57,82.91,504.29,82.64,502.92,82.28Z" transform="translate(-2.16 10.56)"/><path d="M393.3,148.31h11.48c.83,0,1.29.28,1.25,1.19s0,1.75,0,2.63-.35,1.17-1.16,1.17h-18c-.8,0-1.17-.37-1.16-1.16,0-1-.06-2.09,0-3.12a2.34,2.34,0,0,1,.67-1.29c3.81-4,7.67-7.93,11.47-11.92a12.25,12.25,0,0,0,1.82-2.52c1.24-2.3.84-4.51-1-5.92a5.39,5.39,0,0,0-6.55.15,6.28,6.28,0,0,0-1.47,2c-.42.92-.94,1.06-1.78.69s-1.68-.75-2.55-1-.76-.61-.52-1.27a10.67,10.67,0,0,1,17.26-3.52,8.67,8.67,0,0,1,1.5,10.31,32,32,0,0,1-4.38,6.08c-2,2.25-4.2,4.27-6.32,6.39-.27.28-.53.57-.79.86Z" transform="translate(-2.16 10.56)"/><path d="M382.93,79c.23-1.57-.87-3.16-2.7-3.95-2.57-1.11-5-.3-7.4,2.58-1.22-.77-2.48-1.51-3.67-2.35-.6-.42-.45-1,0-1.54A9.69,9.69,0,0,1,376.87,70a17.41,17.41,0,0,1,6,.92A7.64,7.64,0,0,1,388,78.16c.18,4.63.07,9.28.09,13.92,0,.83-.36,1.26-1.23,1.23-.64,0-1.28,0-1.92,0-1.67,0-1.74-.06-1.93-1.84-.29.2-.53.35-.75.53a9.23,9.23,0,0,1-12.39-.89c-4.09-4.45-1.72-11.19,4.46-12.56A15.93,15.93,0,0,1,382.93,79Zm-4.33,3.3a27.05,27.05,0,0,0-3.51,1.06,2.89,2.89,0,0,0-1.88,3,3.2,3.2,0,0,0,2.59,2.66,6.05,6.05,0,0,0,7.2-4.47,1.41,1.41,0,0,0-.57-1.2C381.22,82.93,379.94,82.65,378.6,82.29Z" transform="translate(-2.16 10.56)"/><path d="M289.63,79A4.1,4.1,0,0,0,286.82,75c-2.53-1.06-4.75-.3-7.37,2.59-1.15-.72-2.34-1.45-3.49-2.21-.76-.5-.61-1.09-.11-1.72A10.1,10.1,0,0,1,283.11,70c3.05-.27,6,.12,8.49,2.14a7.65,7.65,0,0,1,3,5.88c.14,4.72.07,9.44.08,14.15,0,.86-.43,1.23-1.27,1.19-.48,0-1,0-1.44,0-1.94,0-1.94,0-2.41-1.91a8.75,8.75,0,0,1-5.19,2.53c-4.12.5-8.4-2-9.5-5.53-1.4-4.56,1.23-8.79,6.13-9.86A17,17,0,0,1,289.63,79ZM285.2,82.3a25.76,25.76,0,0,0-3.47,1.06,2.87,2.87,0,0,0-1.86,3.07,3.23,3.23,0,0,0,2.64,2.63,6.15,6.15,0,0,0,7.16-4.33c.17-.75,0-1.28-.78-1.49C287.71,82.92,286.52,82.63,285.2,82.3Z" transform="translate(-2.16 10.56)"/><path d="M288.34,137.6c-1.14-.71-2.29-1.41-3.43-2.14-.73-.47-.73-1.05-.21-1.71a9.68,9.68,0,0,1,7.82-3.79,16.88,16.88,0,0,1,6,1,7.65,7.65,0,0,1,5.08,7.33c.14,4.6,0,9.2.06,13.79,0,.92-.43,1.31-1.33,1.26-.52,0-1,0-1.56,0-1.81,0-1.81,0-2.21-1.81-.28.2-.53.37-.77.56a9.25,9.25,0,0,1-12-.58,7.4,7.4,0,0,1,2.14-12.24,14.63,14.63,0,0,1,9.51-.52l1,.27c.25-1.48-.71-3-2.44-3.84C293.48,133.88,291.21,134.59,288.34,137.6Zm4,11.67a6.34,6.34,0,0,0,6.16-4.52,1.51,1.51,0,0,0-.49-1.34,8,8,0,0,0-7.48,0,3,3,0,0,0-1.78,2.89A3.13,3.13,0,0,0,291,149,7.35,7.35,0,0,0,292.34,149.27Z" transform="translate(-2.16 10.56)"/><path d="M354.73,132.49a9.9,9.9,0,0,1,6.82-2.61c4.82.12,8.15,3.34,8.23,8.17.08,4.64,0,9.28,0,13.92,0,1-.36,1.4-1.34,1.34a17.35,17.35,0,0,0-2.28,0c-1.18.08-1.54-.5-1.54-1.58,0-3.8,0-7.6,0-11.4,0-.52,0-1-.06-1.55-.16-1.6-.69-3-2.28-3.66a4.79,4.79,0,0,0-4.89.44c-2.12,1.54-2.69,3.77-2.71,6.22,0,3.32,0,6.64,0,10,0,1.47-.09,1.56-1.58,1.56-.64,0-1.28,0-1.91,0-1.14.1-1.6-.36-1.57-1.51,0-2,0-3.92,0-5.88V122.29c0-1.51.07-1.57,1.54-1.58.72,0,1.45.05,2.16,0,1.08-.08,1.38.41,1.37,1.42C354.7,125.47,354.73,128.82,354.73,132.49Z" transform="translate(-2.16 10.56)"/><path d="M524.48,72.05a25.44,25.44,0,0,1,4.87-2c5.23-1,9.95,1.82,10.14,7.91.14,4.68,0,9.36,0,14,0,.91-.35,1.34-1.28,1.28-.56,0-1.12,0-1.68,0-2.1,0-2.1,0-2.1-2.16,0-3.67,0-7.35,0-11a13.55,13.55,0,0,0-.09-1.43c-.18-1.82-1-3.24-2.83-3.76a4.88,4.88,0,0,0-5.44,1.46,6.12,6.12,0,0,0-1.53,4.06q0,5.64,0,11.27c0,1.41-.18,1.58-1.6,1.59h-2.4c-.79,0-1.18-.35-1.18-1.15q0-10.2,0-20.39c0-.79.35-1.18,1.16-1.17h1.68C524.13,70.59,524.13,70.59,524.48,72.05Z" transform="translate(-2.16 10.56)"/><path d="M358.93,78.88l-.44-.83a5.83,5.83,0,0,0-10.26-.63,8.46,8.46,0,0,0-.16,8.75,6,6,0,0,0,10.64-.38c.13-.25.27-.48.46-.82,1.34.57,2.67,1.09,3.94,1.73.21.11.33.82.19,1.12a9.89,9.89,0,0,1-7.48,5.92A11.38,11.38,0,0,1,342.76,87a12.64,12.64,0,0,1,3.93-15.15C352.11,68,360,69.78,363,75.51c.6,1.14.49,1.47-.72,2Z" transform="translate(-2.16 10.56)"/><path d="M340.94,138.9c-.92-2.16-2.18-3.72-4.5-4.08A5.84,5.84,0,0,0,330,138a7.94,7.94,0,0,0,.15,8.12,6,6,0,0,0,10.7-.39c.1-.22.22-.43.4-.77l4.55,1.95a10.14,10.14,0,0,1-7.57,6.74,11.4,11.4,0,0,1-13.73-7.55c-2.07-6.3.65-12.9,6.32-15.32A11,11,0,0,1,345,135.46c.63,1.21.52,1.54-.75,2.08Z" transform="translate(-2.16 10.56)"/><path d="M415.85,77.75c1.17-1.75,2.37-3.3,3.28-5s2.14-2.51,4.08-2.16c.55.09,1.13,0,1.68,0,.34,0,.88.22.94.44a1.6,1.6,0,0,1-.26,1.17c-1.84,2.66-3.75,5.27-5.6,7.93-1.36,2-1.34,1.25,0,3.22,1.9,2.77,3.86,5.49,5.76,8.25a1.57,1.57,0,0,1,.22,1.25c-.1.25-.69.34-1.08.42-3,.61-5-.48-6.33-3.31a31.77,31.77,0,0,0-2.78-4.21c-1.47,2.23-2.89,4.3-4.2,6.44a2,2,0,0,1-2.12,1.11c-.91-.1-1.84,0-2.75,0a1.49,1.49,0,0,1-1.06-.47,1.32,1.32,0,0,1,.2-1.13c2.05-3,4.1-6,6.22-9a1.41,1.41,0,0,0,0-2c-2-2.78-4-5.6-5.92-8.44a1.61,1.61,0,0,1-.31-1.24c.13-.28.75-.38,1.17-.47,2.81-.57,4.75.44,6,3.05A33.19,33.19,0,0,0,415.85,77.75Z" transform="translate(-2.16 10.56)"/><path d="M446.91,128.49l-5.58,2.4c-.68-1.49-1.3-2.86-2-4.34.35-.19.64-.38.95-.53,2.38-1.12,4.74-2.31,7.17-3.31a12.77,12.77,0,0,1,3.34-.66c.85-.11,1.23.41,1.22,1.24s0,1.84,0,2.76v25.44c0,1.73-.09,1.81-1.85,1.81-3.64,0-3.28.4-3.28-3.24q0-10,0-19.92Z" transform="translate(-2.16 10.56)"/><path d="M323.32,130.76a41.14,41.14,0,0,1-1.3,3.93,1.72,1.72,0,0,1-1.43.59c-2-.18-3.73.05-5.13,1.63a6,6,0,0,0-1.57,4.15c0,3.55,0,7.11,0,10.66,0,1.45-.13,1.57-1.59,1.58H310.5c-1.54,0-1.74-.19-1.74-1.71q0-8.62,0-17.25c0-.84,0-1.68,0-2.52s.37-1.27,1.24-1.23c.51,0,1,0,1.55,0,2,0,2,0,2.27,2.06C316.61,130.09,319.69,129.22,323.32,130.76Z" transform="translate(-2.16 10.56)"/><path d="M400.09,77q0,7.31,0,14.63c0,1.5-.14,1.65-1.64,1.64-3.77,0-3.4.5-3.41-3.36V62.49c0-1.77,0-1.79,1.71-1.78,3.91,0,3.31-.54,3.34,3.37C400.11,68.4,400.09,72.71,400.09,77Z" transform="translate(-2.16 10.56)"/><path d="M330.52,81.8c0-3.23,0-6.47,0-9.71,0-1.16.42-1.59,1.55-1.51a13,13,0,0,0,2.16,0c1.12-.09,1.45.43,1.45,1.48,0,5.48,0,11,0,16.42,0,1.2,0,2.4,0,3.6,0,.83-.36,1.26-1.24,1.23s-1.68,0-2.52,0c-1.05,0-1.4-.44-1.39-1.44C330.53,88.51,330.52,85.16,330.52,81.8Z" transform="translate(-2.16 10.56)"/><path d="M336.44,63.73a3.36,3.36,0,0,1-3.39,3.41,3.5,3.5,0,0,1-3.4-3.46,3.42,3.42,0,0,1,3.45-3.39A3.32,3.32,0,0,1,336.44,63.73Z" transform="translate(-2.16 10.56)"/><path class="cls-1" d="M219.93,108.51q0,23.74,0,47.51a2.15,2.15,0,0,1-1.44,2.19c-8,4-15.91,8-23.87,12-7.47,3.73-15,7.41-22.41,11.14-7.89,3.94-15.76,7.93-23.65,11.88-6,3-11.94,5.92-17.91,8.9q-4.07,2-8.11,4.11c-1.1.56-1.47.36-1.47-.82,0-4.56,0-9.12,0-13.68a2,2,0,0,1,1.24-2q11.61-5.72,23.16-11.51,12.48-6.24,24.93-12.51,13.44-6.72,26.89-13.4c1.47-.73,2.92-1.49,4.4-2.18a2,2,0,0,0,1.27-2.16q0-31.08,0-62.15c0-1.14-.25-1.33-1.25-.83q-11,5.52-22,11.06l-19.4,9.67L139.53,116l-17.25,8.61c-.85.43-1.18.2-1.17-.71,0-4.76,0-9.52,0-14.28a2.15,2.15,0,0,1,1-1.53c2.6-1.4,5.26-2.69,7.9-4L152.47,93l20.78-10.4,24-12L218,60.18a5.28,5.28,0,0,0,.53-.27c1.08-.62,1.37-.44,1.37.84q0,12.78,0,25.56Z" transform="translate(-2.16 10.56)"/><path class="cls-1" d="M184.31,56.23l-6.18-3.1-19.37-9.71q-9.69-4.86-19.36-9.74c-6.06-3.05-12.14-6.06-18.17-9.17a3.11,3.11,0,0,0-3.2,0c-6.92,3.55-13.89,7-20.84,10.51q-9,4.55-18.08,9.09L56.73,55.3c-5.92,3-11.84,5.94-17.74,9a2.22,2.22,0,0,1-2.24,0c-4.63-2.34-9.29-4.63-13.92-7a4.33,4.33,0,0,1-.91-.86,6.75,6.75,0,0,1,1-.73l18.94-9.52L62.7,35.72q10.44-5.25,20.87-10.5c7-3.49,13.92-6.94,20.88-10.43q6.85-3.42,13.68-6.9a2.6,2.6,0,0,1,2.67-.2c6.11,3.14,12.25,6.19,18.39,9.28l39,19.57L211,53.06c1.82.91,3.65,1.8,5.46,2.73a3.7,3.7,0,0,1,.73.65c-.24.25-.44.59-.73.74-2.53,1.28-5.07,2.54-7.61,3.8l-18,9-21,10.5q-10.48,5.27-21,10.53l-23.8,11.86c-1.57.78-3.11,1.63-4.7,2.37a1.87,1.87,0,0,1-1.43,0c-4.77-2.34-9.51-4.74-14.25-7.12-.37-.19-.72-.44-1.46-.89L184.42,56.7Z" transform="translate(-2.16 10.56)"/><path class="cls-1" d="M138.41,67.66c0,2.28,0,4.56,0,6.84a1.67,1.67,0,0,1-1,1.8c-5.65,2.79-11.27,5.64-16.91,8.47L99.72,95.17,78.84,105.62q-8.4,4.22-16.79,8.43c-1.57.8-1.86.64-1.86-1.1,0-4.39,0-8.79,0-13.19a2,2,0,0,1,1.28-2.05C69,93.93,76.57,90.12,84.13,86.34q12.53-6.27,25.06-12.51,14-7,27.92-14c1-.5,1.29-.36,1.29.76C138.42,62.94,138.41,65.3,138.41,67.66Z" transform="translate(-2.16 10.56)"/><path class="cls-1" d="M39.59,75.86c0-2.28,0-4.56,0-6.84a1.71,1.71,0,0,1,1.06-1.79c7.09-3.5,14.15-7.05,21.22-10.59q9-4.5,18-9l22.52-11.23q7-3.48,13.91-7c.25-.13.51-.24.76-.36.71-.32,1.09-.08,1.09.69,0,4.76,0,9.52-.07,14.28,0,.55-.75,1.29-1.33,1.6-2.5,1.35-5.06,2.57-7.59,3.83L88.15,60,67.28,70.44Q57,75.62,46.65,80.83c-2,1-4,2-6,3-1,.46-1.08-.19-1.08-.93Z" transform="translate(-2.16 10.56)"/><path class="cls-1" d="M179.24,128.9c0,2.27,0,4.55,0,6.83a1.75,1.75,0,0,1-1.06,1.81c-4.19,2.06-8.36,4.17-12.54,6.25L149,152.06l-18.12,9q-9.81,4.86-19.62,9.73c-3.08,1.53-6.14,3.08-9.21,4.6-1,.52-1.34.31-1.35-.89,0-4.56,0-9.12,0-13.68A1.82,1.82,0,0,1,102,159l16.08-8,19.5-9.73,19.82-9.88q10.17-5.07,20.33-10.19c1.31-.65,1.54-.54,1.54.87C179.23,124.34,179.24,126.62,179.24,128.9Z" transform="translate(-2.16 10.56)"/><path class="cls-1" d="M82.88,148.3c1.68-.86,3.11-1.61,4.55-2.34L110,134.65,129.27,125l18-9c4.06-2,8.13-4.06,12.18-6.14a2.17,2.17,0,0,1,2.15.07l14.23,7.12c.22.11.55.44.51.55a1.57,1.57,0,0,1-.62.78c-2,1-4.07,2-6.1,3l-20.88,10.43-24,12q-11.94,6-23.85,12a3,3,0,0,1-3.11.11c-4.68-2.42-9.41-4.74-14.12-7.11A6.86,6.86,0,0,1,82.88,148.3Z" transform="translate(-2.16 10.56)"/><path class="cls-1" d="M42.06,87.15c1.07-.6,1.9-1.11,2.76-1.54Q56.66,79.7,68.5,73.8q12.59-6.3,25.14-12.63c7.43-3.72,15-7.26,22.25-11.2,2.76-1.49,4.85-1.55,7.54,0,3.74,2.2,7.76,3.93,11.65,5.87.21.11.52.48.47.56a1.76,1.76,0,0,1-.69.76c-1.53.79-3.08,1.52-4.61,2.29q-11.94,6-23.88,11.94c-7.53,3.76-15.08,7.49-22.62,11.26Q71.87,88.6,60,94.6a3.17,3.17,0,0,1-3.32.1c-4.48-2.37-9-4.61-13.54-6.91C42.86,87.65,42.61,87.48,42.06,87.15Z" transform="translate(-2.16 10.56)"/><path class="cls-1" d="M197.1,148.45c-1.22.64-2.21,1.19-3.22,1.69l-36.63,18.3q-17.3,8.64-34.57,17.3c-3.74,1.87-2.37,1.84-6.06,0-4-2-8.08-4-12.11-6a1.62,1.62,0,0,1-.73-.82c0-.13.39-.52.68-.66l15.1-7.54,23.78-11.89,20.87-10.46c5.31-2.67,10.62-5.35,15.95-8a1.76,1.76,0,0,1,1.35,0c4.8,2.36,9.58,4.76,14.35,7.16A11.56,11.56,0,0,1,197.1,148.45Z" transform="translate(-2.16 10.56)"/><path class="cls-1" d="M164.45,107.44c1.35-.69,2.39-1.24,3.44-1.76l30.18-15.13c1.35-.68,1.55-.56,1.55,1v52.55c0,1.34-.28,1.46-1.47.86-4.55-2.31-9.11-4.64-13.71-6.85a3,3,0,0,1-2-3.18c.12-5.6,0-11.2.08-16.8a2.08,2.08,0,0,0-1.31-2.14q-7.52-3.7-15-7.47C165.66,108.24,165.2,107.91,164.45,107.44Z" transform="translate(-2.16 10.56)"/><path class="cls-1" d="M141.81,64.61c0-2.55,0-5.11,0-7.67a1.94,1.94,0,0,0-1.18-2.08c-4.5-2.24-9-4.54-13.44-6.82l-4.8-2.44a1.84,1.84,0,0,1-1.08-1.83c0-4.55,0-9.11,0-13.67,0-1.1.39-1.33,1.43-.8l14.87,7.48q11.13,5.58,22.28,11.13c5.32,2.66,10.65,5.3,16,8,.21.11.51.48.46.56a1.9,1.9,0,0,1-.7.76c-1.52.79-3.07,1.53-4.6,2.3l-18.2,9.1c-3.32,1.66-6.64,3.31-10,5-1,.52-1.09-.09-1.09-.82V64.61Z" transform="translate(-2.16 10.56)"/><path class="cls-1" d="M83,107.37l4.88-2.47,8.34-4.21c1-.51,1.38-.31,1.38.84q0,5.94,0,11.88c0,1.36-.23,1.48-1.47.86-4-2-7.93-4-11.88-6A8.78,8.78,0,0,1,83,107.37Z" transform="translate(-2.16 10.56)"/><path class="cls-1" d="M36.21,138.13c0,2,0,4.08,0,6.11,0,1-.37,1.25-1.26.81q-6.27-3.12-12.52-6.27c-.21-.11-.53-.47-.48-.55a1.73,1.73,0,0,1,.68-.76c1.34-.7,2.72-1.34,4.08-2,2.75-1.37,5.49-2.76,8.25-4.12,1-.51,1.24-.37,1.25.8C36.22,134.13,36.21,136.13,36.21,138.13Z" transform="translate(-2.16 10.56)"/><path class="cls-1" d="M77,117.85c0,2,0,3.92,0,5.88,0,1.18-.3,1.36-1.37.82q-6-3-12.07-6.09a1.36,1.36,0,0,1-.63-.78c0-.15.33-.48.58-.61q6-3.07,12.07-6.12c1.06-.54,1.42-.33,1.42.9v6Z" transform="translate(-2.16 10.56)"/><path class="cls-1" d="M100.74,127.94c0-2,0-4,0-6,0-1.23.22-1.32,1.32-.77,4,2,8.06,4,12.08,6a1.6,1.6,0,0,1,.74.8c0,.12-.38.52-.66.66-4.06,2.05-8.13,4.06-12.18,6.1-1,.5-1.29.37-1.3-.72C100.73,132,100.74,130,100.74,127.94Z" transform="translate(-2.16 10.56)"/><path class="cls-1" d="M54.27,158.61,49.55,161c-2.77,1.4-5.56,2.78-8.32,4.19-1.34.68-1.64.53-1.64-.91,0-3.79,0-7.59,0-11.38,0-1.35.25-1.47,1.44-.88,4,2,8,3.91,12,5.86C53.35,158.06,53.61,158.23,54.27,158.61Z" transform="translate(-2.16 10.56)"/><path class="cls-1" d="M80.61,138.14c0-1.92,0-3.84,0-5.76,0-1.4.19-1.53,1.41-.91q5.88,3,11.73,5.95c.32.17.54.54.81.81a6.19,6.19,0,0,1-.86.69l-11.83,6c-.89.46-1.25.3-1.26-.71C80.6,142.21,80.61,140.17,80.61,138.14Z" transform="translate(-2.16 10.56)"/><path class="cls-1" d="M74.51,148.5c-1.69.88-3.19,1.67-4.71,2.44-2.73,1.4-5.47,2.79-8.19,4.2-1,.5-1.42.27-1.42-.83,0-4,0-7.91,0-11.87,0-1,.39-1.32,1.24-.9,4.17,2.11,8.31,4.25,12.46,6.39A3.54,3.54,0,0,1,74.51,148.5Z" transform="translate(-2.16 10.56)"/><path class="cls-1" d="M56.52,127.92c0,2,0,4.08,0,6.12,0,1.11-.29,1.24-1.28.73l-12.06-6.1c-.26-.13-.64-.42-.62-.6a1.19,1.19,0,0,1,.56-.8c4.11-2.11,8.24-4.19,12.37-6.28.92-.46,1,.12,1,.82Z" transform="translate(-2.16 10.56)"/><path class="cls-1" d="M563.24,82.09a20.2,20.2,0,0,1-1.56,4.28,6,6,0,0,1-10.41-.52,8.12,8.12,0,0,1-.18-7.49,6,6,0,0,1,6.28-3.63,6.56,6.56,0,0,1,5.47,5.69c.06.51.06,1,.09,1.55Z" transform="translate(-2.16 10.56)"/><path class="cls-1" d="M253.19,65.64h5.87c2.9,0,5.05,1.85,5.25,4.48a4.94,4.94,0,0,1-4.57,5.42c-2.13.2-4.3,0-6.55,0Z" transform="translate(-2.16 10.56)"/><path class="cls-1" d="M415.64,136.82a14,14,0,0,1,2.34-7.68,6,6,0,0,1,10.1-.13,13.6,13.6,0,0,1,2.38,9.08,22,22,0,0,1-1.34,6.26,8.88,8.88,0,0,1-2.7,3.56c-2.55,2-6.26,1.26-8.33-1.53C416.5,144.23,415.65,141.2,415.64,136.82Z" transform="translate(-2.16 10.56)"/><path class="cls-1" d="M311.61,89.14a5.88,5.88,0,0,1-5.49-3.59,8.18,8.18,0,0,1,0-7.28,6.06,6.06,0,0,1,6.1-3.57A6.47,6.47,0,0,1,317.78,80a8.09,8.09,0,0,1-1.4,6.81A5.6,5.6,0,0,1,311.61,89.14Z" transform="translate(-2.16 10.56)"/><path class="cls-1" d="M579.64,78.66c.15-1.92,2.42-3.94,5.11-4a5.18,5.18,0,0,1,5.57,4Z" transform="translate(-2.16 10.56)"/><path class="cls-1" d="M474.56,132a5.68,5.68,0,0,1-11.35-.12,5.68,5.68,0,0,1,11.35.12Z" transform="translate(-2.16 10.56)"/><path class="cls-1" d="M502.92,82.28c1.37.36,2.65.63,3.88,1.07a1.37,1.37,0,0,1,.59,1.17c-.4,3.23-4.6,5.62-7.6,4.37a3,3,0,0,1-2.13-2.5,2.82,2.82,0,0,1,1.76-3A28.57,28.57,0,0,1,502.92,82.28Z" transform="translate(-2.16 10.56)"/><path class="cls-1" d="M378.6,82.29c1.34.36,2.62.64,3.83,1.09a1.41,1.41,0,0,1,.57,1.2,6.05,6.05,0,0,1-7.2,4.47,3.2,3.2,0,0,1-2.59-2.66,2.89,2.89,0,0,1,1.88-3A27.05,27.05,0,0,1,378.6,82.29Z" transform="translate(-2.16 10.56)"/><path class="cls-1" d="M285.2,82.3c1.32.33,2.51.62,3.69.94.77.21.95.74.78,1.49a6.15,6.15,0,0,1-7.16,4.33,3.23,3.23,0,0,1-2.64-2.63,2.87,2.87,0,0,1,1.86-3.07A25.76,25.76,0,0,1,285.2,82.3Z" transform="translate(-2.16 10.56)"/><path class="cls-1" d="M292.34,149.27A7.35,7.35,0,0,1,291,149a3.13,3.13,0,0,1-2.29-2.67,3,3,0,0,1,1.78-2.89,8,8,0,0,1,7.48,0,1.51,1.51,0,0,1,.49,1.34A6.34,6.34,0,0,1,292.34,149.27Z" transform="translate(-2.16 10.56)"/></svg>
