<?xml version="1.0" standalone="no"?>
<!DOCTYPE svg PUBLIC "-//W3C//DTD SVG 20010904//EN"
 "http://www.w3.org/TR/2001/REC-SVG-20010904/DTD/svg10.dtd">
<svg version="1.0" xmlns="http://www.w3.org/2000/svg"
 width="1450.000000pt" height="200.000000pt" viewBox="0 0 1450.000000 200.000000"
 preserveAspectRatio="xMidYMid meet">
<metadata>
Created by potrace 1.15, written by Peter Selinger 2001-2017
</metadata>
<g transform="translate(0.000000,200.000000) scale(0.100000,-0.100000)"
fill="##757575" stroke="none">
<path fill="#757575" d="M1334 1867 c-18 -7 -234 -129 -482 -272 l-450 -260 56 -11 c68 -12
69 -13 347 -173 120 -69 224 -125 230 -123 39 13 577 334 605 362 53 53 74
104 78 191 5 91 -14 142 -74 209 -56 62 -122 90 -209 89 -38 0 -84 -6 -101
-12z"/>
<path fill="#757575" d="M2345 1856 c-59 -27 -119 -90 -147 -153 -16 -36 -19 -61 -16 -122 4
-87 25 -138 78 -191 38 -38 1073 -641 1142 -666 93 -32 206 -10 282 57 131
115 132 326 3 434 -48 40 -1074 635 -1126 653 -58 20 -159 15 -216 -12z"/>
<path fill="#757575" d="M7792 1519 c-199 -79 -241 -325 -77 -451 28 -21 100 -56 172 -84 199
-75 251 -124 241 -219 -9 -73 -57 -119 -141 -137 -68 -14 -114 -5 -174 35 -42
28 -85 89 -104 146 -5 15 -129 -36 -129 -53 0 -28 51 -115 91 -157 25 -25 72
-59 104 -75 54 -26 70 -29 160 -29 89 0 107 3 163 29 141 65 204 209 156 353
-34 102 -104 158 -278 223 -61 22 -130 52 -154 66 -134 79 -61 244 108 244 78
0 155 -48 175 -110 5 -17 9 -17 68 7 34 14 63 26 65 28 8 8 -40 84 -75 116
-65 62 -115 82 -223 86 -79 3 -104 0 -148 -18z"/>
<path fill="#757575" d="M4391 1504 c-177 -47 -329 -201 -375 -380 -72 -280 110 -571 400
-640 80 -19 209 -14 290 11 117 35 242 151 284 263 27 70 41 174 33 240 l-6
52 -243 0 -244 0 0 -80 0 -80 169 0 169 0 -10 -42 c-13 -58 -51 -116 -102
-155 -65 -50 -119 -66 -221 -67 -119 -1 -191 30 -269 115 -73 79 -100 147
-100 259 0 75 4 93 31 152 62 132 172 208 314 216 95 6 170 -15 235 -64 l47
-36 50 50 c30 30 48 56 44 64 -9 24 -115 89 -186 114 -78 28 -223 32 -310 8z"/>
<path fill="#757575" d="M6420 1498 c-325 -114 -466 -465 -304 -755 164 -294 587 -365 818
-138 96 94 136 198 136 353 l0 92 -242 -2 -243 -3 -3 -77 -3 -78 170 0 169 0
-10 -37 c-36 -133 -138 -214 -289 -230 -254 -26 -459 216 -395 467 65 252 359
364 567 215 l46 -33 52 52 c28 28 51 54 51 57 0 12 -119 89 -171 110 -42 17
-80 23 -169 26 -100 3 -123 1 -180 -19z"/>
<path fill="#757575" d="M10730 1015 l0 -505 65 0 65 0 0 47 0 46 37 -36 c82 -82 234 -101
342 -41 193 104 248 383 111 565 -96 128 -240 170 -377 109 -27 -12 -61 -34
-78 -50 l-30 -29 4 199 3 200 -71 0 -71 0 0 -505z m423 71 c171 -75 181 -362
15 -447 -50 -25 -133 -27 -183 -3 -109 52 -157 223 -95 343 51 102 167 149
263 107z"/>
<path fill="#757575" d="M5140 1001 l0 -501 204 0 c192 0 210 2 285 25 139 44 241 140 290
270 89 238 16 496 -175 620 -101 66 -155 77 -391 83 l-213 4 0 -501z m465 314
c68 -25 144 -103 170 -175 15 -41 20 -80 20 -151 0 -87 -3 -101 -33 -162 -39
-79 -98 -130 -176 -152 -55 -15 -86 -17 -213 -16 l-83 1 0 341 0 341 133 -5
c92 -3 147 -10 182 -22z"/>
<path fill="#757575" d="M8450 1315 l0 -105 -59 0 -59 0 -4 -65 -3 -65 63 0 62 0 0 -217 c0
-251 8 -281 79 -328 47 -32 135 -43 198 -26 l42 12 -21 59 -22 59 -41 -6 c-35
-4 -46 -1 -71 20 l-29 25 -3 201 -4 201 86 0 86 0 0 65 0 65 -85 0 -85 0 0
105 0 105 -65 0 -65 0 0 -105z"/>
<path fill="#757575" d="M303 1274 c-59 -21 -127 -85 -158 -149 -56 -113 -26 -262 68 -340 48
-40 1074 -635 1126 -653 19 -7 64 -12 100 -12 83 0 151 30 205 90 60 67 79
118 74 209 -4 87 -25 138 -78 191 -38 38 -1073 641 -1142 666 -51 18 -141 17
-195 -2z"/>
<path fill="#757575" d="M9532 1214 c-71 -19 -100 -35 -146 -83 -45 -46 -46 -45 39 -91 l41
-22 34 31 c45 40 90 54 157 49 60 -5 95 -26 131 -78 17 -26 32 -90 20 -90 -2
0 -25 7 -52 15 -56 17 -194 20 -248 5 -61 -17 -131 -71 -155 -120 -43 -83 -26
-189 40 -258 57 -59 101 -77 197 -77 75 0 91 3 132 27 25 16 56 40 67 54 l21
27 0 -47 0 -46 66 0 65 0 -3 263 c-3 246 -4 264 -25 302 -43 80 -109 126 -208
144 -75 14 -107 13 -173 -5z m208 -374 c20 -5 44 -16 55 -24 17 -12 18 -17 6
-57 -24 -80 -116 -149 -199 -149 -65 0 -132 58 -132 116 0 39 38 89 84 109 37
16 137 19 186 5z"/>
<path fill="#757575" d="M10247 1220 c-131 -33 -199 -119 -184 -232 11 -84 77 -136 222 -174
121 -32 173 -57 185 -89 21 -55 -25 -99 -113 -111 -63 -9 -127 22 -169 80 -35
50 -39 51 -110 15 -21 -11 -38 -23 -38 -27 0 -23 64 -104 102 -130 69 -48 137
-66 221 -59 84 6 132 25 182 68 49 43 68 84 68 145 0 64 -32 124 -85 159 -21
14 -80 37 -130 51 -137 37 -177 54 -189 75 -28 54 29 109 113 109 61 0 107
-19 139 -57 l26 -31 51 22 c28 12 54 25 57 28 11 10 -22 64 -57 93 -70 59
-199 88 -291 65z"/>
<path fill="#757575" d="M11782 1220 c-102 -22 -193 -96 -241 -199 -23 -50 -26 -68 -26 -166
0 -132 16 -176 95 -259 75 -79 130 -101 255 -101 81 0 109 4 145 21 72 34 135
97 172 172 31 62 33 73 33 167 -1 80 -5 111 -24 158 -28 71 -97 144 -171 180
-62 30 -167 42 -238 27z m200 -158 c84 -58 120 -178 87 -295 -23 -83 -112
-148 -204 -148 -130 0 -218 98 -217 241 0 74 16 119 58 169 66 79 188 94 276
33z"/>
<path fill="#757575" d="M13399 1220 c-51 -9 -123 -54 -148 -92 l-21 -33 0 58 0 58 -62 -3
-63 -3 -3 -347 -2 -348 70 0 70 0 0 210 c0 225 6 258 53 308 36 39 72 52 140
52 l64 0 18 60 c10 33 15 63 12 67 -12 11 -90 19 -128 13z"/>
<path fill="#757575" d="M13807 1219 c-52 -12 -91 -34 -139 -77 -88 -79 -122 -170 -116 -306
5 -104 30 -172 91 -241 108 -125 317 -139 432 -31 l35 33 0 -51 c0 -79 -18
-126 -64 -172 -92 -93 -265 -75 -323 34 -10 17 -21 32 -25 32 -4 0 -33 -9 -63
-21 -53 -20 -56 -23 -50 -48 16 -64 103 -141 188 -166 65 -19 179 -19 245 0
63 19 128 67 165 124 53 78 57 112 57 514 l0 367 -65 0 -65 0 0 -46 0 -46 -45
40 c-68 60 -165 83 -258 61z m180 -140 c49 -24 99 -86 114 -144 16 -59 6 -156
-22 -206 -13 -23 -41 -56 -62 -73 -34 -27 -48 -31 -110 -34 -65 -3 -76 -1
-117 26 -68 43 -103 115 -103 206 0 44 7 87 18 114 19 46 93 118 128 125 56
11 113 6 154 -14z"/>
<path fill="#757575" d="M9113 1200 c-24 -12 -56 -37 -72 -56 l-30 -33 -3 47 -3 47 -62 3 -63
3 0 -351 0 -350 64 0 65 0 3 218 3 219 30 48 c39 63 86 87 164 86 l59 -1 21
62 c12 34 18 64 15 67 -3 3 -38 7 -77 9 -58 2 -80 -1 -114 -18z"/>
<path fill="#757575" d="M12332 938 l3 -273 28 -51 c16 -29 42 -61 58 -73 99 -73 252 -67 348
15 l41 36 0 -41 0 -41 65 0 65 0 0 350 0 350 -64 0 -64 0 -4 -222 c-3 -208 -5
-226 -26 -269 -33 -67 -87 -102 -157 -101 -67 0 -111 24 -140 72 -18 32 -20
55 -23 278 l-4 242 -64 0 -65 0 3 -272z"/>
<path fill="#757575" d="M2584 812 c-159 -92 -305 -183 -324 -202 -53 -53 -74 -104 -78 -191
-5 -91 14 -142 74 -209 56 -62 122 -90 209 -89 39 0 84 6 101 12 18 7 234 129
482 272 l450 260 -56 11 c-73 13 -104 30 -488 255 l-82 47 -288 -166z"/>
</g>
</svg>
