<?xml version="1.0" encoding="utf-8"?>
<!-- Generator: Adobe Illustrator 23.0.1, SVG Export Plug-In . SVG Version: 6.00 Build 0)  -->
<svg version="1.1" id="Layer_4" xmlns="http://www.w3.org/2000/svg" xmlns:xlink="http://www.w3.org/1999/xlink" x="0px" y="0px"
	 viewBox="0 0 1089.3 200" style="enable-background:new 0 0 1089.3 200;" xml:space="preserve">
<style type="text/css">
	.st0{fill:#757575;}
	.st1{font-family:'Geneva';}
	.st2{font-size:166.3409px;}
	.st3{letter-spacing:2.2;}
</style>
<g id="XMLID_6_">
	<path id="XMLID_3_" class="st0" d="M359.9,104.4c0,22-6.5,39.6-19.6,52.7c-14.8,15.6-34.1,23.4-57.9,23.4
		c-22.8,0-42.1-7.9-58.1-23.7c-15.9-15.8-23.9-35.4-23.9-58.7s8-42.9,23.9-58.7s35.3-23.7,58.1-23.7c11.3,0,22.1,2.2,32.4,6.6
		c10.3,4.4,18.5,10.3,24.7,17.6l-13.9,13.9C315.1,41.2,300.7,35,282.3,35c-16.6,0-31,5.8-43.1,17.5S221,79.3,221,98
		s6.1,33.8,18.2,45.5s26.5,17.5,43.1,17.5c17.6,0,32.3-5.9,44.1-17.6c7.6-7.6,12-18.3,13.2-31.9h-57.3v-19h76.4
		C359.5,96.6,359.9,100.6,359.9,104.4L359.9,104.4z"/>
	<path id="XMLID_20_" class="st0" d="M380.3,176.9V19.1h48.2c24.2,0,43.6,7.3,58.2,21.9c14.5,14.6,21.8,33.6,21.8,57
		s-7.3,42.3-21.8,57c-14.5,14.6-33.9,21.9-58.2,21.9H380.3z M400.6,157.5h28c18.2,0,32.6-5.2,43.3-15.6c10.6-10.4,16-25,16-43.8
		c0-18.7-5.3-33.2-16-43.7s-25.1-15.8-43.3-15.8h-28V157.5z"/>
	<path id="XMLID_23_" class="st0" d="M681,104.4c0,22-6.5,39.6-19.6,52.7c-14.8,15.6-34.1,23.4-57.9,23.4
		c-22.8,0-42.1-7.9-58.1-23.7c-15.9-15.8-23.9-35.4-23.9-58.7s8-42.9,23.9-58.7s35.3-23.7,58.1-23.7c11.3,0,22.1,2.2,32.4,6.6
		c10.3,4.4,18.5,10.3,24.7,17.6l-13.9,13.9C636.2,41.2,621.8,35,603.4,35c-16.6,0-31,5.8-43.1,17.5S542.1,79.3,542.1,98
		s6.1,33.8,18.2,45.5s26.5,17.5,43.1,17.5c17.6,0,32.3-5.9,44.1-17.6c7.6-7.6,12-18.3,13.2-31.9h-57.3v-19h76.4
		C680.6,96.6,681,100.6,681,104.4L681,104.4z"/>
	<text transform="matrix(0.9262 0 0 1 662.3223 160)"><tspan x="0" y="0" class="st0 st1 st2 st3">	</tspan><tspan x="58.2" y="0" class="st0 st1 st2">WPG</tspan></text>
</g>
<g id="XMLID_261_">
	<path id="XMLID_259_" class="st0" d="M32.3,0H0l92.3,160l16.2-28L32.3,0z"/>
	<path id="XMLID_258_" class="st0" d="M120.9,91L68.3,0H36.1l74.3,128.8l10.5-18.2c1.7-2.8,2.8-6.2,2.8-9.8
		C123.6,97.2,122.6,93.9,120.9,91L120.9,91z"/>
	<path id="XMLID_257_" class="st0" d="M56.3,104.1L0.9,200h32.3l39.3-68L56.3,104.1z"/>
	<path id="XMLID_256_" class="st0" d="M74.3,135.3L37,200h32.2l21.3-36.8L74.3,135.3L74.3,135.3z"/>
</g>
</svg>
