<?xml version="1.0" standalone="no"?>
<!DOCTYPE svg PUBLIC "-//W3C//DTD SVG 20010904//EN"
 "http://www.w3.org/TR/2001/REC-SVG-20010904/DTD/svg10.dtd">
<svg version="1.0" xmlns="http://www.w3.org/2000/svg"
 width="392.000000pt" height="129.000000pt" viewBox="0 0 392.000000 129.000000"
 preserveAspectRatio="xMidYMid meet">
<metadata>
Created by potrace 1.15, written by Peter Selinger 2001-2017
</metadata>
<g transform="translate(0.000000,129.000000) scale(0.100000,-0.100000)"
fill="#000000" stroke="none">
<path d="M5 1271 c-9 -16 561 -944 575 -936 4 3 26 36 49 73 l42 69 -249 399
-249 399 -81 3 c-47 2 -83 -1 -87 -7z"/>
<path d="M362 1023 c89 -142 198 -318 244 -391 l82 -133 36 60 c20 32 36 71
36 87 0 17 -34 82 -94 178 -52 83 -133 214 -181 291 -48 76 -94 145 -103 152
-11 7 -49 12 -99 13 l-82 0 161 -257z"/>
<path d="M1157 846 c-63 -17 -96 -43 -127 -97 -21 -37 -25 -57 -24 -124 0
-111 30 -168 111 -209 37 -19 176 -22 236 -5 l37 10 0 119 0 120 -95 0 -95 0
0 -44 0 -45 43 -3 c41 -3 42 -4 42 -38 0 -35 -1 -35 -46 -38 -38 -2 -52 2 -77
23 -55 46 -56 163 -2 217 24 24 36 28 84 28 30 0 66 -4 79 -9 22 -9 26 -6 41
32 9 22 12 45 8 49 -10 10 -105 28 -141 27 -14 0 -48 -6 -74 -13z"/>
<path d="M2037 846 c-27 -7 -61 -22 -75 -33 -93 -69 -108 -263 -26 -352 46
-52 92 -65 206 -59 136 8 128 -1 128 139 l0 119 -95 0 -95 0 0 -45 0 -45 40 0
40 0 0 -40 0 -40 -44 0 c-29 0 -52 7 -69 21 -57 44 -61 167 -7 221 24 24 36
28 84 28 30 0 66 -4 79 -9 22 -9 26 -6 41 32 9 22 12 45 8 49 -10 10 -105 28
-141 27 -14 0 -48 -6 -74 -13z"/>
<path d="M1460 626 l0 -226 93 0 c123 0 184 18 230 69 41 46 57 94 56 171 -1
90 -28 143 -94 182 -35 20 -56 23 -162 27 l-123 3 0 -226z m211 124 c29 -16
49 -64 49 -120 0 -87 -34 -130 -104 -130 l-36 0 0 130 0 130 36 0 c19 0 44 -5
55 -10z"/>
<path d="M2610 625 l0 -225 35 0 35 0 0 84 0 83 68 7 c117 12 176 75 158 169
-15 81 -65 107 -208 107 l-88 0 0 -225z m179 164 c35 -12 51 -35 51 -73 0 -57
-38 -86 -115 -86 l-45 0 0 85 0 85 39 0 c21 0 52 -5 70 -11z"/>
<path d="M3035 739 c-50 -12 -60 -22 -46 -47 10 -18 13 -19 48 -6 76 27 123 7
123 -52 l0 -34 -52 0 c-114 0 -163 -32 -163 -105 0 -67 32 -95 106 -95 47 0
63 5 87 25 l30 25 6 -25 c5 -18 13 -25 31 -25 l25 0 0 124 c0 67 -5 137 -11
155 -19 53 -102 80 -184 60z m125 -203 c0 -68 -73 -116 -125 -82 -27 18 -33
52 -12 79 14 20 58 35 105 36 30 1 32 -1 32 -33z"/>
<path d="M3453 743 c-13 -2 -36 -18 -52 -34 -37 -36 -41 -36 -41 1 0 26 -4 30
-27 30 l-28 0 0 -170 0 -170 33 0 32 0 0 99 c0 55 4 111 10 125 12 32 52 59
90 60 17 1 30 6 30 11 0 6 3 20 6 33 7 23 -1 25 -53 15z"/>
<path d="M3735 735 c-48 -17 -65 -38 -65 -80 0 -45 19 -65 101 -105 63 -30 74
-39 74 -60 0 -18 -9 -29 -30 -39 -26 -13 -37 -12 -87 1 l-58 15 0 -27 c0 -33
18 -40 103 -40 80 0 122 19 136 63 21 63 -6 99 -103 138 -69 28 -93 62 -61 86
14 10 33 13 65 8 80 -11 82 -11 91 12 7 20 3 23 -42 32 -63 14 -75 13 -124 -4z"/>
<path d="M3550 570 l0 -170 30 0 30 0 0 170 0 170 -30 0 -30 0 0 -170z"/>
<path d="M178 318 c-98 -161 -174 -296 -170 -300 5 -5 42 -8 83 -6 l73 3 143
229 143 229 -41 69 c-23 37 -44 68 -48 68 -3 0 -86 -132 -183 -292z"/>
<path d="M335 240 c-71 -116 -131 -215 -133 -220 -2 -6 30 -10 81 -10 67 0 89
4 105 17 17 16 127 186 161 251 11 20 7 31 -35 97 -25 41 -47 75 -48 75 0 -1
-59 -95 -131 -210z"/>
</g>
</svg>
