<?xml version="1.0" encoding="UTF-8"?>
<svg width="1572px" height="200px" viewBox="0 0 1572 200" version="1.1" xmlns="http://www.w3.org/2000/svg" xmlns:xlink="http://www.w3.org/1999/xlink">
    <!-- Generator: Sketch 43.2 (39069) - http://www.bohemiancoding.com/sketch -->
    <title>Group</title>
    <desc>Created with Sketch.</desc>
    <defs></defs>
    <g id="Page-1" stroke="none" stroke-width="1" fill="none" fill-rule="evenodd">
        <g id="Group" fill="#757575">
            <g id="organizer-logo" fill-rule="nonzero">
                <g id="XMLID_6_" transform="translate(200.000000, 15.000000)">
                    <path d="M159.9,89.4 C159.9,111.4 153.4,129 140.3,142.1 C125.5,157.7 106.2,165.5 82.4,165.5 C59.6,165.5 40.3,157.6 24.3,141.8 C8.4,126 0.4,106.4 0.4,83.1 C0.4,59.8 8.4,40.2 24.3,24.4 C40.2,8.6 59.6,0.7 82.4,0.7 C93.7,0.7 104.5,2.9 114.8,7.3 C125.1,11.7 133.3,17.6 139.5,24.9 L125.6,38.8 C115.1,26.2 100.7,20 82.3,20 C65.7,20 51.3,25.8 39.2,37.5 C27.1,49.2 21,64.3 21,83 C21,101.7 27.1,116.8 39.2,128.5 C51.3,140.2 65.7,146 82.3,146 C99.9,146 114.6,140.1 126.4,128.4 C134,120.8 138.4,110.1 139.6,96.5 L82.3,96.5 L82.3,77.5 L158.7,77.5 C159.5,81.6 159.9,85.6 159.9,89.4 L159.9,89.4 Z" id="XMLID_3_"></path>
                    <path d="M180.3,161.9 L180.3,4.1 L228.5,4.1 C252.7,4.1 272.1,11.4 286.7,26 C301.2,40.6 308.5,59.6 308.5,83 C308.5,106.4 301.2,125.3 286.7,140 C272.2,154.6 252.8,161.9 228.5,161.9 L180.3,161.9 Z M200.6,142.5 L228.6,142.5 C246.8,142.5 261.2,137.3 271.9,126.9 C282.5,116.5 287.9,101.9 287.9,83.1 C287.9,64.4 282.6,49.9 271.9,39.4 C261.2,28.9 246.8,23.6 228.6,23.6 L200.6,23.6 L200.6,142.5 Z" id="XMLID_20_"></path>
                    <path d="M481,89.4 C481,111.4 474.5,129 461.4,142.1 C446.6,157.7 427.3,165.5 403.5,165.5 C380.7,165.5 361.4,157.6 345.4,141.8 C329.5,126 321.5,106.4 321.5,83.1 C321.5,59.8 329.5,40.2 345.4,24.4 C361.3,8.6 380.7,0.7 403.5,0.7 C414.8,0.7 425.6,2.9 435.9,7.3 C446.2,11.7 454.4,17.6 460.6,24.9 L446.7,38.8 C436.2,26.2 421.8,20 403.4,20 C386.8,20 372.4,25.8 360.3,37.5 C348.2,49.2 342.1,64.3 342.1,83 C342.1,101.7 348.2,116.8 360.3,128.5 C372.4,140.2 386.8,146 403.4,146 C421,146 435.7,140.1 447.5,128.4 C455.1,120.8 459.5,110.1 460.7,96.5 L403.4,96.5 L403.4,77.5 L479.8,77.5 C480.6,81.6 481,85.6 481,89.4 L481,89.4 Z" id="XMLID_23_"></path>
                </g>
                <g id="XMLID_261_">
                    <polygon id="XMLID_259_" points="32.3 0 0 0 92.3 160 108.5 132"></polygon>
                    <path d="M120.9,91 L68.3,0 L36.1,0 L110.4,128.8 L120.9,110.6 C122.6,107.8 123.7,104.4 123.7,100.8 C123.6,97.2 122.6,93.9 120.9,91 L120.9,91 Z" id="XMLID_258_"></path>
                    <polygon id="XMLID_257_" points="56.3 104.1 0.9 200 33.2 200 72.5 132"></polygon>
                    <polygon id="XMLID_256_" points="74.3 135.3 37 200 69.2 200 90.5 163.2"></polygon>
                </g>
            </g>
            <path d="M794.422363,130.331543 L797.635254,152.362793 L802.339844,132.511719 L835.386719,15.9296875 L853.975586,15.9296875 L886.219238,132.511719 L890.809082,152.707031 L894.366211,130.216797 L920.298828,15.9296875 L942.444824,15.9296875 L901.939453,183 L881.858887,183 L847.435059,61.2543945 L844.795898,48.5175781 L842.156738,61.2543945 L806.470703,183 L786.390137,183 L745.999512,15.9296875 L768.030762,15.9296875 L794.422363,130.331543 Z M1036.42188,183 C1035.19791,180.552071 1034.20345,176.191763 1033.43848,169.918945 C1023.57026,180.169648 1011.78978,185.294922 998.09668,185.294922 C985.857035,185.294922 975.816852,181.833449 967.97583,174.9104 C960.134808,167.987351 956.214355,159.209363 956.214355,148.576172 C956.214355,135.648047 961.129264,125.607865 970.959229,118.455322 C980.789193,111.30278 994.615959,107.726562 1012.43994,107.726562 L1033.09424,107.726562 L1033.09424,97.9731445 C1033.09424,90.55286 1030.87584,84.6434953 1026.43896,80.244873 C1022.00209,75.8462508 1015.46163,73.6469727 1006.81738,73.6469727 C999.244103,73.6469727 992.894882,75.5593884 987.769531,79.3842773 C982.64418,83.2091663 980.081543,87.8372124 980.081543,93.2685547 L958.73877,93.2685547 C958.73877,87.0722346 960.938048,81.0863733 965.33667,75.310791 C969.735292,69.5352088 975.702029,64.9645351 983.237061,61.5986328 C990.772092,58.2327306 999.052852,56.5498047 1008.07959,56.5498047 C1022.38467,56.5498047 1033.59143,60.1260222 1041.7002,67.2785645 C1049.80896,74.4311067 1054.01627,84.2800479 1054.32227,96.8256836 L1054.32227,153.969238 C1054.32227,165.367407 1055.7757,174.432258 1058.68262,181.164062 L1058.68262,183 L1036.42188,183 Z M1001.19482,166.820801 C1007.85013,166.820801 1014.1611,165.099627 1020.12793,161.657227 C1026.09476,158.214827 1030.41682,153.739774 1033.09424,148.231934 L1033.09424,122.758301 L1016.45605,122.758301 C990.44681,122.758301 977.442383,130.369716 977.442383,145.592773 C977.442383,152.24808 979.660785,157.449851 984.097656,161.198242 C988.534527,164.946633 994.233526,166.820801 1001.19482,166.820801 Z M1147.61084,77.8925781 C1144.39793,77.3570937 1140.91734,77.0893555 1137.16895,77.0893555 C1123.24635,77.0893555 1113.79902,83.0178444 1108.82666,94.875 L1108.82666,183 L1087.59863,183 L1087.59863,58.8447266 L1108.25293,58.8447266 L1108.59717,73.1879883 C1115.55847,62.0958104 1125.42653,56.5498047 1138.20166,56.5498047 C1142.33254,56.5498047 1145.4689,57.0852811 1147.61084,58.15625 L1147.61084,77.8925781 Z M1239.40771,150.067871 C1239.40771,144.330538 1237.24669,139.874609 1232.92456,136.699951 C1228.60244,133.525293 1221.06752,130.790539 1210.31958,128.495605 C1199.57164,126.200672 1191.04227,123.446793 1184.7312,120.233887 C1178.42013,117.02098 1173.75384,113.196148 1170.73218,108.759277 C1167.71052,104.322406 1166.19971,99.0441387 1166.19971,92.9243164 C1166.19971,82.7501119 1170.50264,74.1442409 1179.10864,67.1064453 C1187.71464,60.0686497 1198.71103,56.5498047 1212.09814,56.5498047 C1226.17374,56.5498047 1237.59086,60.1833947 1246.34985,67.4506836 C1255.10885,74.7179725 1259.48828,84.0123132 1259.48828,95.3339844 L1238.14551,95.3339844 C1238.14551,89.5201532 1235.67849,84.5096239 1230.74438,80.3022461 C1225.81028,76.0948683 1219.59493,73.9912109 1212.09814,73.9912109 C1204.37187,73.9912109 1198.32864,75.6741368 1193.96826,79.0400391 C1189.60789,82.4059413 1187.42773,86.8044976 1187.42773,92.2358398 C1187.42773,97.361191 1189.4549,101.224271 1193.50928,103.825195 C1197.56366,106.42612 1204.88821,108.91226 1215.48315,111.283691 C1226.0781,113.655123 1234.66484,116.485498 1241.24365,119.774902 C1247.82246,123.064307 1252.69912,127.023007 1255.87378,131.651123 C1259.04844,136.279239 1260.63574,141.920865 1260.63574,148.576172 C1260.63574,159.66835 1256.19894,168.561083 1247.3252,175.254639 C1238.45145,181.948194 1226.93871,185.294922 1212.78662,185.294922 C1202.84191,185.294922 1194.0448,183.535499 1186.39502,180.016602 C1178.74524,176.497704 1172.75938,171.582795 1168.43726,165.271729 C1164.11513,158.960662 1161.9541,152.133338 1161.9541,144.789551 L1183.18213,144.789551 C1183.56462,151.903844 1186.41412,157.545471 1191.73071,161.7146 C1197.04731,165.883729 1204.06587,167.968262 1212.78662,167.968262 C1220.81889,167.968262 1227.26373,166.342708 1232.12134,163.091553 C1236.97895,159.840397 1239.40771,155.499213 1239.40771,150.067871 Z M1364.93994,183 C1363.71598,180.552071 1362.72152,176.191763 1361.95654,169.918945 C1352.08833,180.169648 1340.30785,185.294922 1326.61475,185.294922 C1314.3751,185.294922 1304.33492,181.833449 1296.4939,174.9104 C1288.65287,167.987351 1284.73242,159.209363 1284.73242,148.576172 C1284.73242,135.648047 1289.64733,125.607865 1299.47729,118.455322 C1309.30726,111.30278 1323.13403,107.726562 1340.95801,107.726562 L1361.6123,107.726562 L1361.6123,97.9731445 C1361.6123,90.55286 1359.3939,84.6434953 1354.95703,80.244873 C1350.52016,75.8462508 1343.9797,73.6469727 1335.33545,73.6469727 C1327.76217,73.6469727 1321.41295,75.5593884 1316.2876,79.3842773 C1311.16225,83.2091663 1308.59961,87.8372124 1308.59961,93.2685547 L1287.25684,93.2685547 C1287.25684,87.0722346 1289.45611,81.0863733 1293.85474,75.310791 C1298.25336,69.5352088 1304.2201,64.9645351 1311.75513,61.5986328 C1319.29016,58.2327306 1327.57092,56.5498047 1336.59766,56.5498047 C1350.90274,56.5498047 1362.1095,60.1260222 1370.21826,67.2785645 C1378.32703,74.4311067 1382.53434,84.2800479 1382.84033,96.8256836 L1382.84033,153.969238 C1382.84033,165.367407 1384.29377,174.432258 1387.20068,181.164062 L1387.20068,183 L1364.93994,183 Z M1329.71289,166.820801 C1336.3682,166.820801 1342.67917,165.099627 1348.646,161.657227 C1354.61282,158.214827 1358.93488,153.739774 1361.6123,148.231934 L1361.6123,122.758301 L1344.97412,122.758301 C1318.96488,122.758301 1305.96045,130.369716 1305.96045,145.592773 C1305.96045,152.24808 1308.17885,157.449851 1312.61572,161.198242 C1317.05259,164.946633 1322.75159,166.820801 1329.71289,166.820801 Z M1526.04346,153.739746 L1549.91064,58.8447266 L1571.13867,58.8447266 L1534.99365,183 L1517.78174,183 L1487.60352,88.9082031 L1458.22852,183 L1441.0166,183 L1404.98633,58.8447266 L1426.09961,58.8447266 L1450.54053,151.789062 L1479.45654,58.8447266 L1496.55371,58.8447266 L1526.04346,153.739746 Z" id="Warsaw"></path>
        </g>
    </g>
</svg>