<?xml version="1.0" encoding="UTF-8"?>
<svg width="1090px" height="198px" viewBox="0 0 1090 198" version="1.1" xmlns="http://www.w3.org/2000/svg" xmlns:xlink="http://www.w3.org/1999/xlink">
    <!-- Generator: Sketch 52.5 (67469) - http://www.bohemiancoding.com/sketch -->
    <title>Group 22</title>
    <desc>Created with Sketch.</desc>
    <defs>
        <polygon id="path-1" points="0.210434694 0.713426316 170.718373 0.713426316 170.718373 194.999758 0.210434694 194.999758"></polygon>
        <polygon id="path-3" points="0.210434694 0.713426316 170.718373 0.713426316 170.718373 194.999758 0.210434694 194.999758"></polygon>
        <polygon id="path-5" points="0 199 1090 199 1090 1 0 1"></polygon>
    </defs>
    <g id="Page-1" stroke="none" stroke-width="1" fill="none" fill-rule="evenodd">
        <g id="Group-22">
            <g id="Group-3" transform="translate(670.000000, 0.000000)">
                <mask id="mask-2" fill="white">
                    <use xlink:href="#path-1"></use>
                </mask>
                <g id="Clip-2"></g>
                <path d="M134.312822,2.79768895 C126.223476,8.09122053 109.2177,34.5344521 82.6638429,39.7163205 C56.1134755,44.9016784 23.0267204,43.7606205 15.1467612,45.8368574 C7.27727143,47.9096047 0.234863265,52.4075363 0.210434694,97.4426837 L0.210434694,97.4915363 L0.210434694,97.6625205 L0.210434694,97.8544416 L0.210434694,98.0533416 L0.210434694,98.2243258 L0.210434694,98.2696889 C0.234863265,143.308326 7.27727143,147.806257 15.1467612,149.875515 C23.0267204,151.951752 56.1134755,150.810694 82.6638429,155.996052 C109.2177,161.18141 126.223476,187.624642 134.312822,192.911194 C142.402169,198.201236 143.749231,191.773626 143.749231,191.773626 C143.749231,191.773626 143.812047,164.873273 143.860904,131.426668 L115.014251,124.377931 L85.9721694,133.502905 L62.740598,128.938673 L86.8027408,128.938673 L115.014251,118.571447 L143.874863,124.343036 C143.878353,120.392952 143.885333,116.376568 143.888822,112.325289 C144.049353,112.328778 144.202904,112.349715 144.359945,112.349715 C151.322088,112.349715 157.212863,107.771526 159.191578,101.459068 L170.718373,101.459068 L170.718373,92.1491521 L159.191578,92.1491521 C157.212863,85.8436732 151.322088,81.2619942 144.359945,81.2619942 C144.199414,81.2619942 144.045863,81.2829311 143.888822,81.2864205 C143.836476,40.44911 143.749231,3.93874684 143.749231,3.93874684 C143.749231,3.93874684 142.402169,-2.49235316 134.312822,2.79768895" id="Fill-1" fill="#FCB920" mask="url(#mask-2)"></path>
            </g>
            <g id="Group-6" transform="translate(670.000000, 0.000000)">
                <mask id="mask-4" fill="white">
                    <use xlink:href="#path-3"></use>
                </mask>
                <g id="Clip-5"></g>
                <path d="M134.312822,2.79768895 C126.223476,8.09122053 109.2177,34.5344521 82.6638429,39.7163205 C56.1134755,44.9016784 23.0267204,43.7606205 15.1467612,45.8368574 C7.27727143,47.9096047 0.234863265,52.4075363 0.210434694,97.4426837 L0.210434694,97.4915363 L0.210434694,97.6625205 L0.210434694,97.8544416 L0.210434694,98.0533416 L0.210434694,98.2243258 L0.210434694,98.2696889 C0.234863265,143.308326 7.27727143,147.806257 15.1467612,149.875515 C23.0267204,151.951752 56.1134755,150.810694 82.6638429,155.996052 C109.2177,161.18141 126.223476,187.624642 134.312822,192.911194 C142.402169,198.201236 143.749231,191.773626 143.749231,191.773626 C143.749231,191.773626 143.812047,164.873273 143.860904,131.426668 L115.014251,124.377931 L85.9721694,133.502905 L62.740598,128.938673 L86.8027408,128.938673 L115.014251,118.571447 L143.874863,124.343036 C143.878353,120.392952 143.885333,116.376568 143.888822,112.325289 C144.049353,112.328778 144.202904,112.349715 144.359945,112.349715 C151.322088,112.349715 157.212863,107.771526 159.191578,101.459068 L170.718373,101.459068 L170.718373,92.1491521 L159.191578,92.1491521 C157.212863,85.8436732 151.322088,81.2619942 144.359945,81.2619942 C144.199414,81.2619942 144.045863,81.2829311 143.888822,81.2864205 C143.836476,40.44911 143.749231,3.93874684 143.749231,3.93874684 C143.749231,3.93874684 142.402169,-2.49235316 134.312822,2.79768895" id="Fill-4" fill="#FDC117" mask="url(#mask-4)"></path>
            </g>
            <path d="M657.297108,198 C652.739702,198 648.30149,197.504672 643.971954,196.517529 C639.642419,195.526872 635.807187,193.780929 632.469763,191.269158 C629.128834,188.757388 626.432954,185.370889 624.382121,181.109662 C622.331288,176.848435 621.307625,171.529806 621.307625,165.136209 L621.307625,134.09916 C621.307625,128.773504 620.231376,124.93032 618.075372,122.569607 C615.919369,120.212408 612.613497,119.028538 608.150745,119.028538 L604,119.028538 L604,93.0150297 L608.150745,93.0150297 C612.613497,93.0150297 615.919369,91.8346733 618.075372,89.4739606 C620.231376,87.1202738 621.307625,83.2806026 621.307625,77.9479212 L621.307625,36.8673041 C621.307625,30.4737071 622.331288,25.1550775 624.382121,20.8903375 C626.432954,16.6326235 629.128834,13.2426119 632.469763,10.7308417 C635.807187,8.22609735 639.642419,6.47664059 643.971954,5.48598435 C648.30149,4.49532812 652.739702,4 657.297108,4 L668,4 L668,30.0205346 L659.915863,30.0205346 C656.676599,30.0205346 654.559159,30.6669202 653.563541,31.9596914 C652.5539,33.2559757 652.059597,35.1951326 652.059597,37.7806751 L652.059597,81.8332609 C652.059597,90.046574 650.082384,95.8710705 646.134969,99.2891859 C642.180543,102.714327 637.097283,104.962625 630.874671,106.020028 C637.097283,107.087969 642.180543,109.332754 646.134969,112.754382 C650.082384,116.179523 652.059597,121.996994 652.059597,130.21382 L652.059597,164.222838 C652.059597,166.811893 652.5539,168.754563 653.563541,170.043822 C654.559159,171.33308 656.676599,171.982978 659.915863,171.982978 L668,171.982978 L668,198 L657.297108,198 Z" id="Fill-7" fill="#FDC117"></path>
            <path d="M1026,171.982507 L1034.0872,171.982507 C1037.31927,171.982507 1039.44011,171.332597 1040.44268,170.043315 C1041.44175,168.754034 1041.94654,166.811329 1041.94654,164.222226 L1041.94654,130.212593 C1041.94654,121.995618 1043.8921,116.178042 1047.80424,112.756352 C1051.70587,109.331148 1056.73977,107.086323 1062.89544,106.021875 C1056.73977,104.96094 1051.70587,102.712602 1047.80424,99.2909114 C1043.8921,95.8692212 1041.94654,90.0481321 1041.94654,81.8311573 L1041.71518,37.7777738 C1041.71518,35.1921844 1041.2209,33.2529924 1040.23585,31.9601977 C1039.2473,30.66389 1037.16153,30.0174927 1033.97152,30.0174927 L1026,30.0174927 L1026,4 L1036.70581,4 C1041.26297,4 1045.70094,4.49182406 1050.02673,5.48249823 C1054.35603,6.47668544 1058.19105,8.22266085 1061.5318,10.7309635 C1064.86904,13.2392662 1067.56126,16.6293392 1069.61549,20.8871304 C1071.6627,25.1519476 1072.68982,30.4741865 1072.68982,36.8643862 L1072.68982,77.9457472 C1072.68982,83.2785253 1073.7625,87.121779 1075.92189,89.4755084 C1078.07427,91.8362639 1081.38697,93.0131286 1085.84247,93.0131286 L1090,93.0131286 L1090,119.030621 L1085.84247,119.030621 C1081.38697,119.030621 1078.07427,120.214512 1075.92189,122.571755 C1073.7625,124.928997 1072.68982,128.772251 1072.68982,134.098003 L1072.68982,165.135614 C1072.68982,171.529327 1071.6627,176.851565 1069.61549,181.11287 C1067.56126,185.374174 1064.86904,188.757221 1061.5318,191.269036 C1058.19105,193.780852 1054.35603,195.526828 1050.02673,196.517502 C1045.70094,197.508176 1041.26297,198 1036.70581,198 L1026,198 L1026,171.982507 Z" id="Fill-9" fill="#FDC117"></path>
            <polygon id="Fill-11" fill="#FDC117" points="0 26 27.1888154 26 27.1888154 133.306141 87 133.306141 87 157 0 157"></polygon>
            <mask id="mask-6" fill="white">
                <use xlink:href="#path-5"></use>
            </mask>
            <g id="Clip-14"></g>
            <path d="M106.369666,157 L131.630334,157 L131.630334,74.4870223 L106.369666,74.4870223 L106.369666,157 Z M119.094635,60.7336931 C114.727926,60.7336931 110.956063,59.2187627 107.772286,56.1819045 C104.591888,53.1520436 103,49.1775379 103,44.2688834 C103,39.4931789 104.591888,35.5886469 107.772286,32.5517887 C110.956063,29.5219278 114.727926,28 119.094635,28 C123.457964,28 127.199409,29.5219278 130.318969,32.5517887 C133.43515,35.5886469 135,39.4931789 135,44.2688834 C135,49.1775379 133.43515,53.1520436 130.318969,56.1819045 C127.199409,59.2187627 123.457964,60.7336931 119.094635,60.7336931 Z" id="Fill-13" fill="#FDC117" mask="url(#mask-6)"></path>
            <path d="M196.421691,136.077759 C201.889658,136.077759 206.211396,134.330434 209.390367,130.835784 C212.569337,127.337624 214.158823,122.285118 214.158823,115.685281 C214.158823,109.464382 212.569337,104.61187 209.390367,101.110202 C206.211396,97.6155519 201.889658,95.8717353 196.421691,95.8717353 C190.825594,95.8717353 186.379191,97.6155519 183.075555,101.110202 C179.764993,104.61187 178.116638,109.464382 178.116638,115.685281 C178.116638,122.285118 179.764993,127.337624 183.075555,130.835784 C186.379191,134.330434 190.825594,136.077759 196.421691,136.077759 M203.998583,159 C197.734141,159 192.463561,157.80003 188.183378,155.407106 C183.899732,153.007166 180.609948,149.610758 178.307099,145.207358 L178.885408,157.249166 L153,157.249166 L153,17 L178.885408,17 L178.885408,86.1561859 C181.56918,82.0124287 184.952463,78.742334 189.045648,76.3494107 C193.131906,73.94947 198.308988,72.7530083 204.57343,72.7530083 C209.556587,72.7530083 214.255785,73.7880705 218.664096,75.8617034 C223.072407,77.9353364 226.937038,80.882632 230.261451,84.7000815 C233.585865,88.5210398 236.207304,93.0507524 238.122304,98.2927281 C240.040768,103.541721 241,109.338069 241,115.685281 C241,122.025475 240.006139,127.85691 238.028805,133.165551 C236.044546,138.4777 233.360774,143.038991 229.974028,146.85644 C226.587282,150.677399 222.656855,153.656272 218.186211,155.793062 C213.708642,157.929851 208.981741,159 203.998583,159" id="Fill-15" fill="#FDC117" mask="url(#mask-6)"></path>
            <path d="M320.325112,108.829543 C319.674017,104.312803 317.921341,100.761686 315.063563,98.176193 C312.205786,95.5976974 308.179557,94.3067003 302.984878,94.3067003 C297.786679,94.3067003 293.500013,95.4997356 290.124879,97.8893047 C286.742707,100.278874 284.539543,103.924454 283.497792,108.829543 L320.325112,108.829543 Z M283.888449,123.936658 C285.187118,128.197998 287.590889,131.493715 291.096242,133.820308 C294.605114,136.143403 299.349306,137.30845 305.32178,137.30845 C310.125802,137.30845 314.285769,136.56324 317.791122,135.076319 C321.299994,133.592897 324.090902,132.140963 326.170886,130.720516 L341.174218,146.800252 C337.14447,150.284895 332.407316,153.185265 326.952199,155.515357 C321.493563,157.838452 314.412469,159 305.712437,159 C298.307555,159 291.617118,157.929417 285.644644,155.802246 C279.665132,153.668077 274.537322,150.701233 270.250656,146.891217 C265.963989,143.0847 262.68388,138.532973 260.410328,133.239535 C258.136776,127.946097 257,122.131362 257,115.805826 C257,109.606241 258.168451,103.861478 260.508872,98.5645417 C262.845774,93.2746023 266.090689,88.7543631 270.250656,85.0038241 C274.407103,81.2602823 279.2428,78.3249258 284.764787,76.1977544 C290.286773,74.0635857 296.290921,73 302.791309,73 C310.196191,73 316.74937,74.2909971 322.468445,76.8729913 C328.184,79.4549856 332.924673,83.0410886 336.693983,87.6208047 C340.456254,92.207518 343.219007,97.5989179 344.971683,103.798503 C346.724359,109.991091 347.34026,116.708474 346.822904,123.936658 L283.888449,123.936658 Z" id="Fill-16" fill="#FDC117" mask="url(#mask-6)"></path>
            <path d="M365,74.7577444 L390.834197,74.7577444 L390.450521,89.8079894 C391.98177,86.4195665 393.672019,83.620588 395.521269,81.4039947 C397.370519,79.1874014 399.347661,77.4649531 401.452696,76.226061 C403.55773,74.9836392 405.693873,74.1400631 407.864582,73.6812142 C410.031834,73.2258949 412.199086,73 414.373251,73 C417.052071,73 419.409433,73.3282535 421.45225,73.9741716 C423.488153,74.6306785 425.34086,75.4142513 427,76.3178307 L418.773429,100.354456 C417.114289,99.5744124 415.486257,98.9567312 413.892791,98.5014118 C412.295869,98.0460925 410.60562,97.8166681 408.822044,97.8166681 C402.952835,97.8166681 398.486982,99.4755834 395.427942,102.796944 C392.365446,106.121834 390.834197,112.210406 390.834197,121.066191 L390.834197,158 L365,158 L365,74.7577444 Z" id="Fill-17" fill="#FDC117" mask="url(#mask-6)"></path>
            <path d="M476.991432,158 C472.845839,158 468.990123,157.453486 465.420791,156.360459 C461.85146,155.270913 458.799018,153.40859 456.266958,150.77349 C453.734898,148.14187 451.75116,144.733993 450.322729,140.556819 C448.89779,136.386608 448.181828,131.213875 448.181828,125.045582 L448.181828,95.3702445 L436,95.3702445 L436,73.7847001 L448.181828,73.7847001 L448.181828,31 L474.284748,31 L474.284748,73.7847001 L495.358472,73.7847001 L495.358472,95.3702445 L474.284748,95.3702445 L474.284748,125.814878 C474.284748,129.929394 474.895935,132.630633 476.121801,133.911632 C477.347667,135.196113 478.989141,135.840094 481.053206,135.840094 C483.243001,135.840094 485.080055,135.425858 486.564366,134.583461 C488.041692,133.751508 489.236126,133.01354 490.140682,132.369559 L500,150.484569 C497.939427,152.151957 495.10352,153.826307 491.492278,155.493696 C487.884529,157.161084 483.047422,158 476.991432,158" id="Fill-18" fill="#FDC117" mask="url(#mask-6)"></path>
            <path d="M537.581838,149.022791 L505,74 L533.726761,74 L545.487008,105.873277 C546.131262,107.818182 546.803375,110.022876 547.510313,112.480337 C548.213769,114.94482 548.892848,117.275898 549.537102,119.480592 C550.177873,122.071459 550.75596,124.665836 551.271364,127.253192 C551.783284,124.665836 552.298687,122.071459 552.814091,119.480592 C553.326011,117.275898 553.935441,114.94482 554.645861,112.480337 C555.349317,110.022876 556.087597,107.818182 556.864184,105.873277 L569.585588,74 L596,74 L542.210019,198 L516.182159,198 L537.581838,149.022791 Z" id="Fill-19" fill="#FDC117" mask="url(#mask-6)"></path>
            <path d="M869.096568,170 C863.750819,170 858.943094,169.346599 854.68029,168.053847 C850.417486,166.761096 846.658217,164.976537 843.416279,162.710709 C840.167443,160.441368 837.33592,157.782095 834.921711,154.732888 C832.500604,151.690707 830.52785,148.479906 829,145.107511 L850.769271,131.684677 C852.797206,135.450518 855.028626,138.724551 857.449733,141.51029 C859.863942,144.299541 863.367994,145.687141 867.951543,145.687141 C870.113985,145.687141 872.08329,145.434212 873.869805,144.910788 C875.649422,144.39439 877.146232,143.488059 878.356786,142.188282 C879.567339,140.89553 880.519227,139.1461 881.222797,136.936479 C881.919469,134.737397 882.267805,131.948145 882.267805,128.57575 L882.267805,36 L909,36 L909,128.962171 C909,135.966916 908.044663,142.061817 906.137437,147.243361 C904.230212,152.431931 901.491809,156.710657 897.925677,160.083052 C894.362994,163.455446 890.13123,165.949613 885.230385,167.569065 C880.32954,169.19203 874.949302,170 869.096568,170" id="Fill-20" fill="#FDC117" mask="url(#mask-6)"></path>
            <path d="M973.740932,169 C967.366961,169 961.581411,168.296802 956.380758,166.886908 C951.180105,165.477014 946.500927,163.556339 942.336177,161.121385 C938.171426,158.68993 934.563386,155.77918 931.512054,152.38214 C928.450152,148.988597 925.952007,145.357158 924,141.498316 L946.236666,128.714808 C949.228099,133.497253 952.772717,137.433062 956.866998,140.525733 C960.964802,143.625402 966.394481,145.175236 973.159558,145.175236 C978.878162,145.175236 983.398783,143.919275 986.717899,141.393361 C990.029968,138.874443 991.689526,135.673318 991.689526,131.786488 C991.689526,127.133487 989.934834,123.641987 986.421927,121.30849 C982.912544,118.981989 978.032527,116.459573 971.788925,113.744739 L964.963949,110.83399 C960.016987,108.76288 955.5316,106.502851 951.504265,104.043407 C947.469884,101.583964 944.023923,98.7396859 941.166382,95.5070747 C938.301795,92.2779621 936.096098,88.5870478 934.531674,84.4483259 C932.974297,80.3061055 932.192085,75.4606873 932.192085,69.8945786 C932.192085,64.849746 933.136377,60.1302737 935.021438,55.732663 C936.906498,51.3350523 939.57377,47.5181922 943.016208,44.285581 C946.462169,41.0529698 950.658631,38.5305535 955.598546,36.7183321 C960.538462,34.9096092 966.066798,34 972.183555,34 C980.893591,34 988.402122,35.661786 994.71267,38.9818596 C1001.01617,42.3019332 1006.44585,47.9310148 1010.99818,55.8726029 L989.737519,69.446771 C987.39793,65.3115476 984.857503,62.3483207 982.130332,60.5360993 C979.396113,58.7273764 976.080521,57.8247642 972.183555,57.8247642 C968.145649,57.8247642 964.963949,58.9197937 962.62436,61.1098528 C960.284771,63.3034104 959.114977,66.07422 959.114977,69.4222815 C959.114977,73.5540064 960.446851,76.6781642 963.1106,78.8052503 C965.774349,80.928838 970.034233,83.2833264 975.886729,85.8582202 L982.715229,88.7584741 C988.567725,91.2109205 993.736666,93.7543278 998.222053,96.3991915 C1002.71096,99.0440551 1006.47756,102.007282 1009.53946,105.292371 C1012.58727,108.577459 1014.92686,112.320851 1016.55823,116.505053 C1018.18255,120.696253 1019,125.629133 1019,131.300197 C1019,137.356095 1017.85839,142.740282 1015.58223,147.442262 C1013.30606,152.151239 1010.15607,156.108039 1006.12169,159.333653 C1002.09436,162.555769 997.309473,164.976729 991.78466,166.589536 C986.256324,168.195346 980.245271,169 973.740932,169" id="Fill-21" fill="#FDC117" mask="url(#mask-6)"></path>
        </g>
    </g>
</svg>