<?xml version="1.0" encoding="UTF-8"?>
<svg width="700px" height="300px" viewBox="0 0 700 300" version="1.1" xmlns="http://www.w3.org/2000/svg" xmlns:xlink="http://www.w3.org/1999/xlink">
    <!-- Generator: Sketch 52.3 (67297) - http://www.bohemiancoding.com/sketch -->
    <title>GDG / Logo / Small / Transparent / Grey</title>
    <desc>Created with Sketch.</desc>
    <g id="GDG-/-Logo-/-Small-/-Transparent-/-Grey" stroke="none" stroke-width="1" fill="none" fill-rule="evenodd">
        <g id="GDG-/-Resources-/-Logo-/-Symbol-/-Grey" transform="translate(0.000000, 22.000000)" fill="#757575" fill-rule="nonzero">
            <polygon id="XMLID_30_" points="118.3 204.54 97.04 167.76 46 256 89.7 256 118.88 205.54"></polygon>
            <polygon id="Shape" points="74.04 128 97.04 167.76 46 256 0 256"></polygon>
            <polygon id="XMLID_67_" points="46 0 0 0 118.88 205.54 141.86 165.8 141.88 165.76"></polygon>
            <path d="M156.78,140 C161.08,132.58 161.08,123.42 156.78,116 L89.7,0 L46,0 L141.88,165.76 L156.78,140 Z" id="Shape"></path>
        </g>
        <g id="GDG-/-Resources-/-Logo-/-Text-/-Grey" transform="translate(172.000000, 35.000000)" fill="#757575" fill-rule="nonzero">
            <path d="M113.995,3.6 L144.595,3.6 C175.755,3.6 195.315,24.28 195.315,53.3 C195.315,82.45 175.745,103 144.595,103 L113.995,103 L113.995,3.6 Z M145.125,87.94 C166.815,87.94 180.255,75.9 180.255,53.3 C180.255,30.83 166.815,18.66 145.125,18.66 L129.055,18.66 L129.055,87.94 L145.125,87.94 Z" id="Shape"></path>
            <path d="M101.425,48.79 L53.755,48.79 L53.755,63.55 L87.365,63.55 C86.255,71.08 83.645,76.95 79.735,80.87 C74.755,85.85 66.975,91.33 53.325,91.33 C32.275,91.33 15.815,74.36 15.815,53.31 C15.815,32.26 32.275,15.29 53.325,15.29 C62.9244695,15.166357 72.1850274,18.8353635 79.095,25.5 L89.175,15.42 C79.6513209,5.98650131 66.7282309,0.788427175 53.325,1 C24.495,1 0.255,24.47 0.255,53.31 C0.255,82.14 24.495,105.62 53.325,105.62 C68.885,105.62 80.625,100.52 89.815,90.95 C99.255,81.51 102.195,68.24 102.195,57.52 C102.226794,54.5917302 101.968872,51.6674952 101.425,48.79 Z M306.245,48.79 L258.575,48.79 L258.575,63.55 L292.185,63.55 C291.075,71.08 288.465,76.95 284.555,80.87 C279.575,85.85 271.795,91.33 258.145,91.33 C237.095,91.33 220.635,74.36 220.635,53.31 C220.635,32.26 237.095,15.29 258.145,15.29 C267.744469,15.166357 277.005027,18.8353635 283.915,25.5 L293.995,15.42 C284.471321,5.98650131 271.548231,0.788427175 258.145,1 C229.315,1 205.075,24.47 205.075,53.31 C205.075,82.14 229.315,105.62 258.145,105.62 C273.705,105.62 285.445,100.52 294.635,90.95 C304.075,81.51 307.015,68.24 307.015,57.52 C307.046702,54.5917337 306.788781,51.6675077 306.245,48.79 Z" id="Shape"></path>
        </g>
        <g id="GDG-/-Resources-/-Logo-/-Town-/-Grey" transform="translate(172.000000, 161.000000)" fill="#757575">
            <path d="M53.3555556,58.9088889 C53.3555556,65.7326267 50.8511362,71.2133126 45.8422222,75.3511111 C40.7607153,79.4163166 34.5904067,81.4488889 27.3311111,81.4488889 C20.8703381,81.4488889 15.1718765,79.5615004 10.2355556,75.7866667 C5.29923458,72.011833 1.88741684,66.8578104 0,60.3244444 L9.58222222,56.4044444 C10.2355588,58.727419 11.1429572,60.8325832 12.3044444,62.72 C13.4659317,64.6074168 14.8270292,66.2225859 16.3877778,67.5655556 C17.9485263,68.9085252 19.6725832,69.9611073 21.56,70.7233333 C23.4474168,71.4855594 25.4436932,71.8666667 27.5488889,71.8666667 C32.1222451,71.8666667 35.8607262,70.6870488 38.7644444,68.3277778 C41.6681627,65.9685067 43.12,62.8289085 43.12,58.9088889 C43.12,55.6422059 41.9222342,52.847419 39.5266667,50.5244444 C37.276285,48.2740628 33.0659568,46.0963068 26.8955556,43.9911111 C20.6525614,41.7407295 16.7688965,40.2163003 15.2444444,39.4177778 C6.96884751,35.2073864 2.83111111,29.0007818 2.83111111,20.7977778 C2.83111111,15.0629343 5.11775491,10.1629833 9.69111111,6.09777778 C14.3370603,2.03257227 20.0355218,0 26.7866667,0 C32.739289,0 37.8933116,1.5244292 42.2488889,4.57333333 C46.6044662,7.54964451 49.5081409,11.2881256 50.96,15.7888889 L41.5955556,19.7088889 C40.7244401,16.8051707 39.0003833,14.3914911 36.4233333,12.4677778 C33.8462834,10.5440645 30.7066852,9.58222222 27.0044444,9.58222222 C23.0844248,9.58222222 19.7814949,10.6711002 17.0955556,12.8488889 C14.4096162,14.8814916 13.0666667,17.5310948 13.0666667,20.7977778 C13.0666667,23.4837171 14.1192487,25.8066569 16.2244444,27.7666667 C18.547419,29.7266765 23.5925538,32.0496162 31.36,34.7355556 C39.2726322,37.4214949 44.9166498,40.7062769 48.2922222,44.59 C51.6677947,48.4737231 53.3555556,53.2466384 53.3555556,58.9088889 Z M82.88,80.5777778 C78.5244227,80.5777778 74.9129773,79.2348282 72.0455556,76.5488889 C69.1781338,73.8629495 67.7081485,70.1244684 67.6355556,65.3333333 L67.6355556,35.4977778 L58.2711111,35.4977778 L58.2711111,26.3511111 L67.6355556,26.3511111 L67.6355556,10.0177778 L77.6533333,10.0177778 L77.6533333,26.3511111 L90.72,26.3511111 L90.72,35.4977778 L77.6533333,35.4977778 L77.6533333,62.0666667 C77.6533333,65.6237215 78.3429561,68.0374011 79.7222222,69.3077778 C81.1014884,70.5781545 82.6622135,71.2133333 84.4044444,71.2133333 C85.202967,71.2133333 85.9833295,71.1225935 86.7455556,70.9411111 C87.5077816,70.7596287 88.2155523,70.5237052 88.8688889,70.2333333 L92.0266667,79.1622222 C89.4133203,80.1059306 86.3644619,80.5777778 82.88,80.5777778 Z M111.097778,79.7066667 L101.08,79.7066667 L101.08,26.3511111 L110.662222,26.3511111 L110.662222,35.0622222 L111.097778,35.0622222 C112.114079,32.231097 114.201095,29.8174174 117.358889,27.8211111 C120.516682,25.8248048 123.619985,24.8266667 126.668889,24.8266667 C129.572607,24.8266667 132.040731,25.2622179 134.073333,26.1333333 L131.024444,35.8244444 C129.790364,35.3162938 127.830384,35.0622222 125.144444,35.0622222 C121.369611,35.0622222 118.084829,36.5866514 115.29,39.6355556 C112.495171,42.6844597 111.097778,46.2414612 111.097778,50.3066667 L111.097778,79.7066667 Z M146.502222,63.3733333 C146.502222,65.9866797 147.609248,68.1644357 149.823333,69.9066667 C152.037418,71.6488976 154.632578,72.52 157.608889,72.52 C161.81928,72.52 165.575909,70.9592749 168.878889,67.8377778 C172.181868,64.7162807 173.833333,61.0503914 173.833333,56.84 C170.711836,54.3718395 166.356324,53.1377778 160.766667,53.1377778 C156.701461,53.1377778 153.307791,54.117768 150.585556,56.0777778 C147.86332,58.0377876 146.502222,60.4696151 146.502222,63.3733333 Z M159.46,24.6088889 C166.864481,24.6088889 172.708127,26.5870173 176.991111,30.5433333 C181.274095,34.4996494 183.415556,39.9258914 183.415556,46.8222222 L183.415556,79.7066667 L173.833333,79.7066667 L173.833333,72.3022222 L173.397778,72.3022222 C169.259979,78.4000305 163.742997,81.4488889 156.846667,81.4488889 C150.966637,81.4488889 146.048538,79.7066841 142.092222,76.2222222 C138.135906,72.7377604 136.157778,68.3822484 136.157778,63.1555556 C136.157778,57.6384909 138.244794,53.246683 142.418889,49.98 C146.592984,46.713317 152.16441,45.08 159.133333,45.08 C165.085956,45.08 169.985907,46.168878 173.833333,48.3466667 L173.833333,46.06 C173.833333,42.5755381 172.454088,39.6174196 169.695556,37.1855556 C166.937023,34.7536915 163.706685,33.5377778 160.004444,33.5377778 C154.414787,33.5377778 149.986683,35.8970134 146.72,40.6155556 L137.9,35.0622222 C142.763728,28.0932985 149.950323,24.6088889 159.46,24.6088889 Z M235.806667,64.8977778 C235.806667,69.5437269 233.774094,73.4636877 229.708889,76.6577778 C225.643683,79.8518678 220.525957,81.4488889 214.355556,81.4488889 C208.983677,81.4488889 204.265206,80.0514955 200.2,77.2566667 C196.134794,74.4618379 193.23112,70.7778006 191.488889,66.2044444 L200.417778,62.3933333 C201.724451,65.5874234 203.629987,68.0736948 206.134444,69.8522222 C208.638901,71.6307496 211.379244,72.52 214.355556,72.52 C217.549646,72.52 220.217397,71.8303773 222.358889,70.4511111 C224.500381,69.071845 225.571111,67.438528 225.571111,65.5511111 C225.571111,62.1392422 222.957804,59.6348228 217.731111,58.0377778 L208.584444,55.7511111 C198.203652,53.1377647 193.013333,48.1289259 193.013333,40.7244444 C193.013333,35.8607164 194.991462,31.9589036 198.947778,29.0188889 C202.904094,26.0788742 207.967377,24.6088889 214.137778,24.6088889 C218.85632,24.6088889 223.121092,25.7340628 226.932222,27.9844444 C230.743352,30.2348261 233.411103,33.2473885 234.935556,37.0222222 L226.006667,40.7244444 C224.990365,38.4740628 223.3389,36.7137101 221.052222,35.4433333 C218.765544,34.1729566 216.206681,33.5377778 213.375556,33.5377778 C210.762209,33.5377778 208.421121,34.1911046 206.352222,35.4977778 C204.283323,36.804451 203.248889,38.401472 203.248889,40.2888889 C203.248889,43.337793 206.116268,45.515549 211.851111,46.8222222 L219.908889,48.8911111 C230.50746,51.5044575 235.806667,56.8399597 235.806667,64.8977778 Z M273.497778,81.4488889 C269.577758,81.4488889 266.002609,80.6140824 262.772222,78.9444444 C259.541836,77.2748065 257.055564,75.0607545 255.313333,72.3022222 L254.877778,72.3022222 L254.877778,79.7066667 L245.295556,79.7066667 L245.295556,1.74222222 L255.313333,1.74222222 L255.313333,26.3511111 L254.877778,33.7555556 L255.313333,33.7555556 C257.055564,30.9970232 259.541836,28.7829713 262.772222,27.1133333 C266.002609,25.4436954 269.577758,24.6088889 273.497778,24.6088889 C280.539294,24.6088889 286.491828,27.3673798 291.355556,32.8844444 C296.364469,38.474102 298.868889,45.1888497 298.868889,53.0288889 C298.868889,60.941521 296.364469,67.6562687 291.355556,73.1733333 C286.491828,78.690398 280.539294,81.4488889 273.497778,81.4488889 Z M271.864444,72.3022222 C276.65558,72.3022222 280.684428,70.4874256 283.951111,66.8577778 C287.217794,63.300723 288.851111,58.6911394 288.851111,53.0288889 C288.851111,47.4392313 287.217794,42.8296478 283.951111,39.2 C280.684428,35.5703522 276.65558,33.7555556 271.864444,33.7555556 C267.000716,33.7555556 262.935572,35.5703522 259.668889,39.2 C256.474799,42.8296478 254.877778,47.4392313 254.877778,53.0288889 C254.877778,58.6911394 256.474799,63.3370189 259.668889,66.9666667 C262.935572,70.5237215 267.000716,72.3022222 271.864444,72.3022222 Z M305.744444,53.0288889 C305.744444,44.8258849 308.321456,38.0385454 313.475556,32.6666667 C318.702248,27.294788 325.271812,24.6088889 333.184444,24.6088889 C341.097077,24.6088889 347.630345,27.294788 352.784444,32.6666667 C358.011137,38.0385454 360.624444,44.8258849 360.624444,53.0288889 C360.624444,61.3044858 358.011137,68.0918254 352.784444,73.3911111 C347.630345,78.7629898 341.097077,81.4488889 333.184444,81.4488889 C325.271812,81.4488889 318.702248,78.7629898 313.475556,73.3911111 C308.321456,68.0192324 305.744444,61.2318929 305.744444,53.0288889 Z M315.762222,53.0288889 C315.762222,58.7637324 317.431835,63.4096118 320.771111,66.9666667 C324.110387,70.5237215 328.248123,72.3022222 333.184444,72.3022222 C338.120765,72.3022222 342.258502,70.5237215 345.597778,66.9666667 C348.937054,63.4096118 350.606667,58.7637324 350.606667,53.0288889 C350.606667,47.3666384 348.937054,42.7570548 345.597778,39.2 C342.185909,35.5703522 338.048172,33.7555556 333.184444,33.7555556 C328.320716,33.7555556 324.18298,35.5703522 320.771111,39.2 C317.431835,42.7570548 315.762222,47.3666384 315.762222,53.0288889 Z M416.826667,79.7066667 L407.244444,79.7066667 L407.244444,72.3022222 L406.808889,72.3022222 C405.284437,74.9155686 402.943349,77.0933246 399.785556,78.8355556 C396.627762,80.5777865 393.34298,81.4488889 389.931111,81.4488889 C383.397745,81.4488889 378.370758,79.5796483 374.85,75.8411111 C371.329242,72.1025739 369.568889,66.7852197 369.568889,59.8888889 L369.568889,26.3511111 L379.586667,26.3511111 L379.586667,59.2355556 C379.804446,67.9467102 384.196253,72.3022222 392.762222,72.3022222 C396.754835,72.3022222 400.094061,70.6870532 402.78,67.4566667 C405.465939,64.2262801 406.808889,60.3607632 406.808889,55.86 L406.808889,26.3511111 L416.826667,26.3511111 L416.826667,79.7066667 Z M439.817778,79.7066667 L429.8,79.7066667 L429.8,26.3511111 L439.382222,26.3511111 L439.382222,35.0622222 L439.817778,35.0622222 C440.834079,32.231097 442.921095,29.8174174 446.078889,27.8211111 C449.236682,25.8248048 452.339985,24.8266667 455.388889,24.8266667 C458.292607,24.8266667 460.760731,25.2622179 462.793333,26.1333333 L459.744444,35.8244444 C458.510364,35.3162938 456.550384,35.0622222 453.864444,35.0622222 C450.089611,35.0622222 446.804829,36.5866514 444.01,39.6355556 C441.215171,42.6844597 439.817778,46.2414612 439.817778,50.3066667 L439.817778,79.7066667 Z M491.337778,72.3022222 C496.274099,72.3022222 500.302947,70.5237215 503.424444,66.9666667 C506.691127,63.4096118 508.324444,58.7637324 508.324444,53.0288889 C508.324444,47.4392313 506.691127,42.8296478 503.424444,39.2 C500.230354,35.5703522 496.201506,33.7555556 491.337778,33.7555556 C486.546643,33.7555556 482.517794,35.5703522 479.251111,39.2 C475.984428,42.8296478 474.351111,47.4392313 474.351111,53.0288889 C474.351111,58.6911394 475.984428,63.300723 479.251111,66.8577778 C482.517794,70.4874256 486.546643,72.3022222 491.337778,72.3022222 Z M491.011111,104.968889 C488.0348,104.968889 485.240013,104.587782 482.626667,103.825556 C480.01332,103.06333 477.635937,101.992599 475.494444,100.613333 C473.352952,99.2340672 471.520008,97.6007502 469.995556,95.7133333 C468.471103,93.8259165 467.309634,91.7207524 466.511111,89.3977778 L475.984444,85.4777778 C477.073339,88.5992749 478.960727,91.1036943 481.646667,92.9911111 C484.332606,94.878528 487.454056,95.8222222 491.011111,95.8222222 C496.455583,95.8222222 500.702207,94.1889052 503.751111,90.9222222 C506.800015,87.6555392 508.324444,83.1548435 508.324444,77.42 L508.324444,72.3022222 L507.888889,72.3022222 C506.001472,75.1333475 503.442609,77.3655474 500.212222,78.9988889 C496.981836,80.6322304 493.479278,81.4488889 489.704444,81.4488889 C482.735521,81.4488889 476.746692,78.7266939 471.737778,73.2822222 C466.801457,67.6925646 464.333333,60.941521 464.333333,53.0288889 C464.333333,45.1162567 466.801457,38.4015091 471.737778,32.8844444 C476.746692,27.3673798 482.735521,24.6088889 489.704444,24.6088889 C493.479278,24.6088889 496.981836,25.4255474 500.212222,27.0588889 C503.442609,28.6922304 506.001472,30.9244303 507.888889,33.7555556 L508.324444,33.7555556 L508.324444,26.3511111 L517.906667,26.3511111 L517.906667,77.42 C517.906667,85.9859688 515.474839,92.7007164 510.611111,97.5644444 C505.67479,102.500765 499.141522,104.968889 491.011111,104.968889 Z" id="Strasbourg"></path>
        </g>
    </g>
</svg>