<?xml version="1.0" encoding="UTF-8" standalone="no"?>
<!-- Created with Inkscape (http://www.inkscape.org/) -->

<svg
   xmlns:dc="http://purl.org/dc/elements/1.1/"
   xmlns:cc="http://creativecommons.org/ns#"
   xmlns:rdf="http://www.w3.org/1999/02/22-rdf-syntax-ns#"
   xmlns:svg="http://www.w3.org/2000/svg"
   xmlns="http://www.w3.org/2000/svg"
   xmlns:sodipodi="http://sodipodi.sourceforge.net/DTD/sodipodi-0.dtd"
   xmlns:inkscape="http://www.inkscape.org/namespaces/inkscape"
   version="1.1"
   id="svg2"
   xml:space="preserve"
   width="225.32001"
   height="225.32001"
   viewBox="0 0 225.32001 225.32001"
   sodipodi:docname="organizer-logo.svg"
   inkscape:version="0.92.4 (unknown)"><metadata
     id="metadata8"><rdf:RDF><cc:Work
         rdf:about=""><dc:format>image/svg+xml</dc:format><dc:type
           rdf:resource="http://purl.org/dc/dcmitype/StillImage" /><dc:title></dc:title></cc:Work></rdf:RDF></metadata><defs
     id="defs6" /><sodipodi:namedview
     pagecolor="#ffffff"
     bordercolor="#666666"
     borderopacity="1"
     objecttolerance="10"
     gridtolerance="10"
     guidetolerance="10"
     inkscape:pageopacity="0"
     inkscape:pageshadow="2"
     inkscape:window-width="838"
     inkscape:window-height="480"
     id="namedview4"
     showgrid="false"
     inkscape:zoom="1.0473992"
     inkscape:cx="112.66"
     inkscape:cy="112.66"
     inkscape:window-x="0"
     inkscape:window-y="27"
     inkscape:window-maximized="0"
     inkscape:current-layer="g10" /><g
     id="g10"
     inkscape:groupmode="layer"
     inkscape:label="ink_ext_XXXXXX"
     transform="matrix(1.3333333,0,0,-1.3333333,0,225.32)"><g
       id="g12"
       transform="scale(0.1)"><path
         d="m 1689.94,844.969 c 0,466.671 -378.31,844.971 -844.971,844.971 C 378.305,1689.94 0,1311.64 0,844.969 0,378.309 378.305,0 844.969,0 1311.63,0 1689.94,378.309 1689.94,844.969"
         style="fill:#f6e9e2;fill-opacity:1;fill-rule:nonzero;stroke:none"
         id="path14"
         inkscape:connector-curvature="0" /><path
         d="M 860.242,1098.91 757.797,988.969 825,910.902 l 65.238,66.989 9.379,79.269 -39.375,41.75"
         style="fill:#65b0e4;fill-opacity:1;fill-rule:nonzero;stroke:none"
         id="path16"
         inkscape:connector-curvature="0" /><path
         d="m 1104.39,1079.59 c -2.34,0.78 -4.83,1.21 -7.42,1.21 -13.08,0 -23.69,-10.6 -23.69,-23.68 0,-2.73 0.49,-5.34 1.34,-7.78 1.92,-5.52 5.81,-10.11 10.84,-12.91 3.41,-1.9 7.33,-2.99 11.51,-2.99 2.79,0 5.46,0.51 7.96,1.4 5.46,1.96 10.01,5.84 12.78,10.87 1.86,3.38 2.93,7.27 2.93,11.41 0,4.31 -1.17,8.34 -3.19,11.83 -2.88,4.98 -7.51,8.81 -13.06,10.64"
         style="fill:#ef3025;fill-opacity:1;fill-rule:nonzero;stroke:none"
         id="path18"
         inkscape:connector-curvature="0" /><path
         d="m 809.941,895.445 -105.05,122.035 -62.719,-215.472 35.023,-42.86 132.746,136.297"
         style="fill:#f8a4c2;fill-opacity:1;fill-rule:nonzero;stroke:none"
         id="path20"
         inkscape:connector-curvature="0" /><path
         d="m 589.617,866.305 36.039,-44.098 62.5,214.703 -71.133,82.63 -27.406,-253.235"
         style="fill:#7d339a;fill-opacity:1;fill-rule:nonzero;stroke:none"
         id="path22"
         inkscape:connector-curvature="0" /><path
         d="m 660.742,1101.71 98.715,104.07 -119.391,126.61 -19.871,-183.58 40.547,-47.1"
         style="fill:#7d339a;fill-opacity:1;fill-rule:nonzero;stroke:none"
         id="path24"
         inkscape:connector-curvature="0" /><path
         d="m 1294.97,404.648 c -165.74,0.012 -927.329,1.684 -959.454,1.75 -9.547,1.59 -99.039,18.012 -112.801,73.532 H 1341.85 l 175.36,174.582 31.31,-22.262 C 1491.77,565.672 1358.62,421.539 1294.97,404.648 Z M 345.285,536.391 h 155.68 l -3.598,-31.25 H 345.285 Z m 492.719,25.211 H 547.172 L 877.086,902.527 Z M 656.367,536.391 h 178.742 l -3.582,-31.25 h -175.16 z m -25.211,0 v -31.25 H 522.738 l 3.598,31.25 z m 245.117,20.461 h 40.551 v -51.711 h -59.926 l 4.125,36 z m 65.762,-51.711 v 51.711 h 128.055 v -51.711 z m 281.305,0 H 1095.3 v 51.711 h 128.04 z m 291.15,182.238 -183.04,-182.238 h -82.9 v 51.711 h 64.29 v 25.207 H 900.73 L 1350.4,1045.45 1332.31,1063 865.73,582.18 969.27,1485.31 944.227,1488.18 881.801,943.648 531.555,581.711 635.613,1485.31 610.57,1488.19 503.867,561.602 H 244.68 v -25.211 h 75.398 v -31.25 h -124.68 l 0.368,-12.961 C 198.309,401.949 327.195,382.121 332.68,381.332 l 1.793,-0.141 c 7.949,-0.011 796.917,-1.75 962.067,-1.75 h 1.49 l 1.45,0.348 c 88.27,21.191 269.51,237.52 277.19,246.723 l 8.71,10.449 -70.89,50.418"
         style="fill:#2f2d2e;fill-opacity:1;fill-rule:nonzero;stroke:none"
         id="path26"
         inkscape:connector-curvature="0" /><path
         d="m 845.465,1114.59 -71.235,75.53 -99.386,-104.79 68.84,-79.97 101.781,109.23"
         style="fill:#2f2d2e;fill-opacity:1;fill-rule:nonzero;stroke:none"
         id="path28"
         inkscape:connector-curvature="0" /><path
         d="m 565.617,644.59 96.481,99.062 -75.727,92.657 z"
         style="fill:#2f2d2e;fill-opacity:1;fill-rule:nonzero;stroke:none"
         id="path30"
         inkscape:connector-curvature="0" /><path
         d="m 924,864.492 90.07,-102.551 66.33,68.278 L 940.203,1010.27 924,864.492"
         style="fill:#2f2d2e;fill-opacity:1;fill-rule:nonzero;stroke:none"
         id="path32"
         inkscape:connector-curvature="0" /><path
         d="m 1054.38,1032.96 c -4.05,7.14 -6.4,15.36 -6.4,24.16 0,27.05 21.93,48.98 48.99,48.98 8.5,0 16.5,-2.17 23.47,-5.99 l 32.59,33.12 -177.436,195.27 -31.981,-287.61 52.375,-67.273 58.392,59.343"
         style="fill:#7d339a;fill-opacity:1;fill-rule:nonzero;stroke:none"
         id="path34"
         inkscape:connector-curvature="0" /><path
         d="m 1167.51,1117.29 -30.93,-31.44 c 5.86,-8.08 9.37,-17.98 9.37,-28.73 0,-10.95 -3.64,-21.03 -9.71,-29.19 l 64.42,-73.926 11.97,12.312 47.53,49.004 -92.65,101.97"
         style="fill:#f8a4c2;fill-opacity:1;fill-rule:nonzero;stroke:none"
         id="path36"
         inkscape:connector-curvature="0" /><path
         d="m 1096.97,1008.13 c -10.47,0 -20.15,3.31 -28.1,8.9 l -59.55,-60.526 86.2,-110.719 90.11,92.746 -65.66,75.349 c -6.87,-3.66 -14.69,-5.75 -23,-5.75"
         style="fill:#65b0e4;fill-opacity:1;fill-rule:nonzero;stroke:none"
         id="path38"
         inkscape:connector-curvature="0" /><path
         d="m 899.477,643.988 99.566,102.492 -78.262,89.094 z"
         style="fill:#f8a4c2;fill-opacity:1;fill-rule:nonzero;stroke:none"
         id="path40"
         inkscape:connector-curvature="0" /></g></g></svg>