<svg id="Layer_4" xmlns="http://www.w3.org/2000/svg" viewBox="95 151 1089.3 200"><style>.st0{fill:#757575}</style><g id="XMLID_6_"><path id="XMLID_3_" class="st0" d="M454.9 255.4c0 22-6.5 39.6-19.6 52.7-14.8 15.6-34.1 23.4-57.9 23.4-22.8 0-42.1-7.9-58.1-23.7-15.9-15.8-23.9-35.4-23.9-58.7s8-42.9 23.9-58.7 35.3-23.7 58.1-23.7c11.3 0 22.1 2.2 32.4 6.6 10.3 4.4 18.5 10.3 24.7 17.6l-13.9 13.9c-10.5-12.6-24.9-18.8-43.3-18.8-16.6 0-31 5.8-43.1 17.5-12.1 11.7-18.2 26.8-18.2 45.5s6.1 33.8 18.2 45.5c12.1 11.7 26.5 17.5 43.1 17.5 17.6 0 32.3-5.9 44.1-17.6 7.6-7.6 12-18.3 13.2-31.9h-57.3v-19h76.4c.8 4.1 1.2 8.1 1.2 11.9z"/><path id="XMLID_20_" class="st0" d="M475.3 327.9V170.1h48.2c24.2 0 43.6 7.3 58.2 21.9 14.5 14.6 21.8 33.6 21.8 57s-7.3 42.3-21.8 57c-14.5 14.6-33.9 21.9-58.2 21.9h-48.2zm20.3-19.4h28c18.2 0 32.6-5.2 43.3-15.6 10.6-10.4 16-25 16-43.8 0-18.7-5.3-33.2-16-43.7s-25.1-15.8-43.3-15.8h-28v118.9z"/><path id="XMLID_23_" class="st0" d="M776 255.4c0 22-6.5 39.6-19.6 52.7-14.8 15.6-34.1 23.4-57.9 23.4-22.8 0-42.1-7.9-58.1-23.7-15.9-15.8-23.9-35.4-23.9-58.7s8-42.9 23.9-58.7 35.3-23.7 58.1-23.7c11.3 0 22.1 2.2 32.4 6.6 10.3 4.4 18.5 10.3 24.7 17.6l-13.9 13.9c-10.5-12.6-24.9-18.8-43.3-18.8-16.6 0-31 5.8-43.1 17.5s-18.2 26.8-18.2 45.5 6.1 33.8 18.2 45.5 26.5 17.5 43.1 17.5c17.6 0 32.3-5.9 44.1-17.6 7.6-7.6 12-18.3 13.2-31.9h-57.3v-19h76.4c.8 4.1 1.2 8.1 1.2 11.9z"/><path id="XMLID_25_" class="st0" d="M850 327.9V170.1h20.3v138.4h68.3v19.4H850z"/><path id="XMLID_27_" class="st0" d="M970.6 327.9l-43.6-108h22l31.7 83.7h.4l32.2-83.7h21.7l-44.1 108h-20.3z"/><path id="XMLID_29_" class="st0" d="M1065.8 192.8c-2.8 2.8-6.2 4.2-10.1 4.2-3.9 0-7.3-1.4-10.1-4.2-2.8-2.8-4.2-6.2-4.2-10.1 0-3.9 1.4-7.3 4.2-10.1 2.8-2.8 6.2-4.2 10.1-4.2 3.9 0 7.3 1.4 10.1 4.2 2.8 2.8 4.2 6.2 4.2 10.1 0 3.9-1.4 7.3-4.2 10.1zm0 135.1h-20.3v-108h20.3v108z"/><path id="XMLID_32_" class="st0" d="M1120 327.9l-43.6-108h22l31.7 83.7h.4l32.2-83.7h21.6l-44.1 108H1120z"/></g><g id="XMLID_261_"><path id="XMLID_259_" class="st0" d="M127.3 151H95l92.3 160 16.2-28-76.2-132z"/><path id="XMLID_258_" class="st0" d="M215.9 242l-52.6-91h-32.2l74.3 128.8 10.5-18.2c1.7-2.8 2.8-6.2 2.8-9.8-.1-3.6-1.1-6.9-2.8-9.8z"/><path id="XMLID_257_" class="st0" d="M151.3 255.1L95.9 351h32.3l39.3-68-16.2-27.9z"/><path id="XMLID_256_" class="st0" d="M169.3 286.3L132 351h32.2l21.3-36.8-16.2-27.9z"/></g></svg>