<?xml version="1.0" encoding="utf-8"?>
<!-- Generator: Adobe Illustrator 22.0.0, SVG Export Plug-In . SVG Version: 6.00 Build 0)  -->
<svg version="1.1" id="Layer_4" xmlns="http://www.w3.org/2000/svg" xmlns:xlink="http://www.w3.org/1999/xlink" x="0px" y="0px"
	 viewBox="0 0 1089.3 200" style="enable-background:new 0 0 1089.3 200;" xml:space="preserve">
<style type="text/css">
	.st0{fill:#757575;}
	.st1{font-family:'ProductSans-Regular';}
	.st2{font-size:174.4122px;}
	.st3{fill-rule:evenodd;clip-rule:evenodd;fill:#FFFFFF;stroke:#757575;stroke-width:5.1533;stroke-miterlimit:10;}
</style>
<g>
	<text transform="matrix(1 0 0 1 309.3008 161.7588)" class="st0 st1 st2">GDG CDE</text>
	<g>
		<g>
			<path class="st3" d="M114.7,74.2l-78.3,45.2c-10.6,6.1-24.3,2.5-30.4-8.1l0,0c-6.1-10.6-2.5-24.3,8.1-30.4l78.3-45.2
				c10.6-6.1,24.3-2.5,30.4,8.1l0,0C129,54.4,125.3,68.1,114.7,74.2z"/>
			<path class="st3" d="M92.7,164.3l-78.5-44.9C3.6,113.4-0.2,99.7,5.9,89.1l0,0c6.1-10.6,19.7-14.3,30.4-8.3l78.5,44.9
				c10.6,6.1,14.3,19.7,8.3,30.4l0,0C116.9,166.7,103.3,170.4,92.7,164.3z"/>
		</g>
		<g>
			<path class="st3" d="M170.4,125.8l78.3-45.2c10.6-6.1,24.3-2.5,30.4,8.1l0,0c6.1,10.6,2.5,24.3-8.1,30.4l-78.3,45.2
				c-10.6,6.1-24.3,2.5-30.4-8.1l0,0C156.1,145.5,159.8,131.9,170.4,125.8z"/>
			<path class="st3" d="M192.4,35.6l78.5,44.9c10.6,6.1,14.3,19.7,8.3,30.4l0,0c-6.1,10.6-19.7,14.3-30.4,8.3l-78.5-44.9
				c-10.6-6.1-14.3-19.7-8.3-30.4l0,0C168.2,33.3,181.8,29.6,192.4,35.6z"/>
		</g>
	</g>
</g>
</svg>
