<?xml version="1.0" encoding="UTF-8" standalone="no"?>
<!DOCTYPE svg PUBLIC "-//W3C//DTD SVG 1.1//EN" "http://www.w3.org/Graphics/SVG/1.1/DTD/svg11.dtd">
<svg width="100%" height="100%" viewBox="0 0 1090 200" version="1.1" xmlns="http://www.w3.org/2000/svg" xmlns:xlink="http://www.w3.org/1999/xlink" xml:space="preserve" xmlns:serif="http://www.serif.com/" style="fill-rule:evenodd;clip-rule:evenodd;stroke-linejoin:round;stroke-miterlimit:1.41421;">
    <g transform="matrix(1.21915,0,0,1.21915,29.1872,-45.7775)">
        <g id="XMLID_6_">
            <path d="M244.777,122.611C244.777,137.011 240.505,148.483 231.961,157.027C222.265,167.203 209.641,172.291 194.089,172.291C179.209,172.291 166.561,167.131 156.145,156.811C145.729,146.491 140.521,133.699 140.521,118.435C140.521,103.171 145.729,90.379 156.145,80.059C166.561,69.739 179.209,64.579 194.089,64.579C201.481,64.579 208.537,66.019 215.257,68.899C221.977,71.779 227.353,75.619 231.385,80.419L222.313,89.491C215.497,81.331 206.089,77.251 194.089,77.251C183.241,77.251 173.857,81.067 165.937,88.699C158.017,96.331 154.057,106.243 154.057,118.435C154.057,130.627 158.017,140.539 165.937,148.171C173.857,155.803 183.241,159.619 194.089,159.619C205.609,159.619 215.209,155.779 222.889,148.099C227.881,143.107 230.761,136.147 231.529,127.219L194.089,127.219L194.089,114.835L244.057,114.835C244.537,117.523 244.777,120.115 244.777,122.611Z" style="fill:rgb(117,117,117);fill-rule:nonzero;"/>
            <path d="M260.905,169.987L260.905,66.883L292.441,66.883C308.281,66.883 320.953,71.659 330.457,81.211C339.961,90.763 344.713,103.171 344.713,118.435C344.713,133.699 339.961,146.107 330.457,155.659C320.953,165.211 308.281,169.987 292.441,169.987L260.905,169.987ZM274.153,157.315L292.441,157.315C304.345,157.315 313.777,153.907 320.737,147.091C327.697,140.275 331.177,130.723 331.177,118.435C331.177,106.243 327.697,96.715 320.737,89.851C313.777,82.987 304.345,79.555 292.441,79.555L274.153,79.555L274.153,157.315Z" style="fill:rgb(117,117,117);fill-rule:nonzero;"/>
            <path d="M459.625,122.611C459.625,137.011 455.353,148.483 446.809,157.027C437.113,167.203 424.489,172.291 408.937,172.291C394.057,172.291 381.409,167.131 370.993,156.811C360.577,146.491 355.369,133.699 355.369,118.435C355.369,103.171 360.577,90.379 370.993,80.059C381.409,69.739 394.057,64.579 408.937,64.579C416.329,64.579 423.385,66.019 430.105,68.899C436.825,71.779 442.201,75.619 446.233,80.419L437.161,89.491C430.345,81.331 420.937,77.251 408.937,77.251C398.089,77.251 388.705,81.067 380.785,88.699C372.865,96.331 368.905,106.243 368.905,118.435C368.905,130.627 372.865,140.539 380.785,148.171C388.705,155.803 398.089,159.619 408.937,159.619C420.457,159.619 430.057,155.779 437.737,148.099C442.729,143.107 445.609,136.147 446.377,127.219L408.937,127.219L408.937,114.835L458.905,114.835C459.385,117.523 459.625,120.115 459.625,122.611Z" style="fill:rgb(117,117,117);fill-rule:nonzero;"/>
            <path d="M536.809,169.987L523.561,169.987L523.561,79.555L494.761,79.555L494.761,66.883L565.609,66.883L565.609,79.555L536.809,79.555L536.809,169.987Z" style="fill:rgb(117,117,117);fill-rule:nonzero;"/>
            <path d="M588.649,172.291C581.161,172.291 574.897,170.131 569.857,165.811C564.817,161.491 562.297,155.779 562.297,148.675C562.297,140.995 565.273,134.971 571.225,130.603C577.177,126.235 584.521,124.051 593.257,124.051C601.033,124.051 607.417,125.491 612.409,128.371L612.409,126.355C612.409,121.171 610.633,117.019 607.081,113.899C603.529,110.779 599.161,109.219 593.977,109.219C590.137,109.219 586.657,110.131 583.537,111.955C580.417,113.779 578.281,116.275 577.129,119.443L565.033,114.259C566.665,110.035 569.881,106.123 574.681,102.523C579.481,98.923 585.817,97.123 593.689,97.123C602.713,97.123 610.201,99.763 616.153,105.043C622.105,110.323 625.081,117.763 625.081,127.363L625.081,169.987L612.409,169.987L612.409,160.195L611.833,160.195C606.553,168.259 598.825,172.291 588.649,172.291ZM590.809,160.195C596.281,160.195 601.249,158.155 605.713,154.075C610.177,149.995 612.409,145.171 612.409,139.603C608.665,136.531 603.049,134.995 595.561,134.995C589.129,134.995 584.281,136.387 581.017,139.171C577.753,141.955 576.121,145.219 576.121,148.963C576.121,152.419 577.609,155.155 580.585,157.171C583.561,159.187 586.969,160.195 590.809,160.195Z" style="fill:rgb(117,117,117);fill-rule:nonzero;"/>
            <path d="M654.457,81.715C652.633,83.539 650.425,84.451 647.833,84.451C645.241,84.451 643.033,83.539 641.209,81.715C639.385,79.891 638.473,77.683 638.473,75.091C638.473,72.499 639.385,70.291 641.209,68.467C643.033,66.643 645.241,65.731 647.833,65.731C650.425,65.731 652.633,66.643 654.457,68.467C656.281,70.291 657.193,72.499 657.193,75.091C657.193,77.683 656.281,79.891 654.457,81.715ZM654.457,169.987L641.209,169.987L641.209,99.427L654.457,99.427L654.457,169.987Z" style="fill:rgb(117,117,117);fill-rule:nonzero;"/>
            <path d="M708.457,172.291C703.081,172.291 698.257,171.139 693.985,168.835C689.713,166.531 686.521,163.651 684.409,160.195L683.833,160.195L684.409,169.987L684.409,201.091L671.161,201.091L671.161,99.427L683.833,99.427L683.833,109.219L684.409,109.219C686.521,105.763 689.713,102.883 693.985,100.579C698.257,98.275 703.081,97.123 708.457,97.123C717.577,97.123 725.449,100.723 732.073,107.923C738.697,115.123 742.009,124.051 742.009,134.707C742.009,145.363 738.697,154.291 732.073,161.491C725.449,168.691 717.577,172.291 708.457,172.291ZM706.297,160.195C712.441,160.195 717.721,157.867 722.137,153.211C726.553,148.555 728.761,142.387 728.761,134.707C728.761,127.027 726.553,120.859 722.137,116.203C717.721,111.547 712.441,109.219 706.297,109.219C700.057,109.219 694.753,111.523 690.385,116.131C686.017,120.739 683.833,126.931 683.833,134.707C683.833,142.483 686.017,148.675 690.385,153.283C694.753,157.891 700.057,160.195 706.297,160.195Z" style="fill:rgb(117,117,117);fill-rule:nonzero;"/>
            <path d="M786.073,172.291C775.417,172.291 766.753,168.739 760.081,161.635C753.409,154.531 750.073,145.555 750.073,134.707C750.073,124.435 753.313,115.603 759.793,108.211C766.273,100.819 774.553,97.123 784.633,97.123C795.097,97.123 803.473,100.531 809.761,107.347C816.049,114.163 819.193,123.283 819.193,134.707L819.049,137.155L763.321,137.155C763.705,144.259 766.081,149.875 770.449,154.003C774.817,158.131 779.929,160.195 785.785,160.195C795.289,160.195 801.721,156.163 805.081,148.099L816.889,152.995C814.585,158.467 810.793,163.051 805.513,166.747C800.233,170.443 793.753,172.291 786.073,172.291ZM805.081,126.211C804.793,122.179 802.945,118.339 799.537,114.691C796.129,111.043 791.065,109.219 784.345,109.219C779.449,109.219 775.201,110.755 771.601,113.827C768.001,116.899 765.529,121.027 764.185,126.211L805.081,126.211Z" style="fill:rgb(117,117,117);fill-rule:nonzero;"/>
            <path d="M845.689,81.715C843.865,83.539 841.657,84.451 839.065,84.451C836.473,84.451 834.265,83.539 832.441,81.715C830.617,79.891 829.705,77.683 829.705,75.091C829.705,72.499 830.617,70.291 832.441,68.467C834.265,66.643 836.473,65.731 839.065,65.731C841.657,65.731 843.865,66.643 845.689,68.467C847.513,70.291 848.425,72.499 848.425,75.091C848.425,77.683 847.513,79.891 845.689,81.715ZM845.689,169.987L832.441,169.987L832.441,99.427L845.689,99.427L845.689,169.987Z" style="fill:rgb(117,117,117);fill-rule:nonzero;"/>
        </g>
    </g>
    <g id="XMLID_261_" transform="matrix(1,0,0,1,-95,-151)">
        <path id="XMLID_259_" d="M127.3,151L95,151L187.3,311L203.5,283L127.3,151Z" style="fill:rgb(117,117,117);fill-rule:nonzero;"/>
        <path id="XMLID_258_" d="M215.9,242L163.3,151L131.1,151L205.4,279.8L215.9,261.6C217.6,258.8 218.7,255.4 218.7,251.8C218.6,248.2 217.6,244.9 215.9,242Z" style="fill:rgb(117,117,117);fill-rule:nonzero;"/>
        <path id="XMLID_257_" d="M151.3,255.1L95.9,351L128.2,351L167.5,283L151.3,255.1Z" style="fill:rgb(117,117,117);fill-rule:nonzero;"/>
        <path id="XMLID_256_" d="M169.3,286.3L132,351L164.2,351L185.5,314.2L169.3,286.3Z" style="fill:rgb(117,117,117);fill-rule:nonzero;"/>
    </g>
</svg>
