<?xml version="1.0" encoding="UTF-8"?>
<svg width="120px" height="22px" viewBox="0 0 120 22" version="1.1" xmlns="http://www.w3.org/2000/svg" xmlns:xlink="http://www.w3.org/1999/xlink">
    <!-- Generator: Sketch 52.5 (67469) - http://www.bohemiancoding.com/sketch -->
    <title>Group</title>
    <desc>Created with Sketch.</desc>
    <defs>
        <polygon id="path-1" points="0.0231671223 0.0785423467 18.7946833 0.0785423467 18.7946833 21.4678632 0.0231671223 21.4678632"></polygon>
        <polygon id="path-3" points="0.0231671223 0.0785423467 18.7946833 0.0785423467 18.7946833 21.4678632 0.0231671223 21.4678632"></polygon>
        <polygon id="path-5" points="0 21.9082569 120 21.9082569 120 0.110091743 0 0.110091743"></polygon>
    </defs>
    <g id="Page-1" stroke="none" stroke-width="1" fill="none" fill-rule="evenodd">
        <g id="Group">
            <g id="Group-3" transform="translate(73.761468, 0.000000)">
                <mask id="mask-2" fill="white">
                    <use xlink:href="#path-1"></use>
                </mask>
                <g id="Clip-2"></g>
                <path d="M14.7867327,0.308002453 C13.8961624,0.890776572 12.023967,3.80195803 9.10060655,4.37243896 C6.17763033,4.94330405 2.53505179,4.81768299 1.66753335,5.04625953 C0.801167497,5.2744519 0.0258565063,5.76963703 0.0231671223,10.7276349 L0.0231671223,10.7330132 L0.0231671223,10.7518371 L0.0231671223,10.772966 L0.0231671223,10.7948633 L0.0231671223,10.8136872 L0.0231671223,10.8186814 C0.0258565063,15.7770634 0.801167497,16.2722485 1.66753335,16.5000567 C2.53505179,16.7286333 6.17763033,16.6030122 9.10060655,17.1738773 C12.023967,17.7447424 13.8961624,20.6559238 14.7867327,21.2379296 C15.6773031,21.8203196 15.8256034,21.1126927 15.8256034,21.1126927 C15.8256034,21.1126927 15.8325189,18.151186 15.8378977,14.468991 L12.6621194,13.6929832 L9.46482599,14.6975675 L6.90722179,14.1950833 L9.55626504,14.1950833 L12.6621194,13.0537373 L15.8394345,13.6891416 C15.8398187,13.25427 15.8405871,12.8120992 15.8409713,12.3660869 C15.8586444,12.366471 15.8755491,12.368776 15.892838,12.368776 C16.6593124,12.368776 17.3078382,11.8647551 17.5256783,11.1698056 L18.7946833,11.1698056 L18.7946833,10.1448608 L17.5256783,10.1448608 C17.3078382,9.45067961 16.6593124,8.94627459 15.892838,8.94627459 C15.8751649,8.94627459 15.8582602,8.94857957 15.8409713,8.94896373 C15.8352083,4.45311303 15.8256034,0.433623506 15.8256034,0.433623506 C15.8256034,0.433623506 15.6773031,-0.274387504 14.7867327,0.308002453" id="Fill-1" fill="#FCB920" mask="url(#mask-2)"></path>
            </g>
            <g id="Group-6" transform="translate(73.761468, 0.000000)">
                <mask id="mask-4" fill="white">
                    <use xlink:href="#path-3"></use>
                </mask>
                <g id="Clip-5"></g>
                <path d="M14.7867327,0.308002453 C13.8961624,0.890776572 12.023967,3.80195803 9.10060655,4.37243896 C6.17763033,4.94330405 2.53505179,4.81768299 1.66753335,5.04625953 C0.801167497,5.2744519 0.0258565063,5.76963703 0.0231671223,10.7276349 L0.0231671223,10.7330132 L0.0231671223,10.7518371 L0.0231671223,10.772966 L0.0231671223,10.7948633 L0.0231671223,10.8136872 L0.0231671223,10.8186814 C0.0258565063,15.7770634 0.801167497,16.2722485 1.66753335,16.5000567 C2.53505179,16.7286333 6.17763033,16.6030122 9.10060655,17.1738773 C12.023967,17.7447424 13.8961624,20.6559238 14.7867327,21.2379296 C15.6773031,21.8203196 15.8256034,21.1126927 15.8256034,21.1126927 C15.8256034,21.1126927 15.8325189,18.151186 15.8378977,14.468991 L12.6621194,13.6929832 L9.46482599,14.6975675 L6.90722179,14.1950833 L9.55626504,14.1950833 L12.6621194,13.0537373 L15.8394345,13.6891416 C15.8398187,13.25427 15.8405871,12.8120992 15.8409713,12.3660869 C15.8586444,12.366471 15.8755491,12.368776 15.892838,12.368776 C16.6593124,12.368776 17.3078382,11.8647551 17.5256783,11.1698056 L18.7946833,11.1698056 L18.7946833,10.1448608 L17.5256783,10.1448608 C17.3078382,9.45067961 16.6593124,8.94627459 15.892838,8.94627459 C15.8751649,8.94627459 15.8582602,8.94857957 15.8409713,8.94896373 C15.8352083,4.45311303 15.8256034,0.433623506 15.8256034,0.433623506 C15.8256034,0.433623506 15.6773031,-0.274387504 14.7867327,0.308002453" id="Fill-4" fill="#FDC117" mask="url(#mask-4)"></path>
            </g>
            <path d="M72.3629843,21.7981651 C71.8612516,21.7981651 71.3726411,21.7436336 70.895995,21.6349573 C70.4193489,21.5258942 69.9971215,21.3336802 69.6296987,21.057155 C69.26189,20.7806299 68.9650958,20.4078043 68.7393161,19.9386784 C68.5135363,19.4695525 68.4008394,18.8840153 68.4008394,18.1801331 L68.4008394,14.7632103 C68.4008394,14.1768996 68.2823533,13.7537967 68.0449951,13.4939017 C67.807637,13.2343935 67.4436877,13.1040593 66.9523756,13.1040593 L66.4954128,13.1040593 L66.4954128,10.2401868 L66.9523756,10.2401868 C67.4436877,10.2401868 67.807637,10.1102393 68.0449951,9.85034429 C68.2823533,9.5912228 68.4008394,9.16850671 68.4008394,8.58142252 L68.4008394,4.05878577 C68.4008394,3.35490353 68.5135363,2.76936633 68.7393161,2.29985367 C68.9650958,1.83111451 69.26189,1.45790223 69.6296987,1.18137706 C69.9971215,0.905625396 70.4193489,0.713024652 70.895995,0.60396158 C71.3726411,0.494898508 71.8612516,0.440366972 72.3629843,0.440366972 L73.5412844,0.440366972 L73.5412844,3.30501298 L72.6512877,3.30501298 C72.2946715,3.30501298 72.0615587,3.3761747 71.9519494,3.51849814 C71.8407963,3.66120833 71.7863776,3.87469349 71.7863776,4.15934037 L71.7863776,9.00916634 C71.7863776,9.91338429 71.5687028,10.5546133 71.1341251,10.9309195 C70.6987754,11.3079993 70.1391504,11.5555183 69.4540923,11.6719296 C70.1391504,11.7895012 70.6987754,12.0366335 71.1341251,12.4133265 C71.5687028,12.7904062 71.7863776,13.4308617 71.7863776,14.3354664 L71.7863776,18.0795785 C71.7863776,18.3646121 71.8407963,18.578484 71.9519494,18.7204207 C72.0615587,18.8623574 72.2946715,18.9339059 72.6512877,18.9339059 L73.5412844,18.9339059 L73.5412844,21.7981651 L72.3629843,21.7981651 Z" id="Fill-7" fill="#000000"></path>
            <path d="M112.954128,18.933854 L113.844462,18.933854 C114.200287,18.933854 114.433773,18.8623042 114.544148,18.720365 C114.654137,18.5784257 114.709711,18.3645499 114.709711,18.0795111 L114.709711,14.3353313 C114.709711,13.4307102 114.9239,12.7902431 115.354595,12.4135433 C115.784132,12.0364567 116.338323,11.7893199 117.016011,11.672133 C116.338323,11.5553329 115.784132,11.3078094 115.354595,10.9311095 C114.9239,10.5544097 114.709711,9.91355583 114.709711,9.00893475 L114.68424,4.15902096 C114.68424,3.87436893 114.629824,3.6608799 114.521379,3.51855388 C114.412547,3.37584111 114.18292,3.3046781 113.831727,3.3046781 L112.954128,3.3046781 L112.954128,0.440366972 L114.13275,0.440366972 C114.634455,0.440366972 115.123039,0.49451274 115.599273,0.603577787 C116.075893,0.71302959 116.498097,0.905247066 116.865886,1.18139048 C117.233288,1.4575339 117.52968,1.83075294 117.755834,2.29950059 C117.981215,2.76902175 118.094292,3.35495631 118.094292,4.05846454 L118.094292,8.58118318 C118.094292,9.16827801 118.212386,9.59138851 118.450117,9.85051469 C118.687076,10.1104144 119.051777,10.2399775 119.54229,10.2399775 L120,10.2399775 L120,13.1042886 L119.54229,13.1042886 C119.051777,13.1042886 118.687076,13.2346252 118.450117,13.4941381 C118.212386,13.753651 118.094292,14.1767615 118.094292,14.7630829 L118.094292,18.1800676 C118.094292,18.8839626 117.981215,19.4698971 117.755834,19.9390315 C117.52968,20.4081659 117.233288,20.7806115 116.865886,21.0571416 C116.498097,21.3336718 116.075893,21.5258893 115.599273,21.6349543 C115.123039,21.7440194 114.634455,21.7981651 114.13275,21.7981651 L112.954128,21.7981651 L112.954128,18.933854 Z" id="Fill-9" fill="#000000"></path>
            <polygon id="Fill-11" fill="#000000" points="0 2.86238532 2.99326408 2.86238532 2.99326408 14.6759055 9.57798165 14.6759055 9.57798165 17.2844037 0 17.2844037"></polygon>
            <mask id="mask-6" fill="white">
                <use xlink:href="#path-5"></use>
            </mask>
            <g id="Clip-14"></g>
            <path d="M11.710422,17.2844037 L14.4914129,17.2844037 L14.4914129,8.20040613 L11.710422,8.20040613 L11.710422,17.2844037 Z M13.1113359,6.68627814 C12.6305973,6.68627814 12.2153463,6.51949681 11.8648388,6.1851638 C11.5147033,5.85160113 11.3394495,5.41404087 11.3394495,4.87363854 C11.3394495,4.34787291 11.5147033,3.91801617 11.8648388,3.58368316 C12.2153463,3.25012049 12.6305973,3.08256881 13.1113359,3.08256881 C13.5917024,3.08256881 14.0036046,3.25012049 14.3470425,3.58368316 C14.6901083,3.91801617 14.8623853,4.34787291 14.8623853,4.87363854 C14.8623853,5.41404087 14.6901083,5.85160113 14.3470425,6.1851638 C14.0036046,6.51949681 13.5917024,6.68627814 13.1113359,6.68627814 Z" id="Fill-13" fill="#000000" mask="url(#mask-6)"></path>
            <path d="M21.6244063,14.9810377 C22.2263844,14.9810377 22.7021721,14.7886716 23.0521505,14.4039395 C23.4021289,14.018821 23.5771181,13.4625818 23.5771181,12.7359942 C23.5771181,12.0511246 23.4021289,11.5169031 23.0521505,11.1313984 C22.7021721,10.7466663 22.2263844,10.5546865 21.6244063,10.5546865 C21.0083223,10.5546865 20.51881,10.7466663 20.155107,11.1313984 C19.7906414,11.5169031 19.6091711,12.0511246 19.6091711,12.7359942 C19.6091711,13.4625818 19.7906414,14.018821 20.155107,14.4039395 C20.51881,14.7886716 21.0083223,14.9810377 21.6244063,14.9810377 M22.4585596,17.5045872 C21.7688963,17.5045872 21.1886489,17.3724803 20.7174361,17.1090392 C20.2458421,16.8448256 19.883664,16.4709092 19.6301393,15.9861312 L19.6938064,17.3118348 L16.8440367,17.3118348 L16.8440367,1.87155963 L19.6938064,1.87155963 L19.6938064,9.48508469 C19.9892675,9.02889123 20.3617391,8.66888081 20.8123649,8.40543971 C21.2622282,8.14122605 21.8321822,8.0095055 22.5218455,8.0095055 C23.07045,8.0095055 23.5877928,8.1234573 24.0731115,8.35174717 C24.5584301,8.58003704 24.983894,8.90450995 25.3498845,9.32477962 C25.715875,9.74543557 26.0044738,10.2441195 26.2152996,10.8212178 C26.4265066,11.3990886 26.5321101,12.0372186 26.5321101,12.7359942 C26.5321101,13.4339973 26.4226942,14.0759901 26.2050061,14.6604276 C25.9865555,15.2452514 25.6910944,15.7474118 25.3182416,16.1676815 C24.9453888,16.5883375 24.5126813,16.9162869 24.0205003,17.1515297 C23.5275569,17.3867726 23.0071641,17.5045872 22.4585596,17.5045872" id="Fill-15" fill="#000000" mask="url(#mask-6)"></path>
            <path d="M35.2651499,11.9812341 C35.1934698,11.4839783 35.0005146,11.0930296 34.6858969,10.8083882 C34.3712792,10.5245171 33.9280247,10.382389 33.3561334,10.382389 C32.7838546,10.382389 32.311928,10.5137324 31.9403537,10.7768042 C31.5680044,11.039876 31.3254543,11.4412243 31.2107661,11.9812341 L35.2651499,11.9812341 Z M31.2537741,13.6444028 C31.396747,14.1135411 31.6613823,14.4763723 32.0472927,14.732511 C32.4335906,14.9882646 32.9558869,15.1165266 33.613407,15.1165266 C34.1422902,15.1165266 34.6002682,15.0344851 34.9861786,14.8707874 C35.3724764,14.7074749 35.6797324,14.5476289 35.9087214,14.3912495 L37.5604643,16.1614957 C37.1168224,16.545126 36.5953009,16.8644328 35.9947375,17.1209568 C35.3937867,17.3767104 34.6142167,17.5045872 33.656415,17.5045872 C32.8411987,17.5045872 32.1046368,17.3867248 31.4471168,17.1525408 C30.7888219,16.9175865 30.2242923,16.5909614 29.7523658,16.1715101 C29.2804392,15.752444 28.9193263,15.2513364 28.6690269,14.6685726 C28.4187276,14.0858088 28.293578,13.4456545 28.293578,12.7492652 C28.293578,12.0667421 28.4222148,11.4342912 28.6798758,10.8511422 C28.9371494,10.2687636 29.2943878,9.77112255 29.7523658,9.35821917 C30.2099563,8.94608613 30.7423266,8.62292761 31.3502517,8.3887436 C31.9581768,8.15378925 32.619184,8.03669725 33.3348231,8.03669725 C34.1500394,8.03669725 34.8714903,8.17882537 35.5011132,8.46308161 C36.1303486,8.74733786 36.6522576,9.1421382 37.0672275,9.64632712 C37.4814224,10.1512864 37.7855787,10.744835 37.9785339,11.4273581 C38.1714891,12.1091109 38.2392947,12.8486393 38.182338,13.6444028 L31.2537741,13.6444028 Z" id="Fill-16" fill="#000000" mask="url(#mask-6)"></path>
            <path d="M40.1834862,8.23021039 L43.0276181,8.23021039 L42.9853785,9.8871181 C43.1539563,9.51408071 43.3400388,9.20593629 43.5436259,8.96190767 C43.7472131,8.71787905 43.9648801,8.52825171 44.196627,8.39185992 C44.4283739,8.25507955 44.6635457,8.16220878 44.9025227,8.1116933 C45.1411193,8.06156641 45.3797159,8.03669725 45.6190735,8.03669725 C45.9139895,8.03669725 46.1735156,8.07283524 46.3984128,8.1439455 C46.622549,8.21622149 46.8265167,8.30248638 47.0091743,8.40196302 L46.1034968,11.0481969 C45.9208391,10.9623206 45.7416063,10.894319 45.5661789,10.8441921 C45.3903709,10.7940652 45.2042884,10.7688075 45.0079314,10.7688075 C44.36178,10.7688075 43.8701265,10.9514404 43.5333514,11.3170947 C43.1961959,11.6831377 43.0276181,12.3534392 43.0276181,13.3283879 L43.0276181,17.3944954 L40.1834862,17.3944954 L40.1834862,8.23021039 Z" id="Fill-17" fill="#000000" mask="url(#mask-6)"></path>
            <path d="M52.5128183,17.3944954 C52.0564226,17.3944954 51.6319401,17.3343288 51.2389862,17.2139955 C50.8460323,17.0940455 50.5099836,16.8890191 50.2312247,16.5989163 C49.9524658,16.3091967 49.7340726,15.9340176 49.5768141,15.4741453 C49.4199402,15.0150394 49.3411187,14.4455642 49.3411187,13.7664861 L49.3411187,10.4994765 L48,10.4994765 L48,8.12308625 L49.3411187,8.12308625 L49.3411187,3.41284404 L52.2148346,3.41284404 L52.2148346,8.12308625 L54.5348777,8.12308625 L54.5348777,10.4994765 L52.2148346,10.4994765 L52.2148346,13.8511792 C52.2148346,14.3041534 52.2821212,14.6015375 52.417079,14.742565 C52.5520367,14.8839758 52.7327494,14.9548728 52.959986,14.9548728 C53.2010644,14.9548728 53.4033088,14.9092688 53.5667192,14.8165278 C53.7293606,14.7249366 53.8608579,14.6436925 53.9604421,14.5727955 L55.0458716,16.5671085 C54.8190195,16.7506742 54.5068095,16.9350063 54.1092416,17.118572 C53.7120583,17.3021377 53.1795326,17.3944954 52.5128183,17.3944954" id="Fill-18" fill="#000000" mask="url(#mask-6)"></path>
            <path d="M59.1833216,16.4061788 L55.5963303,8.14678899 L58.7589095,8.14678899 L60.0536155,11.6557736 C60.1245426,11.8698916 60.1985367,12.1126102 60.2763648,12.3831564 C60.3538094,12.6544756 60.4285704,12.9111081 60.4994974,13.1538267 C60.5700411,13.4390597 60.6336837,13.7246792 60.6904253,14.0095257 C60.7467836,13.7246792 60.8035252,13.4390597 60.8602668,13.1538267 C60.9166251,12.9111081 60.9837182,12.6544756 61.0619297,12.3831564 C61.1393743,12.1126102 61.2206529,11.8698916 61.3061487,11.6557736 L62.7066702,8.14678899 L65.6146789,8.14678899 L59.6928461,21.7981651 L56.8273937,21.7981651 L59.1833216,16.4061788 Z" id="Fill-19" fill="#000000" mask="url(#mask-6)"></path>
            <path d="M95.6803562,18.7155963 C95.0918333,18.7155963 94.5625424,18.6436622 94.0932429,18.501341 C93.6239434,18.3590197 93.2100789,18.1625545 92.8531683,17.9131056 C92.4954983,17.6632699 92.183771,17.3705058 91.9179865,17.0348133 C91.6514426,16.6998943 91.4342587,16.3464116 91.266055,15.9751388 L93.662672,14.4973956 C93.885931,14.9119836 94.1315918,15.2724276 94.3981357,15.5791145 C94.6639202,15.886188 95.0496875,16.0389513 95.5542984,16.0389513 C95.7923653,16.0389513 96.0091696,16.0111059 96.2058501,15.9534812 C96.4017713,15.8966301 96.5665577,15.7968505 96.6998296,15.6537558 C96.8331016,15.5114345 96.9378966,15.3188367 97.0153538,15.0755757 C97.0920516,14.8334749 97.1304005,14.5264013 97.1304005,14.1551285 L97.1304005,3.96330275 L100.073394,3.96330275 L100.073394,14.1976702 C100.073394,14.9688348 99.9682198,15.639833 99.75825,16.2102783 C99.5482802,16.781497 99.2468047,17.2525494 98.854203,17.6238222 C98.4619809,17.995095 97.9960987,18.2696822 97.4565561,18.4479705 C96.9170135,18.6266455 96.3246938,18.7155963 95.6803562,18.7155963" id="Fill-20" fill="#000000" mask="url(#mask-6)"></path>
            <path d="M107.200837,18.6055046 C106.499115,18.6055046 105.862174,18.5280883 105.289625,18.3728706 C104.717076,18.2176529 104.201937,18.0062024 103.743432,17.7381341 C103.284928,17.470451 102.887712,17.1500015 102.551786,16.7760154 C102.214696,16.4024144 101.93967,16.0026229 101.724771,15.5777962 L104.172844,14.1704375 C104.502176,14.6969453 104.892409,15.1302454 105.343156,15.4707229 C105.79429,15.8119708 106.392053,15.9825948 107.136832,15.9825948 C107.766403,15.9825948 108.264086,15.8443239 108.629493,15.5662415 C108.994125,15.2889295 109.176829,14.9365121 109.176829,14.5086042 C109.176829,13.9963472 108.983651,13.6119619 108.596909,13.3550631 C108.210555,13.0989346 107.673306,12.8212374 106.985937,12.5223566 L106.234563,12.2019071 C105.689944,11.973895 105.196139,11.7250845 104.752763,11.4543201 C104.308611,11.1835557 103.929239,10.8704241 103.614648,10.5145403 C103.29928,10.1590417 103.056451,9.75270251 102.884221,9.2970634 C102.712767,8.84103914 102.626652,8.3075986 102.626652,7.694816 C102.626652,7.13942158 102.73061,6.61984664 102.93814,6.13570602 C103.14567,5.6515654 103.439314,5.23136061 103.818298,4.87547681 C104.19767,4.51959301 104.659666,4.2418958 105.20351,4.04238519 C105.747354,3.84325973 106.355978,3.74311927 107.029382,3.74311927 C107.988285,3.74311927 108.814912,3.92606819 109.509652,4.29158088 C110.203615,4.65709357 110.801378,5.27680897 111.302552,6.15111224 L108.961929,7.64551608 C108.704359,7.19026212 108.424679,6.86403531 108.12444,6.66452469 C107.823425,6.46539924 107.458406,6.36602908 107.029382,6.36602908 C106.584842,6.36602908 106.234563,6.48658279 105.976994,6.72769022 C105.719424,6.96918279 105.59064,7.27422605 105.59064,7.64281999 C105.59064,8.09768878 105.737268,8.44163276 106.030525,8.67580738 C106.323782,8.90959684 106.79276,9.16880658 107.437071,9.45228112 L108.188833,9.77157513 C108.833144,10.0415692 109.402202,10.3215774 109.896006,10.612755 C110.390198,10.9039327 110.804869,11.2301595 111.141959,11.5918206 C111.477498,11.9534818 111.735067,12.3655983 111.914668,12.8262444 C112.093492,13.2876609 112.183486,13.8307303 112.183486,14.4550676 C112.183486,15.1217719 112.057805,15.7145265 111.807218,16.2321756 C111.556631,16.7505951 111.209843,17.1862061 110.765691,17.5413196 C110.322314,17.8960479 109.795538,18.1625756 109.187302,18.3401324 C108.578678,18.5169188 107.916911,18.6055046 107.200837,18.6055046" id="Fill-21" fill="#000000" mask="url(#mask-6)"></path>
        </g>
    </g>
</svg>