<?xml version="1.0" encoding="utf-8"?>
<!-- Generator: Adobe Illustrator 19.0.0, SVG Export Plug-In . SVG Version: 6.00 Build 0)  -->
<svg version="1.1" id="Layer_4" xmlns="http://www.w3.org/2000/svg" xmlns:xlink="http://www.w3.org/1999/xlink" x="0px" y="0px"
	 viewBox="65 181 1942.2 200" style="enable-background:new 65 181 1942.2 200;" xml:space="preserve">
<style type="text/css">
	.st0{fill:#757575;}
</style>
<g>
	<g id="XMLID_6_">
		<path id="XMLID_3_" class="st0" d="M392.9,285.4c0,22-6.5,39.6-19.6,52.7c-14.8,15.6-34.1,23.4-57.9,23.4
			c-22.8,0-42.1-7.9-58.1-23.7c-15.9-15.8-23.9-35.4-23.9-58.7c0-23.3,8-42.9,23.9-58.7s35.3-23.7,58.1-23.7
			c11.3,0,22.1,2.2,32.4,6.6c10.3,4.4,18.5,10.3,24.7,17.6l-13.9,13.9c-10.5-12.6-24.9-18.8-43.3-18.8c-16.6,0-31,5.8-43.1,17.5
			S254,260.3,254,279s6.1,33.8,18.2,45.5s26.5,17.5,43.1,17.5c17.6,0,32.3-5.9,44.1-17.6c7.6-7.6,12-18.3,13.2-31.9h-57.3v-19h76.4
			C392.5,277.6,392.9,281.6,392.9,285.4L392.9,285.4z"/>
		<path id="XMLID_20_" class="st0" d="M413.3,357.9V200.1h48.2c24.2,0,43.6,7.3,58.2,21.9c14.5,14.6,21.8,33.6,21.8,57
			s-7.3,42.3-21.8,57c-14.5,14.6-33.9,21.9-58.2,21.9H413.3z M433.6,338.5h28c18.2,0,32.6-5.2,43.3-15.6c10.6-10.4,16-25,16-43.8
			c0-18.7-5.3-33.2-16-43.7s-25.1-15.8-43.3-15.8h-28V338.5z"/>
		<path id="XMLID_23_" class="st0" d="M714,285.4c0,22-6.5,39.6-19.6,52.7c-14.8,15.6-34.1,23.4-57.9,23.4
			c-22.8,0-42.1-7.9-58.1-23.7c-15.9-15.8-23.9-35.4-23.9-58.7c0-23.3,8-42.9,23.9-58.7s35.3-23.7,58.1-23.7
			c11.3,0,22.1,2.2,32.4,6.6c10.3,4.4,18.5,10.3,24.7,17.6l-13.9,13.9c-10.5-12.6-24.9-18.8-43.3-18.8c-16.6,0-31,5.8-43.1,17.5
			s-18.2,26.8-18.2,45.5s6.1,33.8,18.2,45.5s26.5,17.5,43.1,17.5c17.6,0,32.3-5.9,44.1-17.6c7.6-7.6,12-18.3,13.2-31.9h-57.3v-19
			h76.4C713.6,277.6,714,281.6,714,285.4L714,285.4z"/>
		<path class="st0" d="M866.5,357.9c-22.4,0-41.1-7.5-56.1-22.6C795.5,320.3,788,301.5,788,279c0-22.5,7.5-41.2,22.4-56.1
			c14.9-15.2,33.6-22.8,56.1-22.8c22.8,0,41.3,8.2,55.5,24.7l-13.9,13.5c-10.8-13.1-24.7-19.6-41.6-19.6c-16.7,0-30.7,5.6-42,16.9
			c-11.1,11.1-16.7,25.6-16.7,43.5s5.6,32.4,16.7,43.5c11.3,11.3,25.3,16.9,42,16.9c17.6,0,32.9-7.4,45.8-22.2l14.1,13.7
			c-7.2,8.6-16,15.2-26.4,19.9C889.7,355.6,878.5,357.9,866.5,357.9z"/>
		<path class="st0" d="M935.7,302.8c0-15.9,5-29.1,15-39.5c10.1-10.4,22.9-15.6,38.2-15.6s28,5.2,38,15.6
			c10.1,10.4,15.2,23.6,15.2,39.5c0,16-5.1,29.2-15.2,39.5c-10,10.4-22.7,15.6-38,15.6s-28.1-5.2-38.2-15.6
			C940.7,331.9,935.7,318.7,935.7,302.8z M955.2,302.8c0,11.1,3.2,20.1,9.7,27c6.5,6.9,14.5,10.3,24.1,10.3s17.6-3.4,24.1-10.3
			c6.5-6.9,9.7-15.9,9.7-27c0-11-3.2-19.9-9.7-26.8c-6.6-7-14.6-10.6-24.1-10.6c-9.4,0-17.4,3.5-24.1,10.6
			C958.4,282.9,955.2,291.9,955.2,302.8z"/>
		<path class="st0" d="M1107.1,357.9c-15.3,0-28.1-5.2-38.2-15.6c-10-10.7-15-23.8-15-39.5c0-15.9,5-29.1,15-39.5
			c10.1-10.4,22.9-15.6,38.2-15.6c10.6,0,19.8,2.6,27.6,7.9c7.9,5.3,13.8,12.6,17.7,21.8l-17.7,7.4c-5.5-12.9-15.1-19.4-28.9-19.4
			c-8.9,0-16.5,3.6-23,10.8c-6.3,7.2-9.5,16-9.5,26.6c0,10.6,3.2,19.4,9.5,26.6c6.5,7.2,14.1,10.8,23,10.8c14.2,0,24.2-6.5,30-19.4
			l17.3,7.4c-3.8,9.3-9.7,16.6-17.8,21.8C1127.2,355.3,1117.8,357.9,1107.1,357.9z"/>
		<path class="st0" d="M1170,203.4h19.4v47.7l-0.8,14.3h0.8c3-5.1,7.5-9.3,13.6-12.7c6.1-3.4,12.5-5.1,19.1-5.1
			c12.7,0,22.4,3.6,29.2,10.9c6.8,7.2,10.2,17.6,10.2,30.9v65h-19.4v-61.2c0-18.6-8.2-27.9-24.7-27.9c-7.9,0-14.5,3.3-19.9,9.8
			c-5.4,6.5-8.1,14.2-8.1,22.9v56.3H1170V203.4z"/>
		<path class="st0" d="M1322.6,247.8c14.3,0,25.7,3.8,34,11.5c8.3,7.7,12.5,18.2,12.5,31.5v63.7h-18.6v-14.4h-0.8
			c-8,11.8-18.7,17.7-32.1,17.7c-11.4,0-20.9-3.4-28.6-10.1c-7.7-6.8-11.5-15.2-11.5-25.3c0-10.7,4-19.2,12.1-25.5
			c8.1-6.3,18.9-9.5,32.4-9.5c11.5,0,21,2.1,28.5,6.3v-4.4c0-6.8-2.7-12.5-8-17.2c-5.3-4.7-11.6-7.1-18.8-7.1
			c-10.8,0-19.4,4.6-25.7,13.7l-17.1-10.8C1290.2,254.5,1304.1,247.8,1322.6,247.8z M1297.5,322.9c0,5.1,2.1,9.3,6.4,12.7
			c4.3,3.4,9.3,5.1,15.1,5.1c8.2,0,15.4-3,21.8-9.1c6.4-6.1,9.6-13.2,9.6-21.3c-6.1-4.8-14.5-7.2-25.3-7.2c-7.9,0-14.5,1.9-19.7,5.7
			C1300.1,312.6,1297.5,317.3,1297.5,322.9z"/>
		<path class="st0" d="M1445.6,357.9c-7.6,0-14.5-1.6-20.8-4.9c-6.3-3.2-11.1-7.5-14.5-12.9h-0.8v14.4H1391V203.4h19.4v47.7
			l-0.8,14.3h0.8c3.4-5.3,8.2-9.6,14.5-12.9c6.3-3.2,13.2-4.9,20.8-4.9c13.6,0,25.2,5.3,34.6,16c9.7,10.8,14.6,23.8,14.6,39
			c0,15.3-4.9,28.4-14.6,39C1470.8,352.6,1459.3,357.9,1445.6,357.9z M1442.4,340.2c9.3,0,17.1-3.5,23.4-10.6
			c6.3-6.9,9.5-15.8,9.5-26.8c0-10.8-3.2-19.8-9.5-26.8c-6.3-7-14.1-10.6-23.4-10.6c-9.4,0-17.3,3.5-23.6,10.6
			c-6.2,7-9.3,16-9.3,26.8c0,11,3.1,20,9.3,27C1425.1,336.8,1433,340.2,1442.4,340.2z"/>
		<path class="st0" d="M1551.8,247.8c14.3,0,25.7,3.8,34,11.5c8.3,7.7,12.5,18.2,12.5,31.5v63.7h-18.6v-14.4h-0.8
			c-8,11.8-18.7,17.7-32.1,17.7c-11.4,0-20.9-3.4-28.6-10.1c-7.7-6.8-11.5-15.2-11.5-25.3c0-10.7,4-19.2,12.1-25.5
			c8.1-6.3,18.9-9.5,32.4-9.5c11.5,0,21,2.1,28.5,6.3v-4.4c0-6.8-2.7-12.5-8-17.2c-5.3-4.7-11.6-7.1-18.8-7.1
			c-10.8,0-19.4,4.6-25.7,13.7L1510,268C1519.4,254.5,1533.3,247.8,1551.8,247.8z M1526.7,322.9c0,5.1,2.1,9.3,6.4,12.7
			c4.3,3.4,9.3,5.1,15.1,5.1c8.2,0,15.4-3,21.8-9.1c6.4-6.1,9.6-13.2,9.6-21.3c-6.1-4.8-14.5-7.2-25.3-7.2c-7.9,0-14.5,1.9-19.7,5.7
			C1529.3,312.6,1526.7,317.3,1526.7,322.9z"/>
		<path class="st0" d="M1639.6,354.6h-19.4V251.1h18.6v14.3h0.8c3-5.1,7.5-9.3,13.6-12.7c6.1-3.4,12.2-5.1,18.3-5.1
			c7.6,0,14.3,1.8,20.1,5.3c5.8,3.5,10,8.4,12.7,14.6c8.6-13.2,20.5-19.8,35.7-19.8c12,0,21.2,3.7,27.6,11
			c6.5,7.3,9.7,17.7,9.7,31.2v64.6h-19.4v-61.6c0-9.7-1.8-16.7-5.3-21c-3.5-4.3-9.4-6.4-17.7-6.4c-7.5,0-13.7,3.2-18.8,9.5
			c-5.1,6.3-7.6,13.8-7.6,22.4v57.2h-19.4v-61.6c0-9.7-1.8-16.7-5.3-21c-3.5-4.3-9.4-6.4-17.7-6.4c-7.5,0-13.7,3.2-18.8,9.5
			c-5.1,6.3-7.6,13.8-7.6,22.4V354.6z"/>
		<path class="st0" d="M1854.6,357.9c-7.6,0-14.5-1.6-20.8-4.9c-6.3-3.2-11.1-7.5-14.5-12.9h-0.8v14.4H1800V203.4h19.4v47.7
			l-0.8,14.3h0.8c3.4-5.3,8.2-9.6,14.5-12.9c6.3-3.2,13.2-4.9,20.8-4.9c13.6,0,25.2,5.3,34.6,16c9.7,10.8,14.6,23.8,14.6,39
			c0,15.3-4.9,28.4-14.6,39C1879.8,352.6,1868.3,357.9,1854.6,357.9z M1851.4,340.2c9.3,0,17.1-3.5,23.4-10.6
			c6.3-6.9,9.5-15.8,9.5-26.8c0-10.8-3.2-19.8-9.5-26.8c-6.3-7-14.1-10.6-23.4-10.6c-9.4,0-17.3,3.5-23.6,10.6
			c-6.2,7-9.3,16-9.3,26.8c0,11,3.1,20,9.3,27C1834.1,336.8,1842,340.2,1851.4,340.2z"/>
		<path class="st0" d="M1960.8,247.8c14.3,0,25.7,3.8,34,11.5c8.3,7.7,12.5,18.2,12.5,31.5v63.7h-18.6v-14.4h-0.8
			c-8,11.8-18.7,17.7-32.1,17.7c-11.4,0-20.9-3.4-28.6-10.1c-7.7-6.8-11.5-15.2-11.5-25.3c0-10.7,4-19.2,12.1-25.5
			c8.1-6.3,18.9-9.5,32.4-9.5c11.5,0,21,2.1,28.5,6.3v-4.4c0-6.8-2.7-12.5-8-17.2c-5.3-4.7-11.6-7.1-18.8-7.1
			c-10.8,0-19.4,4.6-25.7,13.7L1919,268C1928.4,254.5,1942.3,247.8,1960.8,247.8z M1935.7,322.9c0,5.1,2.1,9.3,6.4,12.7
			c4.3,3.4,9.3,5.1,15.1,5.1c8.2,0,15.4-3,21.8-9.1c6.4-6.1,9.6-13.2,9.6-21.3c-6.1-4.8-14.5-7.2-25.3-7.2c-7.9,0-14.5,1.9-19.7,5.7
			C1938.3,312.6,1935.7,317.3,1935.7,322.9z"/>
	</g>
	<g id="XMLID_261_">
		<path id="XMLID_259_" class="st0" d="M97.3,181H65l92.3,160l16.2-28L97.3,181z"/>
		<path id="XMLID_258_" class="st0" d="M185.9,272l-52.6-91h-32.2l74.3,128.8l10.5-18.2c1.7-2.8,2.8-6.2,2.8-9.8
			C188.6,278.2,187.6,274.9,185.9,272L185.9,272z"/>
		<path id="XMLID_257_" class="st0" d="M121.3,285.1L65.9,381h32.3l39.3-68L121.3,285.1z"/>
		<path id="XMLID_256_" class="st0" d="M139.3,316.3L102,381h32.2l21.3-36.8L139.3,316.3L139.3,316.3z"/>
	</g>
</g>
</svg>
