<?xml version="1.0" encoding="UTF-8"?>
<svg width="1653px" height="1633px" viewBox="0 0 1653 1633" version="1.1" xmlns="http://www.w3.org/2000/svg" xmlns:xlink="http://www.w3.org/1999/xlink">
    <!-- Generator: Sketch 47.1 (45422) - http://www.bohemiancoding.com/sketch -->
    <title>Color</title>
    <desc>Created with Sketch.</desc>
    <defs>
        <linearGradient x1="81.016238%" y1="11.9768859%" x2="45.9585226%" y2="83.1727428%" id="linearGradient-1">
            <stop stop-color="#FFC152" offset="0%"></stop>
            <stop stop-color="#EF5E68" offset="100%"></stop>
        </linearGradient>
    </defs>
    <g id="Page-1" stroke="none" stroke-width="1" fill="none" fill-rule="evenodd">
        <g id="Color">
            <g id="Logo" transform="translate(230.000000, -954.000000)">
                <ellipse id="Oval-2" cx="682.5" cy="1768.0884" rx="511.5" ry="502.0884"></ellipse>
                <path d="M990.097304,1760.54699 C987.856438,1764.94447 985.636478,1769.27919 983.437415,1773.55116 C981.036561,1778.35646 977.835469,1783.96256 973.834045,1790.36964 C969.832621,1796.77671 965.931291,1802.48292 962.129938,1807.48845 C958.328585,1812.49397 955.027459,1816.0979 952.226462,1818.30033 C949.425465,1820.50276 948.024988,1819.802 948.024988,1816.19802 C948.024988,1811.79316 949.225397,1804.78553 951.626252,1795.17492 L960.029201,1763.94059 C962.029913,1759.53573 963.130288,1756.63257 963.330359,1755.23102 C963.53043,1753.82948 963.830533,1752.52806 964.230675,1751.32673 L971.433203,1727.90099 C971.833345,1725.0979 972.43355,1722.49506 973.233835,1720.09241 C974.034119,1717.68976 974.834392,1715.08692 975.034466,1712.28383 C976.234894,1709.08029 977.035167,1705.8768 977.435309,1702.67327 C977.835451,1699.46973 978.03552,1696.46646 978.03552,1693.66337 C978.03552,1683.25187 975.034496,1673.94174 969.03236,1665.73267 C963.030224,1657.52361 953.226881,1653.41914 939.622039,1653.41914 C924.816769,1653.41914 911.012063,1657.82394 898.207505,1666.63366 C895.806651,1667.83499 893.005696,1670.03739 889.804557,1673.24092 C889.004272,1665.23208 887.203658,1658.52478 884.402661,1653.11881 C881.601664,1647.71284 877.000095,1644.00881 870.597816,1642.0066 C866.19625,1640.40483 861.194544,1639.60396 855.59255,1639.60396 C849.990557,1639.60396 839.081005,1642.7994 838.2648,1643.51198 C836.752238,1644.8325 836.385816,1654.92076 835.185389,1661.52805 C833.984962,1668.13535 832.184348,1675.94385 829.783493,1684.9538 C827.382639,1693.96374 824.681718,1703.87453 821.68065,1714.68647 C818.679582,1725.4984 815.778593,1736.31018 812.977596,1747.12211 C812.324364,1749.51909 811.674426,1751.89959 811.02778,1754.26361 C807.697641,1760.829 804.412873,1767.25816 801.173453,1773.55116 C798.772599,1778.35646 795.571507,1783.96256 791.570083,1790.36964 C787.568659,1796.77671 783.667329,1802.48292 779.865976,1807.48845 C776.064623,1812.49397 772.763497,1816.0979 769.9625,1818.30033 C767.161503,1820.50276 765.761026,1819.802 765.761026,1816.19802 C765.761026,1811.79316 766.961435,1804.78553 769.36229,1795.17492 L777.765238,1763.94059 C779.765951,1759.53573 780.866326,1756.63257 781.066397,1755.23102 C781.266468,1753.82948 781.56657,1752.52806 781.966713,1751.32673 L789.16924,1727.90099 C789.569383,1725.0979 790.169587,1722.49506 790.969872,1720.09241 C791.770157,1717.68976 792.57043,1715.08692 792.770504,1712.28383 C793.970932,1709.08029 794.771204,1705.8768 795.171347,1702.67327 C795.571489,1699.46973 795.771557,1696.46646 795.771557,1693.66337 C795.771557,1683.25187 792.770534,1673.94174 786.768398,1665.73267 C780.766262,1657.52361 770.962919,1653.41914 757.358077,1653.41914 C742.552807,1653.41914 728.748101,1657.82394 715.943543,1666.63366 C713.542689,1667.83499 710.741734,1670.03739 707.540594,1673.24092 C706.74031,1665.23208 704.939696,1658.52478 702.138699,1653.11881 C699.337702,1647.71284 694.736133,1644.00881 688.333854,1642.0066 C683.932287,1640.40483 678.930582,1639.60396 673.328588,1639.60396 C667.726594,1639.60396 655.951944,1643.33005 655.101326,1644.47872 C654.247943,1645.63112 654.121854,1654.92076 652.921427,1661.52805 C651.720999,1668.13535 649.920386,1675.94385 647.519531,1684.9538 C645.118677,1693.96374 642.417756,1703.87453 639.416688,1714.68647 C636.415619,1725.4984 633.51463,1736.31018 630.713633,1747.12211 C629.082541,1753.10726 627.471981,1758.98969 625.881942,1764.76943 C624.191787,1768.08262 622.467848,1771.4103 620.710123,1774.75248 C616.308556,1781.15955 612.00709,1787.36631 607.805594,1793.37294 C603.604099,1799.37957 599.702769,1804.48513 596.101487,1808.68977 C592.500205,1812.89441 589.599216,1815.69746 587.398433,1817.09901 C585.197649,1818.50056 584.097274,1817.79979 584.097274,1814.9967 C584.097274,1811.39272 585.297683,1804.78553 587.698538,1795.17492 C588.09868,1793.97359 588.898953,1790.87021 590.099381,1785.86469 C591.299808,1780.85916 592.900353,1774.85262 594.901066,1767.84488 C596.901778,1760.83715 598.90246,1753.32897 600.903172,1745.32013 C602.903884,1737.31129 604.904566,1729.70301 606.905278,1722.49505 C608.90599,1715.28709 610.60657,1708.88012 612.007069,1703.27393 C613.407567,1697.66774 614.507942,1694.06381 615.308227,1692.46205 C616.108512,1689.25851 616.708717,1686.35535 617.108859,1683.75248 C617.509001,1681.1496 617.70907,1678.24644 617.70907,1675.0429 C617.70907,1667.43451 616.108524,1660.92742 612.907385,1655.52145 C609.706245,1650.11548 604.104335,1645.8108 596.101487,1642.60726 C594.100775,1641.80638 591.79999,1641.20572 589.199065,1640.80528 C586.598139,1640.40484 584.097286,1640.20462 581.696432,1640.20462 C576.094438,1640.20462 564.754756,1644.10343 563.898701,1645.06589 C562.728247,1646.38182 562.52673,1654.85783 561.889481,1658.52475 C561.089196,1663.12984 559.988821,1668.63583 558.588322,1675.0429 C557.187824,1681.44998 555.587278,1688.65783 553.786637,1696.66667 C551.985996,1704.67551 550.085348,1712.48401 548.084636,1720.09241 C544.883497,1728.10125 540.782099,1736.91084 535.780318,1746.52145 C530.778538,1756.13206 525.876867,1765.54231 521.075158,1774.75248 C517.473876,1780.75911 513.472512,1786.76565 509.070945,1792.77228 C504.669378,1798.77891 500.668014,1803.98458 497.066732,1808.38944 C493.465451,1812.7943 490.364393,1815.79757 487.763468,1817.39934 C485.162542,1819.00111 483.862098,1818.20024 483.862098,1814.9967 C483.862098,1809.79095 485.262576,1803.18376 488.063573,1795.17492 L511.471788,1717.68977 C515.873354,1703.6743 518.874377,1693.16285 520.474947,1686.15512 C522.075517,1679.14738 522.87579,1673.44117 522.87579,1669.0363 C522.87579,1663.02967 521.575346,1658.02422 518.974421,1654.0198 C516.373495,1650.01538 513.172403,1646.61168 509.37105,1643.80858 C505.569697,1641.00549 501.468299,1639.00331 497.066732,1637.80198 C492.665166,1636.60065 488.663802,1636 485.06252,1636 C480.260811,1636 471.76334,1638.80012 471.161416,1639.42891 C470.894531,1639.7077 470.610324,1641.1432 470.27003,1643.33509 C469.355123,1649.22815 468.034791,1660.58871 465.555674,1669.63696 C462.154464,1682.05067 458.253133,1695.46527 453.851567,1709.88119 C451.450712,1717.89003 449.149928,1725.89875 446.949145,1733.90759 C444.748361,1741.91643 442.647645,1749.72493 440.646933,1757.33333 C438.646221,1764.94173 437.045675,1771.94936 435.845248,1778.35644 C434.644821,1784.76351 434.044616,1790.16939 434.044616,1794.57426 C434.044616,1806.18708 432.929638,1813.97343 441.847354,1828.51155 C450.76507,1843.04968 456.852548,1848.43341 471.257675,1855.24092 C477.659954,1858.04402 483.022426,1860.68792 489.864205,1856.14191 C496.705984,1851.59591 515.773274,1829.41258 520.374912,1822.60506 C524.97655,1815.79755 529.077948,1808.99013 532.67923,1802.18262 C533.879657,1811.39279 538.181134,1825.30799 543.583056,1833.91749 C548.984979,1842.527 558.088083,1849.63474 570.89264,1855.24092 C578.095204,1858.44446 584.050942,1859.24412 592.200118,1854.33993 C600.024164,1849.63141 608.408249,1836.98452 614.553878,1829.42648 C614.944524,1830.88292 615.429389,1832.27981 616.008473,1833.61716 C618.609399,1839.62379 622.31066,1844.62924 627.11237,1848.63366 C631.914079,1852.63808 637.415954,1855.34103 643.618162,1856.74257 C649.82037,1858.14412 661.924586,1857.0429 661.924586,1857.0429 C661.924586,1857.0429 663.725212,1846.33117 664.925639,1838.12211 C666.126067,1829.91305 667.826646,1820.90324 670.02743,1811.09241 C672.228213,1801.28158 674.8291,1791.17057 677.830168,1780.75908 C680.831236,1770.34758 683.732225,1760.5369 686.533222,1751.32673 C688.533934,1746.52143 692.435264,1739.01325 698.23733,1728.80198 C704.039395,1718.59071 712.94243,1708.27948 724.946703,1697.86799 C728.547985,1694.26401 731.749076,1692.46205 734.550073,1692.46205 C736.550785,1692.46205 737.551126,1695.86575 737.551126,1702.67327 C737.551126,1707.07813 735.350376,1715.88772 730.948809,1729.10231 C730.948809,1729.90319 730.848775,1730.30363 730.648704,1730.30363 C730.448633,1730.30363 730.14853,1730.70407 730.348598,1731.50495 C727.547601,1739.11335 724.946715,1746.82174 722.54586,1754.63036 C720.145006,1762.43898 718.144324,1769.94716 716.543754,1777.15512 C716.143611,1779.55777 715.843509,1782.26071 715.643438,1785.26403 C715.443367,1788.26734 715.343333,1791.37072 715.343333,1794.57426 C715.343333,1806.18708 717.844185,1817.49939 722.845966,1828.51155 C727.847746,1839.52371 737.751122,1848.43341 752.556392,1855.24092 C759.758955,1858.44446 766.861377,1858.24424 773.863869,1854.64026 C780.866362,1851.03629 787.368579,1845.6304 793.370715,1838.42244 C794.916173,1836.5665 796.428465,1834.67075 797.907593,1832.73518 C798.024741,1833.03199 798.146355,1833.32599 798.272435,1833.61716 C800.873361,1839.62379 804.574623,1844.62924 809.376332,1848.63366 C814.178041,1852.63808 819.679917,1855.34103 825.882124,1856.74257 C832.084332,1858.14412 838.186412,1858.24423 844.188548,1857.0429 C845.388966,1849.90175 846.389317,1843.59482 847.189602,1838.12211 C848.390029,1829.91305 850.090609,1820.90324 852.291392,1811.09241 C854.492175,1801.28158 857.093062,1791.17057 860.09413,1780.75908 C863.095198,1770.34758 865.996187,1760.5369 868.797184,1751.32673 C870.797897,1746.52143 874.699227,1739.01325 880.501292,1728.80198 C886.303357,1718.59071 895.206392,1708.27948 907.210665,1697.86799 C910.811947,1694.26401 914.013038,1692.46205 916.814035,1692.46205 C918.814747,1692.46205 919.815088,1695.86575 919.815088,1702.67327 C919.815088,1707.07813 917.614338,1715.88772 913.212771,1729.10231 C913.212771,1729.90319 913.112737,1730.30363 912.912666,1730.30363 C912.712595,1730.30363 912.412492,1730.70407 912.612561,1731.50495 C909.811564,1739.11335 907.210677,1746.82174 904.809822,1754.63036 C902.408968,1762.43898 900.408286,1769.94716 898.807716,1777.15512 C898.407574,1779.55777 898.107471,1782.26071 897.9074,1785.26403 C897.707329,1788.26734 897.607295,1791.37072 897.607295,1794.57426 C897.607295,1806.18708 900.108147,1817.49939 905.109928,1828.51155 C910.111708,1839.52371 920.015084,1848.43341 934.820354,1855.24092 C942.022918,1858.44446 949.125339,1858.24424 956.127832,1854.64026 C963.130324,1851.03629 969.632541,1845.6304 975.634677,1838.42244 C980.479707,1832.60405 984.998767,1826.39435 989.191944,1819.7932 C989.992408,1822.04888 990.90856,1824.25422 991.940399,1826.40924 C996.542037,1836.01985 1006.04528,1844.22879 1020.4504,1851.0363 C1025.25211,1853.03851 1030.05375,1853.73928 1034.85546,1853.13861 C1039.65717,1852.53795 1044.25874,1850.8361 1048.6603,1848.033 C1053.06187,1845.22991 1057.36334,1841.72609 1061.56483,1837.52145 C1065.76633,1833.31681 1069.66766,1828.81191 1073.26894,1824.0066 L1073.26894,1825.20792 C1072.46866,1829.61278 1071.66838,1833.61714 1070.8681,1837.22112 C1070.06781,1840.8251 1069.06747,1844.02859 1067.86704,1846.83168 L1053.46199,1854.94059 C1047.45985,1857.94391 1042.05801,1860.84707 1037.2563,1863.65017 C1020.05018,1872.45989 1005.64527,1880.46861 994.041136,1887.67657 C982.437006,1894.88452 973.0338,1903.69412 965.831237,1914.10561 C959.428958,1923.71622 956.227867,1935.12865 956.227867,1948.34323 C956.227867,1958.35429 958.328583,1967.86464 962.530078,1976.87459 C966.731574,1985.88453 973.433859,1992.1914 982.637134,1995.79538 C989.439556,1998.59847 996.642011,2000 1004.24472,2000 C1012.24757,2000 1020.15026,1998.39826 1027.95304,1995.19472 C1035.75581,1991.99118 1043.15834,1987.88671 1050.16083,1982.88119 C1057.16332,1977.87566 1063.46547,1972.26956 1069.06747,1966.06271 C1074.66946,1959.85585 1079.4711,1953.54899 1083.47252,1947.14191 C1091.47537,1933.12644 1099.57813,1916.10791 1107.78105,1896.08581 C1113.24966,1882.73774 1120.7523,1862.11508 1130.28895,1834.21782 C1152.29678,1818.20014 1172.20357,1799.78008 1190.00991,1778.9571 C1191.34841,1777.39183 1192.666,1775.81186 1193.96268,1774.21718 C1190.61801,2048.68884 962.909494,2270.1768 682.5,2270.1768 C476.155469,2270.1768 298.348655,2150.24051 217.482861,1977.51261 L217.482861,2125.02351 L274.175831,2147.08528 C286.552751,2152.708 292.367857,2167.16283 287.2178,2179.90967 C282.067743,2192.65651 267.84354,2199.01493 255,2194.54712 L266.874925,2165.15565 L217.482861,2146.19581 L217.482861,2250.74325 C219.455573,2250.2576 221.518009,2250 223.640612,2250 C237.388521,2250 248.612425,2260.80655 249.281225,2274.38854 L217.482861,2274.38854 L198,2274.39412 L198,2138.71705 L99.5429775,2100.92294 L81.5835978,2094.14618 L157.540061,1957.1171 C134.402846,1947.50005 110.299502,1934.08471 86.5,1921.5 C57.0602351,1905.93283 28.2269018,1915.2264 1.13686838e-13,1949.38069 C19.9685596,1800.94819 78.1179745,1720.97965 174.448245,1709.47507 C204.022266,1459.79566 420.205203,1266 682.5,1266 C951.843334,1266 1172.56322,1470.35118 1192.52895,1729.72205 C1189.15307,1735.04502 1185.61244,1740.14427 1181.90706,1745.0198 C1171.10322,1759.23549 1159.29919,1772.14956 1146.49464,1783.76238 C1149.29563,1774.95265 1151.69645,1767.14415 1153.69716,1760.33663 C1155.69788,1753.52912 1157.49849,1746.92192 1159.09906,1740.51485 C1160.69963,1734.10778 1162.30018,1727.60069 1163.90075,1720.9934 C1165.50132,1714.38611 1167.30193,1707.07815 1169.30264,1699.06931 C1171.30335,1691.86135 1172.30369,1684.45328 1172.30369,1676.84488 C1172.30369,1669.63693 1170.90322,1663.02973 1168.10222,1657.0231 C1165.30122,1651.01647 1160.49959,1646.61168 1153.69716,1643.80858 C1151.29631,1643.0077 1148.69542,1642.40704 1145.89443,1642.0066 C1143.09343,1641.60616 1140.49254,1641.40594 1138.09169,1641.40594 C1132.48969,1641.40594 1121.11888,1645.35092 1120.3359,1646.34867 C1119.31601,1647.64831 1118.48482,1657.72383 1116.48411,1666.33333 C1114.48339,1674.94284 1111.88251,1684.65341 1109.28158,1695.46535 C1104.88001,1706.67772 1099.37814,1719.39157 1092.77579,1733.60726 C1086.17344,1747.82295 1079.27108,1761.53789 1072.06852,1774.75248 C1068.46724,1781.15955 1064.56591,1787.36631 1060.36441,1793.37294 C1056.16292,1799.37957 1052.16155,1804.48513 1048.3602,1808.68977 C1044.55885,1812.89441 1041.45779,1815.79757 1039.05693,1817.39934 C1036.65608,1819.00111 1035.45567,1818.20024 1035.45567,1814.9967 C1035.45567,1810.1914 1036.65608,1803.5842 1039.05693,1795.17492 C1047.05978,1768.74574 1053.2619,1747.92307 1057.66346,1732.70627 C1062.06503,1717.48947 1065.36616,1705.87683 1067.56694,1697.86799 C1069.76772,1689.85915 1071.06817,1684.55337 1071.46831,1681.9505 C1071.86845,1679.34762 1072.06852,1677.04511 1072.06852,1675.0429 C1072.06852,1667.83495 1070.76808,1661.22775 1068.16715,1655.22112 C1065.56622,1649.21449 1060.46448,1644.80969 1052.86178,1642.0066 C1050.86107,1641.20572 1048.56028,1640.60506 1045.95936,1640.20462 C1043.35843,1639.80418 1040.85758,1639.60396 1038.45672,1639.60396 C1032.85473,1639.60396 1021.32808,1643.1678 1020.46828,1644.17822 C1019.43796,1645.38904 1018.64978,1653.319 1017.44935,1659.12541 C1016.24892,1664.93182 1014.54834,1671.93945 1012.34756,1680.14851 C1010.14678,1688.35758 1007.84599,1697.06706 1005.44514,1706.27723 C1003.04428,1715.48739 1000.64347,1724.09677 998.842822,1732.10561 L996.441979,1739.31353 C994.047132,1746.50345 991.932252,1753.58123 990.097304,1760.54699 Z M217.482861,1977.51261 L217.482861,1970.49583 C258.365523,1969.49212 362.160147,1958.61466 413.143516,1859.56125 C465.643516,1757.56125 377.436826,1672.50751 346.864762,1645.82093 C317.06937,1619.81232 280.820988,1558.95039 338.744476,1515.73096 C347.56623,1533.50197 366.140785,1545.74629 387.627513,1545.74629 C393.422425,1545.74629 399.005516,1544.85568 404.242595,1543.20624 C430.075826,1547.7226 447.183438,1567.47227 455.565432,1602.45525 C460.094627,1606.90302 464.623821,1596.89555 469.153016,1572.43286 C472.630255,1553.6519 462.759434,1532.24932 439.540553,1508.22514 C441.124597,1503.21701 441.977849,1497.89293 441.977849,1492.37314 C441.977849,1462.89597 417.644375,1439 387.627513,1439 C369.069168,1439 352.683299,1448.13424 342.877514,1462.07437 C300.439095,1476.38105 273.460711,1504.27169 261.942363,1545.74629 C248.35478,1594.67167 268.736155,1641.37317 323.08649,1685.85079 C377.574619,1732.409 395.760295,1773.47916 377.643516,1809.06125 C350.468349,1862.4344 374.420546,1711.04861 203.643516,1708.06125 C193.550479,1707.8847 183.818722,1708.35597 174.448245,1709.47507 C172.170802,1728.70244 171,1748.26121 171,1768.0884 C171,1842.83638 187.640253,1913.76932 217.482861,1977.51261 Z M198,1969.34628 C190.820723,1968.22302 183.448715,1966.36643 175.931172,1963.94856 L109.530284,2083.01434 L198,2117.44186 L198,1969.34628 Z M1011.44724,1953.14851 C1004.64482,1953.14851 1001.24366,1950.94612 1001.24366,1946.54125 C1001.24366,1942.13639 1003.64448,1935.92963 1008.44619,1927.92079 C1014.04819,1919.91195 1022.15095,1912.00334 1032.75472,1904.19472 C1043.3585,1896.3861 1055.06249,1888.87792 1067.86704,1881.66997 C1059.06391,1902.49295 1050.06084,1920.31236 1040.85757,1935.12871 C1035.05555,1942.4701 1030.3539,1947.07516 1026.75262,1948.94389 C1021.35069,1951.74699 1016.24895,1953.14851 1011.44724,1953.14851 Z M534.18,1895.96 L534.18,1905.2 C534.18,1906.66667 533.446674,1907.4 531.98,1907.4 L496.12,1907.4 C495.53333,1907.4 495.24,1907.69333 495.24,1908.28 L495.24,2045.56 C495.24,2047.02667 494.506674,2047.76 493.04,2047.76 L481.82,2047.76 C480.353326,2047.76 479.62,2047.02667 479.62,2045.56 L479.62,1908.28 C479.62,1907.69333 479.32667,1907.4 478.74,1907.4 L444.2,1907.4 C442.733326,1907.4 442,1906.66667 442,1905.2 L442,1895.96 C442,1894.49333 442.733326,1893.76 444.2,1893.76 L531.98,1893.76 C533.446674,1893.76 534.18,1894.49333 534.18,1895.96 Z M653.52,1907.4 L587.52,1907.4 C586.93333,1907.4 586.64,1907.69333 586.64,1908.28 L586.64,1962.84 C586.64,1963.42667 586.93333,1963.72 587.52,1963.72 L631.96,1963.72 C633.426674,1963.72 634.16,1964.45333 634.16,1965.92 L634.16,1975.16 C634.16,1976.62667 633.426674,1977.36 631.96,1977.36 L587.52,1977.36 C586.93333,1977.36 586.64,1977.65333 586.64,1978.24 L586.64,2033.24 C586.64,2033.82667 586.93333,2034.12 587.52,2034.12 L653.52,2034.12 C654.986674,2034.12 655.72,2034.85333 655.72,2036.32 L655.72,2045.56 C655.72,2047.02667 654.986674,2047.76 653.52,2047.76 L573.22,2047.76 C571.753326,2047.76 571.02,2047.02667 571.02,2045.56 L571.02,1895.96 C571.02,1894.49333 571.753326,1893.76 573.22,1893.76 L653.52,1893.76 C654.986674,1893.76 655.72,1894.49333 655.72,1895.96 L655.72,1905.2 C655.72,1906.66667 654.986674,1907.4 653.52,1907.4 Z M702.79,2037.64 C694.649959,2029.71996 690.58,2019.2334 690.58,2006.18 L690.58,1935.12 C690.58,1922.0666 694.649959,1911.61671 702.79,1903.77 C710.930041,1895.92329 721.673267,1892 735.02,1892 C748.513401,1892 759.329959,1895.88663 767.47,1903.66 C775.610041,1911.43337 779.68,1921.77327 779.68,1934.68 L779.68,1936.66 C779.68,1938.12667 778.946674,1938.86 777.48,1938.86 L766.26,1939.3 C764.793326,1939.3 764.06,1938.64001 764.06,1937.32 L764.06,1934.24 C764.06,1925.73329 761.38336,1918.84003 756.03,1913.56 C750.67664,1908.27997 743.673377,1905.64 735.02,1905.64 C726.366623,1905.64 719.400026,1908.24331 714.12,1913.45 C708.839974,1918.65669 706.2,1925.58662 706.2,1934.24 L706.2,2007.28 C706.2,2015.93338 708.839974,2022.86331 714.12,2028.07 C719.400026,2033.27669 726.366623,2035.88 735.02,2035.88 C743.673377,2035.88 750.67664,2033.24003 756.03,2027.96 C761.38336,2022.67997 764.06,2015.78671 764.06,2007.28 L764.06,2004.2 C764.06,2002.87999 764.793326,2002.22 766.26,2002.22 L777.48,2002.88 C778.946674,2002.88 779.68,2003.46666 779.68,2004.64 L779.68,2006.62 C779.68,2019.52673 775.610041,2029.90329 767.47,2037.75 C759.329959,2045.59671 748.513401,2049.52 735.02,2049.52 C721.673267,2049.52 710.930041,2045.56004 702.79,2037.64 Z M894.62,1893.76 L905.84,1893.76 C907.306674,1893.76 908.04,1894.49333 908.04,1895.96 L908.04,2045.56 C908.04,2047.02667 907.306674,2047.76 905.84,2047.76 L894.62,2047.76 C893.153326,2047.76 892.42,2047.02667 892.42,2045.56 L892.42,1978.24 C892.42,1977.65333 892.12667,1977.36 891.54,1977.36 L836.98,1977.36 C836.39333,1977.36 836.1,1977.65333 836.1,1978.24 L836.1,2045.56 C836.1,2047.02667 835.366674,2047.76 833.9,2047.76 L822.68,2047.76 C821.213326,2047.76 820.48,2047.02667 820.48,2045.56 L820.48,1895.96 C820.48,1894.49333 821.213326,1893.76 822.68,1893.76 L833.9,1893.76 C835.366674,1893.76 836.1,1894.49333 836.1,1895.96 L836.1,1962.84 C836.1,1963.42667 836.39333,1963.72 836.98,1963.72 L891.54,1963.72 C892.12667,1963.72 892.42,1963.42667 892.42,1962.84 L892.42,1895.96 C892.42,1894.49333 893.153326,1893.76 894.62,1893.76 Z" id="Combined-Shape" fill="url(#linearGradient-1)"></path>
            </g>
        </g>
    </g>
</svg>