<?xml version="1.0" encoding="UTF-8"?>
<svg width="54px" height="51px" viewBox="0 0 54 51" version="1.1" xmlns="http://www.w3.org/2000/svg" xmlns:xlink="http://www.w3.org/1999/xlink">
    <!-- Generator: Sketch 48.2 (47327) - http://www.bohemiancoding.com/sketch -->
    <title>bubble2</title>
    <desc>Created with Sketch.</desc>
    <defs></defs>
    <g id="Artboard-2" stroke="none" stroke-width="1" fill="none" fill-rule="evenodd" transform="translate(-1442.000000, -2434.000000)">
        <g id="noun_10342_cc" transform="translate(1442.000000, 2353.000000)" fill="#FFC152" fill-rule="nonzero">
            <path d="M32.2432946,121.791997 C44.8008494,119.920263 54,111.539976 54,101.608082 C54,90.2456257 41.8890255,81 27.0010058,81 C12.1119803,81 0,90.2446253 0,101.608082 C0,110.435543 7.2016093,118.161573 18.0140814,121.053707 C18.3077783,121.131738 18.5692892,121.299804 18.7603934,121.533896 C20.6251676,123.817791 24.0821413,127.636289 29.0961109,131.519812 C29.495418,131.830934 29.9973178,132 30.5032409,132 C30.9417747,132 31.3662271,131.876952 31.7323424,131.645861 C32.5490612,131.127658 32.9564148,130.152275 32.7391596,129.208905 C32.4243406,127.847372 31.9083594,125.44543 31.5120697,122.770381 C31.4436746,122.300196 31.7705633,121.863025 32.2432946,121.791997 Z M29.5809119,118.348647 C28.9713903,118.397666 28.397072,118.695783 28.0048055,119.161965 C27.6075101,119.648156 27.4254582,120.262397 27.4898301,120.862632 C27.6839517,122.653335 27.9625615,124.418027 28.2451945,125.968635 C24.7510058,122.883425 22.3853375,120.107336 21.1532186,118.53572 C20.8122485,118.097548 20.3173894,117.779423 19.7651989,117.648372 C10.1848458,115.359474 3.74765311,108.913947 3.74765311,101.606081 C3.74765311,92.2984308 14.1789227,84.7264614 27,84.7264614 C39.8200715,84.7264614 50.2503353,92.2984308 50.2503353,101.606081 C50.2513411,110.195449 41.3649978,117.390271 29.5809119,118.348647 Z" id="bubble2"></path>
        </g>
    </g>
</svg>