<svg width="25" height="27" viewBox="0 0 25 27" fill="none" xmlns="http://www.w3.org/2000/svg">
<mask id="mask0_19_297" style="mask-type:alpha" maskUnits="userSpaceOnUse" x="0" y="0" width="25" height="27">
<rect width="24.6359" height="27" fill="#D9D9D9"/>
</mask>
<g mask="url(#mask0_19_297)">
<path d="M6.73814 22.3596C5.20132 22.3596 3.88826 21.8398 2.79897 20.8C1.70968 19.7603 1.16504 18.4895 1.16504 16.9877C1.16504 15.7004 1.56191 14.5534 2.35566 13.5467C3.1494 12.54 4.18802 11.8963 5.47153 11.6157C5.89373 10.0974 6.73814 8.86789 8.00475 7.92718C9.27137 6.98647 10.7069 6.51611 12.3112 6.51611C14.2872 6.51611 15.9633 7.18864 17.3397 8.53369C18.7161 9.87874 19.4043 11.5167 19.4043 13.4477C20.5696 13.5797 21.5364 14.0707 22.3048 14.9206C23.0732 15.7705 23.4574 16.7649 23.4574 17.9036C23.4574 19.1414 23.0141 20.1935 22.1275 21.06C21.2409 21.9264 20.1642 22.3596 18.8976 22.3596H6.73814ZM6.73814 20.3792H18.8976C19.6069 20.3792 20.2065 20.1399 20.6962 19.6613C21.186 19.1827 21.4309 18.5968 21.4309 17.9036C21.4309 17.2105 21.186 16.6246 20.6962 16.146C20.2065 15.6674 19.6069 15.4281 18.8976 15.4281H17.3777V13.4477C17.3777 12.0778 16.8837 10.9102 15.8958 9.94475C14.9078 8.97929 13.713 8.49655 12.3112 8.49655C10.9095 8.49655 9.71468 8.97929 8.72673 9.94475C7.73877 10.9102 7.24479 12.0778 7.24479 13.4477H6.73814C5.75863 13.4477 4.92266 13.786 4.23025 14.4626C3.53783 15.1393 3.19162 15.9562 3.19162 16.9134C3.19162 17.8706 3.53783 18.6876 4.23025 19.3642C4.92266 20.0409 5.75863 20.3792 6.73814 20.3792Z" fill="#FAF9F6"/>
</g>
</svg>
