<svg width="28" height="27" viewBox="0 0 28 27" fill="none" xmlns="http://www.w3.org/2000/svg">
<mask id="mask0_225_7" style="mask-type:alpha" maskUnits="userSpaceOnUse" x="0" y="0" width="28" height="27">
<rect width="27.6359" height="27" fill="#D9D9D9"/>
</mask>
<g mask="url(#mask0_225_7)">
<path d="M7.55864 22.3596C5.83467 22.3596 4.36172 21.8398 3.13979 20.8C1.91785 19.7603 1.30688 18.4895 1.30688 16.9877C1.30688 15.7004 1.75209 14.5534 2.64249 13.5467C3.53289 12.54 4.69799 11.8963 6.13779 11.6157C6.61141 10.0974 7.55864 8.86789 8.9795 7.92718C10.4004 6.98647 12.0107 6.51611 13.8104 6.51611C16.0269 6.51611 17.9072 7.18864 19.4512 8.53369C20.9952 9.87874 21.7672 11.5167 21.7672 13.4477C23.0744 13.5797 24.159 14.0707 25.0209 14.9206C25.8829 15.7705 26.3139 16.7649 26.3139 17.9036C26.3139 19.1414 25.8166 20.1935 24.822 21.06C23.8274 21.9264 22.6197 22.3596 21.1988 22.3596H7.55864ZM7.55864 20.3792H21.1988C21.9945 20.3792 22.6671 20.1399 23.2165 19.6613C23.7659 19.1827 24.0406 18.5968 24.0406 17.9036C24.0406 17.2105 23.7659 16.6246 23.2165 16.146C22.6671 15.6674 21.9945 15.4281 21.1988 15.4281H19.4938V13.4477C19.4938 12.0778 18.9397 10.9102 17.8314 9.94475C16.7232 8.97929 15.3828 8.49655 13.8104 8.49655C12.238 8.49655 10.8977 8.97929 9.78939 9.94475C8.68112 10.9102 8.12699 12.0778 8.12699 13.4477H7.55864C6.45985 13.4477 5.52209 13.786 4.74535 14.4626C3.96862 15.1393 3.58025 15.9562 3.58025 16.9134C3.58025 17.8706 3.96862 18.6876 4.74535 19.3642C5.52209 20.0409 6.45985 20.3792 7.55864 20.3792Z" fill="#FAF9F6"/>
</g>
</svg>
