<?xml version="1.0" encoding="UTF-8"?>
<svg width="90px" height="62px" viewBox="0 0 90 62" version="1.1" xmlns="http://www.w3.org/2000/svg" xmlns:xlink="http://www.w3.org/1999/xlink">
    <!-- Generator: Sketch 48.2 (47327) - http://www.bohemiancoding.com/sketch -->
    <title>SlideShare</title>
    <desc>Created with Sketch.</desc>
    <defs></defs>
    <g id="Page-1" stroke="none" stroke-width="1" fill="none" fill-rule="evenodd">
        <g id="icons_solidarite" fill="#EF5E68" fill-rule="nonzero">
            <path d="M88.6,21.8 C85.2,28.4 78,30.4 71,34.1 C71,39.3 71,46.3 71,48.3 C71,50.3 68.4,62 58.6,62 C48.7,62 45.5,56.4 45.5,54 C45.5,52.9 45.5,46.8 45.5,40.8 C44.5,40.6 43.6,40.2 42.7,39.8 C42.7,45.2 42.7,51.7 42.7,54 C42.7,56.3 39,59.7 34.2,59.7 C29.4,59.7 20,52.8 20,48.3 C20,43.8 20,32.9 20,32.9 C20,32.9 7,27.8 4,24.1 C1,20.4 -0.5,18.9 0.3,16.7 C1.1,14.6 10.8,22.7 16.5,24.1 C22.2,25.4 32,26.1 36.2,25.9 C40.4,25.7 42.7,27.4 45.1,29.6 C45.2,29.7 45.4,29.8 45.5,30 C45.5,29 45.5,28.4 45.5,28.4 C45.5,26.4 50.8,25.6 54,25.6 C57.2,25.6 66.5,25.6 68.2,25.6 C69.9,25.6 82.8,21.4 85.8,18 C88.8,14.6 91.9,15.6 88.6,21.8 Z M58.7,20.9 C64.2,20.9 68.6,16.4 68.6,10.9 C68.6,5.4 64.2,0.9 58.7,0.9 C53.2,0.9 48.8,5.4 48.8,10.9 C48.8,16.5 53.2,20.9 58.7,20.9 Z M32.5,20.9 C38,20.9 42.4,16.4 42.4,10.9 C42.4,5.4 37.9,0.9 32.5,0.9 C27.1,0.9 22.6,5.4 22.6,10.9 C22.6,16.5 27,20.9 32.5,20.9 Z" id="SlideShare"></path>
        </g>
    </g>
</svg>