<?xml version="1.0" encoding="UTF-8"?>
<svg width="54px" height="51px" viewBox="0 0 54 51" version="1.1" xmlns="http://www.w3.org/2000/svg" xmlns:xlink="http://www.w3.org/1999/xlink">
    <!-- Generator: Sketch 48.2 (47327) - http://www.bohemiancoding.com/sketch -->
    <title>Shape</title>
    <desc>Created with Sketch.</desc>
    <defs></defs>
    <g id="Artboard-2" stroke="none" stroke-width="1" fill="none" fill-rule="evenodd" transform="translate(-1442.000000, -2353.000000)">
        <g id="noun_10342_cc" transform="translate(1442.000000, 2353.000000)" fill="#EF5E68" fill-rule="nonzero">
            <path d="M32.2432946,40.7919969 C44.8008494,38.9202628 54,30.5399765 54,20.6080816 C54,9.24562574 41.8890255,0 27.0010058,0 C12.1119803,0 0,9.24462534 0,20.6080816 C0,29.4355434 7.2016093,37.1615732 18.0140814,40.0537073 C18.3077783,40.1317379 18.5692892,40.2998038 18.7603934,40.5338956 C20.6251676,42.8177913 24.0821413,46.6362887 29.0961109,50.5198117 C29.495418,50.8309337 29.9973178,51 30.5032409,51 C30.9417747,51 31.3662271,50.8769517 31.7323424,50.6458611 C32.5490612,50.1276579 32.9564148,49.1522754 32.7391596,48.2089055 C32.4243406,46.8473715 31.9083594,44.4454296 31.5120697,41.7703805 C31.4436746,41.3001962 31.7705633,40.8630247 32.2432946,40.7919969 Z M29.5809119,37.3486465 C28.9713903,37.3976658 28.397072,37.6957827 28.0048055,38.1619655 C27.6075101,38.6481561 27.4254582,39.262397 27.4898301,39.8626324 C27.6839517,41.6533346 27.9625615,43.4180267 28.2451945,44.9686348 C24.7510058,41.8834249 22.3853375,39.1073362 21.1532186,37.5357199 C20.8122485,37.0975481 20.3173894,36.7794233 19.7651989,36.6483719 C10.1848458,34.3594743 3.74765311,27.9139466 3.74765311,20.6060808 C3.74765311,11.2984308 14.1789227,3.72646136 27,3.72646136 C39.8200715,3.72646136 50.2503353,11.2984308 50.2503353,20.6060808 C50.2513411,29.1954492 41.3649978,36.3902707 29.5809119,37.3486465 Z" id="Shape"></path>
        </g>
    </g>
</svg>