<?xml version="1.0" encoding="utf-8"?>
<!-- Generator: Adobe Illustrator 19.0.0, SVG Export Plug-In . SVG Version: 6.00 Build 0)  -->
<svg version="1.1"
	 id="dark" sodipodi:docname="–ù–æ–≤–∏–π –¥–æ–∫—É–º–µ–Ω—Ç 1" inkscape:version="0.48.2 r9819" xmlns:rdf="http://www.w3.org/1999/02/22-rdf-syntax-ns#" xmlns:sodipodi="http://sodipodi.sourceforge.net/DTD/sodipodi-0.dtd" xmlns:cc="http://creativecommons.org/ns#" xmlns:inkscape="http://www.inkscape.org/namespaces/inkscape" xmlns:svg="http://www.w3.org/2000/svg" xmlns:dc="http://purl.org/dc/elements/1.1/"
	 xmlns="http://www.w3.org/2000/svg" xmlns:xlink="http://www.w3.org/1999/xlink" x="0px" y="0px" viewBox="95.2 1678.4 613.9 200"
	 style="enable-background:new 95.2 1678.4 613.9 200;" xml:space="preserve">
<style type="text/css">
	.st0{fill:#F6C25B;}
	.st1{fill:#0A985C;}
	.st2{fill:#5586C5;}
	.st3{fill:#D9423E;}
	.st4{fill:#168B58;}
	.st5{fill:#D7AB56;}
	.st6{fill:#4E4E4E;}
</style>
<g>
	<g>
		<path class="st0" d="M122.1,1878.4h22.6c5.4,0,12-3.8,14.8-8.4l19.1-31.7c2.3-4.7,2.2-11.4-0.4-15.7l-11.3-18.6L122.1,1878.4z"/>
		<path class="st1" d="M146.4,1786.8L96.1,1871c-1.9,4.1,0.1,7.5,5.1,7.5h20.9l44.8-74.4l-20.5-33.9
			C149.2,1774.6,149.2,1782.2,146.4,1786.8"/>
		<path class="st2" d="M101.1,1678.4c-5.4,0-7.5,3.8-4.7,8.4l81.8,135.8c2.6,4.3,2.6,11.1,0.4,15.7l19.9-33.1l-76.3-126.8
			L101.1,1678.4L101.1,1678.4z"/>
		<path class="st3" d="M122.1,1678.4l76.3,126.8l11.1-18.4c2.8-4.6,2.8-12.1,0-16.7l-50-83.3c-2.8-4.6-9.4-8.4-14.8-8.4H122.1
			L122.1,1678.4z"/>
	</g>
</g>
<path class="st4" d="M146.4,1786.8l-12,20.1l21.5,15.3l11-18.2l-20.5-33.9C149.2,1774.6,149.2,1782.2,146.4,1786.8z"/>
<path class="st5" d="M166.9,1804l-11,18.2l22.6,16.1c2.3-4.7,2.2-11.4-0.4-15.7L166.9,1804z"/>
<g>
	<path class="st6" d="M278.8,1736.2h23.1v28.9c-6.3,2.1-13.2,3.2-20.7,3.2c-8.3,0-14.6-2.4-19.1-7.2c-4.5-4.8-6.8-11.6-6.8-20.5
		c0-8.6,2.5-15.4,7.4-20.2c4.9-4.8,11.8-7.2,20.7-7.2c3.4,0,6.5,0.3,9.5,1c3,0.6,5.6,1.4,7.8,2.4l-4.6,11.4
		c-3.9-1.9-8.1-2.9-12.7-2.9c-4.2,0-7.5,1.4-9.8,4.1c-2.3,2.7-3.5,6.7-3.5,11.8c0,5,1,8.8,3.1,11.4c2.1,2.6,5.1,3.9,9,3.9
		c2.1,0,4.1-0.2,5.9-0.6v-8.4h-9.6V1736.2z"/>
	<path class="st6" d="M353.4,1739.7c0,8.9-2.5,15.8-7.4,20.7s-11.8,7.3-20.7,7.3h-17.3V1714h18.5c8.6,0,15.2,2.2,19.9,6.6
		S353.4,1731.4,353.4,1739.7z M338.4,1740.2c0-4.9-1-8.5-2.9-10.9c-1.9-2.4-4.9-3.6-8.8-3.6h-4.2v30h3.2c4.4,0,7.6-1.3,9.7-3.8
		C337.3,1749.3,338.4,1745.4,338.4,1740.2z"/>
	<path class="st6" d="M379.6,1736.2h23.1v28.9c-6.3,2.1-13.2,3.2-20.7,3.2c-8.3,0-14.6-2.4-19.1-7.2c-4.5-4.8-6.8-11.6-6.8-20.5
		c0-8.6,2.5-15.4,7.4-20.2s11.8-7.2,20.7-7.2c3.4,0,6.5,0.3,9.5,1c3,0.6,5.6,1.4,7.8,2.4L397,1728c-3.9-1.9-8.1-2.9-12.7-2.9
		c-4.2,0-7.5,1.4-9.8,4.1c-2.3,2.7-3.5,6.7-3.5,11.8c0,5,1,8.8,3.1,11.4c2.1,2.6,5.1,3.9,9,3.9c2.1,0,4.1-0.2,5.9-0.6v-8.4h-9.6
		V1736.2z"/>
	<path class="st6" d="M483.4,1739.7c0,8.9-2.5,15.8-7.4,20.7s-11.8,7.3-20.7,7.3H438V1714h18.5c8.6,0,15.2,2.2,19.9,6.6
		S483.4,1731.4,483.4,1739.7z M468.4,1740.2c0-4.9-1-8.5-2.9-10.9c-1.9-2.4-4.9-3.6-8.8-3.6h-4.2v30h3.2c4.4,0,7.6-1.3,9.7-3.8
		C467.4,1749.3,468.4,1745.4,468.4,1740.2z"/>
	<path class="st6" d="M507.3,1768.3c-6.9,0-12.3-1.8-16.1-5.5c-3.8-3.7-5.7-8.9-5.7-15.7c0-7,1.8-12.4,5.3-16.1s8.6-5.6,15.2-5.6
		c6.2,0,11.1,1.6,14.5,4.9c3.4,3.3,5.1,8,5.1,14.1v6.4H500c0.1,2.3,0.9,4.1,2.5,5.5c1.6,1.3,3.8,2,6.5,2c2.5,0,4.8-0.2,6.9-0.7
		c2.1-0.5,4.4-1.3,6.9-2.4v10.3c-2.2,1.1-4.6,1.9-7,2.4S510.6,1768.3,507.3,1768.3z M506.5,1735.1c-1.7,0-3.1,0.5-4.2,1.6
		c-1.1,1.1-1.8,2.7-2,5h12.3c0-2-0.6-3.6-1.7-4.8C509.8,1735.7,508.3,1735.1,506.5,1735.1z"/>
	<path class="st6" d="M539.6,1767.6l-15.8-41.5h14.9l7,24.5c0,0.1,0.1,0.3,0.1,0.6s0.1,0.6,0.2,1c0.1,0.4,0.1,0.8,0.2,1.3
		c0.1,0.5,0.1,0.9,0.1,1.3h0.3c0-1.3,0.2-2.6,0.7-4.1l7.4-24.6h14.9l-15.8,41.5H539.6z"/>
	<path class="st6" d="M584.8,1767.6h-14.2V1714h31.6v11.6h-17.4v10.2h16v11.6h-16V1767.6z"/>
	<path class="st6" d="M625.3,1768.3c-6.9,0-12.3-1.8-16.1-5.5c-3.8-3.7-5.7-8.9-5.7-15.7c0-7,1.8-12.4,5.3-16.1s8.6-5.6,15.2-5.6
		c6.2,0,11.1,1.6,14.5,4.9c3.4,3.3,5.1,8,5.1,14.1v6.4h-25.6c0.1,2.3,0.9,4.1,2.5,5.5c1.6,1.3,3.8,2,6.5,2c2.5,0,4.8-0.2,6.9-0.7
		c2.1-0.5,4.4-1.3,6.9-2.4v10.3c-2.2,1.1-4.6,1.9-7,2.4S628.6,1768.3,625.3,1768.3z M624.4,1735.1c-1.7,0-3.1,0.5-4.2,1.6
		c-1.1,1.1-1.8,2.7-2,5h12.3c0-2-0.6-3.6-1.7-4.8C627.7,1735.7,626.3,1735.1,624.4,1735.1z"/>
	<path class="st6" d="M678.8,1754.8c0,4.4-1.5,7.8-4.5,10.1c-3,2.3-7.4,3.4-13,3.4c-3.1,0-5.7-0.2-8-0.5c-2.3-0.3-4.6-0.9-7-1.8
		v-11.5c2.2,1,4.7,1.8,7.3,2.4c2.6,0.6,5,1,7.1,1c3.1,0,4.7-0.7,4.7-2.1c0-0.7-0.4-1.4-1.3-2s-3.4-1.7-7.6-3.4
		c-3.8-1.6-6.5-3.3-8-5.3c-1.5-2-2.3-4.5-2.3-7.6c0-3.9,1.5-6.9,4.5-9c3-2.1,7.2-3.2,12.6-3.2c2.7,0,5.3,0.3,7.7,0.9
		c2.4,0.6,4.9,1.5,7.5,2.6l-3.9,9.2c-1.9-0.9-3.9-1.6-6-2.2c-2.1-0.6-3.9-0.9-5.2-0.9c-2.3,0-3.5,0.6-3.5,1.7c0,0.7,0.4,1.3,1.2,1.8
		c0.8,0.5,3.2,1.5,7.1,3.1c2.9,1.2,5.1,2.4,6.5,3.5c1.4,1.1,2.5,2.5,3.1,4C678.5,1750.7,678.8,1752.6,678.8,1754.8z"/>
	<path class="st6" d="M702.2,1757c1.9,0,4.2-0.5,6.9-1.4v10.4c-1.9,0.8-3.8,1.4-5.5,1.8c-1.7,0.4-3.8,0.5-6.1,0.5
		c-4.8,0-8.3-1.2-10.4-3.5c-2.1-2.4-3.2-6-3.2-10.9v-17.1h-5v-5.8l6.4-4.5l3.7-8.7h9.4v8.3h10.2v10.7h-10.2v16.2
		C698.3,1755.6,699.6,1757,702.2,1757z"/>
</g>
<g>
	<path class="st6" d="M293.1,1838.2h-31.9v-5.7l12.1-12.2c3.6-3.7,6-6.3,7.1-7.8c1.2-1.5,2-3,2.6-4.3c0.5-1.4,0.8-2.8,0.8-4.4
		c0-2.1-0.6-3.8-1.9-5c-1.3-1.2-3-1.8-5.3-1.8c-1.8,0-3.6,0.3-5.2,1c-1.7,0.7-3.6,1.9-5.8,3.6l-4.1-5c2.6-2.2,5.2-3.8,7.6-4.7
		c2.5-0.9,5.1-1.4,7.9-1.4c4.4,0,7.9,1.1,10.5,3.4c2.6,2.3,4,5.4,4,9.2c0,2.1-0.4,4.1-1.1,6.1c-0.8,1.9-1.9,3.9-3.5,5.9
		c-1.6,2-4.2,4.8-7.9,8.2l-8.2,7.9v0.3h22.4V1838.2z"/>
	<path class="st6" d="M331,1814.6c0,8.2-1.3,14.3-3.9,18.2s-6.7,6-12.1,6c-5.2,0-9.2-2.1-11.9-6.2s-4.1-10.1-4.1-18
		c0-8.3,1.3-14.4,3.9-18.4c2.6-3.9,6.6-5.9,12-5.9c5.3,0,9.2,2.1,12,6.2S331,1806.6,331,1814.6z M306.6,1814.6c0,6.4,0.7,11,2,13.8
		c1.3,2.8,3.4,4.1,6.3,4.1s5-1.4,6.4-4.2c1.3-2.8,2-7.4,2-13.7c0-6.3-0.7-10.9-2-13.7c-1.3-2.8-3.5-4.2-6.4-4.2s-5,1.4-6.3,4.2
		C307.3,1803.6,306.6,1808.2,306.6,1814.6z"/>
	<path class="st6" d="M359.1,1838.2h-7.6v-30.4c0-3.6,0.1-6.5,0.3-8.6c-0.5,0.5-1.1,1.1-1.8,1.7s-3.1,2.6-7.2,5.9l-3.8-4.8
		l13.9-10.9h6.3V1838.2z"/>
	<path class="st6" d="M374.9,1818.1c0-18.4,7.5-27.7,22.5-27.7c2.4,0,4.4,0.2,6,0.5v6.3c-1.6-0.5-3.5-0.7-5.7-0.7
		c-5,0-8.8,1.4-11.4,4.1s-3.9,7-4.1,13h0.4c1-1.7,2.4-3.1,4.3-4c1.8-1,4-1.4,6.4-1.4c4.3,0,7.6,1.3,10,3.9s3.6,6.2,3.6,10.7
		c0,4.9-1.4,8.8-4.1,11.7c-2.8,2.9-6.5,4.3-11.3,4.3c-3.4,0-6.3-0.8-8.8-2.4c-2.5-1.6-4.4-4-5.8-7.1
		C375.6,1826.2,374.9,1822.4,374.9,1818.1z M391.3,1832.5c2.6,0,4.6-0.8,6-2.5s2.1-4.1,2.1-7.2c0-2.7-0.7-4.8-2-6.4
		c-1.3-1.5-3.3-2.3-5.9-2.3c-1.6,0-3.1,0.3-4.5,1s-2.5,1.7-3.3,2.9c-0.8,1.2-1.2,2.5-1.2,3.7c0,3,0.8,5.6,2.5,7.7
		C386.7,1831.5,388.8,1832.5,391.3,1832.5z"/>
	<path class="st6" d="M460.5,1825.4c0,4.2-1.5,7.5-4.5,9.9s-7.2,3.6-12.5,3.6s-9.7-0.8-13.1-2.5v-7.3c2.1,1,4.4,1.8,6.8,2.4
		c2.4,0.6,4.7,0.9,6.8,0.9c3.1,0,5.3-0.6,6.8-1.7c1.4-1.2,2.2-2.7,2.2-4.7c0-1.8-0.7-3.3-2-4.5s-4.1-2.7-8.2-4.4
		c-4.3-1.7-7.3-3.7-9.1-6s-2.6-4.9-2.6-8.1c0-3.9,1.4-7,4.2-9.3s6.5-3.4,11.2-3.4c4.5,0,9,1,13.5,3l-2.4,6.3
		c-4.2-1.8-7.9-2.6-11.2-2.6c-2.5,0-4.4,0.5-5.7,1.6c-1.3,1.1-1.9,2.5-1.9,4.3c0,1.2,0.3,2.3,0.8,3.1c0.5,0.9,1.4,1.7,2.5,2.5
		s3.3,1.8,6.4,3.1c3.5,1.4,6,2.8,7.6,4s2.8,2.7,3.5,4.2S460.5,1823.2,460.5,1825.4z"/>
	<path class="st6" d="M484.5,1838.8c-5.5,0-9.9-1.6-13-4.8c-3.1-3.2-4.7-7.7-4.7-13.4c0-5.8,1.5-10.4,4.4-13.7s6.9-5,12-5
		c4.7,0,8.4,1.4,11.2,4.3s4.1,6.8,4.1,11.8v4.1h-23.8c0.1,3.5,1,6.1,2.8,8s4.2,2.8,7.4,2.8c2.1,0,4.1-0.2,5.9-0.6s3.8-1.1,5.8-2v6.2
		c-1.8,0.9-3.7,1.5-5.6,1.9S487,1838.8,484.5,1838.8z M483.2,1807.6c-2.4,0-4.3,0.8-5.8,2.3c-1.4,1.5-2.3,3.7-2.6,6.7H491
		c0-2.9-0.8-5.2-2.1-6.7C487.5,1808.4,485.6,1807.6,483.2,1807.6z"/>
	<path class="st6" d="M529.5,1838.2l-1.5-5h-0.3c-1.7,2.2-3.4,3.6-5.2,4.4c-1.7,0.8-4,1.2-6.7,1.2c-3.5,0-6.2-0.9-8.2-2.8
		c-2-1.9-2.9-4.6-2.9-8c0-3.7,1.4-6.4,4.1-8.3s6.9-2.9,12.5-3.1l6.2-0.2v-1.9c0-2.3-0.5-4-1.6-5.1c-1.1-1.1-2.7-1.7-4.9-1.7
		c-1.8,0-3.6,0.3-5.3,0.8s-3.3,1.2-4.8,1.9l-2.4-5.4c1.9-1,4-1.8,6.3-2.3c2.3-0.5,4.5-0.8,6.5-0.8c4.5,0,8,1,10.3,3s3.5,5.1,3.5,9.3
		v24H529.5z M518.2,1833c2.8,0,5-0.8,6.6-2.3c1.7-1.5,2.5-3.7,2.5-6.5v-3.1l-4.6,0.2c-3.6,0.1-6.2,0.7-7.8,1.8
		c-1.6,1.1-2.4,2.7-2.4,4.9c0,1.6,0.5,2.8,1.4,3.7C514.9,1832.6,516.3,1833,518.2,1833z"/>
	<path class="st6" d="M569.6,1828c0,3.5-1.3,6.2-3.8,8s-6.2,2.8-10.9,2.8c-4.7,0-8.6-0.7-11.4-2.2v-6.5c4.2,1.9,8.1,2.9,11.7,2.9
		c4.7,0,7-1.4,7-4.2c0-0.9-0.3-1.7-0.8-2.3s-1.4-1.2-2.5-1.9s-2.8-1.4-4.9-2.2c-4.1-1.6-6.9-3.2-8.3-4.8c-1.5-1.6-2.2-3.7-2.2-6.2
		c0-3.1,1.2-5.4,3.7-7.1c2.5-1.7,5.8-2.5,10-2.5c4.2,0,8.2,0.8,11.9,2.5l-2.4,5.7c-3.8-1.6-7.1-2.4-9.7-2.4c-4,0-6,1.1-6,3.4
		c0,1.1,0.5,2.1,1.6,2.8s3.3,1.8,6.8,3.2c2.9,1.1,5.1,2.2,6.4,3.1s2.3,2,3,3.3S569.6,1826.3,569.6,1828z"/>
	<path class="st6" d="M609.6,1820.3c0,5.8-1.5,10.4-4.5,13.6s-7.1,4.9-12.5,4.9c-3.3,0-6.3-0.8-8.8-2.3s-4.5-3.7-5.9-6.5
		s-2.1-6.1-2.1-9.8c0-5.8,1.5-10.3,4.4-13.5s7.1-4.9,12.5-4.9c5.2,0,9.2,1.7,12.2,5C608.1,1810.2,609.6,1814.6,609.6,1820.3z
		 M583.7,1820.3c0,8.2,3,12.3,9.1,12.3c6,0,9-4.1,9-12.3c0-8.1-3-12.2-9.1-12.2c-3.2,0-5.5,1.1-6.9,3.2S583.7,1816.3,583.7,1820.3z"
		/>
	<path class="st6" d="M649.9,1838.2h-7.6v-21.9c0-2.8-0.6-4.8-1.7-6.2c-1.1-1.4-2.9-2-5.3-2c-3.2,0-5.5,0.9-7,2.8s-2.2,5.1-2.2,9.5
		v17.8h-7.6v-35.6h5.9l1.1,4.7h0.4c1.1-1.7,2.6-3,4.6-3.9s4.2-1.4,6.6-1.4c8.6,0,12.8,4.4,12.8,13.1V1838.2z"/>
</g>
</svg>
