<svg xmlns="http://www.w3.org/2000/svg" width="1416.2" height="500.2" viewBox="40.3 -0.1 1416.2 500.2"><g fill="#757575"><path d="M304.2 316.1L106.7 0H52.2c-10.9 0-15.1 7.6-9.4 16.8l132.6 216.4.7 1.1 89.8 143.8 38.3-62zM334.7 266.8c5.7-9.2 5.7-24.3 0-33.6l-134-216.5C195 7.5 181.4-.1 170.6-.1h-55l193 308.9 26.1-42zM222.5 323L111.9 500h58.8c10.8 0 24.4-7.5 30.1-16.8l53.5-86.5c.2-.3.6-1 1.5-2.4l5.6-9.1-38.9-62.2zM175.4 266.8L42.8 483.3c-5.7 9.3-1.4 16.8 9.4 16.8h50.7L218 315.9 179.4 254c-.5 4.8-1.8 9.3-4 12.8z"/></g><g fill="#757575"><path d="M509 241.7h77.1V338c-20.9 7.2-44 10.8-69.1 10.8-27.5 0-48.8-8-63.9-24-15-16-22.6-38.7-22.6-68.3 0-28.8 8.2-51.3 24.7-67.4s39.5-24.1 69.2-24.1c11.2 0 21.9 1.1 31.8 3.2 10 2.1 18.7 4.8 26.1 8.1L567 214.2c-12.9-6.4-27-9.5-42.4-9.5-14.1 0-25 4.6-32.7 13.8s-11.6 22.3-11.6 39.3c0 16.7 3.5 29.4 10.5 38.2 7 8.8 17 13.1 30.1 13.1 7.2 0 13.8-.7 19.8-2.1v-28H509v-37.3zM759.4 253.2c0 29.8-8.2 52.8-24.6 68.9-16.4 16.1-39.5 24.2-69.2 24.2h-57.8V167.6h61.8c28.7 0 50.8 7.3 66.4 22 15.6 14.7 23.4 35.9 23.4 63.6zm-50.1 1.7c0-16.4-3.2-28.5-9.7-36.4s-16.3-11.9-29.5-11.9H656v100.1h10.8c14.7 0 25.4-4.3 32.3-12.8 6.8-8.5 10.2-21.5 10.2-39zM848.5 241.7h77.1V338c-20.9 7.2-44 10.8-69.1 10.8-27.5 0-48.8-8-63.9-24-15-16-22.6-38.7-22.6-68.3 0-28.8 8.2-51.3 24.7-67.4s39.5-24.1 69.2-24.1c11.2 0 21.9 1.1 31.8 3.2 10 2.1 18.7 4.8 26.1 8.1l-15.3 37.9c-12.9-6.4-27-9.5-42.4-9.5-14.1 0-25 4.6-32.7 13.8s-11.6 22.3-11.6 39.3c0 16.7 3.5 29.4 10.5 38.2 7 8.8 17 13.1 30.1 13.1 7.2 0 13.8-.7 19.8-2.1v-28h-31.9v-37.3h.2z"/></g><g fill="#757575"><path d="M1050.8 346.3V167.6h29.2v153.7h75.7v25.1h-104.9v-.1zM1199.4 346.3l-51.3-135.2h30.3l27.5 78.6c4.7 13.2 7.6 23.9 8.6 32h1c.7-5.9 3.6-16.5 8.6-32l27.5-78.6h30.6l-51.6 135.2h-31.2zM1286.1 175.3c0-5.1 1.4-9.1 4.2-11.9 2.8-2.8 6.8-4.2 12-4.2 5.1 0 9 1.4 11.8 4.2s4.2 6.7 4.2 11.9c0 4.9-1.4 8.7-4.2 11.6-2.8 2.8-6.7 4.2-11.8 4.2-5.2 0-9.2-1.4-12-4.2-2.8-2.8-4.2-6.7-4.2-11.6zm30.5 171h-28.7V211.1h28.7v135.2zM1373.7 346.3l-51.3-135.2h30.3l27.5 78.6c4.7 13.2 7.6 23.9 8.6 32h1c.7-5.9 3.6-16.5 8.6-32l27.5-78.6h30.6l-51.6 135.2h-31.2z"/></g></svg>