<?xml version="1.0" encoding="utf-8"?>
<!-- Generator: Adobe Illustrator 19.0.0, SVG Export Plug-In . SVG Version: 6.00 Build 0)  -->
<svg version="1.1" id="Layer_1" xmlns="http://www.w3.org/2000/svg" xmlns:xlink="http://www.w3.org/1999/xlink" x="0px" y="0px"
	 viewBox="862.9 1501.8 287.7 100.1" style="enable-background:new 862.9 1501.8 287.7 100.1;" xml:space="preserve">
<style type="text/css">
	.st0{fill:#757575;}
	.st1{enable-background:new    ;}
</style>
<g>
	<path class="st0" d="M915.7,1565l-39.5-63.2h-10.9c-2.2,0-3,1.5-1.9,3.4l26.5,43.3l0.1,0.2l18,28.7L915.7,1565z"/>
	<path class="st0" d="M921.8,1555.2c1.1-1.8,1.1-4.9,0-6.7l-26.8-43.3c-1.1-1.8-3.9-3.4-6-3.4h-11l38.6,61.8L921.8,1555.2z"/>
	<path class="st0" d="M899.4,1566.4l-22.1,35.4h11.8c2.2,0,4.9-1.5,6-3.4l10.7-17.3c0-0.1,0.1-0.2,0.3-0.5l1.1-1.8L899.4,1566.4z"/>
	<path class="st0" d="M890,1555.2l-26.5,43.3c-1.1,1.9-0.3,3.4,1.9,3.4h10.1l23-36.8l-7.7-12.4
		C890.7,1553.6,890.4,1554.5,890,1555.2z"/>
</g>
<g class="st1">
	<path class="st0" d="M956.4,1550.2h15.5v19.3c-4.2,1.4-8.8,2.2-13.8,2.2c-5.5,0-9.8-1.6-12.8-4.8c-3-3.2-4.5-7.8-4.5-13.7
		c0-5.8,1.6-10.3,4.9-13.5c3.3-3.2,7.9-4.8,13.9-4.8c2.3,0,4.4,0.2,6.4,0.6s3.7,1,5.2,1.6l-3.1,7.6c-2.6-1.3-5.4-1.9-8.5-1.9
		c-2.8,0-5,0.9-6.6,2.8c-1.5,1.8-2.3,4.5-2.3,7.9c0,3.3,0.7,5.9,2.1,7.7c1.4,1.8,3.4,2.6,6,2.6c1.4,0,2.8-0.1,4-0.4v-5.6h-6.4
		V1550.2z"/>
	<path class="st0" d="M1007.7,1552.5c0,6-1.6,10.6-4.9,13.8c-3.3,3.2-7.9,4.9-13.9,4.9h-11.6v-35.8h12.4c5.7,0,10.2,1.5,13.3,4.4
		C1006.1,1542.7,1007.7,1546.9,1007.7,1552.5z M997.6,1552.8c0-3.3-0.6-5.7-1.9-7.3c-1.3-1.6-3.3-2.4-5.9-2.4h-2.8v20.1h2.2
		c2.9,0,5.1-0.9,6.5-2.6S997.6,1556.3,997.6,1552.8z"/>
	<path class="st0" d="M1026.5,1550.2h15.5v19.3c-4.2,1.4-8.8,2.2-13.8,2.2c-5.5,0-9.8-1.6-12.8-4.8c-3-3.2-4.5-7.8-4.5-13.7
		c0-5.8,1.6-10.3,4.9-13.5c3.3-3.2,7.9-4.8,13.9-4.8c2.3,0,4.4,0.2,6.4,0.6c2,0.4,3.7,1,5.2,1.6l-3.1,7.6c-2.6-1.3-5.4-1.9-8.5-1.9
		c-2.8,0-5,0.9-6.6,2.8c-1.5,1.8-2.3,4.5-2.3,7.9c0,3.3,0.7,5.9,2.1,7.7c1.4,1.8,3.4,2.6,6,2.6c1.4,0,2.8-0.1,4-0.4v-5.6h-6.4
		V1550.2z"/>
</g>
<g class="st1">
	<path class="st0" d="M1066.3,1571.2v-35.8h5.9v30.8h15.2v5H1066.3z"/>
	<path class="st0" d="M1097.1,1571.2l-10.3-27.1h6.1l5.5,15.8c0.9,2.6,1.5,4.8,1.7,6.4h0.2c0.1-1.2,0.7-3.3,1.7-6.4l5.5-15.8h6.1
		l-10.3,27.1H1097.1z"/>
	<path class="st0" d="M1115.5,1536.9c0-1,0.3-1.8,0.8-2.4c0.6-0.6,1.4-0.8,2.4-0.8c1,0,1.8,0.3,2.4,0.8c0.6,0.6,0.8,1.3,0.8,2.4
		c0,1-0.3,1.8-0.8,2.3s-1.4,0.8-2.4,0.8c-1,0-1.9-0.3-2.4-0.8S1115.5,1537.9,1115.5,1536.9z M1121.6,1571.2h-5.8v-27.1h5.8V1571.2z"
		/>
	<path class="st0" d="M1134,1571.2l-10.3-27.1h6.1l5.5,15.8c0.9,2.6,1.5,4.8,1.7,6.4h0.2c0.1-1.2,0.7-3.3,1.7-6.4l5.5-15.8h6.1
		l-10.3,27.1H1134z"/>
</g>
</svg>
