<?xml version="1.0" encoding="utf-8"?>
<!-- Generator: Adobe Illustrator 19.0.0, SVG Export Plug-In . SVG Version: 6.00 Build 0)  -->
<svg version="1.1" id="Layer_1" xmlns="http://www.w3.org/2000/svg" xmlns:xlink="http://www.w3.org/1999/xlink" x="0px" y="0px"
	 viewBox="418.3 3725.1 625.2 200" style="enable-background:new 418.3 3725.1 625.2 200;" xml:space="preserve">
<style type="text/css">
	.st0{fill:#FFFFFF;}
	.st1{enable-background:new    ;}
</style>
<g>
	<path class="st0" d="M523.9,3851.5l-79-126.4h-21.8c-4.4,0-6,3-3.8,6.7l53,86.5l0.3,0.4l35.9,57.5L523.9,3851.5z"/>
	<path class="st0" d="M536.1,3831.8c2.3-3.7,2.3-9.7,0-13.4l-53.6-86.6c-2.3-3.7-7.7-6.7-12-6.7h-22l77.2,123.5L536.1,3831.8z"/>
	<path class="st0" d="M491.2,3854.3l-44.2,70.8h23.5c4.3,0,9.8-3,12-6.7l21.4-34.6c0.1-0.1,0.2-0.4,0.6-1l2.2-3.6L491.2,3854.3z"/>
	<path class="st0" d="M472.4,3831.8l-53,86.5c-2.3,3.7-0.6,6.7,3.8,6.7h20.3l46-73.6l-15.4-24.8
		C473.8,3828.5,473.2,3830.3,472.4,3831.8z"/>
</g>
<g class="st1">
	<path class="st0" d="M603.3,3782.4h23.1v28.9c-6.3,2.1-13.2,3.2-20.7,3.2c-8.3,0-14.6-2.4-19.1-7.2c-4.5-4.8-6.8-11.6-6.8-20.5
		c0-8.6,2.5-15.4,7.4-20.2c4.9-4.8,11.8-7.2,20.7-7.2c3.4,0,6.5,0.3,9.5,1c3,0.6,5.6,1.4,7.8,2.4l-4.6,11.4
		c-3.9-1.9-8.1-2.9-12.7-2.9c-4.2,0-7.5,1.4-9.8,4.1c-2.3,2.7-3.5,6.7-3.5,11.8c0,5,1,8.8,3.1,11.4c2.1,2.6,5.1,3.9,9,3.9
		c2.1,0,4.1-0.2,5.9-0.6v-8.4h-9.6V3782.4z"/>
	<path class="st0" d="M678.8,3785.8c0,8.9-2.5,15.8-7.4,20.7c-4.9,4.8-11.8,7.2-20.7,7.2h-17.3v-53.5h18.5c8.6,0,15.2,2.2,19.9,6.6
		C676.4,3771.2,678.8,3777.5,678.8,3785.8z M663.8,3786.3c0-4.9-1-8.5-2.9-10.9c-1.9-2.4-4.9-3.6-8.8-3.6h-4.2v30h3.2
		c4.4,0,7.6-1.3,9.7-3.8S663.8,3791.6,663.8,3786.3z"/>
	<path class="st0" d="M705.9,3782.4H729v28.9c-6.3,2.1-13.2,3.2-20.7,3.2c-8.3,0-14.6-2.4-19.1-7.2c-4.5-4.8-6.8-11.6-6.8-20.5
		c0-8.6,2.5-15.4,7.4-20.2c4.9-4.8,11.8-7.2,20.7-7.2c3.4,0,6.5,0.3,9.5,1c3,0.6,5.6,1.4,7.8,2.4l-4.6,11.4
		c-3.9-1.9-8.1-2.9-12.7-2.9c-4.2,0-7.5,1.4-9.8,4.1c-2.3,2.7-3.5,6.7-3.5,11.8c0,5,1,8.8,3.1,11.4c2.1,2.6,5.1,3.9,9,3.9
		c2.1,0,4.1-0.2,5.9-0.6v-8.4h-9.6V3782.4z"/>
	<path class="st0" d="M812.4,3785.8c0,8.9-2.5,15.8-7.4,20.7c-4.9,4.8-11.8,7.2-20.7,7.2h-17.3v-53.5h18.5c8.6,0,15.2,2.2,19.9,6.6
		C810.1,3771.2,812.4,3777.5,812.4,3785.8z M797.4,3786.3c0-4.9-1-8.5-2.9-10.9c-1.9-2.4-4.9-3.6-8.8-3.6h-4.2v30h3.2
		c4.4,0,7.6-1.3,9.7-3.8S797.4,3791.6,797.4,3786.3z"/>
	<path class="st0" d="M837.2,3814.4c-6.9,0-12.3-1.8-16.1-5.5c-3.8-3.7-5.7-8.9-5.7-15.7c0-7,1.8-12.4,5.3-16.1s8.6-5.6,15.2-5.6
		c6.2,0,11.1,1.6,14.5,4.9c3.4,3.3,5.1,8,5.1,14.1v6.4h-25.6c0.1,2.3,0.9,4.1,2.5,5.5c1.6,1.3,3.8,2,6.5,2c2.5,0,4.8-0.2,6.9-0.7
		c2.1-0.5,4.4-1.3,6.9-2.4v10.3c-2.2,1.1-4.6,1.9-7,2.4C843.4,3814.2,840.5,3814.4,837.2,3814.4z M836.4,3781.2
		c-1.7,0-3.1,0.5-4.2,1.6c-1.1,1.1-1.8,2.7-2,5h12.3c0-2-0.6-3.6-1.7-4.8C839.6,3781.8,838.2,3781.2,836.4,3781.2z"/>
	<path class="st0" d="M870.4,3813.7l-15.8-41.5h14.9l7,24.5c0,0.1,0.1,0.3,0.1,0.6s0.1,0.6,0.2,1s0.1,0.8,0.2,1.3
		c0.1,0.5,0.1,0.9,0.1,1.3h0.3c0-1.3,0.2-2.6,0.7-4.1l7.4-24.6h14.9l-15.8,41.5H870.4z"/>
	<path class="st0" d="M916.5,3813.7h-14.2v-53.5h31.6v11.6h-17.4v10.2h16v11.6h-16V3813.7z"/>
	<path class="st0" d="M957.9,3814.4c-6.9,0-12.3-1.8-16.1-5.5c-3.8-3.7-5.7-8.9-5.7-15.7c0-7,1.8-12.4,5.3-16.1s8.6-5.6,15.2-5.6
		c6.2,0,11.1,1.6,14.5,4.9c3.4,3.3,5.1,8,5.1,14.1v6.4h-25.6c0.1,2.3,0.9,4.1,2.5,5.5c1.6,1.3,3.8,2,6.5,2c2.5,0,4.8-0.2,6.9-0.7
		c2.1-0.5,4.4-1.3,6.9-2.4v10.3c-2.2,1.1-4.6,1.9-7,2.4S961.2,3814.4,957.9,3814.4z M957,3781.2c-1.7,0-3.1,0.5-4.2,1.6
		c-1.1,1.1-1.8,2.7-2,5h12.3c0-2-0.6-3.6-1.7-4.8C960.3,3781.8,958.9,3781.2,957,3781.2z"/>
	<path class="st0" d="M1012.3,3801c0,4.4-1.5,7.8-4.5,10.1c-3,2.3-7.4,3.4-13,3.4c-3.1,0-5.7-0.2-8-0.5c-2.3-0.3-4.6-0.9-7-1.8
		v-11.5c2.2,1,4.7,1.8,7.3,2.4c2.6,0.6,5,1,7.1,1c3.1,0,4.7-0.7,4.7-2.1c0-0.7-0.4-1.4-1.3-2c-0.9-0.6-3.4-1.7-7.6-3.4
		c-3.8-1.6-6.5-3.3-8-5.3c-1.5-2-2.3-4.5-2.3-7.6c0-3.9,1.5-6.9,4.5-9c3-2.1,7.2-3.2,12.6-3.2c2.7,0,5.3,0.3,7.7,0.9
		c2.4,0.6,4.9,1.5,7.5,2.6l-3.9,9.2c-1.9-0.9-3.9-1.6-6-2.2s-3.9-0.9-5.2-0.9c-2.3,0-3.5,0.6-3.5,1.7c0,0.7,0.4,1.3,1.2,1.8
		s3.2,1.5,7.1,3.1c2.9,1.2,5.1,2.4,6.5,3.5c1.4,1.1,2.5,2.5,3.1,4C1011.9,3796.9,1012.3,3798.7,1012.3,3801z"/>
	<path class="st0" d="M1036.6,3803.1c1.9,0,4.2-0.5,6.9-1.4v10.4c-1.9,0.8-3.8,1.4-5.5,1.8c-1.7,0.4-3.8,0.5-6.1,0.5
		c-4.8,0-8.3-1.2-10.4-3.5c-2.1-2.4-3.2-6-3.2-10.9v-17.1h-5v-5.8l6.4-4.5l3.7-8.7h9.4v8.3h10.2v10.7h-10.2v16.2
		C1032.7,3801.8,1034,3803.1,1036.6,3803.1z"/>
</g>
<g class="st1">
	<path class="st0" d="M617.6,3884.3h-31.9v-5.7l12.1-12.2c3.6-3.7,6-6.3,7.1-7.8c1.2-1.5,2-3,2.6-4.3s0.8-2.8,0.8-4.4
		c0-2.1-0.6-3.8-1.9-5c-1.3-1.2-3-1.8-5.3-1.8c-1.8,0-3.5,0.3-5.2,1c-1.7,0.7-3.6,1.9-5.8,3.6l-4.1-5c2.6-2.2,5.2-3.8,7.6-4.7
		s5.1-1.4,7.9-1.4c4.4,0,7.9,1.1,10.5,3.4c2.6,2.3,4,5.4,4,9.2c0,2.1-0.4,4.1-1.1,6.1c-0.8,1.9-1.9,3.9-3.5,5.9
		c-1.6,2-4.2,4.8-7.9,8.2l-8.2,7.9v0.3h22.4V3884.3z"/>
	<path class="st0" d="M655.2,3860.7c0,8.2-1.3,14.3-3.9,18.2c-2.6,4-6.7,6-12.1,6c-5.2,0-9.2-2.1-11.9-6.2s-4.1-10.1-4.1-18
		c0-8.3,1.3-14.4,3.9-18.4c2.6-3.9,6.6-5.9,12-5.9c5.3,0,9.2,2.1,12,6.2S655.2,3852.8,655.2,3860.7z M630.9,3860.7
		c0,6.4,0.7,11,2,13.8s3.4,4.1,6.3,4.1s5-1.4,6.4-4.2c1.3-2.8,2-7.4,2-13.7c0-6.3-0.7-10.9-2-13.7c-1.3-2.8-3.5-4.2-6.4-4.2
		s-5,1.4-6.3,4.2S630.9,3854.3,630.9,3860.7z"/>
	<path class="st0" d="M683.2,3884.3h-7.6v-30.4c0-3.6,0.1-6.5,0.3-8.6c-0.5,0.5-1.1,1.1-1.8,1.7c-0.7,0.6-3.1,2.6-7.2,5.9l-3.8-4.8
		l13.9-10.9h6.3V3884.3z"/>
	<path class="st0" d="M714.6,3854.9c4.7,0,8.5,1.3,11.3,3.8s4.2,5.9,4.2,10.3c0,5-1.6,9-4.7,11.8c-3.1,2.8-7.6,4.2-13.4,4.2
		c-5.3,0-9.4-0.8-12.4-2.5v-6.9c1.7,1,3.7,1.8,6,2.3s4.4,0.8,6.3,0.8c3.4,0,6-0.8,7.8-2.3s2.7-3.8,2.7-6.7c0-5.6-3.6-8.4-10.8-8.4
		c-1,0-2.3,0.1-3.7,0.3c-1.5,0.2-2.8,0.4-3.9,0.7l-3.4-2l1.8-23h24.5v6.7H709l-1.1,11.7c0.8-0.1,1.7-0.3,2.8-0.5
		C711.7,3855,713.1,3854.9,714.6,3854.9z"/>
	<path class="st0" d="M784,3871.5c0,4.2-1.5,7.5-4.5,9.9s-7.2,3.6-12.5,3.6s-9.7-0.8-13.1-2.5v-7.3c2.1,1,4.4,1.8,6.8,2.4
		s4.7,0.9,6.8,0.9c3.1,0,5.3-0.6,6.8-1.7s2.2-2.7,2.2-4.7c0-1.8-0.7-3.3-2-4.5s-4.1-2.7-8.2-4.4c-4.3-1.7-7.3-3.7-9.1-6
		s-2.6-4.9-2.6-8.1c0-3.9,1.4-7,4.2-9.3s6.5-3.4,11.2-3.4c4.5,0,9,1,13.5,3l-2.4,6.3c-4.2-1.8-7.9-2.6-11.2-2.6
		c-2.5,0-4.4,0.5-5.7,1.6c-1.3,1.1-1.9,2.5-1.9,4.3c0,1.2,0.3,2.3,0.8,3.1c0.5,0.9,1.4,1.7,2.5,2.5s3.3,1.8,6.4,3.1
		c3.5,1.4,6,2.8,7.6,4s2.8,2.7,3.5,4.2S784,3869.4,784,3871.5z"/>
	<path class="st0" d="M807.8,3884.9c-5.5,0-9.9-1.6-13-4.8s-4.7-7.7-4.7-13.4c0-5.8,1.5-10.4,4.4-13.7s6.9-5,12-5
		c4.7,0,8.4,1.4,11.2,4.3s4.1,6.8,4.1,11.8v4.1h-23.8c0.1,3.5,1,6.1,2.8,8s4.2,2.8,7.4,2.8c2.1,0,4.1-0.2,5.9-0.6
		c1.8-0.4,3.8-1.1,5.8-2v6.2c-1.8,0.9-3.7,1.5-5.6,1.9S810.3,3884.9,807.8,3884.9z M806.5,3853.7c-2.4,0-4.3,0.8-5.8,2.3
		s-2.3,3.7-2.6,6.7h16.2c0-2.9-0.8-5.2-2.1-6.7C810.8,3854.5,808.9,3853.7,806.5,3853.7z"/>
	<path class="st0" d="M852.6,3884.3l-1.5-5h-0.3c-1.7,2.2-3.4,3.6-5.2,4.4c-1.7,0.8-4,1.2-6.7,1.2c-3.5,0-6.2-0.9-8.2-2.8
		s-2.9-4.6-2.9-8c0-3.7,1.4-6.4,4.1-8.3s6.9-2.9,12.5-3.1l6.2-0.2v-1.9c0-2.3-0.5-4-1.6-5.1c-1.1-1.1-2.7-1.7-4.9-1.7
		c-1.8,0-3.6,0.3-5.3,0.8s-3.3,1.2-4.8,1.9l-2.4-5.4c1.9-1,4-1.8,6.3-2.3c2.3-0.5,4.5-0.8,6.5-0.8c4.5,0,8,1,10.3,3
		c2.3,2,3.5,5.1,3.5,9.3v24H852.6z M841.3,3879.1c2.8,0,5-0.8,6.6-2.3c1.7-1.5,2.5-3.7,2.5-6.5v-3.1l-4.6,0.2
		c-3.6,0.1-6.2,0.7-7.8,1.8c-1.6,1.1-2.4,2.7-2.4,4.9c0,1.6,0.5,2.8,1.4,3.7C838,3878.7,839.4,3879.1,841.3,3879.1z"/>
	<path class="st0" d="M892.5,3874.1c0,3.5-1.3,6.2-3.8,8s-6.2,2.8-10.9,2.8c-4.7,0-8.6-0.7-11.4-2.2v-6.5c4.2,1.9,8.1,2.9,11.7,2.9
		c4.7,0,7-1.4,7-4.2c0-0.9-0.3-1.7-0.8-2.3s-1.4-1.2-2.5-1.9c-1.2-0.6-2.8-1.4-4.9-2.2c-4.1-1.6-6.9-3.2-8.3-4.8s-2.2-3.7-2.2-6.2
		c0-3.1,1.2-5.4,3.7-7.1c2.5-1.7,5.8-2.5,10-2.5c4.2,0,8.2,0.8,11.9,2.5l-2.4,5.7c-3.8-1.6-7.1-2.4-9.7-2.4c-4,0-6,1.1-6,3.4
		c0,1.1,0.5,2.1,1.6,2.8c1,0.8,3.3,1.8,6.8,3.2c2.9,1.1,5.1,2.2,6.4,3.1s2.3,2,3,3.3S892.5,3872.4,892.5,3874.1z"/>
	<path class="st0" d="M932.3,3866.4c0,5.8-1.5,10.4-4.5,13.6s-7.1,4.9-12.5,4.9c-3.3,0-6.3-0.8-8.8-2.3s-4.5-3.7-5.9-6.5
		s-2.1-6.1-2.1-9.8c0-5.8,1.5-10.3,4.4-13.5s7.1-4.9,12.5-4.9c5.2,0,9.2,1.7,12.2,5C930.8,3856.3,932.3,3860.8,932.3,3866.4z
		 M906.4,3866.4c0,8.2,3,12.3,9.1,12.3c6,0,9-4.1,9-12.3c0-8.1-3-12.2-9.1-12.2c-3.2,0-5.5,1.1-6.9,3.2S906.4,3862.5,906.4,3866.4z"
		/>
	<path class="st0" d="M972.4,3884.3h-7.6v-21.9c0-2.8-0.6-4.8-1.7-6.2c-1.1-1.4-2.9-2-5.3-2c-3.2,0-5.5,0.9-7,2.8s-2.2,5.1-2.2,9.5
		v17.8H941v-35.6h5.9l1.1,4.7h0.4c1.1-1.7,2.6-3,4.6-3.9s4.2-1.4,6.6-1.4c8.6,0,12.8,4.4,12.8,13.1V3884.3z"/>
</g>
</svg>
