<?xml version="1.0" encoding="utf-8"?>
<!-- Generator: Adobe Illustrator 19.0.0, SVG Export Plug-In . SVG Version: 6.00 Build 0)  -->
<svg version="1.1" id="Layer_1" xmlns="http://www.w3.org/2000/svg" xmlns:xlink="http://www.w3.org/1999/xlink" x="0px" y="0px"
	 viewBox="428.2 1882.7 611.9 200" style="enable-background:new 428.2 1882.7 611.9 200;" xml:space="preserve">
<style type="text/css">
	.st0{fill:#FFFFFF;}
</style>
<g>
	<g>
		<g>
			<g>
				<path class="st0" d="M628.1,2042.4h-32v-5.8l12.2-12.3c3.6-3.7,6-6.3,7.2-7.8s2-3,2.6-4.3c0.5-1.4,0.8-2.8,0.8-4.4
					c0-2.1-0.6-3.8-1.9-5s-3.1-1.8-5.3-1.8c-1.8,0-3.6,0.3-5.3,1s-3.6,1.9-5.9,3.6l-4.1-5c2.6-2.2,5.2-3.8,7.7-4.7
					c2.5-0.9,5.1-1.4,7.9-1.4c4.4,0,7.9,1.1,10.6,3.4s4,5.4,4,9.3c0,2.1-0.4,4.2-1.1,6.1c-0.8,1.9-1.9,3.9-3.5,5.9
					c-1.6,2-4.2,4.8-7.9,8.3l-8.2,8v0.3h22.4L628.1,2042.4L628.1,2042.4z"/>
				<path class="st0" d="M665.9,2018.8c0,8.2-1.3,14.3-4,18.3s-6.7,6-12.1,6c-5.3,0-9.2-2.1-12-6.2c-2.7-4.1-4.1-10.2-4.1-18.1
					c0-8.3,1.3-14.5,4-18.4c2.6-4,6.7-5.9,12.1-5.9c5.3,0,9.3,2.1,12,6.2S665.9,2010.8,665.9,2018.8z M641.5,2018.8
					c0,6.4,0.7,11,2,13.8s3.4,4.1,6.4,4.1c2.9,0,5-1.4,6.4-4.2c1.3-2.8,2-7.4,2-13.7c0-6.3-0.7-10.9-2-13.8
					c-1.3-2.8-3.5-4.3-6.4-4.3c-2.9,0-5,1.4-6.4,4.2C642.1,2007.8,641.5,2012.3,641.5,2018.8z"/>
				<path class="st0" d="M693.9,2042.4h-7.6v-30.5c0-3.6,0.1-6.5,0.3-8.7c-0.5,0.5-1.1,1.1-1.8,1.7s-3.1,2.6-7.3,5.9l-3.8-4.8
					l13.9-10.9h6.3V2042.4L693.9,2042.4z"/>
				<path class="st0" d="M725.5,2012.8c4.8,0,8.5,1.3,11.3,3.8s4.2,6,4.2,10.3c0,5-1.6,9-4.7,11.8c-3.2,2.8-7.6,4.3-13.5,4.3
					c-5.3,0-9.4-0.9-12.5-2.6v-6.9c1.7,1,3.8,1.8,6,2.3c2.3,0.5,4.4,0.8,6.3,0.8c3.4,0,6-0.8,7.8-2.3s2.7-3.8,2.7-6.7
					c0-5.6-3.6-8.5-10.8-8.5c-1,0-2.3,0.1-3.7,0.3c-1.5,0.2-2.8,0.4-3.9,0.7l-3.4-2l1.8-23.1h24.6v6.8h-17.9l-1.1,11.7
					c0.8-0.1,1.7-0.3,2.8-0.5C722.6,2012.9,723.9,2012.8,725.5,2012.8z"/>
				<path class="st0" d="M804.8,1995.2v30.6c0,3.5-0.8,6.5-2.2,9.2c-1.5,2.6-3.7,4.6-6.5,6s-6.2,2.1-10.2,2.1
					c-5.9,0-10.4-1.6-13.7-4.7c-3.3-3.1-4.9-7.4-4.9-12.8V1995h7.8v29.9c0,3.9,0.9,6.8,2.7,8.6c1.8,1.9,4.6,2.8,8.3,2.8
					c7.3,0,10.9-3.8,10.9-11.5V1995h7.8V1995.2z"/>
				<path class="st0" d="M823.5,2023.6l4.3-5.4l10.8-11.5h8.8l-14.4,15.4l15.3,20.4h-8.9l-11.5-15.7l-4.2,3.4v12.3h-7.5v-50.3h7.5
					v24.5l-0.4,6.9L823.5,2023.6L823.5,2023.6z"/>
				<path class="st0" d="M872.1,2005.9c1.5,0,2.8,0.1,3.8,0.3l-0.7,7.1c-1.1-0.3-2.2-0.4-3.4-0.4c-3,0-5.5,1-7.4,3s-2.8,4.6-2.8,7.7
					v18.7H854v-35.8h6l1,6.3h0.4c1.2-2.1,2.7-3.8,4.6-5.1C867.9,2006.7,869.9,2005.9,872.1,2005.9z"/>
				<path class="st0" d="M904.9,2042.4l-1.5-5h-0.3c-1.7,2.2-3.5,3.7-5.2,4.4c-1.7,0.8-4,1.2-6.7,1.2c-3.5,0-6.3-0.9-8.2-2.8
					c-2-1.9-3-4.6-3-8.1c0-3.7,1.4-6.5,4.1-8.3c2.7-1.9,6.9-2.9,12.5-3.1l6.2-0.2v-1.9c0-2.3-0.5-4-1.6-5.1s-2.7-1.7-5-1.7
					c-1.8,0-3.6,0.3-5.3,0.8s-3.3,1.2-4.8,1.9l-2.5-5.4c1.9-1,4.1-1.8,6.4-2.3c2.3-0.5,4.5-0.8,6.5-0.8c4.5,0,8,1,10.3,3
					s3.5,5.1,3.5,9.3v24.1H904.9z M893.6,2037.2c2.8,0,5-0.8,6.6-2.3c1.7-1.5,2.5-3.7,2.5-6.5v-3.1l-4.6,0.2
					c-3.6,0.1-6.2,0.7-7.8,1.8c-1.6,1.1-2.4,2.7-2.4,4.9c0,1.6,0.5,2.8,1.4,3.7C890.3,2036.8,891.7,2037.2,893.6,2037.2z"/>
				<path class="st0" d="M920.5,1997.2c0-1.4,0.4-2.4,1.1-3.1c0.7-0.7,1.8-1.1,3.2-1.1c1.3,0,2.4,0.4,3.1,1.1
					c0.7,0.7,1.1,1.8,1.1,3.1c0,1.3-0.4,2.3-1.1,3.1c-0.7,0.7-1.8,1.1-3.1,1.1c-1.4,0-2.4-0.4-3.2-1.1
					C920.9,1999.4,920.5,1998.4,920.5,1997.2z M928.6,2042.4H921v-35.8h7.6V2042.4z"/>
				<path class="st0" d="M970.9,2042.4h-7.6v-22c0-2.8-0.6-4.8-1.7-6.2c-1.1-1.4-2.9-2-5.3-2c-3.2,0-5.6,0.9-7.1,2.8
					s-2.2,5.1-2.2,9.5v17.8h-7.6v-35.8h6l1.1,4.7h0.4c1.1-1.7,2.6-3,4.6-3.9s4.2-1.4,6.6-1.4c8.6,0,12.9,4.4,12.9,13.1L970.9,2042.4
					L970.9,2042.4z"/>
				<path class="st0" d="M997.1,2043.1c-5.6,0-9.9-1.6-13-4.9c-3.1-3.2-4.7-7.7-4.7-13.4c0-5.8,1.5-10.4,4.4-13.8
					c2.9-3.3,6.9-5,12-5c4.7,0,8.5,1.4,11.2,4.3s4.1,6.8,4.1,11.8v4.1h-23.8c0.1,3.5,1,6.1,2.8,8s4.3,2.8,7.5,2.8
					c2.1,0,4.1-0.2,5.9-0.6c1.8-0.4,3.8-1.1,5.9-2v6.2c-1.9,0.9-3.7,1.5-5.6,1.9C1001.7,2042.8,999.5,2043.1,997.1,2043.1z
					 M995.7,2011.8c-2.4,0-4.3,0.8-5.8,2.3s-2.3,3.8-2.6,6.7h16.2c0-3-0.8-5.2-2.1-6.7C1000,2012.6,998.1,2011.8,995.7,2011.8z"/>
			</g>
			<g>
				<g>
					<path class="st0" d="M814.2,1942.7c0,8.9-2.4,15.8-7.3,20.6c-4.9,4.8-11.7,7.2-20.6,7.2h-17.2V1917h18.4
						c8.5,0,15.1,2.2,19.7,6.6C811.9,1928.1,814.2,1934.4,814.2,1942.7z M799.3,1943.2c0-4.9-1-8.5-2.9-10.9
						c-1.9-2.4-4.8-3.5-8.8-3.5h-4.2v29.9h3.2c4.4,0,7.6-1.3,9.6-3.8C798.3,1952.3,799.3,1948.4,799.3,1943.2z"/>
				</g>
				<g>
					<path class="st0" d="M838.3,1971.2c-6.9,0-12.2-1.8-16-5.5s-5.7-8.9-5.7-15.7c0-7,1.8-12.4,5.3-16.1s8.5-5.6,15-5.6
						c6.2,0,11,1.6,14.4,4.9s5.1,7.9,5.1,14.1v6.4H831c0.1,2.3,0.9,4.1,2.5,5.4c1.6,1.3,3.7,2,6.5,2c2.5,0,4.8-0.2,6.9-0.7
						s4.4-1.3,6.8-2.4v10.3c-2.2,1.2-4.5,1.9-6.9,2.4C844.4,1971.1,841.6,1971.2,838.3,1971.2z M837.5,1938.2
						c-1.7,0-3.1,0.5-4.2,1.6c-1.1,1.1-1.8,2.7-2,5h12.2c-0.1-2-0.6-3.6-1.7-4.8C840.7,1938.8,839.3,1938.2,837.5,1938.2z"/>
				</g>
				<g>
					<path class="st0" d="M870.7,1970.6l-15.7-41.4h14.8l7,24.5c0,0.1,0.1,0.3,0.2,0.6c0.1,0.3,0.1,0.6,0.2,1
						c0.1,0.4,0.1,0.8,0.2,1.3c0.1,0.5,0.1,0.9,0.1,1.3h0.2c0-1.3,0.2-2.6,0.7-4.1l7.3-24.6h14.8l-15.7,41.4L870.7,1970.6
						L870.7,1970.6z"/>
				</g>
				<g>
					<path class="st0" d="M915.8,1970.6h-14.1v-53.4h31.4v11.6h-17.3v10.2h15.9v11.6h-15.9V1970.6L915.8,1970.6z"/>
				</g>
				<g>
					<path class="st0" d="M956.3,1971.2c-6.8,0-12.1-1.8-16-5.5c-3.8-3.7-5.7-8.9-5.7-15.7c0-7,1.8-12.4,5.3-16.1s8.5-5.6,15-5.6
						c6.2,0,11,1.6,14.4,4.9s5.1,7.9,5.1,14.1v6.4H949c0.1,2.3,0.9,4.1,2.5,5.4s3.7,2,6.5,2c2.5,0,4.8-0.2,6.9-0.7
						c2.1-0.5,4.3-1.3,6.8-2.4v10.3c-2.2,1.2-4.5,1.9-6.9,2.4C962.4,1971.1,959.6,1971.2,956.3,1971.2z M955.5,1938.2
						c-1.7,0-3.1,0.5-4.2,1.6c-1.1,1.1-1.8,2.7-2,5h12.2c-0.1-2-0.6-3.6-1.7-4.8C958.7,1938.8,957.3,1938.2,955.5,1938.2z"/>
				</g>
				<g>
					<path class="st0" d="M1009.7,1957.8c0,4.4-1.5,7.8-4.5,10.1c-3,2.3-7.3,3.4-12.9,3.4c-3,0-5.7-0.2-7.9-0.5
						c-2.3-0.3-4.5-0.9-6.9-1.8v-11.4c2.2,1,4.6,1.8,7.2,2.4c2.6,0.6,5,0.9,7,0.9c3.1,0,4.6-0.7,4.6-2.1c0-0.7-0.4-1.4-1.3-2
						c-0.9-0.6-3.4-1.7-7.5-3.3c-3.8-1.6-6.4-3.3-7.9-5.3s-2.3-4.5-2.3-7.5c0-3.8,1.5-6.8,4.4-9s7.1-3.2,12.5-3.2
						c2.7,0,5.3,0.3,7.6,0.9c2.4,0.6,4.8,1.5,7.4,2.6l-3.8,9.2c-1.9-0.8-3.9-1.6-6-2.2s-3.8-0.9-5.1-0.9c-2.3,0-3.5,0.6-3.5,1.7
						c0,0.7,0.4,1.3,1.2,1.8s3.2,1.5,7,3.1c2.9,1.2,5,2.4,6.4,3.5s2.5,2.5,3.1,4C1009.3,1953.8,1009.7,1955.7,1009.7,1957.8z"/>
				</g>
				<g>
					<path class="st0" d="M1033.2,1959.9c1.9,0,4.2-0.5,6.9-1.4v10.4c-1.9,0.8-3.7,1.4-5.5,1.8c-1.7,0.4-3.8,0.5-6.1,0.5
						c-4.8,0-8.2-1.2-10.3-3.5c-2.1-2.4-3.2-6-3.2-10.8v-17.1h-5v-5.8l6.3-4.5l3.7-8.7h9.3v8.3h10.1v10.7h-10.1v16.1
						C1029.4,1958.7,1030.7,1959.9,1033.2,1959.9z"/>
				</g>
			</g>
			<g>
				<g>
					<path class="st0" d="M613.1,1940.6h23.1v28.8c-6.3,2.1-13.2,3.2-20.7,3.2c-8.2,0-14.6-2.4-19.1-7.2c-4.5-4.8-6.7-11.6-6.7-20.4
						c0-8.6,2.5-15.3,7.4-20.1c4.9-4.8,11.8-7.2,20.7-7.2c3.4,0,6.5,0.3,9.5,1c3,0.6,5.6,1.4,7.8,2.4l-4.6,11.3
						c-3.8-1.9-8.1-2.8-12.7-2.8c-4.2,0-7.5,1.4-9.8,4.1s-3.5,6.7-3.5,11.8c0,5,1,8.8,3.1,11.4c2.1,2.6,5.1,3.9,9,3.9
						c2.1,0,4.1-0.2,5.9-0.6v-8.4H613L613.1,1940.6L613.1,1940.6L613.1,1940.6z"/>
				</g>
				<g>
					<path class="st0" d="M687.9,1943.9c0,8.9-2.5,15.8-7.4,20.6c-4.9,4.8-11.8,7.2-20.7,7.2h-17.3v-53.5H661
						c8.6,0,15.2,2.2,19.9,6.6C685.6,1929.3,687.9,1935.7,687.9,1943.9z M672.9,1944.4c0-4.9-1-8.5-2.9-10.9
						c-1.9-2.4-4.9-3.6-8.8-3.6H657v29.9h3.2c4.4,0,7.6-1.3,9.7-3.8C671.9,1953.7,672.9,1949.8,672.9,1944.4z"/>
				</g>
				<g>
					<path class="st0" d="M714.5,1940.6h23.1v28.8c-6.3,2.1-13.1,3.2-20.7,3.2c-8.2,0-14.6-2.4-19.1-7.2c-4.5-4.8-6.7-11.6-6.7-20.4
						c0-8.6,2.5-15.3,7.4-20.1c4.9-4.8,11.8-7.2,20.7-7.2c3.4,0,6.5,0.3,9.5,1c3,0.6,5.6,1.4,7.8,2.4l-4.6,11.3
						c-3.9-1.9-8.1-2.8-12.7-2.8c-4.2,0-7.5,1.4-9.8,4.1s-3.5,6.7-3.5,11.8c0,5,1,8.8,3.1,11.4c2.1,2.6,5.1,3.9,9,3.9
						c2.1,0,4.1-0.2,5.9-0.6v-8.4h-9.5L714.5,1940.6L714.5,1940.6z"/>
				</g>
			</g>
		</g>
	</g>
</g>
<g>
	<path class="st0" d="M533.8,2009.1l-79-126.4H433c-4.4,0-6,3-3.8,6.7l53,86.5l0.3,0.4l35.9,57.5L533.8,2009.1z"/>
	<path class="st0" d="M546,1989.4c2.3-3.7,2.3-9.7,0-13.4l-53.6-86.6c-2.3-3.7-7.7-6.7-12-6.7h-22l77.2,123.5L546,1989.4z"/>
	<path class="st0" d="M501.1,2011.9l-44.2,70.8h23.5c4.3,0,9.8-3,12-6.7l21.4-34.6c0.1-0.1,0.2-0.4,0.6-1l2.2-3.6L501.1,2011.9z"/>
	<path class="st0" d="M482.3,1989.4l-53,86.5c-2.3,3.7-0.6,6.7,3.8,6.7h20.3l46-73.6l-15.4-24.8
		C483.7,1986.1,483.1,1987.9,482.3,1989.4z"/>
</g>
</svg>
