<?xml version="1.0" encoding="utf-8"?>
<!-- Generator: Adobe Illustrator 19.0.0, SVG Export Plug-In . SVG Version: 6.00 Build 0)  -->
<svg version="1.1"
	 id="dark" sodipodi:docname="–ù–æ–≤–∏–π –¥–æ–∫—É–º–µ–Ω—Ç 1" inkscape:version="0.48.2 r9819" xmlns:rdf="http://www.w3.org/1999/02/22-rdf-syntax-ns#" xmlns:inkscape="http://www.inkscape.org/namespaces/inkscape" xmlns:cc="http://creativecommons.org/ns#" xmlns:dc="http://purl.org/dc/elements/1.1/" xmlns:svg="http://www.w3.org/2000/svg" xmlns:sodipodi="http://sodipodi.sourceforge.net/DTD/sodipodi-0.dtd"
	 xmlns="http://www.w3.org/2000/svg" xmlns:xlink="http://www.w3.org/1999/xlink" x="0px" y="0px" viewBox="95.2 1678.4 610.1 200"
	 style="enable-background:new 95.2 1678.4 610.1 200;" xml:space="preserve">
<style type="text/css">
	.st0{fill:#F6C25B;}
	.st1{fill:#0A985C;}
	.st2{fill:#5586C5;}
	.st3{fill:#D9423E;}
	.st4{fill:#E6E6E5;}
	.st5{fill:#168B58;}
	.st6{fill:#D7AB56;}
</style>
<g>
	<g>
		<path class="st0" d="M122.1,1878.4h22.6c5.4,0,12-3.8,14.8-8.4l19.1-31.7c2.3-4.7,2.2-11.4-0.4-15.7l-11.3-18.6L122.1,1878.4z"/>
		<path class="st1" d="M146.4,1786.8L96.1,1871c-1.9,4.1,0.1,7.5,5.1,7.5h20.9l44.8-74.4l-20.5-33.9
			C149.2,1774.6,149.2,1782.2,146.4,1786.8"/>
		<path class="st2" d="M101.1,1678.4c-5.4,0-7.5,3.8-4.7,8.4l81.8,135.8c2.6,4.3,2.6,11.1,0.4,15.7l19.9-33.1l-76.3-126.8
			L101.1,1678.4L101.1,1678.4z"/>
		<path class="st3" d="M122.1,1678.4l76.3,126.8l11.1-18.4c2.8-4.6,2.8-12.1,0-16.7l-50-83.3c-2.8-4.6-9.4-8.4-14.8-8.4H122.1
			L122.1,1678.4z"/>
	</g>
	<g>
		<g>
			<g>
				<path class="st4" d="M293.3,1838.2h-32v-5.8l12.2-12.3c3.6-3.7,6-6.3,7.2-7.8c1.2-1.5,2-3,2.6-4.3c0.5-1.4,0.8-2.8,0.8-4.4
					c0-2.1-0.6-3.8-1.9-5c-1.3-1.2-3.1-1.8-5.3-1.8c-1.8,0-3.6,0.3-5.3,1c-1.7,0.7-3.6,1.9-5.9,3.6l-4.1-5c2.6-2.2,5.2-3.8,7.7-4.7
					c2.5-0.9,5.1-1.4,7.9-1.4c4.4,0,7.9,1.1,10.6,3.4c2.7,2.3,4,5.4,4,9.3c0,2.1-0.4,4.2-1.1,6.1c-0.8,1.9-1.9,3.9-3.5,5.9
					c-1.6,2-4.2,4.8-7.9,8.3l-8.2,8v0.3h22.4L293.3,1838.2L293.3,1838.2z"/>
				<path class="st4" d="M331.1,1814.5c0,8.2-1.3,14.3-4,18.3s-6.7,6-12.1,6c-5.3,0-9.2-2.1-12-6.2c-2.7-4.1-4.1-10.2-4.1-18.1
					c0-8.3,1.3-14.5,4-18.4c2.6-4,6.7-5.9,12.1-5.9c5.3,0,9.3,2.1,12,6.2C329.7,1800.5,331.1,1806.5,331.1,1814.5z M306.7,1814.5
					c0,6.4,0.7,11,2,13.8c1.3,2.8,3.4,4.1,6.4,4.1c2.9,0,5-1.4,6.4-4.2c1.3-2.8,2-7.4,2-13.7c0-6.3-0.7-10.9-2-13.8
					c-1.3-2.8-3.5-4.3-6.4-4.3c-2.9,0-5,1.4-6.4,4.2C307.3,1803.5,306.7,1808.1,306.7,1814.5z"/>
				<path class="st4" d="M359.1,1838.2h-7.6v-30.5c0-3.6,0.1-6.5,0.3-8.7c-0.5,0.5-1.1,1.1-1.8,1.7c-0.7,0.6-3.1,2.6-7.3,5.9
					l-3.8-4.8l13.9-10.9h6.3L359.1,1838.2L359.1,1838.2z"/>
				<path class="st4" d="M390.7,1808.6c4.8,0,8.5,1.3,11.3,3.8c2.8,2.5,4.2,6,4.2,10.3c0,5-1.6,9-4.7,11.8
					c-3.2,2.8-7.6,4.3-13.5,4.3c-5.3,0-9.4-0.9-12.5-2.6v-6.9c1.7,1,3.8,1.8,6,2.3c2.3,0.5,4.4,0.8,6.3,0.8c3.4,0,6-0.8,7.8-2.3
					c1.8-1.5,2.7-3.8,2.7-6.7c0-5.6-3.6-8.5-10.8-8.5c-1,0-2.3,0.1-3.7,0.3c-1.5,0.2-2.8,0.4-3.9,0.7l-3.4-2l1.8-23.1h24.6v6.8H385
					l-1.1,11.7c0.8-0.1,1.7-0.3,2.8-0.5C387.8,1808.7,389.1,1808.6,390.7,1808.6z"/>
				<path class="st4" d="M470,1790.9v30.6c0,3.5-0.8,6.5-2.2,9.2c-1.5,2.6-3.7,4.6-6.5,6c-2.8,1.4-6.2,2.1-10.2,2.1
					c-5.9,0-10.4-1.6-13.7-4.7c-3.3-3.1-4.9-7.4-4.9-12.8v-30.5h7.8v29.9c0,3.9,0.9,6.8,2.7,8.6c1.8,1.9,4.6,2.8,8.3,2.8
					c7.3,0,10.9-3.8,10.9-11.5v-29.8H470z"/>
				<path class="st4" d="M488.7,1819.3l4.3-5.4l10.8-11.5h8.8l-14.4,15.4l15.3,20.4h-8.9l-11.5-15.7l-4.2,3.4v12.3h-7.5v-50.3h7.5
					v24.5l-0.4,6.9L488.7,1819.3L488.7,1819.3z"/>
				<path class="st4" d="M537.3,1801.7c1.5,0,2.8,0.1,3.8,0.3l-0.7,7.1c-1.1-0.3-2.2-0.4-3.4-0.4c-3,0-5.5,1-7.4,3
					c-1.9,2-2.8,4.6-2.8,7.7v18.7h-7.6v-35.8h6l1,6.3h0.4c1.2-2.1,2.7-3.8,4.6-5.1C533.1,1802.4,535.1,1801.7,537.3,1801.7z"/>
				<path class="st4" d="M570.1,1838.2l-1.5-5h-0.3c-1.7,2.2-3.5,3.7-5.2,4.4c-1.7,0.8-4,1.2-6.7,1.2c-3.5,0-6.3-0.9-8.2-2.8
					c-2-1.9-3-4.6-3-8.1c0-3.7,1.4-6.5,4.1-8.3c2.7-1.9,6.9-2.9,12.5-3.1l6.2-0.2v-1.9c0-2.3-0.5-4-1.6-5.1c-1.1-1.1-2.7-1.7-5-1.7
					c-1.8,0-3.6,0.3-5.3,0.8c-1.7,0.5-3.3,1.2-4.8,1.9l-2.5-5.4c1.9-1,4.1-1.8,6.4-2.3c2.3-0.5,4.5-0.8,6.5-0.8c4.5,0,8,1,10.3,3
					c2.3,2,3.5,5.1,3.5,9.3v24.1H570.1z M558.8,1833c2.8,0,5-0.8,6.6-2.3c1.7-1.5,2.5-3.7,2.5-6.5v-3.1l-4.6,0.2
					c-3.6,0.1-6.2,0.7-7.8,1.8c-1.6,1.1-2.4,2.7-2.4,4.9c0,1.6,0.5,2.8,1.4,3.7C555.5,1832.5,556.9,1833,558.8,1833z"/>
				<path class="st4" d="M585.7,1792.9c0-1.4,0.4-2.4,1.1-3.1c0.7-0.7,1.8-1.1,3.2-1.1c1.3,0,2.4,0.4,3.1,1.1
					c0.7,0.7,1.1,1.8,1.1,3.1c0,1.3-0.4,2.3-1.1,3.1c-0.7,0.7-1.8,1.1-3.1,1.1c-1.4,0-2.4-0.4-3.2-1.1
					C586.1,1795.2,585.7,1794.2,585.7,1792.9z M593.8,1838.2h-7.6v-35.8h7.6V1838.2z"/>
				<path class="st4" d="M636.1,1838.2h-7.6v-22c0-2.8-0.6-4.8-1.7-6.2c-1.1-1.4-2.9-2-5.3-2c-3.2,0-5.6,0.9-7.1,2.8
					c-1.5,1.9-2.2,5.1-2.2,9.5v17.8h-7.6v-35.8h6l1.1,4.7h0.4c1.1-1.7,2.6-3,4.6-3.9c2-0.9,4.2-1.4,6.6-1.4
					c8.6,0,12.9,4.4,12.9,13.1L636.1,1838.2L636.1,1838.2z"/>
				<path class="st4" d="M662.3,1838.8c-5.6,0-9.9-1.6-13-4.9c-3.1-3.2-4.7-7.7-4.7-13.4c0-5.8,1.5-10.4,4.4-13.8
					c2.9-3.3,6.9-5,12-5c4.7,0,8.5,1.4,11.2,4.3c2.7,2.9,4.1,6.8,4.1,11.8v4.1h-23.8c0.1,3.5,1,6.1,2.8,8c1.8,1.9,4.3,2.8,7.5,2.8
					c2.1,0,4.1-0.2,5.9-0.6c1.8-0.4,3.8-1.1,5.9-2v6.2c-1.9,0.9-3.7,1.5-5.6,1.9C666.9,1838.6,664.7,1838.8,662.3,1838.8z
					 M660.9,1807.5c-2.4,0-4.3,0.8-5.8,2.3c-1.5,1.5-2.3,3.8-2.6,6.7h16.2c0-3-0.8-5.2-2.1-6.7
					C665.2,1808.3,663.3,1807.5,660.9,1807.5z"/>
			</g>
			<g>
				<g>
					<path class="st4" d="M479.4,1738.4c0,8.9-2.4,15.8-7.3,20.6c-4.9,4.8-11.7,7.2-20.6,7.2h-17.2v-53.4h18.4
						c8.5,0,15.1,2.2,19.7,6.6C477.1,1723.8,479.4,1730.2,479.4,1738.4z M464.5,1739c0-4.9-1-8.5-2.9-10.9c-1.9-2.4-4.8-3.5-8.8-3.5
						h-4.2v29.9h3.2c4.4,0,7.6-1.3,9.6-3.8C463.5,1748.1,464.5,1744.2,464.5,1739z"/>
				</g>
				<g>
					<path class="st4" d="M503.5,1767c-6.9,0-12.2-1.8-16-5.5c-3.8-3.7-5.7-8.9-5.7-15.7c0-7,1.8-12.4,5.3-16.1
						c3.5-3.7,8.5-5.6,15-5.6c6.2,0,11,1.6,14.4,4.9c3.4,3.3,5.1,7.9,5.1,14.1v6.4h-25.4c0.1,2.3,0.9,4.1,2.5,5.4
						c1.6,1.3,3.7,2,6.5,2c2.5,0,4.8-0.2,6.9-0.7c2.1-0.5,4.4-1.3,6.8-2.4v10.3c-2.2,1.2-4.5,1.9-6.9,2.4
						C509.6,1766.8,506.8,1767,503.5,1767z M502.7,1733.9c-1.7,0-3.1,0.5-4.2,1.6c-1.1,1.1-1.8,2.7-2,5h12.2c-0.1-2-0.6-3.6-1.7-4.8
						C505.9,1734.5,504.5,1733.9,502.7,1733.9z"/>
				</g>
				<g>
					<path class="st4" d="M535.9,1766.3l-15.7-41.4H535l7,24.5c0,0.1,0.1,0.3,0.2,0.6c0.1,0.3,0.1,0.6,0.2,1
						c0.1,0.4,0.1,0.8,0.2,1.3c0.1,0.5,0.1,0.9,0.1,1.3h0.2c0-1.3,0.2-2.6,0.7-4.1l7.3-24.6h14.8l-15.7,41.4H535.9z"/>
				</g>
				<g>
					<path class="st4" d="M581,1766.3h-14.1v-53.4h31.4v11.6H581v10.2h15.9v11.6H581L581,1766.3L581,1766.3z"/>
				</g>
				<g>
					<path class="st4" d="M621.5,1767c-6.8,0-12.1-1.8-16-5.5c-3.8-3.7-5.7-8.9-5.7-15.7c0-7,1.8-12.4,5.3-16.1
						c3.5-3.7,8.5-5.6,15-5.6c6.2,0,11,1.6,14.4,4.9c3.4,3.3,5.1,7.9,5.1,14.1v6.4h-25.4c0.1,2.3,0.9,4.1,2.5,5.4
						c1.6,1.3,3.7,2,6.5,2c2.5,0,4.8-0.2,6.9-0.7c2.1-0.5,4.3-1.3,6.8-2.4v10.3c-2.2,1.2-4.5,1.9-6.9,2.4
						C627.6,1766.8,624.8,1767,621.5,1767z M620.7,1733.9c-1.7,0-3.1,0.5-4.2,1.6c-1.1,1.1-1.8,2.7-2,5h12.2c-0.1-2-0.6-3.6-1.7-4.8
						C623.9,1734.5,622.5,1733.9,620.7,1733.9z"/>
				</g>
				<g>
					<path class="st4" d="M674.9,1753.6c0,4.4-1.5,7.8-4.5,10.1c-3,2.3-7.3,3.4-12.9,3.4c-3,0-5.7-0.2-7.9-0.5
						c-2.3-0.3-4.5-0.9-6.9-1.8v-11.4c2.2,1,4.6,1.8,7.2,2.4c2.6,0.6,5,0.9,7,0.9c3.1,0,4.6-0.7,4.6-2.1c0-0.7-0.4-1.4-1.3-2
						c-0.9-0.6-3.4-1.7-7.5-3.3c-3.8-1.6-6.4-3.3-7.9-5.3c-1.5-2-2.3-4.5-2.3-7.5c0-3.8,1.5-6.8,4.4-9c2.9-2.2,7.1-3.2,12.5-3.2
						c2.7,0,5.3,0.3,7.6,0.9c2.4,0.6,4.8,1.5,7.4,2.6l-3.8,9.2c-1.9-0.8-3.9-1.6-6-2.2c-2.1-0.6-3.8-0.9-5.1-0.9
						c-2.3,0-3.5,0.6-3.5,1.7c0,0.7,0.4,1.3,1.2,1.8c0.8,0.5,3.2,1.5,7,3.1c2.9,1.2,5,2.4,6.4,3.5c1.4,1.1,2.5,2.5,3.1,4
						C674.5,1749.5,674.9,1751.4,674.9,1753.6z"/>
				</g>
				<g>
					<path class="st4" d="M698.4,1755.7c1.9,0,4.2-0.5,6.9-1.4v10.4c-1.9,0.8-3.7,1.4-5.5,1.8c-1.7,0.4-3.8,0.5-6.1,0.5
						c-4.8,0-8.2-1.2-10.3-3.5c-2.1-2.4-3.2-6-3.2-10.8v-17.1h-5v-5.8l6.3-4.5l3.7-8.7h9.3v8.3h10.1v10.7h-10.1v16.1
						C694.6,1754.4,695.9,1755.7,698.4,1755.7z"/>
				</g>
			</g>
			<g>
				<g>
					<path class="st4" d="M278.3,1736.3h23.1v28.8c-6.3,2.1-13.2,3.2-20.7,3.2c-8.2,0-14.6-2.4-19.1-7.2c-4.5-4.8-6.7-11.6-6.7-20.4
						c0-8.6,2.5-15.3,7.4-20.1c4.9-4.8,11.8-7.2,20.7-7.2c3.4,0,6.5,0.3,9.5,1c3,0.6,5.6,1.4,7.8,2.4l-4.6,11.3
						c-3.8-1.9-8.1-2.8-12.7-2.8c-4.2,0-7.5,1.4-9.8,4.1c-2.3,2.7-3.5,6.7-3.5,11.8c0,5,1,8.8,3.1,11.4c2.1,2.6,5.1,3.9,9,3.9
						c2.1,0,4.1-0.2,5.9-0.6v-8.4h-9.5L278.3,1736.3L278.3,1736.3L278.3,1736.3z"/>
				</g>
				<g>
					<path class="st4" d="M353.1,1739.7c0,8.9-2.5,15.8-7.4,20.6c-4.9,4.8-11.8,7.2-20.7,7.2h-17.3v-53.5h18.5
						c8.6,0,15.2,2.2,19.9,6.6C350.8,1725.1,353.1,1731.4,353.1,1739.7z M338.1,1740.2c0-4.9-1-8.5-2.9-10.9
						c-1.9-2.4-4.9-3.6-8.8-3.6h-4.2v29.9h3.2c4.4,0,7.6-1.3,9.7-3.8C337.1,1749.4,338.1,1745.5,338.1,1740.2z"/>
				</g>
				<g>
					<path class="st4" d="M379.7,1736.3h23.1v28.8c-6.3,2.1-13.1,3.2-20.7,3.2c-8.2,0-14.6-2.4-19.1-7.2c-4.5-4.8-6.7-11.6-6.7-20.4
						c0-8.6,2.5-15.3,7.4-20.1c4.9-4.8,11.8-7.2,20.7-7.2c3.4,0,6.5,0.3,9.5,1c3,0.6,5.6,1.4,7.8,2.4l-4.6,11.3
						c-3.9-1.9-8.1-2.8-12.7-2.8c-4.2,0-7.5,1.4-9.8,4.1c-2.3,2.7-3.5,6.7-3.5,11.8c0,5,1,8.8,3.1,11.4c2.1,2.6,5.1,3.9,9,3.9
						c2.1,0,4.1-0.2,5.9-0.6v-8.4h-9.5L379.7,1736.3L379.7,1736.3z"/>
				</g>
			</g>
		</g>
	</g>
</g>
<path class="st5" d="M146.4,1786.8l-12,20.1l21.5,15.3l11-18.2l-20.5-33.9C149.2,1774.6,149.2,1782.2,146.4,1786.8z"/>
<path class="st6" d="M166.9,1804l-11,18.2l22.6,16.1c2.3-4.7,2.2-11.4-0.4-15.7L166.9,1804z"/>
</svg>
