<svg id="Layer_1" xmlns="http://www.w3.org/2000/svg" viewBox="428.2 1882.7 611.9 200"><style>.st0{fill:#FFFFFF;}</style><path class="st0" d="M628.1 2042.4h-32v-5.8l12.2-12.3c3.6-3.7 6-6.3 7.2-7.8s2-3 2.6-4.3c.5-1.4.8-2.8.8-4.4 0-2.1-.6-3.8-1.9-5s-3.1-1.8-5.3-1.8c-1.8 0-3.6.3-5.3 1s-3.6 1.9-5.9 3.6l-4.1-5c2.6-2.2 5.2-3.8 7.7-4.7 2.5-.9 5.1-1.4 7.9-1.4 4.4 0 7.9 1.1 10.6 3.4s4 5.4 4 9.3c0 2.1-.4 4.2-1.1 6.1-.8 1.9-1.9 3.9-3.5 5.9-1.6 2-4.2 4.8-7.9 8.3l-8.2 8v.3h22.4l-.2 6.6zM665.9 2018.8c0 8.2-1.3 14.3-4 18.3s-6.7 6-12.1 6c-5.3 0-9.2-2.1-12-6.2-2.7-4.1-4.1-10.2-4.1-18.1 0-8.3 1.3-14.5 4-18.4 2.6-4 6.7-5.9 12.1-5.9 5.3 0 9.3 2.1 12 6.2s4.1 10.1 4.1 18.1zm-24.4 0c0 6.4.7 11 2 13.8s3.4 4.1 6.4 4.1c2.9 0 5-1.4 6.4-4.2 1.3-2.8 2-7.4 2-13.7 0-6.3-.7-10.9-2-13.8-1.3-2.8-3.5-4.3-6.4-4.3-2.9 0-5 1.4-6.4 4.2-1.4 2.9-2 7.4-2 13.9zM693.9 2042.4h-7.6v-30.5c0-3.6.1-6.5.3-8.7-.5.5-1.1 1.1-1.8 1.7s-3.1 2.6-7.3 5.9l-3.8-4.8 13.9-10.9h6.3v47.3zM725.5 2012.8c4.8 0 8.5 1.3 11.3 3.8s4.2 6 4.2 10.3c0 5-1.6 9-4.7 11.8-3.2 2.8-7.6 4.3-13.5 4.3-5.3 0-9.4-.9-12.5-2.6v-6.9c1.7 1 3.8 1.8 6 2.3 2.3.5 4.4.8 6.3.8 3.4 0 6-.8 7.8-2.3s2.7-3.8 2.7-6.7c0-5.6-3.6-8.5-10.8-8.5-1 0-2.3.1-3.7.3-1.5.2-2.8.4-3.9.7l-3.4-2 1.8-23.1h24.6v6.8h-17.9l-1.1 11.7c.8-.1 1.7-.3 2.8-.5 1.1-.1 2.4-.2 4-.2zM804.8 1995.2v30.6c0 3.5-.8 6.5-2.2 9.2-1.5 2.6-3.7 4.6-6.5 6s-6.2 2.1-10.2 2.1c-5.9 0-10.4-1.6-13.7-4.7-3.3-3.1-4.9-7.4-4.9-12.8V1995h7.8v29.9c0 3.9.9 6.8 2.7 8.6 1.8 1.9 4.6 2.8 8.3 2.8 7.3 0 10.9-3.8 10.9-11.5V1995h7.8v.2zM823.5 2023.6l4.3-5.4 10.8-11.5h8.8l-14.4 15.4 15.3 20.4h-8.9l-11.5-15.7-4.2 3.4v12.3h-7.5v-50.3h7.5v24.5l-.4 6.9h.2zM872.1 2005.9c1.5 0 2.8.1 3.8.3l-.7 7.1c-1.1-.3-2.2-.4-3.4-.4-3 0-5.5 1-7.4 3s-2.8 4.6-2.8 7.7v18.7H854v-35.8h6l1 6.3h.4c1.2-2.1 2.7-3.8 4.6-5.1 1.9-1 3.9-1.8 6.1-1.8zM904.9 2042.4l-1.5-5h-.3c-1.7 2.2-3.5 3.7-5.2 4.4-1.7.8-4 1.2-6.7 1.2-3.5 0-6.3-.9-8.2-2.8-2-1.9-3-4.6-3-8.1 0-3.7 1.4-6.5 4.1-8.3 2.7-1.9 6.9-2.9 12.5-3.1l6.2-.2v-1.9c0-2.3-.5-4-1.6-5.1s-2.7-1.7-5-1.7c-1.8 0-3.6.3-5.3.8s-3.3 1.2-4.8 1.9l-2.5-5.4c1.9-1 4.1-1.8 6.4-2.3 2.3-.5 4.5-.8 6.5-.8 4.5 0 8 1 10.3 3s3.5 5.1 3.5 9.3v24.1h-5.4zm-11.3-5.2c2.8 0 5-.8 6.6-2.3 1.7-1.5 2.5-3.7 2.5-6.5v-3.1l-4.6.2c-3.6.1-6.2.7-7.8 1.8-1.6 1.1-2.4 2.7-2.4 4.9 0 1.6.5 2.8 1.4 3.7 1 .9 2.4 1.3 4.3 1.3zM920.5 1997.2c0-1.4.4-2.4 1.1-3.1.7-.7 1.8-1.1 3.2-1.1 1.3 0 2.4.4 3.1 1.1.7.7 1.1 1.8 1.1 3.1s-.4 2.3-1.1 3.1c-.7.7-1.8 1.1-3.1 1.1-1.4 0-2.4-.4-3.2-1.1-.7-.9-1.1-1.9-1.1-3.1zm8.1 45.2H921v-35.8h7.6v35.8zM970.9 2042.4h-7.6v-22c0-2.8-.6-4.8-1.7-6.2-1.1-1.4-2.9-2-5.3-2-3.2 0-5.6.9-7.1 2.8s-2.2 5.1-2.2 9.5v17.8h-7.6v-35.8h6l1.1 4.7h.4c1.1-1.7 2.6-3 4.6-3.9s4.2-1.4 6.6-1.4c8.6 0 12.9 4.4 12.9 13.1l-.1 23.4zM997.1 2043.1c-5.6 0-9.9-1.6-13-4.9-3.1-3.2-4.7-7.7-4.7-13.4 0-5.8 1.5-10.4 4.4-13.8 2.9-3.3 6.9-5 12-5 4.7 0 8.5 1.4 11.2 4.3s4.1 6.8 4.1 11.8v4.1h-23.8c.1 3.5 1 6.1 2.8 8s4.3 2.8 7.5 2.8c2.1 0 4.1-.2 5.9-.6 1.8-.4 3.8-1.1 5.9-2v6.2c-1.9.9-3.7 1.5-5.6 1.9-2.1.3-4.3.6-6.7.6zm-1.4-31.3c-2.4 0-4.3.8-5.8 2.3s-2.3 3.8-2.6 6.7h16.2c0-3-.8-5.2-2.1-6.7-1.4-1.5-3.3-2.3-5.7-2.3z"/><g><path class="st0" d="M814.2 1942.7c0 8.9-2.4 15.8-7.3 20.6-4.9 4.8-11.7 7.2-20.6 7.2h-17.2V1917h18.4c8.5 0 15.1 2.2 19.7 6.6 4.7 4.5 7 10.8 7 19.1zm-14.9.5c0-4.9-1-8.5-2.9-10.9-1.9-2.4-4.8-3.5-8.8-3.5h-4.2v29.9h3.2c4.4 0 7.6-1.3 9.6-3.8 2.1-2.6 3.1-6.5 3.1-11.7zM838.3 1971.2c-6.9 0-12.2-1.8-16-5.5s-5.7-8.9-5.7-15.7c0-7 1.8-12.4 5.3-16.1s8.5-5.6 15-5.6c6.2 0 11 1.6 14.4 4.9s5.1 7.9 5.1 14.1v6.4H831c.1 2.3.9 4.1 2.5 5.4 1.6 1.3 3.7 2 6.5 2 2.5 0 4.8-.2 6.9-.7s4.4-1.3 6.8-2.4v10.3c-2.2 1.2-4.5 1.9-6.9 2.4-2.4.4-5.2.5-8.5.5zm-.8-33c-1.7 0-3.1.5-4.2 1.6s-1.8 2.7-2 5h12.2c-.1-2-.6-3.6-1.7-4.8-1.1-1.2-2.5-1.8-4.3-1.8zM870.7 1970.6l-15.7-41.4h14.8l7 24.5c0 .1.1.3.2.6s.1.6.2 1 .1.8.2 1.3.1.9.1 1.3h.2c0-1.3.2-2.6.7-4.1l7.3-24.6h14.8l-15.7 41.4h-14.1zM915.8 1970.6h-14.1v-53.4h31.4v11.6h-17.3v10.2h15.9v11.6h-15.9v20zM956.3 1971.2c-6.8 0-12.1-1.8-16-5.5-3.8-3.7-5.7-8.9-5.7-15.7 0-7 1.8-12.4 5.3-16.1s8.5-5.6 15-5.6c6.2 0 11 1.6 14.4 4.9s5.1 7.9 5.1 14.1v6.4H949c.1 2.3.9 4.1 2.5 5.4s3.7 2 6.5 2c2.5 0 4.8-.2 6.9-.7 2.1-.5 4.3-1.3 6.8-2.4v10.3c-2.2 1.2-4.5 1.9-6.9 2.4-2.4.4-5.2.5-8.5.5zm-.8-33c-1.7 0-3.1.5-4.2 1.6s-1.8 2.7-2 5h12.2c-.1-2-.6-3.6-1.7-4.8-1.1-1.2-2.5-1.8-4.3-1.8zM1009.7 1957.8c0 4.4-1.5 7.8-4.5 10.1s-7.3 3.4-12.9 3.4c-3 0-5.7-.2-7.9-.5-2.3-.3-4.5-.9-6.9-1.8v-11.4c2.2 1 4.6 1.8 7.2 2.4 2.6.6 5 .9 7 .9 3.1 0 4.6-.7 4.6-2.1 0-.7-.4-1.4-1.3-2-.9-.6-3.4-1.7-7.5-3.3-3.8-1.6-6.4-3.3-7.9-5.3s-2.3-4.5-2.3-7.5c0-3.8 1.5-6.8 4.4-9s7.1-3.2 12.5-3.2c2.7 0 5.3.3 7.6.9 2.4.6 4.8 1.5 7.4 2.6l-3.8 9.2c-1.9-.8-3.9-1.6-6-2.2s-3.8-.9-5.1-.9c-2.3 0-3.5.6-3.5 1.7 0 .7.4 1.3 1.2 1.8s3.2 1.5 7 3.1c2.9 1.2 5 2.4 6.4 3.5s2.5 2.5 3.1 4c.8 1.6 1.2 3.5 1.2 5.6zM1033.2 1959.9c1.9 0 4.2-.5 6.9-1.4v10.4c-1.9.8-3.7 1.4-5.5 1.8-1.7.4-3.8.5-6.1.5-4.8 0-8.2-1.2-10.3-3.5-2.1-2.4-3.2-6-3.2-10.8v-17.1h-5v-5.8l6.3-4.5 3.7-8.7h9.3v8.3h10.1v10.7h-10.1v16.1c.1 2.8 1.4 4 3.9 4z"/></g><g><path class="st0" d="M613.1 1940.6h23.1v28.8c-6.3 2.1-13.2 3.2-20.7 3.2-8.2 0-14.6-2.4-19.1-7.2-4.5-4.8-6.7-11.6-6.7-20.4 0-8.6 2.5-15.3 7.4-20.1 4.9-4.8 11.8-7.2 20.7-7.2 3.4 0 6.5.3 9.5 1 3 .6 5.6 1.4 7.8 2.4l-4.6 11.3c-3.8-1.9-8.1-2.8-12.7-2.8-4.2 0-7.5 1.4-9.8 4.1s-3.5 6.7-3.5 11.8c0 5 1 8.8 3.1 11.4 2.1 2.6 5.1 3.9 9 3.9 2.1 0 4.1-.2 5.9-.6v-8.4H613l.1-11.2zM687.9 1943.9c0 8.9-2.5 15.8-7.4 20.6-4.9 4.8-11.8 7.2-20.7 7.2h-17.3v-53.5H661c8.6 0 15.2 2.2 19.9 6.6 4.7 4.5 7 10.9 7 19.1zm-15 .5c0-4.9-1-8.5-2.9-10.9-1.9-2.4-4.9-3.6-8.8-3.6H657v29.9h3.2c4.4 0 7.6-1.3 9.7-3.8 2-2.3 3-6.2 3-11.6zM714.5 1940.6h23.1v28.8c-6.3 2.1-13.1 3.2-20.7 3.2-8.2 0-14.6-2.4-19.1-7.2-4.5-4.8-6.7-11.6-6.7-20.4 0-8.6 2.5-15.3 7.4-20.1 4.9-4.8 11.8-7.2 20.7-7.2 3.4 0 6.5.3 9.5 1 3 .6 5.6 1.4 7.8 2.4l-4.6 11.3c-3.9-1.9-8.1-2.8-12.7-2.8-4.2 0-7.5 1.4-9.8 4.1s-3.5 6.7-3.5 11.8c0 5 1 8.8 3.1 11.4 2.1 2.6 5.1 3.9 9 3.9 2.1 0 4.1-.2 5.9-.6v-8.4h-9.5l.1-11.2z"/></g><g><path class="st0" d="M533.8 2009.1l-79-126.4H433c-4.4 0-6 3-3.8 6.7l53 86.5.3.4 35.9 57.5 15.4-24.7zM546 1989.4c2.3-3.7 2.3-9.7 0-13.4l-53.6-86.6c-2.3-3.7-7.7-6.7-12-6.7h-22l77.2 123.5 10.4-16.8zM501.1 2011.9l-44.2 70.8h23.5c4.3 0 9.8-3 12-6.7l21.4-34.6c.1-.1.2-.4.6-1l2.2-3.6-15.5-24.9zM482.3 1989.4l-53 86.5c-2.3 3.7-.6 6.7 3.8 6.7h20.3l46-73.6-15.4-24.8c-.3 1.9-.9 3.7-1.7 5.2z"/></g></svg>