<?xml version="1.0" encoding="utf-8"?>
<!-- Generator: Adobe Illustrator 18.0.0, SVG Export Plug-In . SVG Version: 6.00 Build 0)  -->
<!DOCTYPE svg PUBLIC "-//W3C//DTD SVG 1.1//EN" "http://www.w3.org/Graphics/SVG/1.1/DTD/svg11.dtd">
<svg version="1.1" id="Layer_1" xmlns="http://www.w3.org/2000/svg" xmlns:xlink="http://www.w3.org/1999/xlink" x="0px" y="0px"
	 width="1529.7px" height="500px" viewBox="-703.7 -230 1529.7 500" enable-background="new -703.7 -230 1529.7 500"
	 xml:space="preserve">
<g>
	<path fill="#FFFFFF" d="M-439.7,86.1L-637.2-230h-54.5c-10.9,0-15.1,7.6-9.4,16.8L-568.5,3.2l0.7,1.1l89.8,143.8L-439.7,86.1z"/>
	<path fill="#FFFFFF" d="M-409.2,36.8c5.7-9.2,5.7-24.3,0-33.6l-134-216.5c-5.7-9.2-19.3-16.8-30.1-16.8h-55l193,308.9L-409.2,36.8z
		"/>
	<path fill="#FFFFFF" d="M-521.4,93l-110.6,177h58.8c10.8,0,24.4-7.5,30.1-16.8l53.5-86.5c0.2-0.3,0.6-1,1.5-2.4l5.6-9.1L-521.4,93z
		"/>
	<path fill="#FFFFFF" d="M-568.5,36.8l-132.6,216.4c-5.7,9.3-1.4,16.8,9.4,16.8h50.7l115.1-184.1L-564.5,24
		C-565,28.7-566.3,33.2-568.5,36.8z"/>
</g>
<g>
	<path fill="#FFFFFF" d="M261.5-88.9c0,22.3-6.1,39.5-18.3,51.6c-12.2,12.1-29.3,18.1-51.4,18.1h-42.9v-133.6h45.9
		c21.3,0,37.7,5.5,49.3,16.4C255.7-125.4,261.5-109.6,261.5-88.9z M224.3-87.6c0-12.2-2.4-21.3-7.2-27.2c-4.8-5.9-12.1-8.9-21.9-8.9
		h-10.4v74.8h8c10.9,0,18.9-3.2,23.9-9.5S224.3-74.5,224.3-87.6z"/>
	<path fill="#FFFFFF" d="M321.6-17.4c-17.1,0-30.4-4.6-39.9-13.8c-9.5-9.2-14.2-22.2-14.2-39.2c0-17.5,4.4-30.9,13.2-40.3
		c8.8-9.3,21.3-14,37.5-14c15.5,0,27.4,4.1,35.9,12.2s12.7,19.9,12.7,35.1v15.9h-63.4c0.2,5.8,2.3,10.3,6.3,13.6
		c4,3.3,9.3,4.9,16.2,4.9c6.2,0,12-0.6,17.2-1.8c5.2-1.2,10.9-3.2,17-6.1V-25c-5.6,2.9-11.3,4.8-17.2,5.9
		C336.9-17.9,329.9-17.4,321.6-17.4z M319.5-100.3c-4.2,0-7.7,1.3-10.5,4c-2.8,2.6-4.5,6.8-5,12.5h30.5c-0.1-5-1.5-9-4.2-12
		C327.7-98.8,324.1-100.3,319.5-100.3z"/>
	<path fill="#FFFFFF" d="M402.6-19.2l-39.2-103.5h37l17.4,61.2c0.1,0.3,0.2,0.8,0.4,1.5c0.2,0.7,0.4,1.6,0.5,2.6
		c0.2,1,0.3,2.1,0.5,3.2c0.2,1.1,0.2,2.2,0.2,3.1h0.6c0-3.2,0.5-6.6,1.6-10.3l18.2-61.4h36.9L437.7-19.2L402.6-19.2L402.6-19.2z"/>
	<path fill="#FFFFFF" d="M515.4-19.2h-35.3v-133.6h78.4v29h-43.1v25.5h39.7v29h-39.7V-19.2z"/>
	<path fill="#FFFFFF" d="M616.6-17.4c-17.1,0-30.4-4.6-39.9-13.8c-9.5-9.2-14.2-22.2-14.2-39.2c0-17.5,4.4-30.9,13.2-40.3
		c8.8-9.3,21.3-14,37.5-14c15.5,0,27.4,4.1,35.9,12.2c8.4,8.1,12.7,19.9,12.7,35.1v15.9h-63.4c0.3,5.8,2.3,10.3,6.3,13.6
		c4,3.3,9.3,4.9,16.2,4.9c6.2,0,12-0.6,17.2-1.8c5.2-1.2,10.9-3.2,17-6.1V-25c-5.6,2.9-11.3,4.8-17.2,5.9
		C631.9-17.9,624.8-17.4,616.6-17.4z M614.5-100.3c-4.2,0-7.7,1.3-10.5,4c-2.8,2.6-4.5,6.8-5,12.5h30.5c-0.1-5-1.5-9-4.2-12
		C622.6-98.8,619-100.3,614.5-100.3z"/>
	<path fill="#FFFFFF" d="M750-51c0,11.1-3.8,19.5-11.3,25.1c-7.5,5.7-18.3,8.5-32.3,8.5c-7.6,0-14.2-0.4-19.9-1.2
		c-5.6-0.8-11.4-2.3-17.2-4.5v-28.6c5.5,2.4,11.5,4.4,18.1,6c6.6,1.6,12.4,2.4,17.5,2.4c7.7,0,11.5-1.8,11.5-5.3
		c0-1.8-1.1-3.5-3.2-4.9c-2.1-1.4-8.4-4.2-18.7-8.4c-9.4-3.9-16-8.3-19.8-13.3c-3.7-5-5.6-11.2-5.6-18.9c0-9.6,3.7-17.1,11.1-22.5
		c7.4-5.4,17.8-8,31.3-8c6.8,0,13.1,0.8,19.1,2.2c5.9,1.5,12.1,3.7,18.5,6.5l-9.6,23c-4.7-2.1-9.7-3.9-15-5.4
		c-5.3-1.5-9.5-2.2-12.9-2.2c-5.8,0-8.7,1.4-8.7,4.3c0,1.8,1,3.3,3,4.5c2,1.3,7.9,3.8,17.5,7.6c7.2,3,12.5,5.9,16.1,8.8
		c3.5,2.9,6.1,6.2,7.8,10.1C749.2-61.3,750-56.6,750-51z"/>
	<path fill="#FFFFFF" d="M808.9-45.6c4.8,0,10.5-1.2,17.2-3.6v26.1c-4.8,2.1-9.3,3.6-13.7,4.4c-4.3,0.9-9.4,1.3-15.2,1.3
		c-11.9,0-20.5-2.9-25.8-8.8c-5.3-5.9-7.9-14.9-7.9-27.1V-96h-12.4v-14.5l15.8-11.2l9.2-21.8h23.2v20.8h25.2V-96h-25.2v40.3
		C799.3-49,802.5-45.6,808.9-45.6z"/>
</g>
<g>
	<path fill="#FFFFFF" d="M-202,160.4h-85.4v-15.3l32.5-32.7c9.6-9.8,16-16.8,19.1-20.9c3.1-4.1,5.4-8,6.9-11.6
		c1.4-3.6,2.2-7.5,2.2-11.6c0-5.7-1.7-10.2-5.1-13.5c-3.4-3.3-8.2-4.9-14.2-4.9c-4.8,0-9.5,0.9-14,2.7c-4.5,1.8-9.7,5-15.6,9.6
		l-10.9-13.4c7-5.9,13.8-10.1,20.4-12.6c6.6-2.5,13.6-3.7,21.1-3.7c11.7,0,21.1,3.1,28.2,9.2c7.1,6.1,10.6,14.4,10.6,24.7
		c0,5.7-1,11.1-3.1,16.2s-5.2,10.4-9.4,15.8c-4.2,5.4-11.3,12.8-21.1,22l-21.9,21.2v0.9h59.8C-202,142.6-202,160.4-202,160.4z"/>
	<path fill="#FFFFFF" d="M-111.9,97.4c0,21.9-3.5,38.2-10.6,48.8c-7,10.6-17.8,16-32.3,16c-14,0-24.7-5.5-31.9-16.5
		c-7.2-11-10.9-27.1-10.9-48.3c0-22.2,3.5-38.6,10.6-49.2c7-10.5,17.8-15.8,32.2-15.8c14.1,0,24.7,5.5,32,16.5
		C-115.5,60-111.9,76.2-111.9,97.4z M-177,97.4c0,17.2,1.8,29.4,5.3,36.8c3.5,7.3,9.2,11,16.9,11s13.4-3.7,17-11.2
		c3.6-7.5,5.4-19.7,5.4-36.6c0-16.9-1.8-29.1-5.4-36.7c-3.6-7.6-9.3-11.3-17-11.3s-13.4,3.7-16.9,11.1C-175.2,68-177,80.3-177,97.4z
		"/>
	<path fill="#FFFFFF" d="M-47.7,160.4h-20.2V79.1c0-9.7,0.2-17.4,0.7-23.1c-1.3,1.4-3,2.9-4.9,4.6c-1.9,1.7-8.4,6.9-19.4,15.9
		l-10.2-12.8l37.1-29.1h16.9C-47.7,34.4-47.7,160.4-47.7,160.4z"/>
	<path fill="#FFFFFF" d="M25.8,81.7c12.7,0,22.7,3.4,30.2,10.1c7.4,6.7,11.1,15.9,11.1,27.5c0,13.4-4.2,24-12.6,31.5
		c-8.4,7.6-20.4,11.3-35.9,11.3c-14.1,0-25.1-2.3-33.2-6.8V137c4.7,2.6,10,4.7,16,6.1c6,1.4,11.6,2.2,16.8,2.2
		c9.1,0,16.1-2,20.9-6.1c4.8-4.1,7.1-10.1,7.1-17.9c0-15.1-9.6-22.6-28.8-22.6c-2.7,0-6,0.3-10,0.8c-4,0.6-7.4,1.2-10.4,1.9l-9-5.3
		l4.8-61.5h65.5v18H10.6L7.8,83.6c2-0.3,4.5-0.7,7.4-1.2S21.6,81.7,25.8,81.7z"/>
	<path fill="#FFFFFF" d="M190,126.2c0,11.2-4,20-12.1,26.4c-8.1,6.4-19.3,9.6-33.5,9.6c-14.3,0-25.9-2.2-35-6.6v-19.5
		c5.7,2.7,11.8,4.8,18.3,6.4c6.5,1.6,12.5,2.3,18.1,2.3c8.2,0,14.2-1.6,18.1-4.6c3.9-3.1,5.8-7.3,5.8-12.5c0-4.7-1.8-8.7-5.4-12
		c-3.6-3.3-10.9-7.2-22.1-11.6c-11.5-4.6-19.6-10-24.3-16c-4.7-6-7.1-13.2-7.1-21.5c0-10.5,3.7-18.8,11.2-24.8c7.5-6,17.5-9,30.1-9
		c12.1,0,24.1,2.6,36,7.9l-6.6,16.8c-11.2-4.7-21.2-7.1-30-7.1c-6.7,0-11.7,1.4-15.2,4.3c-3.5,2.9-5.2,6.7-5.2,11.5
		c0,3.3,0.7,6.1,2.1,8.4c1.4,2.3,3.6,4.5,6.8,6.6c3.2,2.1,8.8,4.8,17.1,8.2c9.2,3.9,16,7.4,20.3,10.8c4.3,3.3,7.5,7.1,9.5,11.3
		C189,115.6,190,120.5,190,126.2z"/>
	<path fill="#FFFFFF" d="M243.3,162.2c-14.8,0-26.4-4.3-34.8-13S196,128.6,196,113.5c0-15.6,3.9-27.8,11.6-36.7s18.4-13.4,32-13.4
		c12.6,0,22.5,3.8,29.8,11.5c7.3,7.6,11,18.2,11,31.6v10.9h-63.5c0.3,9.3,2.8,16.4,7.5,21.3c4.7,5,11.3,7.5,19.9,7.5
		c5.6,0,10.9-0.5,15.7-1.6c4.9-1.1,10.1-2.8,15.6-5.3v16.5c-4.9,2.4-9.9,4-15,5C255.6,161.7,249.8,162.2,243.3,162.2z M239.6,78.7
		c-6.4,0-11.6,2-15.5,6.1c-3.9,4.1-6.2,10-6.9,17.8h43.3c-0.1-7.9-2-13.8-5.7-17.9C251.1,80.8,246,78.7,239.6,78.7z"/>
	<path fill="#FFFFFF" d="M352.4,160.4l-4-13.3h-0.7c-4.6,5.8-9.2,9.8-13.9,11.8c-4.7,2.1-10.6,3.2-17.9,3.2
		c-9.4,0-16.7-2.5-21.9-7.6c-5.3-5-7.9-12.2-7.9-21.5c0-9.8,3.6-17.2,11-22.2c7.3-5,18.4-7.7,33.3-8.2l16.5-0.5v-5.1
		c0-6.1-1.4-10.6-4.3-13.7c-2.8-3-7.3-4.5-13.2-4.5c-4.9,0-9.6,0.7-14.1,2.2c-4.5,1.4-8.8,3.1-12.9,5.1l-6.6-14.5
		c5.2-2.7,10.8-4.7,17-6.2c6.1-1.4,12-2.1,17.4-2.1c12.1,0,21.3,2.6,27.4,7.9c6.2,5.3,9.3,13.6,9.3,24.9v64.2H352.4z M322.3,146.6
		c7.3,0,13.3-2,17.7-6.2s6.7-9.9,6.7-17.3v-8.3l-12.2,0.5c-9.5,0.3-16.5,1.9-20.8,4.8c-4.4,2.9-6.5,7.2-6.5,13.1
		c0,4.3,1.3,7.5,3.8,9.9C313.4,145.5,317.2,146.6,322.3,146.6z"/>
	<path fill="#FFFFFF" d="M448.6,133.3c0,9.3-3.4,16.5-10.2,21.4c-6.8,5-16.5,7.5-29.1,7.5c-12.7,0-22.9-1.9-30.6-5.8v-17.5
		c11.2,5.2,21.6,7.8,31.3,7.8c12.5,0,18.7-3.8,18.7-11.3c0-2.4-0.7-4.4-2.1-6c-1.4-1.6-3.6-3.3-6.8-5s-7.6-3.7-13.2-5.9
		c-11-4.3-18.4-8.5-22.3-12.8c-3.9-4.3-5.8-9.8-5.8-16.5c0-8.2,3.3-14.5,9.9-19c6.6-4.5,15.5-6.8,26.9-6.8c11.2,0,21.8,2.3,31.8,6.8
		l-6.6,15.3c-10.3-4.3-18.9-6.4-25.9-6.4c-10.7,0-16,3-16,9.1c0,3,1.4,5.5,4.2,7.6c2.8,2.1,8.9,4.9,18.2,8.5
		c7.9,3,13.6,5.8,17.2,8.4c3.5,2.5,6.2,5.5,7.9,8.8C447.8,124.7,448.6,128.7,448.6,133.3z"/>
	<path fill="#FFFFFF" d="M544.5,112.6c0,15.6-4,27.7-12,36.5c-8,8.7-19.1,13.1-33.4,13.1c-8.9,0-16.8-2-23.6-6s-12.1-9.8-15.8-17.3
		s-5.5-16.3-5.5-26.2c0-15.5,4-27.5,11.9-36.2c7.9-8.7,19.1-13,33.5-13c13.8,0,24.7,4.4,32.8,13.3
		C540.5,85.6,544.5,97.6,544.5,112.6z M475.1,112.6c0,22,8.1,33,24.4,33c16.1,0,24.1-11,24.1-33c0-21.8-8.1-32.7-24.3-32.7
		c-8.5,0-14.7,2.8-18.5,8.5C477,94,475.1,102.1,475.1,112.6z"/>
	<path fill="#FFFFFF" d="M641,160.4h-20.3v-58.6c0-7.3-1.5-12.8-4.4-16.5c-3-3.6-7.7-5.4-14.1-5.4c-8.6,0-14.8,2.5-18.8,7.6
		c-4,5.1-5.9,13.5-5.9,25.4v47.5h-20.3V65.1H573l2.8,12.5h1c2.9-4.5,7-8,12.2-10.5c5.3-2.5,11.1-3.7,17.6-3.7
		c22.9,0,34.3,11.6,34.3,34.9L641,160.4L641,160.4z"/>
</g>
<g>
	<path fill="#FFFFFF" d="M-241.3-94.3h57.7v72c-15.7,5.4-32.9,8-51.6,8c-20.6,0-36.5-6-47.8-17.9c-11.2-11.9-16.9-29-16.9-51.1
		c0-21.6,6.2-38.3,18.5-50.4c12.3-12,29.5-18,51.7-18c8.4,0,16.3,0.8,23.8,2.4c7.5,1.6,14,3.6,19.5,6l-11.4,28.3
		c-9.6-4.8-20.2-7.1-31.7-7.1c-10.5,0-18.7,3.4-24.5,10.3c-5.8,6.8-8.6,16.6-8.6,29.4c0,12.5,2.6,22,7.8,28.6
		c5.2,6.6,12.7,9.8,22.5,9.8c5.4,0,10.3-0.5,14.8-1.5v-20.9h-23.9L-241.3-94.3L-241.3-94.3z"/>
	<path fill="#FFFFFF" d="M-54.2-85.7c0,22.3-6.1,39.5-18.4,51.5s-29.5,18.1-51.8,18.1h-43.2v-133.6h46.3c21.4,0,38,5.5,49.7,16.4
		C-60-122.3-54.2-106.4-54.2-85.7z M-91.7-84.4c0-12.2-2.4-21.3-7.3-27.2c-4.9-5.9-12.2-8.9-22.1-8.9h-10.5v74.9h8
		c11,0,19-3.2,24.1-9.5C-94.2-61.6-91.7-71.3-91.7-84.4z"/>
	<path fill="#FFFFFF" d="M12.2-94.3h57.7v72c-15.7,5.4-32.9,8-51.6,8c-20.6,0-36.5-6-47.8-17.9c-11.2-11.9-16.9-29-16.9-51.1
		c0-21.6,6.2-38.3,18.5-50.4c12.3-12,29.5-18,51.7-18c8.4,0,16.3,0.8,23.8,2.4s14,3.6,19.5,6l-11.4,28.3c-9.6-4.8-20.2-7.1-31.7-7.1
		c-10.5,0-18.7,3.4-24.5,10.3c-5.8,6.8-8.6,16.6-8.6,29.4c0,12.5,2.6,22,7.8,28.6S11.4-44,21.2-44c5.4,0,10.3-0.5,14.8-1.5v-20.9
		H12.2C12.2-66.4,12.2-94.3,12.2-94.3z"/>
</g>
</svg>
