<svg xmlns="http://www.w3.org/2000/svg" viewBox="90.18 977.405 610.109 200"><path fill="#F6C25B" d="M117.073 1177.405h22.645c5.352 0 12.006-3.76 14.77-8.376l19.072-31.727c2.255-4.65 2.173-11.427-.397-15.712l-11.26-18.633-44.83 74.448z"/><path fill="#0A985C" d="M141.413 1085.78l-50.35 84.172c-1.943 4.148.08 7.453 5.07 7.453h20.94l44.83-74.448-20.49-33.916c2.762 4.597 2.762 12.132 0 16.74"/><path fill="#5586C5" d="M96.134 977.405c-5.38 0-7.502 3.78-4.747 8.366l81.776 135.822c2.57 4.285 2.646 11.06.397 15.705l19.876-33.078-76.35-126.814H96.135z"/><path fill="#D9423E" d="M117.087 977.405l76.35 126.813 11.072-18.432c2.767-4.613 2.767-12.148 0-16.744l-50.018-83.27c-2.77-4.587-9.423-8.367-14.774-8.367h-22.63z"/><g><g fill="#4E4E4E"><path d="M288.27 1137.153h-32.046v-5.755l12.19-12.257c3.602-3.683 5.987-6.297 7.163-7.838 1.175-1.54 2.034-2.994 2.57-4.35.54-1.36.81-2.812.81-4.367 0-2.132-.642-3.814-1.924-5.044-1.286-1.225-3.056-1.84-5.322-1.84-1.81 0-3.56.334-5.252 1-1.694.67-3.65 1.876-5.87 3.622l-4.11-5.013c2.632-2.22 5.185-3.794 7.666-4.72 2.478-.926 5.12-1.39 7.922-1.39 4.398 0 7.926 1.147 10.578 3.444 2.653 2.293 3.978 5.382 3.978 9.264 0 2.132-.386 4.16-1.148 6.08-.765 1.916-1.942 3.895-3.527 5.93-1.582 2.038-4.22 4.792-7.905 8.264l-8.215 7.955v.32h22.443v6.696zM326.076 1113.516c0 8.212-1.32 14.315-3.96 18.303-2.643 3.987-6.68 5.98-12.113 5.98-5.26 0-9.248-2.058-11.965-6.176-2.717-4.118-4.074-10.153-4.074-18.108 0-8.345 1.32-14.492 3.96-18.45 2.643-3.953 6.67-5.93 12.08-5.93 5.283 0 9.28 2.07 11.998 6.208 2.717 4.138 4.074 10.197 4.074 18.172zm-24.415 0c0 6.445.664 11.048 1.99 13.805 1.326 2.762 3.445 4.143 6.353 4.143 2.91 0 5.04-1.4 6.387-4.207 1.347-2.802 2.02-7.38 2.02-13.74 0-6.34-.673-10.925-2.02-13.76-1.347-2.834-3.476-4.252-6.387-4.252-2.908 0-5.027 1.39-6.353 4.172-1.326 2.782-1.99 7.395-1.99 13.84zM354.148 1137.153h-7.6v-30.526c0-3.643.085-6.53.26-8.666-.496.52-1.107 1.09-1.828 1.716-.722.625-3.14 2.607-7.26 5.95l-3.816-4.82 13.906-10.927h6.34v47.273zM385.68 1107.632c4.764 0 8.536 1.26 11.32 3.783 2.78 2.522 4.172 5.96 4.172 10.313 0 5.044-1.58 8.984-4.74 11.82-3.157 2.837-7.645 4.25-13.468 4.25-5.28 0-9.432-.85-12.45-2.55v-6.89c1.746.99 3.752 1.756 6.014 2.296 2.266.54 4.368.81 6.306.81 3.428 0 6.038-.765 7.826-2.296 1.79-1.53 2.686-3.773 2.686-6.73 0-5.644-3.602-8.47-10.803-8.47-1.01 0-2.262.103-3.75.308-1.49.205-2.79.437-3.912.697l-3.396-2.006 1.81-23.087h24.58v6.756h-17.883l-1.068 11.707c.755-.13 1.678-.28 2.765-.454 1.087-.173 2.42-.258 3.992-.258zM465.042 1089.88v30.587c0 3.493-.752 6.547-2.25 9.168-1.5 2.618-3.666 4.634-6.5 6.045-2.837 1.415-6.227 2.12-10.17 2.12-5.865 0-10.424-1.553-13.682-4.655-3.253-3.106-4.884-7.375-4.884-12.808v-30.458h7.76v29.91c0 3.9.907 6.78 2.718 8.632 1.81 1.855 4.593 2.782 8.345 2.782 7.285 0 10.93-3.827 10.93-11.48v-29.845h7.732zM483.67 1118.27l4.298-5.37 10.803-11.51h8.764l-14.392 15.36 15.297 20.403h-8.928l-11.48-15.682-4.17 3.43v12.253h-7.535v-50.315h7.536v24.543l-.39 6.89h.196zM532.338 1100.743c1.53 0 2.792.11 3.783.325l-.74 7.08c-1.08-.26-2.2-.39-3.364-.39-3.04 0-5.506.995-7.392 2.977-1.886 1.982-2.83 4.558-2.83 7.73v18.69h-7.597v-35.765h5.95l1 6.308h.39c1.188-2.136 2.732-3.827 4.643-5.078 1.906-1.252 3.96-1.877 6.158-1.877zM565.13 1137.153l-1.52-4.98h-.26c-1.722 2.177-3.46 3.66-5.206 4.446-1.747.785-3.988 1.178-6.725 1.178-3.518 0-6.26-.947-8.235-2.843-1.97-1.9-2.956-4.582-2.956-8.055 0-3.683 1.366-6.465 4.104-8.34 2.737-1.877 6.91-2.9 12.515-3.073l6.178-.195v-1.907c0-2.286-.533-3.995-1.603-5.126-1.066-1.132-2.72-1.7-4.962-1.7-1.83 0-3.588.27-5.273.81-1.68.54-3.298 1.177-4.85 1.908l-2.457-5.433c1.942-1.01 4.063-1.78 6.37-2.31 2.308-.53 4.485-.793 6.535-.793 4.55 0 7.98.99 10.297 2.977 2.317 1.98 3.48 5.097 3.48 9.342v24.09h-5.435zm-11.32-5.174c2.76 0 4.977-.773 6.648-2.314 1.668-1.54 2.505-3.7 2.505-6.483v-3.103l-4.593.19c-3.58.13-6.183.73-7.81 1.798-1.627 1.066-2.44 2.7-2.44 4.897 0 1.596.472 2.83 1.422 3.705.947.872 2.372 1.31 4.27 1.31zM580.718 1091.916c0-1.36.372-2.406 1.118-3.137.74-.735 1.804-1.1 3.184-1.1 1.337 0 2.376.365 3.12 1.1.745.73 1.114 1.776 1.114 3.136 0 1.292-.37 2.31-1.114 3.055-.745.746-1.784 1.115-3.12 1.115-1.38 0-2.443-.37-3.184-1.114-.746-.744-1.118-1.762-1.118-3.054zm8.052 45.237h-7.597v-35.764h7.597v35.763zM631.103 1137.153h-7.63v-21.99c0-2.758-.558-4.818-1.67-6.175-1.11-1.357-2.87-2.037-5.286-2.037-3.213 0-5.56.95-7.05 2.848-1.487 1.896-2.232 5.075-2.232 9.537v17.817h-7.597v-35.764h5.95l1.066 4.688h.39c1.077-1.702 2.608-3.017 4.59-3.943 1.986-.926 4.183-1.39 6.6-1.39 8.578 0 12.87 4.363 12.87 13.094v23.316zM657.296 1137.8c-5.56 0-9.91-1.62-13.05-4.867-3.136-3.243-4.705-7.713-4.705-13.402 0-5.842 1.456-10.432 4.368-13.774 2.908-3.342 6.907-5.013 11.996-5.013 4.723 0 8.452 1.435 11.19 4.302 2.737 2.867 4.108 6.81 4.108 11.834v4.106h-23.835c.11 3.468 1.045 6.137 2.812 8.003 1.77 1.86 4.258 2.794 7.47 2.794 2.112 0 4.08-.198 5.902-.598 1.82-.4 3.78-1.063 5.87-1.99v6.18c-1.854.882-3.73 1.507-5.628 1.872-1.895.37-4.06.55-6.498.55zm-1.39-31.303c-2.414 0-4.348.765-5.804 2.297-1.456 1.53-2.324 3.762-2.604 6.694h16.233c-.04-2.953-.754-5.19-2.13-6.708-1.382-1.52-3.28-2.283-5.695-2.283z"/></g><path fill="#4E4E4E" d="M474.434 1037.446c0 8.922-2.443 15.8-7.314 20.62-4.874 4.818-11.73 7.24-20.557 7.24h-17.17v-53.448h18.367c8.513 0 15.088 2.197 19.72 6.585 4.634 4.376 6.954 10.72 6.954 19.003zm-14.884.515c0-4.896-.96-8.528-2.884-10.897-1.914-2.358-4.84-3.543-8.763-3.543h-4.173v29.935h3.2c4.35 0 7.552-1.275 9.585-3.814 2.017-2.55 3.035-6.44 3.035-11.68zM498.5 1066.038c-6.855 0-12.17-1.836-15.956-5.502-3.783-3.67-5.68-8.9-5.68-15.668 0-6.99 1.75-12.367 5.257-16.102 3.51-3.738 8.52-5.61 15.024-5.61 6.19 0 10.974 1.625 14.354 4.88 3.377 3.252 5.058 7.934 5.058 14.06v6.36H491.2c.093 2.313.937 4.125 2.516 5.44 1.59 1.322 3.745 1.972 6.48 1.972 2.49 0 4.784-.24 6.878-.708 2.085-.475 4.362-1.285 6.798-2.43V1063c-2.218 1.15-4.518 1.94-6.89 2.38-2.374.44-5.204.658-8.48.658zm-.844-33.158c-1.667 0-3.06.533-4.186 1.592-1.134 1.056-1.784 2.72-1.982 4.986h12.197c-.05-1.996-.61-3.588-1.69-4.788-1.078-1.2-2.527-1.79-4.34-1.79zM530.893 1065.306l-15.673-41.424h14.805l6.965 24.495c.02.126.072.328.15.625.07.29.143.64.212 1.036.078.406.143.834.198 1.288.065.45.096.868.096 1.254h.246c0-1.258.222-2.638.656-4.125l7.293-24.573h14.766l-15.68 41.424h-14.033zM576.002 1065.306h-14.115v-53.45h31.353v11.592h-17.238v10.2h15.89v11.59h-15.89v20.068zM616.5 1066.038c-6.85 0-12.15-1.836-15.95-5.502-3.783-3.67-5.677-8.9-5.677-15.668 0-6.99 1.75-12.367 5.257-16.102 3.51-3.738 8.513-5.61 15.023-5.61 6.19 0 10.975 1.625 14.35 4.88 3.377 3.252 5.055 7.934 5.055 14.06v6.36H609.2c.1 2.313.944 4.125 2.526 5.44 1.583 1.322 3.736 1.972 6.476 1.972 2.488 0 4.785-.24 6.883-.708 2.078-.475 4.35-1.285 6.794-2.43V1063c-2.216 1.15-4.533 1.94-6.89 2.38-2.376.44-5.202.658-8.49.658zm-.84-33.158c-1.66 0-3.062.533-4.187 1.592-1.128 1.056-1.784 2.72-1.97 4.986h12.186c-.055-1.996-.616-3.588-1.686-4.788-1.084-1.2-2.527-1.79-4.344-1.79zM669.876 1052.58c0 4.436-1.497 7.79-4.5 10.053-3 2.266-7.305 3.404-12.916 3.404-3.045 0-5.7-.16-7.946-.496-2.252-.327-4.542-.935-6.89-1.803v-11.444c2.205.977 4.615 1.783 7.243 2.412 2.618.63 4.962.943 7.016.943 3.08 0 4.61-.7 4.61-2.11 0-.733-.43-1.39-1.29-1.957-.852-.573-3.353-1.687-7.49-3.344-3.775-1.565-6.407-3.335-7.907-5.324-1.507-1.98-2.252-4.497-2.252-7.545 0-3.848 1.47-6.85 4.426-8.99 2.946-2.154 7.12-3.223 12.515-3.223 2.71 0 5.257.297 7.645.9 2.375.597 4.843 1.465 7.413 2.613l-3.848 9.213c-1.887-.848-3.883-1.582-5.99-2.177-2.103-.598-3.812-.888-5.148-.888-2.32 0-3.475.567-3.475 1.708 0 .707.403 1.316 1.206 1.804.813.506 3.154 1.524 7.03 3.058 2.87 1.2 5.02 2.37 6.44 3.516 1.41 1.146 2.453 2.492 3.12 4.037.66 1.55.988 3.422.988 5.643zM693.436 1054.744c1.908 0 4.194-.48 6.852-1.432v10.426c-1.917.823-3.732 1.408-5.464 1.767-1.726.36-3.756.533-6.08.533-4.76 0-8.202-1.18-10.294-3.523-2.116-2.358-3.168-5.97-3.168-10.846v-17.067h-4.962v-5.82l6.305-4.496 3.667-8.697h9.293v8.293h10.092v10.72h-10.092v16.12c0 2.674 1.282 4.02 3.85 4.02z"/><g><path fill="#4E4E4E" d="M273.274 1035.265h23.072v28.81c-6.267 2.143-13.157 3.22-20.66 3.22-8.24 0-14.61-2.39-19.104-7.17-4.497-4.775-6.746-11.59-6.746-20.436 0-8.636 2.46-15.345 7.385-20.15 4.93-4.8 11.826-7.206 20.698-7.206 3.367 0 6.54.32 9.528.953 2.977.633 5.585 1.44 7.81 2.41l-4.573 11.33c-3.848-1.892-8.086-2.842-12.686-2.842-4.218 0-7.478 1.37-9.782 4.115-2.31 2.734-3.46 6.653-3.46 11.755 0 4.996 1.044 8.803 3.13 11.42 2.08 2.625 5.084 3.933 9.012 3.933 2.15 0 4.125-.2 5.93-.622v-8.372h-9.55v-11.15h-.003zM348.134 1038.7c0 8.926-2.46 15.798-7.372 20.626-4.912 4.825-11.812 7.24-20.714 7.24H302.75v-53.462h18.504c8.582 0 15.208 2.194 19.877 6.585 4.666 4.387 7.004 10.72 7.004 19.01zm-14.99.516c0-4.904-.975-8.536-2.912-10.89-1.938-2.376-4.877-3.55-8.828-3.55h-4.21v29.94h3.218c4.39 0 7.604-1.27 9.655-3.82 2.05-2.543 3.076-6.442 3.076-11.68zM374.688 1035.265h23.073v28.81c-6.267 2.143-13.147 3.22-20.66 3.22-8.243 0-14.61-2.39-19.107-7.17-4.49-4.775-6.747-11.59-6.747-20.436 0-8.636 2.465-15.345 7.393-20.15 4.923-4.8 11.82-7.206 20.7-7.206 3.35 0 6.533.32 9.52.953 2.983.633 5.587 1.44 7.81 2.41l-4.574 11.33c-3.85-1.892-8.083-2.842-12.692-2.842-4.214 0-7.47 1.37-9.774 4.115-2.304 2.734-3.456 6.653-3.456 11.755 0 4.996 1.04 8.803 3.123 11.42 2.082 2.625 5.09 3.933 9.016 3.933 2.143 0 4.118-.2 5.92-.622v-8.372h-9.547v-11.15z"/></g></g><path fill="#168B58" d="M141.413 1085.78l-12.032 20.114 21.536 15.307 10.985-18.242-20.487-33.916c2.762 4.595 2.762 12.13 0 16.737z"/><path fill="#D7AB56" d="M161.902 1102.957l-10.985 18.243 22.646 16.096c2.252-4.65 2.17-11.422-.4-15.705l-11.26-18.633z"/></svg>