<?xml version="1.0" encoding="utf-8"?>
<!-- Generator: Adobe Illustrator 19.0.0, SVG Export Plug-In . SVG Version: 6.00 Build 0)  -->
<svg version="1.1"
	 id="dark" xmlns:dc="http://purl.org/dc/elements/1.1/" xmlns:sodipodi="http://sodipodi.sourceforge.net/DTD/sodipodi-0.dtd" xmlns:inkscape="http://www.inkscape.org/namespaces/inkscape" xmlns:rdf="http://www.w3.org/1999/02/22-rdf-syntax-ns#" xmlns:cc="http://creativecommons.org/ns#" xmlns:svg="http://www.w3.org/2000/svg" sodipodi:docname="‚Äì√π‚Äì√¶‚Äì‚â§‚Äì‚àè‚ÄìœÄ ‚Äì¬•‚Äì√¶‚Äì‚à´‚Äî√â‚Äì¬∫‚Äì¬µ‚ÄìŒ©‚Äî√á 1" inkscape:version="0.48.2 r9819"
	 xmlns="http://www.w3.org/2000/svg" xmlns:xlink="http://www.w3.org/1999/xlink" x="0px" y="0px"
	 viewBox="-396.8 2029.4 623.8 200.1" style="enable-background:new -396.8 2029.4 623.8 200.1;" xml:space="preserve">
<style type="text/css">
	.st0{fill:#F6C25B;}
	.st1{fill:#0A985C;}
	.st2{fill:#5586C5;}
	.st3{fill:#D9423E;}
	.st4{fill:#168B58;}
	.st5{fill:#D7AB56;}
	.st6{enable-background:new    ;}
	.st7{fill:#4E4E4E;}
</style>
<g>
	<g>
		<path class="st0" d="M-369.9,2229.4h22.6c5.4,0,12-3.8,14.8-8.4l19.1-31.7c2.3-4.7,2.2-11.4-0.4-15.7l-11.3-18.6L-369.9,2229.4z"
			/>
		<path class="st1" d="M-345.6,2137.8l-50.3,84.2c-1.9,4.1,0.1,7.5,5.1,7.5h20.9l44.8-74.4l-20.5-33.9
			C-342.8,2125.6-342.8,2133.2-345.6,2137.8"/>
		<path class="st2" d="M-390.9,2029.4c-5.4,0-7.5,3.8-4.7,8.4l81.8,135.8c2.6,4.3,2.6,11.1,0.4,15.7l19.9-33.1l-76.3-126.8H-390.9
			L-390.9,2029.4z"/>
		<path class="st3" d="M-369.9,2029.4l76.3,126.8l11.1-18.4c2.8-4.6,2.8-12.1,0-16.7l-50-83.3c-2.8-4.6-9.4-8.4-14.8-8.4H-369.9
			L-369.9,2029.4z"/>
	</g>
</g>
<path class="st4" d="M-345.6,2137.8l-12,20.1l21.5,15.3l11-18.2l-20.5-33.9C-342.8,2125.6-342.8,2133.2-345.6,2137.8z"/>
<path class="st5" d="M-325.1,2155l-11,18.2l22.6,16.1c2.3-4.7,2.2-11.4-0.4-15.7L-325.1,2155z"/>
<g class="st6">
	<path class="st7" d="M-213.2,2087.2h23.1v28.9c-6.3,2.1-13.2,3.2-20.7,3.2c-8.3,0-14.6-2.4-19.1-7.2c-4.5-4.8-6.8-11.6-6.8-20.5
		c0-8.6,2.5-15.4,7.4-20.2c4.9-4.8,11.8-7.2,20.7-7.2c3.4,0,6.5,0.3,9.5,1c3,0.6,5.6,1.4,7.8,2.4l-4.6,11.4
		c-3.9-1.9-8.1-2.9-12.7-2.9c-4.2,0-7.5,1.4-9.8,4.1c-2.3,2.7-3.5,6.7-3.5,11.8c0,5,1,8.8,3.1,11.4c2.1,2.6,5.1,3.9,9,3.9
		c2.1,0,4.1-0.2,5.9-0.6v-8.4h-9.6V2087.2z"/>
	<path class="st7" d="M-137.7,2090.7c0,8.9-2.5,15.8-7.4,20.7c-4.9,4.8-11.8,7.3-20.7,7.3h-17.3V2065h18.5c8.6,0,15.2,2.2,19.9,6.6
		C-140.1,2076-137.7,2082.4-137.7,2090.7z M-152.7,2091.2c0-4.9-1-8.5-2.9-10.9c-1.9-2.4-4.9-3.6-8.8-3.6h-4.2v30h3.2
		c4.4,0,7.6-1.3,9.7-3.8C-153.8,2100.3-152.7,2096.4-152.7,2091.2z"/>
	<path class="st7" d="M-110.6,2087.2h23.1v28.9c-6.3,2.1-13.2,3.2-20.7,3.2c-8.3,0-14.6-2.4-19.1-7.2c-4.5-4.8-6.8-11.6-6.8-20.5
		c0-8.6,2.5-15.4,7.4-20.2c4.9-4.8,11.8-7.2,20.7-7.2c3.4,0,6.5,0.3,9.5,1c3,0.6,5.6,1.4,7.8,2.4l-4.6,11.4
		c-3.9-1.9-8.1-2.9-12.7-2.9c-4.2,0-7.5,1.4-9.8,4.1c-2.3,2.7-3.5,6.7-3.5,11.8c0,5,1,8.8,3.1,11.4c2.1,2.6,5.1,3.9,9,3.9
		c2.1,0,4.1-0.2,5.9-0.6v-8.4h-9.6V2087.2z"/>
	<path class="st7" d="M-4.1,2090.7c0,8.9-2.5,15.8-7.4,20.7c-4.9,4.8-11.8,7.3-20.7,7.3h-17.3V2065H-31c8.6,0,15.2,2.2,19.9,6.6
		C-6.4,2076-4.1,2082.4-4.1,2090.7z M-19.1,2091.2c0-4.9-1-8.5-2.9-10.9c-1.9-2.4-4.9-3.6-8.8-3.6h-4.2v30h3.2
		c4.4,0,7.6-1.3,9.7-3.8C-20.1,2100.3-19.1,2096.4-19.1,2091.2z"/>
	<path class="st7" d="M20.7,2119.3c-6.9,0-12.3-1.8-16.1-5.5c-3.8-3.7-5.7-8.9-5.7-15.7c0-7,1.8-12.4,5.3-16.1
		c3.5-3.7,8.6-5.6,15.2-5.6c6.2,0,11.1,1.6,14.5,4.9c3.4,3.3,5.1,8,5.1,14.1v6.4H13.4c0.1,2.3,0.9,4.1,2.5,5.5c1.6,1.3,3.8,2,6.5,2
		c2.5,0,4.8-0.2,6.9-0.7c2.1-0.5,4.4-1.3,6.9-2.4v10.3c-2.2,1.1-4.6,1.9-7,2.4S24,2119.3,20.7,2119.3z M19.9,2086.1
		c-1.7,0-3.1,0.5-4.2,1.6c-1.1,1.1-1.8,2.7-2,5h12.3c0-2-0.6-3.6-1.7-4.8C23.2,2086.7,21.7,2086.1,19.9,2086.1z"/>
	<path class="st7" d="M53.9,2118.6l-15.8-41.5h14.9l7,24.5c0,0.1,0.1,0.3,0.1,0.6s0.1,0.6,0.2,1c0.1,0.4,0.1,0.8,0.2,1.3
		c0.1,0.5,0.1,0.9,0.1,1.3H61c0-1.3,0.2-2.6,0.7-4.1l7.4-24.6h14.9l-15.8,41.5H53.9z"/>
	<path class="st7" d="M100,2118.6H85.7V2065h31.6v11.6H100v10.2h16v11.6h-16V2118.6z"/>
	<path class="st7" d="M141.4,2119.3c-6.9,0-12.3-1.8-16.1-5.5c-3.8-3.7-5.7-8.9-5.7-15.7c0-7,1.8-12.4,5.3-16.1
		c3.5-3.7,8.6-5.6,15.2-5.6c6.2,0,11.1,1.6,14.5,4.9c3.4,3.3,5.1,8,5.1,14.1v6.4H134c0.1,2.3,0.9,4.1,2.5,5.5c1.6,1.3,3.8,2,6.5,2
		c2.5,0,4.8-0.2,6.9-0.7c2.1-0.5,4.4-1.3,6.9-2.4v10.3c-2.2,1.1-4.6,1.9-7,2.4C147.6,2119.1,144.7,2119.3,141.4,2119.3z
		 M140.5,2086.1c-1.7,0-3.1,0.5-4.2,1.6c-1.1,1.1-1.8,2.7-2,5h12.3c0-2-0.6-3.6-1.7-4.8C143.8,2086.7,142.4,2086.1,140.5,2086.1z"/>
	<path class="st7" d="M195.8,2105.8c0,4.4-1.5,7.8-4.5,10.1c-3,2.3-7.4,3.4-13,3.4c-3.1,0-5.7-0.2-8-0.5c-2.3-0.3-4.6-0.9-7-1.8
		v-11.5c2.2,1,4.7,1.8,7.3,2.4c2.6,0.6,5,1,7.1,1c3.1,0,4.7-0.7,4.7-2.1c0-0.7-0.4-1.4-1.3-2c-0.9-0.6-3.4-1.7-7.6-3.4
		c-3.8-1.6-6.5-3.3-8-5.3c-1.5-2-2.3-4.5-2.3-7.6c0-3.9,1.5-6.9,4.5-9c3-2.1,7.2-3.2,12.6-3.2c2.7,0,5.3,0.3,7.7,0.9
		c2.4,0.6,4.9,1.5,7.5,2.6l-3.9,9.2c-1.9-0.9-3.9-1.6-6-2.2c-2.1-0.6-3.9-0.9-5.2-0.9c-2.3,0-3.5,0.6-3.5,1.7c0,0.7,0.4,1.3,1.2,1.8
		c0.8,0.5,3.2,1.5,7.1,3.1c2.9,1.2,5.1,2.4,6.5,3.5c1.4,1.1,2.5,2.5,3.1,4C195.5,2101.7,195.8,2103.6,195.8,2105.8z"/>
	<path class="st7" d="M220.1,2108c1.9,0,4.2-0.5,6.9-1.4v10.4c-1.9,0.8-3.8,1.4-5.5,1.8c-1.7,0.4-3.8,0.5-6.1,0.5
		c-4.8,0-8.3-1.2-10.4-3.5c-2.1-2.4-3.2-6-3.2-10.9v-17.1h-5v-5.8l6.4-4.5l3.7-8.7h9.4v8.3h10.2v10.7h-10.2v16.2
		C216.2,2106.6,217.5,2108,220.1,2108z"/>
</g>
<g class="st6">
	<path class="st7" d="M-198.9,2189.2h-31.9v-5.7l12.1-12.2c3.6-3.7,6-6.3,7.1-7.8c1.2-1.5,2-3,2.6-4.3c0.5-1.4,0.8-2.8,0.8-4.3
		c0-2.1-0.6-3.8-1.9-5c-1.3-1.2-3-1.8-5.3-1.8c-1.8,0-3.6,0.3-5.2,1c-1.7,0.7-3.6,1.9-5.8,3.6l-4.1-5c2.6-2.2,5.2-3.8,7.6-4.7
		c2.5-0.9,5.1-1.4,7.9-1.4c4.4,0,7.9,1.1,10.5,3.4c2.6,2.3,4,5.4,4,9.2c0,2.1-0.4,4.1-1.1,6.1c-0.8,1.9-1.9,3.9-3.5,5.9
		c-1.6,2-4.2,4.8-7.9,8.2l-8.2,7.9v0.3h22.4V2189.2z"/>
	<path class="st7" d="M-161.2,2165.6c0,8.2-1.3,14.3-3.9,18.2c-2.6,4-6.7,6-12.1,6c-5.2,0-9.2-2.1-11.9-6.2s-4.1-10.1-4.1-18
		c0-8.3,1.3-14.4,3.9-18.4c2.6-3.9,6.6-5.9,12-5.9c5.3,0,9.2,2.1,12,6.2S-161.2,2157.6-161.2,2165.6z M-185.6,2165.6
		c0,6.4,0.7,11,2,13.8c1.3,2.8,3.4,4.1,6.3,4.1s5-1.4,6.4-4.2c1.3-2.8,2-7.4,2-13.7c0-6.3-0.7-10.9-2-13.7c-1.3-2.8-3.5-4.2-6.4-4.2
		s-5,1.4-6.3,4.2C-184.9,2154.6-185.6,2159.2-185.6,2165.6z"/>
	<path class="st7" d="M-133.3,2189.2h-7.6v-30.4c0-3.6,0.1-6.5,0.3-8.6c-0.5,0.5-1.1,1.1-1.8,1.7c-0.7,0.6-3.1,2.6-7.2,5.9l-3.8-4.8
		l13.9-10.9h6.3V2189.2z"/>
	<path class="st7" d="M-101.8,2159.7c4.7,0,8.5,1.3,11.3,3.8s4.2,5.9,4.2,10.3c0,5-1.6,9-4.7,11.8c-3.1,2.8-7.6,4.2-13.4,4.2
		c-5.3,0-9.4-0.8-12.4-2.5v-6.9c1.7,1,3.7,1.8,6,2.3s4.4,0.8,6.3,0.8c3.4,0,6-0.8,7.8-2.3c1.8-1.5,2.7-3.8,2.7-6.7
		c0-5.6-3.6-8.4-10.8-8.4c-1,0-2.3,0.1-3.7,0.3c-1.5,0.2-2.8,0.4-3.9,0.7l-3.4-2l1.8-23h24.5v6.7h-17.8l-1.1,11.7
		c0.8-0.1,1.7-0.3,2.8-0.5C-104.7,2159.8-103.4,2159.7-101.8,2159.7z"/>
	<path class="st7" d="M-32.5,2176.4c0,4.2-1.5,7.5-4.5,9.9s-7.2,3.6-12.5,3.6s-9.7-0.8-13.1-2.5v-7.3c2.1,1,4.4,1.8,6.8,2.4
		c2.4,0.6,4.7,0.9,6.8,0.9c3.1,0,5.3-0.6,6.8-1.7c1.4-1.2,2.2-2.7,2.2-4.7c0-1.8-0.7-3.3-2-4.5c-1.3-1.2-4.1-2.7-8.2-4.3
		c-4.3-1.7-7.3-3.7-9.1-6c-1.8-2.2-2.6-4.9-2.6-8.1c0-3.9,1.4-7,4.2-9.3c2.8-2.3,6.5-3.4,11.2-3.4c4.5,0,9,1,13.5,3l-2.4,6.3
		c-4.2-1.8-7.9-2.6-11.2-2.6c-2.5,0-4.4,0.5-5.7,1.6c-1.3,1.1-1.9,2.5-1.9,4.3c0,1.2,0.3,2.3,0.8,3.1c0.5,0.9,1.4,1.7,2.5,2.5
		c1.2,0.8,3.3,1.8,6.4,3.1c3.5,1.4,6,2.8,7.6,4s2.8,2.7,3.5,4.2C-32.9,2172.4-32.5,2174.2-32.5,2176.4z"/>
	<path class="st7" d="M-8.6,2189.8c-5.5,0-9.9-1.6-13-4.8c-3.1-3.2-4.7-7.7-4.7-13.4c0-5.8,1.5-10.4,4.4-13.7s6.9-5,12-5
		c4.7,0,8.4,1.4,11.2,4.3s4.1,6.8,4.1,11.8v4.1h-23.8c0.1,3.5,1,6.1,2.8,8c1.8,1.9,4.2,2.8,7.4,2.8c2.1,0,4.1-0.2,5.9-0.6
		c1.8-0.4,3.8-1.1,5.8-2v6.2c-1.8,0.9-3.7,1.5-5.6,1.9S-6.2,2189.8-8.6,2189.8z M-10,2158.6c-2.4,0-4.3,0.8-5.8,2.3
		c-1.4,1.5-2.3,3.7-2.6,6.7h16.2c0-2.9-0.8-5.2-2.1-6.7C-5.7,2159.4-7.6,2158.6-10,2158.6z"/>
	<path class="st7" d="M36.1,2189.2l-1.5-5h-0.3c-1.7,2.2-3.4,3.6-5.2,4.4s-4,1.2-6.7,1.2c-3.5,0-6.2-0.9-8.2-2.8
		c-2-1.9-2.9-4.6-2.9-8c0-3.7,1.4-6.4,4.1-8.3c2.7-1.9,6.9-2.9,12.5-3.1l6.2-0.2v-1.9c0-2.3-0.5-4-1.6-5.1c-1.1-1.1-2.7-1.7-4.9-1.7
		c-1.8,0-3.6,0.3-5.3,0.8s-3.3,1.2-4.8,1.9l-2.4-5.4c1.9-1,4-1.8,6.3-2.3c2.3-0.5,4.5-0.8,6.5-0.8c4.5,0,8,1,10.3,3
		c2.3,2,3.5,5.1,3.5,9.3v24H36.1z M24.8,2184c2.8,0,5-0.8,6.6-2.3c1.7-1.5,2.5-3.7,2.5-6.5v-3.1l-4.6,0.2c-3.6,0.1-6.2,0.7-7.8,1.8
		c-1.6,1.1-2.4,2.7-2.4,4.9c0,1.6,0.5,2.8,1.4,3.7C21.5,2183.6,22.9,2184,24.8,2184z"/>
	<path class="st7" d="M76,2179c0,3.5-1.3,6.2-3.8,8c-2.5,1.9-6.2,2.8-10.9,2.8c-4.7,0-8.6-0.7-11.4-2.2v-6.5
		c4.2,1.9,8.1,2.9,11.7,2.9c4.7,0,7-1.4,7-4.2c0-0.9-0.3-1.7-0.8-2.3s-1.4-1.2-2.5-1.9c-1.2-0.6-2.8-1.4-4.9-2.2
		c-4.1-1.6-6.9-3.2-8.3-4.8c-1.5-1.6-2.2-3.7-2.2-6.2c0-3.1,1.2-5.4,3.7-7.1c2.5-1.7,5.8-2.5,10-2.5c4.2,0,8.2,0.8,11.9,2.5
		l-2.4,5.7c-3.8-1.6-7.1-2.4-9.7-2.4c-4,0-6,1.1-6,3.4c0,1.1,0.5,2.1,1.6,2.8c1,0.8,3.3,1.8,6.8,3.2c2.9,1.1,5.1,2.2,6.4,3.1
		c1.3,0.9,2.3,2,3,3.3C75.7,2175.8,76,2177.3,76,2179z"/>
	<path class="st7" d="M115.8,2171.3c0,5.8-1.5,10.4-4.5,13.6c-3,3.3-7.1,4.9-12.5,4.9c-3.3,0-6.3-0.8-8.8-2.3s-4.5-3.7-5.9-6.5
		c-1.4-2.8-2.1-6.1-2.1-9.8c0-5.8,1.5-10.3,4.4-13.5s7.1-4.9,12.5-4.9c5.2,0,9.2,1.7,12.2,5C114.3,2161.2,115.8,2165.6,115.8,2171.3
		z M89.9,2171.3c0,8.2,3,12.3,9.1,12.3c6,0,9-4.1,9-12.3c0-8.1-3-12.2-9.1-12.2c-3.2,0-5.5,1.1-6.9,3.2
		C90.6,2164.3,89.9,2167.3,89.9,2171.3z"/>
	<path class="st7" d="M155.9,2189.2h-7.6v-21.9c0-2.8-0.6-4.8-1.7-6.2c-1.1-1.4-2.9-2-5.3-2c-3.2,0-5.5,0.9-7,2.8s-2.2,5.1-2.2,9.5
		v17.8h-7.6v-35.6h5.9l1.1,4.7h0.4c1.1-1.7,2.6-3,4.6-3.9c2-0.9,4.2-1.4,6.6-1.4c8.6,0,12.8,4.4,12.8,13.1V2189.2z"/>
</g>
</svg>
