<?xml version="1.0" encoding="utf-8"?>
<!-- Generator: Adobe Illustrator 19.0.0, SVG Export Plug-In . SVG Version: 6.00 Build 0)  -->
<svg version="1.1"
	 id="dark" inkscape:version="0.48.2 r9819" sodipodi:docname="Новий документ 1" xmlns:rdf="http://www.w3.org/1999/02/22-rdf-syntax-ns#" xmlns:inkscape="http://www.inkscape.org/namespaces/inkscape" xmlns:cc="http://creativecommons.org/ns#" xmlns:dc="http://purl.org/dc/elements/1.1/" xmlns:svg="http://www.w3.org/2000/svg" xmlns:sodipodi="http://sodipodi.sourceforge.net/DTD/sodipodi-0.dtd"
	 xmlns="http://www.w3.org/2000/svg" xmlns:xlink="http://www.w3.org/1999/xlink" x="0px" y="0px"
	 viewBox="90.18 977.405 610.109 200" enable-background="new 90.18 977.405 610.109 200" xml:space="preserve">
<g>
	<g>
		<path fill="#F6C25B" d="M117.073,1177.405h22.645c5.352,0,12.006-3.759,14.771-8.376l19.071-31.726
			c2.255-4.651,2.173-11.427-0.397-15.712l-11.26-18.634L117.073,1177.405z"/>
		<path fill="#0A985C" d="M141.413,1085.779l-50.349,84.173c-1.944,4.148,0.079,7.453,5.069,7.453h20.94l44.829-74.448
			l-20.488-33.916C144.175,1073.637,144.175,1081.172,141.413,1085.779"/>
		<path fill="#5586C5" d="M96.134,977.405c-5.38,0-7.502,3.779-4.747,8.366l81.776,135.821c2.57,4.285,2.646,11.061,0.397,15.705
			l19.876-33.078l-76.349-126.813H96.134z"/>
		<path fill="#D9423E" d="M117.087,977.405l76.349,126.813l11.073-18.432c2.768-4.613,2.768-12.148,0-16.744l-50.017-83.271
			c-2.769-4.586-9.423-8.366-14.774-8.366H117.087z"/>
	</g>
	<g>
		<g>
			<g>
				<path fill="#4E4E4E" d="M288.271,1137.153h-32.047v-5.755l12.19-12.257c3.602-3.684,5.987-6.298,7.163-7.839
					c1.175-1.541,2.034-2.994,2.57-4.35c0.54-1.36,0.81-2.812,0.81-4.367c0-2.132-0.642-3.814-1.924-5.044
					c-1.286-1.226-3.056-1.842-5.322-1.842c-1.811,0-3.561,0.335-5.253,1.001c-1.694,0.669-3.649,1.876-5.871,3.622l-4.108-5.013
					c2.631-2.218,5.184-3.793,7.665-4.719c2.478-0.926,5.119-1.391,7.922-1.391c4.398,0,7.926,1.148,10.578,3.445
					c2.653,2.293,3.978,5.382,3.978,9.264c0,2.132-0.386,4.159-1.148,6.079c-0.765,1.917-1.942,3.896-3.527,5.932
					c-1.582,2.037-4.22,4.791-7.905,8.263l-8.215,7.955v0.321h22.443V1137.153z"/>
				<path fill="#4E4E4E" d="M326.076,1113.516c0,8.212-1.319,14.315-3.961,18.303c-2.642,3.988-6.678,5.98-12.112,5.98
					c-5.26,0-9.248-2.057-11.965-6.175c-2.717-4.118-4.074-10.153-4.074-18.108c0-8.345,1.319-14.492,3.961-18.449
					c2.642-3.954,6.668-5.932,12.078-5.932c5.284,0,9.282,2.071,11.999,6.209C324.719,1099.482,326.076,1105.541,326.076,1113.516z
					 M301.661,1113.516c0,6.445,0.663,11.048,1.989,13.805c1.326,2.761,3.445,4.142,6.353,4.142c2.911,0,5.041-1.401,6.387-4.207
					c1.347-2.802,2.02-7.381,2.02-13.74c0-6.339-0.673-10.925-2.02-13.761c-1.347-2.833-3.476-4.251-6.387-4.251
					c-2.908,0-5.027,1.391-6.353,4.172C302.324,1102.458,301.661,1107.071,301.661,1113.516z"/>
				<path fill="#4E4E4E" d="M354.148,1137.153h-7.6v-30.526c0-3.643,0.085-6.53,0.26-8.666c-0.496,0.519-1.107,1.09-1.828,1.715
					c-0.722,0.625-3.141,2.607-7.259,5.949l-3.817-4.818l13.906-10.928h6.339V1137.153z"/>
				<path fill="#4E4E4E" d="M385.679,1107.632c4.765,0,8.537,1.261,11.32,3.783c2.781,2.522,4.173,5.96,4.173,10.313
					c0,5.044-1.579,8.984-4.74,11.82c-3.157,2.837-7.645,4.251-13.468,4.251c-5.28,0-9.432-0.851-12.45-2.552v-6.889
					c1.746,0.99,3.752,1.756,6.014,2.296c2.266,0.54,4.368,0.81,6.306,0.81c3.428,0,6.038-0.765,7.826-2.296
					c1.791-1.531,2.686-3.773,2.686-6.729c0-5.645-3.602-8.471-10.803-8.471c-1.011,0-2.262,0.103-3.749,0.308
					c-1.49,0.205-2.792,0.437-3.913,0.697l-3.397-2.006l1.811-23.087h24.58v6.756h-17.884l-1.069,11.707
					c0.755-0.13,1.678-0.28,2.765-0.454C382.774,1107.717,384.107,1107.632,385.679,1107.632z"/>
				<path fill="#4E4E4E" d="M465.042,1089.879v30.588c0,3.493-0.752,6.547-2.249,9.168c-1.501,2.618-3.667,4.634-6.501,6.045
					c-2.837,1.415-6.227,2.119-10.171,2.119c-5.864,0-10.423-1.552-13.681-4.654c-3.253-3.106-4.884-7.375-4.884-12.808v-30.458
					h7.761v29.911c0,3.899,0.906,6.78,2.717,8.632c1.811,1.855,4.593,2.782,8.345,2.782c7.286,0,10.93-3.827,10.93-11.479v-29.846
					H465.042z"/>
				<path fill="#4E4E4E" d="M483.669,1118.27l4.299-5.369l10.803-11.512h8.763l-14.392,15.36l15.297,20.404h-8.927l-11.48-15.682
					l-4.169,3.428v12.254h-7.536v-50.315h7.536v24.543l-0.389,6.889H483.669z"/>
				<path fill="#4E4E4E" d="M532.338,1100.743c1.531,0,2.792,0.109,3.783,0.325l-0.742,7.08c-1.079-0.26-2.2-0.389-3.363-0.389
					c-3.041,0-5.506,0.994-7.392,2.976c-1.886,1.982-2.83,4.558-2.83,7.73v18.689h-7.597v-35.764h5.95l1.001,6.308h0.39
					c1.187-2.136,2.731-3.827,4.642-5.078C528.086,1101.368,530.14,1100.743,532.338,1100.743z"/>
				<path fill="#4E4E4E" d="M565.13,1137.153l-1.52-4.979h-0.26c-1.722,2.176-3.459,3.66-5.206,4.445
					c-1.747,0.786-3.988,1.179-6.725,1.179c-3.517,0-6.258-0.947-8.234-2.843c-1.971-1.9-2.956-4.582-2.956-8.055
					c0-3.683,1.367-6.465,4.105-8.341c2.737-1.876,6.911-2.898,12.515-3.072l6.179-0.195v-1.907c0-2.286-0.533-3.995-1.603-5.126
					c-1.066-1.131-2.72-1.698-4.962-1.698c-1.831,0-3.588,0.27-5.273,0.81c-1.681,0.54-3.298,1.176-4.85,1.907l-2.457-5.433
					c1.942-1.011,4.063-1.781,6.371-2.31c2.307-0.53,4.484-0.793,6.534-0.793c4.549,0,7.981,0.991,10.297,2.977
					c2.317,1.982,3.479,5.098,3.479,9.343v24.091H565.13z M553.811,1131.979c2.758,0,4.976-0.772,6.647-2.313
					c1.668-1.541,2.505-3.701,2.505-6.483v-3.103l-4.593,0.191c-3.579,0.13-6.183,0.728-7.81,1.797
					c-1.627,1.066-2.44,2.7-2.44,4.897c0,1.596,0.472,2.83,1.422,3.705C550.489,1131.542,551.914,1131.979,553.811,1131.979z"/>
				<path fill="#4E4E4E" d="M580.718,1091.916c0-1.36,0.372-2.406,1.118-3.137c0.741-0.734,1.804-1.1,3.184-1.1
					c1.337,0,2.376,0.366,3.12,1.1c0.745,0.731,1.114,1.777,1.114,3.137c0,1.292-0.369,2.31-1.114,3.055
					c-0.745,0.745-1.784,1.114-3.12,1.114c-1.381,0-2.443-0.369-3.184-1.114C581.09,1094.226,580.718,1093.208,580.718,1091.916z
					 M588.77,1137.153h-7.597v-35.764h7.597V1137.153z"/>
				<path fill="#4E4E4E" d="M631.103,1137.153h-7.631v-21.99c0-2.758-0.557-4.818-1.668-6.175c-1.11-1.357-2.871-2.037-5.287-2.037
					c-3.213,0-5.56,0.95-7.051,2.847c-1.486,1.896-2.231,5.075-2.231,9.537v17.817h-7.597v-35.764h5.95l1.066,4.688h0.39
					c1.077-1.702,2.608-3.017,4.59-3.943c1.986-0.926,4.183-1.391,6.6-1.391c8.578,0,12.87,4.364,12.87,13.095V1137.153z"/>
				<path fill="#4E4E4E" d="M657.296,1137.799c-5.561,0-9.911-1.62-13.049-4.866c-3.137-3.243-4.706-7.713-4.706-13.402
					c0-5.843,1.455-10.433,4.367-13.775c2.908-3.342,6.907-5.013,11.996-5.013c4.723,0,8.452,1.435,11.189,4.302
					c2.738,2.867,4.109,6.81,4.109,11.834v4.107h-23.835c0.109,3.468,1.045,6.137,2.812,8.003c1.771,1.862,4.259,2.795,7.471,2.795
					c2.112,0,4.081-0.198,5.902-0.598c1.821-0.4,3.779-1.063,5.871-1.989v6.179c-1.855,0.882-3.732,1.507-5.629,1.872
					C661.899,1137.618,659.733,1137.799,657.296,1137.799z M655.905,1106.497c-2.413,0-4.347,0.765-5.803,2.297
					c-1.456,1.531-2.324,3.762-2.604,6.694h16.233c-0.041-2.953-0.755-5.191-2.132-6.708
					C660.218,1107.259,658.321,1106.497,655.905,1106.497z"/>
			</g>
			<g>
				<g>
					<path fill="#4E4E4E" d="M474.434,1037.446c0,8.922-2.443,15.801-7.314,20.62c-4.874,4.818-11.729,7.241-20.557,7.241h-17.17
						v-53.449h18.367c8.513,0,15.088,2.197,19.719,6.585C472.114,1022.819,474.434,1029.162,474.434,1037.446z M459.55,1037.961
						c0-4.897-0.96-8.529-2.884-10.898c-1.914-2.358-4.839-3.543-8.763-3.543h-4.173v29.935h3.199c4.35,0,7.553-1.275,9.586-3.814
						C458.532,1047.089,459.55,1043.2,459.55,1037.961z"/>
				</g>
				<g>
					<path fill="#4E4E4E" d="M498.501,1066.038c-6.856,0-12.17-1.836-15.957-5.502c-3.783-3.67-5.68-8.899-5.68-15.668
						c0-6.991,1.75-12.367,5.257-16.102c3.51-3.738,8.52-5.611,15.023-5.611c6.19,0,10.974,1.626,14.354,4.88
						c3.377,3.253,5.058,7.935,5.058,14.062v6.359h-25.355c0.092,2.313,0.936,4.125,2.515,5.44c1.589,1.322,3.745,1.972,6.479,1.972
						c2.492,0,4.785-0.239,6.879-0.708c2.085-0.475,4.362-1.285,6.798-2.43v10.269c-2.218,1.152-4.518,1.941-6.89,2.382
						C504.608,1065.819,501.778,1066.038,498.501,1066.038z M497.656,1032.88c-1.667,0-3.059,0.533-4.186,1.592
						c-1.134,1.056-1.784,2.72-1.982,4.986h12.197c-0.051-1.996-0.611-3.588-1.689-4.788
						C500.917,1033.471,499.468,1032.88,497.656,1032.88z"/>
				</g>
				<g>
					<path fill="#4E4E4E" d="M530.893,1065.306l-15.673-41.424h14.805l6.965,24.495c0.02,0.126,0.072,0.328,0.15,0.625
						c0.069,0.291,0.143,0.639,0.212,1.036c0.078,0.406,0.143,0.834,0.198,1.288c0.065,0.451,0.096,0.868,0.096,1.254h0.246
						c0-1.258,0.222-2.638,0.656-4.125l7.293-24.573h14.765l-15.68,41.424H530.893z"/>
				</g>
				<g>
					<path fill="#4E4E4E" d="M576.002,1065.306h-14.115v-53.449h31.353v11.591h-17.238v10.201h15.891v11.588h-15.891V1065.306z"/>
				</g>
				<g>
					<path fill="#4E4E4E" d="M616.5,1066.038c-6.849,0-12.149-1.836-15.95-5.502c-3.783-3.67-5.677-8.899-5.677-15.668
						c0-6.991,1.751-12.367,5.257-16.102c3.51-3.738,8.513-5.611,15.023-5.611c6.19,0,10.975,1.626,14.351,4.88
						c3.376,3.253,5.054,7.935,5.054,14.062v6.359H609.2c0.1,2.313,0.944,4.125,2.526,5.44c1.583,1.322,3.736,1.972,6.476,1.972
						c2.488,0,4.785-0.239,6.883-0.708c2.078-0.475,4.35-1.285,6.794-2.43v10.269c-2.215,1.152-4.532,1.941-6.89,2.382
						C622.614,1065.819,619.788,1066.038,616.5,1066.038z M615.66,1032.88c-1.661,0-3.062,0.533-4.187,1.592
						c-1.128,1.056-1.784,2.72-1.971,4.986h12.187c-0.054-1.996-0.615-3.588-1.685-4.788
						C618.92,1033.471,617.477,1032.88,615.66,1032.88z"/>
				</g>
				<g>
					<path fill="#4E4E4E" d="M669.876,1052.58c0,4.436-1.497,7.791-4.501,10.053c-3,2.266-7.304,3.404-12.915,3.404
						c-3.045,0-5.701-0.161-7.946-0.496c-2.252-0.328-4.542-0.936-6.889-1.804v-11.444c2.204,0.977,4.614,1.783,7.242,2.412
						c2.618,0.629,4.962,0.943,7.016,0.943c3.079,0,4.611-0.7,4.611-2.109c0-0.734-0.431-1.391-1.292-1.958
						c-0.851-0.574-3.352-1.688-7.488-3.345c-3.776-1.565-6.408-3.335-7.908-5.324c-1.507-1.979-2.252-4.497-2.252-7.545
						c0-3.848,1.469-6.849,4.426-8.991c2.946-2.153,7.119-3.222,12.515-3.222c2.71,0,5.257,0.297,7.645,0.899
						c2.375,0.598,4.843,1.466,7.413,2.614l-3.848,9.213c-1.887-0.848-3.883-1.582-5.991-2.177
						c-2.102-0.598-3.811-0.888-5.147-0.888c-2.32,0-3.475,0.567-3.475,1.708c0,0.707,0.403,1.316,1.206,1.804
						c0.813,0.506,3.154,1.524,7.03,3.058c2.871,1.199,5.02,2.371,6.439,3.516c1.411,1.145,2.454,2.491,3.121,4.036
						C669.548,1048.487,669.876,1050.359,669.876,1052.58z"/>
				</g>
				<g>
					<path fill="#4E4E4E" d="M693.436,1054.744c1.908,0,4.194-0.479,6.852-1.432v10.426c-1.917,0.823-3.732,1.408-5.464,1.767
						c-1.726,0.359-3.756,0.533-6.08,0.533c-4.761,0-8.202-1.179-10.294-3.523c-2.116-2.358-3.168-5.97-3.168-10.846v-17.066h-4.962
						v-5.819l6.305-4.497l3.667-8.697h9.293v8.293h10.092v10.72h-10.092v16.119C689.585,1053.397,690.867,1054.744,693.436,1054.744
						z"/>
				</g>
			</g>
			<g>
				<g>
					<path fill="#4E4E4E" d="M273.274,1035.265h23.072v28.81c-6.267,2.143-13.157,3.219-20.659,3.219
						c-8.24,0-14.611-2.389-19.105-7.17c-4.497-4.774-6.746-11.588-6.746-20.435c0-8.635,2.461-15.344,7.385-20.148
						c4.928-4.801,11.825-7.207,20.697-7.207c3.367,0,6.539,0.321,9.528,0.953c2.977,0.633,5.585,1.439,7.81,2.409l-4.573,11.332
						c-3.848-1.893-8.086-2.843-12.686-2.843c-4.218,0-7.478,1.37-9.782,4.115c-2.31,2.734-3.461,6.653-3.461,11.755
						c0,4.996,1.045,8.803,3.13,11.42c2.082,2.625,5.085,3.933,9.013,3.933c2.15,0,4.125-0.201,5.929-0.622v-8.372h-9.548v-11.151
						H273.274z"/>
				</g>
				<g>
					<path fill="#4E4E4E" d="M348.134,1038.7c0,8.926-2.461,15.798-7.372,20.626c-4.912,4.825-11.812,7.241-20.714,7.241h-17.297
						v-53.463h18.503c8.582,0,15.208,2.194,19.877,6.585C345.796,1024.077,348.134,1030.409,348.134,1038.7z M333.143,1039.216
						c0-4.904-0.974-8.536-2.911-10.891c-1.938-2.375-4.877-3.55-8.828-3.55h-4.211v29.942h3.219c4.389,0,7.604-1.271,9.655-3.82
						C332.118,1048.353,333.143,1044.454,333.143,1039.216z"/>
				</g>
				<g>
					<path fill="#4E4E4E" d="M374.688,1035.265h23.073v28.81c-6.268,2.143-13.148,3.219-20.66,3.219
						c-8.244,0-14.611-2.389-19.108-7.17c-4.49-4.774-6.747-11.588-6.747-20.435c0-8.635,2.465-15.344,7.393-20.148
						c4.924-4.801,11.821-7.207,20.7-7.207c3.352,0,6.534,0.321,9.521,0.953c2.983,0.633,5.587,1.439,7.809,2.409l-4.573,11.332
						c-3.851-1.893-8.083-2.843-12.692-2.843c-4.214,0-7.471,1.37-9.774,4.115c-2.304,2.734-3.456,6.653-3.456,11.755
						c0,4.996,1.039,8.803,3.123,11.42c2.082,2.625,5.089,3.933,9.016,3.933c2.143,0,4.118-0.201,5.919-0.622v-8.372h-9.546
						V1035.265z"/>
				</g>
			</g>
		</g>
	</g>
</g>
<path fill="#168B58" d="M141.413,1085.779l-12.032,20.115l21.535,15.307l10.985-18.243l-20.488-33.916
	C144.175,1073.637,144.175,1081.172,141.413,1085.779z"/>
<path fill="#D7AB56" d="M161.902,1102.957l-10.985,18.243l22.646,16.096c2.252-4.651,2.169-11.422-0.4-15.705L161.902,1102.957z"/>
</svg>
