<?xml version="1.0" encoding="utf-8"?>
<!-- Generator: Adobe Illustrator 19.0.0, SVG Export Plug-In . SVG Version: 6.00 Build 0)  -->
<svg version="1.1"
	 id="dark" inkscape:version="0.48.2 r9819" sodipodi:docname="‚Äö√Ñ√¨‚àöœÄ‚Äö√Ñ√¨‚àö¬∂‚Äö√Ñ√¨‚Äö√¢¬ß‚Äö√Ñ√¨‚Äö√†√®‚Äö√Ñ√¨≈ì√Ñ ‚Äö√Ñ√¨¬¨‚Ä¢‚Äö√Ñ√¨‚àö¬∂‚Äö√Ñ√¨‚Äö√†¬¥‚Äö√Ñ√Æ‚àö√¢‚Äö√Ñ√¨¬¨‚à´‚Äö√Ñ√¨¬¨¬µ‚Äö√Ñ√¨≈í¬©‚Äö√Ñ√Æ‚àö√° 1" xmlns:dc="http://purl.org/dc/elements/1.1/" xmlns:sodipodi="http://sodipodi.sourceforge.net/DTD/sodipodi-0.dtd" xmlns:inkscape="http://www.inkscape.org/namespaces/inkscape" xmlns:rdf="http://www.w3.org/1999/02/22-rdf-syntax-ns#" xmlns:cc="http://creativecommons.org/ns#" xmlns:svg="http://www.w3.org/2000/svg"
	 xmlns="http://www.w3.org/2000/svg" xmlns:xlink="http://www.w3.org/1999/xlink" x="0px" y="0px"
	 viewBox="-382.8 2350.2 623.8 200.1" style="enable-background:new -382.8 2350.2 623.8 200.1;" xml:space="preserve">
<style type="text/css">
	.st0{fill:#F6C25B;}
	.st1{fill:#0A985C;}
	.st2{fill:#5586C5;}
	.st3{fill:#D9423E;}
	.st4{fill:#168B58;}
	.st5{fill:#D7AB56;}
	.st6{enable-background:new    ;}
	.st7{fill:#FAFAFA;}
</style>
<g>
	<g>
		<path class="st0" d="M-355.9,2550.2h22.6c5.4,0,12-3.8,14.8-8.4l19.1-31.7c2.3-4.7,2.2-11.4-0.4-15.7l-11.3-18.6L-355.9,2550.2z"
			/>
		<path class="st1" d="M-331.6,2458.6l-50.3,84.2c-1.9,4.1,0.1,7.5,5.1,7.5h20.9l44.8-74.4l-20.5-33.9
			C-328.8,2446.4-328.8,2454-331.6,2458.6"/>
		<path class="st2" d="M-376.9,2350.2c-5.4,0-7.5,3.8-4.7,8.4l81.8,135.8c2.6,4.3,2.6,11.1,0.4,15.7l19.9-33.1l-76.3-126.8H-376.9
			L-376.9,2350.2z"/>
		<path class="st3" d="M-355.9,2350.2l76.3,126.8l11.1-18.4c2.8-4.6,2.8-12.1,0-16.7l-50-83.3c-2.8-4.6-9.4-8.4-14.8-8.4H-355.9
			L-355.9,2350.2z"/>
	</g>
</g>
<path class="st4" d="M-331.6,2458.6l-12,20.1l21.5,15.3l11-18.2l-20.5-33.9C-328.8,2446.4-328.8,2454-331.6,2458.6z"/>
<path class="st5" d="M-311.1,2475.8l-11,18.2l22.6,16.1c2.3-4.7,2.2-11.4-0.4-15.7L-311.1,2475.8z"/>
<g class="st6">
	<path class="st7" d="M-199.2,2408h23.1v28.9c-6.3,2.1-13.2,3.2-20.7,3.2c-8.3,0-14.6-2.4-19.1-7.2s-6.8-11.6-6.8-20.5
		c0-8.6,2.5-15.4,7.4-20.2s11.8-7.2,20.7-7.2c3.4,0,6.5,0.3,9.5,1c3,0.6,5.6,1.4,7.8,2.4l-4.6,11.4c-3.9-1.9-8.1-2.9-12.7-2.9
		c-4.2,0-7.5,1.4-9.8,4.1c-2.3,2.7-3.5,6.7-3.5,11.8c0,5,1,8.8,3.1,11.4c2.1,2.6,5.1,3.9,9,3.9c2.1,0,4.1-0.2,5.9-0.6v-8.4h-9.6
		V2408H-199.2z"/>
	<path class="st7" d="M-123.7,2411.5c0,8.9-2.5,15.8-7.4,20.7c-4.9,4.8-11.8,7.3-20.7,7.3h-17.3v-53.7h18.5c8.6,0,15.2,2.2,19.9,6.6
		C-126.1,2396.8-123.7,2403.2-123.7,2411.5z M-138.7,2412c0-4.9-1-8.5-2.9-10.9s-4.9-3.6-8.8-3.6h-4.2v30h3.2c4.4,0,7.6-1.3,9.7-3.8
		C-139.8,2421.1-138.7,2417.2-138.7,2412z"/>
	<path class="st7" d="M-96.6,2408h23.1v28.9c-6.3,2.1-13.2,3.2-20.7,3.2c-8.3,0-14.6-2.4-19.1-7.2c-4.5-4.8-6.8-11.6-6.8-20.5
		c0-8.6,2.5-15.4,7.4-20.2s11.8-7.2,20.7-7.2c3.4,0,6.5,0.3,9.5,1c3,0.6,5.6,1.4,7.8,2.4l-4.6,11.4c-3.9-1.9-8.1-2.9-12.7-2.9
		c-4.2,0-7.5,1.4-9.8,4.1c-2.3,2.7-3.5,6.7-3.5,11.8c0,5,1,8.8,3.1,11.4c2.1,2.6,5.1,3.9,9,3.9c2.1,0,4.1-0.2,5.9-0.6v-8.4h-9.6
		V2408H-96.6z"/>
	<path class="st7" d="M9.9,2411.5c0,8.9-2.5,15.8-7.4,20.7c-4.9,4.8-11.8,7.3-20.7,7.3h-17.3v-53.7H-17c8.6,0,15.2,2.2,19.9,6.6
		C7.6,2396.8,9.9,2403.2,9.9,2411.5z M-5.1,2412c0-4.9-1-8.5-2.9-10.9s-4.9-3.6-8.8-3.6H-21v30h3.2c4.4,0,7.6-1.3,9.7-3.8
		C-6.1,2421.1-5.1,2417.2-5.1,2412z"/>
	<path class="st7" d="M34.7,2440.1c-6.9,0-12.3-1.8-16.1-5.5s-5.7-8.9-5.7-15.7c0-7,1.8-12.4,5.3-16.1c3.5-3.7,8.6-5.6,15.2-5.6
		c6.2,0,11.1,1.6,14.5,4.9c3.4,3.3,5.1,8,5.1,14.1v6.4H27.4c0.1,2.3,0.9,4.1,2.5,5.5c1.6,1.3,3.8,2,6.5,2c2.5,0,4.8-0.2,6.9-0.7
		c2.1-0.5,4.4-1.3,6.9-2.4v10.3c-2.2,1.1-4.6,1.9-7,2.4C40.8,2440.2,38,2440.1,34.7,2440.1z M33.9,2406.9c-1.7,0-3.1,0.5-4.2,1.6
		s-1.8,2.7-2,5H40c0-2-0.6-3.6-1.7-4.8C37.2,2407.5,35.7,2406.9,33.9,2406.9z"/>
	<path class="st7" d="M67.9,2439.4l-15.8-41.5H67l7,24.5c0,0.1,0.1,0.3,0.1,0.6s0.1,0.6,0.2,1s0.1,0.8,0.2,1.3
		c0.1,0.5,0.1,0.9,0.1,1.3H75c0-1.3,0.2-2.6,0.7-4.1l7.4-24.6H98l-15.8,41.5H67.9z"/>
	<path class="st7" d="M114,2439.4H99.7v-53.6h31.6v11.6H114v10.2h16v11.6h-16V2439.4z"/>
	<path class="st7" d="M155.4,2440.1c-6.9,0-12.3-1.8-16.1-5.5c-3.8-3.7-5.7-8.9-5.7-15.7c0-7,1.8-12.4,5.3-16.1
		c3.5-3.7,8.6-5.6,15.2-5.6c6.2,0,11.1,1.6,14.5,4.9c3.4,3.3,5.1,8,5.1,14.1v6.4H148c0.1,2.3,0.9,4.1,2.5,5.5c1.6,1.3,3.8,2,6.5,2
		c2.5,0,4.8-0.2,6.9-0.7c2.1-0.5,4.4-1.3,6.9-2.4v10.3c-2.2,1.1-4.6,1.9-7,2.4C161.6,2439.9,158.7,2440.1,155.4,2440.1z
		 M154.5,2406.9c-1.7,0-3.1,0.5-4.2,1.6c-1.1,1.1-1.8,2.7-2,5h12.3c0-2-0.6-3.6-1.7-4.8C157.8,2407.5,156.4,2406.9,154.5,2406.9z"/>
	<path class="st7" d="M209.8,2426.6c0,4.4-1.5,7.8-4.5,10.1s-7.4,3.4-13,3.4c-3.1,0-5.7-0.2-8-0.5s-4.6-0.9-7-1.8v-11.5
		c2.2,1,4.7,1.8,7.3,2.4c2.6,0.6,5,1,7.1,1c3.1,0,4.7-0.7,4.7-2.1c0-0.7-0.4-1.4-1.3-2c-0.9-0.6-3.4-1.7-7.6-3.4
		c-3.8-1.6-6.5-3.3-8-5.3s-2.3-4.5-2.3-7.6c0-3.9,1.5-6.9,4.5-9s7.2-3.2,12.6-3.2c2.7,0,5.3,0.3,7.7,0.9c2.4,0.6,4.9,1.5,7.5,2.6
		l-3.9,9.2c-1.9-0.9-3.9-1.6-6-2.2c-2.1-0.6-3.9-0.9-5.2-0.9c-2.3,0-3.5,0.6-3.5,1.7c0,0.7,0.4,1.3,1.2,1.8s3.2,1.5,7.1,3.1
		c2.9,1.2,5.1,2.4,6.5,3.5s2.5,2.5,3.1,4C209.5,2422.5,209.8,2424.4,209.8,2426.6z"/>
	<path class="st7" d="M234.1,2428.8c1.9,0,4.2-0.5,6.9-1.4v10.4c-1.9,0.8-3.8,1.4-5.5,1.8c-1.7,0.4-3.8,0.5-6.1,0.5
		c-4.8,0-8.3-1.2-10.4-3.5c-2.1-2.4-3.2-6-3.2-10.9v-17.1h-5v-5.8l6.4-4.5l3.7-8.7h9.4v8.3h10.2v10.7h-10.2v16.2
		C230.2,2427.4,231.5,2428.8,234.1,2428.8z"/>
</g>
<g class="st6">
	<path class="st7" d="M-184.9,2510h-31.9v-5.7l12.1-12.2c3.6-3.7,6-6.3,7.1-7.8c1.2-1.5,2-3,2.6-4.3c0.5-1.4,0.8-2.8,0.8-4.3
		c0-2.1-0.6-3.8-1.9-5c-1.3-1.2-3-1.8-5.3-1.8c-1.8,0-3.6,0.3-5.2,1c-1.7,0.7-3.6,1.9-5.8,3.6l-4.1-5c2.6-2.2,5.2-3.8,7.6-4.7
		c2.5-0.9,5.1-1.4,7.9-1.4c4.4,0,7.9,1.1,10.5,3.4c2.6,2.3,4,5.4,4,9.2c0,2.1-0.4,4.1-1.1,6.1c-0.8,1.9-1.9,3.9-3.5,5.9
		s-4.2,4.8-7.9,8.2l-8.2,7.9v0.3h22.4v6.6H-184.9z"/>
	<path class="st7" d="M-147.2,2486.4c0,8.2-1.3,14.3-3.9,18.2c-2.6,4-6.7,6-12.1,6c-5.2,0-9.2-2.1-11.9-6.2s-4.1-10.1-4.1-18
		c0-8.3,1.3-14.4,3.9-18.4c2.6-3.9,6.6-5.9,12-5.9c5.3,0,9.2,2.1,12,6.2S-147.2,2478.4-147.2,2486.4z M-171.6,2486.4
		c0,6.4,0.7,11,2,13.8s3.4,4.1,6.3,4.1s5-1.4,6.4-4.2c1.3-2.8,2-7.4,2-13.7s-0.7-10.9-2-13.7s-3.5-4.2-6.4-4.2s-5,1.4-6.3,4.2
		C-170.9,2475.4-171.6,2480-171.6,2486.4z"/>
	<path class="st7" d="M-119.3,2510h-7.6v-30.4c0-3.6,0.1-6.5,0.3-8.6c-0.5,0.5-1.1,1.1-1.8,1.7c-0.7,0.6-3.1,2.6-7.2,5.9l-3.8-4.8
		l13.9-10.9h6.3L-119.3,2510L-119.3,2510z"/>
	<path class="st7" d="M-87.8,2480.5c4.7,0,8.5,1.3,11.3,3.8s4.2,5.9,4.2,10.3c0,5-1.6,9-4.7,11.8s-7.6,4.2-13.4,4.2
		c-5.3,0-9.4-0.8-12.4-2.5v-6.9c1.7,1,3.7,1.8,6,2.3s4.4,0.8,6.3,0.8c3.4,0,6-0.8,7.8-2.3s2.7-3.8,2.7-6.7c0-5.6-3.6-8.4-10.8-8.4
		c-1,0-2.3,0.1-3.7,0.3c-1.5,0.2-2.8,0.4-3.9,0.7l-3.4-2l1.8-23h24.5v6.7h-17.8l-1.1,11.7c0.8-0.1,1.7-0.3,2.8-0.5
		C-90.7,2480.6-89.4,2480.5-87.8,2480.5z"/>
	<path class="st7" d="M-18.5,2497.2c0,4.2-1.5,7.5-4.5,9.9s-7.2,3.6-12.5,3.6s-9.7-0.8-13.1-2.5v-7.3c2.1,1,4.4,1.8,6.8,2.4
		c2.4,0.6,4.7,0.9,6.8,0.9c3.1,0,5.3-0.6,6.8-1.7c1.4-1.2,2.2-2.7,2.2-4.7c0-1.8-0.7-3.3-2-4.5s-4.1-2.7-8.2-4.3
		c-4.3-1.7-7.3-3.7-9.1-6c-1.8-2.2-2.6-4.9-2.6-8.1c0-3.9,1.4-7,4.2-9.3s6.5-3.4,11.2-3.4c4.5,0,9,1,13.5,3l-2.4,6.3
		c-4.2-1.8-7.9-2.6-11.2-2.6c-2.5,0-4.4,0.5-5.7,1.6s-1.9,2.5-1.9,4.3c0,1.2,0.3,2.3,0.8,3.1c0.5,0.9,1.4,1.7,2.5,2.5
		c1.2,0.8,3.3,1.8,6.4,3.1c3.5,1.4,6,2.8,7.6,4s2.8,2.7,3.5,4.2C-18.9,2493.2-18.5,2495-18.5,2497.2z"/>
	<path class="st7" d="M5.4,2510.6c-5.5,0-9.9-1.6-13-4.8s-4.7-7.7-4.7-13.4c0-5.8,1.5-10.4,4.4-13.7s6.9-5,12-5
		c4.7,0,8.4,1.4,11.2,4.3s4.1,6.8,4.1,11.8v4.1H-4.4c0.1,3.5,1,6.1,2.8,8s4.2,2.8,7.4,2.8c2.1,0,4.1-0.2,5.9-0.6
		c1.8-0.4,3.8-1.1,5.8-2v6.2c-1.8,0.9-3.7,1.5-5.6,1.9S7.8,2510.6,5.4,2510.6z M4,2479.4c-2.4,0-4.3,0.8-5.8,2.3
		c-1.4,1.5-2.3,3.7-2.6,6.7h16.2c0-2.9-0.8-5.2-2.1-6.7C8.3,2480.2,6.4,2479.4,4,2479.4z"/>
	<path class="st7" d="M50.1,2510l-1.5-5h-0.3c-1.7,2.2-3.4,3.6-5.2,4.4c-1.8,0.8-4,1.2-6.7,1.2c-3.5,0-6.2-0.9-8.2-2.8
		c-2-1.9-2.9-4.6-2.9-8c0-3.7,1.4-6.4,4.1-8.3c2.7-1.9,6.9-2.9,12.5-3.1l6.2-0.2v-1.9c0-2.3-0.5-4-1.6-5.1s-2.7-1.7-4.9-1.7
		c-1.8,0-3.6,0.3-5.3,0.8s-3.3,1.2-4.8,1.9l-2.4-5.4c1.9-1,4-1.8,6.3-2.3s4.5-0.8,6.5-0.8c4.5,0,8,1,10.3,3s3.5,5.1,3.5,9.3v24
		L50.1,2510L50.1,2510z M38.8,2504.8c2.8,0,5-0.8,6.6-2.3c1.7-1.5,2.5-3.7,2.5-6.5v-3.1l-4.6,0.2c-3.6,0.1-6.2,0.7-7.8,1.8
		c-1.6,1.1-2.4,2.7-2.4,4.9c0,1.6,0.5,2.8,1.4,3.7C35.5,2504.4,36.9,2504.8,38.8,2504.8z"/>
	<path class="st7" d="M90,2499.8c0,3.5-1.3,6.2-3.8,8c-2.5,1.9-6.2,2.8-10.9,2.8s-8.6-0.7-11.4-2.2v-6.5c4.2,1.9,8.1,2.9,11.7,2.9
		c4.7,0,7-1.4,7-4.2c0-0.9-0.3-1.7-0.8-2.3s-1.4-1.2-2.5-1.9c-1.2-0.6-2.8-1.4-4.9-2.2c-4.1-1.6-6.9-3.2-8.3-4.8
		c-1.5-1.6-2.2-3.7-2.2-6.2c0-3.1,1.2-5.4,3.7-7.1c2.5-1.7,5.8-2.5,10-2.5c4.2,0,8.2,0.8,11.9,2.5l-2.4,5.7
		c-3.8-1.6-7.1-2.4-9.7-2.4c-4,0-6,1.1-6,3.4c0,1.1,0.5,2.1,1.6,2.8c1,0.8,3.3,1.8,6.8,3.2c2.9,1.1,5.1,2.2,6.4,3.1
		c1.3,0.9,2.3,2,3,3.3C89.7,2496.6,90,2498.1,90,2499.8z"/>
	<path class="st7" d="M129.8,2492.1c0,5.8-1.5,10.4-4.5,13.6c-3,3.3-7.1,4.9-12.5,4.9c-3.3,0-6.3-0.8-8.8-2.3s-4.5-3.7-5.9-6.5
		s-2.1-6.1-2.1-9.8c0-5.8,1.5-10.3,4.4-13.5s7.1-4.9,12.5-4.9c5.2,0,9.2,1.7,12.2,5C128.3,2482,129.8,2486.4,129.8,2492.1z
		 M103.9,2492.1c0,8.2,3,12.3,9.1,12.3c6,0,9-4.1,9-12.3c0-8.1-3-12.2-9.1-12.2c-3.2,0-5.5,1.1-6.9,3.2
		C104.6,2485.1,103.9,2488.1,103.9,2492.1z"/>
	<path class="st7" d="M169.9,2510h-7.6v-21.9c0-2.8-0.6-4.8-1.7-6.2c-1.1-1.4-2.9-2-5.3-2c-3.2,0-5.5,0.9-7,2.8s-2.2,5.1-2.2,9.5
		v17.8h-7.6v-35.6h5.9l1.1,4.7h0.4c1.1-1.7,2.6-3,4.6-3.9s4.2-1.4,6.6-1.4c8.6,0,12.8,4.4,12.8,13.1L169.9,2510L169.9,2510z"/>
</g>
</svg>
