<?xml version="1.0" encoding="utf-8"?>
<!-- Generator: Adobe Illustrator 19.0.0, SVG Export Plug-In . SVG Version: 6.00 Build 0)  -->
<svg version="1.1" id="Layer_1" xmlns="http://www.w3.org/2000/svg" xmlns:xlink="http://www.w3.org/1999/xlink" x="0px" y="0px"
	 viewBox="0 0 264.7 208.3" style="enable-background:new 0 0 264.7 208.3;" xml:space="preserve">
<style type="text/css">
	.st0{fill-rule:evenodd;clip-rule:evenodd;fill:#EAF1F5;}
	.st1{fill:#EAF1F5;}
	.st2{fill-rule:evenodd;clip-rule:evenodd;fill:#2B8690;}
	.st3{fill-rule:evenodd;clip-rule:evenodd;fill:#206166;}
	.st4{fill-rule:evenodd;clip-rule:evenodd;fill:#194D44;}
	.st5{fill-rule:evenodd;clip-rule:evenodd;fill:#88CBC5;}
	.st6{fill-rule:evenodd;clip-rule:evenodd;fill:#E77D1A;}
	.st7{fill-rule:evenodd;clip-rule:evenodd;fill:#2F4861;}
</style>
<g>
	<path class="st0" d="M36.3,28.7c0.5-0.6,1-1.2,1.4-1.8c1.3-1.7,2.6-3.3,3.8-5c0.4-0.6,0.7-1.3,0.7-2.1c-0.1,0-0.1-0.1-0.2,0
		c-2.8,0.2-5.5-0.7-8-1.7c-1.1-0.4-2.2-0.9-3.4-1.4c-0.3-0.1-0.5-0.3-0.7-0.5c-0.6-0.7-0.3-1.5,0.5-1.7c0.1,0,0.1,0,0.2-0.1
		c-0.6-2-1.2-4-1.8-6.1c0.6,0,1.2,0,1.8,0c0.1,0,0.3,0.1,0.4,0.3c0.9,1.2,1.9,2.3,2.8,3.5c1.2,1.6,2.9,2.3,4.9,2.3
		c5.7,0,11.3,0,17,0c2.4,0,4.5,0.8,6.5,2.1c0.3,0.2,0.6,0.5,0.9,0.8c0.4,0.4,0.4,0.9-0.1,1.2c-0.4,0.3-0.9,0.6-1.4,0.7
		c-0.8,0.2-1.7,0.4-2.6,0.4c-2,0.1-4,0-5.9,0c-0.3,0-0.6,0.1-0.9,0.3c-4.3,2.8-8.6,5.6-12.8,8.4c-0.4,0.2-0.7,0.3-1.1,0.3
		C37.7,28.7,37.1,28.7,36.3,28.7z M61.4,16.9c-0.5-0.2-0.9-0.5-1.3-0.6c-0.1,0-0.2,0-0.3,0c-0.5,0.1-0.9,0.1-1.4,0.2
		c-0.3,0-0.5,0.2-0.6,0.5c0,0.4,0.1,0.6,0.5,0.7C59.4,17.8,60.4,17.6,61.4,16.9z M45.2,17.1c0-0.3-0.3-0.7-0.7-0.7
		c-0.4,0-0.7,0.3-0.7,0.7c0,0.4,0.3,0.7,0.7,0.7C44.9,17.7,45.2,17.4,45.2,17.1z M42,16.4c-0.4,0-0.6,0.3-0.6,0.7
		c0,0.4,0.3,0.7,0.7,0.6c0.4,0,0.6-0.3,0.6-0.7C42.6,16.7,42.3,16.4,42,16.4z M54.9,16.4c-0.4,0-0.7,0.3-0.7,0.7
		c0,0.4,0.3,0.7,0.6,0.7c0.4,0,0.7-0.3,0.7-0.7C55.5,16.7,55.2,16.4,54.9,16.4z M52.9,17c0-0.4-0.3-0.7-0.7-0.7
		c-0.3,0-0.7,0.3-0.7,0.7c0,0.4,0.3,0.7,0.7,0.7C52.6,17.7,52.9,17.4,52.9,17z M49.7,16.4c-0.4,0-0.7,0.3-0.7,0.7
		c0,0.4,0.3,0.7,0.7,0.7c0.4,0,0.7-0.3,0.7-0.7C50.4,16.7,50.1,16.4,49.7,16.4z M47.8,17.1c0-0.4-0.3-0.7-0.6-0.7
		c-0.3,0-0.7,0.3-0.7,0.6c0,0.4,0.3,0.7,0.7,0.7C47.5,17.7,47.8,17.4,47.8,17.1z M40.1,17.1c0-0.4-0.3-0.7-0.7-0.7
		c-0.3,0-0.7,0.3-0.7,0.7c0,0.4,0.3,0.7,0.7,0.7C39.8,17.7,40.1,17.4,40.1,17.1z"/>
	<path class="st0" d="M39.6,8c0.8,0,1.6,0,2.4,0c0.1,0,0.2,0.1,0.3,0.1c2.1,1.7,4.2,3.4,6.4,5.2c0,0,0,0,0.1,0.1c-0.2,0-0.3,0-0.4,0
		c-1.9,0-3.8,0-5.8,0c-0.3,0-0.4-0.1-0.6-0.4c-0.7-1.6-1.5-3.1-2.2-4.7C39.8,8.3,39.7,8.2,39.6,8z"/>
	<path class="st0" d="M48.1,24c0.9-0.8,3.8-2.5,4.1-2.5c-0.7,1-0.7,2.1,0,3.2C50.8,24.7,49.4,25,48.1,24z"/>
	<path class="st0" d="M33,18.8c-0.9,0.6-1.5,1.6-2.7,1.1c0.3-0.6,0.7-1.2,1.1-1.8C31.9,18.3,32.4,18.5,33,18.8z"/>
	<path class="st0" d="M52.1,12.5c-0.2,0.3-0.3,0.6-0.5,0.9c-1,0.3-1.5-0.3-2.2-0.9C50.3,12.5,51.2,12.5,52.1,12.5z"/>
	<path class="st0" d="M52.8,24.2c-0.5-0.6-0.5-1.6,0-2.1C53.3,22.6,53.3,23.6,52.8,24.2z"/>
</g>
<path class="st1" d="M228.2,46.1L228.2,46.1l-12.4,0h-0.4c-1.1,0-2.1-0.9-2.1-2.1c0-1,0.7-1.8,1.6-2h1.2h6v0c0.1,0,0.2,0,0.3-0.1
	c0.9-0.2,1.6-1,1.6-2c0-1.1-0.9-2-1.9-2.1v0h-26c-1.1,0-2.1,0.9-2.1,2.1c0,1,0.7,1.8,1.6,2h-5.8c-1.1,0-2.1,0.9-2.1,2.1
	c0,1.1,0.9,2.1,2.1,2.1h12v0c0,0,0.1,0,0.1,0c1,0.1,1.8,1,1.8,2.1c0,1-0.8,1.9-1.8,2h-0.1H183c-0.1,0-0.2,0-0.3,0
	c-1,0.2-1.8,1-1.8,2c0,1.1,0.9,2.1,2.1,2.1h7.4c-0.9,0.2-1.6,1-1.6,2c0,1.1,0.9,2.1,2.1,2.1h26v0c1.1-0.1,1.9-1,1.9-2.1
	c0-1-0.7-1.8-1.5-2c-0.1,0-0.3-0.1-0.4-0.1v0h-7.5h-1.8c-0.9-0.2-1.5-1-1.5-2c0-1.1,0.9-2.1,2.1-2.1h1.2h19v0c1.1-0.1,1.9-1,1.9-2.1
	C230.1,47.1,229.2,46.2,228.2,46.1z"/>
<path class="st1" d="M89.7,85.9L89.7,85.9l-24.5,0c-1.1,0-2,0.9-2,2c0,1,0.7,1.8,1.7,1.9H54.8c-1.1,0-2,0.9-2,2c0,1.1,0.9,2,2,2h7
	c-0.9,0.2-1.5,1-1.5,1.9c0,1.1,0.9,2,2,2h24.5v0c1-0.1,1.8-0.9,1.8-1.9c0-1-0.8-1.9-1.8-1.9v0h-2.7h-4.4h-1.3
	c-0.9-0.2-1.6-1-1.6-1.9c0-0.9,0.7-1.7,1.6-1.9h1.2H84h5.7v0c1-0.1,1.8-0.9,1.8-1.9C91.5,86.8,90.7,86,89.7,85.9z"/>
<g>
	<polygon class="st2" points="177.6,138 160.2,138 158,138 158,143.7 163.6,143.7 174.2,143.7 179.7,143.7 179.7,138 	"/>
	<path class="st3" d="M170.6,123.7c0-0.2,0.1-0.3,0.1-0.5c0-0.7-0.3-1.3-0.7-1.7c0.4-0.1,0.7-0.3,0.7-0.6c0-0.3-0.4-0.5-0.9-0.6
		c0-0.1,0-0.1,0-0.2c0-0.5-0.3-0.9-0.7-0.9c0.1-0.8,0.1-2,0.1-3.3c0-2.4-0.1-4.4-0.3-4.4c-0.1,0-0.3,2-0.3,4.4c0,1.3,0,2.5,0.1,3.3
		c-0.4,0.1-0.7,0.5-0.7,0.9c0,0.1,0,0.1,0,0.2c-0.6,0.1-0.9,0.3-0.9,0.6c0,0.2,0.3,0.4,0.7,0.6c-0.4,0.4-0.7,1-0.7,1.7
		c0,0.2,0,0.4,0.1,0.6c-0.4,0.2-0.7,0.5-0.8,0.8c0.3-0.1,0.7-0.2,1-0.3c0.5-0.1,1-0.1,1.4-0.1c0.5,0,1,0,1.4,0.1
		c0.5,0.1,0.9,0.2,1.3,0.4C171.5,124.3,171.1,123.9,170.6,123.7z"/>
	<path class="st4" d="M171.7,124.7c-0.4-0.2-0.9-0.3-1.3-0.4c-0.5-0.1-1-0.1-1.4-0.1c-0.5,0-1,0-1.4,0.1c-0.4,0.1-0.7,0.2-1,0.3
		c-3.8,1.3-6.6,5.4-6.6,10.4c0,1,0.1,2,0.3,3h17.5c0.2-0.9,0.3-1.9,0.3-3C178,130.2,175.3,126.1,171.7,124.7z"/>
</g>
<g>
	<path class="st4" d="M100.9,112.8c0-1.8-1.2-3.4-2.7-3.7c0-0.2,0-0.4,0-0.6c0-1.2-0.2-2.2-0.4-2.2c-0.2,0-0.4,1-0.4,2.2
		c0,0.2,0,0.4,0,0.6c-1.7,0.1-3,1.7-3,3.7c0,0.5,0.1,1.1,0.3,1.5v-0.6h5.8v0.6C100.7,113.9,100.9,113.4,100.9,112.8z"/>
	<path class="st2" d="M94.7,113.8v0.5v5.5c1-0.2,2-0.3,3.1-0.3c1,0,2,0.1,2.9,0.3v-5.5v-0.5H94.7z"/>
	<polygon class="st2" points="110.4,132 85.2,132 83.4,132 83.4,135.1 85.6,135.1 110,135.1 112.4,135.1 112.4,132 	"/>
	<path class="st4" d="M100.5,119.9c-0.9-0.2-1.7-0.3-2.7-0.3c-1,0-1.9,0.1-2.8,0.3c-5.6,1.3-9.7,6.2-9.8,12.1h25.1
		C110.3,126.1,106.1,121.1,100.5,119.9z"/>
	<polygon class="st5" points="110,135.1 85.6,135.1 84.6,135.1 84.6,150.9 111.2,150.9 111.2,135.1 	"/>
	<path class="st5" d="M99,127.7c0,0.8-0.6,1.4-1.4,1.4c-0.8,0-1.4-0.6-1.4-1.4c0-0.8,0.6-1.4,1.4-1.4C98.3,126.3,99,126.9,99,127.7z
		"/>
	<path class="st3" d="M98.2,141.9c-0.8,0-1.5,0.7-1.5,1.5v4.2h3.1v-4.2C99.7,142.5,99,141.9,98.2,141.9z"/>
</g>
<g>
	<g>
		<path class="st4" d="M214.2,133c0-0.2-0.1-0.3-0.3-0.4c0-0.3,0-0.8,0-1.3c0-1-0.1-1.7-0.1-1.7c-0.1,0-0.1,0.8-0.1,1.7
			c0,0.5,0,1,0,1.3c-0.2,0-0.3,0.2-0.3,0.4c0,0.2,0.2,0.4,0.4,0.4C214,133.4,214.2,133.3,214.2,133z"/>
		<path class="st4" d="M214.5,134.7c0.1-0.1,0.1-0.3,0.1-0.5c0-0.4-0.4-0.8-0.8-0.8c-0.4,0-0.8,0.4-0.8,0.8c0,0.2,0.1,0.3,0.1,0.5
			c-2,0.3-3.6,2.1-3.6,4.2c0,0.4,0.1,0.8,0.2,1.2h8.2c0.1-0.4,0.2-0.8,0.2-1.2C218.1,136.8,216.5,135,214.5,134.7z"/>
	</g>
	<polygon class="st5" points="216.3,142.3 211.4,142.3 209.2,142.3 209.2,154.1 218.5,154.1 218.5,142.3 	"/>
	<polygon class="st2" points="217.9,140 209.8,140 208.8,140 208.8,142.3 209.2,142.3 211.4,142.3 216.3,142.3 218.5,142.3 
		218.9,142.3 218.9,140 	"/>
	<path class="st3" d="M213.7,144.7c-0.8,0-1.5,0.9-1.5,2v5.4h2.9v-5.4C215.2,145.6,214.5,144.7,213.7,144.7z"/>
	<circle class="st5" cx="213.8" cy="137.4" r="0.5"/>
</g>
<g>
	<rect x="198.5" y="164.7" class="st3" width="25.5" height="40.9"/>
	<rect x="224" y="166.4" class="st2" width="22.6" height="37.3"/>
	<rect x="246.7" y="168.7" class="st4" width="14.8" height="33.1"/>
	<rect x="135" y="8.3" class="st6" width="10.8" height="2.3"/>
	<rect x="135" y="5.6" class="st7" width="10.8" height="2.7"/>
	<path class="st4" d="M134.3,26.3l-5.4,3.4h12.3l-4.9-3.4h-1.1V4.5c0.5-0.1,0.9-0.5,0.9-1c0-0.5-0.4-0.9-0.9-1V0H135v2.5
		c-0.5,0.1-0.9,0.5-0.9,1c0,0.5,0.4,0.9,0.9,1v21.8H134.3z"/>
	<rect x="121.9" y="35.3" class="st2" width="26.7" height="4.9"/>
	<rect x="121" y="40.2" class="st3" width="28.4" height="1.9"/>
	<rect x="130.6" y="29.7" class="st3" width="2.3" height="5.6"/>
	<rect x="137.4" y="29.7" class="st3" width="2.3" height="5.6"/>
	<rect x="134" y="29.7" class="st3" width="2.3" height="5.6"/>
	<rect x="124.2" y="51.3" class="st2" width="21.9" height="33.1"/>
	<rect x="121.7" y="86.7" class="st5" width="26.8" height="46.5"/>
	<rect x="120.1" y="133.1" class="st2" width="30.1" height="3"/>
	<rect x="120.1" y="136.1" class="st3" width="30.1" height="6"/>
	<polygon class="st5" points="222.9,166.4 201.4,166.4 182.9,144.2 203.5,144.2 	"/>
	<polygon class="st4" points="249.7,168.7 224.8,168.7 205.5,146.6 226.9,146.6 	"/>
	<polygon class="st2" points="264.7,169.9 250.7,169.9 229.8,149.2 242,149.2 	"/>
	<rect x="67.2" y="162.5" class="st2" width="132.4" height="43.1"/>
	<rect x="112.3" y="162.5" class="st5" width="44" height="45.7"/>
	<polygon class="st4" points="199.6,162.5 67.2,162.5 84.5,142.2 182.2,142.2 	"/>
	<rect x="115.6" y="159.6" class="st2" width="38.2" height="3"/>
	<rect x="121.2" y="156.1" class="st5" width="26.9" height="3"/>
	<g>
		<g>
			<g>
				<rect x="72.2" y="164.7" class="st4" width="3.5" height="5.1"/>
				<rect x="72.2" y="174" class="st4" width="3.5" height="5.1"/>
				<rect x="72.2" y="183.5" class="st4" width="3.5" height="5.1"/>
				<rect x="72.2" y="192.7" class="st4" width="3.5" height="5.1"/>
				<rect x="80.1" y="164.7" class="st4" width="3.5" height="5.1"/>
				<rect x="80.1" y="174" class="st4" width="3.5" height="5.1"/>
				<rect x="80.1" y="183.5" class="st4" width="3.5" height="5.1"/>
				<rect x="80.1" y="192.7" class="st4" width="3.5" height="5.1"/>
			</g>
			<g>
				<rect x="97.9" y="164.7" class="st4" width="3.5" height="5.1"/>
				<rect x="97.9" y="174" class="st4" width="3.5" height="5.1"/>
				<rect x="97.9" y="183.5" class="st4" width="3.5" height="5.1"/>
				<rect x="97.9" y="192.7" class="st4" width="3.5" height="5.1"/>
				<rect x="105.8" y="164.7" class="st4" width="3.5" height="5.1"/>
				<rect x="105.8" y="174" class="st4" width="3.5" height="5.1"/>
				<rect x="105.8" y="183.5" class="st4" width="3.5" height="5.1"/>
				<rect x="105.8" y="192.7" class="st4" width="3.5" height="5.1"/>
			</g>
			<rect x="89.1" y="164.7" class="st4" width="3.5" height="5.1"/>
			<rect x="89.1" y="174" class="st4" width="3.5" height="5.1"/>
			<rect x="89.1" y="183.5" class="st4" width="3.5" height="5.1"/>
			<rect x="88.5" y="192.7" class="st4" width="4.5" height="13"/>
			<g>
				<g>
					<rect x="116.1" y="167.3" class="st4" width="3.5" height="5.1"/>
					<rect x="116.1" y="176.6" class="st4" width="3.5" height="5.1"/>
					<rect x="116.1" y="186" class="st4" width="3.5" height="5.1"/>
					<rect x="115.6" y="195.3" class="st4" width="4.5" height="13"/>
				</g>
				<g>
					<rect x="124.3" y="167.3" class="st4" width="3.5" height="5.1"/>
					<rect x="124.3" y="176.6" class="st4" width="3.5" height="5.1"/>
					<rect x="124.3" y="186" class="st4" width="3.5" height="5.1"/>
					<rect x="123.8" y="195.3" class="st4" width="4.5" height="13"/>
				</g>
				<g>
					<rect x="132.4" y="167.3" class="st4" width="3.5" height="5.1"/>
					<rect x="132.4" y="176.6" class="st4" width="3.5" height="5.1"/>
					<rect x="132.4" y="186" class="st4" width="3.5" height="5.1"/>
					<rect x="131.9" y="195.3" class="st4" width="4.5" height="13"/>
				</g>
				<g>
					<rect x="140.6" y="167.3" class="st4" width="3.5" height="5.1"/>
					<rect x="140.6" y="176.6" class="st4" width="3.5" height="5.1"/>
					<rect x="140.6" y="186" class="st4" width="3.5" height="5.1"/>
					<rect x="140.1" y="195.3" class="st4" width="4.5" height="13"/>
				</g>
				<g>
					<rect x="149.3" y="167.3" class="st4" width="3.5" height="5.1"/>
					<rect x="149.3" y="176.6" class="st4" width="3.5" height="5.1"/>
					<rect x="149.3" y="186" class="st4" width="3.5" height="5.1"/>
					<rect x="148.7" y="195.3" class="st4" width="4.5" height="13"/>
				</g>
			</g>
		</g>
		<g>
			<rect x="175.5" y="164.7" class="st4" width="3.5" height="5.1"/>
			<rect x="175.5" y="174" class="st4" width="3.5" height="5.1"/>
			<rect x="175.5" y="183.5" class="st4" width="3.5" height="5.1"/>
			<rect x="174.9" y="192.7" class="st4" width="4.5" height="13"/>
		</g>
		<g>
			<rect x="159.3" y="164.7" class="st4" width="3.5" height="5.1"/>
			<rect x="159.3" y="174" class="st4" width="3.5" height="5.1"/>
			<rect x="159.3" y="183.5" class="st4" width="3.5" height="5.1"/>
			<rect x="159.3" y="192.7" class="st4" width="3.5" height="5.1"/>
			<rect x="167.2" y="164.7" class="st4" width="3.5" height="5.1"/>
			<rect x="167.2" y="174" class="st4" width="3.5" height="5.1"/>
			<rect x="167.2" y="183.5" class="st4" width="3.5" height="5.1"/>
			<rect x="167.2" y="192.7" class="st4" width="3.5" height="5.1"/>
		</g>
		<g>
			<rect x="183.3" y="164.7" class="st4" width="3.5" height="5.1"/>
			<rect x="183.3" y="174" class="st4" width="3.5" height="5.1"/>
			<rect x="183.3" y="183.5" class="st4" width="3.5" height="5.1"/>
			<rect x="183.3" y="192.7" class="st4" width="3.5" height="5.1"/>
			<rect x="191.2" y="164.7" class="st4" width="3.5" height="5.1"/>
			<rect x="191.2" y="174" class="st4" width="3.5" height="5.1"/>
			<rect x="191.2" y="183.5" class="st4" width="3.5" height="5.1"/>
			<rect x="191.2" y="192.7" class="st4" width="3.5" height="5.1"/>
		</g>
	</g>
	<rect x="124.2" y="44.2" class="st2" width="21.9" height="1.4"/>
	<polygon class="st5" points="146.2,44.2 124.2,44.2 121.7,42 148.5,42 	"/>
	<g>
		<rect x="125" y="42.1" class="st4" width="0.9" height="2.4"/>
		<rect x="127.4" y="42.1" class="st4" width="0.9" height="2.4"/>
		<rect x="129.8" y="42.1" class="st4" width="0.9" height="2.4"/>
		<rect x="132.2" y="42.1" class="st4" width="0.9" height="2.4"/>
		<rect x="134.8" y="42.1" class="st4" width="0.9" height="2.4"/>
		<rect x="137.3" y="42.1" class="st4" width="0.9" height="2.4"/>
		<rect x="139.7" y="42.1" class="st4" width="0.9" height="2.4"/>
		<rect x="142.1" y="42.1" class="st4" width="0.9" height="2.4"/>
		<rect x="144.3" y="42.1" class="st4" width="0.9" height="2.4"/>
	</g>
	<rect x="124.2" y="45.5" class="st5" width="21.9" height="5.2"/>
	<rect x="124.2" y="50.8" class="st4" width="21.9" height="0.5"/>
	<rect x="133.3" y="48.2" class="st2" width="3.6" height="1.8"/>
	<rect x="128.3" y="53.5" class="st5" width="13.4" height="30.9"/>
	<rect x="119.4" y="84.4" class="st5" width="31.5" height="1"/>
	<rect x="121.1" y="85.4" class="st2" width="28" height="1.1"/>
	<g>
		<rect x="123.8" y="86.5" class="st4" width="1.3" height="3"/>
		<rect x="126.9" y="86.5" class="st4" width="1.3" height="3"/>
		<rect x="129.9" y="86.5" class="st4" width="1.3" height="3"/>
		<rect x="133.1" y="86.5" class="st4" width="1.3" height="3"/>
		<rect x="136.1" y="86.5" class="st4" width="1.3" height="3"/>
		<rect x="139.2" y="86.5" class="st4" width="1.3" height="3"/>
		<rect x="142" y="86.5" class="st4" width="1.3" height="3"/>
		<rect x="145.2" y="86.5" class="st4" width="1.3" height="3"/>
	</g>
	<rect x="121.7" y="95.7" class="st4" width="26.8" height="0.9"/>
	<rect x="130.9" y="97.7" class="st3" width="8.1" height="8.1"/>
	<rect x="132.8" y="99.5" class="st2" width="4.7" height="4.7"/>
	<path class="st5" d="M136.9,101.8c0,0.9-0.7,1.7-1.7,1.7c-0.9,0-1.7-0.7-1.7-1.7c0-0.9,0.7-1.7,1.7-1.7
		C136.1,100.2,136.9,100.9,136.9,101.8z"/>
	<path class="st3" d="M135.1,111.6c-2.2,0-4,1.8-4,4v14.7h8.1v-14.7C139.2,113.4,137.4,111.6,135.1,111.6z"/>
	<path class="st4" d="M138.5,60.7c0,2-1.6,3.7-3.7,3.7c-2,0-3.7-1.6-3.7-3.7c0-2,1.6-3.7,3.7-3.7C136.9,57,138.5,58.7,138.5,60.7z"
		/>
	<rect x="130" y="55.6" class="st2" width="9.9" height="0.6"/>
	<rect x="129.8" y="65.6" class="st2" width="10.3" height="0.7"/>
	<rect x="130.6" y="71.7" class="st2" width="8.4" height="0.7"/>
	<rect x="131.6" y="73.1" class="st3" width="6.4" height="11.3"/>
	<rect x="119.4" y="81.8" class="st4" width="31.5" height="2.6"/>
</g>
<g>
	<g>
		<path class="st4" d="M40.3,113.8c0-0.4-0.3-0.8-0.7-0.9c0.1-0.8,0.1-1.9,0.1-3.1c0-2.3-0.1-4.1-0.3-4.1c-0.2,0-0.3,1.8-0.3,4.1
			c0,1.3,0,2.4,0.1,3.1c-0.4,0.1-0.7,0.4-0.7,0.9c0,0.5,0.4,0.9,0.9,0.9C39.9,114.7,40.3,114.3,40.3,113.8z"/>
		<path class="st4" d="M39.4,114.7c-1.1,0-1.9,0.9-1.9,1.9c0,0.4,0.1,0.8,0.4,1.1v11.9H41v-11.9c0.2-0.3,0.4-0.7,0.4-1.1
			C41.4,115.5,40.5,114.7,39.4,114.7z"/>
	</g>
	<rect x="52.7" y="142.9" class="st2" width="14.4" height="20.2"/>
	<rect x="26.1" y="144.2" class="st5" width="26.6" height="55.2"/>
	<polygon class="st4" points="25.8,144.3 39.4,127 53.1,144.3 	"/>
	<polygon class="st4" points="52.6,143.1 60.1,138.3 67.5,143.1 	"/>
	<rect x="0" y="153" class="st4" width="26.1" height="10.1"/>
	<rect x="26.1" y="163.1" class="st4" width="41.1" height="2.9"/>
	<rect x="26.1" y="166" class="st5" width="26.5" height="33.4"/>
	<rect x="52.6" y="166" class="st2" width="14.6" height="33.4"/>
	<rect x="0" y="163.1" class="st2" width="26.1" height="36.3"/>
	<rect x="0" y="199.4" class="st4" width="67.2" height="6.3"/>
	<g>
		<path class="st4" d="M40.3,154.1c-1,0-1.8,0.8-1.8,1.8v5h3.6v-5C42.1,154.9,41.3,154.1,40.3,154.1z"/>
		<path class="st4" d="M60.1,150.7c-1,0-1.8,1.1-1.8,2.5v6.8h3.6v-6.8C61.9,151.8,61.1,150.7,60.1,150.7z"/>
		<path class="st4" d="M49.9,155.4c-0.7,0-1.2,0.7-1.2,1.5v4h2.5v-4C51.1,156,50.5,155.4,49.9,155.4z"/>
		<path class="st4" d="M30.4,155.4c-0.7,0-1.2,0.7-1.2,1.5v4h2.5v-4C31.6,156,31.1,155.4,30.4,155.4z"/>
		<rect x="28" y="190.7" class="st4" width="2.4" height="2.4"/>
		<rect x="28" y="177.8" class="st4" width="2.4" height="2.4"/>
		<path class="st4" d="M59.9,170.9c-1,0-1.8,1.1-1.8,2.5v6.9h3.6v-6.9C61.7,172,60.9,170.9,59.9,170.9z"/>
		<g>
			<rect x="5.9" y="166" class="st4" width="3.4" height="7"/>
			<rect x="14.2" y="166" class="st4" width="3.4" height="7"/>
			<rect x="5.9" y="178.1" class="st4" width="3.4" height="7"/>
			<rect x="14.2" y="178.1" class="st4" width="3.4" height="7"/>
			<rect x="5.9" y="190.7" class="st4" width="3.4" height="7"/>
			<rect x="14.2" y="190.7" class="st4" width="3.4" height="7"/>
		</g>
	</g>
</g>
<g>
	<path class="st2" d="M254.3,90.2c0-0.1,0-0.1,0-0.2c0-0.1,0-0.1,0-0.2c0-0.1,0-0.3,0-0.4c-0.3-3.4-2.7-6.2-5.8-7.3
		c-1-0.4-2-0.6-3-0.5c-0.1,0-0.1,0.1-0.2,0.2c0,0-0.1,0-0.1,0.1c0,0,0,0,0.1,0c0,0,0,0,0,0c0.5,0.3,1,0.7,1.4,1c1.1,1,2.3,1.9,3.3,3
		c0.1,0.1,0.1,0.1,0.2,0.2c1.3,1.6,2.1,3.6,2,6.1c-0.2,4.8-2.2,8.8-5.6,12.1c-0.2,0.2-0.4,0.2-0.7,0.2c0-0.2,0.1-0.4,0.2-0.5
		c2.1-3.5,3.2-7.3,3.6-11.4c0.4-4.2-1.8-7.5-4.3-10.6c0,0-0.1-0.1-0.1-0.1c0,0,0,0,0,0c0,0,0,0,0,0c0,0,0,0.1,0,0.1
		c0,0.2,0,0.3,0,0.5c0.4,2.5,0.9,4.9,1.1,7.4c0.1,1.8,0.2,3.5,0.2,5.2c-0.2,2.7-0.6,5.3-0.9,7.9c-0.1,0.2-0.1,0.5-0.2,0.7
		c-0.1,0.3-0.3,0.5-0.5,0.7c-0.2-0.2-0.4-0.5-0.5-0.7c-0.1-0.2-0.1-0.5-0.2-0.7c-0.4-2.6-0.8-5.3-0.9-7.9c0-1.7,0-3.5,0.2-5.2
		c0.2-2.5,0.7-4.9,1.1-7.4c0-0.2,0-0.3,0-0.5c0,0,0-0.1,0-0.1c0,0,0,0,0,0c0,0,0,0,0,0c0,0.1-0.1,0.1-0.1,0.1
		c-2.5,3.1-4.6,6.3-4.3,10.6c0.3,4,1.5,7.8,3.6,11.4c0.1,0.1,0.2,0.3,0.2,0.5c-0.3,0-0.5-0.1-0.7-0.2c-3.3-3.4-5.3-7.4-5.6-12.1
		c-0.1-2.5,0.7-4.5,2-6.1c0.1-0.1,0.1-0.1,0.2-0.2c1-1.1,2.2-2,3.3-3c0.5-0.3,0.9-0.7,1.4-1c0,0,0,0,0,0c0,0,0,0,0.1,0
		c0,0-0.1,0-0.1-0.1c-0.1-0.1-0.1-0.2-0.2-0.2c-1.1,0-2.1,0.2-3,0.5c-3.1,1.1-5.5,3.9-5.8,7.3c0,0.1,0,0.3,0,0.4c0,0.1,0,0.1,0,0.2
		c0,0.1,0,0.1,0,0.2c0,0,0,0.1,0,0.1c0,0,0,0,0,0c0,0.2,0,0.3,0,0.5c0,0.1,0,0.1,0,0.2c0,0,0,0,0,0.1c0.1,1.4,0.3,2.7,0.7,4
		c1.1,3.6,3.6,6.3,6.1,8.9c0.5,0.5,0.9,0.8,1.3,1c0.4,0.2,0.9,0.4,1.4,0.4c0.5,0,1-0.1,1.4-0.4c0.4-0.2,0.9-0.6,1.3-1
		c2.5-2.6,5-5.3,6.1-8.9c0.4-1.3,0.6-2.6,0.7-4c0,0,0,0,0-0.1c0-0.1,0-0.1,0-0.2c0-0.2,0-0.3,0-0.5c0,0,0,0,0,0
		C254.3,90.3,254.3,90.3,254.3,90.2z"/>
	<rect x="242.3" y="107" class="st2" width="5" height="4.4"/>
</g>
</svg>
