<?xml version="1.0" encoding="utf-8"?>
<!-- Generator: Adobe Illustrator 19.0.0, SVG Export Plug-In . SVG Version: 6.00 Build 0)  -->
<svg version="1.1" id="Layer_1" xmlns="http://www.w3.org/2000/svg" xmlns:xlink="http://www.w3.org/1999/xlink" x="0px" y="0px"
	 viewBox="0 0 200 200" style="enable-background:new 0 0 200 200;" xml:space="preserve">
<style type="text/css">
	.st0{opacity:0.4;}
	.st1{fill:none;stroke:#FFFFFF;stroke-width:0.25;stroke-miterlimit:10;}
	.st2{fill:none;stroke:#FFFFFF;stroke-miterlimit:10;}
</style>
<g class="st0">
	<g>
		<line id="XMLID_17_" class="st1" x1="0.3" y1="0.3" x2="199.7" y2="199.7"/>
		<line id="XMLID_16_" class="st1" x1="199.7" y1="0.3" x2="0.3" y2="199.7"/>
		<line id="XMLID_15_" class="st1" x1="129.2" y1="0" x2="129.2" y2="200"/>
		<line id="XMLID_14_" class="st1" x1="70.8" y1="0" x2="70.8" y2="200"/>
		<line id="XMLID_13_" class="st1" x1="200" y1="129.2" x2="0" y2="129.2"/>
		<line id="XMLID_12_" class="st1" x1="200" y1="70.8" x2="0" y2="70.8"/>
		<circle id="XMLID_11_" class="st1" cx="100" cy="100" r="41.7"/>
		<line id="XMLID_10_" class="st1" x1="0" y1="100" x2="200" y2="100"/>
		<line id="XMLID_9_" class="st1" x1="100" y1="0" x2="100" y2="200"/>
	</g>
	<g>
		<path class="st2" d="M100,8.6c50.4,0,91.4,41,91.4,91.4s-41,91.4-91.4,91.4c-50.4,0-91.4-41-91.4-91.4S49.6,8.6,100,8.6 M100,8.3
			c-50.6,0-91.7,41-91.7,91.7s41,91.7,91.7,91.7c50.6,0,91.7-41,91.7-91.7S150.6,8.3,100,8.3L100,8.3z"/>
	</g>
	<g>
		<path class="st2" d="M166.7,21.1c6.7,0,12.2,5.5,12.2,12.2v133.3c0,6.7-5.5,12.2-12.2,12.2H33.3c-6.7,0-12.2-5.5-12.2-12.2V33.3
			c0-6.7,5.5-12.2,12.2-12.2H166.7 M166.7,20.8H33.3c-6.9,0-12.5,5.6-12.5,12.5v133.3c0,6.9,5.6,12.5,12.5,12.5h133.3
			c6.9,0,12.5-5.6,12.5-12.5V33.3C179.2,26.5,173.5,20.8,166.7,20.8L166.7,20.8z"/>
	</g>
	<g>
		<path class="st2" d="M154.2,8.6c6.7,0,12.2,5.5,12.2,12.2v158.3c0,6.7-5.5,12.2-12.2,12.2H45.8c-6.7,0-12.2-5.5-12.2-12.2V20.8
			c0-6.7,5.5-12.2,12.2-12.2H154.2 M154.2,8.3H45.8C39,8.3,33.3,14,33.3,20.8v158.3c0,6.9,5.6,12.5,12.5,12.5h108.3
			c6.9,0,12.5-5.6,12.5-12.5V20.8C166.7,14,161,8.3,154.2,8.3L154.2,8.3z"/>
	</g>
	<g>
		<path class="st2" d="M179.2,33.6c6.7,0,12.2,5.5,12.2,12.2v108.3c0,6.7-5.5,12.2-12.2,12.2H20.8c-6.7,0-12.2-5.5-12.2-12.2V45.8
			c0-6.7,5.5-12.2,12.2-12.2H179.2 M179.2,33.3H20.8C14,33.3,8.3,39,8.3,45.8v108.3c0,6.9,5.6,12.5,12.5,12.5h158.3
			c6.9,0,12.5-5.6,12.5-12.5V45.8C191.7,39,186,33.3,179.2,33.3L179.2,33.3z"/>
	</g>
</g>
</svg>
