<svg id="Layer_1" xmlns="http://www.w3.org/2000/svg" viewBox="0 0 200 200"><style>.st0{opacity:0.4;} .st1{fill:none;stroke:#FFFFFF;stroke-width:0.25;stroke-miterlimit:10;} .st2{fill:none;stroke:#FFFFFF;stroke-miterlimit:10;}</style><g class="st0"><path id="XMLID_17_" class="st1" d="M.3.3l199.4 199.4"/><path id="XMLID_16_" class="st1" d="M199.7.3L.3 199.7"/><path id="XMLID_15_" class="st1" d="M129.2 0v200"/><path id="XMLID_14_" class="st1" d="M70.8 0v200"/><path id="XMLID_13_" class="st1" d="M200 129.2H0"/><path id="XMLID_12_" class="st1" d="M200 70.8H0"/><circle id="XMLID_11_" class="st1" cx="100" cy="100" r="41.7"/><path id="XMLID_10_" class="st1" d="M0 100h200"/><path id="XMLID_9_" class="st1" d="M100 0v200"/><g><path class="st2" d="M100 8.6c50.4 0 91.4 41 91.4 91.4s-41 91.4-91.4 91.4c-50.4 0-91.4-41-91.4-91.4S49.6 8.6 100 8.6m0-.3c-50.6 0-91.7 41-91.7 91.7s41 91.7 91.7 91.7c50.6 0 91.7-41 91.7-91.7S150.6 8.3 100 8.3z"/></g><g><path class="st2" d="M166.7 21.1c6.7 0 12.2 5.5 12.2 12.2v133.3c0 6.7-5.5 12.2-12.2 12.2H33.3c-6.7 0-12.2-5.5-12.2-12.2V33.3c0-6.7 5.5-12.2 12.2-12.2h133.4m0-.3H33.3c-6.9 0-12.5 5.6-12.5 12.5v133.3c0 6.9 5.6 12.5 12.5 12.5h133.3c6.9 0 12.5-5.6 12.5-12.5V33.3c.1-6.8-5.6-12.5-12.4-12.5z"/></g><g><path class="st2" d="M154.2 8.6c6.7 0 12.2 5.5 12.2 12.2v158.3c0 6.7-5.5 12.2-12.2 12.2H45.8c-6.7 0-12.2-5.5-12.2-12.2V20.8c0-6.7 5.5-12.2 12.2-12.2h108.4m0-.3H45.8C39 8.3 33.3 14 33.3 20.8v158.3c0 6.9 5.6 12.5 12.5 12.5h108.3c6.9 0 12.5-5.6 12.5-12.5V20.8c.1-6.8-5.6-12.5-12.4-12.5z"/></g><g><path class="st2" d="M179.2 33.6c6.7 0 12.2 5.5 12.2 12.2v108.3c0 6.7-5.5 12.2-12.2 12.2H20.8c-6.7 0-12.2-5.5-12.2-12.2V45.8c0-6.7 5.5-12.2 12.2-12.2h158.4m0-.3H20.8C14 33.3 8.3 39 8.3 45.8v108.3c0 6.9 5.6 12.5 12.5 12.5h158.3c6.9 0 12.5-5.6 12.5-12.5V45.8c.1-6.8-5.6-12.5-12.4-12.5z"/></g></g></svg>