<svg xmlns="http://www.w3.org/2000/svg" xmlns:xlink="http://www.w3.org/1999/xlink" viewBox="0 0 779.73 303.01"><defs><style>.cls-1,.cls-3,.cls-4,.cls-5{fill:none;}.cls-2{fill:#fff;}.cls-3{stroke:#202124;}.cls-10,.cls-3,.cls-4,.cls-5{stroke-miterlimit:10;}.cls-3,.cls-4{stroke-width:1.5px;}.cls-10,.cls-4,.cls-5{stroke:#fff;}.cls-5{stroke-width:1.5px;}.cls-6{clip-path:url(#clip-path);}.cls-7{clip-path:url(#clip-path-2);}.cls-8{font-size:42.35px;letter-spacing:0.02em;}.cls-8,.cls-9{fill:#f8f9fa;}.cls-10,.cls-8{font-family:ProductSans-Regular, Product Sans;}.cls-10{font-size:112px;fill:#231f20;letter-spacing:0.22em;}</style><clipPath id="clip-path"><rect class="cls-1" x="290.13" y="12.37" width="34.26" height="59.11"/></clipPath><clipPath id="clip-path-2"><rect class="cls-1" x="493.91" y="27.57" width="24.04" height="18"/></clipPath></defs><title>logo-monochrome</title><g id="Layer_2" data-name="Layer 2"><g id="Layer_4" data-name="Layer 4"><path class="cls-2" d="M417.75,1.5V103.12H378.34V1.5h39.41m1.5-1.5H376.84V104.62h42.41V0Z"/><path class="cls-2" d="M751.58,1.5V103.12H712.17V1.5h39.41m1.5-1.5H710.67V104.62h42.41V0Z"/><path class="cls-2" d="M41.4,1.5V103.12H2V1.5H41.4M42.9,0H.5V104.62H42.9V0Z"/><path class="cls-2" d="M158.29,104.62h0V0h0a37.41,37.41,0,0,0-37.41,37.41v29.8A37.41,37.41,0,0,0,158.29,104.62Z"/><path class="cls-2" d="M204.2,1.5V103.12H159.79V1.5H204.2M205.7,0H158.29V104.62H205.7V0Z"/><path class="cls-2" d="M290.27,1.5V99L234,1.5h56.3m1.5-1.5h-60.4l60.4,104.62V0Z"/><polygon class="cls-2" points="352.18 0 291.77 0 291.77 104.62 291.77 104.62 352.18 0"/><path class="cls-2" d="M42.9,0a52.31,52.31,0,0,1,0,104.62Z"/><path class="cls-3" d="M42.9,84.65A32.34,32.34,0,0,0,42.9,20H21.7V44.72"/><path class="cls-2" d="M631.49,78.46a39.23,39.23,0,0,1,0-78.46Z"/><rect class="cls-2" x="419.25" width="34.88" height="26.15"/><rect class="cls-2" x="684.01" width="26.66" height="26.15"/><rect class="cls-2" x="753.08" width="26.66" height="26.15"/><rect class="cls-2" x="419.25" y="52.31" width="26.16" height="26.15"/><rect class="cls-2" x="631.49" width="34.87" height="26.15"/><path class="cls-2" d="M633,27.68a37.73,37.73,0,0,1-1.5,75.44H598.12V80H633V27.68m-1.5-1.53V78.46H596.62v26.16h34.87a39.24,39.24,0,1,0,0-78.47Z"/><path class="cls-3" d="M613.2,57.93a26.16,26.16,0,0,1,18.29-44.85h19.62"/><line class="cls-4" x1="697.34" y1="13.33" x2="766.4" y2="13.33"/><path class="cls-2" d="M516.48,104.62h0V0h0a37.41,37.41,0,0,0-37.41,37.41v29.8A37.41,37.41,0,0,0,516.48,104.62Z"/><path class="cls-2" d="M562.39,1.5V103.12H518V1.5h44.41m1.5-1.5H516.48V104.62h47.41V0Z"/><line class="cls-4" x1="563.89" y1="36.57" x2="517.45" y2="36.57"/><line class="cls-4" x1="563.89" y1="68.05" x2="550.02" y2="68.05"/><line class="cls-4" x1="537.37" y1="68.05" x2="526.83" y2="68.05"/><circle class="cls-4" cx="268.51" cy="21.44" r="6.65"/><line class="cls-4" x1="271.84" y1="27.2" x2="288.49" y2="56.04"/><rect class="cls-4" x="539.22" y="63.57" width="8.94" height="8.94" transform="translate(207.36 -364.52) rotate(45)"/><circle class="cls-4" cx="731.87" cy="35.45" r="6.32"/><circle class="cls-4" cx="731.87" cy="59.7" r="6.32"/><circle class="cls-4" cx="731.87" cy="83.94" r="6.32"/><path class="cls-4" d="M619.13,91.54h12.36a26.16,26.16,0,1,0,0-52.31"/><polyline class="cls-4" points="424.99 65.3 398.05 65.3 398.05 92.24"/><polyline class="cls-4" points="436.63 13.07 398.05 13.07 398.05 51.65"/><line class="cls-5" x1="205.7" y1="36.57" x2="158.1" y2="36.57"/><line class="cls-5" x1="205.7" y1="52.31" x2="158.1" y2="52.31"/><line class="cls-5" x1="205.7" y1="68.05" x2="158.1" y2="68.05"/><polyline class="cls-4" points="41.29 19.98 21.7 19.98 21.7 44.72"/><rect class="cls-4" x="16.34" y="46.95" width="10.73" height="10.73" transform="translate(43.35 -0.02) rotate(45)"/><circle class="cls-4" cx="291.77" cy="61.73" r="6.65"/><g class="cls-6"><circle class="cls-3" cx="291.77" cy="61.73" r="6.65"/><circle class="cls-3" cx="315.03" cy="21.44" r="6.65"/><line class="cls-3" x1="311.71" y1="27.2" x2="295.06" y2="56.04"/></g><line class="cls-3" x1="417.75" y1="13.08" x2="436.63" y2="13.08"/><line class="cls-3" x1="417.75" y1="65.3" x2="432.32" y2="65.3"/><g class="cls-7"><line class="cls-3" x1="504.81" y1="36.51" x2="498.06" y2="36.46"/><rect class="cls-3" x="506.79" y="32.1" width="8.94" height="8.94" transform="translate(175.61 -350.8) rotate(45)"/></g><line class="cls-3" x1="712.15" y1="13.33" x2="697.34" y2="13.33"/><line class="cls-3" x1="766.4" y1="13.33" x2="751.6" y2="13.33"/><path class="cls-5" d="M658.41,153.22a26.15,26.15,0,0,1,26.15,26.15v26.16a26.15,26.15,0,0,1-26.15,26.15H638.79"/><path class="cls-2" d="M480.67,154.72a24.68,24.68,0,0,1,24.65,24.65v26.16a24.66,24.66,0,0,1-49.31,0V179.37a24.68,24.68,0,0,1,24.66-24.65m0-1.5a26.16,26.16,0,0,0-26.16,26.15v26.16a26.16,26.16,0,0,0,52.31,0V179.37a26.15,26.15,0,0,0-26.15-26.15Z"/><line class="cls-5" x1="570.22" y1="153.47" x2="570.22" y2="231.68"/><polyline class="cls-5" points="401.12 231.68 362.21 231.68 362.21 218.61"/><path class="cls-5" d="M362.22,218.61a18.31,18.31,0,0,1,18.31-18.32,23.54,23.54,0,1,0,0-47.07H362.22"/><path class="cls-5" d="M658.41,153.22a26.16,26.16,0,1,0,26.15,26.15"/><text class="cls-8" transform="translate(216.12 292.29)">Open</text><path class="cls-2" d="M37.54,294.5A6.9,6.9,0,0,1,28.13,297l-24.19-14A6.89,6.89,0,0,1,7.4,270.2a6.81,6.81,0,0,1,3.43.93l24.19,14A6.89,6.89,0,0,1,37.54,294.5Z"/><path class="cls-2" d="M49.66,259.68a6.9,6.9,0,0,1,9.41-2.52l24.18,14A6.88,6.88,0,0,1,79.8,284a6.81,6.81,0,0,1-3.43-.93l-24.19-14A6.89,6.89,0,0,1,49.66,259.68Z"/><path class="cls-2" d="M35,269.09l-12.17,7-11.17-6.45a8.51,8.51,0,0,0-3.31-1.09l19.76-11.41A6.89,6.89,0,1,1,35,269.09Z"/><path class="cls-2" d="M52.18,285.09l12.17-7,11.17,6.45a8.51,8.51,0,0,0,3.31,1.09L59.07,297a6.89,6.89,0,0,1-6.89-11.93Z"/><path class="cls-9" d="M113.58,290.9a15.38,15.38,0,0,1-5.71-5.7,16.33,16.33,0,0,1,0-16.06,15.53,15.53,0,0,1,13.57-7.78,16.77,16.77,0,0,1,6.27,1.18,12.64,12.64,0,0,1,4.84,3.34L130,268.46a9.48,9.48,0,0,0-3.68-2.73,12.26,12.26,0,0,0-4.82-1,12.09,12.09,0,0,0-6,1.55,11.87,11.87,0,0,0-4.44,4.35,13.43,13.43,0,0,0,0,13,11.74,11.74,0,0,0,4.46,4.36,13.06,13.06,0,0,0,11,.59,11.29,11.29,0,0,0,3.53-2.52,9.32,9.32,0,0,0,1.78-2.85,12.46,12.46,0,0,0,.84-3.7h-11.2v-3.34h14.54a12.72,12.72,0,0,1,.21,2.2,17,17,0,0,1-.88,5.43,12,12,0,0,1-2.84,4.63A14.39,14.39,0,0,1,121.44,293,15.44,15.44,0,0,1,113.58,290.9Z"/><path class="cls-9" d="M140.7,262h9.13A16.5,16.5,0,0,1,158,264a13.18,13.18,0,0,1,5.32,5.35,17.54,17.54,0,0,1,0,15.72,13.21,13.21,0,0,1-5.32,5.34,16.39,16.39,0,0,1-8.12,1.93H140.7Zm9.13,26.83a11.68,11.68,0,0,0,8.52-3.08q3.15-3.09,3.15-8.62c0-3.69-1.05-6.57-3.15-8.62a11.64,11.64,0,0,0-8.52-3.09h-5.58v23.41Z"/><path class="cls-9" d="M175.91,290.9a15.38,15.38,0,0,1-5.71-5.7,16.33,16.33,0,0,1,0-16.06,15.53,15.53,0,0,1,13.57-7.78,16.81,16.81,0,0,1,6.27,1.18,12.71,12.71,0,0,1,4.84,3.34l-2.58,2.58a9.37,9.37,0,0,0-3.67-2.73,12.3,12.3,0,0,0-4.82-1,12.06,12.06,0,0,0-6,1.55,11.73,11.73,0,0,0-4.44,4.35,13.43,13.43,0,0,0,0,13,11.67,11.67,0,0,0,4.46,4.36,13.06,13.06,0,0,0,11.05.59,11.41,11.41,0,0,0,3.53-2.52,9.29,9.29,0,0,0,1.77-2.85,12.16,12.16,0,0,0,.85-3.7h-11.2v-3.34h14.54a12.72,12.72,0,0,1,.21,2.2,17,17,0,0,1-.89,5.43,11.91,11.91,0,0,1-2.83,4.63A14.39,14.39,0,0,1,183.77,293,15.44,15.44,0,0,1,175.91,290.9Z"/><text class="cls-10" transform="translate(0.5 229.33)">LIMA</text></g></g></svg>