<svg xmlns="http://www.w3.org/2000/svg" width="185" height="188" viewBox="0 0 185 188"><g fill="#4E4E4E"><path d="M116.07 17.967c0 2.677-.731 4.739-2.194 6.186-1.461 1.447-3.517 2.172-6.165 2.172h-5.149v-16.034h5.508c2.554 0 4.526.657 5.916 1.974 1.388 1.316 2.084 3.217 2.084 5.702zm-4.462.154c0-1.469-.289-2.559-.866-3.268-.577-.709-1.452-1.064-2.628-1.064h-1.252v8.983h.958c1.307 0 2.265-.383 2.875-1.146.607-.765.913-1.933.913-3.505zM123.288 26.545c-2.054 0-3.647-.55-4.785-1.651-1.135-1.1-1.703-2.667-1.703-4.7 0-2.098.526-3.709 1.578-4.831s2.554-1.684 4.506-1.684c1.857 0 3.292.488 4.305 1.465 1.013.976 1.518 2.381 1.518 4.217v1.908h-7.607c.029.695.282 1.24.756 1.634.476.396 1.122.592 1.943.592.747 0 1.436-.071 2.064-.213.626-.143 1.307-.386 2.04-.73v3.082c-.667.344-1.357.581-2.067.713-.713.132-1.561.198-2.548.198zm-.251-9.948c-.5 0-.919.159-1.256.477-.339.319-.536.818-.593 1.497h3.657c-.015-.599-.183-1.078-.505-1.436-.325-.359-.759-.538-1.303-.538zM133.009 26.325l-4.702-12.426h4.44l2.091 7.348.042.187.066.312.06.385.027.378h.075c0-.38.066-.793.196-1.24l2.188-7.37h4.43l-4.703 12.426h-4.21zM146.538 26.325h-4.233v-16.034h9.404v3.476h-5.171v3.061h4.768v3.476h-4.768v6.021zM158.687 26.545c-2.054 0-3.647-.55-4.785-1.651-1.135-1.1-1.703-2.667-1.703-4.7 0-2.098.526-3.709 1.578-4.831s2.554-1.684 4.506-1.684c1.857 0 3.292.488 4.305 1.465 1.013.976 1.518 2.381 1.518 4.217v1.908h-7.608c.029.695.282 1.24.756 1.634.476.396 1.122.592 1.943.592.747 0 1.436-.071 2.064-.213.626-.143 1.307-.386 2.04-.73v3.082c-.667.344-1.357.581-2.067.713-.713.132-1.56.198-2.547.198zm-.251-9.948c-.5 0-.919.159-1.256.477-.339.319-.536.818-.593 1.497h3.657c-.015-.599-.183-1.078-.505-1.436-.325-.359-.759-.538-1.303-.538zM174.699 22.508c0 1.331-.45 2.336-1.349 3.016-.901.68-2.192 1.021-3.876 1.021-.914 0-1.708-.049-2.382-.148-.676-.099-1.364-.28-2.069-.543v-3.433c.661.293 1.384.534 2.172.724s1.489.285 2.106.285c.923 0 1.382-.211 1.382-.635 0-.22-.128-.416-.386-.587-.256-.172-1.007-.506-2.247-1.004-1.132-.468-1.923-1-2.373-1.596-.45-.595-.676-1.35-.676-2.264 0-1.155.443-2.055 1.329-2.698.884-.644 2.137-.966 3.754-.966.813 0 1.577.09 2.292.269.714.179 1.456.44 2.225.784l-1.154 2.764c-.566-.255-1.165-.473-1.796-.652-.63-.179-1.146-.269-1.545-.269-.696 0-1.044.172-1.044.515 0 .212.121.393.364.543.242.15.945.455 2.106.916.862.359 1.507.71 1.932 1.053.425.344.736.748.936 1.212s.299 1.028.299 1.693zM181.765 23.156c.573 0 1.258-.143 2.056-.428v3.126c-.573.248-1.119.426-1.639.532-.518.106-1.126.159-1.822.159-1.43 0-2.461-.353-3.091-1.058-.632-.706-.948-1.79-.948-3.252v-5.122h-1.49v-1.744l1.893-1.349 1.1-2.61h2.785v2.489h3.027v3.214h-3.027v4.837c.001.804.386 1.206 1.156 1.206z"/></g><g fill="#4E4E4E"><path d="M60.441 47.886h-10.252v-1.842l3.9-3.92c1.151-1.179 1.915-2.014 2.291-2.509.376-.493.65-.956.823-1.392.172-.434.258-.899.258-1.395 0-.683-.205-1.221-.615-1.615-.411-.392-.978-.59-1.702-.59-.58 0-1.14.108-1.681.322-.541.212-1.167.599-1.878 1.157l-1.314-1.602c.841-.71 1.659-1.214 2.452-1.511s1.638-.445 2.534-.445c1.407 0 2.535.366 3.383 1.102.849.734 1.273 1.721 1.273 2.963 0 .683-.123 1.331-.367 1.945-.245.613-.621 1.247-1.128 1.899-.506.652-1.349 1.533-2.529 2.642l-2.628 2.545v.104h7.179v2.142zM71.262 40.324c0 2.628-.422 4.579-1.267 5.856s-2.136 1.913-3.874 1.913c-1.683 0-2.959-.659-3.828-1.976s-1.304-3.248-1.304-5.793c0-2.668.423-4.636 1.267-5.901.845-1.265 2.133-1.898 3.864-1.898 1.689 0 2.968.662 3.837 1.986.871 1.323 1.305 3.262 1.305 5.813zm-7.81 0c0 2.062.212 3.536.636 4.418.425.883 1.102 1.324 2.033 1.324.93 0 1.611-.449 2.043-1.346.431-.895.646-2.362.646-4.396 0-2.027-.215-3.494-.646-4.402-.431-.906-1.112-1.359-2.043-1.359s-1.609.443-2.033 1.333c-.424.89-.636 2.366-.636 4.428zM78.97 47.886h-2.431v-9.765c0-1.166.027-2.089.082-2.772-.158.165-.353.348-.584.547-.232.201-1.005.835-2.323 1.904l-1.22-1.542 4.449-3.496h2.027v15.124zM93.444 44.586h-2.038v3.3h-2.369v-3.3h-6.909v-1.873l6.909-9.992h2.369v9.847h2.038v2.018zm-4.408-2.017v-3.796c0-1.351.035-2.459.103-3.322h-.082c-.193.456-.496 1.007-.91 1.655l-3.755 5.462h4.644zM110.628 32.762v9.786c0 1.117-.24 2.095-.72 2.933-.48.837-1.172 1.481-2.08 1.934-.906.452-1.99.677-3.252.677-1.877 0-3.335-.496-4.376-1.49-1.042-.992-1.562-2.358-1.562-4.096v-9.744h2.483v9.568c0 1.249.289 2.17.869 2.763s1.469.89 2.669.89c2.331 0 3.495-1.225 3.495-3.673v-9.548h2.474zM115.315 41.845l1.375-1.718 3.455-3.682h2.803l-4.603 4.913 4.893 6.528h-2.855l-3.673-5.017-1.335 1.097v3.92h-2.41v-16.096h2.41v7.851l-.123 2.205h.063zM129.611 36.239c.491 0 .894.035 1.21.103l-.238 2.265c-.344-.082-.703-.123-1.075-.123-.972 0-1.76.317-2.364.95-.604.635-.905 1.459-.905 2.474v5.978h-2.432v-11.44h1.904l.32 2.016h.125c.379-.683.873-1.223 1.483-1.624.613-.4 1.268-.599 1.972-.599zM138.832 47.886l-.487-1.593h-.082c-.553.696-1.108 1.17-1.666 1.423-.558.251-1.276.377-2.151.377-1.124 0-2.001-.304-2.633-.91-.63-.608-.947-1.465-.947-2.576 0-1.179.439-2.069 1.315-2.668.875-.601 2.21-.928 4.003-.983l1.976-.062v-.61c0-.732-.17-1.278-.511-1.641-.342-.363-.872-.542-1.589-.542-.586 0-1.148.086-1.685.258-.538.172-1.057.375-1.553.61l-.786-1.738c.621-.324 1.3-.571 2.038-.74s1.434-.253 2.089-.253c1.456 0 2.552.317 3.294.95.742.635 1.113 1.631 1.113 2.99v7.707h-1.738zm-3.622-1.655c.883 0 1.591-.247 2.126-.74s.802-1.185.802-2.075v-.992l-1.469.062c-1.144.042-1.978.233-2.499.575-.52.341-.78.862-.78 1.566 0 .511.152.906.454 1.185.304.28.76.419 1.366.419zM142.546 33.413c0-.434.119-.768.357-1.003s.577-.352 1.018-.352c.428 0 .762.117 1 .352.236.234.355.569.355 1.003 0 .414-.119.74-.355.978-.238.238-.571.357-1 .357-.441 0-.78-.119-1.018-.357s-.357-.564-.357-.978zm2.576 14.473h-2.432v-11.44h2.432v11.44zM157.392 47.886h-2.441v-7.035c0-.883-.178-1.54-.533-1.976-.355-.434-.919-.652-1.692-.652-1.027 0-1.78.304-2.254.912-.476.606-.714 1.624-.714 3.051v5.7h-2.432v-11.44h1.904l.341 1.5h.125c.344-.546.833-.965 1.469-1.262s1.339-.445 2.111-.445c2.743 0 4.116 1.395 4.116 4.189v7.458zM164.5 48.093c-1.78 0-3.171-.518-4.175-1.556s-1.505-2.468-1.505-4.288c0-1.87.465-3.338 1.397-4.407.93-1.068 2.21-1.602 3.838-1.602 1.511 0 2.703.458 3.58 1.375.875.917 1.313 2.179 1.313 3.787v1.313h-7.625c.035 1.111.335 1.965.901 2.562.566.595 1.362.894 2.39.894.676 0 1.306-.064 1.888-.19.582-.128 1.208-.341 1.877-.637v1.976c-.593.284-1.192.483-1.8.601-.606.113-1.3.172-2.079.172zm-.445-10.014c-.773 0-1.392.245-1.857.734-.465.491-.743 1.205-.833 2.142h5.193c-.015-.945-.242-1.661-.683-2.146-.441-.487-1.047-.73-1.82-.73z"/></g><g fill="#4E4E4E"><path d="M55.729 17.313h6.921v8.643c-1.88.644-3.945.966-6.197.966-2.472 0-4.383-.717-5.731-2.151-1.349-1.433-2.024-3.477-2.024-6.131 0-2.589.739-4.603 2.216-6.044 1.478-1.44 3.547-2.161 6.209-2.161 1.009 0 1.961.095 2.857.285.895.19 1.676.432 2.342.724l-1.371 3.4c-1.155-.57-2.424-.855-3.806-.855-1.265 0-2.243.411-2.934 1.234-.691.822-1.037 1.998-1.037 3.527 0 1.499.313 2.641.938 3.428.625.786 1.526 1.179 2.704 1.179.644 0 1.236-.062 1.777-.187v-2.512h-2.863v-3.345zM78.184 18.344c0 2.677-.737 4.739-2.21 6.187-1.474 1.447-3.545 2.172-6.215 2.172h-5.188v-16.038h5.551c2.574 0 4.561.658 5.961 1.975 1.401 1.317 2.101 3.218 2.101 5.704zm-4.497.154c0-1.47-.291-2.56-.872-3.268-.581-.71-1.464-1.065-2.649-1.065h-1.262v8.984h.965c1.317 0 2.281-.382 2.896-1.146s.922-1.933.922-3.505zM86.15 17.313h6.921v8.643c-1.88.644-3.945.966-6.197.966-2.472 0-4.383-.717-5.731-2.151-1.349-1.433-2.024-3.477-2.024-6.131 0-2.589.739-4.603 2.216-6.044 1.478-1.44 3.547-2.161 6.209-2.161 1.009 0 1.961.095 2.857.285.895.19 1.676.432 2.342.724l-1.371 3.4c-1.155-.57-2.424-.855-3.806-.855-1.265 0-2.243.411-2.934 1.234-.691.822-1.037 1.998-1.037 3.527 0 1.499.313 2.641.938 3.428.625.786 1.526 1.179 2.704 1.179.644 0 1.236-.062 1.777-.187v-2.512h-2.864v-3.345z"/></g><radialGradient id="a" cx="-267.421" cy="-103.403" r="20.114" gradientTransform="matrix(.498 0 0 .498 150.953 101.325)" gradientUnits="userSpaceOnUse"><stop offset="0" stop-color="#FFCF4F"/><stop offset="1" stop-color="#F4C236"/></radialGradient><path fill="url(#a)" d="M9.068 61h6.791c1.607 0 3.604-1.128 4.432-2.511l5.72-9.519c.677-1.396.653-3.426-.119-4.713l-3.378-5.592-13.446 22.335z"/><radialGradient id="b" cx="-279.473" cy="-113.618" r="27.658" gradientTransform="matrix(.498 0 0 .498 150.953 101.325)" gradientUnits="userSpaceOnUse"><stop offset="0" stop-color="#08A960"/><stop offset="1" stop-color="#07914B"/></radialGradient><path fill="url(#b)" d="M16.368 33.514l-15.102 25.249c-.583 1.248.023 2.237 1.521 2.237h6.281l13.446-22.335-6.146-10.173c.829 1.378.829 3.638 0 5.022"/><radialGradient id="c" cx="-270.021" cy="-153.299" r="40.54" gradientTransform="matrix(.498 0 0 .498 150.953 101.325)" gradientUnits="userSpaceOnUse"><stop offset="0" stop-color="#567FC0"/><stop offset="1" stop-color="#557FC0"/></radialGradient><path fill="url(#c)" d="M2.787 1c-1.613 0-2.253 1.133-1.424 2.511l24.529 40.745c.772 1.288.795 3.317.119 4.713l5.963-9.925-22.902-38.044h-6.285z"/><radialGradient id="d" cx="-257.957" cy="-163.264" r="33.058" gradientTransform="matrix(.498 0 0 .498 150.953 101.325)" gradientUnits="userSpaceOnUse"><stop offset="0" stop-color="#E14C40"/><stop offset="1" stop-color="#CD392D"/></radialGradient><path fill="url(#d)" d="M9.072 1l22.903 38.045 3.321-5.53c.83-1.385.83-3.645 0-5.023l-15.004-24.981c-.829-1.378-2.825-2.511-4.432-2.511h-6.788z"/><g fill="#4E4E4E"><path d="M116.07 80.967c0 2.677-.731 4.739-2.194 6.186-1.461 1.447-3.517 2.172-6.165 2.172h-5.149v-16.034h5.508c2.554 0 4.526.657 5.916 1.974 1.388 1.316 2.084 3.217 2.084 5.702zm-4.462.154c0-1.469-.289-2.559-.866-3.268-.577-.709-1.452-1.064-2.628-1.064h-1.252v8.983h.958c1.307 0 2.265-.383 2.875-1.146.607-.765.913-1.933.913-3.505zM123.288 89.545c-2.054 0-3.647-.55-4.785-1.651-1.135-1.1-1.703-2.667-1.703-4.7 0-2.098.526-3.709 1.578-4.831s2.554-1.684 4.506-1.684c1.857 0 3.292.488 4.305 1.465 1.013.976 1.518 2.381 1.518 4.217v1.908h-7.607c.029.695.282 1.24.756 1.634.476.396 1.122.592 1.943.592.747 0 1.436-.071 2.064-.213.626-.143 1.307-.386 2.04-.73v3.082c-.667.344-1.357.581-2.067.713-.713.132-1.561.198-2.548.198zm-.251-9.948c-.5 0-.919.159-1.256.477-.339.319-.536.818-.593 1.497h3.657c-.015-.599-.183-1.078-.505-1.436-.325-.359-.759-.538-1.303-.538zM133.009 89.325l-4.702-12.426h4.44l2.091 7.348.042.187.066.312.06.385.027.378h.075c0-.38.066-.793.196-1.24l2.188-7.37h4.43l-4.703 12.426h-4.21zM146.538 89.325h-4.233v-16.034h9.404v3.476h-5.171v3.061h4.768v3.476h-4.768v6.021zM158.687 89.545c-2.054 0-3.647-.55-4.785-1.651-1.135-1.1-1.703-2.667-1.703-4.7 0-2.098.526-3.709 1.578-4.831s2.554-1.684 4.506-1.684c1.857 0 3.292.488 4.305 1.465 1.013.976 1.518 2.381 1.518 4.217v1.908h-7.608c.029.695.282 1.24.756 1.634.476.396 1.122.592 1.943.592.747 0 1.436-.071 2.064-.213.626-.143 1.307-.386 2.04-.73v3.082c-.667.344-1.357.581-2.067.713-.713.132-1.56.198-2.547.198zm-.251-9.948c-.5 0-.919.159-1.256.477-.339.319-.536.818-.593 1.497h3.657c-.015-.599-.183-1.078-.505-1.436-.325-.359-.759-.538-1.303-.538zM174.699 85.508c0 1.331-.45 2.336-1.349 3.016-.901.68-2.192 1.021-3.876 1.021-.914 0-1.708-.049-2.382-.148-.676-.099-1.364-.28-2.069-.543v-3.433c.661.293 1.384.534 2.172.724s1.489.285 2.106.285c.923 0 1.382-.211 1.382-.635 0-.22-.128-.416-.386-.587-.256-.172-1.007-.506-2.247-1.004-1.132-.468-1.923-1-2.373-1.596-.45-.595-.676-1.35-.676-2.264 0-1.155.443-2.055 1.329-2.698.884-.644 2.137-.966 3.754-.966.813 0 1.577.09 2.292.269.714.179 1.456.44 2.225.784l-1.154 2.764c-.566-.255-1.165-.473-1.796-.652-.63-.179-1.146-.269-1.545-.269-.696 0-1.044.172-1.044.515 0 .212.121.393.364.543.242.15.945.455 2.106.916.862.359 1.507.71 1.932 1.053.425.344.736.748.936 1.212s.299 1.028.299 1.693zM181.765 86.156c.573 0 1.258-.143 2.056-.428v3.126c-.573.248-1.119.426-1.639.532-.518.106-1.126.159-1.822.159-1.43 0-2.461-.353-3.091-1.058-.632-.706-.948-1.79-.948-3.252v-5.122h-1.49v-1.744l1.893-1.349 1.1-2.61h2.785v2.489h3.027v3.214h-3.027v4.837c.001.804.386 1.206 1.156 1.206z"/></g><g fill="#4E4E4E"><path d="M60.441 110.886h-10.252v-1.842l3.9-3.92c1.151-1.179 1.915-2.014 2.291-2.509.376-.493.65-.956.823-1.392.172-.434.258-.899.258-1.395 0-.683-.205-1.221-.615-1.615-.411-.392-.978-.59-1.702-.59-.58 0-1.14.108-1.681.322-.541.212-1.167.599-1.878 1.157l-1.314-1.602c.841-.71 1.659-1.214 2.452-1.511s1.638-.445 2.534-.445c1.407 0 2.535.366 3.383 1.102.849.734 1.273 1.721 1.273 2.963 0 .683-.123 1.331-.367 1.945-.245.613-.621 1.247-1.128 1.899-.506.652-1.349 1.533-2.529 2.642l-2.628 2.545v.104h7.179v2.142zM71.262 103.324c0 2.628-.422 4.579-1.267 5.856s-2.136 1.913-3.874 1.913c-1.683 0-2.959-.659-3.828-1.976s-1.304-3.248-1.304-5.793c0-2.668.423-4.636 1.267-5.901.845-1.265 2.133-1.898 3.864-1.898 1.689 0 2.968.662 3.837 1.986.871 1.323 1.305 3.262 1.305 5.813zm-7.81 0c0 2.062.212 3.536.636 4.418.425.883 1.102 1.324 2.033 1.324.93 0 1.611-.449 2.043-1.346.431-.895.646-2.362.646-4.396 0-2.027-.215-3.494-.646-4.402-.431-.906-1.112-1.359-2.043-1.359s-1.609.443-2.033 1.333c-.424.89-.636 2.366-.636 4.428zM78.97 110.886h-2.431v-9.765c0-1.166.027-2.089.082-2.772-.158.165-.353.348-.584.547-.232.201-1.005.835-2.323 1.904l-1.22-1.542 4.449-3.496h2.027v15.124zM93.444 107.586h-2.038v3.3h-2.369v-3.3h-6.909v-1.873l6.909-9.992h2.369v9.847h2.038v2.018zm-4.408-2.017v-3.796c0-1.351.035-2.459.103-3.322h-.082c-.193.456-.496 1.007-.91 1.655l-3.755 5.462h4.644zM110.628 95.762v9.786c0 1.117-.24 2.095-.72 2.933-.48.837-1.172 1.481-2.08 1.934-.906.452-1.99.677-3.252.677-1.877 0-3.335-.496-4.376-1.49-1.042-.992-1.562-2.358-1.562-4.096v-9.744h2.483v9.568c0 1.249.289 2.17.869 2.763s1.469.89 2.669.89c2.331 0 3.495-1.225 3.495-3.673v-9.548h2.474zM115.315 104.845l1.375-1.718 3.455-3.682h2.803l-4.603 4.913 4.893 6.528h-2.855l-3.673-5.017-1.335 1.097v3.92h-2.41v-16.096h2.41v7.851l-.123 2.205h.063zM129.611 99.239c.491 0 .894.035 1.21.103l-.238 2.265c-.344-.082-.703-.123-1.075-.123-.972 0-1.76.317-2.364.95-.604.635-.905 1.459-.905 2.474v5.978h-2.432v-11.44h1.904l.32 2.016h.125c.379-.683.873-1.223 1.483-1.624.613-.4 1.268-.599 1.972-.599zM138.832 110.886l-.487-1.593h-.082c-.553.696-1.108 1.17-1.666 1.423-.558.251-1.276.377-2.151.377-1.124 0-2.001-.304-2.633-.91-.63-.608-.947-1.465-.947-2.576 0-1.179.439-2.069 1.315-2.668.875-.601 2.21-.928 4.003-.983l1.976-.062v-.61c0-.732-.17-1.278-.511-1.641-.342-.363-.872-.542-1.589-.542-.586 0-1.148.086-1.685.258-.538.172-1.057.375-1.553.61l-.786-1.738c.621-.324 1.3-.571 2.038-.74s1.434-.253 2.089-.253c1.456 0 2.552.317 3.294.95.742.635 1.113 1.631 1.113 2.99v7.707h-1.738zm-3.622-1.655c.883 0 1.591-.247 2.126-.74s.802-1.185.802-2.075v-.992l-1.469.062c-1.144.042-1.978.233-2.499.575-.52.341-.78.862-.78 1.566 0 .511.152.906.454 1.185.304.28.76.419 1.366.419zM142.546 96.413c0-.434.119-.768.357-1.003s.577-.352 1.018-.352c.428 0 .762.117 1 .352.236.234.355.569.355 1.003 0 .414-.119.74-.355.978-.238.238-.571.357-1 .357-.441 0-.78-.119-1.018-.357s-.357-.564-.357-.978zm2.576 14.473h-2.432v-11.44h2.432v11.44zM157.392 110.886h-2.441v-7.035c0-.883-.178-1.54-.533-1.976-.355-.434-.919-.652-1.692-.652-1.027 0-1.78.304-2.254.912-.476.606-.714 1.624-.714 3.051v5.7h-2.432v-11.44h1.904l.341 1.5h.125c.344-.546.833-.965 1.469-1.262s1.339-.445 2.111-.445c2.743 0 4.116 1.395 4.116 4.189v7.458zM164.5 111.093c-1.78 0-3.171-.518-4.175-1.556s-1.505-2.468-1.505-4.288c0-1.87.465-3.338 1.397-4.407.93-1.068 2.21-1.602 3.838-1.602 1.511 0 2.703.458 3.58 1.375.875.917 1.313 2.179 1.313 3.787v1.313h-7.625c.035 1.111.335 1.965.901 2.562.566.595 1.362.894 2.39.894.676 0 1.306-.064 1.888-.19.582-.128 1.208-.341 1.877-.637v1.976c-.593.284-1.192.483-1.8.601-.606.113-1.3.172-2.079.172zm-.445-10.014c-.773 0-1.392.245-1.857.734-.465.491-.743 1.205-.833 2.142h5.193c-.015-.945-.242-1.661-.683-2.146-.441-.487-1.047-.73-1.82-.73z"/></g><g fill="#4E4E4E"><path d="M55.729 80.313h6.921v8.643c-1.88.644-3.945.966-6.197.966-2.472 0-4.383-.717-5.731-2.151-1.349-1.433-2.024-3.477-2.024-6.131 0-2.589.739-4.603 2.216-6.044 1.478-1.44 3.547-2.161 6.209-2.161 1.009 0 1.961.095 2.857.285.895.19 1.676.432 2.342.724l-1.371 3.4c-1.155-.57-2.424-.855-3.806-.855-1.265 0-2.243.411-2.934 1.234-.691.822-1.037 1.998-1.037 3.527 0 1.499.313 2.641.938 3.428.625.786 1.526 1.179 2.704 1.179.644 0 1.236-.062 1.777-.187v-2.512h-2.863v-3.345zM78.184 81.344c0 2.677-.737 4.739-2.21 6.187-1.474 1.447-3.545 2.172-6.215 2.172h-5.188v-16.038h5.551c2.574 0 4.561.658 5.961 1.975 1.401 1.317 2.101 3.218 2.101 5.704zm-4.497.154c0-1.47-.291-2.56-.872-3.268-.581-.71-1.464-1.065-2.649-1.065h-1.262v8.984h.965c1.317 0 2.281-.382 2.896-1.146s.922-1.933.922-3.505zM86.15 80.313h6.921v8.643c-1.88.644-3.945.966-6.197.966-2.472 0-4.383-.717-5.731-2.151-1.349-1.433-2.024-3.477-2.024-6.131 0-2.589.739-4.603 2.216-6.044 1.478-1.44 3.547-2.161 6.209-2.161 1.009 0 1.961.095 2.857.285.895.19 1.676.432 2.342.724l-1.371 3.4c-1.155-.57-2.424-.855-3.806-.855-1.265 0-2.243.411-2.934 1.234-.691.822-1.037 1.998-1.037 3.527 0 1.499.313 2.641.938 3.428.625.786 1.526 1.179 2.704 1.179.644 0 1.236-.062 1.777-.187v-2.512h-2.864v-3.345z"/></g><radialGradient id="e" cx="-267.421" cy="23.107" r="20.114" gradientTransform="matrix(.498 0 0 .498 150.953 101.325)" gradientUnits="userSpaceOnUse"><stop offset="0" stop-color="#ccc"/><stop offset="1" stop-color="#C0C0C0"/></radialGradient><path fill="url(#e)" d="M9.068 124h6.791c1.607 0 3.604-1.128 4.432-2.511l5.72-9.519c.677-1.396.653-3.426-.119-4.713l-3.378-5.592-13.446 22.335z"/><radialGradient id="f" cx="-279.473" cy="12.893" r="27.658" gradientTransform="matrix(.498 0 0 .498 150.953 101.325)" gradientUnits="userSpaceOnUse"><stop offset="0" stop-color="#A0A0A0"/><stop offset="1" stop-color="#7B7B7B"/></radialGradient><path fill="url(#f)" d="M16.368 96.514l-15.102 25.249c-.583 1.248.023 2.237 1.521 2.237h6.281l13.446-22.335-6.146-10.173c.829 1.378.829 3.638 0 5.022"/><radialGradient id="g" cx="-270.021" cy="-26.789" r="40.54" gradientTransform="matrix(.498 0 0 .498 150.953 101.325)" gradientUnits="userSpaceOnUse"><stop offset="0" stop-color="#848484"/><stop offset="1" stop-color="#838383"/></radialGradient><path fill="url(#g)" d="M2.787 64c-1.613 0-2.254 1.133-1.424 2.511l24.529 40.745c.772 1.288.795 3.317.119 4.713l5.963-9.925-22.902-38.044h-6.285z"/><radialGradient id="h" cx="-257.957" cy="-36.754" r="33.058" gradientTransform="matrix(.498 0 0 .498 150.953 101.325)" gradientUnits="userSpaceOnUse"><stop offset="0" stop-color="#626262"/><stop offset="1" stop-color="#474747"/></radialGradient><path fill="url(#h)" d="M9.072 64l22.903 38.045 3.321-5.53c.83-1.385.83-3.645 0-5.023l-15.004-24.98c-.829-1.379-2.825-2.512-4.432-2.512h-6.788z"/><g fill="#E6E6E5"><path d="M116.07 143.967c0 2.677-.731 4.739-2.194 6.187-1.461 1.447-3.517 2.172-6.165 2.172h-5.149v-16.035h5.508c2.554 0 4.526.657 5.916 1.974 1.388 1.316 2.084 3.217 2.084 5.702zm-4.462.153c0-1.469-.289-2.558-.866-3.268-.577-.709-1.452-1.064-2.628-1.064h-1.252v8.983h.958c1.307 0 2.265-.383 2.875-1.146.607-.764.913-1.932.913-3.505zM123.288 152.545c-2.054 0-3.647-.551-4.785-1.652-1.135-1.1-1.703-2.666-1.703-4.7 0-2.098.526-3.708 1.578-4.83s2.554-1.685 4.506-1.685c1.857 0 3.292.489 4.305 1.465s1.518 2.382 1.518 4.217v1.908h-7.607c.029.696.282 1.24.756 1.635.476.396 1.122.591 1.943.591.747 0 1.436-.071 2.064-.212.626-.143 1.307-.386 2.04-.731v3.082c-.667.344-1.357.582-2.067.714-.713.132-1.561.198-2.548.198zm-.251-9.948c-.5 0-.919.159-1.256.476-.339.319-.536.818-.593 1.498h3.657c-.015-.599-.183-1.078-.505-1.437-.325-.358-.759-.537-1.303-.537zM133.009 152.325l-4.702-12.427h4.44l2.091 7.348.042.187.066.313.06.385.027.377h.075c0-.379.066-.793.196-1.24l2.188-7.37h4.43l-4.703 12.427h-4.21zM146.538 152.325h-4.233v-16.035h9.404v3.475h-5.171v3.062h4.768v3.475h-4.768v6.023zM158.687 152.545c-2.054 0-3.647-.551-4.785-1.652-1.135-1.1-1.703-2.666-1.703-4.7 0-2.098.526-3.708 1.578-4.83s2.554-1.685 4.506-1.685c1.857 0 3.292.489 4.305 1.465s1.518 2.382 1.518 4.217v1.908h-7.608c.029.696.282 1.24.756 1.635.476.396 1.122.591 1.943.591.747 0 1.436-.071 2.064-.212.626-.143 1.307-.386 2.04-.731v3.082c-.667.344-1.357.582-2.067.714-.713.132-1.56.198-2.547.198zm-.251-9.948c-.5 0-.919.159-1.256.476-.339.319-.536.818-.593 1.498h3.657c-.015-.599-.183-1.078-.505-1.437-.325-.358-.759-.537-1.303-.537zM174.699 148.508c0 1.331-.45 2.336-1.349 3.016-.901.681-2.192 1.022-3.876 1.022-.914 0-1.708-.049-2.382-.148-.676-.099-1.364-.28-2.069-.544v-3.433c.661.293 1.384.535 2.172.725s1.489.284 2.106.284c.923 0 1.382-.211 1.382-.635 0-.22-.128-.416-.386-.586-.256-.172-1.007-.507-2.247-1.005-1.132-.467-1.923-1-2.373-1.595s-.677-1.353-.677-2.267c0-1.155.443-2.054 1.329-2.697.884-.645 2.137-.967 3.754-.967.813 0 1.577.09 2.292.269.714.179 1.456.441 2.225.784l-1.154 2.765c-.566-.256-1.165-.474-1.796-.652-.63-.179-1.146-.269-1.545-.269-.696 0-1.044.172-1.044.515 0 .212.121.394.364.544.242.15.945.454 2.106.916.862.359 1.507.709 1.932 1.053s.736.747.936 1.212c.2.462.3 1.028.3 1.693zM181.765 149.156c.573 0 1.258-.143 2.056-.428v3.126c-.573.249-1.119.427-1.639.533-.518.106-1.126.159-1.822.159-1.43 0-2.461-.353-3.091-1.058-.632-.707-.948-1.791-.948-3.252v-5.123h-1.49v-1.743l1.893-1.349 1.1-2.609h2.785v2.488h3.027v3.214h-3.027v4.838c.001.801.386 1.204 1.156 1.204z"/></g><g fill="#E6E6E5"><path d="M60.441 173.886h-10.252v-1.842l3.9-3.92c1.151-1.179 1.915-2.014 2.291-2.509.376-.493.65-.956.823-1.392.172-.434.258-.899.258-1.395 0-.683-.205-1.221-.615-1.615-.411-.392-.978-.59-1.702-.59-.58 0-1.14.108-1.681.322-.541.212-1.167.599-1.878 1.157l-1.314-1.602c.841-.71 1.659-1.214 2.452-1.511s1.638-.445 2.534-.445c1.407 0 2.535.366 3.383 1.102.849.734 1.273 1.721 1.273 2.963 0 .683-.123 1.331-.367 1.945-.245.613-.621 1.247-1.128 1.899-.506.652-1.349 1.533-2.529 2.642l-2.628 2.545v.104h7.179v2.142zM71.262 166.324c0 2.628-.422 4.579-1.267 5.856s-2.136 1.913-3.874 1.913c-1.683 0-2.959-.659-3.828-1.976s-1.304-3.248-1.304-5.793c0-2.668.423-4.636 1.267-5.901.845-1.265 2.133-1.897 3.864-1.897 1.689 0 2.968.661 3.837 1.985.871 1.323 1.305 3.262 1.305 5.813zm-7.81 0c0 2.062.212 3.536.636 4.418.425.883 1.102 1.324 2.033 1.324.93 0 1.611-.449 2.043-1.346.431-.895.646-2.362.646-4.396 0-2.027-.215-3.494-.646-4.402-.431-.906-1.112-1.359-2.043-1.359s-1.609.443-2.033 1.333c-.424.89-.636 2.366-.636 4.428zM78.97 173.886h-2.431v-9.765c0-1.166.027-2.089.082-2.772-.158.165-.353.348-.584.547-.232.201-1.005.835-2.323 1.904l-1.22-1.542 4.449-3.495h2.027v15.123zM93.444 170.586h-2.038v3.3h-2.369v-3.3h-6.909v-1.873l6.909-9.992h2.369v9.847h2.038v2.018zm-4.408-2.017v-3.796c0-1.351.035-2.459.103-3.322h-.082c-.193.456-.496 1.007-.91 1.655l-3.755 5.462h4.644zM110.628 158.763v9.785c0 1.117-.24 2.095-.72 2.933-.48.837-1.172 1.481-2.08 1.934-.906.452-1.99.677-3.252.677-1.877 0-3.335-.496-4.376-1.49-1.042-.992-1.562-2.358-1.562-4.096v-9.743h2.483v9.567c0 1.249.289 2.17.869 2.763s1.469.89 2.669.89c2.331 0 3.495-1.225 3.495-3.673v-9.547h2.474zM115.315 167.845l1.375-1.718 3.455-3.682h2.803l-4.603 4.913 4.893 6.528h-2.855l-3.673-5.017-1.335 1.097v3.92h-2.41v-16.095h2.41v7.85l-.123 2.205h.063zM129.611 162.239c.491 0 .894.035 1.21.103l-.238 2.265c-.344-.082-.703-.123-1.075-.123-.972 0-1.76.317-2.364.95-.604.635-.905 1.459-.905 2.474v5.978h-2.432v-11.44h1.904l.32 2.016h.125c.379-.683.873-1.223 1.483-1.624.613-.4 1.268-.599 1.972-.599zM138.832 173.886l-.487-1.593h-.082c-.553.696-1.108 1.17-1.666 1.423-.558.251-1.276.377-2.151.377-1.124 0-2.001-.304-2.633-.91-.63-.608-.947-1.465-.947-2.576 0-1.179.439-2.069 1.315-2.668.875-.601 2.21-.928 4.003-.983l1.976-.062v-.61c0-.732-.17-1.278-.511-1.641-.342-.363-.872-.542-1.589-.542-.586 0-1.148.086-1.685.258-.538.172-1.057.375-1.553.61l-.786-1.738c.621-.324 1.3-.571 2.038-.74s1.434-.253 2.089-.253c1.456 0 2.552.317 3.294.95.742.635 1.113 1.631 1.113 2.99v7.707h-1.738zm-3.622-1.655c.883 0 1.591-.247 2.126-.74s.802-1.185.802-2.075v-.992l-1.469.062c-1.144.042-1.978.233-2.499.575-.52.341-.78.862-.78 1.566 0 .511.152.906.454 1.185.304.28.76.419 1.366.419zM142.546 159.413c0-.434.119-.767.357-1.002s.577-.352 1.018-.352c.428 0 .762.117 1 .352.236.234.355.568.355 1.002 0 .414-.119.74-.355.978-.238.238-.571.357-1 .357-.441 0-.78-.119-1.018-.357s-.357-.564-.357-.978zm2.576 14.473h-2.432v-11.44h2.432v11.44zM157.392 173.886h-2.441v-7.035c0-.883-.178-1.54-.533-1.976-.355-.434-.919-.652-1.692-.652-1.027 0-1.78.304-2.254.912-.476.606-.714 1.624-.714 3.051v5.7h-2.432v-11.44h1.904l.341 1.5h.125c.344-.546.833-.965 1.469-1.262s1.339-.445 2.111-.445c2.743 0 4.116 1.395 4.116 4.189v7.458zM164.5 174.093c-1.78 0-3.171-.518-4.175-1.556s-1.505-2.468-1.505-4.288c0-1.87.465-3.338 1.397-4.407.93-1.068 2.21-1.602 3.838-1.602 1.511 0 2.703.458 3.58 1.375.875.917 1.313 2.179 1.313 3.787v1.313h-7.625c.035 1.111.335 1.965.901 2.562.566.595 1.362.894 2.39.894.676 0 1.306-.064 1.888-.19.582-.128 1.208-.341 1.877-.637v1.976c-.593.284-1.192.483-1.8.601-.606.113-1.3.172-2.079.172zm-.445-10.014c-.773 0-1.392.245-1.857.734-.465.491-.743 1.205-.833 2.142h5.193c-.015-.945-.242-1.661-.683-2.146-.441-.487-1.047-.73-1.82-.73z"/></g><g fill="#E6E6E5"><path d="M55.729 143.313h6.921v8.643c-1.88.645-3.945.967-6.197.967-2.472 0-4.383-.718-5.731-2.151-1.349-1.432-2.024-3.477-2.024-6.13 0-2.589.739-4.603 2.216-6.044 1.478-1.441 3.547-2.161 6.209-2.161 1.009 0 1.961.095 2.857.284.895.19 1.676.432 2.342.725l-1.371 3.4c-1.155-.571-2.424-.855-3.806-.855-1.265 0-2.243.41-2.934 1.234-.691.822-1.037 1.998-1.037 3.527 0 1.498.313 2.64.938 3.428.625.786 1.526 1.179 2.704 1.179.644 0 1.236-.062 1.777-.187v-2.512h-2.863v-3.347zM78.184 144.344c0 2.677-.737 4.739-2.21 6.187-1.474 1.447-3.545 2.172-6.215 2.172h-5.188v-16.038h5.551c2.574 0 4.561.659 5.961 1.976 1.401 1.316 2.101 3.216 2.101 5.703zm-4.497.154c0-1.47-.291-2.56-.872-3.268-.581-.71-1.464-1.066-2.649-1.066h-1.262v8.985h.965c1.317 0 2.281-.383 2.896-1.146.615-.766.922-1.934.922-3.505zM86.15 143.313h6.921v8.643c-1.88.645-3.945.967-6.197.967-2.472 0-4.383-.718-5.731-2.151-1.349-1.432-2.024-3.477-2.024-6.13 0-2.589.739-4.603 2.216-6.044 1.478-1.441 3.547-2.161 6.209-2.161 1.009 0 1.961.095 2.857.284.895.19 1.676.432 2.342.725l-1.371 3.4c-1.155-.571-2.424-.855-3.806-.855-1.265 0-2.243.41-2.934 1.234-.691.822-1.037 1.998-1.037 3.527 0 1.498.313 2.64.938 3.428.625.786 1.526 1.179 2.704 1.179.644 0 1.236-.062 1.777-.187v-2.512h-2.864v-3.347z"/></g><radialGradient id="i" cx="-267.421" cy="149.617" r="20.114" gradientTransform="matrix(.498 0 0 .498 150.953 101.325)" gradientUnits="userSpaceOnUse"><stop offset="0" stop-color="#FFCF4F"/><stop offset="1" stop-color="#F4C236"/></radialGradient><path fill="url(#i)" d="M9.068 187h6.791c1.607 0 3.604-1.128 4.432-2.511l5.72-9.519c.677-1.396.653-3.426-.119-4.713l-3.378-5.592-13.446 22.335z"/><radialGradient id="j" cx="-279.473" cy="139.403" r="27.658" gradientTransform="matrix(.498 0 0 .498 150.953 101.325)" gradientUnits="userSpaceOnUse"><stop offset="0" stop-color="#08A960"/><stop offset="1" stop-color="#07914B"/></radialGradient><path fill="url(#j)" d="M16.368 159.514l-15.102 25.249c-.583 1.248.023 2.237 1.521 2.237h6.281l13.446-22.335-6.146-10.173c.829 1.378.829 3.638 0 5.022"/><radialGradient id="k" cx="-270.021" cy="99.721" r="40.54" gradientTransform="matrix(.498 0 0 .498 150.953 101.325)" gradientUnits="userSpaceOnUse"><stop offset="0" stop-color="#567FC0"/><stop offset="1" stop-color="#557FC0"/></radialGradient><path fill="url(#k)" d="M2.787 127c-1.613 0-2.254 1.133-1.424 2.511l24.529 40.745c.772 1.288.795 3.317.119 4.713l5.963-9.925-22.902-38.044h-6.285z"/><radialGradient id="l" cx="-257.957" cy="89.756" r="33.058" gradientTransform="matrix(.498 0 0 .498 150.953 101.325)" gradientUnits="userSpaceOnUse"><stop offset="0" stop-color="#E14C40"/><stop offset="1" stop-color="#CD392D"/></radialGradient><path fill="url(#l)" d="M9.072 127l22.903 38.045 3.321-5.53c.83-1.385.83-3.645 0-5.023l-15.004-24.981c-.829-1.378-2.825-2.511-4.432-2.511h-6.788z"/></svg>