<?xml version="1.0" encoding="utf-8"?>
<!-- Generated by IcoMoon.io -->
<!DOCTYPE svg PUBLIC "-//W3C//DTD SVG 1.1//EN" "http://www.w3.org/Graphics/SVG/1.1/DTD/svg11.dtd">

<svg version="1.1" xmlns="http://www.w3.org/2000/svg" xmlns:xlink="http://www.w3.org/1999/xlink" width="725" height="80" viewBox="0 0 725 80">
<defs>
<g id="icon-driving">
	<path class="path1" d="M29.917,13.535h-0.411l-4.569-8.273c-0.197-0.358-0.694-0.651-1.103-0.651H9.973 c-0.409,0-0.906,0.293-1.103,0.651L4.3,13.535h-0.41c-0.818,0-1.487,0.669-1.487,1.487v7.436c0,0.818,0.669,1.487,1.487,1.487 h1.487v2.231c0,1.227,1.003,2.231,2.231,2.231h0.743c1.227,0,2.231-1.003,2.231-2.231v-2.231h12.642v2.231 c0,1.227,1.003,2.231,2.231,2.231h0.743c1.227,0,2.231-1.003,2.231-2.231v-2.231h1.487c0.818,0,1.487-0.669,1.487-1.487v-7.436 C31.404,14.204,30.735,13.535,29.917,13.535z M6.493,19.485c-1.027,0-1.859-0.832-1.859-1.859c0-1.028,0.832-1.859,1.859-1.859 s1.859,0.832,1.859,1.859S7.521,19.485,6.493,19.485z M7.981,13.535l3.014-6.026c0.183-0.367,0.667-0.666,1.076-0.666h9.667 c0.409,0,0.893,0.299,1.076,0.666l3.014,6.026H7.981z M27.315,19.485c-1.028,0-1.859-0.832-1.859-1.859 c0-1.028,0.832-1.859,1.859-1.859s1.859,0.832,1.859,1.859S28.341,19.485,27.315,19.485z"></path>
</g>
<g id="icon-email">
	<path class="path1" d="M1.882 5.12c-1.882 0-0.941 0.499 0 1.263l14.118 10.745 14.118-10.712c0.942-0.765 1.882-1.297 0-1.297h-28.235zM0 7.645v15.826c0 0.931 0.952 2.129 1.706 2.129h28.589c0.754 0 1.706-1.197 1.706-2.129v-15.826l-16 12.208-16-12.208z"></path>
</g>
<g id="icon-navigate">
	<path class="path1" d="M20.811 30.788l-4.526-13.508h-14.709l28.287-15.875z"></path>
</g>
<g id="icon-geolocation">
	<path class="path1" d="M16 0.64c-8.47 0-15.36 6.89-15.36 15.36s6.89 15.36 15.36 15.36c8.469 0 15.36-6.891 15.36-15.36s-6.891-15.36-15.36-15.36zM17.92 28.64v-5.6h-3.84v5.6c-5.52-0.837-9.883-5.2-10.72-10.72h5.6v-3.84h-5.6c0.837-5.52 5.2-9.883 10.72-10.72v5.6h3.84v-5.6c5.52 0.837 9.883 5.2 10.72 10.72h-5.6v3.84h5.6c-0.837 5.52-5.2 9.883-10.72 10.72z"></path>
</g>
<g id="icon-flag">
	<path class="path1" d="M7.336 0.64c-0.872 0-1.576 0.721-1.576 1.617v27.485c0 0.808 0.788 1.617 1.576 1.617s1.575-0.81 1.575-1.617v-16.572c0.538-0.235 1.062-0.405 1.576-0.405 3.151 0 7.798 4.043 11.028 4.043 1.377 0 3.348-0.557 4.726-1.617v-11.318c-1.563 1.203-3.146 2.426-4.726 2.426-3.151 0-7.866-4.042-11.028-4.042-0.531 0-1.050 0.097-1.576 0.202v-0.202c0-0.895-0.703-1.617-1.575-1.617z"></path>
</g>
<g id="icon-transit">
	<path class="path1" d="M26.344 16h-20.493c-0.597 0-1.089-0.513-1.089-1.097 0-0.097 0.018-0.207 0.038-0.296l1.091-7.615c0.093-0.495 0.538-0.592 1.071-0.592h18.274c0.529 0 0.979 0.089 1.070 0.582l1.091 7.754c0.017 0.090 0.038 0.143 0.038 0.241-0.001 0.584-0.495 1.023-1.091 1.023zM25.524 24.541c-1.154 0-2.090-0.908-2.090-2.040 0-1.125 0.936-2.031 2.090-2.031 1.146 0 2.084 0.907 2.084 2.031 0 1.132-0.938 2.040-2.084 2.040zM6.643 24.541c-1.146 0-2.082-0.908-2.082-2.040 0-1.125 0.936-2.031 2.082-2.031 1.157 0 2.091 0.907 2.091 2.031 0 1.132-0.934 2.040-2.091 2.040zM10.24 1.92h12.8v1.92h-12.8c-1.28 0-1.28-1.92 0-1.92zM28.289 4.858c-0.374-1.8-1.466-2.525-3.247-3.25-1.778-0.722-5.898-1.587-8.997-1.587-3.112 0-7.254 0.866-9.034 1.587-1.78 0.725-2.854 1.45-3.225 3.25l-1.227 10.022v13.921h1.92v1.28c0 2.56 3.2 2.56 3.2 0v-1.28h16v1.28c0 2.56 3.84 2.56 3.84 0v-1.28h1.92v-13.921l-1.151-10.022z"></path>
</g>
<g id="icon-walking">
	<path class="path1" d="M15.261 6.047c1.288-0.034 2.303-1.13 2.269-2.438-0.034-1.325-1.101-2.353-2.39-2.329-1.282 0.035-2.296 1.13-2.269 2.445 0.033 1.315 1.108 2.356 2.39 2.323zM23.171 13.946l-3.411-1.905-2.824-4.491c-0.453-0.577-1.161-1.004-1.969-0.994-0.607 0.021-1.142 0.3-1.569 0.676l-4.254 4.347c-0.14 0.15-0.237 0.341-0.27 0.55l-0.545 4.788c-0.006 0.052-0.006 0.095-0.010 0.147 0.017 0.594 0.501 1.055 1.081 1.044 0.545-0.013 0.961-0.485 1.021-1.003l0.448-4.109 1.482-1.506-1.325 11.515-2.457 5.433c-0.074 0.191-0.15 0.458-0.144 0.71 0.024 0.888 0.748 1.591 1.619 1.571 0.617-0.017 1.119-0.397 1.389-0.936l2.632-5.864c0.053-0.157 0.24-0.54 0.246-0.713l0.307-2.838 2.71 9.23c0.233 0.645 0.828 1.133 1.542 1.113 0.868-0.024 1.562-0.759 1.542-1.65-0.007-0.116-0.041-0.191-0.047-0.325l-3.766-12.799 0.481-4.159 1.062 1.68c0.073 0.109 0.173 0.212 0.287 0.283l3.725 2.086c0.18 0.058 0.321 0.106 0.486 0.106 0.589-0.017 1.049-0.512 1.036-1.11-0.012-0.366-0.214-0.701-0.508-0.879z"></path>
</g>
<g id="icon-bicycling">
	<path class="path1" d="M7.234 27.613c2.681 0 4.854-2.23 4.854-4.975 0-2.753-2.173-4.984-4.854-4.984-2.675 0-4.85 2.231-4.85 4.984 0 2.745 2.175 4.975 4.85 4.975zM1.28 22.638c0-3.377 2.671-6.109 5.954-6.109 3.292 0 5.958 2.733 5.958 6.109 0 3.375-2.666 6.101-5.958 6.101-3.283 0-5.954-2.725-5.954-6.101zM24.769 27.674c2.671 0 4.847-2.23 4.847-4.977 0-2.751-2.176-4.982-4.847-4.982-2.682 0-4.859 2.23-4.859 4.982 0 2.746 2.177 4.977 4.859 4.977zM18.806 22.698c0-3.375 2.671-6.107 5.962-6.107 3.28 0 5.951 2.732 5.951 6.108 0 3.37-2.671 6.102-5.951 6.102-3.291 0-5.962-2.732-5.962-6.102zM18.825 7.789c1.236 0 2.241-1.024 2.241-2.291s-1.005-2.298-2.241-2.298-2.241 1.030-2.241 2.298c0 1.268 1.004 2.291 2.241 2.291zM18.919 13.44c-0.325 0-0.675-0.195-0.933-0.615l-1.455-2.351-3.002 3.041 2.781 1.494c1.145 0.562 0.97 1.587 0.97 1.587v6.461c0 0.733-0.566 1.329-1.28 1.329s-1.28-0.596-1.28-1.329v-5.172l-4.835-2.746c-0.575-0.332-0.969-0.963-0.969-1.681 0-0.495 0.177-0.95 0.481-1.288l4.735-4.861c0.588-0.685 1.407-0.576 1.407-0.576 0.992 0 1.514 0.888 1.514 0.888l2.356 3.953 3.63-0.007c1.28 0 1.28 1.874 0 1.874h-4.121z"></path>
</g>
<g id="icon-cross">
	<path class="path1" d="M25.333 5.333q0.573 0 0.953 0.38t0.38 0.953q0 0.563-0.385 0.948l-8.396 8.385 8.396 8.385q0.385 0.385 0.385 0.948 0 0.573-0.38 0.953t-0.953 0.38q-0.563 0-0.948-0.385l-8.385-8.396-8.385 8.396q-0.385 0.385-0.948 0.385-0.573 0-0.953-0.38t-0.38-0.953q0-0.563 0.385-0.948l8.396-8.385-8.396-8.385q-0.385-0.385-0.385-0.948 0-0.573 0.38-0.953t0.953-0.38q0.563 0 0.948 0.385l8.385 8.396 8.385-8.396q0.385-0.385 0.948-0.385z"></path>
</g>
<g id="icon-menu">
	<path class="path1" d="M4 6.667h24q0.552 0 0.943 0.391t0.391 0.943-0.391 0.943-0.943 0.391h-24q-0.552 0-0.943-0.391t-0.391-0.943 0.391-0.943 0.943-0.391zM4 22.667h24q0.552 0 0.943 0.391t0.391 0.943-0.391 0.943-0.943 0.391h-24q-0.552 0-0.943-0.391t-0.391-0.943 0.391-0.943 0.943-0.391zM4 14.667h24q0.552 0 0.943 0.391t0.391 0.943-0.391 0.943-0.943 0.391h-24q-0.552 0-0.943-0.391t-0.391-0.943 0.391-0.943 0.943-0.391z"></path>
</g>
<g id="icon-twitter">
	<path class="path1" d="M28.929 7.286q-1.196 1.75-2.893 2.982 0.018 0.25 0.018 0.75 0 2.321-0.679 4.634t-2.063 4.437-3.295 3.759-4.607 2.607-5.768 0.973q-4.839 0-8.857-2.589 0.625 0.071 1.393 0.071 4.018 0 7.161-2.464-1.875-0.036-3.357-1.152t-2.036-2.848q0.589 0.089 1.089 0.089 0.768 0 1.518-0.196-2-0.411-3.313-1.991t-1.313-3.67v-0.071q1.214 0.679 2.607 0.732-1.179-0.786-1.875-2.054t-0.696-2.75q0-1.571 0.786-2.911 2.161 2.661 5.259 4.259t6.634 1.777q-0.143-0.679-0.143-1.321 0-2.393 1.688-4.080t4.080-1.688q2.5 0 4.214 1.821 1.946-0.375 3.661-1.393-0.661 2.054-2.536 3.179 1.661-0.179 3.321-0.893z"></path>
</g>
<g id="icon-facebook">
	<path class="path1" d="M9.125 9.929h4.589l-0.536 5.071h-4.054v14.714h-6.089v-14.714h-3.036v-5.071h3.036v-3.054q0-3.25 1.536-4.92t5.054-1.67h4.054v5.071h-2.536q-0.696 0-1.116 0.116t-0.607 0.42-0.241 0.616-0.054 0.884v2.536z"></path>
</g>
<g id="icon-github">
	<path class="path1" d="M27.429 16q0 4.482-2.616 8.063t-6.759 4.955q-0.482 0.089-0.705-0.125t-0.223-0.536v-3.768q0-1.732-0.929-2.536 1.018-0.107 1.83-0.321t1.679-0.696 1.446-1.188 0.946-1.875 0.366-2.688q0-2.161-1.411-3.679 0.661-1.625-0.143-3.643-0.5-0.161-1.446 0.196t-1.643 0.786l-0.679 0.429q-1.661-0.464-3.429-0.464t-3.429 0.464q-0.286-0.196-0.759-0.482t-1.491-0.688-1.536-0.241q-0.786 2.018-0.125 3.643-1.411 1.518-1.411 3.679 0 1.518 0.366 2.679t0.938 1.875 1.438 1.196 1.679 0.696 1.83 0.321q-0.714 0.643-0.875 1.839-0.375 0.179-0.804 0.268t-1.018 0.089-1.17-0.384-0.991-1.116q-0.339-0.571-0.866-0.929t-0.884-0.429l-0.357-0.054q-0.375 0-0.518 0.080t-0.089 0.205 0.161 0.25 0.232 0.214l0.125 0.089q0.393 0.179 0.777 0.679t0.563 0.911l0.179 0.411q0.232 0.679 0.786 1.098t1.196 0.536 1.241 0.125 0.991-0.063l0.411-0.071q0 0.679 0.009 1.589t0.009 0.964q0 0.321-0.232 0.536t-0.714 0.125q-4.143-1.375-6.759-4.955t-2.616-8.063q0-3.732 1.839-6.884t4.991-4.991 6.884-1.839 6.884 1.839 4.991 4.991 1.839 6.884z"></path>
</g>
<g id="icon-rss">
	<path class="path1" d="M6.857 24q0 1.429-1 2.429t-2.429 1-2.429-1-1-2.429 1-2.429 2.429-1 2.429 1 1 2.429zM16 26.196q0.036 0.5-0.304 0.857-0.321 0.375-0.839 0.375h-2.411q-0.446 0-0.768-0.295t-0.357-0.741q-0.393-4.089-3.295-6.991t-6.991-3.295q-0.446-0.036-0.741-0.357t-0.295-0.768v-2.411q0-0.518 0.375-0.839 0.304-0.304 0.768-0.304h0.089q2.857 0.232 5.464 1.438t4.625 3.241q2.036 2.018 3.241 4.625t1.438 5.464zM25.143 26.232q0.036 0.482-0.321 0.839-0.321 0.357-0.821 0.357h-2.554q-0.464 0-0.795-0.313t-0.348-0.759q-0.214-3.839-1.804-7.295t-4.134-6-6-4.134-7.295-1.821q-0.446-0.018-0.759-0.348t-0.313-0.777v-2.554q0-0.5 0.357-0.821 0.321-0.321 0.786-0.321h0.054q4.679 0.232 8.955 2.143t7.598 5.25q3.339 3.321 5.25 7.598t2.143 8.955z"></path>
</g>
<g id="icon-site">
	<path class="path1" d="M26 21.714q0-0.714-0.5-1.214l-3.714-3.714q-0.5-0.5-1.214-0.5-0.75 0-1.286 0.571 0.054 0.054 0.339 0.33t0.384 0.384 0.268 0.339 0.232 0.455 0.063 0.491q0 0.714-0.5 1.214t-1.214 0.5q-0.268 0-0.491-0.063t-0.455-0.232-0.339-0.268-0.384-0.384-0.33-0.339q-0.589 0.554-0.589 1.304 0 0.714 0.5 1.214l3.679 3.696q0.482 0.482 1.214 0.482 0.714 0 1.214-0.464l2.625-2.607q0.5-0.5 0.5-1.196zM13.446 9.125q0-0.714-0.5-1.214l-3.679-3.696q-0.5-0.5-1.214-0.5-0.696 0-1.214 0.482l-2.625 2.607q-0.5 0.5-0.5 1.196 0 0.714 0.5 1.214l3.714 3.714q0.482 0.482 1.214 0.482 0.75 0 1.286-0.554-0.054-0.054-0.339-0.33t-0.384-0.384-0.268-0.339-0.232-0.455-0.063-0.491q0-0.714 0.5-1.214t1.214-0.5q0.268 0 0.491 0.063t0.455 0.232 0.339 0.268 0.384 0.384 0.33 0.339q0.589-0.554 0.589-1.304zM29.429 21.714q0 2.143-1.518 3.625l-2.625 2.607q-1.482 1.482-3.625 1.482-2.161 0-3.643-1.518l-3.679-3.696q-1.482-1.482-1.482-3.625 0-2.196 1.571-3.732l-1.571-1.571q-1.536 1.571-3.714 1.571-2.143 0-3.643-1.5l-3.714-3.714q-1.5-1.5-1.5-3.643t1.518-3.625l2.625-2.607q1.482-1.482 3.625-1.482 2.161 0 3.643 1.518l3.679 3.696q1.482 1.482 1.482 3.625 0 2.196-1.571 3.732l1.571 1.571q1.536-1.571 3.714-1.571 2.143 0 3.643 1.5l3.714 3.714q1.5 1.5 1.5 3.643z"></path>
</g>
<g id="icon-pinterest">
	<path class="path1" d="M27.429 16q0 3.732-1.839 6.884t-4.991 4.991-6.884 1.839q-1.982 0-3.893-0.571 1.054-1.661 1.393-2.929 0.161-0.607 0.964-3.768 0.357 0.696 1.304 1.205t2.036 0.509q2.161 0 3.857-1.223t2.625-3.366 0.929-4.821q0-2.036-1.063-3.821t-3.080-2.911-4.554-1.125q-1.875 0-3.5 0.518t-2.759 1.375-1.946 1.973-1.196 2.313-0.384 2.393q0 1.857 0.714 3.268t2.089 1.982q0.536 0.214 0.679-0.357 0.036-0.125 0.143-0.554t0.143-0.536q0.107-0.411-0.196-0.768-0.911-1.089-0.911-2.696 0-2.696 1.866-4.634t4.884-1.938q2.696 0 4.205 1.464t1.509 3.804q0 3.036-1.223 5.161t-3.134 2.125q-1.089 0-1.75-0.777t-0.411-1.866q0.143-0.625 0.473-1.67t0.536-1.839 0.205-1.348q0-0.893-0.482-1.482t-1.375-0.589q-1.107 0-1.875 1.018t-0.768 2.536q0 1.304 0.446 2.179l-1.768 7.464q-0.304 1.25-0.232 3.161-3.679-1.625-5.946-5.018t-2.268-7.554q0-3.732 1.839-6.884t4.991-4.991 6.884-1.839 6.884 1.839 4.991 4.991 1.839 6.884z"></path>
</g>
<g id="icon-google-plus">
	<path class="path1" d="M15.643 26.161q0-0.375-0.080-0.723t-0.17-0.643-0.313-0.616-0.375-0.545-0.473-0.527-0.491-0.455-0.571-0.455-0.554-0.411-0.589-0.411-0.545-0.375q-0.304-0.036-0.893-0.036-0.964 0-1.893 0.125t-1.929 0.446-1.75 0.821-1.232 1.339-0.482 1.911q0 1.214 0.634 2.17t1.661 1.5 2.152 0.813 2.268 0.268q1.054 0 2.009-0.223t1.795-0.696 1.33-1.313 0.491-1.964zM13.5 10.768q0-1.071-0.295-2.277t-0.839-2.33-1.5-1.857-2.134-0.732q-1.661 0-2.571 1.232t-0.911 2.946q0 0.839 0.205 1.768t0.634 1.857 1 1.67 1.393 1.205 1.732 0.464q1.732 0 2.509-1.080t0.777-2.866zM11.161 2.286h7.804l-2.411 1.411h-2.411q1.268 0.804 1.964 2.25t0.696 3.018q0 1.321-0.411 2.348t-1 1.652-1.179 1.152-1 1.089-0.411 1.205q0 0.464 0.295 0.911t0.768 0.857 1.045 0.857 1.143 0.991 1.045 1.179 0.768 1.518 0.295 1.902q0 2.857-2.5 5.036-2.714 2.339-7.5 2.339-1.054 0-2.134-0.179t-2.179-0.598-1.938-1.036-1.375-1.589-0.536-2.17q0-1.089 0.661-2.411 0.571-1.143 1.714-1.973t2.589-1.268 2.768-0.643 2.679-0.241q-1.143-1.482-1.143-2.661 0-0.214 0.036-0.42t0.089-0.348 0.143-0.384 0.125-0.384q-0.714 0.089-1.25 0.089-2.661 0-4.563-1.75t-1.902-4.393q0-2.5 1.696-4.473t4.179-2.527q1.679-0.357 3.339-0.357zM29.714 6.857v2.286h-4.571v4.571h-2.286v-4.571h-4.571v-2.286h4.571v-4.571h2.286v4.571h4.571z"></path>
</g>
<g id="icon-linkedin">
	<path class="path1" d="M6.232 11.161v17.696h-5.893v-17.696h5.893zM6.607 5.696q0.018 1.304-0.902 2.179t-2.42 0.875h-0.036q-1.464 0-2.357-0.875t-0.893-2.179q0-1.321 0.92-2.188t2.402-0.866 2.375 0.866 0.911 2.188zM27.429 18.714v10.143h-5.875v-9.464q0-1.875-0.723-2.938t-2.259-1.063q-1.125 0-1.884 0.616t-1.134 1.527q-0.196 0.536-0.196 1.446v9.875h-5.875q0.036-7.125 0.036-11.554t-0.018-5.286l-0.018-0.857h5.875v2.571h-0.036q0.357-0.571 0.732-1t1.009-0.929 1.554-0.777 2.045-0.277q3.054 0 4.911 2.027t1.857 5.938z"></path>
</g>
<g id="icon-youtube">
	<path class="path1" d="M22.857 16q0-0.661-0.536-0.964l-9.143-5.714q-0.554-0.357-1.161-0.036-0.589 0.321-0.589 1v11.429q0 0.679 0.589 1 0.286 0.143 0.554 0.143 0.357 0 0.607-0.179l9.143-5.714q0.536-0.304 0.536-0.964zM32 16q0 1.714-0.018 2.679t-0.152 2.438-0.402 2.634q-0.286 1.304-1.232 2.196t-2.214 1.036q-3.964 0.446-11.982 0.446t-11.982-0.446q-1.268-0.143-2.223-1.036t-1.241-2.196q-0.25-1.161-0.384-2.634t-0.152-2.438-0.018-2.679 0.018-2.679 0.152-2.438 0.402-2.634q0.286-1.304 1.232-2.196t2.214-1.036q3.964-0.446 11.982-0.446t11.982 0.446q1.268 0.143 2.223 1.036t1.241 2.196q0.25 1.161 0.384 2.634t0.152 2.438 0.018 2.679z"></path>
</g>
<g id="icon-stack-overflow">
	<path class="path1" d="M16.571 25.018v2.696l-12.625 0.018v-2.696zM20.875 18.839v12.518l-0.018 0.625v0.018l-20.857-0.018v-13.143h2.161v11.036h16.571v-11.036h2.143zM4.304 20.411l12.571 1.161-0.232 2.679-12.589-1.161zM5.518 14.768l12.196 3.268-0.696 2.607-12.196-3.268zM8.429 8.536l10.875 6.429-1.375 2.321-10.875-6.429zM14.857 2.625l7.107 10.446-2.214 1.518-7.125-10.429zM22.946 0l2.161 12.446-2.661 0.464-2.161-12.446z"></path>
</g>
<g id="icon-skype">
	<path class="path1" d="M20.946 18.982q0-0.893-0.348-1.634t-0.866-1.223-1.304-0.875-1.473-0.607-1.563-0.411l-1.857-0.429q-0.536-0.125-0.786-0.188t-0.625-0.205-0.536-0.286-0.295-0.375-0.134-0.536q0-1.375 2.571-1.375 0.768 0 1.375 0.214t0.964 0.509 0.679 0.598 0.714 0.518 0.857 0.214q0.839 0 1.348-0.571t0.509-1.375q0-0.982-1-1.777t-2.536-1.205-3.25-0.411q-1.214 0-2.357 0.277t-2.134 0.839-1.589 1.554-0.598 2.295q0 1.089 0.339 1.902t1 1.348 1.429 0.866 1.839 0.58l2.607 0.643q1.607 0.393 2 0.643 0.571 0.357 0.571 1.071 0 0.696-0.714 1.152t-1.875 0.455q-0.911 0-1.634-0.286t-1.161-0.688-0.813-0.804-0.821-0.688-0.964-0.286q-0.893 0-1.348 0.536t-0.455 1.339q0 1.643 2.179 2.813t5.196 1.17q1.304 0 2.5-0.33t2.188-0.955 1.58-1.67 0.589-2.348zM27.429 22.857q0 2.839-2.009 4.848t-4.848 2.009q-2.321 0-4.179-1.429-1.375 0.286-2.679 0.286-2.554 0-4.884-0.991t-4.018-2.679-2.679-4.018-0.991-4.884q0-1.304 0.286-2.679-1.429-1.857-1.429-4.179 0-2.839 2.009-4.848t4.848-2.009q2.321 0 4.179 1.429 1.375-0.286 2.679-0.286 2.554 0 4.884 0.991t4.018 2.679 2.679 4.018 0.991 4.884q0 1.304-0.286 2.679 1.429 1.857 1.429 4.179z"></path>
</g>
<g id="icon-vk">
	<path class="path1" d="M34.232 9.286q0.411 1.143-2.679 5.25-0.429 0.571-1.161 1.518-1.393 1.786-1.607 2.339-0.304 0.732 0.25 1.446 0.304 0.375 1.446 1.464h0.018l0.071 0.071q2.518 2.339 3.411 3.946 0.054 0.089 0.116 0.223t0.125 0.473-0.009 0.607-0.446 0.491-1.054 0.223l-4.571 0.071q-0.429 0.089-1-0.089t-0.929-0.393l-0.357-0.214q-0.536-0.375-1.25-1.143t-1.223-1.384-1.089-1.036-1.009-0.277q-0.054 0.018-0.143 0.063t-0.304 0.259-0.384 0.527-0.304 0.929-0.116 1.384q0 0.268-0.063 0.491t-0.134 0.33l-0.071 0.089q-0.321 0.339-0.946 0.393h-2.054q-1.268 0.071-2.607-0.295t-2.348-0.946-1.839-1.179-1.259-1.027l-0.446-0.429q-0.179-0.179-0.491-0.536t-1.277-1.625-1.893-2.696-2.188-3.768-2.33-4.857q-0.107-0.286-0.107-0.482t0.054-0.286l0.071-0.107q0.268-0.339 1.018-0.339l4.893-0.036q0.214 0.036 0.411 0.116t0.286 0.152l0.089 0.054q0.286 0.196 0.429 0.571 0.357 0.893 0.821 1.848t0.732 1.455l0.286 0.518q0.518 1.071 1 1.857t0.866 1.223 0.741 0.688 0.607 0.25 0.482-0.089q0.036-0.018 0.089-0.089t0.214-0.393 0.241-0.839 0.17-1.446 0-2.232q-0.036-0.714-0.161-1.304t-0.25-0.821l-0.107-0.214q-0.446-0.607-1.518-0.768-0.232-0.036 0.089-0.429 0.304-0.339 0.679-0.536 0.946-0.464 4.268-0.429 1.464 0.018 2.411 0.232 0.357 0.089 0.598 0.241t0.366 0.429 0.188 0.571 0.063 0.813-0.018 0.982-0.045 1.259-0.027 1.473q0 0.196-0.018 0.75t-0.009 0.857 0.063 0.723 0.205 0.696 0.402 0.438q0.143 0.036 0.304 0.071t0.464-0.196 0.679-0.616 0.929-1.196 1.214-1.92q1.071-1.857 1.911-4.018 0.071-0.179 0.179-0.313t0.196-0.188l0.071-0.054 0.089-0.045t0.232-0.054 0.357-0.009l5.143-0.036q0.696-0.089 1.143 0.045t0.554 0.295z"></path>
</g>
<g id="icon-arrow-down">
	<path class="path1" d="M4.131 8.962c-0.434-0.429-1.134-0.429-1.566 0-0.432 0.427-0.432 1.122 0 1.55l12.653 12.528c0.434 0.429 1.133 0.429 1.566 0l12.653-12.528c0.432-0.429 0.434-1.122 0-1.55s-1.136-0.429-1.566-0.002l-11.87 11.426-11.869-11.424z"></path>
</g>
<g id="icon-direction">
	<path class="path1" d="M28,4.33H17.62l3.117,3.117l-7.356,7.356h-0.01V27.67h5.593V17.13l5.728-5.728L28,14.709V4.33z M12.824,17.109L4,8.285L7.955,4.33l7.632,7.632l-2.752,2.752h-0.011V17.109z"></path>
</g>
</defs>

<g fill="#464646">
	<use xlink:href="#icon-driving" transform="translate(0 0)"></use>
	<use xlink:href="#icon-email" transform="translate(48 0)"></use>
	<use xlink:href="#icon-navigate" transform="translate(96 0)"></use>
	<use xlink:href="#icon-geolocation" transform="translate(144 0)"></use>
	<use xlink:href="#icon-flag" transform="translate(192 0)"></use>
	<use xlink:href="#icon-transit" transform="translate(240 0)"></use>
	<use xlink:href="#icon-walking" transform="translate(290 0)"></use>
	<use xlink:href="#icon-bicycling" transform="translate(338 0)"></use>
	<use xlink:href="#icon-cross" transform="translate(386 0)"></use>
	<use xlink:href="#icon-menu" transform="translate(434 0)"></use>
	<use xlink:href="#icon-twitter" transform="translate(482 0)"></use>
	<use xlink:href="#icon-facebook" transform="translate(528 0)"></use>
	<use xlink:href="#icon-github" transform="translate(558 0)"></use>
	<use xlink:href="#icon-rss" transform="translate(606 0)"></use>
	<use xlink:href="#icon-site" transform="translate(647 0)"></use>
	<use xlink:href="#icon-pinterest" transform="translate(693 0)"></use>
	<use xlink:href="#icon-google-plus" transform="translate(0 48)"></use>
	<use xlink:href="#icon-linkedin" transform="translate(48 48)"></use>
	<use xlink:href="#icon-youtube" transform="translate(96 48)"></use>
	<use xlink:href="#icon-stack-overflow" transform="translate(144 48)"></use>
	<use xlink:href="#icon-skype" transform="translate(192 48)"></use>
	<use xlink:href="#icon-vk" transform="translate(240 48)"></use>
	<use xlink:href="#icon-arrow-down" transform="translate(290 48)"></use>
	<use xlink:href="#icon-direction" transform="translate(338 48)"></use>
</g>

</svg>
