<?xml version="1.0" encoding="utf-8"?>
<!-- Generator: Adobe Illustrator 19.0.0, SVG Export Plug-In . SVG Version: 6.00 Build 0)  -->
<svg version="1.1" id="Слой_1" xmlns="http://www.w3.org/2000/svg" xmlns:xlink="http://www.w3.org/1999/xlink" x="0px" y="0px"
	 viewBox="0 0 292.9 80" style="enable-background:new 0 0 292.9 80;" xml:space="preserve">
<style type="text/css">
	.st0{fill:#FCEE21;}
	.st1{fill:#333333;}
</style>
<rect class="st0" width="292.9" height="52.9"/>
<path class="st1" d="M203.3,7.2h4.6c1.2,0,2.2,0.3,3.1,1c0.9,0.7,1.3,1.4,1.3,2.4v2.1h-9V7.2z"/>
<path class="st1" d="M37.3,16.4c-2.4-1.3-6.1-1.9-10.9-1.9c-4.3,0-7.6,0.9-10,2.4c-2.1,1.3-3.3,2.9-3.6,5.2h8.7
	c0.4-0.9,1.1-1.4,2.1-1.6c0.9-0.3,2-0.5,3.2-0.5c1.1,0,2.3,0.1,3.7,0.4c1.3,0.3,2,0.9,2,1.9c0,1.3-1.9,2.2-5.7,2.6
	c-0.8,0.1-1.5,0.1-2.1,0.2c-0.6,0.1-1.1,0.1-1.6,0.1c-3.3,0.4-6,1.2-8.1,2.4c-2.1,1.2-3.2,3.2-3.2,6c0,3,1.2,5.2,3.5,6.5
	c2.3,1.3,5,2,8.1,2c1.6,0,3.3-0.1,5.4-0.3c2-0.2,3.9-0.6,5.8-1.4c1.7-0.7,3.3-1.8,4.5-3.3c1.2-1.5,1.9-3.6,1.9-6.3V22
	C41.1,19.6,39.8,17.7,37.3,16.4z M32.4,30.8c0,1.9-0.6,3.3-2,4.4c-1.4,1.1-3.2,1.6-5.7,1.6c-1.5,0-2.6-0.3-3.3-0.8
	c-0.8-0.6-1.2-1.4-1.2-2.4c0-0.7,0.3-1.5,0.9-2.2c0.7-0.5,1.8-1,3.4-1.3l2.9-0.5c2.2-0.4,3.8-0.8,5-1.3V30.8z"/>
<path class="st1" d="M68.8,16.8c-3.2-1.5-6.7-2.3-10.4-2.3c-3.7,0.1-7.2,1-10.2,2.5c-3.1,1.5-4.7,4.6-4.7,9.1v15.6h9.5v-17
	c0-1.6,0.5-2.8,1.7-3.5c1.2-0.7,2.5-1.1,4.1-1.1c1.6,0,3.1,0.4,4.3,1.1c1.2,0.7,2,1.9,2,3.5v13.7c0,1,0.3,1.8,1.1,2.4
	c0.8,0.6,1.7,0.9,3,0.9h4.4V26.1C73.5,21.4,71.9,18.3,68.8,16.8z"/>
<path class="st1" d="M146.2,16.4c-2.4-1.3-6.1-1.9-10.9-1.9c-4.3,0-7.7,0.9-10,2.4c-2.1,1.3-3.3,2.9-3.6,5.2h8.7
	c0.4-0.9,1.1-1.4,2.1-1.6c0.9-0.3,2-0.5,3.2-0.5c1.1,0,2.3,0.1,3.7,0.4c1.3,0.3,2,0.9,2,1.9c0,1.3-1.9,2.2-5.7,2.6
	c-0.8,0.1-1.5,0.1-2.1,0.2c-0.6,0.1-1.1,0.1-1.6,0.1c-3.3,0.4-6,1.2-8.1,2.4c-2.1,1.2-3.2,3.2-3.2,6c0,3,1.2,5.2,3.5,6.5
	c2.3,1.3,5,2,8.1,2c1.6,0,3.3-0.1,5.4-0.3c2-0.2,3.9-0.6,5.8-1.4c1.7-0.7,3.3-1.8,4.6-3.3c1.2-1.5,2-3.6,2-6.3V22
	C150,19.6,148.7,17.7,146.2,16.4z M141.7,30.8c0,1.9-0.9,3.3-2.2,4.4c-1.4,1.1-3.4,1.6-5.8,1.6c-1.5,0-2.6-0.3-3.4-0.8
	c-0.8-0.6-1.2-1.4-1.2-2.4c0-0.7,0.3-1.5,0.9-2.2c0.7-0.5,1.8-1,3.4-1.3l3.1-0.5c2.2-0.4,3.7-0.8,5.2-1.3V30.8z"/>
<path class="st1" d="M195.2,10.6c0-0.9-0.6-1.7-1.4-2.3c-0.9-0.7-2-0.9-3.1-0.9h-5.2v29.4c0,3.1,1.9,4.7,5.2,4.9
	c3.3,0.2,6.6,0.2,9.5,0.1v-5.2h-2.7c-1.7,0-2.3-0.6-2.3-1.8v-15h0.7c1.2,0,2.2-0.2,3.1-0.9c0.9-0.6,1.3-1.4,1.3-2.4v-1.5h-5.1V10.6z
	"/>
<path class="st1" d="M211,16.1c-0.9-0.7-2-1-3.2-1h-4.6v26.6h9.2V18.5C212.3,17.5,211.8,16.8,211,16.1z"/>
<path class="st1" d="M237.2,15.3c-2.8-0.8-6-1-9.6-0.7c-3.5,0.4-6.4,1.6-8.7,3.6c-1.4,1.2-2.4,2.7-3,4.5c-0.6,1.8-1,3.6-1,5.4
	c0,2.2,0.4,4.3,1.2,6.4c0.8,2,2.1,3.7,3.9,4.9c1.7,1.2,4,2.1,6.9,2.6c2.9,0.5,5.8,0.5,8.6-0.2c3.2-0.5,5.8-1.9,7.9-4.1
	c0.9-1.1,1.7-2.4,2.3-3.9c0.6-1.5,0.9-3.4,0.9-5.5c0-2.9-0.7-5.5-2.2-7.7C242.9,18,240.5,16.3,237.2,15.3z M236.1,34.1
	c-1,1.2-2.2,2-3.6,2.3c-1.3,0.3-2.6,0.3-3.9-0.1c-1.3-0.4-2.2-0.8-2.7-1.4c-1.3-1.2-2-3.3-2.2-6.4c-0.2-3,0.6-5.3,2.5-6.9
	c0.6-0.5,1.6-0.9,2.8-1.2c1.3-0.3,2.6-0.3,3.9,0.1c1.3,0.3,2.4,1.1,3.4,2.3c1,1.2,1.5,3,1.5,5.4C237.7,31,237.2,32.9,236.1,34.1z"/>
<path class="st1" d="M273.8,16.8c-3.2-1.5-6.6-2.3-10.4-2.3c-3.7,0.1-7,1-10,2.5c-3.1,1.5-4.5,4.6-4.5,9.1v15.6h9.2v-17
	c0-1.6,0.5-2.8,1.7-3.5c1.2-0.7,2.5-1.1,4.1-1.1s2.8,0.4,4.1,1.1c1.2,0.7,1.7,1.9,1.7,3.5v13.7c0,1,0.5,1.8,1.3,2.4
	c0.8,0.6,2,0.9,3.3,0.9h4.2V26.1C278.4,21.4,277,18.3,273.8,16.8z"/>
<path class="st1" d="M105.8,8.2c-0.9-0.7-2-0.8-3.2-0.8H98v7.7c-0.3-0.1-0.3-0.1-0.5-0.2c-2.8-0.8-6-1-9.5-0.7
	c-3.5,0.4-6.4,1.6-8.6,3.6c-1.4,1.2-2.4,2.7-3,4.5c-0.6,1.8-1,3.6-1,5.4c0,2.2,0.4,4.3,1.2,6.4c0.8,2,2.1,3.7,3.9,4.9
	c1.7,1.2,4,2.1,6.9,2.6c2.9,0.5,5.8,0.5,8.6-0.2c1-0.2,2-0.4,2.9-0.8c1-0.3,2-0.7,2.9-1.1c3.5-1.7,5.4-4.9,5.4-9.6V10.3
	C107.2,9.4,106.7,8.9,105.8,8.2z M93.1,36.1c-1.3,0.3-2.6,0.3-3.9-0.1c-1.3-0.4-2.2-0.8-2.7-1.4c-1.3-1.2-2-3.3-2.2-6.4
	c-0.2-3,0.6-5.3,2.5-6.9c0.6-0.5,1.6-0.9,2.8-1.2c1.3-0.3,2.6-0.3,3.9,0.1c1.3,0.3,2.4,1.1,3.4,2.3c1,1.2,1.5,3,1.5,5.4
	c-0.1,2.7-0.6,4.6-1.7,5.8C95.6,35,94.4,35.8,93.1,36.1z"/>
<path class="st1" d="M173.8,33.7c-0.1,0.3-0.2,0.2-0.2,0.3c-1,1.2-2.2,2-3.6,2.3c-1.3,0.3-2.6,0.3-3.9-0.1c-1.3-0.4-2.2-0.8-2.7-1.4
	c-1.3-1.2-2-3.3-2.2-6.4c-0.2-3,0.6-5.3,2.5-6.9c0.6-0.5,1.6-0.9,2.8-1.2c1.3-0.3,2.6-0.3,3.9,0.1c1.3,0.3,2.4,1.2,3.4,2.4
	c0.3,0.4,0.6,0.8,0.8,1.5h9c-0.4-1.8-0.9-2.7-1.7-3.9c-1.6-2.5-4-4.2-7.2-5.3c-2.8-0.8-6-1-9.6-0.7c-3.5,0.4-6.4,1.5-8.7,3.6
	c-1.4,1.2-2.4,2.7-3,4.5s-1,3.6-1,5.4c0,2.2,0.4,4.3,1.2,6.4c0.8,2,2.1,3.7,3.9,4.9c1.7,1.2,4,2.1,6.9,2.6c2.9,0.5,5.8,0.5,8.6-0.2
	c3.2-0.5,5.8-1.9,7.9-4.1c0.9-1,1.7-2.9,2.3-3.8H173.8z"/>
<g>
	<path class="st1" d="M57.9,65.5l-4.8,10.5h-3.6l-4.7-10.5h3.7l2.7,7.3l2.3-6.4c0.3-0.6,0.8-0.9,1.7-0.9H57.9z"/>
	<path class="st1" d="M61.9,62.5c1.1,0,1.7,0.4,1.6,1.3v0.8h-3.4v-2.1H61.9z M61.9,65.5c1.1,0,1.6,0.4,1.6,1.3v9.2h-3.4V65.5H61.9z"
		/>
	<path class="st1" d="M78.9,63.8v7.6c0,3.1-2.1,4.7-6.3,4.7c-4.2-0.1-6.3-1.8-6.3-5.3c0-3.6,1.8-5.4,5.4-5.5c1.7,0,3,0.5,3.8,1.6
		v-4.4h1.7C78.1,62.5,78.9,63.1,78.9,63.8z M69.8,70.7c0,2.1,0.9,3.2,2.8,3.2c1.9,0,2.9-1.1,2.9-3.2c-0.1-2-1-3-2.8-3
		S69.9,68.6,69.8,70.7z"/>
	<path class="st1" d="M87.4,76.1c-4.1-0.1-6.1-1.9-6.1-5.5s2.1-5.3,6.2-5.4c4.3,0,6.3,2,6,6.1h-8.7c0.1,1.6,1,2.4,2.7,2.4
		c0.8,0,1.5-0.3,2.2-0.8c0.3-0.3,0.7-0.4,1.1-0.4h2.5C92.6,74.9,90.7,76.1,87.4,76.1z M84.9,69.5h5.1c-0.2-1.4-1-2.1-2.5-2.1
		C86,67.5,85.1,68.2,84.9,69.5z"/>
	<path class="st1" d="M108.2,70.7c0,3.6-2.1,5.4-6.1,5.4c-4.1,0-6.1-1.8-6.1-5.4c0-3.6,2-5.4,6.1-5.4
		C106.2,65.3,108.2,67.1,108.2,70.7z M99.4,70.7c0,2,0.9,3.1,2.6,3.1c1.7,0,2.6-1.1,2.6-3.1c0-2-0.9-3-2.6-3
		C100.3,67.6,99.4,68.7,99.4,70.7z"/>
	<path class="st1" d="M127.2,78.7c0,0.9-0.6,1.3-1.7,1.3h-1.7V70c0.2-3.1,2.3-4.7,6.3-4.7c4.2,0,6.3,1.8,6.3,5.3
		c0,3.6-1.8,5.4-5.4,5.5c-1.7,0-3-0.5-3.8-1.6V78.7z M130.1,73.8c1.8,0,2.8-1,2.8-3c0-2.1-1-3.2-2.9-3.2s-2.8,1-2.8,3.2
		C127.3,72.7,128.2,73.8,130.1,73.8z"/>
	<path class="st1" d="M139,70.5c0.1-3.4,2.4-5.1,6.9-5.1h0.5v2.7h-1.1c-1.9,0-2.8,0.8-2.8,2.3v5.4H139V70.5z"/>
	<path class="st1" d="M161.1,70.7c0,3.6-2.1,5.4-6.1,5.4c-4.1,0-6.1-1.8-6.1-5.4c0-3.6,2-5.4,6.1-5.4
		C159,65.3,161.1,67.1,161.1,70.7z M152.3,70.7c0,2,0.9,3.1,2.6,3.1c1.7,0,2.6-1.1,2.6-3.1c0-2-0.9-3-2.6-3
		C153.2,67.6,152.3,68.7,152.3,70.7z"/>
	<path class="st1" d="M176.2,63.8v7.6c0,3.1-2.1,4.7-6.3,4.7c-4.2-0.1-6.3-1.8-6.3-5.3c0-3.6,1.8-5.4,5.4-5.5c1.7,0,3,0.5,3.8,1.6
		v-4.4h1.7C175.4,62.5,176.2,63.1,176.2,63.8z M167.1,70.7c0,2.1,0.9,3.2,2.8,3.2c1.9,0,2.9-1.1,2.9-3.2c-0.1-2-1-3-2.8-3
		S167.2,68.6,167.1,70.7z"/>
	<path class="st1" d="M190,71.7c0,1.8-0.6,3-1.8,3.6c-1.2,0.5-2.5,0.8-4,0.8c-1.4,0-2.6-0.3-3.8-0.9c-1.2-0.6-1.8-1.7-1.8-3.5v-6.3
		h3.4v6.8c0,1.2,0.8,1.7,2.3,1.7c1.5,0,2.3-0.6,2.3-1.7v-5.5c0-0.9,0.5-1.3,1.6-1.3h1.7V71.7z"/>
	<path class="st1" d="M198.7,76.1c-4.1,0-6.2-1.8-6.3-5.4c0-3.6,2.1-5.4,6.2-5.4c3.3,0,5.2,1.1,5.8,3.4h-3.7
		c-0.4-0.7-1.1-1.1-2.2-1.1c-1.8,0-2.7,1-2.7,3.1c0,2.1,0.9,3.1,2.8,3.1c0.8,0,1.5-0.3,2-0.8c0.3-0.3,0.7-0.4,1.1-0.4h2.5
		C203.8,74.8,201.8,76.2,198.7,76.1z"/>
	<path class="st1" d="M210.9,67.3h-0.4v5.8c0,0.4,0.3,0.7,1,0.7h1v2c-1.1,0.1-2.3,0.1-3.6,0c-1.3-0.1-1.9-0.7-1.9-1.9V62.5h1.8
		c0.9,0,1.6,0.6,1.6,1.3v1.7h2V66C212.6,66.8,211.9,67.3,210.9,67.3z"/>
	<path class="st1" d="M217.3,62.5c1.1,0,1.7,0.4,1.6,1.3v0.8h-3.4v-2.1H217.3z M217.3,65.5c1.1,0,1.6,0.4,1.6,1.3v9.2h-3.4V65.5
		H217.3z"/>
	<path class="st1" d="M234,70.7c0,3.6-2.1,5.4-6.1,5.4c-4.1,0-6.1-1.8-6.1-5.4c0-3.6,2-5.4,6.1-5.4C231.9,65.3,234,67.1,234,70.7z
		 M225.2,70.7c0,2,0.9,3.1,2.6,3.1c1.7,0,2.6-1.1,2.6-3.1c0-2-0.9-3-2.6-3C226.1,67.6,225.2,68.7,225.2,70.7z"/>
	<path class="st1" d="M246.4,75.9c-1.1-0.1-1.7-0.5-1.7-1.3v-5.4c-0.1-1.1-0.8-1.6-2.3-1.6c-1.5,0-2.3,0.5-2.3,1.6v6.7h-3.4v-6.1
		c0-3,1.9-4.5,5.8-4.5c3.8,0,5.7,1.5,5.7,4.5v6.1H246.4z"/>
</g>
</svg>
