<svg id="Слой_1" xmlns="http://www.w3.org/2000/svg" viewBox="0 0 292.9 80"><style>.st0{fill:#FCEE21;} .st1{fill:#333333;}</style><path class="st0" d="M0 0h292.9v52.9H0z"/><path class="st1" d="M203.3 7.2h4.6c1.2 0 2.2.3 3.1 1 .9.7 1.3 1.4 1.3 2.4v2.1h-9V7.2zM37.3 16.4c-2.4-1.3-6.1-1.9-10.9-1.9-4.3 0-7.6.9-10 2.4-2.1 1.3-3.3 2.9-3.6 5.2h8.7c.4-.9 1.1-1.4 2.1-1.6.9-.3 2-.5 3.2-.5 1.1 0 2.3.1 3.7.4 1.3.3 2 .9 2 1.9 0 1.3-1.9 2.2-5.7 2.6-.8.1-1.5.1-2.1.2-.6.1-1.1.1-1.6.1-3.3.4-6 1.2-8.1 2.4-2.1 1.2-3.2 3.2-3.2 6 0 3 1.2 5.2 3.5 6.5 2.3 1.3 5 2 8.1 2 1.6 0 3.3-.1 5.4-.3 2-.2 3.9-.6 5.8-1.4 1.7-.7 3.3-1.8 4.5-3.3 1.2-1.5 1.9-3.6 1.9-6.3V22c.1-2.4-1.2-4.3-3.7-5.6zm-4.9 14.4c0 1.9-.6 3.3-2 4.4-1.4 1.1-3.2 1.6-5.7 1.6-1.5 0-2.6-.3-3.3-.8-.8-.6-1.2-1.4-1.2-2.4 0-.7.3-1.5.9-2.2.7-.5 1.8-1 3.4-1.3l2.9-.5c2.2-.4 3.8-.8 5-1.3v2.5zM68.8 16.8c-3.2-1.5-6.7-2.3-10.4-2.3-3.7.1-7.2 1-10.2 2.5-3.1 1.5-4.7 4.6-4.7 9.1v15.6H53v-17c0-1.6.5-2.8 1.7-3.5 1.2-.7 2.5-1.1 4.1-1.1 1.6 0 3.1.4 4.3 1.1 1.2.7 2 1.9 2 3.5v13.7c0 1 .3 1.8 1.1 2.4.8.6 1.7.9 3 .9h4.4V26.1c-.1-4.7-1.7-7.8-4.8-9.3zM146.2 16.4c-2.4-1.3-6.1-1.9-10.9-1.9-4.3 0-7.7.9-10 2.4-2.1 1.3-3.3 2.9-3.6 5.2h8.7c.4-.9 1.1-1.4 2.1-1.6.9-.3 2-.5 3.2-.5 1.1 0 2.3.1 3.7.4 1.3.3 2 .9 2 1.9 0 1.3-1.9 2.2-5.7 2.6-.8.1-1.5.1-2.1.2-.6.1-1.1.1-1.6.1-3.3.4-6 1.2-8.1 2.4-2.1 1.2-3.2 3.2-3.2 6 0 3 1.2 5.2 3.5 6.5 2.3 1.3 5 2 8.1 2 1.6 0 3.3-.1 5.4-.3 2-.2 3.9-.6 5.8-1.4 1.7-.7 3.3-1.8 4.6-3.3 1.2-1.5 2-3.6 2-6.3V22c-.1-2.4-1.4-4.3-3.9-5.6zm-4.5 14.4c0 1.9-.9 3.3-2.2 4.4-1.4 1.1-3.4 1.6-5.8 1.6-1.5 0-2.6-.3-3.4-.8-.8-.6-1.2-1.4-1.2-2.4 0-.7.3-1.5.9-2.2.7-.5 1.8-1 3.4-1.3l3.1-.5c2.2-.4 3.7-.8 5.2-1.3v2.5zM195.2 10.6c0-.9-.6-1.7-1.4-2.3-.9-.7-2-.9-3.1-.9h-5.2v29.4c0 3.1 1.9 4.7 5.2 4.9 3.3.2 6.6.2 9.5.1v-5.2h-2.7c-1.7 0-2.3-.6-2.3-1.8v-15h.7c1.2 0 2.2-.2 3.1-.9.9-.6 1.3-1.4 1.3-2.4V15h-5.1v-4.4zM211 16.1c-.9-.7-2-1-3.2-1h-4.6v26.6h9.2V18.5c-.1-1-.6-1.7-1.4-2.4zM237.2 15.3c-2.8-.8-6-1-9.6-.7-3.5.4-6.4 1.6-8.7 3.6-1.4 1.2-2.4 2.7-3 4.5-.6 1.8-1 3.6-1 5.4 0 2.2.4 4.3 1.2 6.4.8 2 2.1 3.7 3.9 4.9 1.7 1.2 4 2.1 6.9 2.6 2.9.5 5.8.5 8.6-.2 3.2-.5 5.8-1.9 7.9-4.1.9-1.1 1.7-2.4 2.3-3.9.6-1.5.9-3.4.9-5.5 0-2.9-.7-5.5-2.2-7.7-1.5-2.6-3.9-4.3-7.2-5.3zm-1.1 18.8c-1 1.2-2.2 2-3.6 2.3-1.3.3-2.6.3-3.9-.1-1.3-.4-2.2-.8-2.7-1.4-1.3-1.2-2-3.3-2.2-6.4-.2-3 .6-5.3 2.5-6.9.6-.5 1.6-.9 2.8-1.2 1.3-.3 2.6-.3 3.9.1 1.3.3 2.4 1.1 3.4 2.3 1 1.2 1.5 3 1.5 5.4-.1 2.8-.6 4.7-1.7 5.9zM273.8 16.8c-3.2-1.5-6.6-2.3-10.4-2.3-3.7.1-7 1-10 2.5-3.1 1.5-4.5 4.6-4.5 9.1v15.6h9.2v-17c0-1.6.5-2.8 1.7-3.5 1.2-.7 2.5-1.1 4.1-1.1s2.8.4 4.1 1.1c1.2.7 1.7 1.9 1.7 3.5v13.7c0 1 .5 1.8 1.3 2.4.8.6 2 .9 3.3.9h4.2V26.1c-.1-4.7-1.5-7.8-4.7-9.3zM105.8 8.2c-.9-.7-2-.8-3.2-.8H98v7.7c-.3-.1-.3-.1-.5-.2-2.8-.8-6-1-9.5-.7-3.5.4-6.4 1.6-8.6 3.6-1.4 1.2-2.4 2.7-3 4.5-.6 1.8-1 3.6-1 5.4 0 2.2.4 4.3 1.2 6.4.8 2 2.1 3.7 3.9 4.9 1.7 1.2 4 2.1 6.9 2.6 2.9.5 5.8.5 8.6-.2 1-.2 2-.4 2.9-.8 1-.3 2-.7 2.9-1.1 3.5-1.7 5.4-4.9 5.4-9.6V10.3c0-.9-.5-1.4-1.4-2.1zM93.1 36.1c-1.3.3-2.6.3-3.9-.1-1.3-.4-2.2-.8-2.7-1.4-1.3-1.2-2-3.3-2.2-6.4-.2-3 .6-5.3 2.5-6.9.6-.5 1.6-.9 2.8-1.2 1.3-.3 2.6-.3 3.9.1 1.3.3 2.4 1.1 3.4 2.3 1 1.2 1.5 3 1.5 5.4-.1 2.7-.6 4.6-1.7 5.8-1.1 1.3-2.3 2.1-3.6 2.4zM173.8 33.7c-.1.3-.2.2-.2.3-1 1.2-2.2 2-3.6 2.3-1.3.3-2.6.3-3.9-.1-1.3-.4-2.2-.8-2.7-1.4-1.3-1.2-2-3.3-2.2-6.4-.2-3 .6-5.3 2.5-6.9.6-.5 1.6-.9 2.8-1.2 1.3-.3 2.6-.3 3.9.1 1.3.3 2.4 1.2 3.4 2.4.3.4.6.8.8 1.5h9c-.4-1.8-.9-2.7-1.7-3.9-1.6-2.5-4-4.2-7.2-5.3-2.8-.8-6-1-9.6-.7-3.5.4-6.4 1.5-8.7 3.6-1.4 1.2-2.4 2.7-3 4.5s-1 3.6-1 5.4c0 2.2.4 4.3 1.2 6.4.8 2 2.1 3.7 3.9 4.9 1.7 1.2 4 2.1 6.9 2.6 2.9.5 5.8.5 8.6-.2 3.2-.5 5.8-1.9 7.9-4.1.9-1 1.7-2.9 2.3-3.8h-9.4zM57.9 65.5L53.1 76h-3.6l-4.7-10.5h3.7l2.7 7.3 2.3-6.4c.3-.6.8-.9 1.7-.9h2.7zM61.9 62.5c1.1 0 1.7.4 1.6 1.3v.8h-3.4v-2.1h1.8zm0 3c1.1 0 1.6.4 1.6 1.3V76h-3.4V65.5h1.8zM78.9 63.8v7.6c0 3.1-2.1 4.7-6.3 4.7-4.2-.1-6.3-1.8-6.3-5.3 0-3.6 1.8-5.4 5.4-5.5 1.7 0 3 .5 3.8 1.6v-4.4h1.7c.9 0 1.7.6 1.7 1.3zm-9.1 6.9c0 2.1.9 3.2 2.8 3.2s2.9-1.1 2.9-3.2c-.1-2-1-3-2.8-3s-2.8.9-2.9 3zM87.4 76.1c-4.1-.1-6.1-1.9-6.1-5.5s2.1-5.3 6.2-5.4c4.3 0 6.3 2 6 6.1h-8.7c.1 1.6 1 2.4 2.7 2.4.8 0 1.5-.3 2.2-.8.3-.3.7-.4 1.1-.4h2.5c-.7 2.4-2.6 3.6-5.9 3.6zm-2.5-6.6H90c-.2-1.4-1-2.1-2.5-2.1-1.5.1-2.4.8-2.6 2.1zM108.2 70.7c0 3.6-2.1 5.4-6.1 5.4-4.1 0-6.1-1.8-6.1-5.4 0-3.6 2-5.4 6.1-5.4s6.1 1.8 6.1 5.4zm-8.8 0c0 2 .9 3.1 2.6 3.1 1.7 0 2.6-1.1 2.6-3.1s-.9-3-2.6-3c-1.7-.1-2.6 1-2.6 3zM127.2 78.7c0 .9-.6 1.3-1.7 1.3h-1.7V70c.2-3.1 2.3-4.7 6.3-4.7 4.2 0 6.3 1.8 6.3 5.3 0 3.6-1.8 5.4-5.4 5.5-1.7 0-3-.5-3.8-1.6v4.2zm2.9-4.9c1.8 0 2.8-1 2.8-3 0-2.1-1-3.2-2.9-3.2s-2.8 1-2.8 3.2c.1 1.9 1 3 2.9 3zM139 70.5c.1-3.4 2.4-5.1 6.9-5.1h.5v2.7h-1.1c-1.9 0-2.8.8-2.8 2.3v5.4H139v-5.3zM161.1 70.7c0 3.6-2.1 5.4-6.1 5.4-4.1 0-6.1-1.8-6.1-5.4 0-3.6 2-5.4 6.1-5.4 4 0 6.1 1.8 6.1 5.4zm-8.8 0c0 2 .9 3.1 2.6 3.1 1.7 0 2.6-1.1 2.6-3.1s-.9-3-2.6-3c-1.7-.1-2.6 1-2.6 3zM176.2 63.8v7.6c0 3.1-2.1 4.7-6.3 4.7-4.2-.1-6.3-1.8-6.3-5.3 0-3.6 1.8-5.4 5.4-5.5 1.7 0 3 .5 3.8 1.6v-4.4h1.7c.9 0 1.7.6 1.7 1.3zm-9.1 6.9c0 2.1.9 3.2 2.8 3.2s2.9-1.1 2.9-3.2c-.1-2-1-3-2.8-3s-2.8.9-2.9 3zM190 71.7c0 1.8-.6 3-1.8 3.6-1.2.5-2.5.8-4 .8-1.4 0-2.6-.3-3.8-.9-1.2-.6-1.8-1.7-1.8-3.5v-6.3h3.4v6.8c0 1.2.8 1.7 2.3 1.7 1.5 0 2.3-.6 2.3-1.7v-5.5c0-.9.5-1.3 1.6-1.3h1.7v6.3zM198.7 76.1c-4.1 0-6.2-1.8-6.3-5.4 0-3.6 2.1-5.4 6.2-5.4 3.3 0 5.2 1.1 5.8 3.4h-3.7c-.4-.7-1.1-1.1-2.2-1.1-1.8 0-2.7 1-2.7 3.1s.9 3.1 2.8 3.1c.8 0 1.5-.3 2-.8.3-.3.7-.4 1.1-.4h2.5c-.4 2.2-2.4 3.6-5.5 3.5zM210.9 67.3h-.4v5.8c0 .4.3.7 1 .7h1v2c-1.1.1-2.3.1-3.6 0-1.3-.1-1.9-.7-1.9-1.9V62.5h1.8c.9 0 1.6.6 1.6 1.3v1.7h2v.5c.2.8-.5 1.3-1.5 1.3zM217.3 62.5c1.1 0 1.7.4 1.6 1.3v.8h-3.4v-2.1h1.8zm0 3c1.1 0 1.6.4 1.6 1.3V76h-3.4V65.5h1.8zM234 70.7c0 3.6-2.1 5.4-6.1 5.4-4.1 0-6.1-1.8-6.1-5.4 0-3.6 2-5.4 6.1-5.4 4 0 6.1 1.8 6.1 5.4zm-8.8 0c0 2 .9 3.1 2.6 3.1 1.7 0 2.6-1.1 2.6-3.1s-.9-3-2.6-3c-1.7-.1-2.6 1-2.6 3zM246.4 75.9c-1.1-.1-1.7-.5-1.7-1.3v-5.4c-.1-1.1-.8-1.6-2.3-1.6-1.5 0-2.3.5-2.3 1.6v6.7h-3.4v-6.1c0-3 1.9-4.5 5.8-4.5 3.8 0 5.7 1.5 5.7 4.5v6.1h-1.8z"/></svg>