<svg xmlns="http://www.w3.org/2000/svg" viewBox="0 0 71.9 80"><path d="M49.3 36.5c-.3-.4.1-1.2.1-1.2l-1.3-.3c.2.4-.4 1.3-.4 1.3.5.9 1.4.5 1.6.2zM48.2 41.1h-.5v.2c0 .2 0 .5-.1.6h-.1v.3h.1V42h.6v.2h.1v-.3h-.1v-.8zm-.1.7h-.4c.1-.1.1-.3.1-.5v-.1h.3v.6zM46.4 41.9h.1v-.7h.4v.7h.2v-.8h-.7M49 41.1l-.3.8h.1l.1-.3h.3l.1.3h.1l-.3-.8H49zm-.1.4l.1-.4.1.4h-.2zM49.9 41.1h-.3v.8h.1v-.3h.2c.2 0 .3-.1.3-.2 0-.3-.1-.3-.3-.3zm0 .4h-.2v-.3h.2c.1 0 .2 0 .2.2 0 0-.1.1-.2.1zM47.93 35.088l.1.024-.072.29-.097-.022zM53.4 36.5c.2.3 1.1.7 1.6-.2 0 0-.6-.9-.4-1.3l-1.3.3s.4.8.1 1.2z"/><path d="M54.714 35.104l.07.292-.098.023-.07-.293zM49.3 35.7l1.5.3-.8.2.1.3 1.2-.3 1.3.3.1-.3-.8-.2 1.5-.3-.1-.3-2 .5-2-.5M47.2 41.1h.1v.8h-.1zM53.1 41.1l-.3.8h.1l.1-.3h.3l.1.3h.1l-.3-.8h-.1zm-.1.4l.1-.4.1.4H53zM55.8 41.8l-.3-.7h-.1v.8h.1v-.7l.3.7h.1l.2-.7v.7h.1v-.8h-.1M54.9 41c-.2 0-.4.2-.4.4s.1.4.4.4c.3 0 .4-.2.4-.4s-.2-.4-.4-.4zm0 .8c-.2 0-.3-.1-.3-.3 0-.2.1-.3.3-.3.2 0 .3.1.3.3s-.2.3-.3.3zM53.8 41.6c0 .2 0 .2-.1.2h-.1v.1h.1c.1 0 .2-.1.2-.3v-.5h.3v.7h.1V41h-.5v.6zM51.3 41.5h.5v-.1h-.5v-.2h.5v-.1h-.6v.8h.6v-.1h-.5M50.7 41.8c-.2 0-.3-.1-.3-.3 0-.2.1-.3.3-.3.1 0 .2.1.2.2h.1c0-.2-.2-.3-.3-.3-.3 0-.4.2-.4.4s.2.4.4.3c.2.1.3 0 .3-.2-.1.1-.1.2-.3.2zM52.5 41.4h-.4v-.3H52v.8h.1v-.4h.4v.4h.2v-.8h-.2"/><path d="M51.5 49.4h-.2-.5c-.4 0-.7-.1-1-.2-.9-.3-1.7-.8-2.3-1.4-.6-.6-1.1-1.4-1.5-2.3l-7.7-2.1v-.5h.1s4.3 1.3 7.4 2.2c-.7-1.7-1.1-3.8-1.3-6.3h-.2l-.3-.4.1-.1.1-.1v-.1c0-.1.1-.1.1-.2v-.1l.1.1c-.1-2.7.1-4.9.1-5v-.1h14v.1s.2 2.3.1 5.2v.2l.1.1.1.1-.1.1-.2.1h-.1c-.2 2.5-.6 4.6-1.3 6.3 3.1-.9 7.3-2.1 7.3-2.1h.1v.5L57 45.5c-1.2 2.6-3.1 3.9-5.5 3.9zm-.2-.1h.2c2.4 0 4.2-1.3 5.4-3.8l7.6-2.1V43c-.6.2-4.5 1.3-7.4 2.1H57l.1-.1c.7-1.7 1.2-3.8 1.3-6.4v-.1h.2l.1-.1v-.1s0-.1-.1-.1c0 0 0-.1-.1-.1.1-2.6-.1-4.7-.1-5.1H44.6c0 .4-.2 2.5-.1 5v.1l-.2-.1s0 .1-.1.1l-.1.1v.1l.1.1h.1l.1-.1v.2c.2 2.6.6 4.8 1.3 6.5l.1.1h-.1c-2.9-.8-6.8-2-7.5-2.2v.3l7.7 2.1c.4.9.9 1.7 1.5 2.3.7.7 1.4 1.2 2.3 1.4.3.1.7.2 1 .2.3.1.4.1.6.1-.1 0 0 0 0 0z"/><path d="M64.4 48.2c-.8 0-1.4-.8-1.6-1.1-.5 1.2-1.6 1-1.6 1s-.4-1 0-1.6c.2-.4.2-.7.2-.9v-.4c.1-.4-.1-.6-.1-.6l-.3-.3h.1l3.3-.9v.1l-.1.1c0 .1-.1.3.2.9.4.8.2 1.2.1 1.7 0 .1-.1.2-.1.4-.1.6.2 1.4.2 1.4v.1h-.1c.1 0-.1.1-.2.1zm-1.7-1.4l.1.1s.7 1.2 1.6 1.2c.1 0 .2 0 .3-.1-.1-.2-.3-.9-.2-1.5 0-.1.1-.3.1-.4.1-.4.2-.8-.1-1.6-.2-.5-.3-.8-.2-1l-3.1.9c.1.1.2.3.1.7v.4c0 .3.1.5-.2 1-.3.5-.1 1.3 0 1.5.2 0 1.1 0 1.5-1.1l.1-.1zM46.8 32.6c-.2 0-.4-.1-.5-.3h-.1v-.1c-.3-.7-.8-1.9-1-1.9H45c-.3 0-.5-.1-.6-.3-.1.1-.3.2-.5.2-.1 0-.3 0-.4-.1-.4-.1-.5-.4-.5-.8s.2-.8.6-1c0-.2.1-.4.3-.6.2-.2.4-.3.7-.4 0 0 .1-.1.2-.1.3-.2.7-.3 1.1-.3.5 0 .9.1 1.1.4.1 0 .2.1.3.1.3.1.7.2.9.6.2.2.2.6.1 1-.1.3-.2.5-.3.6-.2.1-.3.1-.5.1H47c-.1 0-.3 0-.4.4v.6c.1 0 .2 0 .4.1.1-.2.2-.5.6-.7h.1v.1c.2.4.2.7.1.9h2.8V31c.1-.7.3-1.7-.1-2.3-.1-.7-.3-.7-.4-.7-.1 0-.2.1-.4.1-.2.1-.4.2-.7.2h-.3c-.2-.1-.4-.3-.6-.6-.2-.4-.3-.9-.2-1.2.2-.5.6-.8.9-1 .1-.1.3-.2.4-.3.4-.7 1.3-1 2.1-1 .2 0 .5 0 .7.1.1 0 .2.1.2.1h.2c.7 0 1.3.6 1.4 1 .5.1.9.5 1.1 1.1.1.4.1.9-.2 1.2l.6-.3c.1 0 .2-.1.3-.1.3-.2.7-.4 1.1-.4.4 0 .8.1 1.1.3.1 0 .1.1.2.1.2 0 .5.1.7.4.2.2.3.5.3.6.4.2.6.6.6 1s-.2.7-.4.9c-.1.1-.2.1-.4.1s-.4-.1-.5-.2c-.2.2-.5.3-.9.3-.2 0-.7 1.2-1 1.9v.1h-.1l-.1.3H53.1c-.7 0-3.1-.1-3.7-.1h-1.2c-.7 0-1.2 0-1.3.1.1-.1 0-.1-.1-.1zm-.5-.5c0 .1 0 .1 0 0h.1c.2.3.4.3.7.2.2-.1.9-.1 1.4-.1h1.2c.6 0 3 .1 3.7.1h2.9l.1-.3c.5-1.2.8-1.9 1.1-1.9h.2c.3 0 .5-.1.6-.3v-.1l.1.1c.1.1.3.2.5.2.1 0 .2 0 .3-.1.2-.1.4-.4.4-.8 0-.2 0-.3-.1-.5l-.1-.1c-.1-.1-.3-.2-.4-.2-.2 0-.4.1-.5.4l-.1.2v-.2c-.4-.4-.9-.7-1.4-.7-.6 0-1.1.4-1.2 1.1h-.1c.1-.9.7-1.3 1.3-1.3.2 0 .3 0 .5.1 0-.1.1-.3.1-.4.1-.1.2-.2.4-.2 0 0-.1 0-.1-.1-.9-.2-1.5-.2-1.8.1-.1.1-.1.2 0 .4v.1H56c-.6 0-1 .1-1.2.2-.1.1-.2.3-.2.4 0 .2.1.5.3.7.2.1.4.2.6.2h.5c.1.2.2.3.4.5 0 .3 0 .6-.1 1v.1h-.2v-.1c0-.1 0-.1.1-.2h-.1c-.1 0-.2 0-.5.1l-.1.1v-.1s-.1-.4-.5-.7c-.2.3-.1.7-.1.8v.1h-3v-.1c.2-1.6.4-2.5.7-2.6.5 0 .9-.3 1-.6v-.1l.1.1c.1.1.2.1.4.1s.5-.1.6-.2c.3-.3.3-.7.2-1.1l-.3-.6-.2-.1c-.1-.1-.3-.1-.4-.1-.4 0-.7.3-.7.7v.2l-.3-.2c-.4-.4-1-.6-1.5-.6s-.9.2-1.2.5c-.3.3-.5.8-.5 1.4h-.1c-.1-.6 0-1.1.4-1.5.4-.4.9-.6 1.5-.6-.1-.2 0-.4.1-.6.1-.2.2-.3.4-.3-.1 0-.1-.1-.2-.1-1.3 0-2 .4-2.2.7-.1.2-.1.4 0 .6v.1h-.1c-.9.2-1.3.4-1.5.7-.1.2-.2.4-.1.6.1.3.3.6.7.8.2.1.5.1.9 0 .1 0 .1 0 .2-.1.1 0 .2-.1.3-.1.1.2.3.4.6.6.2.6.3 1.6.1 2.5v.1h-3.4v-.1c0-.1.1-.5-.1-.8-.4.2-.5.7-.5.7v.1l-.1-.1c-.2-.1-.3-.1-.4-.1h-.1v.4H46V31c-.1-.4-.1-.7-.1-1 .2-.2.3-.4.4-.5h.4c.3 0 .5-.1.6-.2.2-.2.3-.4.3-.7 0-.2-.1-.3-.2-.4-.2-.2-.5-.2-1.2-.2h-.1v-.1-.4c-.2-.3-.9-.4-1.8-.1 0 0-.1 0-.1.1.2 0 .3.1.4.2.1.1.1.2.1.4.2-.1.3-.1.5-.1.6 0 1.2.4 1.3 1.3h-.1c-.2-.7-.6-1.1-1.2-1.1-.5 0-1 .3-1.3.8v.2l-.1-.2c-.1-.2-.3-.4-.5-.4-.1 0-.3.1-.4.2l-.1.1c-.1.2-.1.3-.1.5 0 .3.1.6.4.7.1.1.2.1.3.1.2 0 .4-.1.5-.2l.1-.1v.1c.1.2.3.3.6.3h.2c.6-.1 1 .7 1.5 1.8zm4.5-1.3l.1-.1c.1-.6.2-1.4 0-2 .1.6 0 1.4-.1 2.1zm.3-1c0 .3-.1.6-.1.9v.1h.1v-1zm2.5-2c-.1.4-.5.6-1 .6-.2.1-.4 1.6-.5 2.4h2.7c0-.2-.1-.5.1-.9v-.1h.1c.4.2.5.5.6.7.1-.1.3-.1.4-.1h.1c.1-.3.1-.5 0-.7-.1-.4-.2-.4-.4-.4h-.5c-.2 0-.3 0-.5-.1s-.3-.3-.3-.6c-.1-.4 0-.7.1-1l.1-.1c-.3.4-.7.4-1 .3zm-5.4 1c-.1.2-.2.3-.3.4l-.1.1h.1c.1-.2.2-.3.3-.5zm6.4 0c.1.2.2.4.3.5h.1l-.1-.1c-.2-.1-.3-.3-.3-.4zm-10.8-.5c.2 0 .4.1.5.2l.1.1c.2-.3.4-.5.7-.7-.1-.2-.3-.5-.6-.5H44.2c-.1.1-.2.1-.2.2-.2.2-.3.4-.3.6 0 .1.1.1.1.1zm13.8-.4c.3.1.5.4.7.7l.1-.1c.2-.2.4-.3.6-.2 0-.2-.1-.4-.3-.6 0-.1-.1-.1-.2-.2H58.2c-.3-.1-.5.2-.6.4zm-6.7.5c0 .1.1.1.1.1-.1 0-.1 0-.1-.1zm-3.3-.7c.2 0 .3.1.4.2l.2.2c0-.1 0-.1-.1-.1-.1-.2-.3-.2-.5-.3zm7.6 0c-.2 0-.4.1-.5.2l-.1.1c0-.1.1-.1.2-.2 0 0 .2 0 .4-.1zm-5.5-2.1c-.2.2-.4.2-.6.3-.4.1-.8.2-.9.6-.1.3 0 .6.1 1 .1.3.4.5.6.6h.3c-.1 0-.2 0-.3-.1-.4-.2-.6-.5-.7-.8-.1-.3 0-.5.1-.7.1-.4.6-.6 1.4-.9zm-2.9 2.1h.1s-.1-.1-.1 0c0-.1 0-.1 0 0zm9.1-.1h-.1.1zm-9-.1c.1 0 .3.1.4.1h.4c-.2-.1-.3-.1-.5-.2-.1 0-.3-.1-.4-.1.1 0 .1.1.1.2zm9-.3c0 .1-.1.1 0 0-.1.1-.3.1-.4.2-.2.1-.3.1-.5.2h.4c.2 0 .3 0 .4-.1 0-.1 0-.2.1-.3zm-9.4-.1c.1 0 .1.1.1.1s.1.1.1.2v-.2s-.1 0-.2-.1zm9.7 0c-.1 0-.1.1-.2.1 0 0-.1.1 0 .2 0-.1 0-.1.1-.2 0 0 0-.1.1-.1zm-4.4-1.6c.4.1.8.3 1.2.6 0-.1.1-.2.1-.3.2-.2.4-.4.6-.4-.1-.3-.4-.7-.9-.8h-.2c-.2 0-.4.1-.6.2-.1.2-.2.5-.2.7zm-2.3-.4l-.1.1c-.1.1-.3.2-.4.3-.2.2-.5.3-.7.5.2-.1.4-.2.7-.3.2-.1.4-.1.5-.2-.1-.1-.1-.3 0-.4zm1.6.5c-.2 0-.4.1-.5.2.2-.1.3-.2.5-.2zm-1.1-.9c-.2.1-.3.2-.4.4-.1.1-.1.3 0 .4 0-.1 0-.3.1-.4.1-.2.2-.3.3-.4zm2.2-.1l-.3.3c-.1.1-.1.2-.1.3.1-.2.1-.4.3-.5 0 0 0-.1.1-.1zM60.2 36.3v.1h0l-.1.1v.1l.1.1-.1.1v-.1.1s0 .1-.1.1h.1l.1.1v.1h-.1l-.1.1v-.1s0 .1-.1.1l.1.1v.1h.1v-.1h.1l.1.1s.1 0 .1.1h.1v.1h.1c.9-.5 1.6-.7 1.6-.7h-.6-.1l.3-.3c.3-.3.6-.5.6-.5s-.1-.1-.4-.1c.1-.2.3-.3.4-.5.1-.2.3-.4.3-.4s-1.4.4-2.4 1.1c0 0-.1 0-.1.1zm.1.2s.1 0 0 0c.1 0 .1 0 0 0h.1l.1.1c-.1 0-.1.1-.1.1l-.1-.1v-.1zm.2.2h.1l.1.1v.2h-.1l-.1-.1v-.2zm.1-.3h.1l.1.1v.1h-.1l-.1-.1c-.1 0-.1-.1 0-.1zm.9-.2s-.1 0 0 0l-.1-.1V36h.1v.2c.1 0 .1 0 0 0zm.1.1v.1h-.1s0-.1.1-.1c-.1 0 0 0 0 0zm-.2 0s0 .1 0 0l-.1.1v-.1-.1h.1c-.1 0-.1 0 0 .1zm0 .3s-.1 0 0 0h-.1v-.1h.1v.1zm-.2 0s-.1 0 0 0c-.1 0-.1 0 0 0h-.1l-.1-.1v-.1h.1l.1.1c.1 0 0 0 0 .1zm-.4.3c.1 0 .1-.1 0 0 .1-.1.1-.1.2-.1l.1.1v.1H61c-.1 0-.1 0-.2-.1zm0 .2h-.1l-.1-.1h.1v.1h.1zm.3-.4c0-.1 0-.1 0 0 .1-.1.1-.1.2-.1v.1c-.1.1-.1.1-.2 0 0 .1 0 .1 0 0zm-.1 0c-.1 0-.1.1 0 0h-.1l-.1-.1v-.1h.1l.1.1v.1zm-.8.3v-.2h.1l.1.1v.2h-.1l-.1-.1zm.2.5h-.1l-.1-.1.1-.1.1.1c.1 0 .1.1 0 .1zm.1-.2v-.1l.1-.1.1.1v.1h-.2zm.2.2h-.2v-.1h.1c.1 0 .1.1.1.1zm.2-.1h-.2v-.1h.1c.1 0 .1 0 .1.1zm.2-.2h-.2v-.1h.1c.1 0 .1.1.1.1zm.2-.2c-.1 0-.1 0 0 0h-.1v-.1h.1v.1zm.1-.2h-.1v-.1h.1c.1 0 .1.1 0 .1zm.2-.2h-.1v-.1h.1c.1 0 0 .1 0 .1zm.1-.3c0 .1 0 .1 0 0 0 .1 0 .1 0 0l-.1-.1h.1v.1c.1 0 .1 0 0 0zm.1-.2v.1h-.1c0-.1.1-.1.1-.1zm-.1-.2c.1 0 .1 0 0 0 .1 0 .1 0 0 0l.1.1-.1-.1zm0 .1s0 .1 0 0c0 .1 0 .1-.1.1l.1-.1h-.1c0-.1 0-.1.1 0-.1-.1-.1-.1 0 0-.1 0-.1 0 0 0zm-.2-.2h.1c0 .1 0 .1-.1 0 .1.1 0 .1 0 0 0 .1 0 .1 0 0 0 .1 0 .1 0 0zm-.2.1h.1v.1l-.1-.1c.1 0 .1 0 0 0zm0 .1h.1v.1h-.1V36c-.1.1-.1 0 0 0zm-.2 0h.1l-.1.1V36zm0 .1l.1.1v.1h-.1v-.1c-.1 0-.1-.1 0-.1-.1 0-.1 0 0 0-.1 0 0 0 0 0zm-.2-.1h.1s0 .1-.1 0c.1.1 0 .1 0 .1h-.1l.1-.1zm0 .2l.1.1v.1h-.1-.1l-.1-.1.2-.1c-.1 0-.1 0 0 0-.1 0-.1 0 0 0zm-.3 0h0c.1.1 0 .1 0 .1h-.1c.1 0 .1-.1.1-.1zm-.2.1h.1l-.1.1h-.1s0-.1.1-.1zM59.7 37.4s.1 0 0 0zM59.6 37.5l-.1.1-.8.8h.1c.2.1.6 0 1.1-.4.2-.2.4-.3.6-.3h.1c-.1 0-.1-.1-.2-.1-.2-.1-.5-.1-.8-.1zM60 36.2c0-.2-.1-.3-.1-.3s.1.3-.2.7c.1-.1.2-.3.3-.4z"/><path d="M58.6 38.3c.1 0 .3-.3.8-.7.8-.7.8-1.3.6-1.6 0 .2-.1.6-.7 1-.9.6-.9 1-.7 1.3zM38.4 48.1c-.2 0-.3 0-.5-.1h-.1v-.1s.3-.8.2-1.4c0-.1-.1-.3-.1-.4-.1-.4-.2-.9.1-1.7.3-.6.2-.8.2-.9 0-.1-.1-.1-.1-.1v-.1l3.4 1-.1.1s-.2.2-.1.6v.4c0 .3-.1.5.2.9.4.7 0 1.6 0 1.6s-1.1.2-1.6-1c0 .3-.7 1.2-1.5 1.2zm-.3-.2c.1 0 .2.1.3.1.9 0 1.6-1.2 1.6-1.2l.1-.1v.1c.4 1 1.1 1.1 1.4 1.1h.1c.1-.2.3-1 0-1.5-.2-.5-.2-.7-.2-1V45c0-.3.1-.6.1-.7l-3.1-.9c.1.2 0 .6-.2 1-.3.8-.2 1.1-.1 1.6 0 .1.1.3.1.4.2.6 0 1.3-.1 1.5zM59.2 34c-.2.3-.1.7.1 1 0 0 .1.1 0 .2v.1l-.3.8v.1h.1l.6-.8s.1-.1.2-.1c.4.1.7 0 .9-.3.2-.3.1-.6 0-.9l.2-.3c.1-.2.3-.3.3-.3l.1-.1-.2-.1-.1.1-.3.3-.2.3-.1-.1.6-1.1-.2-.1-.6 1 .5-.8-.2-.1-.5.8H60l.4-.6-.2-.1-.2.7c-.4 0-.6.1-.8.4zM42 33.6l-.3-.3-.1-.1-.2.1.1.1.3.3.2.3c-.2.3-.2.6 0 .9.2.3.6.4.9.3.1 0 .2 0 .2.1l.6.8h.1V36l-.4-.9V35v-.2c.2-.3.3-.7.1-1-.2-.3-.4-.4-.8-.4l-.4-.7-.2.1.4.6h-.1l-.5-.8-.2.1.5.8-.6-1-.2.1.6 1.1-.1.1.1-.2zM59.7 46h0c-.2.2-.7.5-1 .7-.2.1-.3.2-.4 0 0 .1.1.1.1.2s0 .1.1.2l.1.1V47c.1-.1.2-.2.4-.3.3-.2.5-.3.7-.7.1 0 0 0 0 0-.1.2-.2.2-.4.3-.2.1-.6.4-.9.5-.3.1.4-.3.8-.6.3 0 .4-.1.5-.2-.1 0-.1 0 0 0-.1 0-.1 0 0 0z"/><path d="M58.5 47.1s0-.1-.1-.2-.1-.1-.1-.2h-.2c-.3.1-.5.4-.9.7-.4.4-1 .8-1.6 1-.4.1-.8.2-1.1.3-.3.2.1.1.2.2.7.1.9.1 1.2.1.5-.1 1.2-.4 2-.9.3-.2.7-.5.7-.7v-.1c0-.1-.1-.2-.1-.2zm-2.1 1.1c-.8.4-1.6.4-1.9.6.2-.3 1-.1 1.9-.7.9-.6 1.6-1.5 1.9-1.2-.4-.1-.9.7-1.9 1.3zM44.3 46.8c-.3-.1-.7-.4-.9-.5-.2-.1-.2-.1-.4-.3h-.1c.2.4.5.5.8.7.1.1.3.2.4.3.1.1 0 .2 0 .2 0-.1.1-.1.1-.1.1-.2.1-.2.1-.3.1-.1.2-.1.2-.2-.2.1-.2.1-.4 0-.3-.2-.7-.4-.9-.7H43h.1c.1.1.1.2.3.3.5.3 1.2.7.9.6z"/><path d="M44.9 47.9c.9.6 1.5.9 2 .9.4.1.5 0 1.2-.1.1 0 .5 0 .2-.2s-.7-.2-1.1-.3c-.6-.2-1.1-.6-1.6-1-.4-.3-.6-.6-.9-.7h-.2c0 .1-.1.1-.1.2s0 .1-.1.2l-.2.2v.1c.1.2.5.5.8.7zm1.5 0c.9.6 1.7.4 1.9.7-.3-.2-1.2-.2-1.9-.6-1-.6-1.5-1.4-1.9-1.3.3-.3 1 .6 1.9 1.2z"/><g><path d="M59.9 54.2c-.3-.2-.7-.2-.9-.1 0-.1.1-.2.1-.2l-.2.1c0-.2.1-.4.1-.4-.1.1-.2.1-.2.1-.1-.3.1-.5.1-.5-.1 0-.2.1-.3.2v.1c0 .1 0 .3-.1.4.1.1.2.2.2.3 0 .2 0 .3-.1.4.1.1.2.2.2.3v.1c.1.1.3.1.4.1 0 0-.3-.1-.3-.5h.2l-.2-.4h.2l-.2-.2c.2 0 .5 0 .8.1.1.2.2.2.2.1z"/><path d="M58.6 54.6c.1-.1.2-.3.2-.4 0-.2-.1-.3-.3-.3.1-.1.2-.2.1-.4 0-.2-.3-.4-.5-.4-.1 0-.1 0-.2.1-.1-.1-.3-.2-.4-.2-.2 0-.3.2-.4.4H57c-.2 0-.4.2-.4.4h-.1c-.2 0-.3.2-.4.4-.2.1-.4.3-.3.5 0 .2.2.4.5.4.1.2.3.3.5.3h.1c.1.2.3.3.5.3h.1c.1.2.3.3.5.2.2 0 .3-.2.3-.3h.2c.2 0 .4-.3.4-.5-.1-.4-.2-.5-.3-.5zm-2.2 0c-.1 0-.1 0-.1-.1s0-.1.1-.2c.1 0 .1 0 .1.1.1.1 0 .2-.1.2zm.3-.5c-.1 0-.1 0-.2-.1 0-.1 0-.1.1-.2.1 0 .1 0 .2.1.1.2 0 .2-.1.2zm.3-.5c0-.1 0-.1.1-.1s.1 0 .1.1 0 .1-.1.2c0-.1 0-.1-.1-.2zm.3.7c-.1 0-.1 0-.2-.1 0-.1 0-.1.1-.1s.1 0 .2.1c0 .1 0 .1-.1.1zm.3-1c0-.1 0-.1.1-.1s.1 0 .2.1c0 .1 0 .1-.1.1s-.2 0-.2-.1zm.1.6c0-.1 0-.1.1-.1s.1 0 .2.1c0 .1 0 .1-.1.1s-.2 0-.2-.1zm.3.8c-.1 0-.1 0-.2-.1 0-.1 0-.1.1-.2.1 0 .1 0 .2.1 0 .1-.1.2-.1.2zm.2-1.4c0-.1 0-.1.1-.1s.1 0 .2.1c0 .1 0 .1-.1.1-.1.1-.2 0-.2-.1zm.3.9c-.1 0-.1 0-.1-.1s0-.1.1-.1.1 0 .1.1c0 0 0 .1-.1.1zM44 54.4c-.1-.1-.1-.3-.1-.4 0-.1.1-.3.2-.3-.1-.1-.1-.2-.1-.4v-.1c0-.1-.1-.2-.2-.2 0 0 .3.2.1.5 0 0-.1-.1-.2-.1 0 0 .1.2.1.4l-.2-.1s.1.1.1.2c-.2 0-.6 0-.9.1v.1h.1c.2-.1.6-.1.8-.1l-.2.2h.2l-.2.4h.2c0 .3-.3.5-.3.5.1 0 .2 0 .4-.1v-.1c.1-.3.1-.4.2-.5z"/><path d="M46.5 54c0-.2-.2-.4-.4-.4H46c0-.2-.2-.4-.4-.4h-.1c0-.2-.2-.3-.4-.4-.2 0-.3 0-.4.2 0 0-.1-.1-.2-.1-.2 0-.5.1-.5.4 0 .2 0 .3.1.4l-.3.3c0 .2 0 .3.2.4l-.3.3c0 .2.1.5.4.5h.2c0 .2.2.3.3.3.2 0 .4-.1.5-.2h.1c.2 0 .4-.1.5-.3h.1c.2 0 .4-.1.5-.3.2 0 .4-.1.5-.4.1 0-.1-.2-.3-.3zm-2.1 0c0 .1-.1.1-.1.1-.1 0-.1-.1-.1-.2s.1-.1.2-.1c0 .1.1.1 0 .2zm.2-.8c0 .1-.1.1-.1.1-.1 0-.1-.1-.1-.2s.1-.1.1-.1c0 .1.1.2.1.2zm.4 1.3c0 .1-.1.1-.1.1-.1 0-.1-.1-.1-.2s.1-.1.2-.1c-.1 0 0 .1 0 .2zm.1-.7c0 .1-.1.1-.2.1s-.1-.1-.1-.2.1-.1.2-.1.1.1.1.2zm.1-.6c0 .1-.1.1-.1.1-.1 0-.1-.1-.1-.2s.1-.1.2-.1v.2zm.4.9c0 .1-.1.1-.1.1-.1 0-.1-.1-.1-.2s.1-.1.2-.1v.2zm.1-.6c0 .1-.1.1-.1.1-.1 0-.1-.1-.1-.1 0-.1.1-.1.2-.1 0 0 .1 0 0 .1zm.5.4c0 .1-.1.1-.2.1s-.1-.1-.1-.2.1-.1.2-.1c.1.1.1.2.1.2zm.3.5c0 .1-.1.1-.1.1-.1 0-.1-.1-.1-.1 0-.1.1-.1.1-.1.1-.1.1 0 .1.1z"/></g><g><path d="M40.8 35.9h-.4s.3.2.6.5l.3.3h-.7s.8.3 1.6.7h.1v-.1h.1s.1 0 .1-.1l.1-.1h.1v.1h.1v-.1l.1-.1-.1-.1v.1l-.1.1h-.1c-.1 0-.1-.1 0-.1l.1-.1h.1l-.1-.1v-.1.1s0-.1-.1-.1l.1-.1v-.1s0-.1-.1-.1h-.1.1v-.1l-.1-.1c-1-.7-2.4-1.1-2.4-1.1s.1.2.3.4c.1.1.2.3.4.4zm.3.4c0-.1-.1-.1 0 0-.1-.1-.1-.1-.1-.2V36h.1v.3zm.1.2c-.1 0-.1-.1 0-.2h.1c0 .1 0 .2-.1.2.1 0 0 0 0 0zm.9.1c0-.1 0-.1 0 0 0-.1 0-.1 0 0h.2c.1 0 .1.1 0 .2l-.1.1h-.1c-.1 0-.1-.1 0-.2v-.1zm0-.2l.1-.1h.1v.1l-.1.1s-.1 0-.1-.1c0 .1 0 .1 0 0zm-.4.4c.1-.1.2 0 .2-.1v.1l-.1.1h-.1v-.1zm0-.1h-.1s-.1-.1 0-.1h.1v.1zm.3.2h.2l-.1.1H42c-.1 0-.1-.1 0-.1zm0-.4c0 .1-.1.1 0 0l-.1.1h-.1s-.1-.1 0-.1l.1-.1h.1v.1zm-.2-.1l-.1.1h-.1s-.1-.1 0-.1l.1-.1h.1v.1zm-.3-.2c0 .1 0 .1 0 0 0 .1 0 .1 0 0l-.1.1v-.1h.1l-.1-.1h.1c.1 0 .1.1 0 .1zm0 .3h-.1s-.1-.1 0-.1h.1v.1zm-.1-.4c-.1 0-.1 0 0 0-.1 0-.1 0 0 0l-.1.1s-.1-.1 0-.1V36c0-.1 0-.1.1.1 0-.1 0-.1 0 0zm-.1.1s0 .1 0 0c0 .1 0 .1 0 0h-.1.1c-.1 0-.1 0 0 0-.1 0 0 0 0 0zm.1.5c-.1-.1-.1-.1-.1-.2h.1v.1c.1.1.1.1 0 .1zm.2.2c-.1-.1-.1-.1-.1-.2h.1c.1.1.1.2 0 .2.1 0 .1 0 0 0zm.1.2c-.1 0-.1-.1 0-.2h.1v.1c.1.1 0 .1-.1.1zm.2.2c-.1 0-.1-.1 0-.2h.1v.1c0 .1 0 .1-.1.1zm.4.1c0 .1-.1.1-.2 0-.1 0-.1-.1 0-.2h.1c.1.1.1.2.1.2zm0-.2h-.1s-.1-.1 0-.1l.1-.1s0 .1.1.1c-.1 0-.1 0-.1.1zm.3 0l-.1.1h-.1s-.1-.1 0-.1l.1-.1c0 .1 0 .1.1.1zm-.1-.5c.1 0 .1.1 0 .2v.1h-.1c-.1 0-.1-.1 0-.2l.1-.1c-.1 0 0 0 0 0zm0-.3v.1l-.1.1c0-.1 0-.1-.1-.1l.1-.1h.1c-.1 0-.1 0 0 0-.1 0-.1 0 0 0zm-.3-.2h.2c.1 0 .1.1 0 .2h-.1c0-.1 0-.1-.1-.2.1 0 0 0 0 0zm-.2-.1h.2l.1.1h-.1c-.1 0-.1-.1-.2-.1zm0 0v.2h-.1-.1v-.1l.1-.1h.1c-.1 0 0 0 0 0zm-.1-.2l.1.1h-.1v-.1h-.1.1zm-.1.1c.1 0 .1.1.1.1v.1h-.1V36c-.1 0-.1 0 0 0-.1 0-.1 0 0 0zm-.1-.2c0 .1 0 .1 0 0v.1s0-.1-.1-.1h.1zm-.2.1c.1 0 .1.1 0 0v.1h-.1v-.1h.1zm-.2-.1h0c.1.1 0 .1 0 0 0 .1 0 0 0 0zm-.1-.1h.1v.1c-.1 0-.1 0-.1-.1 0 .1 0 .1 0 0zm-.1.2c0-.1 0-.1 0 0 .1-.1.1-.1 0 0 .1-.1.1-.1 0 0h0v0zm-.1-.1c0-.1.1-.1 0 0h0c0 .1 0 .1 0 0 0 .1 0 .1 0 0 0 .1 0 0 0 0zm0 .2c0-.1 0-.1 0 0 .1 0 .1.1.1.1H41c-.1-.1-.1-.1 0-.1zM43.1 37.3c-.1 0 0 0 0 0zM42.2 37.7c.2 0 .4.1.7.3.5.4.9.5 1.1.4h.1c-.1-.1-.2-.3-.8-.8l-.1-.1h-.1c-.3 0-.5 0-.7.1-.1 0-.2 0-.2.1zM42.8 36.1c.1.1.1.3.3.5-.3-.4-.2-.7-.2-.7l-.1.2z"/><path d="M43.4 37.5c.5.4.7.7.8.8v-.1c.2-.3.2-.6-.8-1.3-.6-.4-.7-.8-.7-1-.1.2-.2.9.7 1.6z"/></g><g><path d="M48.5 56.6c-.6 0-.8-.3-.9-.5-.1-.3.1-.6.2-.7.8-.4 1.6-.9 2.4-1.4-.2-.1-.3-.2-.5-.4-.4.4-.9.5-1.4.5-1 0-1.9-.8-2-1.8l-4.3-.1c-.6 0-1.3-1-1.4-1.2H40l-1.6-.1s-.1.1-.2.1H38c-.1 0-.3-.1-.3-.2v-.7c0-.1.1-.2.3-.2h.2c.1 0 .1 0 .2.1l1.6.1h.6c.1-.2.9-1.1 1.5-1.1l6.7.2c.3 0 .5.3.6.8.2 0 .3.1.5.4.2 0 .3.1.3.3 0 .2-.2.2-.2.2h-.1c.3.3.4.7.4 1.2l1 1 .9-.9c0-.4.2-.8.4-1.2h-.1s-.2 0-.2-.2.1-.3.3-.3c.1-.3.3-.4.5-.4.1-.5.3-.8.6-.8l6.7-.2c.6 0 1.4.9 1.5 1.1h.6l1.6-.1s.1-.1.2-.1h.2c.2 0 .3.1.3.2v.7c0 .1-.1.2-.3.2h-.2c-.1 0-.1 0-.2-.1h-1.9c-.1.2-.8 1.2-1.4 1.2l-4.3.1c-.1 1-1 1.8-2 1.8-.5 0-1-.2-1.4-.5l-.3.3c.7.5 1.5 1 2.2 1.3.2.1.3.4.2.7 0 .2-.3.6-1 .5-.4 0-1.2-.6-2.6-1.6-1.5 1.1-2.4 1.7-2.8 1.7-.2.1-.2.1-.3.1zm1.3-3.2c.2.2.4.3.6.5l.1.1h-.1c-.8.6-1.6 1.1-2.4 1.5-.1.1-.2.3-.2.5.1.3.3.4.7.4h.2c.3 0 .9-.3 2.8-1.7 1.7 1.3 2.4 1.6 2.6 1.6h.2c.4 0 .7-.1.7-.4.1-.2-.1-.5-.2-.5-.8-.4-1.5-.8-2.3-1.4l-.1-.1.1-.1c.1-.1.3-.2.4-.3.4.4.8.6 1.3.6 1 0 1.8-.8 1.9-1.8v-.1l4.4-.1c.6 0 1.4-1.2 1.4-1.2h.8l1.6-.1H64.6c.1 0 .1 0 .1-.1V50c0-.1-.1-.1-.1-.1h-.2s-.1 0-.1.1l-1.6.1h-.8S61 49 60.5 49l-6.7.2c-.2 0-.4.3-.5.7-.1 0-.3.1-.4.4v.1h-.1-.1c-.1 0-.1 0-.1.2 0 .1 0 .1.1.1h.1l.1-.1v.2c-.3.3-.4.7-.4 1.1-.3.3-.6.6-1 .9-.4-.3-.8-.7-1.1-1 0-.4-.2-.8-.4-1.1v-.2l.1.1h.1s.1 0 .1-.1 0-.2-.1-.2H50v-.1c-.1-.3-.3-.4-.4-.4-.1-.4-.3-.7-.5-.7l-6.9-.1c-.6 0-1.4 1.1-1.4 1.1H40l-1.6-.1s-.1 0-.1-.1h-.2c-.1 0-.1 0-.1.1v.7c0 .1.1.1.1.1H38.4l1.6.1h.8s.8 1.1 1.4 1.2l4.4.1v.1c.1 1 .9 1.8 1.9 1.8.4-.1.9-.3 1.3-.7zm4.6.7c-.5 0-1-.2-1.3-.5-.4-.4-.6-.8-.6-1.4v-.3c0-.3.1-.6.3-.8.1-.2.2-.3.4-.4.2-.2.4-.3.7-.3.2 0 .3-.1.5-.1 1 0 1.9.8 1.9 1.9v.2c-.1.9-.9 1.7-1.9 1.7zm0-3.7c-.1 0-.3 0-.4.1l-.6.3c-.2.1-.3.2-.4.4-.2.2-.3.5-.3.8v.2c0 .5.2.9.5 1.3.3.3.8.5 1.2.5.9 0 1.7-.7 1.7-1.6v-.1c.1-1.1-.7-1.9-1.7-1.9zm-6 3.5c-1 0-1.8-.8-1.9-1.7V52c0-1 .8-1.9 1.9-1.9.2 0 .3 0 .5.1s.5.2.7.3c.2.1.3.3.4.4.2.2.3.5.3.8v.3c0 .5-.2 1-.6 1.4-.4.4-.8.5-1.3.5zm0-3.6c-1 0-1.7.8-1.7 1.7v.1c.1.9.8 1.6 1.7 1.6.5 0 .9-.2 1.2-.5.3-.3.5-.8.5-1.3v-.2c0-.3-.1-.5-.3-.8-.1-.2-.2-.3-.4-.4l-.6-.3c-.1.1-.3.1-.4.1z"/><path d="M54.2 51.9s-.1 0-.1-.1l-.6-.6c-.1-.1-.1-.1-.1-.2s.1-.2.1-.2l.6-.2h.1c.1 0 .2.1.3.2v1c-.2.1-.2.1-.3.1zm-.1-1.3l-.6.2-.1.1v.1l.6.6h.1v-1c.1.1.1 0 0 0zM54.6 51.9c-.1 0-.1-.1-.1-.2v-.9c0-.2.1-.3.3-.3l.6.2c.1.1.1.1.1.2s0 .2-.1.2l-.7.7-.1.1zm.1-1.3c-.1 0-.1.1-.1.1v1h.1l.7-.7v-.1s0-.1-.1-.1l-.6-.2zM53.2 53.2c-.1 0-.2 0-.2-.1l-.2-.6v-.2c0-.1.1-.1.2-.1h.9c.1 0 .2.1.2.1v.2l-.7.7h-.2zm-.2-.9h-.1v.1l.2.5.1.1h.1l.7-.7h-1z"/><path d="M53.9 52.1H53c-.1 0-.2 0-.2-.1s-.1-.1 0-.2l.2-.6c.1-.2.3-.2.4-.1l.6.6c.1.1.1.2.1.2 0 .2 0 .2-.2.2zm-.7-.9s-.1 0-.1.1l-.2.5v.1H54v-.1l-.8-.6c.1.1 0 0 0 0zM55.6 53.2c-.1 0-.1 0-.2-.1l-.7-.7-.1-.1v-.1s.1-.1.2-.1h.9c.1 0 .2 0 .2.1s.1.1 0 .2l-.2.6c.1.2 0 .2-.1.2zm-.8-.9c0 .1.1.1 0 0l.7.7h.1s.1 0 .1-.1l.2-.6v-.1l-.1-.1-1 .2c.1 0 0 0 0 0zM54.1 53.8l-.6-.2c-.1-.1-.1-.1-.1-.2s0-.2.1-.2l.7-.7c.1-.1.2-.1.3 0v1c0 .1 0 .1-.1.2s-.2.1-.3.1zm.1-1.2l-.7.7-.1.1s0 .1.1.1l.6.2h.1v-1.1c.1 0 0 0 0 0z"/><path d="M55.8 52.1h-.9c-.1 0-.2-.1-.2-.1s0-.1.1-.2l.7-.7c.1-.1.3-.1.4 0l.2.6v.2c-.1.2-.2.2-.3.2zm-1-.1h1.1v-.1l-.2-.5c0-.1-.1-.1-.2 0l-.7.6zM54.7 53.8c-.1 0-.3-.1-.3-.3v-.9c0-.1.1-.2.1-.2s.1 0 .1.1l.7.7c.1.1.1.1.1.2s-.1.1-.1.2l-.6.2zm-.1-1.2v1c0 .1 0 .1.1.1l.6-.2.1-.1v-.1l-.8-.7zM48.5 51.8c-.1 0-.1-.1-.1-.2v-.9c0-.1.1-.2.3-.2h.1l.6.2c.1.1.1.1.1.2s0 .2-.1.2l-.6.6c-.2 0-.2.1-.3.1zm.2-1.3c-.1 0-.1 0-.1.1v1h.1l.6-.6v-.1s0-.1-.1-.1l-.5-.3zM48.2 51.8s-.1 0-.1-.1l-.7-.7c-.1-.1-.1-.1-.1-.2s.1-.1.1-.2l.6-.2h.1c.1 0 .3.1.3.3v1c-.1 0-.1.1-.2.1zm-.1-1.3l-.6.2-.1.1v.1l.7.7h.1v-1s0-.1-.1-.1zM49.6 53.1c-.1 0-.1 0-.2-.1l-.7-.7c-.1-.1 0-.1 0-.2 0 0 .1-.1.2-.1h.9c.1 0 .2 0 .2.1s.1.1 0 .2l-.2.7c0 .1-.1.1-.2.1zm-.8-.9c0 .1 0 .1 0 0l.7.7c.1.1.2.1.2 0l.2-.5v-.1h-.1l-1-.1z"/><path d="M49.8 52h-.9c-.1 0-.2-.1-.2-.1s0-.1.1-.2l.6-.6c.1-.1.3-.1.4 0l.2.5v.2c-.1.2-.1.2-.2.2zm-1-.1h1.1v-.1l-.2-.5c0-.1-.1-.1-.2 0l-.7.6zM47.2 53.1c-.1 0-.2 0-.2-.1l-.2-.6v-.2c0-.1.1-.1.2-.1h.9c.1 0 .2 0 .2.1v.1l-.1.1-.6.6c-.1.1-.2.1-.2.1zm-.2-.9s-.1 0-.1.1v.1l.2.6c0 .1.1.1.2 0l.7-.7h-1zM48.7 53.7c-.1 0-.3-.1-.3-.3v-.9-.1c0-.1.2-.1.3 0l.7.7c.1.1.1.1.1.2s-.1.2-.1.2l-.7.2zm-.2-1.2v1c0 .1 0 .1.1.1l.6-.2.1-.1v-.1l-.8-.7c.1 0 .1 0 0 0zM47.9 52H47c-.1 0-.2 0-.2-.1s-.1-.1 0-.2l.2-.6c.1-.2.3-.2.4-.1l.7.7c.1.1.1.2.1.2-.1.1-.2.1-.3.1zm-.7-.9s-.1 0-.1.1l-.2.5v.1H48v-.1l-.8-.6z"/><path d="M48.1 53.7s-.1 0 0 0l-.6-.2c-.1-.1-.1-.1-.1-.2s0-.2.1-.2l.7-.7.1-.1c.1 0 .1.1.1.2v.9c0 .1 0 .1-.1.2s-.1.1-.2.1zm.1-1.2l-.7.7v.1s0 .1.1.1l.6.2h.1v-.1l-.1-1z"/></g><g><path d="M71.9 34.4c-.1 0-.2 0-.3.1-1 .6-2.8 1.8-5.3 3.5 0-.1-.1-.2-.1-.3 0-.1-.1-.2-.2-.1l.1-.2-.4.2.2.1c-.2.2-.1.5 0 .7-.3.2-.6.4-1 .7l-.3-.3c-.1-.1-.2-.1-.2 0v-.2l-.3.3.2.1c-.1.2 0 .4.1.6-.2.1-.4.3-.6.4-.1-.1-.2-.2-.2-.4-.1-.1-.2-.2-.3-.1v-.3l-.4.3.2.1c-.2.2-.1.5 0 .7l-.9.6c-.2-.3-.4-.6-.4-.9 0 .4.1.8.3 1.2l-3.6 2.7-.6.1v.2c0 .1.1.2.2.2h.1l.2-.3c1.2-.8 2.5-1.7 3.7-2.7.3.4.6.6 1 .8h.1v-.1c-.4-.2-.7-.5-.9-.8.3-.2.6-.5 1-.7.1.1.2.2.4.3.2.2.6.5.9.2l.1.2.3-.3h-.3c.1-.1.1-.2-.1-.3-.3-.2-.6-.4-.8-.6.3-.2.5-.4.7-.5.1.1.3.2.4.2.2.1.6.3.8 0l.1.2.2-.4h-.2c.1-.1 0-.2-.1-.2-.3-.1-.4-.1-.6-.2.3-.2.5-.4.8-.5.1.1.1.2.2.3.2.2.4.5.8.3v.2l.3-.3-.2-.1c.1-.1.1-.2 0-.2-.3-.2-.4-.4-.6-.6 2.5-1.8 4.3-3.1 5.2-3.8.3 0 .4-.1.3-.1zm-8.8 5.8c-.1-.2-.2-.4-.1-.6 0 0 0-.1.1-.1h.1c.1 0 0 .2 0 .3-.1.1-.1.2-.1.4.1-.1.1-.1 0 0 .1-.1 0 0 0 0zm1.2-.9c-.1-.1-.2-.2-.2-.4v-.1c.1 0 .1.2 0 .2.2.1.3.2.2.3.1 0 .1 0 0 0zm1.6-1.1s0 .1 0 0c0 .1-.1.1 0 0-.1-.1-.2-.3-.1-.5l.1-.1c.1 0 0 .2 0 .2-.1.2 0 .3 0 .4zM62.5 37.5s-.1.2-.2.2v.1h.2l-.5.7s-.1-.1-.2-.1-.1 0-.2.1c-.2.1-.4.4-.5.6 0 .2.1.3.1.3L59.5 41H59l-.9.9h.5v.5l.9-.9.2-.4 1.9-1.9c.1.1.1.1.1.2.1 0 .2-.1.2-.1.1 0 .2-.1.2-.1-.1-.1-.2-.3-.2-.3l.7-.7c0 .1.1.1.2.1h.1c.2 0 .3-.2.3-.4 0-.1.1-.2 0-.3l.2-.2s.1.1.2.1h.2c0-.1-.1-.3-.1-.4V37h.1s.1 0 .1-.1v-.2l.6-.6.1.1.2-.2.1-.1h-.1l.6-.6v.1c.1 0 .2-.1.2-.1.1 0 .2-.1.2-.1s-.1-.1-.1-.2l1.1-1.1.4-.1.3-.9-.8.3-.1.4-.9.9c0-.1-.1-.2-.1-.2s-.1-.1-.2-.1-.1 0-.2.1c-.2.1-.4.4-.4.6 0 .2.2.3.2.3s.1 0 .1.1l-.3.3v-.2s0-.1-.1-.2-.1-.1-.2-.1c-.2 0-.4.2-.5.3-.1.2-.2.4-.1.6.1.1.2.2.3.2l-.2.3c-.1 0-.1-.1-.3-.1-.2 0-.6.1-.7.3-.1.2 0 .3 0 .3l.2.2h.1l-.3.2h-.2l-.1.1c-.1.1-.2 0-.2 0zM61.4 39l-.1.1c0-.1 0-.1.1-.1zm.3-.3s0-.1 0 0c0-.1.1-.1.1-.1l-.1.1zm3.8-4.1h.2c.1 0 .1 0 .1.1h-.1c-.1-.1-.1-.1-.2-.1.1 0 .1.1 0 0 0 .1 0 .1 0 0zm-.3.5V35c.1 0 .1 0 0 .1l.1.1s-.1 0-.1-.1zM64 36.9zm-.3-.2s.1 0 0 0c.1 0 .1 0 0 0zm-.4.4s.1 0 0 0c.1 0 .1 0 0 0zm0-.1v.1c-.1 0-.2-.1 0-.1v-.1c.1 0 .1 0 0 .1.1-.1 0-.1 0 0 0-.1 0-.1 0 0zm-.6.7l-.1.2c0-.1 0-.2.1-.2zM36 33.9l1.1 1.1c-.1.1-.1.1-.1.2 0 0 .1.1.2.1l.2.1v-.1l.6.6h-.1s0 .1.1.1l.2.2s0-.1.1-.1l.6.6v.2c0 .1.1.1.1.1h.1v.1c0 .1 0 .3-.1.4h.2c.2 0 .2 0 .2-.1l.2.2v.3c.1.2.1.3.3.4h.1c.1 0 .2 0 .2-.1l.7.7c0 .1-.2.3-.2.3s.1.1.2.1l.2.1s0-.1.1-.2l1.9 1.9.2.4.9.9V42h.5l-.8-1-.5-.2-1.7-1.6s.1-.1.1-.3c0-.2-.3-.4-.5-.6-.1 0-.1-.1-.2-.1s-.2.1-.2.1l-.5-.5h.2v-.1c0-.1-.1-.2-.1-.2s-.1.1-.2.1l-.1-.1h-.1-.1l-.3-.2h.1c.1 0 .2-.2.2-.2s.1-.2 0-.3c-.1-.2-.5-.3-.7-.3-.1 0-.2 0-.3.1l-.2-.2c.1 0 .2-.1.3-.2.1-.1 0-.3-.1-.6-.1-.2-.3-.4-.5-.3-.1 0-.2 0-.2.1-.1.1-.1.2-.1.2v.2l-.3-.3s.1 0 .1-.1c0 0 .2-.1.2-.3 0-.2-.2-.5-.4-.6-.1 0-.1-.1-.2-.1s-.2 0-.2.1c-.1.1-.1.1-.1.2l-.9-.9-.1-.4-.8-.3.3.9.2-.1zm5.6 5.1c.1 0 .1 0 .1.1l-.1-.1s-.1 0 0 0c-.1 0-.1 0 0 0zm-.4-.4s.1 0 0 0h.1-.1zm-.9-.9c0 .1 0 .1.1.2l-.1-.2zm-.7-.6zm0-.3c.1 0 .1 0 0 0 .1 0 .1 0 .2.1s0 .2 0 .2V37l-.2-.2c0 .1 0 .1 0 0 0 .1 0 .1 0 0zm-.4-.1c.1 0 0 0 0 0zm-.2.2zm-1.3-1.8c.1-.1 0-.1 0-.2 0 0 .1.1 0 .1.1.2 0 .2 0 .1 0 .1 0 .1 0 0 0 .1 0 0 0 0zm-.4-.5h.2c-.1.1-.1 0-.2 0 .1 0 .1 0 0 0l-.1.1c0-.1 0-.1.1-.1zM38.3 39.7c.2.2.5.3.7.5-.2.2-.4.3-.7.5-.1.1-.2.2-.1.3h-.3l.3.3.1-.2c.4.3.7 0 .9-.2l.3-.3.9.6c-.1.3-.4.6-.9.8v.1h.1c.4-.2.8-.4 1-.8 1.2 1 2.5 1.9 3.7 2.7l.2.3h.1c.1 0 .2-.1.2-.2v-.2l-.4-.1c-1.2-1-2.4-1.9-3.6-2.7.2-.3.3-.7.3-1.2 0 .4-.1.7-.4.9l-.9-.6c.2-.2.3-.5.1-.8l.2-.1-.4-.3v.3c-.1-.1-.2-.1-.3.1-.1.2-.2.3-.3.4-.2-.2-.4-.3-.7-.4.2-.2.3-.4.2-.6l.2-.1-.3-.3v.2c-.1-.1-.2-.1-.2 0-.1.1-.2.3-.4.4-.3-.2-.6-.4-1-.6.1-.2.2-.5 0-.7l.2-.1-.4-.2.1.2c-.1-.1-.2 0-.2.1s-.1.3-.1.4c-2.6-1.8-4.4-3-5.4-3.6-.2-.1-.2-.1-.3-.1 0 0 0 .1.2.3.9.7 2.7 2 5.3 3.8-.1.2-.3.4-.6.6-.1.1-.1.2 0 .2l-.2.1.3.3v-.2c.3.2.6-.1.8-.3l.2-.2c.2.2.5.3.7.5-.2.1-.3.1-.6.2-.1 0-.2.1-.1.2h-.2l.2.4.1-.2c.2.3.6.1.8 0 .4-.2.5-.3.6-.4zm1.6.4c0-.1.1-.3 0-.4 0-.1-.1-.2 0-.3h.1l.1.1c.1.2 0 .4-.1.6-.1.1-.1.1-.1 0 0 .1 0 0 0 0zm-1.3-.8c.1-.1.1-.2.1-.3 0-.1 0-.2.1-.2v.1c.1.2 0 .4-.2.4.1.1.1 0 0 0zm-1.4-1v-.1-.3s-.1-.2 0-.2l.1.1c.1.2 0 .4-.1.5 0 .1 0 0 0 0z"/></g><path d="M51.4 48.8h-.7c-.2 0-.6-.1-1-.2-.8-.3-1.6-.7-2.2-1.4-.4-.4-.8-1-1.1-1.6 0-.1-.1-.1-.1-.2s-.1-.1-.1-.2-.1-.2-.1-.2c0-.1-.1-.2-.1-.3-1.8-4.4-1.1-11-1.1-11.1v-.2h13v.2c0 .1.2 2.4.1 5.2-.1 1.8-.5 4.5-1.5 6.5-.1.1-.1.2-.2.4-.3.5-.6.9-.9 1.3-1 1.2-2.4 1.8-4 1.8zm-4.8-3.6s0 .1.1.1c0 .1.1.1.1.2.3.6.7 1.1 1.1 1.5.6.6 1.3 1 2 1.3.4.1.7.1.9.2h.7c1.5 0 2.7-.6 3.7-1.7l.9-1.2c.1-.1.1-.2.2-.4 1-2 1.3-4.6 1.5-6.4.2-2.4 0-4.5-.1-5H45.2c-.1.9-.5 6.7 1.1 10.8 0 .1.1.2.1.3.1.1.2.2.2.3h-.1.1z"/><g><path d="M49 39.5h-.1v-.8h-.4v1.8h.4v-.8h.1v.8h.4v-1.8H49M51.2 39.1c0-.1.1-.1.1-.1v-.2h-.2c-.1 0-.2.1-.2.2l-.1.4v-.6h-.4v1.8h.4v-.7l.2.7h.4l-.3-1 .1-.5zM53.7 39.5c-.1 0-.2-.1-.4-.1V39h.3v-.2h-.7v1.8h.4c.2 0 .3 0 .4-.1.1-.1.1-.1.1-.2v-.5c0-.2 0-.3-.1-.3zm-.3.7c0 .1 0 .1-.1.1v-.6c.1 0 .1 0 .1.1v.4zM54.7 38.8c-.1 0-.2-.1-.4-.1h-.4v1.8h.4v-.7c.2 0 .3 0 .4-.1.1 0 .1-.1.1-.2V39c0-.1-.1-.1-.1-.2zm-.3.7c0 .1 0 .1-.1.1V39c.1 0 .1 0 .1.1v.4zM47.2 38.8c-.1 0-.2-.1-.4-.1h-.4v1.8h.4v-.7c.2 0 .3 0 .4-.1.1 0 .1-.1.1-.2V39c0-.1 0-.1-.1-.2zm-.3.7c0 .1 0 .1-.1.1V39c.1 0 .1 0 .1.1v.4zM56 38.6c0-.2 0-.2-.1-.2h-.1v.1c0 .1 0 .2.2.1-.1.1-.1.1 0 0zM56.2 38.4l-.1.1c0 .1 0 .1.1.1h.1v-.1c.1 0 0-.1-.1-.1zM55.9 38.7h.4v1.8h-.4zM55.3 38.7c-.3 0-.4.1-.4.3v1.1c0 .2.1.3.4.3.1 0 .2 0 .3-.1.1-.1.1-.1.1-.2V39c.1-.2-.1-.3-.4-.3zm.1 1.5c0 .1 0 .1 0 0-.1.1-.1 0-.1 0V39s0-.1.1-.1c0 0 .1 0 .1.1v1.2zM49.9 38.7c-.3 0-.4.1-.4.3v1.1c0 .2.1.3.4.3.1 0 .2 0 .3-.1.1-.1.1-.1.1-.2V39c0-.2-.1-.3-.4-.3zm.1 1.5c0 .1-.1.1 0 0-.1.1-.1 0-.1 0V39s0-.1.1-.1c0 0 .1 0 .1.1v1.2zM47.7 39.6v-.9h-.3v1.8h.4l.2-.9v.9h.4v-1.8H48M52.6 39.6c.1 0 .2-.1.2-.3v-.2c0-.1 0-.2-.1-.2s-.2-.1-.3-.1c-.3 0-.4.1-.4.3v.3h.3v-.3s0-.1.1-.1c0 0 .1 0 .1.1v.3c0 .1-.1.1-.2.1v.2h.1v.5s0 .1-.1.1c0 0-.1 0-.1-.1v-.4h-.4v.4c0 .2.1.3.4.3.3 0 .4-.1.4-.4v-.3c.2-.1.1-.2 0-.2z"/></g><g><path d="M26.2 61.9c-12.1-15.6-9.2-38 6.3-50.1 7.7-5.9 17-8.3 25.9-7.2-13.4-7-30.3-6-43 3.9C-2 21.9-5.1 47 8.4 64.5c12.1 15.5 33.3 19.8 50.1 11-12 1.3-24.4-3.4-32.3-13.6z"/></g></svg>