<?xml version="1.0" encoding="utf-8"?>
<!-- Generator: Adobe Illustrator 19.0.0, SVG Export Plug-In . SVG Version: 6.00 Build 0)  -->
<svg version="1.1" id="Layer_1" xmlns="http://www.w3.org/2000/svg" xmlns:xlink="http://www.w3.org/1999/xlink" x="0px" y="0px"
	 viewBox="0 0 71.9 80" style="enable-background:new 0 0 71.9 80;" xml:space="preserve">
<g>
	<g>
		<path id="XMLID_246_" d="M49.3,36.5c-0.3-0.4,0.1-1.2,0.1-1.2L48.1,35c0.2,0.4-0.4,1.3-0.4,1.3C48.2,37.2,49.1,36.8,49.3,36.5z"/>
		<path d="M48.2,41.1h-0.5v0.2c0,0.2,0,0.5-0.1,0.6h-0.1v0.3h0.1v-0.2h0.6v0.2h0.1v-0.3h-0.1V41.1z M48.1,41.8h-0.4
			c0.1-0.1,0.1-0.3,0.1-0.5v-0.1h0.3V41.8z"/>
		<polygon id="XMLID_243_" points="46.4,41.9 46.5,41.9 46.5,41.2 46.9,41.2 46.9,41.9 47.1,41.9 47.1,41.1 46.4,41.1 		"/>
		<path d="M49,41.1l-0.3,0.8h0.1l0.1-0.3h0.3l0.1,0.3h0.1l-0.3-0.8H49z M48.9,41.5l0.1-0.4l0.1,0.4H48.9z"/>
		<path d="M49.9,41.1h-0.3v0.8h0.1v-0.3h0.2c0.2,0,0.3-0.1,0.3-0.2C50.2,41.1,50.1,41.1,49.9,41.1z M49.9,41.5h-0.2v-0.3h0.2
			c0.1,0,0.2,0,0.2,0.2C50.1,41.4,50,41.5,49.9,41.5z"/>
		
			<rect id="XMLID_238_" x="47.9" y="35.1" transform="matrix(0.9719 0.2353 -0.2353 0.9719 9.6364 -10.2962)" width="0.1" height="0.3"/>
		<path id="XMLID_237_" d="M53.4,36.5c0.2,0.3,1.1,0.7,1.6-0.2c0,0-0.6-0.9-0.4-1.3l-1.3,0.3C53.3,35.3,53.7,36.1,53.4,36.5z"/>
		
			<rect id="XMLID_236_" x="54.6" y="35.2" transform="matrix(0.2297 0.9733 -0.9733 0.2297 76.4326 -26.1236)" width="0.3" height="0.1"/>
		<polygon id="XMLID_235_" points="49.3,35.7 50.8,36 50,36.2 50.1,36.5 51.3,36.2 52.6,36.5 52.7,36.2 51.9,36 53.4,35.7 
			53.3,35.4 51.3,35.9 49.3,35.4 		"/>
		<rect id="XMLID_234_" x="47.2" y="41.1" width="0.1" height="0.8"/>
		<path d="M53.1,41.1l-0.3,0.8h0.1l0.1-0.3h0.3l0.1,0.3h0.1l-0.3-0.8H53.1z M53,41.5l0.1-0.4l0.1,0.4H53z"/>
		<polygon id="XMLID_231_" points="55.8,41.8 55.5,41.1 55.4,41.1 55.4,41.9 55.5,41.9 55.5,41.2 55.8,41.9 55.9,41.9 56.1,41.2 
			56.1,41.9 56.2,41.9 56.2,41.1 56.1,41.1 		"/>
		<path d="M54.9,41c-0.2,0-0.4,0.2-0.4,0.4c0,0.2,0.1,0.4,0.4,0.4c0.3,0,0.4-0.2,0.4-0.4C55.3,41.2,55.1,41,54.9,41z M54.9,41.8
			c-0.2,0-0.3-0.1-0.3-0.3c0-0.2,0.1-0.3,0.3-0.3c0.2,0,0.3,0.1,0.3,0.3S55,41.8,54.9,41.8z"/>
		<path id="XMLID_228_" d="M53.8,41.6c0,0.2,0,0.2-0.1,0.2c0,0,0,0-0.1,0v0.1c0,0,0.1,0,0.1,0c0.1,0,0.2-0.1,0.2-0.3l0-0.5h0.3v0.7
			h0.1v-0.8h-0.5L53.8,41.6z"/>
		<polygon id="XMLID_227_" points="51.3,41.5 51.8,41.5 51.8,41.4 51.3,41.4 51.3,41.2 51.8,41.2 51.8,41.1 51.2,41.1 51.2,41.9 
			51.8,41.9 51.8,41.8 51.3,41.8 		"/>
		<path id="XMLID_226_" d="M50.7,41.8c-0.2,0-0.3-0.1-0.3-0.3c0-0.2,0.1-0.3,0.3-0.3c0.1,0,0.2,0.1,0.2,0.2h0.1
			c0-0.2-0.2-0.3-0.3-0.3c-0.3,0-0.4,0.2-0.4,0.4C50.3,41.7,50.5,41.9,50.7,41.8c0.2,0.1,0.3,0,0.3-0.2H51
			C50.9,41.7,50.9,41.8,50.7,41.8z"/>
		<polygon id="XMLID_225_" points="52.5,41.4 52.1,41.4 52.1,41.1 52,41.1 52,41.9 52.1,41.9 52.1,41.5 52.5,41.5 52.5,41.9 
			52.7,41.9 52.7,41.1 52.5,41.1 		"/>
		<path d="M51.5,49.4L51.5,49.4c-0.1,0-0.1,0-0.2,0c0,0,0,0-0.1,0c-0.1,0-0.3,0-0.4,0c-0.4,0-0.7-0.1-1-0.2
			c-0.9-0.3-1.7-0.8-2.3-1.4c-0.6-0.6-1.1-1.4-1.5-2.3l-7.7-2.1v-0.5l0.1,0c0,0,4.3,1.3,7.4,2.2c-0.7-1.7-1.1-3.8-1.3-6.3
			c-0.1,0-0.2,0-0.2,0L44,38.4l0.1-0.1c0,0,0,0,0,0c0,0,0,0,0,0l0.1-0.1c0,0,0,0,0-0.1l0,0l0,0c0-0.1,0.1-0.1,0.1-0.2l0-0.1l0.1,0.1
			c-0.1-2.7,0.1-4.9,0.1-5l0-0.1h14l0,0.1c0,0,0.2,2.3,0.1,5.2c0,0,0,0.1,0,0.1l0,0c0,0,0,0,0,0.1l0.1,0.1c0,0,0,0,0,0c0,0,0,0,0,0
			l0.1,0.1l-0.1,0.1l-0.2,0.1c0,0-0.1,0-0.1,0c-0.2,2.5-0.6,4.6-1.3,6.3c3.1-0.9,7.3-2.1,7.3-2.1l0.1,0v0.5L57,45.5
			C55.8,48.1,53.9,49.4,51.5,49.4z M51.3,49.3c0.1,0,0.1,0,0.2,0c2.4,0,4.2-1.3,5.4-3.8l0,0l0,0l7.6-2.1V43
			c-0.6,0.2-4.5,1.3-7.4,2.1l-0.1,0l0.1-0.1c0.7-1.7,1.2-3.8,1.3-6.4l0-0.1l0.1,0l0,0c0,0,0,0,0.1,0l0.1-0.1l0-0.1
			c0,0,0-0.1-0.1-0.1l0,0c0,0,0-0.1-0.1-0.1l0,0l0,0c0.1-2.6-0.1-4.7-0.1-5.1H44.6c0,0.4-0.2,2.5-0.1,5l0,0.1l-0.2-0.1
			c0,0,0,0.1-0.1,0.1v0l0,0c0,0-0.1,0.1-0.1,0.1l0,0.1l0.1,0.1c0,0,0.1,0,0.1,0c0,0,0,0,0,0l0.1-0.1l0,0.2c0.2,2.6,0.6,4.8,1.3,6.5
			l0.1,0.1l-0.1,0c-2.9-0.8-6.8-2-7.5-2.2v0.3l7.7,2.1l0,0c0.4,0.9,0.9,1.7,1.5,2.3c0.7,0.7,1.4,1.2,2.3,1.4c0.3,0.1,0.7,0.2,1,0.2
			C51,49.3,51.1,49.3,51.3,49.3C51.2,49.3,51.3,49.3,51.3,49.3z"/>
		<path d="M64.4,48.2L64.4,48.2c-0.8,0-1.4-0.8-1.6-1.1c-0.5,1.2-1.6,1-1.6,1l0,0l0,0c0,0-0.4-1,0-1.6c0.2-0.4,0.2-0.7,0.2-0.9
			c0-0.1,0-0.3,0-0.4c0.1-0.4-0.1-0.6-0.1-0.6L61,44.3l0.1,0l3.3-0.9l0,0l0,0.1l0,0c0,0,0,0-0.1,0.1c0,0.1-0.1,0.3,0.2,0.9
			c0.4,0.8,0.2,1.2,0.1,1.7c0,0.1-0.1,0.2-0.1,0.4c-0.1,0.6,0.2,1.4,0.2,1.4l0,0.1l-0.1,0C64.7,48.1,64.5,48.2,64.4,48.2z
			 M62.7,46.8l0.1,0.1c0,0,0.7,1.2,1.6,1.2l0,0c0.1,0,0.2,0,0.3-0.1c-0.1-0.2-0.3-0.9-0.2-1.5c0-0.1,0.1-0.3,0.1-0.4
			c0.1-0.4,0.2-0.8-0.1-1.6c-0.2-0.5-0.3-0.8-0.2-1l-3.1,0.9c0.1,0.1,0.2,0.3,0.1,0.7c0,0.1,0,0.3,0,0.4c0,0.3,0.1,0.5-0.2,1
			c-0.3,0.5-0.1,1.3,0,1.5c0.2,0,1.1,0,1.5-1.1L62.7,46.8z"/>
		<path d="M46.8,32.6c-0.2,0-0.4-0.1-0.5-0.3c0,0-0.1,0-0.1,0l0,0l0-0.1c-0.3-0.7-0.8-1.9-1-1.9c-0.1,0-0.2,0-0.2,0
			c-0.3,0-0.5-0.1-0.6-0.3c-0.1,0.1-0.3,0.2-0.5,0.2l0,0c-0.1,0-0.3,0-0.4-0.1C43.1,30,43,29.7,43,29.3c0-0.4,0.2-0.8,0.6-1
			c0-0.2,0.1-0.4,0.3-0.6c0,0,0,0,0,0l0,0l0,0c0.2-0.2,0.4-0.3,0.7-0.4c0,0,0.1-0.1,0.2-0.1l0,0c0,0,0,0,0,0l0,0
			c0.3-0.2,0.7-0.3,1.1-0.3c0.5,0,0.9,0.1,1.1,0.4c0.1,0,0.2,0.1,0.3,0.1c0.3,0.1,0.7,0.2,0.9,0.6c0.2,0.2,0.2,0.6,0.1,1
			c-0.1,0.3-0.2,0.5-0.3,0.6c-0.2,0.1-0.3,0.1-0.5,0.1c-0.1,0-0.2,0-0.3,0c-0.1,0-0.1,0-0.2,0c-0.1,0-0.3,0-0.4,0.4
			c0,0.2,0,0.4,0,0.6c0,0,0,0,0,0c0.1,0,0.2,0,0.4,0.1c0.1-0.2,0.2-0.5,0.6-0.7l0.1,0l0,0.1c0.2,0.4,0.2,0.7,0.1,0.9l2.8,0l0,0
			l0-0.1c0.1-0.7,0.3-1.7-0.1-2.3C50.4,28,50.2,28,50.1,28c-0.1,0-0.2,0.1-0.4,0.1c-0.2,0.1-0.4,0.2-0.7,0.2c-0.1,0-0.2,0-0.3,0
			c-0.2-0.1-0.4-0.3-0.6-0.6c-0.2-0.4-0.3-0.9-0.2-1.2c0.2-0.5,0.6-0.8,0.9-1c0.1-0.1,0.3-0.2,0.4-0.3c0.4-0.7,1.3-1,2.1-1
			c0.2,0,0.5,0,0.7,0.1l0,0c0,0,0,0,0,0c0.1,0,0.2,0.1,0.2,0.1c0.1,0,0.2,0,0.2,0c0.7,0,1.3,0.6,1.4,1c0.5,0.1,0.9,0.5,1.1,1.1
			c0.1,0.4,0.1,0.9-0.2,1.2c0.2-0.1,0.4-0.2,0.6-0.3c0.1,0,0.2-0.1,0.3-0.1c0.3-0.2,0.7-0.4,1.1-0.4c0.4,0,0.8,0.1,1.1,0.3l0,0
			c0,0,0,0,0,0l0,0c0.1,0,0.1,0.1,0.2,0.1c0.2,0,0.5,0.1,0.7,0.4l0,0l0,0c0,0,0,0,0,0c0.2,0.2,0.3,0.5,0.3,0.6
			c0.4,0.2,0.6,0.6,0.6,1c0,0.4-0.2,0.7-0.4,0.9c-0.1,0.1-0.2,0.1-0.4,0.1c-0.2,0-0.4-0.1-0.5-0.2c-0.2,0.2-0.5,0.3-0.9,0.3
			c-0.2,0-0.7,1.2-1,1.9l0,0.1l0,0c0,0,0,0-0.1,0l-0.1,0.3l-0.1,0c-0.1,0-0.2,0-0.3,0c-0.1,0-0.2,0-0.3,0c-0.4,0-0.8,0-1.2,0
			c-0.4,0-0.8,0-1.2,0c-0.7,0-3.1-0.1-3.7-0.1c-0.2,0-0.7,0-1.2,0c-0.7,0-1.2,0-1.3,0.1C47,32.6,46.9,32.6,46.8,32.6z M46.3,32.1
			C46.3,32.2,46.3,32.2,46.3,32.1l0.1,0l0,0c0.2,0.3,0.4,0.3,0.7,0.2c0.2-0.1,0.9-0.1,1.4-0.1c0.5,0,1,0,1.2,0c0.6,0,3,0.1,3.7,0.1
			c0.4,0,0.8,0,1.2,0c0.4,0,0.8,0,1.2,0c0.1,0,0.2,0,0.3,0c0.1,0,0.2,0,0.2,0l0.1-0.3l0,0c0,0,0,0,0,0l0,0c0.5-1.2,0.8-1.9,1.1-1.9
			c0.1,0,0.2,0,0.2,0c0.3,0,0.5-0.1,0.6-0.3l0-0.1l0.1,0.1c0.1,0.1,0.3,0.2,0.5,0.2c0.1,0,0.2,0,0.3-0.1c0.2-0.1,0.4-0.4,0.4-0.8
			c0-0.2,0-0.3-0.1-0.5l-0.1-0.1c-0.1-0.1-0.3-0.2-0.4-0.2c-0.2,0-0.4,0.1-0.5,0.4l-0.1,0.2l0-0.2c0,0,0,0,0,0l0,0
			C58,28.3,57.5,28,57,28c-0.6,0-1.1,0.4-1.2,1.1l-0.1,0c0.1-0.9,0.7-1.3,1.3-1.3c0.2,0,0.3,0,0.5,0.1c0-0.1,0.1-0.3,0.1-0.4
			c0.1-0.1,0.2-0.2,0.4-0.2c0,0-0.1,0-0.1-0.1c-0.9-0.2-1.5-0.2-1.8,0.1c-0.1,0.1-0.1,0.2,0,0.4l0,0.1l-0.1,0c-0.6,0-1,0.1-1.2,0.2
			c-0.1,0.1-0.2,0.3-0.2,0.4c0,0.2,0.1,0.5,0.3,0.7c0.2,0.1,0.4,0.2,0.6,0.2c0,0,0.1,0,0.2,0c0.1,0,0.1,0,0.2,0l0.1,0l0,0
			c0.1,0.2,0.2,0.3,0.4,0.5l0,0l0,0c0,0.3,0,0.6-0.1,1l0,0.1l-0.2,0l0-0.1c0-0.1,0-0.1,0.1-0.2l-0.1,0c-0.1,0-0.2,0-0.5,0.1
			l-0.1,0.1l0-0.1c0,0-0.1-0.4-0.5-0.7c-0.2,0.3-0.1,0.7-0.1,0.8l0,0.1l-3,0l0-0.1c0.2-1.6,0.4-2.5,0.7-2.6c0.5,0,0.9-0.3,1-0.6
			l0-0.1l0.1,0.1c0.1,0.1,0.2,0.1,0.4,0.1c0.2,0,0.5-0.1,0.6-0.2c0.3-0.3,0.3-0.7,0.2-1.1c-0.1-0.2-0.2-0.4-0.3-0.6l-0.2-0.1
			c-0.1-0.1-0.3-0.1-0.4-0.1c-0.4,0-0.7,0.3-0.7,0.7l0,0.2L53,26.3c0,0,0,0,0,0l0,0c-0.4-0.4-1-0.6-1.5-0.6c-0.5,0-0.9,0.2-1.2,0.5
			c-0.3,0.3-0.5,0.8-0.5,1.4l-0.1,0c-0.1-0.6,0-1.1,0.4-1.5c0.4-0.4,0.9-0.6,1.5-0.6c-0.1-0.2,0-0.4,0.1-0.6
			c0.1-0.2,0.2-0.3,0.4-0.3c-0.1,0-0.1-0.1-0.2-0.1c-1.3,0-2,0.4-2.2,0.7c-0.1,0.2-0.1,0.4,0,0.6l0,0.1l-0.1,0
			c-0.9,0.2-1.3,0.4-1.5,0.7c-0.1,0.2-0.2,0.4-0.1,0.6c0.1,0.3,0.3,0.6,0.7,0.8c0.2,0.1,0.5,0.1,0.9,0c0.1,0,0.1,0,0.2-0.1
			c0.1,0,0.2-0.1,0.3-0.1l0,0l0,0c0.1,0.2,0.3,0.4,0.6,0.6l0,0l0,0c0.2,0.6,0.3,1.6,0.1,2.5l0,0.1l-3.4,0l0-0.1
			c0-0.1,0.1-0.5-0.1-0.8c-0.4,0.2-0.5,0.7-0.5,0.7l0,0.1l-0.1-0.1c-0.2-0.1-0.3-0.1-0.4-0.1l-0.1,0c0,0,0,0.1,0,0.1
			c0,0.1,0,0.1,0,0.2l0,0.1l-0.2,0l0-0.1c-0.1-0.4-0.1-0.7-0.1-1l0,0l0,0c0.2-0.2,0.3-0.4,0.4-0.5l0,0l0.1,0c0.1,0,0.1,0,0.2,0
			c0,0,0,0,0,0c0,0,0.1,0,0.1,0c0.3,0,0.5-0.1,0.6-0.2c0.2-0.2,0.3-0.4,0.3-0.7c0-0.2-0.1-0.3-0.2-0.4c-0.2-0.2-0.5-0.2-1.2-0.2
			l-0.1,0l0-0.1c0-0.1,0-0.3,0-0.4c-0.2-0.3-0.9-0.4-1.8-0.1c0,0-0.1,0-0.1,0.1c0.2,0,0.3,0.1,0.4,0.2c0.1,0.1,0.1,0.2,0.1,0.4
			c0.2-0.1,0.3-0.1,0.5-0.1c0.6,0,1.2,0.4,1.3,1.3l-0.1,0c-0.2-0.7-0.6-1.1-1.2-1.1c-0.5,0-1,0.3-1.3,0.8l0,0c0,0,0,0,0,0l0,0.2
			l-0.1-0.2c-0.1-0.2-0.3-0.4-0.5-0.4c-0.1,0-0.3,0.1-0.4,0.2l-0.1,0.1c-0.1,0.2-0.1,0.3-0.1,0.5c0,0.3,0.1,0.6,0.4,0.7
			c0.1,0.1,0.2,0.1,0.3,0.1c0.2,0,0.4-0.1,0.5-0.2l0.1-0.1l0,0.1c0.1,0.2,0.3,0.3,0.6,0.3c0.1,0,0.2,0,0.2,0
			C45.4,30.2,45.8,31,46.3,32.1L46.3,32.1z M50.8,30.8C50.8,30.8,50.8,30.8,50.8,30.8l0.1-0.1c0.1-0.6,0.2-1.4,0-2
			C51,29.3,50.9,30.1,50.8,30.8L50.8,30.8z M51.1,29.8c0,0.3-0.1,0.6-0.1,0.9l0,0.1l0.1,0C51.1,30.5,51.1,30.1,51.1,29.8z
			 M53.6,27.8c-0.1,0.4-0.5,0.6-1,0.6c-0.2,0.1-0.4,1.6-0.5,2.4l2.7,0c0-0.2-0.1-0.5,0.1-0.9l0-0.1l0.1,0c0.4,0.2,0.5,0.5,0.6,0.7
			c0.1-0.1,0.3-0.1,0.4-0.1c0,0,0,0,0.1,0c0.1-0.3,0.1-0.5,0-0.7c-0.1-0.4-0.2-0.4-0.4-0.4c-0.1,0-0.1,0-0.2,0c-0.1,0-0.2,0-0.3,0
			c-0.2,0-0.3,0-0.5-0.1c-0.2-0.1-0.3-0.3-0.3-0.6c-0.1-0.4,0-0.7,0.1-1c0,0,0.1-0.1,0.1-0.1C54.3,27.9,53.9,27.9,53.6,27.8z
			 M48.2,28.8c-0.1,0.2-0.2,0.3-0.3,0.4c0,0,0,0-0.1,0.1c0,0,0.1,0,0.1,0C48,29.1,48.1,29,48.2,28.8z M54.6,28.8
			c0.1,0.2,0.2,0.4,0.3,0.5c0,0,0.1,0,0.1,0c0,0,0,0-0.1-0.1C54.7,29.1,54.6,28.9,54.6,28.8z M43.8,28.3c0.2,0,0.4,0.1,0.5,0.2
			c0,0,0.1,0.1,0.1,0.1c0.2-0.3,0.4-0.5,0.7-0.7c-0.1-0.2-0.3-0.5-0.6-0.5c-0.1,0-0.1,0-0.2,0l-0.1,0c-0.1,0.1-0.2,0.1-0.2,0.2
			c-0.2,0.2-0.3,0.4-0.3,0.6C43.7,28.3,43.8,28.3,43.8,28.3z M57.6,27.9c0.3,0.1,0.5,0.4,0.7,0.7c0,0,0.1-0.1,0.1-0.1
			c0.2-0.2,0.4-0.3,0.6-0.2c0-0.2-0.1-0.4-0.3-0.6c0-0.1-0.1-0.1-0.2-0.2l-0.1,0c-0.1,0-0.1,0-0.2,0C57.9,27.4,57.7,27.7,57.6,27.9z
			 M50.9,28.4C50.9,28.4,50.9,28.4,50.9,28.4c0,0.1,0.1,0.1,0.1,0.1C50.9,28.5,50.9,28.5,50.9,28.4C50.9,28.4,50.9,28.4,50.9,28.4z
			 M47.6,27.7c0.2,0,0.3,0.1,0.4,0.2c0.1,0.1,0.1,0.1,0.2,0.2c0-0.1,0-0.1-0.1-0.1C48,27.8,47.8,27.8,47.6,27.7z M55.2,27.7
			c-0.2,0-0.4,0.1-0.5,0.2c0,0-0.1,0.1-0.1,0.1c0-0.1,0.1-0.1,0.2-0.2C54.8,27.8,55,27.8,55.2,27.7z M49.7,25.6L49.7,25.6
			c-0.2,0.2-0.4,0.2-0.6,0.3c-0.4,0.1-0.8,0.2-0.9,0.6c-0.1,0.3,0,0.6,0.1,1c0.1,0.3,0.4,0.5,0.6,0.6c0.1,0,0.2,0,0.3,0
			c-0.1,0-0.2,0-0.3-0.1c-0.4-0.2-0.6-0.5-0.7-0.8c-0.1-0.3,0-0.5,0.1-0.7C48.4,26.1,48.9,25.9,49.7,25.6
			C49.7,25.6,49.7,25.6,49.7,25.6z M46.8,27.7c0,0,0.1,0,0.1,0C46.9,27.7,46.8,27.6,46.8,27.7C46.8,27.6,46.8,27.6,46.8,27.7z
			 M55.9,27.6c0,0-0.1,0-0.1,0C55.9,27.6,55.9,27.6,55.9,27.6C55.9,27.6,55.9,27.6,55.9,27.6z M46.9,27.5c0.1,0,0.3,0.1,0.4,0.1
			c0.1,0,0.3,0,0.4,0c-0.2-0.1-0.3-0.1-0.5-0.2c-0.1,0-0.3-0.1-0.4-0.1l0,0c0,0,0,0,0,0C46.9,27.3,46.9,27.4,46.9,27.5z M55.9,27.2
			C55.9,27.3,55.8,27.3,55.9,27.2L55.9,27.2c-0.1,0.1-0.3,0.1-0.4,0.2c-0.2,0.1-0.3,0.1-0.5,0.2c0.1,0,0.3,0,0.4,0
			c0.2,0,0.3,0,0.4-0.1C55.8,27.4,55.8,27.3,55.9,27.2z M46.5,27.1c0.1,0,0.1,0.1,0.1,0.1c0,0,0.1,0.1,0.1,0.2c0-0.1,0-0.1,0-0.2
			C46.7,27.2,46.6,27.2,46.5,27.1z M56.2,27.1c-0.1,0-0.1,0.1-0.2,0.1c0,0-0.1,0.1,0,0.2c0-0.1,0-0.1,0.1-0.2
			C56.1,27.2,56.1,27.1,56.2,27.1z M51.8,25.5c0.4,0.1,0.8,0.3,1.2,0.6c0-0.1,0.1-0.2,0.1-0.3c0.2-0.2,0.4-0.4,0.6-0.4l0,0
			c-0.1-0.3-0.4-0.7-0.9-0.8l-0.2,0c-0.2,0-0.4,0.1-0.6,0.2C51.9,25,51.8,25.3,51.8,25.5z M49.5,25.1c0,0-0.1,0.1-0.1,0.1l0,0
			c-0.1,0.1-0.3,0.2-0.4,0.3c-0.2,0.2-0.5,0.3-0.7,0.5c0.2-0.1,0.4-0.2,0.7-0.3c0.2-0.1,0.4-0.1,0.5-0.2
			C49.4,25.4,49.4,25.2,49.5,25.1z M51.1,25.6c-0.2,0-0.4,0.1-0.5,0.2C50.8,25.7,50.9,25.6,51.1,25.6z M50,24.7
			c-0.2,0.1-0.3,0.2-0.4,0.4c-0.1,0.1-0.1,0.3,0,0.4c0-0.1,0-0.3,0.1-0.4C49.8,24.9,49.9,24.8,50,24.7z M52.2,24.6
			c-0.1,0.1-0.2,0.2-0.3,0.3c-0.1,0.1-0.1,0.2-0.1,0.3c0.1-0.2,0.1-0.4,0.3-0.5C52.1,24.7,52.1,24.6,52.2,24.6z"/>
		<g>
			<path d="M60.2,36.3c0,0,0,0.1,0,0.1c0,0,0.1,0,0.1,0l0,0l0,0c0,0,0,0-0.1,0c0,0-0.1,0.1-0.1,0.1c0,0,0,0,0,0c0,0,0,0,0,0.1
				c0,0,0,0,0,0c0,0,0,0,0,0l0.1,0.1c0,0,0,0,0,0c0,0-0.1,0.1-0.1,0.1c0,0,0,0,0,0l0-0.1c0,0,0,0,0,0.1c0,0,0,0,0,0c0,0,0,0,0,0
				c0,0,0,0,0,0c0,0,0,0.1-0.1,0.1c0,0,0,0,0,0c0,0,0.1,0,0.1,0h0c0,0,0,0,0,0c0,0,0,0,0,0l0.1,0.1c0,0,0,0,0,0c0,0,0,0.1,0,0.1
				c0,0-0.1,0-0.1,0c0,0,0,0,0,0c0,0,0,0,0,0L60,37.2c0,0,0-0.1,0-0.1c0,0,0,0.1-0.1,0.1c0,0,0,0,0,0c0,0,0,0,0,0c0,0,0,0,0,0
				l0.1,0.1c0,0,0,0,0,0c0,0,0,0.1,0,0.1c0,0,0.1,0,0.1,0c0,0,0-0.1,0-0.1c0,0,0,0,0.1,0c0,0,0,0,0,0l0.1,0.1c0,0,0,0,0,0
				c0,0,0.1,0,0.1,0.1c0,0,0,0,0.1,0c0,0,0,0,0,0l0,0l0,0c0,0,0,0,0,0.1c0,0,0,0,0,0c0,0,0.1,0,0.1,0c0.9-0.5,1.6-0.7,1.6-0.7
				s-0.2,0-0.6,0c0,0-0.1,0-0.1,0c0.1-0.1,0.2-0.2,0.3-0.3c0.3-0.3,0.6-0.5,0.6-0.5S62.3,36,62,36c0.1-0.2,0.3-0.3,0.4-0.5
				c0.1-0.2,0.3-0.4,0.3-0.4s-1.4,0.4-2.4,1.1C60.3,36.2,60.2,36.2,60.2,36.3z M60.3,36.5C60.3,36.5,60.4,36.5,60.3,36.5
				C60.4,36.5,60.4,36.5,60.3,36.5c0.1,0,0.1,0,0.1,0l0.1,0.1c-0.1,0-0.1,0.1-0.1,0.1c0,0,0,0,0,0c0,0,0,0,0,0c0,0,0,0,0,0l-0.1-0.1
				C60.3,36.6,60.3,36.6,60.3,36.5z M60.5,36.7c0,0,0.1,0,0.1,0c0,0,0,0,0,0c0,0,0,0,0,0l0.1,0.1c0,0,0,0.1,0,0.2c0,0-0.1,0-0.1,0
				c0,0,0,0,0,0c0,0,0,0,0,0l-0.1-0.1C60.5,36.8,60.5,36.7,60.5,36.7z M60.6,36.4C60.6,36.4,60.6,36.4,60.6,36.4
				C60.6,36.4,60.6,36.4,60.6,36.4c0.1,0,0.1,0,0.1,0l0.1,0.1c0,0,0,0,0,0c0,0,0,0.1,0,0.1c0,0,0,0,0,0c0,0-0.1,0-0.1,0l-0.1-0.1
				C60.5,36.5,60.5,36.4,60.6,36.4z M61.5,36.2C61.5,36.2,61.5,36.2,61.5,36.2C61.5,36.2,61.5,36.2,61.5,36.2
				C61.5,36.2,61.4,36.2,61.5,36.2l-0.1-0.1c0,0,0-0.1,0-0.1c0,0,0.1,0,0.1,0c0,0,0,0,0,0c0,0,0,0,0,0L61.5,36.2
				C61.6,36.2,61.6,36.2,61.5,36.2z M61.6,36.3L61.6,36.3c0,0,0,0.1,0,0.1c0,0-0.1,0-0.1,0C61.5,36.4,61.5,36.3,61.6,36.3
				C61.5,36.3,61.6,36.3,61.6,36.3C61.6,36.3,61.6,36.3,61.6,36.3z M61.4,36.3C61.4,36.3,61.4,36.3,61.4,36.3
				C61.4,36.3,61.4,36.3,61.4,36.3C61.4,36.3,61.4,36.4,61.4,36.3c-0.1,0.1-0.1,0.1-0.1,0.1c0,0,0,0,0,0c0,0,0,0,0,0l0-0.1
				c0,0,0-0.1,0-0.1c0,0,0,0,0.1,0C61.3,36.2,61.3,36.2,61.4,36.3L61.4,36.3C61.4,36.3,61.4,36.3,61.4,36.3z M61.4,36.6
				C61.4,36.6,61.3,36.6,61.4,36.6c-0.1,0-0.1,0-0.1,0l0,0c0,0,0-0.1,0-0.1c0,0,0.1,0,0.1,0l0,0C61.4,36.5,61.4,36.6,61.4,36.6z
				 M61.2,36.6C61.2,36.6,61.1,36.6,61.2,36.6C61.1,36.6,61.1,36.6,61.2,36.6c-0.1,0-0.1,0-0.1,0L61,36.5c0,0,0-0.1,0-0.1
				c0,0,0.1,0,0.1,0c0,0,0,0,0,0c0,0,0,0,0,0l0.1,0.1C61.3,36.5,61.2,36.5,61.2,36.6z M60.8,36.9C60.9,36.9,60.9,36.8,60.8,36.9
				c0.1-0.1,0.1-0.1,0.2-0.1l0.1,0.1c0,0,0,0.1,0,0.1c0,0-0.1,0-0.1,0C60.9,37,60.9,37,60.8,36.9L60.8,36.9z M60.8,37.1
				c0,0-0.1,0-0.1,0L60.6,37c0,0,0.1,0,0.1,0c0,0,0,0,0,0l0,0.1C60.9,37.1,60.9,37.1,60.8,37.1z M61.1,36.7
				C61.1,36.7,61.1,36.7,61.1,36.7C61.1,36.6,61.1,36.6,61.1,36.7c0.1-0.1,0.1-0.1,0.2-0.1l0,0c0,0,0,0.1,0,0.1
				C61.2,36.8,61.2,36.8,61.1,36.7C61.1,36.8,61.1,36.8,61.1,36.7L61.1,36.7z M61,36.7C60.9,36.7,60.9,36.8,61,36.7
				c-0.1,0-0.1,0-0.1,0c0,0,0,0,0,0l-0.1-0.1c0,0,0-0.1,0-0.1c0,0,0,0,0.1,0c0,0,0,0,0,0c0,0,0,0,0,0l0.1,0.1
				C61,36.6,61,36.7,61,36.7z M60.2,37c0,0,0-0.1,0-0.2c0,0,0.1,0,0.1,0c0,0,0,0,0,0c0,0,0,0,0,0l0.1,0.1c0,0,0,0.1,0,0.2
				c0,0-0.1,0-0.1,0c0,0,0,0,0,0C60.3,37.1,60.3,37.1,60.2,37L60.2,37z M60.4,37.5C60.4,37.5,60.4,37.5,60.4,37.5
				c-0.1,0-0.1,0-0.1,0l-0.1-0.1c0,0,0,0,0,0c0,0,0.1-0.1,0.1-0.1c0,0,0,0,0,0l0.1,0.1C60.5,37.4,60.5,37.5,60.4,37.5z M60.5,37.3
				L60.5,37.3c0-0.1,0-0.1,0-0.1c0,0,0.1-0.1,0.1-0.1l0.1,0.1c0,0,0,0.1,0,0.1C60.6,37.3,60.6,37.3,60.5,37.3
				C60.5,37.3,60.5,37.3,60.5,37.3z M60.7,37.5c-0.1,0-0.1,0-0.2,0c0,0,0,0,0,0l0,0c0,0,0-0.1,0-0.1c0,0,0.1,0,0.1,0c0,0,0,0,0,0
				l0,0l0,0C60.7,37.4,60.7,37.5,60.7,37.5z M60.9,37.4c-0.1,0-0.1,0-0.2,0l0,0l0,0c0,0,0-0.1,0-0.1c0,0,0.1,0,0.1,0c0,0,0,0,0,0
				l0,0C60.9,37.3,60.9,37.3,60.9,37.4z M61.1,37.2c-0.1,0-0.1,0-0.2,0l0,0c0,0,0-0.1,0-0.1c0,0,0.1,0,0.1,0c0,0,0,0,0,0l0,0
				C61.1,37.1,61.1,37.2,61.1,37.2z M61.3,37C61.2,37,61.2,37,61.3,37c-0.1,0-0.1,0-0.1,0c0,0,0,0,0,0c0,0,0-0.1,0-0.1
				c0,0,0.1,0,0.1,0c0,0,0,0,0,0l0,0c0,0,0,0,0,0C61.3,36.9,61.3,37,61.3,37z M61.4,36.8C61.4,36.8,61.4,36.8,61.4,36.8
				C61.4,36.8,61.4,36.8,61.4,36.8c-0.1,0-0.1,0-0.1,0c0,0,0-0.1,0-0.1c0,0,0.1,0,0.1,0c0,0,0,0,0,0c0,0,0,0,0,0l0,0
				C61.5,36.7,61.5,36.8,61.4,36.8z M61.6,36.6C61.6,36.6,61.6,36.6,61.6,36.6c0,0-0.1,0-0.1,0c0,0,0-0.1,0-0.1c0,0,0.1,0,0.1,0
				c0,0,0,0,0,0C61.7,36.5,61.6,36.6,61.6,36.6z M61.7,36.3C61.7,36.3,61.7,36.3,61.7,36.3C61.7,36.4,61.7,36.4,61.7,36.3
				C61.7,36.4,61.7,36.4,61.7,36.3C61.7,36.3,61.7,36.3,61.7,36.3l-0.1-0.1c0,0,0,0,0,0c0,0,0,0,0.1,0L61.7,36.3
				C61.8,36.3,61.8,36.3,61.7,36.3z M61.8,36.1c0,0,0,0.1,0,0.1c0,0-0.1,0-0.1,0C61.7,36.1,61.8,36.1,61.8,36.1
				C61.8,36.1,61.8,36.1,61.8,36.1C61.8,36.1,61.8,36.1,61.8,36.1L61.8,36.1z M61.7,35.9C61.7,35.9,61.7,35.9,61.7,35.9
				C61.8,35.9,61.8,35.9,61.7,35.9C61.8,35.9,61.8,35.9,61.7,35.9L61.7,35.9c0.1,0.1,0.1,0.1,0.1,0.1c0,0,0,0,0,0c0,0,0,0,0,0
				L61.7,35.9C61.7,35.9,61.7,35.9,61.7,35.9C61.7,35.9,61.7,35.9,61.7,35.9z M61.7,36C61.7,36,61.7,36.1,61.7,36
				c0,0.1,0,0.1-0.1,0.1C61.6,36.1,61.6,36.1,61.7,36l-0.1,0c0,0,0,0,0,0c0,0,0,0,0,0c0,0,0,0,0,0c0,0,0,0,0,0
				C61.6,35.9,61.6,35.9,61.7,36C61.6,35.9,61.6,35.9,61.7,36C61.6,36,61.6,36,61.7,36L61.7,36z M61.5,35.8c0,0,0.1,0,0.1,0l0,0
				c0,0,0,0,0,0c0,0,0,0,0,0C61.6,35.9,61.6,35.9,61.5,35.8C61.6,35.9,61.5,35.9,61.5,35.8C61.5,35.9,61.5,35.9,61.5,35.8
				C61.5,35.9,61.5,35.9,61.5,35.8z M61.3,35.9c0,0,0.1,0,0.1,0l0,0c0,0,0,0,0,0.1c0,0,0,0,0,0L61.3,35.9
				C61.4,35.9,61.4,35.9,61.3,35.9C61.3,35.9,61.3,35.9,61.3,35.9z M61.3,36C61.3,36,61.3,36,61.3,36C61.3,36,61.3,36,61.3,36l0.1,0
				c0,0,0,0.1,0,0.1c0,0-0.1,0-0.1,0L61.3,36C61.2,36.1,61.2,36,61.3,36C61.3,36,61.3,36,61.3,36z M61.1,36c0,0,0.1,0,0.1,0
				c0,0,0,0,0,0c0,0-0.1,0.1-0.1,0.1C61.1,36,61.1,36,61.1,36C61.1,36,61.1,36,61.1,36z M61.1,36.1C61.1,36.1,61.1,36.1,61.1,36.1
				l0.1,0.1c0,0,0,0,0,0.1c0,0,0,0,0,0c0,0-0.1,0-0.1,0l0-0.1C61,36.2,61,36.1,61.1,36.1C61,36.1,61,36.1,61.1,36.1
				C61,36.1,61.1,36.1,61.1,36.1z M60.9,36c0,0,0.1,0,0.1,0c0,0,0,0,0,0C61,36,61,36.1,60.9,36c0.1,0.1,0,0.1,0,0.1c0,0-0.1,0-0.1,0
				C60.8,36.1,60.8,36.1,60.9,36z M60.9,36.2C60.9,36.2,60.9,36.2,60.9,36.2C60.9,36.2,60.9,36.2,60.9,36.2l0.1,0.1c0,0,0,0.1,0,0.1
				c0,0,0,0-0.1,0c0,0-0.1,0-0.1,0l-0.1-0.1C60.7,36.3,60.7,36.3,60.9,36.2C60.8,36.2,60.8,36.2,60.9,36.2
				C60.8,36.2,60.8,36.2,60.9,36.2z M60.6,36.2c0.1,0,0.1,0,0.2,0l0,0c0,0,0,0,0,0C60.8,36.2,60.7,36.2,60.6,36.2
				c0.1,0.1,0,0.1,0,0.1c0,0-0.1,0-0.1,0C60.6,36.3,60.6,36.2,60.6,36.2z M60.4,36.3c0.1,0,0.1,0,0.2,0l0,0c0,0,0,0,0,0
				c0,0,0,0-0.1,0c0,0-0.1,0.1-0.1,0.1c0,0-0.1,0-0.1,0l0,0C60.3,36.4,60.3,36.3,60.4,36.3z"/>
			<path id="XMLID_161_" d="M59.7,37.4L59.7,37.4C59.7,37.4,59.8,37.4,59.7,37.4L59.7,37.4C59.7,37.4,59.7,37.4,59.7,37.4z"/>
			<path id="XMLID_160_" d="M59.6,37.5c0,0-0.1,0.1-0.1,0.1c-0.5,0.5-0.7,0.7-0.8,0.8c0,0,0,0,0,0c0,0,0,0,0,0c0,0,0,0,0.1,0
				c0.2,0.1,0.6,0,1.1-0.4c0.2-0.2,0.4-0.3,0.6-0.3c0,0,0,0,0.1,0c-0.1,0-0.1-0.1-0.2-0.1C60.2,37.5,59.9,37.5,59.6,37.5
				C59.6,37.5,59.6,37.5,59.6,37.5z"/>
			<path id="XMLID_159_" d="M60,36.2c0-0.2-0.1-0.3-0.1-0.3s0.1,0.3-0.2,0.7C59.8,36.5,59.9,36.3,60,36.2z"/>
			<path id="XMLID_158_" d="M58.6,38.3C58.6,38.3,58.6,38.3,58.6,38.3c0.1,0,0.3-0.3,0.8-0.7c0.8-0.7,0.8-1.3,0.6-1.6
				c0,0.2-0.1,0.6-0.7,1C58.4,37.6,58.4,38,58.6,38.3z"/>
		</g>
		<path d="M38.4,48.1L38.4,48.1c-0.2,0-0.3,0-0.5-0.1l-0.1,0l0-0.1c0,0,0.3-0.8,0.2-1.4c0-0.1-0.1-0.3-0.1-0.4
			c-0.1-0.4-0.2-0.9,0.1-1.7c0.3-0.6,0.2-0.8,0.2-0.9c0-0.1-0.1-0.1-0.1-0.1l0-0.1l0,0l3.4,1l-0.1,0.1c0,0-0.2,0.2-0.1,0.6
			c0,0.2,0,0.3,0,0.4c0,0.3-0.1,0.5,0.2,0.9c0.4,0.7,0,1.6,0,1.6l0,0l0,0c0,0-1.1,0.2-1.6-1C39.9,47.2,39.2,48.1,38.4,48.1z
			 M38.1,47.9c0.1,0,0.2,0.1,0.3,0.1c0.9,0,1.6-1.2,1.6-1.2l0.1-0.1l0,0.1c0.4,1,1.1,1.1,1.4,1.1c0,0,0.1,0,0.1,0
			c0.1-0.2,0.3-1,0-1.5c-0.2-0.5-0.2-0.7-0.2-1c0-0.1,0-0.3,0-0.4c0-0.3,0.1-0.6,0.1-0.7l-3.1-0.9c0.1,0.2,0,0.6-0.2,1
			c-0.3,0.8-0.2,1.1-0.1,1.6c0,0.1,0.1,0.3,0.1,0.4C38.4,47,38.2,47.7,38.1,47.9z"/>
		<g>
			<path id="XMLID_155_" d="M59.2,34c-0.2,0.3-0.1,0.7,0.1,1l0,0c0,0,0,0,0,0c0,0,0.1,0.1,0,0.2l0,0.1L59,36.1c0,0,0,0.1,0,0.1
				c0,0,0.1,0,0.1,0l0.6-0.8c0,0,0.1-0.1,0.2-0.1v0c0.4,0.1,0.7,0,0.9-0.3c0.2-0.3,0.1-0.6,0-0.9l0.2-0.3c0.1-0.2,0.3-0.3,0.3-0.3
				l0.1-0.1l-0.2-0.1l-0.1,0.1c-0.2,0.2-0.3,0.3-0.3,0.3l-0.2,0.3c0,0,0,0-0.1-0.1l0.6-1.1l-0.2-0.1l-0.6,1c0,0,0,0,0,0c0,0,0,0,0,0
				l0.5-0.8l-0.2-0.1l-0.5,0.8c0,0,0,0-0.1,0l0.4-0.6l-0.2-0.1L60,33.6C59.6,33.6,59.4,33.7,59.2,34z"/>
			<path id="XMLID_154_" d="M42,33.6c0,0-0.1-0.1-0.3-0.3l-0.1-0.1l-0.2,0.1l0.1,0.1c0,0,0.2,0.2,0.3,0.3L42,34
				c-0.2,0.3-0.2,0.6,0,0.9c0.2,0.3,0.6,0.4,0.9,0.3l0,0c0.1,0,0.2,0,0.2,0.1l0.6,0.8c0,0,0,0,0.1,0c0,0,0,0,0-0.1l-0.4-0.9l0-0.1
				c0-0.1,0-0.2,0-0.2c0,0,0,0,0,0l0,0c0.2-0.3,0.3-0.7,0.1-1c-0.2-0.3-0.4-0.4-0.8-0.4l-0.4-0.7l-0.2,0.1l0.4,0.6c0,0,0,0-0.1,0
				l-0.5-0.8l-0.2,0.1l0.5,0.8c0,0,0,0,0,0c0,0,0,0,0,0l-0.6-1l-0.2,0.1l0.6,1.1c0,0,0,0-0.1,0.1L42,33.6z"/>
		</g>
		<g>
			<path id="XMLID_153_" d="M59.7,46c0,0,0.1,0,0.1,0l0,0C59.8,46,59.7,46,59.7,46c-0.2,0.2-0.7,0.5-1,0.7c-0.2,0.1-0.3,0.2-0.4,0
				c0,0.1,0.1,0.1,0.1,0.2c0,0.1,0,0.1,0.1,0.2c0,0,0.1,0.1,0.1,0.1c0,0,0-0.1,0-0.2c0.1-0.1,0.2-0.2,0.4-0.3
				C59.3,46.5,59.5,46.4,59.7,46C59.8,46,59.7,46,59.7,46c-0.1,0.2-0.2,0.2-0.4,0.3c-0.2,0.1-0.6,0.4-0.9,0.5
				c-0.3,0.1,0.4-0.3,0.8-0.6C59.5,46.2,59.6,46.1,59.7,46C59.6,46,59.6,46,59.7,46C59.6,46,59.6,46,59.7,46L59.7,46z"/>
			<path d="M58.5,47.1c0,0,0-0.1-0.1-0.2c-0.1-0.1-0.1-0.1-0.1-0.2c-0.1,0-0.2,0-0.2,0c-0.3,0.1-0.5,0.4-0.9,0.7
				c-0.4,0.4-1,0.8-1.6,1c-0.4,0.1-0.8,0.2-1.1,0.3c-0.3,0.2,0.1,0.1,0.2,0.2c0.7,0.1,0.9,0.1,1.2,0.1c0.5-0.1,1.2-0.4,2-0.9
				c0.3-0.2,0.7-0.5,0.7-0.7c0,0,0,0,0-0.1C58.6,47.2,58.5,47.1,58.5,47.1z M56.4,48.2c-0.8,0.4-1.6,0.4-1.9,0.6
				c0.2-0.3,1-0.1,1.9-0.7c0.9-0.6,1.6-1.5,1.9-1.2C57.9,46.8,57.4,47.6,56.4,48.2z"/>
			<path id="XMLID_150_" d="M44.3,46.8c-0.3-0.1-0.7-0.4-0.9-0.5c-0.2-0.1-0.2-0.1-0.4-0.3c0,0-0.1,0-0.1,0c0.2,0.4,0.5,0.5,0.8,0.7
				c0.1,0.1,0.3,0.2,0.4,0.3c0.1,0.1,0,0.2,0,0.2c0-0.1,0.1-0.1,0.1-0.1C44.3,46.9,44.3,46.9,44.3,46.8c0.1-0.1,0.2-0.1,0.2-0.2
				c-0.2,0.1-0.2,0.1-0.4,0c-0.3-0.2-0.7-0.4-0.9-0.7c0,0-0.1,0-0.2,0l0,0c0,0,0.1,0,0.1,0l0,0c0,0,0,0,0,0c0,0,0,0,0,0
				c0.1,0.1,0.1,0.2,0.3,0.3C43.9,46.5,44.6,46.9,44.3,46.8z"/>
			<path d="M44.9,47.9c0.9,0.6,1.5,0.9,2,0.9c0.4,0.1,0.5,0,1.2-0.1c0.1,0,0.5,0,0.2-0.2c-0.3-0.2-0.7-0.2-1.1-0.3
				c-0.6-0.2-1.1-0.6-1.6-1c-0.4-0.3-0.6-0.6-0.9-0.7c-0.1,0-0.2,0-0.2,0c0,0.1-0.1,0.1-0.1,0.2c0,0.1,0,0.1-0.1,0.2
				c0,0-0.1,0.1-0.2,0.2c0,0,0,0,0,0.1C44.2,47.4,44.6,47.7,44.9,47.9z M46.4,47.9c0.9,0.6,1.7,0.4,1.9,0.7
				c-0.3-0.2-1.2-0.2-1.9-0.6c-1-0.6-1.5-1.4-1.9-1.3C44.8,46.4,45.5,47.3,46.4,47.9z"/>
		</g>
		<g>
			<path id="XMLID_147_" d="M59.9,54.2C59.6,54,59.2,54,59,54.1c0-0.1,0.1-0.2,0.1-0.2c-0.2,0.1-0.2,0.1-0.2,0.1
				c0-0.2,0.1-0.4,0.1-0.4c-0.1,0.1-0.2,0.1-0.2,0.1c-0.1-0.3,0.1-0.5,0.1-0.5c-0.1,0-0.2,0.1-0.3,0.2c0,0,0,0.1,0,0.1
				c0,0.1,0,0.3-0.1,0.4c0.1,0.1,0.2,0.2,0.2,0.3c0,0.2,0,0.3-0.1,0.4c0.1,0.1,0.2,0.2,0.2,0.3c0,0,0,0.1,0,0.1
				c0.1,0.1,0.3,0.1,0.4,0.1c0,0-0.3-0.1-0.3-0.5c0,0,0.1,0,0.2,0c0,0-0.1-0.2-0.2-0.4c0,0,0,0,0.2,0c0,0-0.1-0.1-0.2-0.2
				c0.2,0,0.5,0,0.8,0.1C59.8,54.3,59.9,54.3,59.9,54.2C59.9,54.2,59.9,54.2,59.9,54.2z"/>
			<path d="M58.6,54.6c0.1-0.1,0.2-0.3,0.2-0.4c0-0.2-0.1-0.3-0.3-0.3c0.1-0.1,0.2-0.2,0.1-0.4c0-0.2-0.3-0.4-0.5-0.4
				c-0.1,0-0.1,0-0.2,0.1c-0.1-0.1-0.3-0.2-0.4-0.2c-0.2,0-0.3,0.2-0.4,0.4c0,0,0,0-0.1,0c-0.2,0-0.4,0.2-0.4,0.4c0,0-0.1,0-0.1,0
				c-0.2,0-0.3,0.2-0.4,0.4c-0.2,0.1-0.4,0.3-0.3,0.5c0,0.2,0.2,0.4,0.5,0.4c0.1,0.2,0.3,0.3,0.5,0.3c0,0,0,0,0.1,0
				c0.1,0.2,0.3,0.3,0.5,0.3c0,0,0.1,0,0.1,0c0.1,0.2,0.3,0.3,0.5,0.2c0.2,0,0.3-0.2,0.3-0.3c0.1,0,0.1,0,0.2,0
				c0.2,0,0.4-0.3,0.4-0.5C58.8,54.7,58.7,54.6,58.6,54.6z M56.4,54.6c-0.1,0-0.1,0-0.1-0.1c0-0.1,0-0.1,0.1-0.2
				c0.1,0,0.1,0,0.1,0.1C56.6,54.5,56.5,54.6,56.4,54.6z M56.7,54.1c-0.1,0-0.1,0-0.2-0.1c0-0.1,0-0.1,0.1-0.2c0.1,0,0.1,0,0.2,0.1
				C56.9,54.1,56.8,54.1,56.7,54.1z M57,53.6c0-0.1,0-0.1,0.1-0.1c0.1,0,0.1,0,0.1,0.1c0,0.1,0,0.1-0.1,0.2
				C57.1,53.7,57.1,53.7,57,53.6z M57.3,54.3c-0.1,0-0.1,0-0.2-0.1c0-0.1,0-0.1,0.1-0.1c0.1,0,0.1,0,0.2,0.1
				C57.4,54.3,57.4,54.3,57.3,54.3z M57.6,53.3c0-0.1,0-0.1,0.1-0.1c0.1,0,0.1,0,0.2,0.1c0,0.1,0,0.1-0.1,0.1
				C57.7,53.4,57.6,53.4,57.6,53.3z M57.7,53.9c0-0.1,0-0.1,0.1-0.1c0.1,0,0.1,0,0.2,0.1c0,0.1,0,0.1-0.1,0.1
				C57.8,54,57.7,54,57.7,53.9z M58,54.7c-0.1,0-0.1,0-0.2-0.1c0-0.1,0-0.1,0.1-0.2c0.1,0,0.1,0,0.2,0.1C58.1,54.6,58,54.7,58,54.7z
				 M58.2,53.3c0-0.1,0-0.1,0.1-0.1c0.1,0,0.1,0,0.2,0.1c0,0.1,0,0.1-0.1,0.1C58.3,53.5,58.2,53.4,58.2,53.3z M58.5,54.2
				c-0.1,0-0.1,0-0.1-0.1c0-0.1,0-0.1,0.1-0.1c0.1,0,0.1,0,0.1,0.1C58.6,54.1,58.6,54.2,58.5,54.2z"/>
			<path id="XMLID_136_" d="M44,54.4c-0.1-0.1-0.1-0.3-0.1-0.4c0-0.1,0.1-0.3,0.2-0.3c-0.1-0.1-0.1-0.2-0.1-0.4c0,0,0-0.1,0-0.1
				C44,53.1,43.9,53,43.8,53c0,0,0.3,0.2,0.1,0.5c0,0-0.1-0.1-0.2-0.1c0,0,0.1,0.2,0.1,0.4c0,0,0,0-0.2-0.1c0,0,0.1,0.1,0.1,0.2
				c-0.2,0-0.6,0-0.9,0.1c0,0,0,0,0,0.1c0,0,0,0,0.1,0c0.2-0.1,0.6-0.1,0.8-0.1c-0.1,0.1-0.2,0.2-0.2,0.2c0.2,0,0.2,0,0.2,0
				c-0.1,0.2-0.2,0.4-0.2,0.4c0.1,0,0.2,0,0.2,0c0,0.3-0.3,0.5-0.3,0.5c0.1,0,0.2,0,0.4-0.1c0,0,0-0.1,0-0.1
				C43.9,54.6,43.9,54.5,44,54.4z"/>
			<path d="M46.5,54c0-0.2-0.2-0.4-0.4-0.4c0,0-0.1,0-0.1,0c0-0.2-0.2-0.4-0.4-0.4c0,0,0,0-0.1,0c0-0.2-0.2-0.3-0.4-0.4
				c-0.2,0-0.3,0-0.4,0.2c0,0-0.1-0.1-0.2-0.1c-0.2,0-0.5,0.1-0.5,0.4c0,0.2,0,0.3,0.1,0.4c-0.1,0.1-0.2,0.2-0.3,0.3
				c0,0.2,0,0.3,0.2,0.4c-0.1,0.1-0.2,0.2-0.3,0.3c0,0.2,0.1,0.5,0.4,0.5c0.1,0,0.1,0,0.2,0c0,0.2,0.2,0.3,0.3,0.3
				c0.2,0,0.4-0.1,0.5-0.2c0,0,0.1,0,0.1,0c0.2,0,0.4-0.1,0.5-0.3c0,0,0,0,0.1,0c0.2,0,0.4-0.1,0.5-0.3c0.2,0,0.4-0.1,0.5-0.4
				C46.9,54.3,46.7,54.1,46.5,54z M44.4,54c0,0.1-0.1,0.1-0.1,0.1c-0.1,0-0.1-0.1-0.1-0.2c0-0.1,0.1-0.1,0.2-0.1
				C44.4,53.9,44.5,53.9,44.4,54z M44.6,53.2c0,0.1-0.1,0.1-0.1,0.1c-0.1,0-0.1-0.1-0.1-0.2c0-0.1,0.1-0.1,0.1-0.1
				C44.5,53.1,44.6,53.2,44.6,53.2z M45,54.5c0,0.1-0.1,0.1-0.1,0.1c-0.1,0-0.1-0.1-0.1-0.2c0-0.1,0.1-0.1,0.2-0.1
				C44.9,54.3,45,54.4,45,54.5z M45.1,53.8c0,0.1-0.1,0.1-0.2,0.1c-0.1,0-0.1-0.1-0.1-0.2c0-0.1,0.1-0.1,0.2-0.1
				C45.1,53.6,45.1,53.7,45.1,53.8z M45.2,53.2c0,0.1-0.1,0.1-0.1,0.1c-0.1,0-0.1-0.1-0.1-0.2c0-0.1,0.1-0.1,0.2-0.1
				C45.2,53,45.2,53.1,45.2,53.2z M45.6,54.1c0,0.1-0.1,0.1-0.1,0.1c-0.1,0-0.1-0.1-0.1-0.2c0-0.1,0.1-0.1,0.2-0.1
				C45.6,54,45.6,54.1,45.6,54.1z M45.7,53.5c0,0.1-0.1,0.1-0.1,0.1c-0.1,0-0.1-0.1-0.1-0.1c0-0.1,0.1-0.1,0.2-0.1
				C45.7,53.4,45.8,53.4,45.7,53.5z M46.2,53.9c0,0.1-0.1,0.1-0.2,0.1c-0.1,0-0.1-0.1-0.1-0.2c0-0.1,0.1-0.1,0.2-0.1
				C46.2,53.8,46.2,53.9,46.2,53.9z M46.5,54.4c0,0.1-0.1,0.1-0.1,0.1c-0.1,0-0.1-0.1-0.1-0.1c0-0.1,0.1-0.1,0.1-0.1
				C46.5,54.2,46.5,54.3,46.5,54.4z"/>
		</g>
		<g>
			<path d="M40.8,35.9c-0.3,0-0.4,0-0.4,0s0.3,0.2,0.6,0.5c0.1,0.1,0.2,0.2,0.3,0.3c0,0-0.1,0-0.1,0c-0.3,0-0.6,0-0.6,0
				s0.8,0.3,1.6,0.7c0,0,0,0,0.1,0c0,0,0,0,0,0c0,0,0,0,0-0.1l0,0l0,0c0,0,0,0,0,0c0,0,0,0,0.1,0c0,0,0.1,0,0.1-0.1c0,0,0,0,0,0
				l0.1-0.1c0,0,0,0,0,0c0,0,0,0,0.1,0c0,0,0,0.1,0,0.1c0,0,0.1,0,0.1,0c0,0,0-0.1,0-0.1c0,0,0,0,0,0l0.1-0.1c0,0,0,0,0,0
				c0,0,0,0,0,0c0,0,0,0,0,0c0,0-0.1-0.1-0.1-0.1c0,0,0,0.1,0,0.1l-0.1,0.1c0,0,0,0,0,0c0,0,0,0,0,0c0,0-0.1,0-0.1,0
				c-0.1,0-0.1-0.1,0-0.1c0,0,0,0,0,0l0.1-0.1c0,0,0,0,0,0c0,0,0,0,0,0h0c0,0,0.1,0,0.1,0c0,0,0,0,0,0c0,0-0.1-0.1-0.1-0.1
				c0,0,0,0,0,0c0,0,0,0,0,0c0,0,0,0,0,0c0,0,0,0,0-0.1l0,0.1c0,0,0,0,0,0c0,0,0-0.1-0.1-0.1c0,0,0,0,0,0l0.1-0.1c0,0,0,0,0,0
				c0,0,0,0,0,0c0,0,0,0,0-0.1c0,0,0,0,0,0c0,0,0-0.1-0.1-0.1c0,0,0,0-0.1,0h0l0,0c0,0,0.1,0,0.1,0c0,0,0-0.1,0-0.1
				c0,0-0.1-0.1-0.1-0.1c-1-0.7-2.4-1.1-2.4-1.1s0.1,0.2,0.3,0.4C40.5,35.6,40.6,35.8,40.8,35.9z M41.1,36.3
				C41.1,36.3,41.1,36.3,41.1,36.3C41.1,36.3,41.1,36.3,41.1,36.3C41.1,36.2,41,36.2,41.1,36.3c-0.1-0.1-0.1-0.1-0.1-0.2l0-0.1
				c0,0,0,0,0.1,0c0,0,0,0,0,0l0,0C41.1,36.2,41.1,36.2,41.1,36.3z M41.2,36.5C41.2,36.5,41.2,36.5,41.2,36.5c-0.1,0-0.1-0.1,0-0.2
				c0,0,0,0,0,0c0,0,0.1,0,0.1,0C41.3,36.4,41.3,36.5,41.2,36.5C41.3,36.5,41.2,36.5,41.2,36.5z M42.1,36.6
				C42.1,36.5,42.1,36.5,42.1,36.6C42.1,36.5,42.1,36.5,42.1,36.6c0.1,0,0.1,0,0.2,0c0.1,0,0.1,0.1,0,0.2l-0.1,0.1c0,0,0,0,0,0
				c0,0,0,0,0,0c0,0-0.1,0-0.1,0c-0.1,0-0.1-0.1,0-0.2L42.1,36.6z M42.1,36.4C42.1,36.4,42.1,36.4,42.1,36.4l0.1-0.1c0,0,0,0,0,0
				c0,0,0,0,0.1,0c0,0,0,0,0,0c0,0,0,0.1,0,0.1l-0.1,0.1C42.2,36.5,42.1,36.5,42.1,36.4C42.1,36.5,42.1,36.5,42.1,36.4
				C42.1,36.4,42.1,36.4,42.1,36.4z M41.7,36.8L41.7,36.8c0.1-0.1,0.2,0,0.2-0.1c0,0,0,0,0,0.1l-0.1,0.1c0,0,0,0,0,0
				c0,0-0.1,0-0.1,0C41.7,36.9,41.7,36.8,41.7,36.8z M41.7,36.7C41.7,36.7,41.7,36.7,41.7,36.7c-0.1,0-0.1,0-0.1,0
				c0,0-0.1-0.1,0-0.1l0,0c0,0,0.1,0,0.1,0c0,0,0,0,0,0C41.7,36.6,41.7,36.6,41.7,36.7L41.7,36.7z M42,36.9L42,36.9
				C42,36.9,42,36.9,42,36.9c0.1,0,0.2,0,0.2,0L42.1,37c0,0-0.1,0-0.1,0C41.9,37,41.9,36.9,42,36.9z M42,36.5L42,36.5
				C42,36.6,41.9,36.6,42,36.5c-0.1,0.1-0.1,0.1-0.1,0.1c0,0-0.1,0-0.1,0c0,0-0.1-0.1,0-0.1l0.1-0.1c0,0,0,0,0,0c0,0,0,0,0,0
				c0,0,0,0,0.1,0C42,36.4,42,36.5,42,36.5z M41.8,36.4L41.8,36.4c-0.1,0.1-0.1,0.1-0.1,0.1c0,0,0,0,0,0c0,0-0.1,0-0.1,0
				c0,0-0.1-0.1,0-0.1l0.1-0.1c0,0,0,0,0,0c0,0,0,0,0,0c0,0,0.1,0,0.1,0C41.8,36.3,41.8,36.3,41.8,36.4z M41.5,36.2L41.5,36.2
				C41.5,36.3,41.5,36.3,41.5,36.2C41.5,36.3,41.5,36.3,41.5,36.2c-0.1,0.1-0.1,0.1-0.1,0.1c0,0,0,0,0-0.1l0,0c0,0,0,0,0,0
				c0,0,0,0,0,0L41.5,36.2c-0.1-0.1-0.1-0.1-0.1-0.1c0,0,0,0,0.1,0C41.6,36.1,41.6,36.2,41.5,36.2z M41.5,36.5L41.5,36.5
				C41.5,36.5,41.5,36.5,41.5,36.5c-0.1,0-0.1,0-0.1,0c0,0-0.1-0.1,0-0.1l0,0c0,0,0.1,0,0.1,0C41.5,36.4,41.5,36.4,41.5,36.5z
				 M41.4,36.1L41.4,36.1C41.3,36.1,41.3,36.1,41.4,36.1C41.3,36.1,41.3,36.1,41.4,36.1c-0.1,0.1-0.1,0.1-0.1,0.1c0,0-0.1-0.1,0-0.1
				l0-0.1c0,0,0,0,0,0c0,0,0,0,0,0C41.3,35.9,41.3,35.9,41.4,36.1C41.4,36,41.4,36,41.4,36.1z M41.3,36.2
				C41.3,36.2,41.3,36.3,41.3,36.2C41.3,36.3,41.3,36.3,41.3,36.2c-0.1,0-0.1,0-0.1,0L41.3,36.2C41.2,36.2,41.2,36.2,41.3,36.2
				C41.2,36.2,41.3,36.2,41.3,36.2z M41.4,36.7C41.4,36.7,41.4,36.7,41.4,36.7c-0.1-0.1-0.1-0.1-0.1-0.2l0,0c0,0,0,0,0,0
				c0,0,0,0,0,0c0,0,0.1,0,0.1,0c0,0,0,0.1,0,0.1C41.5,36.7,41.5,36.7,41.4,36.7C41.4,36.7,41.4,36.7,41.4,36.7z M41.6,36.9
				C41.6,36.9,41.6,36.9,41.6,36.9c-0.1-0.1-0.1-0.1-0.1-0.2c0,0,0,0,0,0l0,0c0,0,0,0,0,0c0,0,0.1,0,0.1,0
				C41.7,36.8,41.7,36.9,41.6,36.9C41.7,36.9,41.7,36.9,41.6,36.9C41.6,36.9,41.6,36.9,41.6,36.9z M41.7,37.1c-0.1,0-0.1-0.1,0-0.2
				l0,0c0,0,0,0,0,0c0,0,0.1,0,0.1,0c0,0,0,0.1,0,0.1l0,0C41.9,37.1,41.8,37.1,41.7,37.1z M41.9,37.3c-0.1,0-0.1-0.1,0-0.2l0,0
				c0,0,0,0,0,0c0,0,0.1,0,0.1,0c0,0,0,0.1,0,0.1l0,0l0,0C42,37.3,42,37.3,41.9,37.3z M42.3,37.4C42.3,37.4,42.3,37.4,42.3,37.4
				c0,0.1-0.1,0.1-0.2,0c-0.1,0-0.1-0.1,0-0.2l0,0l0,0c0,0,0,0,0,0c0,0,0.1,0,0.1,0C42.3,37.3,42.3,37.4,42.3,37.4L42.3,37.4z
				 M42.3,37.2C42.3,37.2,42.3,37.2,42.3,37.2c-0.1,0-0.1,0-0.1,0c0,0-0.1-0.1,0-0.1l0.1-0.1c0,0,0,0.1,0.1,0.1
				C42.3,37.1,42.3,37.1,42.3,37.2L42.3,37.2z M42.6,37.2C42.6,37.2,42.6,37.2,42.6,37.2l-0.1,0.1c0,0,0,0,0,0c0,0-0.1,0-0.1,0
				c0,0-0.1-0.1,0-0.1l0.1-0.1c0,0,0,0,0,0C42.5,37.2,42.5,37.2,42.6,37.2z M42.5,36.7c0.1,0,0.1,0.1,0,0.2L42.5,37c0,0,0,0,0,0
				c0,0,0,0,0,0c0,0-0.1,0-0.1,0c-0.1,0-0.1-0.1,0-0.2l0.1-0.1c0,0,0,0,0,0c0,0,0,0,0,0C42.4,36.7,42.5,36.7,42.5,36.7z M42.5,36.4
				c0,0,0,0.1,0,0.1l-0.1,0.1c0,0,0,0,0,0c0,0,0,0,0,0c0,0,0,0,0,0c0-0.1,0-0.1-0.1-0.1l0.1-0.1C42.4,36.4,42.4,36.4,42.5,36.4
				C42.4,36.4,42.4,36.4,42.5,36.4C42.4,36.4,42.4,36.4,42.5,36.4z M42.2,36.2c0,0,0.1,0,0.2,0c0.1,0,0.1,0.1,0,0.2l0,0
				c0,0-0.1,0-0.1,0C42.3,36.3,42.3,36.3,42.2,36.2C42.3,36.2,42.2,36.2,42.2,36.2C42.2,36.2,42.2,36.2,42.2,36.2L42.2,36.2z
				 M42,36.1c0,0,0.1,0,0.2,0c0,0,0.1,0.1,0.1,0.1c0,0-0.1,0-0.1,0C42.1,36.2,42.1,36.1,42,36.1C42,36.1,42,36.1,42,36.1
				C42,36.1,42,36.1,42,36.1L42,36.1z M42,36.1c0,0,0,0.1,0,0.1L42,36.3c0,0,0,0-0.1,0c0,0,0,0-0.1,0c0,0,0-0.1,0-0.1l0.1-0.1
				C41.9,36.1,41.9,36.1,42,36.1L42,36.1C41.9,36.1,42,36.1,42,36.1C42,36.1,42,36.1,42,36.1z M41.9,35.9c0,0,0.1,0.1,0.1,0.1
				c0,0-0.1,0-0.1,0C41.9,36,41.9,36,41.9,35.9c-0.1,0-0.1,0-0.1,0c0,0,0,0,0,0C41.8,35.9,41.9,35.9,41.9,35.9z M41.8,36
				C41.8,36,41.8,36,41.8,36c0.1,0,0.1,0.1,0.1,0.1l0,0.1c0,0-0.1,0-0.1,0c0,0,0,0,0,0c0,0,0,0,0-0.1L41.8,36
				C41.7,36,41.7,36,41.8,36C41.7,36,41.7,36,41.8,36z M41.7,35.8C41.7,35.9,41.7,35.9,41.7,35.8c0,0.1,0,0.1,0,0.1
				c0,0,0-0.1-0.1-0.1c0,0,0,0,0,0C41.6,35.8,41.6,35.8,41.7,35.8z M41.5,35.9C41.5,35.9,41.5,35.9,41.5,35.9
				C41.6,35.9,41.6,36,41.5,35.9l0,0.1c0,0-0.1,0-0.1,0c0,0,0-0.1,0-0.1L41.5,35.9C41.5,35.9,41.5,35.9,41.5,35.9
				C41.5,35.9,41.5,35.9,41.5,35.9z M41.3,35.8c0,0,0.1,0,0.1,0c0,0,0,0,0,0C41.4,35.8,41.4,35.8,41.3,35.8L41.3,35.8
				C41.4,35.9,41.3,35.9,41.3,35.8C41.3,35.9,41.3,35.8,41.3,35.8L41.3,35.8z M41.2,35.7c0,0,0.1,0,0.1,0c0,0,0,0.1,0,0.1
				c0,0,0,0,0,0C41.2,35.8,41.2,35.8,41.2,35.7C41.2,35.8,41.2,35.8,41.2,35.7C41.2,35.7,41.2,35.7,41.2,35.7
				C41.2,35.7,41.2,35.7,41.2,35.7L41.2,35.7z M41.1,35.9C41.1,35.8,41.1,35.8,41.1,35.9C41.2,35.8,41.2,35.8,41.1,35.9
				C41.2,35.8,41.2,35.8,41.1,35.9c0.1,0,0.1,0,0.1,0c0,0,0,0,0,0c0,0,0,0,0,0C41.2,35.9,41.2,35.9,41.1,35.9l0,0.1c0,0,0,0,0,0
				c0,0,0,0,0,0C41.1,36,41.1,35.9,41.1,35.9L41.1,35.9z M41,35.8L41,35.8C41,35.8,41,35.8,41,35.8C41,35.8,41,35.8,41,35.8
				C41,35.7,41.1,35.7,41,35.8c0.1,0,0.1,0,0.1,0C41.1,35.8,41.1,35.8,41,35.8L41,35.8C41,35.9,41,35.9,41,35.8
				C41,35.9,41,35.9,41,35.8C41,35.9,41,35.8,41,35.8z M41,36L41,36C41,35.9,41,35.9,41,36C41,36,41,36,41,36c0.1,0,0.1,0.1,0.1,0.1
				c0,0-0.1,0-0.1,0C40.9,36,40.9,36,41,36z"/>
			<path id="XMLID_90_" d="M43.1,37.3C43.1,37.3,43.1,37.3,43.1,37.3L43.1,37.3C43,37.3,43.1,37.3,43.1,37.3L43.1,37.3z"/>
			<path id="XMLID_89_" d="M42.2,37.7C42.2,37.7,42.2,37.7,42.2,37.7c0.2,0,0.4,0.1,0.7,0.3c0.5,0.4,0.9,0.5,1.1,0.4c0,0,0,0,0.1,0
				c0,0,0,0,0,0c0,0,0,0,0,0c-0.1-0.1-0.2-0.3-0.8-0.8c0,0-0.1-0.1-0.1-0.1c0,0,0,0-0.1,0c-0.3,0-0.5,0-0.7,0.1
				C42.3,37.6,42.2,37.6,42.2,37.7z"/>
			<path id="XMLID_88_" d="M42.8,36.1c0.1,0.1,0.1,0.3,0.3,0.5c-0.3-0.4-0.2-0.7-0.2-0.7S42.9,35.9,42.8,36.1z"/>
			<path id="XMLID_87_" d="M43.4,37.5c0.5,0.4,0.7,0.7,0.8,0.8c0,0,0-0.1,0-0.1c0.2-0.3,0.2-0.6-0.8-1.3c-0.6-0.4-0.7-0.8-0.7-1
				C42.6,36.1,42.5,36.8,43.4,37.5z"/>
		</g>
		<g>
			<path d="M48.5,56.6c-0.6,0-0.8-0.3-0.9-0.5c-0.1-0.3,0.1-0.6,0.2-0.7c0.8-0.4,1.6-0.9,2.4-1.4c-0.2-0.1-0.3-0.2-0.5-0.4
				c-0.4,0.4-0.9,0.5-1.4,0.5c-1,0-1.9-0.8-2-1.8l-4.3-0.1c-0.6,0-1.3-1-1.4-1.2l-0.6,0l0,0l-1.6-0.1c0,0-0.1,0.1-0.2,0.1l-0.2,0
				c-0.1,0-0.3-0.1-0.3-0.2l0-0.7c0-0.1,0.1-0.2,0.3-0.2l0.2,0c0.1,0,0.1,0,0.2,0.1l1.6,0.1l0,0l0.6,0c0.1-0.2,0.9-1.1,1.5-1.1
				l6.7,0.2c0.3,0,0.5,0.3,0.6,0.8c0.2,0,0.3,0.1,0.5,0.4c0,0,0,0,0,0c0.2,0,0.3,0.1,0.3,0.3c0,0.2-0.2,0.2-0.2,0.2c0,0,0,0-0.1,0
				c0.3,0.3,0.4,0.7,0.4,1.2c0.3,0.3,0.7,0.7,1,1c0.3-0.3,0.6-0.6,0.9-0.9c0-0.4,0.2-0.8,0.4-1.2c0,0,0,0-0.1,0c0,0-0.2,0-0.2-0.2
				c0-0.2,0.1-0.3,0.3-0.3c0,0,0,0,0,0c0.1-0.3,0.3-0.4,0.5-0.4c0.1-0.5,0.3-0.8,0.6-0.8l6.7-0.2c0.6,0,1.4,0.9,1.5,1.1l0.6,0l0,0
				l1.6-0.1c0,0,0.1-0.1,0.2-0.1l0.2,0c0,0,0,0,0,0c0.2,0,0.3,0.1,0.3,0.2l0,0.7c0,0.1-0.1,0.2-0.3,0.2l-0.2,0c0,0,0,0,0,0
				c-0.1,0-0.1,0-0.2-0.1L62.8,51l0,0l-0.6,0c-0.1,0.2-0.8,1.2-1.4,1.2l-4.3,0.1c-0.1,1-1,1.8-2,1.8c-0.5,0-1-0.2-1.4-0.5
				c-0.1,0.1-0.2,0.2-0.3,0.3c0.7,0.5,1.5,1,2.2,1.3c0.2,0.1,0.3,0.4,0.2,0.7c0,0.2-0.3,0.6-1,0.5c-0.4,0-1.2-0.6-2.6-1.6
				c-1.5,1.1-2.4,1.7-2.8,1.7C48.6,56.6,48.6,56.6,48.5,56.6z M49.8,53.4L49.8,53.4c0.2,0.2,0.4,0.3,0.6,0.5l0.1,0.1L50.4,54
				c-0.8,0.6-1.6,1.1-2.4,1.5c-0.1,0.1-0.2,0.3-0.2,0.5c0.1,0.3,0.3,0.4,0.7,0.4c0.1,0,0.1,0,0.2,0c0.3,0,0.9-0.3,2.8-1.7l0,0l0,0
				c1.7,1.3,2.4,1.6,2.6,1.6c0.1,0,0.1,0,0.2,0c0.4,0,0.7-0.1,0.7-0.4c0.1-0.2-0.1-0.5-0.2-0.5c-0.8-0.4-1.5-0.8-2.3-1.4l-0.1-0.1
				l0.1-0.1c0.1-0.1,0.3-0.2,0.4-0.3l0,0l0,0c0.4,0.4,0.8,0.6,1.3,0.6c1,0,1.8-0.8,1.9-1.8l0-0.1l4.4-0.1c0.6,0,1.4-1.2,1.4-1.2l0,0
				l0.8,0l0,0l1.6-0.1l0,0c0,0,0.1,0,0.1,0l0.2,0c0.1,0,0.1,0,0.1-0.1l0-0.7c0-0.1-0.1-0.1-0.1-0.1l-0.2,0c0,0-0.1,0-0.1,0.1l0,0
				l-1.6,0.1l0,0l-0.8,0l0,0c0,0-0.9-1.1-1.4-1.1l-6.7,0.2c-0.2,0-0.4,0.3-0.5,0.7l0,0l0,0c-0.1,0-0.3,0.1-0.4,0.4l0,0.1l-0.1,0
				c0,0,0,0-0.1,0c-0.1,0-0.1,0-0.1,0.2c0,0.1,0,0.1,0.1,0.1c0,0,0.1,0,0.1,0l0.1-0.1l0,0.1c0,0,0,0,0,0.1l0,0l0,0
				c-0.3,0.3-0.4,0.7-0.4,1.1l0,0l0,0c-0.3,0.3-0.6,0.6-1,0.9l0,0l0,0c-0.4-0.3-0.8-0.7-1.1-1l0,0l0,0c0-0.4-0.2-0.8-0.4-1.1l0,0
				l0,0c0-0.1,0-0.1,0-0.1l0-0.1l0.1,0.1c0,0,0.1,0,0.1,0c0,0,0.1,0,0.1-0.1c0-0.1,0-0.2-0.1-0.2c0,0-0.1,0-0.1,0l-0.1,0l0-0.1
				c-0.1-0.3-0.3-0.4-0.4-0.4l0,0l0,0c-0.1-0.4-0.3-0.7-0.5-0.7L42.2,49c-0.6,0-1.4,1.1-1.4,1.1l0,0l-0.8,0l0,0L38.4,50l0,0
				c0,0-0.1,0-0.1-0.1l-0.2,0h0c-0.1,0-0.1,0-0.1,0.1l0,0.7c0,0.1,0.1,0.1,0.1,0.1l0.2,0h0c0,0,0.1,0,0.1,0l0,0l1.6,0.1l0,0l0.8,0
				l0,0c0,0,0.8,1.1,1.4,1.2l4.4,0.1l0,0.1c0.1,1,0.9,1.8,1.9,1.8C48.9,54,49.4,53.8,49.8,53.4L49.8,53.4z M54.4,54.1
				c-0.5,0-1-0.2-1.3-0.5c-0.4-0.4-0.6-0.8-0.6-1.4c0-0.1,0-0.2,0-0.3c0-0.3,0.1-0.6,0.3-0.8c0.1-0.2,0.2-0.3,0.4-0.4
				c0.2-0.2,0.4-0.3,0.7-0.3c0.2,0,0.3-0.1,0.5-0.1c1,0,1.9,0.8,1.9,1.9c0,0.1,0,0.1,0,0.2C56.2,53.3,55.4,54.1,54.4,54.1z
				 M54.4,50.4c-0.1,0-0.3,0-0.4,0.1c-0.2,0.1-0.4,0.2-0.6,0.3c-0.2,0.1-0.3,0.2-0.4,0.4c-0.2,0.2-0.3,0.5-0.3,0.8
				c0,0.1,0,0.2,0,0.2c0,0.5,0.2,0.9,0.5,1.3c0.3,0.3,0.8,0.5,1.2,0.5c0.9,0,1.7-0.7,1.7-1.6c0,0,0-0.1,0-0.1
				C56.2,51.2,55.4,50.4,54.4,50.4z M48.4,53.9c-1,0-1.8-0.8-1.9-1.7c0-0.1,0-0.1,0-0.2c0-1,0.8-1.9,1.9-1.9c0.2,0,0.3,0,0.5,0.1
				c0.2,0.1,0.5,0.2,0.7,0.3c0.2,0.1,0.3,0.3,0.4,0.4c0.2,0.2,0.3,0.5,0.3,0.8c0,0.1,0,0.2,0,0.3c0,0.5-0.2,1-0.6,1.4
				C49.3,53.8,48.9,53.9,48.4,53.9z M48.4,50.3c-1,0-1.7,0.8-1.7,1.7c0,0,0,0.1,0,0.1c0.1,0.9,0.8,1.6,1.7,1.6
				c0.5,0,0.9-0.2,1.2-0.5c0.3-0.3,0.5-0.8,0.5-1.3c0-0.1,0-0.1,0-0.2c0-0.3-0.1-0.5-0.3-0.8c-0.1-0.2-0.2-0.3-0.4-0.4
				c-0.2-0.1-0.4-0.2-0.6-0.3C48.7,50.3,48.5,50.3,48.4,50.3z"/>
			<path d="M54.2,51.9c0,0-0.1,0-0.1-0.1l-0.6-0.6c-0.1-0.1-0.1-0.1-0.1-0.2c0-0.1,0.1-0.2,0.1-0.2l0.6-0.2c0,0,0.1,0,0.1,0
				c0.1,0,0.2,0.1,0.3,0.2l0,0v0.9c0,0.1,0,0.1,0,0.1C54.3,51.9,54.3,51.9,54.2,51.9z M54.1,50.6C54.1,50.6,54.1,50.6,54.1,50.6
				l-0.6,0.2c0,0-0.1,0.1-0.1,0.1c0,0,0,0.1,0,0.1l0.6,0.6c0,0,0,0,0.1,0c0,0,0,0,0-0.1v-0.9C54.2,50.7,54.2,50.6,54.1,50.6z"/>
			<path d="M54.6,51.9L54.6,51.9c-0.1,0-0.1-0.1-0.1-0.2v-0.9c0-0.2,0.1-0.3,0.3-0.3l0.6,0.2c0.1,0.1,0.1,0.1,0.1,0.2
				c0,0.1,0,0.2-0.1,0.2l-0.7,0.7C54.7,51.8,54.6,51.9,54.6,51.9z M54.7,50.6c-0.1,0-0.1,0.1-0.1,0.1v0.9c0,0,0,0.1,0,0.1
				c0,0,0,0,0.1,0l0.7-0.7c0,0,0-0.1,0-0.1c0,0,0-0.1-0.1-0.1L54.7,50.6C54.7,50.6,54.7,50.6,54.7,50.6z"/>
			<path d="M53.2,53.2L53.2,53.2c-0.1,0-0.2,0-0.2-0.1l-0.2-0.6c0-0.1,0-0.2,0-0.2c0-0.1,0.1-0.1,0.2-0.1h0.9c0.1,0,0.2,0.1,0.2,0.1
				c0,0,0,0.1,0,0.2c0,0,0,0,0,0l-0.7,0.7C53.3,53.2,53.3,53.2,53.2,53.2z M53,52.3c0,0-0.1,0-0.1,0c0,0,0,0.1,0,0.1l0.2,0.5
				c0,0,0.1,0.1,0.1,0.1l0,0c0,0,0.1,0,0.1,0l0.7-0.7c0,0,0,0,0,0c0,0,0,0,0,0c0,0,0,0-0.1,0H53z"/>
			<path d="M53.9,52.1H53c-0.1,0-0.2,0-0.2-0.1c0-0.1-0.1-0.1,0-0.2l0.2-0.6c0.1-0.2,0.3-0.2,0.4-0.1l0,0l0.6,0.6
				c0.1,0.1,0.1,0.2,0.1,0.2C54.1,52.1,54.1,52.1,53.9,52.1z M53.2,51.2c0,0-0.1,0-0.1,0.1l0,0l-0.2,0.5c0,0,0,0.1,0,0.1
				c0,0,0.1,0,0.1,0h0.9c0,0,0.1,0,0.1,0c0,0,0,0,0-0.1L53.2,51.2C53.3,51.3,53.2,51.2,53.2,51.2z"/>
			<path d="M55.6,53.2L55.6,53.2c-0.1,0-0.1,0-0.2-0.1l-0.7-0.7c0,0,0,0-0.1-0.1c0-0.1,0-0.1,0-0.1c0,0,0.1-0.1,0.2-0.1h0.9
				c0.1,0,0.2,0,0.2,0.1c0,0.1,0.1,0.1,0,0.2l-0.2,0.6C55.8,53.2,55.7,53.2,55.6,53.2z M54.8,52.3C54.8,52.3,54.8,52.3,54.8,52.3
				C54.8,52.4,54.9,52.4,54.8,52.3l0.7,0.7c0,0,0.1,0,0.1,0l0,0c0,0,0.1,0,0.1-0.1l0.2-0.6c0,0,0-0.1,0-0.1c0,0-0.1-0.1-0.1-0.1
				L54.8,52.3C54.9,52.3,54.8,52.3,54.8,52.3C54.8,52.3,54.8,52.3,54.8,52.3z"/>
			<path d="M54.1,53.8L54.1,53.8C54.1,53.8,54.1,53.8,54.1,53.8l-0.6-0.2c-0.1-0.1-0.1-0.1-0.1-0.2c0-0.1,0-0.2,0.1-0.2l0.7-0.7
				c0.1-0.1,0.2-0.1,0.3,0c0,0,0,0.1,0,0.1v0.9c0,0.1,0,0.1-0.1,0.2C54.3,53.8,54.2,53.8,54.1,53.8z M54.2,52.6
				C54.2,52.6,54.2,52.6,54.2,52.6l-0.7,0.7c0,0-0.1,0.1-0.1,0.1c0,0,0,0.1,0.1,0.1l0.6,0.2c0,0,0,0,0,0l0,0c0,0,0.1,0,0.1,0
				c0,0,0-0.1,0-0.1L54.2,52.6C54.3,52.6,54.2,52.6,54.2,52.6C54.2,52.6,54.2,52.6,54.2,52.6z"/>
			<path d="M55.8,52.1h-0.9c-0.1,0-0.2-0.1-0.2-0.1c0,0,0-0.1,0.1-0.2l0.7-0.7c0.1-0.1,0.3-0.1,0.4,0l0.2,0.6c0,0.1,0,0.2,0,0.2
				C56,52.1,55.9,52.1,55.8,52.1z M54.8,52C54.8,52,54.8,52,54.8,52l1,0c0,0,0.1,0,0.1,0c0,0,0-0.1,0-0.1l-0.2-0.5
				c0-0.1-0.1-0.1-0.2,0L54.8,52C54.8,52,54.8,52,54.8,52L54.8,52z"/>
			<path d="M54.7,53.8L54.7,53.8c-0.1,0-0.3-0.1-0.3-0.3v-0.9c0-0.1,0.1-0.2,0.1-0.2c0,0,0.1,0,0.1,0.1l0.7,0.7
				c0.1,0.1,0.1,0.1,0.1,0.2c0,0.1-0.1,0.1-0.1,0.2L54.7,53.8C54.7,53.8,54.7,53.8,54.7,53.8z M54.6,52.6
				C54.6,52.6,54.6,52.6,54.6,52.6l0,1c0,0.1,0,0.1,0.1,0.1c0,0,0,0,0,0c0,0,0,0,0,0l0.6-0.2c0,0,0.1-0.1,0.1-0.1c0,0,0-0.1,0-0.1
				L54.6,52.6C54.6,52.6,54.6,52.6,54.6,52.6z"/>
			<path d="M48.5,51.8L48.5,51.8c-0.1,0-0.1-0.1-0.1-0.2l0-0.9c0-0.1,0.1-0.2,0.3-0.2c0,0,0,0,0.1,0l0.6,0.2
				c0.1,0.1,0.1,0.1,0.1,0.2c0,0.1,0,0.2-0.1,0.2l-0.6,0.6C48.6,51.7,48.6,51.8,48.5,51.8z M48.7,50.5c-0.1,0-0.1,0-0.1,0.1l0,0.9
				c0,0,0,0.1,0,0.1c0,0,0,0,0.1,0l0.6-0.6c0,0,0-0.1,0-0.1c0,0,0-0.1-0.1-0.1L48.7,50.5C48.7,50.5,48.7,50.5,48.7,50.5z"/>
			<path d="M48.2,51.8L48.2,51.8c0,0-0.1,0-0.1-0.1L47.4,51c-0.1-0.1-0.1-0.1-0.1-0.2c0-0.1,0.1-0.1,0.1-0.2l0.6-0.2
				c0,0,0.1,0,0.1,0c0.1,0,0.3,0.1,0.3,0.3v0.9c0,0.1,0,0.1,0,0.1C48.3,51.7,48.3,51.8,48.2,51.8z M48.1,50.5
				C48.1,50.5,48.1,50.5,48.1,50.5l-0.6,0.2c0,0-0.1,0.1-0.1,0.1c0,0,0,0.1,0,0.1l0.7,0.7c0,0,0,0,0.1,0c0,0,0,0,0-0.1v-0.9
				C48.2,50.6,48.2,50.5,48.1,50.5z"/>
			<path d="M49.6,53.1L49.6,53.1c-0.1,0-0.1,0-0.2-0.1l-0.7-0.7c0,0,0,0,0,0c-0.1-0.1,0-0.1,0-0.2c0,0,0.1-0.1,0.2-0.1h0.9
				c0.1,0,0.2,0,0.2,0.1c0,0.1,0.1,0.1,0,0.2L49.8,53C49.8,53.1,49.7,53.1,49.6,53.1z M48.8,52.2C48.8,52.2,48.8,52.2,48.8,52.2
				C48.8,52.3,48.8,52.3,48.8,52.2l0.7,0.7c0.1,0.1,0.2,0.1,0.2,0l0.2-0.5c0,0,0-0.1,0-0.1c0,0-0.1,0-0.1,0L48.8,52.2
				C48.8,52.2,48.8,52.2,48.8,52.2z"/>
			<path d="M49.8,52h-0.9c-0.1,0-0.2-0.1-0.2-0.1c0,0,0-0.1,0.1-0.2l0.6-0.6c0.1-0.1,0.3-0.1,0.4,0l0,0l0.2,0.5c0,0.1,0,0.2,0,0.2
				C49.9,52,49.9,52,49.8,52z M48.8,51.9C48.8,51.9,48.8,51.9,48.8,51.9l1,0c0,0,0.1,0,0.1,0c0,0,0-0.1,0-0.1l-0.2-0.5
				c0-0.1-0.1-0.1-0.2,0L48.8,51.9C48.8,51.9,48.8,51.9,48.8,51.9L48.8,51.9z"/>
			<path d="M47.2,53.1L47.2,53.1c-0.1,0-0.2,0-0.2-0.1l-0.2-0.6c0-0.1,0-0.2,0-0.2c0-0.1,0.1-0.1,0.2-0.1h0.9c0.1,0,0.2,0,0.2,0.1
				c0,0,0,0.1,0,0.1c0,0,0,0-0.1,0.1L47.4,53C47.3,53.1,47.2,53.1,47.2,53.1z M47,52.2c0,0-0.1,0-0.1,0.1c0,0,0,0.1,0,0.1l0.2,0.6
				c0,0.1,0.1,0.1,0.2,0l0.7-0.7c0,0,0,0,0,0c0,0,0,0,0,0c0,0,0,0-0.1,0H47z"/>
			<path d="M48.7,53.7L48.7,53.7c-0.1,0-0.3-0.1-0.3-0.3v-0.9c0,0,0-0.1,0-0.1c0-0.1,0.2-0.1,0.3,0l0.7,0.7c0.1,0.1,0.1,0.1,0.1,0.2
				c0,0.1-0.1,0.2-0.1,0.2L48.7,53.7C48.7,53.7,48.7,53.7,48.7,53.7z M48.5,52.5C48.5,52.5,48.5,52.5,48.5,52.5l0,1
				c0,0.1,0,0.1,0.1,0.1l0,0c0,0,0,0,0,0l0.6-0.2c0,0,0.1-0.1,0.1-0.1c0,0,0-0.1,0-0.1L48.5,52.5C48.6,52.5,48.6,52.5,48.5,52.5z"/>
			<path d="M47.9,52H47c-0.1,0-0.2,0-0.2-0.1c0-0.1-0.1-0.1,0-0.2l0.2-0.6c0.1-0.2,0.3-0.2,0.4-0.1l0.7,0.7c0.1,0.1,0.1,0.2,0.1,0.2
				C48.1,52,48,52,47.9,52z M47.2,51.1c0,0-0.1,0-0.1,0.1l-0.2,0.5c0,0,0,0.1,0,0.1c0,0,0.1,0,0.1,0h0.9c0,0,0.1,0,0.1,0
				c0,0,0,0,0-0.1L47.2,51.1C47.2,51.1,47.2,51.1,47.2,51.1z"/>
			<path d="M48.1,53.7L48.1,53.7C48.1,53.7,48,53.7,48.1,53.7l-0.6-0.2c-0.1-0.1-0.1-0.1-0.1-0.2c0-0.1,0-0.2,0.1-0.2l0.7-0.7
				c0.1-0.1,0.1-0.1,0.1-0.1c0.1,0,0.1,0.1,0.1,0.2v0.9c0,0.1,0,0.1-0.1,0.2C48.2,53.7,48.2,53.7,48.1,53.7z M48.2,52.5
				C48.2,52.5,48.2,52.5,48.2,52.5l-0.7,0.7c0,0,0,0.1,0,0.1c0,0,0,0.1,0.1,0.1l0.6,0.2c0,0,0,0,0,0l0,0c0,0,0.1,0,0.1,0
				c0,0,0-0.1,0-0.1L48.2,52.5C48.2,52.5,48.2,52.5,48.2,52.5z"/>
		</g>
		<g>
			<path d="M71.9,34.4c-0.1,0-0.2,0-0.3,0.1c-1,0.6-2.8,1.8-5.3,3.5c0-0.1-0.1-0.2-0.1-0.3c0-0.1-0.1-0.2-0.2-0.1l0.1-0.2l-0.4,0.2
				l0.2,0.1c-0.2,0.2-0.1,0.5,0,0.7c-0.3,0.2-0.6,0.4-1,0.7c-0.1-0.1-0.2-0.2-0.3-0.3c-0.1-0.1-0.2-0.1-0.2,0l0-0.2l-0.3,0.3
				l0.2,0.1c-0.1,0.2,0,0.4,0.1,0.6c-0.2,0.1-0.4,0.3-0.6,0.4c-0.1-0.1-0.2-0.2-0.2-0.4c-0.1-0.1-0.2-0.2-0.3-0.1l0-0.3l-0.4,0.3
				l0.2,0.1c-0.2,0.2-0.1,0.5,0,0.7c-0.3,0.2-0.6,0.4-0.9,0.6c-0.2-0.3-0.4-0.6-0.4-0.9c0,0,0,0,0,0c0,0,0,0,0,0c0,0,0,0,0,0
				c0,0,0,0,0,0c0,0.4,0.1,0.8,0.3,1.2c-1.2,0.9-2.4,1.8-3.6,2.7L57.9,44c0,0,0,0.1,0,0.2c0,0.1,0.1,0.2,0.2,0.2c0.1,0,0.2,0,0.1,0
				l0.2-0.3c1.2-0.8,2.5-1.7,3.7-2.7c0.3,0.4,0.6,0.6,1,0.8c0,0,0,0,0,0c0,0,0,0,0,0c0,0,0,0,0.1,0c0,0,0,0,0-0.1
				c-0.4-0.2-0.7-0.5-0.9-0.8c0.3-0.2,0.6-0.5,1-0.7c0.1,0.1,0.2,0.2,0.4,0.3c0.2,0.2,0.6,0.5,0.9,0.2l0.1,0.2l0.3-0.3l-0.3,0
				c0.1-0.1,0.1-0.2-0.1-0.3c-0.3-0.2-0.6-0.4-0.8-0.6c0.3-0.2,0.5-0.4,0.7-0.5c0.1,0.1,0.3,0.2,0.4,0.2c0.2,0.1,0.6,0.3,0.8,0
				l0.1,0.2l0.2-0.4l-0.2,0c0.1-0.1,0-0.2-0.1-0.2c-0.3-0.1-0.4-0.1-0.6-0.2c0.3-0.2,0.5-0.4,0.8-0.5c0.1,0.1,0.1,0.2,0.2,0.3
				c0.2,0.2,0.4,0.5,0.8,0.3l0,0.2l0.3-0.3l-0.2-0.1c0.1-0.1,0.1-0.2,0-0.2c-0.3-0.2-0.4-0.4-0.6-0.6c2.5-1.8,4.3-3.1,5.2-3.8
				C71.9,34.5,72,34.4,71.9,34.4z M63.1,40.2C63,40,62.9,39.8,63,39.6c0,0,0-0.1,0.1-0.1c0,0,0,0,0.1,0c0.1,0,0,0.2,0,0.3
				C63.1,39.9,63.1,40,63.1,40.2C63.2,40.1,63.2,40.1,63.1,40.2C63.2,40.1,63.1,40.2,63.1,40.2z M64.3,39.3
				c-0.1-0.1-0.2-0.2-0.2-0.4c0,0,0-0.1,0-0.1c0,0,0,0,0,0c0.1,0,0.1,0.2,0,0.2C64.3,39.1,64.4,39.2,64.3,39.3
				C64.4,39.3,64.4,39.3,64.3,39.3z M65.9,38.2C65.9,38.2,65.9,38.3,65.9,38.2C65.9,38.3,65.8,38.3,65.9,38.2
				c-0.1-0.1-0.2-0.3-0.1-0.5c0,0,0.1-0.1,0.1-0.1c0,0,0,0,0,0c0.1,0,0,0.2,0,0.2C65.8,38,65.9,38.1,65.9,38.2z"/>
			<path d="M62.5,37.5C62.5,37.5,62.5,37.5,62.5,37.5C62.5,37.5,62.5,37.5,62.5,37.5c0,0-0.1,0.2-0.2,0.2l0,0c0,0,0,0.1,0,0.1
				c0,0,0,0,0,0c0,0,0.1,0,0.2,0L62,38.5c0,0,0,0,0,0c0,0-0.1-0.1-0.2-0.1c-0.1,0-0.1,0-0.2,0.1c-0.2,0.1-0.4,0.4-0.5,0.6
				c0,0.2,0.1,0.3,0.1,0.3c0,0,0,0,0,0l-1.7,1.6L59,41l-0.9,0.9h0.5l0,0v0.5l0.9-0.9l0.2-0.4l1.9-1.9c0.1,0.1,0.1,0.1,0.1,0.2
				c0,0,0,0,0,0c0,0,0,0,0,0c0.1,0,0.2-0.1,0.2-0.1c0,0,0,0,0,0c0.1,0,0.2-0.1,0.2-0.1c0,0,0,0,0,0c-0.1-0.1-0.2-0.3-0.2-0.3
				l0.7-0.7c0,0.1,0.1,0.1,0.2,0.1c0,0,0,0,0.1,0c0.2,0,0.3-0.2,0.3-0.4c0-0.1,0.1-0.2,0-0.3l0.2-0.2c0,0,0,0,0,0
				c0,0,0.1,0.1,0.2,0.1c0,0,0,0,0,0h0h0c0,0,0,0,0,0c0.1,0,0.2,0,0.2,0c0,0,0,0,0,0c0-0.1-0.1-0.3-0.1-0.4c0,0,0-0.1,0-0.1
				c0,0,0,0,0,0c0,0,0,0,0,0c0,0,0,0,0.1,0c0,0,0.1,0,0.1-0.1c0-0.1,0-0.1,0-0.2l0.6-0.6c0,0,0.1,0.1,0.1,0.1c0,0,0,0,0,0
				c0,0,0,0,0,0c0,0,0.2-0.2,0.2-0.2l0,0c0,0,0.1-0.1,0.1-0.1c0,0,0,0,0,0c0,0-0.1,0-0.1,0l0.6-0.6c0,0,0,0,0,0.1c0,0,0,0,0,0
				c0,0,0,0,0,0c0.1,0,0.2-0.1,0.2-0.1c0,0,0,0,0,0c0.1,0,0.2-0.1,0.2-0.1c0,0,0,0,0,0c0,0-0.1-0.1-0.1-0.2l1.1-1.1l0.4-0.1l0.3-0.9
				l-0.8,0.3l-0.1,0.4l-0.9,0.9c0,0,0,0,0,0c0-0.1-0.1-0.2-0.1-0.2c0,0-0.1-0.1-0.2-0.1c-0.1,0-0.1,0-0.2,0.1
				c-0.2,0.1-0.4,0.4-0.4,0.6c0,0.2,0.2,0.3,0.2,0.3c0,0,0.1,0,0.1,0.1l-0.3,0.3c0-0.1,0-0.1,0-0.2c0,0,0-0.1-0.1-0.2
				c-0.1-0.1-0.1-0.1-0.2-0.1c0,0,0,0,0,0c-0.2,0-0.4,0.2-0.5,0.3c-0.1,0.2-0.2,0.4-0.1,0.6c0.1,0.1,0.2,0.2,0.3,0.2L64,36.5
				c-0.1,0-0.1-0.1-0.3-0.1h0c-0.2,0-0.6,0.1-0.7,0.3c-0.1,0.2,0,0.3,0,0.3c0,0,0.1,0.1,0.2,0.2c0,0,0,0,0.1,0c0,0,0,0,0,0L63,37.4
				c0,0,0,0-0.1,0c-0.1,0-0.1,0-0.1,0c0,0-0.1,0.1-0.1,0.1c0,0,0,0,0,0h0c0,0,0,0,0,0C62.6,37.6,62.5,37.5,62.5,37.5z M61.4,39
				C61.4,39,61.4,39,61.4,39l-0.1,0.1c0,0,0,0,0,0C61.3,39,61.3,39,61.4,39C61.4,39,61.4,39,61.4,39C61.4,39,61.4,39,61.4,39
				C61.4,39,61.4,39,61.4,39C61.4,39,61.4,39,61.4,39z M61.7,38.7C61.7,38.7,61.7,38.7,61.7,38.7C61.7,38.7,61.7,38.7,61.7,38.7
				C61.7,38.7,61.7,38.7,61.7,38.7C61.7,38.7,61.7,38.6,61.7,38.7c0-0.1,0.1-0.1,0.1-0.1L61.7,38.7z M65.5,34.6c0,0,0.1,0,0.1,0
				c0,0,0,0,0.1,0c0.1,0,0.1,0,0.1,0.1c0,0,0,0,0,0c0,0,0,0,0,0c0,0-0.1,0-0.1,0C65.6,34.6,65.6,34.6,65.5,34.6
				C65.6,34.6,65.6,34.7,65.5,34.6C65.5,34.7,65.5,34.7,65.5,34.6C65.5,34.6,65.5,34.6,65.5,34.6C65.5,34.6,65.5,34.6,65.5,34.6z
				 M65.2,35.1c0-0.1,0-0.1,0-0.1c0,0,0,0,0,0c0,0,0,0,0,0c0,0,0,0,0,0C65.3,35,65.3,35,65.2,35.1c0.1,0.1,0.1,0.1,0.1,0.1
				c0,0,0,0,0,0l0,0c0,0,0,0,0,0C65.3,35.2,65.2,35.2,65.2,35.1z M64,36.9C64,36.9,64,36.9,64,36.9C64,36.9,64,36.9,64,36.9
				C64,36.9,64,36.9,64,36.9L64,36.9z M63.7,36.7C63.7,36.7,63.8,36.7,63.7,36.7C63.8,36.7,63.8,36.7,63.7,36.7L63.7,36.7
				C63.7,36.7,63.7,36.7,63.7,36.7C63.7,36.7,63.7,36.7,63.7,36.7z M63.3,37.1C63.3,37.1,63.3,37.1,63.3,37.1
				C63.3,37.1,63.4,37.1,63.3,37.1C63.4,37.1,63.4,37.1,63.3,37.1L63.3,37.1z M63.3,37c0,0.1,0,0.1,0,0.1c0,0,0,0,0,0c0,0,0,0,0,0
				c0,0,0,0,0,0C63.2,37.1,63.1,37,63.3,37c0-0.1,0-0.1,0-0.1c0,0,0,0,0,0c0,0,0,0,0,0C63.4,36.9,63.4,36.9,63.3,37
				C63.4,36.9,63.3,36.9,63.3,37C63.3,36.9,63.3,36.9,63.3,37z M62.7,37.7C62.7,37.7,62.7,37.7,62.7,37.7l-0.1,0.2l0,0
				C62.6,37.8,62.6,37.7,62.7,37.7z"/>
			<path d="M36,33.9l1.1,1.1c-0.1,0.1-0.1,0.1-0.1,0.2c0,0,0,0,0,0c0,0,0.1,0.1,0.2,0.1c0,0,0,0,0,0c0,0,0.2,0.1,0.2,0.1
				c0,0,0,0,0,0c0,0,0,0,0,0c0,0,0,0,0-0.1l0.6,0.6c0,0-0.1,0-0.1,0c0,0,0,0,0,0c0,0,0,0.1,0.1,0.1l0,0c0.1,0.1,0.2,0.2,0.2,0.2
				c0,0,0,0,0,0c0,0,0,0,0,0c0,0,0-0.1,0.1-0.1l0.6,0.6c0,0.1,0,0.1,0,0.2c0,0.1,0.1,0.1,0.1,0.1c0,0,0,0,0.1,0c0,0,0,0,0,0
				c0,0,0,0,0,0c0,0,0,0,0,0.1c0,0.1,0,0.3-0.1,0.4c0,0,0,0,0,0c0,0,0.1,0,0.2,0c0,0,0,0,0,0h0h0c0,0,0,0,0,0c0.2,0,0.2,0,0.2-0.1
				c0,0,0,0,0,0l0.2,0.2c0,0.1,0,0.2,0,0.3c0.1,0.2,0.1,0.3,0.3,0.4c0,0,0,0,0.1,0c0.1,0,0.2,0,0.2-0.1l0.7,0.7
				c0,0.1-0.2,0.3-0.2,0.3c0,0,0,0,0,0c0,0,0.1,0.1,0.2,0.1c0,0,0,0,0,0c0,0,0.2,0.1,0.2,0.1c0,0,0,0,0,0c0,0,0,0,0,0
				c0,0,0-0.1,0.1-0.2l1.9,1.9l0.2,0.4l0.9,0.9V42l0,0h0.5L43.9,41l-0.5-0.2l-1.7-1.6c0,0,0,0,0,0c0,0,0.1-0.1,0.1-0.3
				c0-0.2-0.3-0.4-0.5-0.6c-0.1,0-0.1-0.1-0.2-0.1c-0.1,0-0.2,0.1-0.2,0.1c0,0,0,0,0,0l-0.5-0.5c0.1,0,0.2,0,0.2,0c0,0,0,0,0,0
				c0,0,0-0.1,0-0.1l0,0c0-0.1-0.1-0.2-0.1-0.2c0,0,0,0,0,0c0,0,0,0,0,0c0,0-0.1,0.1-0.2,0.1c0,0,0,0,0,0h0c0,0,0,0,0,0
				c0,0-0.1-0.1-0.1-0.1c0,0-0.1,0-0.1,0c0,0,0,0-0.1,0l-0.3-0.2c0,0,0,0,0,0c0,0,0,0,0.1,0c0.1,0,0.2-0.2,0.2-0.2
				c0,0,0.1-0.2,0-0.3c-0.1-0.2-0.5-0.3-0.7-0.3h0c-0.1,0-0.2,0-0.3,0.1l-0.2-0.2c0.1,0,0.2-0.1,0.3-0.2c0.1-0.1,0-0.3-0.1-0.6
				c-0.1-0.2-0.3-0.4-0.5-0.3c-0.1,0-0.2,0-0.2,0.1c-0.1,0.1-0.1,0.2-0.1,0.2c0,0,0,0.1,0,0.2l-0.3-0.3c0,0,0.1,0,0.1-0.1
				c0,0,0.2-0.1,0.2-0.3c0-0.2-0.2-0.5-0.4-0.6c-0.1,0-0.1-0.1-0.2-0.1c-0.1,0-0.2,0-0.2,0.1c-0.1,0.1-0.1,0.1-0.1,0.2c0,0,0,0,0,0
				l-0.9-0.9l-0.1-0.4l-0.8-0.3l0.3,0.9L36,33.9z M41.6,39C41.6,39,41.6,39,41.6,39C41.6,39,41.6,39,41.6,39c0.1,0,0.1,0,0.1,0.1
				c0,0,0,0,0,0L41.6,39C41.6,39,41.6,39,41.6,39C41.6,39,41.5,39,41.6,39C41.5,39,41.5,39,41.6,39z M41.2,38.6
				C41.2,38.6,41.3,38.6,41.2,38.6c0.1,0,0.1,0,0.1,0c0,0,0,0,0,0c0,0,0,0,0,0c0,0,0,0,0,0L41.2,38.6C41.2,38.6,41.2,38.6,41.2,38.6
				z M40.3,37.7c0,0.1,0,0.1,0.1,0.2l0,0L40.3,37.7C40.3,37.7,40.3,37.7,40.3,37.7z M39.6,37.1C39.6,37.1,39.6,37.1,39.6,37.1
				C39.6,37.1,39.6,37.1,39.6,37.1C39.6,37.1,39.6,37.1,39.6,37.1L39.6,37.1z M39.6,36.8C39.6,36.8,39.6,36.8,39.6,36.8
				C39.7,36.8,39.7,36.8,39.6,36.8c0.1,0,0.1,0,0.2,0.1c0.1,0.1,0,0.2,0,0.2c0,0,0,0,0,0c0,0,0,0,0,0c0,0,0,0,0,0c0,0,0,0,0-0.1
				C39.7,36.9,39.7,36.9,39.6,36.8C39.6,36.9,39.6,36.9,39.6,36.8C39.6,36.9,39.6,36.9,39.6,36.8z M39.2,36.7
				C39.2,36.7,39.2,36.7,39.2,36.7C39.2,36.7,39.2,36.7,39.2,36.7C39.3,36.7,39.2,36.7,39.2,36.7C39.2,36.7,39.2,36.7,39.2,36.7
				L39.2,36.7C39.2,36.7,39.2,36.7,39.2,36.7z M39,36.9C39,36.9,39,36.9,39,36.9C39,36.9,39,36.9,39,36.9C39,36.9,39,36.9,39,36.9
				L39,36.9z M37.7,35.1C37.7,35.1,37.7,35.1,37.7,35.1c0.1-0.1,0-0.1,0-0.2c0,0,0,0,0,0c0,0,0,0,0,0c0,0,0,0,0,0c0,0,0.1,0.1,0,0.1
				C37.8,35.2,37.7,35.2,37.7,35.1C37.7,35.2,37.7,35.2,37.7,35.1L37.7,35.1C37.7,35.2,37.7,35.1,37.7,35.1z M37.3,34.6
				c0.1,0,0.1,0,0.2,0c0,0,0,0,0,0c0,0,0,0,0,0c0,0,0,0,0,0C37.4,34.7,37.4,34.6,37.3,34.6C37.4,34.6,37.4,34.6,37.3,34.6
				C37.3,34.6,37.3,34.6,37.3,34.6c-0.1,0.1-0.1,0.1-0.1,0.1c0,0,0,0,0,0C37.2,34.6,37.2,34.6,37.3,34.6z"/>
			<path d="M38.3,39.7c0.2,0.2,0.5,0.3,0.7,0.5c-0.2,0.2-0.4,0.3-0.7,0.5c-0.1,0.1-0.2,0.2-0.1,0.3l-0.3,0l0.3,0.3l0.1-0.2
				c0.4,0.3,0.7,0,0.9-0.2c0.1-0.1,0.2-0.2,0.3-0.3c0.3,0.2,0.6,0.4,0.9,0.6c-0.1,0.3-0.4,0.6-0.9,0.8c0,0,0,0,0,0.1c0,0,0,0,0.1,0
				c0,0,0,0,0,0c0,0,0,0,0,0c0.4-0.2,0.8-0.4,1-0.8c1.2,1,2.5,1.9,3.7,2.7l0.2,0.3c0,0,0,0,0.1,0c0.1,0,0.2-0.1,0.2-0.2
				c0-0.1,0-0.2,0-0.2l-0.4-0.1c-1.2-1-2.4-1.9-3.6-2.7c0.2-0.3,0.3-0.7,0.3-1.2c0,0,0,0,0,0c0,0,0,0,0,0c0,0,0,0,0,0c0,0,0,0,0,0
				c0,0.4-0.1,0.7-0.4,0.9c-0.3-0.2-0.6-0.4-0.9-0.6c0.2-0.2,0.3-0.5,0.1-0.8l0.2-0.1l-0.4-0.3l0,0.3c-0.1-0.1-0.2-0.1-0.3,0.1
				c-0.1,0.2-0.2,0.3-0.3,0.4c-0.2-0.2-0.4-0.3-0.7-0.4c0.2-0.2,0.3-0.4,0.2-0.6l0.2-0.1l-0.3-0.3l0,0.2c-0.1-0.1-0.2-0.1-0.2,0
				c-0.1,0.1-0.2,0.3-0.4,0.4c-0.3-0.2-0.6-0.4-1-0.6c0.1-0.2,0.2-0.5,0-0.7l0.2-0.1l-0.4-0.2l0.1,0.2c-0.1-0.1-0.2,0-0.2,0.1
				c0,0.1-0.1,0.3-0.1,0.4c-2.6-1.8-4.4-3-5.4-3.6c-0.2-0.1-0.2-0.1-0.3-0.1c0,0,0,0.1,0.2,0.3c0.9,0.7,2.7,2,5.3,3.8
				c-0.1,0.2-0.3,0.4-0.6,0.6c-0.1,0.1-0.1,0.2,0,0.2l-0.2,0.1l0.3,0.3l0-0.2c0.3,0.2,0.6-0.1,0.8-0.3c0.1-0.1,0.1-0.1,0.2-0.2
				c0.2,0.2,0.5,0.3,0.7,0.5c-0.2,0.1-0.3,0.1-0.6,0.2c-0.1,0-0.2,0.1-0.1,0.2l-0.2,0l0.2,0.4l0.1-0.2c0.2,0.3,0.6,0.1,0.8,0
				C38.1,39.9,38.2,39.8,38.3,39.7z M39.9,40.1c0-0.1,0.1-0.3,0-0.4c0-0.1-0.1-0.2,0-0.3c0,0,0,0,0.1,0c0,0,0.1,0.1,0.1,0.1
				c0.1,0.2,0,0.4-0.1,0.6C39.9,40.2,39.9,40.2,39.9,40.1C39.9,40.2,39.9,40.1,39.9,40.1z M38.6,39.3c0.1-0.1,0.1-0.2,0.1-0.3
				c0-0.1,0-0.2,0.1-0.2c0,0,0,0,0,0c0,0,0,0.1,0,0.1C38.9,39.1,38.8,39.3,38.6,39.3C38.7,39.4,38.7,39.3,38.6,39.3
				C38.6,39.3,38.6,39.3,38.6,39.3z M37.2,38.3c0,0,0-0.1,0-0.1c0-0.1,0-0.2,0-0.3c0,0-0.1-0.2,0-0.2c0,0,0,0,0,0
				c0,0,0.1,0.1,0.1,0.1C37.4,38,37.3,38.2,37.2,38.3C37.2,38.4,37.2,38.3,37.2,38.3z"/>
		</g>
		<path d="M51.4,48.8L51.4,48.8c-0.1,0-0.1,0-0.2,0c-0.2,0-0.3,0-0.5,0c-0.2,0-0.6-0.1-1-0.2c-0.8-0.3-1.6-0.7-2.2-1.4
			c-0.4-0.4-0.8-1-1.1-1.6c0-0.1-0.1-0.1-0.1-0.2c0-0.1-0.1-0.1-0.1-0.2c0,0,0,0,0,0c0-0.1-0.1-0.2-0.1-0.2c0-0.1-0.1-0.2-0.1-0.3
			c-1.8-4.4-1.1-11-1.1-11.1l0-0.2h13l0,0.2c0,0.1,0.2,2.4,0.1,5.2c-0.1,1.8-0.5,4.5-1.5,6.5c-0.1,0.1-0.1,0.2-0.2,0.4
			c-0.3,0.5-0.6,0.9-0.9,1.3C54.4,48.2,53,48.8,51.4,48.8L51.4,48.8z M46.6,45.2c0,0,0,0.1,0.1,0.1c0,0.1,0.1,0.1,0.1,0.2
			c0.3,0.6,0.7,1.1,1.1,1.5c0.6,0.6,1.3,1,2,1.3c0.4,0.1,0.7,0.1,0.9,0.2c0.1,0,0.3,0,0.5,0c0.1,0,0.1,0,0.2,0
			c1.5,0,2.7-0.6,3.7-1.7c0.3-0.4,0.6-0.8,0.9-1.2c0.1-0.1,0.1-0.2,0.2-0.4c1-2,1.3-4.6,1.5-6.4c0.2-2.4,0-4.5-0.1-5H45.2
			c-0.1,0.9-0.5,6.7,1.1,10.8c0,0.1,0.1,0.2,0.1,0.3C46.5,45,46.6,45.1,46.6,45.2L46.6,45.2L46.6,45.2L46.6,45.2L46.6,45.2l-0.1,0
			L46.6,45.2L46.6,45.2z"/>
		<g>
			<polygon id="XMLID_18_" points="49,39.5 48.9,39.5 48.9,38.7 48.5,38.7 48.5,40.5 48.9,40.5 48.9,39.7 49,39.7 49,40.5 
				49.4,40.5 49.4,38.7 49,38.7 			"/>
			<path id="XMLID_17_" d="M51.2,39.1c0-0.1,0.1-0.1,0.1-0.1v-0.2c0,0-0.1,0-0.2,0c-0.1,0-0.2,0.1-0.2,0.2l-0.1,0.4v-0.6h-0.4v1.8
				h0.4v-0.7l0.2,0.7h0.4l-0.3-1L51.2,39.1z"/>
			<path d="M53.7,39.5c-0.1,0-0.2-0.1-0.4-0.1V39h0.3v-0.2h-0.7v1.8h0.4c0.2,0,0.3,0,0.4-0.1c0.1-0.1,0.1-0.1,0.1-0.2v-0.5
				C53.8,39.6,53.8,39.5,53.7,39.5z M53.4,40.2c0,0.1,0,0.1-0.1,0.1v-0.6h0c0.1,0,0.1,0,0.1,0.1V40.2z"/>
			<path d="M54.7,38.8c-0.1,0-0.2-0.1-0.4-0.1h-0.4v1.8h0.4v-0.7c0.2,0,0.3,0,0.4-0.1c0.1,0,0.1-0.1,0.1-0.2v-0.5
				C54.8,38.9,54.7,38.9,54.7,38.8z M54.4,39.5c0,0.1,0,0.1-0.1,0.1V39c0.1,0,0.1,0,0.1,0.1V39.5z"/>
			<path d="M47.2,38.8c-0.1,0-0.2-0.1-0.4-0.1h-0.4v1.8h0.4v-0.7c0.2,0,0.3,0,0.4-0.1c0.1,0,0.1-0.1,0.1-0.2v-0.5
				C47.3,38.9,47.3,38.9,47.2,38.8z M46.9,39.5c0,0.1,0,0.1-0.1,0.1V39c0.1,0,0.1,0,0.1,0.1V39.5z"/>
			<path id="XMLID_10_" d="M56,38.6C56,38.6,56,38.6,56,38.6c0-0.2,0-0.2-0.1-0.2c0,0-0.1,0-0.1,0c0,0,0,0.1,0,0.1
				C55.8,38.6,55.8,38.7,56,38.6C55.9,38.7,55.9,38.7,56,38.6z"/>
			<path id="XMLID_9_" d="M56.2,38.4C56.2,38.4,56.2,38.4,56.2,38.4c-0.1,0.1-0.1,0.1-0.1,0.1c0,0.1,0,0.1,0.1,0.1c0,0,0.1,0,0.1,0
				c0,0,0-0.1,0-0.1C56.4,38.5,56.3,38.4,56.2,38.4z"/>
			<rect id="XMLID_8_" x="55.9" y="38.7" width="0.4" height="1.8"/>
			<path d="M55.3,38.7c-0.3,0-0.4,0.1-0.4,0.3v1.1c0,0.2,0.1,0.3,0.4,0.3c0.1,0,0.2,0,0.3-0.1c0.1-0.1,0.1-0.1,0.1-0.2v-1.1
				C55.8,38.8,55.6,38.7,55.3,38.7z M55.4,40.2C55.4,40.3,55.4,40.3,55.4,40.2c-0.1,0.1-0.1,0-0.1,0V39c0,0,0-0.1,0.1-0.1
				c0,0,0.1,0,0.1,0.1V40.2z"/>
			<path d="M49.9,38.7c-0.3,0-0.4,0.1-0.4,0.3v1.1c0,0.2,0.1,0.3,0.4,0.3c0.1,0,0.2,0,0.3-0.1c0.1-0.1,0.1-0.1,0.1-0.2v-1.1
				C50.3,38.8,50.2,38.7,49.9,38.7z M50,40.2C50,40.3,49.9,40.3,50,40.2c-0.1,0.1-0.1,0-0.1,0V39c0,0,0-0.1,0.1-0.1
				c0,0,0.1,0,0.1,0.1V40.2z"/>
			<polygon id="XMLID_3_" points="47.7,39.6 47.7,38.7 47.4,38.7 47.4,40.5 47.8,40.5 48,39.6 48,40.5 48.4,40.5 48.4,38.7 48,38.7 
							"/>
			<path id="XMLID_2_" d="M52.6,39.6c0.1,0,0.2-0.1,0.2-0.3v-0.2c0-0.1,0-0.2-0.1-0.2c-0.1,0-0.2-0.1-0.3-0.1
				c-0.3,0-0.4,0.1-0.4,0.3v0.3h0.3v-0.3c0,0,0-0.1,0.1-0.1c0,0,0.1,0,0.1,0.1v0.3c0,0.1-0.1,0.1-0.2,0.1v0.2c0.1,0,0.1,0,0.1,0
				c0,0,0,0,0,0.1v0.4c0,0,0,0.1-0.1,0.1c0,0-0.1,0-0.1-0.1v-0.4h-0.4v0.4c0,0.2,0.1,0.3,0.4,0.3c0.3,0,0.4-0.1,0.4-0.4v-0.3
				C52.8,39.7,52.7,39.6,52.6,39.6z"/>
		</g>
	</g>
	<g>
		<path id="XMLID_1_" d="M26.2,61.9c-12.1-15.6-9.2-38,6.3-50.1c7.7-5.9,17-8.3,25.9-7.2c-13.4-7-30.3-6-43,3.9
			C-2,21.9-5.1,47,8.4,64.5c12.1,15.5,33.3,19.8,50.1,11C46.5,76.8,34.1,72.1,26.2,61.9z"/>
	</g>
</g>
</svg>
