<?xml version="1.0" encoding="utf-8"?>
<!-- Generator: Adobe Illustrator 19.0.0, SVG Export Plug-In . SVG Version: 6.00 Build 0)  -->
<svg version="1.1" id="Layer_1" xmlns="http://www.w3.org/2000/svg" xmlns:xlink="http://www.w3.org/1999/xlink" x="0px" y="0px"
	 viewBox="652.2 356 351.4 80" style="enable-background:new 652.2 356 351.4 80;" xml:space="preserve">
<style type="text/css">
	.st0{fill:#0B85D8;}
	.st1{fill:#323333;}
</style>
<g>
	<g>
		<path class="st0" d="M670.9,398.7c0-0.2,0-0.4,0-0.6c0-17.7,14.3-32,32-32c10.3,0,19.5,4.9,25.4,12.5c-6.3-13-19.4-22.1-34.7-22.6
			c-0.5,0-0.9,0-1.4,0c-14.7,0-26.7,12-26.7,26.7C665.6,388.7,667.6,394.3,670.9,398.7z"/>
		<path class="st1" d="M662.9,382.7c0-8.3,3.4-15.8,9-21.1c-11.7,7-19.6,19.8-19.6,34.4c0,22.1,17.9,40,40,40l9.6-12l-9.6-12
			C676,412,662.9,398.9,662.9,382.7z"/>
		<path class="st1" d="M702.9,368.8l-7.4,9.3l7.4,9.3c11.8,0,21.3,9.6,21.3,21.3c0,5.2-1.9,10-5,13.7c7.8-5.3,13-14.2,13-24.4
			C732.3,381.9,719.1,368.8,702.9,368.8z"/>
	</g>
	<g>
		<path class="st1" d="M843.1,412.8l-8-12.3c4.1-1.6,6.9-4.9,6.9-10.2c0-7.6-5.8-11.2-13-11.2h-7.8h-5.6v22.4v11.2h5.6v-11.2h7.8h0
			l7.4,11.2L843.1,412.8L843.1,412.8z M821.1,384.8h7.8c2.4,0,4.5,0.6,5.7,1.6c0.7,0.6,1.7,1.6,1.7,4c0,2.4-1,3.5-1.7,4
			c-1.3,1-3.3,1.6-5.7,1.6h-7.8V384.8z"/>
		<polygon class="st0" points="1003.6,384.8 1003.6,379.2 979.6,379.2 979.6,412.8 1003.6,412.8 1003.6,407.2 985.2,407.2 
			985.2,398.8 1002,398.8 1002,393.2 985.2,393.2 985.2,384.8 		"/>
		<polygon class="st0" points="895.2,379.2 884.7,404.9 874.3,379.2 867.9,379.2 881.6,412.8 887.9,412.8 901.6,379.2 		"/>
		<polygon class="st1" points="850.8,398.8 867.5,398.8 867.5,393.2 850.8,393.2 850.8,384.8 867.6,384.8 865.4,379.2 845.1,379.2 
			845.1,412.8 869.1,412.8 869.1,407.2 850.8,407.2 		"/>
		<path class="st1" d="M795.5,384c6.6,0,12,5.4,12,12c0,6.6-5.4,12-12,12s-12-5.4-12-12S788.9,384,795.5,384 M795.5,378.4
			c-9.7,0-17.6,7.9-17.6,17.6s7.9,17.6,17.6,17.6s17.6-7.9,17.6-17.6S805.2,378.4,795.5,378.4L795.5,378.4z"/>
		<path class="st1" d="M775.3,403.4c-2.2,2.8-5.6,4.6-9.4,4.6c-6.6,0-12-5.4-12-12c0-6.6,5.4-12,12-12c3.8,0,7.2,1.8,9.4,4.6l4-4
			c-3.2-3.8-8-6.2-13.4-6.2c-9.7,0-17.6,7.9-17.6,17.6s7.9,17.6,17.6,17.6c5.4,0,10.2-2.4,13.4-6.2L775.3,403.4z"/>
		<path class="st0" d="M970.8,379.2V400c0,4.4-3.8,8-8.4,8s-8.4-3.6-8.4-8v-20.8h-5.6V400c0,7.5,6.3,13.6,14,13.6s14-6.1,14-13.6
			v-20.8H970.8z"/>
		<path class="st0" d="M947.7,407.2H934v-28h-5.6v33.6h24.2C950.5,411.4,948.9,409.4,947.7,407.2z"/>
		<path class="st0" d="M926,406.9l-11.2-27.7h-6.4l-13.6,33.6h6.4l3.1-7.6h14.7l3.1,7.6h4V406.9L926,406.9z M906.5,399.6l5.1-12.5
			l5.1,12.5H906.5z"/>
	</g>
</g>
</svg>
