<?xml version="1.0" encoding="utf-8"?>
<!-- Generator: Adobe Illustrator 19.0.0, SVG Export Plug-In . SVG Version: 6.00 Build 0)  -->
<svg version="1.1" id="Layer_1" xmlns="http://www.w3.org/2000/svg" xmlns:xlink="http://www.w3.org/1999/xlink" x="0px" y="0px"
	 viewBox="0 0 426.3 80" style="enable-background:new 0 0 426.3 80;" xml:space="preserve">
<path d="M0,72.1V7.8h23c6.8,0,18.2,0.9,26.9,8.9c7.9,7.2,9.4,16.5,9.4,23.4c0,8.5-2.2,16-8.8,22.3c-5.4,5.1-14.4,9.7-26,9.7H0z
	 M17.6,57.9h3.6c4.3,0,10.3-0.4,14.8-4.6c2.2-2,5.2-6.1,5.2-13.2c0-6-1.9-11.1-5.3-14.1c-4.2-3.7-9.6-4-14-4h-4.3V57.9z"/>
<path d="M105.6,61.3H81.1l-4.6,10.8H57.9l26-64.3h19.2l25.5,64.3h-18.8L105.6,61.3z M101,48.6l-7.6-20.8L86,48.6H101z"/>
<path d="M155,22v50.1h-17.6V22h-14.3V7.8h46.1V22H155z"/>
<path d="M211.2,61.3h-24.6l-4.6,10.8h-18.6l26-64.3h19.2l25.5,64.3h-18.8L211.2,61.3z M206.5,48.6l-7.6-20.8l-7.4,20.8H206.5z"/>
<g>
	<path d="M337.4,20.7H334v15.9h3.4c2.6,0,6.4-0.7,8.5-2.6c1.3-1.3,2.2-3.4,2.2-5.4c0-1.9-0.8-4.1-2.3-5.4
		C344.2,21.7,341.2,20.7,337.4,20.7z"/>
	<polygon points="268.7,48.6 283.7,48.6 276.1,27.7 	"/>
	<path d="M236.7,0v80h189.6V0H236.7z M292.6,72.1l-4.2-10.8h-24.6l-4.6,10.8h-18.6l26-64.3h19.2l25.5,64.3H292.6z M350.9,72.1
		L334,47.4v24.7h-17.6V7.8h27.4c5.1,0,11.6,0.8,16.5,5.7c3.9,3.8,5.8,9.4,5.8,14.5c0,5.5-2,10.3-5.4,13.4c-2.6,2.4-6.2,3.9-9.3,4.4
		l21.2,26.3H350.9z M418.4,22h-14.3v50.1h-17.6V22h-14.3V7.8h46.1V22z"/>
</g>
</svg>
