<svg xmlns="http://www.w3.org/2000/svg" viewBox="0 0 426.3 80"><path d="M0 72.1V7.8h23c6.8 0 18.2.9 26.9 8.9 7.9 7.2 9.4 16.5 9.4 23.4 0 8.5-2.2 16-8.8 22.3-5.4 5.1-14.4 9.7-26 9.7H0zm17.6-14.2h3.6c4.3 0 10.3-.4 14.8-4.6 2.2-2 5.2-6.1 5.2-13.2 0-6-1.9-11.1-5.3-14.1-4.2-3.7-9.6-4-14-4h-4.3v35.9zM105.6 61.3H81.1l-4.6 10.8H57.9l26-64.3h19.2l25.5 64.3h-18.8l-4.2-10.8zM101 48.6l-7.6-20.8L86 48.6h15zM155 22v50.1h-17.6V22h-14.3V7.8h46.1V22H155zM211.2 61.3h-24.6L182 72.1h-18.6l26-64.3h19.2l25.5 64.3h-18.8l-4.1-10.8zm-4.7-12.7l-7.6-20.8-7.4 20.8h15zM337.4 20.7H334v15.9h3.4c2.6 0 6.4-.7 8.5-2.6 1.3-1.3 2.2-3.4 2.2-5.4 0-1.9-.8-4.1-2.3-5.4-1.6-1.5-4.6-2.5-8.4-2.5zM268.7 48.6h15l-7.6-20.9"/><path d="M236.7 0v80h189.6V0H236.7zm55.9 72.1l-4.2-10.8h-24.6l-4.6 10.8h-18.6l26-64.3h19.2l25.5 64.3h-18.7zm58.3 0L334 47.4v24.7h-17.6V7.8h27.4c5.1 0 11.6.8 16.5 5.7 3.9 3.8 5.8 9.4 5.8 14.5 0 5.5-2 10.3-5.4 13.4-2.6 2.4-6.2 3.9-9.3 4.4l21.2 26.3h-21.7zM418.4 22h-14.3v50.1h-17.6V22h-14.3V7.8h46.1V22z"/></svg>