<svg id="Layer_1" xmlns="http://www.w3.org/2000/svg" viewBox="0 0 268.4 80"><style>.st0{fill-rule:evenodd;clip-rule:evenodd;fill:#0070AF;} .st1{fill:#A7A9AC;} .st2{fill:#0070AF;}</style><path class="st0" d="M250.9 61.2v-1.1c.1 0 .3 0 .3-.1s.1-.3.1-.7v-1.5c-.1.1-.3.2-.4.3v-1.3c.2-.1.3-.1.3-.2s.1-.3.1-.6c0-.4 0-.6-.1-.8-.1-.1-.2-.1-.3-.2v-1.3h.1c.8 0 1.4.1 1.8.4.4.3.6.6.7 1 .1.4.1 1.2.1 2.5v3.8h-2.2v-.7c-.2.2-.3.4-.5.5zm7.3-7.4v.7c.2-.3.4-.5.6-.6.3-.1.5-.2.9-.2s.7.1 1 .3c.3.2.4.4.5.7.1.3.1.8.1 1.4v5.4H259v-5.3c0-.5 0-.9-.1-1 0-.1-.1-.2-.3-.2-.1 0-.3.1-.3.2s-.1.5-.1 1v5.2h-2.3v-7.6h2.3zm10.2 0l-.6 5.5c-.1.9-.2 1.5-.3 1.8 0 .3-.2.6-.3.8-.2.2-.4.4-.7.4-.3.1-.8.1-1.4.1h-1.4v-1.2c.4 0 .6 0 .7-.1.1 0 .1-.1.1-.3 0-.1 0-.3-.1-.8l-1.3-6.4h2.1l.8 5.1.4-5.1h2zm-17.5-.2v1.3c-.1 0-.3.1-.3.2v1.6h-2.2v-.5c0-.6.1-1 .2-1.4.1-.3.4-.6.8-.9.4-.1.9-.3 1.5-.3zm0 3.1V58c-.1.1-.3.3-.3.4 0 .2-.1.4-.1.8s0 .6.1.8c0 .1.1.2.3.2v1.1s-.1 0-.1.1c-.3.1-.5.2-.8.2-.4 0-.8-.1-1.1-.3-.3-.2-.5-.7-.5-1.5V59c0-.6.1-1 .3-1.1.2-.2.6-.5 1.3-.8.4-.1.7-.3.9-.4zm-7.3 4.4v-.9c.1 0 .3 0 .3-.1s.1-.4.1-.8V56c0-.5 0-.8-.1-.8 0-.1-.1-.2-.3-.2v-1c.1-.1.2-.2.3-.2.3-.1.5-.2.8-.2.4 0 .6.1.9.3.3.2.4.4.5.7.1.3.1.7.1 1.3v3.2c0 .7 0 1.2-.1 1.5-.1.3-.3.5-.5.7-.3.2-.5.3-.9.3-.3 0-.6 0-.8-.2-.1-.2-.2-.3-.3-.3zm0-7.1v.9c-.1 0-.3.1-.3.2s-.1.4-.1.8v3.2c0 .5 0 .8.1.9s.1.2.3.2v.9l-.4-.4v1.8h-2.3v-8.7h2.3v.6c.1-.1.2-.3.4-.4zm-18.2 7.5v-1.3c.1 0 .2 0 .3-.1V56v-.7c-.1-.1-.1-.2-.3-.2v-1.3c.5 0 .9.1 1.3.2.4.2.6.4.9.6s.4.5.4.8c.1.3.1.6.1 1.2v1.9c0 .7 0 1.2-.1 1.5-.1.3-.2.6-.4.9-.3.3-.5.5-.9.6-.4-.1-.8 0-1.3 0zm7.2-7.7l-.1.7c.2-.3.4-.5.6-.6.3-.1.5-.2.9-.2.6 0 1.1.3 1.5.9.2-.3.4-.5.6-.6s.5-.2.8-.2c.4 0 .7.1 1 .3.3.2.4.4.5.7.1.3.1.8.1 1.4v5.4h-2.2v-5c0-.7 0-1.1-.1-1.2 0-.1-.1-.3-.3-.3-.2 0-.3.1-.3.3-.1.1-.1.5-.1 1.2v5h-2.3v-4.8-1.3s-.1-.3-.3-.3c-.1 0-.2 0-.3.1-.1.1-.1.2-.1.3v6h-2.2V54h2.3zm-7.2-.2v1.3c-.1 0-.2.1-.3.2-.1.1-.1.3-.1.7v3.4c0 .4 0 .6.1.7 0 .1.1.2.3.2v1.3c-.5 0-.9 0-1.3-.1-.3-.1-.6-.3-.8-.5-.2-.3-.3-.5-.4-.8-.1-.3-.1-.8-.1-1.5v-1.9c0-.7.1-1.3.3-1.7.1-.4.4-.7.8-1s.8-.3 1.5-.3zm-30.2 7.9v-1.3c.2 0 .3-.1.4-.2.1-.1.1-.4.1-.8v-1h2.2v.6c0 .5 0 .8-.1 1.1-.1.3-.2.5-.4.8-.2.3-.5.5-.8.6-.4.1-.9.2-1.4.2zm0-3.8v-1.2h.4v-.6c0-.4 0-.6-.1-.8 0-.1-.1-.2-.3-.2v-1.3c.6 0 1.1.1 1.5.4.4.3.7.6.8 1 .2.4.3 1 .3 1.7v1h-2.6zm7.2-3.9v.7c.2-.3.4-.5.6-.6s.5-.2.8-.2c.4 0 .7.1 1 .3.3.2.4.4.5.7.1.3.1.8.1 1.4v5.4h-2.3v-5.3c0-.5 0-.9-.1-1s-.1-.2-.3-.2c-.1 0-.3.1-.3.2-.1.1-.1.5-.1 1v5.2H200v-7.6h2.4zm7.7-1.1v1.2h.6v1.2h-.6v4.1c0 .5 0 .8.1.8.1.1.3.1.6.1v1.3h-.9c-.5 0-.9 0-1.1-.1-.2 0-.4-.1-.6-.3-.1-.1-.3-.3-.3-.5v-5.3h-.5V54h.5v-1.2h2.2v-.1zm10.4 3.4h-2.4v-1.6c0-.5 0-.8-.1-.9-.1-.1-.2-.2-.4-.2s-.3.1-.4.2c-.1.1-.1.5-.1.9v4.3c0 .5 0 .8.1.9 0 .1.2.2.4.2s.3-.1.4-.2c0-.1.1-.5.1-1v-1.2h2.4v.5c0 1-.1 1.7-.2 2-.1.4-.4.8-.9 1-.5.3-1 .5-1.7.5s-1.3-.1-1.8-.4c-.5-.3-.8-.6-.9-1-.2-.5-.3-1.1-.3-2v-2.7c0-.6 0-1.1.1-1.5.1-.3.2-.6.4-1 .2-.3.5-.5.9-.7.4-.2.9-.3 1.4-.3.7 0 1.3.1 1.8.4.4.3.8.6.9 1 .1.4.2 1 .2 1.9v.9zm-25.3-2.5v1.3c-.1 0-.2.1-.3.1 0 .1-.1.4-.1.8v.6h.3v1.2h-.3v1.7c0 .4 0 .6.1.7 0 .1.1.1.3.1v1.3c-.4 0-.9-.1-1.2-.2-.4-.1-.6-.4-.9-.6-.2-.2-.4-.5-.4-.8-.1-.3-.1-.8-.1-1.3v-2.2c0-.7.1-1.2.3-1.6s.5-.7.9-.9c.3-.1.7-.2 1.4-.2zm-18.1 7.5v-.9c.1 0 .3 0 .3-.1V56v-.8c0-.1-.1-.2-.3-.2v-1c.1-.1.2-.2.3-.2.3-.1.5-.2.8-.2.4 0 .7.1.9.3.3.2.4.4.5.7.1.3.1.7.1 1.3v3.2c0 .7 0 1.2-.1 1.5-.1.3-.3.5-.5.7-.3.2-.5.3-.9.3-.3 0-.6 0-.8-.2-.1-.2-.2-.3-.3-.3zm7.2-7.3l-.1.7c.2-.3.4-.5.6-.6.3-.1.5-.2.9-.2.6 0 1.1.3 1.4.9.2-.3.4-.5.7-.6s.5-.2.8-.2c.4 0 .7.1 1 .3.3.2.4.4.5.7.1.3.1.8.1 1.4v5.4H188v-5c0-.7 0-1.1-.1-1.2 0-.1-.1-.3-.3-.3-.2 0-.3.1-.3.3-.1.1-.1.5-.1 1.2v5H185v-4.8-1.3s-.1-.3-.3-.3c-.1 0-.2 0-.3.1-.1.1-.1.2-.1.3v6H182V54h2.3zm-7.2.2v.9c-.1 0-.3.1-.3.2s-.1.4-.1.8v3.2c0 .5 0 .8.1.9 0 .1.1.2.3.2v.9l-.4-.4v1.8h-2.3v-8.7h2.3v.6c.2-.1.3-.3.4-.4zm-7.6 7.5v-1.3c.1 0 .3 0 .3-.1s.1-.3.1-.6V56c0-.4 0-.6-.1-.7 0-.1-.1-.2-.3-.2v-1.3c.5 0 .9.1 1.3.2.4.2.6.4.9.6.2.3.3.5.4.8.1.3.1.6.1 1.2v1.9c0 .7 0 1.2-.1 1.5-.1.3-.2.6-.4.9-.2.3-.5.5-.9.6-.4-.1-.8 0-1.3 0zm0-7.9v1.3c-.1 0-.2.1-.3.2 0 .1-.1.3-.1.7v3.4c0 .4 0 .6.1.7s.1.2.3.2v1.3c-.5 0-.9 0-1.3-.1s-.6-.3-.8-.5c-.2-.3-.3-.5-.4-.8-.1-.3-.1-.8-.1-1.5v-1.9c0-.7.1-1.3.2-1.7s.4-.7.8-1 .9-.3 1.6-.3zm-12.2 7.9v-1.3c.2 0 .3-.1.3-.2.1-.1.1-.4.1-.8v-1h2.2v.6c0 .5 0 .8-.1 1.1 0 .3-.2.5-.4.8-.2.3-.5.5-.8.6-.3.1-.7.2-1.3.2zm0-3.8v-1.2h.3v-.6-.8c-.1-.1-.1-.2-.3-.2v-1.3c.6 0 1.1.1 1.5.4.4.3.7.6.9 1 .2.4.3 1 .3 1.7v1h-2.7zm7.3-5.6v9.3h-2.4v-9.3h2.4zm-7.3 1.5v1.3c-.1 0-.3.1-.3.1v1.4h.3v1.2h-.3v1.7c0 .4 0 .6.1.7 0 .1.1.1.3.1v1.3c-.5 0-.9-.1-1.2-.2-.4-.1-.7-.4-.9-.6-.2-.2-.4-.5-.4-.8-.1-.3-.1-.8-.1-1.3v-2.2c0-.7.1-1.2.3-1.6s.5-.7.9-.9c.4-.2.9-.3 1.4-.3h-.1v.1zm-14.1 7.9v-1.3c.2 0 .3-.1.4-.2 0-.1.1-.4.1-.8v-1h2.2v.6c0 .5 0 .8-.1 1.1-.1.3-.2.5-.4.8-.2.3-.5.5-.8.6-.4.1-.9.2-1.4.2zm0-3.8v-1.2h.4v-.6c0-.4 0-.6-.1-.8s-.1-.2-.3-.2v-1.3c.6 0 1.1.1 1.5.4.4.3.7.6.9 1 .2.4.3 1 .3 1.7v1h-2.7zm9.7-3.9l-1.1 7.6h-3l-1.1-7.6h2.1l.6 5.5c0-.4.1-1.4.3-3 .1-.9.1-1.7.2-2.5h2zm-9.7-.2v1.3c-.1 0-.2.1-.3.1 0 .1-.1.4-.1.8v.6h.3v1.2h-.3v1.7c0 .4 0 .6.1.7 0 .1.1.1.3.1v1.3c-.4 0-.9-.1-1.2-.2-.4-.1-.6-.4-.9-.6-.2-.2-.4-.5-.4-.8-.1-.3-.1-.8-.1-1.3v-2.2c0-.7.1-1.2.3-1.6s.5-.7.9-.9c.3-.1.7-.2 1.4-.2zm-7.7 7.8v-1.7c.1 0 .2-.1.3-.1.1-.1.1-.5.1-1.1v-3.6-.8s-.1-.2-.2-.3c0 0-.1 0-.1-.1v-1.6c.6 0 1.1.1 1.4.1.4.1.7.3.9.5s.4.5.4.8c.1.3.1.9.1 1.8v3.3c0 .8 0 1.4-.1 1.7-.1.3-.2.5-.4.7-.2.1-.4.3-.7.3-.3.1-.7.1-1.3.1h-.4zm0-9.3v1.6h-.4v6.1h.4v1.7h-2.8v-9.3h1.8c.3-.1.7-.1 1-.1zm-9.9 9.4v-1.3c.2 0 .3-.1.4-.2.1-.1.1-.4.1-.8v-1h2.2v.6c0 .5 0 .8-.1 1.1-.1.3-.2.5-.4.8-.2.3-.5.5-.8.6-.4.1-.8.2-1.4.2zm0-3.8v-1.2h.3v-.6c0-.4 0-.6-.1-.8 0-.1-.1-.2-.3-.2v-1.3c.6 0 1.1.1 1.5.4.4.3.7.6.9 1 .2.4.3 1 .3 1.7v1h-2.6zm0-4.1v1.3c-.2 0-.3.1-.3.1 0 .1-.1.4-.1.8v.6h.4v1.2h-.4v1.7c0 .4 0 .6.1.7.1.1.1.1.3.1v1.3c-.5 0-.9-.1-1.3-.2s-.6-.4-.9-.6c-.2-.2-.4-.5-.4-.8-.1-.3-.1-.8-.1-1.3v-2.2c0-.7.1-1.2.3-1.6s.5-.7.9-.9c.4-.2.9-.3 1.4-.3h.1v.1zm-13.2 7.6v-1.1c.2 0 .3 0 .3-.1.1-.1.1-.3.1-.7v-1.5c-.1.1-.3.2-.4.3v-1.3c.2-.1.3-.1.3-.2s.1-.3.1-.6c0-.4 0-.6-.1-.8-.1-.1-.1-.1-.3-.2v-1.3h.1c.8 0 1.4.1 1.8.4.4.3.6.6.7 1 .1.4.1 1.2.1 2.5v3.8h-2.3v-.7c-.1.2-.3.4-.4.5zm7.2-7.4l-.1 1c.3-.7.8-1.1 1.4-1.1v2.7c-.4 0-.7.1-.9.2-.2.1-.3.3-.4.5 0 .2-.1.6-.1 1.4v3h-2.3v-7.6h2.4zm-7.2-.2v1.3c-.2 0-.3.1-.3.2v1.6h-2.2v-.5c0-.6.1-1 .2-1.4.1-.3.4-.6.8-.9.3-.1.8-.3 1.5-.3zm0 3.1V58c-.1.1-.3.3-.3.4 0 .2-.1.4-.1.8s0 .6.1.8c0 .1.1.2.3.2v1.1s-.1 0-.1.1c-.2.1-.5.2-.8.2-.4 0-.8-.1-1.1-.3-.4-.2-.5-.7-.5-1.5V59c0-.6.1-1 .3-1.1.2-.2.6-.5 1.3-.8.3-.1.6-.3.9-.4zm-26.7 4.8v-1.3c.1 0 .2 0 .3-.1.1-.1.1-.3.1-.6V56c0-.4 0-.6-.1-.7 0-.1-.1-.2-.3-.2v-1.3c.5 0 .9.1 1.3.2.4.2.6.4.9.6.2.3.3.5.4.8.1.3.1.6.1 1.2v1.9c0 .7 0 1.2-.1 1.5-.1.3-.2.6-.5.9-.2.3-.5.5-.9.6-.4-.1-.8 0-1.2 0zm7.8-9.4v1.2c-.5 0-.8 0-.9.1-.1 0-.1.1-.1.4v.3h1v1.2H93v6.2h-2.3v-6.2h-.5v-1.2h.5c0-.5 0-.8.1-1 0-.2.1-.3.3-.5.1-.1.3-.2.6-.3.2-.1.6-.1 1.1-.1h.7v-.1zm4.4.6v1.2h.6v1.2h-.6v4.1c0 .5 0 .8.1.8.1.1.3.1.6.1v1.3h-.9c-.5 0-.9 0-1.1-.1-.2 0-.4-.1-.6-.3-.2-.1-.3-.3-.3-.5v-5.3h-.5V54h.5v-1.2h2.2v-.1zm10.1 1.1l-.9 7.6h-2.5c-.1-.9-.3-2.2-.5-3.7-.1.7-.1 1.4-.3 2l-.3 1.7H101l-1-7.6h2c0 .2.2 1.7.5 4.3 0-.3.2-1.7.5-4.3h1.9l.5 4.3c.1-1.3.2-2.7.5-4.3h2.1zm-27.3 1.1h-2.2v-.7c0-.3 0-.5-.1-.6 0-.1-.1-.1-.3-.1-.1 0-.3.1-.3.2-.1.1-.1.3-.1.5 0 .3 0 .6.1.7.1.1.3.3.7.6 1 .6 1.7 1.1 2 1.5.3.4.4 1.1.4 2 0 .6-.1 1.1-.3 1.4-.1.3-.4.6-.9.8-.4.2-.9.3-1.5.3s-1.2-.1-1.7-.4c-.4-.3-.8-.6-.9-.9-.1-.4-.2-.9-.2-1.6V58h2.3v1.1c0 .3 0 .5.1.6.1.1.2.1.4.1.1 0 .3 0 .4-.2.1-.1.1-.3.1-.6 0-.5-.1-.9-.2-1-.2-.2-.5-.5-1.1-.9-.6-.4-1-.7-1.2-.9-.2-.2-.4-.4-.5-.8-.1-.3-.2-.7-.2-1.2 0-.7.1-1.2.3-1.5s.5-.6.9-.8c.4-.2.9-.3 1.5-.3s1.1.1 1.6.3c.4.2.7.5.9.8.1.3.2.9.2 1.6v.6h-.2zm5-1.3v1.3c-.1 0-.3.1-.3.2s-.1.3-.1.7v3.4c0 .4 0 .6.1.7.1.1.1.2.3.2v1.3c-.5 0-.9 0-1.3-.1s-.6-.3-.8-.5c-.2-.3-.3-.5-.4-.8-.1-.3-.1-.8-.1-1.5v-1.9c0-.7.1-1.3.2-1.7.2-.4.4-.7.8-1s.9-.3 1.6-.3zM209.7 48.2v-3.6c.7 0 1.1-.1 1.4-.4.2-.3.3-.8.3-1.7V33c0-1-.1-1.7-.3-2-.2-.3-.6-.4-1.4-.4V27c2.4 0 4.6.3 6.4.6 1.9.4 3.3.9 4.3 1.6 1 .6 1.7 1.3 2.1 2 .4.7.6 1.8.6 3.2v5c0 1.8-.2 3.2-.5 4-.3.9-1.1 1.7-2.2 2.4-1.1.8-2.6 1.3-4.3 1.7-1.8.4-3.8.5-6.1.5h-.3v.2zm28.6-20.8l-.2 1.9c.9-.8 2-1.3 3.2-1.7 1.3-.4 2.7-.6 4.3-.6 3.1 0 5.6.8 7.4 2.3 1-.8 2.1-1.3 3.3-1.7 1.3-.4 2.6-.6 4.1-.6 2 0 3.6.3 4.9.8 1.3.5 2.1 1.1 2.5 1.9s.5 1.9.5 3.6v14.5H257V34.5c0-1.7-.1-2.8-.3-3.2-.2-.4-.7-.6-1.5-.6s-1.4.2-1.6.6c-.2.4-.3 1.5-.3 3.2v13.3H242v-13c0-2-.1-3.2-.3-3.6-.2-.4-.7-.6-1.5-.6-.5 0-1 .1-1.3.3-.4.2-.6.5-.6.8s-.1.9-.1 1.9v14.1h-11.3V27.4h11.4zm-28.6-.4v3.6c-.7 0-1.1.1-1.4.4-.3.3-.4.9-.4 2v9.2c0 .9.1 1.6.4 1.9.2.3.7.4 1.4.4v3.6c-2.5 0-4.7-.1-6.5-.5-1.8-.3-3.2-.8-4.2-1.4-1-.6-1.7-1.3-2.1-2.2-.4-.9-.6-2.2-.6-3.9V35c0-1.9.4-3.4 1.1-4.4.8-1.1 2.2-1.9 4.2-2.6 2-.6 4.5-1 7.6-1h.5zm-88.8 21.2v-3.6h.1c.9 0 1.5-.2 1.8-.5.3-.3.5-1 .5-2v-2.7h11v1.5c0 1.3-.1 2.2-.4 2.9-.3.7-1 1.4-2.1 2.2-1.1.8-2.5 1.3-4.2 1.7-1.7.4-3.8.6-6.3.6-.1-.1-.2-.1-.4-.1zm0-10.2v-3.3h1.7v-1.5c0-1.1-.1-1.8-.3-2-.2-.3-.6-.5-1.3-.5h-.1V27c3.1 0 5.6.4 7.6 1 2.1.6 3.6 1.5 4.5 2.6.9 1.1 1.3 2.6 1.3 4.6V38h-13.4zm41.3-10.6l-5.5 20.4h-15.2l-5.9-20.4H146l3.3 14.9c.3-1.1.6-3.8 1.3-8 .4-2.4.7-4.7 1.1-6.9h10.5zm30.5 6.4h-12.1v-4.3c0-1.3-.1-2-.4-2.4-.3-.3-.8-.5-1.7-.5-1 0-1.7.2-1.9.6-.3.4-.4 1.2-.4 2.5v11.5c0 1.2.1 2 .4 2.4.3.4.9.6 1.8.6s1.5-.2 1.8-.6c.3-.4.4-1.2.4-2.6v-3.1h12.1v1c0 2.6-.4 4.4-1 5.5-.7 1.1-2.2 2-4.5 2.8-2.3.8-5.2 1.2-8.6 1.2-3.6 0-6.5-.3-8.8-1-2.3-.7-3.8-1.6-4.6-2.8-.8-1.2-1.1-3.1-1.1-5.5v-7.3c0-1.8.1-3.1.4-4 .2-.9.9-1.8 2-2.6s2.7-1.5 4.8-1.9c2-.5 4.3-.7 7-.7 3.6 0 6.5.4 8.8 1.1 2.3.7 3.9 1.7 4.6 2.8.8 1.1 1.1 2.8 1.1 5.1v2.2zM89.7 23c3.2 0 5.5.2 6.9.4 2 .3 3.6.8 4.7 1.4 1.1.6 1.8 1.4 2 2.2.3.8.4 2.4.4 4.7v8.7c0 2.2-.2 3.7-.6 4.5s-1.1 1.4-2 1.8c-1 .4-2.2.7-3.6.9-1.5.1-3.6.3-6.5.3h-1.3v-4.4c.6-.1 1.1-.3 1.3-.5.4-.4.6-1.4.6-3.1v-9.7c0-1.1 0-1.8-.2-2.2-.1-.3-.4-.6-.9-.7-.2 0-.5-.1-.8-.1V23zm31.2 4v3.6c-.8 0-1.2.1-1.4.4-.2.3-.3 1-.3 2.1v1.5h1.7V38h-1.7v4.4c0 .9.1 1.5.4 1.8.3.3.7.4 1.3.4v3.6c-2.3 0-4.3-.2-6.2-.6-1.9-.4-3.3-.9-4.4-1.5-1-.7-1.8-1.4-2.2-2.2-.4-.8-.6-2-.6-3.5v-5.9c0-1.8.4-3.2 1.3-4.2s2.4-1.8 4.5-2.4c2-.5 4.4-.8 7.1-.8.2-.1.4-.1.5-.1zm-45.3-4.1h14.1v4.3c-.5 0-1.1-.1-1.9-.1v16.4c.8 0 1.4 0 1.9-.1v4.4H75.6V22.9z"/><path class="st1" d="M41.1 59.2c-2.2 1.8-4.7 3.3-7.3 4.2C31 64.5 28 65 25 65c-6.9 0-13.1-2.8-17.7-7.4C2.8 53.1 0 46.9 0 40s2.8-13.1 7.4-17.7C11.9 17.8 18.1 15 25 15c3.2 0 6.3.6 9.2 1.8 2.9 1.1 5.6 2.8 7.9 4.9 1.3 1 2.1 2.6 2.1 4.4 0 3.1-2.5 5.6-5.6 5.6-1.6 0-3.1-.6-4.1-1.7-1.3-1.2-2.8-2.1-4.4-2.8-1.6-.6-3.3-1-5.1-1-3.8 0-7.2 1.6-9.7 4.1-2.5 2.5-4 5.9-4 9.7 0 3.8 1.5 7.2 4 9.7 2.5 2.5 6 4 9.7 4 1.7 0 3.3-.3 4.9-.9 1.4-.5 2.7-1.2 3.7-2.1 1-1.1 2.5-1.8 4.1-1.8 3.1 0 5.7 2.5 5.7 5.6 0 2-.9 3.7-2.3 4.7z"/><path class="st2" d="M4.7 5.5c3-1.8 6.4-3.1 9.8-4.1C18 .5 21.5 0 25 0c11 0 21 4.5 28.3 11.7C60.5 19 65 29 65 40s-4.5 21-11.7 28.3C46.1 75.5 36.1 80 25 80c-3.5 0-7-.5-10.4-1.4-3.4-.9-6.8-2.3-9.8-4.1-2-1-3.3-2.9-3.3-5.2 0-3.1 2.5-5.7 5.6-5.7 1.3 0 2.4.4 3.4 1.1 2.1 1.2 4.5 2.2 7 2.9 2.4.7 5 1 7.4 1 7.9 0 15.1-3.2 20.3-8.4 5.2-5.2 8.4-12.4 8.4-20.3s-3.2-15.1-8.4-20.3-12.3-8.4-20.2-8.4c-2.5 0-5.1.4-7.6 1-2.4.6-4.7 1.6-6.8 2.7-.9.7-2.1 1.1-3.4 1.1-3.1 0-5.6-2.5-5.6-5.6 0-2.1 1.3-4 3.1-4.9z"/><path class="st0" d="M24.6 34.4c3 0 5.4 2.4 5.4 5.4 0 3-2.4 5.4-5.4 5.4s-5.4-2.4-5.4-5.4c0-3 2.5-5.4 5.4-5.4z"/></svg>