<?xml version="1.0" encoding="utf-8"?>
<!-- Generator: Adobe Illustrator 19.0.0, SVG Export Plug-In . SVG Version: 6.00 Build 0)  -->
<svg version="1.1" id="Layer_1" xmlns="http://www.w3.org/2000/svg" xmlns:xlink="http://www.w3.org/1999/xlink" x="0px" y="0px"
	 viewBox="0 0 268.4 80" style="enable-background:new 0 0 268.4 80;" xml:space="preserve">
<style type="text/css">
	.st0{fill-rule:evenodd;clip-rule:evenodd;fill:#0070AF;}
	.st1{fill:#A7A9AC;}
	.st2{fill:#0070AF;}
</style>
<path class="st0" d="M250.9,61.2v-1.1l0,0c0.1,0,0.3,0,0.3-0.1c0-0.1,0.1-0.3,0.1-0.7v-1.5c-0.1,0.1-0.3,0.2-0.4,0.3v-1.3
	c0.2-0.1,0.3-0.1,0.3-0.2c0-0.1,0.1-0.3,0.1-0.6c0-0.4,0-0.6-0.1-0.8c-0.1-0.1-0.2-0.1-0.3-0.2v-1.3h0.1c0.8,0,1.4,0.1,1.8,0.4
	c0.4,0.3,0.6,0.6,0.7,1c0.1,0.4,0.1,1.2,0.1,2.5v3.8h-2.2v-0.7C251.2,60.9,251.1,61.1,250.9,61.2L250.9,61.2z M258.2,53.8l0,0.7
	c0.2-0.3,0.4-0.5,0.6-0.6c0.3-0.1,0.5-0.2,0.9-0.2c0.4,0,0.7,0.1,1,0.3c0.3,0.2,0.4,0.4,0.5,0.7c0.1,0.3,0.1,0.8,0.1,1.4v5.4h-2.3
	v-5.3c0-0.5,0-0.9-0.1-1c0-0.1-0.1-0.2-0.3-0.2c-0.1,0-0.3,0.1-0.3,0.2c0,0.1-0.1,0.5-0.1,1v5.2h-2.3v-7.6H258.2L258.2,53.8z
	 M268.4,53.8l-0.6,5.5c-0.1,0.9-0.2,1.5-0.3,1.8c0,0.3-0.2,0.6-0.3,0.8c-0.2,0.2-0.4,0.4-0.7,0.4c-0.3,0.1-0.8,0.1-1.4,0.1h-1.4
	v-1.2c0.4,0,0.6,0,0.7-0.1c0.1,0,0.1-0.1,0.1-0.3c0-0.1,0-0.3-0.1-0.8l-1.3-6.4h2.1l0.8,5.1l0.4-5.1H268.4z M250.9,53.6v1.3h0
	c-0.1,0-0.3,0.1-0.3,0.2c0,0.1,0,0.4,0,0.8v0.8h-2.2v-0.5c0-0.6,0.1-1,0.2-1.4c0.1-0.3,0.4-0.6,0.8-0.9
	C249.8,53.8,250.3,53.6,250.9,53.6L250.9,53.6z M250.9,56.7V58c-0.1,0.1-0.3,0.3-0.3,0.4c0,0.2-0.1,0.4-0.1,0.8c0,0.4,0,0.6,0.1,0.8
	c0,0.1,0.1,0.2,0.3,0.2v1.1c0,0-0.1,0-0.1,0.1c-0.3,0.1-0.5,0.2-0.8,0.2c-0.4,0-0.8-0.1-1.1-0.3c-0.3-0.2-0.5-0.7-0.5-1.5V59
	c0-0.6,0.1-1,0.3-1.1c0.2-0.2,0.6-0.5,1.3-0.8C250.4,57,250.7,56.8,250.9,56.7L250.9,56.7z M243.6,61.1v-0.9l0,0
	c0.1,0,0.3,0,0.3-0.1s0.1-0.4,0.1-0.8v-3.3c0-0.5,0-0.8-0.1-0.8c0-0.1-0.1-0.2-0.3-0.2l0,0V54c0.1-0.1,0.2-0.2,0.3-0.2
	c0.3-0.1,0.5-0.2,0.8-0.2c0.4,0,0.6,0.1,0.9,0.3c0.3,0.2,0.4,0.4,0.5,0.7c0.1,0.3,0.1,0.7,0.1,1.3v3.2c0,0.7,0,1.2-0.1,1.5
	c-0.1,0.3-0.3,0.5-0.5,0.7c-0.3,0.2-0.5,0.3-0.9,0.3c-0.3,0-0.6,0-0.8-0.2C243.8,61.2,243.7,61.1,243.6,61.1z M243.6,54v0.9
	c-0.1,0-0.3,0.1-0.3,0.2s-0.1,0.4-0.1,0.8v3.2c0,0.5,0,0.8,0.1,0.9s0.1,0.2,0.3,0.2v0.9c-0.1-0.1-0.3-0.3-0.4-0.4v1.8h-2.3v-8.7h2.3
	l0,0.6C243.3,54.3,243.4,54.1,243.6,54L243.6,54z M225.4,61.5v-1.3c0.1,0,0.2,0,0.3-0.1c0-0.1,0-0.3,0-0.6v-3.5c0-0.4,0-0.6,0-0.7
	c-0.1-0.1-0.1-0.2-0.3-0.2l0,0v-1.3c0.5,0,0.9,0.1,1.3,0.2c0.4,0.2,0.6,0.4,0.9,0.6s0.4,0.5,0.4,0.8c0.1,0.3,0.1,0.6,0.1,1.2v1.9
	c0,0.7,0,1.2-0.1,1.5c-0.1,0.3-0.2,0.6-0.4,0.9c-0.3,0.3-0.5,0.5-0.9,0.6C226.3,61.4,225.9,61.5,225.4,61.5L225.4,61.5L225.4,61.5z
	 M232.6,53.8l-0.1,0.7c0.2-0.3,0.4-0.5,0.6-0.6c0.3-0.1,0.5-0.2,0.9-0.2c0.6,0,1.1,0.3,1.5,0.9c0.2-0.3,0.4-0.5,0.6-0.6
	s0.5-0.2,0.8-0.2c0.4,0,0.7,0.1,1,0.3c0.3,0.2,0.4,0.4,0.5,0.7c0.1,0.3,0.1,0.8,0.1,1.4v5.4h-2.2v-5c0-0.7,0-1.1-0.1-1.2
	c0-0.1-0.1-0.3-0.3-0.3c-0.2,0-0.3,0.1-0.3,0.3c-0.1,0.1-0.1,0.5-0.1,1.2v5h-2.3v-4.8c0-0.8,0-1.2,0-1.3s-0.1-0.3-0.3-0.3
	c-0.1,0-0.2,0-0.3,0.1c-0.1,0.1-0.1,0.2-0.1,0.3s0,0.4,0,0.7v5.3h-2.2v-7.6H232.6z M225.4,53.6v1.3c-0.1,0-0.2,0.1-0.3,0.2
	c-0.1,0.1-0.1,0.3-0.1,0.7v3.4c0,0.4,0,0.6,0.1,0.7c0,0.1,0.1,0.2,0.3,0.2v1.3c-0.5,0-0.9,0-1.3-0.1c-0.3-0.1-0.6-0.3-0.8-0.5
	c-0.2-0.3-0.3-0.5-0.4-0.8c-0.1-0.3-0.1-0.8-0.1-1.5v-1.9c0-0.7,0.1-1.3,0.3-1.7c0.1-0.4,0.4-0.7,0.8-1S224.7,53.6,225.4,53.6
	L225.4,53.6L225.4,53.6z M195.2,61.5v-1.3h0c0.2,0,0.3-0.1,0.4-0.2c0.1-0.1,0.1-0.4,0.1-0.8v-1h2.2v0.6c0,0.5,0,0.8-0.1,1.1
	c-0.1,0.3-0.2,0.5-0.4,0.8c-0.2,0.3-0.5,0.5-0.8,0.6C196.2,61.4,195.7,61.5,195.2,61.5L195.2,61.5L195.2,61.5z M195.2,57.7v-1.2h0.4
	v-0.6c0-0.4,0-0.6-0.1-0.8c0-0.1-0.1-0.2-0.3-0.2h0v-1.3c0.6,0,1.1,0.1,1.5,0.4c0.4,0.3,0.7,0.6,0.8,1c0.2,0.4,0.3,1,0.3,1.7v1
	H195.2L195.2,57.7z M202.4,53.8l0,0.7c0.2-0.3,0.4-0.5,0.6-0.6s0.5-0.2,0.8-0.2c0.4,0,0.7,0.1,1,0.3c0.3,0.2,0.4,0.4,0.5,0.7
	c0.1,0.3,0.1,0.8,0.1,1.4v5.4h-2.3v-5.3c0-0.5,0-0.9-0.1-1s-0.1-0.2-0.3-0.2c-0.1,0-0.3,0.1-0.3,0.2c-0.1,0.1-0.1,0.5-0.1,1v5.2
	h-2.3v-7.6H202.4L202.4,53.8z M210.1,52.7v1.2h0.6v1.2h-0.6v4.1c0,0.5,0,0.8,0.1,0.8c0.1,0.1,0.3,0.1,0.6,0.1v1.3h-0.9
	c-0.5,0-0.9,0-1.1-0.1c-0.2,0-0.4-0.1-0.6-0.3c-0.1-0.1-0.3-0.3-0.3-0.5c0-0.2,0-0.7,0-1.4v-3.9h-0.5v-1.2h0.5v-1.2H210.1
	L210.1,52.7z M220.5,56.1h-2.4v-1.6c0-0.5,0-0.8-0.1-0.9c-0.1-0.1-0.2-0.2-0.4-0.2s-0.3,0.1-0.4,0.2c-0.1,0.1-0.1,0.5-0.1,0.9v4.3
	c0,0.5,0,0.8,0.1,0.9c0,0.1,0.2,0.2,0.4,0.2s0.3-0.1,0.4-0.2c0-0.1,0.1-0.5,0.1-1v-1.2h2.4V58c0,1-0.1,1.7-0.2,2
	c-0.1,0.4-0.4,0.8-0.9,1c-0.5,0.3-1,0.5-1.7,0.5c-0.7,0-1.3-0.1-1.8-0.4c-0.5-0.3-0.8-0.6-0.9-1c-0.2-0.5-0.3-1.1-0.3-2v-2.7
	c0-0.6,0-1.1,0.1-1.5c0.1-0.3,0.2-0.6,0.4-1c0.2-0.3,0.5-0.5,0.9-0.7c0.4-0.2,0.9-0.3,1.4-0.3c0.7,0,1.3,0.1,1.8,0.4
	c0.4,0.3,0.8,0.6,0.9,1c0.1,0.4,0.2,1,0.2,1.9V56.1z M195.2,53.6v1.3c-0.1,0-0.2,0.1-0.3,0.1c0,0.1-0.1,0.4-0.1,0.8v0.6h0.3v1.2
	h-0.3v1.7c0,0.4,0,0.6,0.1,0.7c0,0.1,0.1,0.1,0.3,0.1v1.3c-0.4,0-0.9-0.1-1.2-0.2c-0.4-0.1-0.6-0.4-0.9-0.6
	c-0.2-0.2-0.4-0.5-0.4-0.8c-0.1-0.3-0.1-0.8-0.1-1.3v-2.2c0-0.7,0.1-1.2,0.3-1.6s0.5-0.7,0.9-0.9C194.1,53.7,194.5,53.6,195.2,53.6
	L195.2,53.6L195.2,53.6z M177.1,61.1v-0.9l0,0c0.1,0,0.3,0,0.3-0.1s0-0.4,0-0.8v-3.3c0-0.5,0-0.8,0-0.8c0-0.1-0.1-0.2-0.3-0.2l0,0
	V54c0.1-0.1,0.2-0.2,0.3-0.2c0.3-0.1,0.5-0.2,0.8-0.2c0.4,0,0.7,0.1,0.9,0.3c0.3,0.2,0.4,0.4,0.5,0.7c0.1,0.3,0.1,0.7,0.1,1.3v3.2
	c0,0.7,0,1.2-0.1,1.5c-0.1,0.3-0.3,0.5-0.5,0.7c-0.3,0.2-0.5,0.3-0.9,0.3c-0.3,0-0.6,0-0.8-0.2C177.3,61.2,177.2,61.1,177.1,61.1
	L177.1,61.1z M184.3,53.8l-0.1,0.7c0.2-0.3,0.4-0.5,0.6-0.6c0.3-0.1,0.5-0.2,0.9-0.2c0.6,0,1.1,0.3,1.4,0.9c0.2-0.3,0.4-0.5,0.7-0.6
	s0.5-0.2,0.8-0.2c0.4,0,0.7,0.1,1,0.3c0.3,0.2,0.4,0.4,0.5,0.7c0.1,0.3,0.1,0.8,0.1,1.4v5.4H188v-5c0-0.7,0-1.1-0.1-1.2
	c0-0.1-0.1-0.3-0.3-0.3c-0.2,0-0.3,0.1-0.3,0.3c-0.1,0.1-0.1,0.5-0.1,1.2v5H185v-4.8c0-0.8,0-1.2,0-1.3s-0.1-0.3-0.3-0.3
	c-0.1,0-0.2,0-0.3,0.1c-0.1,0.1-0.1,0.2-0.1,0.3s0,0.4,0,0.7v5.3H182v-7.6H184.3z M177.1,54v0.9c-0.1,0-0.3,0.1-0.3,0.2
	c0,0.1-0.1,0.4-0.1,0.8v3.2c0,0.5,0,0.8,0.1,0.9c0,0.1,0.1,0.2,0.3,0.2v0.9c-0.1-0.1-0.3-0.3-0.4-0.4v1.8h-2.3v-8.7h2.3l0,0.6
	C176.9,54.3,177,54.1,177.1,54L177.1,54z M169.5,61.5v-1.3c0.1,0,0.3,0,0.3-0.1c0-0.1,0.1-0.3,0.1-0.6v-3.5c0-0.4,0-0.6-0.1-0.7
	c0-0.1-0.1-0.2-0.3-0.2h0v-1.3c0.5,0,0.9,0.1,1.3,0.2c0.4,0.2,0.6,0.4,0.9,0.6c0.2,0.3,0.3,0.5,0.4,0.8c0.1,0.3,0.1,0.6,0.1,1.2v1.9
	c0,0.7,0,1.2-0.1,1.5c-0.1,0.3-0.2,0.6-0.4,0.9c-0.2,0.3-0.5,0.5-0.9,0.6C170.4,61.4,170,61.5,169.5,61.5L169.5,61.5z M169.5,53.6
	v1.3c-0.1,0-0.2,0.1-0.3,0.2c0,0.1-0.1,0.3-0.1,0.7v3.4c0,0.4,0,0.6,0.1,0.7s0.1,0.2,0.3,0.2v1.3c-0.5,0-0.9,0-1.3-0.1
	s-0.6-0.3-0.8-0.5c-0.2-0.3-0.3-0.5-0.4-0.8c-0.1-0.3-0.1-0.8-0.1-1.5v-1.9c0-0.7,0.1-1.3,0.2-1.7s0.4-0.7,0.8-1
	S168.8,53.6,169.5,53.6L169.5,53.6L169.5,53.6z M157.3,61.5v-1.3h0c0.2,0,0.3-0.1,0.3-0.2c0.1-0.1,0.1-0.4,0.1-0.8v-1h2.2v0.6
	c0,0.5,0,0.8-0.1,1.1c0,0.3-0.2,0.5-0.4,0.8c-0.2,0.3-0.5,0.5-0.8,0.6C158.3,61.4,157.9,61.5,157.3,61.5L157.3,61.5L157.3,61.5z
	 M157.3,57.7v-1.2h0.3v-0.6c0-0.4,0-0.6,0-0.8c-0.1-0.1-0.1-0.2-0.3-0.2h0v-1.3c0.6,0,1.1,0.1,1.5,0.4c0.4,0.3,0.7,0.6,0.9,1
	c0.2,0.4,0.3,1,0.3,1.7v1H157.3L157.3,57.7z M164.6,52.1v9.3h-2.4v-9.3H164.6z M157.3,53.6v1.3c-0.1,0-0.3,0.1-0.3,0.1
	c0,0.1,0,0.4,0,0.8v0.6h0.3v1.2H157v1.7c0,0.4,0,0.6,0.1,0.7c0,0.1,0.1,0.1,0.3,0.1v1.3c-0.5,0-0.9-0.1-1.2-0.2
	c-0.4-0.1-0.7-0.4-0.9-0.6c-0.2-0.2-0.4-0.5-0.4-0.8c-0.1-0.3-0.1-0.8-0.1-1.3v-2.2c0-0.7,0.1-1.2,0.3-1.6s0.5-0.7,0.9-0.9
	c0.4-0.2,0.9-0.3,1.4-0.3H157.3L157.3,53.6z M143.2,61.5v-1.3h0c0.2,0,0.3-0.1,0.4-0.2c0-0.1,0.1-0.4,0.1-0.8v-1h2.2v0.6
	c0,0.5,0,0.8-0.1,1.1c-0.1,0.3-0.2,0.5-0.4,0.8c-0.2,0.3-0.5,0.5-0.8,0.6C144.2,61.4,143.7,61.5,143.2,61.5L143.2,61.5L143.2,61.5z
	 M143.2,57.7v-1.2h0.4v-0.6c0-0.4,0-0.6-0.1-0.8s-0.1-0.2-0.3-0.2h0v-1.3c0.6,0,1.1,0.1,1.5,0.4c0.4,0.3,0.7,0.6,0.9,1
	c0.2,0.4,0.3,1,0.3,1.7v1H143.2L143.2,57.7z M152.9,53.8l-1.1,7.6h-3l-1.1-7.6h2.1l0.6,5.5c0-0.4,0.1-1.4,0.3-3
	c0.1-0.9,0.1-1.7,0.2-2.5H152.9z M143.2,53.6v1.3c-0.1,0-0.2,0.1-0.3,0.1c0,0.1-0.1,0.4-0.1,0.8v0.6h0.3v1.2h-0.3v1.7
	c0,0.4,0,0.6,0.1,0.7c0,0.1,0.1,0.1,0.3,0.1v1.3c-0.4,0-0.9-0.1-1.2-0.2c-0.4-0.1-0.6-0.4-0.9-0.6c-0.2-0.2-0.4-0.5-0.4-0.8
	c-0.1-0.3-0.1-0.8-0.1-1.3v-2.2c0-0.7,0.1-1.2,0.3-1.6s0.5-0.7,0.9-0.9C142.1,53.7,142.5,53.6,143.2,53.6L143.2,53.6L143.2,53.6z
	 M135.5,61.4v-1.7c0.1,0,0.2-0.1,0.3-0.1c0.1-0.1,0.1-0.5,0.1-1.1v-3.6c0-0.4,0-0.7,0-0.8s-0.1-0.2-0.2-0.3c0,0-0.1,0-0.1-0.1v-1.6
	c0.6,0,1.1,0.1,1.4,0.1c0.4,0.1,0.7,0.3,0.9,0.5s0.4,0.5,0.4,0.8c0.1,0.3,0.1,0.9,0.1,1.8v3.3c0,0.8,0,1.4-0.1,1.7
	c-0.1,0.3-0.2,0.5-0.4,0.7c-0.2,0.1-0.4,0.3-0.7,0.3c-0.3,0.1-0.7,0.1-1.3,0.1H135.5z M135.5,52.1v1.6c-0.1,0-0.3,0-0.4,0v6.1
	c0.1,0,0.3,0,0.4,0v1.7h-2.8v-9.3h1.8C134.8,52.1,135.2,52.1,135.5,52.1L135.5,52.1z M125.6,61.5v-1.3l0,0c0.2,0,0.3-0.1,0.4-0.2
	c0.1-0.1,0.1-0.4,0.1-0.8v-1h2.2v0.6c0,0.5,0,0.8-0.1,1.1c-0.1,0.3-0.2,0.5-0.4,0.8c-0.2,0.3-0.5,0.5-0.8,0.6
	C126.6,61.4,126.2,61.5,125.6,61.5L125.6,61.5L125.6,61.5z M125.6,57.7v-1.2h0.3v-0.6c0-0.4,0-0.6-0.1-0.8c0-0.1-0.1-0.2-0.3-0.2
	l0,0v-1.3c0.6,0,1.1,0.1,1.5,0.4c0.4,0.3,0.7,0.6,0.9,1c0.2,0.4,0.3,1,0.3,1.7v1H125.6z M125.6,53.6v1.3c-0.2,0-0.3,0.1-0.3,0.1
	c0,0.1-0.1,0.4-0.1,0.8v0.6h0.4v1.2h-0.4v1.7c0,0.4,0,0.6,0.1,0.7c0.1,0.1,0.1,0.1,0.3,0.1v1.3c-0.5,0-0.9-0.1-1.3-0.2
	c-0.4-0.1-0.6-0.4-0.9-0.6c-0.2-0.2-0.4-0.5-0.4-0.8c-0.1-0.3-0.1-0.8-0.1-1.3v-2.2c0-0.7,0.1-1.2,0.3-1.6s0.5-0.7,0.9-0.9
	c0.4-0.2,0.9-0.3,1.4-0.3H125.6L125.6,53.6z M112.4,61.2v-1.1l0,0c0.2,0,0.3,0,0.3-0.1c0.1-0.1,0.1-0.3,0.1-0.7v-1.5
	c-0.1,0.1-0.3,0.2-0.4,0.3v-1.3c0.2-0.1,0.3-0.1,0.3-0.2c0-0.1,0.1-0.3,0.1-0.6c0-0.4,0-0.6-0.1-0.8c-0.1-0.1-0.1-0.1-0.3-0.2v-1.3
	h0.1c0.8,0,1.4,0.1,1.8,0.4c0.4,0.3,0.6,0.6,0.7,1c0.1,0.4,0.1,1.2,0.1,2.5v3.8h-2.3v-0.7C112.7,60.9,112.5,61.1,112.4,61.2
	L112.4,61.2z M119.6,53.8l-0.1,1c0.3-0.7,0.8-1.1,1.4-1.1v2.7c-0.4,0-0.7,0.1-0.9,0.2c-0.2,0.1-0.3,0.3-0.4,0.5
	c0,0.2-0.1,0.6-0.1,1.4v3h-2.3v-7.6H119.6z M112.4,53.6v1.3l0,0c-0.2,0-0.3,0.1-0.3,0.2c0,0.1,0,0.4,0,0.8v0.8h-2.2v-0.5
	c0-0.6,0.1-1,0.2-1.4c0.1-0.3,0.4-0.6,0.8-0.9C111.2,53.8,111.7,53.6,112.4,53.6L112.4,53.6z M112.4,56.7V58
	c-0.1,0.1-0.3,0.3-0.3,0.4c0,0.2-0.1,0.4-0.1,0.8c0,0.4,0,0.6,0.1,0.8c0,0.1,0.1,0.2,0.3,0.2v1.1c0,0-0.1,0-0.1,0.1
	c-0.2,0.1-0.5,0.2-0.8,0.2c-0.4,0-0.8-0.1-1.1-0.3c-0.4-0.2-0.5-0.7-0.5-1.5V59c0-0.6,0.1-1,0.3-1.1c0.2-0.2,0.6-0.5,1.3-0.8
	C111.8,57,112.1,56.8,112.4,56.7L112.4,56.7z M85.7,61.5v-1.3c0.1,0,0.2,0,0.3-0.1c0.1-0.1,0.1-0.3,0.1-0.6v-3.5
	c0-0.4,0-0.6-0.1-0.7c0-0.1-0.1-0.2-0.3-0.2l0,0v-1.3c0.5,0,0.9,0.1,1.3,0.2c0.4,0.2,0.6,0.4,0.9,0.6c0.2,0.3,0.3,0.5,0.4,0.8
	c0.1,0.3,0.1,0.6,0.1,1.2v1.9c0,0.7,0,1.2-0.1,1.5c-0.1,0.3-0.2,0.6-0.5,0.9c-0.2,0.3-0.5,0.5-0.9,0.6
	C86.5,61.4,86.1,61.5,85.7,61.5L85.7,61.5L85.7,61.5z M93.5,52.1v1.2c-0.5,0-0.8,0-0.9,0.1c-0.1,0-0.1,0.1-0.1,0.4v0.3h1v1.2H93v6.2
	h-2.3v-6.2h-0.5v-1.2h0.5c0-0.5,0-0.8,0.1-1c0-0.2,0.1-0.3,0.3-0.5c0.1-0.1,0.3-0.2,0.6-0.3c0.2-0.1,0.6-0.1,1.1-0.1H93.5L93.5,52.1
	z M97.9,52.7v1.2h0.6v1.2h-0.6v4.1c0,0.5,0,0.8,0.1,0.8c0.1,0.1,0.3,0.1,0.6,0.1v1.3h-0.9c-0.5,0-0.9,0-1.1-0.1
	c-0.2,0-0.4-0.1-0.6-0.3c-0.2-0.1-0.3-0.3-0.3-0.5c0-0.2,0-0.7,0-1.4v-3.9h-0.5v-1.2h0.5v-1.2H97.9L97.9,52.7z M108,53.8l-0.9,7.6
	h-2.5c-0.1-0.9-0.3-2.2-0.5-3.7c-0.1,0.7-0.1,1.4-0.3,2l-0.3,1.7h-2.5l-1-7.6h2c0,0.2,0.2,1.7,0.5,4.3c0-0.3,0.2-1.7,0.5-4.3h1.9
	l0.5,4.3c0.1-1.3,0.2-2.7,0.5-4.3H108z M80.7,54.9h-2.2v-0.7c0-0.3,0-0.5-0.1-0.6c0-0.1-0.1-0.1-0.3-0.1c-0.1,0-0.3,0.1-0.3,0.2
	c-0.1,0.1-0.1,0.3-0.1,0.5c0,0.3,0,0.6,0.1,0.7c0.1,0.1,0.3,0.3,0.7,0.6c1,0.6,1.7,1.1,2,1.5c0.3,0.4,0.4,1.1,0.4,2
	c0,0.6-0.1,1.1-0.3,1.4c-0.1,0.3-0.4,0.6-0.9,0.8c-0.4,0.2-0.9,0.3-1.5,0.3c-0.6,0-1.2-0.1-1.7-0.4c-0.4-0.3-0.8-0.6-0.9-0.9
	c-0.1-0.4-0.2-0.9-0.2-1.6V58h2.3v1.1c0,0.3,0,0.5,0.1,0.6c0.1,0.1,0.2,0.1,0.4,0.1c0.1,0,0.3,0,0.4-0.2c0.1-0.1,0.1-0.3,0.1-0.6
	c0-0.5-0.1-0.9-0.2-1c-0.2-0.2-0.5-0.5-1.1-0.9c-0.6-0.4-1-0.7-1.2-0.9c-0.2-0.2-0.4-0.4-0.5-0.8c-0.1-0.3-0.2-0.7-0.2-1.2
	c0-0.7,0.1-1.2,0.3-1.5s0.5-0.6,0.9-0.8c0.4-0.2,0.9-0.3,1.5-0.3c0.6,0,1.1,0.1,1.6,0.3c0.4,0.2,0.7,0.5,0.9,0.8
	c0.1,0.3,0.2,0.9,0.2,1.6V54.9L80.7,54.9z M85.7,53.6v1.3c-0.1,0-0.3,0.1-0.3,0.2c0,0.1-0.1,0.3-0.1,0.7v3.4c0,0.4,0,0.6,0.1,0.7
	c0.1,0.1,0.1,0.2,0.3,0.2v1.3c-0.5,0-0.9,0-1.3-0.1c-0.4-0.1-0.6-0.3-0.8-0.5c-0.2-0.3-0.3-0.5-0.4-0.8c-0.1-0.3-0.1-0.8-0.1-1.5
	v-1.9c0-0.7,0.1-1.3,0.2-1.7c0.2-0.4,0.4-0.7,0.8-1S85,53.6,85.7,53.6L85.7,53.6z"/>
<path class="st0" d="M209.7,48.2v-3.6c0.7,0,1.1-0.1,1.4-0.4c0.2-0.3,0.3-0.8,0.3-1.7V33c0-1-0.1-1.7-0.3-2
	c-0.2-0.3-0.6-0.4-1.4-0.4l0,0V27c2.4,0,4.6,0.3,6.4,0.6c1.9,0.4,3.3,0.9,4.3,1.6c1,0.6,1.7,1.3,2.1,2c0.4,0.7,0.6,1.8,0.6,3.2v5
	c0,1.8-0.2,3.2-0.5,4c-0.3,0.9-1.1,1.7-2.2,2.4c-1.1,0.8-2.6,1.3-4.3,1.7c-1.8,0.4-3.8,0.5-6.1,0.5H209.7L209.7,48.2z M238.3,27.4
	l-0.2,1.9c0.9-0.8,2-1.3,3.2-1.7c1.3-0.4,2.7-0.6,4.3-0.6c3.1,0,5.6,0.8,7.4,2.3c1-0.8,2.1-1.3,3.3-1.7c1.3-0.4,2.6-0.6,4.1-0.6
	c2,0,3.6,0.3,4.9,0.8c1.3,0.5,2.1,1.1,2.5,1.9s0.5,1.9,0.5,3.6v14.5h-11.3V34.5c0-1.7-0.1-2.8-0.3-3.2c-0.2-0.4-0.7-0.6-1.5-0.6
	c-0.8,0-1.4,0.2-1.6,0.6c-0.2,0.4-0.3,1.5-0.3,3.2v13.3h-11.3v-13c0-2-0.1-3.2-0.3-3.6c-0.2-0.4-0.7-0.6-1.5-0.6
	c-0.5,0-1,0.1-1.3,0.3c-0.4,0.2-0.6,0.5-0.6,0.8s-0.1,0.9-0.1,1.9v14.1h-11.3V27.4H238.3z M209.7,27v3.6c-0.7,0-1.1,0.1-1.4,0.4
	c-0.3,0.3-0.4,0.9-0.4,2v9.2c0,0.9,0.1,1.6,0.4,1.9c0.2,0.3,0.7,0.4,1.4,0.4v3.6c-2.5,0-4.7-0.1-6.5-0.5c-1.8-0.3-3.2-0.8-4.2-1.4
	c-1-0.6-1.7-1.3-2.1-2.2c-0.4-0.9-0.6-2.2-0.6-3.9V35c0-1.9,0.4-3.4,1.1-4.4c0.8-1.1,2.2-1.9,4.2-2.6c2-0.6,4.5-1,7.6-1
	C209.4,27,209.5,27,209.7,27L209.7,27z M120.9,48.2v-3.6c0,0,0.1,0,0.1,0c0.9,0,1.5-0.2,1.8-0.5c0.3-0.3,0.5-1,0.5-2v-2.7h11v1.5
	c0,1.3-0.1,2.2-0.4,2.9c-0.3,0.7-1,1.4-2.1,2.2c-1.1,0.8-2.5,1.3-4.2,1.7c-1.7,0.4-3.8,0.6-6.3,0.6
	C121.2,48.2,121.1,48.2,120.9,48.2L120.9,48.2z M120.9,38v-3.3h1.7v-1.5c0-1.1-0.1-1.8-0.3-2c-0.2-0.3-0.6-0.5-1.3-0.5h-0.1V27
	c3.1,0,5.6,0.4,7.6,1c2.1,0.6,3.6,1.5,4.5,2.6c0.9,1.1,1.3,2.6,1.3,4.6V38H120.9L120.9,38z M162.2,27.4l-5.5,20.4h-15.2l-5.9-20.4
	h10.4l3.3,14.9c0.3-1.1,0.6-3.8,1.3-8c0.4-2.4,0.7-4.7,1.1-6.9H162.2L162.2,27.4z M192.7,33.8h-12.1v-4.3c0-1.3-0.1-2-0.4-2.4
	c-0.3-0.3-0.8-0.5-1.7-0.5c-1,0-1.7,0.2-1.9,0.6c-0.3,0.4-0.4,1.2-0.4,2.5v11.5c0,1.2,0.1,2,0.4,2.4c0.3,0.4,0.9,0.6,1.8,0.6
	c0.9,0,1.5-0.2,1.8-0.6c0.3-0.4,0.4-1.2,0.4-2.6v-3.1h12.1v1c0,2.6-0.4,4.4-1,5.5c-0.7,1.1-2.2,2-4.5,2.8c-2.3,0.8-5.2,1.2-8.6,1.2
	c-3.6,0-6.5-0.3-8.8-1c-2.3-0.7-3.8-1.6-4.6-2.8c-0.8-1.2-1.1-3.1-1.1-5.5v-7.3c0-1.8,0.1-3.1,0.4-4c0.2-0.9,0.9-1.8,2-2.6
	c1.1-0.8,2.7-1.5,4.8-1.9c2-0.5,4.3-0.7,7-0.7c3.6,0,6.5,0.4,8.8,1.1c2.3,0.7,3.9,1.7,4.6,2.8c0.8,1.1,1.1,2.8,1.1,5.1V33.8z
	 M89.7,23c3.2,0,5.5,0.2,6.9,0.4c2,0.3,3.6,0.8,4.7,1.4c1.1,0.6,1.8,1.4,2,2.2c0.3,0.8,0.4,2.4,0.4,4.7v8.7c0,2.2-0.2,3.7-0.6,4.5
	s-1.1,1.4-2,1.8c-1,0.4-2.2,0.7-3.6,0.9c-1.5,0.1-3.6,0.3-6.5,0.3h-1.3v-4.4c0.6-0.1,1.1-0.3,1.3-0.5c0.4-0.4,0.6-1.4,0.6-3.1v-9.7
	c0-1.1,0-1.8-0.2-2.2c-0.1-0.3-0.4-0.6-0.9-0.7c-0.2,0-0.5-0.1-0.8-0.1V23L89.7,23z M120.9,27v3.6c-0.8,0-1.2,0.1-1.4,0.4
	c-0.2,0.3-0.3,1-0.3,2.1v1.5h1.7V38h-1.7v4.4c0,0.9,0.1,1.5,0.4,1.8c0.3,0.3,0.7,0.4,1.3,0.4v3.6c-2.3,0-4.3-0.2-6.2-0.6
	c-1.9-0.4-3.3-0.9-4.4-1.5c-1-0.7-1.8-1.4-2.2-2.2c-0.4-0.8-0.6-2-0.6-3.5v-5.9c0-1.8,0.4-3.2,1.3-4.2c0.9-1,2.4-1.8,4.5-2.4
	c2-0.5,4.4-0.8,7.1-0.8C120.6,27,120.8,27,120.9,27z M75.6,22.9h9.1c1.9,0,3.5,0,5,0v4.3c-0.5,0-1.1-0.1-1.9-0.1v16.4
	c0.8,0,1.4,0,1.9-0.1v4.4H75.6V22.9z"/>
<path class="st1" d="M41.1,59.2c-2.2,1.8-4.7,3.3-7.3,4.2C31,64.5,28,65,25,65c-6.9,0-13.1-2.8-17.7-7.4C2.8,53.1,0,46.9,0,40
	s2.8-13.1,7.4-17.7C11.9,17.8,18.1,15,25,15c3.2,0,6.3,0.6,9.2,1.8c2.9,1.1,5.6,2.8,7.9,4.9c1.3,1,2.1,2.6,2.1,4.4
	c0,3.1-2.5,5.6-5.6,5.6c-1.6,0-3.1-0.6-4.1-1.7c-1.3-1.2-2.8-2.1-4.4-2.8c-1.6-0.6-3.3-1-5.1-1c-3.8,0-7.2,1.6-9.7,4.1
	c-2.5,2.5-4,5.9-4,9.7c0,3.8,1.5,7.2,4,9.7c2.5,2.5,6,4,9.7,4c1.7,0,3.3-0.3,4.9-0.9c1.4-0.5,2.7-1.2,3.7-2.1c1-1.1,2.5-1.8,4.1-1.8
	c3.1,0,5.7,2.5,5.7,5.6C43.4,56.5,42.5,58.2,41.1,59.2z"/>
<path class="st2" d="M4.7,5.5c3-1.8,6.4-3.1,9.8-4.1C18,0.5,21.5,0,25,0c11,0,21,4.5,28.3,11.7C60.5,19,65,29,65,40
	s-4.5,21-11.7,28.3C46.1,75.5,36.1,80,25,80c-3.5,0-7-0.5-10.4-1.4c-3.4-0.9-6.8-2.3-9.8-4.1c-2-1-3.3-2.9-3.3-5.2
	c0-3.1,2.5-5.7,5.6-5.7c1.3,0,2.4,0.4,3.4,1.1c2.1,1.2,4.5,2.2,7,2.9c2.4,0.7,5,1,7.4,1c7.9,0,15.1-3.2,20.3-8.4
	c5.2-5.2,8.4-12.4,8.4-20.3c0-7.9-3.2-15.1-8.4-20.3S32.9,11.2,25,11.2c-2.5,0-5.1,0.4-7.6,1c-2.4,0.6-4.7,1.6-6.8,2.7
	c-0.9,0.7-2.1,1.1-3.4,1.1c-3.1,0-5.6-2.5-5.6-5.6C1.6,8.3,2.9,6.4,4.7,5.5C4.7,5.5,4.7,5.5,4.7,5.5z"/>
<path class="st0" d="M24.6,34.4c3,0,5.4,2.4,5.4,5.4c0,3-2.4,5.4-5.4,5.4s-5.4-2.4-5.4-5.4C19.2,36.8,21.7,34.4,24.6,34.4z"/>
</svg>
