<svg xmlns="http://www.w3.org/2000/svg" width="217.521" height="60" viewBox="0 0 217.521 60"><path fill="#10559D" d="M41.188 45.275v1.595c0 11.194-8.475 13.13-20.764 13.13C5.17 60 0 54.277 0 37.277c0-16.83 5.424-22.81 20.51-22.81 15.258 0 20.678 6.397 20.678 21.716v2.948h-30.34c0 10.86 2.12 13.21 9.663 13.21 6.87 0 10.09-1.09 10.09-6.14v-.92h10.59zM20.594 22.127c-7.372 0-9.747 2.61-9.747 10.438h19.75c0-7.828-2.542-10.438-10.003-10.438zm39.404 37.735H49.403V.02h10.595v59.842zm49.628-14.587v1.595c0 11.194-8.476 13.13-20.764 13.13-15.26 0-20.43-5.723-20.43-22.723 0-16.83 5.428-22.81 20.516-22.81 15.254 0 20.677 6.397 20.677 21.716v2.948h-30.34c0 10.86 2.12 13.21 9.664 13.21 6.86 0 10.08-1.09 10.08-6.14v-.92h10.59zM89.03 22.127c-7.373 0-9.745 2.61-9.745 10.438H99.03c0-7.828-2.54-10.438-10-10.438zm38.898 8.852h3.036l12.886-16.52h12.12L139.5 36.38l18.903 23.48h-12.8l-13.557-18.576h-4.12V59.86h-10.292V.025h10.293V30.98zm61.332-3.64c0-4.128-1.782-5.558-9.325-5.558-7.628 0-8.643 1.26-8.643 5.89 0 3.62 1.27 4.462 11.95 5.22 9.914.67 17.797 3.195 17.797 12.54 0 12.54-8.31 14.56-19.75 14.56-9.24 0-20.86-.17-20.86-12.205v-2.35h10.852c0 5.805 2.03 7.237 7.627 7.237h3.216c6.105 0 8.56-1.77 8.56-6.144 0-3.87-2.455-5.22-11.525-5.722-12.033-.75-18.734-3.19-18.734-13.29 0-11.11 7.63-13.05 19.41-13.05 8.054 0 19.75.34 19.75 10.945 0 .42-.082 1.346-.17 1.936h-10.16zm13.92-20.17c0-3.978 3.2-7.17 7.174-7.17 3.95 0 7.168 3.192 7.168 7.17 0 3.97-3.218 7.17-7.168 7.17-3.975 0-7.173-3.2-7.173-7.17zm12.72.013c0-3.066-2.52-5.55-5.547-5.55-3.087 0-5.556 2.445-5.556 5.512 0 3.07 2.47 5.553 5.556 5.553 3.027 0 5.548-2.447 5.548-5.516zm-8.633-3.837h3.872c1.79 0 3.01.32 3.01 2.37 0 1.43-.74 2.02-2.11 2.11l1.88 3.276h-1.847l-1.728-3.18h-1.474v3.18h-1.613v-7.75zm1.614 3.33h2.3c.89 0 1.36-.19 1.36-1.164 0-.77-.71-.92-1.69-.92h-1.96V6.68z"/></svg>