<svg xmlns="http://www.w3.org/2000/svg" xmlns:xlink="http://www.w3.org/1999/xlink" width="153.029" height="60" viewBox="0 0 153.029 60"><path fill="#F16924" d="M136.52 16.069c.444-.736.102-1.341-.76-1.341h-6.978c-.859 0-1.924.605-2.367 1.341l-8.011 13.336c-.443.736-.443 1.943 0 2.682l1.773 2.953 3.184 5.298 3.054 5.082c.442.739 1.508 1.341 2.367 1.341h6.979c.801 0 1.123-.528.812-1.194l-8.062-13.48c-.443-.739-.443-1.946 0-2.682"/><defs><path id="a" d="M107.935 46.761h3.626c.858 0 1.924-.602 2.366-1.341l3.053-5.082c.361-.745.349-1.829-.063-2.516l-1.804-2.985-7.178 11.924z"/></defs><clipPath id="b"><use xlink:href="#a" overflow="visible"/></clipPath><path clip-path="url(#b)" fill="#F5C337" d="M107.935 34.837h9.406v11.924h-9.406z"/><circle clip-path="url(#b)" fill="#F5C337" cx="112.587" cy="40.799" r="5.347"/><circle clip-path="url(#b)" fill="#F5C438" cx="112.587" cy="40.799" r="5.115"/><circle clip-path="url(#b)" fill="#F6C439" cx="112.587" cy="40.799" r="4.882"/><circle clip-path="url(#b)" fill="#F6C53A" cx="112.587" cy="40.799" r="4.65"/><circle clip-path="url(#b)" fill="#F7C53B" cx="112.587" cy="40.799" r="4.417"/><circle clip-path="url(#b)" fill="#F7C63C" cx="112.587" cy="40.799" r="4.185"/><circle clip-path="url(#b)" fill="#F8C63D" cx="112.587" cy="40.799" r="3.952"/><circle clip-path="url(#b)" fill="#F8C73E" cx="112.587" cy="40.799" r="3.72"/><circle clip-path="url(#b)" fill="#F9C73F" cx="112.587" cy="40.799" r="3.487"/><circle clip-path="url(#b)" fill="#F9C840" cx="112.587" cy="40.799" r="3.255"/><circle clip-path="url(#b)" fill="#FAC841" cx="112.587" cy="40.799" r="3.022"/><circle clip-path="url(#b)" fill="#FAC943" cx="112.587" cy="40.799" r="2.79"/><circle clip-path="url(#b)" fill="#FAC944" cx="112.587" cy="40.799" r="2.557"/><circle clip-path="url(#b)" fill="#FBCA45" cx="112.587" cy="40.799" r="2.325"/><circle clip-path="url(#b)" fill="#FBCA46" cx="112.587" cy="40.799" r="2.092"/><circle clip-path="url(#b)" fill="#FCCB47" cx="112.587" cy="40.799" r="1.86"/><circle clip-path="url(#b)" fill="#FCCB48" cx="112.587" cy="40.799" r="1.627"/><circle clip-path="url(#b)" fill="#FDCC49" cx="112.587" cy="40.799" r="1.395"/><circle clip-path="url(#b)" fill="#FDCC4A" cx="112.587" cy="40.799" r="1.162"/><circle clip-path="url(#b)" fill="#FECD4B" cx="112.587" cy="40.799" r=".93"/><circle clip-path="url(#b)" fill="#FECD4C" cx="112.587" cy="40.799" r=".697"/><circle clip-path="url(#b)" fill="#FFCE4D" cx="112.587" cy="40.799" r=".465"/><circle clip-path="url(#b)" fill="#FFCE4E" cx="112.587" cy="40.799" r=".232"/><defs><path id="c" d="M111.832 32.087l-8.062 13.48c-.312.667.012 1.194.811 1.194h3.354l7.179-11.924-3.282-5.431c.443.735.443 1.942 0 2.681"/></defs><clipPath id="d"><use xlink:href="#c" overflow="visible"/></clipPath><path clip-path="url(#d)" fill="#05924B" d="M103.458 29.406h11.656v17.355h-11.656z"/><circle clip-path="url(#d)" fill="#05924B" cx="109.383" cy="38.084" r="7.353"/><circle clip-path="url(#d)" fill="#05934C" cx="109.383" cy="38.084" r="7.033"/><circle clip-path="url(#d)" fill="#06944D" cx="109.383" cy="38.084" r="6.714"/><circle clip-path="url(#d)" fill="#06954E" cx="109.383" cy="38.084" r="6.394"/><circle clip-path="url(#d)" fill="#06964F" cx="109.383" cy="38.084" r="6.074"/><circle clip-path="url(#d)" fill="#079750" cx="109.383" cy="38.084" r="5.755"/><circle clip-path="url(#d)" fill="#079851" cx="109.383" cy="38.084" r="5.435"/><circle clip-path="url(#d)" fill="#089952" cx="109.383" cy="38.084" r="5.115"/><circle clip-path="url(#d)" fill="#089A53" cx="109.383" cy="38.084" r="4.796"/><circle clip-path="url(#d)" fill="#089B54" cx="109.383" cy="38.084" r="4.476"/><circle clip-path="url(#d)" fill="#099C55" cx="109.383" cy="38.084" r="4.156"/><circle clip-path="url(#d)" fill="#099E56" cx="109.383" cy="38.084" r="3.836"/><circle clip-path="url(#d)" fill="#099F56" cx="109.383" cy="38.084" r="3.517"/><circle clip-path="url(#d)" fill="#0AA057" cx="109.383" cy="38.084" r="3.197"/><circle clip-path="url(#d)" fill="#0AA158" cx="109.383" cy="38.084" r="2.877"/><circle clip-path="url(#d)" fill="#0AA259" cx="109.383" cy="38.084" r="2.558"/><circle clip-path="url(#d)" fill="#0BA35A" cx="109.383" cy="38.084" r="2.238"/><circle clip-path="url(#d)" fill="#0BA45B" cx="109.383" cy="38.084" r="1.918"/><circle clip-path="url(#d)" fill="#0CA55C" cx="109.383" cy="38.084" r="1.599"/><circle clip-path="url(#d)" fill="#0CA65D" cx="109.383" cy="38.084" r="1.279"/><circle clip-path="url(#d)" fill="#0CA75E" cx="109.383" cy="38.084" r=".959"/><circle clip-path="url(#d)" fill="#0DA85F" cx="109.383" cy="38.084" r=".639"/><circle clip-path="url(#d)" fill="#0DA960" cx="109.383" cy="38.084" r=".32"/><defs><path id="e" d="M104.581 14.728c-.862 0-1.203.605-.76 1.34l13.096 21.753c.412.687.425 1.771.063 2.516l3.184-5.299-12.228-20.311h-3.355v.001z"/></defs><clipPath id="f"><use xlink:href="#e" overflow="visible"/></clipPath><path clip-path="url(#f)" fill="#557EBF" d="M103.378 14.727h16.786v25.61h-16.786z"/><circle clip-path="url(#f)" fill="#557EBF" cx="111.895" cy="27.532" r="10.778"/><circle clip-path="url(#f)" fill="#577EC0" cx="111.895" cy="27.532" r="5.389"/><defs><path id="g" d="M107.937 14.728l12.228 20.311 1.773-2.953c.442-.739.442-1.946 0-2.682l-8.011-13.337c-.443-.736-1.509-1.34-2.366-1.34l-3.624.001z"/></defs><clipPath id="h"><use xlink:href="#g" overflow="visible"/></clipPath><path clip-path="url(#h)" fill="#CD382D" d="M107.937 14.727h14.443v20.312h-14.443z"/><circle clip-path="url(#h)" fill="#CD382D" cx="115.103" cy="24.883" r="8.789"/><circle clip-path="url(#h)" fill="#CE392E" cx="115.103" cy="24.883" r="8.327"/><circle clip-path="url(#h)" fill="#CF3A2F" cx="115.103" cy="24.883" r="7.864"/><circle clip-path="url(#h)" fill="#D03B30" cx="115.103" cy="24.883" r="7.401"/><circle clip-path="url(#h)" fill="#D13C31" cx="115.103" cy="24.883" r="6.939"/><circle clip-path="url(#h)" fill="#D23D32" cx="115.103" cy="24.883" r="6.476"/><circle clip-path="url(#h)" fill="#D33E33" cx="115.103" cy="24.883" r="6.014"/><circle clip-path="url(#h)" fill="#D43F34" cx="115.103" cy="24.883" r="5.551"/><circle clip-path="url(#h)" fill="#D54035" cx="115.103" cy="24.883" r="5.088"/><circle clip-path="url(#h)" fill="#D74236" cx="115.103" cy="24.883" r="4.626"/><circle clip-path="url(#h)" fill="#D84337" cx="115.103" cy="24.883" r="4.163"/><circle clip-path="url(#h)" fill="#D94438" cx="115.103" cy="24.883" r="3.701"/><circle clip-path="url(#h)" fill="#DA4539" cx="115.103" cy="24.883" r="3.238"/><circle clip-path="url(#h)" fill="#DB463A" cx="115.103" cy="24.883" r="2.776"/><circle clip-path="url(#h)" fill="#DC473B" cx="115.103" cy="24.883" r="2.313"/><circle clip-path="url(#h)" fill="#DD483C" cx="115.103" cy="24.883" r="1.85"/><circle clip-path="url(#h)" fill="#DE493D" cx="115.103" cy="24.883" r="1.388"/><circle clip-path="url(#h)" fill="#DF4A3E" cx="115.103" cy="24.883" r=".925"/><circle clip-path="url(#h)" fill="#E04B3F" cx="115.103" cy="24.883" r=".463"/><path fill="#4D4D4D" d="M13.3 28.035h13.085v16.358c-3.553 1.219-7.454 1.822-11.723 1.822-4.67 0-8.281-1.354-10.836-4.062-2.554-2.711-3.826-6.583-3.826-11.607 0-4.892 1.396-8.697 4.191-11.425s6.707-4.074 11.74-4.074c1.912 0 3.708.173 5.4.537 1.702.356 3.182.809 4.441 1.357l-2.604 6.427c-2.182-1.079-4.582-1.616-7.197-1.616-2.382 0-4.236.788-5.544 2.337-1.315 1.556-1.96 3.773-1.96 6.668 0 2.836.587 4.996 1.778 6.484 1.172 1.491 2.871 2.222 5.102 2.222 1.221 0 2.344-.108 3.361-.349v-4.746h-5.408v-6.333zM48.1 30.285c0-2.786-.546-4.843-1.642-6.189-1.096-1.334-2.777-2.009-5.014-2.009h-2.384v16.99h1.825c2.495 0 4.321-.721 5.477-2.171 1.164-1.433 1.738-3.651 1.738-6.621m8.503-.287c0 5.052-1.384 8.954-4.179 11.693-2.777 2.739-6.697 4.105-11.74 4.105h-9.809v-30.328h10.489c4.862 0 8.621 1.251 11.271 3.74 2.652 2.479 3.968 6.081 3.968 10.79"/><path fill="#4D4D4D" d="M72.515 28.035h13.097v16.358c-3.556 1.219-7.465 1.822-11.723 1.822-4.67 0-8.283-1.354-10.84-4.062-2.545-2.71-3.822-6.582-3.822-11.607 0-4.892 1.392-8.697 4.187-11.425 2.788-2.728 6.707-4.074 11.744-4.074 1.903 0 3.708.173 5.41.537 1.681.356 3.162.809 4.416 1.357l-2.591 6.427c-2.182-1.079-4.585-1.616-7.197-1.616-2.393 0-4.237.788-5.555 2.337-1.297 1.556-1.951 3.773-1.951 6.668 0 2.836.587 4.996 1.768 6.484 1.18 1.491 2.883 2.222 5.11 2.222 1.221 0 2.348-.108 3.366-.349v-4.746h-5.42l.001-6.333z"/><path fill="#4D4D4D" d="M103.367 54h-11.87v-46.389h11.87v3.662h-7.506v39.039h7.506v3.688zM136.847 50.313h7.507v-39.04h-7.507v-3.662h11.87v46.39h-11.87v-3.688z" enable-background="new"/></svg>