<?xml version="1.0" encoding="utf-8"?>
<!-- Generator: Adobe Illustrator 19.0.0, SVG Export Plug-In . SVG Version: 6.00 Build 0)  -->
<svg version="1.1" id="Layer_1" xmlns="http://www.w3.org/2000/svg" xmlns:xlink="http://www.w3.org/1999/xlink" x="0px" y="0px"
	 viewBox="251.1 496.2 244.1 60" enable-background="new 251.1 496.2 244.1 60" xml:space="preserve">
<g>
	<g transform="translate(-985.904 -3367.887)">
		<g enable-background="new    ">
			<path fill="#4E4E4E" d="M1306.2,3890.1h14.1v17.6c-3.8,1.3-8,2-12.6,2c-5,0-8.9-1.5-11.6-4.4s-4.1-7.1-4.1-12.5
				c0-5.3,1.5-9.4,4.5-12.3c3-2.9,7.2-4.4,12.6-4.4c2.1,0,4,0.2,5.8,0.6s3.4,0.9,4.8,1.5l-2.8,6.9c-2.3-1.2-4.9-1.7-7.7-1.7
				c-2.6,0-4.6,0.8-6,2.5c-1.4,1.7-2.1,4.1-2.1,7.2c0,3,0.6,5.4,1.9,7s3.1,2.4,5.5,2.4c1.3,0,2.5-0.1,3.6-0.4v-5.1h-5.8
				L1306.2,3890.1L1306.2,3890.1z M1351.8,3892.2c0,5.4-1.5,9.6-4.5,12.6s-7.2,4.4-12.6,4.4h-10.5v-32.6h11.3c5.2,0,9.3,1.3,12.1,4
				S1351.8,3887.2,1351.8,3892.2L1351.8,3892.2z M1342.7,3892.5c0-3-0.6-5.2-1.8-6.6s-3-2.2-5.4-2.2h-2.6v18.3h2
				c2.7,0,4.6-0.8,5.9-2.3S1342.7,3895.7,1342.7,3892.5L1342.7,3892.5z M1368.1,3890.1h14.1v17.6c-3.8,1.3-8,2-12.6,2
				c-5,0-8.9-1.5-11.6-4.4c-2.7-2.9-4.1-7.1-4.1-12.5c0-5.3,1.5-9.4,4.5-12.3c3-2.9,7.2-4.4,12.6-4.4c2.1,0,4,0.2,5.8,0.6
				c1.8,0.4,3.4,0.9,4.8,1.5l-2.8,6.9c-2.3-1.2-4.9-1.7-7.7-1.7c-2.6,0-4.6,0.8-6,2.5c-1.4,1.7-2.1,4.1-2.1,7.2c0,3,0.6,5.4,1.9,7
				s3.1,2.4,5.5,2.4c1.3,0,2.5-0.1,3.6-0.4v-5.1h-5.8L1368.1,3890.1L1368.1,3890.1z"/>
		</g>
	</g>
</g>
<g enable-background="new    ">
	<path fill="#4E4E4E" d="M419.1,541.3v-32.6h5.3v28h13.8v4.6H419.1z"/>
	<path fill="#4E4E4E" d="M446.9,541.3l-9.4-24.7h5.5l5,14.3c0.9,2.4,1.4,4.4,1.6,5.8h0.2c0.1-1.1,0.7-3,1.6-5.8l5-14.3h5.6
		l-9.4,24.7H446.9z"/>
	<path fill="#4E4E4E" d="M463.4,510.1c0-0.9,0.3-1.7,0.8-2.2c0.5-0.5,1.2-0.8,2.2-0.8c0.9,0,1.6,0.3,2.2,0.8
		c0.5,0.5,0.8,1.2,0.8,2.2c0,0.9-0.3,1.6-0.8,2.1c-0.5,0.5-1.2,0.8-2.2,0.8c-1,0-1.7-0.3-2.2-0.8S463.4,511,463.4,510.1z M469,541.3
		h-5.2v-24.7h5.2V541.3z"/>
	<path fill="#4E4E4E" d="M480.1,541.3l-9.4-24.7h5.5l5,14.3c0.9,2.4,1.4,4.4,1.6,5.8h0.2c0.1-1.1,0.7-3,1.6-5.8l5-14.3h5.6
		l-9.4,24.7H480.1z"/>
</g>
<g>
	<g>
		<path fill="#F6C25B" d="M260.1,556h6.8c1.6,0,3.6-1.1,4.4-2.5l5.7-9.5c0.7-1.4,0.7-3.4-0.1-4.7l-3.4-5.6L260.1,556z"/>
		<path fill="#0A985C" d="M267.4,528.5l-15.1,25.3c-0.6,1.2,0,2.2,1.5,2.2h6.3l13.4-22.3l-6.1-10.2
			C268.2,524.9,268.2,527.1,267.4,528.5"/>
		<path fill="#5586C5" d="M253.8,496c-1.6,0-2.3,1.1-1.4,2.5l24.5,40.7c0.8,1.3,0.8,3.3,0.1,4.7l6-9.9l-22.9-38L253.8,496L253.8,496
			z"/>
		<path fill="#D9423E" d="M260.1,496l22.9,38l3.3-5.5c0.8-1.4,0.8-3.6,0-5l-15-25c-0.8-1.4-2.8-2.5-4.4-2.5H260.1L260.1,496z"/>
	</g>
</g>
<path fill="#168B58" d="M267.4,528.5l-3.6,6l6.5,4.6l3.3-5.5l-6.1-10.2C268.2,524.9,268.2,527.1,267.4,528.5z"/>
<path fill="#D7AB56" d="M273.5,533.7l-3.3,5.5l6.8,4.8c0.7-1.4,0.7-3.4-0.1-4.7L273.5,533.7z"/>
</svg>
