<svg xmlns="http://www.w3.org/2000/svg" width="177.795" height="60" viewBox="0 0 177.795 60"><g fill-rule="evenodd" clip-rule="evenodd"><path fill="#6D6E71" d="M173.028 14.072h1.106l.018.04c.18.395.36.787.526 1.183.18.444.34.896.536 1.335l.018.04.508-1.167.4-.905.063-.18c0-.102-.104-.102-.195-.102l-.406.018.406-.264h1.483l-.1.102c-.11.097-.16.166-.16.356l.017.198.07.873c.036.38.07.76.14 1.14.06.31.127.42.348.582-.244.046-.41.07-.657.07-.1 0-.277 0-.438-.12-.19-.15-.218-.385-.25-.805l-.08-.86-.054-.817-.01-.056-.026.06-.467 1.062c-.367.84-.393.894-.466 1.12l.05.14c-.133.03-.66.205-.854.28-.15-.41-.67-1.75-1.085-2.664l-.115 1.164c-.013.13-.09.994-.09 1.073 0 .1.023.126.204.145l.404.06-.233.14h-.86l.12-.143.06-.1c.03-.074.042-.204.06-.39l.104-.84.127-1.23.01-.145c0-.12-.045-.18-.184-.18l-.43.007.385-.235zm-.203 0l-.2.47-.208.094.05-.235c0-.1-.124-.11-.253-.11l-.644.01c-.056 1.8-.056 1.96-.056 2.2l.01.398c.014.2.078.24.29.255l.394.04-.3.148h-1.54l.105-.147c.102-.155.116-.178.116-.28v-1.27c.01-.397.04-.795.04-1.187l-.01-.156h-.56c-.287.01-.29.013-.44.25l-.25.09.246-.567h3.203z"/><path fill="#EF3E35" d="M166.847 40.433c-.65.355-1.3.768-1.95 1.064-1.952.887-3.96 1.123-5.734 1.123-1.89 0-4.847-.12-7.862-2.305-4.19-2.956-6.02-8.04-6.02-12.473 0-9.162 7.45-13.655 13.54-13.655 2.126 0 4.314.532 6.09 1.655 2.95 1.95 3.72 4.492 4.133 5.852l-13.89 5.615-4.552.35c1.48 7.503 6.56 11.88 12.178 11.88 3.015 0 5.203-1.067 7.214-2.07l-3.133 2.96zM161.29 22.82c1.122-.416 1.714-.77 1.714-1.598 0-2.364-2.658-5.084-5.853-5.084-2.36 0-6.79 1.833-6.79 8.218 0 1.005.12 2.07.18 3.133l10.76-4.67z"/><path fill="#2FB457" d="M143.85 41.734h-10.46c1.358-1.773 1.595-1.95 1.595-3.133v-9.63c0-4.61.06-11.17.235-17.32.06-3.01.297-6.792.355-9.512h-4.61L135.4 0h8.45c-1.83 1.065-2.422 1.42-2.657 3.49-.472 4.55-.532 11.76-.532 20.155V37.3c0 2.306.42 2.66 2.37 2.838l3.02.295-2.19 1.3z"/><path fill="#0075BF" d="M124.463 17.084c1.36 1.123 4.197 3.487 4.197 7.98 0 4.374-2.483 6.443-4.964 8.394-.77.768-1.656 1.597-1.656 2.897 0 1.3.887 2.01 1.537 2.54l2.128 1.657c2.603 2.186 4.964 4.197 4.964 8.276 0 5.556-5.38 11.172-15.55 11.172-8.57 0-12.71-4.08-12.71-8.454 0-2.128 1.06-5.144 4.55-7.212 3.662-2.246 8.63-2.54 11.286-2.718-.827-1.064-1.77-2.187-1.77-4.02 0-1.005.294-1.596.59-2.306-.65.06-1.3.12-1.892.12-6.266 0-9.814-4.67-9.814-9.282 0-2.72 1.243-5.734 3.785-7.92 3.37-2.78 7.39-3.252 10.58-3.252h12.177l-3.782 2.128h-3.664zm-4.197 26.246c-.472-.06-.77-.06-1.36-.06-.53 0-3.724.12-6.207.947-1.3.473-5.09 1.89-5.09 6.09 0 4.195 4.08 7.21 10.4 7.21 5.676 0 8.69-2.72 8.69-6.383 0-3.016-1.95-4.612-6.444-7.804zm1.716-11.23c1.357-1.36 1.477-3.253 1.477-4.317 0-4.256-2.55-10.877-7.45-10.877-1.54 0-3.19.77-4.14 1.95-1.01 1.242-1.3 2.838-1.3 4.375 0 3.96 2.3 10.53 7.39 10.53 1.47 0 3.07-.71 4.02-1.652z"/><path fill="#FFDF1C" d="M87.813 42.502c-9.4 0-14.423-7.33-14.423-13.95 0-7.743 6.325-14.364 15.31-14.364 8.69 0 14.13 6.798 14.13 13.95-.002 6.975-5.382 14.364-15.017 14.364zm7.39-4.787c1.418-1.892 1.773-4.257 1.773-6.562 0-5.202-2.483-15.133-9.813-15.133-1.95 0-3.9.77-5.32 2.01-2.304 2.07-2.72 4.67-2.72 7.212 0 5.852 2.898 15.487 10.05 15.487 2.304 0 4.67-1.13 6.03-3.02z"/><path fill="#EF3E35" d="M56.365 42.502c-9.4 0-14.424-7.33-14.424-13.95 0-7.743 6.33-14.364 15.31-14.364 8.69 0 14.13 6.798 14.13 13.95 0 6.975-5.37 14.364-15.01 14.364zm7.388-4.787c1.42-1.892 1.774-4.257 1.774-6.562 0-5.202-2.482-15.133-9.812-15.133-1.95 0-3.902.77-5.32 2.01-2.306 2.07-2.72 4.67-2.72 7.212 0 5.852 2.897 15.487 10.05 15.487 2.305 0 4.67-1.13 6.028-3.02z"/><path fill="#0075BF" d="M38.183 40.44l-7.925 1.827c-3.214.5-6.097.943-9.144.943C5.818 43.21 0 31.96 0 23.148 0 12.398 8.258 2.422 22.39 2.422c2.992 0 5.874.444 8.478 1.164 4.156 1.164 6.097 2.605 7.315 3.437l-4.6 4.377-1.938.443 1.385-2.217C31.146 7.8 27.71 4.418 21.17 4.418c-8.757 0-15.35 6.65-15.35 16.35 0 10.417 7.537 20.226 19.617 20.226 3.548 0 5.376-.72 7.038-1.385v-8.93l-8.368.44 4.434-2.384h11.75l-1.44 1.384c-.39.333-.44.444-.55.888-.05.5-.11 2.105-.11 2.66v6.76z"/></g></svg>