<svg xmlns="http://www.w3.org/2000/svg" viewBox="0 0 1425.72 402.45334" height="402.453" width="1425.72"><defs><clipPath id="a"><path d="M0 0h10692.9v3018H0z"/></clipPath></defs><g clip-path="url(#a)" transform="matrix(.13333 0 0 -.13333 0 402.453)"><path d="M1225.77 2948.41c66.68 38.5 175.8 38.5 242.48 0l1064.53-614.6c66.68-38.5 121.24-133 121.24-210V894.602c0-77-54.56-171.5-121.24-210L1468.25 70c-66.68-38.5-175.8-38.5-242.48 0L161.242 684.602C94.56 723.102 40 817.602 40 894.602V2123.81c0 77 54.56 171.5 121.242 210z" fill="none" stroke="#442b87" stroke-width="80" stroke-miterlimit="10"/><path d="M2030.08 857.45c0-112.5-72-175.51-168.75-175.51-38.32 0-72.65 10.04-100.26 28.958 11.03 29.14 16.64 58.973 13.72 87.852-8.25 81.672-90.75 127.988-144.27 179.72-41.73 40.32-83.46 80.64-125.19 120.97-1.22 1.22-2.03 2.55-2.75 3.97-.14.29-.4.54-.57.85-.11.28-.08.61-.18.89-.11.31-.11.58-.2.89-48.12-51.03-50.05-129.93-5.67-183.13h-35.84c-40.21 64.55-32.45 150.67 23.6 206.71 2.38 2.4 5.4 3.54 8.51 3.93-13.04 25.27-39.15 41.48-67.74 41.48-42.13 0-76.37-34.22-76.37-76.36V922.91h-35.33c3.96 9.22 6.17 19.36 6.17 30.02v145.78c0 42.06-34.23 76.32-76.33 76.32s-76.34-34.22-76.33-76.32V952.93c0-10.65 2.21-20.8 6.17-30.02h-30.92c-2.83 9.53-4.41 19.602-4.41 30.04v293.84c0 42.07-34.23 76.32-76.36 76.32-42.1 0-76.33-34.25-76.28-76.35v-402.8c0-3.538.176-7.038.266-10.562-9.62-97.328-77.875-151.457-167.473-151.457-96.746 0-168.75 63.01-168.75 175.51v1278.03c0 112.51 72.004 175.5 168.75 175.5 96.754 0 168.758-62.99 168.758-175.5v-371.03c0-58.53 47.45-105.98 105.98-105.98h494.56c58.53 0 105.98 47.45 105.98 105.98v371.03c0 112.51 72 175.5 168.76 175.5 96.75 0 168.75-62.99 168.75-175.5zm-683.07 2160.96L40 2263.81V754.602L1347.01 0l1307.01 754.602V2263.81l-1307.01 754.6" fill="#442b87"/><path d="M1606.28 1455.87c-42.05 0-76.3-34.24-76.3-76.34v-263.38l152.67-147.53v410.91c0 42.07-34.23 76.34-76.37 76.34" fill="#442b87"/><path d="M3487.51 2170.24h270.55v-480.59c62.3 80.1 142.4 153.08 279.45 153.08 204.7 0 323.94-135.27 323.94-354.21V870.89h-270.54v532.2c0 128.15-60.52 194.01-163.75 194.01-103.24 0-169.1-65.86-169.1-194.01v-532.2h-270.55v1299.35m1673.15-962.95v48.06c-46.28 21.36-106.79 35.6-172.65 35.6-115.7 0-186.89-46.27-186.89-135.28 0-72.98 60.52-115.69 147.74-115.69 126.37 0 211.8 69.41 211.8 167.31zm-621.19-58.74c0 208.26 158.41 304.37 384.46 304.37 96.12 0 165.54-16.02 233.18-39.15v16.01c0 112.14-69.43 174.44-204.7 174.44-103.23 0-176.21-19.58-263.43-51.62l-67.63 206.47c105.01 46.28 208.25 76.54 370.22 76.54 147.74 0 254.53-39.16 322.17-106.8 71.2-71.19 103.24-176.21 103.24-304.37V870.89h-261.66v103.23c-65.85-72.98-156.63-121.03-288.35-121.03-179.76 0-327.5 103.242-327.5 295.46m1064.43 197.58c0 272.33 208.25 496.6 500.16 496.6 179.78 0 290.13-67.64 379.12-167.32l-158.41-160.19c-58.74 55.18-115.7 94.34-222.49 94.34-135.28 0-231.39-119.26-231.39-263.43 0-145.95 94.33-263.44 242.07-263.44 90.78 0 153.07 39.16 218.93 101.47l158.41-160.2c-92.55-101.46-199.34-174.43-389.8-174.43-286.57 0-496.6 220.71-496.6 496.6m1062.65 824.11h270.55v-692.4l316.83 347.09h323.95l-363.11-375.57 375.57-578.47h-309.71l-249.19 389.8-94.34-99.68V870.89h-270.55v1299.35m1053.75-345.31h270.55v-192.24c55.18 131.72 144.18 217.16 304.37 210.04v-283.01h-14.23c-179.78 0-290.14-108.58-290.14-336.41V870.89H7720.3v954.04m1263.79-617.64v48.06c-46.28 21.36-106.8 35.6-172.65 35.6-115.7 0-186.89-46.27-186.89-135.28 0-72.98 60.52-115.69 147.73-115.69 126.38 0 211.81 69.41 211.81 167.31zm-621.19-58.74c0 208.26 158.41 304.37 384.46 304.37 96.12 0 165.54-16.02 233.18-39.15v16.01c0 112.14-69.43 174.44-204.7 174.44-103.23 0-176.21-19.58-263.43-51.62l-67.64 206.47c105.01 46.28 208.26 76.54 370.23 76.54 147.73 0 254.53-39.16 322.17-106.8 71.2-71.19 103.24-176.21 103.24-304.37V870.89h-261.66v103.23c-65.85-72.98-156.63-121.03-288.35-121.03-179.77 0-327.5 103.242-327.5 295.46m1156.98 444.99h-112.14v222.49h112.14v60.52c0 105.02 26.7 181.55 76.54 231.39 49.84 49.84 122.82 74.76 218.93 74.76 85.44 0 142.39-10.68 192.25-26.7v-224.27c-39.17 14.24-76.56 23.14-122.83 23.14-62.3 0-97.9-32.04-97.9-103.24v-37.38h218.93v-220.71h-215.37V870.89h-270.55v722.65m678.12-452.11v452.11h-113.9v231.39h113.9v243.86h270.6v-243.86h224.3v-231.39h-224.3v-407.6c0-62.31 26.7-92.56 87.2-92.56 49.9 0 94.3 12.46 133.5 33.82V910.05c-56.9-33.82-122.8-55.19-213.6-55.19-165.5 0-277.7 65.86-277.7 286.57" fill="#452b86"/><path d="M3499.27 635.32h13.2l36.96-107.53 36.97 108.01h9.36l36.96-108.01 36.97 107.53h12.71l-44.88-123.37h-10.08l-36.48 104.89-36.72-104.89h-10.09l-44.88 123.37m304.33-55.45c-1.68 24.732-15.84 47.528-43.92 47.528-24.24 0-42.96-20.398-45.12-47.527zm-101.52-5.518c0 35.527 24.96 63.847 58.08 63.847 34.32 0 56.17-27.84 56.17-64.09 0-2.16 0-2.88-.25-4.79h-101.52c2.16-30.49 23.99-48.25 48-48.25 18.96 0 31.92 8.4 42 19.2l8.16-7.19c-12.48-13.453-27.12-23.05-50.64-23.05-32.16 0-60 25.68-60 64.32m323.27 0c0 31.45-24.48 52.57-49.92 52.57-26.64 0-48.01-19.44-48.01-52.812 0-32.16 22.33-52.8 48.01-52.8 25.44 0 49.92 21.37 49.92 53.04zm-110.64-.242c0 39.84 30 64.09 59.52 64.09 24.48 0 40.32-13.92 50.4-29.28v79.2h11.77V512.91h-11.77v27.36c-10.56-16.08-26.16-30.24-50.4-30.24-29.52 0-59.52 23.76-59.52 64.08m270.96 0c0 29.53-22.8 53.05-50.41 53.05-27.59 0-49.92-23.762-49.92-53.05 0-29.52 22.08-53.04 50.41-53.04 27.12 0 49.92 23.762 49.92 53.04zm-113.04 0c0 34.33 26.64 64.09 63.12 64.09 36.24 0 62.64-29.278 62.64-64.09 0-34.32-26.64-64.08-63.13-64.08-36.24 0-62.63 29.29-62.63 64.08m327.12 5.76c-1.68 24.732-15.84 47.528-43.93 47.528-24.24 0-42.96-20.398-45.12-47.527zm-101.53-5.518c0 35.527 24.96 63.847 58.08 63.847 34.32 0 56.17-27.84 56.17-64.09 0-2.16 0-2.88-.24-4.79H4310.7c2.16-30.49 24-48.25 48-48.25 18.97 0 31.92 8.4 42 19.2l8.17-7.19c-12.48-13.453-27.12-23.05-50.65-23.05-32.16 0-60 25.68-60 64.32m130.09 60.97h13.68l46.32-109.21 46.81 109.21h13.2l-54.97-123.37h-10.08l-54.96 123.37m238.08-55.45c-1.68 24.73-15.84 47.527-43.93 47.527-24.24 0-42.96-20.398-45.12-47.527zm-101.53-5.52c0 35.528 24.96 63.848 58.08 63.848 34.33 0 56.17-27.84 56.17-64.09 0-2.16 0-2.88-.24-4.79h-101.53c2.16-30.49 24-48.25 48-48.25 18.97 0 31.93 8.4 42 19.2l8.17-7.19c-12.48-13.452-27.12-23.05-50.65-23.05-32.16 0-60 25.68-60 64.32m148.57 60.97h11.75v-22.8c8.17 14.402 21.85 25.68 44.17 25.68 30.96 0 48.96-21.118 48.96-50.41v-74.88h-11.76v72.72c0 25.21-14.16 41.768-38.88 41.768-24 0-42.49-18.238-42.49-43.68V512.91h-11.75v122.41m153.58-90.968v80.168h-17.75v10.8h17.75v39.12h11.77v-39.12h42.96v-10.8h-42.96v-78.96c0-17.53 10.32-23.77 24.48-23.77 6 0 11.04 1.198 18 4.32v-11.04c-6.24-2.88-12.24-4.32-19.92-4.32-18.97 0-34.33 10.32-34.33 33.602m78.97-16.082l6.96 9.37c13.44-10.33 28.32-16.09 43.92-16.09 16.57 0 29.53 9.122 29.53 23.76 0 14.41-15.37 19.682-32.41 24.48-19.92 5.77-42 11.76-42 34.09 0 19.68 16.56 33.84 40.32 33.84 14.64 0 31.21-5.28 43.45-13.44l-6.24-9.84c-11.29 7.43-24.73 12.24-37.68 12.24-16.81 0-27.85-9.12-27.85-21.848 0-13.684 16.57-18.723 34.09-23.762 19.67-5.51 40.32-12.71 40.32-34.8 0-21.84-18.72-35.758-42.25-35.758-17.76 0-37.2 7.2-50.16 17.758" fill="#4f4c4c"/></g></svg>