<?xml version="1.0" encoding="UTF-8" standalone="no"?>
<svg
   xmlns:dc="http://purl.org/dc/elements/1.1/"
   xmlns:cc="http://creativecommons.org/ns#"
   xmlns:rdf="http://www.w3.org/1999/02/22-rdf-syntax-ns#"
   xmlns:svg="http://www.w3.org/2000/svg"
   xmlns="http://www.w3.org/2000/svg"
   viewBox="0 0 1425.72 402.45334"
   height="402.45334"
   width="1425.72"
   xml:space="preserve"
   id="svg2"
   version="1.1"><metadata
     id="metadata8"><rdf:RDF><cc:Work
         rdf:about=""><dc:format>image/svg+xml</dc:format><dc:type
           rdf:resource="http://purl.org/dc/dcmitype/StillImage" /></cc:Work></rdf:RDF></metadata><defs
     id="defs6"><clipPath
       id="clipPath20"
       clipPathUnits="userSpaceOnUse"><path
         id="path18"
         d="M 0,0 H 10692.9 V 3018 H 0 Z" /></clipPath></defs><g
     transform="matrix(1.3333333,0,0,-1.3333333,0,402.45333)"
     id="g10"><g
       transform="scale(0.1)"
       id="g12"><g
         id="g14"><g
           clip-path="url(#clipPath20)"
           id="g16"><path
             id="path22"
             style="fill:none;stroke:#442b87;stroke-width:80;stroke-linecap:butt;stroke-linejoin:miter;stroke-miterlimit:10;stroke-dasharray:none;stroke-opacity:1"
             d="m 1225.77,2948.41 c 66.68,38.5 175.8,38.5 242.48,0 l 1064.53,-614.6 c 66.68,-38.5 121.24,-133 121.24,-210 V 894.602 c 0,-77 -54.56,-171.5 -121.24,-210 L 1468.25,70 c -66.68,-38.5 -175.8,-38.5 -242.48,0 L 161.242,684.602 C 94.5586,723.102 40,817.602 40,894.602 V 2123.81 c 0,77 54.5586,171.5 121.242,210 z" /><path
             id="path24"
             style="fill:#442b87;fill-opacity:1;fill-rule:nonzero;stroke:none"
             d="m 2030.08,857.449 c 0,-112.5 -72,-175.508 -168.75,-175.508 -38.32,0 -72.65,10.039 -100.26,28.957 11.03,29.141 16.64,58.973 13.72,87.852 -8.25,81.672 -90.75,127.988 -144.27,179.719 -41.73,40.321 -83.46,80.641 -125.19,120.971 -1.22,1.22 -2.03,2.55 -2.75,3.97 -0.14,0.29 -0.4,0.54 -0.57,0.85 -0.11,0.28 -0.08,0.61 -0.18,0.89 -0.11,0.31 -0.11,0.58 -0.2,0.89 -48.12,-51.03 -50.05,-129.931 -5.67,-183.13 h -35.84 c -40.21,64.551 -32.45,150.67 23.6,206.71 2.38,2.4 5.4,3.54 8.51,3.93 -13.04,25.27 -39.15,41.48 -67.74,41.48 -42.13,0 -76.37,-34.22 -76.37,-76.36 V 922.91 h -35.33 c 3.96,9.219 6.17,19.36 6.17,30.02 v 145.78 c 0,42.06 -34.23,76.32 -76.33,76.32 -42.1,0 -76.34,-34.22 -76.33,-76.32 V 952.93 c 0,-10.649 2.21,-20.801 6.17,-30.02 h -30.92 c -2.83,9.531 -4.41,19.602 -4.41,30.039 v 293.841 c 0,42.07 -34.23,76.32 -76.36,76.32 -42.1,0 -76.331,-34.25 -76.28,-76.35 V 843.961 c 0,-3.539 0.176,-7.039 0.266,-10.563 -9.621,-97.328 -77.875,-151.457 -167.473,-151.457 -96.746,0 -168.75,63.008 -168.75,175.508 V 2135.48 c 0,112.51 72.004,175.5 168.75,175.5 96.754,0 168.758,-62.99 168.758,-175.5 v -371.03 c 0,-58.53 47.449,-105.98 105.979,-105.98 h 494.56 c 58.53,0 105.98,47.45 105.98,105.98 v 371.03 c 0,112.51 72,175.5 168.76,175.5 96.75,0 168.75,-62.99 168.75,-175.5 z M 1347.01,3018.41 40,2263.81 V 754.602 L 1347.01,0 2654.02,754.602 V 2263.81 l -1307.01,754.6" /><path
             id="path26"
             style="fill:#442b87;fill-opacity:1;fill-rule:nonzero;stroke:none"
             d="m 1606.28,1455.87 c -42.05,0 -76.3,-34.24 -76.3,-76.34 v -263.38 l 152.67,-147.529 v 410.909 c 0,42.07 -34.23,76.34 -76.37,76.34" /><path
             id="path28"
             style="fill:#452b86;fill-opacity:1;fill-rule:nonzero;stroke:none"
             d="m 3487.51,2170.24 h 270.55 v -480.59 c 62.3,80.1 142.4,153.08 279.45,153.08 204.7,0 323.94,-135.27 323.94,-354.21 V 870.891 h -270.54 v 532.199 c 0,128.15 -60.52,194.01 -163.75,194.01 -103.24,0 -169.1,-65.86 -169.1,-194.01 V 870.891 H 3487.51 V 2170.24" /><path
             id="path30"
             style="fill:#452b86;fill-opacity:1;fill-rule:nonzero;stroke:none"
             d="m 5160.66,1207.29 v 48.06 c -46.28,21.36 -106.79,35.6 -172.65,35.6 -115.7,0 -186.89,-46.27 -186.89,-135.28 0,-72.98 60.52,-115.69 147.74,-115.69 126.37,0 211.8,69.41 211.8,167.31 z m -621.19,-58.74 c 0,208.26 158.41,304.37 384.46,304.37 96.12,0 165.54,-16.02 233.18,-39.15 v 16.01 c 0,112.14 -69.43,174.44 -204.7,174.44 -103.23,0 -176.21,-19.58 -263.43,-51.62 l -67.63,206.47 c 105.01,46.28 208.25,76.54 370.22,76.54 147.74,0 254.53,-39.16 322.17,-106.8 71.2,-71.19 103.24,-176.21 103.24,-304.37 V 870.891 h -261.66 v 103.23 c -65.85,-72.98 -156.63,-121.031 -288.35,-121.031 -179.76,0 -327.5,103.242 -327.5,295.46" /><path
             id="path32"
             style="fill:#452b86;fill-opacity:1;fill-rule:nonzero;stroke:none"
             d="m 5603.9,1346.13 c 0,272.33 208.25,496.6 500.16,496.6 179.78,0 290.13,-67.64 379.12,-167.32 l -158.41,-160.19 c -58.74,55.18 -115.7,94.34 -222.49,94.34 -135.28,0 -231.39,-119.26 -231.39,-263.43 0,-145.95 94.33,-263.44 242.07,-263.44 90.78,0 153.07,39.16 218.93,101.47 l 158.41,-160.2 C 6397.75,922.5 6290.96,849.531 6100.5,849.531 c -286.57,0 -496.6,220.709 -496.6,496.599" /><path
             id="path34"
             style="fill:#452b86;fill-opacity:1;fill-rule:nonzero;stroke:none"
             d="m 6666.55,2170.24 h 270.55 v -692.4 l 316.83,347.09 h 323.95 l -363.11,-375.57 375.57,-578.469 h -309.71 l -249.19,389.799 -94.34,-99.68 V 870.891 H 6666.55 V 2170.24" /><path
             id="path36"
             style="fill:#452b86;fill-opacity:1;fill-rule:nonzero;stroke:none"
             d="m 7720.3,1824.93 h 270.55 v -192.24 c 55.18,131.72 144.18,217.16 304.37,210.04 v -283.01 h -14.23 c -179.78,0 -290.14,-108.58 -290.14,-336.41 V 870.891 H 7720.3 v 954.039" /><path
             id="path38"
             style="fill:#452b86;fill-opacity:1;fill-rule:nonzero;stroke:none"
             d="m 8984.09,1207.29 v 48.06 c -46.28,21.36 -106.8,35.6 -172.65,35.6 -115.7,0 -186.89,-46.27 -186.89,-135.28 0,-72.98 60.52,-115.69 147.73,-115.69 126.38,0 211.81,69.41 211.81,167.31 z m -621.19,-58.74 c 0,208.26 158.41,304.37 384.46,304.37 96.12,0 165.54,-16.02 233.18,-39.15 v 16.01 c 0,112.14 -69.43,174.44 -204.7,174.44 -103.23,0 -176.21,-19.58 -263.43,-51.62 l -67.64,206.47 c 105.01,46.28 208.26,76.54 370.23,76.54 147.73,0 254.53,-39.16 322.17,-106.8 71.2,-71.19 103.24,-176.21 103.24,-304.37 V 870.891 h -261.66 v 103.23 C 8912.9,901.141 8822.12,853.09 8690.4,853.09 c -179.77,0 -327.5,103.242 -327.5,295.46" /><path
             id="path40"
             style="fill:#452b86;fill-opacity:1;fill-rule:nonzero;stroke:none"
             d="m 9519.88,1593.54 h -112.14 v 222.49 h 112.14 v 60.52 c 0,105.02 26.7,181.55 76.54,231.39 49.84,49.84 122.82,74.76 218.93,74.76 85.44,0 142.39,-10.68 192.25,-26.7 v -224.27 c -39.17,14.24 -76.56,23.14 -122.83,23.14 -62.3,0 -97.9,-32.04 -97.9,-103.24 v -37.38 h 218.93 V 1593.54 H 9790.43 V 870.891 h -270.55 v 722.649" /><path
             id="path42"
             style="fill:#452b86;fill-opacity:1;fill-rule:nonzero;stroke:none"
             d="m 10198,1141.43 v 452.11 h -113.9 v 231.39 h 113.9 v 243.86 h 270.6 v -243.86 h 224.3 v -231.39 h -224.3 v -407.6 c 0,-62.31 26.7,-92.56 87.2,-92.56 49.9,0 94.3,12.46 133.5,33.82 V 910.051 c -56.9,-33.821 -122.8,-55.192 -213.6,-55.192 -165.5,0 -277.7,65.86 -277.7,286.571" /><path
             id="path44"
             style="fill:#4f4c4c;fill-opacity:1;fill-rule:nonzero;stroke:none"
             d="m 3499.27,635.32 h 13.2 l 36.96,-107.531 36.97,108.012 h 9.36 l 36.96,-108.012 36.97,107.531 h 12.71 l -44.88,-123.371 h -10.08 l -36.48,104.891 -36.72,-104.891 h -10.09 l -44.88,123.371" /><path
             id="path46"
             style="fill:#4f4c4c;fill-opacity:1;fill-rule:nonzero;stroke:none"
             d="m 3803.6,579.871 c -1.68,24.731 -15.84,47.527 -43.92,47.527 -24.24,0 -42.96,-20.398 -45.12,-47.527 z m -101.52,-5.519 c 0,35.527 24.96,63.847 58.08,63.847 34.32,0 56.17,-27.84 56.17,-64.09 0,-2.16 0,-2.879 -0.25,-4.789 h -101.52 c 2.16,-30.488 23.99,-48.25 48,-48.25 18.96,0 31.92,8.399 42,19.2 l 8.16,-7.188 c -12.48,-13.453 -27.12,-23.051 -50.64,-23.051 -32.16,0 -60,25.68 -60,64.321" /><path
             id="path48"
             style="fill:#4f4c4c;fill-opacity:1;fill-rule:nonzero;stroke:none"
             d="m 4025.35,574.352 c 0,31.449 -24.48,52.57 -49.92,52.57 -26.64,0 -48.01,-19.442 -48.01,-52.813 0,-32.16 22.33,-52.8 48.01,-52.8 25.44,0 49.92,21.371 49.92,53.043 z m -110.64,-0.243 c 0,39.84 30,64.09 59.52,64.09 24.48,0 40.32,-13.918 50.4,-29.277 v 79.199 h 11.77 V 512.91 h -11.77 v 27.36 c -10.56,-16.079 -26.16,-30.239 -50.4,-30.239 -29.52,0 -59.52,23.758 -59.52,64.078" /><path
             id="path50"
             style="fill:#4f4c4c;fill-opacity:1;fill-rule:nonzero;stroke:none"
             d="m 4185.67,574.109 c 0,29.532 -22.8,53.051 -50.41,53.051 -27.59,0 -49.92,-23.762 -49.92,-53.051 0,-29.519 22.08,-53.039 50.41,-53.039 27.12,0 49.92,23.762 49.92,53.039 z m -113.04,0 c 0,34.332 26.64,64.09 63.12,64.09 36.24,0 62.64,-29.277 62.64,-64.09 0,-34.32 -26.64,-64.078 -63.13,-64.078 -36.24,0 -62.63,29.289 -62.63,64.078" /><path
             id="path52"
             style="fill:#4f4c4c;fill-opacity:1;fill-rule:nonzero;stroke:none"
             d="m 4399.75,579.871 c -1.68,24.731 -15.84,47.527 -43.93,47.527 -24.24,0 -42.96,-20.398 -45.12,-47.527 z m -101.53,-5.519 c 0,35.527 24.96,63.847 58.08,63.847 34.32,0 56.17,-27.84 56.17,-64.09 0,-2.16 0,-2.879 -0.24,-4.789 H 4310.7 c 2.16,-30.488 24,-48.25 48,-48.25 18.97,0 31.92,8.399 42,19.2 l 8.17,-7.188 c -12.48,-13.453 -27.12,-23.051 -50.65,-23.051 -32.16,0 -60,25.68 -60,64.321" /><path
             id="path54"
             style="fill:#4f4c4c;fill-opacity:1;fill-rule:nonzero;stroke:none"
             d="m 4428.31,635.32 h 13.68 l 46.32,-109.211 46.81,109.211 h 13.2 l -54.97,-123.371 h -10.08 l -54.96,123.371" /><path
             id="path56"
             style="fill:#4f4c4c;fill-opacity:1;fill-rule:nonzero;stroke:none"
             d="m 4666.39,579.871 c -1.68,24.731 -15.84,47.527 -43.93,47.527 -24.24,0 -42.96,-20.398 -45.12,-47.527 z m -101.53,-5.519 c 0,35.527 24.96,63.847 58.08,63.847 34.33,0 56.17,-27.84 56.17,-64.09 0,-2.16 0,-2.879 -0.24,-4.789 h -101.53 c 2.16,-30.488 24,-48.25 48,-48.25 18.97,0 31.93,8.399 42,19.2 l 8.17,-7.188 c -12.48,-13.453 -27.12,-23.051 -50.65,-23.051 -32.16,0 -60,25.68 -60,64.321" /><path
             id="path58"
             style="fill:#4f4c4c;fill-opacity:1;fill-rule:nonzero;stroke:none"
             d="m 4713.43,635.32 h 11.75 v -22.8 c 8.17,14.402 21.85,25.679 44.17,25.679 30.96,0 48.96,-21.117 48.96,-50.41 V 512.91 h -11.76 v 72.719 c 0,25.211 -14.16,41.769 -38.88,41.769 -24,0 -42.49,-18.238 -42.49,-43.679 V 512.91 h -11.75 v 122.41" /><path
             id="path60"
             style="fill:#4f4c4c;fill-opacity:1;fill-rule:nonzero;stroke:none"
             d="m 4867.01,544.352 v 80.168 h -17.75 v 10.8 h 17.75 v 39.121 h 11.77 V 635.32 h 42.96 v -10.8 h -42.96 v -78.961 c 0,-17.528 10.32,-23.77 24.48,-23.77 6,0 11.04,1.199 18,4.32 V 515.07 c -6.24,-2.879 -12.24,-4.32 -19.92,-4.32 -18.97,0 -34.33,10.32 -34.33,33.602" /><path
             id="path62"
             style="fill:#4f4c4c;fill-opacity:1;fill-rule:nonzero;stroke:none"
             d="m 4945.98,528.27 6.96,9.371 c 13.44,-10.332 28.32,-16.09 43.92,-16.09 16.57,0 29.53,9.121 29.53,23.758 0,14.41 -15.37,19.683 -32.41,24.48 -19.92,5.77 -42,11.762 -42,34.09 0,19.68 16.56,33.84 40.32,33.84 14.64,0 31.21,-5.278 43.45,-13.438 l -6.24,-9.84 c -11.29,7.43 -24.73,12.239 -37.68,12.239 -16.81,0 -27.85,-9.121 -27.85,-21.848 0,-13.684 16.57,-18.723 34.09,-23.762 19.67,-5.511 40.32,-12.711 40.32,-34.8 0,-21.84 -18.72,-35.758 -42.25,-35.758 -17.76,0 -37.2,7.199 -50.16,17.758" /></g></g></g></g></svg>