<svg id="Layer_1" xmlns="http://www.w3.org/2000/svg" viewBox="-475.031 755.365 220.509 80"><style>.st0{fill:#136BA2;} .st1{fill:#FA930D;}</style><path class="st0" d="M-256.03 782.154c-4.616-2.597-6.473-3.53-9.206-3.53-2.525 0-3.742 1.292-3.742 3.296 0 6 14.456 4.353 14.456 18.347 0 7.65-4.215 12.237-11.373 12.237-4.385 0-6.45-1.882-9.653-4v-8.585c4.614 3.765 6.477 5.174 9.96 5.174 2.683 0 3.744-1.41 3.744-3.766 0-6.59-14.363-4.117-14.363-18.586 0-6.94 2.873-11.532 10.312-11.532 3.577 0 5.815.94 9.863 3.176l.003 7.768zM-367.677 771.57c6.59 0 9.488 5.528 9.488 11.53 0 4.36-1.788 7.65-5.458 9.77-1.023.43-1.555.57-2.315.752l11.072 18.073h-7.796l-10.43-16.353v16.353h-7.04V771.57h12.48zm-5.44 16.468h3.27c2.26 0 4.426-1.172 4.426-4.587 0-3.056-1.6-4.592-4.612-4.592h-3.086v9.18zM-321.336 811.687h-7.607l-2.637-8h-12.48l-2.353 8h-7.514l11.94-40.122h7.395l13.256 40.122zm-16.81-30.588l-3.748 15.653h7.96l-4.213-15.654zM-311.952 811.687h-7.04v-40.122h7.04v40.122zM-279.27 811.687h-5.814l-14.81-25.76v25.76h-7.037v-40.122h6.375l14.246 24.47v-24.47h7.04v40.122zM-390.282 789.574c2.732-1.65 4.428-4.595 4.428-8.003 0-1.777-.348-3.715-1.23-5.416-2.582 2.286-5.434 4.78-6.295 5.53.134.466.203.942.203 1.41 0 2.118-1.13 4.36-4.05 4.36h-2.307V777.9l8.404-5.503c-1.21-.51-2.655-.824-4.4-.824h-11.044v40.122h11.77c9.42 0 11.4-7.173 11.4-11.77-.002-4.706-2.264-8.825-6.878-10.35zm-6.663 14.706h-2.59v-9.414h3.717c2.825 0 4.898 1.523 4.898 4.473.003 3.53-1.597 4.94-6.025 4.94z"/><path class="st1" d="M-380.273 766.855c-.44-.276-5.592 2.932-8.827 5.183l-1.19.83-8.283 5.556v6.16c1.775-1.206 3.205-2.343 4.23-3.374l6.2-5.31s3.098-2.785 4.725-4.404l.606-.57c.452-.403.76-.687.76-1.062l-.003-.064c-.017-.218 1.98-2.82 1.782-2.945zM-412.756 793.043l5.042-3.423v-6.163l-4.52 2.94-5.436 3.53c.106-.795.215-1.634.215-1.634.707-5.247 1.36-10.474 1.36-13.96 0-1.686-.15-2.964-.525-3.632-.268-.467-.672-.772-1.167-.876-.662-.136-1.43.096-2.17.656-2.31 1.605-3.457 6.315-3.457 14.307 0 2.583.128 5.518.364 8.797-.268.244-1.597 1.44-1.597 1.44.02-.016-2.283 2.015-2.283 2.015s-.064.073-.1.127c-2.135 1.884-3.48 2.942-3.99 3.15-.638.25-1.196.297-1.704.262 2.9-2.143 5.265-6.72 5.265-9.444 0-.31-.03-.61-.095-.856-.476-1.863-1.41-3.22-2.72-3.918-1.28-.686-2.827-.718-4.602-.077l-.694.276c-3.2 1.452-12.923 6.922-15.94 8.615.353-4.263 2.105-23.713 2.6-33.97.313-6.622 0-2.516 0-3.805 0-4.82-6.058 0-9.41 3.357-1.406 1.4-5.802 5.42-4.21 8.476 1.712 3.288 3.516 2.187 4.46 7.848 1.666 9.952.393 20.158.396 20.814-.547.252-4.712 2.217-4.712 2.217-7.187 3.326-12.646 5.85-12.646 10 0 .646.133 1.33.412 2.062 5.964 15.593 14.086 23.976 17.29 23.136 4.645-1.24 4.834-7.346 5.12-16.58.142-4.602.31-9.82 1.02-15.688.37-.237 8.18-6.044 9.63-6.98-.695 1.418-.687 2.79-.687 3.525 0 1.834.266 3.35.638 4.133.628 1.31 1.184 2.288 2.62 2.934 1.82.87 3.4 1.116 6.505-.106 1.395-.55 3.787-2.206 6.442-4.436.53.91 2.83 4.872 2.83 4.872l2.11 3.6c.953 1.697 2.462 2.168 4.147 1.307 1.278-.63 2.124-1.197 2.376-2.024.053-.17.074-.343.074-.51 0-.555-.247-1.074-.484-1.496-2.427-4.31-2.586-8.066-2.586-10.923v-.542c.418-.306 4.82-3.352 4.82-3.352zm-47.44 29.53c-1.905-1.544-2.808-2.846-4.204-6.225-2.36-5.71.91-7.476 6.833-10.833-.707 6.08-1.198 18.49-2.628 17.058zm23.597-24.393c-.084-2.147-.528-4.9 2.228-6.365 1.074-.585 1.698-.213 2.06.157.728.725-.9 4.1-4.287 6.208z"/></svg>