<?xml version="1.0" encoding="utf-8"?>
<!-- Generator: Adobe Illustrator 19.0.1, SVG Export Plug-In . SVG Version: 6.00 Build 0)  -->
<svg version="1.1" id="Layer_1" xmlns="http://www.w3.org/2000/svg" xmlns:xlink="http://www.w3.org/1999/xlink" x="0px" y="0px"
	 viewBox="-475.031 755.365 220.509 80" style="enable-background:new -475.031 755.365 220.509 80;" xml:space="preserve">
<style type="text/css">
	.st0{fill:#136BA2;}
	.st1{fill:#FA930D;}
</style>
<g>
	<path class="st0" d="M-256.029,782.154c-4.617-2.597-6.474-3.53-9.207-3.53c-2.525,0-3.742,1.292-3.742,3.296
		c0,5.999,14.456,4.353,14.456,18.347c0,7.649-4.215,12.237-11.373,12.237c-4.385,0-6.45-1.882-9.653-4v-8.585
		c4.614,3.766,6.477,5.175,9.959,5.175c2.684,0,3.745-1.409,3.745-3.766c0-6.589-14.363-4.117-14.363-18.586
		c0-6.94,2.873-11.532,10.312-11.532c3.577,0,5.815,0.941,9.863,3.176L-256.029,782.154L-256.029,782.154z"/>
	<path class="st0" d="M-367.677,771.57c6.591,0,9.488,5.528,9.488,11.53c0,4.359-1.789,7.649-5.459,9.77
		c-1.023,0.431-1.555,0.569-2.315,0.752l11.072,18.073h-7.795l-10.429-16.353v16.353h-7.04v-40.125L-367.677,771.57L-367.677,771.57
		z M-373.118,788.038h3.272c2.259,0,4.425-1.172,4.425-4.587c0-3.057-1.6-4.593-4.611-4.593h-3.086V788.038z"/>
	<path class="st0" d="M-321.336,811.687h-7.607l-2.637-8h-12.481l-2.352,8h-7.514l11.941-40.122h7.394L-321.336,811.687z
		 M-338.147,781.099l-3.747,15.654h7.96L-338.147,781.099z"/>
	<path class="st0" d="M-311.952,811.687h-7.04v-40.122h7.04V811.687z"/>
	<path class="st0" d="M-279.269,811.687h-5.815l-14.809-25.759v25.759h-7.038v-40.122h6.376l14.246,24.47v-24.47h7.04
		C-279.269,771.565-279.269,811.687-279.269,811.687z"/>
	<path class="st0" d="M-390.282,789.574c2.732-1.65,4.428-4.595,4.428-8.003c0-1.778-0.348-3.716-1.231-5.417
		c-2.581,2.286-5.433,4.781-6.294,5.531c0.133,0.465,0.202,0.941,0.202,1.409c0,2.118-1.13,4.359-4.05,4.359h-2.307v-2.065v-6.52
		v-0.967l8.404-5.504c-1.209-0.51-2.655-0.824-4.401-0.824h-11.043v40.122h11.771c9.419,0,11.399-7.173,11.399-11.769
		C-383.406,795.219-385.668,791.1-390.282,789.574z M-396.945,804.28h-2.591v-9.414h3.718c2.825,0,4.898,1.523,4.898,4.473
		C-390.917,802.869-392.517,804.28-396.945,804.28z"/>
	<path class="st1" d="M-380.273,766.855c-0.441-0.276-5.592,2.932-8.827,5.183l-1.191,0.829l-8.282,5.557v6.161
		c1.775-1.207,3.205-2.344,4.231-3.375l6.198-5.31c0,0,3.099-2.785,4.726-4.404l0.606-0.569c0.452-0.404,0.76-0.688,0.76-1.063
		c0-0.021-0.003-0.05-0.003-0.064C-382.072,769.582-380.076,766.98-380.273,766.855z"/>
	<path class="st1" d="M-412.756,793.043l5.042-3.423v-6.163l-4.521,2.94c0,0-4.027,2.615-5.435,3.53
		c0.106-0.795,0.215-1.634,0.215-1.634c0.707-5.247,1.361-10.474,1.361-13.961c0-1.685-0.152-2.963-0.526-3.631
		c-0.268-0.468-0.672-0.773-1.167-0.877c-0.662-0.136-1.43,0.096-2.169,0.656c-2.31,1.605-3.458,6.315-3.458,14.307
		c0,2.583,0.128,5.518,0.364,8.797c-0.268,0.244-1.597,1.44-1.597,1.44c0.019-0.016-2.283,2.015-2.283,2.015
		s-0.064,0.074-0.101,0.128c-2.134,1.884-3.479,2.942-3.989,3.149c-0.638,0.25-1.196,0.298-1.704,0.263
		c2.9-2.142,5.265-6.719,5.265-9.443c0-0.311-0.032-0.609-0.096-0.856c-0.476-1.863-1.411-3.219-2.719-3.918
		c-1.281-0.686-2.828-0.718-4.603-0.077l-0.694,0.276c-3.2,1.451-12.922,6.921-15.939,8.614c0.353-4.263,2.105-23.713,2.599-33.969
		c0.314-6.623,0-2.517,0-3.806c0-4.819-6.057,0-9.409,3.357c-1.406,1.401-5.802,5.419-4.21,8.476
		c1.712,3.288,3.516,2.187,4.46,7.848c1.666,9.951,0.393,20.157,0.396,20.813c-0.547,0.252-4.712,2.217-4.712,2.217
		c-7.187,3.325-12.646,5.85-12.646,9.999c0,0.646,0.133,1.331,0.412,2.062c5.964,15.593,14.086,23.976,17.289,23.136
		c4.646-1.241,4.835-7.346,5.122-16.579c0.141-4.603,0.308-9.821,1.018-15.689c0.372-0.237,8.181-6.044,9.632-6.979
		c-0.696,1.417-0.688,2.788-0.688,3.524c0,1.834,0.266,3.349,0.638,4.133c0.627,1.31,1.183,2.288,2.618,2.934
		c1.821,0.869,3.402,1.116,6.506-0.106c1.395-0.55,3.787-2.206,6.442-4.436c0.529,0.909,2.831,4.872,2.831,4.872l2.11,3.599
		c0.952,1.698,2.461,2.169,4.146,1.308c1.278-0.63,2.124-1.196,2.376-2.023c0.053-0.17,0.074-0.343,0.074-0.51
		c0-0.555-0.247-1.074-0.484-1.496c-2.427-4.311-2.586-8.066-2.586-10.923c0-0.178,0-0.367,0-0.542
		C-417.158,796.089-412.756,793.043-412.756,793.043z M-460.195,822.573c-1.906-1.544-2.809-2.846-4.205-6.225
		c-2.36-5.709,0.909-7.476,6.833-10.833C-458.274,811.594-458.765,824.006-460.195,822.573z M-436.599,798.18
		c-0.085-2.147-0.529-4.901,2.227-6.365c1.074-0.585,1.698-0.213,2.06,0.157C-431.584,792.697-433.211,796.073-436.599,798.18z"/>
</g>
</svg>
