<svg id="Layer_1" xmlns="http://www.w3.org/2000/svg" viewBox="0 0 289 80"><style>.st0{fill:url(#XMLID_62_);} .st1{fill:url(#XMLID_63_);} .st2{fill:#690000;} .st3{fill:#A50D12;}</style><path d="M95.7 56.6h25.5c5.4 0 9.9-4.2 9.9-9.3v-1.7c0-5-4.2-9.1-9.5-9.3h-17.5c-1.5 0-2.7-1.1-2.7-2.5v-1.7c0-1.4 1.2-2.6 2.7-2.6h25v-6.7h-25c-5.4 0-9.9 4.2-9.9 9.3v1.7c0 5.1 4.4 9.3 9.9 9.3h17.1c1.5 0 2.7 1.1 2.7 2.6v1.7c0 1.4-1.2 2.5-2.7 2.5H95.7v6.7zM139.6 56.6h7.2V22.8h-7.2v33.8zM239.7 56.6h7.2V32.1c0-5.1-4.4-9.3-9.9-9.3h-35.6v33.8h7.1v-27h11.9v27h7.1v-27h9.5c1.5 0 2.7 1.1 2.7 2.6v24.4zM289 32.1c0-5.1-4.4-9.3-9.9-9.3h-22.7v6.7h22.7c1.5 0 2.7 1.1 2.7 2.6v4.2h-18c-5.4 0-9.9 4.2-9.9 9.3v1.7c0 5.1 4.4 9.3 9.9 9.3H289V32.1zm-7.2 17.8h-18c-1.5 0-2.7-1.1-2.7-2.6v-1.7c0-1.4 1.2-2.6 2.7-2.6h18v6.9zM156.4 47.3c0 5.1 4.4 9.3 9.9 9.3h25.2V36.3h-18.8V43h11.6v6.8h-18c-1.5 0-2.7-1.1-2.7-2.6V32c0-1.4 1.2-2.6 2.7-2.6h25.1v-6.7h-25.1c-5.4 0-9.9 4.2-9.9 9.3v15.3z"/><g><linearGradient id="XMLID_62_" gradientUnits="userSpaceOnUse" x1="43.135" y1="63.533" x2="20.58" y2="18.193"><stop offset=".006" stop-color="#E11F27"/><stop offset=".681" stop-color="#EE2A24"/></linearGradient><path id="XMLID_15_" class="st0" d="M39.5 0c-5.6 0-10.4 11.6-12 27.5C11.6 29.2 0 33.9 0 39.5s11.6 10.4 27.5 12c1.6 16 6.4 27.5 12 27.5 7 0 12.6-17.7 12.6-39.5S46.5 0 39.5 0z"/><linearGradient id="XMLID_63_" gradientUnits="userSpaceOnUse" x1="45.325" y1="31.129" x2="58.812" y2="54.49"><stop offset="0" stop-color="#595959"/><stop offset=".208" stop-color="#424242"/><stop offset=".53" stop-color="#232323"/><stop offset=".806" stop-color="#111"/><stop offset="1" stop-color="#0A0A0A"/></linearGradient><path id="XMLID_14_" class="st1" d="M51.5 27.5l-24 24c3.8.4 7.8.6 12 .6 21.8 0 39.5-5.6 39.5-12.6.1-5.6-11.5-10.3-27.5-12z"/><path id="XMLID_13_" class="st2" d="M51.5 27.5l-24 24c3.8.4 7.8.6 12 .6s8.2-.2 12-.6c.4-3.8.6-7.8.6-12 0-4.1-.2-8.2-.6-12z"/><path id="XMLID_12_" class="st3" d="M27.5 51.5l24-24c-3.8-.4-7.8-.6-12-.6s-8.2.2-12 .6c-.4 3.8-.6 7.8-.6 12 .1 4.2.3 8.3.6 12z"/></g><g><path d="M96.6 79.5v-1.4h.1c.6.2 2.2.5 3.1.5h.5c1.6 0 2.6-.6 2.6-2.2 0-1.4-.7-1.8-1.9-2.1l-1.7-.5c-1.2-.3-2.8-1.1-2.8-3.4 0-2 1.6-3.4 4.1-3.4h.4c.9 0 2.4.3 2.9.5V69h-.1c-.6-.2-1.9-.5-2.8-.5h-.4c-1.6 0-2.5.6-2.5 2 0 1.3.8 1.7 1.9 2l1.6.5c1.3.4 2.8 1 2.8 3.5 0 2.2-1.6 3.5-4.2 3.5h-.5c-.9 0-2.6-.3-3.1-.5zM106.9 75.1c0-2.8 1.3-4.6 4-4.6 2.8 0 4 1.9 4 4.6 0 3-1.3 4.9-4 4.9-2.8 0-4-1.9-4-4.9zm6.6 0c0-2-.6-3.3-2.6-3.3s-2.6 1.3-2.6 3.3c0 2 .6 3.6 2.6 3.6s2.6-1.5 2.6-3.6zM118.4 72H117v-1.3h1.4v-.4c0-2 1.2-3 3-3h1v1.3h-1c-1.2 0-1.6.5-1.6 1.7v.4h2.4V72h-2.4v7.9h-1.4V72z"/></g><g><path d="M128.2 79.9c-2 0-3.2-.9-3.2-3.2V72h-1.4v-1.3h1.4v-2.1h1.4v2.1h2.6V72h-2.6v4.5c0 1.7.5 2.1 2 2.1h.9v1.3h-1.1zM131.4 73v-2.4h1.4V73c0 2.6.8 4.8 1.6 5.8.8-1 1.6-3.1 1.6-5.8v-2.4h1.4V73c0 2.6.9 4.8 1.6 5.8.8-1 1.6-3.1 1.6-5.8v-2.4h1.4V73c0 3.1-1.3 5.9-2.2 6.8h-1.6c-.5-.5-1.4-2.2-1.6-3.2-.2 1-1.2 2.6-1.6 3.2h-1.6c-.7-.9-2-3.6-2-6.8zM144.7 76.8v-1.4c0-2.9 2.4-4.7 4.9-4.7h2.5v9.2h-1.4v-1.7l-.7.7c-.7.7-1.4 1.2-2.6 1.2-1.5-.1-2.7-1-2.7-3.3zm5.9-.1V72h-1c-2 0-3.4 1.3-3.4 3.4v1.4c0 1.4.7 1.9 1.4 1.9.9 0 2-.9 2.5-1.4l.5-.6zM155.7 70.7h1.4v2l.1-.2c.7-1.1 1.5-1.8 2.7-1.8h.6v1.6h-.7c-.7 0-1.3.3-1.7.7l-1 1v5.9h-1.4v-9.2zM162.3 76.3v-1.8c0-2.5 1.7-4 3.9-4 1.8 0 3.1.8 3.1 2.6 0 1.6-1 2.6-2.9 2.6h-2.8v.5c0 1.7 1 2.4 2.5 2.4 1 0 2.1-.4 2.5-.6h.1v1.3c-.4.2-1.6.6-2.6.6-2.1.1-3.8-1-3.8-3.6zm1.5-1.7h2.4c1.4 0 1.9-.5 1.9-1.4 0-1-.7-1.3-1.7-1.3-1.6 0-2.5.8-2.5 2.6v.1z"/></g></svg>