<?xml version="1.0" encoding="utf-8"?>
<!-- Generator: Adobe Illustrator 19.0.0, SVG Export Plug-In . SVG Version: 6.00 Build 0)  -->
<svg version="1.1" id="Layer_1" xmlns="http://www.w3.org/2000/svg" xmlns:xlink="http://www.w3.org/1999/xlink" x="0px" y="0px"
	 viewBox="0 0 289 80" style="enable-background:new 0 0 289 80;" xml:space="preserve">
<style type="text/css">
	.st0{fill:url(#XMLID_62_);}
	.st1{fill:url(#XMLID_63_);}
	.st2{fill:#690000;}
	.st3{fill:#A50D12;}
</style>
<g>
	<g>
		<g>
			<path d="M95.7,56.6h25.5c5.4,0,9.9-4.2,9.9-9.3v-1.7c0-5-4.2-9.1-9.5-9.3l-0.2,0h-17.3c-1.5,0-2.7-1.1-2.7-2.5v-1.7
				c0-1.4,1.2-2.6,2.7-2.6h25v-6.7h-25c-5.4,0-9.9,4.2-9.9,9.3v1.7c0,5.1,4.4,9.3,9.9,9.3h17.1c1.5,0,2.7,1.1,2.7,2.6v1.7
				c0,1.4-1.2,2.5-2.7,2.5H95.7V56.6z"/>
		</g>
		<g>
			<g>
				<path d="M139.6,56.6h7.2V22.8h-7.2L139.6,56.6z"/>
			</g>
		</g>
		<g>
			<path d="M239.7,56.6h7.2l0-24.5c0-5.1-4.4-9.3-9.9-9.3h-35.6v33.8h7.1v-27h11.9l0,27h7.1v-27h9.5c1.5,0,2.7,1.1,2.7,2.6
				L239.7,56.6z"/>
		</g>
		<g>
			<path d="M289,32.1c0-5.1-4.4-9.3-9.9-9.3h-22.7v6.7h22.7c1.5,0,2.7,1.1,2.7,2.6l0,4.2h-18c-5.4,0-9.9,4.2-9.9,9.3v1.7
				c0,5.1,4.4,9.3,9.9,9.3h25.2L289,32.1z M281.8,49.9L281.8,49.9h-18c-1.5,0-2.7-1.1-2.7-2.6v-1.7c0-1.4,1.2-2.6,2.7-2.6h18
				L281.8,49.9z"/>
		</g>
		<g>
			<path d="M156.4,47.3c0,5.1,4.4,9.3,9.9,9.3h25.2V36.3h-18.8v6.7h11.6v6.8h-18c-1.5,0-2.7-1.1-2.7-2.6l0-15.2
				c0-1.4,1.2-2.6,2.7-2.6h25.1v-6.7h-25.1c-5.4,0-9.9,4.2-9.9,9.3L156.4,47.3z"/>
		</g>
	</g>
	<g>
		<linearGradient id="XMLID_62_" gradientUnits="userSpaceOnUse" x1="43.1349" y1="63.5331" x2="20.5798" y2="18.1926">
			<stop  offset="6.134970e-03" style="stop-color:#E11F27"/>
			<stop  offset="0.681" style="stop-color:#EE2A24"/>
		</linearGradient>
		<path id="XMLID_15_" class="st0" d="M39.5,0c-5.6,0-10.4,11.6-12,27.5C11.6,29.2,0,33.9,0,39.5c0,5.6,11.6,10.4,27.5,12
			c1.6,16,6.4,27.5,12,27.5c7,0,12.6-17.7,12.6-39.5C52.1,17.7,46.5,0,39.5,0z"/>
		<linearGradient id="XMLID_63_" gradientUnits="userSpaceOnUse" x1="45.3252" y1="31.1292" x2="58.8124" y2="54.4896">
			<stop  offset="0" style="stop-color:#595959"/>
			<stop  offset="0.2081" style="stop-color:#424242"/>
			<stop  offset="0.5305" style="stop-color:#232323"/>
			<stop  offset="0.8059" style="stop-color:#111111"/>
			<stop  offset="1" style="stop-color:#0A0A0A"/>
		</linearGradient>
		<path id="XMLID_14_" class="st1" d="M51.5,27.5l-24,24c3.8,0.4,7.8,0.6,12,0.6c21.8,0,39.5-5.6,39.5-12.6
			C79.1,33.9,67.5,29.2,51.5,27.5z"/>
		<path id="XMLID_13_" class="st2" d="M51.5,27.5L51.5,27.5l-24,24c3.8,0.4,7.8,0.6,12,0.6c4.2,0,8.2-0.2,12-0.6
			c0.4-3.8,0.6-7.8,0.6-12C52.1,35.4,51.9,31.3,51.5,27.5z"/>
		<path id="XMLID_12_" class="st3" d="M27.5,51.5l24-24c-3.8-0.4-7.8-0.6-12-0.6s-8.2,0.2-12,0.6c-0.4,3.8-0.6,7.8-0.6,12
			C27,43.7,27.2,47.8,27.5,51.5L27.5,51.5z"/>
	</g>
</g>
<g>
	<path d="M96.6,79.5v-1.4h0.1c0.6,0.2,2.2,0.5,3.1,0.5h0.5c1.6,0,2.6-0.6,2.6-2.2c0-1.4-0.7-1.8-1.9-2.1l-1.7-0.5
		c-1.2-0.3-2.8-1.1-2.8-3.4c0-2,1.6-3.4,4.1-3.4h0.4c0.9,0,2.4,0.3,2.9,0.5V69h-0.1c-0.6-0.2-1.9-0.5-2.8-0.5h-0.4
		c-1.6,0-2.5,0.6-2.5,2c0,1.3,0.8,1.7,1.9,2l1.6,0.5c1.3,0.4,2.8,1,2.8,3.5c0,2.2-1.6,3.5-4.2,3.5h-0.5C98.8,80,97.1,79.7,96.6,79.5
		z"/>
	<path d="M106.9,75.1c0-2.8,1.3-4.6,4-4.6c2.8,0,4,1.9,4,4.6c0,3-1.3,4.9-4,4.9C108.1,80,106.9,78.1,106.9,75.1z M113.5,75.1
		c0-2-0.6-3.3-2.6-3.3c-2,0-2.6,1.3-2.6,3.3c0,2,0.6,3.6,2.6,3.6C112.9,78.7,113.5,77.2,113.5,75.1z"/>
	<path d="M118.4,72h-1.4v-1.3h1.4v-0.4c0-2,1.2-3,3-3h1v1.3h-1c-1.2,0-1.6,0.5-1.6,1.7v0.4h2.4V72h-2.4v7.9h-1.4V72z"/>
</g>
<g>
	<path d="M128.2,79.9c-2,0-3.2-0.9-3.2-3.2V72h-1.4v-1.3h1.4v-2.1h1.4v2.1h2.6V72h-2.6v4.5c0,1.7,0.5,2.1,2,2.1h0.9v1.3H128.2z"/>
	<path d="M131.4,73v-2.4h1.4V73c0,2.6,0.8,4.8,1.6,5.8c0.8-1,1.6-3.1,1.6-5.8v-2.4h1.4V73c0,2.6,0.9,4.8,1.6,5.8
		c0.8-1,1.6-3.1,1.6-5.8v-2.4h1.4V73c0,3.1-1.3,5.9-2.2,6.8h-1.6c-0.5-0.5-1.4-2.2-1.6-3.2c-0.2,1-1.2,2.6-1.6,3.2h-1.6
		C132.7,78.9,131.4,76.2,131.4,73z"/>
	<path d="M144.7,76.8v-1.4c0-2.9,2.4-4.7,4.9-4.7h2.5v9.2h-1.4v-1.7l-0.7,0.7c-0.7,0.7-1.4,1.2-2.6,1.2
		C145.9,80,144.7,79.1,144.7,76.8z M150.6,76.7V72h-1c-2,0-3.4,1.3-3.4,3.4v1.4c0,1.4,0.7,1.9,1.4,1.9c0.9,0,2-0.9,2.5-1.4
		L150.6,76.7z"/>
	<path d="M155.7,70.7h1.4v2l0.1-0.2c0.7-1.1,1.5-1.8,2.7-1.8h0.6v1.6h-0.7c-0.7,0-1.3,0.3-1.7,0.7l-1,1v5.9h-1.4V70.7z"/>
	<path d="M162.3,76.3v-1.8c0-2.5,1.7-4,3.9-4c1.8,0,3.1,0.8,3.1,2.6c0,1.6-1,2.6-2.9,2.6h-2.8v0.5c0,1.7,1,2.4,2.5,2.4
		c1,0,2.1-0.4,2.5-0.6h0.1v1.3c-0.4,0.2-1.6,0.6-2.6,0.6C164,80,162.3,78.9,162.3,76.3z M163.8,74.6h2.4c1.4,0,1.9-0.5,1.9-1.4
		c0-1-0.7-1.3-1.7-1.3c-1.6,0-2.5,0.8-2.5,2.6V74.6z"/>
</g>
</svg>
