<?xml version="1.0" encoding="utf-8"?>
<!-- Generator: Adobe Illustrator 19.0.0, SVG Export Plug-In . SVG Version: 6.00 Build 0)  -->
<svg version="1.1" id="logo" xmlns="http://www.w3.org/2000/svg" xmlns:xlink="http://www.w3.org/1999/xlink" x="0px" y="0px"
	 viewBox="0 0 346.1 80" style="enable-background:new 0 0 346.1 80;" xml:space="preserve">
<style type="text/css">
	.st0{fill:#A1C5E8;}
	.st1{fill:#EF3E42;}
	.st2{fill:#9BCD6E;}
	.st3{fill:#429DD5;}
	.st4{fill:#CBE3B1;}
	.st5{fill:#7AC143;}
	.st6{fill:#0081C6;}
	.st7{fill:#696A6D;}
</style>
<path class="st0" d="M34,0.8C31.9,0.3,29.8,0,27.5,0c-2.2,0-4.4,0.3-6.5,0.8v7.3h13L34,0.8z"/>
<rect x="21" y="21" class="st1" width="13" height="13"/>
<rect x="21" y="34" class="st2" width="13" height="13"/>
<path class="st3" d="M21,54.3c2.1,0.5,4.3,0.8,6.5,0.8c2.2,0,4.4-0.3,6.5-0.8l0-7.3H21V54.3z"/>
<rect x="21" y="8.1" class="st4" width="13" height="13"/>
<rect x="8.1" y="21" class="st4" width="13" height="13"/>
<rect x="8.1" y="34" class="st5" width="13" height="13"/>
<path class="st6" d="M8.1,47c3.5,3.5,8,6.1,13,7.3V47H8.1z"/>
<rect x="8.1" y="8.1" class="st2" width="13" height="13"/>
<path class="st3" d="M21,0.8c-5,1.2-9.5,3.8-13,7.3h13V0.8z"/>
<path class="st6" d="M8.1,47V34l-7.3,0C2,39,4.5,43.5,8.1,47z"/>
<path class="st3" d="M8.1,8.1C4.5,11.6,2,16,0.8,21h7.3V8.1z"/>
<rect x="34" y="21" class="st2" width="13" height="13"/>
<rect x="34" y="34" class="st5" width="13" height="13"/>
<path class="st6" d="M47,47H34l0,7.3C39,53.1,43.5,50.5,47,47z"/>
<rect x="34" y="8.1" class="st5" width="13" height="13"/>
<path class="st6" d="M34,0.8l0,7.3h13C43.5,4.5,39,2,34,0.8z"/>
<path class="st6" d="M47,47c3.5-3.5,6.1-8,7.3-13L47,34V47z"/>
<path class="st6" d="M47,8.1v13h7.3C53.1,16,50.5,11.6,47,8.1z"/>
<path class="st0" d="M0.8,21C0.3,23.1,0,25.3,0,27.5c0,2.2,0.3,4.4,0.8,6.5l7.3,0V21H0.8z"/>
<path class="st3" d="M54.3,34c0.5-2.1,0.8-4.3,0.8-6.5c0-2.2-0.3-4.4-0.8-6.5H47v13L54.3,34z"/>
<g>
	<path class="st7" d="M100.9,47h-2.5l-5.7-15.9c-0.5-1.3-1-3-1.6-4.8H91c-0.6,1.8-1.1,3.4-1.6,4.8L83.5,47h-2.5L70.2,16h3.7
		l6.9,20.6c0.6,1.7,1.1,3.3,1.5,4.8h0.1c0.4-1.5,1-3,1.6-4.7l5.3-14.6L87.3,16h3.6l7.1,20.4c0.6,1.8,1.2,3.3,1.6,4.8h0.1
		c0.4-1.5,0.8-3,1.4-4.6l6.7-20.6h3.6L100.9,47z"/>
	<path class="st7" d="M127.7,44.7c-1.7,1.8-4.2,2.8-7,2.8c-2.8,0-5.2-0.9-6.9-2.7c-2-2.1-3.1-5.2-3.1-8.9c0-3.7,1.1-6.7,3.1-8.8
		c1.8-1.8,4.2-2.9,6.9-2.9c2.9,0,5.2,1,7,2.9c2,2.1,3.1,5.1,3.1,8.8C130.8,39.6,129.7,42.7,127.7,44.7 M120.7,27.2
		c-4.2,0-6.6,3.4-6.6,8.6c0,5.2,2.5,8.7,6.6,8.7s6.6-3.5,6.6-8.7C127.3,30.6,125,27.2,120.7,27.2"/>
	<path class="st7" d="M139.1,47.5c-2.7,0-3.9-1.7-3.9-4.1V13.8h3.4v28c0,2.1,0.5,2.5,1.8,2.5c0.2,0,0.6,0,1.2-0.1l0.4,2.5
		C141.1,47.3,140.3,47.5,139.1,47.5"/>
	<path class="st7" d="M152.1,47.5c-3.2,0-4.7-1.9-4.7-4.7v-15h-3.6v-2.9h3.6V20l3.4-1.2v6h6.8l-1.2,2.9h-5.6v14
		c0,1.9,0.7,2.7,2.2,2.7c1.6,0,3-0.9,3.9-1.6l1.1,2.4C156.3,46.5,154.1,47.5,152.1,47.5"/>
	<path class="st7" d="M163,36.5c0,4.2,2.4,8,7.4,8c1.9,0,3.9-0.8,5.3-1.6l1,2.3c-1.6,1.3-4.4,2.3-7,2.3c-6.9,0-10.3-5.7-10.3-12
		c0-6.4,3.7-11.2,9-11.2c5.7,0,8.9,4.5,8.9,11.4v0.8H163z M168.4,27.2c-3.3,0-5.3,2.9-5.3,6.4h10.5
		C173.5,30.5,171.7,27.2,168.4,27.2"/>
	<path class="st7" d="M192.2,28.3c-0.5-0.2-1.2-0.4-2.1-0.4c-1.3,0-3.5,1.1-4.9,2.7V47h-3.4V24.9h2.8l0.5,2.5c3-2.8,4.7-3.1,6.3-3.1
		c1,0,1.8,0.4,2.3,0.7L192.2,28.3z"/>
	<path class="st7" d="M315.3,36.5c0,4.2,2.4,8,7.4,8c1.9,0,3.9-0.8,5.3-1.6l1,2.3c-1.6,1.3-4.4,2.3-7,2.3c-6.9,0-10.3-5.7-10.3-12
		c0-6.4,3.7-11.2,9-11.2c5.7,0,8.9,4.5,8.9,11.4v0.8H315.3z M320.7,27.2c-3.3,0-5.3,2.9-5.3,6.4h10.5
		C325.8,30.5,324.1,27.2,320.7,27.2"/>
	<path class="st7" d="M344.6,28.3c-0.5-0.2-1.2-0.4-2.1-0.4c-1.3,0-3.5,1.1-4.9,2.7V47h-3.4V24.9h2.8l0.5,2.5c3-2.8,4.7-3.1,6.3-3.1
		c1,0,1.8,0.4,2.3,0.7L344.6,28.3z"/>
	<path class="st7" d="M200.9,47.5c-3.2,0-5.1-0.8-6.6-1.7l1.3-2.7c1,0.7,3,1.6,5.4,1.6c2.7,0,4.7-1.2,4.7-3.3
		c0-5.4-10.1-3.5-10.1-11.3c0-3.2,2.3-5.9,7.4-5.9c2.3,0,4.1,0.5,5.6,1.2v3c-1.5-0.7-3.1-1.3-5.4-1.3c-2.2,0-4.1,0.8-4.1,2.8
		c0,5,10.3,3.7,10.3,11C209.3,45.6,205.5,47.5,200.9,47.5"/>
	<polygon class="st7" points="239.6,47 227.3,33.1 227.3,33.1 227.3,47 223.8,47 223.8,16.1 227.3,16.1 227.3,30.3 227.3,30.3 
		238.8,16.2 243.1,16.2 230.4,31.4 244.2,47 	"/>
	<path class="st7" d="M251.3,47.5c-2.7,0-3.9-1.7-3.9-4.1V13.8h3.4v28c0,2.1,0.5,2.5,1.8,2.5c0.2,0,0.6,0,1.2-0.1l0.4,2.5
		C253.3,47.3,252.5,47.5,251.3,47.5"/>
	<path class="st7" d="M272.5,47l-0.9-2.3c-1.6,1.4-4.2,2.8-7.2,2.8c-3,0-6.7-1.5-6.7-7.8V24.9h3.4v14.5c0,3.7,1.5,5.2,4.3,5.2
		c2.8,0,5-1.8,5.9-3V24.9h3.4v12.9c0,7,0.1,8.3,0.5,9.3H272.5z"/>
	<polygon class="st7" points="302.9,47 299.8,47 294.3,29.3 294.2,29.3 288.7,47 285.7,47 278.3,24.9 281.8,24.9 287.2,42.3 
		287.3,42.3 292.8,24.9 295.9,24.9 301.4,42.4 301.6,42.4 306.9,24.9 310.2,24.9 	"/>
</g>
<g>
	<g>
		<path class="st7" d="M55.1,43h1.2c0.3,0,0.5,0,0.6,0.1c0.5,0.2,0.8,0.6,0.8,1c0,0.6-0.5,1-0.9,1.1v0c0.3,0.1,0.7,0.9,1.2,1.8H57
			c-0.5-1-0.8-1.6-1-1.6h-0.1V47h-0.8V43z M56.1,44.8c0.4,0,0.8-0.2,0.8-0.6c0-0.2-0.1-0.4-0.3-0.5c-0.1-0.1-0.3-0.1-0.4-0.1h-0.2
			v1.1H56.1z"/>
	</g>
</g>
<path class="st7" d="M60.1,45.1c0,2.1-1.7,3.7-3.7,3.7c-2.1,0-3.7-1.7-3.7-3.7c0-2.1,1.7-3.7,3.7-3.7C58.4,41.3,60.1,43,60.1,45.1z
	 M56.4,42.1c-1.6,0-3,1.3-3,3c0,1.6,1.3,3,3,3c1.6,0,3-1.3,3-3C59.3,43.4,58,42.1,56.4,42.1z"/>
<g>
	<path class="st7" d="M73.2,62.4h1.6l2.5,7.8c0.3,0.8,0.6,1.9,0.9,2.9h0c0.3-1.1,0.6-1.9,0.9-2.9l1.9-5.6l-0.8-2.2h1.6l2.6,7.8
		c0.3,0.8,0.6,1.9,0.9,2.8h0c0.3-1,0.5-1.9,0.8-2.8l2.5-7.8h1.5l-4.3,13h-1.2l-2.1-6.1c-0.4-1-0.6-1.8-0.9-2.8h-0.1
		c-0.3,0.9-0.5,1.6-0.9,2.8l-2.1,6.1h-1.2L73.2,62.4z"/>
	<path class="st7" d="M92.4,61.5h1.4v5.8c1-0.8,2-1.4,3.2-1.4c1.5,0,2.8,0.9,2.8,3.3v6.3h-1.4v-5.8c0-1.4-0.4-2.4-1.7-2.4
		c-1,0-2,0.6-2.9,1.4v6.8h-1.4V61.5z"/>
	<path class="st7" d="M102.4,70.6c0-2.8,1.5-4.8,3.8-4.8c2.4,0,3.7,1.8,3.7,4.8V71h-6c0,1.9,1.1,3.4,3.1,3.4c0.9,0,1.7-0.3,2.3-0.6
		l0.5,1c-0.8,0.5-1.9,0.8-3,0.8C103.9,75.5,102.4,73.3,102.4,70.6z M108.4,69.8c0-1.4-0.7-2.8-2.2-2.8c-1.4,0-2.3,1.3-2.3,2.8H108.4
		z"/>
	<path class="st7" d="M112.7,66.1h1.2l0.2,1.2c1-0.9,2.1-1.4,3.3-1.4c1.5,0,2.7,0.9,2.7,3.3v6.3h-1.4v-5.8c0-1.4-0.4-2.4-1.7-2.4
		c-1,0-2,0.6-2.8,1.4v6.8h-1.5V66.1z"/>
	<path class="st7" d="M126.7,78.5c0.4,0.2,0.8,0.3,1.3,0.3c1.2,0,2.2-0.9,2.9-3.4l-4.1-9.3h1.6l3.2,7.5h0l2.5-7.5h1.5l-3.5,10
		c-1.2,3.4-2.6,3.9-4.1,3.9c-0.7,0-1.2-0.1-1.6-0.3L126.7,78.5z"/>
	<path class="st7" d="M136.9,70.7c0-2.7,1.7-4.9,4.3-4.9c2.6,0,4.3,2.1,4.3,4.9c0,2.7-1.7,4.8-4.3,4.8
		C138.6,75.5,136.9,73.4,136.9,70.7z M144,70.7c0-2.1-1.1-3.6-2.8-3.6c-1.7,0-2.8,1.5-2.8,3.6c0,2.1,1.1,3.6,2.8,3.6
		C142.9,74.3,144,72.8,144,70.7z"/>
	<path class="st7" d="M148.4,73.8c-0.2-0.5-0.2-1-0.2-1.7v-6.1h1.5v5.7c0,0.6,0,1.1,0.2,1.4c0.2,0.7,0.8,1,1.5,1
		c1.1,0,2.1-0.7,2.6-1.3v-6.9h1.4v6.1c0,1.8,0.1,2.7,0.2,3.1h-1.3l-0.3-1.1c-0.8,0.7-1.9,1.3-3.1,1.3
		C150,75.5,148.8,75.2,148.4,73.8z"/>
	<path class="st7" d="M163.9,61.5h1.4v5.8c1-0.8,2-1.4,3.2-1.4c1.4,0,2.7,0.9,2.7,3.3v6.3h-1.4v-5.8c0-1.4-0.4-2.4-1.7-2.4
		c-1,0-2,0.6-2.9,1.4v6.8h-1.4V61.5z"/>
	<path class="st7" d="M179.6,74.3c-0.7,0.7-1.6,1.2-2.8,1.2c-1.7,0-2.9-1.1-2.9-2.9c0-1.2,0.6-2.1,1.6-2.5c0.6-0.3,1.4-0.4,2.3-0.5
		l1.8-0.1v-0.6c0-1.4-0.8-2-2-2c-1.1,0-1.9,0.4-2.5,0.8l-0.6-1c1.1-0.7,2.2-0.9,3.3-0.9c1.9,0,3.3,0.9,3.3,3.2v3.2
		c0,1.8,0.1,2.7,0.2,3.2h-1.3L179.6,74.3z M177.9,70.8c-0.8,0-1.3,0.1-1.7,0.3c-0.5,0.3-0.8,0.8-0.8,1.4c0,1,0.7,1.7,1.7,1.7
		c1.2,0,2-0.8,2.5-1.2v-2.4L177.9,70.8z"/>
	<path class="st7" d="M183,66.1h1.5l2.7,7.4h0l2.6-7.4h1.5l-3.6,9.3h-1.2L183,66.1z"/>
	<path class="st7" d="M192.9,70.6c0-2.8,1.6-4.8,3.8-4.8c2.4,0,3.7,1.8,3.7,4.8V71h-6c0,1.9,1.1,3.4,3.1,3.4c0.9,0,1.6-0.3,2.3-0.6
		l0.5,1c-0.8,0.5-1.9,0.8-3,0.8C194.3,75.5,192.9,73.3,192.9,70.6z M198.9,69.8c0-1.4-0.7-2.8-2.2-2.8c-1.4,0-2.3,1.3-2.3,2.8H198.9
		z"/>
	<path class="st7" d="M208.5,73.4v-6.1h-1.6v-1.2h1.6V64l1.4-0.5v2.6h2.8l-0.4,1.2h-2.3v5.9c0,0.8,0.3,1.2,1,1.2
		c0.6,0,1.1-0.3,1.5-0.5l0.5,1c-0.6,0.4-1.4,0.7-2.3,0.7C209.3,75.5,208.5,74.8,208.5,73.4z"/>
	<path class="st7" d="M214.6,70.7c0-2.7,1.7-4.9,4.3-4.9c2.6,0,4.3,2.1,4.3,4.9c0,2.7-1.7,4.8-4.3,4.8
		C216.3,75.5,214.6,73.4,214.6,70.7z M221.7,70.7c0-2.1-1.1-3.6-2.8-3.6c-1.7,0-2.8,1.5-2.8,3.6c0,2.1,1.1,3.6,2.8,3.6
		C220.6,74.3,221.7,72.8,221.7,70.7z"/>
	<path class="st7" d="M231,75V61.5h1.4v4.8c0.6-0.2,1.2-0.4,2.1-0.4c2.3,0,4.2,1.6,4.2,4.6c0,3.2-2.2,5.1-5.1,5.1
		C232.4,75.5,231.5,75.3,231,75z M237.2,70.5c0-2-1-3.4-2.9-3.4c-1,0-1.6,0.4-1.9,0.5v6.5c0.5,0.2,1,0.3,1.4,0.3
		C235.8,74.3,237.2,72.8,237.2,70.5z"/>
	<path class="st7" d="M240.9,70.6c0-2.8,1.5-4.8,3.8-4.8c2.4,0,3.7,1.8,3.7,4.8V71h-6c0,1.9,1.1,3.4,3.1,3.4c0.9,0,1.7-0.3,2.3-0.6
		l0.5,1c-0.8,0.5-1.9,0.8-3,0.8C242.3,75.5,240.9,73.3,240.9,70.6z M246.9,69.8c0-1.4-0.7-2.8-2.2-2.8c-1.4,0-2.3,1.3-2.3,2.8H246.9
		z"/>
	<path class="st7" d="M256.2,66.1h1.2l0.2,1.2c1-1.1,1.8-1.4,2.6-1.4c0.4,0,0.8,0.1,1,0.2l-0.5,1.3c-0.2-0.1-0.5-0.2-0.8-0.2
		c-0.7,0-1.3,0.4-2.2,1.3v6.8h-1.5V66.1z"/>
	<path class="st7" d="M263.3,63c0-0.6,0.4-1,1-1c0.6,0,1,0.4,1,1c0,0.6-0.4,1-1,1C263.7,64,263.3,63.6,263.3,63z M263.6,66.1h1.4
		v9.3h-1.4V66.1z"/>
	<path class="st7" d="M278.4,61.5h1.4v5.8c1-0.8,2-1.4,3.2-1.4c1.5,0,2.7,0.9,2.7,3.3v6.3h-1.4v-5.8c0-1.4-0.4-2.4-1.7-2.4
		c-1,0-2,0.6-2.9,1.4v6.8h-1.4V61.5z"/>
	<path class="st7" d="M289.7,73.4v-6.1h-1.6v-1.2h1.6V64l1.4-0.5v2.6h2.8l-0.4,1.2h-2.3v5.9c0,0.8,0.3,1.2,1,1.2
		c0.6,0,1.1-0.3,1.5-0.5l0.5,1c-0.6,0.4-1.4,0.7-2.3,0.7C290.5,75.5,289.7,74.8,289.7,73.4z"/>
</g>
<path class="st7" d="M267.5,77.3c0-0.9,0.5-1.8,1.7-2.4c-0.4-0.2-0.7-0.7-0.7-1.2c0-0.4,0.2-1.1,1-1.8c-0.9-0.6-1.4-1.6-1.4-2.8
	c0-1.9,1.4-3.3,3.4-3.3c0.8,0,1.4,0.2,1.8,0.4c0.1,0,0.1,0,0.2,0c0.4-0.5,1.1-0.8,1.9-0.8c0.2,0,0.5,0,0.6,0.1l-0.4,1.1
	c-0.2,0-0.4-0.1-0.5-0.1c-0.3,0-0.6,0.1-0.9,0.3c0.7,0.6,1.1,1.5,1.1,2.4c0,2-1.5,3.4-3.6,3.4c-0.5,0-0.9-0.1-1.2-0.2
	c-0.3,0.4-0.5,0.7-0.5,1.1c0,1.8,6.1,0.2,6.1,3.7c0,1.7-1.7,2.9-4.5,2.9C269.1,80,267.5,79,267.5,77.3z M274.6,77.2
	c0-1.7-2.8-1.4-4.5-1.9c-0.5,0.3-1.3,0.8-1.3,1.7c0,1.1,1.2,1.8,2.8,1.8C273.7,78.8,274.6,78.1,274.6,77.2z M273.8,69.2
	c0-1.2-0.9-2.1-2.1-2.1c-1.2,0-2.1,0.8-2.1,2.1c0,1.3,0.8,2.2,2.1,2.2C272.9,71.4,273.8,70.6,273.8,69.2z"/>
</svg>
