<svg xmlns="http://www.w3.org/2000/svg" viewBox="0 0 323.19 47.05"><defs><style>.cls-1{font-size:42.35px;font-family:ProductSans-Regular, Product Sans;letter-spacing:0.02em;}.cls-1,.cls-3{fill:#f8f9fa;}.cls-2{fill:#fff;}</style></defs><title>gdg-open-organizer-logo</title><g id="Layer_2" data-name="Layer 2"><g id="Layer_4" data-name="Layer 4"><text class="cls-1" transform="translate(215.62 36.34)">Open</text><path class="cls-2" d="M37,38.54a6.87,6.87,0,0,1-9.41,2.52L3.44,27.1A6.89,6.89,0,0,1,6.9,14.25a6.8,6.8,0,0,1,3.43.92l24.19,14A6.9,6.9,0,0,1,37,38.54Z"/><path class="cls-2" d="M49.16,3.73a6.87,6.87,0,0,1,9.41-2.52l24.18,14A6.88,6.88,0,0,1,79.3,28a6.8,6.8,0,0,1-3.43-.92l-24.19-14A6.88,6.88,0,0,1,49.16,3.73Z"/><path class="cls-2" d="M34.52,13.13l-12.17,7L11.18,13.71a8.7,8.7,0,0,0-3.31-1.1L27.63,1.2a6.89,6.89,0,0,1,6.89,11.93Z"/><path class="cls-2" d="M51.68,29.13l12.17-7L75,28.56a8.7,8.7,0,0,0,3.31,1.1L58.57,41.06a6.89,6.89,0,1,1-6.89-11.93Z"/><path class="cls-3" d="M113.08,35a15.41,15.41,0,0,1-5.71-5.71,15.66,15.66,0,0,1-2.11-8,15.66,15.66,0,0,1,2.11-8A15.58,15.58,0,0,1,120.94,5.4a16.58,16.58,0,0,1,6.27,1.19,12.53,12.53,0,0,1,4.84,3.34l-2.57,2.57a9.36,9.36,0,0,0-3.68-2.72,12.52,12.52,0,0,0-10.8.59,11.87,11.87,0,0,0-4.44,4.35,12.52,12.52,0,0,0-1.67,6.49,12.52,12.52,0,0,0,1.67,6.49A11.78,11.78,0,0,0,115,32.05a12.12,12.12,0,0,0,6,1.54,12,12,0,0,0,5.09-1,11.27,11.27,0,0,0,3.53-2.51,9.25,9.25,0,0,0,1.78-2.86,12.47,12.47,0,0,0,.84-3.69H121V20.24h14.54a12.63,12.63,0,0,1,.21,2.2,17,17,0,0,1-.88,5.43,12,12,0,0,1-2.84,4.62A14.4,14.4,0,0,1,120.94,37,15.44,15.44,0,0,1,113.08,35Z"/><path class="cls-3" d="M140.2,6.08h9.13A16.5,16.5,0,0,1,157.45,8a13.3,13.3,0,0,1,5.32,5.35,16.19,16.19,0,0,1,1.86,7.86,16.19,16.19,0,0,1-1.86,7.86,13.24,13.24,0,0,1-5.32,5.35,16.5,16.5,0,0,1-8.12,1.92H140.2Zm9.13,26.84a11.64,11.64,0,0,0,8.52-3.09c2.1-2,3.15-4.93,3.15-8.62s-1.05-6.56-3.15-8.62a11.64,11.64,0,0,0-8.52-3.09h-5.58V32.92Z"/><path class="cls-3" d="M175.41,35a15.41,15.41,0,0,1-5.71-5.71,15.66,15.66,0,0,1-2.11-8,15.66,15.66,0,0,1,2.11-8A15.58,15.58,0,0,1,183.27,5.4a16.62,16.62,0,0,1,6.27,1.19,12.6,12.6,0,0,1,4.84,3.34L191.8,12.5a9.25,9.25,0,0,0-3.67-2.72,12.52,12.52,0,0,0-10.8.59,11.73,11.73,0,0,0-4.44,4.35,12.52,12.52,0,0,0-1.67,6.49,12.52,12.52,0,0,0,1.67,6.49,11.71,11.71,0,0,0,4.46,4.35,12.12,12.12,0,0,0,6,1.54,12,12,0,0,0,5.09-1,11.38,11.38,0,0,0,3.53-2.51,9.23,9.23,0,0,0,1.77-2.86,12.16,12.16,0,0,0,.85-3.69h-11.2V20.24h14.54a12.63,12.63,0,0,1,.21,2.2,17,17,0,0,1-.89,5.43,11.87,11.87,0,0,1-2.83,4.62A14.4,14.4,0,0,1,183.27,37,15.44,15.44,0,0,1,175.41,35Z"/></g></g></svg>