<svg xmlns="http://www.w3.org/2000/svg" width="478.119" height="60" viewBox="251.092 496.181 478.119 60" enable-background="new 251.092 496.181 478.119 60"><g transform="translate(-985.904 -3367.887)"><g fill="none"><path d="M1249.415 3902.277l-12.117 19.772c-.681 1.11-.172 2.019 1.131 2.019h14.209c1.302 0 2.929-.906 3.615-2.013l6.416-10.365-13.254-9.413zM1267.028 3883.49l-10.774-17.406c-.686-1.107-2.312-2.014-3.615-2.014h-14.21c-1.303 0-1.811.909-1.13 2.019l13.796 22.511 7.755-10.919 8.178 5.809z"/></g><linearGradient id="a" gradientUnits="userSpaceOnUse" x1="3797.808" y1="3464.018" x2="3813.295" y2="3473.696" gradientTransform="translate(-2553.789 443.162)"><stop offset=".54" stop-color="#0A985C"/><stop offset=".54" stop-color="#F6C25B"/></linearGradient><path fill="url(#a)" d="M1261.928 3907.385c-1.179-1.983-4.039-7.077-6.177-10.872l-2.412-4.248c.555 1.118.515 2.779-.122 3.819l-15.911 25.963c-.68 1.109-.172 2.02 1.132 2.02h14.207c1.303 0 2.93-.907 3.615-2.014l6.427-10.378c-.137.188.759-1.74-.759-4.29z"/><path d="M1249.422 3902.275l-12.116 19.773c-.68 1.109-.171 2.02 1.132 2.02h14.208c1.303 0 2.929-.907 3.615-2.014l6.419-10.366-13.258-9.413zM1267.036 3883.487l-10.776-17.406c-.683-1.108-2.311-2.013-3.613-2.013h-14.209c-1.304 0-1.812.909-1.132 2.02l13.797 22.513 7.757-10.921 8.176 5.807z" fill="none"/><path opacity=".09" fill="#010101" enable-background="new" d="M1272.339 3896.083c.688-1.108.688-2.922.002-4.03l-5.304-8.567-8.177-5.808-7.757 10.921 2.114 3.448c.681 1.11.681 2.928 0 4.038l-3.795 6.19 13.257 9.413 9.66-15.605z"/><linearGradient id="b" gradientUnits="userSpaceOnUse" x1="3802.276" y1="3445.828" x2="3818.159" y2="3435.902" gradientTransform="translate(-2553.789 443.162)"><stop offset=".57" stop-color="#5586C5"/><stop offset=".57" stop-color="#D9423E"/></linearGradient><path fill="url(#b)" d="M1272.336 3892.058l-16.076-25.973c-.685-1.108-2.313-2.014-3.615-2.014h-14.212c-1.302 0-1.81.908-1.13 2.02l15.911 25.961 2.536 4.462c2.138 3.794 4.998 8.888 6.177 10.872 1.775 2.985.247 5.115.935 4.006l9.474-15.304c.686-1.109.686-2.92 0-4.03zm-19.103.024l.057.094.004.007-.061-.101zm1.134 1.979l.168.296-.168-.296zm-.014-.036l.271.479-.271-.479z"/><path fill="#4E4E4E" d="M1306.167 3890.121h14.065v17.564c-3.819 1.308-8.017 1.961-12.594 1.961-5.023 0-8.905-1.456-11.646-4.368s-4.112-7.066-4.112-12.46c0-5.261 1.5-9.354 4.502-12.282 3.001-2.927 7.207-4.391 12.616-4.391 2.051 0 3.986.193 5.807.58s3.407.877 4.759 1.471l-2.786 6.91c-2.348-1.159-4.926-1.739-7.734-1.739-2.571 0-4.559.836-5.963 2.508-1.404 1.671-2.106 4.061-2.106 7.166 0 3.047.635 5.368 1.906 6.966s3.102 2.396 5.494 2.396c1.308 0 2.511-.126 3.611-.379v-5.104h-5.817v-6.799h-.002zm45.676 2.096c0 5.439-1.498 9.629-4.492 12.572s-7.203 4.413-12.627 4.413h-10.543v-32.588h11.278c5.23 0 9.27 1.337 12.115 4.012s4.269 6.538 4.269 11.591zm-9.14.312c0-2.987-.59-5.201-1.771-6.642s-2.976-2.162-5.383-2.162h-2.563v18.255h1.961c2.675 0 4.637-.776 5.885-2.329s1.871-3.927 1.871-7.122zm25.371-2.408h14.064v17.564c-3.819 1.308-8.018 1.961-12.594 1.961-5.022 0-8.904-1.456-11.646-4.368-2.741-2.912-4.112-7.066-4.112-12.46 0-5.261 1.501-9.354 4.503-12.282 3.001-2.927 7.207-4.391 12.615-4.391 2.051 0 3.986.193 5.807.58s3.406.877 4.759 1.471l-2.786 6.91c-2.348-1.159-4.926-1.739-7.734-1.739-2.571 0-4.559.836-5.963 2.508-1.403 1.671-2.105 4.061-2.105 7.166 0 3.047.635 5.368 1.905 6.966s3.102 2.396 5.494 2.396c1.308 0 2.511-.126 3.611-.379v-5.104h-5.817l-.001-6.799z" enable-background="new"/></g><g fill="#4E4E4E"><path d="M445.568 524.709c0 5.379-1.494 9.492-4.48 12.336-2.986 2.846-7.288 4.27-12.905 4.27h-9.116v-32.587h10.074c5.187 0 9.221 1.397 12.104 4.19s4.323 6.724 4.323 11.791zm-5.617.178c0-7.801-3.648-11.701-10.944-11.701h-4.613v23.648h3.789c7.845 0 11.768-3.982 11.768-11.947zM470.957 541.314h-5.26v-15.157c0-1.901-.383-3.321-1.148-4.257s-1.98-1.404-3.644-1.404c-2.215 0-3.834.654-4.859 1.961-1.025 1.309-1.538 3.5-1.538 6.576v12.281h-5.238v-24.652h4.102l.735 3.232h.268c.743-1.174 1.798-2.08 3.165-2.72 1.367-.639 2.883-.958 4.547-.958 5.914 0 8.871 3.009 8.871 9.027v16.071zM475.195 510.132c0-.937.256-1.657.769-2.162s1.245-.758 2.195-.758c.922 0 1.639.253 2.151.758s.769 1.226.769 2.162c0 .892-.256 1.593-.769 2.106-.513.512-1.229.769-2.151.769-.95 0-1.683-.257-2.195-.769-.513-.513-.769-1.215-.769-2.106zm5.55 31.182h-5.238v-24.652h5.238v24.652zM497.999 541.76c-3.121 0-5.543-1.121-7.267-3.365h-.312c.207 2.08.312 3.344.312 3.789v10.096h-5.238v-35.617h4.235c.119.461.364 1.561.735 3.299h.268c1.635-2.496 4.086-3.744 7.355-3.744 3.076 0 5.472 1.114 7.188 3.344 1.716 2.229 2.574 5.356 2.574 9.383 0 4.027-.873 7.17-2.619 9.428-1.744 2.258-4.155 3.387-7.231 3.387zm-1.27-21.264c-2.081 0-3.6.609-4.559 1.828-.958 1.219-1.438 3.164-1.438 5.84v.779c0 3.002.476 5.176 1.427 6.52.95 1.346 2.504 2.018 4.658 2.018 1.813 0 3.21-.742 4.19-2.229s1.471-3.604 1.471-6.354c0-2.764-.486-4.854-1.46-6.273-.972-1.419-2.402-2.129-4.289-2.129zM523.702 516.217c1.055 0 1.924.074 2.607.223l-.513 4.881c-.743-.178-1.516-.268-2.318-.268-2.095 0-3.793.684-5.093 2.051s-1.95 3.143-1.95 5.328v12.883h-5.238v-24.652h4.102l.691 4.347h.267c.817-1.472 1.884-2.638 3.199-3.499 1.314-.863 2.73-1.294 4.246-1.294zM550.005 528.943c0 4.027-1.033 7.17-3.099 9.428-2.065 2.26-4.94 3.389-8.626 3.389-2.303 0-4.339-.52-6.106-1.561-1.769-1.039-3.129-2.533-4.079-4.48-.951-1.945-1.427-4.205-1.427-6.775 0-3.996 1.025-7.117 3.076-9.361 2.051-2.243 4.94-3.365 8.67-3.365 3.566 0 6.39 1.147 8.47 3.443s3.121 5.39 3.121 9.282zm-17.943 0c0 5.691 2.103 8.537 6.309 8.537 4.16 0 6.24-2.846 6.24-8.537 0-5.631-2.095-8.447-6.285-8.447-2.199 0-3.793.729-4.781 2.184-.989 1.457-1.483 3.545-1.483 6.263zM565.789 541.76c-3.121 0-5.543-1.121-7.267-3.365h-.312c.207 2.08.312 3.344.312 3.789v10.096h-5.238v-35.617h4.235c.119.461.364 1.561.735 3.299h.268c1.635-2.496 4.086-3.744 7.355-3.744 3.076 0 5.472 1.114 7.188 3.344 1.716 2.229 2.574 5.356 2.574 9.383 0 4.027-.873 7.17-2.619 9.428-1.745 2.258-4.156 3.387-7.231 3.387zm-1.271-21.264c-2.081 0-3.6.609-4.559 1.828-.958 1.219-1.438 3.164-1.438 5.84v.779c0 3.002.476 5.176 1.427 6.52.95 1.346 2.504 2.018 4.658 2.018 1.813 0 3.21-.742 4.19-2.229s1.471-3.604 1.471-6.354c0-2.764-.486-4.854-1.46-6.273-.972-1.419-2.402-2.129-4.289-2.129zM589.751 541.76c-3.833 0-6.831-1.117-8.993-3.355-2.162-2.234-3.243-5.314-3.243-9.238 0-4.026 1.003-7.191 3.009-9.494 2.006-2.304 4.763-3.455 8.27-3.455 3.254 0 5.824.988 7.712 2.965 1.887 1.976 2.831 4.695 2.831 8.156v2.832h-16.428c.074 2.393.721 4.23 1.939 5.516s2.935 1.928 5.148 1.928c1.456 0 2.813-.137 4.068-.412 1.255-.273 2.604-.73 4.045-1.371v4.258c-1.277.609-2.57 1.041-3.878 1.293s-2.8.377-4.48.377zm-.958-21.576c-1.664 0-2.998.527-4.001 1.583s-1.602 2.593-1.794 4.614h11.188c-.029-2.036-.52-3.578-1.471-4.625-.95-1.048-2.258-1.572-3.922-1.572zM611.731 537.525c1.277 0 2.556-.201 3.834-.602v3.945c-.58.252-1.326.463-2.24.635-.914.17-1.861.256-2.842.256-4.964 0-7.444-2.615-7.444-7.846v-13.283h-3.366v-2.318l3.611-1.917 1.783-5.215h3.231v5.482h7.021v3.968h-7.021v13.194c0 1.264.315 2.195.947 2.799.632.602 1.461.902 2.486.902zM630.256 516.217c1.055 0 1.924.074 2.607.223l-.513 4.881c-.743-.178-1.516-.268-2.318-.268-2.095 0-3.793.684-5.093 2.051s-1.95 3.143-1.95 5.328v12.883h-5.238v-24.652h4.102l.691 4.347h.267c.817-1.472 1.884-2.638 3.199-3.499 1.315-.863 2.731-1.294 4.246-1.294zM656.56 528.943c0 4.027-1.033 7.17-3.099 9.428-2.065 2.26-4.94 3.389-8.626 3.389-2.303 0-4.339-.52-6.106-1.561-1.769-1.039-3.129-2.533-4.079-4.48-.951-1.945-1.427-4.205-1.427-6.775 0-3.996 1.025-7.117 3.076-9.361 2.051-2.243 4.94-3.365 8.67-3.365 3.566 0 6.39 1.147 8.47 3.443s3.121 5.39 3.121 9.282zm-17.943 0c0 5.691 2.103 8.537 6.309 8.537 4.16 0 6.24-2.846 6.24-8.537 0-5.631-2.095-8.447-6.285-8.447-2.199 0-3.793.729-4.781 2.184-.989 1.457-1.483 3.545-1.483 6.263zM665.456 541.314l-9.361-24.652h5.527l5.016 14.332c.861 2.408 1.382 4.354 1.56 5.84h.179c.134-1.07.653-3.016 1.561-5.84l5.015-14.332h5.572l-9.406 24.652h-5.663zM698.089 534.293c0 2.406-.877 4.254-2.631 5.539-1.753 1.285-4.265 1.928-7.533 1.928-3.284 0-5.922-.498-7.913-1.494v-4.523c2.898 1.336 5.595 2.006 8.091 2.006 3.225 0 4.837-.973 4.837-2.92 0-.625-.178-1.145-.535-1.561-.356-.416-.943-.848-1.761-1.293s-1.954-.951-3.41-1.516c-2.838-1.1-4.759-2.199-5.762-3.299s-1.504-2.525-1.504-4.279c0-2.109.851-3.748 2.552-4.914 1.701-1.167 4.016-1.75 6.943-1.75 2.897 0 5.639.587 8.225 1.761l-1.694 3.944c-2.66-1.099-4.896-1.648-6.709-1.648-2.764 0-4.146.787-4.146 2.362 0 .772.36 1.427 1.081 1.962s2.292 1.27 4.714 2.206c2.036.788 3.514 1.509 4.436 2.163.921.652 1.604 1.406 2.051 2.262.445.853.668 1.875.668 3.064zM705.202 508.728l.335.49c-.788 3.106-2.096 6.665-3.923 10.677h-3.789c1.024-4.295 1.768-8.017 2.229-11.167h5.148zM712.136 528.297l2.965-3.699 7.444-7.936h6.041l-9.919 10.588 10.543 14.064h-6.152l-7.912-10.811-2.876 2.363v8.447h-5.193v-34.682h5.193v16.917l-.267 4.747h.133z"/></g></svg>