<svg xmlns="http://www.w3.org/2000/svg" width="347.664" height="60" viewBox="251.092 496.181 347.664 60" enable-background="new 251.092 496.181 347.664 60"><g transform="translate(-985.904 -3367.887)"><g fill="none"><path d="M1249.415 3902.277l-12.117 19.772c-.681 1.11-.172 2.019 1.131 2.019h14.209c1.302 0 2.929-.906 3.615-2.013l6.416-10.365-13.254-9.413zM1267.028 3883.49l-10.774-17.406c-.686-1.107-2.312-2.014-3.615-2.014h-14.21c-1.303 0-1.811.909-1.13 2.019l13.796 22.511 7.755-10.919 8.178 5.809z"/></g><linearGradient id="a" gradientUnits="userSpaceOnUse" x1="3797.808" y1="3464.018" x2="3813.295" y2="3473.696" gradientTransform="translate(-2553.789 443.162)"><stop offset=".54" stop-color="#0A985C"/><stop offset=".54" stop-color="#F6C25B"/></linearGradient><path fill="url(#a)" d="M1261.928 3907.385c-1.179-1.983-4.039-7.077-6.177-10.872l-2.412-4.248c.555 1.118.515 2.779-.122 3.819l-15.911 25.963c-.68 1.109-.172 2.02 1.132 2.02h14.207c1.303 0 2.93-.907 3.615-2.014l6.427-10.378c-.137.188.759-1.74-.759-4.29z"/><path d="M1249.422 3902.275l-12.116 19.773c-.68 1.109-.171 2.02 1.132 2.02h14.208c1.303 0 2.929-.907 3.615-2.014l6.419-10.366-13.258-9.413zM1267.036 3883.487l-10.776-17.406c-.683-1.108-2.311-2.013-3.613-2.013h-14.209c-1.304 0-1.812.909-1.132 2.02l13.797 22.513 7.757-10.921 8.176 5.807z" fill="none"/><path opacity=".09" fill="#010101" enable-background="new" d="M1272.339 3896.083c.688-1.108.688-2.922.002-4.03l-5.304-8.567-8.177-5.808-7.757 10.921 2.114 3.448c.681 1.11.681 2.928 0 4.038l-3.795 6.19 13.257 9.413 9.66-15.605z"/><linearGradient id="b" gradientUnits="userSpaceOnUse" x1="3802.276" y1="3445.828" x2="3818.159" y2="3435.902" gradientTransform="translate(-2553.789 443.162)"><stop offset=".57" stop-color="#5586C5"/><stop offset=".57" stop-color="#D9423E"/></linearGradient><path fill="url(#b)" d="M1272.336 3892.058l-16.076-25.973c-.685-1.108-2.313-2.014-3.615-2.014h-14.212c-1.302 0-1.81.908-1.13 2.02l15.911 25.961 2.536 4.462c2.138 3.794 4.998 8.888 6.177 10.872 1.775 2.985.247 5.115.935 4.006l9.474-15.304c.686-1.109.686-2.92 0-4.03zm-19.103.024l.057.094.004.007-.061-.101zm1.134 1.979l.168.296-.168-.296zm-.014-.036l.271.479-.271-.479z"/><path fill="#4E4E4E" d="M1306.167 3890.121h14.065v17.564c-3.819 1.308-8.017 1.961-12.594 1.961-5.023 0-8.905-1.456-11.646-4.368s-4.112-7.066-4.112-12.46c0-5.261 1.5-9.354 4.502-12.282 3.001-2.927 7.207-4.391 12.616-4.391 2.051 0 3.986.193 5.807.58s3.407.877 4.759 1.471l-2.786 6.91c-2.348-1.159-4.926-1.739-7.734-1.739-2.571 0-4.559.836-5.963 2.508-1.404 1.671-2.106 4.061-2.106 7.166 0 3.047.635 5.368 1.906 6.966s3.102 2.396 5.494 2.396c1.308 0 2.511-.126 3.611-.379v-5.104h-5.817v-6.799h-.002zm45.676 2.096c0 5.439-1.498 9.629-4.492 12.572s-7.203 4.413-12.627 4.413h-10.543v-32.588h11.278c5.23 0 9.27 1.337 12.115 4.012s4.269 6.538 4.269 11.591zm-9.14.312c0-2.987-.59-5.201-1.771-6.642s-2.976-2.162-5.383-2.162h-2.563v18.255h1.961c2.675 0 4.637-.776 5.885-2.329s1.871-3.927 1.871-7.122zm25.371-2.408h14.064v17.564c-3.819 1.308-8.018 1.961-12.594 1.961-5.022 0-8.904-1.456-11.646-4.368-2.741-2.912-4.112-7.066-4.112-12.46 0-5.261 1.501-9.354 4.503-12.282 3.001-2.927 7.207-4.391 12.615-4.391 2.051 0 3.986.193 5.807.58s3.406.877 4.759 1.471l-2.786 6.91c-2.348-1.159-4.926-1.739-7.734-1.739-2.571 0-4.559.836-5.963 2.508-1.403 1.671-2.105 4.061-2.105 7.166 0 3.047.635 5.368 1.905 6.966s3.102 2.396 5.494 2.396c1.308 0 2.511-.126 3.611-.379v-5.104h-5.817l-.001-6.799z" enable-background="new"/></g><g fill="#4E4E4E"><path d="M432.929 512.828c-3.061 0-5.468 1.086-7.221 3.255-1.754 2.169-2.631 5.163-2.631 8.982 0 3.997.844 7.021 2.53 9.071s4.127 3.076 7.321 3.076c1.383 0 2.72-.137 4.013-.412s2.638-.627 4.034-1.059v4.568c-2.556.967-5.453 1.449-8.692 1.449-4.771 0-8.434-1.445-10.989-4.336-2.556-2.889-3.833-7.023-3.833-12.403 0-3.388.62-6.353 1.86-8.894 1.241-2.541 3.035-4.486 5.383-5.84 2.348-1.352 5.104-2.027 8.27-2.027 3.328 0 6.404.698 9.228 2.095l-1.917 4.436c-1.1-.521-2.262-.978-3.488-1.37-1.226-.394-2.515-.591-3.868-.591zM466.388 541.314h-5.26v-15.157c0-1.901-.383-3.321-1.148-4.257s-1.98-1.404-3.644-1.404c-2.2 0-3.815.658-4.849 1.973-1.032 1.314-1.549 3.518-1.549 6.609v12.236h-5.238v-34.682h5.238v8.804c0 1.411-.089 2.92-.268 4.524h.335c.713-1.188 1.705-2.109 2.976-2.764 1.27-.654 2.752-.98 4.446-.98 5.974 0 8.96 3.009 8.96 9.027v16.071zM481.703 541.76c-3.833 0-6.831-1.117-8.993-3.355-2.162-2.234-3.243-5.314-3.243-9.238 0-4.026 1.003-7.191 3.009-9.494 2.006-2.304 4.763-3.455 8.27-3.455 3.254 0 5.824.988 7.712 2.965 1.887 1.976 2.831 4.695 2.831 8.156v2.832h-16.429c.074 2.393.721 4.23 1.939 5.516s2.935 1.928 5.148 1.928c1.456 0 2.813-.137 4.068-.412 1.255-.273 2.604-.73 4.045-1.371v4.258c-1.277.609-2.57 1.041-3.878 1.293s-2.8.377-4.479.377zm-.958-21.576c-1.664 0-2.998.527-4.001 1.583s-1.602 2.593-1.794 4.614h11.188c-.029-2.036-.52-3.578-1.471-4.625-.951-1.048-2.258-1.572-3.922-1.572zM507.004 516.217c1.055 0 1.924.074 2.607.223l-.513 4.881c-.743-.178-1.516-.268-2.318-.268-2.095 0-3.793.684-5.093 2.051s-1.95 3.143-1.95 5.328v12.883h-5.238v-24.652h4.102l.691 4.347h.267c.817-1.472 1.884-2.638 3.199-3.499 1.315-.863 2.731-1.294 4.246-1.294zM516.501 528.297l2.965-3.699 7.444-7.936h6.041l-9.919 10.588 10.543 14.064h-6.152l-7.912-10.811-2.876 2.363v8.447h-5.193v-34.682h5.193v16.917l-.267 4.747h.133zM550.228 541.314l-1.048-3.434h-.179c-1.188 1.502-2.385 2.523-3.588 3.064-1.204.543-2.75.814-4.637.814-2.422 0-4.313-.654-5.672-1.961-1.36-1.309-2.04-3.158-2.04-5.551 0-2.541.943-4.457 2.831-5.75 1.887-1.293 4.762-1.998 8.626-2.117l4.257-.135v-1.314c0-1.574-.368-2.753-1.104-3.533-.735-.779-1.876-1.17-3.421-1.17-1.264 0-2.475.186-3.634.557-1.158.372-2.273.811-3.343 1.316l-1.694-3.745c1.338-.698 2.801-1.229 4.392-1.594 1.59-.364 3.09-.546 4.502-.546 3.135 0 5.502.684 7.099 2.051 1.598 1.367 2.396 3.514 2.396 6.441v16.605h-3.743zm-7.802-3.566c1.902 0 3.429-.531 4.581-1.594 1.151-1.063 1.727-2.553 1.727-4.469v-2.141l-3.165.135c-2.467.088-4.261.5-5.383 1.236s-1.683 1.861-1.683 3.377c0 1.1.327 1.951.98 2.553.655.602 1.636.903 2.943.903zM575.105 534.293c0 2.406-.877 4.254-2.631 5.539-1.753 1.285-4.265 1.928-7.533 1.928-3.284 0-5.922-.498-7.913-1.494v-4.523c2.898 1.336 5.595 2.006 8.091 2.006 3.225 0 4.837-.973 4.837-2.92 0-.625-.178-1.145-.535-1.561-.356-.416-.943-.848-1.761-1.293s-1.954-.951-3.41-1.516c-2.838-1.1-4.759-2.199-5.762-3.299s-1.504-2.525-1.504-4.279c0-2.109.851-3.748 2.552-4.914 1.701-1.167 4.016-1.75 6.943-1.75 2.897 0 5.639.587 8.225 1.761l-1.694 3.944c-2.66-1.099-4.896-1.648-6.709-1.648-2.764 0-4.146.787-4.146 2.362 0 .772.36 1.427 1.081 1.962s2.292 1.27 4.714 2.206c2.036.788 3.514 1.509 4.436 2.163.921.652 1.604 1.406 2.051 2.262.444.853.668 1.875.668 3.064zM574.283 516.662h5.706l5.015 13.975c.758 1.992 1.263 3.865 1.516 5.617h.179c.134-.816.379-1.809.735-2.975s2.243-6.705 5.661-16.617h5.662l-10.543 27.928c-1.917 5.127-5.112 7.689-9.584 7.689-1.159 0-2.289-.125-3.389-.379v-4.145c.788.178 1.687.268 2.697.268 2.526 0 4.302-1.465 5.327-4.391l.914-2.318-9.896-24.652z"/></g></svg>